<?xml version="1.0" encoding="utf-8" standalone="no"?>
<!DOCTYPE svg PUBLIC "-//W3C//DTD SVG 1.1//EN"
  "http://www.w3.org/Graphics/SVG/1.1/DTD/svg11.dtd">
<svg xmlns:xlink="http://www.w3.org/1999/xlink" width="449.116211pt" height="340.800273pt" viewBox="0 0 449.116211 340.800273" xmlns="http://www.w3.org/2000/svg" version="1.1">
 <metadata>
  <rdf:RDF xmlns:dc="http://purl.org/dc/elements/1.1/" xmlns:cc="http://creativecommons.org/ns#" xmlns:rdf="http://www.w3.org/1999/02/22-rdf-syntax-ns#">
   <cc:Work>
    <dc:type rdf:resource="http://purl.org/dc/dcmitype/StillImage"/>
    <dc:date>2026-07-09T17:08:09.864547</dc:date>
    <dc:format>image/svg+xml</dc:format>
    <dc:creator>
     <cc:Agent>
      <dc:title>Matplotlib v3.11.0, https://matplotlib.org/</dc:title>
     </cc:Agent>
    </dc:creator>
   </cc:Work>
  </rdf:RDF>
 </metadata>
 <defs>
  <style type="text/css">*{stroke-linejoin: round; stroke-linecap: butt}</style>
 </defs>
 <g id="figure_1">
  <g id="patch_1">
   <path d="M 0 340.800273 
L 449.116211 340.800273 
L 449.116211 0 
L 0 0 
z
" style="fill: #ffffff"/>
  </g>
  <g id="axes_1">
   <g id="patch_2">
    <path d="M 35.624258 299.822656 
L 426.345586 299.822656 
L 426.345586 20.392383 
L 35.624258 20.392383 
z
" style="fill: #ffffff"/>
   </g>
   <g id="matplotlib.axis_1">
    <g id="xtick_1">
     <g id="line2d_1">
      <defs>
       <path id="m3d6bfe3d83" d="M 0 0 
L 0 -6 
" style="stroke: #000000; stroke-width: 1.5"/>
      </defs>
      <g>
       <use xlink:href="#m3d6bfe3d83" x="35.624258" y="299.822656" style="stroke: #000000; stroke-width: 1.5"/>
      </g>
     </g>
     <g id="text_1">
      <!-- 0 -->
      <g transform="translate(31.731602 313.515039) scale(0.14 -0.14)">
       <defs>
        <path id="ArialMT-13" d="M 266 2259 
Q 266 3072 433 3567 
Q 600 4063 929 4331 
Q 1259 4600 1759 4600 
Q 2128 4600 2406 4451 
Q 2684 4303 2865 4023 
Q 3047 3744 3150 3342 
Q 3253 2941 3253 2259 
Q 3253 1453 3087 958 
Q 2922 463 2592 192 
Q 2263 -78 1759 -78 
Q 1097 -78 719 397 
Q 266 969 266 2259 
z
M 844 2259 
Q 844 1131 1108 757 
Q 1372 384 1759 384 
Q 2147 384 2411 759 
Q 2675 1134 2675 2259 
Q 2675 3391 2411 3762 
Q 2147 4134 1753 4134 
Q 1366 4134 1134 3806 
Q 844 3388 844 2259 
z
" transform="scale(0.015625)"/>
       </defs>
       <use xlink:href="#ArialMT-13"/>
      </g>
     </g>
    </g>
    <g id="xtick_2">
     <g id="line2d_2">
      <g>
       <use xlink:href="#m3d6bfe3d83" x="100.744479" y="299.822656" style="stroke: #000000; stroke-width: 1.5"/>
      </g>
     </g>
     <g id="text_2">
      <!-- 200 -->
      <g transform="translate(89.06651 313.515039) scale(0.14 -0.14)">
       <defs>
        <path id="ArialMT-15" d="M 3222 541 
L 3222 0 
L 194 0 
Q 188 203 259 391 
Q 375 700 629 1000 
Q 884 1300 1366 1694 
Q 2113 2306 2375 2664 
Q 2638 3022 2638 3341 
Q 2638 3675 2398 3904 
Q 2159 4134 1775 4134 
Q 1369 4134 1125 3890 
Q 881 3647 878 3216 
L 300 3275 
Q 359 3922 746 4261 
Q 1134 4600 1788 4600 
Q 2447 4600 2831 4234 
Q 3216 3869 3216 3328 
Q 3216 3053 3103 2787 
Q 2991 2522 2730 2228 
Q 2469 1934 1863 1422 
Q 1356 997 1212 845 
Q 1069 694 975 541 
L 3222 541 
z
" transform="scale(0.015625)"/>
       </defs>
       <use xlink:href="#ArialMT-15"/>
       <use xlink:href="#ArialMT-13" transform="translate(55.609375 0)"/>
       <use xlink:href="#ArialMT-13" transform="translate(111.21875 0)"/>
      </g>
     </g>
    </g>
    <g id="xtick_3">
     <g id="line2d_3">
      <g>
       <use xlink:href="#m3d6bfe3d83" x="165.864701" y="299.822656" style="stroke: #000000; stroke-width: 1.5"/>
      </g>
     </g>
     <g id="text_3">
      <!-- 400 -->
      <g transform="translate(154.186732 313.515039) scale(0.14 -0.14)">
       <defs>
        <path id="ArialMT-17" d="M 2069 0 
L 2069 1097 
L 81 1097 
L 81 1613 
L 2172 4581 
L 2631 4581 
L 2631 1613 
L 3250 1613 
L 3250 1097 
L 2631 1097 
L 2631 0 
L 2069 0 
z
M 2069 1613 
L 2069 3678 
L 634 1613 
L 2069 1613 
z
" transform="scale(0.015625)"/>
       </defs>
       <use xlink:href="#ArialMT-17"/>
       <use xlink:href="#ArialMT-13" transform="translate(55.609375 0)"/>
       <use xlink:href="#ArialMT-13" transform="translate(111.21875 0)"/>
      </g>
     </g>
    </g>
    <g id="xtick_4">
     <g id="line2d_4">
      <g>
       <use xlink:href="#m3d6bfe3d83" x="230.984922" y="299.822656" style="stroke: #000000; stroke-width: 1.5"/>
      </g>
     </g>
     <g id="text_4">
      <!-- 600 -->
      <g transform="translate(219.306953 313.515039) scale(0.14 -0.14)">
       <defs>
        <path id="ArialMT-19" d="M 3184 3459 
L 2625 3416 
Q 2550 3747 2413 3897 
Q 2184 4138 1850 4138 
Q 1581 4138 1378 3988 
Q 1113 3794 959 3422 
Q 806 3050 800 2363 
Q 1003 2672 1297 2822 
Q 1591 2972 1913 2972 
Q 2475 2972 2870 2558 
Q 3266 2144 3266 1488 
Q 3266 1056 3080 686 
Q 2894 316 2569 119 
Q 2244 -78 1831 -78 
Q 1128 -78 684 439 
Q 241 956 241 2144 
Q 241 3472 731 4075 
Q 1159 4600 1884 4600 
Q 2425 4600 2770 4297 
Q 3116 3994 3184 3459 
z
M 888 1484 
Q 888 1194 1011 928 
Q 1134 663 1356 523 
Q 1578 384 1822 384 
Q 2178 384 2434 671 
Q 2691 959 2691 1453 
Q 2691 1928 2437 2201 
Q 2184 2475 1800 2475 
Q 1419 2475 1153 2201 
Q 888 1928 888 1484 
z
" transform="scale(0.015625)"/>
       </defs>
       <use xlink:href="#ArialMT-19"/>
       <use xlink:href="#ArialMT-13" transform="translate(55.609375 0)"/>
       <use xlink:href="#ArialMT-13" transform="translate(111.21875 0)"/>
      </g>
     </g>
    </g>
    <g id="xtick_5">
     <g id="line2d_5">
      <g>
       <use xlink:href="#m3d6bfe3d83" x="296.105143" y="299.822656" style="stroke: #000000; stroke-width: 1.5"/>
      </g>
     </g>
     <g id="text_5">
      <!-- 800 -->
      <g transform="translate(284.427174 313.515039) scale(0.14 -0.14)">
       <defs>
        <path id="ArialMT-1b" d="M 1131 2484 
Q 781 2613 612 2850 
Q 444 3088 444 3419 
Q 444 3919 803 4259 
Q 1163 4600 1759 4600 
Q 2359 4600 2725 4251 
Q 3091 3903 3091 3403 
Q 3091 3084 2923 2848 
Q 2756 2613 2416 2484 
Q 2838 2347 3058 2040 
Q 3278 1734 3278 1309 
Q 3278 722 2862 322 
Q 2447 -78 1769 -78 
Q 1091 -78 675 323 
Q 259 725 259 1325 
Q 259 1772 486 2073 
Q 713 2375 1131 2484 
z
M 1019 3438 
Q 1019 3113 1228 2906 
Q 1438 2700 1772 2700 
Q 2097 2700 2305 2904 
Q 2513 3109 2513 3406 
Q 2513 3716 2298 3927 
Q 2084 4138 1766 4138 
Q 1444 4138 1231 3931 
Q 1019 3725 1019 3438 
z
M 838 1322 
Q 838 1081 952 856 
Q 1066 631 1291 507 
Q 1516 384 1775 384 
Q 2178 384 2440 643 
Q 2703 903 2703 1303 
Q 2703 1709 2433 1975 
Q 2163 2241 1756 2241 
Q 1359 2241 1098 1978 
Q 838 1716 838 1322 
z
" transform="scale(0.015625)"/>
       </defs>
       <use xlink:href="#ArialMT-1b"/>
       <use xlink:href="#ArialMT-13" transform="translate(55.609375 0)"/>
       <use xlink:href="#ArialMT-13" transform="translate(111.21875 0)"/>
      </g>
     </g>
    </g>
    <g id="xtick_6">
     <g id="line2d_6">
      <g>
       <use xlink:href="#m3d6bfe3d83" x="361.225365" y="299.822656" style="stroke: #000000; stroke-width: 1.5"/>
      </g>
     </g>
     <g id="text_6">
      <!-- 1000 -->
      <g transform="translate(345.65474 313.515039) scale(0.14 -0.14)">
       <defs>
        <path id="ArialMT-14" d="M 2384 0 
L 1822 0 
L 1822 3584 
Q 1619 3391 1289 3197 
Q 959 3003 697 2906 
L 697 3450 
Q 1169 3672 1522 3987 
Q 1875 4303 2022 4600 
L 2384 4600 
L 2384 0 
z
" transform="scale(0.015625)"/>
       </defs>
       <use xlink:href="#ArialMT-14"/>
       <use xlink:href="#ArialMT-13" transform="translate(55.609375 0)"/>
       <use xlink:href="#ArialMT-13" transform="translate(111.21875 0)"/>
       <use xlink:href="#ArialMT-13" transform="translate(166.828125 0)"/>
      </g>
     </g>
    </g>
    <g id="xtick_7">
     <g id="line2d_7">
      <g>
       <use xlink:href="#m3d6bfe3d83" x="426.345586" y="299.822656" style="stroke: #000000; stroke-width: 1.5"/>
      </g>
     </g>
     <g id="text_7">
      <!-- 1200 -->
      <g transform="translate(410.774961 313.515039) scale(0.14 -0.14)">
       <use xlink:href="#ArialMT-14"/>
       <use xlink:href="#ArialMT-15" transform="translate(55.609375 0)"/>
       <use xlink:href="#ArialMT-13" transform="translate(111.21875 0)"/>
       <use xlink:href="#ArialMT-13" transform="translate(166.828125 0)"/>
      </g>
     </g>
    </g>
    <g id="text_8">
     <!-- T1 Temperature (°C) -->
     <g transform="translate(167.245547 330.653711) scale(0.14 -0.14)">
      <defs>
       <path id="ArialMT-37" d="M 1659 0 
L 1659 4041 
L 150 4041 
L 150 4581 
L 3781 4581 
L 3781 4041 
L 2266 4041 
L 2266 0 
L 1659 0 
z
" transform="scale(0.015625)"/>
       <path id="ArialMT-3" transform="scale(0.015625)"/>
       <path id="ArialMT-48" d="M 2694 1069 
L 3275 997 
Q 3138 488 2766 206 
Q 2394 -75 1816 -75 
Q 1088 -75 661 373 
Q 234 822 234 1631 
Q 234 2469 665 2931 
Q 1097 3394 1784 3394 
Q 2450 3394 2872 2941 
Q 3294 2488 3294 1666 
Q 3294 1616 3291 1516 
L 816 1516 
Q 847 969 1125 678 
Q 1403 388 1819 388 
Q 2128 388 2347 550 
Q 2566 713 2694 1069 
z
M 847 1978 
L 2700 1978 
Q 2663 2397 2488 2606 
Q 2219 2931 1791 2931 
Q 1403 2931 1139 2672 
Q 875 2413 847 1978 
z
" transform="scale(0.015625)"/>
       <path id="ArialMT-50" d="M 422 0 
L 422 3319 
L 925 3319 
L 925 2853 
Q 1081 3097 1340 3245 
Q 1600 3394 1931 3394 
Q 2300 3394 2536 3241 
Q 2772 3088 2869 2813 
Q 3263 3394 3894 3394 
Q 4388 3394 4653 3120 
Q 4919 2847 4919 2278 
L 4919 0 
L 4359 0 
L 4359 2091 
Q 4359 2428 4304 2576 
Q 4250 2725 4106 2815 
Q 3963 2906 3769 2906 
Q 3419 2906 3187 2673 
Q 2956 2441 2956 1928 
L 2956 0 
L 2394 0 
L 2394 2156 
Q 2394 2531 2256 2718 
Q 2119 2906 1806 2906 
Q 1569 2906 1367 2781 
Q 1166 2656 1075 2415 
Q 984 2175 984 1722 
L 984 0 
L 422 0 
z
" transform="scale(0.015625)"/>
       <path id="ArialMT-53" d="M 422 -1272 
L 422 3319 
L 934 3319 
L 934 2888 
Q 1116 3141 1344 3267 
Q 1572 3394 1897 3394 
Q 2322 3394 2647 3175 
Q 2972 2956 3137 2557 
Q 3303 2159 3303 1684 
Q 3303 1175 3120 767 
Q 2938 359 2589 142 
Q 2241 -75 1856 -75 
Q 1575 -75 1351 44 
Q 1128 163 984 344 
L 984 -1272 
L 422 -1272 
z
M 931 1641 
Q 931 1000 1190 694 
Q 1450 388 1819 388 
Q 2194 388 2461 705 
Q 2728 1022 2728 1688 
Q 2728 2322 2467 2637 
Q 2206 2953 1844 2953 
Q 1484 2953 1207 2617 
Q 931 2281 931 1641 
z
" transform="scale(0.015625)"/>
       <path id="ArialMT-55" d="M 416 0 
L 416 3319 
L 922 3319 
L 922 2816 
Q 1116 3169 1280 3281 
Q 1444 3394 1641 3394 
Q 1925 3394 2219 3213 
L 2025 2691 
Q 1819 2813 1613 2813 
Q 1428 2813 1281 2702 
Q 1134 2591 1072 2394 
Q 978 2094 978 1738 
L 978 0 
L 416 0 
z
" transform="scale(0.015625)"/>
       <path id="ArialMT-44" d="M 2588 409 
Q 2275 144 1986 34 
Q 1697 -75 1366 -75 
Q 819 -75 525 192 
Q 231 459 231 875 
Q 231 1119 342 1320 
Q 453 1522 633 1644 
Q 813 1766 1038 1828 
Q 1203 1872 1538 1913 
Q 2219 1994 2541 2106 
Q 2544 2222 2544 2253 
Q 2544 2597 2384 2738 
Q 2169 2928 1744 2928 
Q 1347 2928 1158 2789 
Q 969 2650 878 2297 
L 328 2372 
Q 403 2725 575 2942 
Q 747 3159 1072 3276 
Q 1397 3394 1825 3394 
Q 2250 3394 2515 3294 
Q 2781 3194 2906 3042 
Q 3031 2891 3081 2659 
Q 3109 2516 3109 2141 
L 3109 1391 
Q 3109 606 3145 398 
Q 3181 191 3288 0 
L 2700 0 
Q 2613 175 2588 409 
z
M 2541 1666 
Q 2234 1541 1622 1453 
Q 1275 1403 1131 1340 
Q 988 1278 909 1158 
Q 831 1038 831 891 
Q 831 666 1001 516 
Q 1172 366 1500 366 
Q 1825 366 2078 508 
Q 2331 650 2450 897 
Q 2541 1088 2541 1459 
L 2541 1666 
z
" transform="scale(0.015625)"/>
       <path id="ArialMT-57" d="M 1650 503 
L 1731 6 
Q 1494 -44 1306 -44 
Q 1000 -44 831 53 
Q 663 150 594 308 
Q 525 466 525 972 
L 525 2881 
L 113 2881 
L 113 3319 
L 525 3319 
L 525 4141 
L 1084 4478 
L 1084 3319 
L 1650 3319 
L 1650 2881 
L 1084 2881 
L 1084 941 
Q 1084 700 1114 631 
Q 1144 563 1211 522 
Q 1278 481 1403 481 
Q 1497 481 1650 503 
z
" transform="scale(0.015625)"/>
       <path id="ArialMT-58" d="M 2597 0 
L 2597 488 
Q 2209 -75 1544 -75 
Q 1250 -75 995 37 
Q 741 150 617 320 
Q 494 491 444 738 
Q 409 903 409 1263 
L 409 3319 
L 972 3319 
L 972 1478 
Q 972 1038 1006 884 
Q 1059 663 1231 536 
Q 1403 409 1656 409 
Q 1909 409 2131 539 
Q 2353 669 2445 892 
Q 2538 1116 2538 1541 
L 2538 3319 
L 3100 3319 
L 3100 0 
L 2597 0 
z
" transform="scale(0.015625)"/>
       <path id="ArialMT-b" d="M 1497 -1347 
Q 1031 -759 709 28 
Q 388 816 388 1659 
Q 388 2403 628 3084 
Q 909 3875 1497 4659 
L 1900 4659 
Q 1522 4009 1400 3731 
Q 1209 3300 1100 2831 
Q 966 2247 966 1656 
Q 966 153 1900 -1347 
L 1497 -1347 
z
" transform="scale(0.015625)"/>
       <path id="ArialMT-83" d="M 400 3794 
Q 400 4153 654 4406 
Q 909 4659 1266 4659 
Q 1628 4659 1881 4406 
Q 2134 4153 2134 3794 
Q 2134 3434 1879 3179 
Q 1625 2925 1266 2925 
Q 909 2925 654 3178 
Q 400 3431 400 3794 
z
M 741 3794 
Q 741 3575 895 3420 
Q 1050 3266 1269 3266 
Q 1484 3266 1639 3420 
Q 1794 3575 1794 3794 
Q 1794 4013 1639 4167 
Q 1484 4322 1269 4322 
Q 1050 4322 895 4167 
Q 741 4013 741 3794 
z
" transform="scale(0.015625)"/>
       <path id="ArialMT-26" d="M 3763 1606 
L 4369 1453 
Q 4178 706 3683 314 
Q 3188 -78 2472 -78 
Q 1731 -78 1267 223 
Q 803 525 561 1097 
Q 319 1669 319 2325 
Q 319 3041 592 3573 
Q 866 4106 1370 4382 
Q 1875 4659 2481 4659 
Q 3169 4659 3637 4309 
Q 4106 3959 4291 3325 
L 3694 3184 
Q 3534 3684 3231 3912 
Q 2928 4141 2469 4141 
Q 1941 4141 1586 3887 
Q 1231 3634 1087 3207 
Q 944 2781 944 2328 
Q 944 1744 1114 1308 
Q 1284 872 1643 656 
Q 2003 441 2422 441 
Q 2931 441 3284 734 
Q 3638 1028 3763 1606 
z
" transform="scale(0.015625)"/>
       <path id="ArialMT-c" d="M 791 -1347 
L 388 -1347 
Q 1322 153 1322 1656 
Q 1322 2244 1188 2822 
Q 1081 3291 891 3722 
Q 769 4003 388 4659 
L 791 4659 
Q 1378 3875 1659 3084 
Q 1900 2403 1900 1659 
Q 1900 816 1576 28 
Q 1253 -759 791 -1347 
z
" transform="scale(0.015625)"/>
      </defs>
      <use xlink:href="#ArialMT-37"/>
      <use xlink:href="#ArialMT-14" transform="translate(61.078125 0)"/>
      <use xlink:href="#ArialMT-3" transform="translate(116.6875 0)"/>
      <use xlink:href="#ArialMT-37" transform="translate(142.65625 0)"/>
      <use xlink:href="#ArialMT-48" transform="translate(192.65625 0)"/>
      <use xlink:href="#ArialMT-50" transform="translate(248.265625 0)"/>
      <use xlink:href="#ArialMT-53" transform="translate(331.5625 0)"/>
      <use xlink:href="#ArialMT-48" transform="translate(387.171875 0)"/>
      <use xlink:href="#ArialMT-55" transform="translate(442.78125 0)"/>
      <use xlink:href="#ArialMT-44" transform="translate(476.078125 0)"/>
      <use xlink:href="#ArialMT-57" transform="translate(531.6875 0)"/>
      <use xlink:href="#ArialMT-58" transform="translate(559.46875 0)"/>
      <use xlink:href="#ArialMT-55" transform="translate(615.078125 0)"/>
      <use xlink:href="#ArialMT-48" transform="translate(648.375 0)"/>
      <use xlink:href="#ArialMT-3" transform="translate(703.984375 0)"/>
      <use xlink:href="#ArialMT-b" transform="translate(731.765625 0)"/>
      <use xlink:href="#ArialMT-83" transform="translate(765.0625 0)"/>
      <use xlink:href="#ArialMT-26" transform="translate(805.046875 0)"/>
      <use xlink:href="#ArialMT-c" transform="translate(877.265625 0)"/>
     </g>
    </g>
   </g>
   <g id="matplotlib.axis_2">
    <g id="ytick_1">
     <g id="line2d_8">
      <defs>
       <path id="mb8f4132f2a" d="M 0 0 
L 6 0 
" style="stroke: #000000; stroke-width: 1.5"/>
      </defs>
      <g>
       <use xlink:href="#mb8f4132f2a" x="35.624258" y="287.760191" style="stroke: #000000; stroke-width: 1.5"/>
      </g>
     </g>
     <g id="text_9">
      <!-- 0 -->
      <g transform="translate(24.338945 292.856382) scale(0.14 -0.14)">
       <use xlink:href="#ArialMT-13"/>
      </g>
     </g>
    </g>
    <g id="ytick_2">
     <g id="line2d_9">
      <g>
       <use xlink:href="#mb8f4132f2a" x="35.624258" y="231.455087" style="stroke: #000000; stroke-width: 1.5"/>
      </g>
     </g>
     <g id="text_10">
      <!-- 1 -->
      <g transform="translate(24.338945 236.551279) scale(0.14 -0.14)">
       <use xlink:href="#ArialMT-14"/>
      </g>
     </g>
    </g>
    <g id="ytick_3">
     <g id="line2d_10">
      <g>
       <use xlink:href="#mb8f4132f2a" x="35.624258" y="175.149984" style="stroke: #000000; stroke-width: 1.5"/>
      </g>
     </g>
     <g id="text_11">
      <!-- 2 -->
      <g transform="translate(24.338945 180.246175) scale(0.14 -0.14)">
       <use xlink:href="#ArialMT-15"/>
      </g>
     </g>
    </g>
    <g id="ytick_4">
     <g id="line2d_11">
      <g>
       <use xlink:href="#mb8f4132f2a" x="35.624258" y="118.84488" style="stroke: #000000; stroke-width: 1.5"/>
      </g>
     </g>
     <g id="text_12">
      <!-- 3 -->
      <g transform="translate(24.338945 123.941072) scale(0.14 -0.14)">
       <defs>
        <path id="ArialMT-16" d="M 269 1209 
L 831 1284 
Q 928 806 1161 595 
Q 1394 384 1728 384 
Q 2125 384 2398 659 
Q 2672 934 2672 1341 
Q 2672 1728 2419 1979 
Q 2166 2231 1775 2231 
Q 1616 2231 1378 2169 
L 1441 2663 
Q 1497 2656 1531 2656 
Q 1891 2656 2178 2843 
Q 2466 3031 2466 3422 
Q 2466 3731 2256 3934 
Q 2047 4138 1716 4138 
Q 1388 4138 1169 3931 
Q 950 3725 888 3313 
L 325 3413 
Q 428 3978 793 4289 
Q 1159 4600 1703 4600 
Q 2078 4600 2393 4439 
Q 2709 4278 2876 4000 
Q 3044 3722 3044 3409 
Q 3044 3113 2884 2869 
Q 2725 2625 2413 2481 
Q 2819 2388 3044 2092 
Q 3269 1797 3269 1353 
Q 3269 753 2831 336 
Q 2394 -81 1725 -81 
Q 1122 -81 723 278 
Q 325 638 269 1209 
z
" transform="scale(0.015625)"/>
       </defs>
       <use xlink:href="#ArialMT-16"/>
      </g>
     </g>
    </g>
    <g id="ytick_5">
     <g id="line2d_12">
      <g>
       <use xlink:href="#mb8f4132f2a" x="35.624258" y="62.539777" style="stroke: #000000; stroke-width: 1.5"/>
      </g>
     </g>
     <g id="text_13">
      <!-- 4 -->
      <g transform="translate(24.338945 67.635968) scale(0.14 -0.14)">
       <use xlink:href="#ArialMT-17"/>
      </g>
     </g>
    </g>
    <g id="text_14">
     <!-- Ion Current (m/z 12) -->
     <g transform="translate(17.392383 222.733457) rotate(-90) scale(0.14 -0.14)">
      <defs>
       <path id="ArialMT-2c" d="M 597 0 
L 597 4581 
L 1203 4581 
L 1203 0 
L 597 0 
z
" transform="scale(0.015625)"/>
       <path id="ArialMT-52" d="M 213 1659 
Q 213 2581 725 3025 
Q 1153 3394 1769 3394 
Q 2453 3394 2887 2945 
Q 3322 2497 3322 1706 
Q 3322 1066 3130 698 
Q 2938 331 2570 128 
Q 2203 -75 1769 -75 
Q 1072 -75 642 372 
Q 213 819 213 1659 
z
M 791 1659 
Q 791 1022 1069 705 
Q 1347 388 1769 388 
Q 2188 388 2466 706 
Q 2744 1025 2744 1678 
Q 2744 2294 2464 2611 
Q 2184 2928 1769 2928 
Q 1347 2928 1069 2612 
Q 791 2297 791 1659 
z
" transform="scale(0.015625)"/>
       <path id="ArialMT-51" d="M 422 0 
L 422 3319 
L 928 3319 
L 928 2847 
Q 1294 3394 1984 3394 
Q 2284 3394 2536 3286 
Q 2788 3178 2913 3003 
Q 3038 2828 3088 2588 
Q 3119 2431 3119 2041 
L 3119 0 
L 2556 0 
L 2556 2019 
Q 2556 2363 2490 2533 
Q 2425 2703 2258 2804 
Q 2091 2906 1866 2906 
Q 1506 2906 1245 2678 
Q 984 2450 984 1813 
L 984 0 
L 422 0 
z
" transform="scale(0.015625)"/>
       <path id="ArialMT-12" d="M 0 -78 
L 1328 4659 
L 1778 4659 
L 453 -78 
L 0 -78 
z
" transform="scale(0.015625)"/>
       <path id="ArialMT-5d" d="M 125 0 
L 125 456 
L 2238 2881 
Q 1878 2863 1603 2863 
L 250 2863 
L 250 3319 
L 2963 3319 
L 2963 2947 
L 1166 841 
L 819 456 
Q 1197 484 1528 484 
L 3063 484 
L 3063 0 
L 125 0 
z
" transform="scale(0.015625)"/>
      </defs>
      <use xlink:href="#ArialMT-2c"/>
      <use xlink:href="#ArialMT-52" transform="translate(27.78125 0)"/>
      <use xlink:href="#ArialMT-51" transform="translate(83.390625 0)"/>
      <use xlink:href="#ArialMT-3" transform="translate(139 0)"/>
      <use xlink:href="#ArialMT-26" transform="translate(166.78125 0)"/>
      <use xlink:href="#ArialMT-58" transform="translate(239 0)"/>
      <use xlink:href="#ArialMT-55" transform="translate(294.609375 0)"/>
      <use xlink:href="#ArialMT-55" transform="translate(327.90625 0)"/>
      <use xlink:href="#ArialMT-48" transform="translate(361.203125 0)"/>
      <use xlink:href="#ArialMT-51" transform="translate(416.8125 0)"/>
      <use xlink:href="#ArialMT-57" transform="translate(472.421875 0)"/>
      <use xlink:href="#ArialMT-3" transform="translate(500.203125 0)"/>
      <use xlink:href="#ArialMT-b" transform="translate(527.984375 0)"/>
      <use xlink:href="#ArialMT-50" transform="translate(561.28125 0)"/>
      <use xlink:href="#ArialMT-12" transform="translate(644.578125 0)"/>
      <use xlink:href="#ArialMT-5d" transform="translate(672.359375 0)"/>
      <use xlink:href="#ArialMT-3" transform="translate(722.359375 0)"/>
      <use xlink:href="#ArialMT-14" transform="translate(750.140625 0)"/>
      <use xlink:href="#ArialMT-15" transform="translate(805.75 0)"/>
      <use xlink:href="#ArialMT-c" transform="translate(861.359375 0)"/>
     </g>
    </g>
    <g id="text_15">
     <!-- 1e−12 -->
     <g transform="translate(35.624258 17.392383) scale(0.14 -0.14)">
      <defs>
       <path id="ArialMT-ed" d="M 3381 1997 
L 356 1997 
L 356 2522 
L 3381 2522 
L 3381 1997 
z
" transform="scale(0.015625)"/>
      </defs>
      <use xlink:href="#ArialMT-14"/>
      <use xlink:href="#ArialMT-48" transform="translate(55.609375 0)"/>
      <use xlink:href="#ArialMT-ed" transform="translate(111.21875 0)"/>
      <use xlink:href="#ArialMT-14" transform="translate(169.625 0)"/>
      <use xlink:href="#ArialMT-15" transform="translate(225.234375 0)"/>
     </g>
    </g>
   </g>
   <g id="line2d_13">
    <path d="M 55.095204 284.468019 
L 55.095204 282.28068 
L 55.030084 282.870703 
L 54.964964 284.074093 
L 55.127764 284.915162 
L 55.844087 284.516745 
L 57.537212 284.466968 
L 59.88154 284.621997 
L 62.160748 284.360263 
L 64.081795 284.566914 
L 65.61212 283.877086 
L 66.881964 283.616692 
L 68.151808 283.774034 
L 69.291412 283.578797 
L 70.463576 283.925249 
L 73.035825 283.522067 
L 75.770874 283.551443 
L 77.170959 284.447251 
L 78.505924 284.025474 
L 79.840888 284.249469 
L 81.143293 284.32747 
L 82.348017 283.790258 
L 83.617861 283.790996 
L 84.887705 284.601568 
L 86.19011 284.947509 
L 88.664678 284.967261 
L 89.934522 285.383857 
L 91.204367 285.097423 
L 92.474211 285.125471 
L 93.776615 284.570181 
L 95.07902 284.288254 
L 97.651269 284.411526 
L 98.921113 284.309355 
L 100.158397 283.576872 
L 101.428241 282.599013 
L 102.698086 281.918752 
L 103.96793 282.118228 
L 105.237774 281.88932 
L 106.507619 282.033626 
L 107.810023 282.035369 
L 109.047307 282.999782 
L 110.349712 283.443994 
L 111.619556 284.087159 
L 114.159245 283.012706 
L 115.429089 282.651373 
L 116.731494 283.664453 
L 120.638707 284.85698 
L 121.875991 285.535136 
L 123.145835 285.516945 
L 124.44824 285.2014 
L 125.652964 284.483886 
L 128.225213 283.367884 
L 129.527617 283.75667 
L 130.797461 283.772419 
L 132.099866 282.816405 
L 133.30459 282.643363 
L 134.574434 282.150545 
L 135.811718 282.699487 
L 137.081563 282.304569 
L 138.318847 282.497399 
L 139.621251 282.274659 
L 140.891096 282.601955 
L 142.16094 283.426417 
L 143.463344 283.94037 
L 144.700629 283.081123 
L 146.003033 282.96943 
L 147.240317 283.537536 
L 148.542722 283.460188 
L 149.812566 282.950773 
L 151.11497 282.782892 
L 152.417375 282.903843 
L 153.654659 282.617047 
L 154.957063 283.3159 
L 156.226908 283.589045 
L 157.464192 282.588887 
L 158.701476 283.029372 
L 160.003881 283.700731 
L 161.241165 283.545077 
L 162.478449 284.057057 
L 163.748293 284.014555 
L 165.050698 283.582781 
L 166.385662 282.894941 
L 167.655507 283.155401 
L 168.957911 283.051165 
L 170.260315 281.823226 
L 171.56272 281.795354 
L 172.800004 281.33599 
L 174.037288 281.466612 
L 175.339693 282.198189 
L 176.642097 282.633183 
L 177.846821 282.538459 
L 179.051545 283.140993 
L 180.35395 283.929502 
L 181.623794 283.428756 
L 182.893638 282.299764 
L 184.163483 281.356685 
L 185.433327 281.157931 
L 187.907895 282.245882 
L 189.2103 282.604591 
L 190.480144 282.201196 
L 191.717428 282.075411 
L 194.257117 281.454709 
L 198.06665 283.757257 
L 199.369054 283.769671 
L 201.908743 284.075592 
L 203.146027 283.427494 
L 205.718276 283.331493 
L 206.95556 283.669612 
L 208.225405 284.585669 
L 209.495249 284.318508 
L 211.969817 283.097518 
L 213.272222 283.672133 
L 214.509506 283.825061 
L 215.77935 283.71746 
L 217.114315 282.978437 
L 218.351599 282.894954 
L 219.621443 283.059012 
L 220.793607 284.202755 
L 221.998331 283.826509 
L 223.268176 284.829488 
L 225.872984 285.44256 
L 227.142829 285.272031 
L 228.445233 284.827097 
L 229.715078 283.767513 
L 230.919802 283.009825 
L 232.222206 283.48759 
L 233.49205 283.540624 
L 236.031739 283.947526 
L 237.301583 282.609848 
L 238.603988 281.910816 
L 239.873832 282.000945 
L 241.111116 282.228651 
L 242.380961 282.333775 
L 243.650805 282.13656 
L 244.920649 282.800652 
L 246.223054 283.749555 
L 247.492898 284.918656 
L 248.730182 284.814959 
L 250.065147 283.783262 
L 252.572275 283.748174 
L 253.809559 283.353398 
L 255.079404 283.327518 
L 256.414368 283.61424 
L 257.619092 283.299274 
L 258.888937 283.71817 
L 261.396065 283.288377 
L 264.033434 282.25722 
L 265.335839 282.161359 
L 266.605683 282.594572 
L 269.145372 283.046399 
L 270.382656 282.924078 
L 271.68506 283.471583 
L 272.987465 283.491868 
L 274.257309 283.265549 
L 276.796998 283.248302 
L 278.034282 283.953431 
L 279.336686 284.092579 
L 280.57397 283.052743 
L 281.811255 282.95848 
L 283.081099 282.975213 
L 284.350943 283.243265 
L 285.588227 282.172698 
L 286.890632 282.283228 
L 288.193036 282.065098 
L 289.39776 282.43196 
L 290.700165 282.976028 
L 292.002569 282.661201 
L 293.207293 282.891815 
L 294.477138 283.01101 
L 295.746982 282.395554 
L 297.016826 282.881596 
L 298.286671 282.476982 
L 299.491395 282.392913 
L 300.793799 281.892565 
L 302.063643 281.273864 
L 304.570772 281.958718 
L 305.840616 282.650298 
L 308.380305 283.077278 
L 309.617589 283.895796 
L 310.854873 283.579559 
L 312.189838 283.436293 
L 313.459682 283.548703 
L 314.696966 283.025644 
L 315.901691 282.789039 
L 318.473939 281.249808 
L 319.776344 281.875441 
L 321.013628 281.885749 
L 322.250912 282.059484 
L 323.520756 282.407159 
L 324.823161 283.437596 
L 326.027885 284.679107 
L 327.362849 285.009525 
L 328.958295 284.830298 
L 330.32582 283.766719 
L 331.595664 282.352619 
L 332.898068 282.369793 
L 334.102792 281.956366 
L 335.340077 281.360838 
L 337.944885 281.687178 
L 340.419454 282.440339 
L 341.754418 282.751048 
L 342.959142 282.181737 
L 344.326667 281.399577 
L 345.563951 282.322437 
L 346.768675 282.421419 
L 348.07108 282.187407 
L 349.406044 282.582326 
L 350.545648 282.722781 
L 351.815493 283.104232 
L 353.183017 283.002112 
L 354.387741 281.558913 
L 355.690146 281.18395 
L 359.369438 281.881027 
L 360.704403 281.579494 
L 363.211531 283.088198 
L 364.513936 283.05868 
L 365.979141 281.642112 
L 367.248985 280.654563 
L 368.453709 280.819645 
L 369.625873 280.802689 
L 370.895717 280.331374 
L 372.133002 280.935249 
L 373.435406 280.769411 
L 374.57501 280.959257 
L 375.844854 280.076784 
L 377.114699 278.854815 
L 378.384543 277.214193 
L 379.621827 276.367002 
L 380.956792 275.647129 
L 382.128956 275.739375 
L 383.43136 275.484675 
L 384.603524 275.473128 
L 386.068729 274.221631 
L 387.306013 272.319058 
L 388.575858 272.0371 
L 389.813142 272.555439 
L 391.148106 271.276437 
L 392.22259 269.86371 
L 393.980836 269.327974 
L 395.3158 268.774201 
L 400.492858 253.699035 
L 401.632462 253.295199 
L 402.902306 251.805634 
L 404.07447 248.37693 
L 405.474555 246.748899 
L 408.014244 241.224281 
L 409.381768 234.364481 
L 410.586492 225.495201 
L 411.758656 218.316001 
L 414.330905 206.9962 
L 415.503069 196.222748 
L 418.270678 173.07586 
L 419.312602 160.918549 
L 420.745247 145.847539 
L 421.852291 129.297063 
L 423.187255 111.383596 
L 424.48966 92.223611 
L 425.531583 71.933582 
L 425.531583 71.933582 
" clip-path="url(#p8a018a9a4b)" style="fill: none; stroke: #000000; stroke-width: 2.5; stroke-linecap: square"/>
   </g>
   <g id="line2d_14">
    <path d="M 46.857496 282.124568 
L 46.857496 282.240206 
L 46.857496 280.598711 
L 47.020297 280.221438 
L 49.494865 281.973957 
L 54.05328 282.41521 
L 55.941767 283.384992 
L 57.504652 283.122027 
L 58.807057 282.528862 
L 59.979221 282.18692 
L 61.053704 280.515998 
L 62.323549 280.515765 
L 63.625953 280.707313 
L 64.798117 282.002209 
L 66.165642 282.059318 
L 67.468046 282.875773 
L 68.64021 282.689559 
L 70.040295 282.654632 
L 71.245019 281.945896 
L 72.579983 282.113133 
L 73.914948 280.875263 
L 76.552317 281.360208 
L 77.919842 282.221367 
L 79.319926 281.747387 
L 80.52465 282.370667 
L 81.859615 281.99272 
L 83.064339 282.451839 
L 84.366743 282.415846 
L 86.938992 282.779168 
L 88.241397 283.605689 
L 89.478681 284.627168 
L 90.683405 285.213403 
L 91.985809 284.750167 
L 93.288214 285.272305 
L 94.558058 285.241908 
L 95.860463 285.868337 
L 97.000066 285.635329 
L 99.604875 282.955345 
L 100.90728 281.546408 
L 102.242244 280.645397 
L 103.381848 280.606024 
L 104.716813 279.959482 
L 105.986657 280.207816 
L 107.321622 281.020546 
L 108.526346 282.847822 
L 109.82875 284.041003 
L 113.638283 282.258246 
L 114.940687 282.925488 
L 116.112851 282.840509 
L 117.447816 282.168124 
L 118.78278 281.225605 
L 121.355029 282.513943 
L 122.657434 282.730181 
L 123.894718 282.000491 
L 125.099442 281.883367 
L 126.336726 281.608474 
L 127.639131 281.932798 
L 128.908975 281.065768 
L 130.178819 280.573804 
L 131.416103 280.472476 
L 134.053472 282.352625 
L 135.323317 282.588686 
L 136.528041 283.241772 
L 137.895565 283.398512 
L 140.305014 282.044206 
L 141.672538 281.989838 
L 142.909822 280.526017 
L 144.277347 279.790557 
L 145.482071 279.463962 
L 146.751916 280.019725 
L 148.02176 279.755134 
L 149.259044 279.969614 
L 151.863853 279.866071 
L 153.166257 279.545074 
L 154.403542 279.106517 
L 155.705946 277.642435 
L 156.91067 277.035349 
L 158.115394 276.090615 
L 159.450359 275.833409 
L 160.720203 276.084638 
L 164.497176 277.817625 
L 165.79958 276.165748 
L 167.134545 275.055405 
L 168.371829 274.253736 
L 170.911518 271.342773 
L 172.116242 271.041572 
L 173.516327 270.281052 
L 174.721051 268.689444 
L 175.958335 267.612282 
L 177.228179 267.140659 
L 178.498023 265.445027 
L 179.767868 265.157178 
L 182.340117 266.820059 
L 183.609961 268.140194 
L 184.847245 270.510276 
L 186.117089 271.566986 
L 187.419494 271.393296 
L 188.721898 271.332575 
L 193.768715 273.386309 
L 195.07112 272.916412 
L 196.275844 273.180672 
L 197.578248 274.214665 
L 198.815533 274.546613 
L 200.085377 273.469343 
L 201.355221 273.03107 
L 202.625065 273.861614 
L 203.797229 275.335636 
L 205.197314 275.568294 
L 206.369478 275.891406 
L 207.671883 276.880277 
L 208.909167 276.865513 
L 210.211571 276.629194 
L 211.481416 276.821658 
L 212.7187 276.352004 
L 213.955984 276.861892 
L 215.225828 277.150577 
L 216.495673 278.540049 
L 217.732957 277.987147 
L 219.067921 278.377211 
L 220.305206 277.464488 
L 221.57505 276.701066 
L 222.877454 275.47779 
L 224.082178 275.437818 
L 225.417143 274.31743 
L 226.686987 272.646409 
L 227.891711 272.562432 
L 229.161556 273.079234 
L 231.668684 273.510306 
L 232.938529 273.465868 
L 234.175813 274.665226 
L 235.510777 274.575308 
L 236.780622 275.476889 
L 238.017906 274.473185 
L 239.32031 272.76446 
L 240.557594 273.396078 
L 241.859999 273.886297 
L 245.669532 276.002793 
L 246.906816 275.646663 
L 248.241781 274.627289 
L 251.986193 270.830836 
L 253.288598 271.234032 
L 254.558442 273.10339 
L 255.763166 273.163222 
L 257.098131 274.337482 
L 258.335415 274.905853 
L 259.572699 274.984346 
L 260.842543 274.846779 
L 262.112388 275.000661 
L 263.447352 274.899186 
L 264.814877 273.884611 
L 266.019601 273.684529 
L 267.322005 274.449155 
L 268.59185 272.910237 
L 269.894254 272.134434 
L 271.164098 272.556128 
L 273.638667 274.331988 
L 274.908511 274.849401 
L 276.178355 275.021642 
L 278.718044 274.876906 
L 279.987888 275.385495 
L 281.257733 273.934766 
L 282.560137 274.202632 
L 283.797421 275.06152 
L 285.034706 274.714803 
L 286.33711 273.801751 
L 287.574394 273.139174 
L 288.811678 272.779185 
L 290.114083 272.562365 
L 291.416487 271.861286 
L 292.621211 272.047853 
L 293.923616 272.478101 
L 295.22602 274.274698 
L 296.430744 275.010679 
L 297.700589 274.87243 
L 298.970433 275.877439 
L 300.272837 276.287816 
L 301.477561 275.651435 
L 302.779966 276.004763 
L 303.98469 274.532973 
L 305.287094 274.384343 
L 306.556939 274.721683 
L 307.794223 274.497626 
L 309.064067 274.043011 
L 310.301351 274.533745 
L 311.571196 275.750303 
L 312.84104 276.372927 
L 314.143445 275.628578 
L 315.413289 275.592843 
L 316.683133 274.265397 
L 317.887857 274.105396 
L 319.157702 273.186565 
L 320.460106 273.423101 
L 321.76251 273.778822 
L 322.934674 274.719372 
L 324.269639 274.940563 
L 325.506923 273.656277 
L 326.744207 271.292276 
L 328.307093 270.596579 
L 329.707177 270.505696 
L 331.009582 271.362179 
L 332.344546 270.387718 
L 333.614391 271.872484 
L 334.819115 271.668633 
L 336.154079 272.141295 
L 337.391364 271.175191 
L 338.596088 269.200027 
L 339.931052 268.952543 
L 342.503301 269.93305 
L 343.708025 270.440859 
L 345.010429 269.842974 
L 346.280274 270.116547 
L 347.550118 269.833863 
L 351.261971 266.986831 
L 353.86678 267.801884 
L 355.104064 268.848547 
L 356.439028 269.229125 
L 357.546072 269.908493 
L 358.946157 270.429379 
L 360.281121 271.448893 
L 361.453285 270.064477 
L 362.658009 270.493601 
L 363.927854 270.184605 
L 365.197698 270.453409 
L 366.565223 269.892094 
L 367.835067 270.591884 
L 369.104911 269.380719 
L 370.309635 268.82208 
L 371.57948 269.199542 
L 374.119168 267.784893 
L 375.258772 268.993955 
L 376.626297 269.521624 
L 377.896141 269.487412 
L 379.068305 269.092919 
L 380.40327 270.525172 
L 381.673114 270.52127 
L 382.877838 271.455164 
L 384.147683 270.954945 
L 385.384967 269.16046 
L 386.719931 268.153069 
L 388.022336 266.693777 
L 389.16194 264.22407 
L 390.496904 262.60361 
L 391.799309 261.545603 
L 393.199393 261.01563 
L 394.697158 259.888848 
L 395.869322 260.855724 
L 397.334527 258.455373 
L 398.571812 256.884144 
L 399.809096 253.680324 
L 401.1115 251.499398 
L 402.348784 247.638601 
L 403.618629 244.26464 
L 404.986153 240.034934 
L 407.493282 231.330639 
L 408.730566 227.66769 
L 409.77249 221.323038 
L 411.205134 215.73789 
L 412.474979 207.202297 
L 413.809943 201.167303 
L 414.982107 192.524411 
L 416.186831 182.020663 
L 417.554356 172.805304 
L 418.889321 161.84938 
L 420.028924 149.924044 
L 421.363889 137.871927 
L 422.470933 126.107992 
L 424.001258 115.047203 
L 425.173422 105.104525 
L 425.173422 105.104525 
" clip-path="url(#p8a018a9a4b)" style="fill: none; stroke: #1f77b4; stroke-width: 2.5; stroke-linecap: square"/>
   </g>
   <g id="line2d_15">
    <path d="M 46.662135 281.455802 
L 46.662135 279.671401 
L 46.662135 282.680115 
L 46.792376 282.300481 
L 47.411018 282.485335 
L 48.908783 281.084219 
L 51.220551 280.250024 
L 53.532319 281.205638 
L 55.583606 281.025267 
L 57.211611 281.808766 
L 58.546576 281.689327 
L 59.71874 283.123142 
L 60.890904 283.207648 
L 63.267792 281.560981 
L 64.537636 280.640859 
L 65.840041 280.821695 
L 67.109885 281.90301 
L 69.649573 282.30226 
L 70.919418 281.969038 
L 72.221822 283.474031 
L 74.891751 284.505186 
L 76.324396 283.114888 
L 77.691921 283.508308 
L 78.994325 283.089501 
L 81.534014 281.276766 
L 82.803858 280.874665 
L 84.073703 280.862504 
L 87.883235 282.874552 
L 89.18564 283.104086 
L 90.455484 283.957992 
L 93.027733 283.949766 
L 94.297577 284.571655 
L 95.567422 284.122814 
L 96.837266 283.942351 
L 99.376955 282.481755 
L 100.581679 282.373493 
L 101.916643 282.101629 
L 103.153927 281.564828 
L 104.391212 282.216215 
L 105.693616 281.860978 
L 106.99602 281.912701 
L 108.233305 281.347294 
L 109.503149 281.491507 
L 110.740433 280.846134 
L 111.977717 281.042161 
L 113.312682 281.818689 
L 115.81981 282.391125 
L 117.122215 282.757644 
L 118.424619 282.083448 
L 119.857264 283.096056 
L 121.029428 283.309497 
L 122.299272 282.626764 
L 126.108805 282.029911 
L 128.648494 280.200338 
L 131.188183 280.03554 
L 132.490587 281.196796 
L 133.695311 281.881616 
L 134.965155 281.396065 
L 136.36524 281.86878 
L 137.569964 280.873715 
L 138.839809 281.345759 
L 140.109653 281.52142 
L 141.444618 282.028295 
L 142.681902 282.037496 
L 145.15647 280.79202 
L 146.491435 280.612139 
L 147.728719 279.610511 
L 149.031123 279.454175 
L 150.300968 278.946682 
L 151.570812 279.604785 
L 154.07794 281.401507 
L 156.552509 280.131556 
L 159.124758 279.150626 
L 160.362042 279.479386 
L 161.664446 279.129335 
L 162.966851 278.221615 
L 164.204135 278.507478 
L 165.441419 279.471381 
L 166.743824 280.245325 
L 168.111348 280.599827 
L 169.348632 279.657904 
L 170.716157 279.261841 
L 171.888321 279.330409 
L 173.158165 278.769821 
L 174.42801 277.15911 
L 175.697854 276.749842 
L 176.935138 278.012611 
L 179.539947 278.631133 
L 180.777231 278.673876 
L 181.981955 277.010524 
L 183.2518 276.852254 
L 184.554204 277.919335 
L 185.824048 275.841979 
L 187.061333 276.414844 
L 188.363737 276.514748 
L 189.601021 276.008329 
L 190.903426 275.350149 
L 192.17327 275.105798 
L 193.410554 275.473203 
L 194.615278 276.206508 
L 195.917683 277.784163 
L 197.252647 278.375208 
L 198.489931 277.523228 
L 199.759776 278.155549 
L 202.299464 275.33713 
L 203.569309 275.286898 
L 204.774033 275.728743 
L 206.076437 276.440135 
L 207.346282 277.261332 
L 208.583566 277.094168 
L 209.91853 276.609283 
L 211.188375 277.548093 
L 212.425659 276.994741 
L 214.965347 275.156347 
L 216.202632 275.550216 
L 217.505036 275.462036 
L 218.77488 275.027552 
L 220.044725 275.497934 
L 221.282009 275.160533 
L 222.551853 277.188887 
L 223.854258 277.476837 
L 225.091542 276.844851 
L 226.328826 276.77131 
L 227.63123 275.968893 
L 228.868515 276.346436 
L 230.073239 274.970888 
L 231.375643 275.130999 
L 232.743168 275.171377 
L 233.980452 275.923822 
L 235.217736 276.25122 
L 236.487581 274.220399 
L 237.724865 273.961858 
L 239.027269 274.221685 
L 240.297114 274.037549 
L 242.836802 275.456453 
L 244.139207 275.529451 
L 245.409051 275.115915 
L 246.613775 276.031124 
L 247.9813 275.415206 
L 249.153464 274.434355 
L 250.423308 274.435816 
L 251.758272 273.709993 
L 252.995557 274.879013 
L 254.232841 274.608551 
L 255.470125 276.580865 
L 256.83765 275.629373 
L 258.009814 275.824156 
L 259.312218 275.256733 
L 260.582062 275.072166 
L 261.851907 273.445872 
L 263.154311 271.503059 
L 264.489276 269.900194 
L 265.75912 269.795821 
L 267.094085 269.142107 
L 268.298809 271.184431 
L 269.633773 271.754396 
L 270.871057 272.761284 
L 272.075782 274.538494 
L 273.378186 276.235024 
L 274.61547 276.287719 
L 275.917875 275.727402 
L 277.220279 276.934064 
L 278.392443 276.336089 
L 280.964692 274.649379 
L 282.234536 273.468178 
L 283.536941 272.93807 
L 284.676544 273.564618 
L 286.011509 273.320492 
L 287.248793 272.966821 
L 288.551198 273.314405 
L 289.821042 274.146507 
L 291.090886 273.555106 
L 292.425851 272.625136 
L 293.598015 272.138513 
L 294.867859 272.161598 
L 296.170263 271.508114 
L 297.407548 271.719021 
L 298.677392 271.605294 
L 299.947236 271.761227 
L 301.217081 271.756231 
L 302.421805 271.253143 
L 303.724209 271.405303 
L 304.994053 269.968221 
L 306.263898 269.575155 
L 307.468622 268.926762 
L 308.738466 267.893512 
L 310.040871 268.871032 
L 311.343275 268.890005 
L 312.613119 268.157787 
L 313.817843 267.609814 
L 315.087688 267.385725 
L 316.357532 267.417681 
L 317.627376 266.501576 
L 318.897221 266.54099 
L 320.199625 267.382752 
L 321.404349 268.931589 
L 322.739314 269.894855 
L 323.976598 268.537341 
L 325.246442 267.743163 
L 326.483726 267.247783 
L 327.916371 266.019283 
L 329.381576 265.816506 
L 330.651421 263.891873 
L 331.986385 264.405873 
L 334.526074 268.128312 
L 335.861038 269.023957 
L 338.400727 271.770875 
L 339.605451 272.411082 
L 340.907856 271.961475 
L 342.21026 271.289053 
L 343.447544 269.772542 
L 344.684828 270.097137 
L 345.922113 270.79398 
L 347.224517 271.104708 
L 348.461801 272.123331 
L 349.796766 274.162558 
L 351.03405 273.117473 
L 352.206214 274.042764 
L 353.573739 273.462023 
L 354.811023 272.604694 
L 356.080867 272.804808 
L 357.383272 273.285507 
L 358.522875 274.294835 
L 359.8904 273.250258 
L 361.160244 272.819506 
L 362.397529 273.087963 
L 363.699933 271.826986 
L 364.937217 272.759018 
L 367.476906 274.050171 
L 368.71419 275.211909 
L 370.114275 275.871363 
L 371.318999 274.168053 
L 372.588843 272.741985 
L 373.793567 272.581445 
L 375.030852 271.671476 
L 376.365816 271.718751 
L 377.63566 272.442958 
L 378.938065 273.792533 
L 380.110229 273.693371 
L 381.412633 272.917991 
L 382.682478 271.716042 
L 383.919762 269.50098 
L 386.39433 270.236749 
L 387.696735 268.988462 
L 388.901459 268.910824 
L 390.203863 269.275416 
L 391.376027 269.730155 
L 392.808672 267.399541 
L 394.306437 265.278763 
L 395.739082 262.209219 
L 397.041486 260.101481 
L 398.343891 256.464429 
L 399.548615 253.504012 
L 402.023183 249.608588 
L 403.293028 249.28578 
L 404.660552 246.873296 
L 405.930397 242.274178 
L 410.912093 219.019191 
L 412.279618 214.588761 
L 413.484342 211.143541 
L 416.024031 198.905856 
L 417.163635 191.41977 
L 418.531159 181.484221 
L 419.801004 170.320859 
L 421.103408 156.97683 
L 422.308132 140.140878 
L 423.610537 118.934487 
L 424.978061 92.479141 
L 425.857184 59.896327 
L 425.857184 59.896327 
" clip-path="url(#p8a018a9a4b)" style="fill: none; stroke: #0033ff; stroke-width: 2.5; stroke-linecap: square"/>
   </g>
   <g id="line2d_16">
    <path d="M 44.708529 286.473822 
L 44.773649 282.666652 
L 44.773649 282.766819 
L 44.871329 283.209522 
L 46.955176 284.44882 
L 49.201824 285.221879 
L 55.258005 285.681165 
L 56.625529 286.062234 
L 60.174581 285.240259 
L 61.411865 285.383691 
L 62.68171 285.32248 
L 63.918994 284.695685 
L 65.221398 284.636407 
L 66.523803 284.714166 
L 67.793647 285.132522 
L 68.998371 285.2287 
L 70.268216 285.554299 
L 71.57062 285.735452 
L 72.807904 285.468085 
L 74.207989 284.937201 
L 75.575514 284.231539 
L 77.008158 283.363292 
L 79.612967 284.135773 
L 82.152656 284.111684 
L 83.4225 285.170811 
L 84.692345 285.920651 
L 85.994749 284.99489 
L 88.566998 283.76617 
L 89.804282 283.300582 
L 91.074126 284.081431 
L 92.343971 283.918784 
L 93.613815 284.161761 
L 94.916219 284.620478 
L 97.423348 287.12128 
L 99.995597 286.930466 
L 101.265441 285.814622 
L 102.470165 285.410914 
L 103.740009 285.526022 
L 107.582102 284.561712 
L 108.884507 284.425268 
L 110.154351 285.256949 
L 113.931324 283.587834 
L 115.136048 284.123763 
L 116.405892 284.834123 
L 117.773417 285.005136 
L 119.108382 284.454896 
L 120.378226 284.892482 
L 121.68063 284.382303 
L 122.885354 284.388129 
L 124.155199 283.676814 
L 125.425043 283.748574 
L 126.727447 283.376905 
L 129.299696 284.949051 
L 131.839385 285.546154 
L 133.076669 286.158927 
L 134.313953 285.601435 
L 135.616358 284.64848 
L 136.821082 283.511995 
L 138.221167 282.659345 
L 140.728295 282.111785 
L 142.0307 282.668459 
L 143.267984 281.955987 
L 144.570388 282.10722 
L 145.840232 282.700371 
L 147.110077 282.379055 
L 148.314801 281.507484 
L 149.552085 280.805774 
L 150.88705 280.345514 
L 152.189454 280.61785 
L 153.426738 279.941313 
L 154.631462 280.422352 
L 155.933867 279.870571 
L 157.203711 280.699046 
L 158.506116 281.105626 
L 159.678279 281.628399 
L 161.013244 282.067616 
L 162.250528 281.383639 
L 163.552933 281.374754 
L 164.822777 280.409257 
L 166.060061 278.835027 
L 167.329906 278.127612 
L 168.66487 277.89393 
L 169.967274 277.04828 
L 171.204559 277.131592 
L 172.441843 277.397833 
L 173.711687 276.188784 
L 176.316496 273.275311 
L 177.48866 270.622955 
L 178.725944 268.591347 
L 180.060909 264.460203 
L 181.330753 263.835862 
L 182.535477 260.065999 
L 183.903002 259.169095 
L 185.140286 259.418627 
L 186.475251 256.897682 
L 187.679975 256.80623 
L 188.949819 256.38839 
L 190.187103 256.872372 
L 191.522068 256.334018 
L 192.791912 256.12435 
L 194.061756 260.211166 
L 195.331601 262.163406 
L 196.601445 266.381435 
L 197.838729 271.243314 
L 199.141134 273.206173 
L 200.410978 275.802047 
L 201.680822 276.306589 
L 202.918106 276.226626 
L 204.122831 275.163921 
L 205.392675 276.589314 
L 207.964924 278.217989 
L 209.234768 278.475427 
L 211.774457 280.565704 
L 213.011741 280.749386 
L 214.281585 280.39173 
L 215.551429 279.870325 
L 219.360962 279.316192 
L 220.630807 279.568365 
L 221.900651 278.482261 
L 223.170495 276.978684 
L 225.677624 276.046498 
L 226.947468 274.927118 
L 228.184752 274.057226 
L 229.487157 273.498601 
L 230.757001 272.810012 
L 233.26413 275.230695 
L 234.533974 274.693126 
L 235.836378 274.488556 
L 237.106223 275.130997 
L 239.613351 274.014311 
L 240.883196 274.738858 
L 243.422884 274.124704 
L 244.692728 273.704505 
L 245.995133 273.601023 
L 247.232417 271.735874 
L 248.469701 270.825228 
L 249.772106 270.541967 
L 251.00939 269.538641 
L 252.279234 269.784344 
L 253.581639 271.740561 
L 254.884043 273.212948 
L 256.121327 275.148465 
L 257.358612 275.66007 
L 258.661016 276.435707 
L 259.93086 276.233203 
L 261.168144 277.326846 
L 262.470549 277.484317 
L 263.805513 276.111999 
L 265.075358 276.356241 
L 266.345202 276.785504 
L 267.680167 276.567477 
L 268.884891 276.111794 
L 270.187295 275.483176 
L 271.457139 275.924159 
L 272.694424 276.71128 
L 273.964268 278.160711 
L 275.234112 276.826424 
L 276.471396 274.923881 
L 277.741241 276.021988 
L 279.043645 275.564651 
L 280.280929 275.782824 
L 281.583334 274.87233 
L 282.853178 275.243888 
L 284.123023 276.109725 
L 285.392867 275.823151 
L 286.597591 276.452736 
L 287.899995 275.605344 
L 289.2024 275.692898 
L 290.407124 276.108941 
L 291.742088 275.469834 
L 292.946812 275.732422 
L 294.249217 274.510257 
L 295.486501 274.497347 
L 296.756345 274.823633 
L 297.99363 274.325131 
L 299.263474 275.847796 
L 301.803163 279.369819 
L 304.310291 279.330907 
L 308.152384 277.097389 
L 309.422228 277.858051 
L 310.659513 276.295046 
L 311.896797 276.477101 
L 313.134081 276.341298 
L 315.70633 276.361036 
L 316.911054 275.595449 
L 318.213458 274.230003 
L 319.418182 274.947625 
L 320.753147 274.750419 
L 322.022991 276.140457 
L 323.292836 274.651663 
L 324.49756 275.166764 
L 325.832524 274.827228 
L 327.134929 275.155654 
L 328.632694 274.801638 
L 330.032779 274.058419 
L 331.367743 273.652238 
L 332.637587 274.577579 
L 335.209836 273.787655 
L 336.47968 273.195374 
L 337.651844 273.722978 
L 339.019369 273.364082 
L 341.461377 274.295094 
L 342.828902 274.444004 
L 344.033626 275.333228 
L 345.23835 275.819556 
L 346.540755 275.825656 
L 347.745479 275.649339 
L 349.080443 276.278941 
L 350.317728 276.189174 
L 351.587572 275.842629 
L 352.955096 275.769572 
L 354.159821 275.155041 
L 355.397105 274.137512 
L 356.699509 274.699099 
L 357.936793 273.313433 
L 359.206638 273.273857 
L 360.411362 273.05507 
L 363.048731 271.562811 
L 365.555859 268.27689 
L 366.858264 267.601091 
L 368.030428 268.132773 
L 370.700357 268.132242 
L 371.807401 268.972864 
L 373.240045 268.984847 
L 374.379649 268.624732 
L 375.616934 269.066176 
L 376.951898 269.142856 
L 378.189182 269.45553 
L 379.426466 271.245763 
L 380.761431 272.43376 
L 381.933595 272.445938 
L 383.170879 273.122025 
L 384.538404 272.797732 
L 385.678008 271.167902 
L 387.012972 270.50533 
L 388.315377 270.909276 
L 390.789945 271.387612 
L 392.027229 272.165373 
L 393.524994 271.365135 
L 395.022759 270.837621 
L 396.227484 269.049614 
L 397.497328 266.563627 
L 398.864853 262.771146 
L 401.437101 259.476076 
L 402.739506 256.963581 
L 403.94423 253.276854 
L 405.279194 250.993727 
L 406.386238 245.462369 
L 407.753763 242.289734 
L 408.925927 235.543661 
L 410.358572 231.832339 
L 411.400495 225.621179 
L 412.73546 220.360523 
L 414.102984 217.272768 
L 415.210028 208.233923 
L 416.740353 198.46201 
L 417.814837 190.214179 
L 419.182362 176.640981 
L 420.387086 163.405647 
L 422.861654 131.933825 
L 424.229179 113.293914 
L 425.401343 92.449056 
L 425.401343 92.449056 
" clip-path="url(#p8a018a9a4b)" style="fill: none; stroke: #ff7f0e; stroke-width: 2.5; stroke-linecap: square"/>
   </g>
   <g id="line2d_17">
    <path d="M 55.127764 284.432916 
L 55.127764 281.181957 
L 55.746406 281.134981 
L 57.374412 280.801348 
L 64.081795 280.827853 
L 65.67724 280.732011 
L 66.979644 281.290179 
L 68.216929 281.588747 
L 69.323972 281.312555 
L 70.593817 281.454394 
L 71.765981 280.876867 
L 73.068385 279.533895 
L 74.43591 279.138805 
L 75.770874 279.687318 
L 77.138399 279.178493 
L 78.473363 279.398801 
L 79.775768 280.383016 
L 81.110732 281.081234 
L 82.315457 281.966974 
L 83.617861 282.583313 
L 84.855145 281.532791 
L 86.15755 281.187489 
L 87.459954 281.916286 
L 88.729798 281.354362 
L 89.934522 281.307369 
L 91.204367 280.797304 
L 92.506771 281.084736 
L 95.14414 280.02646 
L 97.683829 279.491975 
L 98.953673 279.792856 
L 100.223517 280.658839 
L 101.493362 280.571752 
L 102.698086 281.91349 
L 103.96793 281.250552 
L 105.302895 280.879097 
L 107.842583 279.800077 
L 109.079868 280.353267 
L 110.382272 279.137827 
L 111.619556 278.827009 
L 112.85684 279.238408 
L 114.159245 279.407147 
L 115.429089 280.557933 
L 116.731494 280.395714 
L 118.066458 281.192809 
L 120.671267 282.2565 
L 121.843431 282.516264 
L 123.145835 281.260006 
L 124.41568 281.612467 
L 125.685524 281.176285 
L 126.922808 280.51749 
L 128.225213 280.220912 
L 129.495057 280.289633 
L 130.764901 280.109411 
L 132.002185 279.383652 
L 133.27203 279.254254 
L 134.574434 278.450514 
L 135.876839 277.989843 
L 137.146683 278.459517 
L 138.416527 277.838186 
L 139.718932 278.000955 
L 142.25862 278.106003 
L 144.798309 277.315833 
L 146.068153 277.515012 
L 147.272877 277.326335 
L 148.575282 277.488158 
L 149.845126 277.263127 
L 151.14753 276.063912 
L 153.654659 272.324883 
L 154.924503 270.678218 
L 156.194348 270.960999 
L 157.431632 268.470991 
L 160.036441 263.907372 
L 161.371405 263.773877 
L 162.576129 263.463586 
L 163.813414 263.714714 
L 165.083258 263.644157 
L 166.385662 263.424633 
L 167.688067 264.156952 
L 168.990471 264.467089 
L 170.195195 262.572759 
L 172.702324 256.555305 
L 174.037288 253.516493 
L 175.307133 249.480992 
L 176.609537 247.469479 
L 177.814261 246.034965 
L 179.084105 243.178006 
L 180.35395 242.973041 
L 181.591234 244.500798 
L 182.893638 246.751088 
L 184.163483 247.049415 
L 185.400767 247.219363 
L 186.670611 248.350321 
L 187.940456 246.250435 
L 189.2103 246.126433 
L 190.480144 244.839211 
L 191.782549 241.806963 
L 193.052393 239.687741 
L 194.289677 239.186368 
L 195.559521 237.472865 
L 196.829366 236.108243 
L 199.336494 234.807847 
L 201.908743 228.788973 
L 203.178587 228.161494 
L 204.415872 225.56982 
L 205.685716 224.016086 
L 206.923 225.325233 
L 208.225405 227.188123 
L 209.462689 227.901972 
L 210.765093 229.506976 
L 212.002377 229.074025 
L 213.304782 230.927634 
L 214.574626 229.073732 
L 215.84447 228.28555 
L 217.081755 226.246493 
L 218.351599 226.843904 
L 219.588883 225.772433 
L 220.858727 225.635631 
L 222.161132 225.963631 
L 223.430976 228.952115 
L 224.6357 230.109953 
L 225.905545 232.715419 
L 227.240509 234.943853 
L 228.412673 235.099208 
L 229.715078 237.872489 
L 230.984922 238.619539 
L 232.254766 237.168152 
L 233.49205 237.774277 
L 235.966619 239.415409 
L 237.236463 237.543159 
L 238.603988 236.795735 
L 239.841272 238.039397 
L 241.111116 238.801987 
L 242.348401 239.752887 
L 243.650805 240.45912 
L 244.920649 239.174651 
L 246.288174 240.956035 
L 248.795302 241.352666 
L 250.065147 240.259406 
L 251.302431 240.928278 
L 252.539715 242.942085 
L 253.84212 245.424726 
L 255.144524 242.080399 
L 256.349248 239.939744 
L 257.651653 235.944824 
L 258.954057 233.72789 
L 261.396065 224.507184 
L 262.73103 222.7508 
L 264.033434 221.971064 
L 265.368399 221.988539 
L 267.908087 219.456599 
L 269.145372 221.384218 
L 271.75018 228.75534 
L 274.257309 231.924171 
L 275.462033 237.096394 
L 276.796998 238.787394 
L 278.001722 239.445253 
L 279.271566 239.819856 
L 280.606531 239.347408 
L 281.876375 238.481253 
L 283.081099 239.069519 
L 284.416063 238.657627 
L 285.685908 236.429055 
L 286.923192 238.081589 
L 288.160476 241.449291 
L 289.39776 242.573466 
L 290.700165 242.672893 
L 291.937449 244.879131 
L 294.509698 242.145589 
L 297.049386 238.235801 
L 298.286671 237.945909 
L 299.589075 240.477975 
L 300.826359 242.079205 
L 302.063643 242.075862 
L 303.300928 240.595132 
L 304.635892 243.611139 
L 305.840616 243.545274 
L 307.143021 241.011484 
L 308.380305 239.704319 
L 309.617589 238.881498 
L 312.157278 238.618747 
L 313.492242 238.83581 
L 314.696966 238.12687 
L 317.236655 241.983262 
L 318.506499 242.040384 
L 319.808904 241.533213 
L 321.046188 241.734155 
L 322.283472 239.419051 
L 323.553317 238.247996 
L 324.823161 235.803688 
L 326.027885 234.786741 
L 327.362849 234.256276 
L 328.958295 235.252231 
L 330.228139 233.111578 
L 331.628224 232.345546 
L 332.898068 233.239465 
L 334.167913 232.684245 
L 335.437757 233.034783 
L 337.912325 236.155199 
L 339.24729 237.048814 
L 340.484574 237.365071 
L 341.689298 236.39539 
L 343.024263 234.231537 
L 344.294107 234.09213 
L 345.563951 234.904489 
L 346.833796 233.960867 
L 348.00596 233.374571 
L 349.340924 232.498558 
L 350.675889 233.74336 
L 351.815493 233.26437 
L 353.150457 232.988233 
L 354.387741 234.010599 
L 355.690146 234.423825 
L 358.229834 240.620128 
L 359.532239 241.550382 
L 360.704403 242.795601 
L 361.974247 245.088433 
L 363.244091 247.08684 
L 364.579056 247.833284 
L 365.946581 247.567119 
L 367.086185 248.372459 
L 368.290909 247.184119 
L 369.593313 247.545299 
L 370.895717 246.6444 
L 372.165562 245.267101 
L 374.70525 248.007309 
L 375.877414 247.876381 
L 377.114699 246.894049 
L 378.384543 247.859024 
L 379.654387 248.041939 
L 381.021912 249.3415 
L 382.226636 250.700969 
L 383.43136 250.234263 
L 384.733764 250.631009 
L 386.101289 250.683124 
L 387.273453 249.311711 
L 389.780582 246.052444 
L 391.148106 245.08958 
L 392.385391 242.917743 
L 393.850595 244.971749 
L 395.28324 244.876747 
L 396.618205 243.770595 
L 397.888049 241.181307 
L 399.060213 237.062228 
L 400.492858 234.201324 
L 401.665022 231.537426 
L 402.902306 229.215757 
L 404.10703 223.454193 
L 408.014244 212.892093 
L 409.186408 206.517184 
L 411.856337 189.084556 
L 414.363465 173.585345 
L 415.63331 163.753248 
L 418.238118 135.05674 
L 419.442842 123.370586 
L 421.949971 93.322291 
L 424.55478 55.673972 
L 425.564143 33.093759 
L 425.564143 33.093759 
" clip-path="url(#p8a018a9a4b)" style="fill: none; stroke: #ff0000; stroke-width: 2.5; stroke-linecap: square"/>
   </g>
   <g id="patch_3">
    <path d="M 35.624258 299.822656 
L 35.624258 20.392383 
" style="fill: none; stroke: #000000; stroke-width: 1.5; stroke-linejoin: miter; stroke-linecap: square"/>
   </g>
   <g id="patch_4">
    <path d="M 35.624258 299.822656 
L 426.345586 299.822656 
" style="fill: none; stroke: #000000; stroke-width: 1.5; stroke-linejoin: miter; stroke-linecap: square"/>
   </g>
   <g id="legend_1">
    <g id="line2d_18">
     <path d="M 46.424258 35.728711 
L 58.424258 35.728711 
L 70.424258 35.728711 
" style="fill: none; stroke: #000000; stroke-width: 2.5; stroke-linecap: square"/>
    </g>
    <g id="text_16">
     <!-- vacuum -->
     <g transform="translate(80.024258 39.928711) scale(0.12 -0.12)">
      <defs>
       <path id="ArialMT-59" d="M 1344 0 
L 81 3319 
L 675 3319 
L 1388 1331 
Q 1503 1009 1600 663 
Q 1675 925 1809 1294 
L 2547 3319 
L 3125 3319 
L 1869 0 
L 1344 0 
z
" transform="scale(0.015625)"/>
       <path id="ArialMT-46" d="M 2588 1216 
L 3141 1144 
Q 3050 572 2676 248 
Q 2303 -75 1759 -75 
Q 1078 -75 664 370 
Q 250 816 250 1647 
Q 250 2184 428 2587 
Q 606 2991 970 3192 
Q 1334 3394 1763 3394 
Q 2303 3394 2647 3120 
Q 2991 2847 3088 2344 
L 2541 2259 
Q 2463 2594 2264 2762 
Q 2066 2931 1784 2931 
Q 1359 2931 1093 2626 
Q 828 2322 828 1663 
Q 828 994 1084 691 
Q 1341 388 1753 388 
Q 2084 388 2306 591 
Q 2528 794 2588 1216 
z
" transform="scale(0.015625)"/>
      </defs>
      <use xlink:href="#ArialMT-59"/>
      <use xlink:href="#ArialMT-44" transform="translate(50 0)"/>
      <use xlink:href="#ArialMT-46" transform="translate(105.609375 0)"/>
      <use xlink:href="#ArialMT-58" transform="translate(155.609375 0)"/>
      <use xlink:href="#ArialMT-58" transform="translate(211.21875 0)"/>
      <use xlink:href="#ArialMT-50" transform="translate(266.828125 0)"/>
     </g>
    </g>
    <g id="line2d_19">
     <path d="M 46.424258 52.99043 
L 58.424258 52.99043 
L 70.424258 52.99043 
" style="fill: none; stroke: #1f77b4; stroke-width: 2.5; stroke-linecap: square"/>
    </g>
    <g id="text_17">
     <!-- 1h -->
     <g transform="translate(80.024258 57.19043) scale(0.12 -0.12)">
      <defs>
       <path id="ArialMT-4b" d="M 422 0 
L 422 4581 
L 984 4581 
L 984 2938 
Q 1378 3394 1978 3394 
Q 2347 3394 2619 3248 
Q 2891 3103 3008 2847 
Q 3125 2591 3125 2103 
L 3125 0 
L 2563 0 
L 2563 2103 
Q 2563 2525 2380 2717 
Q 2197 2909 1863 2909 
Q 1613 2909 1392 2779 
Q 1172 2650 1078 2428 
Q 984 2206 984 1816 
L 984 0 
L 422 0 
z
" transform="scale(0.015625)"/>
      </defs>
      <use xlink:href="#ArialMT-14"/>
      <use xlink:href="#ArialMT-4b" transform="translate(55.609375 0)"/>
     </g>
    </g>
    <g id="line2d_20">
     <path d="M 46.424258 70.252148 
L 58.424258 70.252148 
L 70.424258 70.252148 
" style="fill: none; stroke: #0033ff; stroke-width: 2.5; stroke-linecap: square"/>
    </g>
    <g id="text_18">
     <!-- 2h -->
     <g transform="translate(80.024258 74.452148) scale(0.12 -0.12)">
      <use xlink:href="#ArialMT-15"/>
      <use xlink:href="#ArialMT-4b" transform="translate(55.609375 0)"/>
     </g>
    </g>
    <g id="line2d_21">
     <path d="M 46.424258 87.513867 
L 58.424258 87.513867 
L 70.424258 87.513867 
" style="fill: none; stroke: #ff7f0e; stroke-width: 2.5; stroke-linecap: square"/>
    </g>
    <g id="text_19">
     <!-- 4h -->
     <g transform="translate(80.024258 91.713867) scale(0.12 -0.12)">
      <use xlink:href="#ArialMT-17"/>
      <use xlink:href="#ArialMT-4b" transform="translate(55.609375 0)"/>
     </g>
    </g>
    <g id="line2d_22">
     <path d="M 46.424258 104.775586 
L 58.424258 104.775586 
L 70.424258 104.775586 
" style="fill: none; stroke: #ff0000; stroke-width: 2.5; stroke-linecap: square"/>
    </g>
    <g id="text_20">
     <!-- first -->
     <g transform="translate(80.024258 108.975586) scale(0.12 -0.12)">
      <defs>
       <path id="ArialMT-49" d="M 556 0 
L 556 2881 
L 59 2881 
L 59 3319 
L 556 3319 
L 556 3672 
Q 556 4006 616 4169 
Q 697 4388 901 4523 
Q 1106 4659 1475 4659 
Q 1713 4659 2000 4603 
L 1916 4113 
Q 1741 4144 1584 4144 
Q 1328 4144 1222 4034 
Q 1116 3925 1116 3625 
L 1116 3319 
L 1763 3319 
L 1763 2881 
L 1116 2881 
L 1116 0 
L 556 0 
z
" transform="scale(0.015625)"/>
       <path id="ArialMT-4c" d="M 425 3934 
L 425 4581 
L 988 4581 
L 988 3934 
L 425 3934 
z
M 425 0 
L 425 3319 
L 988 3319 
L 988 0 
L 425 0 
z
" transform="scale(0.015625)"/>
       <path id="ArialMT-56" d="M 197 991 
L 753 1078 
Q 800 744 1014 566 
Q 1228 388 1613 388 
Q 2000 388 2187 545 
Q 2375 703 2375 916 
Q 2375 1106 2209 1216 
Q 2094 1291 1634 1406 
Q 1016 1563 777 1677 
Q 538 1791 414 1992 
Q 291 2194 291 2438 
Q 291 2659 392 2848 
Q 494 3038 669 3163 
Q 800 3259 1026 3326 
Q 1253 3394 1513 3394 
Q 1903 3394 2198 3281 
Q 2494 3169 2634 2976 
Q 2775 2784 2828 2463 
L 2278 2388 
Q 2241 2644 2061 2787 
Q 1881 2931 1553 2931 
Q 1166 2931 1000 2803 
Q 834 2675 834 2503 
Q 834 2394 903 2306 
Q 972 2216 1119 2156 
Q 1203 2125 1616 2013 
Q 2213 1853 2448 1751 
Q 2684 1650 2818 1456 
Q 2953 1263 2953 975 
Q 2953 694 2789 445 
Q 2625 197 2315 61 
Q 2006 -75 1616 -75 
Q 969 -75 630 194 
Q 291 463 197 991 
z
" transform="scale(0.015625)"/>
      </defs>
      <use xlink:href="#ArialMT-49"/>
      <use xlink:href="#ArialMT-4c" transform="translate(27.78125 0)"/>
      <use xlink:href="#ArialMT-55" transform="translate(50 0)"/>
      <use xlink:href="#ArialMT-56" transform="translate(83.296875 0)"/>
      <use xlink:href="#ArialMT-57" transform="translate(133.296875 0)"/>
     </g>
    </g>
   </g>
  </g>
 </g>
 <defs>
  <clipPath id="p8a018a9a4b">
   <rect x="35.624258" y="20.392383" width="390.721328" height="279.430273"/>
  </clipPath>
 </defs>
</svg>
