<?xml version="1.0" encoding="utf-8" standalone="no"?>
<!DOCTYPE svg PUBLIC "-//W3C//DTD SVG 1.1//EN"
  "http://www.w3.org/Graphics/SVG/1.1/DTD/svg11.dtd">
<svg xmlns:xlink="http://www.w3.org/1999/xlink" width="449.116211pt" height="340.800273pt" viewBox="0 0 449.116211 340.800273" xmlns="http://www.w3.org/2000/svg" version="1.1">
 <metadata>
  <rdf:RDF xmlns:dc="http://purl.org/dc/elements/1.1/" xmlns:cc="http://creativecommons.org/ns#" xmlns:rdf="http://www.w3.org/1999/02/22-rdf-syntax-ns#">
   <cc:Work>
    <dc:type rdf:resource="http://purl.org/dc/dcmitype/StillImage"/>
    <dc:date>2026-07-09T17:08:15.202080</dc:date>
    <dc:format>image/svg+xml</dc:format>
    <dc:creator>
     <cc:Agent>
      <dc:title>Matplotlib v3.11.0, https://matplotlib.org/</dc:title>
     </cc:Agent>
    </dc:creator>
   </cc:Work>
  </rdf:RDF>
 </metadata>
 <defs>
  <style type="text/css">*{stroke-linejoin: round; stroke-linecap: butt}</style>
 </defs>
 <g id="figure_1">
  <g id="patch_1">
   <path d="M 0 340.800273 
L 449.116211 340.800273 
L 449.116211 0 
L 0 0 
z
" style="fill: #ffffff"/>
  </g>
  <g id="axes_1">
   <g id="patch_2">
    <path d="M 35.624258 299.822656 
L 426.345586 299.822656 
L 426.345586 20.392383 
L 35.624258 20.392383 
z
" style="fill: #ffffff"/>
   </g>
   <g id="matplotlib.axis_1">
    <g id="xtick_1">
     <g id="line2d_1">
      <defs>
       <path id="me040ebe7c8" d="M 0 0 
L 0 -6 
" style="stroke: #000000; stroke-width: 1.5"/>
      </defs>
      <g>
       <use xlink:href="#me040ebe7c8" x="35.624258" y="299.822656" style="stroke: #000000; stroke-width: 1.5"/>
      </g>
     </g>
     <g id="text_1">
      <!-- 0 -->
      <g transform="translate(31.731602 313.515039) scale(0.14 -0.14)">
       <defs>
        <path id="ArialMT-13" d="M 266 2259 
Q 266 3072 433 3567 
Q 600 4063 929 4331 
Q 1259 4600 1759 4600 
Q 2128 4600 2406 4451 
Q 2684 4303 2865 4023 
Q 3047 3744 3150 3342 
Q 3253 2941 3253 2259 
Q 3253 1453 3087 958 
Q 2922 463 2592 192 
Q 2263 -78 1759 -78 
Q 1097 -78 719 397 
Q 266 969 266 2259 
z
M 844 2259 
Q 844 1131 1108 757 
Q 1372 384 1759 384 
Q 2147 384 2411 759 
Q 2675 1134 2675 2259 
Q 2675 3391 2411 3762 
Q 2147 4134 1753 4134 
Q 1366 4134 1134 3806 
Q 844 3388 844 2259 
z
" transform="scale(0.015625)"/>
       </defs>
       <use xlink:href="#ArialMT-13"/>
      </g>
     </g>
    </g>
    <g id="xtick_2">
     <g id="line2d_2">
      <g>
       <use xlink:href="#me040ebe7c8" x="100.744479" y="299.822656" style="stroke: #000000; stroke-width: 1.5"/>
      </g>
     </g>
     <g id="text_2">
      <!-- 200 -->
      <g transform="translate(89.06651 313.515039) scale(0.14 -0.14)">
       <defs>
        <path id="ArialMT-15" d="M 3222 541 
L 3222 0 
L 194 0 
Q 188 203 259 391 
Q 375 700 629 1000 
Q 884 1300 1366 1694 
Q 2113 2306 2375 2664 
Q 2638 3022 2638 3341 
Q 2638 3675 2398 3904 
Q 2159 4134 1775 4134 
Q 1369 4134 1125 3890 
Q 881 3647 878 3216 
L 300 3275 
Q 359 3922 746 4261 
Q 1134 4600 1788 4600 
Q 2447 4600 2831 4234 
Q 3216 3869 3216 3328 
Q 3216 3053 3103 2787 
Q 2991 2522 2730 2228 
Q 2469 1934 1863 1422 
Q 1356 997 1212 845 
Q 1069 694 975 541 
L 3222 541 
z
" transform="scale(0.015625)"/>
       </defs>
       <use xlink:href="#ArialMT-15"/>
       <use xlink:href="#ArialMT-13" transform="translate(55.609375 0)"/>
       <use xlink:href="#ArialMT-13" transform="translate(111.21875 0)"/>
      </g>
     </g>
    </g>
    <g id="xtick_3">
     <g id="line2d_3">
      <g>
       <use xlink:href="#me040ebe7c8" x="165.864701" y="299.822656" style="stroke: #000000; stroke-width: 1.5"/>
      </g>
     </g>
     <g id="text_3">
      <!-- 400 -->
      <g transform="translate(154.186732 313.515039) scale(0.14 -0.14)">
       <defs>
        <path id="ArialMT-17" d="M 2069 0 
L 2069 1097 
L 81 1097 
L 81 1613 
L 2172 4581 
L 2631 4581 
L 2631 1613 
L 3250 1613 
L 3250 1097 
L 2631 1097 
L 2631 0 
L 2069 0 
z
M 2069 1613 
L 2069 3678 
L 634 1613 
L 2069 1613 
z
" transform="scale(0.015625)"/>
       </defs>
       <use xlink:href="#ArialMT-17"/>
       <use xlink:href="#ArialMT-13" transform="translate(55.609375 0)"/>
       <use xlink:href="#ArialMT-13" transform="translate(111.21875 0)"/>
      </g>
     </g>
    </g>
    <g id="xtick_4">
     <g id="line2d_4">
      <g>
       <use xlink:href="#me040ebe7c8" x="230.984922" y="299.822656" style="stroke: #000000; stroke-width: 1.5"/>
      </g>
     </g>
     <g id="text_4">
      <!-- 600 -->
      <g transform="translate(219.306953 313.515039) scale(0.14 -0.14)">
       <defs>
        <path id="ArialMT-19" d="M 3184 3459 
L 2625 3416 
Q 2550 3747 2413 3897 
Q 2184 4138 1850 4138 
Q 1581 4138 1378 3988 
Q 1113 3794 959 3422 
Q 806 3050 800 2363 
Q 1003 2672 1297 2822 
Q 1591 2972 1913 2972 
Q 2475 2972 2870 2558 
Q 3266 2144 3266 1488 
Q 3266 1056 3080 686 
Q 2894 316 2569 119 
Q 2244 -78 1831 -78 
Q 1128 -78 684 439 
Q 241 956 241 2144 
Q 241 3472 731 4075 
Q 1159 4600 1884 4600 
Q 2425 4600 2770 4297 
Q 3116 3994 3184 3459 
z
M 888 1484 
Q 888 1194 1011 928 
Q 1134 663 1356 523 
Q 1578 384 1822 384 
Q 2178 384 2434 671 
Q 2691 959 2691 1453 
Q 2691 1928 2437 2201 
Q 2184 2475 1800 2475 
Q 1419 2475 1153 2201 
Q 888 1928 888 1484 
z
" transform="scale(0.015625)"/>
       </defs>
       <use xlink:href="#ArialMT-19"/>
       <use xlink:href="#ArialMT-13" transform="translate(55.609375 0)"/>
       <use xlink:href="#ArialMT-13" transform="translate(111.21875 0)"/>
      </g>
     </g>
    </g>
    <g id="xtick_5">
     <g id="line2d_5">
      <g>
       <use xlink:href="#me040ebe7c8" x="296.105143" y="299.822656" style="stroke: #000000; stroke-width: 1.5"/>
      </g>
     </g>
     <g id="text_5">
      <!-- 800 -->
      <g transform="translate(284.427174 313.515039) scale(0.14 -0.14)">
       <defs>
        <path id="ArialMT-1b" d="M 1131 2484 
Q 781 2613 612 2850 
Q 444 3088 444 3419 
Q 444 3919 803 4259 
Q 1163 4600 1759 4600 
Q 2359 4600 2725 4251 
Q 3091 3903 3091 3403 
Q 3091 3084 2923 2848 
Q 2756 2613 2416 2484 
Q 2838 2347 3058 2040 
Q 3278 1734 3278 1309 
Q 3278 722 2862 322 
Q 2447 -78 1769 -78 
Q 1091 -78 675 323 
Q 259 725 259 1325 
Q 259 1772 486 2073 
Q 713 2375 1131 2484 
z
M 1019 3438 
Q 1019 3113 1228 2906 
Q 1438 2700 1772 2700 
Q 2097 2700 2305 2904 
Q 2513 3109 2513 3406 
Q 2513 3716 2298 3927 
Q 2084 4138 1766 4138 
Q 1444 4138 1231 3931 
Q 1019 3725 1019 3438 
z
M 838 1322 
Q 838 1081 952 856 
Q 1066 631 1291 507 
Q 1516 384 1775 384 
Q 2178 384 2440 643 
Q 2703 903 2703 1303 
Q 2703 1709 2433 1975 
Q 2163 2241 1756 2241 
Q 1359 2241 1098 1978 
Q 838 1716 838 1322 
z
" transform="scale(0.015625)"/>
       </defs>
       <use xlink:href="#ArialMT-1b"/>
       <use xlink:href="#ArialMT-13" transform="translate(55.609375 0)"/>
       <use xlink:href="#ArialMT-13" transform="translate(111.21875 0)"/>
      </g>
     </g>
    </g>
    <g id="xtick_6">
     <g id="line2d_6">
      <g>
       <use xlink:href="#me040ebe7c8" x="361.225365" y="299.822656" style="stroke: #000000; stroke-width: 1.5"/>
      </g>
     </g>
     <g id="text_6">
      <!-- 1000 -->
      <g transform="translate(345.65474 313.515039) scale(0.14 -0.14)">
       <defs>
        <path id="ArialMT-14" d="M 2384 0 
L 1822 0 
L 1822 3584 
Q 1619 3391 1289 3197 
Q 959 3003 697 2906 
L 697 3450 
Q 1169 3672 1522 3987 
Q 1875 4303 2022 4600 
L 2384 4600 
L 2384 0 
z
" transform="scale(0.015625)"/>
       </defs>
       <use xlink:href="#ArialMT-14"/>
       <use xlink:href="#ArialMT-13" transform="translate(55.609375 0)"/>
       <use xlink:href="#ArialMT-13" transform="translate(111.21875 0)"/>
       <use xlink:href="#ArialMT-13" transform="translate(166.828125 0)"/>
      </g>
     </g>
    </g>
    <g id="xtick_7">
     <g id="line2d_7">
      <g>
       <use xlink:href="#me040ebe7c8" x="426.345586" y="299.822656" style="stroke: #000000; stroke-width: 1.5"/>
      </g>
     </g>
     <g id="text_7">
      <!-- 1200 -->
      <g transform="translate(410.774961 313.515039) scale(0.14 -0.14)">
       <use xlink:href="#ArialMT-14"/>
       <use xlink:href="#ArialMT-15" transform="translate(55.609375 0)"/>
       <use xlink:href="#ArialMT-13" transform="translate(111.21875 0)"/>
       <use xlink:href="#ArialMT-13" transform="translate(166.828125 0)"/>
      </g>
     </g>
    </g>
    <g id="text_8">
     <!-- T1 Temperature (°C) -->
     <g transform="translate(167.245547 330.653711) scale(0.14 -0.14)">
      <defs>
       <path id="ArialMT-37" d="M 1659 0 
L 1659 4041 
L 150 4041 
L 150 4581 
L 3781 4581 
L 3781 4041 
L 2266 4041 
L 2266 0 
L 1659 0 
z
" transform="scale(0.015625)"/>
       <path id="ArialMT-3" transform="scale(0.015625)"/>
       <path id="ArialMT-48" d="M 2694 1069 
L 3275 997 
Q 3138 488 2766 206 
Q 2394 -75 1816 -75 
Q 1088 -75 661 373 
Q 234 822 234 1631 
Q 234 2469 665 2931 
Q 1097 3394 1784 3394 
Q 2450 3394 2872 2941 
Q 3294 2488 3294 1666 
Q 3294 1616 3291 1516 
L 816 1516 
Q 847 969 1125 678 
Q 1403 388 1819 388 
Q 2128 388 2347 550 
Q 2566 713 2694 1069 
z
M 847 1978 
L 2700 1978 
Q 2663 2397 2488 2606 
Q 2219 2931 1791 2931 
Q 1403 2931 1139 2672 
Q 875 2413 847 1978 
z
" transform="scale(0.015625)"/>
       <path id="ArialMT-50" d="M 422 0 
L 422 3319 
L 925 3319 
L 925 2853 
Q 1081 3097 1340 3245 
Q 1600 3394 1931 3394 
Q 2300 3394 2536 3241 
Q 2772 3088 2869 2813 
Q 3263 3394 3894 3394 
Q 4388 3394 4653 3120 
Q 4919 2847 4919 2278 
L 4919 0 
L 4359 0 
L 4359 2091 
Q 4359 2428 4304 2576 
Q 4250 2725 4106 2815 
Q 3963 2906 3769 2906 
Q 3419 2906 3187 2673 
Q 2956 2441 2956 1928 
L 2956 0 
L 2394 0 
L 2394 2156 
Q 2394 2531 2256 2718 
Q 2119 2906 1806 2906 
Q 1569 2906 1367 2781 
Q 1166 2656 1075 2415 
Q 984 2175 984 1722 
L 984 0 
L 422 0 
z
" transform="scale(0.015625)"/>
       <path id="ArialMT-53" d="M 422 -1272 
L 422 3319 
L 934 3319 
L 934 2888 
Q 1116 3141 1344 3267 
Q 1572 3394 1897 3394 
Q 2322 3394 2647 3175 
Q 2972 2956 3137 2557 
Q 3303 2159 3303 1684 
Q 3303 1175 3120 767 
Q 2938 359 2589 142 
Q 2241 -75 1856 -75 
Q 1575 -75 1351 44 
Q 1128 163 984 344 
L 984 -1272 
L 422 -1272 
z
M 931 1641 
Q 931 1000 1190 694 
Q 1450 388 1819 388 
Q 2194 388 2461 705 
Q 2728 1022 2728 1688 
Q 2728 2322 2467 2637 
Q 2206 2953 1844 2953 
Q 1484 2953 1207 2617 
Q 931 2281 931 1641 
z
" transform="scale(0.015625)"/>
       <path id="ArialMT-55" d="M 416 0 
L 416 3319 
L 922 3319 
L 922 2816 
Q 1116 3169 1280 3281 
Q 1444 3394 1641 3394 
Q 1925 3394 2219 3213 
L 2025 2691 
Q 1819 2813 1613 2813 
Q 1428 2813 1281 2702 
Q 1134 2591 1072 2394 
Q 978 2094 978 1738 
L 978 0 
L 416 0 
z
" transform="scale(0.015625)"/>
       <path id="ArialMT-44" d="M 2588 409 
Q 2275 144 1986 34 
Q 1697 -75 1366 -75 
Q 819 -75 525 192 
Q 231 459 231 875 
Q 231 1119 342 1320 
Q 453 1522 633 1644 
Q 813 1766 1038 1828 
Q 1203 1872 1538 1913 
Q 2219 1994 2541 2106 
Q 2544 2222 2544 2253 
Q 2544 2597 2384 2738 
Q 2169 2928 1744 2928 
Q 1347 2928 1158 2789 
Q 969 2650 878 2297 
L 328 2372 
Q 403 2725 575 2942 
Q 747 3159 1072 3276 
Q 1397 3394 1825 3394 
Q 2250 3394 2515 3294 
Q 2781 3194 2906 3042 
Q 3031 2891 3081 2659 
Q 3109 2516 3109 2141 
L 3109 1391 
Q 3109 606 3145 398 
Q 3181 191 3288 0 
L 2700 0 
Q 2613 175 2588 409 
z
M 2541 1666 
Q 2234 1541 1622 1453 
Q 1275 1403 1131 1340 
Q 988 1278 909 1158 
Q 831 1038 831 891 
Q 831 666 1001 516 
Q 1172 366 1500 366 
Q 1825 366 2078 508 
Q 2331 650 2450 897 
Q 2541 1088 2541 1459 
L 2541 1666 
z
" transform="scale(0.015625)"/>
       <path id="ArialMT-57" d="M 1650 503 
L 1731 6 
Q 1494 -44 1306 -44 
Q 1000 -44 831 53 
Q 663 150 594 308 
Q 525 466 525 972 
L 525 2881 
L 113 2881 
L 113 3319 
L 525 3319 
L 525 4141 
L 1084 4478 
L 1084 3319 
L 1650 3319 
L 1650 2881 
L 1084 2881 
L 1084 941 
Q 1084 700 1114 631 
Q 1144 563 1211 522 
Q 1278 481 1403 481 
Q 1497 481 1650 503 
z
" transform="scale(0.015625)"/>
       <path id="ArialMT-58" d="M 2597 0 
L 2597 488 
Q 2209 -75 1544 -75 
Q 1250 -75 995 37 
Q 741 150 617 320 
Q 494 491 444 738 
Q 409 903 409 1263 
L 409 3319 
L 972 3319 
L 972 1478 
Q 972 1038 1006 884 
Q 1059 663 1231 536 
Q 1403 409 1656 409 
Q 1909 409 2131 539 
Q 2353 669 2445 892 
Q 2538 1116 2538 1541 
L 2538 3319 
L 3100 3319 
L 3100 0 
L 2597 0 
z
" transform="scale(0.015625)"/>
       <path id="ArialMT-b" d="M 1497 -1347 
Q 1031 -759 709 28 
Q 388 816 388 1659 
Q 388 2403 628 3084 
Q 909 3875 1497 4659 
L 1900 4659 
Q 1522 4009 1400 3731 
Q 1209 3300 1100 2831 
Q 966 2247 966 1656 
Q 966 153 1900 -1347 
L 1497 -1347 
z
" transform="scale(0.015625)"/>
       <path id="ArialMT-83" d="M 400 3794 
Q 400 4153 654 4406 
Q 909 4659 1266 4659 
Q 1628 4659 1881 4406 
Q 2134 4153 2134 3794 
Q 2134 3434 1879 3179 
Q 1625 2925 1266 2925 
Q 909 2925 654 3178 
Q 400 3431 400 3794 
z
M 741 3794 
Q 741 3575 895 3420 
Q 1050 3266 1269 3266 
Q 1484 3266 1639 3420 
Q 1794 3575 1794 3794 
Q 1794 4013 1639 4167 
Q 1484 4322 1269 4322 
Q 1050 4322 895 4167 
Q 741 4013 741 3794 
z
" transform="scale(0.015625)"/>
       <path id="ArialMT-26" d="M 3763 1606 
L 4369 1453 
Q 4178 706 3683 314 
Q 3188 -78 2472 -78 
Q 1731 -78 1267 223 
Q 803 525 561 1097 
Q 319 1669 319 2325 
Q 319 3041 592 3573 
Q 866 4106 1370 4382 
Q 1875 4659 2481 4659 
Q 3169 4659 3637 4309 
Q 4106 3959 4291 3325 
L 3694 3184 
Q 3534 3684 3231 3912 
Q 2928 4141 2469 4141 
Q 1941 4141 1586 3887 
Q 1231 3634 1087 3207 
Q 944 2781 944 2328 
Q 944 1744 1114 1308 
Q 1284 872 1643 656 
Q 2003 441 2422 441 
Q 2931 441 3284 734 
Q 3638 1028 3763 1606 
z
" transform="scale(0.015625)"/>
       <path id="ArialMT-c" d="M 791 -1347 
L 388 -1347 
Q 1322 153 1322 1656 
Q 1322 2244 1188 2822 
Q 1081 3291 891 3722 
Q 769 4003 388 4659 
L 791 4659 
Q 1378 3875 1659 3084 
Q 1900 2403 1900 1659 
Q 1900 816 1576 28 
Q 1253 -759 791 -1347 
z
" transform="scale(0.015625)"/>
      </defs>
      <use xlink:href="#ArialMT-37"/>
      <use xlink:href="#ArialMT-14" transform="translate(61.078125 0)"/>
      <use xlink:href="#ArialMT-3" transform="translate(116.6875 0)"/>
      <use xlink:href="#ArialMT-37" transform="translate(142.65625 0)"/>
      <use xlink:href="#ArialMT-48" transform="translate(192.65625 0)"/>
      <use xlink:href="#ArialMT-50" transform="translate(248.265625 0)"/>
      <use xlink:href="#ArialMT-53" transform="translate(331.5625 0)"/>
      <use xlink:href="#ArialMT-48" transform="translate(387.171875 0)"/>
      <use xlink:href="#ArialMT-55" transform="translate(442.78125 0)"/>
      <use xlink:href="#ArialMT-44" transform="translate(476.078125 0)"/>
      <use xlink:href="#ArialMT-57" transform="translate(531.6875 0)"/>
      <use xlink:href="#ArialMT-58" transform="translate(559.46875 0)"/>
      <use xlink:href="#ArialMT-55" transform="translate(615.078125 0)"/>
      <use xlink:href="#ArialMT-48" transform="translate(648.375 0)"/>
      <use xlink:href="#ArialMT-3" transform="translate(703.984375 0)"/>
      <use xlink:href="#ArialMT-b" transform="translate(731.765625 0)"/>
      <use xlink:href="#ArialMT-83" transform="translate(765.0625 0)"/>
      <use xlink:href="#ArialMT-26" transform="translate(805.046875 0)"/>
      <use xlink:href="#ArialMT-c" transform="translate(877.265625 0)"/>
     </g>
    </g>
   </g>
   <g id="matplotlib.axis_2">
    <g id="ytick_1">
     <g id="line2d_8">
      <defs>
       <path id="m39e1b615f9" d="M 0 0 
L 6 0 
" style="stroke: #000000; stroke-width: 1.5"/>
      </defs>
      <g>
       <use xlink:href="#m39e1b615f9" x="35.624258" y="289.934953" style="stroke: #000000; stroke-width: 1.5"/>
      </g>
     </g>
     <g id="text_9">
      <!-- 0 -->
      <g transform="translate(24.338945 295.031144) scale(0.14 -0.14)">
       <use xlink:href="#ArialMT-13"/>
      </g>
     </g>
    </g>
    <g id="ytick_2">
     <g id="line2d_9">
      <g>
       <use xlink:href="#m39e1b615f9" x="35.624258" y="232.543318" style="stroke: #000000; stroke-width: 1.5"/>
      </g>
     </g>
     <g id="text_10">
      <!-- 1 -->
      <g transform="translate(24.338945 237.639509) scale(0.14 -0.14)">
       <use xlink:href="#ArialMT-14"/>
      </g>
     </g>
    </g>
    <g id="ytick_3">
     <g id="line2d_10">
      <g>
       <use xlink:href="#m39e1b615f9" x="35.624258" y="175.151683" style="stroke: #000000; stroke-width: 1.5"/>
      </g>
     </g>
     <g id="text_11">
      <!-- 2 -->
      <g transform="translate(24.338945 180.247874) scale(0.14 -0.14)">
       <use xlink:href="#ArialMT-15"/>
      </g>
     </g>
    </g>
    <g id="ytick_4">
     <g id="line2d_11">
      <g>
       <use xlink:href="#m39e1b615f9" x="35.624258" y="117.760048" style="stroke: #000000; stroke-width: 1.5"/>
      </g>
     </g>
     <g id="text_12">
      <!-- 3 -->
      <g transform="translate(24.338945 122.85624) scale(0.14 -0.14)">
       <defs>
        <path id="ArialMT-16" d="M 269 1209 
L 831 1284 
Q 928 806 1161 595 
Q 1394 384 1728 384 
Q 2125 384 2398 659 
Q 2672 934 2672 1341 
Q 2672 1728 2419 1979 
Q 2166 2231 1775 2231 
Q 1616 2231 1378 2169 
L 1441 2663 
Q 1497 2656 1531 2656 
Q 1891 2656 2178 2843 
Q 2466 3031 2466 3422 
Q 2466 3731 2256 3934 
Q 2047 4138 1716 4138 
Q 1388 4138 1169 3931 
Q 950 3725 888 3313 
L 325 3413 
Q 428 3978 793 4289 
Q 1159 4600 1703 4600 
Q 2078 4600 2393 4439 
Q 2709 4278 2876 4000 
Q 3044 3722 3044 3409 
Q 3044 3113 2884 2869 
Q 2725 2625 2413 2481 
Q 2819 2388 3044 2092 
Q 3269 1797 3269 1353 
Q 3269 753 2831 336 
Q 2394 -81 1725 -81 
Q 1122 -81 723 278 
Q 325 638 269 1209 
z
" transform="scale(0.015625)"/>
       </defs>
       <use xlink:href="#ArialMT-16"/>
      </g>
     </g>
    </g>
    <g id="ytick_5">
     <g id="line2d_12">
      <g>
       <use xlink:href="#m39e1b615f9" x="35.624258" y="60.368414" style="stroke: #000000; stroke-width: 1.5"/>
      </g>
     </g>
     <g id="text_13">
      <!-- 4 -->
      <g transform="translate(24.338945 65.464605) scale(0.14 -0.14)">
       <use xlink:href="#ArialMT-17"/>
      </g>
     </g>
    </g>
    <g id="text_14">
     <!-- Ion Current (m/z 18) -->
     <g transform="translate(17.392383 222.733457) rotate(-90) scale(0.14 -0.14)">
      <defs>
       <path id="ArialMT-2c" d="M 597 0 
L 597 4581 
L 1203 4581 
L 1203 0 
L 597 0 
z
" transform="scale(0.015625)"/>
       <path id="ArialMT-52" d="M 213 1659 
Q 213 2581 725 3025 
Q 1153 3394 1769 3394 
Q 2453 3394 2887 2945 
Q 3322 2497 3322 1706 
Q 3322 1066 3130 698 
Q 2938 331 2570 128 
Q 2203 -75 1769 -75 
Q 1072 -75 642 372 
Q 213 819 213 1659 
z
M 791 1659 
Q 791 1022 1069 705 
Q 1347 388 1769 388 
Q 2188 388 2466 706 
Q 2744 1025 2744 1678 
Q 2744 2294 2464 2611 
Q 2184 2928 1769 2928 
Q 1347 2928 1069 2612 
Q 791 2297 791 1659 
z
" transform="scale(0.015625)"/>
       <path id="ArialMT-51" d="M 422 0 
L 422 3319 
L 928 3319 
L 928 2847 
Q 1294 3394 1984 3394 
Q 2284 3394 2536 3286 
Q 2788 3178 2913 3003 
Q 3038 2828 3088 2588 
Q 3119 2431 3119 2041 
L 3119 0 
L 2556 0 
L 2556 2019 
Q 2556 2363 2490 2533 
Q 2425 2703 2258 2804 
Q 2091 2906 1866 2906 
Q 1506 2906 1245 2678 
Q 984 2450 984 1813 
L 984 0 
L 422 0 
z
" transform="scale(0.015625)"/>
       <path id="ArialMT-12" d="M 0 -78 
L 1328 4659 
L 1778 4659 
L 453 -78 
L 0 -78 
z
" transform="scale(0.015625)"/>
       <path id="ArialMT-5d" d="M 125 0 
L 125 456 
L 2238 2881 
Q 1878 2863 1603 2863 
L 250 2863 
L 250 3319 
L 2963 3319 
L 2963 2947 
L 1166 841 
L 819 456 
Q 1197 484 1528 484 
L 3063 484 
L 3063 0 
L 125 0 
z
" transform="scale(0.015625)"/>
      </defs>
      <use xlink:href="#ArialMT-2c"/>
      <use xlink:href="#ArialMT-52" transform="translate(27.78125 0)"/>
      <use xlink:href="#ArialMT-51" transform="translate(83.390625 0)"/>
      <use xlink:href="#ArialMT-3" transform="translate(139 0)"/>
      <use xlink:href="#ArialMT-26" transform="translate(166.78125 0)"/>
      <use xlink:href="#ArialMT-58" transform="translate(239 0)"/>
      <use xlink:href="#ArialMT-55" transform="translate(294.609375 0)"/>
      <use xlink:href="#ArialMT-55" transform="translate(327.90625 0)"/>
      <use xlink:href="#ArialMT-48" transform="translate(361.203125 0)"/>
      <use xlink:href="#ArialMT-51" transform="translate(416.8125 0)"/>
      <use xlink:href="#ArialMT-57" transform="translate(472.421875 0)"/>
      <use xlink:href="#ArialMT-3" transform="translate(500.203125 0)"/>
      <use xlink:href="#ArialMT-b" transform="translate(527.984375 0)"/>
      <use xlink:href="#ArialMT-50" transform="translate(561.28125 0)"/>
      <use xlink:href="#ArialMT-12" transform="translate(644.578125 0)"/>
      <use xlink:href="#ArialMT-5d" transform="translate(672.359375 0)"/>
      <use xlink:href="#ArialMT-3" transform="translate(722.359375 0)"/>
      <use xlink:href="#ArialMT-14" transform="translate(750.140625 0)"/>
      <use xlink:href="#ArialMT-1b" transform="translate(805.75 0)"/>
      <use xlink:href="#ArialMT-c" transform="translate(861.359375 0)"/>
     </g>
    </g>
    <g id="text_15">
     <!-- 1e−11 -->
     <g transform="translate(35.624258 17.392383) scale(0.14 -0.14)">
      <defs>
       <path id="ArialMT-ed" d="M 3381 1997 
L 356 1997 
L 356 2522 
L 3381 2522 
L 3381 1997 
z
" transform="scale(0.015625)"/>
      </defs>
      <use xlink:href="#ArialMT-14"/>
      <use xlink:href="#ArialMT-48" transform="translate(55.609375 0)"/>
      <use xlink:href="#ArialMT-ed" transform="translate(111.21875 0)"/>
      <use xlink:href="#ArialMT-14" transform="translate(169.625 0)"/>
      <use xlink:href="#ArialMT-14" transform="translate(217.8125 0)"/>
     </g>
    </g>
   </g>
   <g id="line2d_13">
    <path d="M 55.095204 286.457295 
L 55.030084 286.463377 
L 55.095204 286.494219 
L 55.062644 286.534541 
L 54.964964 286.595221 
L 54.964964 286.476691 
L 55.127764 286.591754 
L 55.844087 286.72678 
L 57.537212 286.613114 
L 59.88154 286.752436 
L 64.081795 286.605106 
L 68.151808 286.52219 
L 70.463576 286.387974 
L 73.035825 286.320465 
L 74.338229 286.35799 
L 75.770874 286.230373 
L 77.170959 286.519299 
L 81.143293 286.655833 
L 82.348017 286.724591 
L 83.617861 287.009193 
L 84.887705 286.975846 
L 86.19011 287.12128 
L 89.934522 286.771209 
L 91.204367 286.445727 
L 93.776615 286.262468 
L 95.07902 286.08399 
L 98.921113 286.640219 
L 101.428241 286.777886 
L 103.96793 286.574077 
L 106.507619 286.406659 
L 107.810023 286.242826 
L 111.619556 286.579875 
L 112.8894 286.891115 
L 115.429089 286.824367 
L 116.731494 286.628919 
L 123.145835 286.384027 
L 124.44824 286.314882 
L 125.652964 286.502228 
L 128.225213 286.147017 
L 129.527617 286.117116 
L 130.797461 286.327387 
L 132.099866 286.343196 
L 133.30459 286.618151 
L 134.574434 286.772652 
L 142.16094 286.730111 
L 144.700629 286.805033 
L 148.542722 286.659333 
L 152.417375 286.254329 
L 156.226908 286.623792 
L 158.701476 286.62471 
L 162.478449 286.045912 
L 166.385662 286.217421 
L 168.957911 286.555086 
L 171.56272 286.603916 
L 172.800004 286.440265 
L 175.339693 286.52422 
L 176.642097 286.682375 
L 179.051545 286.487859 
L 180.35395 286.543032 
L 185.433327 286.205673 
L 189.2103 286.520398 
L 190.480144 286.445792 
L 192.987273 286.603096 
L 196.796806 286.350352 
L 199.369054 286.228578 
L 203.146027 286.169269 
L 204.448432 286.251968 
L 206.95556 286.274989 
L 209.495249 286.295961 
L 218.351599 286.202479 
L 223.268176 286.217029 
L 225.872984 286.271396 
L 229.715078 286.218557 
L 232.222206 285.902416 
L 233.49205 286.016754 
L 236.031739 285.985636 
L 237.301583 286.146161 
L 238.603988 285.944933 
L 241.111116 286.226673 
L 243.650805 285.75789 
L 250.065147 286.25583 
L 251.302431 286.172641 
L 253.809559 286.512838 
L 255.079404 286.288539 
L 257.619092 286.215046 
L 261.396065 286.107228 
L 267.842967 285.825523 
L 269.145372 285.575155 
L 271.68506 285.559794 
L 274.257309 285.519512 
L 275.527153 285.46535 
L 279.336686 285.933644 
L 281.811255 285.93768 
L 283.081099 286.178076 
L 285.588227 286.145976 
L 292.002569 285.778989 
L 294.477138 285.473631 
L 304.570772 285.780841 
L 305.840616 285.597641 
L 307.110461 285.534407 
L 309.617589 285.74762 
L 310.854873 285.571342 
L 312.189838 285.774973 
L 317.236655 285.884562 
L 318.473939 285.694675 
L 323.520756 285.52534 
L 324.823161 285.610654 
L 327.362849 285.458588 
L 328.958295 285.624569 
L 330.32582 285.64589 
L 335.340077 285.098302 
L 336.675041 285.216711 
L 339.24729 284.92925 
L 341.754418 284.806791 
L 344.326667 284.360235 
L 345.563951 284.221751 
L 348.07108 284.266299 
L 349.406044 284.516053 
L 353.183017 284.462495 
L 354.387741 284.211401 
L 355.690146 284.120295 
L 356.99255 283.698371 
L 358.294955 283.458345 
L 359.369438 283.561476 
L 362.071927 283.500505 
L 365.979141 283.0693 
L 368.453709 282.979616 
L 370.895717 282.317213 
L 372.133002 282.149348 
L 373.435406 281.856776 
L 377.114699 280.284474 
L 378.384543 280.433787 
L 379.621827 280.157721 
L 380.956792 280.017089 
L 382.128956 279.715222 
L 383.43136 279.130593 
L 384.603524 278.436798 
L 387.306013 277.611894 
L 389.813142 275.662821 
L 391.148106 274.722613 
L 392.22259 273.777984 
L 393.980836 272.89058 
L 395.3158 271.702453 
L 396.683325 270.97856 
L 397.888049 269.855441 
L 399.157894 269.152772 
L 400.492858 268.064201 
L 401.632462 266.125196 
L 402.902306 264.578282 
L 405.474555 259.843417 
L 406.679279 256.79944 
L 408.014244 254.257566 
L 409.381768 252.111394 
L 411.758656 244.933121 
L 412.96338 241.110172 
L 414.330905 238.08577 
L 415.503069 235.195126 
L 416.935714 231.006809 
L 418.270678 225.873242 
L 419.312602 221.033134 
L 420.745247 215.822716 
L 424.48966 195.821432 
L 425.531583 187.201212 
L 425.531583 187.201212 
" clip-path="url(#pb97022f7bb)" style="fill: none; stroke: #000000; stroke-width: 2.5; stroke-linecap: square"/>
   </g>
   <g id="line2d_14">
    <path d="M 46.857496 276.103808 
L 46.857496 277.663807 
L 46.857496 277.496434 
L 47.020297 277.339509 
L 47.704059 277.525029 
L 51.806633 277.36088 
L 57.504652 277.787473 
L 58.807057 278.01128 
L 59.979221 277.940279 
L 61.053704 278.350495 
L 63.625953 278.70975 
L 64.798117 278.620411 
L 66.165642 278.332507 
L 67.468046 278.292174 
L 68.64021 278.04335 
L 70.040295 278.156655 
L 71.245019 278.415409 
L 73.914948 278.078797 
L 75.249913 277.984649 
L 76.552317 278.03675 
L 77.919842 278.208015 
L 79.319926 278.034063 
L 80.52465 278.069511 
L 83.064339 277.632028 
L 84.366743 277.797775 
L 85.571468 277.306762 
L 88.241397 277.175929 
L 89.478681 276.946165 
L 90.683405 277.294617 
L 91.985809 277.288984 
L 95.860463 276.704487 
L 97.000066 276.734399 
L 99.604875 276.544622 
L 100.90728 276.116768 
L 102.242244 275.511297 
L 103.381848 275.186838 
L 105.986657 273.656741 
L 107.321622 273.207219 
L 108.526346 273.232633 
L 109.82875 272.568792 
L 111.163715 272.084482 
L 112.303318 271.178178 
L 114.940687 270.013461 
L 117.447816 268.619974 
L 118.78278 268.034467 
L 120.020065 267.350794 
L 121.355029 266.895684 
L 122.657434 265.713599 
L 123.894718 265.099453 
L 126.336726 263.111008 
L 127.639131 262.348868 
L 130.178819 259.252267 
L 131.416103 257.10912 
L 135.323317 247.698769 
L 137.895565 243.326023 
L 141.672538 234.780123 
L 142.909822 231.484431 
L 144.277347 226.559287 
L 146.751916 214.81072 
L 148.02176 208.956727 
L 150.561449 198.269078 
L 153.166257 184.969182 
L 154.403542 178.2922 
L 155.705946 172.710454 
L 156.91067 165.292474 
L 158.115394 156.764424 
L 161.957487 131.448978 
L 163.227332 123.090656 
L 165.79958 107.410703 
L 167.134545 101.409657 
L 168.371829 98.620008 
L 169.609113 94.5516 
L 172.116242 89.973843 
L 173.516327 89.133763 
L 174.721051 88.871099 
L 175.958335 90.073243 
L 177.228179 93.476041 
L 178.498023 97.452937 
L 179.767868 104.289977 
L 181.102832 113.000476 
L 182.340117 122.054434 
L 184.847245 143.315769 
L 186.117089 154.38185 
L 191.196467 193.820814 
L 192.466311 202.165943 
L 193.768715 209.814626 
L 195.07112 215.70639 
L 196.275844 220.490872 
L 197.578248 226.198502 
L 198.815533 230.352916 
L 203.797229 242.817492 
L 205.197314 244.71324 
L 206.369478 246.615155 
L 207.671883 247.339198 
L 208.909167 248.237268 
L 210.211571 249.907514 
L 211.481416 250.919151 
L 212.7187 251.193955 
L 213.955984 252.18337 
L 215.225828 253.026412 
L 216.495673 253.450668 
L 217.732957 253.54632 
L 219.067921 253.977069 
L 220.305206 254.759458 
L 221.57505 255.712451 
L 222.877454 257.266437 
L 225.417143 258.327163 
L 227.891711 259.628325 
L 229.161556 259.402064 
L 232.938529 259.924324 
L 235.510777 261.074827 
L 236.780622 260.758529 
L 238.017906 261.372144 
L 239.32031 261.707567 
L 243.129843 262.083043 
L 244.367127 262.299516 
L 245.669532 262.78336 
L 246.906816 263.531353 
L 249.446505 264.022692 
L 250.748909 264.531069 
L 251.986193 264.762172 
L 253.288598 264.735441 
L 254.558442 265.653273 
L 255.763166 266.151229 
L 257.098131 266.484941 
L 258.335415 266.999844 
L 260.842543 267.412953 
L 262.112388 267.807783 
L 264.814877 268.148343 
L 267.322005 269.457538 
L 268.59185 269.746086 
L 269.894254 269.809555 
L 272.433943 269.572633 
L 273.638667 269.883142 
L 274.908511 269.914302 
L 276.178355 270.164577 
L 277.48076 270.572008 
L 278.718044 270.769278 
L 279.987888 270.304516 
L 282.560137 270.058803 
L 283.797421 269.650505 
L 285.034706 269.633196 
L 288.811678 270.6874 
L 291.416487 271.433068 
L 292.621211 271.362313 
L 293.923616 271.866957 
L 295.22602 271.787737 
L 296.430744 271.911173 
L 297.700589 271.793135 
L 298.970433 272.152434 
L 300.272837 272.007922 
L 301.477561 271.671763 
L 303.98469 272.132057 
L 305.287094 272.248792 
L 306.556939 272.090688 
L 307.794223 271.79737 
L 309.064067 272.049336 
L 310.301351 271.804024 
L 311.571196 272.323905 
L 312.84104 272.144488 
L 314.143445 272.23025 
L 321.76251 270.816964 
L 322.934674 270.805722 
L 324.269639 271.215576 
L 326.744207 271.060797 
L 333.614391 267.756919 
L 334.819115 266.978868 
L 336.154079 266.605835 
L 337.391364 266.737137 
L 338.596088 267.029257 
L 339.931052 267.724113 
L 341.168336 268.180304 
L 343.708025 269.449985 
L 345.010429 269.375151 
L 346.280274 269.756972 
L 348.852523 269.677081 
L 350.024687 269.926161 
L 351.261971 269.779799 
L 353.86678 270.542804 
L 355.104064 270.437167 
L 357.546072 269.822196 
L 358.946157 269.745571 
L 360.281121 269.8781 
L 362.658009 269.76859 
L 365.197698 270.133518 
L 366.565223 270.214947 
L 367.835067 269.739417 
L 369.104911 269.417008 
L 370.309635 269.374184 
L 374.119168 268.01137 
L 375.258772 267.573069 
L 376.626297 267.525865 
L 377.896141 267.07516 
L 380.40327 266.54146 
L 381.673114 265.521544 
L 382.877838 264.974789 
L 384.147683 263.823652 
L 385.384967 262.876298 
L 386.719931 262.285289 
L 389.16194 261.555673 
L 390.496904 260.962068 
L 391.799309 260.250825 
L 393.199393 259.249706 
L 395.869322 256.520013 
L 397.334527 254.638446 
L 398.571812 253.280738 
L 399.809096 251.490909 
L 401.1115 249.924315 
L 407.493282 240.016561 
L 408.730566 237.274882 
L 409.77249 233.918511 
L 411.205134 231.0614 
L 414.982107 216.807569 
L 416.186831 211.153344 
L 418.889321 199.747247 
L 421.363889 185.493388 
L 422.470933 177.320541 
L 424.001258 168.391213 
L 425.173422 158.661004 
L 425.173422 158.661004 
" clip-path="url(#pb97022f7bb)" style="fill: none; stroke: #1f77b4; stroke-width: 2.5; stroke-linecap: square"/>
   </g>
   <g id="line2d_15">
    <path d="M 46.662135 276.249337 
L 46.662135 277.964827 
L 46.662135 277.887936 
L 46.792376 277.775455 
L 47.411018 277.52576 
L 53.532319 277.397718 
L 55.583606 277.528383 
L 57.211611 277.790025 
L 58.546576 277.874292 
L 59.71874 277.774379 
L 62.063068 278.14737 
L 63.267792 278.080847 
L 65.840041 277.76062 
L 67.109885 277.651011 
L 70.919418 277.814722 
L 72.221822 277.742578 
L 74.891751 278.035854 
L 77.691921 277.910992 
L 78.994325 278.068958 
L 82.803858 277.791109 
L 84.073703 277.259063 
L 85.343547 277.011292 
L 86.645951 276.936006 
L 89.18564 277.121973 
L 94.297577 276.730087 
L 95.567422 276.428556 
L 96.837266 275.697859 
L 98.10711 275.455762 
L 99.376955 274.933828 
L 100.581679 274.649334 
L 104.391212 274.413065 
L 108.233305 273.463817 
L 110.740433 272.282026 
L 111.977717 271.403926 
L 117.122215 268.848727 
L 121.029428 265.973219 
L 122.299272 265.330281 
L 126.108805 262.400028 
L 127.41121 261.173196 
L 128.648494 260.480708 
L 129.950898 259.602159 
L 132.490587 257.489043 
L 133.695311 255.870174 
L 134.965155 254.886932 
L 136.36524 253.388404 
L 137.569964 250.869844 
L 138.839809 248.708618 
L 140.109653 245.945895 
L 142.681902 240.843979 
L 149.031123 225.658345 
L 152.808096 213.572853 
L 154.07794 208.826641 
L 160.362042 182.827444 
L 162.966851 173.261678 
L 164.204135 166.9448 
L 170.716157 141.912784 
L 171.888321 139.258584 
L 173.158165 138.235665 
L 174.42801 138.368515 
L 175.697854 139.534267 
L 176.935138 142.136433 
L 178.237543 146.980938 
L 180.777231 159.825045 
L 181.981955 165.066663 
L 183.2518 171.716898 
L 188.363737 195.474321 
L 189.601021 202.8388 
L 190.903426 209.674789 
L 192.17327 218.204723 
L 194.615278 231.821146 
L 195.917683 237.653937 
L 198.489931 245.344352 
L 199.759776 247.168249 
L 201.06218 248.593074 
L 202.299464 250.1364 
L 203.569309 251.303751 
L 204.774033 253.20671 
L 206.076437 254.293985 
L 207.346282 255.505169 
L 209.91853 258.440435 
L 211.188375 259.567441 
L 212.425659 261.120866 
L 213.695503 261.384008 
L 214.965347 262.041041 
L 216.202632 261.827565 
L 217.505036 261.75922 
L 218.77488 261.484665 
L 221.282009 262.005208 
L 222.551853 262.671438 
L 223.854258 263.723441 
L 225.091542 265.156677 
L 226.328826 265.62715 
L 227.63123 265.918675 
L 228.868515 265.65121 
L 230.073239 265.616628 
L 231.375643 265.74052 
L 232.743168 266.128341 
L 233.980452 266.295674 
L 235.217736 266.920247 
L 236.487581 267.852293 
L 237.724865 268.14421 
L 239.027269 268.245172 
L 240.297114 268.123171 
L 241.534398 268.253475 
L 244.139207 269.236634 
L 245.409051 269.390596 
L 246.613775 269.416295 
L 247.9813 270.030337 
L 249.153464 270.271982 
L 250.423308 270.290536 
L 251.758272 270.589862 
L 252.995557 270.523098 
L 254.232841 270.578953 
L 255.470125 271.083759 
L 256.83765 271.146299 
L 258.009814 270.831092 
L 259.312218 270.754019 
L 265.75912 271.14432 
L 267.094085 271.149838 
L 268.298809 271.88253 
L 269.633773 272.278518 
L 270.871057 272.768859 
L 273.378186 272.215003 
L 274.61547 272.319662 
L 275.917875 272.172974 
L 279.694847 272.181053 
L 280.964692 272.951271 
L 282.234536 273.395352 
L 283.536941 273.662948 
L 284.676544 273.022214 
L 288.551198 273.285786 
L 291.090886 273.213616 
L 294.867859 274.039921 
L 296.170263 274.280041 
L 297.407548 274.350849 
L 298.677392 274.705052 
L 303.724209 274.418548 
L 306.263898 273.702865 
L 307.468622 273.518438 
L 310.040871 273.606747 
L 312.613119 273.537797 
L 313.817843 273.1798 
L 315.087688 273.031637 
L 318.897221 271.262135 
L 320.199625 270.924697 
L 322.739314 270.566886 
L 323.976598 270.190801 
L 325.246442 270.311033 
L 326.483726 270.147779 
L 327.916371 270.123623 
L 329.381576 270.210761 
L 331.986385 270.635982 
L 333.32135 270.81692 
L 334.526074 271.459926 
L 335.861038 271.959494 
L 337.130883 272.101231 
L 338.400727 272.423842 
L 339.605451 272.436527 
L 340.907856 272.246012 
L 342.21026 272.296712 
L 343.447544 272.164529 
L 344.684828 272.211021 
L 345.922113 272.052557 
L 347.224517 272.47179 
L 348.461801 273.00067 
L 349.796766 273.123816 
L 351.03405 273.068285 
L 352.206214 273.167942 
L 354.811023 272.690873 
L 357.383272 272.271525 
L 358.522875 271.704827 
L 359.8904 271.388636 
L 362.397529 271.264912 
L 363.699933 271.018552 
L 364.937217 271.104641 
L 366.239622 270.624787 
L 368.71419 271.34948 
L 370.114275 271.288331 
L 373.793567 270.288978 
L 375.030852 270.154886 
L 376.365816 269.766777 
L 377.63566 269.278754 
L 378.938065 268.640516 
L 380.110229 268.673818 
L 382.682478 267.858342 
L 383.919762 267.282429 
L 385.026805 266.451037 
L 386.39433 265.669697 
L 387.696735 265.092243 
L 388.901459 264.134774 
L 390.203863 263.2749 
L 395.739082 260.684623 
L 398.343891 257.851553 
L 399.548615 255.561114 
L 400.851019 253.36613 
L 402.023183 251.663969 
L 404.660552 246.674714 
L 405.930397 244.561649 
L 407.07 243.031292 
L 408.437525 240.775723 
L 410.912093 235.470351 
L 412.279618 231.606013 
L 413.484342 227.712603 
L 414.623946 224.712576 
L 416.024031 220.150473 
L 417.163635 215.67665 
L 418.531159 211.308776 
L 419.801004 206.646828 
L 421.103408 201.011234 
L 422.308132 194.365218 
L 423.610537 186.498539 
L 424.978061 177.200954 
L 425.857184 166.262221 
L 425.857184 166.262221 
" clip-path="url(#pb97022f7bb)" style="fill: none; stroke: #0033ff; stroke-width: 2.5; stroke-linecap: square"/>
   </g>
   <g id="line2d_16">
    <path d="M 44.708529 271.407157 
L 44.773649 272.674729 
L 44.871329 272.813259 
L 45.392291 272.713816 
L 46.955176 272.67144 
L 51.578712 273.467233 
L 55.258005 273.835651 
L 56.625529 273.865465 
L 58.937297 274.229497 
L 60.174581 274.32784 
L 61.411865 274.245142 
L 62.68171 274.449947 
L 63.918994 274.26132 
L 65.221398 273.934878 
L 66.523803 274.001086 
L 67.793647 273.661384 
L 70.268216 273.572137 
L 72.807904 274.371394 
L 74.207989 274.370872 
L 75.575514 274.142536 
L 77.008158 274.109584 
L 78.310563 274.218224 
L 79.612967 274.546471 
L 80.915372 274.367732 
L 82.152656 274.347075 
L 83.4225 274.03098 
L 84.692345 274.030478 
L 87.264593 273.689708 
L 88.566998 273.667473 
L 89.804282 273.391493 
L 91.074126 273.34942 
L 92.343971 273.057961 
L 93.613815 272.457861 
L 94.916219 271.565782 
L 96.186064 270.872934 
L 97.423348 269.969769 
L 98.628072 269.285975 
L 99.995597 269.163887 
L 101.265441 268.893585 
L 102.470165 268.265497 
L 104.977294 267.970351 
L 106.344818 266.978425 
L 107.582102 266.310419 
L 108.884507 265.950234 
L 111.391635 263.221063 
L 115.136048 260.317414 
L 116.405892 259.662593 
L 117.773417 259.220135 
L 121.68063 256.711097 
L 122.885354 255.737375 
L 124.155199 254.144121 
L 125.425043 252.770025 
L 126.727447 251.567215 
L 128.029852 250.602414 
L 129.299696 249.823202 
L 130.569541 248.126858 
L 131.839385 246.978244 
L 135.616358 240.975874 
L 136.821082 237.21851 
L 139.491011 230.300607 
L 142.0307 221.030257 
L 143.267984 215.463545 
L 144.570388 210.944244 
L 147.110077 199.961493 
L 148.314801 194.57351 
L 152.189454 174.266832 
L 153.426738 164.690915 
L 154.631462 157.682408 
L 155.933867 148.068228 
L 157.203711 139.561946 
L 159.678279 120.02555 
L 161.013244 111.484117 
L 164.822777 83.874863 
L 166.060061 73.370522 
L 167.329906 66.165874 
L 168.66487 56.314133 
L 169.967274 50.912263 
L 171.204559 43.076931 
L 172.441843 39.70133 
L 173.711687 37.582562 
L 175.014092 36.064167 
L 176.316496 34.079942 
L 177.48866 33.093759 
L 178.725944 35.188919 
L 181.330753 41.012008 
L 183.903002 52.755198 
L 185.140286 63.068956 
L 187.679975 77.750154 
L 188.949819 83.344413 
L 190.187103 92.131882 
L 191.522068 104.829066 
L 194.061756 131.764536 
L 195.331601 147.344374 
L 196.601445 165.341829 
L 197.838729 180.295808 
L 199.141134 191.096854 
L 200.410978 198.973613 
L 201.680822 203.29034 
L 205.392675 217.886146 
L 206.695079 220.683231 
L 209.234768 227.134346 
L 210.504612 228.359451 
L 211.774457 230.083896 
L 214.281585 231.874233 
L 215.551429 232.503845 
L 216.853834 234.009933 
L 218.123678 235.650127 
L 219.360962 236.243043 
L 221.900651 238.075883 
L 224.40778 239.459646 
L 225.677624 239.945137 
L 226.947468 241.030342 
L 228.184752 241.535703 
L 229.487157 242.534377 
L 230.757001 243.14426 
L 231.961725 243.48497 
L 233.26413 244.587843 
L 234.533974 245.264522 
L 235.836378 245.288203 
L 237.106223 245.78368 
L 238.343507 245.819013 
L 239.613351 246.432373 
L 240.883196 246.808299 
L 242.15304 246.834329 
L 244.692728 247.302858 
L 245.995133 247.66272 
L 247.232417 246.817662 
L 248.469701 246.358575 
L 249.772106 246.340454 
L 251.00939 245.725339 
L 252.279234 246.134758 
L 253.581639 245.675855 
L 254.884043 245.608143 
L 256.121327 246.123854 
L 257.358612 247.519074 
L 259.93086 249.909724 
L 261.168144 251.436339 
L 262.470549 252.515708 
L 265.075358 255.256279 
L 267.680167 255.798323 
L 268.884891 256.42532 
L 270.187295 257.579888 
L 271.457139 258.338666 
L 272.694424 259.291256 
L 273.964268 259.409061 
L 275.234112 259.247209 
L 276.471396 259.396973 
L 277.741241 259.343803 
L 279.043645 259.51269 
L 280.280929 259.454873 
L 281.583334 259.931094 
L 285.392867 262.191407 
L 286.597591 262.564788 
L 287.899995 262.795914 
L 289.2024 262.905428 
L 290.407124 263.119873 
L 292.946812 263.901266 
L 294.249217 264.542548 
L 295.486501 264.760991 
L 296.756345 265.389941 
L 297.99363 266.18432 
L 299.263474 266.38207 
L 301.803163 266.536518 
L 305.580135 267.142539 
L 306.88254 266.842792 
L 308.152384 266.291632 
L 309.422228 266.363001 
L 311.896797 265.811731 
L 313.134081 265.446398 
L 314.469046 265.54106 
L 315.70633 265.879879 
L 316.911054 266.550211 
L 318.213458 266.839253 
L 319.418182 266.878572 
L 320.753147 267.255557 
L 322.022991 267.939901 
L 324.49756 267.720917 
L 325.832524 267.371885 
L 330.032779 267.509677 
L 331.367743 267.124008 
L 332.637587 267.233046 
L 335.209836 268.16428 
L 336.47968 267.846323 
L 339.019369 267.570715 
L 341.461377 267.877122 
L 342.828902 267.667434 
L 345.23835 267.769689 
L 346.540755 268.03615 
L 347.745479 267.926237 
L 349.080443 267.437871 
L 350.317728 267.322766 
L 354.159821 266.413333 
L 355.397105 265.802884 
L 356.699509 264.85149 
L 357.936793 263.704229 
L 360.411362 260.334829 
L 361.746326 258.104112 
L 363.048731 257.019132 
L 364.253455 255.471209 
L 365.555859 254.713063 
L 366.858264 253.680726 
L 368.030428 253.500287 
L 370.700357 254.398892 
L 371.807401 255.256497 
L 374.379649 257.941135 
L 375.616934 260.011179 
L 376.951898 260.867829 
L 378.189182 261.52364 
L 379.426466 261.251354 
L 380.761431 261.199956 
L 381.933595 261.319848 
L 383.170879 260.891288 
L 388.315377 260.06754 
L 389.487541 259.457873 
L 392.027229 257.738687 
L 398.864853 254.365875 
L 400.199817 252.816141 
L 401.437101 251.959624 
L 402.739506 250.208834 
L 403.94423 248.045377 
L 405.279194 246.099913 
L 406.386238 243.977117 
L 407.753763 241.68861 
L 410.358572 236.381031 
L 412.73546 228.311621 
L 414.102984 224.543322 
L 415.210028 219.342861 
L 416.740353 214.671176 
L 417.814837 210.274831 
L 419.182362 205.385647 
L 420.387086 200.479955 
L 421.59181 194.586711 
L 422.861654 187.278548 
L 424.229179 178.128098 
L 425.401343 166.707993 
L 425.401343 166.707993 
" clip-path="url(#pb97022f7bb)" style="fill: none; stroke: #ff7f0e; stroke-width: 2.5; stroke-linecap: square"/>
   </g>
   <g id="line2d_17">
    <path d="M 55.127764 279.895901 
L 55.062644 280.657792 
L 55.127764 280.428136 
L 55.746406 280.361961 
L 59.68618 280.295637 
L 62.030508 279.980725 
L 65.67724 280.056126 
L 66.979644 280.107812 
L 69.323972 280.35556 
L 73.068385 280.418473 
L 74.43591 280.07539 
L 75.770874 279.965502 
L 77.138399 280.032336 
L 79.775768 280.835905 
L 81.110732 280.75836 
L 82.315457 280.979149 
L 83.617861 280.918955 
L 87.459954 279.673849 
L 88.729798 279.757194 
L 89.934522 279.291734 
L 92.506771 279.135653 
L 93.841736 278.695763 
L 96.316304 278.794844 
L 98.953673 278.735404 
L 100.223517 278.512426 
L 101.493362 277.982233 
L 106.540179 274.567504 
L 110.382272 271.543194 
L 111.619556 269.900455 
L 112.85684 267.983853 
L 114.159245 266.56348 
L 115.429089 264.758171 
L 118.066458 260.546569 
L 119.368862 258.208338 
L 120.671267 256.299515 
L 121.843431 254.306976 
L 123.145835 252.511001 
L 124.41568 250.258638 
L 126.922808 246.695887 
L 129.495057 242.069447 
L 130.764901 239.178524 
L 132.002185 235.463079 
L 133.27203 232.890495 
L 134.574434 229.885913 
L 137.146683 223.018701 
L 138.416527 219.561754 
L 139.718932 216.822333 
L 140.956216 214.545666 
L 143.528465 207.170012 
L 144.798309 203.165676 
L 147.272877 197.825365 
L 148.575282 194.294534 
L 149.845126 190.068553 
L 151.14753 183.03065 
L 152.384815 173.24852 
L 153.654659 164.714406 
L 154.924503 157.987139 
L 156.194348 152.442386 
L 157.431632 148.021096 
L 158.734036 144.386422 
L 160.036441 141.941733 
L 161.371405 137.733589 
L 162.576129 132.85246 
L 165.083258 113.980978 
L 166.385662 108.564315 
L 167.688067 104.699425 
L 170.195195 94.714758 
L 171.46504 89.222712 
L 174.037288 80.479842 
L 175.307133 77.968534 
L 176.609537 75.899504 
L 177.814261 76.708002 
L 179.084105 79.753191 
L 180.35395 84.312575 
L 181.591234 87.67384 
L 182.893638 92.526825 
L 184.163483 98.814757 
L 186.670611 114.813701 
L 189.2103 133.280714 
L 191.782549 152.040207 
L 193.052393 160.0029 
L 196.829366 180.403931 
L 199.336494 192.102223 
L 203.178587 206.038401 
L 204.415872 210.23545 
L 205.685716 213.395328 
L 206.923 217.481178 
L 208.225405 220.704448 
L 209.462689 224.444183 
L 212.002377 229.48707 
L 213.304782 231.636511 
L 217.081755 236.653541 
L 218.351599 237.395262 
L 219.588883 238.997757 
L 220.858727 240.395165 
L 222.161132 241.180145 
L 224.6357 243.065167 
L 230.984922 246.333832 
L 233.49205 248.646927 
L 237.236463 250.338055 
L 238.603988 251.219804 
L 239.841272 252.689118 
L 241.111116 253.074766 
L 242.348401 253.777351 
L 244.920649 255.769522 
L 246.288174 257.207908 
L 247.525458 257.515271 
L 248.795302 257.072675 
L 250.065147 257.807498 
L 252.539715 259.639583 
L 253.84212 259.343041 
L 255.144524 259.895218 
L 256.349248 261.262549 
L 257.651653 262.500808 
L 258.954057 263.442175 
L 261.396065 263.614425 
L 262.73103 264.04107 
L 264.033434 263.779982 
L 265.368399 263.782068 
L 266.605683 263.296132 
L 267.908087 263.668866 
L 269.145372 264.191187 
L 270.447776 264.912717 
L 271.75018 265.250503 
L 272.954905 265.436499 
L 274.257309 266.407001 
L 275.462033 266.5846 
L 279.271566 265.738458 
L 281.876375 265.96759 
L 283.081099 266.635817 
L 284.416063 266.698811 
L 285.685908 267.104305 
L 286.923192 268.288793 
L 288.160476 268.714751 
L 289.39776 268.789233 
L 290.700165 269.197023 
L 291.937449 269.187915 
L 293.239853 269.36463 
L 294.509698 269.353815 
L 295.746982 269.49444 
L 297.049386 269.34162 
L 298.286671 269.841845 
L 303.300928 271.300109 
L 304.635892 270.776282 
L 307.143021 270.227488 
L 308.380305 270.240472 
L 309.617589 270.049238 
L 310.887433 270.383719 
L 312.157278 270.559314 
L 313.492242 270.986324 
L 314.696966 271.565695 
L 315.999371 271.808638 
L 317.236655 271.601363 
L 318.506499 271.135948 
L 319.808904 270.962712 
L 321.046188 270.545088 
L 324.823161 270.073017 
L 326.027885 270.315102 
L 327.362849 270.468252 
L 330.228139 270.201637 
L 331.628224 269.778804 
L 332.898068 269.51503 
L 334.167913 268.975003 
L 335.437757 268.749517 
L 337.912325 266.867938 
L 339.24729 266.572375 
L 340.484574 265.458903 
L 341.689298 264.163616 
L 343.024263 263.300356 
L 344.294107 261.823416 
L 345.563951 260.705613 
L 348.00596 258.91472 
L 349.340924 258.35641 
L 350.675889 258.215643 
L 351.815493 258.673116 
L 353.150457 258.889451 
L 354.387741 258.655729 
L 355.690146 259.673842 
L 356.95999 260.04135 
L 358.229834 260.777135 
L 361.974247 263.591585 
L 363.244091 264.254515 
L 365.946581 264.748532 
L 367.086185 264.595271 
L 368.290909 264.791341 
L 370.895717 264.453647 
L 372.165562 264.285948 
L 373.370286 264.385058 
L 375.877414 264.024277 
L 377.114699 263.650081 
L 379.654387 263.733334 
L 382.226636 263.374801 
L 386.101289 262.475238 
L 387.273453 261.671375 
L 388.510737 261.434361 
L 389.780582 260.648746 
L 391.148106 259.334767 
L 392.385391 258.340485 
L 393.850595 257.306112 
L 395.28324 255.778753 
L 396.618205 254.764586 
L 397.888049 253.950769 
L 399.060213 252.684775 
L 400.492858 251.761291 
L 401.665022 250.687003 
L 404.10703 246.550224 
L 405.539675 245.042697 
L 406.80952 242.682723 
L 409.186408 237.33153 
L 410.521372 234.486873 
L 411.856337 230.867253 
L 413.093621 227.89663 
L 414.363465 224.225486 
L 415.63331 219.623837 
L 416.805474 216.043357 
L 418.238118 210.867358 
L 419.442842 205.32714 
L 421.949971 192.339609 
L 424.55478 176.239696 
L 425.564143 166.839942 
L 425.564143 166.839942 
" clip-path="url(#pb97022f7bb)" style="fill: none; stroke: #ff0000; stroke-width: 2.5; stroke-linecap: square"/>
   </g>
   <g id="patch_3">
    <path d="M 35.624258 299.822656 
L 35.624258 20.392383 
" style="fill: none; stroke: #000000; stroke-width: 1.5; stroke-linejoin: miter; stroke-linecap: square"/>
   </g>
   <g id="patch_4">
    <path d="M 35.624258 299.822656 
L 426.345586 299.822656 
" style="fill: none; stroke: #000000; stroke-width: 1.5; stroke-linejoin: miter; stroke-linecap: square"/>
   </g>
   <g id="legend_1">
    <g id="line2d_18">
     <path d="M 46.424258 35.728711 
L 58.424258 35.728711 
L 70.424258 35.728711 
" style="fill: none; stroke: #000000; stroke-width: 2.5; stroke-linecap: square"/>
    </g>
    <g id="text_16">
     <!-- vacuum -->
     <g transform="translate(80.024258 39.928711) scale(0.12 -0.12)">
      <defs>
       <path id="ArialMT-59" d="M 1344 0 
L 81 3319 
L 675 3319 
L 1388 1331 
Q 1503 1009 1600 663 
Q 1675 925 1809 1294 
L 2547 3319 
L 3125 3319 
L 1869 0 
L 1344 0 
z
" transform="scale(0.015625)"/>
       <path id="ArialMT-46" d="M 2588 1216 
L 3141 1144 
Q 3050 572 2676 248 
Q 2303 -75 1759 -75 
Q 1078 -75 664 370 
Q 250 816 250 1647 
Q 250 2184 428 2587 
Q 606 2991 970 3192 
Q 1334 3394 1763 3394 
Q 2303 3394 2647 3120 
Q 2991 2847 3088 2344 
L 2541 2259 
Q 2463 2594 2264 2762 
Q 2066 2931 1784 2931 
Q 1359 2931 1093 2626 
Q 828 2322 828 1663 
Q 828 994 1084 691 
Q 1341 388 1753 388 
Q 2084 388 2306 591 
Q 2528 794 2588 1216 
z
" transform="scale(0.015625)"/>
      </defs>
      <use xlink:href="#ArialMT-59"/>
      <use xlink:href="#ArialMT-44" transform="translate(50 0)"/>
      <use xlink:href="#ArialMT-46" transform="translate(105.609375 0)"/>
      <use xlink:href="#ArialMT-58" transform="translate(155.609375 0)"/>
      <use xlink:href="#ArialMT-58" transform="translate(211.21875 0)"/>
      <use xlink:href="#ArialMT-50" transform="translate(266.828125 0)"/>
     </g>
    </g>
    <g id="line2d_19">
     <path d="M 46.424258 52.99043 
L 58.424258 52.99043 
L 70.424258 52.99043 
" style="fill: none; stroke: #1f77b4; stroke-width: 2.5; stroke-linecap: square"/>
    </g>
    <g id="text_17">
     <!-- 1h -->
     <g transform="translate(80.024258 57.19043) scale(0.12 -0.12)">
      <defs>
       <path id="ArialMT-4b" d="M 422 0 
L 422 4581 
L 984 4581 
L 984 2938 
Q 1378 3394 1978 3394 
Q 2347 3394 2619 3248 
Q 2891 3103 3008 2847 
Q 3125 2591 3125 2103 
L 3125 0 
L 2563 0 
L 2563 2103 
Q 2563 2525 2380 2717 
Q 2197 2909 1863 2909 
Q 1613 2909 1392 2779 
Q 1172 2650 1078 2428 
Q 984 2206 984 1816 
L 984 0 
L 422 0 
z
" transform="scale(0.015625)"/>
      </defs>
      <use xlink:href="#ArialMT-14"/>
      <use xlink:href="#ArialMT-4b" transform="translate(55.609375 0)"/>
     </g>
    </g>
    <g id="line2d_20">
     <path d="M 46.424258 70.252148 
L 58.424258 70.252148 
L 70.424258 70.252148 
" style="fill: none; stroke: #0033ff; stroke-width: 2.5; stroke-linecap: square"/>
    </g>
    <g id="text_18">
     <!-- 2h -->
     <g transform="translate(80.024258 74.452148) scale(0.12 -0.12)">
      <use xlink:href="#ArialMT-15"/>
      <use xlink:href="#ArialMT-4b" transform="translate(55.609375 0)"/>
     </g>
    </g>
    <g id="line2d_21">
     <path d="M 46.424258 87.513867 
L 58.424258 87.513867 
L 70.424258 87.513867 
" style="fill: none; stroke: #ff7f0e; stroke-width: 2.5; stroke-linecap: square"/>
    </g>
    <g id="text_19">
     <!-- 4h -->
     <g transform="translate(80.024258 91.713867) scale(0.12 -0.12)">
      <use xlink:href="#ArialMT-17"/>
      <use xlink:href="#ArialMT-4b" transform="translate(55.609375 0)"/>
     </g>
    </g>
    <g id="line2d_22">
     <path d="M 46.424258 104.775586 
L 58.424258 104.775586 
L 70.424258 104.775586 
" style="fill: none; stroke: #ff0000; stroke-width: 2.5; stroke-linecap: square"/>
    </g>
    <g id="text_20">
     <!-- first -->
     <g transform="translate(80.024258 108.975586) scale(0.12 -0.12)">
      <defs>
       <path id="ArialMT-49" d="M 556 0 
L 556 2881 
L 59 2881 
L 59 3319 
L 556 3319 
L 556 3672 
Q 556 4006 616 4169 
Q 697 4388 901 4523 
Q 1106 4659 1475 4659 
Q 1713 4659 2000 4603 
L 1916 4113 
Q 1741 4144 1584 4144 
Q 1328 4144 1222 4034 
Q 1116 3925 1116 3625 
L 1116 3319 
L 1763 3319 
L 1763 2881 
L 1116 2881 
L 1116 0 
L 556 0 
z
" transform="scale(0.015625)"/>
       <path id="ArialMT-4c" d="M 425 3934 
L 425 4581 
L 988 4581 
L 988 3934 
L 425 3934 
z
M 425 0 
L 425 3319 
L 988 3319 
L 988 0 
L 425 0 
z
" transform="scale(0.015625)"/>
       <path id="ArialMT-56" d="M 197 991 
L 753 1078 
Q 800 744 1014 566 
Q 1228 388 1613 388 
Q 2000 388 2187 545 
Q 2375 703 2375 916 
Q 2375 1106 2209 1216 
Q 2094 1291 1634 1406 
Q 1016 1563 777 1677 
Q 538 1791 414 1992 
Q 291 2194 291 2438 
Q 291 2659 392 2848 
Q 494 3038 669 3163 
Q 800 3259 1026 3326 
Q 1253 3394 1513 3394 
Q 1903 3394 2198 3281 
Q 2494 3169 2634 2976 
Q 2775 2784 2828 2463 
L 2278 2388 
Q 2241 2644 2061 2787 
Q 1881 2931 1553 2931 
Q 1166 2931 1000 2803 
Q 834 2675 834 2503 
Q 834 2394 903 2306 
Q 972 2216 1119 2156 
Q 1203 2125 1616 2013 
Q 2213 1853 2448 1751 
Q 2684 1650 2818 1456 
Q 2953 1263 2953 975 
Q 2953 694 2789 445 
Q 2625 197 2315 61 
Q 2006 -75 1616 -75 
Q 969 -75 630 194 
Q 291 463 197 991 
z
" transform="scale(0.015625)"/>
      </defs>
      <use xlink:href="#ArialMT-49"/>
      <use xlink:href="#ArialMT-4c" transform="translate(27.78125 0)"/>
      <use xlink:href="#ArialMT-55" transform="translate(50 0)"/>
      <use xlink:href="#ArialMT-56" transform="translate(83.296875 0)"/>
      <use xlink:href="#ArialMT-57" transform="translate(133.296875 0)"/>
     </g>
    </g>
   </g>
  </g>
 </g>
 <defs>
  <clipPath id="pb97022f7bb">
   <rect x="35.624258" y="20.392383" width="390.721328" height="279.430273"/>
  </clipPath>
 </defs>
</svg>
