<?xml version="1.0" encoding="utf-8" standalone="no"?>
<!DOCTYPE svg PUBLIC "-//W3C//DTD SVG 1.1//EN"
  "http://www.w3.org/Graphics/SVG/1.1/DTD/svg11.dtd">
<svg xmlns:xlink="http://www.w3.org/1999/xlink" width="449.116211pt" height="340.800273pt" viewBox="0 0 449.116211 340.800273" xmlns="http://www.w3.org/2000/svg" version="1.1">
 <metadata>
  <rdf:RDF xmlns:dc="http://purl.org/dc/elements/1.1/" xmlns:cc="http://creativecommons.org/ns#" xmlns:rdf="http://www.w3.org/1999/02/22-rdf-syntax-ns#">
   <cc:Work>
    <dc:type rdf:resource="http://purl.org/dc/dcmitype/StillImage"/>
    <dc:date>2026-07-09T17:08:13.028041</dc:date>
    <dc:format>image/svg+xml</dc:format>
    <dc:creator>
     <cc:Agent>
      <dc:title>Matplotlib v3.11.0, https://matplotlib.org/</dc:title>
     </cc:Agent>
    </dc:creator>
   </cc:Work>
  </rdf:RDF>
 </metadata>
 <defs>
  <style type="text/css">*{stroke-linejoin: round; stroke-linecap: butt}</style>
 </defs>
 <g id="figure_1">
  <g id="patch_1">
   <path d="M 0 340.800273 
L 449.116211 340.800273 
L 449.116211 0 
L 0 0 
z
" style="fill: #ffffff"/>
  </g>
  <g id="axes_1">
   <g id="patch_2">
    <path d="M 35.624258 299.822656 
L 426.345586 299.822656 
L 426.345586 20.392383 
L 35.624258 20.392383 
z
" style="fill: #ffffff"/>
   </g>
   <g id="matplotlib.axis_1">
    <g id="xtick_1">
     <g id="line2d_1">
      <defs>
       <path id="m616d4ee84e" d="M 0 0 
L 0 -6 
" style="stroke: #000000; stroke-width: 1.5"/>
      </defs>
      <g>
       <use xlink:href="#m616d4ee84e" x="35.624258" y="299.822656" style="stroke: #000000; stroke-width: 1.5"/>
      </g>
     </g>
     <g id="text_1">
      <!-- 0 -->
      <g transform="translate(31.731602 313.515039) scale(0.14 -0.14)">
       <defs>
        <path id="ArialMT-13" d="M 266 2259 
Q 266 3072 433 3567 
Q 600 4063 929 4331 
Q 1259 4600 1759 4600 
Q 2128 4600 2406 4451 
Q 2684 4303 2865 4023 
Q 3047 3744 3150 3342 
Q 3253 2941 3253 2259 
Q 3253 1453 3087 958 
Q 2922 463 2592 192 
Q 2263 -78 1759 -78 
Q 1097 -78 719 397 
Q 266 969 266 2259 
z
M 844 2259 
Q 844 1131 1108 757 
Q 1372 384 1759 384 
Q 2147 384 2411 759 
Q 2675 1134 2675 2259 
Q 2675 3391 2411 3762 
Q 2147 4134 1753 4134 
Q 1366 4134 1134 3806 
Q 844 3388 844 2259 
z
" transform="scale(0.015625)"/>
       </defs>
       <use xlink:href="#ArialMT-13"/>
      </g>
     </g>
    </g>
    <g id="xtick_2">
     <g id="line2d_2">
      <g>
       <use xlink:href="#m616d4ee84e" x="100.744479" y="299.822656" style="stroke: #000000; stroke-width: 1.5"/>
      </g>
     </g>
     <g id="text_2">
      <!-- 200 -->
      <g transform="translate(89.06651 313.515039) scale(0.14 -0.14)">
       <defs>
        <path id="ArialMT-15" d="M 3222 541 
L 3222 0 
L 194 0 
Q 188 203 259 391 
Q 375 700 629 1000 
Q 884 1300 1366 1694 
Q 2113 2306 2375 2664 
Q 2638 3022 2638 3341 
Q 2638 3675 2398 3904 
Q 2159 4134 1775 4134 
Q 1369 4134 1125 3890 
Q 881 3647 878 3216 
L 300 3275 
Q 359 3922 746 4261 
Q 1134 4600 1788 4600 
Q 2447 4600 2831 4234 
Q 3216 3869 3216 3328 
Q 3216 3053 3103 2787 
Q 2991 2522 2730 2228 
Q 2469 1934 1863 1422 
Q 1356 997 1212 845 
Q 1069 694 975 541 
L 3222 541 
z
" transform="scale(0.015625)"/>
       </defs>
       <use xlink:href="#ArialMT-15"/>
       <use xlink:href="#ArialMT-13" transform="translate(55.609375 0)"/>
       <use xlink:href="#ArialMT-13" transform="translate(111.21875 0)"/>
      </g>
     </g>
    </g>
    <g id="xtick_3">
     <g id="line2d_3">
      <g>
       <use xlink:href="#m616d4ee84e" x="165.864701" y="299.822656" style="stroke: #000000; stroke-width: 1.5"/>
      </g>
     </g>
     <g id="text_3">
      <!-- 400 -->
      <g transform="translate(154.186732 313.515039) scale(0.14 -0.14)">
       <defs>
        <path id="ArialMT-17" d="M 2069 0 
L 2069 1097 
L 81 1097 
L 81 1613 
L 2172 4581 
L 2631 4581 
L 2631 1613 
L 3250 1613 
L 3250 1097 
L 2631 1097 
L 2631 0 
L 2069 0 
z
M 2069 1613 
L 2069 3678 
L 634 1613 
L 2069 1613 
z
" transform="scale(0.015625)"/>
       </defs>
       <use xlink:href="#ArialMT-17"/>
       <use xlink:href="#ArialMT-13" transform="translate(55.609375 0)"/>
       <use xlink:href="#ArialMT-13" transform="translate(111.21875 0)"/>
      </g>
     </g>
    </g>
    <g id="xtick_4">
     <g id="line2d_4">
      <g>
       <use xlink:href="#m616d4ee84e" x="230.984922" y="299.822656" style="stroke: #000000; stroke-width: 1.5"/>
      </g>
     </g>
     <g id="text_4">
      <!-- 600 -->
      <g transform="translate(219.306953 313.515039) scale(0.14 -0.14)">
       <defs>
        <path id="ArialMT-19" d="M 3184 3459 
L 2625 3416 
Q 2550 3747 2413 3897 
Q 2184 4138 1850 4138 
Q 1581 4138 1378 3988 
Q 1113 3794 959 3422 
Q 806 3050 800 2363 
Q 1003 2672 1297 2822 
Q 1591 2972 1913 2972 
Q 2475 2972 2870 2558 
Q 3266 2144 3266 1488 
Q 3266 1056 3080 686 
Q 2894 316 2569 119 
Q 2244 -78 1831 -78 
Q 1128 -78 684 439 
Q 241 956 241 2144 
Q 241 3472 731 4075 
Q 1159 4600 1884 4600 
Q 2425 4600 2770 4297 
Q 3116 3994 3184 3459 
z
M 888 1484 
Q 888 1194 1011 928 
Q 1134 663 1356 523 
Q 1578 384 1822 384 
Q 2178 384 2434 671 
Q 2691 959 2691 1453 
Q 2691 1928 2437 2201 
Q 2184 2475 1800 2475 
Q 1419 2475 1153 2201 
Q 888 1928 888 1484 
z
" transform="scale(0.015625)"/>
       </defs>
       <use xlink:href="#ArialMT-19"/>
       <use xlink:href="#ArialMT-13" transform="translate(55.609375 0)"/>
       <use xlink:href="#ArialMT-13" transform="translate(111.21875 0)"/>
      </g>
     </g>
    </g>
    <g id="xtick_5">
     <g id="line2d_5">
      <g>
       <use xlink:href="#m616d4ee84e" x="296.105143" y="299.822656" style="stroke: #000000; stroke-width: 1.5"/>
      </g>
     </g>
     <g id="text_5">
      <!-- 800 -->
      <g transform="translate(284.427174 313.515039) scale(0.14 -0.14)">
       <defs>
        <path id="ArialMT-1b" d="M 1131 2484 
Q 781 2613 612 2850 
Q 444 3088 444 3419 
Q 444 3919 803 4259 
Q 1163 4600 1759 4600 
Q 2359 4600 2725 4251 
Q 3091 3903 3091 3403 
Q 3091 3084 2923 2848 
Q 2756 2613 2416 2484 
Q 2838 2347 3058 2040 
Q 3278 1734 3278 1309 
Q 3278 722 2862 322 
Q 2447 -78 1769 -78 
Q 1091 -78 675 323 
Q 259 725 259 1325 
Q 259 1772 486 2073 
Q 713 2375 1131 2484 
z
M 1019 3438 
Q 1019 3113 1228 2906 
Q 1438 2700 1772 2700 
Q 2097 2700 2305 2904 
Q 2513 3109 2513 3406 
Q 2513 3716 2298 3927 
Q 2084 4138 1766 4138 
Q 1444 4138 1231 3931 
Q 1019 3725 1019 3438 
z
M 838 1322 
Q 838 1081 952 856 
Q 1066 631 1291 507 
Q 1516 384 1775 384 
Q 2178 384 2440 643 
Q 2703 903 2703 1303 
Q 2703 1709 2433 1975 
Q 2163 2241 1756 2241 
Q 1359 2241 1098 1978 
Q 838 1716 838 1322 
z
" transform="scale(0.015625)"/>
       </defs>
       <use xlink:href="#ArialMT-1b"/>
       <use xlink:href="#ArialMT-13" transform="translate(55.609375 0)"/>
       <use xlink:href="#ArialMT-13" transform="translate(111.21875 0)"/>
      </g>
     </g>
    </g>
    <g id="xtick_6">
     <g id="line2d_6">
      <g>
       <use xlink:href="#m616d4ee84e" x="361.225365" y="299.822656" style="stroke: #000000; stroke-width: 1.5"/>
      </g>
     </g>
     <g id="text_6">
      <!-- 1000 -->
      <g transform="translate(345.65474 313.515039) scale(0.14 -0.14)">
       <defs>
        <path id="ArialMT-14" d="M 2384 0 
L 1822 0 
L 1822 3584 
Q 1619 3391 1289 3197 
Q 959 3003 697 2906 
L 697 3450 
Q 1169 3672 1522 3987 
Q 1875 4303 2022 4600 
L 2384 4600 
L 2384 0 
z
" transform="scale(0.015625)"/>
       </defs>
       <use xlink:href="#ArialMT-14"/>
       <use xlink:href="#ArialMT-13" transform="translate(55.609375 0)"/>
       <use xlink:href="#ArialMT-13" transform="translate(111.21875 0)"/>
       <use xlink:href="#ArialMT-13" transform="translate(166.828125 0)"/>
      </g>
     </g>
    </g>
    <g id="xtick_7">
     <g id="line2d_7">
      <g>
       <use xlink:href="#m616d4ee84e" x="426.345586" y="299.822656" style="stroke: #000000; stroke-width: 1.5"/>
      </g>
     </g>
     <g id="text_7">
      <!-- 1200 -->
      <g transform="translate(410.774961 313.515039) scale(0.14 -0.14)">
       <use xlink:href="#ArialMT-14"/>
       <use xlink:href="#ArialMT-15" transform="translate(55.609375 0)"/>
       <use xlink:href="#ArialMT-13" transform="translate(111.21875 0)"/>
       <use xlink:href="#ArialMT-13" transform="translate(166.828125 0)"/>
      </g>
     </g>
    </g>
    <g id="text_8">
     <!-- T1 Temperature (°C) -->
     <g transform="translate(167.245547 330.653711) scale(0.14 -0.14)">
      <defs>
       <path id="ArialMT-37" d="M 1659 0 
L 1659 4041 
L 150 4041 
L 150 4581 
L 3781 4581 
L 3781 4041 
L 2266 4041 
L 2266 0 
L 1659 0 
z
" transform="scale(0.015625)"/>
       <path id="ArialMT-3" transform="scale(0.015625)"/>
       <path id="ArialMT-48" d="M 2694 1069 
L 3275 997 
Q 3138 488 2766 206 
Q 2394 -75 1816 -75 
Q 1088 -75 661 373 
Q 234 822 234 1631 
Q 234 2469 665 2931 
Q 1097 3394 1784 3394 
Q 2450 3394 2872 2941 
Q 3294 2488 3294 1666 
Q 3294 1616 3291 1516 
L 816 1516 
Q 847 969 1125 678 
Q 1403 388 1819 388 
Q 2128 388 2347 550 
Q 2566 713 2694 1069 
z
M 847 1978 
L 2700 1978 
Q 2663 2397 2488 2606 
Q 2219 2931 1791 2931 
Q 1403 2931 1139 2672 
Q 875 2413 847 1978 
z
" transform="scale(0.015625)"/>
       <path id="ArialMT-50" d="M 422 0 
L 422 3319 
L 925 3319 
L 925 2853 
Q 1081 3097 1340 3245 
Q 1600 3394 1931 3394 
Q 2300 3394 2536 3241 
Q 2772 3088 2869 2813 
Q 3263 3394 3894 3394 
Q 4388 3394 4653 3120 
Q 4919 2847 4919 2278 
L 4919 0 
L 4359 0 
L 4359 2091 
Q 4359 2428 4304 2576 
Q 4250 2725 4106 2815 
Q 3963 2906 3769 2906 
Q 3419 2906 3187 2673 
Q 2956 2441 2956 1928 
L 2956 0 
L 2394 0 
L 2394 2156 
Q 2394 2531 2256 2718 
Q 2119 2906 1806 2906 
Q 1569 2906 1367 2781 
Q 1166 2656 1075 2415 
Q 984 2175 984 1722 
L 984 0 
L 422 0 
z
" transform="scale(0.015625)"/>
       <path id="ArialMT-53" d="M 422 -1272 
L 422 3319 
L 934 3319 
L 934 2888 
Q 1116 3141 1344 3267 
Q 1572 3394 1897 3394 
Q 2322 3394 2647 3175 
Q 2972 2956 3137 2557 
Q 3303 2159 3303 1684 
Q 3303 1175 3120 767 
Q 2938 359 2589 142 
Q 2241 -75 1856 -75 
Q 1575 -75 1351 44 
Q 1128 163 984 344 
L 984 -1272 
L 422 -1272 
z
M 931 1641 
Q 931 1000 1190 694 
Q 1450 388 1819 388 
Q 2194 388 2461 705 
Q 2728 1022 2728 1688 
Q 2728 2322 2467 2637 
Q 2206 2953 1844 2953 
Q 1484 2953 1207 2617 
Q 931 2281 931 1641 
z
" transform="scale(0.015625)"/>
       <path id="ArialMT-55" d="M 416 0 
L 416 3319 
L 922 3319 
L 922 2816 
Q 1116 3169 1280 3281 
Q 1444 3394 1641 3394 
Q 1925 3394 2219 3213 
L 2025 2691 
Q 1819 2813 1613 2813 
Q 1428 2813 1281 2702 
Q 1134 2591 1072 2394 
Q 978 2094 978 1738 
L 978 0 
L 416 0 
z
" transform="scale(0.015625)"/>
       <path id="ArialMT-44" d="M 2588 409 
Q 2275 144 1986 34 
Q 1697 -75 1366 -75 
Q 819 -75 525 192 
Q 231 459 231 875 
Q 231 1119 342 1320 
Q 453 1522 633 1644 
Q 813 1766 1038 1828 
Q 1203 1872 1538 1913 
Q 2219 1994 2541 2106 
Q 2544 2222 2544 2253 
Q 2544 2597 2384 2738 
Q 2169 2928 1744 2928 
Q 1347 2928 1158 2789 
Q 969 2650 878 2297 
L 328 2372 
Q 403 2725 575 2942 
Q 747 3159 1072 3276 
Q 1397 3394 1825 3394 
Q 2250 3394 2515 3294 
Q 2781 3194 2906 3042 
Q 3031 2891 3081 2659 
Q 3109 2516 3109 2141 
L 3109 1391 
Q 3109 606 3145 398 
Q 3181 191 3288 0 
L 2700 0 
Q 2613 175 2588 409 
z
M 2541 1666 
Q 2234 1541 1622 1453 
Q 1275 1403 1131 1340 
Q 988 1278 909 1158 
Q 831 1038 831 891 
Q 831 666 1001 516 
Q 1172 366 1500 366 
Q 1825 366 2078 508 
Q 2331 650 2450 897 
Q 2541 1088 2541 1459 
L 2541 1666 
z
" transform="scale(0.015625)"/>
       <path id="ArialMT-57" d="M 1650 503 
L 1731 6 
Q 1494 -44 1306 -44 
Q 1000 -44 831 53 
Q 663 150 594 308 
Q 525 466 525 972 
L 525 2881 
L 113 2881 
L 113 3319 
L 525 3319 
L 525 4141 
L 1084 4478 
L 1084 3319 
L 1650 3319 
L 1650 2881 
L 1084 2881 
L 1084 941 
Q 1084 700 1114 631 
Q 1144 563 1211 522 
Q 1278 481 1403 481 
Q 1497 481 1650 503 
z
" transform="scale(0.015625)"/>
       <path id="ArialMT-58" d="M 2597 0 
L 2597 488 
Q 2209 -75 1544 -75 
Q 1250 -75 995 37 
Q 741 150 617 320 
Q 494 491 444 738 
Q 409 903 409 1263 
L 409 3319 
L 972 3319 
L 972 1478 
Q 972 1038 1006 884 
Q 1059 663 1231 536 
Q 1403 409 1656 409 
Q 1909 409 2131 539 
Q 2353 669 2445 892 
Q 2538 1116 2538 1541 
L 2538 3319 
L 3100 3319 
L 3100 0 
L 2597 0 
z
" transform="scale(0.015625)"/>
       <path id="ArialMT-b" d="M 1497 -1347 
Q 1031 -759 709 28 
Q 388 816 388 1659 
Q 388 2403 628 3084 
Q 909 3875 1497 4659 
L 1900 4659 
Q 1522 4009 1400 3731 
Q 1209 3300 1100 2831 
Q 966 2247 966 1656 
Q 966 153 1900 -1347 
L 1497 -1347 
z
" transform="scale(0.015625)"/>
       <path id="ArialMT-83" d="M 400 3794 
Q 400 4153 654 4406 
Q 909 4659 1266 4659 
Q 1628 4659 1881 4406 
Q 2134 4153 2134 3794 
Q 2134 3434 1879 3179 
Q 1625 2925 1266 2925 
Q 909 2925 654 3178 
Q 400 3431 400 3794 
z
M 741 3794 
Q 741 3575 895 3420 
Q 1050 3266 1269 3266 
Q 1484 3266 1639 3420 
Q 1794 3575 1794 3794 
Q 1794 4013 1639 4167 
Q 1484 4322 1269 4322 
Q 1050 4322 895 4167 
Q 741 4013 741 3794 
z
" transform="scale(0.015625)"/>
       <path id="ArialMT-26" d="M 3763 1606 
L 4369 1453 
Q 4178 706 3683 314 
Q 3188 -78 2472 -78 
Q 1731 -78 1267 223 
Q 803 525 561 1097 
Q 319 1669 319 2325 
Q 319 3041 592 3573 
Q 866 4106 1370 4382 
Q 1875 4659 2481 4659 
Q 3169 4659 3637 4309 
Q 4106 3959 4291 3325 
L 3694 3184 
Q 3534 3684 3231 3912 
Q 2928 4141 2469 4141 
Q 1941 4141 1586 3887 
Q 1231 3634 1087 3207 
Q 944 2781 944 2328 
Q 944 1744 1114 1308 
Q 1284 872 1643 656 
Q 2003 441 2422 441 
Q 2931 441 3284 734 
Q 3638 1028 3763 1606 
z
" transform="scale(0.015625)"/>
       <path id="ArialMT-c" d="M 791 -1347 
L 388 -1347 
Q 1322 153 1322 1656 
Q 1322 2244 1188 2822 
Q 1081 3291 891 3722 
Q 769 4003 388 4659 
L 791 4659 
Q 1378 3875 1659 3084 
Q 1900 2403 1900 1659 
Q 1900 816 1576 28 
Q 1253 -759 791 -1347 
z
" transform="scale(0.015625)"/>
      </defs>
      <use xlink:href="#ArialMT-37"/>
      <use xlink:href="#ArialMT-14" transform="translate(61.078125 0)"/>
      <use xlink:href="#ArialMT-3" transform="translate(116.6875 0)"/>
      <use xlink:href="#ArialMT-37" transform="translate(142.65625 0)"/>
      <use xlink:href="#ArialMT-48" transform="translate(192.65625 0)"/>
      <use xlink:href="#ArialMT-50" transform="translate(248.265625 0)"/>
      <use xlink:href="#ArialMT-53" transform="translate(331.5625 0)"/>
      <use xlink:href="#ArialMT-48" transform="translate(387.171875 0)"/>
      <use xlink:href="#ArialMT-55" transform="translate(442.78125 0)"/>
      <use xlink:href="#ArialMT-44" transform="translate(476.078125 0)"/>
      <use xlink:href="#ArialMT-57" transform="translate(531.6875 0)"/>
      <use xlink:href="#ArialMT-58" transform="translate(559.46875 0)"/>
      <use xlink:href="#ArialMT-55" transform="translate(615.078125 0)"/>
      <use xlink:href="#ArialMT-48" transform="translate(648.375 0)"/>
      <use xlink:href="#ArialMT-3" transform="translate(703.984375 0)"/>
      <use xlink:href="#ArialMT-b" transform="translate(731.765625 0)"/>
      <use xlink:href="#ArialMT-83" transform="translate(765.0625 0)"/>
      <use xlink:href="#ArialMT-26" transform="translate(805.046875 0)"/>
      <use xlink:href="#ArialMT-c" transform="translate(877.265625 0)"/>
     </g>
    </g>
   </g>
   <g id="matplotlib.axis_2">
    <g id="ytick_1">
     <g id="line2d_8">
      <defs>
       <path id="mf967f3bf2e" d="M 0 0 
L 6 0 
" style="stroke: #000000; stroke-width: 1.5"/>
      </defs>
      <g>
       <use xlink:href="#mf967f3bf2e" x="35.624258" y="290.609575" style="stroke: #000000; stroke-width: 1.5"/>
      </g>
     </g>
     <g id="text_9">
      <!-- 0 -->
      <g transform="translate(24.338945 295.705766) scale(0.14 -0.14)">
       <use xlink:href="#ArialMT-13"/>
      </g>
     </g>
    </g>
    <g id="ytick_2">
     <g id="line2d_9">
      <g>
       <use xlink:href="#mf967f3bf2e" x="35.624258" y="252.038827" style="stroke: #000000; stroke-width: 1.5"/>
      </g>
     </g>
     <g id="text_10">
      <!-- 1 -->
      <g transform="translate(24.338945 257.135019) scale(0.14 -0.14)">
       <use xlink:href="#ArialMT-14"/>
      </g>
     </g>
    </g>
    <g id="ytick_3">
     <g id="line2d_10">
      <g>
       <use xlink:href="#mf967f3bf2e" x="35.624258" y="213.46808" style="stroke: #000000; stroke-width: 1.5"/>
      </g>
     </g>
     <g id="text_11">
      <!-- 2 -->
      <g transform="translate(24.338945 218.564271) scale(0.14 -0.14)">
       <use xlink:href="#ArialMT-15"/>
      </g>
     </g>
    </g>
    <g id="ytick_4">
     <g id="line2d_11">
      <g>
       <use xlink:href="#mf967f3bf2e" x="35.624258" y="174.897332" style="stroke: #000000; stroke-width: 1.5"/>
      </g>
     </g>
     <g id="text_12">
      <!-- 3 -->
      <g transform="translate(24.338945 179.993524) scale(0.14 -0.14)">
       <defs>
        <path id="ArialMT-16" d="M 269 1209 
L 831 1284 
Q 928 806 1161 595 
Q 1394 384 1728 384 
Q 2125 384 2398 659 
Q 2672 934 2672 1341 
Q 2672 1728 2419 1979 
Q 2166 2231 1775 2231 
Q 1616 2231 1378 2169 
L 1441 2663 
Q 1497 2656 1531 2656 
Q 1891 2656 2178 2843 
Q 2466 3031 2466 3422 
Q 2466 3731 2256 3934 
Q 2047 4138 1716 4138 
Q 1388 4138 1169 3931 
Q 950 3725 888 3313 
L 325 3413 
Q 428 3978 793 4289 
Q 1159 4600 1703 4600 
Q 2078 4600 2393 4439 
Q 2709 4278 2876 4000 
Q 3044 3722 3044 3409 
Q 3044 3113 2884 2869 
Q 2725 2625 2413 2481 
Q 2819 2388 3044 2092 
Q 3269 1797 3269 1353 
Q 3269 753 2831 336 
Q 2394 -81 1725 -81 
Q 1122 -81 723 278 
Q 325 638 269 1209 
z
" transform="scale(0.015625)"/>
       </defs>
       <use xlink:href="#ArialMT-16"/>
      </g>
     </g>
    </g>
    <g id="ytick_5">
     <g id="line2d_12">
      <g>
       <use xlink:href="#mf967f3bf2e" x="35.624258" y="136.326585" style="stroke: #000000; stroke-width: 1.5"/>
      </g>
     </g>
     <g id="text_13">
      <!-- 4 -->
      <g transform="translate(24.338945 141.422776) scale(0.14 -0.14)">
       <use xlink:href="#ArialMT-17"/>
      </g>
     </g>
    </g>
    <g id="ytick_6">
     <g id="line2d_13">
      <g>
       <use xlink:href="#mf967f3bf2e" x="35.624258" y="97.755837" style="stroke: #000000; stroke-width: 1.5"/>
      </g>
     </g>
     <g id="text_14">
      <!-- 5 -->
      <g transform="translate(24.338945 102.852028) scale(0.14 -0.14)">
       <defs>
        <path id="ArialMT-18" d="M 266 1200 
L 856 1250 
Q 922 819 1161 601 
Q 1400 384 1738 384 
Q 2144 384 2425 690 
Q 2706 997 2706 1503 
Q 2706 1984 2436 2262 
Q 2166 2541 1728 2541 
Q 1456 2541 1237 2417 
Q 1019 2294 894 2097 
L 366 2166 
L 809 4519 
L 3088 4519 
L 3088 3981 
L 1259 3981 
L 1013 2750 
Q 1425 3038 1878 3038 
Q 2478 3038 2890 2622 
Q 3303 2206 3303 1553 
Q 3303 931 2941 478 
Q 2500 -78 1738 -78 
Q 1113 -78 717 272 
Q 322 622 266 1200 
z
" transform="scale(0.015625)"/>
       </defs>
       <use xlink:href="#ArialMT-18"/>
      </g>
     </g>
    </g>
    <g id="ytick_7">
     <g id="line2d_14">
      <g>
       <use xlink:href="#mf967f3bf2e" x="35.624258" y="59.185089" style="stroke: #000000; stroke-width: 1.5"/>
      </g>
     </g>
     <g id="text_15">
      <!-- 6 -->
      <g transform="translate(24.338945 64.281281) scale(0.14 -0.14)">
       <use xlink:href="#ArialMT-19"/>
      </g>
     </g>
    </g>
    <g id="ytick_8">
     <g id="line2d_15">
      <g>
       <use xlink:href="#mf967f3bf2e" x="35.624258" y="20.614342" style="stroke: #000000; stroke-width: 1.5"/>
      </g>
     </g>
     <g id="text_16">
      <!-- 7 -->
      <g transform="translate(24.338945 25.710533) scale(0.14 -0.14)">
       <defs>
        <path id="ArialMT-1a" d="M 303 3981 
L 303 4522 
L 3269 4522 
L 3269 4084 
Q 2831 3619 2401 2847 
Q 1972 2075 1738 1259 
Q 1569 684 1522 0 
L 944 0 
Q 953 541 1156 1306 
Q 1359 2072 1739 2783 
Q 2119 3494 2547 3981 
L 303 3981 
z
" transform="scale(0.015625)"/>
       </defs>
       <use xlink:href="#ArialMT-1a"/>
      </g>
     </g>
    </g>
    <g id="text_17">
     <!-- Ion Current (m/z 16) -->
     <g transform="translate(17.392383 222.733457) rotate(-90) scale(0.14 -0.14)">
      <defs>
       <path id="ArialMT-2c" d="M 597 0 
L 597 4581 
L 1203 4581 
L 1203 0 
L 597 0 
z
" transform="scale(0.015625)"/>
       <path id="ArialMT-52" d="M 213 1659 
Q 213 2581 725 3025 
Q 1153 3394 1769 3394 
Q 2453 3394 2887 2945 
Q 3322 2497 3322 1706 
Q 3322 1066 3130 698 
Q 2938 331 2570 128 
Q 2203 -75 1769 -75 
Q 1072 -75 642 372 
Q 213 819 213 1659 
z
M 791 1659 
Q 791 1022 1069 705 
Q 1347 388 1769 388 
Q 2188 388 2466 706 
Q 2744 1025 2744 1678 
Q 2744 2294 2464 2611 
Q 2184 2928 1769 2928 
Q 1347 2928 1069 2612 
Q 791 2297 791 1659 
z
" transform="scale(0.015625)"/>
       <path id="ArialMT-51" d="M 422 0 
L 422 3319 
L 928 3319 
L 928 2847 
Q 1294 3394 1984 3394 
Q 2284 3394 2536 3286 
Q 2788 3178 2913 3003 
Q 3038 2828 3088 2588 
Q 3119 2431 3119 2041 
L 3119 0 
L 2556 0 
L 2556 2019 
Q 2556 2363 2490 2533 
Q 2425 2703 2258 2804 
Q 2091 2906 1866 2906 
Q 1506 2906 1245 2678 
Q 984 2450 984 1813 
L 984 0 
L 422 0 
z
" transform="scale(0.015625)"/>
       <path id="ArialMT-12" d="M 0 -78 
L 1328 4659 
L 1778 4659 
L 453 -78 
L 0 -78 
z
" transform="scale(0.015625)"/>
       <path id="ArialMT-5d" d="M 125 0 
L 125 456 
L 2238 2881 
Q 1878 2863 1603 2863 
L 250 2863 
L 250 3319 
L 2963 3319 
L 2963 2947 
L 1166 841 
L 819 456 
Q 1197 484 1528 484 
L 3063 484 
L 3063 0 
L 125 0 
z
" transform="scale(0.015625)"/>
      </defs>
      <use xlink:href="#ArialMT-2c"/>
      <use xlink:href="#ArialMT-52" transform="translate(27.78125 0)"/>
      <use xlink:href="#ArialMT-51" transform="translate(83.390625 0)"/>
      <use xlink:href="#ArialMT-3" transform="translate(139 0)"/>
      <use xlink:href="#ArialMT-26" transform="translate(166.78125 0)"/>
      <use xlink:href="#ArialMT-58" transform="translate(239 0)"/>
      <use xlink:href="#ArialMT-55" transform="translate(294.609375 0)"/>
      <use xlink:href="#ArialMT-55" transform="translate(327.90625 0)"/>
      <use xlink:href="#ArialMT-48" transform="translate(361.203125 0)"/>
      <use xlink:href="#ArialMT-51" transform="translate(416.8125 0)"/>
      <use xlink:href="#ArialMT-57" transform="translate(472.421875 0)"/>
      <use xlink:href="#ArialMT-3" transform="translate(500.203125 0)"/>
      <use xlink:href="#ArialMT-b" transform="translate(527.984375 0)"/>
      <use xlink:href="#ArialMT-50" transform="translate(561.28125 0)"/>
      <use xlink:href="#ArialMT-12" transform="translate(644.578125 0)"/>
      <use xlink:href="#ArialMT-5d" transform="translate(672.359375 0)"/>
      <use xlink:href="#ArialMT-3" transform="translate(722.359375 0)"/>
      <use xlink:href="#ArialMT-14" transform="translate(750.140625 0)"/>
      <use xlink:href="#ArialMT-19" transform="translate(805.75 0)"/>
      <use xlink:href="#ArialMT-c" transform="translate(861.359375 0)"/>
     </g>
    </g>
    <g id="text_18">
     <!-- 1e−11 -->
     <g transform="translate(35.624258 17.392383) scale(0.14 -0.14)">
      <defs>
       <path id="ArialMT-ed" d="M 3381 1997 
L 356 1997 
L 356 2522 
L 3381 2522 
L 3381 1997 
z
" transform="scale(0.015625)"/>
      </defs>
      <use xlink:href="#ArialMT-14"/>
      <use xlink:href="#ArialMT-48" transform="translate(55.609375 0)"/>
      <use xlink:href="#ArialMT-ed" transform="translate(111.21875 0)"/>
      <use xlink:href="#ArialMT-14" transform="translate(169.625 0)"/>
      <use xlink:href="#ArialMT-14" transform="translate(217.8125 0)"/>
     </g>
    </g>
   </g>
   <g id="line2d_16">
    <path d="M 55.095204 285.421658 
L 55.062644 286.913925 
L 55.127764 286.586606 
L 55.844087 286.491975 
L 57.537212 286.449728 
L 59.88154 286.657827 
L 64.081795 286.519969 
L 68.151808 286.725445 
L 71.733421 286.190603 
L 73.035825 286.151147 
L 74.338229 286.312007 
L 75.770874 286.202161 
L 77.170959 286.440837 
L 78.505924 286.480071 
L 81.143293 286.7808 
L 83.617861 286.776315 
L 89.934522 286.368834 
L 91.204367 286.117707 
L 93.776615 286.355262 
L 100.158397 286.767354 
L 101.428241 286.553051 
L 107.810023 286.787619 
L 109.047307 286.667048 
L 112.8894 286.568824 
L 115.429089 286.473729 
L 118.033898 286.421034 
L 119.336302 286.38318 
L 120.638707 286.505315 
L 121.875991 286.470525 
L 125.652964 286.740159 
L 126.922808 286.676843 
L 129.527617 286.828892 
L 134.574434 286.874157 
L 137.081563 286.724105 
L 139.621251 286.732065 
L 140.891096 287.05462 
L 142.16094 286.942207 
L 144.700629 287.016274 
L 148.542722 286.877563 
L 156.226908 286.875564 
L 158.701476 286.708391 
L 160.003881 286.843625 
L 165.050698 286.87852 
L 167.655507 287.074376 
L 170.260315 286.877647 
L 172.800004 287.070635 
L 174.037288 286.83411 
L 177.846821 286.516743 
L 180.35395 286.43971 
L 181.623794 286.33453 
L 185.433327 286.841575 
L 186.638051 286.756553 
L 189.2103 286.889678 
L 196.796806 286.293861 
L 201.908743 286.560694 
L 203.146027 286.495812 
L 205.718276 286.600747 
L 206.95556 286.657757 
L 209.495249 286.270943 
L 213.272222 286.398175 
L 219.621443 287.090708 
L 220.793607 287.12128 
L 223.268176 286.855932 
L 224.57058 286.90002 
L 230.919802 286.479051 
L 239.873832 286.875129 
L 241.111116 286.905538 
L 244.920649 286.632507 
L 246.223054 286.707467 
L 248.730182 286.51669 
L 252.572275 286.963254 
L 253.809559 286.9726 
L 256.414368 286.610436 
L 258.888937 286.661831 
L 262.69847 286.418065 
L 265.335839 286.404435 
L 266.605683 286.402171 
L 267.842967 286.228831 
L 269.145372 286.323391 
L 270.382656 286.590577 
L 278.034282 286.662745 
L 280.57397 286.563152 
L 283.081099 286.648153 
L 293.207293 286.591792 
L 297.016826 286.867855 
L 299.491395 286.91356 
L 300.793799 286.990003 
L 302.063643 286.72844 
L 303.300928 286.671793 
L 304.570772 286.413619 
L 308.380305 286.371313 
L 310.854873 286.50079 
L 313.459682 286.943041 
L 318.473939 286.925371 
L 322.250912 286.456071 
L 327.362849 286.669171 
L 330.32582 286.689813 
L 331.595664 286.706678 
L 332.898068 286.835768 
L 340.419454 286.828794 
L 344.326667 286.381578 
L 345.563951 286.50755 
L 346.768675 286.477399 
L 348.07108 286.662454 
L 349.406044 286.4772 
L 354.387741 286.780368 
L 360.704403 286.440043 
L 362.071927 286.06886 
L 367.248985 285.970657 
L 372.133002 285.719686 
L 374.57501 285.476245 
L 375.844854 285.547453 
L 378.384543 285.122746 
L 382.128956 284.207316 
L 383.43136 283.777387 
L 384.603524 283.674219 
L 388.575858 282.574994 
L 391.148106 281.136541 
L 392.22259 280.219093 
L 393.980836 279.204049 
L 395.3158 277.883127 
L 396.683325 276.767989 
L 400.492858 271.853351 
L 402.902306 267.165888 
L 405.474555 260.455777 
L 409.381768 246.707149 
L 410.586492 241.143672 
L 412.96338 228.268951 
L 414.330905 220.284185 
L 415.503069 209.323515 
L 416.935714 197.480026 
L 418.270678 184.433762 
L 419.312602 168.971871 
L 420.745247 152.094682 
L 421.852291 133.643999 
L 423.187255 113.646494 
L 424.48966 92.128837 
L 425.531583 69.117699 
L 425.531583 69.117699 
" clip-path="url(#paaf2638c9e)" style="fill: none; stroke: #000000; stroke-width: 2.5; stroke-linecap: square"/>
   </g>
   <g id="line2d_17">
    <path d="M 46.857496 283.648407 
L 46.857496 284.053505 
L 46.857496 283.923389 
L 47.020297 283.858007 
L 47.704059 283.78309 
L 51.806633 283.730499 
L 54.05328 284.044391 
L 61.053704 284.089905 
L 62.323549 284.017342 
L 63.625953 283.737674 
L 66.165642 283.810433 
L 67.468046 283.939119 
L 68.64021 283.720647 
L 71.245019 283.810243 
L 75.249913 284.282524 
L 76.552317 284.181526 
L 79.319926 284.314461 
L 80.52465 284.24445 
L 84.366743 283.768455 
L 85.571468 283.678174 
L 94.558058 283.913373 
L 98.335031 283.630276 
L 100.90728 283.586432 
L 102.242244 283.462382 
L 109.82875 283.574091 
L 111.163715 283.698481 
L 114.940687 283.31174 
L 118.78278 283.465592 
L 120.020065 283.663433 
L 121.355029 283.731939 
L 122.657434 283.973652 
L 123.894718 284.06516 
L 126.336726 283.53226 
L 128.908975 283.391068 
L 132.751068 282.449602 
L 135.323317 282.188138 
L 136.528041 282.170977 
L 139.10029 281.897034 
L 140.305014 281.988316 
L 141.672538 281.964485 
L 144.277347 281.541372 
L 145.482071 281.221168 
L 146.751916 281.146216 
L 148.02176 280.861199 
L 150.561449 280.5655 
L 151.863853 280.333502 
L 153.166257 280.221701 
L 154.403542 279.66734 
L 155.705946 279.518704 
L 156.91067 278.825973 
L 158.115394 278.493758 
L 159.450359 278.323519 
L 160.720203 277.804346 
L 161.957487 277.492235 
L 164.497176 276.51766 
L 167.134545 274.365088 
L 169.609113 272.821595 
L 170.911518 272.374479 
L 172.116242 272.310346 
L 173.516327 271.778251 
L 178.498023 271.143636 
L 179.767868 271.379637 
L 181.102832 271.393726 
L 182.340117 271.684538 
L 186.117089 273.20216 
L 187.419494 273.915856 
L 188.721898 274.427552 
L 191.196467 275.967791 
L 192.466311 276.530675 
L 193.768715 276.60662 
L 195.07112 276.884715 
L 196.275844 277.380824 
L 197.578248 277.483367 
L 198.815533 277.905856 
L 200.085377 278.006529 
L 201.355221 278.427097 
L 202.625065 278.979718 
L 203.797229 279.224483 
L 206.369478 279.283775 
L 207.671883 279.195515 
L 208.909167 279.352131 
L 210.211571 279.252476 
L 211.481416 279.348328 
L 212.7187 279.19691 
L 213.955984 279.846964 
L 215.225828 280.365668 
L 216.495673 280.652435 
L 217.732957 280.758244 
L 219.067921 281.068184 
L 220.305206 280.836537 
L 221.57505 280.941684 
L 222.877454 280.701568 
L 224.082178 280.614198 
L 225.417143 280.385851 
L 226.686987 280.641141 
L 227.891711 280.998271 
L 230.39884 281.187839 
L 231.668684 281.46564 
L 234.175813 281.011035 
L 235.510777 280.823158 
L 236.780622 280.816555 
L 239.32031 280.542853 
L 240.557594 280.703891 
L 243.129843 280.786032 
L 246.906816 280.315961 
L 249.446505 280.836114 
L 250.748909 280.808524 
L 255.763166 281.294457 
L 257.098131 281.300922 
L 259.572699 281.675064 
L 260.842543 281.943117 
L 263.447352 281.920981 
L 267.322005 281.565383 
L 268.59185 281.732631 
L 271.164098 281.708148 
L 273.638667 282.082312 
L 278.718044 282.579379 
L 279.987888 282.500182 
L 281.257733 282.621312 
L 282.560137 282.522425 
L 285.034706 282.695282 
L 286.33711 282.952133 
L 288.811678 283.045476 
L 290.114083 283.419963 
L 291.416487 283.195943 
L 292.621211 283.405019 
L 295.22602 283.249684 
L 296.430744 283.236519 
L 297.700589 283.027838 
L 298.970433 283.136526 
L 303.98469 282.996174 
L 305.287094 283.286344 
L 306.556939 283.130757 
L 307.794223 283.277422 
L 309.064067 283.30055 
L 310.301351 283.203336 
L 312.84104 283.316157 
L 315.413289 283.046021 
L 316.683133 283.230457 
L 319.157702 283.075442 
L 320.460106 283.157769 
L 322.934674 283.047093 
L 324.269639 283.022128 
L 325.506923 282.719831 
L 326.744207 282.577883 
L 328.307093 282.265308 
L 329.707177 282.250125 
L 334.819115 281.672375 
L 337.391364 281.716701 
L 338.596088 281.886938 
L 339.931052 282.227117 
L 343.708025 282.607931 
L 345.010429 282.531609 
L 346.280274 282.598329 
L 348.852523 282.534412 
L 352.596935 282.802348 
L 355.104064 282.683599 
L 356.439028 282.478403 
L 358.946157 282.772899 
L 361.453285 282.638237 
L 362.658009 282.39997 
L 365.197698 282.258382 
L 366.565223 282.015824 
L 369.104911 281.941995 
L 370.309635 282.154372 
L 372.784204 282.067637 
L 375.258772 282.091274 
L 376.626297 282.08964 
L 377.896141 281.957602 
L 388.022336 279.129807 
L 389.16194 278.580492 
L 391.799309 276.873691 
L 393.199393 275.783217 
L 394.697158 274.905958 
L 397.334527 272.437786 
L 399.809096 269.297138 
L 401.1115 267.631981 
L 402.348784 265.533954 
L 404.986153 259.747621 
L 406.093197 256.154349 
L 407.493282 252.116756 
L 408.730566 247.61947 
L 409.77249 242.943238 
L 411.205134 237.395101 
L 412.474979 230.824142 
L 413.809943 223.234057 
L 414.982107 215.079654 
L 417.554356 192.859266 
L 418.889321 178.822147 
L 421.363889 146.278839 
L 422.470933 127.665609 
L 424.001258 107.545309 
L 425.173422 85.958424 
L 425.173422 85.958424 
" clip-path="url(#paaf2638c9e)" style="fill: none; stroke: #1f77b4; stroke-width: 2.5; stroke-linecap: square"/>
   </g>
   <g id="line2d_18">
    <path d="M 46.662135 283.0571 
L 46.662135 283.81267 
L 47.411018 283.967552 
L 48.908783 283.846386 
L 51.220551 284.093028 
L 58.546576 283.817005 
L 64.537636 284.263593 
L 65.840041 284.256695 
L 69.649573 283.993162 
L 72.221822 283.929565 
L 78.994325 284.314723 
L 80.26417 284.398175 
L 84.073703 284.130216 
L 85.343547 283.861798 
L 95.567422 283.853104 
L 96.837266 284.094174 
L 98.10711 283.949877 
L 100.581679 284.306979 
L 103.153927 284.367332 
L 106.99602 283.698882 
L 108.233305 283.630406 
L 109.503149 283.681532 
L 110.740433 283.345171 
L 111.977717 283.272062 
L 113.312682 283.484966 
L 114.549966 283.405746 
L 115.81981 283.182927 
L 122.299272 283.074618 
L 124.838961 282.56159 
L 126.108805 282.503483 
L 127.41121 282.269975 
L 128.648494 282.207631 
L 134.965155 282.527498 
L 140.109653 282.060321 
L 141.444618 282.291474 
L 143.951746 282.343079 
L 145.15647 282.199727 
L 146.491435 282.190779 
L 149.031123 282.375427 
L 151.570812 282.241168 
L 155.347785 281.649056 
L 156.552509 281.032832 
L 157.854913 280.755555 
L 159.124758 280.292719 
L 160.362042 280.13604 
L 161.664446 280.195193 
L 162.966851 279.967047 
L 164.204135 279.879283 
L 165.441419 279.405684 
L 166.743824 279.032357 
L 169.348632 277.963006 
L 170.716157 278.000672 
L 173.158165 277.560993 
L 174.42801 277.655649 
L 175.697854 277.417274 
L 179.539947 277.573594 
L 180.777231 277.710194 
L 181.981955 278.088583 
L 183.2518 278.673935 
L 184.554204 278.918421 
L 189.601021 279.147354 
L 192.17327 279.731683 
L 193.410554 280.188419 
L 197.252647 280.965315 
L 198.489931 281.338747 
L 199.759776 281.404685 
L 202.299464 281.028247 
L 206.076437 281.505858 
L 207.346282 281.207523 
L 209.91853 281.190065 
L 211.188375 281.50304 
L 212.425659 281.606597 
L 213.695503 281.46407 
L 214.965347 281.708067 
L 216.202632 282.22128 
L 218.77488 282.614655 
L 220.044725 282.454603 
L 221.282009 282.581684 
L 225.091542 282.508983 
L 226.328826 282.274583 
L 227.63123 282.498347 
L 231.375643 282.136796 
L 232.743168 282.080333 
L 233.980452 282.342437 
L 239.027269 282.503843 
L 240.297114 282.711667 
L 241.534398 282.569537 
L 244.139207 282.505032 
L 246.613775 283.014365 
L 251.758272 283.014396 
L 256.83765 282.372799 
L 259.312218 282.470104 
L 261.851907 282.417765 
L 263.154311 282.374473 
L 267.094085 282.74329 
L 269.633773 282.244762 
L 270.871057 282.21538 
L 272.075782 282.042733 
L 273.378186 282.002157 
L 275.917875 282.188583 
L 278.392443 282.919473 
L 279.694847 283.085755 
L 280.964692 282.890105 
L 288.551198 282.934798 
L 292.425851 283.319295 
L 293.598015 283.147363 
L 297.407548 283.094405 
L 299.947236 282.624364 
L 303.724209 282.924578 
L 304.994053 282.820692 
L 308.738466 283.334519 
L 311.343275 283.187735 
L 312.613119 283.01559 
L 313.817843 283.031176 
L 315.087688 282.759662 
L 316.357532 282.612397 
L 317.627376 282.33976 
L 318.897221 282.518868 
L 322.739314 282.447128 
L 323.976598 282.601908 
L 325.246442 282.431858 
L 326.483726 282.41905 
L 329.381576 282.236498 
L 331.986385 282.492952 
L 337.130883 282.820064 
L 338.400727 282.564161 
L 340.907856 282.700681 
L 342.21026 282.748097 
L 345.922113 283.452607 
L 348.461801 283.60372 
L 349.796766 283.570349 
L 351.03405 283.284 
L 352.206214 283.292102 
L 354.811023 282.985405 
L 356.080867 283.050783 
L 358.522875 282.787897 
L 359.8904 282.907936 
L 361.160244 282.844353 
L 362.397529 283.051695 
L 363.699933 282.899341 
L 366.239622 283.083254 
L 367.476906 282.981144 
L 368.71419 283.003772 
L 370.114275 282.650398 
L 371.318999 282.476044 
L 372.588843 282.645724 
L 373.793567 282.254345 
L 375.030852 282.361049 
L 377.63566 281.897046 
L 378.938065 281.76023 
L 382.682478 281.087283 
L 385.026805 280.537134 
L 388.901459 278.720709 
L 395.739082 275.190781 
L 398.343891 272.785573 
L 399.548615 270.792549 
L 400.851019 268.085212 
L 404.660552 259.167221 
L 405.930397 256.02023 
L 407.07 252.130347 
L 408.437525 248.944688 
L 409.577129 244.929682 
L 410.912093 238.623505 
L 412.279618 231.219549 
L 413.484342 223.629115 
L 414.623946 214.036825 
L 416.024031 204.707885 
L 417.163635 192.481749 
L 418.531159 179.542616 
L 419.801004 164.329066 
L 421.103408 147.334234 
L 422.308132 127.430211 
L 423.610537 104.066586 
L 424.978061 76.692948 
L 425.857184 44.758885 
L 425.857184 44.758885 
" clip-path="url(#paaf2638c9e)" style="fill: none; stroke: #0033ff; stroke-width: 2.5; stroke-linecap: square"/>
   </g>
   <g id="line2d_19">
    <path d="M 44.708529 280.318993 
L 44.741089 281.012047 
L 44.773649 280.455887 
L 45.392291 280.633916 
L 46.955176 280.968022 
L 49.201824 281.289175 
L 51.578712 281.287729 
L 55.258005 281.653772 
L 57.797693 281.572873 
L 61.411865 281.219436 
L 62.68171 281.391383 
L 67.793647 281.22797 
L 70.268216 281.386986 
L 71.57062 281.707655 
L 72.807904 281.631171 
L 75.575514 281.933191 
L 79.612967 281.763212 
L 84.692345 282.200711 
L 85.994749 282.059082 
L 88.566998 282.200516 
L 89.804282 282.065152 
L 92.343971 282.349849 
L 93.613815 282.160021 
L 94.916219 282.242382 
L 96.186064 282.062612 
L 97.423348 281.66367 
L 99.995597 281.599262 
L 101.265441 281.690399 
L 102.470165 281.55311 
L 103.740009 281.73301 
L 107.582102 281.91501 
L 111.391635 281.552271 
L 112.596359 281.508332 
L 113.931324 281.585171 
L 116.405892 281.338895 
L 119.108382 281.042372 
L 120.378226 280.880069 
L 122.885354 280.265035 
L 125.425043 280.170377 
L 128.029852 280.570179 
L 129.299696 280.593141 
L 130.569541 280.317359 
L 131.839385 280.597779 
L 133.076669 280.607718 
L 135.616358 280.080724 
L 139.491011 279.503452 
L 140.728295 279.529439 
L 143.267984 279.338535 
L 144.570388 279.398656 
L 145.840232 279.121063 
L 149.552085 277.757374 
L 150.88705 276.926353 
L 154.631462 275.637748 
L 162.250528 272.085948 
L 163.552933 271.708998 
L 167.329906 270.30022 
L 168.66487 269.508698 
L 169.967274 269.06953 
L 171.204559 268.79679 
L 172.441843 268.233567 
L 173.711687 267.427805 
L 175.014092 266.387427 
L 176.316496 266.163006 
L 177.48866 265.347487 
L 178.725944 265.280225 
L 180.060909 265.095062 
L 181.330753 265.145453 
L 182.535477 265.374264 
L 185.140286 266.189773 
L 187.679975 266.469118 
L 188.949819 267.029532 
L 190.187103 267.389158 
L 191.522068 268.053415 
L 192.791912 268.303376 
L 194.061756 269.079395 
L 195.331601 269.556686 
L 196.601445 270.287933 
L 197.838729 271.307103 
L 199.141134 271.990724 
L 201.680822 273.609492 
L 202.918106 273.81172 
L 204.122831 274.175227 
L 205.392675 274.13451 
L 207.964924 274.451477 
L 209.234768 274.746657 
L 211.774457 274.874436 
L 214.281585 275.782188 
L 215.551429 275.794187 
L 216.853834 276.145095 
L 218.123678 276.123215 
L 219.360962 276.342086 
L 220.630807 276.750226 
L 221.900651 276.954447 
L 224.40778 276.851794 
L 226.947468 277.204859 
L 229.487157 277.315943 
L 230.757001 277.108046 
L 231.961725 277.029453 
L 233.26413 277.278209 
L 234.533974 277.304813 
L 235.836378 277.61583 
L 239.613351 277.407606 
L 240.883196 277.105229 
L 242.15304 276.94411 
L 244.692728 276.977506 
L 247.232417 277.578852 
L 248.469701 277.362896 
L 251.00939 276.694515 
L 252.279234 276.93197 
L 253.581639 275.664628 
L 254.884043 274.965508 
L 256.121327 274.726551 
L 257.358612 274.619869 
L 258.661016 275.183879 
L 261.168144 275.94781 
L 262.470549 276.55535 
L 263.805513 277.426984 
L 265.075358 278.415141 
L 266.345202 277.795653 
L 270.187295 278.535311 
L 271.457139 278.939639 
L 272.694424 278.954083 
L 273.964268 279.287416 
L 275.234112 279.29298 
L 276.471396 279.670298 
L 277.741241 279.708359 
L 279.043645 279.418962 
L 281.583334 279.257585 
L 282.853178 279.097474 
L 284.123023 279.171744 
L 285.392867 279.054736 
L 287.899995 279.476478 
L 291.742088 279.107423 
L 292.946812 279.266748 
L 295.486501 279.359439 
L 296.756345 279.752869 
L 297.99363 279.956259 
L 299.263474 280.478807 
L 300.533318 280.599608 
L 301.803163 280.191993 
L 303.105567 280.229217 
L 306.88254 279.569565 
L 308.152384 279.41219 
L 310.659513 279.73807 
L 311.896797 280.24902 
L 314.469046 280.512903 
L 315.70633 280.718143 
L 318.213458 280.659433 
L 319.418182 280.9229 
L 320.753147 280.75357 
L 322.022991 280.713337 
L 323.292836 280.54819 
L 324.49756 280.736427 
L 327.134929 280.779587 
L 328.632694 280.609041 
L 331.367743 280.678612 
L 332.637587 280.879214 
L 333.939992 280.686893 
L 335.209836 280.760034 
L 336.47968 280.709344 
L 337.651844 280.858242 
L 340.256653 280.798693 
L 341.461377 280.628235 
L 342.828902 280.633069 
L 344.033626 280.450089 
L 350.317728 280.470501 
L 355.397105 280.516113 
L 356.699509 280.19925 
L 357.936793 280.077171 
L 360.411362 279.177122 
L 364.253455 277.565655 
L 366.858264 277.031523 
L 368.030428 276.987638 
L 370.700357 277.544442 
L 373.240045 278.394234 
L 374.379649 278.929006 
L 376.951898 279.543573 
L 378.189182 279.851555 
L 380.761431 279.584865 
L 381.933595 279.367346 
L 385.678008 278.155934 
L 387.012972 277.786121 
L 389.487541 276.79294 
L 392.027229 275.571532 
L 395.022759 273.696102 
L 397.497328 270.779425 
L 398.864853 269.38667 
L 401.437101 265.427632 
L 402.739506 263.254463 
L 405.279194 257.008963 
L 406.386238 253.0593 
L 407.753763 249.124788 
L 408.925927 243.597209 
L 410.358572 237.483519 
L 414.102984 214.620297 
L 415.210028 204.909095 
L 416.740353 193.752443 
L 417.814837 181.11895 
L 419.182362 167.288307 
L 420.387086 151.298211 
L 421.59181 132.440215 
L 422.861654 110.146587 
L 424.229179 83.849591 
L 425.401343 52.981492 
L 425.401343 52.981492 
" clip-path="url(#paaf2638c9e)" style="fill: none; stroke: #ff7f0e; stroke-width: 2.5; stroke-linecap: square"/>
   </g>
   <g id="line2d_20">
    <path d="M 55.127764 284.405869 
L 55.062644 283.907128 
L 55.127764 284.593762 
L 55.746406 284.498211 
L 57.374412 284.372365 
L 64.081795 284.419775 
L 65.67724 284.285033 
L 70.593817 284.539678 
L 74.43591 284.513526 
L 75.770874 284.621941 
L 77.138399 284.484105 
L 78.473363 284.595973 
L 79.775768 284.889336 
L 82.315457 284.9744 
L 84.855145 284.909193 
L 86.15755 284.995206 
L 87.459954 284.955188 
L 88.729798 285.032217 
L 89.934522 284.891258 
L 92.506771 284.977901 
L 96.316304 284.554461 
L 97.683829 284.476337 
L 98.953673 284.543232 
L 100.223517 284.475219 
L 102.698086 284.641086 
L 103.96793 284.781921 
L 105.302895 284.747106 
L 109.079868 284.197843 
L 110.382272 283.833117 
L 111.619556 283.695684 
L 112.85684 283.679226 
L 114.159245 283.502361 
L 116.731494 283.402667 
L 118.066458 283.262224 
L 119.368862 283.006038 
L 120.671267 283.045282 
L 123.145835 282.572004 
L 124.41568 282.544562 
L 128.225213 281.795019 
L 129.495057 281.499049 
L 130.764901 280.98149 
L 132.002185 280.627101 
L 133.27203 280.621794 
L 135.876839 279.900797 
L 137.146683 279.524175 
L 138.416527 278.890861 
L 139.718932 278.42117 
L 143.528465 276.097498 
L 147.272877 275.608877 
L 148.575282 275.480055 
L 149.845126 275.574789 
L 151.14753 275.367605 
L 153.654659 273.90333 
L 156.194348 272.03146 
L 157.431632 271.178049 
L 158.734036 270.053848 
L 160.036441 269.112214 
L 161.371405 268.374412 
L 162.576129 267.564899 
L 163.813414 266.916269 
L 165.083258 265.976062 
L 166.385662 265.228528 
L 168.990471 264.145684 
L 171.46504 263.575015 
L 175.307133 261.863836 
L 176.609537 261.629308 
L 177.814261 261.257789 
L 179.084105 261.053822 
L 181.591234 261.594472 
L 182.893638 262.094257 
L 184.163483 263.057893 
L 186.670611 264.493212 
L 189.2103 265.834263 
L 191.782549 266.810984 
L 193.052393 267.109439 
L 194.289677 267.65639 
L 195.559521 267.916023 
L 198.09921 269.290191 
L 201.908743 270.169316 
L 203.178587 270.417919 
L 204.415872 270.517354 
L 205.685716 270.8868 
L 206.923 271.409059 
L 210.765093 272.371915 
L 213.304782 272.723753 
L 215.84447 273.622116 
L 217.081755 273.764643 
L 218.351599 274.143573 
L 219.588883 274.359753 
L 220.858727 274.371135 
L 224.6357 273.548559 
L 225.905545 273.523959 
L 229.715078 273.858755 
L 230.984922 274.223096 
L 232.254766 274.250797 
L 233.49205 273.908419 
L 235.966619 273.725791 
L 237.236463 273.458591 
L 238.603988 273.495283 
L 239.841272 273.015831 
L 241.111116 272.924167 
L 242.348401 273.180874 
L 243.650805 273.30061 
L 244.920649 273.274167 
L 246.288174 272.924118 
L 253.84212 272.986174 
L 255.144524 273.291281 
L 256.349248 273.394939 
L 257.651653 273.363463 
L 258.954057 273.031915 
L 260.126221 272.869765 
L 261.396065 272.545882 
L 262.73103 272.445268 
L 264.033434 272.0477 
L 265.368399 272.177648 
L 266.605683 272.169761 
L 267.908087 272.293072 
L 269.145372 272.648098 
L 271.75018 273.118553 
L 272.954905 273.219782 
L 275.462033 272.931483 
L 276.796998 272.939795 
L 278.001722 273.109512 
L 280.606531 273.076064 
L 281.876375 273.35322 
L 283.081099 273.291304 
L 284.416063 273.68564 
L 289.39776 273.588852 
L 291.937449 273.127599 
L 294.509698 272.566769 
L 295.746982 272.091272 
L 297.049386 271.959725 
L 298.286671 271.444803 
L 300.826359 271.423634 
L 302.063643 271.261816 
L 303.300928 270.987225 
L 304.635892 270.862604 
L 305.840616 270.531809 
L 308.380305 270.078794 
L 313.492242 268.223226 
L 314.696966 267.786113 
L 317.236655 266.16129 
L 318.506499 265.401144 
L 319.808904 264.754343 
L 321.046188 264.287082 
L 322.283472 263.663351 
L 323.553317 263.157655 
L 324.823161 262.048032 
L 326.027885 261.649009 
L 327.362849 261.476992 
L 328.958295 260.760374 
L 330.228139 259.993401 
L 331.628224 259.354557 
L 332.898068 258.284075 
L 335.437757 257.076488 
L 336.740161 256.900028 
L 337.912325 256.575419 
L 339.24729 257.249472 
L 341.689298 256.622858 
L 343.024263 256.319148 
L 345.563951 255.334033 
L 346.833796 255.303944 
L 348.00596 255.391813 
L 349.340924 255.917012 
L 350.675889 256.921028 
L 351.815493 258.240018 
L 353.150457 258.81634 
L 355.690146 260.656643 
L 356.95999 261.163727 
L 358.229834 262.239597 
L 359.532239 262.95043 
L 360.704403 263.796223 
L 363.244091 266.075423 
L 364.579056 267.468621 
L 365.946581 267.967128 
L 368.290909 269.498169 
L 370.895717 270.67955 
L 372.165562 270.804512 
L 374.70525 271.794145 
L 375.877414 271.95993 
L 377.114699 272.281417 
L 378.384543 271.900608 
L 381.021912 272.42817 
L 382.226636 272.742576 
L 384.733764 273.031224 
L 386.101289 273.200217 
L 388.510737 272.794005 
L 389.780582 272.328171 
L 391.148106 271.687098 
L 392.385391 270.747379 
L 393.850595 270.10141 
L 396.618205 268.045624 
L 397.888049 266.21185 
L 401.665022 260.110338 
L 402.902306 257.763823 
L 405.539675 251.675633 
L 406.80952 247.846912 
L 408.014244 243.072007 
L 410.521372 231.182925 
L 411.856337 224.413202 
L 414.363465 207.703747 
L 415.63331 197.708456 
L 418.238118 172.030153 
L 419.442842 155.74229 
L 421.949971 115.150739 
L 424.55478 63.454086 
L 425.564143 33.093759 
L 425.564143 33.093759 
" clip-path="url(#paaf2638c9e)" style="fill: none; stroke: #ff0000; stroke-width: 2.5; stroke-linecap: square"/>
   </g>
   <g id="patch_3">
    <path d="M 35.624258 299.822656 
L 35.624258 20.392383 
" style="fill: none; stroke: #000000; stroke-width: 1.5; stroke-linejoin: miter; stroke-linecap: square"/>
   </g>
   <g id="patch_4">
    <path d="M 35.624258 299.822656 
L 426.345586 299.822656 
" style="fill: none; stroke: #000000; stroke-width: 1.5; stroke-linejoin: miter; stroke-linecap: square"/>
   </g>
   <g id="legend_1">
    <g id="line2d_21">
     <path d="M 46.424258 35.728711 
L 58.424258 35.728711 
L 70.424258 35.728711 
" style="fill: none; stroke: #000000; stroke-width: 2.5; stroke-linecap: square"/>
    </g>
    <g id="text_19">
     <!-- vacuum -->
     <g transform="translate(80.024258 39.928711) scale(0.12 -0.12)">
      <defs>
       <path id="ArialMT-59" d="M 1344 0 
L 81 3319 
L 675 3319 
L 1388 1331 
Q 1503 1009 1600 663 
Q 1675 925 1809 1294 
L 2547 3319 
L 3125 3319 
L 1869 0 
L 1344 0 
z
" transform="scale(0.015625)"/>
       <path id="ArialMT-46" d="M 2588 1216 
L 3141 1144 
Q 3050 572 2676 248 
Q 2303 -75 1759 -75 
Q 1078 -75 664 370 
Q 250 816 250 1647 
Q 250 2184 428 2587 
Q 606 2991 970 3192 
Q 1334 3394 1763 3394 
Q 2303 3394 2647 3120 
Q 2991 2847 3088 2344 
L 2541 2259 
Q 2463 2594 2264 2762 
Q 2066 2931 1784 2931 
Q 1359 2931 1093 2626 
Q 828 2322 828 1663 
Q 828 994 1084 691 
Q 1341 388 1753 388 
Q 2084 388 2306 591 
Q 2528 794 2588 1216 
z
" transform="scale(0.015625)"/>
      </defs>
      <use xlink:href="#ArialMT-59"/>
      <use xlink:href="#ArialMT-44" transform="translate(50 0)"/>
      <use xlink:href="#ArialMT-46" transform="translate(105.609375 0)"/>
      <use xlink:href="#ArialMT-58" transform="translate(155.609375 0)"/>
      <use xlink:href="#ArialMT-58" transform="translate(211.21875 0)"/>
      <use xlink:href="#ArialMT-50" transform="translate(266.828125 0)"/>
     </g>
    </g>
    <g id="line2d_22">
     <path d="M 46.424258 52.99043 
L 58.424258 52.99043 
L 70.424258 52.99043 
" style="fill: none; stroke: #1f77b4; stroke-width: 2.5; stroke-linecap: square"/>
    </g>
    <g id="text_20">
     <!-- 1h -->
     <g transform="translate(80.024258 57.19043) scale(0.12 -0.12)">
      <defs>
       <path id="ArialMT-4b" d="M 422 0 
L 422 4581 
L 984 4581 
L 984 2938 
Q 1378 3394 1978 3394 
Q 2347 3394 2619 3248 
Q 2891 3103 3008 2847 
Q 3125 2591 3125 2103 
L 3125 0 
L 2563 0 
L 2563 2103 
Q 2563 2525 2380 2717 
Q 2197 2909 1863 2909 
Q 1613 2909 1392 2779 
Q 1172 2650 1078 2428 
Q 984 2206 984 1816 
L 984 0 
L 422 0 
z
" transform="scale(0.015625)"/>
      </defs>
      <use xlink:href="#ArialMT-14"/>
      <use xlink:href="#ArialMT-4b" transform="translate(55.609375 0)"/>
     </g>
    </g>
    <g id="line2d_23">
     <path d="M 46.424258 70.252148 
L 58.424258 70.252148 
L 70.424258 70.252148 
" style="fill: none; stroke: #0033ff; stroke-width: 2.5; stroke-linecap: square"/>
    </g>
    <g id="text_21">
     <!-- 2h -->
     <g transform="translate(80.024258 74.452148) scale(0.12 -0.12)">
      <use xlink:href="#ArialMT-15"/>
      <use xlink:href="#ArialMT-4b" transform="translate(55.609375 0)"/>
     </g>
    </g>
    <g id="line2d_24">
     <path d="M 46.424258 87.513867 
L 58.424258 87.513867 
L 70.424258 87.513867 
" style="fill: none; stroke: #ff7f0e; stroke-width: 2.5; stroke-linecap: square"/>
    </g>
    <g id="text_22">
     <!-- 4h -->
     <g transform="translate(80.024258 91.713867) scale(0.12 -0.12)">
      <use xlink:href="#ArialMT-17"/>
      <use xlink:href="#ArialMT-4b" transform="translate(55.609375 0)"/>
     </g>
    </g>
    <g id="line2d_25">
     <path d="M 46.424258 104.775586 
L 58.424258 104.775586 
L 70.424258 104.775586 
" style="fill: none; stroke: #ff0000; stroke-width: 2.5; stroke-linecap: square"/>
    </g>
    <g id="text_23">
     <!-- first -->
     <g transform="translate(80.024258 108.975586) scale(0.12 -0.12)">
      <defs>
       <path id="ArialMT-49" d="M 556 0 
L 556 2881 
L 59 2881 
L 59 3319 
L 556 3319 
L 556 3672 
Q 556 4006 616 4169 
Q 697 4388 901 4523 
Q 1106 4659 1475 4659 
Q 1713 4659 2000 4603 
L 1916 4113 
Q 1741 4144 1584 4144 
Q 1328 4144 1222 4034 
Q 1116 3925 1116 3625 
L 1116 3319 
L 1763 3319 
L 1763 2881 
L 1116 2881 
L 1116 0 
L 556 0 
z
" transform="scale(0.015625)"/>
       <path id="ArialMT-4c" d="M 425 3934 
L 425 4581 
L 988 4581 
L 988 3934 
L 425 3934 
z
M 425 0 
L 425 3319 
L 988 3319 
L 988 0 
L 425 0 
z
" transform="scale(0.015625)"/>
       <path id="ArialMT-56" d="M 197 991 
L 753 1078 
Q 800 744 1014 566 
Q 1228 388 1613 388 
Q 2000 388 2187 545 
Q 2375 703 2375 916 
Q 2375 1106 2209 1216 
Q 2094 1291 1634 1406 
Q 1016 1563 777 1677 
Q 538 1791 414 1992 
Q 291 2194 291 2438 
Q 291 2659 392 2848 
Q 494 3038 669 3163 
Q 800 3259 1026 3326 
Q 1253 3394 1513 3394 
Q 1903 3394 2198 3281 
Q 2494 3169 2634 2976 
Q 2775 2784 2828 2463 
L 2278 2388 
Q 2241 2644 2061 2787 
Q 1881 2931 1553 2931 
Q 1166 2931 1000 2803 
Q 834 2675 834 2503 
Q 834 2394 903 2306 
Q 972 2216 1119 2156 
Q 1203 2125 1616 2013 
Q 2213 1853 2448 1751 
Q 2684 1650 2818 1456 
Q 2953 1263 2953 975 
Q 2953 694 2789 445 
Q 2625 197 2315 61 
Q 2006 -75 1616 -75 
Q 969 -75 630 194 
Q 291 463 197 991 
z
" transform="scale(0.015625)"/>
      </defs>
      <use xlink:href="#ArialMT-49"/>
      <use xlink:href="#ArialMT-4c" transform="translate(27.78125 0)"/>
      <use xlink:href="#ArialMT-55" transform="translate(50 0)"/>
      <use xlink:href="#ArialMT-56" transform="translate(83.296875 0)"/>
      <use xlink:href="#ArialMT-57" transform="translate(133.296875 0)"/>
     </g>
    </g>
   </g>
  </g>
 </g>
 <defs>
  <clipPath id="paaf2638c9e">
   <rect x="35.624258" y="20.392383" width="390.721328" height="279.430273"/>
  </clipPath>
 </defs>
</svg>
