<?xml version="1.0" encoding="utf-8" standalone="no"?>
<!DOCTYPE svg PUBLIC "-//W3C//DTD SVG 1.1//EN"
  "http://www.w3.org/Graphics/SVG/1.1/DTD/svg11.dtd">
<svg xmlns:xlink="http://www.w3.org/1999/xlink" width="449.270898pt" height="340.800273pt" viewBox="0 0 449.270898 340.800273" xmlns="http://www.w3.org/2000/svg" version="1.1">
 <metadata>
  <rdf:RDF xmlns:dc="http://purl.org/dc/elements/1.1/" xmlns:cc="http://creativecommons.org/ns#" xmlns:rdf="http://www.w3.org/1999/02/22-rdf-syntax-ns#">
   <cc:Work>
    <dc:type rdf:resource="http://purl.org/dc/dcmitype/StillImage"/>
    <dc:date>2026-07-09T17:08:16.223564</dc:date>
    <dc:format>image/svg+xml</dc:format>
    <dc:creator>
     <cc:Agent>
      <dc:title>Matplotlib v3.11.0, https://matplotlib.org/</dc:title>
     </cc:Agent>
    </dc:creator>
   </cc:Work>
  </rdf:RDF>
 </metadata>
 <defs>
  <style type="text/css">*{stroke-linejoin: round; stroke-linecap: butt}</style>
 </defs>
 <g id="figure_1">
  <g id="patch_1">
   <path d="M 0 340.800273 
L 449.270898 340.800273 
L 449.270898 0 
L 0 0 
z
" style="fill: #ffffff"/>
  </g>
  <g id="axes_1">
   <g id="patch_2">
    <path d="M 47.298945 299.822656 
L 426.500273 299.822656 
L 426.500273 20.392383 
L 47.298945 20.392383 
z
" style="fill: #ffffff"/>
   </g>
   <g id="matplotlib.axis_1">
    <g id="xtick_1">
     <g id="line2d_1">
      <defs>
       <path id="m9621eee41d" d="M 0 0 
L 0 -6 
" style="stroke: #000000; stroke-width: 1.5"/>
      </defs>
      <g>
       <use xlink:href="#m9621eee41d" x="47.298945" y="299.822656" style="stroke: #000000; stroke-width: 1.5"/>
      </g>
     </g>
     <g id="text_1">
      <!-- 0 -->
      <g transform="translate(43.406289 313.515039) scale(0.14 -0.14)">
       <defs>
        <path id="ArialMT-13" d="M 266 2259 
Q 266 3072 433 3567 
Q 600 4063 929 4331 
Q 1259 4600 1759 4600 
Q 2128 4600 2406 4451 
Q 2684 4303 2865 4023 
Q 3047 3744 3150 3342 
Q 3253 2941 3253 2259 
Q 3253 1453 3087 958 
Q 2922 463 2592 192 
Q 2263 -78 1759 -78 
Q 1097 -78 719 397 
Q 266 969 266 2259 
z
M 844 2259 
Q 844 1131 1108 757 
Q 1372 384 1759 384 
Q 2147 384 2411 759 
Q 2675 1134 2675 2259 
Q 2675 3391 2411 3762 
Q 2147 4134 1753 4134 
Q 1366 4134 1134 3806 
Q 844 3388 844 2259 
z
" transform="scale(0.015625)"/>
       </defs>
       <use xlink:href="#ArialMT-13"/>
      </g>
     </g>
    </g>
    <g id="xtick_2">
     <g id="line2d_2">
      <g>
       <use xlink:href="#m9621eee41d" x="110.499167" y="299.822656" style="stroke: #000000; stroke-width: 1.5"/>
      </g>
     </g>
     <g id="text_2">
      <!-- 200 -->
      <g transform="translate(98.821198 313.515039) scale(0.14 -0.14)">
       <defs>
        <path id="ArialMT-15" d="M 3222 541 
L 3222 0 
L 194 0 
Q 188 203 259 391 
Q 375 700 629 1000 
Q 884 1300 1366 1694 
Q 2113 2306 2375 2664 
Q 2638 3022 2638 3341 
Q 2638 3675 2398 3904 
Q 2159 4134 1775 4134 
Q 1369 4134 1125 3890 
Q 881 3647 878 3216 
L 300 3275 
Q 359 3922 746 4261 
Q 1134 4600 1788 4600 
Q 2447 4600 2831 4234 
Q 3216 3869 3216 3328 
Q 3216 3053 3103 2787 
Q 2991 2522 2730 2228 
Q 2469 1934 1863 1422 
Q 1356 997 1212 845 
Q 1069 694 975 541 
L 3222 541 
z
" transform="scale(0.015625)"/>
       </defs>
       <use xlink:href="#ArialMT-15"/>
       <use xlink:href="#ArialMT-13" transform="translate(55.609375 0)"/>
       <use xlink:href="#ArialMT-13" transform="translate(111.21875 0)"/>
      </g>
     </g>
    </g>
    <g id="xtick_3">
     <g id="line2d_3">
      <g>
       <use xlink:href="#m9621eee41d" x="173.699388" y="299.822656" style="stroke: #000000; stroke-width: 1.5"/>
      </g>
     </g>
     <g id="text_3">
      <!-- 400 -->
      <g transform="translate(162.021419 313.515039) scale(0.14 -0.14)">
       <defs>
        <path id="ArialMT-17" d="M 2069 0 
L 2069 1097 
L 81 1097 
L 81 1613 
L 2172 4581 
L 2631 4581 
L 2631 1613 
L 3250 1613 
L 3250 1097 
L 2631 1097 
L 2631 0 
L 2069 0 
z
M 2069 1613 
L 2069 3678 
L 634 1613 
L 2069 1613 
z
" transform="scale(0.015625)"/>
       </defs>
       <use xlink:href="#ArialMT-17"/>
       <use xlink:href="#ArialMT-13" transform="translate(55.609375 0)"/>
       <use xlink:href="#ArialMT-13" transform="translate(111.21875 0)"/>
      </g>
     </g>
    </g>
    <g id="xtick_4">
     <g id="line2d_4">
      <g>
       <use xlink:href="#m9621eee41d" x="236.899609" y="299.822656" style="stroke: #000000; stroke-width: 1.5"/>
      </g>
     </g>
     <g id="text_4">
      <!-- 600 -->
      <g transform="translate(225.221641 313.515039) scale(0.14 -0.14)">
       <defs>
        <path id="ArialMT-19" d="M 3184 3459 
L 2625 3416 
Q 2550 3747 2413 3897 
Q 2184 4138 1850 4138 
Q 1581 4138 1378 3988 
Q 1113 3794 959 3422 
Q 806 3050 800 2363 
Q 1003 2672 1297 2822 
Q 1591 2972 1913 2972 
Q 2475 2972 2870 2558 
Q 3266 2144 3266 1488 
Q 3266 1056 3080 686 
Q 2894 316 2569 119 
Q 2244 -78 1831 -78 
Q 1128 -78 684 439 
Q 241 956 241 2144 
Q 241 3472 731 4075 
Q 1159 4600 1884 4600 
Q 2425 4600 2770 4297 
Q 3116 3994 3184 3459 
z
M 888 1484 
Q 888 1194 1011 928 
Q 1134 663 1356 523 
Q 1578 384 1822 384 
Q 2178 384 2434 671 
Q 2691 959 2691 1453 
Q 2691 1928 2437 2201 
Q 2184 2475 1800 2475 
Q 1419 2475 1153 2201 
Q 888 1928 888 1484 
z
" transform="scale(0.015625)"/>
       </defs>
       <use xlink:href="#ArialMT-19"/>
       <use xlink:href="#ArialMT-13" transform="translate(55.609375 0)"/>
       <use xlink:href="#ArialMT-13" transform="translate(111.21875 0)"/>
      </g>
     </g>
    </g>
    <g id="xtick_5">
     <g id="line2d_5">
      <g>
       <use xlink:href="#m9621eee41d" x="300.099831" y="299.822656" style="stroke: #000000; stroke-width: 1.5"/>
      </g>
     </g>
     <g id="text_5">
      <!-- 800 -->
      <g transform="translate(288.421862 313.515039) scale(0.14 -0.14)">
       <defs>
        <path id="ArialMT-1b" d="M 1131 2484 
Q 781 2613 612 2850 
Q 444 3088 444 3419 
Q 444 3919 803 4259 
Q 1163 4600 1759 4600 
Q 2359 4600 2725 4251 
Q 3091 3903 3091 3403 
Q 3091 3084 2923 2848 
Q 2756 2613 2416 2484 
Q 2838 2347 3058 2040 
Q 3278 1734 3278 1309 
Q 3278 722 2862 322 
Q 2447 -78 1769 -78 
Q 1091 -78 675 323 
Q 259 725 259 1325 
Q 259 1772 486 2073 
Q 713 2375 1131 2484 
z
M 1019 3438 
Q 1019 3113 1228 2906 
Q 1438 2700 1772 2700 
Q 2097 2700 2305 2904 
Q 2513 3109 2513 3406 
Q 2513 3716 2298 3927 
Q 2084 4138 1766 4138 
Q 1444 4138 1231 3931 
Q 1019 3725 1019 3438 
z
M 838 1322 
Q 838 1081 952 856 
Q 1066 631 1291 507 
Q 1516 384 1775 384 
Q 2178 384 2440 643 
Q 2703 903 2703 1303 
Q 2703 1709 2433 1975 
Q 2163 2241 1756 2241 
Q 1359 2241 1098 1978 
Q 838 1716 838 1322 
z
" transform="scale(0.015625)"/>
       </defs>
       <use xlink:href="#ArialMT-1b"/>
       <use xlink:href="#ArialMT-13" transform="translate(55.609375 0)"/>
       <use xlink:href="#ArialMT-13" transform="translate(111.21875 0)"/>
      </g>
     </g>
    </g>
    <g id="xtick_6">
     <g id="line2d_6">
      <g>
       <use xlink:href="#m9621eee41d" x="363.300052" y="299.822656" style="stroke: #000000; stroke-width: 1.5"/>
      </g>
     </g>
     <g id="text_6">
      <!-- 1000 -->
      <g transform="translate(347.729427 313.515039) scale(0.14 -0.14)">
       <defs>
        <path id="ArialMT-14" d="M 2384 0 
L 1822 0 
L 1822 3584 
Q 1619 3391 1289 3197 
Q 959 3003 697 2906 
L 697 3450 
Q 1169 3672 1522 3987 
Q 1875 4303 2022 4600 
L 2384 4600 
L 2384 0 
z
" transform="scale(0.015625)"/>
       </defs>
       <use xlink:href="#ArialMT-14"/>
       <use xlink:href="#ArialMT-13" transform="translate(55.609375 0)"/>
       <use xlink:href="#ArialMT-13" transform="translate(111.21875 0)"/>
       <use xlink:href="#ArialMT-13" transform="translate(166.828125 0)"/>
      </g>
     </g>
    </g>
    <g id="xtick_7">
     <g id="line2d_7">
      <g>
       <use xlink:href="#m9621eee41d" x="426.500273" y="299.822656" style="stroke: #000000; stroke-width: 1.5"/>
      </g>
     </g>
     <g id="text_7">
      <!-- 1200 -->
      <g transform="translate(410.929648 313.515039) scale(0.14 -0.14)">
       <use xlink:href="#ArialMT-14"/>
       <use xlink:href="#ArialMT-15" transform="translate(55.609375 0)"/>
       <use xlink:href="#ArialMT-13" transform="translate(111.21875 0)"/>
       <use xlink:href="#ArialMT-13" transform="translate(166.828125 0)"/>
      </g>
     </g>
    </g>
    <g id="text_8">
     <!-- T1 Temperature (°C) -->
     <g transform="translate(173.160234 330.653711) scale(0.14 -0.14)">
      <defs>
       <path id="ArialMT-37" d="M 1659 0 
L 1659 4041 
L 150 4041 
L 150 4581 
L 3781 4581 
L 3781 4041 
L 2266 4041 
L 2266 0 
L 1659 0 
z
" transform="scale(0.015625)"/>
       <path id="ArialMT-3" transform="scale(0.015625)"/>
       <path id="ArialMT-48" d="M 2694 1069 
L 3275 997 
Q 3138 488 2766 206 
Q 2394 -75 1816 -75 
Q 1088 -75 661 373 
Q 234 822 234 1631 
Q 234 2469 665 2931 
Q 1097 3394 1784 3394 
Q 2450 3394 2872 2941 
Q 3294 2488 3294 1666 
Q 3294 1616 3291 1516 
L 816 1516 
Q 847 969 1125 678 
Q 1403 388 1819 388 
Q 2128 388 2347 550 
Q 2566 713 2694 1069 
z
M 847 1978 
L 2700 1978 
Q 2663 2397 2488 2606 
Q 2219 2931 1791 2931 
Q 1403 2931 1139 2672 
Q 875 2413 847 1978 
z
" transform="scale(0.015625)"/>
       <path id="ArialMT-50" d="M 422 0 
L 422 3319 
L 925 3319 
L 925 2853 
Q 1081 3097 1340 3245 
Q 1600 3394 1931 3394 
Q 2300 3394 2536 3241 
Q 2772 3088 2869 2813 
Q 3263 3394 3894 3394 
Q 4388 3394 4653 3120 
Q 4919 2847 4919 2278 
L 4919 0 
L 4359 0 
L 4359 2091 
Q 4359 2428 4304 2576 
Q 4250 2725 4106 2815 
Q 3963 2906 3769 2906 
Q 3419 2906 3187 2673 
Q 2956 2441 2956 1928 
L 2956 0 
L 2394 0 
L 2394 2156 
Q 2394 2531 2256 2718 
Q 2119 2906 1806 2906 
Q 1569 2906 1367 2781 
Q 1166 2656 1075 2415 
Q 984 2175 984 1722 
L 984 0 
L 422 0 
z
" transform="scale(0.015625)"/>
       <path id="ArialMT-53" d="M 422 -1272 
L 422 3319 
L 934 3319 
L 934 2888 
Q 1116 3141 1344 3267 
Q 1572 3394 1897 3394 
Q 2322 3394 2647 3175 
Q 2972 2956 3137 2557 
Q 3303 2159 3303 1684 
Q 3303 1175 3120 767 
Q 2938 359 2589 142 
Q 2241 -75 1856 -75 
Q 1575 -75 1351 44 
Q 1128 163 984 344 
L 984 -1272 
L 422 -1272 
z
M 931 1641 
Q 931 1000 1190 694 
Q 1450 388 1819 388 
Q 2194 388 2461 705 
Q 2728 1022 2728 1688 
Q 2728 2322 2467 2637 
Q 2206 2953 1844 2953 
Q 1484 2953 1207 2617 
Q 931 2281 931 1641 
z
" transform="scale(0.015625)"/>
       <path id="ArialMT-55" d="M 416 0 
L 416 3319 
L 922 3319 
L 922 2816 
Q 1116 3169 1280 3281 
Q 1444 3394 1641 3394 
Q 1925 3394 2219 3213 
L 2025 2691 
Q 1819 2813 1613 2813 
Q 1428 2813 1281 2702 
Q 1134 2591 1072 2394 
Q 978 2094 978 1738 
L 978 0 
L 416 0 
z
" transform="scale(0.015625)"/>
       <path id="ArialMT-44" d="M 2588 409 
Q 2275 144 1986 34 
Q 1697 -75 1366 -75 
Q 819 -75 525 192 
Q 231 459 231 875 
Q 231 1119 342 1320 
Q 453 1522 633 1644 
Q 813 1766 1038 1828 
Q 1203 1872 1538 1913 
Q 2219 1994 2541 2106 
Q 2544 2222 2544 2253 
Q 2544 2597 2384 2738 
Q 2169 2928 1744 2928 
Q 1347 2928 1158 2789 
Q 969 2650 878 2297 
L 328 2372 
Q 403 2725 575 2942 
Q 747 3159 1072 3276 
Q 1397 3394 1825 3394 
Q 2250 3394 2515 3294 
Q 2781 3194 2906 3042 
Q 3031 2891 3081 2659 
Q 3109 2516 3109 2141 
L 3109 1391 
Q 3109 606 3145 398 
Q 3181 191 3288 0 
L 2700 0 
Q 2613 175 2588 409 
z
M 2541 1666 
Q 2234 1541 1622 1453 
Q 1275 1403 1131 1340 
Q 988 1278 909 1158 
Q 831 1038 831 891 
Q 831 666 1001 516 
Q 1172 366 1500 366 
Q 1825 366 2078 508 
Q 2331 650 2450 897 
Q 2541 1088 2541 1459 
L 2541 1666 
z
" transform="scale(0.015625)"/>
       <path id="ArialMT-57" d="M 1650 503 
L 1731 6 
Q 1494 -44 1306 -44 
Q 1000 -44 831 53 
Q 663 150 594 308 
Q 525 466 525 972 
L 525 2881 
L 113 2881 
L 113 3319 
L 525 3319 
L 525 4141 
L 1084 4478 
L 1084 3319 
L 1650 3319 
L 1650 2881 
L 1084 2881 
L 1084 941 
Q 1084 700 1114 631 
Q 1144 563 1211 522 
Q 1278 481 1403 481 
Q 1497 481 1650 503 
z
" transform="scale(0.015625)"/>
       <path id="ArialMT-58" d="M 2597 0 
L 2597 488 
Q 2209 -75 1544 -75 
Q 1250 -75 995 37 
Q 741 150 617 320 
Q 494 491 444 738 
Q 409 903 409 1263 
L 409 3319 
L 972 3319 
L 972 1478 
Q 972 1038 1006 884 
Q 1059 663 1231 536 
Q 1403 409 1656 409 
Q 1909 409 2131 539 
Q 2353 669 2445 892 
Q 2538 1116 2538 1541 
L 2538 3319 
L 3100 3319 
L 3100 0 
L 2597 0 
z
" transform="scale(0.015625)"/>
       <path id="ArialMT-b" d="M 1497 -1347 
Q 1031 -759 709 28 
Q 388 816 388 1659 
Q 388 2403 628 3084 
Q 909 3875 1497 4659 
L 1900 4659 
Q 1522 4009 1400 3731 
Q 1209 3300 1100 2831 
Q 966 2247 966 1656 
Q 966 153 1900 -1347 
L 1497 -1347 
z
" transform="scale(0.015625)"/>
       <path id="ArialMT-83" d="M 400 3794 
Q 400 4153 654 4406 
Q 909 4659 1266 4659 
Q 1628 4659 1881 4406 
Q 2134 4153 2134 3794 
Q 2134 3434 1879 3179 
Q 1625 2925 1266 2925 
Q 909 2925 654 3178 
Q 400 3431 400 3794 
z
M 741 3794 
Q 741 3575 895 3420 
Q 1050 3266 1269 3266 
Q 1484 3266 1639 3420 
Q 1794 3575 1794 3794 
Q 1794 4013 1639 4167 
Q 1484 4322 1269 4322 
Q 1050 4322 895 4167 
Q 741 4013 741 3794 
z
" transform="scale(0.015625)"/>
       <path id="ArialMT-26" d="M 3763 1606 
L 4369 1453 
Q 4178 706 3683 314 
Q 3188 -78 2472 -78 
Q 1731 -78 1267 223 
Q 803 525 561 1097 
Q 319 1669 319 2325 
Q 319 3041 592 3573 
Q 866 4106 1370 4382 
Q 1875 4659 2481 4659 
Q 3169 4659 3637 4309 
Q 4106 3959 4291 3325 
L 3694 3184 
Q 3534 3684 3231 3912 
Q 2928 4141 2469 4141 
Q 1941 4141 1586 3887 
Q 1231 3634 1087 3207 
Q 944 2781 944 2328 
Q 944 1744 1114 1308 
Q 1284 872 1643 656 
Q 2003 441 2422 441 
Q 2931 441 3284 734 
Q 3638 1028 3763 1606 
z
" transform="scale(0.015625)"/>
       <path id="ArialMT-c" d="M 791 -1347 
L 388 -1347 
Q 1322 153 1322 1656 
Q 1322 2244 1188 2822 
Q 1081 3291 891 3722 
Q 769 4003 388 4659 
L 791 4659 
Q 1378 3875 1659 3084 
Q 1900 2403 1900 1659 
Q 1900 816 1576 28 
Q 1253 -759 791 -1347 
z
" transform="scale(0.015625)"/>
      </defs>
      <use xlink:href="#ArialMT-37"/>
      <use xlink:href="#ArialMT-14" transform="translate(61.078125 0)"/>
      <use xlink:href="#ArialMT-3" transform="translate(116.6875 0)"/>
      <use xlink:href="#ArialMT-37" transform="translate(142.65625 0)"/>
      <use xlink:href="#ArialMT-48" transform="translate(192.65625 0)"/>
      <use xlink:href="#ArialMT-50" transform="translate(248.265625 0)"/>
      <use xlink:href="#ArialMT-53" transform="translate(331.5625 0)"/>
      <use xlink:href="#ArialMT-48" transform="translate(387.171875 0)"/>
      <use xlink:href="#ArialMT-55" transform="translate(442.78125 0)"/>
      <use xlink:href="#ArialMT-44" transform="translate(476.078125 0)"/>
      <use xlink:href="#ArialMT-57" transform="translate(531.6875 0)"/>
      <use xlink:href="#ArialMT-58" transform="translate(559.46875 0)"/>
      <use xlink:href="#ArialMT-55" transform="translate(615.078125 0)"/>
      <use xlink:href="#ArialMT-48" transform="translate(648.375 0)"/>
      <use xlink:href="#ArialMT-3" transform="translate(703.984375 0)"/>
      <use xlink:href="#ArialMT-b" transform="translate(731.765625 0)"/>
      <use xlink:href="#ArialMT-83" transform="translate(765.0625 0)"/>
      <use xlink:href="#ArialMT-26" transform="translate(805.046875 0)"/>
      <use xlink:href="#ArialMT-c" transform="translate(877.265625 0)"/>
     </g>
    </g>
   </g>
   <g id="matplotlib.axis_2">
    <g id="ytick_1">
     <g id="line2d_8">
      <defs>
       <path id="m6d0afb51f4" d="M 0 0 
L 6 0 
" style="stroke: #000000; stroke-width: 1.5"/>
      </defs>
      <g>
       <use xlink:href="#m6d0afb51f4" x="47.298945" y="250.622938" style="stroke: #000000; stroke-width: 1.5"/>
      </g>
     </g>
     <g id="text_9">
      <!-- 0.5 -->
      <g transform="translate(24.338945 255.719129) scale(0.14 -0.14)">
       <defs>
        <path id="ArialMT-11" d="M 581 0 
L 581 641 
L 1222 641 
L 1222 0 
L 581 0 
z
" transform="scale(0.015625)"/>
        <path id="ArialMT-18" d="M 266 1200 
L 856 1250 
Q 922 819 1161 601 
Q 1400 384 1738 384 
Q 2144 384 2425 690 
Q 2706 997 2706 1503 
Q 2706 1984 2436 2262 
Q 2166 2541 1728 2541 
Q 1456 2541 1237 2417 
Q 1019 2294 894 2097 
L 366 2166 
L 809 4519 
L 3088 4519 
L 3088 3981 
L 1259 3981 
L 1013 2750 
Q 1425 3038 1878 3038 
Q 2478 3038 2890 2622 
Q 3303 2206 3303 1553 
Q 3303 931 2941 478 
Q 2500 -78 1738 -78 
Q 1113 -78 717 272 
Q 322 622 266 1200 
z
" transform="scale(0.015625)"/>
       </defs>
       <use xlink:href="#ArialMT-13"/>
       <use xlink:href="#ArialMT-11" transform="translate(55.609375 0)"/>
       <use xlink:href="#ArialMT-18" transform="translate(83.390625 0)"/>
      </g>
     </g>
    </g>
    <g id="ytick_2">
     <g id="line2d_9">
      <g>
       <use xlink:href="#m6d0afb51f4" x="47.298945" y="196.263126" style="stroke: #000000; stroke-width: 1.5"/>
      </g>
     </g>
     <g id="text_10">
      <!-- 1.0 -->
      <g transform="translate(24.338945 201.359318) scale(0.14 -0.14)">
       <use xlink:href="#ArialMT-14"/>
       <use xlink:href="#ArialMT-11" transform="translate(55.609375 0)"/>
       <use xlink:href="#ArialMT-13" transform="translate(83.390625 0)"/>
      </g>
     </g>
    </g>
    <g id="ytick_3">
     <g id="line2d_10">
      <g>
       <use xlink:href="#m6d0afb51f4" x="47.298945" y="141.903315" style="stroke: #000000; stroke-width: 1.5"/>
      </g>
     </g>
     <g id="text_11">
      <!-- 1.5 -->
      <g transform="translate(24.338945 146.999506) scale(0.14 -0.14)">
       <use xlink:href="#ArialMT-14"/>
       <use xlink:href="#ArialMT-11" transform="translate(55.609375 0)"/>
       <use xlink:href="#ArialMT-18" transform="translate(83.390625 0)"/>
      </g>
     </g>
    </g>
    <g id="ytick_4">
     <g id="line2d_11">
      <g>
       <use xlink:href="#m6d0afb51f4" x="47.298945" y="87.543503" style="stroke: #000000; stroke-width: 1.5"/>
      </g>
     </g>
     <g id="text_12">
      <!-- 2.0 -->
      <g transform="translate(24.338945 92.639695) scale(0.14 -0.14)">
       <use xlink:href="#ArialMT-15"/>
       <use xlink:href="#ArialMT-11" transform="translate(55.609375 0)"/>
       <use xlink:href="#ArialMT-13" transform="translate(83.390625 0)"/>
      </g>
     </g>
    </g>
    <g id="ytick_5">
     <g id="line2d_12">
      <g>
       <use xlink:href="#m6d0afb51f4" x="47.298945" y="33.183692" style="stroke: #000000; stroke-width: 1.5"/>
      </g>
     </g>
     <g id="text_13">
      <!-- 2.5 -->
      <g transform="translate(24.338945 38.279883) scale(0.14 -0.14)">
       <use xlink:href="#ArialMT-15"/>
       <use xlink:href="#ArialMT-11" transform="translate(55.609375 0)"/>
       <use xlink:href="#ArialMT-18" transform="translate(83.390625 0)"/>
      </g>
     </g>
    </g>
    <g id="text_14">
     <!-- Ion Current (m/z 19) -->
     <g transform="translate(17.392383 222.733457) rotate(-90) scale(0.14 -0.14)">
      <defs>
       <path id="ArialMT-2c" d="M 597 0 
L 597 4581 
L 1203 4581 
L 1203 0 
L 597 0 
z
" transform="scale(0.015625)"/>
       <path id="ArialMT-52" d="M 213 1659 
Q 213 2581 725 3025 
Q 1153 3394 1769 3394 
Q 2453 3394 2887 2945 
Q 3322 2497 3322 1706 
Q 3322 1066 3130 698 
Q 2938 331 2570 128 
Q 2203 -75 1769 -75 
Q 1072 -75 642 372 
Q 213 819 213 1659 
z
M 791 1659 
Q 791 1022 1069 705 
Q 1347 388 1769 388 
Q 2188 388 2466 706 
Q 2744 1025 2744 1678 
Q 2744 2294 2464 2611 
Q 2184 2928 1769 2928 
Q 1347 2928 1069 2612 
Q 791 2297 791 1659 
z
" transform="scale(0.015625)"/>
       <path id="ArialMT-51" d="M 422 0 
L 422 3319 
L 928 3319 
L 928 2847 
Q 1294 3394 1984 3394 
Q 2284 3394 2536 3286 
Q 2788 3178 2913 3003 
Q 3038 2828 3088 2588 
Q 3119 2431 3119 2041 
L 3119 0 
L 2556 0 
L 2556 2019 
Q 2556 2363 2490 2533 
Q 2425 2703 2258 2804 
Q 2091 2906 1866 2906 
Q 1506 2906 1245 2678 
Q 984 2450 984 1813 
L 984 0 
L 422 0 
z
" transform="scale(0.015625)"/>
       <path id="ArialMT-12" d="M 0 -78 
L 1328 4659 
L 1778 4659 
L 453 -78 
L 0 -78 
z
" transform="scale(0.015625)"/>
       <path id="ArialMT-5d" d="M 125 0 
L 125 456 
L 2238 2881 
Q 1878 2863 1603 2863 
L 250 2863 
L 250 3319 
L 2963 3319 
L 2963 2947 
L 1166 841 
L 819 456 
Q 1197 484 1528 484 
L 3063 484 
L 3063 0 
L 125 0 
z
" transform="scale(0.015625)"/>
       <path id="ArialMT-1c" d="M 350 1059 
L 891 1109 
Q 959 728 1153 556 
Q 1347 384 1650 384 
Q 1909 384 2104 503 
Q 2300 622 2425 820 
Q 2550 1019 2634 1356 
Q 2719 1694 2719 2044 
Q 2719 2081 2716 2156 
Q 2547 1888 2255 1720 
Q 1963 1553 1622 1553 
Q 1053 1553 659 1965 
Q 266 2378 266 3053 
Q 266 3750 677 4175 
Q 1088 4600 1706 4600 
Q 2153 4600 2523 4359 
Q 2894 4119 3086 3673 
Q 3278 3228 3278 2384 
Q 3278 1506 3087 986 
Q 2897 466 2520 194 
Q 2144 -78 1638 -78 
Q 1100 -78 759 220 
Q 419 519 350 1059 
z
M 2653 3081 
Q 2653 3566 2395 3850 
Q 2138 4134 1775 4134 
Q 1400 4134 1122 3828 
Q 844 3522 844 3034 
Q 844 2597 1108 2323 
Q 1372 2050 1759 2050 
Q 2150 2050 2401 2323 
Q 2653 2597 2653 3081 
z
" transform="scale(0.015625)"/>
      </defs>
      <use xlink:href="#ArialMT-2c"/>
      <use xlink:href="#ArialMT-52" transform="translate(27.78125 0)"/>
      <use xlink:href="#ArialMT-51" transform="translate(83.390625 0)"/>
      <use xlink:href="#ArialMT-3" transform="translate(139 0)"/>
      <use xlink:href="#ArialMT-26" transform="translate(166.78125 0)"/>
      <use xlink:href="#ArialMT-58" transform="translate(239 0)"/>
      <use xlink:href="#ArialMT-55" transform="translate(294.609375 0)"/>
      <use xlink:href="#ArialMT-55" transform="translate(327.90625 0)"/>
      <use xlink:href="#ArialMT-48" transform="translate(361.203125 0)"/>
      <use xlink:href="#ArialMT-51" transform="translate(416.8125 0)"/>
      <use xlink:href="#ArialMT-57" transform="translate(472.421875 0)"/>
      <use xlink:href="#ArialMT-3" transform="translate(500.203125 0)"/>
      <use xlink:href="#ArialMT-b" transform="translate(527.984375 0)"/>
      <use xlink:href="#ArialMT-50" transform="translate(561.28125 0)"/>
      <use xlink:href="#ArialMT-12" transform="translate(644.578125 0)"/>
      <use xlink:href="#ArialMT-5d" transform="translate(672.359375 0)"/>
      <use xlink:href="#ArialMT-3" transform="translate(722.359375 0)"/>
      <use xlink:href="#ArialMT-14" transform="translate(750.140625 0)"/>
      <use xlink:href="#ArialMT-1c" transform="translate(805.75 0)"/>
      <use xlink:href="#ArialMT-c" transform="translate(861.359375 0)"/>
     </g>
    </g>
    <g id="text_15">
     <!-- 1e−11 -->
     <g transform="translate(47.298945 17.392383) scale(0.14 -0.14)">
      <defs>
       <path id="ArialMT-ed" d="M 3381 1997 
L 356 1997 
L 356 2522 
L 3381 2522 
L 3381 1997 
z
" transform="scale(0.015625)"/>
      </defs>
      <use xlink:href="#ArialMT-14"/>
      <use xlink:href="#ArialMT-48" transform="translate(55.609375 0)"/>
      <use xlink:href="#ArialMT-ed" transform="translate(111.21875 0)"/>
      <use xlink:href="#ArialMT-14" transform="translate(169.625 0)"/>
      <use xlink:href="#ArialMT-14" transform="translate(217.8125 0)"/>
     </g>
    </g>
   </g>
   <g id="line2d_13">
    <path d="M 66.195811 183.624432 
L 66.195811 187.703569 
L 66.132611 186.327724 
L 66.069411 184.537794 
L 66.069411 185.156981 
L 66.227412 185.353726 
L 66.922614 186.743279 
L 68.56582 188.387875 
L 73.053036 192.152927 
L 74.917442 193.184233 
L 76.402647 193.428426 
L 77.635052 193.007978 
L 78.867456 191.282047 
L 79.97346 191.903778 
L 82.343468 189.952266 
L 83.607472 189.662836 
L 86.261882 188.805328 
L 87.620687 187.654509 
L 90.211896 186.442855 
L 91.4759 186.721583 
L 92.645104 186.578902 
L 93.877508 186.106972 
L 95.109913 186.72488 
L 96.373917 188.336972 
L 97.543121 189.054521 
L 98.775526 190.81029 
L 101.240334 190.562183 
L 102.472739 191.110196 
L 103.736743 192.61112 
L 105.000747 191.962573 
L 106.233152 191.578197 
L 107.497156 191.394953 
L 108.72956 191.753799 
L 109.930365 191.203893 
L 111.162769 192.077606 
L 112.395173 190.376574 
L 113.627578 189.3437 
L 114.859982 190.02706 
L 116.092386 189.900459 
L 117.356391 190.574885 
L 118.557195 191.61998 
L 119.821199 191.954996 
L 121.053604 191.423411 
L 122.286008 191.355457 
L 123.518412 191.76078 
L 124.750817 191.866113 
L 126.014821 191.421432 
L 129.806834 194.727376 
L 131.007638 195.095148 
L 132.240043 195.764746 
L 133.504047 194.072317 
L 134.673251 194.27864 
L 135.905656 193.688552 
L 137.16966 193.679982 
L 138.433665 192.824265 
L 139.666069 192.932416 
L 140.930073 192.694458 
L 142.099277 193.028267 
L 143.331682 191.094656 
L 144.532486 191.783271 
L 145.76489 190.081692 
L 146.965694 190.661183 
L 148.229699 191.637967 
L 149.462103 192.291572 
L 150.694507 192.5645 
L 151.958512 193.652556 
L 153.159316 194.08423 
L 154.423321 195.572602 
L 155.624125 193.691613 
L 156.888129 194.775002 
L 158.120533 195.192065 
L 159.384538 196.749209 
L 160.648542 196.820538 
L 161.849347 197.18123 
L 163.113351 195.94974 
L 165.546559 195.609938 
L 166.747364 195.967481 
L 168.011368 194.263131 
L 169.212172 195.188115 
L 170.412977 195.384395 
L 171.645381 195.900947 
L 172.909385 196.856002 
L 175.437394 194.708751 
L 176.701399 194.633418 
L 177.965403 194.683375 
L 180.430212 195.527938 
L 181.631016 196.724884 
L 182.89502 196.753416 
L 184.159025 196.915325 
L 185.328229 197.901221 
L 186.497433 195.99322 
L 187.761437 196.010298 
L 190.226246 194.903418 
L 191.45865 194.707505 
L 195.092663 192.088974 
L 197.589072 191.302428 
L 198.789876 192.346248 
L 200.02228 192.789131 
L 201.254685 193.835192 
L 202.518689 194.655399 
L 203.719493 195.280567 
L 204.951897 194.955716 
L 206.215902 195.997456 
L 207.448306 195.631114 
L 208.680711 195.877054 
L 209.881515 195.816609 
L 211.145519 197.016158 
L 212.377923 195.770393 
L 213.578728 194.883378 
L 214.811132 194.335282 
L 216.043536 192.271536 
L 218.445145 189.836357 
L 219.709149 190.037911 
L 220.909953 191.641402 
L 222.142358 193.838117 
L 223.437962 194.244247 
L 224.638766 194.287507 
L 225.871171 195.06244 
L 227.008775 196.000201 
L 228.177979 195.625275 
L 229.410383 196.254577 
L 230.674388 196.022052 
L 231.938392 197.009937 
L 233.170796 198.307222 
L 234.434801 197.812591 
L 236.836409 196.224663 
L 238.100414 196.121986 
L 240.596822 198.283866 
L 241.797627 197.991036 
L 244.294035 199.591806 
L 245.52644 199.189342 
L 246.727244 196.97137 
L 247.959648 196.83941 
L 249.192052 195.435087 
L 250.424457 194.545386 
L 251.688461 194.325255 
L 252.920865 193.932573 
L 254.12167 193.193247 
L 255.417274 194.681431 
L 256.618078 195.826533 
L 257.850483 194.5638 
L 259.051287 194.782857 
L 260.283691 196.985318 
L 261.579296 198.091206 
L 262.7485 198.235084 
L 263.980904 199.940881 
L 265.213309 200.512132 
L 266.414113 200.232806 
L 267.678117 199.63304 
L 268.973722 198.79531 
L 270.237726 197.376024 
L 271.47013 197.645425 
L 272.670935 198.274156 
L 273.934939 197.81271 
L 275.135743 197.572597 
L 276.399748 198.42756 
L 277.663752 198.782836 
L 278.896156 197.731804 
L 280.128561 197.140934 
L 281.360965 197.713261 
L 282.561769 196.45873 
L 283.825774 196.005787 
L 285.026578 196.785195 
L 286.227382 195.859865 
L 287.459786 196.625141 
L 288.692191 195.384207 
L 289.892995 195.828668 
L 291.156999 195.950811 
L 292.421004 196.191896 
L 293.590208 197.867382 
L 294.854212 196.841133 
L 296.118217 196.913359 
L 298.519825 197.678146 
L 299.75223 198.407254 
L 300.984634 195.89973 
L 302.217038 194.976278 
L 303.386242 193.506913 
L 304.650247 192.993933 
L 305.882651 193.653694 
L 307.083455 193.217129 
L 308.31586 193.024325 
L 309.548264 193.739543 
L 310.780668 195.046947 
L 312.013072 195.559568 
L 313.213877 193.98686 
L 314.414681 194.974978 
L 315.710285 194.536413 
L 316.94269 195.236149 
L 318.143494 194.277002 
L 319.312698 194.009097 
L 320.608303 194.323894 
L 321.809107 194.080743 
L 323.073111 194.09818 
L 324.273915 195.480109 
L 325.47472 194.882859 
L 326.707124 195.530172 
L 327.971128 194.874002 
L 329.140332 195.467413 
L 330.435937 194.508184 
L 331.984342 193.932732 
L 333.311547 194.238046 
L 334.543951 193.615397 
L 335.807956 194.677754 
L 336.97716 195.495322 
L 338.177964 194.198888 
L 339.473569 193.704293 
L 340.705973 193.679232 
L 341.969977 193.832343 
L 343.107581 192.176209 
L 344.403186 191.787773 
L 345.57239 191.307127 
L 346.899595 191.29978 
L 348.100399 190.753557 
L 350.533607 188.917457 
L 351.829212 189.286948 
L 352.935216 188.228032 
L 354.16762 188.217768 
L 355.494825 189.29505 
L 356.664029 190.691411 
L 357.928033 190.450717 
L 359.192038 192.047058 
L 360.456042 191.45367 
L 361.498846 190.173771 
L 362.79445 190.047588 
L 364.121655 189.649841 
L 365.227659 189.072629 
L 366.491663 189.654978 
L 367.913668 189.242021 
L 369.146073 187.598525 
L 370.315277 185.473167 
L 371.452881 184.604394 
L 372.685285 182.41197 
L 373.886089 181.353434 
L 375.150094 181.966285 
L 376.256097 182.078368 
L 377.488502 184.078943 
L 378.720906 182.851387 
L 379.95331 180.685834 
L 381.154115 177.550632 
L 383.587323 174.404651 
L 384.851328 171.2049 
L 385.988932 171.582695 
L 387.410937 170.159953 
L 388.611741 170.373289 
L 389.844145 170.022117 
L 391.044949 167.867697 
L 392.340554 167.516784 
L 393.383357 165.758754 
L 395.089763 165.98391 
L 396.385368 163.806444 
L 397.712573 161.072406 
L 398.881777 161.131979 
L 400.114181 158.957904 
L 401.409786 159.405692 
L 402.515789 157.116376 
L 403.748194 156.323465 
L 404.885798 156.118013 
L 406.244602 154.044783 
L 407.413807 151.148104 
L 408.709411 146.913766 
L 410.036616 143.961524 
L 411.20582 140.399925 
L 412.343424 135.802512 
L 413.512628 133.067707 
L 414.839833 130.806992 
L 415.977437 127.121742 
L 417.367841 125.515882 
L 418.663446 122.292158 
L 419.67465 118.836564 
L 421.065054 115.976209 
L 424.699067 105.060561 
L 425.710271 100.037319 
L 425.710271 100.037319 
" clip-path="url(#p2e158334c3)" style="fill: none; stroke: #000000; stroke-width: 2.5; stroke-linecap: square"/>
   </g>
   <g id="line2d_14">
    <path d="M 58.200983 248.080846 
L 58.200983 246.130225 
L 58.200983 246.97358 
L 58.358984 248.153428 
L 59.022586 247.714399 
L 60.760592 247.6534 
L 63.0042 247.442739 
L 65.184608 247.110866 
L 67.017414 246.544629 
L 68.53422 245.6894 
L 69.798224 245.351929 
L 70.935828 245.654862 
L 71.978632 245.81034 
L 73.211036 245.524863 
L 74.47504 246.000292 
L 75.612644 246.28479 
L 78.203854 246.001441 
L 79.341458 246.145334 
L 80.700262 245.37582 
L 81.869466 246.14648 
L 83.165071 247.150961 
L 84.460675 247.556223 
L 85.75628 248.124543 
L 87.020284 249.616421 
L 88.347489 249.390481 
L 89.706294 249.753103 
L 90.875498 250.198199 
L 92.171102 250.441188 
L 93.340307 249.674091 
L 94.604311 250.04106 
L 95.773515 250.042209 
L 97.10072 249.819659 
L 98.364724 250.128986 
L 99.565528 249.849961 
L 100.734732 249.169267 
L 103.262741 248.938085 
L 104.495146 249.626388 
L 105.75915 249.690562 
L 106.865154 249.431385 
L 108.160758 248.177716 
L 110.657167 248.065582 
L 111.952772 248.289229 
L 113.058776 248.254364 
L 114.35438 248.583349 
L 115.586784 249.71191 
L 118.051593 252.822262 
L 120.611202 250.6882 
L 121.717206 250.539948 
L 123.01281 250.087017 
L 124.276815 249.968853 
L 125.414419 248.37571 
L 126.710023 248.737894 
L 129.206432 248.635731 
L 130.502037 248.216694 
L 131.766041 246.990747 
L 134.136049 248.288306 
L 136.600858 248.015969 
L 137.833262 248.540062 
L 139.065667 249.936033 
L 140.266471 249.257062 
L 141.562075 249.631754 
L 142.82608 249.006998 
L 144.058484 249.345134 
L 145.227688 250.39682 
L 146.554893 250.74495 
L 147.724097 250.04692 
L 148.893301 249.543863 
L 150.220506 250.211561 
L 151.42131 250.040331 
L 152.748515 249.090131 
L 153.917719 248.96497 
L 155.150123 247.852879 
L 156.382527 248.768598 
L 157.583332 248.548471 
L 158.847336 247.734941 
L 160.11134 246.754263 
L 161.375345 246.083405 
L 162.576149 246.416328 
L 163.840153 246.159216 
L 165.009358 246.327131 
L 166.178562 247.041017 
L 167.474166 247.275962 
L 168.706571 248.931576 
L 169.907375 248.05281 
L 171.139779 247.820508 
L 172.372183 246.062697 
L 173.636188 245.199739 
L 174.931792 244.658413 
L 176.132597 243.900718 
L 178.597405 245.199773 
L 179.766609 244.707653 
L 183.495422 245.018205 
L 184.727827 244.216416 
L 185.960231 244.751118 
L 187.192635 245.733885 
L 189.689044 246.164355 
L 190.921448 246.154773 
L 192.122253 244.823376 
L 193.354657 244.497689 
L 194.618661 245.298263 
L 195.882666 244.852945 
L 197.05187 244.896884 
L 198.284274 245.232402 
L 200.780683 245.076863 
L 202.044687 244.010807 
L 203.213891 243.922737 
L 204.477896 243.220787 
L 205.6787 244.002614 
L 206.911104 245.398265 
L 209.375913 246.487508 
L 210.513517 246.508061 
L 211.872322 246.135475 
L 214.27393 245.011714 
L 215.474734 245.25502 
L 216.738739 245.292859 
L 217.971143 245.797559 
L 220.372751 247.74115 
L 221.605156 247.80537 
L 222.83756 246.755941 
L 224.038364 247.100955 
L 225.333969 246.171369 
L 226.534773 246.114893 
L 227.767177 245.801708 
L 229.031182 246.067583 
L 231.49599 247.250056 
L 232.728395 247.617166 
L 233.897599 246.784144 
L 235.130003 245.438688 
L 236.330807 245.325236 
L 237.563212 243.469369 
L 238.795616 243.086512 
L 239.99642 243.480825 
L 241.292025 244.472862 
L 242.524429 245.925569 
L 244.989238 247.696847 
L 246.190042 247.728741 
L 247.454046 247.365705 
L 248.686451 247.330873 
L 249.887255 246.818336 
L 252.352063 247.21316 
L 253.647668 246.901455 
L 254.816872 248.236549 
L 257.281681 247.829387 
L 258.545685 246.497779 
L 259.77809 246.759138 
L 260.947294 247.398426 
L 263.443702 246.73725 
L 264.644507 246.272941 
L 265.876911 246.426715 
L 267.109315 247.203765 
L 268.40492 246.308426 
L 269.732124 246.01327 
L 270.901328 246.087636 
L 272.165333 247.160164 
L 273.397737 247.307605 
L 274.661742 246.93766 
L 275.894146 246.399114 
L 277.12655 245.468389 
L 278.295754 245.871388 
L 279.528159 245.959427 
L 280.760563 245.77581 
L 283.225372 247.102197 
L 284.457776 246.276372 
L 285.69018 244.033707 
L 286.954185 242.808235 
L 289.355793 241.442401 
L 290.619798 242.666701 
L 291.820602 243.356094 
L 293.021406 244.284561 
L 294.28541 245.859272 
L 295.549415 246.542701 
L 296.718619 246.366462 
L 297.982623 245.232998 
L 299.246628 244.3989 
L 300.415832 244.183632 
L 301.648236 243.148432 
L 302.88064 243.111042 
L 304.144645 243.89365 
L 305.313849 244.222214 
L 306.577853 245.275567 
L 307.747058 245.128253 
L 310.243466 245.495161 
L 311.44427 244.669612 
L 312.676675 244.286834 
L 313.877479 243.597547 
L 315.109883 243.622634 
L 316.342288 243.988642 
L 317.606292 243.763774 
L 318.838696 244.097738 
L 320.071101 242.662207 
L 321.240305 241.963202 
L 322.472709 241.789903 
L 323.736714 240.459685 
L 325.000718 239.963867 
L 326.138322 239.895369 
L 327.433926 240.612838 
L 328.634731 240.371469 
L 329.835535 241.406113 
L 331.35234 242.360246 
L 332.711145 243.71723 
L 333.975149 243.979903 
L 335.270754 243.965793 
L 336.503158 243.139039 
L 340.168771 241.777444 
L 341.337975 239.942417 
L 342.63358 238.994003 
L 343.834384 238.517824 
L 347.563197 235.690692 
L 348.795601 236.239995 
L 352.429614 239.000199 
L 353.630418 239.287928 
L 354.926023 238.801575 
L 356.158427 238.205743 
L 357.359231 237.220121 
L 358.654836 237.163007 
L 359.72924 235.641825 
L 363.521253 234.421664 
L 364.690457 235.176475 
L 367.155266 235.601473 
L 368.48247 235.576217 
L 369.714875 235.770558 
L 370.947279 236.56619 
L 372.116483 234.998381 
L 373.348887 234.445417 
L 374.518091 232.510238 
L 375.813696 231.825962 
L 376.9197 231.377208 
L 378.246904 230.049329 
L 379.479309 229.624918 
L 380.616913 228.488362 
L 381.912517 228.503497 
L 383.144922 228.308561 
L 384.314126 227.149592 
L 385.54653 227.839978 
L 386.747334 226.317355 
L 388.042939 225.911299 
L 389.306943 224.222301 
L 390.412947 223.429998 
L 391.708552 224.082818 
L 392.972556 224.222097 
L 394.331361 223.693405 
L 395.784966 220.547173 
L 396.92257 218.441326 
L 398.344575 216.842674 
L 402.010188 210.69377 
L 403.210992 209.81183 
L 405.770601 208.649186 
L 406.845005 207.537714 
L 408.203809 205.765601 
L 410.415817 204.003898 
L 411.806222 201.552556 
L 413.038626 198.468865 
L 414.334231 196.772772 
L 416.641039 190.183616 
L 417.968244 187.88772 
L 420.369852 184.209487 
L 421.665457 181.790285 
L 424.225065 173.02832 
L 425.362669 165.751213 
L 425.362669 165.751213 
" clip-path="url(#p2e158334c3)" style="fill: none; stroke: #1f77b4; stroke-width: 2.5; stroke-linecap: square"/>
   </g>
   <g id="line2d_15">
    <path d="M 58.011383 234.836668 
L 58.011383 238.838478 
L 58.011383 233.733521 
L 58.137783 232.585199 
L 58.738185 232.880156 
L 60.19179 234.92801 
L 62.435398 236.418618 
L 64.679006 237.041852 
L 66.669813 238.510639 
L 68.249819 238.08664 
L 71.820631 236.306138 
L 74.127439 234.077674 
L 75.359844 235.267331 
L 76.623848 236.11347 
L 77.856252 236.418914 
L 79.088657 236.901902 
L 80.321061 236.98183 
L 81.553465 236.919421 
L 82.81747 237.018662 
L 84.049874 237.804977 
L 85.408679 237.825391 
L 86.799084 236.040769 
L 88.126288 235.783179 
L 89.390293 234.375978 
L 90.622697 234.154885 
L 94.31991 235.455886 
L 95.552314 236.486818 
L 98.017123 238.035929 
L 99.281127 236.734554 
L 100.513532 236.779522 
L 101.745936 236.657523 
L 104.242345 238.76783 
L 105.474749 238.892097 
L 106.707153 239.642066 
L 110.341166 237.155972 
L 111.636771 235.627497 
L 112.837575 235.347945 
L 114.038379 234.472786 
L 115.302383 235.452519 
L 116.566388 234.870949 
L 118.999596 234.800655 
L 120.200401 233.609647 
L 121.401205 234.150804 
L 122.696809 235.120938 
L 123.897614 234.420387 
L 125.130018 235.485489 
L 126.394022 235.965141 
L 127.658027 237.085459 
L 129.048432 237.215425 
L 130.186036 238.148031 
L 131.41844 238.519569 
L 132.587644 237.66278 
L 133.883249 238.226867 
L 135.115653 238.22571 
L 136.379657 237.197026 
L 137.580462 236.919761 
L 138.844466 236.175842 
L 140.04527 235.108206 
L 141.309275 235.497554 
L 142.478479 236.665305 
L 143.710883 237.60341 
L 145.069688 237.68895 
L 146.238892 240.009953 
L 147.471296 239.877413 
L 149.999305 240.876247 
L 151.200109 240.522918 
L 152.432514 238.980296 
L 153.601718 238.410734 
L 154.897322 238.644365 
L 157.362131 236.684156 
L 158.594535 238.441031 
L 159.826939 237.552417 
L 161.027744 238.327839 
L 162.260148 239.361922 
L 163.492552 238.127606 
L 164.661756 237.904781 
L 165.925761 238.331801 
L 167.158165 238.517179 
L 168.358969 238.262199 
L 169.622974 238.25649 
L 170.886978 239.545124 
L 172.087782 239.446404 
L 173.288587 239.629566 
L 174.552591 239.265087 
L 175.879796 238.382125 
L 177.0806 238.550806 
L 178.407805 238.17976 
L 179.545408 237.015559 
L 180.777813 236.448387 
L 182.010217 235.587238 
L 183.242621 235.053894 
L 184.443426 234.349025 
L 185.70743 233.979447 
L 186.971435 234.111713 
L 188.172239 234.572856 
L 189.341443 234.850816 
L 190.573847 234.512798 
L 191.837852 234.576217 
L 193.070256 234.039466 
L 194.27106 234.252125 
L 196.735869 236.237857 
L 197.999873 236.734156 
L 200.433082 238.349484 
L 202.86629 237.570427 
L 204.161895 237.540619 
L 205.362699 236.883962 
L 206.595103 237.534236 
L 207.859108 238.053923 
L 209.059912 237.917946 
L 211.46152 236.68888 
L 212.725525 236.054591 
L 213.957929 234.775159 
L 215.158733 234.354925 
L 216.454338 235.343853 
L 217.686742 236.648054 
L 218.887546 236.238587 
L 220.119951 236.262263 
L 221.352355 235.933476 
L 222.553159 236.529846 
L 223.817164 234.896323 
L 226.281972 232.454322 
L 227.482776 232.776915 
L 228.715181 234.902645 
L 229.979185 236.061719 
L 231.179989 236.305724 
L 232.380794 237.300395 
L 233.644798 237.466318 
L 234.845602 238.381194 
L 236.014806 236.580323 
L 237.278811 235.801309 
L 238.606015 234.148309 
L 239.80682 234.022798 
L 241.007624 234.624911 
L 242.240028 233.807155 
L 244.704837 234.111016 
L 245.937241 234.842621 
L 247.138045 236.49784 
L 248.40205 237.377708 
L 249.666054 239.575362 
L 252.067662 240.280261 
L 253.394867 240.324871 
L 254.532471 238.849 
L 255.764875 237.919732 
L 257.06048 237.086325 
L 258.261284 236.786639 
L 259.462088 236.694542 
L 260.662893 236.433294 
L 261.990097 236.918534 
L 263.127701 236.165837 
L 264.391706 236.368451 
L 265.62411 236.830315 
L 266.856514 236.947952 
L 268.120519 237.253883 
L 269.416123 237.73507 
L 270.648528 237.859851 
L 271.944132 237.572809 
L 273.113336 236.926465 
L 275.609745 235.893687 
L 276.778949 235.920703 
L 278.042953 236.580621 
L 279.243758 236.958589 
L 280.507762 237.139814 
L 282.909371 236.599999 
L 284.173375 237.049544 
L 285.405779 237.856311 
L 286.638184 236.535462 
L 289.008192 236.498282 
L 290.303796 237.022091 
L 291.504601 236.882675 
L 292.768605 236.214826 
L 294.001009 235.887913 
L 295.233414 236.300149 
L 296.529018 236.945873 
L 297.666622 236.841331 
L 298.899027 235.571076 
L 300.163031 235.621126 
L 301.363835 235.403453 
L 305.061048 234.142806 
L 306.230252 234.07136 
L 307.494257 234.236043 
L 308.726661 234.622892 
L 309.959065 234.298557 
L 311.128269 234.321275 
L 312.360674 234.481776 
L 313.624678 234.978714 
L 314.888683 234.427008 
L 316.121087 234.46407 
L 317.290291 235.083694 
L 318.522695 236.248149 
L 320.987504 234.773053 
L 322.219908 233.055904 
L 323.483913 232.696223 
L 324.653117 231.743214 
L 325.948721 231.876182 
L 327.149525 230.994889 
L 329.582734 232.677712 
L 330.973139 232.797535 
L 332.395144 231.975614 
L 333.627548 231.64923 
L 334.923153 230.881634 
L 336.218757 231.514438 
L 337.387961 231.166214 
L 338.683566 231.394502 
L 341.148374 232.344577 
L 342.317579 231.891416 
L 343.581583 231.121212 
L 344.845587 231.369096 
L 347.247196 231.55214 
L 348.448 231.363441 
L 349.712004 231.394339 
L 350.912809 230.510677 
L 352.208413 230.813298 
L 353.409217 230.867244 
L 354.546821 231.113861 
L 357.07483 229.415137 
L 358.307235 229.138417 
L 359.571239 229.02721 
L 360.677243 227.879931 
L 362.004448 226.841108 
L 363.236852 226.370015 
L 365.70166 227.332507 
L 366.902465 226.877684 
L 368.166469 225.87347 
L 369.367273 224.702968 
L 370.568078 224.943309 
L 371.926882 224.785547 
L 373.096086 223.506993 
L 374.328491 222.457723 
L 375.497695 222.931365 
L 376.698499 223.827957 
L 377.994104 223.98794 
L 379.226508 223.59039 
L 380.490512 223.843889 
L 381.628116 223.567537 
L 382.892121 223.539026 
L 384.124525 221.071996 
L 385.325329 219.35124 
L 386.399733 217.56384 
L 387.726938 217.07223 
L 388.990942 218.193787 
L 390.160146 216.670704 
L 392.561755 214.856018 
L 393.952159 213.73782 
L 395.405765 212.254645 
L 396.796169 209.85348 
L 399.324178 208.2648 
L 400.493382 208.42182 
L 401.757387 208.27585 
L 402.894991 206.671779 
L 404.127395 205.303089 
L 405.4546 203.347037 
L 406.687004 202.086663 
L 407.793008 199.925146 
L 409.120213 196.858464 
L 410.226216 194.618487 
L 411.521821 193.824882 
L 414.01823 188.72208 
L 415.124234 188.219892 
L 416.483038 185.553791 
L 417.589042 182.156137 
L 418.916247 179.364506 
L 421.412656 172.566998 
L 425.173069 161.050916 
L 426.026272 156.862816 
L 426.026272 156.862816 
" clip-path="url(#p2e158334c3)" style="fill: none; stroke: #0033ff; stroke-width: 2.5; stroke-linecap: square"/>
   </g>
   <g id="line2d_16">
    <path d="M 56.115376 286.600496 
L 56.178576 285.345159 
L 56.178576 286.20714 
L 56.273377 285.920119 
L 56.778979 285.419355 
L 58.295784 285.498793 
L 64.710606 285.098362 
L 66.353812 285.150131 
L 68.818621 283.889292 
L 69.924625 284.528775 
L 72.326233 285.154881 
L 73.558637 285.906158 
L 74.759441 286.027151 
L 76.023446 285.895642 
L 77.28745 285.61276 
L 78.519855 285.535361 
L 79.689059 285.205099 
L 80.921463 285.191293 
L 82.185468 285.71249 
L 83.386272 285.435925 
L 84.745076 285.668293 
L 86.072281 286.157658 
L 87.462686 285.711724 
L 89.990695 285.448042 
L 91.254699 285.944664 
L 94.920312 286.186202 
L 96.184317 285.824301 
L 97.416721 285.741763 
L 98.680725 286.247888 
L 99.881529 286.303468 
L 101.113934 286.492088 
L 102.346338 286.837653 
L 104.842747 287.0674 
L 106.075151 287.12128 
L 107.275955 287.057026 
L 108.445159 286.518672 
L 109.772364 286.468977 
L 112.173973 285.478748 
L 113.406377 285.543472 
L 114.607181 285.301555 
L 115.934386 285.180951 
L 117.13519 285.861397 
L 119.631599 286.369268 
L 120.832403 286.666622 
L 122.001607 286.717184 
L 123.297211 286.166584 
L 124.466416 286.11698 
L 125.69882 286.802559 
L 128.321629 286.012294 
L 129.554033 286.533103 
L 130.818038 286.077862 
L 131.987242 286.339203 
L 134.452051 286.521655 
L 135.716055 286.166518 
L 136.980059 286.095392 
L 138.212464 286.434141 
L 140.677272 284.645536 
L 141.878077 284.727226 
L 143.078881 284.47375 
L 145.512089 285.129836 
L 146.870894 285.812005 
L 148.103298 286.024101 
L 149.304103 286.636012 
L 150.568107 286.87676 
L 151.768911 286.186298 
L 153.032916 286.163459 
L 154.26532 286.019873 
L 155.497724 286.12376 
L 157.867733 285.943417 
L 160.427342 285.439785 
L 161.628146 285.525358 
L 162.79735 285.238116 
L 164.061354 285.177343 
L 165.293759 285.480605 
L 166.557763 285.392192 
L 167.695367 285.919466 
L 168.990972 285.782303 
L 170.191776 285.429162 
L 171.45578 284.91279 
L 172.688184 284.776846 
L 173.888989 284.823042 
L 176.416998 284.030419 
L 177.681002 284.41073 
L 178.881806 283.832019 
L 180.08261 284.211115 
L 181.315015 283.851155 
L 182.579019 283.795674 
L 183.843024 284.031748 
L 184.980628 284.357622 
L 186.181432 284.318817 
L 187.477036 283.70807 
L 189.878645 283.242932 
L 191.205849 282.205588 
L 192.406654 282.500541 
L 193.702258 282.681135 
L 194.871462 282.998223 
L 196.103866 283.559527 
L 197.304671 283.641418 
L 199.83268 282.912285 
L 201.065084 283.057996 
L 202.297488 282.770002 
L 203.529893 283.071403 
L 204.730697 283.905285 
L 205.994701 283.779196 
L 207.227105 283.777029 
L 208.45951 283.462404 
L 209.660314 282.825596 
L 210.829518 281.821564 
L 212.061922 282.13728 
L 213.325927 282.180501 
L 214.558331 282.657624 
L 217.02314 283.835787 
L 218.255544 283.45681 
L 219.456348 283.860595 
L 221.921157 283.643169 
L 223.185161 283.682494 
L 224.417566 283.938881 
L 225.61837 283.723003 
L 226.850774 283.7238 
L 228.083178 283.221998 
L 229.315583 283.031487 
L 230.516387 282.385 
L 232.981196 282.701943 
L 234.182 283.053327 
L 235.446004 283.924848 
L 236.678409 284.134134 
L 237.847613 284.617594 
L 240.344021 284.089056 
L 241.608026 284.040679 
L 242.84043 283.798388 
L 244.041234 283.702038 
L 245.273639 283.791463 
L 246.506043 284.237736 
L 247.738447 284.516387 
L 250.203256 284.107833 
L 251.46726 283.516702 
L 252.668065 283.257512 
L 253.868869 282.818544 
L 255.132873 283.051696 
L 258.830086 282.302621 
L 261.294895 282.008735 
L 262.495699 281.773419 
L 263.759703 282.133222 
L 264.992108 282.081401 
L 266.192912 282.781577 
L 267.456916 282.912091 
L 268.752521 283.32949 
L 269.984925 282.805516 
L 271.21733 281.948009 
L 273.682138 281.593562 
L 274.946143 281.804887 
L 277.379351 282.629498 
L 278.611755 283.461607 
L 279.84416 283.598924 
L 281.044964 284.157397 
L 282.277368 283.0876 
L 283.541373 282.422695 
L 286.006181 281.838636 
L 287.238586 282.099018 
L 288.47099 282.531197 
L 289.703394 282.519697 
L 292.136603 282.821682 
L 293.400607 283.137542 
L 294.569811 282.747428 
L 297.03462 282.645641 
L 298.298624 282.115221 
L 299.499429 281.848893 
L 300.731833 282.111874 
L 301.932637 280.914309 
L 304.397446 280.377493 
L 306.893855 281.609571 
L 308.063059 281.316282 
L 309.295463 281.587574 
L 311.791872 280.871923 
L 314.22508 280.906364 
L 315.425884 280.803985 
L 316.626689 280.477117 
L 317.922293 280.896184 
L 319.123097 281.47318 
L 320.292301 281.1744 
L 321.556306 281.537218 
L 322.72551 281.560975 
L 324.021115 281.13567 
L 326.485923 280.91563 
L 327.655127 279.764157 
L 328.950732 279.592532 
L 330.214736 279.10325 
L 331.668341 279.211492 
L 333.027146 279.779097 
L 335.555155 280.042266 
L 336.819159 279.817909 
L 338.051564 279.751989 
L 339.283968 278.699137 
L 340.421572 278.450116 
L 342.949581 277.574826 
L 344.118785 277.096487 
L 345.44599 277.237639 
L 346.615194 277.203158 
L 347.784398 277.039228 
L 349.048402 276.670829 
L 350.217606 276.889722 
L 351.513211 276.010352 
L 353.946419 275.302947 
L 355.273624 275.193937 
L 356.442828 274.607004 
L 357.643632 274.965228 
L 358.907637 275.108668 
L 360.108441 274.928519 
L 361.340845 274.972727 
L 362.510049 274.478294 
L 363.805654 273.205132 
L 366.238862 271.761503 
L 367.502867 270.145175 
L 368.766871 269.237113 
L 369.904475 269.162122 
L 371.16848 268.919492 
L 372.495684 269.371157 
L 373.570088 268.957635 
L 374.960493 269.010909 
L 376.066497 269.446967 
L 377.267301 268.681639 
L 378.562906 268.078171 
L 379.76371 267.372348 
L 380.964514 266.438744 
L 382.260118 266.349396 
L 383.397722 266.013698 
L 384.598527 264.24684 
L 385.925731 262.897421 
L 387.031735 262.92656 
L 388.32734 262.375663 
L 389.591344 262.296891 
L 390.728948 262.50931 
L 391.992953 261.818421 
L 393.193757 260.182652 
L 394.647362 258.589209 
L 396.100967 257.256257 
L 397.270171 254.481829 
L 399.82978 252.32082 
L 401.125385 251.332881 
L 402.326189 250.978723 
L 404.759397 248.431321 
L 406.055002 246.641359 
L 407.129406 244.744904 
L 409.594214 241.92352 
L 410.984619 240.090208 
L 411.995823 237.175932 
L 413.291427 234.001693 
L 415.693036 229.08783 
L 417.178241 225.124529 
L 418.221044 221.497775 
L 419.548249 220.230276 
L 420.717453 218.087363 
L 421.886657 215.296559 
L 423.119062 211.443763 
L 424.446266 206.114873 
L 425.58387 198.895787 
L 425.58387 198.895787 
" clip-path="url(#p2e158334c3)" style="fill: none; stroke: #ff7f0e; stroke-width: 2.5; stroke-linecap: square"/>
   </g>
   <g id="line2d_17">
    <path d="M 66.227412 137.150724 
L 66.227412 149.590631 
L 66.227412 142.339326 
L 66.827814 141.341807 
L 68.407819 141.8861 
L 70.651427 140.483931 
L 72.926635 140.452382 
L 74.917442 139.286261 
L 76.465847 141.208237 
L 77.729852 144.040051 
L 78.930656 144.952644 
L 80.00506 145.142833 
L 81.237464 146.964378 
L 82.375068 146.752808 
L 83.639073 147.601564 
L 84.966277 145.530417 
L 86.261882 144.752081 
L 88.884691 147.542792 
L 90.148695 148.704194 
L 91.4443 149.008489 
L 92.613504 148.837118 
L 93.877508 149.847762 
L 95.078313 147.314965 
L 96.342317 147.841048 
L 97.606322 146.285689 
L 98.838726 146.109619 
L 100.00793 147.410509 
L 101.240334 146.630563 
L 102.504339 147.551137 
L 103.799943 148.956887 
L 105.063948 149.902193 
L 106.201552 150.975058 
L 107.528756 150.739922 
L 108.761161 151.250534 
L 109.993565 149.670516 
L 111.225969 150.203098 
L 113.627578 150.213103 
L 114.923182 150.250014 
L 116.123986 151.073359 
L 117.387991 151.150788 
L 118.588795 151.055629 
L 119.852799 149.841705 
L 121.053604 148.880474 
L 122.254408 150.132235 
L 123.518412 150.329957 
L 124.750817 149.274049 
L 127.310426 149.56262 
L 128.57443 150.086126 
L 129.838434 151.758163 
L 130.976038 152.226735 
L 132.240043 151.821307 
L 133.472447 153.119505 
L 134.704851 155.010418 
L 135.905656 154.253299 
L 137.16966 152.896954 
L 138.402064 153.116335 
L 139.634469 151.245534 
L 140.835273 152.044821 
L 142.067677 153.014972 
L 144.595686 155.45422 
L 145.82809 155.649593 
L 147.060495 156.075498 
L 148.324499 154.854176 
L 149.525303 152.555321 
L 150.789308 152.141429 
L 152.021712 149.451556 
L 153.254116 149.621752 
L 154.486521 148.672062 
L 155.655725 150.659499 
L 156.919729 150.959 
L 158.152134 151.017615 
L 159.416138 151.573299 
L 160.616942 149.715425 
L 161.849347 147.188219 
L 163.081751 147.237632 
L 164.314155 145.652211 
L 165.514959 145.729341 
L 166.778964 145.464121 
L 169.338573 149.208741 
L 170.507777 151.470322 
L 171.708581 154.046012 
L 172.940985 152.405397 
L 174.20499 152.592534 
L 176.732999 148.635221 
L 177.902203 146.625398 
L 179.134607 145.259 
L 180.335411 145.384654 
L 181.631016 146.101111 
L 182.86342 145.982473 
L 184.127425 147.730045 
L 185.296629 146.871974 
L 186.529033 148.384193 
L 187.761437 144.950566 
L 188.962241 145.848527 
L 191.45865 142.631546 
L 192.659454 142.039549 
L 193.891859 143.160646 
L 195.124263 140.664552 
L 196.356667 140.659537 
L 197.589072 142.143126 
L 198.853076 142.590714 
L 200.08548 142.312217 
L 201.286285 143.808719 
L 202.518689 142.40493 
L 203.751093 139.664562 
L 204.983498 140.603854 
L 206.184302 140.57693 
L 207.448306 138.16745 
L 208.680711 138.327658 
L 209.913115 139.557422 
L 211.113919 139.575912 
L 213.547128 140.121111 
L 214.811132 140.065984 
L 216.011936 138.968886 
L 217.275941 140.159396 
L 218.476745 139.366883 
L 219.740749 139.986841 
L 220.973154 138.667923 
L 222.205558 136.533166 
L 223.406362 137.567475 
L 224.638766 138.9185 
L 225.839571 139.373242 
L 227.071975 138.38403 
L 229.568384 136.88799 
L 230.737588 135.532302 
L 231.969992 135.173905 
L 233.265597 131.906492 
L 234.403201 129.703681 
L 235.667205 131.029571 
L 236.899609 133.690591 
L 238.132014 134.389654 
L 239.332818 134.772304 
L 240.533622 136.838095 
L 241.734426 138.100178 
L 242.966831 139.011089 
L 244.294035 140.253298 
L 245.494839 138.343961 
L 246.727244 138.312764 
L 247.928048 137.113083 
L 249.192052 136.733134 
L 250.424457 135.415407 
L 252.952466 132.159315 
L 254.18487 131.28789 
L 255.417274 131.210971 
L 256.618078 130.2259 
L 257.818883 130.116894 
L 259.082887 131.610063 
L 260.346891 129.975163 
L 261.516096 130.355066 
L 262.7801 130.064957 
L 264.044104 129.959636 
L 265.181708 128.680264 
L 266.414113 128.903317 
L 267.709717 128.288321 
L 268.973722 125.664726 
L 270.269326 125.869588 
L 271.47013 125.057551 
L 272.734135 123.722213 
L 273.934939 123.541483 
L 275.198944 123.930286 
L 276.462948 124.953728 
L 277.632152 126.222405 
L 278.896156 127.341505 
L 280.065361 127.519174 
L 282.530169 126.939802 
L 283.762574 125.086685 
L 285.058178 124.531485 
L 286.290582 123.044398 
L 287.459786 123.344756 
L 288.755391 123.437135 
L 289.987795 125.17213 
L 291.1886 125.233855 
L 292.389404 126.685104 
L 293.590208 127.007609 
L 294.854212 125.568534 
L 296.055017 123.978161 
L 299.75223 122.359336 
L 301.016234 124.597176 
L 302.217038 125.09293 
L 303.481043 125.038474 
L 304.681847 126.021013 
L 305.882651 126.361358 
L 307.083455 124.433577 
L 308.37906 125.693731 
L 309.548264 126.463732 
L 310.812268 126.226551 
L 312.013072 126.129385 
L 313.213877 127.617551 
L 314.446281 126.945902 
L 315.678685 126.107025 
L 316.97429 124.264428 
L 318.143494 124.574347 
L 319.407498 122.535702 
L 320.608303 122.705165 
L 321.840707 122.19765 
L 323.104711 121.020262 
L 324.305516 121.138075 
L 325.50632 121.005457 
L 327.971128 122.732315 
L 329.140332 122.490037 
L 330.435937 123.423952 
L 331.984342 122.934343 
L 333.216747 122.368036 
L 334.575551 123.971055 
L 335.807956 124.429274 
L 337.04036 124.49284 
L 338.272764 124.329087 
L 339.536769 124.388584 
L 340.674373 124.665025 
L 341.969977 123.17361 
L 343.170782 122.004066 
L 344.339986 119.805197 
L 345.63559 119.467748 
L 346.867995 119.395732 
L 348.100399 118.340405 
L 349.332803 119.306228 
L 350.470407 118.924753 
L 351.766012 118.691186 
L 353.061616 118.580847 
L 354.16762 118.820352 
L 355.463225 118.459276 
L 356.664029 115.829597 
L 357.928033 115.761289 
L 359.160438 114.053367 
L 360.392842 111.563429 
L 361.656846 112.425647 
L 362.79445 111.559184 
L 364.026855 112.182837 
L 365.259259 115.33713 
L 366.554863 114.671872 
L 367.882068 113.436883 
L 368.988072 112.947916 
L 370.157276 113.437634 
L 371.421281 112.857251 
L 372.685285 111.667878 
L 373.917689 112.637381 
L 375.086893 112.02734 
L 376.382498 112.57108 
L 377.520102 112.483149 
L 378.720906 107.544706 
L 381.185715 106.741275 
L 382.512919 104.863206 
L 383.682123 104.383276 
L 384.851328 103.320201 
L 386.115332 103.766296 
L 387.442537 103.831931 
L 388.580141 104.851333 
L 389.780945 103.442836 
L 391.013349 102.455363 
L 393.541358 100.084048 
L 394.963363 95.496714 
L 396.353768 91.678473 
L 397.649372 90.427746 
L 398.881777 88.834834 
L 400.019381 88.745643 
L 401.409786 86.688204 
L 402.54739 85.411344 
L 403.748194 84.584842 
L 404.917398 82.800756 
L 406.307803 82.235573 
L 408.709411 76.321079 
L 409.847015 76.78282 
L 411.14262 72.967649 
L 412.438224 70.127076 
L 413.639028 63.949708 
L 416.103837 59.048141 
L 417.241441 54.6386 
L 418.631846 54.746769 
L 419.80105 53.02531 
L 420.970254 52.231509 
L 422.234258 50.511877 
L 423.403463 47.195989 
L 424.762267 41.613424 
L 425.741871 33.093759 
L 425.741871 33.093759 
" clip-path="url(#p2e158334c3)" style="fill: none; stroke: #ff0000; stroke-width: 2.5; stroke-linecap: square"/>
   </g>
   <g id="patch_3">
    <path d="M 47.298945 299.822656 
L 47.298945 20.392383 
" style="fill: none; stroke: #000000; stroke-width: 1.5; stroke-linejoin: miter; stroke-linecap: square"/>
   </g>
   <g id="patch_4">
    <path d="M 47.298945 299.822656 
L 426.500273 299.822656 
" style="fill: none; stroke: #000000; stroke-width: 1.5; stroke-linejoin: miter; stroke-linecap: square"/>
   </g>
   <g id="legend_1">
    <g id="line2d_18">
     <path d="M 58.098945 35.728711 
L 70.098945 35.728711 
L 82.098945 35.728711 
" style="fill: none; stroke: #000000; stroke-width: 2.5; stroke-linecap: square"/>
    </g>
    <g id="text_16">
     <!-- vacuum -->
     <g transform="translate(91.698945 39.928711) scale(0.12 -0.12)">
      <defs>
       <path id="ArialMT-59" d="M 1344 0 
L 81 3319 
L 675 3319 
L 1388 1331 
Q 1503 1009 1600 663 
Q 1675 925 1809 1294 
L 2547 3319 
L 3125 3319 
L 1869 0 
L 1344 0 
z
" transform="scale(0.015625)"/>
       <path id="ArialMT-46" d="M 2588 1216 
L 3141 1144 
Q 3050 572 2676 248 
Q 2303 -75 1759 -75 
Q 1078 -75 664 370 
Q 250 816 250 1647 
Q 250 2184 428 2587 
Q 606 2991 970 3192 
Q 1334 3394 1763 3394 
Q 2303 3394 2647 3120 
Q 2991 2847 3088 2344 
L 2541 2259 
Q 2463 2594 2264 2762 
Q 2066 2931 1784 2931 
Q 1359 2931 1093 2626 
Q 828 2322 828 1663 
Q 828 994 1084 691 
Q 1341 388 1753 388 
Q 2084 388 2306 591 
Q 2528 794 2588 1216 
z
" transform="scale(0.015625)"/>
      </defs>
      <use xlink:href="#ArialMT-59"/>
      <use xlink:href="#ArialMT-44" transform="translate(50 0)"/>
      <use xlink:href="#ArialMT-46" transform="translate(105.609375 0)"/>
      <use xlink:href="#ArialMT-58" transform="translate(155.609375 0)"/>
      <use xlink:href="#ArialMT-58" transform="translate(211.21875 0)"/>
      <use xlink:href="#ArialMT-50" transform="translate(266.828125 0)"/>
     </g>
    </g>
    <g id="line2d_19">
     <path d="M 58.098945 52.99043 
L 70.098945 52.99043 
L 82.098945 52.99043 
" style="fill: none; stroke: #1f77b4; stroke-width: 2.5; stroke-linecap: square"/>
    </g>
    <g id="text_17">
     <!-- 1h -->
     <g transform="translate(91.698945 57.19043) scale(0.12 -0.12)">
      <defs>
       <path id="ArialMT-4b" d="M 422 0 
L 422 4581 
L 984 4581 
L 984 2938 
Q 1378 3394 1978 3394 
Q 2347 3394 2619 3248 
Q 2891 3103 3008 2847 
Q 3125 2591 3125 2103 
L 3125 0 
L 2563 0 
L 2563 2103 
Q 2563 2525 2380 2717 
Q 2197 2909 1863 2909 
Q 1613 2909 1392 2779 
Q 1172 2650 1078 2428 
Q 984 2206 984 1816 
L 984 0 
L 422 0 
z
" transform="scale(0.015625)"/>
      </defs>
      <use xlink:href="#ArialMT-14"/>
      <use xlink:href="#ArialMT-4b" transform="translate(55.609375 0)"/>
     </g>
    </g>
    <g id="line2d_20">
     <path d="M 58.098945 70.252148 
L 70.098945 70.252148 
L 82.098945 70.252148 
" style="fill: none; stroke: #0033ff; stroke-width: 2.5; stroke-linecap: square"/>
    </g>
    <g id="text_18">
     <!-- 2h -->
     <g transform="translate(91.698945 74.452148) scale(0.12 -0.12)">
      <use xlink:href="#ArialMT-15"/>
      <use xlink:href="#ArialMT-4b" transform="translate(55.609375 0)"/>
     </g>
    </g>
    <g id="line2d_21">
     <path d="M 58.098945 87.513867 
L 70.098945 87.513867 
L 82.098945 87.513867 
" style="fill: none; stroke: #ff7f0e; stroke-width: 2.5; stroke-linecap: square"/>
    </g>
    <g id="text_19">
     <!-- 4h -->
     <g transform="translate(91.698945 91.713867) scale(0.12 -0.12)">
      <use xlink:href="#ArialMT-17"/>
      <use xlink:href="#ArialMT-4b" transform="translate(55.609375 0)"/>
     </g>
    </g>
    <g id="line2d_22">
     <path d="M 58.098945 104.775586 
L 70.098945 104.775586 
L 82.098945 104.775586 
" style="fill: none; stroke: #ff0000; stroke-width: 2.5; stroke-linecap: square"/>
    </g>
    <g id="text_20">
     <!-- first -->
     <g transform="translate(91.698945 108.975586) scale(0.12 -0.12)">
      <defs>
       <path id="ArialMT-49" d="M 556 0 
L 556 2881 
L 59 2881 
L 59 3319 
L 556 3319 
L 556 3672 
Q 556 4006 616 4169 
Q 697 4388 901 4523 
Q 1106 4659 1475 4659 
Q 1713 4659 2000 4603 
L 1916 4113 
Q 1741 4144 1584 4144 
Q 1328 4144 1222 4034 
Q 1116 3925 1116 3625 
L 1116 3319 
L 1763 3319 
L 1763 2881 
L 1116 2881 
L 1116 0 
L 556 0 
z
" transform="scale(0.015625)"/>
       <path id="ArialMT-4c" d="M 425 3934 
L 425 4581 
L 988 4581 
L 988 3934 
L 425 3934 
z
M 425 0 
L 425 3319 
L 988 3319 
L 988 0 
L 425 0 
z
" transform="scale(0.015625)"/>
       <path id="ArialMT-56" d="M 197 991 
L 753 1078 
Q 800 744 1014 566 
Q 1228 388 1613 388 
Q 2000 388 2187 545 
Q 2375 703 2375 916 
Q 2375 1106 2209 1216 
Q 2094 1291 1634 1406 
Q 1016 1563 777 1677 
Q 538 1791 414 1992 
Q 291 2194 291 2438 
Q 291 2659 392 2848 
Q 494 3038 669 3163 
Q 800 3259 1026 3326 
Q 1253 3394 1513 3394 
Q 1903 3394 2198 3281 
Q 2494 3169 2634 2976 
Q 2775 2784 2828 2463 
L 2278 2388 
Q 2241 2644 2061 2787 
Q 1881 2931 1553 2931 
Q 1166 2931 1000 2803 
Q 834 2675 834 2503 
Q 834 2394 903 2306 
Q 972 2216 1119 2156 
Q 1203 2125 1616 2013 
Q 2213 1853 2448 1751 
Q 2684 1650 2818 1456 
Q 2953 1263 2953 975 
Q 2953 694 2789 445 
Q 2625 197 2315 61 
Q 2006 -75 1616 -75 
Q 969 -75 630 194 
Q 291 463 197 991 
z
" transform="scale(0.015625)"/>
      </defs>
      <use xlink:href="#ArialMT-49"/>
      <use xlink:href="#ArialMT-4c" transform="translate(27.78125 0)"/>
      <use xlink:href="#ArialMT-55" transform="translate(50 0)"/>
      <use xlink:href="#ArialMT-56" transform="translate(83.296875 0)"/>
      <use xlink:href="#ArialMT-57" transform="translate(133.296875 0)"/>
     </g>
    </g>
   </g>
  </g>
 </g>
 <defs>
  <clipPath id="p2e158334c3">
   <rect x="47.298945" y="20.392383" width="379.201328" height="279.430273"/>
  </clipPath>
 </defs>
</svg>
