<?xml version="1.0" encoding="utf-8" standalone="no"?>
<!DOCTYPE svg PUBLIC "-//W3C//DTD SVG 1.1//EN"
  "http://www.w3.org/Graphics/SVG/1.1/DTD/svg11.dtd">
<svg xmlns:xlink="http://www.w3.org/1999/xlink" width="449.116211pt" height="340.800273pt" viewBox="0 0 449.116211 340.800273" xmlns="http://www.w3.org/2000/svg" version="1.1">
 <metadata>
  <rdf:RDF xmlns:dc="http://purl.org/dc/elements/1.1/" xmlns:cc="http://creativecommons.org/ns#" xmlns:rdf="http://www.w3.org/1999/02/22-rdf-syntax-ns#">
   <cc:Work>
    <dc:type rdf:resource="http://purl.org/dc/dcmitype/StillImage"/>
    <dc:date>2026-07-09T17:08:10.898311</dc:date>
    <dc:format>image/svg+xml</dc:format>
    <dc:creator>
     <cc:Agent>
      <dc:title>Matplotlib v3.11.0, https://matplotlib.org/</dc:title>
     </cc:Agent>
    </dc:creator>
   </cc:Work>
  </rdf:RDF>
 </metadata>
 <defs>
  <style type="text/css">*{stroke-linejoin: round; stroke-linecap: butt}</style>
 </defs>
 <g id="figure_1">
  <g id="patch_1">
   <path d="M 0 340.800273 
L 449.116211 340.800273 
L 449.116211 0 
L 0 0 
z
" style="fill: #ffffff"/>
  </g>
  <g id="axes_1">
   <g id="patch_2">
    <path d="M 35.624258 299.822656 
L 426.345586 299.822656 
L 426.345586 20.392383 
L 35.624258 20.392383 
z
" style="fill: #ffffff"/>
   </g>
   <g id="matplotlib.axis_1">
    <g id="xtick_1">
     <g id="line2d_1">
      <defs>
       <path id="m5c27e8f0ac" d="M 0 0 
L 0 -6 
" style="stroke: #000000; stroke-width: 1.5"/>
      </defs>
      <g>
       <use xlink:href="#m5c27e8f0ac" x="35.624258" y="299.822656" style="stroke: #000000; stroke-width: 1.5"/>
      </g>
     </g>
     <g id="text_1">
      <!-- 0 -->
      <g transform="translate(31.731602 313.515039) scale(0.14 -0.14)">
       <defs>
        <path id="ArialMT-13" d="M 266 2259 
Q 266 3072 433 3567 
Q 600 4063 929 4331 
Q 1259 4600 1759 4600 
Q 2128 4600 2406 4451 
Q 2684 4303 2865 4023 
Q 3047 3744 3150 3342 
Q 3253 2941 3253 2259 
Q 3253 1453 3087 958 
Q 2922 463 2592 192 
Q 2263 -78 1759 -78 
Q 1097 -78 719 397 
Q 266 969 266 2259 
z
M 844 2259 
Q 844 1131 1108 757 
Q 1372 384 1759 384 
Q 2147 384 2411 759 
Q 2675 1134 2675 2259 
Q 2675 3391 2411 3762 
Q 2147 4134 1753 4134 
Q 1366 4134 1134 3806 
Q 844 3388 844 2259 
z
" transform="scale(0.015625)"/>
       </defs>
       <use xlink:href="#ArialMT-13"/>
      </g>
     </g>
    </g>
    <g id="xtick_2">
     <g id="line2d_2">
      <g>
       <use xlink:href="#m5c27e8f0ac" x="100.744479" y="299.822656" style="stroke: #000000; stroke-width: 1.5"/>
      </g>
     </g>
     <g id="text_2">
      <!-- 200 -->
      <g transform="translate(89.06651 313.515039) scale(0.14 -0.14)">
       <defs>
        <path id="ArialMT-15" d="M 3222 541 
L 3222 0 
L 194 0 
Q 188 203 259 391 
Q 375 700 629 1000 
Q 884 1300 1366 1694 
Q 2113 2306 2375 2664 
Q 2638 3022 2638 3341 
Q 2638 3675 2398 3904 
Q 2159 4134 1775 4134 
Q 1369 4134 1125 3890 
Q 881 3647 878 3216 
L 300 3275 
Q 359 3922 746 4261 
Q 1134 4600 1788 4600 
Q 2447 4600 2831 4234 
Q 3216 3869 3216 3328 
Q 3216 3053 3103 2787 
Q 2991 2522 2730 2228 
Q 2469 1934 1863 1422 
Q 1356 997 1212 845 
Q 1069 694 975 541 
L 3222 541 
z
" transform="scale(0.015625)"/>
       </defs>
       <use xlink:href="#ArialMT-15"/>
       <use xlink:href="#ArialMT-13" transform="translate(55.609375 0)"/>
       <use xlink:href="#ArialMT-13" transform="translate(111.21875 0)"/>
      </g>
     </g>
    </g>
    <g id="xtick_3">
     <g id="line2d_3">
      <g>
       <use xlink:href="#m5c27e8f0ac" x="165.864701" y="299.822656" style="stroke: #000000; stroke-width: 1.5"/>
      </g>
     </g>
     <g id="text_3">
      <!-- 400 -->
      <g transform="translate(154.186732 313.515039) scale(0.14 -0.14)">
       <defs>
        <path id="ArialMT-17" d="M 2069 0 
L 2069 1097 
L 81 1097 
L 81 1613 
L 2172 4581 
L 2631 4581 
L 2631 1613 
L 3250 1613 
L 3250 1097 
L 2631 1097 
L 2631 0 
L 2069 0 
z
M 2069 1613 
L 2069 3678 
L 634 1613 
L 2069 1613 
z
" transform="scale(0.015625)"/>
       </defs>
       <use xlink:href="#ArialMT-17"/>
       <use xlink:href="#ArialMT-13" transform="translate(55.609375 0)"/>
       <use xlink:href="#ArialMT-13" transform="translate(111.21875 0)"/>
      </g>
     </g>
    </g>
    <g id="xtick_4">
     <g id="line2d_4">
      <g>
       <use xlink:href="#m5c27e8f0ac" x="230.984922" y="299.822656" style="stroke: #000000; stroke-width: 1.5"/>
      </g>
     </g>
     <g id="text_4">
      <!-- 600 -->
      <g transform="translate(219.306953 313.515039) scale(0.14 -0.14)">
       <defs>
        <path id="ArialMT-19" d="M 3184 3459 
L 2625 3416 
Q 2550 3747 2413 3897 
Q 2184 4138 1850 4138 
Q 1581 4138 1378 3988 
Q 1113 3794 959 3422 
Q 806 3050 800 2363 
Q 1003 2672 1297 2822 
Q 1591 2972 1913 2972 
Q 2475 2972 2870 2558 
Q 3266 2144 3266 1488 
Q 3266 1056 3080 686 
Q 2894 316 2569 119 
Q 2244 -78 1831 -78 
Q 1128 -78 684 439 
Q 241 956 241 2144 
Q 241 3472 731 4075 
Q 1159 4600 1884 4600 
Q 2425 4600 2770 4297 
Q 3116 3994 3184 3459 
z
M 888 1484 
Q 888 1194 1011 928 
Q 1134 663 1356 523 
Q 1578 384 1822 384 
Q 2178 384 2434 671 
Q 2691 959 2691 1453 
Q 2691 1928 2437 2201 
Q 2184 2475 1800 2475 
Q 1419 2475 1153 2201 
Q 888 1928 888 1484 
z
" transform="scale(0.015625)"/>
       </defs>
       <use xlink:href="#ArialMT-19"/>
       <use xlink:href="#ArialMT-13" transform="translate(55.609375 0)"/>
       <use xlink:href="#ArialMT-13" transform="translate(111.21875 0)"/>
      </g>
     </g>
    </g>
    <g id="xtick_5">
     <g id="line2d_5">
      <g>
       <use xlink:href="#m5c27e8f0ac" x="296.105143" y="299.822656" style="stroke: #000000; stroke-width: 1.5"/>
      </g>
     </g>
     <g id="text_5">
      <!-- 800 -->
      <g transform="translate(284.427174 313.515039) scale(0.14 -0.14)">
       <defs>
        <path id="ArialMT-1b" d="M 1131 2484 
Q 781 2613 612 2850 
Q 444 3088 444 3419 
Q 444 3919 803 4259 
Q 1163 4600 1759 4600 
Q 2359 4600 2725 4251 
Q 3091 3903 3091 3403 
Q 3091 3084 2923 2848 
Q 2756 2613 2416 2484 
Q 2838 2347 3058 2040 
Q 3278 1734 3278 1309 
Q 3278 722 2862 322 
Q 2447 -78 1769 -78 
Q 1091 -78 675 323 
Q 259 725 259 1325 
Q 259 1772 486 2073 
Q 713 2375 1131 2484 
z
M 1019 3438 
Q 1019 3113 1228 2906 
Q 1438 2700 1772 2700 
Q 2097 2700 2305 2904 
Q 2513 3109 2513 3406 
Q 2513 3716 2298 3927 
Q 2084 4138 1766 4138 
Q 1444 4138 1231 3931 
Q 1019 3725 1019 3438 
z
M 838 1322 
Q 838 1081 952 856 
Q 1066 631 1291 507 
Q 1516 384 1775 384 
Q 2178 384 2440 643 
Q 2703 903 2703 1303 
Q 2703 1709 2433 1975 
Q 2163 2241 1756 2241 
Q 1359 2241 1098 1978 
Q 838 1716 838 1322 
z
" transform="scale(0.015625)"/>
       </defs>
       <use xlink:href="#ArialMT-1b"/>
       <use xlink:href="#ArialMT-13" transform="translate(55.609375 0)"/>
       <use xlink:href="#ArialMT-13" transform="translate(111.21875 0)"/>
      </g>
     </g>
    </g>
    <g id="xtick_6">
     <g id="line2d_6">
      <g>
       <use xlink:href="#m5c27e8f0ac" x="361.225365" y="299.822656" style="stroke: #000000; stroke-width: 1.5"/>
      </g>
     </g>
     <g id="text_6">
      <!-- 1000 -->
      <g transform="translate(345.65474 313.515039) scale(0.14 -0.14)">
       <defs>
        <path id="ArialMT-14" d="M 2384 0 
L 1822 0 
L 1822 3584 
Q 1619 3391 1289 3197 
Q 959 3003 697 2906 
L 697 3450 
Q 1169 3672 1522 3987 
Q 1875 4303 2022 4600 
L 2384 4600 
L 2384 0 
z
" transform="scale(0.015625)"/>
       </defs>
       <use xlink:href="#ArialMT-14"/>
       <use xlink:href="#ArialMT-13" transform="translate(55.609375 0)"/>
       <use xlink:href="#ArialMT-13" transform="translate(111.21875 0)"/>
       <use xlink:href="#ArialMT-13" transform="translate(166.828125 0)"/>
      </g>
     </g>
    </g>
    <g id="xtick_7">
     <g id="line2d_7">
      <g>
       <use xlink:href="#m5c27e8f0ac" x="426.345586" y="299.822656" style="stroke: #000000; stroke-width: 1.5"/>
      </g>
     </g>
     <g id="text_7">
      <!-- 1200 -->
      <g transform="translate(410.774961 313.515039) scale(0.14 -0.14)">
       <use xlink:href="#ArialMT-14"/>
       <use xlink:href="#ArialMT-15" transform="translate(55.609375 0)"/>
       <use xlink:href="#ArialMT-13" transform="translate(111.21875 0)"/>
       <use xlink:href="#ArialMT-13" transform="translate(166.828125 0)"/>
      </g>
     </g>
    </g>
    <g id="text_8">
     <!-- T1 Temperature (°C) -->
     <g transform="translate(167.245547 330.653711) scale(0.14 -0.14)">
      <defs>
       <path id="ArialMT-37" d="M 1659 0 
L 1659 4041 
L 150 4041 
L 150 4581 
L 3781 4581 
L 3781 4041 
L 2266 4041 
L 2266 0 
L 1659 0 
z
" transform="scale(0.015625)"/>
       <path id="ArialMT-3" transform="scale(0.015625)"/>
       <path id="ArialMT-48" d="M 2694 1069 
L 3275 997 
Q 3138 488 2766 206 
Q 2394 -75 1816 -75 
Q 1088 -75 661 373 
Q 234 822 234 1631 
Q 234 2469 665 2931 
Q 1097 3394 1784 3394 
Q 2450 3394 2872 2941 
Q 3294 2488 3294 1666 
Q 3294 1616 3291 1516 
L 816 1516 
Q 847 969 1125 678 
Q 1403 388 1819 388 
Q 2128 388 2347 550 
Q 2566 713 2694 1069 
z
M 847 1978 
L 2700 1978 
Q 2663 2397 2488 2606 
Q 2219 2931 1791 2931 
Q 1403 2931 1139 2672 
Q 875 2413 847 1978 
z
" transform="scale(0.015625)"/>
       <path id="ArialMT-50" d="M 422 0 
L 422 3319 
L 925 3319 
L 925 2853 
Q 1081 3097 1340 3245 
Q 1600 3394 1931 3394 
Q 2300 3394 2536 3241 
Q 2772 3088 2869 2813 
Q 3263 3394 3894 3394 
Q 4388 3394 4653 3120 
Q 4919 2847 4919 2278 
L 4919 0 
L 4359 0 
L 4359 2091 
Q 4359 2428 4304 2576 
Q 4250 2725 4106 2815 
Q 3963 2906 3769 2906 
Q 3419 2906 3187 2673 
Q 2956 2441 2956 1928 
L 2956 0 
L 2394 0 
L 2394 2156 
Q 2394 2531 2256 2718 
Q 2119 2906 1806 2906 
Q 1569 2906 1367 2781 
Q 1166 2656 1075 2415 
Q 984 2175 984 1722 
L 984 0 
L 422 0 
z
" transform="scale(0.015625)"/>
       <path id="ArialMT-53" d="M 422 -1272 
L 422 3319 
L 934 3319 
L 934 2888 
Q 1116 3141 1344 3267 
Q 1572 3394 1897 3394 
Q 2322 3394 2647 3175 
Q 2972 2956 3137 2557 
Q 3303 2159 3303 1684 
Q 3303 1175 3120 767 
Q 2938 359 2589 142 
Q 2241 -75 1856 -75 
Q 1575 -75 1351 44 
Q 1128 163 984 344 
L 984 -1272 
L 422 -1272 
z
M 931 1641 
Q 931 1000 1190 694 
Q 1450 388 1819 388 
Q 2194 388 2461 705 
Q 2728 1022 2728 1688 
Q 2728 2322 2467 2637 
Q 2206 2953 1844 2953 
Q 1484 2953 1207 2617 
Q 931 2281 931 1641 
z
" transform="scale(0.015625)"/>
       <path id="ArialMT-55" d="M 416 0 
L 416 3319 
L 922 3319 
L 922 2816 
Q 1116 3169 1280 3281 
Q 1444 3394 1641 3394 
Q 1925 3394 2219 3213 
L 2025 2691 
Q 1819 2813 1613 2813 
Q 1428 2813 1281 2702 
Q 1134 2591 1072 2394 
Q 978 2094 978 1738 
L 978 0 
L 416 0 
z
" transform="scale(0.015625)"/>
       <path id="ArialMT-44" d="M 2588 409 
Q 2275 144 1986 34 
Q 1697 -75 1366 -75 
Q 819 -75 525 192 
Q 231 459 231 875 
Q 231 1119 342 1320 
Q 453 1522 633 1644 
Q 813 1766 1038 1828 
Q 1203 1872 1538 1913 
Q 2219 1994 2541 2106 
Q 2544 2222 2544 2253 
Q 2544 2597 2384 2738 
Q 2169 2928 1744 2928 
Q 1347 2928 1158 2789 
Q 969 2650 878 2297 
L 328 2372 
Q 403 2725 575 2942 
Q 747 3159 1072 3276 
Q 1397 3394 1825 3394 
Q 2250 3394 2515 3294 
Q 2781 3194 2906 3042 
Q 3031 2891 3081 2659 
Q 3109 2516 3109 2141 
L 3109 1391 
Q 3109 606 3145 398 
Q 3181 191 3288 0 
L 2700 0 
Q 2613 175 2588 409 
z
M 2541 1666 
Q 2234 1541 1622 1453 
Q 1275 1403 1131 1340 
Q 988 1278 909 1158 
Q 831 1038 831 891 
Q 831 666 1001 516 
Q 1172 366 1500 366 
Q 1825 366 2078 508 
Q 2331 650 2450 897 
Q 2541 1088 2541 1459 
L 2541 1666 
z
" transform="scale(0.015625)"/>
       <path id="ArialMT-57" d="M 1650 503 
L 1731 6 
Q 1494 -44 1306 -44 
Q 1000 -44 831 53 
Q 663 150 594 308 
Q 525 466 525 972 
L 525 2881 
L 113 2881 
L 113 3319 
L 525 3319 
L 525 4141 
L 1084 4478 
L 1084 3319 
L 1650 3319 
L 1650 2881 
L 1084 2881 
L 1084 941 
Q 1084 700 1114 631 
Q 1144 563 1211 522 
Q 1278 481 1403 481 
Q 1497 481 1650 503 
z
" transform="scale(0.015625)"/>
       <path id="ArialMT-58" d="M 2597 0 
L 2597 488 
Q 2209 -75 1544 -75 
Q 1250 -75 995 37 
Q 741 150 617 320 
Q 494 491 444 738 
Q 409 903 409 1263 
L 409 3319 
L 972 3319 
L 972 1478 
Q 972 1038 1006 884 
Q 1059 663 1231 536 
Q 1403 409 1656 409 
Q 1909 409 2131 539 
Q 2353 669 2445 892 
Q 2538 1116 2538 1541 
L 2538 3319 
L 3100 3319 
L 3100 0 
L 2597 0 
z
" transform="scale(0.015625)"/>
       <path id="ArialMT-b" d="M 1497 -1347 
Q 1031 -759 709 28 
Q 388 816 388 1659 
Q 388 2403 628 3084 
Q 909 3875 1497 4659 
L 1900 4659 
Q 1522 4009 1400 3731 
Q 1209 3300 1100 2831 
Q 966 2247 966 1656 
Q 966 153 1900 -1347 
L 1497 -1347 
z
" transform="scale(0.015625)"/>
       <path id="ArialMT-83" d="M 400 3794 
Q 400 4153 654 4406 
Q 909 4659 1266 4659 
Q 1628 4659 1881 4406 
Q 2134 4153 2134 3794 
Q 2134 3434 1879 3179 
Q 1625 2925 1266 2925 
Q 909 2925 654 3178 
Q 400 3431 400 3794 
z
M 741 3794 
Q 741 3575 895 3420 
Q 1050 3266 1269 3266 
Q 1484 3266 1639 3420 
Q 1794 3575 1794 3794 
Q 1794 4013 1639 4167 
Q 1484 4322 1269 4322 
Q 1050 4322 895 4167 
Q 741 4013 741 3794 
z
" transform="scale(0.015625)"/>
       <path id="ArialMT-26" d="M 3763 1606 
L 4369 1453 
Q 4178 706 3683 314 
Q 3188 -78 2472 -78 
Q 1731 -78 1267 223 
Q 803 525 561 1097 
Q 319 1669 319 2325 
Q 319 3041 592 3573 
Q 866 4106 1370 4382 
Q 1875 4659 2481 4659 
Q 3169 4659 3637 4309 
Q 4106 3959 4291 3325 
L 3694 3184 
Q 3534 3684 3231 3912 
Q 2928 4141 2469 4141 
Q 1941 4141 1586 3887 
Q 1231 3634 1087 3207 
Q 944 2781 944 2328 
Q 944 1744 1114 1308 
Q 1284 872 1643 656 
Q 2003 441 2422 441 
Q 2931 441 3284 734 
Q 3638 1028 3763 1606 
z
" transform="scale(0.015625)"/>
       <path id="ArialMT-c" d="M 791 -1347 
L 388 -1347 
Q 1322 153 1322 1656 
Q 1322 2244 1188 2822 
Q 1081 3291 891 3722 
Q 769 4003 388 4659 
L 791 4659 
Q 1378 3875 1659 3084 
Q 1900 2403 1900 1659 
Q 1900 816 1576 28 
Q 1253 -759 791 -1347 
z
" transform="scale(0.015625)"/>
      </defs>
      <use xlink:href="#ArialMT-37"/>
      <use xlink:href="#ArialMT-14" transform="translate(61.078125 0)"/>
      <use xlink:href="#ArialMT-3" transform="translate(116.6875 0)"/>
      <use xlink:href="#ArialMT-37" transform="translate(142.65625 0)"/>
      <use xlink:href="#ArialMT-48" transform="translate(192.65625 0)"/>
      <use xlink:href="#ArialMT-50" transform="translate(248.265625 0)"/>
      <use xlink:href="#ArialMT-53" transform="translate(331.5625 0)"/>
      <use xlink:href="#ArialMT-48" transform="translate(387.171875 0)"/>
      <use xlink:href="#ArialMT-55" transform="translate(442.78125 0)"/>
      <use xlink:href="#ArialMT-44" transform="translate(476.078125 0)"/>
      <use xlink:href="#ArialMT-57" transform="translate(531.6875 0)"/>
      <use xlink:href="#ArialMT-58" transform="translate(559.46875 0)"/>
      <use xlink:href="#ArialMT-55" transform="translate(615.078125 0)"/>
      <use xlink:href="#ArialMT-48" transform="translate(648.375 0)"/>
      <use xlink:href="#ArialMT-3" transform="translate(703.984375 0)"/>
      <use xlink:href="#ArialMT-b" transform="translate(731.765625 0)"/>
      <use xlink:href="#ArialMT-83" transform="translate(765.0625 0)"/>
      <use xlink:href="#ArialMT-26" transform="translate(805.046875 0)"/>
      <use xlink:href="#ArialMT-c" transform="translate(877.265625 0)"/>
     </g>
    </g>
   </g>
   <g id="matplotlib.axis_2">
    <g id="ytick_1">
     <g id="line2d_8">
      <defs>
       <path id="m6572527f94" d="M 0 0 
L 6 0 
" style="stroke: #000000; stroke-width: 1.5"/>
      </defs>
      <g>
       <use xlink:href="#m6572527f94" x="35.624258" y="287.004342" style="stroke: #000000; stroke-width: 1.5"/>
      </g>
     </g>
     <g id="text_9">
      <!-- 0 -->
      <g transform="translate(24.338945 292.100534) scale(0.14 -0.14)">
       <use xlink:href="#ArialMT-13"/>
      </g>
     </g>
    </g>
    <g id="ytick_2">
     <g id="line2d_9">
      <g>
       <use xlink:href="#m6572527f94" x="35.624258" y="232.404106" style="stroke: #000000; stroke-width: 1.5"/>
      </g>
     </g>
     <g id="text_10">
      <!-- 2 -->
      <g transform="translate(24.338945 237.500298) scale(0.14 -0.14)">
       <use xlink:href="#ArialMT-15"/>
      </g>
     </g>
    </g>
    <g id="ytick_3">
     <g id="line2d_10">
      <g>
       <use xlink:href="#m6572527f94" x="35.624258" y="177.80387" style="stroke: #000000; stroke-width: 1.5"/>
      </g>
     </g>
     <g id="text_11">
      <!-- 4 -->
      <g transform="translate(24.338945 182.900062) scale(0.14 -0.14)">
       <use xlink:href="#ArialMT-17"/>
      </g>
     </g>
    </g>
    <g id="ytick_4">
     <g id="line2d_11">
      <g>
       <use xlink:href="#m6572527f94" x="35.624258" y="123.203634" style="stroke: #000000; stroke-width: 1.5"/>
      </g>
     </g>
     <g id="text_12">
      <!-- 6 -->
      <g transform="translate(24.338945 128.299826) scale(0.14 -0.14)">
       <use xlink:href="#ArialMT-19"/>
      </g>
     </g>
    </g>
    <g id="ytick_5">
     <g id="line2d_12">
      <g>
       <use xlink:href="#m6572527f94" x="35.624258" y="68.603398" style="stroke: #000000; stroke-width: 1.5"/>
      </g>
     </g>
     <g id="text_13">
      <!-- 8 -->
      <g transform="translate(24.338945 73.69959) scale(0.14 -0.14)">
       <use xlink:href="#ArialMT-1b"/>
      </g>
     </g>
    </g>
    <g id="text_14">
     <!-- Ion Current (m/z 14) -->
     <g transform="translate(17.392383 222.733457) rotate(-90) scale(0.14 -0.14)">
      <defs>
       <path id="ArialMT-2c" d="M 597 0 
L 597 4581 
L 1203 4581 
L 1203 0 
L 597 0 
z
" transform="scale(0.015625)"/>
       <path id="ArialMT-52" d="M 213 1659 
Q 213 2581 725 3025 
Q 1153 3394 1769 3394 
Q 2453 3394 2887 2945 
Q 3322 2497 3322 1706 
Q 3322 1066 3130 698 
Q 2938 331 2570 128 
Q 2203 -75 1769 -75 
Q 1072 -75 642 372 
Q 213 819 213 1659 
z
M 791 1659 
Q 791 1022 1069 705 
Q 1347 388 1769 388 
Q 2188 388 2466 706 
Q 2744 1025 2744 1678 
Q 2744 2294 2464 2611 
Q 2184 2928 1769 2928 
Q 1347 2928 1069 2612 
Q 791 2297 791 1659 
z
" transform="scale(0.015625)"/>
       <path id="ArialMT-51" d="M 422 0 
L 422 3319 
L 928 3319 
L 928 2847 
Q 1294 3394 1984 3394 
Q 2284 3394 2536 3286 
Q 2788 3178 2913 3003 
Q 3038 2828 3088 2588 
Q 3119 2431 3119 2041 
L 3119 0 
L 2556 0 
L 2556 2019 
Q 2556 2363 2490 2533 
Q 2425 2703 2258 2804 
Q 2091 2906 1866 2906 
Q 1506 2906 1245 2678 
Q 984 2450 984 1813 
L 984 0 
L 422 0 
z
" transform="scale(0.015625)"/>
       <path id="ArialMT-12" d="M 0 -78 
L 1328 4659 
L 1778 4659 
L 453 -78 
L 0 -78 
z
" transform="scale(0.015625)"/>
       <path id="ArialMT-5d" d="M 125 0 
L 125 456 
L 2238 2881 
Q 1878 2863 1603 2863 
L 250 2863 
L 250 3319 
L 2963 3319 
L 2963 2947 
L 1166 841 
L 819 456 
Q 1197 484 1528 484 
L 3063 484 
L 3063 0 
L 125 0 
z
" transform="scale(0.015625)"/>
      </defs>
      <use xlink:href="#ArialMT-2c"/>
      <use xlink:href="#ArialMT-52" transform="translate(27.78125 0)"/>
      <use xlink:href="#ArialMT-51" transform="translate(83.390625 0)"/>
      <use xlink:href="#ArialMT-3" transform="translate(139 0)"/>
      <use xlink:href="#ArialMT-26" transform="translate(166.78125 0)"/>
      <use xlink:href="#ArialMT-58" transform="translate(239 0)"/>
      <use xlink:href="#ArialMT-55" transform="translate(294.609375 0)"/>
      <use xlink:href="#ArialMT-55" transform="translate(327.90625 0)"/>
      <use xlink:href="#ArialMT-48" transform="translate(361.203125 0)"/>
      <use xlink:href="#ArialMT-51" transform="translate(416.8125 0)"/>
      <use xlink:href="#ArialMT-57" transform="translate(472.421875 0)"/>
      <use xlink:href="#ArialMT-3" transform="translate(500.203125 0)"/>
      <use xlink:href="#ArialMT-b" transform="translate(527.984375 0)"/>
      <use xlink:href="#ArialMT-50" transform="translate(561.28125 0)"/>
      <use xlink:href="#ArialMT-12" transform="translate(644.578125 0)"/>
      <use xlink:href="#ArialMT-5d" transform="translate(672.359375 0)"/>
      <use xlink:href="#ArialMT-3" transform="translate(722.359375 0)"/>
      <use xlink:href="#ArialMT-14" transform="translate(750.140625 0)"/>
      <use xlink:href="#ArialMT-17" transform="translate(805.75 0)"/>
      <use xlink:href="#ArialMT-c" transform="translate(861.359375 0)"/>
     </g>
    </g>
    <g id="text_15">
     <!-- 1e−12 -->
     <g transform="translate(35.624258 17.392383) scale(0.14 -0.14)">
      <defs>
       <path id="ArialMT-ed" d="M 3381 1997 
L 356 1997 
L 356 2522 
L 3381 2522 
L 3381 1997 
z
" transform="scale(0.015625)"/>
      </defs>
      <use xlink:href="#ArialMT-14"/>
      <use xlink:href="#ArialMT-48" transform="translate(55.609375 0)"/>
      <use xlink:href="#ArialMT-ed" transform="translate(111.21875 0)"/>
      <use xlink:href="#ArialMT-14" transform="translate(169.625 0)"/>
      <use xlink:href="#ArialMT-15" transform="translate(225.234375 0)"/>
     </g>
    </g>
   </g>
   <g id="line2d_13">
    <path d="M 55.095204 285.186289 
L 55.030084 284.903315 
L 55.062644 285.455068 
L 54.964964 286.366608 
L 54.964964 286.31558 
L 55.127764 286.190872 
L 55.844087 286.277844 
L 59.88154 286.229106 
L 66.881964 285.630471 
L 68.151808 285.704363 
L 69.291412 285.316817 
L 70.463576 285.313957 
L 73.035825 286.123606 
L 74.338229 285.970796 
L 78.505924 286.06699 
L 79.840888 285.970625 
L 81.143293 286.040589 
L 82.348017 285.74346 
L 84.887705 285.802896 
L 86.19011 285.717049 
L 92.474211 286.019483 
L 96.348864 285.44314 
L 98.921113 285.373858 
L 100.158397 285.777881 
L 101.428241 285.910195 
L 102.698086 285.920003 
L 103.96793 285.708599 
L 105.237774 286.060671 
L 107.810023 286.129967 
L 109.047307 285.71959 
L 110.349712 285.970342 
L 111.619556 285.836987 
L 112.8894 286.315207 
L 114.159245 285.978074 
L 115.429089 285.459132 
L 116.731494 285.247585 
L 118.033898 285.899954 
L 119.336302 285.839716 
L 120.638707 285.970782 
L 121.875991 285.729684 
L 123.145835 285.895352 
L 124.44824 285.624767 
L 125.652964 285.903781 
L 126.922808 285.647068 
L 129.527617 285.391493 
L 130.797461 285.68237 
L 132.099866 285.513574 
L 133.30459 285.799786 
L 135.811718 285.75156 
L 137.081563 285.764439 
L 142.16094 285.16468 
L 143.463344 285.293812 
L 144.700629 285.185308 
L 146.003033 285.260857 
L 149.812566 285.815377 
L 151.11497 285.603226 
L 152.417375 285.568884 
L 153.654659 285.730031 
L 154.957063 285.769607 
L 156.226908 286.113018 
L 161.241165 285.831823 
L 162.478449 285.581057 
L 163.748293 284.987233 
L 165.050698 284.720888 
L 167.655507 285.138629 
L 168.957911 285.38114 
L 170.260315 285.796715 
L 171.56272 285.992369 
L 172.800004 286.51154 
L 174.037288 286.34155 
L 175.339693 285.731967 
L 176.642097 285.397877 
L 179.051545 285.436249 
L 180.35395 285.668192 
L 181.623794 285.571417 
L 182.893638 285.72136 
L 184.163483 285.758099 
L 185.433327 285.961353 
L 186.638051 285.554791 
L 187.907895 285.402588 
L 191.717428 285.430448 
L 192.987273 285.666507 
L 195.559521 285.579339 
L 196.796806 285.236385 
L 198.06665 285.13463 
L 199.369054 285.343247 
L 200.638899 285.292833 
L 205.718276 284.413656 
L 208.225405 284.194767 
L 209.495249 283.862553 
L 210.765093 284.256016 
L 211.969817 284.938504 
L 213.272222 285.059078 
L 215.77935 285.698576 
L 217.114315 285.74536 
L 219.621443 286.11528 
L 220.793607 285.890894 
L 221.998331 285.876427 
L 223.268176 285.706393 
L 224.57058 285.801907 
L 225.872984 285.379679 
L 228.445233 285.196272 
L 229.715078 285.196298 
L 230.919802 285.479562 
L 232.222206 285.661384 
L 233.49205 285.19016 
L 238.603988 284.940653 
L 239.873832 284.629962 
L 241.111116 284.692693 
L 242.380961 285.405055 
L 243.650805 285.755909 
L 244.920649 285.872771 
L 247.492898 285.40233 
L 251.302431 285.667362 
L 252.572275 285.567154 
L 253.809559 285.696012 
L 255.079404 286.004222 
L 256.414368 285.713344 
L 257.619092 285.321449 
L 258.888937 285.198222 
L 260.158781 284.918466 
L 261.396065 285.139867 
L 262.69847 285.59468 
L 264.033434 285.906326 
L 265.335839 286.887042 
L 266.605683 286.913133 
L 267.842967 287.12128 
L 269.145372 287.092368 
L 270.382656 286.790804 
L 271.68506 286.66466 
L 272.987465 286.206996 
L 275.527153 285.920379 
L 278.034282 285.984095 
L 279.336686 285.346132 
L 281.811255 285.270106 
L 284.350943 285.14916 
L 285.588227 285.259093 
L 288.193036 285.314015 
L 289.39776 285.492823 
L 290.700165 285.09416 
L 292.002569 284.989176 
L 293.207293 285.170693 
L 294.477138 285.143483 
L 297.016826 285.573305 
L 299.491395 285.463213 
L 300.793799 285.27197 
L 302.063643 285.726295 
L 303.300928 285.542881 
L 305.840616 286.107966 
L 307.110461 286.134652 
L 308.380305 285.996034 
L 309.617589 285.994908 
L 314.696966 285.317996 
L 315.901691 285.477026 
L 318.473939 286.192291 
L 319.776344 286.122667 
L 321.013628 285.799577 
L 322.250912 285.806212 
L 323.520756 285.998546 
L 324.823161 285.733985 
L 326.027885 285.929434 
L 327.362849 285.787421 
L 328.958295 285.961889 
L 331.595664 286.810831 
L 332.898068 286.672 
L 336.675041 285.593785 
L 337.944885 285.352 
L 339.24729 285.261415 
L 340.419454 284.950019 
L 341.754418 284.738698 
L 342.959142 285.196975 
L 345.563951 285.686395 
L 346.768675 285.654103 
L 348.07108 285.495121 
L 350.545648 285.005343 
L 351.815493 285.063059 
L 353.183017 284.923044 
L 354.387741 285.320723 
L 356.99255 285.799865 
L 359.369438 285.746293 
L 360.704403 285.396485 
L 362.071927 284.681993 
L 363.211531 284.215247 
L 365.979141 284.227143 
L 367.248985 284.643171 
L 368.453709 284.567645 
L 369.625873 284.852266 
L 373.435406 284.239733 
L 375.844854 283.669953 
L 377.114699 283.852983 
L 379.621827 283.741741 
L 382.128956 283.688807 
L 384.603524 282.650988 
L 386.068729 282.52088 
L 387.306013 281.66405 
L 388.575858 280.544262 
L 389.813142 280.146969 
L 391.148106 279.40546 
L 392.22259 278.620094 
L 393.980836 277.839828 
L 395.3158 277.055598 
L 397.888049 274.452442 
L 399.157894 273.365961 
L 401.632462 268.375732 
L 402.902306 266.527294 
L 404.07447 264.040457 
L 405.474555 260.355499 
L 406.679279 257.570639 
L 408.014244 254.014834 
L 409.381768 248.190705 
L 411.758656 236.974657 
L 412.96338 230.155821 
L 414.330905 220.899324 
L 415.503069 211.387777 
L 418.270678 190.376948 
L 419.312602 179.397237 
L 420.745247 165.741128 
L 423.187255 129.993431 
L 424.48966 106.78982 
L 425.531583 79.291685 
L 425.531583 79.291685 
" clip-path="url(#pba2325d34d)" style="fill: none; stroke: #000000; stroke-width: 2.5; stroke-linecap: square"/>
   </g>
   <g id="line2d_14">
    <path d="M 46.857496 284.515513 
L 46.857496 286.291686 
L 46.857496 286.222268 
L 47.020297 285.817322 
L 47.704059 285.443873 
L 49.494865 285.296402 
L 51.806633 284.857051 
L 54.05328 284.295592 
L 55.941767 284.202295 
L 57.504652 284.89006 
L 61.053704 285.804811 
L 63.625953 285.901268 
L 64.798117 286.111274 
L 66.165642 285.680925 
L 67.468046 285.771344 
L 68.64021 285.661343 
L 70.040295 285.927222 
L 71.245019 285.319802 
L 75.249913 284.934046 
L 76.552317 285.263114 
L 77.919842 285.347301 
L 79.319926 285.164389 
L 80.52465 285.154559 
L 81.859615 284.852651 
L 83.064339 284.88404 
L 85.571468 285.610078 
L 88.241397 285.957505 
L 89.478681 286.351845 
L 95.860463 285.392836 
L 97.000066 285.516196 
L 98.335031 285.416886 
L 100.90728 285.408337 
L 102.242244 285.321455 
L 103.381848 284.90786 
L 104.716813 284.831708 
L 107.321622 285.311665 
L 108.526346 285.013513 
L 111.163715 285.486706 
L 112.303318 285.450602 
L 113.638283 285.812964 
L 116.112851 285.214346 
L 117.447816 285.159225 
L 120.020065 284.762396 
L 122.657434 285.191442 
L 127.639131 284.613626 
L 131.416103 283.661668 
L 132.751068 284.088172 
L 134.053472 284.860528 
L 135.323317 284.673172 
L 136.528041 284.97622 
L 137.895565 285.066889 
L 139.10029 284.813916 
L 141.672538 284.922863 
L 142.909822 284.877599 
L 144.277347 285.102052 
L 145.482071 285.447531 
L 146.751916 285.573904 
L 148.02176 284.984466 
L 149.259044 285.029815 
L 150.561449 284.747739 
L 151.863853 284.036128 
L 153.166257 283.786412 
L 154.403542 283.893202 
L 155.705946 283.776384 
L 156.91067 283.836296 
L 158.115394 284.316112 
L 159.450359 284.280999 
L 160.720203 284.078838 
L 161.957487 283.767587 
L 163.227332 283.094125 
L 164.497176 282.667788 
L 167.134545 282.419806 
L 169.609113 282.0463 
L 170.911518 282.341239 
L 172.116242 282.286452 
L 173.516327 281.889344 
L 174.721051 281.20912 
L 175.958335 280.28096 
L 177.228179 280.073772 
L 178.498023 280.20415 
L 179.767868 279.098535 
L 181.102832 278.870437 
L 182.340117 279.026037 
L 184.847245 280.078609 
L 186.117089 280.316562 
L 187.419494 280.411788 
L 188.721898 280.29641 
L 191.196467 280.500039 
L 192.466311 279.463229 
L 193.768715 279.804051 
L 195.07112 279.714748 
L 196.275844 279.982129 
L 197.578248 279.985733 
L 200.085377 280.397685 
L 201.355221 280.955946 
L 202.625065 280.57627 
L 206.369478 279.940064 
L 207.671883 279.437134 
L 208.909167 279.203285 
L 210.211571 279.257013 
L 212.7187 279.849966 
L 213.955984 280.580702 
L 215.225828 280.615 
L 216.495673 280.897026 
L 217.732957 281.482637 
L 219.067921 281.573868 
L 220.305206 281.282342 
L 222.877454 280.887322 
L 224.082178 280.588566 
L 225.417143 280.141666 
L 227.891711 279.684792 
L 229.161556 279.435633 
L 232.938529 279.226987 
L 234.175813 279.930394 
L 235.510777 280.108541 
L 238.017906 280.129206 
L 240.557594 279.516368 
L 241.859999 279.195466 
L 243.129843 279.238197 
L 244.367127 279.159423 
L 245.669532 279.531294 
L 246.906816 281.08703 
L 248.241781 281.228217 
L 250.748909 280.330789 
L 251.986193 280.089291 
L 253.288598 279.611189 
L 254.558442 279.567137 
L 255.763166 279.291623 
L 257.098131 278.613994 
L 258.335415 279.088397 
L 259.572699 279.932154 
L 260.842543 279.956964 
L 262.112388 280.402997 
L 264.814877 282.390571 
L 266.019601 282.22013 
L 267.322005 282.250166 
L 268.59185 281.306995 
L 269.894254 280.754055 
L 271.164098 280.396578 
L 272.433943 279.607138 
L 273.638667 278.997852 
L 276.178355 279.688161 
L 277.48076 279.668986 
L 278.718044 279.85362 
L 281.257733 280.937726 
L 282.560137 281.829787 
L 283.797421 282.137024 
L 285.034706 281.875085 
L 286.33711 281.747491 
L 287.574394 281.862973 
L 288.811678 280.845914 
L 290.114083 280.249358 
L 291.416487 279.991898 
L 293.923616 279.80761 
L 296.430744 280.306264 
L 298.970433 281.578563 
L 300.272837 281.678607 
L 301.477561 280.915977 
L 302.779966 280.568875 
L 303.98469 279.93036 
L 305.287094 279.824459 
L 306.556939 279.138834 
L 307.794223 279.508955 
L 310.301351 279.784871 
L 311.571196 278.996241 
L 312.84104 278.730501 
L 314.143445 278.127133 
L 315.413289 278.429484 
L 317.887857 278.201876 
L 320.460106 277.579898 
L 321.76251 277.692673 
L 322.934674 277.380169 
L 324.269639 276.718979 
L 326.744207 276.44129 
L 328.307093 277.445474 
L 331.009582 275.304111 
L 333.614391 271.71947 
L 334.819115 271.279116 
L 336.154079 271.282282 
L 337.391364 271.765064 
L 339.931052 274.60814 
L 341.168336 276.546133 
L 342.503301 277.123929 
L 343.708025 277.941816 
L 345.010429 277.089188 
L 346.280274 276.987912 
L 347.550118 277.05517 
L 348.852523 277.356575 
L 351.261971 277.212829 
L 353.86678 276.580833 
L 355.104064 276.018291 
L 356.439028 275.053615 
L 357.546072 274.66955 
L 358.946157 275.147425 
L 360.281121 275.359412 
L 361.453285 275.340877 
L 362.658009 275.000584 
L 363.927854 275.282629 
L 365.197698 275.748966 
L 366.565223 275.554203 
L 369.104911 275.529278 
L 370.309635 276.397864 
L 371.57948 276.237054 
L 375.258772 275.093922 
L 376.626297 275.3271 
L 379.068305 276.429485 
L 380.40327 277.797827 
L 382.877838 278.615959 
L 384.147683 278.181467 
L 385.384967 277.876491 
L 386.719931 277.272875 
L 388.022336 277.069774 
L 389.16194 276.670072 
L 390.496904 276.379607 
L 391.799309 275.732618 
L 393.199393 275.303563 
L 394.697158 274.499072 
L 395.869322 273.435424 
L 397.334527 271.946354 
L 399.809096 268.235216 
L 401.1115 266.754961 
L 403.618629 262.722879 
L 404.986153 259.298555 
L 406.093197 255.995288 
L 407.493282 252.610558 
L 408.730566 249.177356 
L 409.77249 245.068521 
L 411.205134 241.010292 
L 412.474979 234.245755 
L 413.809943 227.970293 
L 414.982107 221.778744 
L 417.554356 202.277617 
L 418.889321 189.021862 
L 421.363889 160.317148 
L 422.470933 144.260062 
L 424.001258 127.195167 
L 425.173422 109.218971 
L 425.173422 109.218971 
" clip-path="url(#pba2325d34d)" style="fill: none; stroke: #1f77b4; stroke-width: 2.5; stroke-linecap: square"/>
   </g>
   <g id="line2d_15">
    <path d="M 46.662135 284.756933 
L 46.662135 286.242483 
L 46.662135 284.851143 
L 46.792376 284.62304 
L 47.411018 284.993809 
L 48.908783 285.447301 
L 53.532319 285.799634 
L 58.546576 284.739844 
L 60.890904 285.387507 
L 62.063068 285.326051 
L 63.267792 286.017607 
L 64.537636 286.615481 
L 65.840041 286.604247 
L 67.109885 286.409581 
L 68.379729 285.634437 
L 70.919418 285.644629 
L 73.491667 285.011973 
L 74.891751 284.697957 
L 76.324396 284.677429 
L 77.691921 284.971771 
L 78.994325 284.649891 
L 80.26417 284.485897 
L 81.534014 284.851772 
L 82.803858 285.503946 
L 86.645951 285.559609 
L 89.18564 285.040465 
L 90.455484 284.942129 
L 91.725329 284.643267 
L 93.027733 284.535422 
L 96.837266 285.099085 
L 98.10711 285.616215 
L 99.376955 285.847993 
L 100.581679 285.628115 
L 101.916643 285.702062 
L 103.153927 285.400415 
L 105.693616 284.374178 
L 106.99602 284.279699 
L 108.233305 284.354468 
L 109.503149 285.054591 
L 110.740433 285.229092 
L 111.977717 285.746399 
L 114.549966 286.32526 
L 115.81981 286.081149 
L 117.122215 285.413357 
L 119.857264 285.073702 
L 121.029428 284.355129 
L 122.299272 284.223268 
L 123.503997 283.918987 
L 124.838961 284.267499 
L 126.108805 284.302675 
L 128.648494 283.989022 
L 129.950898 283.741523 
L 132.490587 284.564829 
L 134.965155 284.624514 
L 136.36524 284.815542 
L 137.569964 285.121041 
L 138.839809 285.041591 
L 142.681902 283.836607 
L 145.15647 284.720439 
L 146.491435 284.869937 
L 149.031123 284.494517 
L 155.347785 285.454348 
L 156.552509 285.384163 
L 159.124758 284.664549 
L 160.362042 283.922755 
L 161.664446 283.299266 
L 162.966851 283.330098 
L 164.204135 283.622908 
L 166.743824 284.78836 
L 168.111348 285.098985 
L 169.348632 284.975409 
L 170.716157 285.020956 
L 171.888321 284.936117 
L 174.42801 283.98645 
L 175.697854 283.814164 
L 176.935138 283.244347 
L 179.539947 282.674735 
L 180.777231 282.203511 
L 184.554204 282.822068 
L 185.824048 282.522964 
L 187.061333 282.464414 
L 188.363737 282.542589 
L 192.17327 281.155288 
L 193.410554 281.065089 
L 197.252647 281.752883 
L 198.489931 281.590547 
L 199.759776 282.213081 
L 201.06218 281.973627 
L 202.299464 281.563998 
L 203.569309 280.631198 
L 204.774033 280.407816 
L 206.076437 280.600227 
L 207.346282 280.664966 
L 208.583566 281.053209 
L 209.91853 281.327023 
L 211.188375 281.354559 
L 212.425659 282.114896 
L 213.695503 281.165552 
L 214.965347 280.880557 
L 216.202632 280.15534 
L 217.505036 280.343083 
L 218.77488 280.813271 
L 221.282009 279.556647 
L 222.551853 279.888729 
L 223.854258 279.783094 
L 225.091542 280.10626 
L 226.328826 279.471184 
L 227.63123 279.88754 
L 228.868515 279.805985 
L 230.073239 280.748985 
L 231.375643 280.909926 
L 232.743168 279.77031 
L 233.980452 279.238109 
L 235.217736 279.472006 
L 236.487581 279.156793 
L 239.027269 278.278509 
L 240.297114 277.983615 
L 241.534398 278.10341 
L 242.836802 278.731483 
L 244.139207 278.66752 
L 245.409051 278.785928 
L 246.613775 279.226024 
L 247.9813 279.467546 
L 250.423308 280.13085 
L 251.758272 280.016194 
L 252.995557 279.554861 
L 254.232841 279.926415 
L 255.470125 279.579379 
L 256.83765 279.425365 
L 260.582062 278.720248 
L 263.154311 279.060866 
L 264.489276 279.00389 
L 265.75912 279.361206 
L 267.094085 280.032669 
L 268.298809 280.281127 
L 269.633773 280.70615 
L 273.378186 281.2268 
L 274.61547 281.455439 
L 275.917875 281.214764 
L 278.392443 281.003018 
L 279.694847 280.821759 
L 280.964692 280.513414 
L 283.536941 280.338013 
L 286.011509 280.139939 
L 287.248793 280.294928 
L 289.821042 279.753707 
L 291.090886 279.231735 
L 292.425851 278.412605 
L 293.598015 278.440182 
L 294.867859 278.601549 
L 296.170263 277.952301 
L 297.407548 277.690109 
L 298.677392 277.587538 
L 299.947236 277.601869 
L 302.421805 277.861277 
L 303.724209 277.63867 
L 304.994053 276.702456 
L 307.468622 276.483366 
L 308.738466 275.360477 
L 311.343275 275.45122 
L 312.613119 275.337498 
L 316.357532 272.429683 
L 317.627376 271.507805 
L 318.897221 270.732839 
L 320.199625 271.006139 
L 321.404349 270.828653 
L 323.976598 271.629567 
L 325.246442 271.439993 
L 326.483726 270.942861 
L 327.916371 270.724866 
L 329.381576 270.801042 
L 330.651421 271.204951 
L 331.986385 271.750058 
L 333.32135 272.678837 
L 337.130883 274.452931 
L 338.400727 274.731243 
L 340.907856 275.717537 
L 342.21026 275.765619 
L 343.447544 276.230819 
L 344.684828 276.469901 
L 345.922113 276.837896 
L 347.224517 277.559092 
L 348.461801 277.631143 
L 351.03405 278.48376 
L 352.206214 278.43542 
L 353.573739 278.747375 
L 354.811023 278.384506 
L 357.383272 276.67602 
L 358.522875 276.578951 
L 359.8904 276.673606 
L 361.160244 276.267413 
L 363.699933 277.014022 
L 367.476906 279.042391 
L 368.71419 279.319655 
L 370.114275 279.462846 
L 371.318999 279.794932 
L 372.588843 280.390861 
L 373.793567 280.657803 
L 375.030852 280.299747 
L 376.365816 280.383723 
L 377.63566 280.652276 
L 378.938065 280.416866 
L 380.110229 280.649675 
L 382.682478 279.872584 
L 383.919762 279.65049 
L 385.026805 279.746713 
L 386.39433 278.845805 
L 387.696735 277.559927 
L 388.901459 277.235057 
L 390.203863 276.593624 
L 391.376027 275.72921 
L 392.808672 274.932949 
L 394.306437 274.543708 
L 395.739082 274.415764 
L 397.041486 273.83465 
L 398.343891 273.099403 
L 399.548615 272.134446 
L 400.851019 270.64128 
L 402.023183 269.092231 
L 403.293028 266.617124 
L 405.930397 259.79364 
L 407.07 257.148093 
L 408.437525 252.952066 
L 409.577129 246.521406 
L 412.279618 235.076139 
L 413.484342 227.559944 
L 414.623946 217.259125 
L 416.024031 207.099383 
L 418.531159 185.294427 
L 419.801004 171.01732 
L 421.103408 154.178545 
L 424.978061 92.210479 
L 425.857184 68.090154 
L 425.857184 68.090154 
" clip-path="url(#pba2325d34d)" style="fill: none; stroke: #0033ff; stroke-width: 2.5; stroke-linecap: square"/>
   </g>
   <g id="line2d_16">
    <path d="M 44.708529 284.70051 
L 44.741089 285.928693 
L 44.773649 284.98943 
L 44.871329 285.153347 
L 46.955176 285.068498 
L 49.201824 285.569263 
L 51.578712 285.450885 
L 53.564879 285.593342 
L 55.258005 285.891424 
L 57.797693 285.38543 
L 58.937297 285.503336 
L 60.174581 285.829375 
L 61.411865 286.376554 
L 62.68171 286.199752 
L 63.918994 286.295527 
L 65.221398 286.177414 
L 66.523803 286.249459 
L 70.268216 285.234599 
L 72.807904 285.689628 
L 74.207989 286.211319 
L 75.575514 286.018719 
L 78.310563 286.66587 
L 79.612967 286.673805 
L 80.915372 286.340248 
L 82.152656 285.880012 
L 83.4225 285.825863 
L 85.994749 285.577354 
L 91.074126 286.202575 
L 92.343971 286.098596 
L 93.613815 286.13491 
L 94.916219 285.748149 
L 96.186064 285.811683 
L 97.423348 285.563883 
L 98.628072 285.685468 
L 103.740009 285.717218 
L 106.344818 285.825159 
L 108.884507 285.395266 
L 110.154351 285.305428 
L 111.391635 285.451563 
L 112.596359 285.229849 
L 113.931324 284.766998 
L 117.773417 284.588732 
L 119.108382 284.673536 
L 120.378226 284.932809 
L 121.68063 285.043149 
L 122.885354 285.50019 
L 125.425043 285.346852 
L 128.029852 285.620535 
L 129.299696 285.375743 
L 131.839385 285.525262 
L 133.076669 285.680945 
L 135.616358 285.453095 
L 136.821082 285.097875 
L 140.728295 285.249197 
L 142.0307 285.005855 
L 143.267984 284.954212 
L 145.840232 285.067247 
L 147.110077 285.290761 
L 148.314801 285.296851 
L 149.552085 285.456943 
L 152.189454 285.04455 
L 153.426738 284.805206 
L 158.506116 282.954015 
L 159.678279 283.282182 
L 161.013244 282.953615 
L 162.250528 283.39831 
L 163.552933 282.96738 
L 164.822777 283.295032 
L 166.060061 283.083935 
L 168.66487 282.927805 
L 169.967274 282.387961 
L 171.204559 281.663311 
L 172.441843 281.605821 
L 173.711687 280.734371 
L 175.014092 280.43144 
L 176.316496 279.949473 
L 177.48866 279.935337 
L 178.725944 279.141973 
L 180.060909 279.398778 
L 181.330753 279.502432 
L 183.903002 278.530549 
L 185.140286 278.592685 
L 186.475251 277.999927 
L 187.679975 278.274333 
L 188.949819 277.746772 
L 190.187103 276.700634 
L 191.522068 275.733569 
L 192.791912 275.393112 
L 195.331601 274.906064 
L 197.838729 277.119525 
L 199.141134 278.053737 
L 200.410978 279.620237 
L 201.680822 279.911741 
L 202.918106 280.628731 
L 204.122831 280.765814 
L 205.392675 280.476597 
L 206.695079 280.371594 
L 207.964924 279.932473 
L 209.234768 279.868366 
L 210.504612 279.080564 
L 211.774457 278.70487 
L 213.011741 279.144167 
L 215.551429 280.849143 
L 220.630807 279.520479 
L 221.900651 278.897961 
L 223.170495 278.579304 
L 224.40778 278.077898 
L 226.947468 279.261508 
L 228.184752 279.232904 
L 229.487157 278.039523 
L 230.757001 277.564638 
L 231.961725 277.819967 
L 233.26413 278.686161 
L 235.836378 278.226761 
L 237.106223 277.774392 
L 238.343507 278.244108 
L 239.613351 278.589626 
L 240.883196 278.152356 
L 242.15304 276.958115 
L 243.422884 276.821211 
L 244.692728 277.044727 
L 245.995133 276.896557 
L 248.469701 276.106822 
L 249.772106 275.60141 
L 251.00939 276.039038 
L 252.279234 276.782937 
L 253.581639 276.75873 
L 254.884043 277.037901 
L 256.121327 278.242922 
L 258.661016 278.351589 
L 259.93086 279.080948 
L 261.168144 279.331318 
L 262.470549 279.050296 
L 263.805513 279.444435 
L 265.075358 279.329207 
L 266.345202 278.4385 
L 268.884891 279.247937 
L 270.187295 278.835445 
L 271.457139 278.803474 
L 272.694424 278.997849 
L 273.964268 278.917083 
L 276.471396 279.338484 
L 277.741241 278.809334 
L 279.043645 278.714752 
L 280.280929 278.938966 
L 281.583334 278.748545 
L 282.853178 279.171155 
L 284.123023 279.816041 
L 285.392867 279.715968 
L 286.597591 279.443897 
L 289.2024 280.068912 
L 290.407124 280.039144 
L 291.742088 280.636981 
L 292.946812 280.067682 
L 294.249217 279.762832 
L 295.486501 279.641001 
L 296.756345 279.391862 
L 300.533318 277.354651 
L 301.803163 277.185786 
L 303.105567 277.313375 
L 305.580135 276.746379 
L 308.152384 277.817645 
L 309.422228 278.533914 
L 310.659513 279.039942 
L 314.469046 279.155048 
L 315.70633 278.941282 
L 316.911054 277.984795 
L 318.213458 277.710845 
L 322.022991 277.392736 
L 323.292836 276.875707 
L 324.49756 276.181481 
L 325.832524 275.794631 
L 327.134929 275.05784 
L 328.632694 274.62805 
L 330.032779 273.948031 
L 332.637587 274.070533 
L 333.939992 274.532712 
L 335.209836 275.157979 
L 336.47968 275.237585 
L 337.651844 275.796527 
L 339.019369 275.430699 
L 340.256653 275.460348 
L 341.461377 274.859964 
L 342.828902 274.782013 
L 344.033626 274.850147 
L 345.23835 274.364795 
L 347.745479 274.687562 
L 349.080443 274.198521 
L 350.317728 274.63062 
L 351.587572 273.984207 
L 352.955096 273.692361 
L 355.397105 271.893067 
L 356.699509 271.495034 
L 357.936793 270.693616 
L 359.206638 269.488976 
L 360.411362 268.147113 
L 361.746326 267.220165 
L 363.048731 266.105847 
L 364.253455 265.419332 
L 365.555859 264.375678 
L 366.858264 264.461274 
L 368.030428 264.896967 
L 369.332832 266.677091 
L 370.700357 268.179745 
L 371.807401 269.191832 
L 373.240045 270.762545 
L 374.379649 272.449686 
L 375.616934 273.329628 
L 376.951898 275.083084 
L 378.189182 275.694467 
L 379.426466 276.631343 
L 383.170879 277.760416 
L 385.678008 277.308399 
L 389.487541 277.023576 
L 390.789945 277.629831 
L 392.027229 277.233352 
L 393.524994 275.802165 
L 395.022759 274.991119 
L 398.864853 270.175378 
L 400.199817 267.840455 
L 401.437101 266.743144 
L 402.739506 264.320707 
L 403.94423 264.031155 
L 405.279194 261.566869 
L 406.386238 257.754437 
L 407.753763 253.938116 
L 408.925927 248.643273 
L 410.358572 243.603055 
L 412.73546 230.784473 
L 414.102984 224.814568 
L 415.210028 215.820533 
L 416.740353 207.243166 
L 419.182362 183.916899 
L 420.387086 169.487679 
L 422.861654 135.256047 
L 424.229179 115.359946 
L 425.401343 93.547864 
L 425.401343 93.547864 
" clip-path="url(#pba2325d34d)" style="fill: none; stroke: #ff7f0e; stroke-width: 2.5; stroke-linecap: square"/>
   </g>
   <g id="line2d_17">
    <path d="M 55.127764 285.084614 
L 55.062644 285.583665 
L 55.127764 285.465877 
L 57.374412 285.002269 
L 64.081795 284.670554 
L 65.67724 284.782047 
L 70.593817 285.878216 
L 71.765981 285.744011 
L 73.068385 285.778158 
L 77.138399 285.312308 
L 78.473363 285.543789 
L 82.315457 285.505877 
L 87.459954 284.749822 
L 88.729798 285.021933 
L 89.934522 284.758256 
L 91.204367 284.859992 
L 92.506771 284.843608 
L 93.841736 285.196216 
L 95.14414 285.02787 
L 97.683829 285.157778 
L 98.953673 285.196152 
L 101.493362 285.882176 
L 102.698086 285.19419 
L 105.302895 285.228821 
L 106.540179 285.448864 
L 107.842583 285.255572 
L 110.382272 285.842771 
L 111.619556 285.422559 
L 112.85684 285.378572 
L 115.429089 284.510945 
L 116.731494 285.197206 
L 118.066458 284.853469 
L 119.368862 284.714817 
L 120.671267 284.436989 
L 123.145835 284.922309 
L 124.41568 284.590535 
L 125.685524 284.804319 
L 126.922808 284.363428 
L 129.495057 284.175335 
L 130.764901 283.112008 
L 133.27203 282.409899 
L 134.574434 282.850645 
L 137.146683 282.9774 
L 139.718932 283.730571 
L 142.25862 284.096825 
L 143.528465 283.925821 
L 147.272877 282.453619 
L 148.575282 281.50676 
L 151.14753 280.401886 
L 152.384815 280.774817 
L 153.654659 280.792405 
L 154.924503 281.285381 
L 156.194348 281.309202 
L 157.431632 281.636663 
L 158.734036 281.497328 
L 161.371405 280.679772 
L 162.576129 279.522197 
L 165.083258 275.949861 
L 167.688067 274.416145 
L 168.990471 274.249451 
L 170.195195 273.940933 
L 171.46504 273.162805 
L 172.702324 273.499898 
L 174.037288 273.549797 
L 175.307133 272.735786 
L 176.609537 272.238932 
L 177.814261 271.523584 
L 179.084105 270.961445 
L 180.35395 269.690494 
L 181.591234 268.647818 
L 182.893638 267.035674 
L 184.163483 265.669354 
L 185.400767 264.84679 
L 187.940456 262.463282 
L 189.2103 261.604289 
L 190.480144 260.565886 
L 191.782549 258.864055 
L 193.052393 256.984512 
L 194.289677 256.005861 
L 195.559521 254.793777 
L 198.09921 250.750582 
L 199.336494 248.336022 
L 200.638899 247.807007 
L 201.908743 245.185306 
L 203.178587 243.561116 
L 204.415872 241.544863 
L 205.685716 240.294237 
L 206.923 240.57074 
L 208.225405 240.246232 
L 209.462689 238.763199 
L 210.765093 236.723458 
L 212.002377 237.721668 
L 213.304782 238.005116 
L 214.574626 237.642415 
L 215.84447 238.20585 
L 217.081755 237.697846 
L 218.351599 238.923358 
L 219.588883 238.341092 
L 220.858727 238.023823 
L 223.430976 233.234734 
L 224.6357 232.925699 
L 225.905545 230.799662 
L 227.240509 230.370213 
L 228.412673 229.043011 
L 229.715078 229.080352 
L 230.984922 228.747625 
L 232.254766 227.508293 
L 233.49205 227.581451 
L 234.729335 227.805732 
L 237.236463 229.915172 
L 238.603988 231.412249 
L 239.841272 231.24657 
L 241.111116 232.177264 
L 242.348401 233.544498 
L 243.650805 233.922075 
L 244.920649 233.62713 
L 246.288174 234.200018 
L 247.525458 235.534812 
L 251.302431 241.045813 
L 252.539715 242.619406 
L 253.84212 245.115403 
L 255.144524 245.627781 
L 256.349248 247.163825 
L 257.651653 246.197002 
L 258.954057 246.334899 
L 260.126221 245.154594 
L 261.396065 244.12092 
L 262.73103 243.243637 
L 264.033434 243.374881 
L 265.368399 244.564628 
L 266.605683 245.449882 
L 267.908087 245.562159 
L 269.145372 246.071041 
L 270.447776 246.269407 
L 271.75018 246.722718 
L 274.257309 243.657751 
L 275.462033 242.793778 
L 278.001722 243.082715 
L 279.271566 244.00971 
L 280.606531 243.026091 
L 281.876375 242.241659 
L 283.081099 242.917254 
L 284.416063 242.418714 
L 285.685908 240.365728 
L 286.923192 239.109767 
L 288.160476 239.078475 
L 290.700165 238.693526 
L 291.937449 239.426305 
L 294.509698 239.183594 
L 295.746982 240.751715 
L 297.049386 241.086433 
L 298.286671 241.278305 
L 299.589075 240.411613 
L 300.826359 240.170547 
L 302.063643 238.705551 
L 303.300928 238.750233 
L 304.635892 237.612568 
L 305.840616 235.930249 
L 307.143021 235.314621 
L 308.380305 235.735151 
L 309.617589 236.757127 
L 310.887433 237.592538 
L 312.157278 236.078029 
L 313.492242 235.485354 
L 314.696966 234.728135 
L 315.999371 234.242401 
L 317.236655 232.10404 
L 318.506499 230.430808 
L 319.808904 229.173356 
L 321.046188 227.073012 
L 322.283472 226.807167 
L 323.553317 224.692514 
L 324.823161 222.966723 
L 327.362849 223.092578 
L 328.958295 220.881198 
L 330.228139 220.859743 
L 331.628224 220.275339 
L 332.898068 216.135897 
L 334.167913 214.91241 
L 335.437757 213.909822 
L 336.740161 209.890272 
L 337.912325 207.563017 
L 339.24729 207.833866 
L 340.484574 206.760437 
L 341.689298 206.606116 
L 343.024263 208.962573 
L 344.294107 209.059934 
L 345.563951 208.546975 
L 346.833796 210.75933 
L 348.00596 212.238776 
L 349.340924 211.626872 
L 350.675889 211.143725 
L 351.815493 214.056896 
L 353.150457 215.458149 
L 354.387741 220.071209 
L 355.690146 224.132408 
L 356.95999 225.940455 
L 359.532239 231.268564 
L 360.704403 232.758516 
L 361.974247 233.278988 
L 363.244091 232.960016 
L 364.579056 234.70263 
L 365.946581 235.938942 
L 367.086185 237.943666 
L 368.290909 240.602142 
L 369.593313 242.457332 
L 370.895717 245.833316 
L 372.165562 247.969751 
L 373.370286 247.941559 
L 375.877414 249.124289 
L 377.114699 250.579403 
L 378.384543 251.085638 
L 379.654387 250.236894 
L 381.021912 250.771245 
L 382.226636 251.749846 
L 383.43136 253.656759 
L 384.733764 253.260455 
L 386.101289 253.701762 
L 387.273453 254.393107 
L 388.510737 255.494857 
L 389.780582 256.935295 
L 391.148106 256.64285 
L 392.385391 256.050838 
L 393.850595 255.805625 
L 395.28324 255.162834 
L 396.618205 255.903696 
L 397.888049 253.716476 
L 399.060213 252.381186 
L 400.492858 250.008196 
L 401.665022 248.346388 
L 402.902306 246.353542 
L 404.10703 244.160962 
L 405.539675 242.689543 
L 406.80952 240.46751 
L 409.186408 231.825965 
L 410.521372 225.12082 
L 411.856337 219.462291 
L 414.363465 202.535139 
L 415.63331 191.291838 
L 416.805474 179.062886 
L 418.238118 169.075288 
L 419.442842 154.824597 
L 420.647567 137.94332 
L 421.949971 117.845784 
L 424.55478 65.937191 
L 425.564143 33.093759 
L 425.564143 33.093759 
" clip-path="url(#pba2325d34d)" style="fill: none; stroke: #ff0000; stroke-width: 2.5; stroke-linecap: square"/>
   </g>
   <g id="patch_3">
    <path d="M 35.624258 299.822656 
L 35.624258 20.392383 
" style="fill: none; stroke: #000000; stroke-width: 1.5; stroke-linejoin: miter; stroke-linecap: square"/>
   </g>
   <g id="patch_4">
    <path d="M 35.624258 299.822656 
L 426.345586 299.822656 
" style="fill: none; stroke: #000000; stroke-width: 1.5; stroke-linejoin: miter; stroke-linecap: square"/>
   </g>
   <g id="legend_1">
    <g id="line2d_18">
     <path d="M 46.424258 35.728711 
L 58.424258 35.728711 
L 70.424258 35.728711 
" style="fill: none; stroke: #000000; stroke-width: 2.5; stroke-linecap: square"/>
    </g>
    <g id="text_16">
     <!-- vacuum -->
     <g transform="translate(80.024258 39.928711) scale(0.12 -0.12)">
      <defs>
       <path id="ArialMT-59" d="M 1344 0 
L 81 3319 
L 675 3319 
L 1388 1331 
Q 1503 1009 1600 663 
Q 1675 925 1809 1294 
L 2547 3319 
L 3125 3319 
L 1869 0 
L 1344 0 
z
" transform="scale(0.015625)"/>
       <path id="ArialMT-46" d="M 2588 1216 
L 3141 1144 
Q 3050 572 2676 248 
Q 2303 -75 1759 -75 
Q 1078 -75 664 370 
Q 250 816 250 1647 
Q 250 2184 428 2587 
Q 606 2991 970 3192 
Q 1334 3394 1763 3394 
Q 2303 3394 2647 3120 
Q 2991 2847 3088 2344 
L 2541 2259 
Q 2463 2594 2264 2762 
Q 2066 2931 1784 2931 
Q 1359 2931 1093 2626 
Q 828 2322 828 1663 
Q 828 994 1084 691 
Q 1341 388 1753 388 
Q 2084 388 2306 591 
Q 2528 794 2588 1216 
z
" transform="scale(0.015625)"/>
      </defs>
      <use xlink:href="#ArialMT-59"/>
      <use xlink:href="#ArialMT-44" transform="translate(50 0)"/>
      <use xlink:href="#ArialMT-46" transform="translate(105.609375 0)"/>
      <use xlink:href="#ArialMT-58" transform="translate(155.609375 0)"/>
      <use xlink:href="#ArialMT-58" transform="translate(211.21875 0)"/>
      <use xlink:href="#ArialMT-50" transform="translate(266.828125 0)"/>
     </g>
    </g>
    <g id="line2d_19">
     <path d="M 46.424258 52.99043 
L 58.424258 52.99043 
L 70.424258 52.99043 
" style="fill: none; stroke: #1f77b4; stroke-width: 2.5; stroke-linecap: square"/>
    </g>
    <g id="text_17">
     <!-- 1h -->
     <g transform="translate(80.024258 57.19043) scale(0.12 -0.12)">
      <defs>
       <path id="ArialMT-4b" d="M 422 0 
L 422 4581 
L 984 4581 
L 984 2938 
Q 1378 3394 1978 3394 
Q 2347 3394 2619 3248 
Q 2891 3103 3008 2847 
Q 3125 2591 3125 2103 
L 3125 0 
L 2563 0 
L 2563 2103 
Q 2563 2525 2380 2717 
Q 2197 2909 1863 2909 
Q 1613 2909 1392 2779 
Q 1172 2650 1078 2428 
Q 984 2206 984 1816 
L 984 0 
L 422 0 
z
" transform="scale(0.015625)"/>
      </defs>
      <use xlink:href="#ArialMT-14"/>
      <use xlink:href="#ArialMT-4b" transform="translate(55.609375 0)"/>
     </g>
    </g>
    <g id="line2d_20">
     <path d="M 46.424258 70.252148 
L 58.424258 70.252148 
L 70.424258 70.252148 
" style="fill: none; stroke: #0033ff; stroke-width: 2.5; stroke-linecap: square"/>
    </g>
    <g id="text_18">
     <!-- 2h -->
     <g transform="translate(80.024258 74.452148) scale(0.12 -0.12)">
      <use xlink:href="#ArialMT-15"/>
      <use xlink:href="#ArialMT-4b" transform="translate(55.609375 0)"/>
     </g>
    </g>
    <g id="line2d_21">
     <path d="M 46.424258 87.513867 
L 58.424258 87.513867 
L 70.424258 87.513867 
" style="fill: none; stroke: #ff7f0e; stroke-width: 2.5; stroke-linecap: square"/>
    </g>
    <g id="text_19">
     <!-- 4h -->
     <g transform="translate(80.024258 91.713867) scale(0.12 -0.12)">
      <use xlink:href="#ArialMT-17"/>
      <use xlink:href="#ArialMT-4b" transform="translate(55.609375 0)"/>
     </g>
    </g>
    <g id="line2d_22">
     <path d="M 46.424258 104.775586 
L 58.424258 104.775586 
L 70.424258 104.775586 
" style="fill: none; stroke: #ff0000; stroke-width: 2.5; stroke-linecap: square"/>
    </g>
    <g id="text_20">
     <!-- first -->
     <g transform="translate(80.024258 108.975586) scale(0.12 -0.12)">
      <defs>
       <path id="ArialMT-49" d="M 556 0 
L 556 2881 
L 59 2881 
L 59 3319 
L 556 3319 
L 556 3672 
Q 556 4006 616 4169 
Q 697 4388 901 4523 
Q 1106 4659 1475 4659 
Q 1713 4659 2000 4603 
L 1916 4113 
Q 1741 4144 1584 4144 
Q 1328 4144 1222 4034 
Q 1116 3925 1116 3625 
L 1116 3319 
L 1763 3319 
L 1763 2881 
L 1116 2881 
L 1116 0 
L 556 0 
z
" transform="scale(0.015625)"/>
       <path id="ArialMT-4c" d="M 425 3934 
L 425 4581 
L 988 4581 
L 988 3934 
L 425 3934 
z
M 425 0 
L 425 3319 
L 988 3319 
L 988 0 
L 425 0 
z
" transform="scale(0.015625)"/>
       <path id="ArialMT-56" d="M 197 991 
L 753 1078 
Q 800 744 1014 566 
Q 1228 388 1613 388 
Q 2000 388 2187 545 
Q 2375 703 2375 916 
Q 2375 1106 2209 1216 
Q 2094 1291 1634 1406 
Q 1016 1563 777 1677 
Q 538 1791 414 1992 
Q 291 2194 291 2438 
Q 291 2659 392 2848 
Q 494 3038 669 3163 
Q 800 3259 1026 3326 
Q 1253 3394 1513 3394 
Q 1903 3394 2198 3281 
Q 2494 3169 2634 2976 
Q 2775 2784 2828 2463 
L 2278 2388 
Q 2241 2644 2061 2787 
Q 1881 2931 1553 2931 
Q 1166 2931 1000 2803 
Q 834 2675 834 2503 
Q 834 2394 903 2306 
Q 972 2216 1119 2156 
Q 1203 2125 1616 2013 
Q 2213 1853 2448 1751 
Q 2684 1650 2818 1456 
Q 2953 1263 2953 975 
Q 2953 694 2789 445 
Q 2625 197 2315 61 
Q 2006 -75 1616 -75 
Q 969 -75 630 194 
Q 291 463 197 991 
z
" transform="scale(0.015625)"/>
      </defs>
      <use xlink:href="#ArialMT-49"/>
      <use xlink:href="#ArialMT-4c" transform="translate(27.78125 0)"/>
      <use xlink:href="#ArialMT-55" transform="translate(50 0)"/>
      <use xlink:href="#ArialMT-56" transform="translate(83.296875 0)"/>
      <use xlink:href="#ArialMT-57" transform="translate(133.296875 0)"/>
     </g>
    </g>
   </g>
  </g>
 </g>
 <defs>
  <clipPath id="pba2325d34d">
   <rect x="35.624258" y="20.392383" width="390.721328" height="279.430273"/>
  </clipPath>
 </defs>
</svg>
