<?xml version="1.0" encoding="utf-8" standalone="no"?>
<!DOCTYPE svg PUBLIC "-//W3C//DTD SVG 1.1//EN"
  "http://www.w3.org/Graphics/SVG/1.1/DTD/svg11.dtd">
<svg xmlns:xlink="http://www.w3.org/1999/xlink" width="449.116211pt" height="340.800273pt" viewBox="0 0 449.116211 340.800273" xmlns="http://www.w3.org/2000/svg" version="1.1">
 <metadata>
  <rdf:RDF xmlns:dc="http://purl.org/dc/elements/1.1/" xmlns:cc="http://creativecommons.org/ns#" xmlns:rdf="http://www.w3.org/1999/02/22-rdf-syntax-ns#">
   <cc:Work>
    <dc:type rdf:resource="http://purl.org/dc/dcmitype/StillImage"/>
    <dc:date>2026-07-09T17:08:11.887890</dc:date>
    <dc:format>image/svg+xml</dc:format>
    <dc:creator>
     <cc:Agent>
      <dc:title>Matplotlib v3.11.0, https://matplotlib.org/</dc:title>
     </cc:Agent>
    </dc:creator>
   </cc:Work>
  </rdf:RDF>
 </metadata>
 <defs>
  <style type="text/css">*{stroke-linejoin: round; stroke-linecap: butt}</style>
 </defs>
 <g id="figure_1">
  <g id="patch_1">
   <path d="M 0 340.800273 
L 449.116211 340.800273 
L 449.116211 0 
L 0 0 
z
" style="fill: #ffffff"/>
  </g>
  <g id="axes_1">
   <g id="patch_2">
    <path d="M 35.624258 299.822656 
L 426.345586 299.822656 
L 426.345586 20.392383 
L 35.624258 20.392383 
z
" style="fill: #ffffff"/>
   </g>
   <g id="matplotlib.axis_1">
    <g id="xtick_1">
     <g id="line2d_1">
      <defs>
       <path id="m06524a17f4" d="M 0 0 
L 0 -6 
" style="stroke: #000000; stroke-width: 1.5"/>
      </defs>
      <g>
       <use xlink:href="#m06524a17f4" x="35.624258" y="299.822656" style="stroke: #000000; stroke-width: 1.5"/>
      </g>
     </g>
     <g id="text_1">
      <!-- 0 -->
      <g transform="translate(31.731602 313.515039) scale(0.14 -0.14)">
       <defs>
        <path id="ArialMT-13" d="M 266 2259 
Q 266 3072 433 3567 
Q 600 4063 929 4331 
Q 1259 4600 1759 4600 
Q 2128 4600 2406 4451 
Q 2684 4303 2865 4023 
Q 3047 3744 3150 3342 
Q 3253 2941 3253 2259 
Q 3253 1453 3087 958 
Q 2922 463 2592 192 
Q 2263 -78 1759 -78 
Q 1097 -78 719 397 
Q 266 969 266 2259 
z
M 844 2259 
Q 844 1131 1108 757 
Q 1372 384 1759 384 
Q 2147 384 2411 759 
Q 2675 1134 2675 2259 
Q 2675 3391 2411 3762 
Q 2147 4134 1753 4134 
Q 1366 4134 1134 3806 
Q 844 3388 844 2259 
z
" transform="scale(0.015625)"/>
       </defs>
       <use xlink:href="#ArialMT-13"/>
      </g>
     </g>
    </g>
    <g id="xtick_2">
     <g id="line2d_2">
      <g>
       <use xlink:href="#m06524a17f4" x="100.744479" y="299.822656" style="stroke: #000000; stroke-width: 1.5"/>
      </g>
     </g>
     <g id="text_2">
      <!-- 200 -->
      <g transform="translate(89.06651 313.515039) scale(0.14 -0.14)">
       <defs>
        <path id="ArialMT-15" d="M 3222 541 
L 3222 0 
L 194 0 
Q 188 203 259 391 
Q 375 700 629 1000 
Q 884 1300 1366 1694 
Q 2113 2306 2375 2664 
Q 2638 3022 2638 3341 
Q 2638 3675 2398 3904 
Q 2159 4134 1775 4134 
Q 1369 4134 1125 3890 
Q 881 3647 878 3216 
L 300 3275 
Q 359 3922 746 4261 
Q 1134 4600 1788 4600 
Q 2447 4600 2831 4234 
Q 3216 3869 3216 3328 
Q 3216 3053 3103 2787 
Q 2991 2522 2730 2228 
Q 2469 1934 1863 1422 
Q 1356 997 1212 845 
Q 1069 694 975 541 
L 3222 541 
z
" transform="scale(0.015625)"/>
       </defs>
       <use xlink:href="#ArialMT-15"/>
       <use xlink:href="#ArialMT-13" transform="translate(55.609375 0)"/>
       <use xlink:href="#ArialMT-13" transform="translate(111.21875 0)"/>
      </g>
     </g>
    </g>
    <g id="xtick_3">
     <g id="line2d_3">
      <g>
       <use xlink:href="#m06524a17f4" x="165.864701" y="299.822656" style="stroke: #000000; stroke-width: 1.5"/>
      </g>
     </g>
     <g id="text_3">
      <!-- 400 -->
      <g transform="translate(154.186732 313.515039) scale(0.14 -0.14)">
       <defs>
        <path id="ArialMT-17" d="M 2069 0 
L 2069 1097 
L 81 1097 
L 81 1613 
L 2172 4581 
L 2631 4581 
L 2631 1613 
L 3250 1613 
L 3250 1097 
L 2631 1097 
L 2631 0 
L 2069 0 
z
M 2069 1613 
L 2069 3678 
L 634 1613 
L 2069 1613 
z
" transform="scale(0.015625)"/>
       </defs>
       <use xlink:href="#ArialMT-17"/>
       <use xlink:href="#ArialMT-13" transform="translate(55.609375 0)"/>
       <use xlink:href="#ArialMT-13" transform="translate(111.21875 0)"/>
      </g>
     </g>
    </g>
    <g id="xtick_4">
     <g id="line2d_4">
      <g>
       <use xlink:href="#m06524a17f4" x="230.984922" y="299.822656" style="stroke: #000000; stroke-width: 1.5"/>
      </g>
     </g>
     <g id="text_4">
      <!-- 600 -->
      <g transform="translate(219.306953 313.515039) scale(0.14 -0.14)">
       <defs>
        <path id="ArialMT-19" d="M 3184 3459 
L 2625 3416 
Q 2550 3747 2413 3897 
Q 2184 4138 1850 4138 
Q 1581 4138 1378 3988 
Q 1113 3794 959 3422 
Q 806 3050 800 2363 
Q 1003 2672 1297 2822 
Q 1591 2972 1913 2972 
Q 2475 2972 2870 2558 
Q 3266 2144 3266 1488 
Q 3266 1056 3080 686 
Q 2894 316 2569 119 
Q 2244 -78 1831 -78 
Q 1128 -78 684 439 
Q 241 956 241 2144 
Q 241 3472 731 4075 
Q 1159 4600 1884 4600 
Q 2425 4600 2770 4297 
Q 3116 3994 3184 3459 
z
M 888 1484 
Q 888 1194 1011 928 
Q 1134 663 1356 523 
Q 1578 384 1822 384 
Q 2178 384 2434 671 
Q 2691 959 2691 1453 
Q 2691 1928 2437 2201 
Q 2184 2475 1800 2475 
Q 1419 2475 1153 2201 
Q 888 1928 888 1484 
z
" transform="scale(0.015625)"/>
       </defs>
       <use xlink:href="#ArialMT-19"/>
       <use xlink:href="#ArialMT-13" transform="translate(55.609375 0)"/>
       <use xlink:href="#ArialMT-13" transform="translate(111.21875 0)"/>
      </g>
     </g>
    </g>
    <g id="xtick_5">
     <g id="line2d_5">
      <g>
       <use xlink:href="#m06524a17f4" x="296.105143" y="299.822656" style="stroke: #000000; stroke-width: 1.5"/>
      </g>
     </g>
     <g id="text_5">
      <!-- 800 -->
      <g transform="translate(284.427174 313.515039) scale(0.14 -0.14)">
       <defs>
        <path id="ArialMT-1b" d="M 1131 2484 
Q 781 2613 612 2850 
Q 444 3088 444 3419 
Q 444 3919 803 4259 
Q 1163 4600 1759 4600 
Q 2359 4600 2725 4251 
Q 3091 3903 3091 3403 
Q 3091 3084 2923 2848 
Q 2756 2613 2416 2484 
Q 2838 2347 3058 2040 
Q 3278 1734 3278 1309 
Q 3278 722 2862 322 
Q 2447 -78 1769 -78 
Q 1091 -78 675 323 
Q 259 725 259 1325 
Q 259 1772 486 2073 
Q 713 2375 1131 2484 
z
M 1019 3438 
Q 1019 3113 1228 2906 
Q 1438 2700 1772 2700 
Q 2097 2700 2305 2904 
Q 2513 3109 2513 3406 
Q 2513 3716 2298 3927 
Q 2084 4138 1766 4138 
Q 1444 4138 1231 3931 
Q 1019 3725 1019 3438 
z
M 838 1322 
Q 838 1081 952 856 
Q 1066 631 1291 507 
Q 1516 384 1775 384 
Q 2178 384 2440 643 
Q 2703 903 2703 1303 
Q 2703 1709 2433 1975 
Q 2163 2241 1756 2241 
Q 1359 2241 1098 1978 
Q 838 1716 838 1322 
z
" transform="scale(0.015625)"/>
       </defs>
       <use xlink:href="#ArialMT-1b"/>
       <use xlink:href="#ArialMT-13" transform="translate(55.609375 0)"/>
       <use xlink:href="#ArialMT-13" transform="translate(111.21875 0)"/>
      </g>
     </g>
    </g>
    <g id="xtick_6">
     <g id="line2d_6">
      <g>
       <use xlink:href="#m06524a17f4" x="361.225365" y="299.822656" style="stroke: #000000; stroke-width: 1.5"/>
      </g>
     </g>
     <g id="text_6">
      <!-- 1000 -->
      <g transform="translate(345.65474 313.515039) scale(0.14 -0.14)">
       <defs>
        <path id="ArialMT-14" d="M 2384 0 
L 1822 0 
L 1822 3584 
Q 1619 3391 1289 3197 
Q 959 3003 697 2906 
L 697 3450 
Q 1169 3672 1522 3987 
Q 1875 4303 2022 4600 
L 2384 4600 
L 2384 0 
z
" transform="scale(0.015625)"/>
       </defs>
       <use xlink:href="#ArialMT-14"/>
       <use xlink:href="#ArialMT-13" transform="translate(55.609375 0)"/>
       <use xlink:href="#ArialMT-13" transform="translate(111.21875 0)"/>
       <use xlink:href="#ArialMT-13" transform="translate(166.828125 0)"/>
      </g>
     </g>
    </g>
    <g id="xtick_7">
     <g id="line2d_7">
      <g>
       <use xlink:href="#m06524a17f4" x="426.345586" y="299.822656" style="stroke: #000000; stroke-width: 1.5"/>
      </g>
     </g>
     <g id="text_7">
      <!-- 1200 -->
      <g transform="translate(410.774961 313.515039) scale(0.14 -0.14)">
       <use xlink:href="#ArialMT-14"/>
       <use xlink:href="#ArialMT-15" transform="translate(55.609375 0)"/>
       <use xlink:href="#ArialMT-13" transform="translate(111.21875 0)"/>
       <use xlink:href="#ArialMT-13" transform="translate(166.828125 0)"/>
      </g>
     </g>
    </g>
    <g id="text_8">
     <!-- T1 Temperature (°C) -->
     <g transform="translate(167.245547 330.653711) scale(0.14 -0.14)">
      <defs>
       <path id="ArialMT-37" d="M 1659 0 
L 1659 4041 
L 150 4041 
L 150 4581 
L 3781 4581 
L 3781 4041 
L 2266 4041 
L 2266 0 
L 1659 0 
z
" transform="scale(0.015625)"/>
       <path id="ArialMT-3" transform="scale(0.015625)"/>
       <path id="ArialMT-48" d="M 2694 1069 
L 3275 997 
Q 3138 488 2766 206 
Q 2394 -75 1816 -75 
Q 1088 -75 661 373 
Q 234 822 234 1631 
Q 234 2469 665 2931 
Q 1097 3394 1784 3394 
Q 2450 3394 2872 2941 
Q 3294 2488 3294 1666 
Q 3294 1616 3291 1516 
L 816 1516 
Q 847 969 1125 678 
Q 1403 388 1819 388 
Q 2128 388 2347 550 
Q 2566 713 2694 1069 
z
M 847 1978 
L 2700 1978 
Q 2663 2397 2488 2606 
Q 2219 2931 1791 2931 
Q 1403 2931 1139 2672 
Q 875 2413 847 1978 
z
" transform="scale(0.015625)"/>
       <path id="ArialMT-50" d="M 422 0 
L 422 3319 
L 925 3319 
L 925 2853 
Q 1081 3097 1340 3245 
Q 1600 3394 1931 3394 
Q 2300 3394 2536 3241 
Q 2772 3088 2869 2813 
Q 3263 3394 3894 3394 
Q 4388 3394 4653 3120 
Q 4919 2847 4919 2278 
L 4919 0 
L 4359 0 
L 4359 2091 
Q 4359 2428 4304 2576 
Q 4250 2725 4106 2815 
Q 3963 2906 3769 2906 
Q 3419 2906 3187 2673 
Q 2956 2441 2956 1928 
L 2956 0 
L 2394 0 
L 2394 2156 
Q 2394 2531 2256 2718 
Q 2119 2906 1806 2906 
Q 1569 2906 1367 2781 
Q 1166 2656 1075 2415 
Q 984 2175 984 1722 
L 984 0 
L 422 0 
z
" transform="scale(0.015625)"/>
       <path id="ArialMT-53" d="M 422 -1272 
L 422 3319 
L 934 3319 
L 934 2888 
Q 1116 3141 1344 3267 
Q 1572 3394 1897 3394 
Q 2322 3394 2647 3175 
Q 2972 2956 3137 2557 
Q 3303 2159 3303 1684 
Q 3303 1175 3120 767 
Q 2938 359 2589 142 
Q 2241 -75 1856 -75 
Q 1575 -75 1351 44 
Q 1128 163 984 344 
L 984 -1272 
L 422 -1272 
z
M 931 1641 
Q 931 1000 1190 694 
Q 1450 388 1819 388 
Q 2194 388 2461 705 
Q 2728 1022 2728 1688 
Q 2728 2322 2467 2637 
Q 2206 2953 1844 2953 
Q 1484 2953 1207 2617 
Q 931 2281 931 1641 
z
" transform="scale(0.015625)"/>
       <path id="ArialMT-55" d="M 416 0 
L 416 3319 
L 922 3319 
L 922 2816 
Q 1116 3169 1280 3281 
Q 1444 3394 1641 3394 
Q 1925 3394 2219 3213 
L 2025 2691 
Q 1819 2813 1613 2813 
Q 1428 2813 1281 2702 
Q 1134 2591 1072 2394 
Q 978 2094 978 1738 
L 978 0 
L 416 0 
z
" transform="scale(0.015625)"/>
       <path id="ArialMT-44" d="M 2588 409 
Q 2275 144 1986 34 
Q 1697 -75 1366 -75 
Q 819 -75 525 192 
Q 231 459 231 875 
Q 231 1119 342 1320 
Q 453 1522 633 1644 
Q 813 1766 1038 1828 
Q 1203 1872 1538 1913 
Q 2219 1994 2541 2106 
Q 2544 2222 2544 2253 
Q 2544 2597 2384 2738 
Q 2169 2928 1744 2928 
Q 1347 2928 1158 2789 
Q 969 2650 878 2297 
L 328 2372 
Q 403 2725 575 2942 
Q 747 3159 1072 3276 
Q 1397 3394 1825 3394 
Q 2250 3394 2515 3294 
Q 2781 3194 2906 3042 
Q 3031 2891 3081 2659 
Q 3109 2516 3109 2141 
L 3109 1391 
Q 3109 606 3145 398 
Q 3181 191 3288 0 
L 2700 0 
Q 2613 175 2588 409 
z
M 2541 1666 
Q 2234 1541 1622 1453 
Q 1275 1403 1131 1340 
Q 988 1278 909 1158 
Q 831 1038 831 891 
Q 831 666 1001 516 
Q 1172 366 1500 366 
Q 1825 366 2078 508 
Q 2331 650 2450 897 
Q 2541 1088 2541 1459 
L 2541 1666 
z
" transform="scale(0.015625)"/>
       <path id="ArialMT-57" d="M 1650 503 
L 1731 6 
Q 1494 -44 1306 -44 
Q 1000 -44 831 53 
Q 663 150 594 308 
Q 525 466 525 972 
L 525 2881 
L 113 2881 
L 113 3319 
L 525 3319 
L 525 4141 
L 1084 4478 
L 1084 3319 
L 1650 3319 
L 1650 2881 
L 1084 2881 
L 1084 941 
Q 1084 700 1114 631 
Q 1144 563 1211 522 
Q 1278 481 1403 481 
Q 1497 481 1650 503 
z
" transform="scale(0.015625)"/>
       <path id="ArialMT-58" d="M 2597 0 
L 2597 488 
Q 2209 -75 1544 -75 
Q 1250 -75 995 37 
Q 741 150 617 320 
Q 494 491 444 738 
Q 409 903 409 1263 
L 409 3319 
L 972 3319 
L 972 1478 
Q 972 1038 1006 884 
Q 1059 663 1231 536 
Q 1403 409 1656 409 
Q 1909 409 2131 539 
Q 2353 669 2445 892 
Q 2538 1116 2538 1541 
L 2538 3319 
L 3100 3319 
L 3100 0 
L 2597 0 
z
" transform="scale(0.015625)"/>
       <path id="ArialMT-b" d="M 1497 -1347 
Q 1031 -759 709 28 
Q 388 816 388 1659 
Q 388 2403 628 3084 
Q 909 3875 1497 4659 
L 1900 4659 
Q 1522 4009 1400 3731 
Q 1209 3300 1100 2831 
Q 966 2247 966 1656 
Q 966 153 1900 -1347 
L 1497 -1347 
z
" transform="scale(0.015625)"/>
       <path id="ArialMT-83" d="M 400 3794 
Q 400 4153 654 4406 
Q 909 4659 1266 4659 
Q 1628 4659 1881 4406 
Q 2134 4153 2134 3794 
Q 2134 3434 1879 3179 
Q 1625 2925 1266 2925 
Q 909 2925 654 3178 
Q 400 3431 400 3794 
z
M 741 3794 
Q 741 3575 895 3420 
Q 1050 3266 1269 3266 
Q 1484 3266 1639 3420 
Q 1794 3575 1794 3794 
Q 1794 4013 1639 4167 
Q 1484 4322 1269 4322 
Q 1050 4322 895 4167 
Q 741 4013 741 3794 
z
" transform="scale(0.015625)"/>
       <path id="ArialMT-26" d="M 3763 1606 
L 4369 1453 
Q 4178 706 3683 314 
Q 3188 -78 2472 -78 
Q 1731 -78 1267 223 
Q 803 525 561 1097 
Q 319 1669 319 2325 
Q 319 3041 592 3573 
Q 866 4106 1370 4382 
Q 1875 4659 2481 4659 
Q 3169 4659 3637 4309 
Q 4106 3959 4291 3325 
L 3694 3184 
Q 3534 3684 3231 3912 
Q 2928 4141 2469 4141 
Q 1941 4141 1586 3887 
Q 1231 3634 1087 3207 
Q 944 2781 944 2328 
Q 944 1744 1114 1308 
Q 1284 872 1643 656 
Q 2003 441 2422 441 
Q 2931 441 3284 734 
Q 3638 1028 3763 1606 
z
" transform="scale(0.015625)"/>
       <path id="ArialMT-c" d="M 791 -1347 
L 388 -1347 
Q 1322 153 1322 1656 
Q 1322 2244 1188 2822 
Q 1081 3291 891 3722 
Q 769 4003 388 4659 
L 791 4659 
Q 1378 3875 1659 3084 
Q 1900 2403 1900 1659 
Q 1900 816 1576 28 
Q 1253 -759 791 -1347 
z
" transform="scale(0.015625)"/>
      </defs>
      <use xlink:href="#ArialMT-37"/>
      <use xlink:href="#ArialMT-14" transform="translate(61.078125 0)"/>
      <use xlink:href="#ArialMT-3" transform="translate(116.6875 0)"/>
      <use xlink:href="#ArialMT-37" transform="translate(142.65625 0)"/>
      <use xlink:href="#ArialMT-48" transform="translate(192.65625 0)"/>
      <use xlink:href="#ArialMT-50" transform="translate(248.265625 0)"/>
      <use xlink:href="#ArialMT-53" transform="translate(331.5625 0)"/>
      <use xlink:href="#ArialMT-48" transform="translate(387.171875 0)"/>
      <use xlink:href="#ArialMT-55" transform="translate(442.78125 0)"/>
      <use xlink:href="#ArialMT-44" transform="translate(476.078125 0)"/>
      <use xlink:href="#ArialMT-57" transform="translate(531.6875 0)"/>
      <use xlink:href="#ArialMT-58" transform="translate(559.46875 0)"/>
      <use xlink:href="#ArialMT-55" transform="translate(615.078125 0)"/>
      <use xlink:href="#ArialMT-48" transform="translate(648.375 0)"/>
      <use xlink:href="#ArialMT-3" transform="translate(703.984375 0)"/>
      <use xlink:href="#ArialMT-b" transform="translate(731.765625 0)"/>
      <use xlink:href="#ArialMT-83" transform="translate(765.0625 0)"/>
      <use xlink:href="#ArialMT-26" transform="translate(805.046875 0)"/>
      <use xlink:href="#ArialMT-c" transform="translate(877.265625 0)"/>
     </g>
    </g>
   </g>
   <g id="matplotlib.axis_2">
    <g id="ytick_1">
     <g id="line2d_8">
      <defs>
       <path id="mbe8b50f203" d="M 0 0 
L 6 0 
" style="stroke: #000000; stroke-width: 1.5"/>
      </defs>
      <g>
       <use xlink:href="#mbe8b50f203" x="35.624258" y="287.074545" style="stroke: #000000; stroke-width: 1.5"/>
      </g>
     </g>
     <g id="text_9">
      <!-- 0 -->
      <g transform="translate(24.338945 292.170737) scale(0.14 -0.14)">
       <use xlink:href="#ArialMT-13"/>
      </g>
     </g>
    </g>
    <g id="ytick_2">
     <g id="line2d_9">
      <g>
       <use xlink:href="#mbe8b50f203" x="35.624258" y="236.673898" style="stroke: #000000; stroke-width: 1.5"/>
      </g>
     </g>
     <g id="text_10">
      <!-- 1 -->
      <g transform="translate(24.338945 241.770089) scale(0.14 -0.14)">
       <use xlink:href="#ArialMT-14"/>
      </g>
     </g>
    </g>
    <g id="ytick_3">
     <g id="line2d_10">
      <g>
       <use xlink:href="#mbe8b50f203" x="35.624258" y="186.27325" style="stroke: #000000; stroke-width: 1.5"/>
      </g>
     </g>
     <g id="text_11">
      <!-- 2 -->
      <g transform="translate(24.338945 191.369442) scale(0.14 -0.14)">
       <use xlink:href="#ArialMT-15"/>
      </g>
     </g>
    </g>
    <g id="ytick_4">
     <g id="line2d_11">
      <g>
       <use xlink:href="#mbe8b50f203" x="35.624258" y="135.872603" style="stroke: #000000; stroke-width: 1.5"/>
      </g>
     </g>
     <g id="text_12">
      <!-- 3 -->
      <g transform="translate(24.338945 140.968794) scale(0.14 -0.14)">
       <defs>
        <path id="ArialMT-16" d="M 269 1209 
L 831 1284 
Q 928 806 1161 595 
Q 1394 384 1728 384 
Q 2125 384 2398 659 
Q 2672 934 2672 1341 
Q 2672 1728 2419 1979 
Q 2166 2231 1775 2231 
Q 1616 2231 1378 2169 
L 1441 2663 
Q 1497 2656 1531 2656 
Q 1891 2656 2178 2843 
Q 2466 3031 2466 3422 
Q 2466 3731 2256 3934 
Q 2047 4138 1716 4138 
Q 1388 4138 1169 3931 
Q 950 3725 888 3313 
L 325 3413 
Q 428 3978 793 4289 
Q 1159 4600 1703 4600 
Q 2078 4600 2393 4439 
Q 2709 4278 2876 4000 
Q 3044 3722 3044 3409 
Q 3044 3113 2884 2869 
Q 2725 2625 2413 2481 
Q 2819 2388 3044 2092 
Q 3269 1797 3269 1353 
Q 3269 753 2831 336 
Q 2394 -81 1725 -81 
Q 1122 -81 723 278 
Q 325 638 269 1209 
z
" transform="scale(0.015625)"/>
       </defs>
       <use xlink:href="#ArialMT-16"/>
      </g>
     </g>
    </g>
    <g id="ytick_5">
     <g id="line2d_12">
      <g>
       <use xlink:href="#mbe8b50f203" x="35.624258" y="85.471955" style="stroke: #000000; stroke-width: 1.5"/>
      </g>
     </g>
     <g id="text_13">
      <!-- 4 -->
      <g transform="translate(24.338945 90.568147) scale(0.14 -0.14)">
       <use xlink:href="#ArialMT-17"/>
      </g>
     </g>
    </g>
    <g id="ytick_6">
     <g id="line2d_13">
      <g>
       <use xlink:href="#mbe8b50f203" x="35.624258" y="35.071308" style="stroke: #000000; stroke-width: 1.5"/>
      </g>
     </g>
     <g id="text_14">
      <!-- 5 -->
      <g transform="translate(24.338945 40.167499) scale(0.14 -0.14)">
       <defs>
        <path id="ArialMT-18" d="M 266 1200 
L 856 1250 
Q 922 819 1161 601 
Q 1400 384 1738 384 
Q 2144 384 2425 690 
Q 2706 997 2706 1503 
Q 2706 1984 2436 2262 
Q 2166 2541 1728 2541 
Q 1456 2541 1237 2417 
Q 1019 2294 894 2097 
L 366 2166 
L 809 4519 
L 3088 4519 
L 3088 3981 
L 1259 3981 
L 1013 2750 
Q 1425 3038 1878 3038 
Q 2478 3038 2890 2622 
Q 3303 2206 3303 1553 
Q 3303 931 2941 478 
Q 2500 -78 1738 -78 
Q 1113 -78 717 272 
Q 322 622 266 1200 
z
" transform="scale(0.015625)"/>
       </defs>
       <use xlink:href="#ArialMT-18"/>
      </g>
     </g>
    </g>
    <g id="text_15">
     <!-- Ion Current (m/z 15) -->
     <g transform="translate(17.392383 222.733457) rotate(-90) scale(0.14 -0.14)">
      <defs>
       <path id="ArialMT-2c" d="M 597 0 
L 597 4581 
L 1203 4581 
L 1203 0 
L 597 0 
z
" transform="scale(0.015625)"/>
       <path id="ArialMT-52" d="M 213 1659 
Q 213 2581 725 3025 
Q 1153 3394 1769 3394 
Q 2453 3394 2887 2945 
Q 3322 2497 3322 1706 
Q 3322 1066 3130 698 
Q 2938 331 2570 128 
Q 2203 -75 1769 -75 
Q 1072 -75 642 372 
Q 213 819 213 1659 
z
M 791 1659 
Q 791 1022 1069 705 
Q 1347 388 1769 388 
Q 2188 388 2466 706 
Q 2744 1025 2744 1678 
Q 2744 2294 2464 2611 
Q 2184 2928 1769 2928 
Q 1347 2928 1069 2612 
Q 791 2297 791 1659 
z
" transform="scale(0.015625)"/>
       <path id="ArialMT-51" d="M 422 0 
L 422 3319 
L 928 3319 
L 928 2847 
Q 1294 3394 1984 3394 
Q 2284 3394 2536 3286 
Q 2788 3178 2913 3003 
Q 3038 2828 3088 2588 
Q 3119 2431 3119 2041 
L 3119 0 
L 2556 0 
L 2556 2019 
Q 2556 2363 2490 2533 
Q 2425 2703 2258 2804 
Q 2091 2906 1866 2906 
Q 1506 2906 1245 2678 
Q 984 2450 984 1813 
L 984 0 
L 422 0 
z
" transform="scale(0.015625)"/>
       <path id="ArialMT-12" d="M 0 -78 
L 1328 4659 
L 1778 4659 
L 453 -78 
L 0 -78 
z
" transform="scale(0.015625)"/>
       <path id="ArialMT-5d" d="M 125 0 
L 125 456 
L 2238 2881 
Q 1878 2863 1603 2863 
L 250 2863 
L 250 3319 
L 2963 3319 
L 2963 2947 
L 1166 841 
L 819 456 
Q 1197 484 1528 484 
L 3063 484 
L 3063 0 
L 125 0 
z
" transform="scale(0.015625)"/>
      </defs>
      <use xlink:href="#ArialMT-2c"/>
      <use xlink:href="#ArialMT-52" transform="translate(27.78125 0)"/>
      <use xlink:href="#ArialMT-51" transform="translate(83.390625 0)"/>
      <use xlink:href="#ArialMT-3" transform="translate(139 0)"/>
      <use xlink:href="#ArialMT-26" transform="translate(166.78125 0)"/>
      <use xlink:href="#ArialMT-58" transform="translate(239 0)"/>
      <use xlink:href="#ArialMT-55" transform="translate(294.609375 0)"/>
      <use xlink:href="#ArialMT-55" transform="translate(327.90625 0)"/>
      <use xlink:href="#ArialMT-48" transform="translate(361.203125 0)"/>
      <use xlink:href="#ArialMT-51" transform="translate(416.8125 0)"/>
      <use xlink:href="#ArialMT-57" transform="translate(472.421875 0)"/>
      <use xlink:href="#ArialMT-3" transform="translate(500.203125 0)"/>
      <use xlink:href="#ArialMT-b" transform="translate(527.984375 0)"/>
      <use xlink:href="#ArialMT-50" transform="translate(561.28125 0)"/>
      <use xlink:href="#ArialMT-12" transform="translate(644.578125 0)"/>
      <use xlink:href="#ArialMT-5d" transform="translate(672.359375 0)"/>
      <use xlink:href="#ArialMT-3" transform="translate(722.359375 0)"/>
      <use xlink:href="#ArialMT-14" transform="translate(750.140625 0)"/>
      <use xlink:href="#ArialMT-18" transform="translate(805.75 0)"/>
      <use xlink:href="#ArialMT-c" transform="translate(861.359375 0)"/>
     </g>
    </g>
    <g id="text_16">
     <!-- 1e−11 -->
     <g transform="translate(35.624258 17.392383) scale(0.14 -0.14)">
      <defs>
       <path id="ArialMT-ed" d="M 3381 1997 
L 356 1997 
L 356 2522 
L 3381 2522 
L 3381 1997 
z
" transform="scale(0.015625)"/>
      </defs>
      <use xlink:href="#ArialMT-14"/>
      <use xlink:href="#ArialMT-48" transform="translate(55.609375 0)"/>
      <use xlink:href="#ArialMT-ed" transform="translate(111.21875 0)"/>
      <use xlink:href="#ArialMT-14" transform="translate(169.625 0)"/>
      <use xlink:href="#ArialMT-14" transform="translate(217.8125 0)"/>
     </g>
    </g>
   </g>
   <g id="line2d_14">
    <path d="M 55.095204 286.95542 
L 54.964964 286.824694 
L 55.127764 286.871747 
L 57.537212 286.866544 
L 79.840888 286.893277 
L 82.348017 286.860997 
L 84.887705 286.956269 
L 88.664678 286.921776 
L 96.348864 286.809579 
L 102.698086 286.740934 
L 107.810023 286.857604 
L 116.731494 286.725365 
L 120.638707 286.911488 
L 123.145835 287.110505 
L 129.527617 286.966742 
L 133.30459 286.785105 
L 135.811718 286.918253 
L 138.318847 286.925147 
L 139.621251 286.864221 
L 142.16094 286.882029 
L 144.700629 286.869225 
L 148.542722 286.886302 
L 154.957063 286.819625 
L 157.464192 286.990485 
L 167.655507 286.830802 
L 168.957911 286.87588 
L 172.800004 286.748648 
L 176.642097 286.882385 
L 179.051545 286.929862 
L 185.433327 286.907425 
L 187.907895 287.022551 
L 190.480144 287.112374 
L 199.369054 286.989664 
L 201.908743 287.054943 
L 203.146027 286.943571 
L 213.272222 286.833963 
L 215.77935 286.707685 
L 223.268176 286.91508 
L 228.445233 286.885342 
L 233.49205 286.96606 
L 241.111116 286.780589 
L 247.492898 286.907852 
L 255.079404 286.840142 
L 264.033434 286.887236 
L 267.842967 286.796797 
L 270.382656 286.790282 
L 275.527153 286.871811 
L 286.890632 286.928238 
L 289.39776 286.967066 
L 292.002569 286.945979 
L 295.746982 286.857047 
L 299.491395 286.736543 
L 309.617589 286.870799 
L 332.898068 286.699219 
L 339.24729 286.902416 
L 342.959142 286.851353 
L 348.07108 286.759167 
L 350.545648 286.802569 
L 358.294955 286.556505 
L 359.369438 286.459002 
L 362.071927 286.483248 
L 363.211531 286.364249 
L 367.248985 286.403633 
L 368.453709 286.284823 
L 369.625873 286.30335 
L 373.435406 285.944459 
L 382.128956 284.329026 
L 384.603524 284.087941 
L 386.068729 283.769912 
L 388.575858 282.938832 
L 391.148106 281.147672 
L 392.22259 280.69179 
L 393.980836 279.703186 
L 396.683325 277.763368 
L 397.888049 276.391186 
L 399.157894 275.131379 
L 400.492858 273.015035 
L 402.902306 268.145283 
L 404.07447 265.693363 
L 405.474555 262.36991 
L 406.679279 258.82845 
L 409.381768 248.995302 
L 410.586492 243.801823 
L 411.758656 237.840066 
L 414.330905 221.734894 
L 415.503069 211.849438 
L 416.935714 200.951727 
L 418.270678 188.139007 
L 419.312602 174.828855 
L 420.745247 158.426602 
L 423.187255 117.146993 
L 424.48966 91.548144 
L 425.531583 62.162272 
L 425.531583 62.162272 
" clip-path="url(#p13502b16aa)" style="fill: none; stroke: #000000; stroke-width: 2.5; stroke-linecap: square"/>
   </g>
   <g id="line2d_15">
    <path d="M 46.857496 286.699107 
L 46.857496 286.885364 
L 47.020297 286.928875 
L 54.05328 286.874233 
L 57.504652 286.762204 
L 62.323549 286.758629 
L 67.468046 286.899734 
L 89.478681 286.784832 
L 91.985809 286.827675 
L 94.558058 286.834994 
L 97.000066 286.874828 
L 103.381848 286.800665 
L 118.78278 286.651309 
L 120.020065 286.512321 
L 139.10029 286.628327 
L 142.909822 286.616444 
L 145.482071 286.647563 
L 148.02176 286.600769 
L 150.561449 286.451144 
L 153.166257 286.465305 
L 158.115394 286.411844 
L 167.134545 285.726245 
L 174.721051 285.68544 
L 178.498023 285.267785 
L 183.609961 285.282538 
L 184.847245 285.494673 
L 189.926622 285.296456 
L 192.466311 285.420119 
L 193.768715 285.391753 
L 197.578248 285.727041 
L 202.625065 285.742978 
L 208.909167 285.840898 
L 212.7187 285.717535 
L 213.955984 285.602528 
L 216.495673 285.582011 
L 224.082178 285.423787 
L 226.686987 285.205048 
L 227.891711 285.199982 
L 229.161556 285.008097 
L 231.668684 284.961748 
L 232.938529 285.074283 
L 238.017906 284.751906 
L 240.557594 284.471149 
L 243.129843 284.579351 
L 244.367127 284.668313 
L 251.986193 284.278133 
L 257.098131 284.803617 
L 260.842543 284.771567 
L 262.112388 284.864349 
L 263.447352 285.118147 
L 264.814877 285.134538 
L 266.019601 285.261905 
L 267.322005 285.238148 
L 269.894254 285.347689 
L 271.164098 285.396724 
L 272.433943 285.24804 
L 274.908511 285.370222 
L 276.178355 285.698465 
L 277.48076 285.495797 
L 281.257733 285.685702 
L 283.797421 285.58249 
L 292.621211 285.732876 
L 297.700589 285.567434 
L 302.779966 285.702175 
L 309.064067 285.263717 
L 314.143445 285.67208 
L 316.683133 285.660374 
L 317.887857 285.586702 
L 319.157702 285.343208 
L 322.934674 285.180247 
L 329.707177 284.374982 
L 333.614391 284.372141 
L 336.154079 284.488331 
L 341.168336 284.325183 
L 352.596935 284.198518 
L 355.104064 284.317767 
L 358.946157 283.881076 
L 360.281121 283.943562 
L 363.927854 283.739647 
L 369.104911 283.616697 
L 370.309635 283.423875 
L 375.258772 283.093836 
L 376.626297 282.938379 
L 379.068305 282.903637 
L 381.673114 282.533789 
L 382.877838 282.124408 
L 385.384967 281.706771 
L 386.719931 281.638587 
L 390.496904 280.321253 
L 394.697158 278.278925 
L 397.334527 276.133254 
L 398.571812 274.661068 
L 399.809096 272.691447 
L 401.1115 270.082115 
L 402.348784 266.992086 
L 403.618629 264.38714 
L 406.093197 258.175984 
L 407.493282 254.736431 
L 408.730566 251.008232 
L 409.77249 246.332687 
L 411.205134 241.068196 
L 412.474979 234.787457 
L 413.809943 226.648143 
L 416.186831 207.683623 
L 417.554356 197.033995 
L 418.889321 184.939466 
L 421.363889 154.418474 
L 422.470933 134.603023 
L 424.001258 110.985545 
L 425.173422 82.991997 
L 425.173422 82.991997 
" clip-path="url(#p13502b16aa)" style="fill: none; stroke: #1f77b4; stroke-width: 2.5; stroke-linecap: square"/>
   </g>
   <g id="line2d_16">
    <path d="M 46.662135 286.762473 
L 46.662135 286.926816 
L 46.662135 286.75326 
L 46.662135 286.785982 
L 51.220551 286.952762 
L 59.71874 286.586269 
L 63.267792 286.688542 
L 70.919418 286.86069 
L 80.26417 286.805113 
L 84.073703 286.835072 
L 109.503149 286.782541 
L 110.740433 286.88654 
L 127.41121 286.614791 
L 142.681902 286.765543 
L 146.491435 286.500829 
L 149.031123 286.510429 
L 151.570812 286.65124 
L 159.124758 286.514967 
L 164.204135 286.462435 
L 166.743824 286.306742 
L 169.348632 286.359309 
L 173.158165 286.359712 
L 176.935138 286.043966 
L 180.777231 285.945932 
L 181.981955 285.770669 
L 185.824048 285.662939 
L 187.061333 285.523381 
L 190.903426 285.493669 
L 194.615278 285.390623 
L 202.299464 285.686663 
L 203.569309 285.572454 
L 212.425659 285.713096 
L 214.965347 285.668194 
L 223.854258 285.646648 
L 225.091542 285.642354 
L 226.328826 285.787649 
L 230.073239 285.556931 
L 232.743168 285.501467 
L 235.217736 285.218138 
L 245.409051 285.564743 
L 251.758272 285.473258 
L 252.995557 285.593992 
L 255.470125 285.351514 
L 258.009814 285.296401 
L 264.489276 285.284191 
L 265.75912 285.32625 
L 268.298809 285.132435 
L 274.61547 285.709189 
L 275.917875 285.804546 
L 279.694847 285.47445 
L 280.964692 285.285315 
L 286.011509 285.108155 
L 288.551198 285.039574 
L 291.090886 285.442889 
L 298.677392 285.254773 
L 299.947236 285.016482 
L 302.421805 285.061144 
L 304.994053 284.916023 
L 306.263898 284.888353 
L 307.468622 284.571273 
L 308.738466 284.551633 
L 310.040871 284.369293 
L 311.343275 284.383726 
L 312.613119 284.245612 
L 315.087688 284.355024 
L 316.357532 284.233039 
L 318.897221 284.467956 
L 322.739314 284.210375 
L 326.483726 284.222738 
L 330.651421 284.225965 
L 331.986385 284.3016 
L 339.605451 284.176848 
L 340.907856 284.192312 
L 342.21026 284.41643 
L 343.447544 284.397784 
L 344.684828 284.536173 
L 345.922113 284.490321 
L 347.224517 284.578148 
L 349.796766 284.323668 
L 351.03405 284.322472 
L 352.206214 284.209304 
L 353.573739 284.189189 
L 354.811023 284.380594 
L 362.397529 284.757123 
L 375.030852 284.544698 
L 381.412633 283.704678 
L 382.682478 283.418023 
L 385.026805 282.749545 
L 387.696735 281.977326 
L 388.901459 281.453943 
L 391.376027 279.741119 
L 392.808672 279.074166 
L 394.306437 278.220382 
L 395.739082 277.223049 
L 398.343891 274.721512 
L 399.548615 273.237691 
L 400.851019 271.219254 
L 404.660552 263.0055 
L 405.930397 259.765261 
L 408.437525 251.461707 
L 410.912093 239.896455 
L 412.279618 233.137646 
L 413.484342 224.953126 
L 416.024031 205.559269 
L 418.531159 179.417659 
L 419.801004 162.801151 
L 421.103408 143.679804 
L 423.610537 97.168028 
L 424.978061 69.408641 
L 425.857184 38.400951 
L 425.857184 38.400951 
" clip-path="url(#p13502b16aa)" style="fill: none; stroke: #0033ff; stroke-width: 2.5; stroke-linecap: square"/>
   </g>
   <g id="line2d_17">
    <path d="M 44.708529 286.691305 
L 44.773649 286.956642 
L 44.773649 286.951182 
L 45.392291 286.886801 
L 55.258005 286.751921 
L 70.268216 286.720754 
L 72.807904 286.739868 
L 75.575514 286.823549 
L 82.152656 286.936271 
L 84.692345 286.814017 
L 101.265441 286.675571 
L 104.977294 286.684763 
L 107.582102 286.620587 
L 112.596359 286.750039 
L 120.378226 286.569896 
L 122.885354 286.645904 
L 136.821082 286.527849 
L 142.0307 286.233229 
L 148.314801 286.319176 
L 149.552085 286.301345 
L 150.88705 286.170269 
L 155.933867 286.044948 
L 157.203711 285.975062 
L 159.678279 285.98185 
L 163.552933 285.694635 
L 166.060061 285.593381 
L 169.967274 285.35211 
L 172.441843 285.419926 
L 175.014092 285.371522 
L 176.316496 285.250178 
L 178.725944 284.847029 
L 182.535477 284.6022 
L 186.475251 284.857623 
L 188.949819 284.547717 
L 190.187103 284.210736 
L 192.791912 283.92174 
L 194.061756 283.928438 
L 195.331601 284.078406 
L 197.838729 284.886981 
L 201.680822 285.515978 
L 204.122831 285.432374 
L 207.964924 285.200999 
L 210.504612 285.238027 
L 213.011741 285.131686 
L 221.900651 285.642786 
L 228.184752 284.980553 
L 230.757001 285.037706 
L 231.961725 284.992473 
L 233.26413 285.065933 
L 234.533974 284.999547 
L 235.836378 284.798831 
L 238.343507 284.679549 
L 239.613351 284.511623 
L 240.883196 284.515218 
L 242.15304 284.667279 
L 245.995133 284.305259 
L 249.772106 283.829704 
L 251.00939 283.465414 
L 254.884043 282.900077 
L 256.121327 282.644817 
L 257.358612 282.508348 
L 258.661016 282.574352 
L 261.168144 283.097943 
L 265.075358 284.155478 
L 268.884891 284.469318 
L 270.187295 284.464038 
L 271.457139 284.599699 
L 272.694424 284.481224 
L 276.471396 284.497115 
L 277.741241 284.399055 
L 279.043645 284.489017 
L 284.123023 284.246415 
L 287.899995 284.206802 
L 290.407124 284.418749 
L 291.742088 284.569349 
L 296.756345 284.549917 
L 299.263474 284.128127 
L 308.152384 284.285134 
L 309.422228 284.061991 
L 310.659513 283.681282 
L 311.896797 283.475719 
L 314.469046 283.383214 
L 319.418182 283.932097 
L 320.753147 283.808391 
L 322.022991 283.450534 
L 324.49756 283.060481 
L 327.134929 283.034013 
L 328.632694 283.166871 
L 330.032779 283.174316 
L 331.367743 283.400262 
L 336.47968 282.846194 
L 340.256653 282.527417 
L 341.461377 282.590168 
L 342.828902 282.542291 
L 344.033626 282.623311 
L 346.540755 282.584371 
L 347.745479 282.748013 
L 349.080443 282.691083 
L 352.955096 282.109548 
L 354.159821 282.153629 
L 355.397105 281.913026 
L 356.699509 281.951936 
L 359.206638 281.684604 
L 365.555859 280.918957 
L 369.332832 282.013726 
L 371.807401 282.274787 
L 374.379649 282.763464 
L 375.616934 282.682207 
L 376.951898 282.832975 
L 378.189182 282.706636 
L 381.933595 282.682586 
L 383.170879 282.537599 
L 384.538404 282.519427 
L 385.678008 282.301621 
L 387.012972 281.759891 
L 388.315377 281.412795 
L 389.487541 280.923045 
L 390.789945 279.800645 
L 392.027229 278.905374 
L 393.524994 278.164482 
L 396.227484 276.036887 
L 397.497328 274.724175 
L 398.864853 273.056919 
L 401.437101 269.657862 
L 402.739506 267.218666 
L 403.94423 264.450167 
L 405.279194 261.753236 
L 406.386238 257.913787 
L 407.753763 254.083301 
L 408.925927 249.530973 
L 410.358572 243.138458 
L 412.73546 228.394907 
L 414.102984 220.174944 
L 415.210028 210.216296 
L 416.740353 199.551476 
L 419.182362 170.80063 
L 420.387086 153.65116 
L 422.861654 113.144002 
L 424.229179 89.60398 
L 425.401343 63.75144 
L 425.401343 63.75144 
" clip-path="url(#p13502b16aa)" style="fill: none; stroke: #ff7f0e; stroke-width: 2.5; stroke-linecap: square"/>
   </g>
   <g id="line2d_18">
    <path d="M 55.127764 286.726309 
L 55.127764 286.856664 
L 55.062644 286.714744 
L 55.127764 286.751827 
L 73.068385 286.847789 
L 77.138399 286.937608 
L 81.110732 286.909578 
L 84.855145 286.806994 
L 89.934522 286.904589 
L 95.14414 286.695774 
L 97.683829 286.721018 
L 100.223517 286.798481 
L 102.698086 286.780499 
L 106.540179 286.695004 
L 120.671267 286.70981 
L 121.843431 286.587596 
L 124.41568 286.553294 
L 129.495057 286.439734 
L 138.416527 286.301134 
L 149.845126 285.521485 
L 154.924503 285.358369 
L 156.194348 285.211784 
L 157.431632 285.295514 
L 158.734036 285.149634 
L 162.576129 284.319868 
L 163.813414 284.203725 
L 166.385662 283.804777 
L 167.688067 283.810232 
L 168.990471 283.638302 
L 170.195195 283.634976 
L 175.307133 281.98009 
L 177.814261 281.335185 
L 179.084105 281.249211 
L 181.591234 280.728228 
L 182.893638 280.745017 
L 185.400767 279.945345 
L 186.670611 279.416138 
L 187.940456 278.739512 
L 189.2103 277.615542 
L 191.782549 276.22701 
L 193.052393 275.062991 
L 195.559521 273.866692 
L 196.829366 273.343706 
L 198.09921 273.014031 
L 199.336494 272.917332 
L 200.638899 272.602294 
L 201.908743 272.569442 
L 203.178587 273.168147 
L 204.415872 273.40546 
L 205.685716 273.411518 
L 206.923 273.899427 
L 208.225405 274.021689 
L 209.462689 274.480896 
L 210.765093 274.818469 
L 214.574626 275.054766 
L 217.081755 274.433989 
L 218.351599 273.79007 
L 219.588883 273.734012 
L 220.858727 273.235187 
L 222.161132 273.097625 
L 223.430976 272.787823 
L 224.6357 272.10583 
L 225.905545 271.922113 
L 227.240509 271.31142 
L 228.412673 271.023516 
L 229.715078 271.241005 
L 230.984922 270.799461 
L 232.254766 271.237064 
L 233.49205 271.330072 
L 234.729335 271.703326 
L 235.966619 271.710933 
L 237.236463 271.544115 
L 238.603988 271.569748 
L 239.841272 271.285356 
L 241.111116 271.391395 
L 242.348401 271.124009 
L 243.650805 270.516038 
L 246.288174 270.101815 
L 247.525458 270.245725 
L 248.795302 270.157293 
L 252.539715 271.176548 
L 253.84212 271.256415 
L 255.144524 271.11387 
L 256.349248 271.124556 
L 258.954057 271.427638 
L 260.126221 271.746876 
L 264.033434 271.746856 
L 265.368399 271.511708 
L 266.605683 271.030968 
L 267.908087 270.89966 
L 270.447776 271.009093 
L 271.75018 271.213006 
L 272.954905 271.047004 
L 275.462033 270.341432 
L 278.001722 270.521065 
L 280.606531 270.129883 
L 283.081099 270.04983 
L 284.416063 269.529138 
L 286.923192 267.650451 
L 288.160476 267.571657 
L 290.700165 267.793999 
L 291.937449 268.284405 
L 293.239853 267.920255 
L 294.509698 267.93601 
L 295.746982 267.639696 
L 299.589075 265.381486 
L 300.826359 265.405424 
L 302.063643 265.010355 
L 303.300928 264.995816 
L 304.635892 265.465806 
L 305.840616 264.846828 
L 308.380305 263.789891 
L 309.617589 262.76144 
L 312.157278 261.763519 
L 313.492242 261.581457 
L 314.696966 260.768822 
L 315.999371 260.239968 
L 317.236655 260.09968 
L 318.506499 259.30461 
L 319.808904 257.838228 
L 321.046188 257.144675 
L 322.283472 256.056195 
L 323.553317 255.497391 
L 324.823161 254.34736 
L 326.027885 253.549308 
L 327.362849 252.076282 
L 328.958295 251.219057 
L 330.228139 251.284312 
L 331.628224 250.329977 
L 332.898068 248.952201 
L 334.167913 248.926405 
L 335.437757 248.27638 
L 336.740161 247.468189 
L 337.912325 246.919082 
L 339.24729 246.460509 
L 340.484574 245.644993 
L 341.689298 246.386812 
L 343.024263 246.868424 
L 344.294107 246.532394 
L 345.563951 246.530703 
L 346.833796 247.274076 
L 348.00596 247.749832 
L 349.340924 248.623658 
L 350.675889 249.983076 
L 353.150457 251.878012 
L 354.387741 253.664104 
L 355.690146 254.577264 
L 359.532239 257.899018 
L 360.704403 259.051055 
L 363.244091 261.854646 
L 365.946581 263.215542 
L 367.086185 263.938379 
L 369.593313 264.759545 
L 370.895717 264.963715 
L 373.370286 266.981859 
L 374.70525 268.476268 
L 377.114699 270.483428 
L 378.384543 271.014524 
L 379.654387 271.307791 
L 381.021912 271.280674 
L 382.226636 271.389016 
L 383.43136 271.382404 
L 384.733764 271.619185 
L 387.273453 271.746411 
L 389.780582 271.122895 
L 391.148106 270.183811 
L 396.618205 268.034924 
L 397.888049 266.902873 
L 400.492858 263.955625 
L 401.665022 261.816561 
L 404.10703 256.413632 
L 405.539675 252.733793 
L 406.80952 248.441739 
L 409.186408 239.157639 
L 410.521372 233.116127 
L 411.856337 226.205617 
L 413.093621 218.769049 
L 414.363465 209.350908 
L 418.238118 174.87817 
L 420.647567 141.750727 
L 421.949971 121.226089 
L 424.55478 67.596925 
L 425.564143 33.093759 
L 425.564143 33.093759 
" clip-path="url(#p13502b16aa)" style="fill: none; stroke: #ff0000; stroke-width: 2.5; stroke-linecap: square"/>
   </g>
   <g id="patch_3">
    <path d="M 35.624258 299.822656 
L 35.624258 20.392383 
" style="fill: none; stroke: #000000; stroke-width: 1.5; stroke-linejoin: miter; stroke-linecap: square"/>
   </g>
   <g id="patch_4">
    <path d="M 35.624258 299.822656 
L 426.345586 299.822656 
" style="fill: none; stroke: #000000; stroke-width: 1.5; stroke-linejoin: miter; stroke-linecap: square"/>
   </g>
   <g id="legend_1">
    <g id="line2d_19">
     <path d="M 46.424258 35.728711 
L 58.424258 35.728711 
L 70.424258 35.728711 
" style="fill: none; stroke: #000000; stroke-width: 2.5; stroke-linecap: square"/>
    </g>
    <g id="text_17">
     <!-- vacuum -->
     <g transform="translate(80.024258 39.928711) scale(0.12 -0.12)">
      <defs>
       <path id="ArialMT-59" d="M 1344 0 
L 81 3319 
L 675 3319 
L 1388 1331 
Q 1503 1009 1600 663 
Q 1675 925 1809 1294 
L 2547 3319 
L 3125 3319 
L 1869 0 
L 1344 0 
z
" transform="scale(0.015625)"/>
       <path id="ArialMT-46" d="M 2588 1216 
L 3141 1144 
Q 3050 572 2676 248 
Q 2303 -75 1759 -75 
Q 1078 -75 664 370 
Q 250 816 250 1647 
Q 250 2184 428 2587 
Q 606 2991 970 3192 
Q 1334 3394 1763 3394 
Q 2303 3394 2647 3120 
Q 2991 2847 3088 2344 
L 2541 2259 
Q 2463 2594 2264 2762 
Q 2066 2931 1784 2931 
Q 1359 2931 1093 2626 
Q 828 2322 828 1663 
Q 828 994 1084 691 
Q 1341 388 1753 388 
Q 2084 388 2306 591 
Q 2528 794 2588 1216 
z
" transform="scale(0.015625)"/>
      </defs>
      <use xlink:href="#ArialMT-59"/>
      <use xlink:href="#ArialMT-44" transform="translate(50 0)"/>
      <use xlink:href="#ArialMT-46" transform="translate(105.609375 0)"/>
      <use xlink:href="#ArialMT-58" transform="translate(155.609375 0)"/>
      <use xlink:href="#ArialMT-58" transform="translate(211.21875 0)"/>
      <use xlink:href="#ArialMT-50" transform="translate(266.828125 0)"/>
     </g>
    </g>
    <g id="line2d_20">
     <path d="M 46.424258 52.99043 
L 58.424258 52.99043 
L 70.424258 52.99043 
" style="fill: none; stroke: #1f77b4; stroke-width: 2.5; stroke-linecap: square"/>
    </g>
    <g id="text_18">
     <!-- 1h -->
     <g transform="translate(80.024258 57.19043) scale(0.12 -0.12)">
      <defs>
       <path id="ArialMT-4b" d="M 422 0 
L 422 4581 
L 984 4581 
L 984 2938 
Q 1378 3394 1978 3394 
Q 2347 3394 2619 3248 
Q 2891 3103 3008 2847 
Q 3125 2591 3125 2103 
L 3125 0 
L 2563 0 
L 2563 2103 
Q 2563 2525 2380 2717 
Q 2197 2909 1863 2909 
Q 1613 2909 1392 2779 
Q 1172 2650 1078 2428 
Q 984 2206 984 1816 
L 984 0 
L 422 0 
z
" transform="scale(0.015625)"/>
      </defs>
      <use xlink:href="#ArialMT-14"/>
      <use xlink:href="#ArialMT-4b" transform="translate(55.609375 0)"/>
     </g>
    </g>
    <g id="line2d_21">
     <path d="M 46.424258 70.252148 
L 58.424258 70.252148 
L 70.424258 70.252148 
" style="fill: none; stroke: #0033ff; stroke-width: 2.5; stroke-linecap: square"/>
    </g>
    <g id="text_19">
     <!-- 2h -->
     <g transform="translate(80.024258 74.452148) scale(0.12 -0.12)">
      <use xlink:href="#ArialMT-15"/>
      <use xlink:href="#ArialMT-4b" transform="translate(55.609375 0)"/>
     </g>
    </g>
    <g id="line2d_22">
     <path d="M 46.424258 87.513867 
L 58.424258 87.513867 
L 70.424258 87.513867 
" style="fill: none; stroke: #ff7f0e; stroke-width: 2.5; stroke-linecap: square"/>
    </g>
    <g id="text_20">
     <!-- 4h -->
     <g transform="translate(80.024258 91.713867) scale(0.12 -0.12)">
      <use xlink:href="#ArialMT-17"/>
      <use xlink:href="#ArialMT-4b" transform="translate(55.609375 0)"/>
     </g>
    </g>
    <g id="line2d_23">
     <path d="M 46.424258 104.775586 
L 58.424258 104.775586 
L 70.424258 104.775586 
" style="fill: none; stroke: #ff0000; stroke-width: 2.5; stroke-linecap: square"/>
    </g>
    <g id="text_21">
     <!-- first -->
     <g transform="translate(80.024258 108.975586) scale(0.12 -0.12)">
      <defs>
       <path id="ArialMT-49" d="M 556 0 
L 556 2881 
L 59 2881 
L 59 3319 
L 556 3319 
L 556 3672 
Q 556 4006 616 4169 
Q 697 4388 901 4523 
Q 1106 4659 1475 4659 
Q 1713 4659 2000 4603 
L 1916 4113 
Q 1741 4144 1584 4144 
Q 1328 4144 1222 4034 
Q 1116 3925 1116 3625 
L 1116 3319 
L 1763 3319 
L 1763 2881 
L 1116 2881 
L 1116 0 
L 556 0 
z
" transform="scale(0.015625)"/>
       <path id="ArialMT-4c" d="M 425 3934 
L 425 4581 
L 988 4581 
L 988 3934 
L 425 3934 
z
M 425 0 
L 425 3319 
L 988 3319 
L 988 0 
L 425 0 
z
" transform="scale(0.015625)"/>
       <path id="ArialMT-56" d="M 197 991 
L 753 1078 
Q 800 744 1014 566 
Q 1228 388 1613 388 
Q 2000 388 2187 545 
Q 2375 703 2375 916 
Q 2375 1106 2209 1216 
Q 2094 1291 1634 1406 
Q 1016 1563 777 1677 
Q 538 1791 414 1992 
Q 291 2194 291 2438 
Q 291 2659 392 2848 
Q 494 3038 669 3163 
Q 800 3259 1026 3326 
Q 1253 3394 1513 3394 
Q 1903 3394 2198 3281 
Q 2494 3169 2634 2976 
Q 2775 2784 2828 2463 
L 2278 2388 
Q 2241 2644 2061 2787 
Q 1881 2931 1553 2931 
Q 1166 2931 1000 2803 
Q 834 2675 834 2503 
Q 834 2394 903 2306 
Q 972 2216 1119 2156 
Q 1203 2125 1616 2013 
Q 2213 1853 2448 1751 
Q 2684 1650 2818 1456 
Q 2953 1263 2953 975 
Q 2953 694 2789 445 
Q 2625 197 2315 61 
Q 2006 -75 1616 -75 
Q 969 -75 630 194 
Q 291 463 197 991 
z
" transform="scale(0.015625)"/>
      </defs>
      <use xlink:href="#ArialMT-49"/>
      <use xlink:href="#ArialMT-4c" transform="translate(27.78125 0)"/>
      <use xlink:href="#ArialMT-55" transform="translate(50 0)"/>
      <use xlink:href="#ArialMT-56" transform="translate(83.296875 0)"/>
      <use xlink:href="#ArialMT-57" transform="translate(133.296875 0)"/>
     </g>
    </g>
   </g>
  </g>
 </g>
 <defs>
  <clipPath id="p13502b16aa">
   <rect x="35.624258" y="20.392383" width="390.721328" height="279.430273"/>
  </clipPath>
 </defs>
</svg>
