<?xml version="1.0" encoding="utf-8" standalone="no"?>
<!DOCTYPE svg PUBLIC "-//W3C//DTD SVG 1.1//EN"
  "http://www.w3.org/Graphics/SVG/1.1/DTD/svg11.dtd">
<svg xmlns:xlink="http://www.w3.org/1999/xlink" width="449.270898pt" height="340.800273pt" viewBox="0 0 449.270898 340.800273" xmlns="http://www.w3.org/2000/svg" version="1.1">
 <metadata>
  <rdf:RDF xmlns:dc="http://purl.org/dc/elements/1.1/" xmlns:cc="http://creativecommons.org/ns#" xmlns:rdf="http://www.w3.org/1999/02/22-rdf-syntax-ns#">
   <cc:Work>
    <dc:type rdf:resource="http://purl.org/dc/dcmitype/StillImage"/>
    <dc:date>2026-07-09T17:08:14.153377</dc:date>
    <dc:format>image/svg+xml</dc:format>
    <dc:creator>
     <cc:Agent>
      <dc:title>Matplotlib v3.11.0, https://matplotlib.org/</dc:title>
     </cc:Agent>
    </dc:creator>
   </cc:Work>
  </rdf:RDF>
 </metadata>
 <defs>
  <style type="text/css">*{stroke-linejoin: round; stroke-linecap: butt}</style>
 </defs>
 <g id="figure_1">
  <g id="patch_1">
   <path d="M 0 340.800273 
L 449.270898 340.800273 
L 449.270898 0 
L 0 0 
z
" style="fill: #ffffff"/>
  </g>
  <g id="axes_1">
   <g id="patch_2">
    <path d="M 47.298945 299.822656 
L 426.500273 299.822656 
L 426.500273 20.392383 
L 47.298945 20.392383 
z
" style="fill: #ffffff"/>
   </g>
   <g id="matplotlib.axis_1">
    <g id="xtick_1">
     <g id="line2d_1">
      <defs>
       <path id="mafae16b98e" d="M 0 0 
L 0 -6 
" style="stroke: #000000; stroke-width: 1.5"/>
      </defs>
      <g>
       <use xlink:href="#mafae16b98e" x="47.298945" y="299.822656" style="stroke: #000000; stroke-width: 1.5"/>
      </g>
     </g>
     <g id="text_1">
      <!-- 0 -->
      <g transform="translate(43.406289 313.515039) scale(0.14 -0.14)">
       <defs>
        <path id="ArialMT-13" d="M 266 2259 
Q 266 3072 433 3567 
Q 600 4063 929 4331 
Q 1259 4600 1759 4600 
Q 2128 4600 2406 4451 
Q 2684 4303 2865 4023 
Q 3047 3744 3150 3342 
Q 3253 2941 3253 2259 
Q 3253 1453 3087 958 
Q 2922 463 2592 192 
Q 2263 -78 1759 -78 
Q 1097 -78 719 397 
Q 266 969 266 2259 
z
M 844 2259 
Q 844 1131 1108 757 
Q 1372 384 1759 384 
Q 2147 384 2411 759 
Q 2675 1134 2675 2259 
Q 2675 3391 2411 3762 
Q 2147 4134 1753 4134 
Q 1366 4134 1134 3806 
Q 844 3388 844 2259 
z
" transform="scale(0.015625)"/>
       </defs>
       <use xlink:href="#ArialMT-13"/>
      </g>
     </g>
    </g>
    <g id="xtick_2">
     <g id="line2d_2">
      <g>
       <use xlink:href="#mafae16b98e" x="110.499167" y="299.822656" style="stroke: #000000; stroke-width: 1.5"/>
      </g>
     </g>
     <g id="text_2">
      <!-- 200 -->
      <g transform="translate(98.821198 313.515039) scale(0.14 -0.14)">
       <defs>
        <path id="ArialMT-15" d="M 3222 541 
L 3222 0 
L 194 0 
Q 188 203 259 391 
Q 375 700 629 1000 
Q 884 1300 1366 1694 
Q 2113 2306 2375 2664 
Q 2638 3022 2638 3341 
Q 2638 3675 2398 3904 
Q 2159 4134 1775 4134 
Q 1369 4134 1125 3890 
Q 881 3647 878 3216 
L 300 3275 
Q 359 3922 746 4261 
Q 1134 4600 1788 4600 
Q 2447 4600 2831 4234 
Q 3216 3869 3216 3328 
Q 3216 3053 3103 2787 
Q 2991 2522 2730 2228 
Q 2469 1934 1863 1422 
Q 1356 997 1212 845 
Q 1069 694 975 541 
L 3222 541 
z
" transform="scale(0.015625)"/>
       </defs>
       <use xlink:href="#ArialMT-15"/>
       <use xlink:href="#ArialMT-13" transform="translate(55.609375 0)"/>
       <use xlink:href="#ArialMT-13" transform="translate(111.21875 0)"/>
      </g>
     </g>
    </g>
    <g id="xtick_3">
     <g id="line2d_3">
      <g>
       <use xlink:href="#mafae16b98e" x="173.699388" y="299.822656" style="stroke: #000000; stroke-width: 1.5"/>
      </g>
     </g>
     <g id="text_3">
      <!-- 400 -->
      <g transform="translate(162.021419 313.515039) scale(0.14 -0.14)">
       <defs>
        <path id="ArialMT-17" d="M 2069 0 
L 2069 1097 
L 81 1097 
L 81 1613 
L 2172 4581 
L 2631 4581 
L 2631 1613 
L 3250 1613 
L 3250 1097 
L 2631 1097 
L 2631 0 
L 2069 0 
z
M 2069 1613 
L 2069 3678 
L 634 1613 
L 2069 1613 
z
" transform="scale(0.015625)"/>
       </defs>
       <use xlink:href="#ArialMT-17"/>
       <use xlink:href="#ArialMT-13" transform="translate(55.609375 0)"/>
       <use xlink:href="#ArialMT-13" transform="translate(111.21875 0)"/>
      </g>
     </g>
    </g>
    <g id="xtick_4">
     <g id="line2d_4">
      <g>
       <use xlink:href="#mafae16b98e" x="236.899609" y="299.822656" style="stroke: #000000; stroke-width: 1.5"/>
      </g>
     </g>
     <g id="text_4">
      <!-- 600 -->
      <g transform="translate(225.221641 313.515039) scale(0.14 -0.14)">
       <defs>
        <path id="ArialMT-19" d="M 3184 3459 
L 2625 3416 
Q 2550 3747 2413 3897 
Q 2184 4138 1850 4138 
Q 1581 4138 1378 3988 
Q 1113 3794 959 3422 
Q 806 3050 800 2363 
Q 1003 2672 1297 2822 
Q 1591 2972 1913 2972 
Q 2475 2972 2870 2558 
Q 3266 2144 3266 1488 
Q 3266 1056 3080 686 
Q 2894 316 2569 119 
Q 2244 -78 1831 -78 
Q 1128 -78 684 439 
Q 241 956 241 2144 
Q 241 3472 731 4075 
Q 1159 4600 1884 4600 
Q 2425 4600 2770 4297 
Q 3116 3994 3184 3459 
z
M 888 1484 
Q 888 1194 1011 928 
Q 1134 663 1356 523 
Q 1578 384 1822 384 
Q 2178 384 2434 671 
Q 2691 959 2691 1453 
Q 2691 1928 2437 2201 
Q 2184 2475 1800 2475 
Q 1419 2475 1153 2201 
Q 888 1928 888 1484 
z
" transform="scale(0.015625)"/>
       </defs>
       <use xlink:href="#ArialMT-19"/>
       <use xlink:href="#ArialMT-13" transform="translate(55.609375 0)"/>
       <use xlink:href="#ArialMT-13" transform="translate(111.21875 0)"/>
      </g>
     </g>
    </g>
    <g id="xtick_5">
     <g id="line2d_5">
      <g>
       <use xlink:href="#mafae16b98e" x="300.099831" y="299.822656" style="stroke: #000000; stroke-width: 1.5"/>
      </g>
     </g>
     <g id="text_5">
      <!-- 800 -->
      <g transform="translate(288.421862 313.515039) scale(0.14 -0.14)">
       <defs>
        <path id="ArialMT-1b" d="M 1131 2484 
Q 781 2613 612 2850 
Q 444 3088 444 3419 
Q 444 3919 803 4259 
Q 1163 4600 1759 4600 
Q 2359 4600 2725 4251 
Q 3091 3903 3091 3403 
Q 3091 3084 2923 2848 
Q 2756 2613 2416 2484 
Q 2838 2347 3058 2040 
Q 3278 1734 3278 1309 
Q 3278 722 2862 322 
Q 2447 -78 1769 -78 
Q 1091 -78 675 323 
Q 259 725 259 1325 
Q 259 1772 486 2073 
Q 713 2375 1131 2484 
z
M 1019 3438 
Q 1019 3113 1228 2906 
Q 1438 2700 1772 2700 
Q 2097 2700 2305 2904 
Q 2513 3109 2513 3406 
Q 2513 3716 2298 3927 
Q 2084 4138 1766 4138 
Q 1444 4138 1231 3931 
Q 1019 3725 1019 3438 
z
M 838 1322 
Q 838 1081 952 856 
Q 1066 631 1291 507 
Q 1516 384 1775 384 
Q 2178 384 2440 643 
Q 2703 903 2703 1303 
Q 2703 1709 2433 1975 
Q 2163 2241 1756 2241 
Q 1359 2241 1098 1978 
Q 838 1716 838 1322 
z
" transform="scale(0.015625)"/>
       </defs>
       <use xlink:href="#ArialMT-1b"/>
       <use xlink:href="#ArialMT-13" transform="translate(55.609375 0)"/>
       <use xlink:href="#ArialMT-13" transform="translate(111.21875 0)"/>
      </g>
     </g>
    </g>
    <g id="xtick_6">
     <g id="line2d_6">
      <g>
       <use xlink:href="#mafae16b98e" x="363.300052" y="299.822656" style="stroke: #000000; stroke-width: 1.5"/>
      </g>
     </g>
     <g id="text_6">
      <!-- 1000 -->
      <g transform="translate(347.729427 313.515039) scale(0.14 -0.14)">
       <defs>
        <path id="ArialMT-14" d="M 2384 0 
L 1822 0 
L 1822 3584 
Q 1619 3391 1289 3197 
Q 959 3003 697 2906 
L 697 3450 
Q 1169 3672 1522 3987 
Q 1875 4303 2022 4600 
L 2384 4600 
L 2384 0 
z
" transform="scale(0.015625)"/>
       </defs>
       <use xlink:href="#ArialMT-14"/>
       <use xlink:href="#ArialMT-13" transform="translate(55.609375 0)"/>
       <use xlink:href="#ArialMT-13" transform="translate(111.21875 0)"/>
       <use xlink:href="#ArialMT-13" transform="translate(166.828125 0)"/>
      </g>
     </g>
    </g>
    <g id="xtick_7">
     <g id="line2d_7">
      <g>
       <use xlink:href="#mafae16b98e" x="426.500273" y="299.822656" style="stroke: #000000; stroke-width: 1.5"/>
      </g>
     </g>
     <g id="text_7">
      <!-- 1200 -->
      <g transform="translate(410.929648 313.515039) scale(0.14 -0.14)">
       <use xlink:href="#ArialMT-14"/>
       <use xlink:href="#ArialMT-15" transform="translate(55.609375 0)"/>
       <use xlink:href="#ArialMT-13" transform="translate(111.21875 0)"/>
       <use xlink:href="#ArialMT-13" transform="translate(166.828125 0)"/>
      </g>
     </g>
    </g>
    <g id="text_8">
     <!-- T1 Temperature (°C) -->
     <g transform="translate(173.160234 330.653711) scale(0.14 -0.14)">
      <defs>
       <path id="ArialMT-37" d="M 1659 0 
L 1659 4041 
L 150 4041 
L 150 4581 
L 3781 4581 
L 3781 4041 
L 2266 4041 
L 2266 0 
L 1659 0 
z
" transform="scale(0.015625)"/>
       <path id="ArialMT-3" transform="scale(0.015625)"/>
       <path id="ArialMT-48" d="M 2694 1069 
L 3275 997 
Q 3138 488 2766 206 
Q 2394 -75 1816 -75 
Q 1088 -75 661 373 
Q 234 822 234 1631 
Q 234 2469 665 2931 
Q 1097 3394 1784 3394 
Q 2450 3394 2872 2941 
Q 3294 2488 3294 1666 
Q 3294 1616 3291 1516 
L 816 1516 
Q 847 969 1125 678 
Q 1403 388 1819 388 
Q 2128 388 2347 550 
Q 2566 713 2694 1069 
z
M 847 1978 
L 2700 1978 
Q 2663 2397 2488 2606 
Q 2219 2931 1791 2931 
Q 1403 2931 1139 2672 
Q 875 2413 847 1978 
z
" transform="scale(0.015625)"/>
       <path id="ArialMT-50" d="M 422 0 
L 422 3319 
L 925 3319 
L 925 2853 
Q 1081 3097 1340 3245 
Q 1600 3394 1931 3394 
Q 2300 3394 2536 3241 
Q 2772 3088 2869 2813 
Q 3263 3394 3894 3394 
Q 4388 3394 4653 3120 
Q 4919 2847 4919 2278 
L 4919 0 
L 4359 0 
L 4359 2091 
Q 4359 2428 4304 2576 
Q 4250 2725 4106 2815 
Q 3963 2906 3769 2906 
Q 3419 2906 3187 2673 
Q 2956 2441 2956 1928 
L 2956 0 
L 2394 0 
L 2394 2156 
Q 2394 2531 2256 2718 
Q 2119 2906 1806 2906 
Q 1569 2906 1367 2781 
Q 1166 2656 1075 2415 
Q 984 2175 984 1722 
L 984 0 
L 422 0 
z
" transform="scale(0.015625)"/>
       <path id="ArialMT-53" d="M 422 -1272 
L 422 3319 
L 934 3319 
L 934 2888 
Q 1116 3141 1344 3267 
Q 1572 3394 1897 3394 
Q 2322 3394 2647 3175 
Q 2972 2956 3137 2557 
Q 3303 2159 3303 1684 
Q 3303 1175 3120 767 
Q 2938 359 2589 142 
Q 2241 -75 1856 -75 
Q 1575 -75 1351 44 
Q 1128 163 984 344 
L 984 -1272 
L 422 -1272 
z
M 931 1641 
Q 931 1000 1190 694 
Q 1450 388 1819 388 
Q 2194 388 2461 705 
Q 2728 1022 2728 1688 
Q 2728 2322 2467 2637 
Q 2206 2953 1844 2953 
Q 1484 2953 1207 2617 
Q 931 2281 931 1641 
z
" transform="scale(0.015625)"/>
       <path id="ArialMT-55" d="M 416 0 
L 416 3319 
L 922 3319 
L 922 2816 
Q 1116 3169 1280 3281 
Q 1444 3394 1641 3394 
Q 1925 3394 2219 3213 
L 2025 2691 
Q 1819 2813 1613 2813 
Q 1428 2813 1281 2702 
Q 1134 2591 1072 2394 
Q 978 2094 978 1738 
L 978 0 
L 416 0 
z
" transform="scale(0.015625)"/>
       <path id="ArialMT-44" d="M 2588 409 
Q 2275 144 1986 34 
Q 1697 -75 1366 -75 
Q 819 -75 525 192 
Q 231 459 231 875 
Q 231 1119 342 1320 
Q 453 1522 633 1644 
Q 813 1766 1038 1828 
Q 1203 1872 1538 1913 
Q 2219 1994 2541 2106 
Q 2544 2222 2544 2253 
Q 2544 2597 2384 2738 
Q 2169 2928 1744 2928 
Q 1347 2928 1158 2789 
Q 969 2650 878 2297 
L 328 2372 
Q 403 2725 575 2942 
Q 747 3159 1072 3276 
Q 1397 3394 1825 3394 
Q 2250 3394 2515 3294 
Q 2781 3194 2906 3042 
Q 3031 2891 3081 2659 
Q 3109 2516 3109 2141 
L 3109 1391 
Q 3109 606 3145 398 
Q 3181 191 3288 0 
L 2700 0 
Q 2613 175 2588 409 
z
M 2541 1666 
Q 2234 1541 1622 1453 
Q 1275 1403 1131 1340 
Q 988 1278 909 1158 
Q 831 1038 831 891 
Q 831 666 1001 516 
Q 1172 366 1500 366 
Q 1825 366 2078 508 
Q 2331 650 2450 897 
Q 2541 1088 2541 1459 
L 2541 1666 
z
" transform="scale(0.015625)"/>
       <path id="ArialMT-57" d="M 1650 503 
L 1731 6 
Q 1494 -44 1306 -44 
Q 1000 -44 831 53 
Q 663 150 594 308 
Q 525 466 525 972 
L 525 2881 
L 113 2881 
L 113 3319 
L 525 3319 
L 525 4141 
L 1084 4478 
L 1084 3319 
L 1650 3319 
L 1650 2881 
L 1084 2881 
L 1084 941 
Q 1084 700 1114 631 
Q 1144 563 1211 522 
Q 1278 481 1403 481 
Q 1497 481 1650 503 
z
" transform="scale(0.015625)"/>
       <path id="ArialMT-58" d="M 2597 0 
L 2597 488 
Q 2209 -75 1544 -75 
Q 1250 -75 995 37 
Q 741 150 617 320 
Q 494 491 444 738 
Q 409 903 409 1263 
L 409 3319 
L 972 3319 
L 972 1478 
Q 972 1038 1006 884 
Q 1059 663 1231 536 
Q 1403 409 1656 409 
Q 1909 409 2131 539 
Q 2353 669 2445 892 
Q 2538 1116 2538 1541 
L 2538 3319 
L 3100 3319 
L 3100 0 
L 2597 0 
z
" transform="scale(0.015625)"/>
       <path id="ArialMT-b" d="M 1497 -1347 
Q 1031 -759 709 28 
Q 388 816 388 1659 
Q 388 2403 628 3084 
Q 909 3875 1497 4659 
L 1900 4659 
Q 1522 4009 1400 3731 
Q 1209 3300 1100 2831 
Q 966 2247 966 1656 
Q 966 153 1900 -1347 
L 1497 -1347 
z
" transform="scale(0.015625)"/>
       <path id="ArialMT-83" d="M 400 3794 
Q 400 4153 654 4406 
Q 909 4659 1266 4659 
Q 1628 4659 1881 4406 
Q 2134 4153 2134 3794 
Q 2134 3434 1879 3179 
Q 1625 2925 1266 2925 
Q 909 2925 654 3178 
Q 400 3431 400 3794 
z
M 741 3794 
Q 741 3575 895 3420 
Q 1050 3266 1269 3266 
Q 1484 3266 1639 3420 
Q 1794 3575 1794 3794 
Q 1794 4013 1639 4167 
Q 1484 4322 1269 4322 
Q 1050 4322 895 4167 
Q 741 4013 741 3794 
z
" transform="scale(0.015625)"/>
       <path id="ArialMT-26" d="M 3763 1606 
L 4369 1453 
Q 4178 706 3683 314 
Q 3188 -78 2472 -78 
Q 1731 -78 1267 223 
Q 803 525 561 1097 
Q 319 1669 319 2325 
Q 319 3041 592 3573 
Q 866 4106 1370 4382 
Q 1875 4659 2481 4659 
Q 3169 4659 3637 4309 
Q 4106 3959 4291 3325 
L 3694 3184 
Q 3534 3684 3231 3912 
Q 2928 4141 2469 4141 
Q 1941 4141 1586 3887 
Q 1231 3634 1087 3207 
Q 944 2781 944 2328 
Q 944 1744 1114 1308 
Q 1284 872 1643 656 
Q 2003 441 2422 441 
Q 2931 441 3284 734 
Q 3638 1028 3763 1606 
z
" transform="scale(0.015625)"/>
       <path id="ArialMT-c" d="M 791 -1347 
L 388 -1347 
Q 1322 153 1322 1656 
Q 1322 2244 1188 2822 
Q 1081 3291 891 3722 
Q 769 4003 388 4659 
L 791 4659 
Q 1378 3875 1659 3084 
Q 1900 2403 1900 1659 
Q 1900 816 1576 28 
Q 1253 -759 791 -1347 
z
" transform="scale(0.015625)"/>
      </defs>
      <use xlink:href="#ArialMT-37"/>
      <use xlink:href="#ArialMT-14" transform="translate(61.078125 0)"/>
      <use xlink:href="#ArialMT-3" transform="translate(116.6875 0)"/>
      <use xlink:href="#ArialMT-37" transform="translate(142.65625 0)"/>
      <use xlink:href="#ArialMT-48" transform="translate(192.65625 0)"/>
      <use xlink:href="#ArialMT-50" transform="translate(248.265625 0)"/>
      <use xlink:href="#ArialMT-53" transform="translate(331.5625 0)"/>
      <use xlink:href="#ArialMT-48" transform="translate(387.171875 0)"/>
      <use xlink:href="#ArialMT-55" transform="translate(442.78125 0)"/>
      <use xlink:href="#ArialMT-44" transform="translate(476.078125 0)"/>
      <use xlink:href="#ArialMT-57" transform="translate(531.6875 0)"/>
      <use xlink:href="#ArialMT-58" transform="translate(559.46875 0)"/>
      <use xlink:href="#ArialMT-55" transform="translate(615.078125 0)"/>
      <use xlink:href="#ArialMT-48" transform="translate(648.375 0)"/>
      <use xlink:href="#ArialMT-3" transform="translate(703.984375 0)"/>
      <use xlink:href="#ArialMT-b" transform="translate(731.765625 0)"/>
      <use xlink:href="#ArialMT-83" transform="translate(765.0625 0)"/>
      <use xlink:href="#ArialMT-26" transform="translate(805.046875 0)"/>
      <use xlink:href="#ArialMT-c" transform="translate(877.265625 0)"/>
     </g>
    </g>
   </g>
   <g id="matplotlib.axis_2">
    <g id="ytick_1">
     <g id="line2d_8">
      <defs>
       <path id="m6ba470fb54" d="M 0 0 
L 6 0 
" style="stroke: #000000; stroke-width: 1.5"/>
      </defs>
      <g>
       <use xlink:href="#m6ba470fb54" x="47.298945" y="289.430999" style="stroke: #000000; stroke-width: 1.5"/>
      </g>
     </g>
     <g id="text_9">
      <!-- 0.0 -->
      <g transform="translate(24.338945 294.52719) scale(0.14 -0.14)">
       <defs>
        <path id="ArialMT-11" d="M 581 0 
L 581 641 
L 1222 641 
L 1222 0 
L 581 0 
z
" transform="scale(0.015625)"/>
       </defs>
       <use xlink:href="#ArialMT-13"/>
       <use xlink:href="#ArialMT-11" transform="translate(55.609375 0)"/>
       <use xlink:href="#ArialMT-13" transform="translate(83.390625 0)"/>
      </g>
     </g>
    </g>
    <g id="ytick_2">
     <g id="line2d_9">
      <g>
       <use xlink:href="#m6ba470fb54" x="47.298945" y="236.773546" style="stroke: #000000; stroke-width: 1.5"/>
      </g>
     </g>
     <g id="text_10">
      <!-- 0.5 -->
      <g transform="translate(24.338945 241.869737) scale(0.14 -0.14)">
       <defs>
        <path id="ArialMT-18" d="M 266 1200 
L 856 1250 
Q 922 819 1161 601 
Q 1400 384 1738 384 
Q 2144 384 2425 690 
Q 2706 997 2706 1503 
Q 2706 1984 2436 2262 
Q 2166 2541 1728 2541 
Q 1456 2541 1237 2417 
Q 1019 2294 894 2097 
L 366 2166 
L 809 4519 
L 3088 4519 
L 3088 3981 
L 1259 3981 
L 1013 2750 
Q 1425 3038 1878 3038 
Q 2478 3038 2890 2622 
Q 3303 2206 3303 1553 
Q 3303 931 2941 478 
Q 2500 -78 1738 -78 
Q 1113 -78 717 272 
Q 322 622 266 1200 
z
" transform="scale(0.015625)"/>
       </defs>
       <use xlink:href="#ArialMT-13"/>
       <use xlink:href="#ArialMT-11" transform="translate(55.609375 0)"/>
       <use xlink:href="#ArialMT-18" transform="translate(83.390625 0)"/>
      </g>
     </g>
    </g>
    <g id="ytick_3">
     <g id="line2d_10">
      <g>
       <use xlink:href="#m6ba470fb54" x="47.298945" y="184.116093" style="stroke: #000000; stroke-width: 1.5"/>
      </g>
     </g>
     <g id="text_11">
      <!-- 1.0 -->
      <g transform="translate(24.338945 189.212284) scale(0.14 -0.14)">
       <use xlink:href="#ArialMT-14"/>
       <use xlink:href="#ArialMT-11" transform="translate(55.609375 0)"/>
       <use xlink:href="#ArialMT-13" transform="translate(83.390625 0)"/>
      </g>
     </g>
    </g>
    <g id="ytick_4">
     <g id="line2d_11">
      <g>
       <use xlink:href="#m6ba470fb54" x="47.298945" y="131.45864" style="stroke: #000000; stroke-width: 1.5"/>
      </g>
     </g>
     <g id="text_12">
      <!-- 1.5 -->
      <g transform="translate(24.338945 136.554831) scale(0.14 -0.14)">
       <use xlink:href="#ArialMT-14"/>
       <use xlink:href="#ArialMT-11" transform="translate(55.609375 0)"/>
       <use xlink:href="#ArialMT-18" transform="translate(83.390625 0)"/>
      </g>
     </g>
    </g>
    <g id="ytick_5">
     <g id="line2d_12">
      <g>
       <use xlink:href="#m6ba470fb54" x="47.298945" y="78.801187" style="stroke: #000000; stroke-width: 1.5"/>
      </g>
     </g>
     <g id="text_13">
      <!-- 2.0 -->
      <g transform="translate(24.338945 83.897378) scale(0.14 -0.14)">
       <use xlink:href="#ArialMT-15"/>
       <use xlink:href="#ArialMT-11" transform="translate(55.609375 0)"/>
       <use xlink:href="#ArialMT-13" transform="translate(83.390625 0)"/>
      </g>
     </g>
    </g>
    <g id="ytick_6">
     <g id="line2d_13">
      <g>
       <use xlink:href="#m6ba470fb54" x="47.298945" y="26.143734" style="stroke: #000000; stroke-width: 1.5"/>
      </g>
     </g>
     <g id="text_14">
      <!-- 2.5 -->
      <g transform="translate(24.338945 31.239925) scale(0.14 -0.14)">
       <use xlink:href="#ArialMT-15"/>
       <use xlink:href="#ArialMT-11" transform="translate(55.609375 0)"/>
       <use xlink:href="#ArialMT-18" transform="translate(83.390625 0)"/>
      </g>
     </g>
    </g>
    <g id="text_15">
     <!-- Ion Current (m/z 17) -->
     <g transform="translate(17.392383 222.733457) rotate(-90) scale(0.14 -0.14)">
      <defs>
       <path id="ArialMT-2c" d="M 597 0 
L 597 4581 
L 1203 4581 
L 1203 0 
L 597 0 
z
" transform="scale(0.015625)"/>
       <path id="ArialMT-52" d="M 213 1659 
Q 213 2581 725 3025 
Q 1153 3394 1769 3394 
Q 2453 3394 2887 2945 
Q 3322 2497 3322 1706 
Q 3322 1066 3130 698 
Q 2938 331 2570 128 
Q 2203 -75 1769 -75 
Q 1072 -75 642 372 
Q 213 819 213 1659 
z
M 791 1659 
Q 791 1022 1069 705 
Q 1347 388 1769 388 
Q 2188 388 2466 706 
Q 2744 1025 2744 1678 
Q 2744 2294 2464 2611 
Q 2184 2928 1769 2928 
Q 1347 2928 1069 2612 
Q 791 2297 791 1659 
z
" transform="scale(0.015625)"/>
       <path id="ArialMT-51" d="M 422 0 
L 422 3319 
L 928 3319 
L 928 2847 
Q 1294 3394 1984 3394 
Q 2284 3394 2536 3286 
Q 2788 3178 2913 3003 
Q 3038 2828 3088 2588 
Q 3119 2431 3119 2041 
L 3119 0 
L 2556 0 
L 2556 2019 
Q 2556 2363 2490 2533 
Q 2425 2703 2258 2804 
Q 2091 2906 1866 2906 
Q 1506 2906 1245 2678 
Q 984 2450 984 1813 
L 984 0 
L 422 0 
z
" transform="scale(0.015625)"/>
       <path id="ArialMT-12" d="M 0 -78 
L 1328 4659 
L 1778 4659 
L 453 -78 
L 0 -78 
z
" transform="scale(0.015625)"/>
       <path id="ArialMT-5d" d="M 125 0 
L 125 456 
L 2238 2881 
Q 1878 2863 1603 2863 
L 250 2863 
L 250 3319 
L 2963 3319 
L 2963 2947 
L 1166 841 
L 819 456 
Q 1197 484 1528 484 
L 3063 484 
L 3063 0 
L 125 0 
z
" transform="scale(0.015625)"/>
       <path id="ArialMT-1a" d="M 303 3981 
L 303 4522 
L 3269 4522 
L 3269 4084 
Q 2831 3619 2401 2847 
Q 1972 2075 1738 1259 
Q 1569 684 1522 0 
L 944 0 
Q 953 541 1156 1306 
Q 1359 2072 1739 2783 
Q 2119 3494 2547 3981 
L 303 3981 
z
" transform="scale(0.015625)"/>
      </defs>
      <use xlink:href="#ArialMT-2c"/>
      <use xlink:href="#ArialMT-52" transform="translate(27.78125 0)"/>
      <use xlink:href="#ArialMT-51" transform="translate(83.390625 0)"/>
      <use xlink:href="#ArialMT-3" transform="translate(139 0)"/>
      <use xlink:href="#ArialMT-26" transform="translate(166.78125 0)"/>
      <use xlink:href="#ArialMT-58" transform="translate(239 0)"/>
      <use xlink:href="#ArialMT-55" transform="translate(294.609375 0)"/>
      <use xlink:href="#ArialMT-55" transform="translate(327.90625 0)"/>
      <use xlink:href="#ArialMT-48" transform="translate(361.203125 0)"/>
      <use xlink:href="#ArialMT-51" transform="translate(416.8125 0)"/>
      <use xlink:href="#ArialMT-57" transform="translate(472.421875 0)"/>
      <use xlink:href="#ArialMT-3" transform="translate(500.203125 0)"/>
      <use xlink:href="#ArialMT-b" transform="translate(527.984375 0)"/>
      <use xlink:href="#ArialMT-50" transform="translate(561.28125 0)"/>
      <use xlink:href="#ArialMT-12" transform="translate(644.578125 0)"/>
      <use xlink:href="#ArialMT-5d" transform="translate(672.359375 0)"/>
      <use xlink:href="#ArialMT-3" transform="translate(722.359375 0)"/>
      <use xlink:href="#ArialMT-14" transform="translate(750.140625 0)"/>
      <use xlink:href="#ArialMT-1a" transform="translate(805.75 0)"/>
      <use xlink:href="#ArialMT-c" transform="translate(861.359375 0)"/>
     </g>
    </g>
    <g id="text_16">
     <!-- 1e−11 -->
     <g transform="translate(47.298945 17.392383) scale(0.14 -0.14)">
      <defs>
       <path id="ArialMT-ed" d="M 3381 1997 
L 356 1997 
L 356 2522 
L 3381 2522 
L 3381 1997 
z
" transform="scale(0.015625)"/>
      </defs>
      <use xlink:href="#ArialMT-14"/>
      <use xlink:href="#ArialMT-48" transform="translate(55.609375 0)"/>
      <use xlink:href="#ArialMT-ed" transform="translate(111.21875 0)"/>
      <use xlink:href="#ArialMT-14" transform="translate(169.625 0)"/>
      <use xlink:href="#ArialMT-14" transform="translate(217.8125 0)"/>
     </g>
    </g>
   </g>
   <g id="line2d_14">
    <path d="M 66.195811 285.943137 
L 66.227412 286.650648 
L 66.922614 286.745691 
L 68.56582 286.628478 
L 70.841028 286.336189 
L 73.053036 286.538742 
L 76.402647 286.262583 
L 78.867456 286.537253 
L 81.111064 286.920077 
L 84.871477 286.921569 
L 86.261882 287.12128 
L 87.620687 286.980401 
L 90.211896 287.098367 
L 92.645104 287.026398 
L 95.109913 286.651708 
L 97.543121 286.526921 
L 100.00793 286.291031 
L 102.472739 286.46911 
L 106.233152 286.718871 
L 108.72956 286.89262 
L 116.092386 286.396736 
L 117.356391 286.445923 
L 118.557195 286.623409 
L 121.053604 286.752226 
L 122.286008 286.534708 
L 126.014821 286.360588 
L 127.278825 286.100654 
L 128.54283 286.351971 
L 129.806834 286.195187 
L 133.504047 286.380681 
L 134.673251 286.235128 
L 135.905656 286.394224 
L 139.666069 286.423985 
L 140.930073 286.795741 
L 142.099277 286.633411 
L 143.331682 286.833453 
L 144.532486 286.775353 
L 146.965694 286.224445 
L 149.462103 286.188513 
L 150.694507 286.345929 
L 151.958512 286.675748 
L 155.624125 286.966661 
L 156.888129 286.944184 
L 159.384538 286.240618 
L 160.648542 285.936245 
L 161.849347 285.928645 
L 163.113351 286.091379 
L 165.546559 286.153663 
L 168.011368 286.719769 
L 169.212172 286.955664 
L 171.645381 286.927243 
L 172.909385 286.534726 
L 175.437394 286.280965 
L 176.701399 286.158337 
L 179.229407 286.694054 
L 184.159025 286.764889 
L 185.328229 286.594438 
L 186.497433 286.293436 
L 187.761437 286.103484 
L 192.691055 286.062257 
L 195.092663 286.323299 
L 196.356667 286.733276 
L 197.589072 286.840419 
L 198.789876 286.470235 
L 200.02228 286.250193 
L 201.254685 286.232828 
L 202.518689 286.05288 
L 206.215902 286.131593 
L 209.881515 286.627739 
L 211.145519 286.39475 
L 212.377923 286.476952 
L 213.578728 286.427109 
L 214.811132 286.496897 
L 217.275941 286.941951 
L 222.142358 286.869553 
L 225.871171 286.398799 
L 228.177979 286.772001 
L 229.410383 286.763391 
L 230.674388 286.552681 
L 231.938392 286.457893 
L 234.434801 286.452029 
L 235.667205 286.203137 
L 236.836409 286.242146 
L 239.332818 286.493214 
L 243.030031 286.076479 
L 245.52644 286.422876 
L 247.959648 286.160681 
L 249.192052 286.420681 
L 251.688461 286.103379 
L 252.920865 285.789088 
L 254.12167 285.662703 
L 255.417274 285.363269 
L 257.850483 285.916719 
L 259.051287 285.78474 
L 261.579296 286.051285 
L 265.213309 285.813467 
L 266.414113 285.781055 
L 267.678117 285.888662 
L 268.973722 286.210558 
L 270.237726 286.349246 
L 272.670935 286.279664 
L 275.135743 286.243203 
L 276.399748 286.310798 
L 277.663752 286.183884 
L 281.360965 286.20638 
L 282.561769 286.49207 
L 285.026578 286.145265 
L 288.692191 286.291437 
L 289.892995 286.066228 
L 293.590208 286.475579 
L 294.854212 286.687642 
L 299.75223 286.379514 
L 300.984634 286.458214 
L 302.217038 286.408907 
L 303.386242 286.608147 
L 304.650247 286.593993 
L 305.882651 286.832685 
L 307.083455 286.377293 
L 308.31586 286.481799 
L 309.548264 286.171152 
L 314.414681 285.514451 
L 315.710285 285.404121 
L 318.143494 285.417904 
L 319.312698 285.237453 
L 323.073111 285.897348 
L 325.47472 286.041393 
L 326.707124 286.213485 
L 329.140332 286.233967 
L 333.311547 285.746815 
L 334.543951 285.713748 
L 341.969977 286.177344 
L 343.107581 286.126352 
L 344.403186 286.32482 
L 346.899595 285.822051 
L 348.100399 285.806659 
L 349.269603 285.528403 
L 350.533607 285.420485 
L 351.829212 285.044134 
L 352.935216 285.247659 
L 354.16762 284.993192 
L 355.494825 284.93915 
L 356.664029 285.128322 
L 357.928033 285.018702 
L 359.192038 285.258972 
L 360.456042 285.284919 
L 362.79445 284.855051 
L 365.227659 284.386702 
L 366.491663 283.922361 
L 367.913668 283.565859 
L 369.146073 283.710208 
L 373.886089 282.805181 
L 375.150094 282.533724 
L 376.256097 282.614061 
L 377.488502 282.409804 
L 378.720906 282.546679 
L 379.95331 281.948249 
L 381.154115 282.103738 
L 382.449719 281.811373 
L 383.587323 281.033548 
L 384.851328 280.843487 
L 385.988932 280.122632 
L 388.611741 279.667463 
L 391.044949 278.330686 
L 392.340554 277.83983 
L 395.089763 277.50794 
L 396.385368 276.856484 
L 397.712573 276.030896 
L 398.881777 275.013581 
L 401.409786 272.098314 
L 402.515789 270.544161 
L 404.885798 268.908631 
L 406.244602 267.3718 
L 408.709411 265.456255 
L 410.036616 262.887194 
L 411.20582 261.51227 
L 413.512628 255.938953 
L 414.839833 253.155192 
L 415.977437 250.348426 
L 417.367841 247.519937 
L 418.663446 243.541562 
L 419.67465 239.99692 
L 421.065054 236.094254 
L 422.139458 231.912097 
L 423.435063 227.428771 
L 424.699067 222.622596 
L 425.710271 217.47189 
L 425.710271 217.47189 
" clip-path="url(#p9ba70be2f7)" style="fill: none; stroke: #000000; stroke-width: 2.5; stroke-linecap: square"/>
   </g>
   <g id="line2d_15">
    <path d="M 58.200983 277.796822 
L 58.200983 278.529704 
L 58.358984 278.385152 
L 59.022586 278.446567 
L 60.760592 278.477946 
L 65.184608 278.300252 
L 67.017414 278.025427 
L 68.53422 277.595657 
L 71.978632 277.879258 
L 73.211036 278.279919 
L 74.47504 279.113678 
L 75.612644 279.339392 
L 76.939849 279.260793 
L 78.203854 279.414931 
L 80.700262 278.952919 
L 81.869466 278.574525 
L 84.460675 278.014056 
L 85.75628 278.42212 
L 87.020284 278.613817 
L 89.706294 278.869336 
L 90.875498 279.281223 
L 95.773515 278.211272 
L 97.10072 278.034924 
L 98.364724 278.281819 
L 100.734732 278.350851 
L 103.262741 278.83312 
L 104.495146 278.614314 
L 105.75915 278.17711 
L 109.393163 276.527207 
L 110.657167 276.345564 
L 113.058776 275.435673 
L 115.586784 274.998162 
L 116.882389 274.482153 
L 118.051593 273.865428 
L 119.315598 273.593575 
L 123.01281 271.82754 
L 124.276815 270.905418 
L 128.005628 269.178082 
L 130.502037 267.221286 
L 131.766041 266.872649 
L 132.966845 266.113013 
L 134.136049 264.753591 
L 135.336854 263.762134 
L 136.600858 262.495139 
L 137.833262 262.003936 
L 139.065667 260.417665 
L 140.266471 258.539518 
L 141.562075 256.916081 
L 142.82608 255.870386 
L 144.058484 253.901034 
L 145.227688 251.785085 
L 147.724097 245.758691 
L 148.893301 243.637712 
L 150.220506 240.842805 
L 153.917719 232.331577 
L 155.150123 228.705119 
L 160.11134 206.048184 
L 161.375345 201.196543 
L 162.576149 195.684342 
L 165.009358 188.357062 
L 166.178562 184.202158 
L 167.474166 178.677778 
L 171.139779 158.373928 
L 174.931792 134.498561 
L 176.132597 128.376438 
L 177.333401 124.741739 
L 178.597405 119.431648 
L 179.766609 115.504038 
L 181.125414 112.822882 
L 182.294618 112.624316 
L 183.495422 113.878027 
L 184.727827 116.197005 
L 185.960231 120.351766 
L 187.192635 126.340853 
L 188.48824 134.121271 
L 197.05187 194.2048 
L 199.516678 209.414434 
L 200.780683 215.410861 
L 203.213891 226.116002 
L 204.477896 229.877844 
L 205.6787 234.115153 
L 206.911104 237.605766 
L 208.143509 240.701436 
L 209.375913 242.360177 
L 210.513517 245.062479 
L 211.872322 247.098839 
L 214.27393 250.178666 
L 216.738739 253.289373 
L 217.971143 253.999954 
L 219.171947 254.917008 
L 220.372751 255.987475 
L 221.605156 255.997387 
L 222.83756 256.338908 
L 224.038364 256.918298 
L 226.534773 257.390517 
L 227.767177 257.058273 
L 230.200386 257.036102 
L 231.49599 258.612853 
L 232.728395 259.708387 
L 233.897599 259.963968 
L 235.130003 260.787462 
L 236.330807 261.813573 
L 237.563212 262.24778 
L 238.795616 262.332771 
L 241.292025 263.365529 
L 242.524429 263.597672 
L 243.725233 264.698409 
L 244.989238 264.453173 
L 246.190042 265.015429 
L 247.454046 265.059837 
L 248.686451 264.710913 
L 249.887255 264.936106 
L 251.151259 265.021549 
L 252.352063 266.028274 
L 254.816872 265.728106 
L 256.080877 265.862141 
L 258.545685 266.606224 
L 260.947294 267.844328 
L 262.242898 269.283505 
L 263.443702 269.784371 
L 264.644507 270.452991 
L 270.901328 268.796736 
L 272.165333 269.175323 
L 273.397737 269.301646 
L 274.661742 269.676422 
L 275.894146 269.663628 
L 278.295754 270.166528 
L 279.528159 270.169687 
L 282.024567 269.823522 
L 283.225372 270.157058 
L 284.457776 270.707363 
L 286.954185 271.28394 
L 288.154989 271.803298 
L 291.820602 271.534859 
L 294.28541 271.856891 
L 295.549415 272.219592 
L 296.718619 273.386245 
L 297.982623 273.873397 
L 299.246628 274.06129 
L 300.415832 273.910396 
L 304.144645 272.404542 
L 305.313849 272.395465 
L 306.577853 272.51077 
L 307.747058 272.964098 
L 309.011062 274.110216 
L 310.243466 274.103244 
L 312.676675 274.246538 
L 313.877479 274.344195 
L 315.109883 274.101531 
L 316.342288 273.234835 
L 318.838696 273.450127 
L 320.071101 273.135276 
L 321.240305 273.687136 
L 322.472709 273.405896 
L 323.736714 273.543525 
L 325.000718 274.098038 
L 326.138322 274.400247 
L 327.433926 274.445254 
L 329.835535 273.427115 
L 331.35234 272.449849 
L 332.711145 271.183544 
L 333.975149 270.991882 
L 335.270754 269.843931 
L 336.503158 269.570568 
L 338.967967 269.57436 
L 340.168771 269.904618 
L 341.337975 270.341931 
L 342.63358 271.042362 
L 343.834384 271.308967 
L 345.129988 272.343045 
L 346.299193 272.789579 
L 347.563197 272.70037 
L 350.028006 272.685144 
L 351.29201 272.524514 
L 352.429614 271.899326 
L 353.630418 272.302886 
L 356.158427 271.91457 
L 357.359231 272.348169 
L 358.654836 272.156057 
L 359.72924 272.432638 
L 361.088044 272.97738 
L 363.521253 274.092946 
L 364.690457 274.315648 
L 365.922861 274.904267 
L 367.155266 274.297137 
L 368.48247 273.820357 
L 369.714875 273.551824 
L 370.947279 273.153156 
L 372.116483 272.982701 
L 373.348887 272.994169 
L 374.518091 272.145244 
L 375.813696 271.777224 
L 376.9197 272.080233 
L 378.246904 271.70486 
L 379.479309 271.587136 
L 380.616913 270.583829 
L 381.912517 270.075355 
L 385.54653 269.472214 
L 386.747334 268.844343 
L 388.042939 268.453352 
L 389.306943 269.254884 
L 390.412947 268.491319 
L 391.708552 268.227297 
L 392.972556 266.880912 
L 394.331361 265.913177 
L 395.784966 264.602909 
L 396.92257 263.747095 
L 399.545379 262.635993 
L 400.746183 261.772519 
L 402.010188 261.374916 
L 404.443396 258.427013 
L 405.770601 256.698318 
L 408.203809 252.474188 
L 410.415817 247.874235 
L 411.806222 245.746653 
L 413.038626 242.807556 
L 414.334231 240.240801 
L 415.471835 237.341735 
L 416.641039 233.554876 
L 417.968244 230.823795 
L 419.263848 226.407445 
L 425.362669 199.18844 
L 425.362669 199.18844 
" clip-path="url(#p9ba70be2f7)" style="fill: none; stroke: #1f77b4; stroke-width: 2.5; stroke-linecap: square"/>
   </g>
   <g id="line2d_16">
    <path d="M 58.011383 276.653085 
L 58.011383 277.552717 
L 58.011383 277.245053 
L 58.137783 277.607939 
L 58.738185 277.746404 
L 60.19179 277.932615 
L 68.249819 277.9138 
L 71.820631 278.253693 
L 72.958235 278.191071 
L 74.127439 278.333911 
L 76.623848 278.135169 
L 77.856252 277.816496 
L 79.088657 277.696768 
L 80.321061 277.946412 
L 82.81747 278.029913 
L 85.408679 279.343472 
L 86.799084 279.442105 
L 88.126288 279.267513 
L 89.390293 279.300799 
L 90.622697 279.013373 
L 91.855101 278.5427 
L 93.087506 278.365596 
L 94.31991 277.99769 
L 95.552314 277.864127 
L 96.816319 278.087309 
L 98.017123 278.105807 
L 99.281127 277.904071 
L 100.513532 277.296239 
L 101.745936 277.059351 
L 104.242345 276.378094 
L 105.474749 276.546024 
L 107.939558 276.304096 
L 109.171962 276.305182 
L 111.636771 275.900291 
L 115.302383 273.648198 
L 116.566388 273.181481 
L 117.767192 272.897742 
L 118.999596 272.341957 
L 123.897614 270.857755 
L 125.130018 269.923136 
L 126.394022 268.742002 
L 127.658027 267.742124 
L 130.186036 266.699261 
L 132.587644 264.976879 
L 133.883249 264.394415 
L 135.115653 262.99813 
L 136.379657 262.307932 
L 137.580462 261.337577 
L 138.844466 260.814841 
L 140.04527 260.094709 
L 141.309275 259.948268 
L 142.478479 259.41452 
L 143.710883 258.235487 
L 145.069688 257.112981 
L 146.238892 255.814849 
L 148.7037 251.818685 
L 152.432514 245.147755 
L 154.897322 239.841542 
L 156.098126 237.046892 
L 157.362131 235.390941 
L 158.594535 232.897301 
L 159.826939 230.819792 
L 161.027744 227.306846 
L 162.260148 223.210075 
L 163.492552 220.148697 
L 164.661756 216.788166 
L 165.925761 212.439411 
L 167.158165 208.65274 
L 168.358969 205.456369 
L 169.622974 201.686218 
L 170.886978 195.597131 
L 172.087782 191.238141 
L 173.288587 186.408589 
L 174.552591 181.900976 
L 175.879796 178.366764 
L 177.0806 174.101331 
L 178.407805 169.999289 
L 179.545408 166.983775 
L 182.010217 163.200442 
L 183.242621 162.193276 
L 184.443426 163.655621 
L 185.70743 165.843518 
L 186.971435 169.658788 
L 188.172239 173.715937 
L 189.341443 178.70416 
L 191.837852 190.332507 
L 194.27106 204.488104 
L 195.535064 211.600493 
L 196.735869 217.555709 
L 201.602286 235.981378 
L 202.86629 240.038104 
L 204.161895 243.073465 
L 205.362699 246.430684 
L 207.859108 251.533636 
L 209.059912 253.81524 
L 210.292316 254.467593 
L 211.46152 255.555594 
L 213.957929 258.366005 
L 215.158733 259.837823 
L 216.454338 260.86766 
L 217.686742 262.38193 
L 218.887546 264.239491 
L 220.119951 264.830505 
L 221.352355 265.585128 
L 225.049568 265.301178 
L 226.281972 265.401819 
L 227.482776 265.260822 
L 228.715181 265.271589 
L 229.979185 266.15301 
L 231.179989 266.822171 
L 232.380794 266.535989 
L 234.845602 267.798251 
L 236.014806 267.704341 
L 237.278811 268.636208 
L 238.606015 268.511265 
L 239.80682 268.728212 
L 241.007624 269.249603 
L 242.240028 269.635793 
L 243.440832 269.769482 
L 244.704837 269.567545 
L 245.937241 270.19727 
L 247.138045 270.344966 
L 248.40205 270.891337 
L 249.666054 271.717559 
L 250.898458 271.566011 
L 252.067662 272.415074 
L 253.394867 272.691618 
L 254.532471 272.813966 
L 255.764875 272.704449 
L 257.06048 272.156714 
L 258.261284 272.379183 
L 259.462088 271.720041 
L 260.662893 271.629206 
L 263.127701 272.568855 
L 265.62411 273.388244 
L 266.856514 273.59006 
L 268.120519 273.566353 
L 269.416123 273.420262 
L 270.648528 273.739662 
L 271.944132 273.560321 
L 273.113336 273.585152 
L 274.408941 274.103737 
L 275.609745 274.075413 
L 276.778949 273.762465 
L 278.042953 273.747253 
L 279.243758 273.226683 
L 281.771767 273.210847 
L 284.173375 274.278649 
L 286.638184 275.094979 
L 287.902188 275.301383 
L 291.504601 275.379374 
L 292.768605 275.585628 
L 295.233414 275.515913 
L 297.666622 275.776274 
L 300.163031 274.999733 
L 301.363835 274.794369 
L 302.596239 274.763478 
L 305.061048 275.088903 
L 307.494257 274.433897 
L 308.726661 274.871898 
L 309.959065 275.164737 
L 313.624678 274.730533 
L 314.888683 275.048503 
L 316.121087 274.957646 
L 317.290291 275.040107 
L 318.522695 274.462547 
L 319.7551 274.277688 
L 322.219908 273.667857 
L 323.483913 272.762539 
L 324.653117 272.222233 
L 325.948721 272.073939 
L 327.149525 272.236109 
L 328.38193 272.584197 
L 329.582734 273.064148 
L 332.395144 273.5186 
L 333.627548 273.048331 
L 334.923153 273.297336 
L 337.387961 273.013392 
L 339.91597 273.417097 
L 341.148374 274.008718 
L 342.317579 273.682404 
L 343.581583 273.53493 
L 344.845587 273.704854 
L 346.046392 273.09969 
L 347.247196 273.104728 
L 350.912809 273.932423 
L 353.409217 275.283136 
L 354.546821 275.236371 
L 355.874026 275.970192 
L 357.07483 275.85057 
L 358.307235 274.948741 
L 359.571239 274.358539 
L 360.677243 274.476699 
L 362.004448 274.35644 
L 363.236852 274.424141 
L 364.437656 274.906474 
L 365.70166 275.212476 
L 366.902465 275.177881 
L 368.166469 275.716237 
L 369.367273 275.759432 
L 370.568078 275.459646 
L 371.926882 274.778854 
L 373.096086 274.553436 
L 374.328491 274.191183 
L 375.497695 274.39151 
L 376.698499 274.44504 
L 377.994104 274.357673 
L 379.226508 273.71032 
L 380.490512 273.640741 
L 381.628116 273.956116 
L 384.124525 272.39537 
L 386.399733 270.946641 
L 387.726938 270.28036 
L 388.990942 269.416681 
L 391.424151 268.146022 
L 392.561755 267.551085 
L 393.952159 267.715344 
L 395.405765 267.606302 
L 398.060174 266.40353 
L 399.324178 265.973701 
L 400.493382 265.314849 
L 404.127395 261.966948 
L 406.687004 258.823687 
L 407.793008 257.913478 
L 412.849026 248.241488 
L 415.124234 241.297719 
L 416.483038 238.903736 
L 417.589042 236.174691 
L 420.148651 230.514619 
L 421.412656 226.376757 
L 422.58186 221.272503 
L 423.845864 215.055549 
L 425.173069 207.579589 
L 426.026272 198.698317 
L 426.026272 198.698317 
" clip-path="url(#p9ba70be2f7)" style="fill: none; stroke: #0033ff; stroke-width: 2.5; stroke-linecap: square"/>
   </g>
   <g id="line2d_17">
    <path d="M 56.115376 269.746678 
L 56.178576 270.473798 
L 56.178576 270.269404 
L 56.273377 270.465891 
L 56.778979 270.871108 
L 62.783 272.805173 
L 64.710606 272.664288 
L 66.353812 272.101228 
L 67.681017 271.826428 
L 68.818621 271.160634 
L 71.125429 271.456699 
L 72.326233 271.803705 
L 73.558637 272.32765 
L 74.759441 272.501274 
L 76.023446 272.240604 
L 77.28745 271.460505 
L 78.519855 271.275829 
L 79.689059 271.435093 
L 80.921463 271.124995 
L 83.386272 271.218507 
L 84.745076 271.897626 
L 86.072281 272.211353 
L 87.462686 272.304671 
L 88.72669 272.658076 
L 89.990695 272.526198 
L 91.254699 272.887241 
L 92.455503 272.851191 
L 93.687908 272.171157 
L 94.920312 271.710797 
L 97.416721 272.158975 
L 98.680725 271.394978 
L 99.881529 270.515082 
L 101.113934 270.507269 
L 102.346338 269.756608 
L 103.578742 269.869532 
L 104.842747 269.480124 
L 106.075151 268.86433 
L 107.275955 268.538651 
L 108.445159 268.718908 
L 109.772364 268.343557 
L 111.004768 267.330518 
L 112.173973 266.856738 
L 114.607181 265.182649 
L 115.934386 264.801621 
L 117.13519 262.932458 
L 118.399194 261.686384 
L 119.631599 260.994394 
L 120.832403 260.84021 
L 122.001607 260.381929 
L 124.466416 259.658298 
L 127.026025 257.345153 
L 128.321629 255.895436 
L 129.554033 253.841303 
L 130.818038 252.231291 
L 131.987242 250.962221 
L 133.219646 249.795752 
L 134.452051 249.714864 
L 135.716055 248.760452 
L 136.980059 248.203822 
L 138.212464 247.977164 
L 139.444868 247.378641 
L 140.677272 245.836337 
L 141.878077 244.041084 
L 143.078881 241.562167 
L 145.512089 235.34491 
L 146.870894 232.495416 
L 148.103298 228.335529 
L 150.568107 221.268496 
L 151.768911 217.231099 
L 155.497724 201.347608 
L 157.867733 189.427194 
L 160.427342 178.541202 
L 161.628146 170.930045 
L 164.061354 152.121072 
L 165.293759 141.997444 
L 166.557763 132.759537 
L 168.990972 113.677737 
L 170.191776 104.934005 
L 172.688184 90.404133 
L 175.121393 70.691679 
L 176.416998 61.834766 
L 177.681002 56.516253 
L 178.881806 49.976266 
L 180.08261 46.160987 
L 181.315015 42.976384 
L 182.579019 40.021074 
L 183.843024 37.374528 
L 186.181432 33.093759 
L 187.477036 35.047697 
L 188.709441 39.046778 
L 189.878645 46.429294 
L 191.205849 52.756837 
L 192.406654 64.50201 
L 194.871462 78.146899 
L 196.103866 82.921533 
L 197.304671 88.261097 
L 198.600275 96.7962 
L 199.83268 109.057516 
L 201.065084 122.931105 
L 204.730697 173.514938 
L 205.994701 185.672588 
L 207.227105 195.341163 
L 208.45951 200.715843 
L 209.660314 204.697033 
L 210.829518 209.140093 
L 212.061922 212.688298 
L 213.325927 215.432214 
L 214.558331 218.917846 
L 215.790735 220.692358 
L 217.02314 224.283866 
L 218.255544 226.04769 
L 219.456348 226.587465 
L 220.688753 227.64981 
L 221.921157 227.590968 
L 223.185161 228.903817 
L 225.61837 229.956824 
L 226.850774 231.950439 
L 228.083178 233.124187 
L 229.315583 235.642663 
L 230.516387 237.153386 
L 231.748791 238.426287 
L 232.981196 240.265261 
L 234.182 240.298754 
L 235.446004 241.214074 
L 236.678409 241.379992 
L 237.847613 241.772279 
L 239.111617 242.000904 
L 240.344021 242.419239 
L 241.608026 241.914523 
L 242.84043 242.545074 
L 244.041234 242.474082 
L 245.273639 243.079237 
L 246.506043 243.40702 
L 247.738447 244.375207 
L 248.970852 245.1709 
L 251.46726 245.94189 
L 252.668065 245.856393 
L 253.868869 244.70182 
L 255.132873 245.039542 
L 256.333677 244.412336 
L 257.566082 245.363049 
L 258.830086 244.908185 
L 261.294895 244.795455 
L 262.495699 245.187471 
L 264.992108 247.6637 
L 266.192912 248.964675 
L 267.456916 250.539875 
L 268.752521 251.214566 
L 269.984925 253.181419 
L 271.21733 252.958771 
L 272.512934 252.951587 
L 274.946143 253.671934 
L 276.178547 254.346709 
L 277.379351 254.442088 
L 278.611755 254.708365 
L 279.84416 254.752197 
L 281.044964 254.32729 
L 282.277368 254.831382 
L 283.541373 255.517272 
L 284.742177 255.87636 
L 288.47099 257.822177 
L 289.703394 258.021086 
L 290.872598 259.069483 
L 292.136603 260.392312 
L 294.569811 261.834001 
L 295.865416 262.804641 
L 297.03462 262.971219 
L 298.298624 262.147029 
L 299.499429 261.821031 
L 300.731833 261.787882 
L 301.932637 262.135267 
L 303.165041 262.811662 
L 304.397446 263.995976 
L 305.62985 264.163203 
L 306.893855 265.11882 
L 309.295463 265.7099 
L 310.559467 265.044386 
L 311.791872 265.305969 
L 313.024276 265.753623 
L 315.425884 265.336324 
L 317.922293 266.467151 
L 319.123097 266.748091 
L 320.292301 266.841066 
L 324.021115 269.044598 
L 325.253519 268.898151 
L 326.485923 268.467969 
L 327.655127 267.937897 
L 328.950732 267.908695 
L 330.214736 268.334138 
L 331.668341 267.944238 
L 333.027146 267.954616 
L 334.322751 268.520969 
L 335.555155 268.769286 
L 338.051564 267.993419 
L 339.283968 267.920152 
L 341.748777 268.591039 
L 342.949581 269.075495 
L 345.44599 268.516464 
L 347.784398 268.54804 
L 349.048402 267.708423 
L 350.217606 267.654427 
L 351.513211 267.85275 
L 352.714015 268.295976 
L 353.946419 268.007489 
L 355.273624 267.093191 
L 356.442828 266.03493 
L 357.643632 265.268313 
L 358.907637 264.940599 
L 360.108441 264.159031 
L 362.510049 262.110766 
L 366.238862 257.945557 
L 367.502867 256.810871 
L 368.766871 255.895889 
L 369.904475 256.033832 
L 372.495684 257.153838 
L 373.570088 259.123904 
L 376.066497 261.272505 
L 377.267301 262.702056 
L 378.562906 263.792698 
L 379.76371 264.081682 
L 380.964514 263.632461 
L 382.260118 263.613062 
L 383.397722 263.337813 
L 384.598527 263.710672 
L 385.925731 264.303966 
L 387.031735 264.660645 
L 388.32734 264.399696 
L 389.591344 264.824519 
L 390.728948 264.780347 
L 391.992953 263.972448 
L 393.193757 263.515947 
L 394.647362 263.336185 
L 396.100967 262.556472 
L 399.82978 259.360287 
L 401.125385 257.48001 
L 402.326189 256.488991 
L 403.590193 255.215466 
L 404.759397 252.99904 
L 406.055002 252.252145 
L 407.129406 250.804593 
L 408.45661 248.262719 
L 409.594214 246.545615 
L 410.984619 245.317717 
L 411.995823 243.610297 
L 413.291427 240.771573 
L 414.618632 236.933106 
L 415.693036 232.577843 
L 417.178241 228.175943 
L 419.548249 219.457488 
L 421.886657 210.628992 
L 424.446266 200.339857 
L 425.58387 194.268565 
L 425.58387 194.268565 
" clip-path="url(#p9ba70be2f7)" style="fill: none; stroke: #ff7f0e; stroke-width: 2.5; stroke-linecap: square"/>
   </g>
   <g id="line2d_18">
    <path d="M 66.227412 280.661458 
L 66.164211 281.744401 
L 66.164211 280.014418 
L 66.227412 280.419354 
L 66.827814 280.737657 
L 68.407819 281.111747 
L 70.651427 281.166704 
L 72.926635 281.513401 
L 76.465847 281.762207 
L 77.729852 281.459107 
L 78.930656 281.545934 
L 80.00506 281.78681 
L 82.375068 281.187691 
L 83.639073 281.249525 
L 84.966277 281.469825 
L 86.261882 281.531116 
L 88.884691 280.887669 
L 93.877508 280.444666 
L 95.078313 279.961072 
L 96.342317 279.993324 
L 97.606322 280.178753 
L 98.838726 280.211008 
L 101.240334 279.985121 
L 102.504339 280.059841 
L 103.799943 279.599073 
L 106.201552 279.623263 
L 107.528756 279.07684 
L 108.761161 278.795205 
L 109.993565 278.642465 
L 111.225969 278.355824 
L 112.395173 277.789916 
L 113.627578 277.05402 
L 114.923182 276.083159 
L 116.123986 275.435723 
L 118.588795 273.747457 
L 121.053604 271.603314 
L 122.254408 270.865526 
L 123.518412 269.215876 
L 126.014821 266.35099 
L 127.310426 264.789431 
L 128.57443 263.076175 
L 130.976038 257.87908 
L 133.472447 253.564467 
L 134.704851 251.287936 
L 135.905656 248.811406 
L 137.16966 246.509662 
L 138.402064 244.78635 
L 139.634469 243.341692 
L 142.067677 237.703901 
L 144.595686 231.444188 
L 147.060495 222.828579 
L 148.324499 219.517037 
L 149.525303 214.614189 
L 150.789308 211.659711 
L 154.486521 201.966019 
L 156.919729 196.500808 
L 158.152134 192.286052 
L 160.616942 178.839953 
L 161.849347 170.506248 
L 166.778964 147.667544 
L 168.042968 143.911013 
L 169.338573 138.61006 
L 170.507777 132.068153 
L 172.940985 115.74096 
L 174.20499 109.913945 
L 175.468994 106.529701 
L 176.732999 103.552446 
L 177.902203 100.365047 
L 180.335411 91.392696 
L 182.86342 81.587696 
L 184.127425 77.886673 
L 185.296629 77.477231 
L 186.529033 80.901043 
L 187.761437 86.268779 
L 191.45865 109.909366 
L 193.891859 127.836234 
L 196.356667 142.820628 
L 198.853076 156.800551 
L 200.08548 161.61808 
L 203.751093 180.712781 
L 206.184302 193.760742 
L 208.680711 204.111014 
L 209.913115 208.55924 
L 211.113919 213.76238 
L 212.346323 216.425078 
L 213.547128 220.056478 
L 216.011936 226.196459 
L 219.740749 231.117867 
L 220.973154 232.220821 
L 223.406362 236.613828 
L 224.638766 237.872296 
L 225.839571 238.938621 
L 228.335979 242.745537 
L 229.568384 243.422244 
L 230.737588 244.38106 
L 231.969992 245.1221 
L 233.265597 244.980406 
L 234.403201 246.463365 
L 235.667205 246.833656 
L 236.899609 246.683367 
L 238.132014 246.84471 
L 241.734426 249.734889 
L 242.966831 250.969954 
L 244.294035 251.923191 
L 245.494839 253.118937 
L 246.727244 254.932668 
L 247.928048 255.166323 
L 249.192052 256.351171 
L 251.751661 256.643608 
L 252.952466 257.24542 
L 254.18487 257.490495 
L 256.618078 258.219026 
L 259.082887 259.774545 
L 260.346891 260.989356 
L 261.516096 262.628482 
L 264.044104 263.438027 
L 265.181708 264.099621 
L 266.414113 263.545118 
L 267.709717 263.505802 
L 270.269326 262.951492 
L 271.47013 263.206604 
L 272.734135 263.963171 
L 273.934939 264.906283 
L 275.198944 265.550922 
L 276.462948 265.778093 
L 277.632152 266.234218 
L 278.896156 265.820929 
L 281.360965 266.080454 
L 282.530169 266.771501 
L 283.762574 267.654022 
L 285.058178 268.208779 
L 286.290582 268.94447 
L 288.755391 269.119401 
L 289.987795 269.602723 
L 291.1886 269.299776 
L 292.389404 269.291043 
L 294.854212 269.45637 
L 296.055017 269.308463 
L 298.551425 269.612553 
L 299.75223 269.471669 
L 301.016234 269.590388 
L 303.481043 270.674344 
L 305.882651 271.250177 
L 308.37906 270.604866 
L 309.548264 271.037905 
L 310.812268 271.059677 
L 312.013072 270.387722 
L 313.213877 270.311164 
L 314.446281 270.83356 
L 315.678685 271.235178 
L 316.97429 271.11258 
L 318.143494 271.404297 
L 319.407498 271.260307 
L 320.608303 270.865181 
L 321.840707 271.567616 
L 323.104711 271.489679 
L 324.305516 270.802643 
L 325.50632 270.908521 
L 326.738724 271.501203 
L 327.971128 271.405177 
L 329.140332 271.105371 
L 330.435937 271.163115 
L 331.984342 271.34675 
L 333.216747 271.284957 
L 334.575551 271.619463 
L 337.04036 270.072879 
L 339.536769 269.831055 
L 341.969977 268.347699 
L 343.170782 267.350263 
L 344.339986 267.143396 
L 345.63559 266.721121 
L 346.867995 265.71353 
L 348.100399 264.432421 
L 349.332803 263.506473 
L 350.470407 262.913357 
L 351.766012 262.536653 
L 353.061616 262.037472 
L 354.16762 262.038931 
L 355.463225 262.352488 
L 356.664029 263.776351 
L 357.928033 264.955772 
L 359.160438 265.527274 
L 360.392842 266.316086 
L 361.656846 266.232143 
L 364.026855 267.846386 
L 366.554863 268.279527 
L 367.882068 268.284032 
L 368.988072 268.40921 
L 370.157276 268.30347 
L 371.421281 267.738886 
L 372.685285 267.723393 
L 373.917689 267.825153 
L 377.520102 269.231848 
L 378.720906 268.987128 
L 379.95331 268.610238 
L 381.185715 268.81876 
L 383.682123 267.155518 
L 384.851328 266.537415 
L 386.115332 265.999681 
L 387.442537 265.130712 
L 389.780945 264.900081 
L 391.013349 265.307985 
L 392.340554 265.190732 
L 393.541358 265.747097 
L 396.353768 265.828397 
L 397.649372 264.968314 
L 398.881777 263.755012 
L 400.019381 262.273859 
L 401.409786 261.364505 
L 402.54739 259.77592 
L 403.748194 258.521668 
L 404.917398 256.526154 
L 406.307803 254.429664 
L 407.540207 252.882137 
L 409.847015 248.742835 
L 413.639028 244.024618 
L 416.103837 239.759392 
L 417.241441 235.190062 
L 419.80105 227.359077 
L 422.234258 217.505584 
L 424.762267 204.450495 
L 425.741871 196.37505 
L 425.741871 196.37505 
" clip-path="url(#p9ba70be2f7)" style="fill: none; stroke: #ff0000; stroke-width: 2.5; stroke-linecap: square"/>
   </g>
   <g id="patch_3">
    <path d="M 47.298945 299.822656 
L 47.298945 20.392383 
" style="fill: none; stroke: #000000; stroke-width: 1.5; stroke-linejoin: miter; stroke-linecap: square"/>
   </g>
   <g id="patch_4">
    <path d="M 47.298945 299.822656 
L 426.500273 299.822656 
" style="fill: none; stroke: #000000; stroke-width: 1.5; stroke-linejoin: miter; stroke-linecap: square"/>
   </g>
   <g id="legend_1">
    <g id="line2d_19">
     <path d="M 58.098945 35.728711 
L 70.098945 35.728711 
L 82.098945 35.728711 
" style="fill: none; stroke: #000000; stroke-width: 2.5; stroke-linecap: square"/>
    </g>
    <g id="text_17">
     <!-- vacuum -->
     <g transform="translate(91.698945 39.928711) scale(0.12 -0.12)">
      <defs>
       <path id="ArialMT-59" d="M 1344 0 
L 81 3319 
L 675 3319 
L 1388 1331 
Q 1503 1009 1600 663 
Q 1675 925 1809 1294 
L 2547 3319 
L 3125 3319 
L 1869 0 
L 1344 0 
z
" transform="scale(0.015625)"/>
       <path id="ArialMT-46" d="M 2588 1216 
L 3141 1144 
Q 3050 572 2676 248 
Q 2303 -75 1759 -75 
Q 1078 -75 664 370 
Q 250 816 250 1647 
Q 250 2184 428 2587 
Q 606 2991 970 3192 
Q 1334 3394 1763 3394 
Q 2303 3394 2647 3120 
Q 2991 2847 3088 2344 
L 2541 2259 
Q 2463 2594 2264 2762 
Q 2066 2931 1784 2931 
Q 1359 2931 1093 2626 
Q 828 2322 828 1663 
Q 828 994 1084 691 
Q 1341 388 1753 388 
Q 2084 388 2306 591 
Q 2528 794 2588 1216 
z
" transform="scale(0.015625)"/>
      </defs>
      <use xlink:href="#ArialMT-59"/>
      <use xlink:href="#ArialMT-44" transform="translate(50 0)"/>
      <use xlink:href="#ArialMT-46" transform="translate(105.609375 0)"/>
      <use xlink:href="#ArialMT-58" transform="translate(155.609375 0)"/>
      <use xlink:href="#ArialMT-58" transform="translate(211.21875 0)"/>
      <use xlink:href="#ArialMT-50" transform="translate(266.828125 0)"/>
     </g>
    </g>
    <g id="line2d_20">
     <path d="M 58.098945 52.99043 
L 70.098945 52.99043 
L 82.098945 52.99043 
" style="fill: none; stroke: #1f77b4; stroke-width: 2.5; stroke-linecap: square"/>
    </g>
    <g id="text_18">
     <!-- 1h -->
     <g transform="translate(91.698945 57.19043) scale(0.12 -0.12)">
      <defs>
       <path id="ArialMT-4b" d="M 422 0 
L 422 4581 
L 984 4581 
L 984 2938 
Q 1378 3394 1978 3394 
Q 2347 3394 2619 3248 
Q 2891 3103 3008 2847 
Q 3125 2591 3125 2103 
L 3125 0 
L 2563 0 
L 2563 2103 
Q 2563 2525 2380 2717 
Q 2197 2909 1863 2909 
Q 1613 2909 1392 2779 
Q 1172 2650 1078 2428 
Q 984 2206 984 1816 
L 984 0 
L 422 0 
z
" transform="scale(0.015625)"/>
      </defs>
      <use xlink:href="#ArialMT-14"/>
      <use xlink:href="#ArialMT-4b" transform="translate(55.609375 0)"/>
     </g>
    </g>
    <g id="line2d_21">
     <path d="M 58.098945 70.252148 
L 70.098945 70.252148 
L 82.098945 70.252148 
" style="fill: none; stroke: #0033ff; stroke-width: 2.5; stroke-linecap: square"/>
    </g>
    <g id="text_19">
     <!-- 2h -->
     <g transform="translate(91.698945 74.452148) scale(0.12 -0.12)">
      <use xlink:href="#ArialMT-15"/>
      <use xlink:href="#ArialMT-4b" transform="translate(55.609375 0)"/>
     </g>
    </g>
    <g id="line2d_22">
     <path d="M 58.098945 87.513867 
L 70.098945 87.513867 
L 82.098945 87.513867 
" style="fill: none; stroke: #ff7f0e; stroke-width: 2.5; stroke-linecap: square"/>
    </g>
    <g id="text_20">
     <!-- 4h -->
     <g transform="translate(91.698945 91.713867) scale(0.12 -0.12)">
      <use xlink:href="#ArialMT-17"/>
      <use xlink:href="#ArialMT-4b" transform="translate(55.609375 0)"/>
     </g>
    </g>
    <g id="line2d_23">
     <path d="M 58.098945 104.775586 
L 70.098945 104.775586 
L 82.098945 104.775586 
" style="fill: none; stroke: #ff0000; stroke-width: 2.5; stroke-linecap: square"/>
    </g>
    <g id="text_21">
     <!-- first -->
     <g transform="translate(91.698945 108.975586) scale(0.12 -0.12)">
      <defs>
       <path id="ArialMT-49" d="M 556 0 
L 556 2881 
L 59 2881 
L 59 3319 
L 556 3319 
L 556 3672 
Q 556 4006 616 4169 
Q 697 4388 901 4523 
Q 1106 4659 1475 4659 
Q 1713 4659 2000 4603 
L 1916 4113 
Q 1741 4144 1584 4144 
Q 1328 4144 1222 4034 
Q 1116 3925 1116 3625 
L 1116 3319 
L 1763 3319 
L 1763 2881 
L 1116 2881 
L 1116 0 
L 556 0 
z
" transform="scale(0.015625)"/>
       <path id="ArialMT-4c" d="M 425 3934 
L 425 4581 
L 988 4581 
L 988 3934 
L 425 3934 
z
M 425 0 
L 425 3319 
L 988 3319 
L 988 0 
L 425 0 
z
" transform="scale(0.015625)"/>
       <path id="ArialMT-56" d="M 197 991 
L 753 1078 
Q 800 744 1014 566 
Q 1228 388 1613 388 
Q 2000 388 2187 545 
Q 2375 703 2375 916 
Q 2375 1106 2209 1216 
Q 2094 1291 1634 1406 
Q 1016 1563 777 1677 
Q 538 1791 414 1992 
Q 291 2194 291 2438 
Q 291 2659 392 2848 
Q 494 3038 669 3163 
Q 800 3259 1026 3326 
Q 1253 3394 1513 3394 
Q 1903 3394 2198 3281 
Q 2494 3169 2634 2976 
Q 2775 2784 2828 2463 
L 2278 2388 
Q 2241 2644 2061 2787 
Q 1881 2931 1553 2931 
Q 1166 2931 1000 2803 
Q 834 2675 834 2503 
Q 834 2394 903 2306 
Q 972 2216 1119 2156 
Q 1203 2125 1616 2013 
Q 2213 1853 2448 1751 
Q 2684 1650 2818 1456 
Q 2953 1263 2953 975 
Q 2953 694 2789 445 
Q 2625 197 2315 61 
Q 2006 -75 1616 -75 
Q 969 -75 630 194 
Q 291 463 197 991 
z
" transform="scale(0.015625)"/>
      </defs>
      <use xlink:href="#ArialMT-49"/>
      <use xlink:href="#ArialMT-4c" transform="translate(27.78125 0)"/>
      <use xlink:href="#ArialMT-55" transform="translate(50 0)"/>
      <use xlink:href="#ArialMT-56" transform="translate(83.296875 0)"/>
      <use xlink:href="#ArialMT-57" transform="translate(133.296875 0)"/>
     </g>
    </g>
   </g>
  </g>
 </g>
 <defs>
  <clipPath id="p9ba70be2f7">
   <rect x="47.298945" y="20.392383" width="379.201328" height="279.430273"/>
  </clipPath>
 </defs>
</svg>
