<?xml version="1.0" encoding="utf-8" standalone="no"?>
<!DOCTYPE svg PUBLIC "-//W3C//DTD SVG 1.1//EN"
  "http://www.w3.org/Graphics/SVG/1.1/DTD/svg11.dtd">
<svg xmlns:xlink="http://www.w3.org/1999/xlink" width="449.270898pt" height="340.800273pt" viewBox="0 0 449.270898 340.800273" xmlns="http://www.w3.org/2000/svg" version="1.1">
 <metadata>
  <rdf:RDF xmlns:dc="http://purl.org/dc/elements/1.1/" xmlns:cc="http://creativecommons.org/ns#" xmlns:rdf="http://www.w3.org/1999/02/22-rdf-syntax-ns#">
   <cc:Work>
    <dc:type rdf:resource="http://purl.org/dc/dcmitype/StillImage"/>
    <dc:date>2026-07-09T17:08:18.449502</dc:date>
    <dc:format>image/svg+xml</dc:format>
    <dc:creator>
     <cc:Agent>
      <dc:title>Matplotlib v3.11.0, https://matplotlib.org/</dc:title>
     </cc:Agent>
    </dc:creator>
   </cc:Work>
  </rdf:RDF>
 </metadata>
 <defs>
  <style type="text/css">*{stroke-linejoin: round; stroke-linecap: butt}</style>
 </defs>
 <g id="figure_1">
  <g id="patch_1">
   <path d="M 0 340.800273 
L 449.270898 340.800273 
L 449.270898 0 
L 0 0 
z
" style="fill: #ffffff"/>
  </g>
  <g id="axes_1">
   <g id="patch_2">
    <path d="M 47.298945 299.822656 
L 426.500273 299.822656 
L 426.500273 20.392383 
L 47.298945 20.392383 
z
" style="fill: #ffffff"/>
   </g>
   <g id="matplotlib.axis_1">
    <g id="xtick_1">
     <g id="line2d_1">
      <defs>
       <path id="m1f1a29d9db" d="M 0 0 
L 0 -6 
" style="stroke: #000000; stroke-width: 1.5"/>
      </defs>
      <g>
       <use xlink:href="#m1f1a29d9db" x="47.298945" y="299.822656" style="stroke: #000000; stroke-width: 1.5"/>
      </g>
     </g>
     <g id="text_1">
      <!-- 0 -->
      <g transform="translate(43.406289 313.515039) scale(0.14 -0.14)">
       <defs>
        <path id="ArialMT-13" d="M 266 2259 
Q 266 3072 433 3567 
Q 600 4063 929 4331 
Q 1259 4600 1759 4600 
Q 2128 4600 2406 4451 
Q 2684 4303 2865 4023 
Q 3047 3744 3150 3342 
Q 3253 2941 3253 2259 
Q 3253 1453 3087 958 
Q 2922 463 2592 192 
Q 2263 -78 1759 -78 
Q 1097 -78 719 397 
Q 266 969 266 2259 
z
M 844 2259 
Q 844 1131 1108 757 
Q 1372 384 1759 384 
Q 2147 384 2411 759 
Q 2675 1134 2675 2259 
Q 2675 3391 2411 3762 
Q 2147 4134 1753 4134 
Q 1366 4134 1134 3806 
Q 844 3388 844 2259 
z
" transform="scale(0.015625)"/>
       </defs>
       <use xlink:href="#ArialMT-13"/>
      </g>
     </g>
    </g>
    <g id="xtick_2">
     <g id="line2d_2">
      <g>
       <use xlink:href="#m1f1a29d9db" x="110.499167" y="299.822656" style="stroke: #000000; stroke-width: 1.5"/>
      </g>
     </g>
     <g id="text_2">
      <!-- 200 -->
      <g transform="translate(98.821198 313.515039) scale(0.14 -0.14)">
       <defs>
        <path id="ArialMT-15" d="M 3222 541 
L 3222 0 
L 194 0 
Q 188 203 259 391 
Q 375 700 629 1000 
Q 884 1300 1366 1694 
Q 2113 2306 2375 2664 
Q 2638 3022 2638 3341 
Q 2638 3675 2398 3904 
Q 2159 4134 1775 4134 
Q 1369 4134 1125 3890 
Q 881 3647 878 3216 
L 300 3275 
Q 359 3922 746 4261 
Q 1134 4600 1788 4600 
Q 2447 4600 2831 4234 
Q 3216 3869 3216 3328 
Q 3216 3053 3103 2787 
Q 2991 2522 2730 2228 
Q 2469 1934 1863 1422 
Q 1356 997 1212 845 
Q 1069 694 975 541 
L 3222 541 
z
" transform="scale(0.015625)"/>
       </defs>
       <use xlink:href="#ArialMT-15"/>
       <use xlink:href="#ArialMT-13" transform="translate(55.609375 0)"/>
       <use xlink:href="#ArialMT-13" transform="translate(111.21875 0)"/>
      </g>
     </g>
    </g>
    <g id="xtick_3">
     <g id="line2d_3">
      <g>
       <use xlink:href="#m1f1a29d9db" x="173.699388" y="299.822656" style="stroke: #000000; stroke-width: 1.5"/>
      </g>
     </g>
     <g id="text_3">
      <!-- 400 -->
      <g transform="translate(162.021419 313.515039) scale(0.14 -0.14)">
       <defs>
        <path id="ArialMT-17" d="M 2069 0 
L 2069 1097 
L 81 1097 
L 81 1613 
L 2172 4581 
L 2631 4581 
L 2631 1613 
L 3250 1613 
L 3250 1097 
L 2631 1097 
L 2631 0 
L 2069 0 
z
M 2069 1613 
L 2069 3678 
L 634 1613 
L 2069 1613 
z
" transform="scale(0.015625)"/>
       </defs>
       <use xlink:href="#ArialMT-17"/>
       <use xlink:href="#ArialMT-13" transform="translate(55.609375 0)"/>
       <use xlink:href="#ArialMT-13" transform="translate(111.21875 0)"/>
      </g>
     </g>
    </g>
    <g id="xtick_4">
     <g id="line2d_4">
      <g>
       <use xlink:href="#m1f1a29d9db" x="236.899609" y="299.822656" style="stroke: #000000; stroke-width: 1.5"/>
      </g>
     </g>
     <g id="text_4">
      <!-- 600 -->
      <g transform="translate(225.221641 313.515039) scale(0.14 -0.14)">
       <defs>
        <path id="ArialMT-19" d="M 3184 3459 
L 2625 3416 
Q 2550 3747 2413 3897 
Q 2184 4138 1850 4138 
Q 1581 4138 1378 3988 
Q 1113 3794 959 3422 
Q 806 3050 800 2363 
Q 1003 2672 1297 2822 
Q 1591 2972 1913 2972 
Q 2475 2972 2870 2558 
Q 3266 2144 3266 1488 
Q 3266 1056 3080 686 
Q 2894 316 2569 119 
Q 2244 -78 1831 -78 
Q 1128 -78 684 439 
Q 241 956 241 2144 
Q 241 3472 731 4075 
Q 1159 4600 1884 4600 
Q 2425 4600 2770 4297 
Q 3116 3994 3184 3459 
z
M 888 1484 
Q 888 1194 1011 928 
Q 1134 663 1356 523 
Q 1578 384 1822 384 
Q 2178 384 2434 671 
Q 2691 959 2691 1453 
Q 2691 1928 2437 2201 
Q 2184 2475 1800 2475 
Q 1419 2475 1153 2201 
Q 888 1928 888 1484 
z
" transform="scale(0.015625)"/>
       </defs>
       <use xlink:href="#ArialMT-19"/>
       <use xlink:href="#ArialMT-13" transform="translate(55.609375 0)"/>
       <use xlink:href="#ArialMT-13" transform="translate(111.21875 0)"/>
      </g>
     </g>
    </g>
    <g id="xtick_5">
     <g id="line2d_5">
      <g>
       <use xlink:href="#m1f1a29d9db" x="300.099831" y="299.822656" style="stroke: #000000; stroke-width: 1.5"/>
      </g>
     </g>
     <g id="text_5">
      <!-- 800 -->
      <g transform="translate(288.421862 313.515039) scale(0.14 -0.14)">
       <defs>
        <path id="ArialMT-1b" d="M 1131 2484 
Q 781 2613 612 2850 
Q 444 3088 444 3419 
Q 444 3919 803 4259 
Q 1163 4600 1759 4600 
Q 2359 4600 2725 4251 
Q 3091 3903 3091 3403 
Q 3091 3084 2923 2848 
Q 2756 2613 2416 2484 
Q 2838 2347 3058 2040 
Q 3278 1734 3278 1309 
Q 3278 722 2862 322 
Q 2447 -78 1769 -78 
Q 1091 -78 675 323 
Q 259 725 259 1325 
Q 259 1772 486 2073 
Q 713 2375 1131 2484 
z
M 1019 3438 
Q 1019 3113 1228 2906 
Q 1438 2700 1772 2700 
Q 2097 2700 2305 2904 
Q 2513 3109 2513 3406 
Q 2513 3716 2298 3927 
Q 2084 4138 1766 4138 
Q 1444 4138 1231 3931 
Q 1019 3725 1019 3438 
z
M 838 1322 
Q 838 1081 952 856 
Q 1066 631 1291 507 
Q 1516 384 1775 384 
Q 2178 384 2440 643 
Q 2703 903 2703 1303 
Q 2703 1709 2433 1975 
Q 2163 2241 1756 2241 
Q 1359 2241 1098 1978 
Q 838 1716 838 1322 
z
" transform="scale(0.015625)"/>
       </defs>
       <use xlink:href="#ArialMT-1b"/>
       <use xlink:href="#ArialMT-13" transform="translate(55.609375 0)"/>
       <use xlink:href="#ArialMT-13" transform="translate(111.21875 0)"/>
      </g>
     </g>
    </g>
    <g id="xtick_6">
     <g id="line2d_6">
      <g>
       <use xlink:href="#m1f1a29d9db" x="363.300052" y="299.822656" style="stroke: #000000; stroke-width: 1.5"/>
      </g>
     </g>
     <g id="text_6">
      <!-- 1000 -->
      <g transform="translate(347.729427 313.515039) scale(0.14 -0.14)">
       <defs>
        <path id="ArialMT-14" d="M 2384 0 
L 1822 0 
L 1822 3584 
Q 1619 3391 1289 3197 
Q 959 3003 697 2906 
L 697 3450 
Q 1169 3672 1522 3987 
Q 1875 4303 2022 4600 
L 2384 4600 
L 2384 0 
z
" transform="scale(0.015625)"/>
       </defs>
       <use xlink:href="#ArialMT-14"/>
       <use xlink:href="#ArialMT-13" transform="translate(55.609375 0)"/>
       <use xlink:href="#ArialMT-13" transform="translate(111.21875 0)"/>
       <use xlink:href="#ArialMT-13" transform="translate(166.828125 0)"/>
      </g>
     </g>
    </g>
    <g id="xtick_7">
     <g id="line2d_7">
      <g>
       <use xlink:href="#m1f1a29d9db" x="426.500273" y="299.822656" style="stroke: #000000; stroke-width: 1.5"/>
      </g>
     </g>
     <g id="text_7">
      <!-- 1200 -->
      <g transform="translate(410.929648 313.515039) scale(0.14 -0.14)">
       <use xlink:href="#ArialMT-14"/>
       <use xlink:href="#ArialMT-15" transform="translate(55.609375 0)"/>
       <use xlink:href="#ArialMT-13" transform="translate(111.21875 0)"/>
       <use xlink:href="#ArialMT-13" transform="translate(166.828125 0)"/>
      </g>
     </g>
    </g>
    <g id="text_8">
     <!-- T1 Temperature (°C) -->
     <g transform="translate(173.160234 330.653711) scale(0.14 -0.14)">
      <defs>
       <path id="ArialMT-37" d="M 1659 0 
L 1659 4041 
L 150 4041 
L 150 4581 
L 3781 4581 
L 3781 4041 
L 2266 4041 
L 2266 0 
L 1659 0 
z
" transform="scale(0.015625)"/>
       <path id="ArialMT-3" transform="scale(0.015625)"/>
       <path id="ArialMT-48" d="M 2694 1069 
L 3275 997 
Q 3138 488 2766 206 
Q 2394 -75 1816 -75 
Q 1088 -75 661 373 
Q 234 822 234 1631 
Q 234 2469 665 2931 
Q 1097 3394 1784 3394 
Q 2450 3394 2872 2941 
Q 3294 2488 3294 1666 
Q 3294 1616 3291 1516 
L 816 1516 
Q 847 969 1125 678 
Q 1403 388 1819 388 
Q 2128 388 2347 550 
Q 2566 713 2694 1069 
z
M 847 1978 
L 2700 1978 
Q 2663 2397 2488 2606 
Q 2219 2931 1791 2931 
Q 1403 2931 1139 2672 
Q 875 2413 847 1978 
z
" transform="scale(0.015625)"/>
       <path id="ArialMT-50" d="M 422 0 
L 422 3319 
L 925 3319 
L 925 2853 
Q 1081 3097 1340 3245 
Q 1600 3394 1931 3394 
Q 2300 3394 2536 3241 
Q 2772 3088 2869 2813 
Q 3263 3394 3894 3394 
Q 4388 3394 4653 3120 
Q 4919 2847 4919 2278 
L 4919 0 
L 4359 0 
L 4359 2091 
Q 4359 2428 4304 2576 
Q 4250 2725 4106 2815 
Q 3963 2906 3769 2906 
Q 3419 2906 3187 2673 
Q 2956 2441 2956 1928 
L 2956 0 
L 2394 0 
L 2394 2156 
Q 2394 2531 2256 2718 
Q 2119 2906 1806 2906 
Q 1569 2906 1367 2781 
Q 1166 2656 1075 2415 
Q 984 2175 984 1722 
L 984 0 
L 422 0 
z
" transform="scale(0.015625)"/>
       <path id="ArialMT-53" d="M 422 -1272 
L 422 3319 
L 934 3319 
L 934 2888 
Q 1116 3141 1344 3267 
Q 1572 3394 1897 3394 
Q 2322 3394 2647 3175 
Q 2972 2956 3137 2557 
Q 3303 2159 3303 1684 
Q 3303 1175 3120 767 
Q 2938 359 2589 142 
Q 2241 -75 1856 -75 
Q 1575 -75 1351 44 
Q 1128 163 984 344 
L 984 -1272 
L 422 -1272 
z
M 931 1641 
Q 931 1000 1190 694 
Q 1450 388 1819 388 
Q 2194 388 2461 705 
Q 2728 1022 2728 1688 
Q 2728 2322 2467 2637 
Q 2206 2953 1844 2953 
Q 1484 2953 1207 2617 
Q 931 2281 931 1641 
z
" transform="scale(0.015625)"/>
       <path id="ArialMT-55" d="M 416 0 
L 416 3319 
L 922 3319 
L 922 2816 
Q 1116 3169 1280 3281 
Q 1444 3394 1641 3394 
Q 1925 3394 2219 3213 
L 2025 2691 
Q 1819 2813 1613 2813 
Q 1428 2813 1281 2702 
Q 1134 2591 1072 2394 
Q 978 2094 978 1738 
L 978 0 
L 416 0 
z
" transform="scale(0.015625)"/>
       <path id="ArialMT-44" d="M 2588 409 
Q 2275 144 1986 34 
Q 1697 -75 1366 -75 
Q 819 -75 525 192 
Q 231 459 231 875 
Q 231 1119 342 1320 
Q 453 1522 633 1644 
Q 813 1766 1038 1828 
Q 1203 1872 1538 1913 
Q 2219 1994 2541 2106 
Q 2544 2222 2544 2253 
Q 2544 2597 2384 2738 
Q 2169 2928 1744 2928 
Q 1347 2928 1158 2789 
Q 969 2650 878 2297 
L 328 2372 
Q 403 2725 575 2942 
Q 747 3159 1072 3276 
Q 1397 3394 1825 3394 
Q 2250 3394 2515 3294 
Q 2781 3194 2906 3042 
Q 3031 2891 3081 2659 
Q 3109 2516 3109 2141 
L 3109 1391 
Q 3109 606 3145 398 
Q 3181 191 3288 0 
L 2700 0 
Q 2613 175 2588 409 
z
M 2541 1666 
Q 2234 1541 1622 1453 
Q 1275 1403 1131 1340 
Q 988 1278 909 1158 
Q 831 1038 831 891 
Q 831 666 1001 516 
Q 1172 366 1500 366 
Q 1825 366 2078 508 
Q 2331 650 2450 897 
Q 2541 1088 2541 1459 
L 2541 1666 
z
" transform="scale(0.015625)"/>
       <path id="ArialMT-57" d="M 1650 503 
L 1731 6 
Q 1494 -44 1306 -44 
Q 1000 -44 831 53 
Q 663 150 594 308 
Q 525 466 525 972 
L 525 2881 
L 113 2881 
L 113 3319 
L 525 3319 
L 525 4141 
L 1084 4478 
L 1084 3319 
L 1650 3319 
L 1650 2881 
L 1084 2881 
L 1084 941 
Q 1084 700 1114 631 
Q 1144 563 1211 522 
Q 1278 481 1403 481 
Q 1497 481 1650 503 
z
" transform="scale(0.015625)"/>
       <path id="ArialMT-58" d="M 2597 0 
L 2597 488 
Q 2209 -75 1544 -75 
Q 1250 -75 995 37 
Q 741 150 617 320 
Q 494 491 444 738 
Q 409 903 409 1263 
L 409 3319 
L 972 3319 
L 972 1478 
Q 972 1038 1006 884 
Q 1059 663 1231 536 
Q 1403 409 1656 409 
Q 1909 409 2131 539 
Q 2353 669 2445 892 
Q 2538 1116 2538 1541 
L 2538 3319 
L 3100 3319 
L 3100 0 
L 2597 0 
z
" transform="scale(0.015625)"/>
       <path id="ArialMT-b" d="M 1497 -1347 
Q 1031 -759 709 28 
Q 388 816 388 1659 
Q 388 2403 628 3084 
Q 909 3875 1497 4659 
L 1900 4659 
Q 1522 4009 1400 3731 
Q 1209 3300 1100 2831 
Q 966 2247 966 1656 
Q 966 153 1900 -1347 
L 1497 -1347 
z
" transform="scale(0.015625)"/>
       <path id="ArialMT-83" d="M 400 3794 
Q 400 4153 654 4406 
Q 909 4659 1266 4659 
Q 1628 4659 1881 4406 
Q 2134 4153 2134 3794 
Q 2134 3434 1879 3179 
Q 1625 2925 1266 2925 
Q 909 2925 654 3178 
Q 400 3431 400 3794 
z
M 741 3794 
Q 741 3575 895 3420 
Q 1050 3266 1269 3266 
Q 1484 3266 1639 3420 
Q 1794 3575 1794 3794 
Q 1794 4013 1639 4167 
Q 1484 4322 1269 4322 
Q 1050 4322 895 4167 
Q 741 4013 741 3794 
z
" transform="scale(0.015625)"/>
       <path id="ArialMT-26" d="M 3763 1606 
L 4369 1453 
Q 4178 706 3683 314 
Q 3188 -78 2472 -78 
Q 1731 -78 1267 223 
Q 803 525 561 1097 
Q 319 1669 319 2325 
Q 319 3041 592 3573 
Q 866 4106 1370 4382 
Q 1875 4659 2481 4659 
Q 3169 4659 3637 4309 
Q 4106 3959 4291 3325 
L 3694 3184 
Q 3534 3684 3231 3912 
Q 2928 4141 2469 4141 
Q 1941 4141 1586 3887 
Q 1231 3634 1087 3207 
Q 944 2781 944 2328 
Q 944 1744 1114 1308 
Q 1284 872 1643 656 
Q 2003 441 2422 441 
Q 2931 441 3284 734 
Q 3638 1028 3763 1606 
z
" transform="scale(0.015625)"/>
       <path id="ArialMT-c" d="M 791 -1347 
L 388 -1347 
Q 1322 153 1322 1656 
Q 1322 2244 1188 2822 
Q 1081 3291 891 3722 
Q 769 4003 388 4659 
L 791 4659 
Q 1378 3875 1659 3084 
Q 1900 2403 1900 1659 
Q 1900 816 1576 28 
Q 1253 -759 791 -1347 
z
" transform="scale(0.015625)"/>
      </defs>
      <use xlink:href="#ArialMT-37"/>
      <use xlink:href="#ArialMT-14" transform="translate(61.078125 0)"/>
      <use xlink:href="#ArialMT-3" transform="translate(116.6875 0)"/>
      <use xlink:href="#ArialMT-37" transform="translate(142.65625 0)"/>
      <use xlink:href="#ArialMT-48" transform="translate(192.65625 0)"/>
      <use xlink:href="#ArialMT-50" transform="translate(248.265625 0)"/>
      <use xlink:href="#ArialMT-53" transform="translate(331.5625 0)"/>
      <use xlink:href="#ArialMT-48" transform="translate(387.171875 0)"/>
      <use xlink:href="#ArialMT-55" transform="translate(442.78125 0)"/>
      <use xlink:href="#ArialMT-44" transform="translate(476.078125 0)"/>
      <use xlink:href="#ArialMT-57" transform="translate(531.6875 0)"/>
      <use xlink:href="#ArialMT-58" transform="translate(559.46875 0)"/>
      <use xlink:href="#ArialMT-55" transform="translate(615.078125 0)"/>
      <use xlink:href="#ArialMT-48" transform="translate(648.375 0)"/>
      <use xlink:href="#ArialMT-3" transform="translate(703.984375 0)"/>
      <use xlink:href="#ArialMT-b" transform="translate(731.765625 0)"/>
      <use xlink:href="#ArialMT-83" transform="translate(765.0625 0)"/>
      <use xlink:href="#ArialMT-26" transform="translate(805.046875 0)"/>
      <use xlink:href="#ArialMT-c" transform="translate(877.265625 0)"/>
     </g>
    </g>
   </g>
   <g id="matplotlib.axis_2">
    <g id="ytick_1">
     <g id="line2d_8">
      <defs>
       <path id="mb97284e6db" d="M 0 0 
L 6 0 
" style="stroke: #000000; stroke-width: 1.5"/>
      </defs>
      <g>
       <use xlink:href="#mb97284e6db" x="47.298945" y="261.361388" style="stroke: #000000; stroke-width: 1.5"/>
      </g>
     </g>
     <g id="text_9">
      <!-- 0.0 -->
      <g transform="translate(24.338945 266.457579) scale(0.14 -0.14)">
       <defs>
        <path id="ArialMT-11" d="M 581 0 
L 581 641 
L 1222 641 
L 1222 0 
L 581 0 
z
" transform="scale(0.015625)"/>
       </defs>
       <use xlink:href="#ArialMT-13"/>
       <use xlink:href="#ArialMT-11" transform="translate(55.609375 0)"/>
       <use xlink:href="#ArialMT-13" transform="translate(83.390625 0)"/>
      </g>
     </g>
    </g>
    <g id="ytick_2">
     <g id="line2d_9">
      <g>
       <use xlink:href="#mb97284e6db" x="47.298945" y="207.399298" style="stroke: #000000; stroke-width: 1.5"/>
      </g>
     </g>
     <g id="text_10">
      <!-- 0.5 -->
      <g transform="translate(24.338945 212.495489) scale(0.14 -0.14)">
       <defs>
        <path id="ArialMT-18" d="M 266 1200 
L 856 1250 
Q 922 819 1161 601 
Q 1400 384 1738 384 
Q 2144 384 2425 690 
Q 2706 997 2706 1503 
Q 2706 1984 2436 2262 
Q 2166 2541 1728 2541 
Q 1456 2541 1237 2417 
Q 1019 2294 894 2097 
L 366 2166 
L 809 4519 
L 3088 4519 
L 3088 3981 
L 1259 3981 
L 1013 2750 
Q 1425 3038 1878 3038 
Q 2478 3038 2890 2622 
Q 3303 2206 3303 1553 
Q 3303 931 2941 478 
Q 2500 -78 1738 -78 
Q 1113 -78 717 272 
Q 322 622 266 1200 
z
" transform="scale(0.015625)"/>
       </defs>
       <use xlink:href="#ArialMT-13"/>
       <use xlink:href="#ArialMT-11" transform="translate(55.609375 0)"/>
       <use xlink:href="#ArialMT-18" transform="translate(83.390625 0)"/>
      </g>
     </g>
    </g>
    <g id="ytick_3">
     <g id="line2d_10">
      <g>
       <use xlink:href="#mb97284e6db" x="47.298945" y="153.437207" style="stroke: #000000; stroke-width: 1.5"/>
      </g>
     </g>
     <g id="text_11">
      <!-- 1.0 -->
      <g transform="translate(24.338945 158.533399) scale(0.14 -0.14)">
       <use xlink:href="#ArialMT-14"/>
       <use xlink:href="#ArialMT-11" transform="translate(55.609375 0)"/>
       <use xlink:href="#ArialMT-13" transform="translate(83.390625 0)"/>
      </g>
     </g>
    </g>
    <g id="ytick_4">
     <g id="line2d_11">
      <g>
       <use xlink:href="#mb97284e6db" x="47.298945" y="99.475117" style="stroke: #000000; stroke-width: 1.5"/>
      </g>
     </g>
     <g id="text_12">
      <!-- 1.5 -->
      <g transform="translate(24.338945 104.571309) scale(0.14 -0.14)">
       <use xlink:href="#ArialMT-14"/>
       <use xlink:href="#ArialMT-11" transform="translate(55.609375 0)"/>
       <use xlink:href="#ArialMT-18" transform="translate(83.390625 0)"/>
      </g>
     </g>
    </g>
    <g id="ytick_5">
     <g id="line2d_12">
      <g>
       <use xlink:href="#mb97284e6db" x="47.298945" y="45.513027" style="stroke: #000000; stroke-width: 1.5"/>
      </g>
     </g>
     <g id="text_13">
      <!-- 2.0 -->
      <g transform="translate(24.338945 50.609218) scale(0.14 -0.14)">
       <use xlink:href="#ArialMT-15"/>
       <use xlink:href="#ArialMT-11" transform="translate(55.609375 0)"/>
       <use xlink:href="#ArialMT-13" transform="translate(83.390625 0)"/>
      </g>
     </g>
    </g>
    <g id="text_14">
     <!-- Ion Current (m/z 20) -->
     <g transform="translate(17.392383 222.733457) rotate(-90) scale(0.14 -0.14)">
      <defs>
       <path id="ArialMT-2c" d="M 597 0 
L 597 4581 
L 1203 4581 
L 1203 0 
L 597 0 
z
" transform="scale(0.015625)"/>
       <path id="ArialMT-52" d="M 213 1659 
Q 213 2581 725 3025 
Q 1153 3394 1769 3394 
Q 2453 3394 2887 2945 
Q 3322 2497 3322 1706 
Q 3322 1066 3130 698 
Q 2938 331 2570 128 
Q 2203 -75 1769 -75 
Q 1072 -75 642 372 
Q 213 819 213 1659 
z
M 791 1659 
Q 791 1022 1069 705 
Q 1347 388 1769 388 
Q 2188 388 2466 706 
Q 2744 1025 2744 1678 
Q 2744 2294 2464 2611 
Q 2184 2928 1769 2928 
Q 1347 2928 1069 2612 
Q 791 2297 791 1659 
z
" transform="scale(0.015625)"/>
       <path id="ArialMT-51" d="M 422 0 
L 422 3319 
L 928 3319 
L 928 2847 
Q 1294 3394 1984 3394 
Q 2284 3394 2536 3286 
Q 2788 3178 2913 3003 
Q 3038 2828 3088 2588 
Q 3119 2431 3119 2041 
L 3119 0 
L 2556 0 
L 2556 2019 
Q 2556 2363 2490 2533 
Q 2425 2703 2258 2804 
Q 2091 2906 1866 2906 
Q 1506 2906 1245 2678 
Q 984 2450 984 1813 
L 984 0 
L 422 0 
z
" transform="scale(0.015625)"/>
       <path id="ArialMT-12" d="M 0 -78 
L 1328 4659 
L 1778 4659 
L 453 -78 
L 0 -78 
z
" transform="scale(0.015625)"/>
       <path id="ArialMT-5d" d="M 125 0 
L 125 456 
L 2238 2881 
Q 1878 2863 1603 2863 
L 250 2863 
L 250 3319 
L 2963 3319 
L 2963 2947 
L 1166 841 
L 819 456 
Q 1197 484 1528 484 
L 3063 484 
L 3063 0 
L 125 0 
z
" transform="scale(0.015625)"/>
      </defs>
      <use xlink:href="#ArialMT-2c"/>
      <use xlink:href="#ArialMT-52" transform="translate(27.78125 0)"/>
      <use xlink:href="#ArialMT-51" transform="translate(83.390625 0)"/>
      <use xlink:href="#ArialMT-3" transform="translate(139 0)"/>
      <use xlink:href="#ArialMT-26" transform="translate(166.78125 0)"/>
      <use xlink:href="#ArialMT-58" transform="translate(239 0)"/>
      <use xlink:href="#ArialMT-55" transform="translate(294.609375 0)"/>
      <use xlink:href="#ArialMT-55" transform="translate(327.90625 0)"/>
      <use xlink:href="#ArialMT-48" transform="translate(361.203125 0)"/>
      <use xlink:href="#ArialMT-51" transform="translate(416.8125 0)"/>
      <use xlink:href="#ArialMT-57" transform="translate(472.421875 0)"/>
      <use xlink:href="#ArialMT-3" transform="translate(500.203125 0)"/>
      <use xlink:href="#ArialMT-b" transform="translate(527.984375 0)"/>
      <use xlink:href="#ArialMT-50" transform="translate(561.28125 0)"/>
      <use xlink:href="#ArialMT-12" transform="translate(644.578125 0)"/>
      <use xlink:href="#ArialMT-5d" transform="translate(672.359375 0)"/>
      <use xlink:href="#ArialMT-3" transform="translate(722.359375 0)"/>
      <use xlink:href="#ArialMT-15" transform="translate(750.140625 0)"/>
      <use xlink:href="#ArialMT-13" transform="translate(805.75 0)"/>
      <use xlink:href="#ArialMT-c" transform="translate(861.359375 0)"/>
     </g>
    </g>
    <g id="text_15">
     <!-- 1e−13 -->
     <g transform="translate(47.298945 17.392383) scale(0.14 -0.14)">
      <defs>
       <path id="ArialMT-ed" d="M 3381 1997 
L 356 1997 
L 356 2522 
L 3381 2522 
L 3381 1997 
z
" transform="scale(0.015625)"/>
       <path id="ArialMT-16" d="M 269 1209 
L 831 1284 
Q 928 806 1161 595 
Q 1394 384 1728 384 
Q 2125 384 2398 659 
Q 2672 934 2672 1341 
Q 2672 1728 2419 1979 
Q 2166 2231 1775 2231 
Q 1616 2231 1378 2169 
L 1441 2663 
Q 1497 2656 1531 2656 
Q 1891 2656 2178 2843 
Q 2466 3031 2466 3422 
Q 2466 3731 2256 3934 
Q 2047 4138 1716 4138 
Q 1388 4138 1169 3931 
Q 950 3725 888 3313 
L 325 3413 
Q 428 3978 793 4289 
Q 1159 4600 1703 4600 
Q 2078 4600 2393 4439 
Q 2709 4278 2876 4000 
Q 3044 3722 3044 3409 
Q 3044 3113 2884 2869 
Q 2725 2625 2413 2481 
Q 2819 2388 3044 2092 
Q 3269 1797 3269 1353 
Q 3269 753 2831 336 
Q 2394 -81 1725 -81 
Q 1122 -81 723 278 
Q 325 638 269 1209 
z
" transform="scale(0.015625)"/>
      </defs>
      <use xlink:href="#ArialMT-14"/>
      <use xlink:href="#ArialMT-48" transform="translate(55.609375 0)"/>
      <use xlink:href="#ArialMT-ed" transform="translate(111.21875 0)"/>
      <use xlink:href="#ArialMT-14" transform="translate(169.625 0)"/>
      <use xlink:href="#ArialMT-16" transform="translate(225.234375 0)"/>
     </g>
    </g>
   </g>
   <g id="line2d_13">
    <path d="M 66.195811 241.732043 
L 66.132611 245.67278 
L 66.132611 238.795788 
L 66.069411 242.012306 
L 66.227412 233.915864 
L 66.922614 226.767071 
L 68.56582 228.344454 
L 70.841028 225.599675 
L 73.053036 226.732041 
L 74.917442 244.188565 
L 76.402647 245.535713 
L 77.635052 257.917789 
L 78.867456 260.649116 
L 79.97346 272.337767 
L 81.111064 266.463446 
L 82.343468 259.506312 
L 83.607472 238.32513 
L 84.871477 223.148009 
L 86.261882 214.217568 
L 87.620687 232.64 
L 88.916291 227.242964 
L 90.211896 239.885037 
L 91.4759 234.283698 
L 92.645104 245.2041 
L 93.877508 249.598372 
L 95.109913 250.54423 
L 96.373917 229.832481 
L 97.543121 219.812859 
L 98.775526 221.334113 
L 100.00793 233.16267 
L 101.240334 232.754051 
L 102.472739 235.517451 
L 103.736743 230.905249 
L 105.000747 248.806831 
L 106.233152 261.04188 
L 107.497156 252.141706 
L 108.72956 237.305345 
L 109.930365 225.783915 
L 111.162769 218.79051 
L 112.395173 225.581044 
L 114.859982 231.356522 
L 116.092386 241.159713 
L 117.356391 254.113796 
L 118.557195 261.528872 
L 119.821199 264.902441 
L 121.053604 261.917003 
L 122.286008 253.189368 
L 123.518412 246.661047 
L 124.750817 238.323335 
L 126.014821 242.86626 
L 127.278825 245.346981 
L 128.54283 248.13128 
L 129.806834 248.245134 
L 131.007638 242.648694 
L 132.240043 248.800938 
L 133.504047 248.711662 
L 134.673251 250.784996 
L 135.905656 245.891149 
L 137.16966 230.159091 
L 138.433665 225.269408 
L 139.666069 227.02029 
L 140.930073 226.563163 
L 142.099277 223.720468 
L 143.331682 210.692244 
L 144.532486 215.119647 
L 145.76489 215.533005 
L 146.965694 217.981522 
L 148.229699 217.994496 
L 149.462103 223.906266 
L 150.694507 225.966156 
L 151.958512 232.530462 
L 153.159316 236.060127 
L 154.423321 233.871075 
L 155.624125 235.763283 
L 156.888129 234.800931 
L 158.120533 231.506967 
L 159.384538 219.136726 
L 160.648542 220.214452 
L 161.849347 218.700429 
L 163.113351 218.310192 
L 164.345755 207.555983 
L 165.546559 220.558799 
L 166.747364 223.890527 
L 168.011368 234.210843 
L 169.212172 238.015096 
L 170.412977 250.351446 
L 171.645381 247.196527 
L 174.20499 235.591258 
L 175.437394 239.753389 
L 176.701399 235.954716 
L 177.965403 237.63296 
L 179.229407 221.91806 
L 180.430212 214.552039 
L 181.631016 226.320346 
L 182.89502 239.892955 
L 184.159025 237.752473 
L 185.328229 219.875507 
L 187.761437 243.193298 
L 188.993842 243.39976 
L 190.226246 235.873429 
L 191.45865 235.110368 
L 192.691055 243.856646 
L 193.860259 257.44018 
L 195.092663 248.266918 
L 196.356667 239.728279 
L 197.589072 227.456143 
L 198.789876 220.888903 
L 200.02228 216.334418 
L 201.254685 216.85402 
L 202.518689 211.230174 
L 203.719493 214.896864 
L 204.951897 222.614603 
L 206.215902 228.273588 
L 207.448306 219.630249 
L 208.680711 222.400754 
L 209.881515 226.356147 
L 211.145519 215.862084 
L 212.377923 222.343355 
L 213.578728 235.146462 
L 214.811132 224.090418 
L 216.043536 235.282317 
L 217.275941 248.316452 
L 218.445145 246.623488 
L 219.709149 236.00754 
L 220.909953 242.162664 
L 222.142358 249.894097 
L 223.437962 246.852983 
L 224.638766 257.29959 
L 225.871171 263.264941 
L 227.008775 256.164851 
L 228.177979 263.97415 
L 229.410383 263.999802 
L 230.674388 253.031007 
L 231.938392 250.135015 
L 233.170796 238.465516 
L 234.434801 231.884091 
L 235.667205 230.648716 
L 236.836409 232.148491 
L 238.100414 234.87587 
L 239.332818 227.610932 
L 240.596822 233.264759 
L 241.797627 225.143411 
L 243.030031 229.994161 
L 244.294035 228.801797 
L 245.52644 220.68811 
L 246.727244 225.641629 
L 247.959648 229.509673 
L 249.192052 226.551069 
L 250.424457 235.640877 
L 251.688461 239.983431 
L 252.920865 249.848905 
L 254.12167 244.618509 
L 255.417274 257.957338 
L 256.618078 257.688308 
L 257.850483 259.794719 
L 259.051287 253.855227 
L 260.283691 255.39798 
L 261.579296 258.525811 
L 262.7485 257.310965 
L 263.980904 251.299995 
L 265.213309 247.993553 
L 266.414113 246.65772 
L 267.678117 249.50124 
L 268.973722 245.706897 
L 270.237726 248.386349 
L 271.47013 238.61475 
L 272.670935 242.6354 
L 273.934939 241.284266 
L 276.399748 215.208961 
L 277.663752 209.665647 
L 278.896156 207.027959 
L 280.128561 216.512476 
L 281.360965 230.105883 
L 282.561769 244.910241 
L 283.825774 248.529465 
L 285.026578 260.601055 
L 286.227382 256.16346 
L 287.459786 256.523068 
L 288.692191 251.133295 
L 289.892995 237.807736 
L 291.156999 230.668087 
L 292.421004 235.224274 
L 293.590208 234.024114 
L 294.854212 234.527543 
L 297.287421 240.30528 
L 298.519825 236.372772 
L 299.75223 231.022318 
L 300.984634 229.628282 
L 302.217038 225.326373 
L 304.650247 243.839849 
L 305.882651 256.363343 
L 307.083455 260.502207 
L 308.31586 272.313953 
L 309.548264 275.119251 
L 310.780668 267.032026 
L 312.013072 254.423463 
L 314.414681 234.402901 
L 315.710285 227.13031 
L 316.94269 218.812542 
L 318.143494 230.114985 
L 319.312698 212.502001 
L 320.608303 209.881021 
L 321.809107 209.828929 
L 323.073111 215.582353 
L 324.273915 213.952087 
L 325.47472 203.263708 
L 326.707124 210.602564 
L 327.971128 216.154196 
L 329.140332 217.072724 
L 330.435937 219.607416 
L 331.984342 201.899518 
L 333.311547 201.483675 
L 334.543951 222.414424 
L 335.807956 231.653615 
L 336.97716 229.114884 
L 338.177964 228.944026 
L 339.473569 246.160221 
L 340.705973 246.38603 
L 341.969977 240.582362 
L 343.107581 229.028736 
L 344.403186 218.465748 
L 345.57239 232.847705 
L 346.899595 239.221241 
L 348.100399 239.97973 
L 349.269603 236.855039 
L 350.533607 226.225021 
L 351.829212 228.149471 
L 352.935216 221.325513 
L 354.16762 230.84066 
L 355.494825 214.085599 
L 356.664029 209.301854 
L 357.928033 220.072938 
L 359.192038 209.656188 
L 360.456042 213.072253 
L 361.498846 209.583348 
L 362.79445 211.269078 
L 364.121655 218.363775 
L 365.227659 232.033402 
L 366.491663 238.123546 
L 367.913668 213.846196 
L 369.146073 219.379885 
L 370.315277 218.347835 
L 371.452881 216.275973 
L 372.685285 224.635178 
L 373.886089 223.026313 
L 375.150094 224.364693 
L 376.256097 219.716688 
L 377.488502 209.571905 
L 378.720906 201.930606 
L 379.95331 195.31239 
L 381.154115 200.253779 
L 382.449719 202.382736 
L 383.587323 198.537424 
L 384.851328 205.277324 
L 385.988932 203.706498 
L 387.410937 202.454079 
L 388.611741 194.253554 
L 389.844145 198.329201 
L 391.044949 216.094569 
L 392.340554 218.758615 
L 393.383357 203.677789 
L 395.089763 190.329824 
L 396.385368 185.442855 
L 397.712573 194.016428 
L 398.881777 196.869442 
L 400.114181 195.349619 
L 401.409786 205.517089 
L 402.515789 219.236156 
L 403.748194 223.276852 
L 404.885798 196.197742 
L 406.244602 170.207858 
L 408.709411 143.91976 
L 410.036616 147.393126 
L 411.20582 145.161158 
L 412.343424 139.769704 
L 413.512628 153.316512 
L 414.839833 149.170939 
L 415.977437 142.707461 
L 417.367841 126.693679 
L 418.663446 142.778632 
L 419.67465 138.773179 
L 421.065054 138.518695 
L 422.139458 137.187931 
L 423.435063 134.208043 
L 424.699067 129.006187 
L 425.710271 121.00952 
L 425.710271 121.00952 
" clip-path="url(#p9d0e42b96b)" style="fill: none; stroke: #000000; stroke-width: 2.5; stroke-linecap: square"/>
   </g>
   <g id="line2d_14">
    <path d="M 58.200983 252.903817 
L 58.200983 233.486509 
L 58.200983 250.994557 
L 59.022586 236.599723 
L 60.760592 231.375481 
L 63.0042 236.563266 
L 65.184608 248.408261 
L 67.017414 249.322238 
L 68.53422 236.714486 
L 69.798224 243.585666 
L 70.935828 238.53004 
L 71.978632 244.468564 
L 73.211036 237.074432 
L 74.47504 230.85886 
L 75.612644 243.712272 
L 76.939849 263.892529 
L 78.203854 263.133125 
L 79.341458 250.431462 
L 80.700262 241.871208 
L 81.869466 241.777987 
L 83.165071 230.352987 
L 84.460675 239.967049 
L 85.75628 226.891929 
L 87.020284 231.078526 
L 88.347489 239.461143 
L 89.706294 253.93686 
L 90.875498 243.566303 
L 92.171102 238.02933 
L 93.340307 237.127457 
L 94.604311 232.602898 
L 95.773515 229.195083 
L 97.10072 242.745899 
L 98.364724 238.339518 
L 99.565528 235.119748 
L 100.734732 231.116163 
L 101.998737 234.248885 
L 103.262741 229.997262 
L 104.495146 235.114323 
L 105.75915 252.274666 
L 106.865154 246.255763 
L 108.160758 261.768782 
L 109.393163 263.91402 
L 110.657167 250.570549 
L 111.952772 244.318079 
L 113.058776 232.800117 
L 114.35438 222.188521 
L 115.586784 218.144292 
L 116.882389 216.48703 
L 118.051593 215.963083 
L 119.315598 204.013748 
L 120.611202 208.847266 
L 121.717206 209.845217 
L 123.01281 214.25101 
L 124.276815 234.339929 
L 125.414419 233.026152 
L 126.710023 226.484005 
L 128.005628 228.447591 
L 129.206432 222.707332 
L 130.502037 217.606782 
L 131.766041 207.73574 
L 132.966845 199.635687 
L 134.136049 209.513022 
L 135.336854 205.270557 
L 136.600858 216.107563 
L 137.833262 214.322091 
L 139.065667 218.061416 
L 140.266471 223.801328 
L 141.562075 232.909906 
L 142.82608 230.974603 
L 144.058484 229.322573 
L 145.227688 213.232582 
L 146.554893 204.224002 
L 147.724097 189.431466 
L 148.893301 196.335617 
L 150.220506 185.218262 
L 151.42131 178.89688 
L 152.748515 188.692896 
L 153.917719 207.816658 
L 155.150123 206.73004 
L 156.382527 215.698422 
L 157.583332 217.649832 
L 158.847336 226.13242 
L 160.11134 232.280921 
L 161.375345 232.995662 
L 162.576149 219.129462 
L 163.840153 210.936088 
L 165.009358 204.160448 
L 166.178562 186.236056 
L 167.474166 171.695174 
L 168.706571 178.058128 
L 169.907375 180.575452 
L 171.139779 187.753032 
L 172.372183 186.819461 
L 173.636188 184.88568 
L 174.931792 190.501827 
L 176.132597 187.82302 
L 177.333401 174.587519 
L 178.597405 178.379473 
L 179.766609 175.179715 
L 181.125414 176.169175 
L 182.294618 174.23937 
L 183.495422 165.200093 
L 184.727827 165.329071 
L 187.192635 200.896852 
L 188.48824 211.729331 
L 189.689044 206.533236 
L 190.921448 200.63656 
L 192.122253 186.347659 
L 193.354657 187.775471 
L 194.618661 182.153704 
L 195.882666 169.992309 
L 197.05187 167.077538 
L 198.284274 179.497645 
L 199.516678 193.114308 
L 200.780683 196.553989 
L 202.044687 197.84551 
L 203.213891 190.036403 
L 204.477896 198.494455 
L 205.6787 202.62209 
L 206.911104 221.071874 
L 209.375913 231.940819 
L 210.513517 247.298826 
L 211.872322 271.17869 
L 213.009926 264.246449 
L 214.27393 258.474758 
L 215.474734 242.903831 
L 216.738739 232.607252 
L 217.971143 221.302762 
L 219.171947 221.301089 
L 221.605156 211.497407 
L 222.83756 214.934497 
L 224.038364 219.716469 
L 225.333969 221.170582 
L 226.534773 199.566796 
L 227.767177 192.961964 
L 229.031182 191.478522 
L 230.200386 192.577665 
L 231.49599 191.732713 
L 232.728395 207.18678 
L 233.897599 202.480374 
L 235.130003 221.533001 
L 236.330807 231.196521 
L 237.563212 256.482939 
L 238.795616 245.888667 
L 239.99642 241.196372 
L 241.292025 234.376924 
L 242.524429 225.510624 
L 243.725233 213.038277 
L 244.989238 211.407283 
L 246.190042 207.043959 
L 247.454046 204.94555 
L 248.686451 199.460235 
L 249.887255 206.671227 
L 251.151259 209.525281 
L 252.352063 200.779306 
L 253.647668 204.385555 
L 254.816872 209.271206 
L 256.080877 206.938691 
L 257.281681 216.427825 
L 258.545685 233.43658 
L 259.77809 233.663217 
L 260.947294 231.832861 
L 262.242898 238.909978 
L 263.443702 238.405082 
L 264.644507 229.419119 
L 265.876911 235.189541 
L 267.109315 237.398889 
L 268.40492 236.551999 
L 269.732124 236.659992 
L 270.901328 241.295632 
L 272.165333 236.676013 
L 273.397737 239.462889 
L 274.661742 241.93954 
L 275.894146 235.986208 
L 277.12655 232.516756 
L 278.295754 242.352032 
L 279.528159 240.937498 
L 280.760563 237.566312 
L 282.024567 229.1401 
L 283.225372 228.80798 
L 284.457776 237.040147 
L 285.69018 249.094284 
L 286.954185 249.29521 
L 288.154989 255.256913 
L 289.355793 251.720104 
L 290.619798 246.36094 
L 291.820602 246.469381 
L 293.021406 240.355028 
L 294.28541 225.67158 
L 295.549415 223.255544 
L 296.718619 223.591379 
L 297.982623 218.897586 
L 299.246628 209.934736 
L 300.415832 217.138375 
L 301.648236 205.249446 
L 302.88064 218.453811 
L 304.144645 233.957269 
L 305.313849 239.109384 
L 306.577853 241.071659 
L 307.747058 247.571581 
L 310.243466 224.832871 
L 311.44427 222.881534 
L 312.676675 228.646488 
L 313.877479 232.129347 
L 315.109883 236.727855 
L 316.342288 227.284972 
L 317.606292 229.817038 
L 320.071101 216.514679 
L 321.240305 202.157319 
L 322.472709 194.949878 
L 323.736714 202.716629 
L 325.000718 192.024532 
L 326.138322 194.925846 
L 327.433926 179.218782 
L 328.634731 178.121255 
L 329.835535 184.260563 
L 331.35234 179.588278 
L 332.711145 190.043209 
L 333.975149 196.14923 
L 335.270754 209.164267 
L 336.503158 209.497618 
L 337.672362 216.0676 
L 338.967967 220.075807 
L 340.168771 225.591439 
L 341.337975 227.443001 
L 342.63358 225.510094 
L 343.834384 212.601996 
L 345.129988 202.021402 
L 346.299193 180.644095 
L 348.795601 143.580184 
L 350.028006 157.627144 
L 351.29201 173.633549 
L 352.429614 193.999474 
L 356.158427 215.397998 
L 357.359231 214.693156 
L 358.654836 211.78053 
L 359.72924 189.6322 
L 361.088044 178.611895 
L 362.383649 195.79391 
L 363.521253 201.278921 
L 364.690457 199.869494 
L 365.922861 203.632659 
L 367.155266 202.038327 
L 368.48247 203.005132 
L 369.714875 200.40003 
L 370.947279 198.753948 
L 372.116483 185.95497 
L 373.348887 177.82754 
L 374.518091 190.68094 
L 375.813696 164.933844 
L 376.9197 154.876074 
L 378.246904 156.3862 
L 379.479309 154.125922 
L 380.616913 160.995987 
L 381.912517 175.412461 
L 383.144922 193.441807 
L 384.314126 213.509393 
L 385.54653 223.588393 
L 386.747334 226.9709 
L 389.306943 190.792018 
L 390.412947 193.573679 
L 391.708552 190.574123 
L 392.972556 178.18314 
L 394.331361 170.753441 
L 395.784966 160.072207 
L 396.92257 159.114924 
L 398.344575 154.876352 
L 399.545379 154.117569 
L 400.746183 147.594633 
L 402.010188 152.48635 
L 403.210992 173.954004 
L 404.443396 185.683168 
L 405.770601 202.621723 
L 406.845005 207.667462 
L 408.203809 201.761497 
L 409.404614 188.138134 
L 410.415817 168.202868 
L 411.806222 150.029461 
L 413.038626 130.946363 
L 414.334231 113.944866 
L 415.471835 102.024236 
L 416.641039 87.777703 
L 417.968244 116.600329 
L 419.263848 119.965833 
L 420.369852 123.930634 
L 421.665457 122.710008 
L 422.73986 113.801932 
L 424.225065 94.704384 
L 425.362669 62.915342 
L 425.362669 62.915342 
" clip-path="url(#p9d0e42b96b)" style="fill: none; stroke: #1f77b4; stroke-width: 2.5; stroke-linecap: square"/>
   </g>
   <g id="line2d_15">
    <path d="M 58.011383 226.760295 
L 58.011383 236.654913 
L 58.011383 211.060205 
L 58.011383 222.341194 
L 58.137783 228.547936 
L 58.738185 238.073286 
L 60.19179 238.9352 
L 62.435398 233.206984 
L 64.679006 239.53088 
L 66.669813 241.73705 
L 68.249819 224.69639 
L 69.545423 221.143898 
L 70.683027 235.485805 
L 71.820631 245.021681 
L 72.958235 248.585581 
L 74.127439 260.401704 
L 75.359844 249.871207 
L 76.623848 245.45783 
L 77.856252 232.609541 
L 79.088657 224.000843 
L 80.321061 213.250197 
L 81.553465 216.285037 
L 82.81747 218.975573 
L 84.049874 229.066954 
L 85.408679 222.679945 
L 86.799084 219.575538 
L 88.126288 225.070713 
L 89.390293 218.703242 
L 90.622697 199.772858 
L 91.855101 204.447785 
L 94.31991 227.776122 
L 95.552314 240.503384 
L 96.816319 255.606991 
L 98.017123 256.892549 
L 99.281127 258.010445 
L 100.513532 261.101941 
L 101.745936 243.684953 
L 103.00994 230.450624 
L 104.242345 232.122557 
L 105.474749 241.574167 
L 106.707153 247.517606 
L 107.939558 255.832339 
L 109.171962 261.804752 
L 110.341166 265.29261 
L 111.636771 252.86111 
L 112.837575 247.414412 
L 115.302383 227.282048 
L 116.566388 230.819984 
L 117.767192 237.096176 
L 118.999596 235.343978 
L 120.200401 243.379961 
L 121.401205 247.929538 
L 122.696809 244.645917 
L 123.897614 247.506966 
L 125.130018 254.757983 
L 126.394022 247.30706 
L 127.658027 247.38745 
L 129.048432 246.956399 
L 130.186036 243.287767 
L 131.41844 241.167307 
L 132.587644 244.593893 
L 133.883249 242.703288 
L 135.115653 248.325554 
L 136.379657 258.001185 
L 137.580462 253.001579 
L 138.844466 256.210833 
L 140.04527 274.014252 
L 141.309275 271.371802 
L 142.478479 263.078831 
L 145.069688 239.609988 
L 146.238892 220.436941 
L 147.471296 219.210248 
L 148.7037 207.537373 
L 149.999305 207.813082 
L 151.200109 222.355097 
L 152.432514 234.710445 
L 153.601718 248.040632 
L 154.897322 231.444086 
L 156.098126 230.884463 
L 157.362131 223.308338 
L 158.594535 211.544363 
L 159.826939 208.903309 
L 161.027744 200.752175 
L 162.260148 196.050319 
L 163.492552 188.566212 
L 164.661756 190.338508 
L 165.925761 204.962803 
L 167.158165 191.736359 
L 168.358969 189.753176 
L 169.622974 194.008833 
L 170.886978 177.260204 
L 172.087782 190.511855 
L 173.288587 191.511836 
L 174.552591 188.479248 
L 175.879796 188.208837 
L 177.0806 196.035146 
L 178.407805 197.319876 
L 179.545408 193.912888 
L 180.777813 178.870083 
L 182.010217 190.106114 
L 183.242621 172.741596 
L 184.443426 188.227193 
L 185.70743 185.620914 
L 186.971435 171.931716 
L 188.172239 169.488415 
L 189.341443 166.053058 
L 190.573847 172.397016 
L 191.837852 193.525403 
L 193.070256 198.418134 
L 194.27106 218.350358 
L 195.535064 210.520392 
L 197.999873 214.856112 
L 199.232277 197.586231 
L 200.433082 198.905607 
L 201.602286 202.393824 
L 202.86629 204.581066 
L 204.161895 227.81095 
L 205.362699 228.008397 
L 206.595103 233.469238 
L 207.859108 230.769316 
L 209.059912 234.905972 
L 210.292316 234.233018 
L 211.46152 228.460732 
L 212.725525 228.6 
L 213.957929 225.826879 
L 215.158733 224.622091 
L 216.454338 240.134298 
L 217.686742 220.843622 
L 218.887546 215.824271 
L 220.119951 208.180248 
L 221.352355 207.151596 
L 222.553159 201.820071 
L 223.817164 200.881761 
L 225.049568 204.607371 
L 226.281972 219.754056 
L 227.482776 245.446952 
L 228.715181 267.034093 
L 229.979185 262.099516 
L 231.179989 268.416014 
L 232.380794 258.638298 
L 233.644798 254.20077 
L 236.014806 225.626979 
L 237.278811 221.667843 
L 238.606015 221.923213 
L 239.80682 217.291215 
L 241.007624 214.001221 
L 242.240028 222.534495 
L 243.440832 226.39699 
L 244.704837 210.837408 
L 245.937241 204.119343 
L 247.138045 210.443452 
L 248.40205 222.642071 
L 249.666054 236.900329 
L 250.898458 233.44701 
L 253.394867 210.681921 
L 254.532471 213.12858 
L 255.764875 198.898556 
L 257.06048 165.865651 
L 258.261284 166.418919 
L 259.462088 168.583006 
L 260.662893 174.085634 
L 261.990097 193.063239 
L 264.391706 234.512083 
L 266.856514 266.127201 
L 268.120519 270.246811 
L 269.416123 248.47787 
L 270.648528 248.742964 
L 271.944132 224.809597 
L 273.113336 218.76337 
L 274.408941 217.497987 
L 275.609745 228.130206 
L 276.778949 231.070962 
L 278.042953 244.575277 
L 279.243758 251.736094 
L 280.507762 247.5743 
L 281.771767 227.310671 
L 282.909371 220.255696 
L 284.173375 208.121728 
L 285.405779 206.20641 
L 286.638184 205.28744 
L 287.902188 213.788229 
L 289.008192 207.356304 
L 290.303796 221.855425 
L 291.504601 218.826933 
L 292.768605 216.312149 
L 294.001009 199.634132 
L 295.233414 203.745817 
L 296.529018 200.174527 
L 297.666622 198.719678 
L 298.899027 199.37191 
L 300.163031 189.67044 
L 301.363835 187.171962 
L 302.596239 199.870523 
L 303.828644 200.206693 
L 305.061048 205.360272 
L 306.230252 194.149833 
L 307.494257 199.848959 
L 308.726661 191.329274 
L 309.959065 186.33644 
L 311.128269 188.718023 
L 312.360674 191.556853 
L 313.624678 207.347368 
L 314.888683 216.272237 
L 316.121087 228.947487 
L 317.290291 228.473937 
L 318.522695 220.320822 
L 319.7551 211.247804 
L 320.987504 200.432155 
L 322.219908 196.526035 
L 323.483913 205.901501 
L 324.653117 193.666698 
L 325.948721 183.41233 
L 327.149525 181.343061 
L 328.38193 177.61698 
L 329.582734 184.172437 
L 330.973139 187.389733 
L 332.395144 196.961212 
L 333.627548 200.293311 
L 334.923153 205.292505 
L 336.218757 206.302795 
L 337.387961 193.328568 
L 338.683566 189.851578 
L 339.91597 198.110018 
L 341.148374 184.821838 
L 342.317579 194.95689 
L 343.581583 195.806162 
L 344.845587 214.050915 
L 346.046392 219.737016 
L 347.247196 214.960505 
L 348.448 221.093194 
L 349.712004 222.108328 
L 350.912809 217.204747 
L 352.208413 207.14179 
L 353.409217 191.325128 
L 354.546821 197.539544 
L 355.874026 199.077392 
L 357.07483 205.159038 
L 358.307235 209.161505 
L 359.571239 203.048316 
L 360.677243 209.676811 
L 362.004448 201.786314 
L 363.236852 199.722801 
L 364.437656 189.904724 
L 365.70166 200.635344 
L 366.902465 203.171525 
L 368.166469 204.218586 
L 369.367273 207.876057 
L 370.568078 207.369109 
L 371.926882 194.702934 
L 373.096086 174.816337 
L 374.328491 166.37951 
L 375.497695 161.184996 
L 376.698499 175.127517 
L 377.994104 188.438871 
L 379.226508 195.482076 
L 380.490512 204.516855 
L 381.628116 218.348401 
L 382.892121 215.362375 
L 384.124525 198.356592 
L 385.325329 189.887966 
L 386.399733 185.52523 
L 387.726938 181.739134 
L 388.990942 206.614417 
L 390.160146 214.447882 
L 391.424151 224.673283 
L 392.561755 217.515068 
L 393.952159 234.654905 
L 395.405765 221.110084 
L 396.796169 224.854527 
L 398.060174 212.832728 
L 399.324178 198.291565 
L 400.493382 192.355872 
L 401.757387 177.382752 
L 402.894991 154.221114 
L 404.127395 152.679754 
L 405.4546 146.449542 
L 406.687004 157.913689 
L 407.793008 170.694215 
L 409.120213 197.332176 
L 410.226216 203.001088 
L 411.521821 217.339208 
L 412.849026 201.988045 
L 414.01823 166.250255 
L 415.124234 150.321145 
L 416.483038 143.561989 
L 417.589042 125.215547 
L 418.916247 123.164709 
L 420.148651 115.693782 
L 421.412656 113.908976 
L 422.58186 113.108731 
L 423.845864 112.716478 
L 425.173069 112.155648 
L 426.026272 110.849673 
L 426.026272 110.849673 
" clip-path="url(#p9d0e42b96b)" style="fill: none; stroke: #0033ff; stroke-width: 2.5; stroke-linecap: square"/>
   </g>
   <g id="line2d_16">
    <path d="M 56.115376 271.971945 
L 56.178576 287.12128 
L 56.178576 259.761625 
L 56.273377 253.811149 
L 56.778979 257.16155 
L 58.295784 257.525394 
L 60.476191 259.131386 
L 62.783 255.229101 
L 64.710606 259.626592 
L 66.353812 260.571293 
L 67.681017 260.23952 
L 68.818621 257.481437 
L 69.924625 253.537801 
L 71.125429 235.337532 
L 72.326233 234.779059 
L 73.558637 237.371658 
L 74.759441 246.208398 
L 76.023446 249.752292 
L 77.28745 271.957137 
L 78.519855 268.755776 
L 79.689059 263.884065 
L 80.921463 255.00467 
L 82.185468 261.360572 
L 83.386272 247.943509 
L 84.745076 243.845487 
L 86.072281 258.79232 
L 87.462686 258.771285 
L 88.72669 272.983726 
L 89.990695 265.767609 
L 91.254699 250.435635 
L 92.455503 249.153431 
L 93.687908 239.798376 
L 94.920312 251.840524 
L 96.184317 234.526705 
L 97.416721 232.597236 
L 98.680725 235.264032 
L 99.881529 236.243926 
L 101.113934 249.599393 
L 102.346338 243.89634 
L 103.578742 256.368265 
L 104.842747 263.377319 
L 106.075151 274.567233 
L 107.275955 282.941641 
L 108.445159 271.661855 
L 109.772364 273.909629 
L 111.004768 264.327283 
L 112.173973 259.834386 
L 113.406377 252.483787 
L 114.607181 250.066434 
L 115.934386 242.459542 
L 117.13519 246.377419 
L 118.399194 257.531828 
L 120.832403 269.7979 
L 122.001607 267.949738 
L 123.297211 268.310488 
L 124.466416 266.977039 
L 125.69882 251.511652 
L 127.026025 248.172538 
L 128.321629 231.728096 
L 129.554033 227.957912 
L 130.818038 217.059893 
L 131.987242 219.713001 
L 133.219646 228.271761 
L 134.452051 218.214714 
L 135.716055 228.679374 
L 136.980059 241.403642 
L 138.212464 237.722178 
L 139.444868 250.118948 
L 140.677272 253.074368 
L 141.878077 242.611087 
L 143.078881 239.649423 
L 144.342885 233.079761 
L 145.512089 224.843345 
L 146.870894 208.967 
L 148.103298 212.756334 
L 149.304103 213.997586 
L 150.568107 207.32973 
L 151.768911 208.413531 
L 153.032916 207.759235 
L 154.26532 212.798181 
L 155.497724 221.99774 
L 156.666928 209.420292 
L 157.867733 216.423969 
L 159.163337 228.220742 
L 160.427342 236.164497 
L 161.628146 232.898947 
L 162.79735 231.535901 
L 164.061354 227.696809 
L 165.293759 226.372799 
L 166.557763 226.293098 
L 167.695367 226.357971 
L 168.990972 212.119757 
L 170.191776 224.878233 
L 171.45578 221.888887 
L 172.688184 209.784622 
L 173.888989 203.122461 
L 175.121393 194.80234 
L 176.416998 179.567955 
L 177.681002 171.683346 
L 178.881806 163.35338 
L 180.08261 189.026727 
L 181.315015 200.736017 
L 182.579019 210.686006 
L 183.843024 226.647549 
L 184.980628 217.138094 
L 186.181432 223.352125 
L 187.477036 212.623959 
L 188.709441 187.957078 
L 189.878645 173.311975 
L 191.205849 178.548767 
L 192.406654 194.342107 
L 193.702258 198.367408 
L 194.871462 182.021309 
L 196.103866 199.430686 
L 197.304671 183.340726 
L 198.600275 199.260892 
L 199.83268 205.058152 
L 202.297488 198.33633 
L 204.730697 229.242252 
L 205.994701 226.894288 
L 207.227105 216.180151 
L 208.45951 225.290082 
L 209.660314 217.01086 
L 210.829518 218.314323 
L 212.061922 216.072825 
L 213.325927 214.148733 
L 214.558331 199.939063 
L 215.790735 200.298385 
L 217.02314 209.782146 
L 218.255544 213.753078 
L 219.456348 219.981617 
L 220.688753 232.550987 
L 221.921157 242.085501 
L 223.185161 243.103254 
L 224.417566 255.314151 
L 225.61837 258.241491 
L 226.850774 254.420331 
L 228.083178 245.398264 
L 229.315583 249.213609 
L 230.516387 252.39694 
L 231.748791 244.235424 
L 232.981196 242.954627 
L 234.182 238.100606 
L 235.446004 229.789275 
L 236.678409 224.783702 
L 237.847613 221.085128 
L 239.111617 223.284844 
L 240.344021 218.869013 
L 241.608026 225.457096 
L 242.84043 228.935124 
L 244.041234 227.509361 
L 245.273639 240.926529 
L 247.738447 227.566915 
L 248.970852 227.435874 
L 250.203256 246.12583 
L 251.46726 256.247254 
L 252.668065 272.272012 
L 253.868869 268.89524 
L 255.132873 262.067276 
L 256.333677 246.847847 
L 257.566082 242.840114 
L 258.830086 209.43263 
L 260.094091 200.381226 
L 261.294895 196.854422 
L 262.495699 213.400465 
L 263.759703 215.487664 
L 264.992108 228.566148 
L 266.192912 233.124787 
L 267.456916 235.917591 
L 268.752521 239.291847 
L 269.984925 251.99362 
L 271.21733 249.087687 
L 272.512934 258.265281 
L 273.682138 255.547276 
L 274.946143 250.981943 
L 276.178547 239.700455 
L 277.379351 250.823303 
L 278.611755 250.552962 
L 279.84416 252.259026 
L 281.044964 251.286135 
L 282.277368 256.884637 
L 283.541373 255.950142 
L 284.742177 249.229664 
L 286.006181 243.414518 
L 287.238586 235.569348 
L 288.47099 226.71058 
L 289.703394 222.106119 
L 290.872598 224.413447 
L 292.136603 230.999539 
L 293.400607 225.379648 
L 294.569811 229.957044 
L 295.865416 232.56 
L 297.03462 236.15499 
L 298.298624 244.416472 
L 299.499429 245.768007 
L 300.731833 231.122683 
L 301.932637 233.816298 
L 303.165041 246.750601 
L 304.397446 244.821764 
L 305.62985 244.454863 
L 306.893855 245.446429 
L 309.295463 256.227349 
L 310.559467 257.716243 
L 311.791872 250.419542 
L 313.024276 234.698117 
L 314.22508 234.830104 
L 315.425884 231.791888 
L 316.626689 235.132463 
L 317.922293 240.925872 
L 319.123097 256.257376 
L 320.292301 253.605718 
L 321.556306 258.654294 
L 322.72551 252.249614 
L 324.021115 240.997894 
L 325.253519 217.176622 
L 326.485923 204.276958 
L 327.655127 207.029609 
L 328.950732 224.227371 
L 330.214736 237.890639 
L 331.668341 245.578743 
L 333.027146 245.480996 
L 334.322751 254.24967 
L 335.555155 256.089652 
L 336.819159 256.930927 
L 338.051564 247.433375 
L 339.283968 245.190926 
L 340.421572 248.259798 
L 341.748777 250.196407 
L 342.949581 255.344835 
L 344.118785 245.121326 
L 345.44599 238.520119 
L 346.615194 235.419679 
L 347.784398 237.634909 
L 349.048402 227.645238 
L 350.217606 220.850939 
L 351.513211 210.5487 
L 352.714015 206.255352 
L 353.946419 204.880548 
L 355.273624 207.167004 
L 356.442828 202.804306 
L 357.643632 202.493831 
L 358.907637 223.130788 
L 360.108441 229.331496 
L 361.340845 229.91251 
L 362.510049 229.817605 
L 363.805654 212.626123 
L 365.069658 204.200617 
L 366.238862 191.247634 
L 367.502867 183.768887 
L 368.766871 184.602261 
L 369.904475 194.216538 
L 371.16848 217.068018 
L 372.495684 221.329042 
L 373.570088 227.466064 
L 374.960493 226.663098 
L 376.066497 220.253945 
L 377.267301 234.147386 
L 378.562906 232.080142 
L 379.76371 236.161136 
L 380.964514 225.465581 
L 382.260118 210.566323 
L 383.397722 214.837109 
L 384.598527 209.442321 
L 385.925731 215.67045 
L 387.031735 217.065982 
L 388.32734 228.485502 
L 389.591344 234.483722 
L 391.992953 210.237452 
L 393.193757 204.784441 
L 394.647362 190.252718 
L 396.100967 192.944819 
L 397.270171 195.571754 
L 399.82978 217.851876 
L 401.125385 221.861453 
L 402.326189 207.059604 
L 403.590193 213.998976 
L 404.759397 214.182858 
L 406.055002 222.220497 
L 407.129406 205.663542 
L 408.45661 197.35257 
L 409.594214 174.528582 
L 410.984619 162.581465 
L 411.995823 151.102392 
L 413.291427 131.908964 
L 414.618632 132.153818 
L 415.693036 153.622452 
L 417.178241 169.392796 
L 418.221044 183.499684 
L 419.548249 186.517303 
L 420.717453 183.850247 
L 421.886657 174.743337 
L 423.119062 158.974757 
L 424.446266 136.322694 
L 425.58387 106.565333 
L 425.58387 106.565333 
" clip-path="url(#p9d0e42b96b)" style="fill: none; stroke: #ff7f0e; stroke-width: 2.5; stroke-linecap: square"/>
   </g>
   <g id="line2d_17">
    <path d="M 66.227412 204.173139 
L 66.227412 238.82069 
L 66.227412 230.992811 
L 66.827814 227.749389 
L 68.407819 215.492215 
L 70.651427 210.261942 
L 72.926635 196.033042 
L 74.917442 201.270941 
L 76.465847 196.474829 
L 77.729852 197.983599 
L 78.930656 213.724866 
L 80.00506 217.289296 
L 81.237464 231.696626 
L 82.375068 232.076099 
L 83.639073 237.146201 
L 84.966277 225.075411 
L 86.261882 216.552663 
L 87.589086 209.779995 
L 88.884691 203.927847 
L 90.148695 205.657328 
L 91.4443 207.150027 
L 93.877508 218.470793 
L 95.078313 213.648537 
L 96.342317 226.161898 
L 97.606322 217.93487 
L 98.838726 216.176467 
L 100.00793 221.535315 
L 101.240334 225.762786 
L 102.504339 238.482413 
L 103.799943 236.69007 
L 105.063948 239.334734 
L 106.201552 234.03184 
L 107.528756 234.727013 
L 108.761161 237.035873 
L 109.993565 233.532366 
L 111.225969 235.186114 
L 112.395173 232.831945 
L 113.627578 226.950636 
L 114.923182 227.085587 
L 116.123986 211.933374 
L 117.387991 215.982606 
L 118.588795 219.306513 
L 119.852799 230.225025 
L 121.053604 239.340548 
L 122.254408 236.326951 
L 123.518412 227.019405 
L 124.750817 212.930397 
L 126.014821 212.129736 
L 127.310426 205.333013 
L 128.57443 203.900937 
L 129.838434 218.899836 
L 130.976038 215.460015 
L 132.240043 213.358012 
L 133.472447 211.614171 
L 134.704851 194.857683 
L 135.905656 192.205189 
L 137.16966 180.135583 
L 138.402064 194.612972 
L 139.634469 189.480966 
L 140.835273 192.016541 
L 142.067677 185.167333 
L 143.331682 188.168218 
L 144.595686 185.396476 
L 145.82809 189.590663 
L 147.060495 195.04239 
L 148.324499 201.889408 
L 149.525303 191.996694 
L 150.789308 208.593678 
L 152.021712 207.951587 
L 153.254116 207.725324 
L 154.486521 191.307127 
L 155.655725 195.093294 
L 156.919729 193.675996 
L 158.152134 196.900762 
L 159.416138 195.21539 
L 160.616942 189.720446 
L 161.849347 175.36949 
L 163.081751 168.160651 
L 164.314155 156.962323 
L 165.514959 147.108996 
L 166.778964 133.138964 
L 168.042968 138.581753 
L 169.338573 140.482583 
L 171.708581 156.364377 
L 172.940985 167.936503 
L 174.20499 157.861388 
L 175.468994 155.886369 
L 176.732999 135.393905 
L 177.902203 128.628532 
L 179.134607 126.244321 
L 180.335411 135.769917 
L 181.631016 137.911558 
L 182.86342 143.57169 
L 184.127425 142.131834 
L 185.296629 146.40873 
L 186.529033 130.672152 
L 187.761437 130.924965 
L 190.226246 135.127934 
L 191.45865 146.338496 
L 192.659454 158.616248 
L 193.891859 178.504663 
L 195.124263 184.413953 
L 196.356667 167.229479 
L 197.589072 163.617504 
L 198.853076 158.396796 
L 200.08548 149.889106 
L 201.286285 159.661242 
L 202.518689 149.714998 
L 203.751093 151.626841 
L 204.983498 148.908974 
L 206.184302 154.756845 
L 207.448306 165.049525 
L 208.680711 168.700941 
L 209.913115 166.02228 
L 211.113919 159.418701 
L 212.346323 132.147015 
L 213.547128 131.232443 
L 214.811132 116.943442 
L 216.011936 111.752221 
L 217.275941 101.780565 
L 218.476745 100.587648 
L 219.740749 109.883591 
L 220.973154 131.847855 
L 222.205558 107.07907 
L 223.406362 99.413189 
L 224.638766 102.319193 
L 225.839571 109.952096 
L 227.071975 108.809626 
L 228.335979 95.776809 
L 229.568384 88.651887 
L 230.737588 90.054513 
L 231.969992 73.457785 
L 233.265597 72.076688 
L 234.403201 62.589788 
L 235.667205 74.25385 
L 236.899609 109.019705 
L 238.132014 125.847196 
L 239.332818 115.504004 
L 240.533622 101.442588 
L 241.734426 96.42676 
L 242.966831 92.716535 
L 244.294035 77.377264 
L 245.494839 76.771963 
L 246.727244 73.456325 
L 247.928048 84.591993 
L 249.192052 106.544179 
L 250.424457 117.553138 
L 251.751661 107.49281 
L 252.952466 119.213088 
L 254.18487 114.20518 
L 255.417274 112.726243 
L 256.618078 124.731029 
L 257.818883 116.978472 
L 259.082887 113.091725 
L 260.346891 124.272148 
L 261.516096 108.086742 
L 262.7801 116.590237 
L 264.044104 122.261486 
L 265.181708 114.47265 
L 266.414113 107.614169 
L 267.709717 105.535933 
L 268.973722 128.848829 
L 270.269326 123.306967 
L 271.47013 138.039339 
L 272.734135 150.871047 
L 273.934939 159.540756 
L 275.198944 160.077354 
L 276.462948 159.179575 
L 277.632152 142.680077 
L 278.896156 149.316175 
L 280.065361 154.49142 
L 281.360965 162.150863 
L 282.530169 153.529628 
L 283.762574 151.832376 
L 285.058178 153.819618 
L 286.290582 152.69103 
L 287.459786 139.220334 
L 288.755391 130.54246 
L 289.987795 140.198363 
L 291.1886 140.412179 
L 292.389404 154.023701 
L 293.590208 152.818325 
L 294.854212 162.346186 
L 296.055017 141.387889 
L 297.319021 134.606009 
L 298.551425 135.677868 
L 299.75223 139.987916 
L 301.016234 150.056568 
L 302.217038 163.727167 
L 303.481043 151.28267 
L 304.681847 149.31179 
L 305.882651 135.856638 
L 307.083455 126.408123 
L 308.37906 104.874327 
L 309.548264 108.720455 
L 310.812268 120.301888 
L 312.013072 132.87606 
L 313.213877 154.47016 
L 314.446281 151.516154 
L 316.97429 129.797948 
L 318.143494 117.164876 
L 319.407498 112.185459 
L 320.608303 127.103148 
L 321.840707 130.989854 
L 323.104711 130.681582 
L 324.305516 127.459032 
L 325.50632 129.838256 
L 326.738724 111.94972 
L 327.971128 112.783774 
L 329.140332 113.213733 
L 330.435937 113.958515 
L 331.984342 117.881683 
L 333.216747 126.704713 
L 334.575551 121.256865 
L 335.807956 122.78582 
L 337.04036 131.440857 
L 338.272764 127.293548 
L 339.536769 135.436187 
L 340.674373 145.819369 
L 341.969977 153.809788 
L 343.170782 158.598002 
L 344.339986 162.143959 
L 345.63559 172.613551 
L 346.867995 177.976795 
L 348.100399 181.993128 
L 349.332803 184.204282 
L 350.470407 165.104722 
L 351.766012 158.163376 
L 353.061616 131.31408 
L 354.16762 125.526863 
L 356.664029 117.228772 
L 357.928033 110.744619 
L 359.160438 115.339724 
L 360.392842 104.729533 
L 361.656846 107.828951 
L 362.79445 113.192339 
L 364.026855 124.294646 
L 365.259259 139.010562 
L 366.554863 167.37059 
L 367.882068 171.137304 
L 368.988072 163.173504 
L 370.157276 158.527472 
L 371.421281 142.591818 
L 372.685285 109.411382 
L 373.917689 104.75334 
L 375.086893 109.680446 
L 376.382498 103.889257 
L 377.520102 108.229744 
L 378.720906 121.113708 
L 379.95331 113.998021 
L 382.512919 141.061657 
L 383.682123 134.548017 
L 384.851328 134.430023 
L 386.115332 140.320955 
L 387.442537 145.454154 
L 388.580141 127.443316 
L 389.780945 124.86117 
L 391.013349 118.636023 
L 392.340554 120.776579 
L 394.963363 144.27223 
L 396.353768 140.255086 
L 397.649372 148.503776 
L 398.881777 162.769239 
L 400.019381 171.371512 
L 401.409786 158.953489 
L 402.54739 172.530198 
L 403.748194 179.070028 
L 404.917398 174.039006 
L 406.307803 154.827173 
L 407.540207 142.968452 
L 408.709411 111.802654 
L 409.847015 114.814002 
L 411.14262 97.06066 
L 412.438224 80.88891 
L 413.639028 76.003755 
L 414.871433 96.005486 
L 416.103837 92.030975 
L 417.241441 66.893801 
L 418.631846 49.34869 
L 419.80105 52.893592 
L 420.970254 43.936318 
L 422.234258 36.908367 
L 423.403463 33.093759 
L 424.762267 33.776514 
L 425.741871 40.240652 
L 425.741871 40.240652 
" clip-path="url(#p9d0e42b96b)" style="fill: none; stroke: #ff0000; stroke-width: 2.5; stroke-linecap: square"/>
   </g>
   <g id="patch_3">
    <path d="M 47.298945 299.822656 
L 47.298945 20.392383 
" style="fill: none; stroke: #000000; stroke-width: 1.5; stroke-linejoin: miter; stroke-linecap: square"/>
   </g>
   <g id="patch_4">
    <path d="M 47.298945 299.822656 
L 426.500273 299.822656 
" style="fill: none; stroke: #000000; stroke-width: 1.5; stroke-linejoin: miter; stroke-linecap: square"/>
   </g>
   <g id="legend_1">
    <g id="line2d_18">
     <path d="M 58.098945 35.728711 
L 70.098945 35.728711 
L 82.098945 35.728711 
" style="fill: none; stroke: #000000; stroke-width: 2.5; stroke-linecap: square"/>
    </g>
    <g id="text_16">
     <!-- vacuum -->
     <g transform="translate(91.698945 39.928711) scale(0.12 -0.12)">
      <defs>
       <path id="ArialMT-59" d="M 1344 0 
L 81 3319 
L 675 3319 
L 1388 1331 
Q 1503 1009 1600 663 
Q 1675 925 1809 1294 
L 2547 3319 
L 3125 3319 
L 1869 0 
L 1344 0 
z
" transform="scale(0.015625)"/>
       <path id="ArialMT-46" d="M 2588 1216 
L 3141 1144 
Q 3050 572 2676 248 
Q 2303 -75 1759 -75 
Q 1078 -75 664 370 
Q 250 816 250 1647 
Q 250 2184 428 2587 
Q 606 2991 970 3192 
Q 1334 3394 1763 3394 
Q 2303 3394 2647 3120 
Q 2991 2847 3088 2344 
L 2541 2259 
Q 2463 2594 2264 2762 
Q 2066 2931 1784 2931 
Q 1359 2931 1093 2626 
Q 828 2322 828 1663 
Q 828 994 1084 691 
Q 1341 388 1753 388 
Q 2084 388 2306 591 
Q 2528 794 2588 1216 
z
" transform="scale(0.015625)"/>
      </defs>
      <use xlink:href="#ArialMT-59"/>
      <use xlink:href="#ArialMT-44" transform="translate(50 0)"/>
      <use xlink:href="#ArialMT-46" transform="translate(105.609375 0)"/>
      <use xlink:href="#ArialMT-58" transform="translate(155.609375 0)"/>
      <use xlink:href="#ArialMT-58" transform="translate(211.21875 0)"/>
      <use xlink:href="#ArialMT-50" transform="translate(266.828125 0)"/>
     </g>
    </g>
    <g id="line2d_19">
     <path d="M 58.098945 52.99043 
L 70.098945 52.99043 
L 82.098945 52.99043 
" style="fill: none; stroke: #1f77b4; stroke-width: 2.5; stroke-linecap: square"/>
    </g>
    <g id="text_17">
     <!-- 1h -->
     <g transform="translate(91.698945 57.19043) scale(0.12 -0.12)">
      <defs>
       <path id="ArialMT-4b" d="M 422 0 
L 422 4581 
L 984 4581 
L 984 2938 
Q 1378 3394 1978 3394 
Q 2347 3394 2619 3248 
Q 2891 3103 3008 2847 
Q 3125 2591 3125 2103 
L 3125 0 
L 2563 0 
L 2563 2103 
Q 2563 2525 2380 2717 
Q 2197 2909 1863 2909 
Q 1613 2909 1392 2779 
Q 1172 2650 1078 2428 
Q 984 2206 984 1816 
L 984 0 
L 422 0 
z
" transform="scale(0.015625)"/>
      </defs>
      <use xlink:href="#ArialMT-14"/>
      <use xlink:href="#ArialMT-4b" transform="translate(55.609375 0)"/>
     </g>
    </g>
    <g id="line2d_20">
     <path d="M 58.098945 70.252148 
L 70.098945 70.252148 
L 82.098945 70.252148 
" style="fill: none; stroke: #0033ff; stroke-width: 2.5; stroke-linecap: square"/>
    </g>
    <g id="text_18">
     <!-- 2h -->
     <g transform="translate(91.698945 74.452148) scale(0.12 -0.12)">
      <use xlink:href="#ArialMT-15"/>
      <use xlink:href="#ArialMT-4b" transform="translate(55.609375 0)"/>
     </g>
    </g>
    <g id="line2d_21">
     <path d="M 58.098945 87.513867 
L 70.098945 87.513867 
L 82.098945 87.513867 
" style="fill: none; stroke: #ff7f0e; stroke-width: 2.5; stroke-linecap: square"/>
    </g>
    <g id="text_19">
     <!-- 4h -->
     <g transform="translate(91.698945 91.713867) scale(0.12 -0.12)">
      <use xlink:href="#ArialMT-17"/>
      <use xlink:href="#ArialMT-4b" transform="translate(55.609375 0)"/>
     </g>
    </g>
    <g id="line2d_22">
     <path d="M 58.098945 104.775586 
L 70.098945 104.775586 
L 82.098945 104.775586 
" style="fill: none; stroke: #ff0000; stroke-width: 2.5; stroke-linecap: square"/>
    </g>
    <g id="text_20">
     <!-- first -->
     <g transform="translate(91.698945 108.975586) scale(0.12 -0.12)">
      <defs>
       <path id="ArialMT-49" d="M 556 0 
L 556 2881 
L 59 2881 
L 59 3319 
L 556 3319 
L 556 3672 
Q 556 4006 616 4169 
Q 697 4388 901 4523 
Q 1106 4659 1475 4659 
Q 1713 4659 2000 4603 
L 1916 4113 
Q 1741 4144 1584 4144 
Q 1328 4144 1222 4034 
Q 1116 3925 1116 3625 
L 1116 3319 
L 1763 3319 
L 1763 2881 
L 1116 2881 
L 1116 0 
L 556 0 
z
" transform="scale(0.015625)"/>
       <path id="ArialMT-4c" d="M 425 3934 
L 425 4581 
L 988 4581 
L 988 3934 
L 425 3934 
z
M 425 0 
L 425 3319 
L 988 3319 
L 988 0 
L 425 0 
z
" transform="scale(0.015625)"/>
       <path id="ArialMT-56" d="M 197 991 
L 753 1078 
Q 800 744 1014 566 
Q 1228 388 1613 388 
Q 2000 388 2187 545 
Q 2375 703 2375 916 
Q 2375 1106 2209 1216 
Q 2094 1291 1634 1406 
Q 1016 1563 777 1677 
Q 538 1791 414 1992 
Q 291 2194 291 2438 
Q 291 2659 392 2848 
Q 494 3038 669 3163 
Q 800 3259 1026 3326 
Q 1253 3394 1513 3394 
Q 1903 3394 2198 3281 
Q 2494 3169 2634 2976 
Q 2775 2784 2828 2463 
L 2278 2388 
Q 2241 2644 2061 2787 
Q 1881 2931 1553 2931 
Q 1166 2931 1000 2803 
Q 834 2675 834 2503 
Q 834 2394 903 2306 
Q 972 2216 1119 2156 
Q 1203 2125 1616 2013 
Q 2213 1853 2448 1751 
Q 2684 1650 2818 1456 
Q 2953 1263 2953 975 
Q 2953 694 2789 445 
Q 2625 197 2315 61 
Q 2006 -75 1616 -75 
Q 969 -75 630 194 
Q 291 463 197 991 
z
" transform="scale(0.015625)"/>
      </defs>
      <use xlink:href="#ArialMT-49"/>
      <use xlink:href="#ArialMT-4c" transform="translate(27.78125 0)"/>
      <use xlink:href="#ArialMT-55" transform="translate(50 0)"/>
      <use xlink:href="#ArialMT-56" transform="translate(83.296875 0)"/>
      <use xlink:href="#ArialMT-57" transform="translate(133.296875 0)"/>
     </g>
    </g>
   </g>
  </g>
 </g>
 <defs>
  <clipPath id="p9d0e42b96b">
   <rect x="47.298945" y="20.392383" width="379.201328" height="279.430273"/>
  </clipPath>
 </defs>
</svg>
