<?xml version="1.0" encoding="utf-8" standalone="no"?>
<!DOCTYPE svg PUBLIC "-//W3C//DTD SVG 1.1//EN"
  "http://www.w3.org/Graphics/SVG/1.1/DTD/svg11.dtd">
<svg xmlns:xlink="http://www.w3.org/1999/xlink" width="449.270898pt" height="340.800273pt" viewBox="0 0 449.270898 340.800273" xmlns="http://www.w3.org/2000/svg" version="1.1">
 <metadata>
  <rdf:RDF xmlns:dc="http://purl.org/dc/elements/1.1/" xmlns:cc="http://creativecommons.org/ns#" xmlns:rdf="http://www.w3.org/1999/02/22-rdf-syntax-ns#">
   <cc:Work>
    <dc:type rdf:resource="http://purl.org/dc/dcmitype/StillImage"/>
    <dc:date>2026-07-09T17:08:19.440024</dc:date>
    <dc:format>image/svg+xml</dc:format>
    <dc:creator>
     <cc:Agent>
      <dc:title>Matplotlib v3.11.0, https://matplotlib.org/</dc:title>
     </cc:Agent>
    </dc:creator>
   </cc:Work>
  </rdf:RDF>
 </metadata>
 <defs>
  <style type="text/css">*{stroke-linejoin: round; stroke-linecap: butt}</style>
 </defs>
 <g id="figure_1">
  <g id="patch_1">
   <path d="M 0 340.800273 
L 449.270898 340.800273 
L 449.270898 0 
L 0 0 
z
" style="fill: #ffffff"/>
  </g>
  <g id="axes_1">
   <g id="patch_2">
    <path d="M 47.298945 299.822656 
L 426.500273 299.822656 
L 426.500273 20.392383 
L 47.298945 20.392383 
z
" style="fill: #ffffff"/>
   </g>
   <g id="matplotlib.axis_1">
    <g id="xtick_1">
     <g id="line2d_1">
      <defs>
       <path id="m111c20da89" d="M 0 0 
L 0 -6 
" style="stroke: #000000; stroke-width: 1.5"/>
      </defs>
      <g>
       <use xlink:href="#m111c20da89" x="47.298945" y="299.822656" style="stroke: #000000; stroke-width: 1.5"/>
      </g>
     </g>
     <g id="text_1">
      <!-- 0 -->
      <g transform="translate(43.406289 313.515039) scale(0.14 -0.14)">
       <defs>
        <path id="ArialMT-13" d="M 266 2259 
Q 266 3072 433 3567 
Q 600 4063 929 4331 
Q 1259 4600 1759 4600 
Q 2128 4600 2406 4451 
Q 2684 4303 2865 4023 
Q 3047 3744 3150 3342 
Q 3253 2941 3253 2259 
Q 3253 1453 3087 958 
Q 2922 463 2592 192 
Q 2263 -78 1759 -78 
Q 1097 -78 719 397 
Q 266 969 266 2259 
z
M 844 2259 
Q 844 1131 1108 757 
Q 1372 384 1759 384 
Q 2147 384 2411 759 
Q 2675 1134 2675 2259 
Q 2675 3391 2411 3762 
Q 2147 4134 1753 4134 
Q 1366 4134 1134 3806 
Q 844 3388 844 2259 
z
" transform="scale(0.015625)"/>
       </defs>
       <use xlink:href="#ArialMT-13"/>
      </g>
     </g>
    </g>
    <g id="xtick_2">
     <g id="line2d_2">
      <g>
       <use xlink:href="#m111c20da89" x="110.499167" y="299.822656" style="stroke: #000000; stroke-width: 1.5"/>
      </g>
     </g>
     <g id="text_2">
      <!-- 200 -->
      <g transform="translate(98.821198 313.515039) scale(0.14 -0.14)">
       <defs>
        <path id="ArialMT-15" d="M 3222 541 
L 3222 0 
L 194 0 
Q 188 203 259 391 
Q 375 700 629 1000 
Q 884 1300 1366 1694 
Q 2113 2306 2375 2664 
Q 2638 3022 2638 3341 
Q 2638 3675 2398 3904 
Q 2159 4134 1775 4134 
Q 1369 4134 1125 3890 
Q 881 3647 878 3216 
L 300 3275 
Q 359 3922 746 4261 
Q 1134 4600 1788 4600 
Q 2447 4600 2831 4234 
Q 3216 3869 3216 3328 
Q 3216 3053 3103 2787 
Q 2991 2522 2730 2228 
Q 2469 1934 1863 1422 
Q 1356 997 1212 845 
Q 1069 694 975 541 
L 3222 541 
z
" transform="scale(0.015625)"/>
       </defs>
       <use xlink:href="#ArialMT-15"/>
       <use xlink:href="#ArialMT-13" transform="translate(55.609375 0)"/>
       <use xlink:href="#ArialMT-13" transform="translate(111.21875 0)"/>
      </g>
     </g>
    </g>
    <g id="xtick_3">
     <g id="line2d_3">
      <g>
       <use xlink:href="#m111c20da89" x="173.699388" y="299.822656" style="stroke: #000000; stroke-width: 1.5"/>
      </g>
     </g>
     <g id="text_3">
      <!-- 400 -->
      <g transform="translate(162.021419 313.515039) scale(0.14 -0.14)">
       <defs>
        <path id="ArialMT-17" d="M 2069 0 
L 2069 1097 
L 81 1097 
L 81 1613 
L 2172 4581 
L 2631 4581 
L 2631 1613 
L 3250 1613 
L 3250 1097 
L 2631 1097 
L 2631 0 
L 2069 0 
z
M 2069 1613 
L 2069 3678 
L 634 1613 
L 2069 1613 
z
" transform="scale(0.015625)"/>
       </defs>
       <use xlink:href="#ArialMT-17"/>
       <use xlink:href="#ArialMT-13" transform="translate(55.609375 0)"/>
       <use xlink:href="#ArialMT-13" transform="translate(111.21875 0)"/>
      </g>
     </g>
    </g>
    <g id="xtick_4">
     <g id="line2d_4">
      <g>
       <use xlink:href="#m111c20da89" x="236.899609" y="299.822656" style="stroke: #000000; stroke-width: 1.5"/>
      </g>
     </g>
     <g id="text_4">
      <!-- 600 -->
      <g transform="translate(225.221641 313.515039) scale(0.14 -0.14)">
       <defs>
        <path id="ArialMT-19" d="M 3184 3459 
L 2625 3416 
Q 2550 3747 2413 3897 
Q 2184 4138 1850 4138 
Q 1581 4138 1378 3988 
Q 1113 3794 959 3422 
Q 806 3050 800 2363 
Q 1003 2672 1297 2822 
Q 1591 2972 1913 2972 
Q 2475 2972 2870 2558 
Q 3266 2144 3266 1488 
Q 3266 1056 3080 686 
Q 2894 316 2569 119 
Q 2244 -78 1831 -78 
Q 1128 -78 684 439 
Q 241 956 241 2144 
Q 241 3472 731 4075 
Q 1159 4600 1884 4600 
Q 2425 4600 2770 4297 
Q 3116 3994 3184 3459 
z
M 888 1484 
Q 888 1194 1011 928 
Q 1134 663 1356 523 
Q 1578 384 1822 384 
Q 2178 384 2434 671 
Q 2691 959 2691 1453 
Q 2691 1928 2437 2201 
Q 2184 2475 1800 2475 
Q 1419 2475 1153 2201 
Q 888 1928 888 1484 
z
" transform="scale(0.015625)"/>
       </defs>
       <use xlink:href="#ArialMT-19"/>
       <use xlink:href="#ArialMT-13" transform="translate(55.609375 0)"/>
       <use xlink:href="#ArialMT-13" transform="translate(111.21875 0)"/>
      </g>
     </g>
    </g>
    <g id="xtick_5">
     <g id="line2d_5">
      <g>
       <use xlink:href="#m111c20da89" x="300.099831" y="299.822656" style="stroke: #000000; stroke-width: 1.5"/>
      </g>
     </g>
     <g id="text_5">
      <!-- 800 -->
      <g transform="translate(288.421862 313.515039) scale(0.14 -0.14)">
       <defs>
        <path id="ArialMT-1b" d="M 1131 2484 
Q 781 2613 612 2850 
Q 444 3088 444 3419 
Q 444 3919 803 4259 
Q 1163 4600 1759 4600 
Q 2359 4600 2725 4251 
Q 3091 3903 3091 3403 
Q 3091 3084 2923 2848 
Q 2756 2613 2416 2484 
Q 2838 2347 3058 2040 
Q 3278 1734 3278 1309 
Q 3278 722 2862 322 
Q 2447 -78 1769 -78 
Q 1091 -78 675 323 
Q 259 725 259 1325 
Q 259 1772 486 2073 
Q 713 2375 1131 2484 
z
M 1019 3438 
Q 1019 3113 1228 2906 
Q 1438 2700 1772 2700 
Q 2097 2700 2305 2904 
Q 2513 3109 2513 3406 
Q 2513 3716 2298 3927 
Q 2084 4138 1766 4138 
Q 1444 4138 1231 3931 
Q 1019 3725 1019 3438 
z
M 838 1322 
Q 838 1081 952 856 
Q 1066 631 1291 507 
Q 1516 384 1775 384 
Q 2178 384 2440 643 
Q 2703 903 2703 1303 
Q 2703 1709 2433 1975 
Q 2163 2241 1756 2241 
Q 1359 2241 1098 1978 
Q 838 1716 838 1322 
z
" transform="scale(0.015625)"/>
       </defs>
       <use xlink:href="#ArialMT-1b"/>
       <use xlink:href="#ArialMT-13" transform="translate(55.609375 0)"/>
       <use xlink:href="#ArialMT-13" transform="translate(111.21875 0)"/>
      </g>
     </g>
    </g>
    <g id="xtick_6">
     <g id="line2d_6">
      <g>
       <use xlink:href="#m111c20da89" x="363.300052" y="299.822656" style="stroke: #000000; stroke-width: 1.5"/>
      </g>
     </g>
     <g id="text_6">
      <!-- 1000 -->
      <g transform="translate(347.729427 313.515039) scale(0.14 -0.14)">
       <defs>
        <path id="ArialMT-14" d="M 2384 0 
L 1822 0 
L 1822 3584 
Q 1619 3391 1289 3197 
Q 959 3003 697 2906 
L 697 3450 
Q 1169 3672 1522 3987 
Q 1875 4303 2022 4600 
L 2384 4600 
L 2384 0 
z
" transform="scale(0.015625)"/>
       </defs>
       <use xlink:href="#ArialMT-14"/>
       <use xlink:href="#ArialMT-13" transform="translate(55.609375 0)"/>
       <use xlink:href="#ArialMT-13" transform="translate(111.21875 0)"/>
       <use xlink:href="#ArialMT-13" transform="translate(166.828125 0)"/>
      </g>
     </g>
    </g>
    <g id="xtick_7">
     <g id="line2d_7">
      <g>
       <use xlink:href="#m111c20da89" x="426.500273" y="299.822656" style="stroke: #000000; stroke-width: 1.5"/>
      </g>
     </g>
     <g id="text_7">
      <!-- 1200 -->
      <g transform="translate(410.929648 313.515039) scale(0.14 -0.14)">
       <use xlink:href="#ArialMT-14"/>
       <use xlink:href="#ArialMT-15" transform="translate(55.609375 0)"/>
       <use xlink:href="#ArialMT-13" transform="translate(111.21875 0)"/>
       <use xlink:href="#ArialMT-13" transform="translate(166.828125 0)"/>
      </g>
     </g>
    </g>
    <g id="text_8">
     <!-- T1 Temperature (°C) -->
     <g transform="translate(173.160234 330.653711) scale(0.14 -0.14)">
      <defs>
       <path id="ArialMT-37" d="M 1659 0 
L 1659 4041 
L 150 4041 
L 150 4581 
L 3781 4581 
L 3781 4041 
L 2266 4041 
L 2266 0 
L 1659 0 
z
" transform="scale(0.015625)"/>
       <path id="ArialMT-3" transform="scale(0.015625)"/>
       <path id="ArialMT-48" d="M 2694 1069 
L 3275 997 
Q 3138 488 2766 206 
Q 2394 -75 1816 -75 
Q 1088 -75 661 373 
Q 234 822 234 1631 
Q 234 2469 665 2931 
Q 1097 3394 1784 3394 
Q 2450 3394 2872 2941 
Q 3294 2488 3294 1666 
Q 3294 1616 3291 1516 
L 816 1516 
Q 847 969 1125 678 
Q 1403 388 1819 388 
Q 2128 388 2347 550 
Q 2566 713 2694 1069 
z
M 847 1978 
L 2700 1978 
Q 2663 2397 2488 2606 
Q 2219 2931 1791 2931 
Q 1403 2931 1139 2672 
Q 875 2413 847 1978 
z
" transform="scale(0.015625)"/>
       <path id="ArialMT-50" d="M 422 0 
L 422 3319 
L 925 3319 
L 925 2853 
Q 1081 3097 1340 3245 
Q 1600 3394 1931 3394 
Q 2300 3394 2536 3241 
Q 2772 3088 2869 2813 
Q 3263 3394 3894 3394 
Q 4388 3394 4653 3120 
Q 4919 2847 4919 2278 
L 4919 0 
L 4359 0 
L 4359 2091 
Q 4359 2428 4304 2576 
Q 4250 2725 4106 2815 
Q 3963 2906 3769 2906 
Q 3419 2906 3187 2673 
Q 2956 2441 2956 1928 
L 2956 0 
L 2394 0 
L 2394 2156 
Q 2394 2531 2256 2718 
Q 2119 2906 1806 2906 
Q 1569 2906 1367 2781 
Q 1166 2656 1075 2415 
Q 984 2175 984 1722 
L 984 0 
L 422 0 
z
" transform="scale(0.015625)"/>
       <path id="ArialMT-53" d="M 422 -1272 
L 422 3319 
L 934 3319 
L 934 2888 
Q 1116 3141 1344 3267 
Q 1572 3394 1897 3394 
Q 2322 3394 2647 3175 
Q 2972 2956 3137 2557 
Q 3303 2159 3303 1684 
Q 3303 1175 3120 767 
Q 2938 359 2589 142 
Q 2241 -75 1856 -75 
Q 1575 -75 1351 44 
Q 1128 163 984 344 
L 984 -1272 
L 422 -1272 
z
M 931 1641 
Q 931 1000 1190 694 
Q 1450 388 1819 388 
Q 2194 388 2461 705 
Q 2728 1022 2728 1688 
Q 2728 2322 2467 2637 
Q 2206 2953 1844 2953 
Q 1484 2953 1207 2617 
Q 931 2281 931 1641 
z
" transform="scale(0.015625)"/>
       <path id="ArialMT-55" d="M 416 0 
L 416 3319 
L 922 3319 
L 922 2816 
Q 1116 3169 1280 3281 
Q 1444 3394 1641 3394 
Q 1925 3394 2219 3213 
L 2025 2691 
Q 1819 2813 1613 2813 
Q 1428 2813 1281 2702 
Q 1134 2591 1072 2394 
Q 978 2094 978 1738 
L 978 0 
L 416 0 
z
" transform="scale(0.015625)"/>
       <path id="ArialMT-44" d="M 2588 409 
Q 2275 144 1986 34 
Q 1697 -75 1366 -75 
Q 819 -75 525 192 
Q 231 459 231 875 
Q 231 1119 342 1320 
Q 453 1522 633 1644 
Q 813 1766 1038 1828 
Q 1203 1872 1538 1913 
Q 2219 1994 2541 2106 
Q 2544 2222 2544 2253 
Q 2544 2597 2384 2738 
Q 2169 2928 1744 2928 
Q 1347 2928 1158 2789 
Q 969 2650 878 2297 
L 328 2372 
Q 403 2725 575 2942 
Q 747 3159 1072 3276 
Q 1397 3394 1825 3394 
Q 2250 3394 2515 3294 
Q 2781 3194 2906 3042 
Q 3031 2891 3081 2659 
Q 3109 2516 3109 2141 
L 3109 1391 
Q 3109 606 3145 398 
Q 3181 191 3288 0 
L 2700 0 
Q 2613 175 2588 409 
z
M 2541 1666 
Q 2234 1541 1622 1453 
Q 1275 1403 1131 1340 
Q 988 1278 909 1158 
Q 831 1038 831 891 
Q 831 666 1001 516 
Q 1172 366 1500 366 
Q 1825 366 2078 508 
Q 2331 650 2450 897 
Q 2541 1088 2541 1459 
L 2541 1666 
z
" transform="scale(0.015625)"/>
       <path id="ArialMT-57" d="M 1650 503 
L 1731 6 
Q 1494 -44 1306 -44 
Q 1000 -44 831 53 
Q 663 150 594 308 
Q 525 466 525 972 
L 525 2881 
L 113 2881 
L 113 3319 
L 525 3319 
L 525 4141 
L 1084 4478 
L 1084 3319 
L 1650 3319 
L 1650 2881 
L 1084 2881 
L 1084 941 
Q 1084 700 1114 631 
Q 1144 563 1211 522 
Q 1278 481 1403 481 
Q 1497 481 1650 503 
z
" transform="scale(0.015625)"/>
       <path id="ArialMT-58" d="M 2597 0 
L 2597 488 
Q 2209 -75 1544 -75 
Q 1250 -75 995 37 
Q 741 150 617 320 
Q 494 491 444 738 
Q 409 903 409 1263 
L 409 3319 
L 972 3319 
L 972 1478 
Q 972 1038 1006 884 
Q 1059 663 1231 536 
Q 1403 409 1656 409 
Q 1909 409 2131 539 
Q 2353 669 2445 892 
Q 2538 1116 2538 1541 
L 2538 3319 
L 3100 3319 
L 3100 0 
L 2597 0 
z
" transform="scale(0.015625)"/>
       <path id="ArialMT-b" d="M 1497 -1347 
Q 1031 -759 709 28 
Q 388 816 388 1659 
Q 388 2403 628 3084 
Q 909 3875 1497 4659 
L 1900 4659 
Q 1522 4009 1400 3731 
Q 1209 3300 1100 2831 
Q 966 2247 966 1656 
Q 966 153 1900 -1347 
L 1497 -1347 
z
" transform="scale(0.015625)"/>
       <path id="ArialMT-83" d="M 400 3794 
Q 400 4153 654 4406 
Q 909 4659 1266 4659 
Q 1628 4659 1881 4406 
Q 2134 4153 2134 3794 
Q 2134 3434 1879 3179 
Q 1625 2925 1266 2925 
Q 909 2925 654 3178 
Q 400 3431 400 3794 
z
M 741 3794 
Q 741 3575 895 3420 
Q 1050 3266 1269 3266 
Q 1484 3266 1639 3420 
Q 1794 3575 1794 3794 
Q 1794 4013 1639 4167 
Q 1484 4322 1269 4322 
Q 1050 4322 895 4167 
Q 741 4013 741 3794 
z
" transform="scale(0.015625)"/>
       <path id="ArialMT-26" d="M 3763 1606 
L 4369 1453 
Q 4178 706 3683 314 
Q 3188 -78 2472 -78 
Q 1731 -78 1267 223 
Q 803 525 561 1097 
Q 319 1669 319 2325 
Q 319 3041 592 3573 
Q 866 4106 1370 4382 
Q 1875 4659 2481 4659 
Q 3169 4659 3637 4309 
Q 4106 3959 4291 3325 
L 3694 3184 
Q 3534 3684 3231 3912 
Q 2928 4141 2469 4141 
Q 1941 4141 1586 3887 
Q 1231 3634 1087 3207 
Q 944 2781 944 2328 
Q 944 1744 1114 1308 
Q 1284 872 1643 656 
Q 2003 441 2422 441 
Q 2931 441 3284 734 
Q 3638 1028 3763 1606 
z
" transform="scale(0.015625)"/>
       <path id="ArialMT-c" d="M 791 -1347 
L 388 -1347 
Q 1322 153 1322 1656 
Q 1322 2244 1188 2822 
Q 1081 3291 891 3722 
Q 769 4003 388 4659 
L 791 4659 
Q 1378 3875 1659 3084 
Q 1900 2403 1900 1659 
Q 1900 816 1576 28 
Q 1253 -759 791 -1347 
z
" transform="scale(0.015625)"/>
      </defs>
      <use xlink:href="#ArialMT-37"/>
      <use xlink:href="#ArialMT-14" transform="translate(61.078125 0)"/>
      <use xlink:href="#ArialMT-3" transform="translate(116.6875 0)"/>
      <use xlink:href="#ArialMT-37" transform="translate(142.65625 0)"/>
      <use xlink:href="#ArialMT-48" transform="translate(192.65625 0)"/>
      <use xlink:href="#ArialMT-50" transform="translate(248.265625 0)"/>
      <use xlink:href="#ArialMT-53" transform="translate(331.5625 0)"/>
      <use xlink:href="#ArialMT-48" transform="translate(387.171875 0)"/>
      <use xlink:href="#ArialMT-55" transform="translate(442.78125 0)"/>
      <use xlink:href="#ArialMT-44" transform="translate(476.078125 0)"/>
      <use xlink:href="#ArialMT-57" transform="translate(531.6875 0)"/>
      <use xlink:href="#ArialMT-58" transform="translate(559.46875 0)"/>
      <use xlink:href="#ArialMT-55" transform="translate(615.078125 0)"/>
      <use xlink:href="#ArialMT-48" transform="translate(648.375 0)"/>
      <use xlink:href="#ArialMT-3" transform="translate(703.984375 0)"/>
      <use xlink:href="#ArialMT-b" transform="translate(731.765625 0)"/>
      <use xlink:href="#ArialMT-83" transform="translate(765.0625 0)"/>
      <use xlink:href="#ArialMT-26" transform="translate(805.046875 0)"/>
      <use xlink:href="#ArialMT-c" transform="translate(877.265625 0)"/>
     </g>
    </g>
   </g>
   <g id="matplotlib.axis_2">
    <g id="ytick_1">
     <g id="line2d_8">
      <defs>
       <path id="me721cda234" d="M 0 0 
L 6 0 
" style="stroke: #000000; stroke-width: 1.5"/>
      </defs>
      <g>
       <use xlink:href="#me721cda234" x="47.298945" y="294.585437" style="stroke: #000000; stroke-width: 1.5"/>
      </g>
     </g>
     <g id="text_9">
      <!-- 0.0 -->
      <g transform="translate(24.338945 299.681628) scale(0.14 -0.14)">
       <defs>
        <path id="ArialMT-11" d="M 581 0 
L 581 641 
L 1222 641 
L 1222 0 
L 581 0 
z
" transform="scale(0.015625)"/>
       </defs>
       <use xlink:href="#ArialMT-13"/>
       <use xlink:href="#ArialMT-11" transform="translate(55.609375 0)"/>
       <use xlink:href="#ArialMT-13" transform="translate(83.390625 0)"/>
      </g>
     </g>
    </g>
    <g id="ytick_2">
     <g id="line2d_9">
      <g>
       <use xlink:href="#me721cda234" x="47.298945" y="246.813659" style="stroke: #000000; stroke-width: 1.5"/>
      </g>
     </g>
     <g id="text_10">
      <!-- 0.5 -->
      <g transform="translate(24.338945 251.909851) scale(0.14 -0.14)">
       <defs>
        <path id="ArialMT-18" d="M 266 1200 
L 856 1250 
Q 922 819 1161 601 
Q 1400 384 1738 384 
Q 2144 384 2425 690 
Q 2706 997 2706 1503 
Q 2706 1984 2436 2262 
Q 2166 2541 1728 2541 
Q 1456 2541 1237 2417 
Q 1019 2294 894 2097 
L 366 2166 
L 809 4519 
L 3088 4519 
L 3088 3981 
L 1259 3981 
L 1013 2750 
Q 1425 3038 1878 3038 
Q 2478 3038 2890 2622 
Q 3303 2206 3303 1553 
Q 3303 931 2941 478 
Q 2500 -78 1738 -78 
Q 1113 -78 717 272 
Q 322 622 266 1200 
z
" transform="scale(0.015625)"/>
       </defs>
       <use xlink:href="#ArialMT-13"/>
       <use xlink:href="#ArialMT-11" transform="translate(55.609375 0)"/>
       <use xlink:href="#ArialMT-18" transform="translate(83.390625 0)"/>
      </g>
     </g>
    </g>
    <g id="ytick_3">
     <g id="line2d_10">
      <g>
       <use xlink:href="#me721cda234" x="47.298945" y="199.041882" style="stroke: #000000; stroke-width: 1.5"/>
      </g>
     </g>
     <g id="text_11">
      <!-- 1.0 -->
      <g transform="translate(24.338945 204.138074) scale(0.14 -0.14)">
       <use xlink:href="#ArialMT-14"/>
       <use xlink:href="#ArialMT-11" transform="translate(55.609375 0)"/>
       <use xlink:href="#ArialMT-13" transform="translate(83.390625 0)"/>
      </g>
     </g>
    </g>
    <g id="ytick_4">
     <g id="line2d_11">
      <g>
       <use xlink:href="#me721cda234" x="47.298945" y="151.270105" style="stroke: #000000; stroke-width: 1.5"/>
      </g>
     </g>
     <g id="text_12">
      <!-- 1.5 -->
      <g transform="translate(24.338945 156.366296) scale(0.14 -0.14)">
       <use xlink:href="#ArialMT-14"/>
       <use xlink:href="#ArialMT-11" transform="translate(55.609375 0)"/>
       <use xlink:href="#ArialMT-18" transform="translate(83.390625 0)"/>
      </g>
     </g>
    </g>
    <g id="ytick_5">
     <g id="line2d_12">
      <g>
       <use xlink:href="#me721cda234" x="47.298945" y="103.498328" style="stroke: #000000; stroke-width: 1.5"/>
      </g>
     </g>
     <g id="text_13">
      <!-- 2.0 -->
      <g transform="translate(24.338945 108.594519) scale(0.14 -0.14)">
       <use xlink:href="#ArialMT-15"/>
       <use xlink:href="#ArialMT-11" transform="translate(55.609375 0)"/>
       <use xlink:href="#ArialMT-13" transform="translate(83.390625 0)"/>
      </g>
     </g>
    </g>
    <g id="ytick_6">
     <g id="line2d_13">
      <g>
       <use xlink:href="#me721cda234" x="47.298945" y="55.72655" style="stroke: #000000; stroke-width: 1.5"/>
      </g>
     </g>
     <g id="text_14">
      <!-- 2.5 -->
      <g transform="translate(24.338945 60.822742) scale(0.14 -0.14)">
       <use xlink:href="#ArialMT-15"/>
       <use xlink:href="#ArialMT-11" transform="translate(55.609375 0)"/>
       <use xlink:href="#ArialMT-18" transform="translate(83.390625 0)"/>
      </g>
     </g>
    </g>
    <g id="text_15">
     <!-- Ion Current (m/z 28) -->
     <g transform="translate(17.392383 222.733457) rotate(-90) scale(0.14 -0.14)">
      <defs>
       <path id="ArialMT-2c" d="M 597 0 
L 597 4581 
L 1203 4581 
L 1203 0 
L 597 0 
z
" transform="scale(0.015625)"/>
       <path id="ArialMT-52" d="M 213 1659 
Q 213 2581 725 3025 
Q 1153 3394 1769 3394 
Q 2453 3394 2887 2945 
Q 3322 2497 3322 1706 
Q 3322 1066 3130 698 
Q 2938 331 2570 128 
Q 2203 -75 1769 -75 
Q 1072 -75 642 372 
Q 213 819 213 1659 
z
M 791 1659 
Q 791 1022 1069 705 
Q 1347 388 1769 388 
Q 2188 388 2466 706 
Q 2744 1025 2744 1678 
Q 2744 2294 2464 2611 
Q 2184 2928 1769 2928 
Q 1347 2928 1069 2612 
Q 791 2297 791 1659 
z
" transform="scale(0.015625)"/>
       <path id="ArialMT-51" d="M 422 0 
L 422 3319 
L 928 3319 
L 928 2847 
Q 1294 3394 1984 3394 
Q 2284 3394 2536 3286 
Q 2788 3178 2913 3003 
Q 3038 2828 3088 2588 
Q 3119 2431 3119 2041 
L 3119 0 
L 2556 0 
L 2556 2019 
Q 2556 2363 2490 2533 
Q 2425 2703 2258 2804 
Q 2091 2906 1866 2906 
Q 1506 2906 1245 2678 
Q 984 2450 984 1813 
L 984 0 
L 422 0 
z
" transform="scale(0.015625)"/>
       <path id="ArialMT-12" d="M 0 -78 
L 1328 4659 
L 1778 4659 
L 453 -78 
L 0 -78 
z
" transform="scale(0.015625)"/>
       <path id="ArialMT-5d" d="M 125 0 
L 125 456 
L 2238 2881 
Q 1878 2863 1603 2863 
L 250 2863 
L 250 3319 
L 2963 3319 
L 2963 2947 
L 1166 841 
L 819 456 
Q 1197 484 1528 484 
L 3063 484 
L 3063 0 
L 125 0 
z
" transform="scale(0.015625)"/>
      </defs>
      <use xlink:href="#ArialMT-2c"/>
      <use xlink:href="#ArialMT-52" transform="translate(27.78125 0)"/>
      <use xlink:href="#ArialMT-51" transform="translate(83.390625 0)"/>
      <use xlink:href="#ArialMT-3" transform="translate(139 0)"/>
      <use xlink:href="#ArialMT-26" transform="translate(166.78125 0)"/>
      <use xlink:href="#ArialMT-58" transform="translate(239 0)"/>
      <use xlink:href="#ArialMT-55" transform="translate(294.609375 0)"/>
      <use xlink:href="#ArialMT-55" transform="translate(327.90625 0)"/>
      <use xlink:href="#ArialMT-48" transform="translate(361.203125 0)"/>
      <use xlink:href="#ArialMT-51" transform="translate(416.8125 0)"/>
      <use xlink:href="#ArialMT-57" transform="translate(472.421875 0)"/>
      <use xlink:href="#ArialMT-3" transform="translate(500.203125 0)"/>
      <use xlink:href="#ArialMT-b" transform="translate(527.984375 0)"/>
      <use xlink:href="#ArialMT-50" transform="translate(561.28125 0)"/>
      <use xlink:href="#ArialMT-12" transform="translate(644.578125 0)"/>
      <use xlink:href="#ArialMT-5d" transform="translate(672.359375 0)"/>
      <use xlink:href="#ArialMT-3" transform="translate(722.359375 0)"/>
      <use xlink:href="#ArialMT-15" transform="translate(750.140625 0)"/>
      <use xlink:href="#ArialMT-1b" transform="translate(805.75 0)"/>
      <use xlink:href="#ArialMT-c" transform="translate(861.359375 0)"/>
     </g>
    </g>
    <g id="text_16">
     <!-- 1e−11 -->
     <g transform="translate(47.298945 17.392383) scale(0.14 -0.14)">
      <defs>
       <path id="ArialMT-ed" d="M 3381 1997 
L 356 1997 
L 356 2522 
L 3381 2522 
L 3381 1997 
z
" transform="scale(0.015625)"/>
      </defs>
      <use xlink:href="#ArialMT-14"/>
      <use xlink:href="#ArialMT-48" transform="translate(55.609375 0)"/>
      <use xlink:href="#ArialMT-ed" transform="translate(111.21875 0)"/>
      <use xlink:href="#ArialMT-14" transform="translate(169.625 0)"/>
      <use xlink:href="#ArialMT-14" transform="translate(217.8125 0)"/>
     </g>
    </g>
   </g>
   <g id="line2d_14">
    <path d="M 66.195811 284.099713 
L 66.195811 281.967407 
L 66.227412 283.195178 
L 66.922614 283.620833 
L 68.56582 283.313344 
L 73.053036 282.997504 
L 74.917442 283.15739 
L 79.97346 284.042815 
L 82.343468 284.83739 
L 83.607472 284.461627 
L 84.871477 284.211301 
L 86.261882 284.201143 
L 87.620687 284.327888 
L 88.916291 283.692787 
L 92.645104 282.515869 
L 95.109913 282.514983 
L 96.373917 282.277564 
L 100.00793 283.568943 
L 101.240334 283.412884 
L 102.472739 283.882578 
L 103.736743 284.139073 
L 105.000747 283.900417 
L 106.233152 283.92046 
L 107.497156 283.543872 
L 109.930365 283.302529 
L 112.395173 282.550376 
L 113.627578 282.355943 
L 116.092386 282.625752 
L 117.356391 282.547477 
L 118.557195 282.865934 
L 119.821199 283.008936 
L 121.053604 283.585023 
L 122.286008 283.654759 
L 123.518412 283.577385 
L 124.750817 283.804084 
L 127.278825 283.940233 
L 131.007638 283.559594 
L 132.240043 283.347399 
L 133.504047 283.35664 
L 135.905656 282.758474 
L 137.16966 282.904016 
L 138.433665 283.318567 
L 139.666069 283.119959 
L 140.930073 283.089971 
L 142.099277 282.842995 
L 144.532486 283.094819 
L 145.76489 283.381381 
L 146.965694 283.326897 
L 148.229699 283.760113 
L 150.694507 284.304175 
L 153.159316 283.694015 
L 154.423321 283.532251 
L 156.888129 283.822902 
L 158.120533 283.568213 
L 159.384538 283.427066 
L 160.648542 283.628495 
L 161.849347 283.495815 
L 164.345755 283.546069 
L 165.546559 283.428462 
L 166.747364 283.727534 
L 168.011368 283.775368 
L 171.645381 282.617552 
L 174.20499 282.695043 
L 175.437394 282.97701 
L 177.965403 282.954807 
L 180.430212 283.751622 
L 181.631016 283.601595 
L 182.89502 283.677062 
L 185.328229 283.551991 
L 186.497433 283.207224 
L 187.761437 283.268618 
L 190.226246 282.978739 
L 193.860259 283.754341 
L 196.356667 283.45644 
L 197.589072 283.095504 
L 198.789876 283.033375 
L 200.02228 283.160833 
L 201.254685 283.005483 
L 202.518689 283.11976 
L 203.719493 283.042751 
L 204.951897 283.273077 
L 206.215902 283.634608 
L 208.680711 283.188951 
L 209.881515 283.241061 
L 211.145519 283.422689 
L 212.377923 283.767785 
L 213.578728 283.700656 
L 214.811132 283.784262 
L 216.043536 283.695943 
L 217.275941 283.862438 
L 218.445145 283.715478 
L 220.909953 282.52275 
L 222.142358 282.31078 
L 225.871171 282.422636 
L 227.008775 282.321804 
L 229.410383 283.059479 
L 230.674388 283.271975 
L 233.170796 282.194189 
L 234.434801 281.777529 
L 235.667205 281.677193 
L 236.836409 281.121181 
L 239.332818 280.954725 
L 240.596822 281.200056 
L 241.797627 281.631938 
L 243.030031 281.696475 
L 244.294035 281.344887 
L 245.52644 281.663806 
L 246.727244 281.526224 
L 247.959648 280.960333 
L 249.192052 280.80234 
L 251.688461 280.80406 
L 252.920865 281.25707 
L 255.417274 280.779345 
L 256.618078 281.03721 
L 257.850483 281.129852 
L 259.051287 280.627531 
L 260.283691 279.866343 
L 261.579296 280.129171 
L 262.7485 279.837332 
L 263.980904 280.133605 
L 265.213309 281.054901 
L 266.414113 280.625881 
L 267.678117 280.779312 
L 268.973722 280.778876 
L 270.237726 280.275913 
L 272.670935 279.984028 
L 275.135743 280.690146 
L 276.399748 281.197068 
L 277.663752 281.861971 
L 278.896156 281.570332 
L 281.360965 281.688958 
L 282.561769 281.622072 
L 283.825774 281.674763 
L 285.026578 281.864456 
L 286.227382 282.544128 
L 287.459786 282.846884 
L 288.692191 282.58867 
L 291.156999 282.40936 
L 294.854212 282.763702 
L 296.118217 282.40102 
L 297.287421 282.592678 
L 299.75223 282.546197 
L 302.217038 282.033055 
L 303.386242 282.251979 
L 308.31586 282.114622 
L 309.548264 282.173784 
L 313.213877 282.765308 
L 314.414681 282.530283 
L 315.710285 282.84049 
L 318.143494 282.559005 
L 319.312698 282.680933 
L 320.608303 282.656442 
L 321.809107 282.123112 
L 324.273915 281.633495 
L 325.47472 281.849776 
L 326.707124 281.82526 
L 327.971128 282.254801 
L 330.435937 282.351342 
L 331.984342 282.608837 
L 334.543951 282.196281 
L 335.807956 281.779866 
L 336.97716 281.084826 
L 338.177964 281.116899 
L 339.473569 280.719699 
L 341.969977 280.473874 
L 344.403186 280.543036 
L 346.899595 280.76749 
L 348.100399 280.75018 
L 349.269603 280.419093 
L 350.533607 280.803126 
L 352.935216 280.259489 
L 354.16762 280.292159 
L 355.494825 280.47407 
L 356.664029 279.962224 
L 357.928033 279.724052 
L 359.192038 279.617319 
L 360.456042 279.682388 
L 361.498846 279.497008 
L 362.79445 279.425994 
L 364.121655 279.085007 
L 365.227659 278.922199 
L 366.491663 279.361194 
L 367.913668 279.616955 
L 369.146073 278.973665 
L 370.315277 278.701259 
L 371.452881 278.738012 
L 372.685285 277.899743 
L 373.886089 277.455441 
L 375.150094 277.144907 
L 376.256097 276.640509 
L 378.720906 276.237961 
L 381.154115 275.093625 
L 383.587323 274.646202 
L 388.611741 271.685128 
L 391.044949 268.915947 
L 392.340554 267.000423 
L 393.383357 265.701865 
L 395.089763 264.903828 
L 396.385368 263.492484 
L 397.712573 261.809707 
L 398.881777 259.183537 
L 400.114181 257.805169 
L 401.409786 256.098984 
L 404.885798 246.463008 
L 406.244602 243.76953 
L 407.413807 240.340587 
L 408.709411 235.351949 
L 410.036616 231.104141 
L 411.20582 225.313563 
L 412.343424 220.441988 
L 413.512628 212.472747 
L 414.839833 205.068301 
L 415.977437 195.782737 
L 418.663446 177.681126 
L 419.67465 166.902053 
L 421.065054 155.765501 
L 424.699067 114.064658 
L 425.710271 96.500444 
L 425.710271 96.500444 
" clip-path="url(#p666c9eba5e)" style="fill: none; stroke: #000000; stroke-width: 2.5; stroke-linecap: square"/>
   </g>
   <g id="line2d_15">
    <path d="M 58.200983 281.267945 
L 58.200983 280.313645 
L 58.200983 281.611655 
L 58.200983 281.429271 
L 58.358984 281.606758 
L 59.022586 281.473277 
L 60.760592 281.42837 
L 63.0042 281.481644 
L 67.017414 280.914865 
L 68.53422 280.80179 
L 70.935828 281.277518 
L 71.978632 281.102148 
L 73.211036 281.233597 
L 74.47504 281.181224 
L 75.612644 281.613151 
L 76.939849 281.516237 
L 78.203854 281.225131 
L 80.700262 280.998541 
L 81.869466 281.130758 
L 83.165071 281.406803 
L 84.460675 281.307149 
L 87.020284 280.733016 
L 89.706294 281.054452 
L 92.171102 281.481873 
L 94.604311 281.576085 
L 95.773515 281.815839 
L 97.10072 281.634553 
L 98.364724 281.293282 
L 99.565528 281.107128 
L 103.262741 282.248051 
L 104.495146 282.328196 
L 105.75915 282.034981 
L 108.160758 282.681289 
L 109.393163 282.711919 
L 111.952772 282.258627 
L 113.058776 282.102229 
L 116.882389 280.812786 
L 118.051593 280.286836 
L 119.315598 280.532965 
L 120.611202 280.918959 
L 121.717206 281.626346 
L 123.01281 282.033762 
L 124.276815 282.193845 
L 126.710023 282.086615 
L 128.005628 281.576507 
L 129.206432 280.760921 
L 130.502037 280.291132 
L 131.766041 280.287689 
L 132.966845 280.703948 
L 134.136049 281.332775 
L 135.336854 281.636963 
L 136.600858 281.836703 
L 141.562075 280.656019 
L 142.82608 280.562456 
L 144.058484 280.612984 
L 145.227688 280.538751 
L 147.724097 280.700268 
L 148.893301 280.838977 
L 150.220506 280.252256 
L 152.748515 280.103049 
L 155.150123 279.247607 
L 157.583332 278.726734 
L 158.847336 278.774173 
L 160.11134 279.069038 
L 161.375345 279.011807 
L 162.576149 278.814242 
L 166.178562 277.489475 
L 167.474166 277.221251 
L 168.706571 276.270407 
L 169.907375 275.753842 
L 171.139779 274.838066 
L 172.372183 274.420926 
L 173.636188 273.491615 
L 174.931792 272.909079 
L 176.132597 272.79569 
L 178.597405 272.149773 
L 179.766609 271.418384 
L 181.125414 270.196932 
L 182.294618 269.934798 
L 183.495422 268.847219 
L 184.727827 268.216617 
L 185.960231 267.293764 
L 187.192635 265.688292 
L 188.48824 265.087595 
L 189.689044 263.671424 
L 190.921448 262.681996 
L 192.122253 261.915377 
L 193.354657 261.292275 
L 194.618661 262.29822 
L 195.882666 262.389288 
L 198.284274 263.276983 
L 199.516678 263.077609 
L 200.780683 264.337504 
L 202.044687 265.421791 
L 204.477896 266.901452 
L 205.6787 267.340747 
L 206.911104 268.185204 
L 209.375913 267.159991 
L 210.513517 266.971656 
L 211.872322 266.431207 
L 213.009926 266.734112 
L 214.27393 267.23139 
L 215.474734 268.070595 
L 216.738739 268.489079 
L 217.971143 269.664733 
L 219.171947 269.631682 
L 222.83756 269.172027 
L 224.038364 268.061316 
L 225.333969 267.919638 
L 226.534773 267.212026 
L 227.767177 266.925025 
L 229.031182 266.399535 
L 230.200386 266.305957 
L 231.49599 265.046711 
L 232.728395 264.393732 
L 233.897599 264.325976 
L 235.130003 264.100344 
L 236.330807 263.644475 
L 237.563212 264.336108 
L 238.795616 263.914072 
L 241.292025 263.682807 
L 242.524429 262.957735 
L 244.989238 262.153673 
L 246.190042 262.332365 
L 247.454046 261.702185 
L 248.686451 261.743805 
L 249.887255 262.05897 
L 251.151259 262.568743 
L 252.352063 262.609379 
L 256.080877 262.077749 
L 257.281681 262.587762 
L 258.545685 262.978255 
L 259.77809 262.838883 
L 260.947294 263.308996 
L 262.242898 263.169747 
L 263.443702 263.653757 
L 264.644507 263.166873 
L 267.109315 261.210919 
L 268.40492 260.056318 
L 269.732124 259.688722 
L 272.165333 259.566818 
L 273.397737 259.96216 
L 274.661742 260.901653 
L 275.894146 261.121894 
L 277.12655 261.566768 
L 278.295754 261.667832 
L 279.528159 261.614513 
L 280.760563 261.446625 
L 283.225372 262.07352 
L 284.457776 262.150026 
L 285.69018 262.029784 
L 286.954185 262.278551 
L 288.154989 260.751811 
L 289.355793 260.946748 
L 290.619798 260.226232 
L 291.820602 260.029983 
L 293.021406 260.523311 
L 294.28541 261.193903 
L 295.549415 261.021493 
L 296.718619 261.385448 
L 297.982623 261.130078 
L 299.246628 260.134654 
L 300.415832 258.842352 
L 301.648236 258.306067 
L 302.88064 257.393082 
L 304.144645 257.245063 
L 305.313849 257.232571 
L 307.747058 258.091319 
L 309.011062 257.919313 
L 310.243466 258.327307 
L 311.44427 258.257732 
L 312.676675 258.690903 
L 313.877479 258.598169 
L 315.109883 258.76308 
L 316.342288 257.618536 
L 317.606292 257.190548 
L 321.240305 254.14059 
L 322.472709 253.603093 
L 323.736714 253.66069 
L 326.138322 252.798359 
L 327.433926 252.271033 
L 328.634731 250.57821 
L 329.835535 249.282844 
L 332.711145 244.08985 
L 333.975149 242.204476 
L 335.270754 237.861948 
L 336.503158 235.573539 
L 337.672362 234.251318 
L 338.967967 234.059421 
L 341.337975 236.579837 
L 343.834384 240.294278 
L 346.299193 242.575186 
L 347.563197 241.127022 
L 348.795601 241.345872 
L 350.028006 242.621221 
L 351.29201 243.633654 
L 354.926023 245.183151 
L 356.158427 245.251297 
L 357.359231 245.177695 
L 358.654836 244.95885 
L 361.088044 245.078527 
L 362.383649 245.507229 
L 363.521253 246.204508 
L 364.690457 246.503521 
L 367.155266 248.128063 
L 369.714875 249.242678 
L 370.947279 249.549778 
L 372.116483 250.504119 
L 373.348887 250.895724 
L 374.518091 250.770123 
L 376.9197 253.601775 
L 378.246904 253.682581 
L 379.479309 254.426045 
L 380.616913 254.929475 
L 381.912517 254.240384 
L 383.144922 254.111368 
L 384.314126 253.58357 
L 385.54653 253.670835 
L 386.747334 253.163625 
L 388.042939 253.743865 
L 389.306943 253.259693 
L 391.708552 251.717732 
L 392.972556 251.279829 
L 394.331361 249.414928 
L 395.784966 248.418014 
L 396.92257 245.684496 
L 398.344575 243.808793 
L 399.545379 241.247965 
L 400.746183 239.442219 
L 402.010188 237.241939 
L 403.210992 235.783073 
L 404.443396 232.847056 
L 405.770601 231.261754 
L 406.845005 228.580877 
L 408.203809 226.181212 
L 409.404614 221.987967 
L 410.415817 216.961441 
L 411.806222 210.766245 
L 413.038626 206.102681 
L 414.334231 200.297673 
L 415.471835 193.222539 
L 416.641039 184.07695 
L 417.968244 176.202505 
L 419.263848 167.5954 
L 421.665457 146.692531 
L 422.73986 133.838235 
L 424.225065 118.960944 
L 425.362669 101.744844 
L 425.362669 101.744844 
" clip-path="url(#p666c9eba5e)" style="fill: none; stroke: #1f77b4; stroke-width: 2.5; stroke-linecap: square"/>
   </g>
   <g id="line2d_16">
    <path d="M 58.011383 281.156314 
L 58.011383 280.275904 
L 58.011383 281.044955 
L 58.137783 280.683884 
L 58.738185 280.310558 
L 62.435398 280.203725 
L 64.679006 280.691316 
L 66.669813 280.917597 
L 68.249819 281.308901 
L 69.545423 280.853135 
L 70.683027 281.213594 
L 71.820631 280.780894 
L 72.958235 280.729732 
L 75.359844 280.050087 
L 76.623848 280.276769 
L 77.856252 280.214606 
L 79.088657 279.849512 
L 81.553465 279.740893 
L 82.81747 280.528489 
L 84.049874 280.558827 
L 85.408679 280.956545 
L 86.799084 280.722862 
L 88.126288 280.321097 
L 89.390293 280.51783 
L 91.855101 280.12829 
L 94.31991 280.321951 
L 95.552314 280.570427 
L 96.816319 280.986873 
L 98.017123 281.099532 
L 99.281127 281.004876 
L 100.513532 280.742437 
L 101.745936 280.874427 
L 103.00994 281.197532 
L 104.242345 280.914977 
L 105.474749 280.971302 
L 106.707153 281.294918 
L 107.939558 281.314585 
L 109.171962 281.447502 
L 111.636771 281.222555 
L 114.038379 280.989589 
L 115.302383 281.129905 
L 116.566388 280.977232 
L 118.999596 280.90947 
L 120.200401 280.312231 
L 122.696809 280.166061 
L 123.897614 280.013325 
L 126.394022 280.494728 
L 127.658027 281.225188 
L 130.186036 282.221565 
L 131.41844 281.947915 
L 132.587644 281.560755 
L 133.883249 281.537482 
L 135.115653 281.056179 
L 136.379657 280.803161 
L 137.580462 280.273463 
L 138.844466 280.004451 
L 140.04527 280.207125 
L 141.309275 280.195735 
L 143.710883 279.705877 
L 146.238892 279.55965 
L 147.471296 279.517554 
L 148.7037 279.781134 
L 149.999305 279.379316 
L 154.897322 279.166616 
L 156.098126 279.360066 
L 158.594535 279.281043 
L 159.826939 279.507505 
L 162.260148 279.36597 
L 163.492552 279.489948 
L 164.661756 279.404519 
L 167.158165 278.775586 
L 169.622974 278.676973 
L 170.886978 278.364961 
L 172.087782 277.934534 
L 173.288587 276.856846 
L 174.552591 276.212283 
L 175.879796 276.031591 
L 178.407805 274.279966 
L 179.545408 273.880366 
L 182.010217 273.762432 
L 183.242621 273.010998 
L 185.70743 270.821129 
L 186.971435 270.35219 
L 188.172239 270.467751 
L 189.341443 269.927439 
L 190.573847 269.61569 
L 193.070256 269.822635 
L 194.27106 269.728712 
L 196.735869 268.249844 
L 197.999873 268.022808 
L 200.433082 268.094208 
L 204.161895 268.428521 
L 205.362699 268.217924 
L 210.292316 267.901561 
L 211.46152 268.255703 
L 212.725525 268.851084 
L 213.957929 269.238762 
L 215.158733 268.882989 
L 217.686742 267.780761 
L 218.887546 267.502807 
L 221.352355 266.214054 
L 222.553159 265.844622 
L 223.817164 265.890584 
L 225.049568 265.769478 
L 226.281972 265.082618 
L 227.482776 264.272925 
L 228.715181 263.128901 
L 229.979185 262.470194 
L 232.380794 260.704823 
L 233.644798 260.078595 
L 234.845602 260.145197 
L 238.606015 258.735568 
L 239.80682 258.591209 
L 242.240028 258.946588 
L 243.440832 258.101697 
L 244.704837 258.517631 
L 245.937241 258.04023 
L 247.138045 258.537708 
L 248.40205 258.232155 
L 250.898458 258.72132 
L 252.067662 258.597174 
L 253.394867 258.918389 
L 255.764875 259.260262 
L 257.06048 260.126543 
L 258.261284 260.611052 
L 259.462088 261.75176 
L 260.662893 261.853062 
L 261.990097 262.275781 
L 263.127701 262.157235 
L 264.391706 261.48152 
L 266.856514 261.384149 
L 269.416123 259.760413 
L 270.648528 259.808263 
L 271.944132 258.883884 
L 273.113336 258.23872 
L 274.408941 258.718971 
L 275.609745 259.914987 
L 279.243758 262.518542 
L 280.507762 262.237771 
L 281.771767 262.334921 
L 282.909371 261.448731 
L 284.173375 260.304375 
L 285.405779 259.5179 
L 286.638184 258.891097 
L 287.902188 259.249454 
L 289.008192 258.478846 
L 291.504601 258.580531 
L 292.768605 258.112855 
L 294.001009 257.416828 
L 296.529018 255.043701 
L 297.666622 254.125377 
L 298.899027 252.795643 
L 300.163031 252.173321 
L 301.363835 251.378828 
L 302.596239 251.140406 
L 303.828644 250.184728 
L 306.230252 247.028043 
L 308.726661 243.395016 
L 309.959065 242.797247 
L 311.128269 240.551349 
L 313.624678 239.276019 
L 314.888683 239.093825 
L 317.290291 237.032126 
L 318.522695 236.220356 
L 319.7551 234.976338 
L 320.987504 233.367721 
L 323.483913 230.916495 
L 324.653117 230.033914 
L 325.948721 228.544763 
L 327.149525 229.061764 
L 328.38193 229.338044 
L 329.582734 231.573878 
L 330.973139 233.451235 
L 333.627548 236.0197 
L 334.923153 238.281704 
L 336.218757 240.111929 
L 338.683566 241.233108 
L 339.91597 241.356233 
L 341.148374 241.680856 
L 342.317579 242.863591 
L 343.581583 243.349731 
L 344.845587 244.299534 
L 346.046392 245.644882 
L 347.247196 246.717579 
L 348.448 248.269626 
L 349.712004 249.276179 
L 350.912809 249.784353 
L 352.208413 248.511229 
L 353.409217 248.187056 
L 354.546821 247.140095 
L 355.874026 246.520188 
L 357.07483 246.565303 
L 358.307235 245.823237 
L 359.571239 246.249983 
L 360.677243 247.882189 
L 362.004448 249.306552 
L 363.236852 251.709779 
L 365.70166 254.532848 
L 366.902465 255.034362 
L 368.166469 255.922447 
L 370.568078 256.759558 
L 371.926882 257.816217 
L 375.497695 259.395482 
L 376.698499 259.25459 
L 377.994104 259.341722 
L 380.490512 259.257292 
L 381.628116 258.707049 
L 382.892121 259.35484 
L 385.325329 259.604775 
L 386.399733 259.502437 
L 388.990942 258.742897 
L 390.160146 258.119074 
L 391.424151 257.213646 
L 392.561755 256.059464 
L 393.952159 254.91795 
L 395.405765 254.023312 
L 396.796169 252.694961 
L 398.060174 250.933999 
L 399.324178 248.872085 
L 402.894991 240.47259 
L 406.687004 234.052623 
L 407.793008 230.72897 
L 409.120213 227.217823 
L 411.521821 217.424906 
L 412.849026 210.30617 
L 414.01823 202.497533 
L 415.124234 196.171047 
L 416.483038 189.703491 
L 418.916247 175.347341 
L 421.412656 156.374247 
L 423.845864 132.210405 
L 425.173069 116.777989 
L 426.026272 98.556758 
L 426.026272 98.556758 
" clip-path="url(#p666c9eba5e)" style="fill: none; stroke: #0033ff; stroke-width: 2.5; stroke-linecap: square"/>
   </g>
   <g id="line2d_17">
    <path d="M 56.115376 286.081419 
L 56.178576 285.950018 
L 56.178576 286.523259 
L 56.178576 286.174395 
L 56.273377 286.073921 
L 56.778979 285.748293 
L 58.295784 285.713368 
L 60.476191 285.979153 
L 66.353812 286.234539 
L 67.681017 286.469338 
L 71.125429 285.983844 
L 72.326233 286.390714 
L 73.558637 286.655951 
L 74.759441 286.707929 
L 76.023446 286.560176 
L 79.689059 287.12128 
L 80.921463 286.864471 
L 82.185468 287.080652 
L 83.386272 286.881608 
L 86.072281 287.002017 
L 87.462686 286.862256 
L 88.72669 286.469491 
L 91.254699 286.267362 
L 93.687908 286.3152 
L 94.920312 286.569713 
L 97.416721 286.441126 
L 98.680725 286.502902 
L 99.881529 286.35504 
L 101.113934 285.894197 
L 102.346338 285.750702 
L 103.578742 285.979629 
L 106.075151 286.093422 
L 108.445159 286.815746 
L 109.772364 286.790101 
L 111.004768 286.521355 
L 114.607181 286.60093 
L 115.934386 286.698252 
L 118.399194 286.169207 
L 119.631599 286.03893 
L 122.001607 286.484278 
L 123.297211 286.233133 
L 124.466416 286.187977 
L 125.69882 286.393917 
L 127.026025 286.169197 
L 128.321629 285.679491 
L 129.554033 285.499967 
L 130.818038 285.502725 
L 131.987242 285.170596 
L 133.219646 285.898794 
L 134.452051 286.085234 
L 135.716055 285.661934 
L 136.980059 285.758833 
L 138.212464 285.617703 
L 139.444868 285.011925 
L 140.677272 284.620836 
L 141.878077 284.657713 
L 143.078881 284.375715 
L 144.342885 284.405954 
L 145.512089 284.865955 
L 146.870894 284.252569 
L 148.103298 284.26305 
L 149.304103 284.516728 
L 153.032916 284.241427 
L 154.26532 284.030883 
L 155.497724 283.519281 
L 156.666928 283.546495 
L 157.867733 283.180295 
L 159.163337 282.531005 
L 160.427342 282.485144 
L 161.628146 282.186298 
L 164.061354 281.214229 
L 165.293759 280.859657 
L 167.695367 279.448056 
L 168.990972 279.2953 
L 170.191776 278.722474 
L 171.45578 278.247138 
L 172.688184 277.954106 
L 175.121393 275.288459 
L 176.416998 274.367486 
L 177.681002 272.378062 
L 178.881806 269.422663 
L 180.08261 266.839454 
L 183.843024 257.865348 
L 184.980628 255.92059 
L 186.181432 253.184873 
L 188.709441 250.060906 
L 189.878645 247.388888 
L 191.205849 245.910904 
L 192.406654 244.211615 
L 193.702258 240.960066 
L 194.871462 236.602762 
L 196.103866 233.23965 
L 197.304671 231.722191 
L 198.600275 232.786297 
L 199.83268 236.801129 
L 201.065084 242.408053 
L 202.297488 249.266366 
L 203.529893 256.951477 
L 204.730697 262.803685 
L 205.994701 266.086241 
L 207.227105 267.343374 
L 208.45951 268.281965 
L 209.660314 268.550221 
L 210.829518 269.809742 
L 212.061922 270.596519 
L 213.325927 270.863339 
L 217.02314 269.336411 
L 218.255544 269.097409 
L 219.456348 268.58356 
L 220.688753 268.694144 
L 223.185161 269.432113 
L 224.417566 269.553479 
L 226.850774 269.216037 
L 229.315583 267.992816 
L 230.516387 267.81158 
L 231.748791 266.682172 
L 232.981196 266.466116 
L 234.182 266.632883 
L 236.678409 266.140834 
L 239.111617 266.125973 
L 240.344021 265.331391 
L 242.84043 264.145693 
L 244.041234 263.105407 
L 245.273639 262.643574 
L 246.506043 262.697215 
L 250.203256 261.672091 
L 251.46726 261.760232 
L 252.668065 260.992172 
L 253.868869 259.766673 
L 255.132873 259.182595 
L 256.333677 258.920806 
L 257.566082 259.711096 
L 260.094091 260.828752 
L 261.294895 260.744507 
L 262.495699 261.144681 
L 263.759703 261.954757 
L 264.992108 261.677596 
L 267.456916 262.648619 
L 268.752521 263.524094 
L 269.984925 264.11773 
L 271.21733 263.803099 
L 272.512934 264.080994 
L 273.682138 263.904404 
L 274.946143 264.501468 
L 278.611755 264.991788 
L 279.84416 264.981573 
L 281.044964 265.431983 
L 283.541373 264.318093 
L 286.006181 265.120848 
L 287.238586 265.101931 
L 288.47099 265.23387 
L 289.703394 265.18657 
L 290.872598 264.845389 
L 292.136603 265.615814 
L 293.400607 265.783181 
L 294.569811 265.216839 
L 295.865416 265.392467 
L 299.499429 265.004976 
L 300.731833 264.777814 
L 301.932637 265.0603 
L 303.165041 264.895004 
L 304.397446 264.868459 
L 305.62985 264.526869 
L 306.893855 264.449281 
L 308.063059 264.531732 
L 309.295463 263.95259 
L 310.559467 263.670872 
L 311.791872 263.014403 
L 313.024276 262.504772 
L 314.22508 263.175462 
L 315.425884 262.887099 
L 317.922293 262.872348 
L 319.123097 263.155022 
L 320.292301 263.31039 
L 321.556306 262.933379 
L 322.72551 262.894107 
L 324.021115 262.485926 
L 325.253519 261.675289 
L 326.485923 261.337525 
L 327.655127 260.811369 
L 328.950732 260.998226 
L 330.214736 259.84608 
L 331.668341 259.783537 
L 333.027146 259.514464 
L 334.322751 258.380839 
L 335.555155 258.127437 
L 336.819159 257.679527 
L 338.051564 256.378488 
L 339.283968 256.189821 
L 340.421572 256.571273 
L 341.748777 257.59451 
L 342.949581 258.072275 
L 344.118785 258.863754 
L 345.44599 259.041045 
L 347.784398 258.551896 
L 349.048402 258.059218 
L 351.513211 258.321249 
L 356.442828 257.038135 
L 357.643632 255.858225 
L 358.907637 253.388899 
L 361.340845 246.946673 
L 362.510049 243.602603 
L 365.069658 232.937407 
L 366.238862 227.458429 
L 367.502867 224.684641 
L 368.766871 222.965282 
L 369.904475 221.981943 
L 371.16848 222.505459 
L 372.495684 225.255507 
L 373.570088 229.484739 
L 374.960493 234.38691 
L 377.267301 244.638579 
L 378.562906 248.351976 
L 379.76371 252.489433 
L 380.964514 253.932265 
L 382.260118 255.239396 
L 383.397722 256.106076 
L 384.598527 256.174366 
L 385.925731 256.407005 
L 387.031735 256.470352 
L 388.32734 257.714369 
L 389.591344 258.115936 
L 390.728948 258.748032 
L 391.992953 257.812877 
L 393.193757 257.253548 
L 394.647362 256.231415 
L 397.270171 253.617398 
L 399.82978 250.172066 
L 402.326189 246.263993 
L 403.590193 244.442993 
L 404.759397 241.559103 
L 406.055002 239.239201 
L 407.129406 236.418512 
L 408.45661 233.287366 
L 409.594214 229.342242 
L 410.984619 225.063094 
L 411.995823 218.964807 
L 413.291427 212.675175 
L 414.618632 206.863518 
L 415.693036 198.396156 
L 417.178241 189.256928 
L 418.221044 180.108048 
L 419.548249 172.008338 
L 421.886657 151.019723 
L 424.446266 126.115558 
L 425.58387 111.997433 
L 425.58387 111.997433 
" clip-path="url(#p666c9eba5e)" style="fill: none; stroke: #ff7f0e; stroke-width: 2.5; stroke-linecap: square"/>
   </g>
   <g id="line2d_18">
    <path d="M 66.227412 280.368186 
L 66.227412 280.783721 
L 66.227412 279.497785 
L 68.407819 278.69675 
L 70.651427 278.789408 
L 74.917442 279.688192 
L 76.465847 279.988084 
L 77.729852 280.50485 
L 78.930656 280.37493 
L 80.00506 280.139139 
L 82.375068 280.380428 
L 83.639073 280.69849 
L 84.966277 281.412438 
L 86.261882 281.873583 
L 87.589086 281.204602 
L 88.884691 281.123072 
L 90.148695 280.714116 
L 91.4443 279.943915 
L 92.613504 279.572081 
L 95.078313 279.476873 
L 97.606322 279.950721 
L 98.838726 279.837297 
L 100.00793 279.548112 
L 101.240334 279.976261 
L 103.799943 279.674315 
L 105.063948 279.797441 
L 106.201552 280.221466 
L 107.528756 280.445348 
L 109.993565 280.577753 
L 112.395173 280.058955 
L 114.923182 279.828446 
L 116.123986 279.404912 
L 118.588795 280.532629 
L 121.053604 280.45952 
L 122.254408 280.200888 
L 123.518412 280.30686 
L 124.750817 280.28261 
L 126.014821 279.773729 
L 128.57443 279.446548 
L 129.838434 279.870364 
L 130.976038 279.971993 
L 132.240043 279.534633 
L 134.704851 279.484557 
L 135.905656 279.877024 
L 137.16966 279.818184 
L 138.402064 279.271479 
L 140.835273 278.638456 
L 142.067677 278.661366 
L 144.595686 277.609708 
L 145.82809 277.661538 
L 148.324499 278.12845 
L 149.525303 277.763257 
L 150.789308 277.241198 
L 152.021712 276.929904 
L 153.254116 276.785495 
L 155.655725 275.60535 
L 156.919729 274.899732 
L 158.152134 274.882735 
L 159.416138 275.114188 
L 160.616942 274.698682 
L 161.849347 274.108407 
L 164.314155 273.566991 
L 165.514959 272.948036 
L 168.042968 270.66035 
L 169.338573 269.167708 
L 170.507777 268.656945 
L 171.708581 267.778914 
L 172.940985 267.82065 
L 174.20499 267.039119 
L 175.468994 266.616591 
L 176.732999 265.631646 
L 177.902203 264.076928 
L 179.134607 261.169729 
L 180.335411 258.047176 
L 181.631016 255.041475 
L 182.86342 253.149499 
L 184.127425 250.304586 
L 185.296629 248.802424 
L 186.529033 245.659237 
L 188.962241 240.401378 
L 193.891859 224.215157 
L 195.124263 220.895653 
L 197.589072 212.101986 
L 198.853076 207.850979 
L 200.08548 205.147801 
L 201.286285 202.097296 
L 202.518689 197.894748 
L 203.751093 195.761273 
L 204.983498 192.913722 
L 208.680711 186.383348 
L 209.913115 183.804917 
L 211.113919 182.56708 
L 212.346323 182.878815 
L 213.547128 182.021635 
L 214.811132 181.331526 
L 216.011936 181.425542 
L 217.275941 179.231563 
L 218.476745 178.325082 
L 219.740749 176.350774 
L 220.973154 173.952918 
L 222.205558 171.212782 
L 223.406362 169.320699 
L 224.638766 166.57275 
L 227.071975 157.570995 
L 228.335979 153.616775 
L 229.568384 148.030428 
L 230.737588 144.510064 
L 231.969992 140.408121 
L 233.265597 138.980856 
L 234.403201 137.198125 
L 235.667205 136.863589 
L 238.132014 134.945665 
L 239.332818 135.262221 
L 240.533622 136.292495 
L 241.734426 135.40112 
L 242.966831 135.859814 
L 244.294035 137.046759 
L 245.494839 140.046423 
L 246.727244 143.502091 
L 247.928048 147.930194 
L 250.424457 159.837435 
L 251.751661 164.738495 
L 252.952466 168.524166 
L 255.417274 174.461049 
L 259.082887 181.193246 
L 260.346891 182.396433 
L 261.516096 184.795655 
L 262.7801 186.794695 
L 264.044104 187.616236 
L 265.181708 188.929802 
L 266.414113 189.58719 
L 267.709717 189.160576 
L 268.973722 187.410009 
L 271.47013 185.811977 
L 273.934939 186.643299 
L 275.198944 189.451679 
L 276.462948 191.911473 
L 277.632152 194.605697 
L 278.896156 195.650745 
L 280.065361 197.452661 
L 281.360965 198.791059 
L 282.530169 200.518672 
L 283.762574 200.582211 
L 285.058178 200.905943 
L 286.290582 200.634316 
L 287.459786 200.924545 
L 288.755391 200.620091 
L 289.987795 200.746384 
L 291.1886 200.43537 
L 292.389404 200.285794 
L 293.590208 199.756229 
L 294.854212 198.858802 
L 296.055017 195.989653 
L 297.319021 196.18235 
L 298.551425 194.404918 
L 299.75223 193.523288 
L 301.016234 193.666931 
L 302.217038 193.550803 
L 303.481043 192.784468 
L 304.681847 191.560541 
L 305.882651 190.64745 
L 308.37906 190.266265 
L 309.548264 190.368265 
L 310.812268 187.413025 
L 312.013072 186.563956 
L 313.213877 185.491938 
L 314.446281 184.881947 
L 316.97429 184.084113 
L 318.143494 184.91175 
L 319.407498 185.213786 
L 320.608303 185.326672 
L 321.840707 183.031557 
L 323.104711 179.898887 
L 324.305516 178.579934 
L 325.50632 177.788439 
L 326.738724 178.60255 
L 329.140332 180.48285 
L 330.435937 182.136043 
L 333.216747 181.133111 
L 334.575551 179.020454 
L 335.807956 177.988882 
L 338.272764 175.528057 
L 339.536769 175.572376 
L 340.674373 174.753236 
L 341.969977 175.0144 
L 344.339986 171.765692 
L 345.63559 169.449115 
L 349.332803 160.223768 
L 350.470407 158.328016 
L 351.766012 158.49646 
L 353.061616 159.324291 
L 354.16762 162.748209 
L 355.463225 165.456018 
L 356.664029 169.401383 
L 359.160438 176.358105 
L 360.392842 177.573232 
L 361.656846 179.590466 
L 362.79445 180.786725 
L 364.026855 183.346 
L 365.259259 186.472373 
L 367.882068 192.127208 
L 368.988072 193.381119 
L 370.157276 195.23012 
L 371.421281 196.704796 
L 372.685285 195.973294 
L 373.917689 196.280795 
L 375.086893 197.029682 
L 376.382498 198.120208 
L 377.520102 200.447435 
L 378.720906 201.77307 
L 379.95331 203.639517 
L 381.185715 204.883123 
L 382.512919 205.521269 
L 383.682123 206.763767 
L 384.851328 207.801889 
L 386.115332 207.72511 
L 387.442537 208.162507 
L 388.580141 209.00444 
L 389.780945 210.422103 
L 391.013349 210.601389 
L 393.541358 211.854309 
L 394.963363 210.282029 
L 396.353768 209.924728 
L 397.649372 207.91356 
L 398.881777 205.103812 
L 400.019381 203.634991 
L 401.409786 203.843085 
L 402.54739 202.147995 
L 403.748194 199.723683 
L 404.917398 195.744384 
L 406.307803 192.357899 
L 408.709411 184.338473 
L 411.14262 174.992033 
L 412.438224 169.614202 
L 414.871433 154.221499 
L 417.241441 134.542836 
L 418.631846 125.258971 
L 420.970254 105.278041 
L 422.234258 93.00333 
L 423.403463 77.525113 
L 424.762267 57.877289 
L 425.741871 33.093759 
L 425.741871 33.093759 
" clip-path="url(#p666c9eba5e)" style="fill: none; stroke: #ff0000; stroke-width: 2.5; stroke-linecap: square"/>
   </g>
   <g id="patch_3">
    <path d="M 47.298945 299.822656 
L 47.298945 20.392383 
" style="fill: none; stroke: #000000; stroke-width: 1.5; stroke-linejoin: miter; stroke-linecap: square"/>
   </g>
   <g id="patch_4">
    <path d="M 47.298945 299.822656 
L 426.500273 299.822656 
" style="fill: none; stroke: #000000; stroke-width: 1.5; stroke-linejoin: miter; stroke-linecap: square"/>
   </g>
   <g id="legend_1">
    <g id="line2d_19">
     <path d="M 58.098945 35.728711 
L 70.098945 35.728711 
L 82.098945 35.728711 
" style="fill: none; stroke: #000000; stroke-width: 2.5; stroke-linecap: square"/>
    </g>
    <g id="text_17">
     <!-- vacuum -->
     <g transform="translate(91.698945 39.928711) scale(0.12 -0.12)">
      <defs>
       <path id="ArialMT-59" d="M 1344 0 
L 81 3319 
L 675 3319 
L 1388 1331 
Q 1503 1009 1600 663 
Q 1675 925 1809 1294 
L 2547 3319 
L 3125 3319 
L 1869 0 
L 1344 0 
z
" transform="scale(0.015625)"/>
       <path id="ArialMT-46" d="M 2588 1216 
L 3141 1144 
Q 3050 572 2676 248 
Q 2303 -75 1759 -75 
Q 1078 -75 664 370 
Q 250 816 250 1647 
Q 250 2184 428 2587 
Q 606 2991 970 3192 
Q 1334 3394 1763 3394 
Q 2303 3394 2647 3120 
Q 2991 2847 3088 2344 
L 2541 2259 
Q 2463 2594 2264 2762 
Q 2066 2931 1784 2931 
Q 1359 2931 1093 2626 
Q 828 2322 828 1663 
Q 828 994 1084 691 
Q 1341 388 1753 388 
Q 2084 388 2306 591 
Q 2528 794 2588 1216 
z
" transform="scale(0.015625)"/>
      </defs>
      <use xlink:href="#ArialMT-59"/>
      <use xlink:href="#ArialMT-44" transform="translate(50 0)"/>
      <use xlink:href="#ArialMT-46" transform="translate(105.609375 0)"/>
      <use xlink:href="#ArialMT-58" transform="translate(155.609375 0)"/>
      <use xlink:href="#ArialMT-58" transform="translate(211.21875 0)"/>
      <use xlink:href="#ArialMT-50" transform="translate(266.828125 0)"/>
     </g>
    </g>
    <g id="line2d_20">
     <path d="M 58.098945 52.99043 
L 70.098945 52.99043 
L 82.098945 52.99043 
" style="fill: none; stroke: #1f77b4; stroke-width: 2.5; stroke-linecap: square"/>
    </g>
    <g id="text_18">
     <!-- 1h -->
     <g transform="translate(91.698945 57.19043) scale(0.12 -0.12)">
      <defs>
       <path id="ArialMT-4b" d="M 422 0 
L 422 4581 
L 984 4581 
L 984 2938 
Q 1378 3394 1978 3394 
Q 2347 3394 2619 3248 
Q 2891 3103 3008 2847 
Q 3125 2591 3125 2103 
L 3125 0 
L 2563 0 
L 2563 2103 
Q 2563 2525 2380 2717 
Q 2197 2909 1863 2909 
Q 1613 2909 1392 2779 
Q 1172 2650 1078 2428 
Q 984 2206 984 1816 
L 984 0 
L 422 0 
z
" transform="scale(0.015625)"/>
      </defs>
      <use xlink:href="#ArialMT-14"/>
      <use xlink:href="#ArialMT-4b" transform="translate(55.609375 0)"/>
     </g>
    </g>
    <g id="line2d_21">
     <path d="M 58.098945 70.252148 
L 70.098945 70.252148 
L 82.098945 70.252148 
" style="fill: none; stroke: #0033ff; stroke-width: 2.5; stroke-linecap: square"/>
    </g>
    <g id="text_19">
     <!-- 2h -->
     <g transform="translate(91.698945 74.452148) scale(0.12 -0.12)">
      <use xlink:href="#ArialMT-15"/>
      <use xlink:href="#ArialMT-4b" transform="translate(55.609375 0)"/>
     </g>
    </g>
    <g id="line2d_22">
     <path d="M 58.098945 87.513867 
L 70.098945 87.513867 
L 82.098945 87.513867 
" style="fill: none; stroke: #ff7f0e; stroke-width: 2.5; stroke-linecap: square"/>
    </g>
    <g id="text_20">
     <!-- 4h -->
     <g transform="translate(91.698945 91.713867) scale(0.12 -0.12)">
      <use xlink:href="#ArialMT-17"/>
      <use xlink:href="#ArialMT-4b" transform="translate(55.609375 0)"/>
     </g>
    </g>
    <g id="line2d_23">
     <path d="M 58.098945 104.775586 
L 70.098945 104.775586 
L 82.098945 104.775586 
" style="fill: none; stroke: #ff0000; stroke-width: 2.5; stroke-linecap: square"/>
    </g>
    <g id="text_21">
     <!-- first -->
     <g transform="translate(91.698945 108.975586) scale(0.12 -0.12)">
      <defs>
       <path id="ArialMT-49" d="M 556 0 
L 556 2881 
L 59 2881 
L 59 3319 
L 556 3319 
L 556 3672 
Q 556 4006 616 4169 
Q 697 4388 901 4523 
Q 1106 4659 1475 4659 
Q 1713 4659 2000 4603 
L 1916 4113 
Q 1741 4144 1584 4144 
Q 1328 4144 1222 4034 
Q 1116 3925 1116 3625 
L 1116 3319 
L 1763 3319 
L 1763 2881 
L 1116 2881 
L 1116 0 
L 556 0 
z
" transform="scale(0.015625)"/>
       <path id="ArialMT-4c" d="M 425 3934 
L 425 4581 
L 988 4581 
L 988 3934 
L 425 3934 
z
M 425 0 
L 425 3319 
L 988 3319 
L 988 0 
L 425 0 
z
" transform="scale(0.015625)"/>
       <path id="ArialMT-56" d="M 197 991 
L 753 1078 
Q 800 744 1014 566 
Q 1228 388 1613 388 
Q 2000 388 2187 545 
Q 2375 703 2375 916 
Q 2375 1106 2209 1216 
Q 2094 1291 1634 1406 
Q 1016 1563 777 1677 
Q 538 1791 414 1992 
Q 291 2194 291 2438 
Q 291 2659 392 2848 
Q 494 3038 669 3163 
Q 800 3259 1026 3326 
Q 1253 3394 1513 3394 
Q 1903 3394 2198 3281 
Q 2494 3169 2634 2976 
Q 2775 2784 2828 2463 
L 2278 2388 
Q 2241 2644 2061 2787 
Q 1881 2931 1553 2931 
Q 1166 2931 1000 2803 
Q 834 2675 834 2503 
Q 834 2394 903 2306 
Q 972 2216 1119 2156 
Q 1203 2125 1616 2013 
Q 2213 1853 2448 1751 
Q 2684 1650 2818 1456 
Q 2953 1263 2953 975 
Q 2953 694 2789 445 
Q 2625 197 2315 61 
Q 2006 -75 1616 -75 
Q 969 -75 630 194 
Q 291 463 197 991 
z
" transform="scale(0.015625)"/>
      </defs>
      <use xlink:href="#ArialMT-49"/>
      <use xlink:href="#ArialMT-4c" transform="translate(27.78125 0)"/>
      <use xlink:href="#ArialMT-55" transform="translate(50 0)"/>
      <use xlink:href="#ArialMT-56" transform="translate(83.296875 0)"/>
      <use xlink:href="#ArialMT-57" transform="translate(133.296875 0)"/>
     </g>
    </g>
   </g>
  </g>
 </g>
 <defs>
  <clipPath id="p666c9eba5e">
   <rect x="47.298945" y="20.392383" width="379.201328" height="279.430273"/>
  </clipPath>
 </defs>
</svg>
