<?xml version="1.0" encoding="utf-8" standalone="no"?>
<!DOCTYPE svg PUBLIC "-//W3C//DTD SVG 1.1//EN"
  "http://www.w3.org/Graphics/SVG/1.1/DTD/svg11.dtd">
<svg xmlns:xlink="http://www.w3.org/1999/xlink" width="449.270898pt" height="340.800273pt" viewBox="0 0 449.270898 340.800273" xmlns="http://www.w3.org/2000/svg" version="1.1">
 <metadata>
  <rdf:RDF xmlns:dc="http://purl.org/dc/elements/1.1/" xmlns:cc="http://creativecommons.org/ns#" xmlns:rdf="http://www.w3.org/1999/02/22-rdf-syntax-ns#">
   <cc:Work>
    <dc:type rdf:resource="http://purl.org/dc/dcmitype/StillImage"/>
    <dc:date>2026-07-09T17:08:17.298590</dc:date>
    <dc:format>image/svg+xml</dc:format>
    <dc:creator>
     <cc:Agent>
      <dc:title>Matplotlib v3.11.0, https://matplotlib.org/</dc:title>
     </cc:Agent>
    </dc:creator>
   </cc:Work>
  </rdf:RDF>
 </metadata>
 <defs>
  <style type="text/css">*{stroke-linejoin: round; stroke-linecap: butt}</style>
 </defs>
 <g id="figure_1">
  <g id="patch_1">
   <path d="M 0 340.800273 
L 449.270898 340.800273 
L 449.270898 0 
L 0 0 
z
" style="fill: #ffffff"/>
  </g>
  <g id="axes_1">
   <g id="patch_2">
    <path d="M 47.298945 299.822656 
L 426.500273 299.822656 
L 426.500273 20.392383 
L 47.298945 20.392383 
z
" style="fill: #ffffff"/>
   </g>
   <g id="matplotlib.axis_1">
    <g id="xtick_1">
     <g id="line2d_1">
      <defs>
       <path id="m5135eb5195" d="M 0 0 
L 0 -6 
" style="stroke: #000000; stroke-width: 1.5"/>
      </defs>
      <g>
       <use xlink:href="#m5135eb5195" x="47.298945" y="299.822656" style="stroke: #000000; stroke-width: 1.5"/>
      </g>
     </g>
     <g id="text_1">
      <!-- 0 -->
      <g transform="translate(43.406289 313.515039) scale(0.14 -0.14)">
       <defs>
        <path id="ArialMT-13" d="M 266 2259 
Q 266 3072 433 3567 
Q 600 4063 929 4331 
Q 1259 4600 1759 4600 
Q 2128 4600 2406 4451 
Q 2684 4303 2865 4023 
Q 3047 3744 3150 3342 
Q 3253 2941 3253 2259 
Q 3253 1453 3087 958 
Q 2922 463 2592 192 
Q 2263 -78 1759 -78 
Q 1097 -78 719 397 
Q 266 969 266 2259 
z
M 844 2259 
Q 844 1131 1108 757 
Q 1372 384 1759 384 
Q 2147 384 2411 759 
Q 2675 1134 2675 2259 
Q 2675 3391 2411 3762 
Q 2147 4134 1753 4134 
Q 1366 4134 1134 3806 
Q 844 3388 844 2259 
z
" transform="scale(0.015625)"/>
       </defs>
       <use xlink:href="#ArialMT-13"/>
      </g>
     </g>
    </g>
    <g id="xtick_2">
     <g id="line2d_2">
      <g>
       <use xlink:href="#m5135eb5195" x="110.499167" y="299.822656" style="stroke: #000000; stroke-width: 1.5"/>
      </g>
     </g>
     <g id="text_2">
      <!-- 200 -->
      <g transform="translate(98.821198 313.515039) scale(0.14 -0.14)">
       <defs>
        <path id="ArialMT-15" d="M 3222 541 
L 3222 0 
L 194 0 
Q 188 203 259 391 
Q 375 700 629 1000 
Q 884 1300 1366 1694 
Q 2113 2306 2375 2664 
Q 2638 3022 2638 3341 
Q 2638 3675 2398 3904 
Q 2159 4134 1775 4134 
Q 1369 4134 1125 3890 
Q 881 3647 878 3216 
L 300 3275 
Q 359 3922 746 4261 
Q 1134 4600 1788 4600 
Q 2447 4600 2831 4234 
Q 3216 3869 3216 3328 
Q 3216 3053 3103 2787 
Q 2991 2522 2730 2228 
Q 2469 1934 1863 1422 
Q 1356 997 1212 845 
Q 1069 694 975 541 
L 3222 541 
z
" transform="scale(0.015625)"/>
       </defs>
       <use xlink:href="#ArialMT-15"/>
       <use xlink:href="#ArialMT-13" transform="translate(55.609375 0)"/>
       <use xlink:href="#ArialMT-13" transform="translate(111.21875 0)"/>
      </g>
     </g>
    </g>
    <g id="xtick_3">
     <g id="line2d_3">
      <g>
       <use xlink:href="#m5135eb5195" x="173.699388" y="299.822656" style="stroke: #000000; stroke-width: 1.5"/>
      </g>
     </g>
     <g id="text_3">
      <!-- 400 -->
      <g transform="translate(162.021419 313.515039) scale(0.14 -0.14)">
       <defs>
        <path id="ArialMT-17" d="M 2069 0 
L 2069 1097 
L 81 1097 
L 81 1613 
L 2172 4581 
L 2631 4581 
L 2631 1613 
L 3250 1613 
L 3250 1097 
L 2631 1097 
L 2631 0 
L 2069 0 
z
M 2069 1613 
L 2069 3678 
L 634 1613 
L 2069 1613 
z
" transform="scale(0.015625)"/>
       </defs>
       <use xlink:href="#ArialMT-17"/>
       <use xlink:href="#ArialMT-13" transform="translate(55.609375 0)"/>
       <use xlink:href="#ArialMT-13" transform="translate(111.21875 0)"/>
      </g>
     </g>
    </g>
    <g id="xtick_4">
     <g id="line2d_4">
      <g>
       <use xlink:href="#m5135eb5195" x="236.899609" y="299.822656" style="stroke: #000000; stroke-width: 1.5"/>
      </g>
     </g>
     <g id="text_4">
      <!-- 600 -->
      <g transform="translate(225.221641 313.515039) scale(0.14 -0.14)">
       <defs>
        <path id="ArialMT-19" d="M 3184 3459 
L 2625 3416 
Q 2550 3747 2413 3897 
Q 2184 4138 1850 4138 
Q 1581 4138 1378 3988 
Q 1113 3794 959 3422 
Q 806 3050 800 2363 
Q 1003 2672 1297 2822 
Q 1591 2972 1913 2972 
Q 2475 2972 2870 2558 
Q 3266 2144 3266 1488 
Q 3266 1056 3080 686 
Q 2894 316 2569 119 
Q 2244 -78 1831 -78 
Q 1128 -78 684 439 
Q 241 956 241 2144 
Q 241 3472 731 4075 
Q 1159 4600 1884 4600 
Q 2425 4600 2770 4297 
Q 3116 3994 3184 3459 
z
M 888 1484 
Q 888 1194 1011 928 
Q 1134 663 1356 523 
Q 1578 384 1822 384 
Q 2178 384 2434 671 
Q 2691 959 2691 1453 
Q 2691 1928 2437 2201 
Q 2184 2475 1800 2475 
Q 1419 2475 1153 2201 
Q 888 1928 888 1484 
z
" transform="scale(0.015625)"/>
       </defs>
       <use xlink:href="#ArialMT-19"/>
       <use xlink:href="#ArialMT-13" transform="translate(55.609375 0)"/>
       <use xlink:href="#ArialMT-13" transform="translate(111.21875 0)"/>
      </g>
     </g>
    </g>
    <g id="xtick_5">
     <g id="line2d_5">
      <g>
       <use xlink:href="#m5135eb5195" x="300.099831" y="299.822656" style="stroke: #000000; stroke-width: 1.5"/>
      </g>
     </g>
     <g id="text_5">
      <!-- 800 -->
      <g transform="translate(288.421862 313.515039) scale(0.14 -0.14)">
       <defs>
        <path id="ArialMT-1b" d="M 1131 2484 
Q 781 2613 612 2850 
Q 444 3088 444 3419 
Q 444 3919 803 4259 
Q 1163 4600 1759 4600 
Q 2359 4600 2725 4251 
Q 3091 3903 3091 3403 
Q 3091 3084 2923 2848 
Q 2756 2613 2416 2484 
Q 2838 2347 3058 2040 
Q 3278 1734 3278 1309 
Q 3278 722 2862 322 
Q 2447 -78 1769 -78 
Q 1091 -78 675 323 
Q 259 725 259 1325 
Q 259 1772 486 2073 
Q 713 2375 1131 2484 
z
M 1019 3438 
Q 1019 3113 1228 2906 
Q 1438 2700 1772 2700 
Q 2097 2700 2305 2904 
Q 2513 3109 2513 3406 
Q 2513 3716 2298 3927 
Q 2084 4138 1766 4138 
Q 1444 4138 1231 3931 
Q 1019 3725 1019 3438 
z
M 838 1322 
Q 838 1081 952 856 
Q 1066 631 1291 507 
Q 1516 384 1775 384 
Q 2178 384 2440 643 
Q 2703 903 2703 1303 
Q 2703 1709 2433 1975 
Q 2163 2241 1756 2241 
Q 1359 2241 1098 1978 
Q 838 1716 838 1322 
z
" transform="scale(0.015625)"/>
       </defs>
       <use xlink:href="#ArialMT-1b"/>
       <use xlink:href="#ArialMT-13" transform="translate(55.609375 0)"/>
       <use xlink:href="#ArialMT-13" transform="translate(111.21875 0)"/>
      </g>
     </g>
    </g>
    <g id="xtick_6">
     <g id="line2d_6">
      <g>
       <use xlink:href="#m5135eb5195" x="363.300052" y="299.822656" style="stroke: #000000; stroke-width: 1.5"/>
      </g>
     </g>
     <g id="text_6">
      <!-- 1000 -->
      <g transform="translate(347.729427 313.515039) scale(0.14 -0.14)">
       <defs>
        <path id="ArialMT-14" d="M 2384 0 
L 1822 0 
L 1822 3584 
Q 1619 3391 1289 3197 
Q 959 3003 697 2906 
L 697 3450 
Q 1169 3672 1522 3987 
Q 1875 4303 2022 4600 
L 2384 4600 
L 2384 0 
z
" transform="scale(0.015625)"/>
       </defs>
       <use xlink:href="#ArialMT-14"/>
       <use xlink:href="#ArialMT-13" transform="translate(55.609375 0)"/>
       <use xlink:href="#ArialMT-13" transform="translate(111.21875 0)"/>
       <use xlink:href="#ArialMT-13" transform="translate(166.828125 0)"/>
      </g>
     </g>
    </g>
    <g id="xtick_7">
     <g id="line2d_7">
      <g>
       <use xlink:href="#m5135eb5195" x="426.500273" y="299.822656" style="stroke: #000000; stroke-width: 1.5"/>
      </g>
     </g>
     <g id="text_7">
      <!-- 1200 -->
      <g transform="translate(410.929648 313.515039) scale(0.14 -0.14)">
       <use xlink:href="#ArialMT-14"/>
       <use xlink:href="#ArialMT-15" transform="translate(55.609375 0)"/>
       <use xlink:href="#ArialMT-13" transform="translate(111.21875 0)"/>
       <use xlink:href="#ArialMT-13" transform="translate(166.828125 0)"/>
      </g>
     </g>
    </g>
    <g id="text_8">
     <!-- T1 Temperature (°C) -->
     <g transform="translate(173.160234 330.653711) scale(0.14 -0.14)">
      <defs>
       <path id="ArialMT-37" d="M 1659 0 
L 1659 4041 
L 150 4041 
L 150 4581 
L 3781 4581 
L 3781 4041 
L 2266 4041 
L 2266 0 
L 1659 0 
z
" transform="scale(0.015625)"/>
       <path id="ArialMT-3" transform="scale(0.015625)"/>
       <path id="ArialMT-48" d="M 2694 1069 
L 3275 997 
Q 3138 488 2766 206 
Q 2394 -75 1816 -75 
Q 1088 -75 661 373 
Q 234 822 234 1631 
Q 234 2469 665 2931 
Q 1097 3394 1784 3394 
Q 2450 3394 2872 2941 
Q 3294 2488 3294 1666 
Q 3294 1616 3291 1516 
L 816 1516 
Q 847 969 1125 678 
Q 1403 388 1819 388 
Q 2128 388 2347 550 
Q 2566 713 2694 1069 
z
M 847 1978 
L 2700 1978 
Q 2663 2397 2488 2606 
Q 2219 2931 1791 2931 
Q 1403 2931 1139 2672 
Q 875 2413 847 1978 
z
" transform="scale(0.015625)"/>
       <path id="ArialMT-50" d="M 422 0 
L 422 3319 
L 925 3319 
L 925 2853 
Q 1081 3097 1340 3245 
Q 1600 3394 1931 3394 
Q 2300 3394 2536 3241 
Q 2772 3088 2869 2813 
Q 3263 3394 3894 3394 
Q 4388 3394 4653 3120 
Q 4919 2847 4919 2278 
L 4919 0 
L 4359 0 
L 4359 2091 
Q 4359 2428 4304 2576 
Q 4250 2725 4106 2815 
Q 3963 2906 3769 2906 
Q 3419 2906 3187 2673 
Q 2956 2441 2956 1928 
L 2956 0 
L 2394 0 
L 2394 2156 
Q 2394 2531 2256 2718 
Q 2119 2906 1806 2906 
Q 1569 2906 1367 2781 
Q 1166 2656 1075 2415 
Q 984 2175 984 1722 
L 984 0 
L 422 0 
z
" transform="scale(0.015625)"/>
       <path id="ArialMT-53" d="M 422 -1272 
L 422 3319 
L 934 3319 
L 934 2888 
Q 1116 3141 1344 3267 
Q 1572 3394 1897 3394 
Q 2322 3394 2647 3175 
Q 2972 2956 3137 2557 
Q 3303 2159 3303 1684 
Q 3303 1175 3120 767 
Q 2938 359 2589 142 
Q 2241 -75 1856 -75 
Q 1575 -75 1351 44 
Q 1128 163 984 344 
L 984 -1272 
L 422 -1272 
z
M 931 1641 
Q 931 1000 1190 694 
Q 1450 388 1819 388 
Q 2194 388 2461 705 
Q 2728 1022 2728 1688 
Q 2728 2322 2467 2637 
Q 2206 2953 1844 2953 
Q 1484 2953 1207 2617 
Q 931 2281 931 1641 
z
" transform="scale(0.015625)"/>
       <path id="ArialMT-55" d="M 416 0 
L 416 3319 
L 922 3319 
L 922 2816 
Q 1116 3169 1280 3281 
Q 1444 3394 1641 3394 
Q 1925 3394 2219 3213 
L 2025 2691 
Q 1819 2813 1613 2813 
Q 1428 2813 1281 2702 
Q 1134 2591 1072 2394 
Q 978 2094 978 1738 
L 978 0 
L 416 0 
z
" transform="scale(0.015625)"/>
       <path id="ArialMT-44" d="M 2588 409 
Q 2275 144 1986 34 
Q 1697 -75 1366 -75 
Q 819 -75 525 192 
Q 231 459 231 875 
Q 231 1119 342 1320 
Q 453 1522 633 1644 
Q 813 1766 1038 1828 
Q 1203 1872 1538 1913 
Q 2219 1994 2541 2106 
Q 2544 2222 2544 2253 
Q 2544 2597 2384 2738 
Q 2169 2928 1744 2928 
Q 1347 2928 1158 2789 
Q 969 2650 878 2297 
L 328 2372 
Q 403 2725 575 2942 
Q 747 3159 1072 3276 
Q 1397 3394 1825 3394 
Q 2250 3394 2515 3294 
Q 2781 3194 2906 3042 
Q 3031 2891 3081 2659 
Q 3109 2516 3109 2141 
L 3109 1391 
Q 3109 606 3145 398 
Q 3181 191 3288 0 
L 2700 0 
Q 2613 175 2588 409 
z
M 2541 1666 
Q 2234 1541 1622 1453 
Q 1275 1403 1131 1340 
Q 988 1278 909 1158 
Q 831 1038 831 891 
Q 831 666 1001 516 
Q 1172 366 1500 366 
Q 1825 366 2078 508 
Q 2331 650 2450 897 
Q 2541 1088 2541 1459 
L 2541 1666 
z
" transform="scale(0.015625)"/>
       <path id="ArialMT-57" d="M 1650 503 
L 1731 6 
Q 1494 -44 1306 -44 
Q 1000 -44 831 53 
Q 663 150 594 308 
Q 525 466 525 972 
L 525 2881 
L 113 2881 
L 113 3319 
L 525 3319 
L 525 4141 
L 1084 4478 
L 1084 3319 
L 1650 3319 
L 1650 2881 
L 1084 2881 
L 1084 941 
Q 1084 700 1114 631 
Q 1144 563 1211 522 
Q 1278 481 1403 481 
Q 1497 481 1650 503 
z
" transform="scale(0.015625)"/>
       <path id="ArialMT-58" d="M 2597 0 
L 2597 488 
Q 2209 -75 1544 -75 
Q 1250 -75 995 37 
Q 741 150 617 320 
Q 494 491 444 738 
Q 409 903 409 1263 
L 409 3319 
L 972 3319 
L 972 1478 
Q 972 1038 1006 884 
Q 1059 663 1231 536 
Q 1403 409 1656 409 
Q 1909 409 2131 539 
Q 2353 669 2445 892 
Q 2538 1116 2538 1541 
L 2538 3319 
L 3100 3319 
L 3100 0 
L 2597 0 
z
" transform="scale(0.015625)"/>
       <path id="ArialMT-b" d="M 1497 -1347 
Q 1031 -759 709 28 
Q 388 816 388 1659 
Q 388 2403 628 3084 
Q 909 3875 1497 4659 
L 1900 4659 
Q 1522 4009 1400 3731 
Q 1209 3300 1100 2831 
Q 966 2247 966 1656 
Q 966 153 1900 -1347 
L 1497 -1347 
z
" transform="scale(0.015625)"/>
       <path id="ArialMT-83" d="M 400 3794 
Q 400 4153 654 4406 
Q 909 4659 1266 4659 
Q 1628 4659 1881 4406 
Q 2134 4153 2134 3794 
Q 2134 3434 1879 3179 
Q 1625 2925 1266 2925 
Q 909 2925 654 3178 
Q 400 3431 400 3794 
z
M 741 3794 
Q 741 3575 895 3420 
Q 1050 3266 1269 3266 
Q 1484 3266 1639 3420 
Q 1794 3575 1794 3794 
Q 1794 4013 1639 4167 
Q 1484 4322 1269 4322 
Q 1050 4322 895 4167 
Q 741 4013 741 3794 
z
" transform="scale(0.015625)"/>
       <path id="ArialMT-26" d="M 3763 1606 
L 4369 1453 
Q 4178 706 3683 314 
Q 3188 -78 2472 -78 
Q 1731 -78 1267 223 
Q 803 525 561 1097 
Q 319 1669 319 2325 
Q 319 3041 592 3573 
Q 866 4106 1370 4382 
Q 1875 4659 2481 4659 
Q 3169 4659 3637 4309 
Q 4106 3959 4291 3325 
L 3694 3184 
Q 3534 3684 3231 3912 
Q 2928 4141 2469 4141 
Q 1941 4141 1586 3887 
Q 1231 3634 1087 3207 
Q 944 2781 944 2328 
Q 944 1744 1114 1308 
Q 1284 872 1643 656 
Q 2003 441 2422 441 
Q 2931 441 3284 734 
Q 3638 1028 3763 1606 
z
" transform="scale(0.015625)"/>
       <path id="ArialMT-c" d="M 791 -1347 
L 388 -1347 
Q 1322 153 1322 1656 
Q 1322 2244 1188 2822 
Q 1081 3291 891 3722 
Q 769 4003 388 4659 
L 791 4659 
Q 1378 3875 1659 3084 
Q 1900 2403 1900 1659 
Q 1900 816 1576 28 
Q 1253 -759 791 -1347 
z
" transform="scale(0.015625)"/>
      </defs>
      <use xlink:href="#ArialMT-37"/>
      <use xlink:href="#ArialMT-14" transform="translate(61.078125 0)"/>
      <use xlink:href="#ArialMT-3" transform="translate(116.6875 0)"/>
      <use xlink:href="#ArialMT-37" transform="translate(142.65625 0)"/>
      <use xlink:href="#ArialMT-48" transform="translate(192.65625 0)"/>
      <use xlink:href="#ArialMT-50" transform="translate(248.265625 0)"/>
      <use xlink:href="#ArialMT-53" transform="translate(331.5625 0)"/>
      <use xlink:href="#ArialMT-48" transform="translate(387.171875 0)"/>
      <use xlink:href="#ArialMT-55" transform="translate(442.78125 0)"/>
      <use xlink:href="#ArialMT-44" transform="translate(476.078125 0)"/>
      <use xlink:href="#ArialMT-57" transform="translate(531.6875 0)"/>
      <use xlink:href="#ArialMT-58" transform="translate(559.46875 0)"/>
      <use xlink:href="#ArialMT-55" transform="translate(615.078125 0)"/>
      <use xlink:href="#ArialMT-48" transform="translate(648.375 0)"/>
      <use xlink:href="#ArialMT-3" transform="translate(703.984375 0)"/>
      <use xlink:href="#ArialMT-b" transform="translate(731.765625 0)"/>
      <use xlink:href="#ArialMT-83" transform="translate(765.0625 0)"/>
      <use xlink:href="#ArialMT-26" transform="translate(805.046875 0)"/>
      <use xlink:href="#ArialMT-c" transform="translate(877.265625 0)"/>
     </g>
    </g>
   </g>
   <g id="matplotlib.axis_2">
    <g id="ytick_1">
     <g id="line2d_8">
      <defs>
       <path id="m6b46e5b303" d="M 0 0 
L 6 0 
" style="stroke: #000000; stroke-width: 1.5"/>
      </defs>
      <g>
       <use xlink:href="#m6b46e5b303" x="47.298945" y="296.983739" style="stroke: #000000; stroke-width: 1.5"/>
      </g>
     </g>
     <g id="text_9">
      <!-- 0.0 -->
      <g transform="translate(24.338945 302.079931) scale(0.14 -0.14)">
       <defs>
        <path id="ArialMT-11" d="M 581 0 
L 581 641 
L 1222 641 
L 1222 0 
L 581 0 
z
" transform="scale(0.015625)"/>
       </defs>
       <use xlink:href="#ArialMT-13"/>
       <use xlink:href="#ArialMT-11" transform="translate(55.609375 0)"/>
       <use xlink:href="#ArialMT-13" transform="translate(83.390625 0)"/>
      </g>
     </g>
    </g>
    <g id="ytick_2">
     <g id="line2d_9">
      <g>
       <use xlink:href="#m6b46e5b303" x="47.298945" y="256.859712" style="stroke: #000000; stroke-width: 1.5"/>
      </g>
     </g>
     <g id="text_10">
      <!-- 0.2 -->
      <g transform="translate(24.338945 261.955903) scale(0.14 -0.14)">
       <use xlink:href="#ArialMT-13"/>
       <use xlink:href="#ArialMT-11" transform="translate(55.609375 0)"/>
       <use xlink:href="#ArialMT-15" transform="translate(83.390625 0)"/>
      </g>
     </g>
    </g>
    <g id="ytick_3">
     <g id="line2d_10">
      <g>
       <use xlink:href="#m6b46e5b303" x="47.298945" y="216.735684" style="stroke: #000000; stroke-width: 1.5"/>
      </g>
     </g>
     <g id="text_11">
      <!-- 0.4 -->
      <g transform="translate(24.338945 221.831876) scale(0.14 -0.14)">
       <use xlink:href="#ArialMT-13"/>
       <use xlink:href="#ArialMT-11" transform="translate(55.609375 0)"/>
       <use xlink:href="#ArialMT-17" transform="translate(83.390625 0)"/>
      </g>
     </g>
    </g>
    <g id="ytick_4">
     <g id="line2d_11">
      <g>
       <use xlink:href="#m6b46e5b303" x="47.298945" y="176.611657" style="stroke: #000000; stroke-width: 1.5"/>
      </g>
     </g>
     <g id="text_12">
      <!-- 0.6 -->
      <g transform="translate(24.338945 181.707848) scale(0.14 -0.14)">
       <use xlink:href="#ArialMT-13"/>
       <use xlink:href="#ArialMT-11" transform="translate(55.609375 0)"/>
       <use xlink:href="#ArialMT-19" transform="translate(83.390625 0)"/>
      </g>
     </g>
    </g>
    <g id="ytick_5">
     <g id="line2d_12">
      <g>
       <use xlink:href="#m6b46e5b303" x="47.298945" y="136.487629" style="stroke: #000000; stroke-width: 1.5"/>
      </g>
     </g>
     <g id="text_13">
      <!-- 0.8 -->
      <g transform="translate(24.338945 141.58382) scale(0.14 -0.14)">
       <use xlink:href="#ArialMT-13"/>
       <use xlink:href="#ArialMT-11" transform="translate(55.609375 0)"/>
       <use xlink:href="#ArialMT-1b" transform="translate(83.390625 0)"/>
      </g>
     </g>
    </g>
    <g id="ytick_6">
     <g id="line2d_13">
      <g>
       <use xlink:href="#m6b46e5b303" x="47.298945" y="96.363601" style="stroke: #000000; stroke-width: 1.5"/>
      </g>
     </g>
     <g id="text_14">
      <!-- 1.0 -->
      <g transform="translate(24.338945 101.459793) scale(0.14 -0.14)">
       <use xlink:href="#ArialMT-14"/>
       <use xlink:href="#ArialMT-11" transform="translate(55.609375 0)"/>
       <use xlink:href="#ArialMT-13" transform="translate(83.390625 0)"/>
      </g>
     </g>
    </g>
    <g id="ytick_7">
     <g id="line2d_14">
      <g>
       <use xlink:href="#m6b46e5b303" x="47.298945" y="56.239574" style="stroke: #000000; stroke-width: 1.5"/>
      </g>
     </g>
     <g id="text_15">
      <!-- 1.2 -->
      <g transform="translate(24.338945 61.335765) scale(0.14 -0.14)">
       <use xlink:href="#ArialMT-14"/>
       <use xlink:href="#ArialMT-11" transform="translate(55.609375 0)"/>
       <use xlink:href="#ArialMT-15" transform="translate(83.390625 0)"/>
      </g>
     </g>
    </g>
    <g id="text_16">
     <!-- Ion Current (m/z 2) -->
     <g transform="translate(17.392383 218.840801) rotate(-90) scale(0.14 -0.14)">
      <defs>
       <path id="ArialMT-2c" d="M 597 0 
L 597 4581 
L 1203 4581 
L 1203 0 
L 597 0 
z
" transform="scale(0.015625)"/>
       <path id="ArialMT-52" d="M 213 1659 
Q 213 2581 725 3025 
Q 1153 3394 1769 3394 
Q 2453 3394 2887 2945 
Q 3322 2497 3322 1706 
Q 3322 1066 3130 698 
Q 2938 331 2570 128 
Q 2203 -75 1769 -75 
Q 1072 -75 642 372 
Q 213 819 213 1659 
z
M 791 1659 
Q 791 1022 1069 705 
Q 1347 388 1769 388 
Q 2188 388 2466 706 
Q 2744 1025 2744 1678 
Q 2744 2294 2464 2611 
Q 2184 2928 1769 2928 
Q 1347 2928 1069 2612 
Q 791 2297 791 1659 
z
" transform="scale(0.015625)"/>
       <path id="ArialMT-51" d="M 422 0 
L 422 3319 
L 928 3319 
L 928 2847 
Q 1294 3394 1984 3394 
Q 2284 3394 2536 3286 
Q 2788 3178 2913 3003 
Q 3038 2828 3088 2588 
Q 3119 2431 3119 2041 
L 3119 0 
L 2556 0 
L 2556 2019 
Q 2556 2363 2490 2533 
Q 2425 2703 2258 2804 
Q 2091 2906 1866 2906 
Q 1506 2906 1245 2678 
Q 984 2450 984 1813 
L 984 0 
L 422 0 
z
" transform="scale(0.015625)"/>
       <path id="ArialMT-12" d="M 0 -78 
L 1328 4659 
L 1778 4659 
L 453 -78 
L 0 -78 
z
" transform="scale(0.015625)"/>
       <path id="ArialMT-5d" d="M 125 0 
L 125 456 
L 2238 2881 
Q 1878 2863 1603 2863 
L 250 2863 
L 250 3319 
L 2963 3319 
L 2963 2947 
L 1166 841 
L 819 456 
Q 1197 484 1528 484 
L 3063 484 
L 3063 0 
L 125 0 
z
" transform="scale(0.015625)"/>
      </defs>
      <use xlink:href="#ArialMT-2c"/>
      <use xlink:href="#ArialMT-52" transform="translate(27.78125 0)"/>
      <use xlink:href="#ArialMT-51" transform="translate(83.390625 0)"/>
      <use xlink:href="#ArialMT-3" transform="translate(139 0)"/>
      <use xlink:href="#ArialMT-26" transform="translate(166.78125 0)"/>
      <use xlink:href="#ArialMT-58" transform="translate(239 0)"/>
      <use xlink:href="#ArialMT-55" transform="translate(294.609375 0)"/>
      <use xlink:href="#ArialMT-55" transform="translate(327.90625 0)"/>
      <use xlink:href="#ArialMT-48" transform="translate(361.203125 0)"/>
      <use xlink:href="#ArialMT-51" transform="translate(416.8125 0)"/>
      <use xlink:href="#ArialMT-57" transform="translate(472.421875 0)"/>
      <use xlink:href="#ArialMT-3" transform="translate(500.203125 0)"/>
      <use xlink:href="#ArialMT-b" transform="translate(527.984375 0)"/>
      <use xlink:href="#ArialMT-50" transform="translate(561.28125 0)"/>
      <use xlink:href="#ArialMT-12" transform="translate(644.578125 0)"/>
      <use xlink:href="#ArialMT-5d" transform="translate(672.359375 0)"/>
      <use xlink:href="#ArialMT-3" transform="translate(722.359375 0)"/>
      <use xlink:href="#ArialMT-15" transform="translate(750.140625 0)"/>
      <use xlink:href="#ArialMT-c" transform="translate(805.75 0)"/>
     </g>
    </g>
    <g id="text_17">
     <!-- 1e−9 -->
     <g transform="translate(47.298945 17.392383) scale(0.14 -0.14)">
      <defs>
       <path id="ArialMT-ed" d="M 3381 1997 
L 356 1997 
L 356 2522 
L 3381 2522 
L 3381 1997 
z
" transform="scale(0.015625)"/>
       <path id="ArialMT-1c" d="M 350 1059 
L 891 1109 
Q 959 728 1153 556 
Q 1347 384 1650 384 
Q 1909 384 2104 503 
Q 2300 622 2425 820 
Q 2550 1019 2634 1356 
Q 2719 1694 2719 2044 
Q 2719 2081 2716 2156 
Q 2547 1888 2255 1720 
Q 1963 1553 1622 1553 
Q 1053 1553 659 1965 
Q 266 2378 266 3053 
Q 266 3750 677 4175 
Q 1088 4600 1706 4600 
Q 2153 4600 2523 4359 
Q 2894 4119 3086 3673 
Q 3278 3228 3278 2384 
Q 3278 1506 3087 986 
Q 2897 466 2520 194 
Q 2144 -78 1638 -78 
Q 1100 -78 759 220 
Q 419 519 350 1059 
z
M 2653 3081 
Q 2653 3566 2395 3850 
Q 2138 4134 1775 4134 
Q 1400 4134 1122 3828 
Q 844 3522 844 3034 
Q 844 2597 1108 2323 
Q 1372 2050 1759 2050 
Q 2150 2050 2401 2323 
Q 2653 2597 2653 3081 
z
" transform="scale(0.015625)"/>
      </defs>
      <use xlink:href="#ArialMT-14"/>
      <use xlink:href="#ArialMT-48" transform="translate(55.609375 0)"/>
      <use xlink:href="#ArialMT-ed" transform="translate(111.21875 0)"/>
      <use xlink:href="#ArialMT-1c" transform="translate(169.625 0)"/>
     </g>
    </g>
   </g>
   <g id="line2d_15">
    <path d="M 66.195811 285.349121 
L 66.164211 285.881825 
L 66.227412 285.612885 
L 66.922614 285.534824 
L 78.867456 285.82312 
L 82.343468 285.754278 
L 96.373917 285.720997 
L 98.775526 285.613469 
L 105.000747 285.577142 
L 107.497156 285.590401 
L 108.72956 285.615367 
L 111.162769 285.440598 
L 113.627578 285.372625 
L 116.092386 285.304904 
L 117.356391 285.444811 
L 123.518412 285.630431 
L 124.750817 285.695981 
L 127.278825 285.637193 
L 131.007638 285.595263 
L 134.673251 285.653982 
L 137.16966 285.510334 
L 143.331682 285.82509 
L 145.76489 285.766662 
L 149.462103 285.484988 
L 154.423321 285.64937 
L 156.888129 285.554789 
L 158.120533 285.480878 
L 164.345755 285.659458 
L 170.412977 285.593919 
L 172.909385 285.746384 
L 176.701399 285.692151 
L 177.965403 285.533552 
L 180.430212 285.452174 
L 181.631016 285.356193 
L 186.497433 285.56731 
L 188.993842 285.697663 
L 200.02228 285.518892 
L 203.719493 285.578641 
L 207.448306 285.499418 
L 209.881515 285.599922 
L 222.142358 285.401372 
L 224.638766 285.181992 
L 225.871171 285.04458 
L 227.008775 285.039791 
L 229.410383 284.800753 
L 233.170796 284.774305 
L 235.667205 284.741507 
L 243.030031 284.066503 
L 246.727244 283.969713 
L 249.192052 284.056291 
L 251.688461 284.142108 
L 257.850483 284.500172 
L 260.283691 284.793616 
L 262.7485 284.764012 
L 265.213309 284.811241 
L 267.678117 284.89137 
L 270.237726 284.849517 
L 272.670935 284.872656 
L 273.934939 284.778753 
L 275.135743 284.95447 
L 278.896156 285.065271 
L 283.825774 285.239877 
L 286.227382 285.155913 
L 287.459786 285.289616 
L 291.156999 285.189698 
L 293.590208 285.330999 
L 294.854212 285.416174 
L 298.519825 285.197566 
L 302.217038 285.337741 
L 303.386242 285.325386 
L 305.882651 285.524847 
L 307.083455 285.513723 
L 308.31586 285.312962 
L 312.013072 285.17829 
L 313.213877 285.199762 
L 315.710285 285.102514 
L 323.073111 285.172394 
L 325.47472 285.080858 
L 326.707124 284.991877 
L 327.971128 285.034791 
L 329.140332 284.958125 
L 330.435937 285.070183 
L 334.543951 285.205721 
L 335.807956 285.311274 
L 340.705973 285.090083 
L 351.829212 284.5917 
L 357.928033 284.658146 
L 361.498846 284.470527 
L 367.913668 284.036768 
L 371.452881 283.718035 
L 375.150094 283.456011 
L 376.256097 283.306885 
L 377.488502 283.267262 
L 382.449719 282.542756 
L 387.410937 281.002435 
L 391.044949 279.424746 
L 392.340554 278.813762 
L 393.383357 278.103721 
L 395.089763 277.303143 
L 397.712573 274.946784 
L 401.409786 270.215979 
L 402.515789 268.346538 
L 403.748194 266.0059 
L 406.244602 260.249842 
L 408.709411 252.688873 
L 410.036616 248.3053 
L 411.20582 243.058662 
L 413.512628 230.390513 
L 414.839833 222.888536 
L 417.367841 203.713676 
L 418.663446 192.307458 
L 419.67465 179.126946 
L 421.065054 163.989444 
L 424.699067 103.306852 
L 425.710271 76.947104 
L 425.710271 76.947104 
" clip-path="url(#p53371bfdbb)" style="fill: none; stroke: #000000; stroke-width: 2.5; stroke-linecap: square"/>
   </g>
   <g id="line2d_16">
    <path d="M 58.200983 285.622803 
L 58.200983 285.483337 
L 58.200983 285.576694 
L 58.358984 285.642291 
L 65.184608 285.689676 
L 68.53422 285.671465 
L 71.978632 285.531379 
L 78.203854 285.56648 
L 80.700262 285.697075 
L 87.020284 285.628107 
L 88.347489 285.544267 
L 90.875498 285.553215 
L 93.340307 285.439419 
L 95.773515 285.416919 
L 101.998737 285.753494 
L 104.495146 285.676927 
L 113.058776 285.164741 
L 115.586784 285.328588 
L 118.051593 285.442717 
L 119.315598 285.495749 
L 125.414419 285.303894 
L 132.966845 285.216089 
L 134.136049 285.234895 
L 137.833262 284.862889 
L 140.266471 284.723689 
L 141.562075 284.755077 
L 147.724097 283.950373 
L 151.42131 283.102368 
L 153.917719 282.562256 
L 155.150123 282.174584 
L 156.382527 281.917696 
L 160.11134 280.280471 
L 167.474166 276.623333 
L 169.907375 275.491451 
L 173.636188 273.290584 
L 176.132597 271.55233 
L 179.766609 268.19125 
L 182.294618 265.994401 
L 184.727827 263.385715 
L 185.960231 261.661615 
L 188.48824 257.012197 
L 192.122253 247.873505 
L 193.354657 244.757718 
L 194.618661 241.99529 
L 195.882666 239.671523 
L 197.05187 238.282813 
L 198.284274 237.450873 
L 199.516678 237.369665 
L 200.780683 238.437549 
L 202.044687 240.35449 
L 204.477896 246.093826 
L 205.6787 249.450507 
L 208.143509 255.380467 
L 209.375913 258.004405 
L 210.513517 260.019861 
L 213.009926 262.890366 
L 214.27393 263.891369 
L 215.474734 264.563114 
L 216.738739 265.005034 
L 217.971143 265.120915 
L 222.83756 263.894869 
L 226.534773 262.283455 
L 230.200386 259.846374 
L 232.728395 257.605504 
L 239.99642 252.39752 
L 241.292025 251.679213 
L 243.725233 249.895368 
L 244.989238 249.215023 
L 246.190042 248.765184 
L 247.454046 248.45211 
L 249.887255 248.272304 
L 251.151259 248.454078 
L 252.352063 248.813243 
L 256.080877 250.583296 
L 260.947294 253.478443 
L 263.443702 254.594566 
L 264.644507 255.281016 
L 265.876911 255.839226 
L 267.109315 256.243174 
L 268.40492 256.82329 
L 272.165333 258.171481 
L 273.397737 258.767553 
L 282.024567 264.056188 
L 286.954185 266.561304 
L 294.28541 269.356365 
L 296.718619 270.08654 
L 297.982623 270.303574 
L 299.246628 270.709977 
L 307.747058 272.315205 
L 313.877479 272.867708 
L 316.342288 273.11006 
L 318.838696 273.043085 
L 322.472709 272.726196 
L 323.736714 272.454922 
L 325.000718 272.309809 
L 326.138322 272.022005 
L 327.433926 271.830597 
L 332.711145 270.309062 
L 335.270754 269.491228 
L 336.503158 269.243095 
L 338.967967 269.434529 
L 340.168771 269.839983 
L 341.337975 270.407598 
L 345.129988 271.824956 
L 346.299193 271.978015 
L 347.563197 271.998045 
L 350.028006 271.726258 
L 352.429614 271.24714 
L 356.158427 271.003231 
L 358.654836 270.451898 
L 362.383649 268.800161 
L 367.155266 264.823058 
L 369.714875 262.409261 
L 372.116483 260.537375 
L 373.348887 259.848312 
L 374.518091 259.416055 
L 375.813696 259.139455 
L 376.9197 259.15165 
L 378.246904 259.447374 
L 383.144922 260.941774 
L 384.314126 261.068482 
L 386.747334 261.075269 
L 389.306943 260.586272 
L 391.708552 259.904641 
L 394.331361 258.589068 
L 395.784966 257.771219 
L 396.92257 256.767182 
L 398.344575 255.776377 
L 399.545379 254.422301 
L 402.010188 250.98622 
L 404.443396 246.547063 
L 405.770601 243.804398 
L 406.845005 240.752545 
L 408.203809 237.227997 
L 409.404614 233.149522 
L 410.415817 228.599131 
L 411.806222 223.070128 
L 414.334231 208.925307 
L 415.471835 200.563341 
L 417.968244 180.47844 
L 419.263848 168.301053 
L 421.665457 138.623844 
L 422.73986 120.408269 
L 424.225065 99.553466 
L 425.362669 75.768496 
L 425.362669 75.768496 
" clip-path="url(#p53371bfdbb)" style="fill: none; stroke: #1f77b4; stroke-width: 2.5; stroke-linecap: square"/>
   </g>
   <g id="line2d_17">
    <path d="M 58.011383 285.408548 
L 58.011383 285.197244 
L 58.011383 285.328545 
L 62.435398 285.199431 
L 66.669813 285.165505 
L 69.545423 285.227596 
L 70.683027 285.335637 
L 77.856252 285.11427 
L 80.321061 285.226577 
L 85.408679 285.237511 
L 89.390293 285.146926 
L 93.087506 285.331819 
L 95.552314 285.319584 
L 96.816319 285.161396 
L 100.513532 285.194449 
L 101.745936 285.057221 
L 105.474749 285.244451 
L 109.171962 285.365015 
L 111.636771 285.502843 
L 116.566388 285.360412 
L 118.999596 285.270585 
L 122.696809 285.32891 
L 131.41844 284.663628 
L 132.587644 284.645229 
L 135.115653 284.73465 
L 136.379657 284.749359 
L 142.478479 284.002061 
L 145.069688 283.654006 
L 148.7037 283.158138 
L 151.200109 282.618831 
L 156.098126 281.530375 
L 158.594535 280.648939 
L 161.027744 279.615764 
L 162.260148 279.067953 
L 163.492552 278.679063 
L 165.925761 277.760048 
L 167.158165 277.367224 
L 172.087782 275.09315 
L 175.879796 272.294707 
L 177.0806 271.208039 
L 178.407805 270.164253 
L 182.010217 266.428546 
L 183.242621 264.89053 
L 184.443426 262.728543 
L 185.70743 260.077987 
L 186.971435 257.057754 
L 188.172239 253.29449 
L 190.573847 244.320172 
L 194.27106 229.706796 
L 195.535064 225.919147 
L 196.735869 223.062154 
L 197.999873 221.776004 
L 199.232277 222.119564 
L 200.433082 223.78348 
L 201.602286 226.572104 
L 202.86629 230.425314 
L 205.362699 239.388816 
L 206.595103 243.80372 
L 209.059912 251.391606 
L 210.292316 254.297851 
L 211.46152 256.562173 
L 212.725525 258.170621 
L 213.957929 259.232275 
L 215.158733 260.047175 
L 216.454338 260.306733 
L 217.686742 260.243085 
L 218.887546 260.015609 
L 220.119951 259.614526 
L 221.352355 259.040737 
L 226.281972 255.709259 
L 228.715181 253.645995 
L 231.179989 251.184842 
L 232.380794 249.941362 
L 238.606015 242.607283 
L 241.007624 239.896162 
L 242.240028 238.798433 
L 243.440832 237.99476 
L 245.937241 236.895334 
L 247.138045 236.703324 
L 248.40205 236.780065 
L 249.666054 237.064501 
L 252.067662 238.827164 
L 253.394867 240.111988 
L 258.261284 246.27238 
L 259.462088 247.539555 
L 261.990097 249.640767 
L 263.127701 250.81402 
L 265.62411 252.665547 
L 266.856514 253.462648 
L 268.120519 254.447128 
L 270.648528 256.012868 
L 273.113336 257.21798 
L 275.609745 258.896998 
L 279.243758 260.764347 
L 280.507762 261.570094 
L 285.405779 263.96481 
L 286.638184 264.489814 
L 294.001009 266.435467 
L 296.529018 266.772751 
L 297.666622 267.010991 
L 300.163031 267.207735 
L 309.959065 266.907937 
L 314.888683 266.340722 
L 317.290291 266.214537 
L 318.522695 266.046767 
L 320.987504 266.024876 
L 322.219908 265.888251 
L 327.149525 266.651027 
L 329.582734 267.581986 
L 332.395144 268.262117 
L 339.91597 269.14174 
L 343.581583 269.522623 
L 344.845587 269.541765 
L 346.046392 269.361936 
L 348.448 269.349723 
L 355.874026 268.463344 
L 357.07483 268.112507 
L 358.307235 267.559935 
L 360.677243 266.797859 
L 362.004448 266.225392 
L 365.70166 264.059303 
L 366.902465 263.079284 
L 368.166469 261.777088 
L 370.568078 258.716099 
L 373.096086 256.413322 
L 374.328491 255.819884 
L 375.497695 255.547248 
L 376.698499 255.859577 
L 377.994104 256.40851 
L 379.226508 257.291436 
L 382.892121 259.271521 
L 384.124525 259.620418 
L 385.325329 259.806758 
L 386.399733 259.847842 
L 387.726938 259.701391 
L 391.424151 258.666262 
L 392.561755 258.092803 
L 393.952159 257.632592 
L 395.405765 256.750636 
L 396.796169 255.600563 
L 398.060174 254.261352 
L 400.493382 250.841287 
L 401.757387 248.543216 
L 405.4546 239.959082 
L 406.687004 236.422424 
L 409.120213 227.559868 
L 412.849026 209.420129 
L 414.01823 201.512824 
L 415.124234 192.410431 
L 416.483038 182.267991 
L 420.148651 143.266358 
L 421.412656 126.621149 
L 423.845864 85.856405 
L 425.173069 61.12723 
L 426.026272 33.093759 
L 426.026272 33.093759 
" clip-path="url(#p53371bfdbb)" style="fill: none; stroke: #0033ff; stroke-width: 2.5; stroke-linecap: square"/>
   </g>
   <g id="line2d_18">
    <path d="M 56.115376 287.055228 
L 56.146976 286.619906 
L 56.178576 286.732222 
L 56.273377 286.781734 
L 58.295784 286.832587 
L 64.710606 286.922919 
L 68.818621 286.867473 
L 72.326233 286.833276 
L 76.023446 286.83393 
L 78.519855 286.720171 
L 82.185468 286.764164 
L 84.745076 286.677888 
L 91.254699 286.701918 
L 94.920312 286.842603 
L 98.680725 286.805836 
L 103.578742 286.946027 
L 107.275955 286.774169 
L 111.004768 286.728619 
L 113.406377 286.768612 
L 114.607181 286.919671 
L 117.13519 286.911542 
L 123.297211 287.024856 
L 130.818038 286.549069 
L 133.219646 286.555528 
L 138.212464 286.419465 
L 141.878077 286.227071 
L 145.512089 286.029304 
L 148.103298 285.686598 
L 150.568107 285.235348 
L 156.666928 283.6211 
L 159.163337 282.807024 
L 161.628146 281.810813 
L 166.557763 279.364938 
L 176.416998 273.130105 
L 177.681002 272.171474 
L 180.08261 269.839413 
L 182.579019 267.31971 
L 183.843024 266.3177 
L 187.477036 262.520477 
L 188.709441 261.006037 
L 191.205849 257.082874 
L 192.406654 254.774538 
L 193.702258 252.584139 
L 194.871462 250.379288 
L 196.103866 248.638647 
L 197.304671 247.19178 
L 198.600275 246.328967 
L 199.83268 246.250351 
L 201.065084 246.811163 
L 202.297488 248.054522 
L 203.529893 249.717895 
L 205.994701 253.897692 
L 208.45951 258.267918 
L 210.829518 261.500349 
L 212.061922 262.76785 
L 213.325927 263.717161 
L 214.558331 264.469904 
L 217.02314 264.896555 
L 219.456348 264.996818 
L 220.688753 264.88883 
L 225.61837 263.199081 
L 226.850774 262.660125 
L 228.083178 261.741768 
L 230.516387 260.212375 
L 231.748791 259.366003 
L 232.981196 258.69617 
L 234.182 257.768805 
L 236.678409 256.111364 
L 241.608026 252.622885 
L 244.041234 251.268699 
L 245.273639 250.832802 
L 246.506043 250.515243 
L 252.668065 249.7324 
L 255.132873 250.03901 
L 257.566082 250.782149 
L 258.830086 251.669815 
L 262.495699 253.703827 
L 264.992108 254.618796 
L 266.192912 255.227091 
L 268.752521 256.237471 
L 269.984925 256.835209 
L 271.21733 257.756312 
L 276.178547 260.874347 
L 279.84416 263.261492 
L 283.541373 265.721972 
L 284.742177 266.514389 
L 287.238586 267.617067 
L 289.703394 268.906491 
L 292.136603 269.905822 
L 297.03462 271.641914 
L 299.499429 272.248625 
L 300.731833 272.774528 
L 304.397446 273.76695 
L 309.295463 274.613368 
L 311.791872 275.007419 
L 314.22508 275.360839 
L 315.425884 275.479348 
L 317.922293 275.894583 
L 321.556306 276.363708 
L 328.950732 276.926617 
L 330.214736 276.954179 
L 335.555155 276.720862 
L 336.819159 276.673146 
L 339.283968 276.381152 
L 350.217606 275.483994 
L 351.513211 275.262566 
L 353.946419 274.671122 
L 355.273624 274.352096 
L 357.643632 273.389965 
L 358.907637 272.679318 
L 360.108441 271.732681 
L 361.340845 270.614579 
L 367.502867 263.854834 
L 369.904475 261.803688 
L 371.16848 261.116992 
L 373.570088 260.472109 
L 377.267301 260.029767 
L 378.562906 259.819278 
L 382.260118 259.836822 
L 384.598527 260.056981 
L 385.925731 260.285791 
L 388.32734 260.322374 
L 391.992953 259.7546 
L 393.193757 259.248424 
L 396.100967 257.510547 
L 397.270171 256.548758 
L 399.82978 254.056001 
L 401.125385 252.463967 
L 403.590193 248.676863 
L 406.055002 243.286403 
L 408.45661 236.302667 
L 410.984619 226.906092 
L 414.618632 206.932671 
L 415.693036 197.910315 
L 417.178241 188.058346 
L 418.221044 176.58758 
L 419.548249 163.745557 
L 420.717453 148.860831 
L 423.119062 112.580609 
L 424.446266 90.768467 
L 425.58387 66.230541 
L 425.58387 66.230541 
" clip-path="url(#p53371bfdbb)" style="fill: none; stroke: #ff7f0e; stroke-width: 2.5; stroke-linecap: square"/>
   </g>
   <g id="line2d_19">
    <path d="M 66.227412 286.782937 
L 66.227412 287.053349 
L 66.227412 286.999624 
L 72.926635 287.028333 
L 76.465847 287.12128 
L 80.00506 287.001608 
L 82.375068 287.014878 
L 87.589086 286.98007 
L 97.606322 286.733487 
L 107.528756 286.935404 
L 109.993565 286.724284 
L 112.395173 286.577082 
L 117.387991 286.686466 
L 118.588795 286.785139 
L 123.518412 286.52981 
L 129.838434 286.382159 
L 130.976038 286.318576 
L 133.472447 285.965722 
L 135.905656 285.81123 
L 138.402064 285.579532 
L 150.789308 283.776093 
L 155.655725 282.450356 
L 159.416138 281.06614 
L 161.849347 280.240804 
L 164.314155 279.348655 
L 166.778964 278.216198 
L 169.338573 276.747184 
L 170.507777 276.07219 
L 171.708581 275.203033 
L 172.940985 274.541864 
L 176.732999 271.690512 
L 180.335411 267.757857 
L 181.631016 266.231983 
L 182.86342 264.572606 
L 184.127425 262.388048 
L 185.296629 259.970631 
L 186.529033 256.690962 
L 187.761437 252.686488 
L 188.962241 247.668292 
L 190.226246 241.739329 
L 191.45865 234.648838 
L 193.891859 217.18096 
L 196.356667 198.481164 
L 197.589072 190.414033 
L 198.853076 183.370432 
L 200.08548 178.185611 
L 201.286285 175.04404 
L 202.518689 174.22334 
L 203.751093 175.015249 
L 204.983498 177.500968 
L 206.184302 181.165103 
L 207.448306 185.942062 
L 211.113919 201.884958 
L 213.547128 209.942532 
L 214.811132 212.641685 
L 216.011936 214.396648 
L 217.275941 215.2726 
L 218.476745 215.425815 
L 219.740749 215.050087 
L 220.973154 214.244982 
L 222.205558 212.987072 
L 223.406362 211.234353 
L 224.638766 209.005443 
L 225.839571 206.470996 
L 228.335979 199.767205 
L 229.568384 195.900408 
L 233.265597 182.439699 
L 235.667205 172.206034 
L 238.132014 161.564708 
L 242.966831 139.349277 
L 245.494839 130.74588 
L 246.727244 127.632401 
L 247.928048 125.96518 
L 249.192052 125.735328 
L 250.424457 126.602504 
L 251.751661 128.659072 
L 252.952466 131.611602 
L 254.18487 135.899857 
L 255.417274 140.742703 
L 261.516096 168.271239 
L 264.044104 177.337184 
L 265.181708 181.252755 
L 266.414113 184.974186 
L 267.709717 187.973249 
L 270.269326 192.681088 
L 271.47013 194.8395 
L 280.065361 208.132473 
L 282.530169 211.086963 
L 285.058178 213.789414 
L 287.459786 216.479698 
L 288.755391 217.737724 
L 293.590208 221.568117 
L 297.319021 223.748555 
L 301.016234 225.027099 
L 303.481043 225.039129 
L 304.681847 225.414408 
L 308.37906 225.789563 
L 310.812268 226.259984 
L 316.97429 226.573132 
L 319.407498 226.31998 
L 321.840707 226.452793 
L 326.738724 226.452078 
L 329.140332 226.426981 
L 330.435937 226.267562 
L 331.984342 225.960958 
L 338.272764 223.809465 
L 339.536769 223.505027 
L 341.969977 223.202964 
L 343.170782 222.727527 
L 345.63559 221.341779 
L 348.100399 220.456402 
L 349.332803 220.087632 
L 350.470407 220.04553 
L 354.16762 221.88338 
L 359.160438 224.833535 
L 360.392842 225.815092 
L 361.656846 226.371896 
L 362.79445 227.357986 
L 364.026855 228.203652 
L 366.554863 229.236229 
L 367.882068 229.824177 
L 368.988072 230.088751 
L 378.720906 233.870475 
L 379.95331 234.098541 
L 381.185715 234.029676 
L 382.512919 234.162386 
L 383.682123 234.124627 
L 389.780945 233.25435 
L 391.013349 232.99202 
L 393.541358 232.000913 
L 394.963363 231.274511 
L 396.353768 230.288452 
L 397.649372 229.222135 
L 401.409786 225.700103 
L 403.748194 222.538999 
L 404.917398 220.491899 
L 406.307803 218.434706 
L 407.540207 215.493458 
L 408.709411 211.928814 
L 411.14262 203.347669 
L 412.438224 198.106385 
L 414.871433 183.871574 
L 416.103837 175.027038 
L 417.241441 164.42793 
L 418.631846 152.710695 
L 419.80105 139.106874 
L 422.234258 105.632435 
L 424.762267 62.206475 
L 425.741871 36.165109 
L 425.741871 36.165109 
" clip-path="url(#p53371bfdbb)" style="fill: none; stroke: #ff0000; stroke-width: 2.5; stroke-linecap: square"/>
   </g>
   <g id="patch_3">
    <path d="M 47.298945 299.822656 
L 47.298945 20.392383 
" style="fill: none; stroke: #000000; stroke-width: 1.5; stroke-linejoin: miter; stroke-linecap: square"/>
   </g>
   <g id="patch_4">
    <path d="M 47.298945 299.822656 
L 426.500273 299.822656 
" style="fill: none; stroke: #000000; stroke-width: 1.5; stroke-linejoin: miter; stroke-linecap: square"/>
   </g>
   <g id="legend_1">
    <g id="line2d_20">
     <path d="M 58.098945 35.728711 
L 70.098945 35.728711 
L 82.098945 35.728711 
" style="fill: none; stroke: #000000; stroke-width: 2.5; stroke-linecap: square"/>
    </g>
    <g id="text_18">
     <!-- vacuum -->
     <g transform="translate(91.698945 39.928711) scale(0.12 -0.12)">
      <defs>
       <path id="ArialMT-59" d="M 1344 0 
L 81 3319 
L 675 3319 
L 1388 1331 
Q 1503 1009 1600 663 
Q 1675 925 1809 1294 
L 2547 3319 
L 3125 3319 
L 1869 0 
L 1344 0 
z
" transform="scale(0.015625)"/>
       <path id="ArialMT-46" d="M 2588 1216 
L 3141 1144 
Q 3050 572 2676 248 
Q 2303 -75 1759 -75 
Q 1078 -75 664 370 
Q 250 816 250 1647 
Q 250 2184 428 2587 
Q 606 2991 970 3192 
Q 1334 3394 1763 3394 
Q 2303 3394 2647 3120 
Q 2991 2847 3088 2344 
L 2541 2259 
Q 2463 2594 2264 2762 
Q 2066 2931 1784 2931 
Q 1359 2931 1093 2626 
Q 828 2322 828 1663 
Q 828 994 1084 691 
Q 1341 388 1753 388 
Q 2084 388 2306 591 
Q 2528 794 2588 1216 
z
" transform="scale(0.015625)"/>
      </defs>
      <use xlink:href="#ArialMT-59"/>
      <use xlink:href="#ArialMT-44" transform="translate(50 0)"/>
      <use xlink:href="#ArialMT-46" transform="translate(105.609375 0)"/>
      <use xlink:href="#ArialMT-58" transform="translate(155.609375 0)"/>
      <use xlink:href="#ArialMT-58" transform="translate(211.21875 0)"/>
      <use xlink:href="#ArialMT-50" transform="translate(266.828125 0)"/>
     </g>
    </g>
    <g id="line2d_21">
     <path d="M 58.098945 52.99043 
L 70.098945 52.99043 
L 82.098945 52.99043 
" style="fill: none; stroke: #1f77b4; stroke-width: 2.5; stroke-linecap: square"/>
    </g>
    <g id="text_19">
     <!-- 1h -->
     <g transform="translate(91.698945 57.19043) scale(0.12 -0.12)">
      <defs>
       <path id="ArialMT-4b" d="M 422 0 
L 422 4581 
L 984 4581 
L 984 2938 
Q 1378 3394 1978 3394 
Q 2347 3394 2619 3248 
Q 2891 3103 3008 2847 
Q 3125 2591 3125 2103 
L 3125 0 
L 2563 0 
L 2563 2103 
Q 2563 2525 2380 2717 
Q 2197 2909 1863 2909 
Q 1613 2909 1392 2779 
Q 1172 2650 1078 2428 
Q 984 2206 984 1816 
L 984 0 
L 422 0 
z
" transform="scale(0.015625)"/>
      </defs>
      <use xlink:href="#ArialMT-14"/>
      <use xlink:href="#ArialMT-4b" transform="translate(55.609375 0)"/>
     </g>
    </g>
    <g id="line2d_22">
     <path d="M 58.098945 70.252148 
L 70.098945 70.252148 
L 82.098945 70.252148 
" style="fill: none; stroke: #0033ff; stroke-width: 2.5; stroke-linecap: square"/>
    </g>
    <g id="text_20">
     <!-- 2h -->
     <g transform="translate(91.698945 74.452148) scale(0.12 -0.12)">
      <use xlink:href="#ArialMT-15"/>
      <use xlink:href="#ArialMT-4b" transform="translate(55.609375 0)"/>
     </g>
    </g>
    <g id="line2d_23">
     <path d="M 58.098945 87.513867 
L 70.098945 87.513867 
L 82.098945 87.513867 
" style="fill: none; stroke: #ff7f0e; stroke-width: 2.5; stroke-linecap: square"/>
    </g>
    <g id="text_21">
     <!-- 4h -->
     <g transform="translate(91.698945 91.713867) scale(0.12 -0.12)">
      <use xlink:href="#ArialMT-17"/>
      <use xlink:href="#ArialMT-4b" transform="translate(55.609375 0)"/>
     </g>
    </g>
    <g id="line2d_24">
     <path d="M 58.098945 104.775586 
L 70.098945 104.775586 
L 82.098945 104.775586 
" style="fill: none; stroke: #ff0000; stroke-width: 2.5; stroke-linecap: square"/>
    </g>
    <g id="text_22">
     <!-- first -->
     <g transform="translate(91.698945 108.975586) scale(0.12 -0.12)">
      <defs>
       <path id="ArialMT-49" d="M 556 0 
L 556 2881 
L 59 2881 
L 59 3319 
L 556 3319 
L 556 3672 
Q 556 4006 616 4169 
Q 697 4388 901 4523 
Q 1106 4659 1475 4659 
Q 1713 4659 2000 4603 
L 1916 4113 
Q 1741 4144 1584 4144 
Q 1328 4144 1222 4034 
Q 1116 3925 1116 3625 
L 1116 3319 
L 1763 3319 
L 1763 2881 
L 1116 2881 
L 1116 0 
L 556 0 
z
" transform="scale(0.015625)"/>
       <path id="ArialMT-4c" d="M 425 3934 
L 425 4581 
L 988 4581 
L 988 3934 
L 425 3934 
z
M 425 0 
L 425 3319 
L 988 3319 
L 988 0 
L 425 0 
z
" transform="scale(0.015625)"/>
       <path id="ArialMT-56" d="M 197 991 
L 753 1078 
Q 800 744 1014 566 
Q 1228 388 1613 388 
Q 2000 388 2187 545 
Q 2375 703 2375 916 
Q 2375 1106 2209 1216 
Q 2094 1291 1634 1406 
Q 1016 1563 777 1677 
Q 538 1791 414 1992 
Q 291 2194 291 2438 
Q 291 2659 392 2848 
Q 494 3038 669 3163 
Q 800 3259 1026 3326 
Q 1253 3394 1513 3394 
Q 1903 3394 2198 3281 
Q 2494 3169 2634 2976 
Q 2775 2784 2828 2463 
L 2278 2388 
Q 2241 2644 2061 2787 
Q 1881 2931 1553 2931 
Q 1166 2931 1000 2803 
Q 834 2675 834 2503 
Q 834 2394 903 2306 
Q 972 2216 1119 2156 
Q 1203 2125 1616 2013 
Q 2213 1853 2448 1751 
Q 2684 1650 2818 1456 
Q 2953 1263 2953 975 
Q 2953 694 2789 445 
Q 2625 197 2315 61 
Q 2006 -75 1616 -75 
Q 969 -75 630 194 
Q 291 463 197 991 
z
" transform="scale(0.015625)"/>
      </defs>
      <use xlink:href="#ArialMT-49"/>
      <use xlink:href="#ArialMT-4c" transform="translate(27.78125 0)"/>
      <use xlink:href="#ArialMT-55" transform="translate(50 0)"/>
      <use xlink:href="#ArialMT-56" transform="translate(83.296875 0)"/>
      <use xlink:href="#ArialMT-57" transform="translate(133.296875 0)"/>
     </g>
    </g>
   </g>
  </g>
 </g>
 <defs>
  <clipPath id="p53371bfdbb">
   <rect x="47.298945" y="20.392383" width="379.201328" height="279.430273"/>
  </clipPath>
 </defs>
</svg>
