<?xml version="1.0" encoding="utf-8" standalone="no"?>
<!DOCTYPE svg PUBLIC "-//W3C//DTD SVG 1.1//EN"
  "http://www.w3.org/Graphics/SVG/1.1/DTD/svg11.dtd">
<svg xmlns:xlink="http://www.w3.org/1999/xlink" width="449.270898pt" height="340.800273pt" viewBox="0 0 449.270898 340.800273" xmlns="http://www.w3.org/2000/svg" version="1.1">
 <metadata>
  <rdf:RDF xmlns:dc="http://purl.org/dc/elements/1.1/" xmlns:cc="http://creativecommons.org/ns#" xmlns:rdf="http://www.w3.org/1999/02/22-rdf-syntax-ns#">
   <cc:Work>
    <dc:type rdf:resource="http://purl.org/dc/dcmitype/StillImage"/>
    <dc:date>2026-07-09T17:08:21.784835</dc:date>
    <dc:format>image/svg+xml</dc:format>
    <dc:creator>
     <cc:Agent>
      <dc:title>Matplotlib v3.11.0, https://matplotlib.org/</dc:title>
     </cc:Agent>
    </dc:creator>
   </cc:Work>
  </rdf:RDF>
 </metadata>
 <defs>
  <style type="text/css">*{stroke-linejoin: round; stroke-linecap: butt}</style>
 </defs>
 <g id="figure_1">
  <g id="patch_1">
   <path d="M 0 340.800273 
L 449.270898 340.800273 
L 449.270898 0 
L 0 0 
z
" style="fill: #ffffff"/>
  </g>
  <g id="axes_1">
   <g id="patch_2">
    <path d="M 47.298945 299.822656 
L 426.500273 299.822656 
L 426.500273 20.392383 
L 47.298945 20.392383 
z
" style="fill: #ffffff"/>
   </g>
   <g id="matplotlib.axis_1">
    <g id="xtick_1">
     <g id="line2d_1">
      <defs>
       <path id="m6b50d65050" d="M 0 0 
L 0 -6 
" style="stroke: #000000; stroke-width: 1.5"/>
      </defs>
      <g>
       <use xlink:href="#m6b50d65050" x="47.298945" y="299.822656" style="stroke: #000000; stroke-width: 1.5"/>
      </g>
     </g>
     <g id="text_1">
      <!-- 0 -->
      <g transform="translate(43.406289 313.515039) scale(0.14 -0.14)">
       <defs>
        <path id="ArialMT-13" d="M 266 2259 
Q 266 3072 433 3567 
Q 600 4063 929 4331 
Q 1259 4600 1759 4600 
Q 2128 4600 2406 4451 
Q 2684 4303 2865 4023 
Q 3047 3744 3150 3342 
Q 3253 2941 3253 2259 
Q 3253 1453 3087 958 
Q 2922 463 2592 192 
Q 2263 -78 1759 -78 
Q 1097 -78 719 397 
Q 266 969 266 2259 
z
M 844 2259 
Q 844 1131 1108 757 
Q 1372 384 1759 384 
Q 2147 384 2411 759 
Q 2675 1134 2675 2259 
Q 2675 3391 2411 3762 
Q 2147 4134 1753 4134 
Q 1366 4134 1134 3806 
Q 844 3388 844 2259 
z
" transform="scale(0.015625)"/>
       </defs>
       <use xlink:href="#ArialMT-13"/>
      </g>
     </g>
    </g>
    <g id="xtick_2">
     <g id="line2d_2">
      <g>
       <use xlink:href="#m6b50d65050" x="110.499167" y="299.822656" style="stroke: #000000; stroke-width: 1.5"/>
      </g>
     </g>
     <g id="text_2">
      <!-- 200 -->
      <g transform="translate(98.821198 313.515039) scale(0.14 -0.14)">
       <defs>
        <path id="ArialMT-15" d="M 3222 541 
L 3222 0 
L 194 0 
Q 188 203 259 391 
Q 375 700 629 1000 
Q 884 1300 1366 1694 
Q 2113 2306 2375 2664 
Q 2638 3022 2638 3341 
Q 2638 3675 2398 3904 
Q 2159 4134 1775 4134 
Q 1369 4134 1125 3890 
Q 881 3647 878 3216 
L 300 3275 
Q 359 3922 746 4261 
Q 1134 4600 1788 4600 
Q 2447 4600 2831 4234 
Q 3216 3869 3216 3328 
Q 3216 3053 3103 2787 
Q 2991 2522 2730 2228 
Q 2469 1934 1863 1422 
Q 1356 997 1212 845 
Q 1069 694 975 541 
L 3222 541 
z
" transform="scale(0.015625)"/>
       </defs>
       <use xlink:href="#ArialMT-15"/>
       <use xlink:href="#ArialMT-13" transform="translate(55.609375 0)"/>
       <use xlink:href="#ArialMT-13" transform="translate(111.21875 0)"/>
      </g>
     </g>
    </g>
    <g id="xtick_3">
     <g id="line2d_3">
      <g>
       <use xlink:href="#m6b50d65050" x="173.699388" y="299.822656" style="stroke: #000000; stroke-width: 1.5"/>
      </g>
     </g>
     <g id="text_3">
      <!-- 400 -->
      <g transform="translate(162.021419 313.515039) scale(0.14 -0.14)">
       <defs>
        <path id="ArialMT-17" d="M 2069 0 
L 2069 1097 
L 81 1097 
L 81 1613 
L 2172 4581 
L 2631 4581 
L 2631 1613 
L 3250 1613 
L 3250 1097 
L 2631 1097 
L 2631 0 
L 2069 0 
z
M 2069 1613 
L 2069 3678 
L 634 1613 
L 2069 1613 
z
" transform="scale(0.015625)"/>
       </defs>
       <use xlink:href="#ArialMT-17"/>
       <use xlink:href="#ArialMT-13" transform="translate(55.609375 0)"/>
       <use xlink:href="#ArialMT-13" transform="translate(111.21875 0)"/>
      </g>
     </g>
    </g>
    <g id="xtick_4">
     <g id="line2d_4">
      <g>
       <use xlink:href="#m6b50d65050" x="236.899609" y="299.822656" style="stroke: #000000; stroke-width: 1.5"/>
      </g>
     </g>
     <g id="text_4">
      <!-- 600 -->
      <g transform="translate(225.221641 313.515039) scale(0.14 -0.14)">
       <defs>
        <path id="ArialMT-19" d="M 3184 3459 
L 2625 3416 
Q 2550 3747 2413 3897 
Q 2184 4138 1850 4138 
Q 1581 4138 1378 3988 
Q 1113 3794 959 3422 
Q 806 3050 800 2363 
Q 1003 2672 1297 2822 
Q 1591 2972 1913 2972 
Q 2475 2972 2870 2558 
Q 3266 2144 3266 1488 
Q 3266 1056 3080 686 
Q 2894 316 2569 119 
Q 2244 -78 1831 -78 
Q 1128 -78 684 439 
Q 241 956 241 2144 
Q 241 3472 731 4075 
Q 1159 4600 1884 4600 
Q 2425 4600 2770 4297 
Q 3116 3994 3184 3459 
z
M 888 1484 
Q 888 1194 1011 928 
Q 1134 663 1356 523 
Q 1578 384 1822 384 
Q 2178 384 2434 671 
Q 2691 959 2691 1453 
Q 2691 1928 2437 2201 
Q 2184 2475 1800 2475 
Q 1419 2475 1153 2201 
Q 888 1928 888 1484 
z
" transform="scale(0.015625)"/>
       </defs>
       <use xlink:href="#ArialMT-19"/>
       <use xlink:href="#ArialMT-13" transform="translate(55.609375 0)"/>
       <use xlink:href="#ArialMT-13" transform="translate(111.21875 0)"/>
      </g>
     </g>
    </g>
    <g id="xtick_5">
     <g id="line2d_5">
      <g>
       <use xlink:href="#m6b50d65050" x="300.099831" y="299.822656" style="stroke: #000000; stroke-width: 1.5"/>
      </g>
     </g>
     <g id="text_5">
      <!-- 800 -->
      <g transform="translate(288.421862 313.515039) scale(0.14 -0.14)">
       <defs>
        <path id="ArialMT-1b" d="M 1131 2484 
Q 781 2613 612 2850 
Q 444 3088 444 3419 
Q 444 3919 803 4259 
Q 1163 4600 1759 4600 
Q 2359 4600 2725 4251 
Q 3091 3903 3091 3403 
Q 3091 3084 2923 2848 
Q 2756 2613 2416 2484 
Q 2838 2347 3058 2040 
Q 3278 1734 3278 1309 
Q 3278 722 2862 322 
Q 2447 -78 1769 -78 
Q 1091 -78 675 323 
Q 259 725 259 1325 
Q 259 1772 486 2073 
Q 713 2375 1131 2484 
z
M 1019 3438 
Q 1019 3113 1228 2906 
Q 1438 2700 1772 2700 
Q 2097 2700 2305 2904 
Q 2513 3109 2513 3406 
Q 2513 3716 2298 3927 
Q 2084 4138 1766 4138 
Q 1444 4138 1231 3931 
Q 1019 3725 1019 3438 
z
M 838 1322 
Q 838 1081 952 856 
Q 1066 631 1291 507 
Q 1516 384 1775 384 
Q 2178 384 2440 643 
Q 2703 903 2703 1303 
Q 2703 1709 2433 1975 
Q 2163 2241 1756 2241 
Q 1359 2241 1098 1978 
Q 838 1716 838 1322 
z
" transform="scale(0.015625)"/>
       </defs>
       <use xlink:href="#ArialMT-1b"/>
       <use xlink:href="#ArialMT-13" transform="translate(55.609375 0)"/>
       <use xlink:href="#ArialMT-13" transform="translate(111.21875 0)"/>
      </g>
     </g>
    </g>
    <g id="xtick_6">
     <g id="line2d_6">
      <g>
       <use xlink:href="#m6b50d65050" x="363.300052" y="299.822656" style="stroke: #000000; stroke-width: 1.5"/>
      </g>
     </g>
     <g id="text_6">
      <!-- 1000 -->
      <g transform="translate(347.729427 313.515039) scale(0.14 -0.14)">
       <defs>
        <path id="ArialMT-14" d="M 2384 0 
L 1822 0 
L 1822 3584 
Q 1619 3391 1289 3197 
Q 959 3003 697 2906 
L 697 3450 
Q 1169 3672 1522 3987 
Q 1875 4303 2022 4600 
L 2384 4600 
L 2384 0 
z
" transform="scale(0.015625)"/>
       </defs>
       <use xlink:href="#ArialMT-14"/>
       <use xlink:href="#ArialMT-13" transform="translate(55.609375 0)"/>
       <use xlink:href="#ArialMT-13" transform="translate(111.21875 0)"/>
       <use xlink:href="#ArialMT-13" transform="translate(166.828125 0)"/>
      </g>
     </g>
    </g>
    <g id="xtick_7">
     <g id="line2d_7">
      <g>
       <use xlink:href="#m6b50d65050" x="426.500273" y="299.822656" style="stroke: #000000; stroke-width: 1.5"/>
      </g>
     </g>
     <g id="text_7">
      <!-- 1200 -->
      <g transform="translate(410.929648 313.515039) scale(0.14 -0.14)">
       <use xlink:href="#ArialMT-14"/>
       <use xlink:href="#ArialMT-15" transform="translate(55.609375 0)"/>
       <use xlink:href="#ArialMT-13" transform="translate(111.21875 0)"/>
       <use xlink:href="#ArialMT-13" transform="translate(166.828125 0)"/>
      </g>
     </g>
    </g>
    <g id="text_8">
     <!-- T1 Temperature (°C) -->
     <g transform="translate(173.160234 330.653711) scale(0.14 -0.14)">
      <defs>
       <path id="ArialMT-37" d="M 1659 0 
L 1659 4041 
L 150 4041 
L 150 4581 
L 3781 4581 
L 3781 4041 
L 2266 4041 
L 2266 0 
L 1659 0 
z
" transform="scale(0.015625)"/>
       <path id="ArialMT-3" transform="scale(0.015625)"/>
       <path id="ArialMT-48" d="M 2694 1069 
L 3275 997 
Q 3138 488 2766 206 
Q 2394 -75 1816 -75 
Q 1088 -75 661 373 
Q 234 822 234 1631 
Q 234 2469 665 2931 
Q 1097 3394 1784 3394 
Q 2450 3394 2872 2941 
Q 3294 2488 3294 1666 
Q 3294 1616 3291 1516 
L 816 1516 
Q 847 969 1125 678 
Q 1403 388 1819 388 
Q 2128 388 2347 550 
Q 2566 713 2694 1069 
z
M 847 1978 
L 2700 1978 
Q 2663 2397 2488 2606 
Q 2219 2931 1791 2931 
Q 1403 2931 1139 2672 
Q 875 2413 847 1978 
z
" transform="scale(0.015625)"/>
       <path id="ArialMT-50" d="M 422 0 
L 422 3319 
L 925 3319 
L 925 2853 
Q 1081 3097 1340 3245 
Q 1600 3394 1931 3394 
Q 2300 3394 2536 3241 
Q 2772 3088 2869 2813 
Q 3263 3394 3894 3394 
Q 4388 3394 4653 3120 
Q 4919 2847 4919 2278 
L 4919 0 
L 4359 0 
L 4359 2091 
Q 4359 2428 4304 2576 
Q 4250 2725 4106 2815 
Q 3963 2906 3769 2906 
Q 3419 2906 3187 2673 
Q 2956 2441 2956 1928 
L 2956 0 
L 2394 0 
L 2394 2156 
Q 2394 2531 2256 2718 
Q 2119 2906 1806 2906 
Q 1569 2906 1367 2781 
Q 1166 2656 1075 2415 
Q 984 2175 984 1722 
L 984 0 
L 422 0 
z
" transform="scale(0.015625)"/>
       <path id="ArialMT-53" d="M 422 -1272 
L 422 3319 
L 934 3319 
L 934 2888 
Q 1116 3141 1344 3267 
Q 1572 3394 1897 3394 
Q 2322 3394 2647 3175 
Q 2972 2956 3137 2557 
Q 3303 2159 3303 1684 
Q 3303 1175 3120 767 
Q 2938 359 2589 142 
Q 2241 -75 1856 -75 
Q 1575 -75 1351 44 
Q 1128 163 984 344 
L 984 -1272 
L 422 -1272 
z
M 931 1641 
Q 931 1000 1190 694 
Q 1450 388 1819 388 
Q 2194 388 2461 705 
Q 2728 1022 2728 1688 
Q 2728 2322 2467 2637 
Q 2206 2953 1844 2953 
Q 1484 2953 1207 2617 
Q 931 2281 931 1641 
z
" transform="scale(0.015625)"/>
       <path id="ArialMT-55" d="M 416 0 
L 416 3319 
L 922 3319 
L 922 2816 
Q 1116 3169 1280 3281 
Q 1444 3394 1641 3394 
Q 1925 3394 2219 3213 
L 2025 2691 
Q 1819 2813 1613 2813 
Q 1428 2813 1281 2702 
Q 1134 2591 1072 2394 
Q 978 2094 978 1738 
L 978 0 
L 416 0 
z
" transform="scale(0.015625)"/>
       <path id="ArialMT-44" d="M 2588 409 
Q 2275 144 1986 34 
Q 1697 -75 1366 -75 
Q 819 -75 525 192 
Q 231 459 231 875 
Q 231 1119 342 1320 
Q 453 1522 633 1644 
Q 813 1766 1038 1828 
Q 1203 1872 1538 1913 
Q 2219 1994 2541 2106 
Q 2544 2222 2544 2253 
Q 2544 2597 2384 2738 
Q 2169 2928 1744 2928 
Q 1347 2928 1158 2789 
Q 969 2650 878 2297 
L 328 2372 
Q 403 2725 575 2942 
Q 747 3159 1072 3276 
Q 1397 3394 1825 3394 
Q 2250 3394 2515 3294 
Q 2781 3194 2906 3042 
Q 3031 2891 3081 2659 
Q 3109 2516 3109 2141 
L 3109 1391 
Q 3109 606 3145 398 
Q 3181 191 3288 0 
L 2700 0 
Q 2613 175 2588 409 
z
M 2541 1666 
Q 2234 1541 1622 1453 
Q 1275 1403 1131 1340 
Q 988 1278 909 1158 
Q 831 1038 831 891 
Q 831 666 1001 516 
Q 1172 366 1500 366 
Q 1825 366 2078 508 
Q 2331 650 2450 897 
Q 2541 1088 2541 1459 
L 2541 1666 
z
" transform="scale(0.015625)"/>
       <path id="ArialMT-57" d="M 1650 503 
L 1731 6 
Q 1494 -44 1306 -44 
Q 1000 -44 831 53 
Q 663 150 594 308 
Q 525 466 525 972 
L 525 2881 
L 113 2881 
L 113 3319 
L 525 3319 
L 525 4141 
L 1084 4478 
L 1084 3319 
L 1650 3319 
L 1650 2881 
L 1084 2881 
L 1084 941 
Q 1084 700 1114 631 
Q 1144 563 1211 522 
Q 1278 481 1403 481 
Q 1497 481 1650 503 
z
" transform="scale(0.015625)"/>
       <path id="ArialMT-58" d="M 2597 0 
L 2597 488 
Q 2209 -75 1544 -75 
Q 1250 -75 995 37 
Q 741 150 617 320 
Q 494 491 444 738 
Q 409 903 409 1263 
L 409 3319 
L 972 3319 
L 972 1478 
Q 972 1038 1006 884 
Q 1059 663 1231 536 
Q 1403 409 1656 409 
Q 1909 409 2131 539 
Q 2353 669 2445 892 
Q 2538 1116 2538 1541 
L 2538 3319 
L 3100 3319 
L 3100 0 
L 2597 0 
z
" transform="scale(0.015625)"/>
       <path id="ArialMT-b" d="M 1497 -1347 
Q 1031 -759 709 28 
Q 388 816 388 1659 
Q 388 2403 628 3084 
Q 909 3875 1497 4659 
L 1900 4659 
Q 1522 4009 1400 3731 
Q 1209 3300 1100 2831 
Q 966 2247 966 1656 
Q 966 153 1900 -1347 
L 1497 -1347 
z
" transform="scale(0.015625)"/>
       <path id="ArialMT-83" d="M 400 3794 
Q 400 4153 654 4406 
Q 909 4659 1266 4659 
Q 1628 4659 1881 4406 
Q 2134 4153 2134 3794 
Q 2134 3434 1879 3179 
Q 1625 2925 1266 2925 
Q 909 2925 654 3178 
Q 400 3431 400 3794 
z
M 741 3794 
Q 741 3575 895 3420 
Q 1050 3266 1269 3266 
Q 1484 3266 1639 3420 
Q 1794 3575 1794 3794 
Q 1794 4013 1639 4167 
Q 1484 4322 1269 4322 
Q 1050 4322 895 4167 
Q 741 4013 741 3794 
z
" transform="scale(0.015625)"/>
       <path id="ArialMT-26" d="M 3763 1606 
L 4369 1453 
Q 4178 706 3683 314 
Q 3188 -78 2472 -78 
Q 1731 -78 1267 223 
Q 803 525 561 1097 
Q 319 1669 319 2325 
Q 319 3041 592 3573 
Q 866 4106 1370 4382 
Q 1875 4659 2481 4659 
Q 3169 4659 3637 4309 
Q 4106 3959 4291 3325 
L 3694 3184 
Q 3534 3684 3231 3912 
Q 2928 4141 2469 4141 
Q 1941 4141 1586 3887 
Q 1231 3634 1087 3207 
Q 944 2781 944 2328 
Q 944 1744 1114 1308 
Q 1284 872 1643 656 
Q 2003 441 2422 441 
Q 2931 441 3284 734 
Q 3638 1028 3763 1606 
z
" transform="scale(0.015625)"/>
       <path id="ArialMT-c" d="M 791 -1347 
L 388 -1347 
Q 1322 153 1322 1656 
Q 1322 2244 1188 2822 
Q 1081 3291 891 3722 
Q 769 4003 388 4659 
L 791 4659 
Q 1378 3875 1659 3084 
Q 1900 2403 1900 1659 
Q 1900 816 1576 28 
Q 1253 -759 791 -1347 
z
" transform="scale(0.015625)"/>
      </defs>
      <use xlink:href="#ArialMT-37"/>
      <use xlink:href="#ArialMT-14" transform="translate(61.078125 0)"/>
      <use xlink:href="#ArialMT-3" transform="translate(116.6875 0)"/>
      <use xlink:href="#ArialMT-37" transform="translate(142.65625 0)"/>
      <use xlink:href="#ArialMT-48" transform="translate(192.65625 0)"/>
      <use xlink:href="#ArialMT-50" transform="translate(248.265625 0)"/>
      <use xlink:href="#ArialMT-53" transform="translate(331.5625 0)"/>
      <use xlink:href="#ArialMT-48" transform="translate(387.171875 0)"/>
      <use xlink:href="#ArialMT-55" transform="translate(442.78125 0)"/>
      <use xlink:href="#ArialMT-44" transform="translate(476.078125 0)"/>
      <use xlink:href="#ArialMT-57" transform="translate(531.6875 0)"/>
      <use xlink:href="#ArialMT-58" transform="translate(559.46875 0)"/>
      <use xlink:href="#ArialMT-55" transform="translate(615.078125 0)"/>
      <use xlink:href="#ArialMT-48" transform="translate(648.375 0)"/>
      <use xlink:href="#ArialMT-3" transform="translate(703.984375 0)"/>
      <use xlink:href="#ArialMT-b" transform="translate(731.765625 0)"/>
      <use xlink:href="#ArialMT-83" transform="translate(765.0625 0)"/>
      <use xlink:href="#ArialMT-26" transform="translate(805.046875 0)"/>
      <use xlink:href="#ArialMT-c" transform="translate(877.265625 0)"/>
     </g>
    </g>
   </g>
   <g id="matplotlib.axis_2">
    <g id="ytick_1">
     <g id="line2d_8">
      <defs>
       <path id="m42754f90cf" d="M 0 0 
L 6 0 
" style="stroke: #000000; stroke-width: 1.5"/>
      </defs>
      <g>
       <use xlink:href="#m42754f90cf" x="47.298945" y="277.361494" style="stroke: #000000; stroke-width: 1.5"/>
      </g>
     </g>
     <g id="text_9">
      <!-- 0.0 -->
      <g transform="translate(24.338945 282.457685) scale(0.14 -0.14)">
       <defs>
        <path id="ArialMT-11" d="M 581 0 
L 581 641 
L 1222 641 
L 1222 0 
L 581 0 
z
" transform="scale(0.015625)"/>
       </defs>
       <use xlink:href="#ArialMT-13"/>
       <use xlink:href="#ArialMT-11" transform="translate(55.609375 0)"/>
       <use xlink:href="#ArialMT-13" transform="translate(83.390625 0)"/>
      </g>
     </g>
    </g>
    <g id="ytick_2">
     <g id="line2d_9">
      <g>
       <use xlink:href="#m42754f90cf" x="47.298945" y="226.793901" style="stroke: #000000; stroke-width: 1.5"/>
      </g>
     </g>
     <g id="text_10">
      <!-- 0.2 -->
      <g transform="translate(24.338945 231.890092) scale(0.14 -0.14)">
       <use xlink:href="#ArialMT-13"/>
       <use xlink:href="#ArialMT-11" transform="translate(55.609375 0)"/>
       <use xlink:href="#ArialMT-15" transform="translate(83.390625 0)"/>
      </g>
     </g>
    </g>
    <g id="ytick_3">
     <g id="line2d_10">
      <g>
       <use xlink:href="#m42754f90cf" x="47.298945" y="176.226308" style="stroke: #000000; stroke-width: 1.5"/>
      </g>
     </g>
     <g id="text_11">
      <!-- 0.4 -->
      <g transform="translate(24.338945 181.3225) scale(0.14 -0.14)">
       <use xlink:href="#ArialMT-13"/>
       <use xlink:href="#ArialMT-11" transform="translate(55.609375 0)"/>
       <use xlink:href="#ArialMT-17" transform="translate(83.390625 0)"/>
      </g>
     </g>
    </g>
    <g id="ytick_4">
     <g id="line2d_11">
      <g>
       <use xlink:href="#m42754f90cf" x="47.298945" y="125.658716" style="stroke: #000000; stroke-width: 1.5"/>
      </g>
     </g>
     <g id="text_12">
      <!-- 0.6 -->
      <g transform="translate(24.338945 130.754907) scale(0.14 -0.14)">
       <use xlink:href="#ArialMT-13"/>
       <use xlink:href="#ArialMT-11" transform="translate(55.609375 0)"/>
       <use xlink:href="#ArialMT-19" transform="translate(83.390625 0)"/>
      </g>
     </g>
    </g>
    <g id="ytick_5">
     <g id="line2d_12">
      <g>
       <use xlink:href="#m42754f90cf" x="47.298945" y="75.091123" style="stroke: #000000; stroke-width: 1.5"/>
      </g>
     </g>
     <g id="text_13">
      <!-- 0.8 -->
      <g transform="translate(24.338945 80.187314) scale(0.14 -0.14)">
       <use xlink:href="#ArialMT-13"/>
       <use xlink:href="#ArialMT-11" transform="translate(55.609375 0)"/>
       <use xlink:href="#ArialMT-1b" transform="translate(83.390625 0)"/>
      </g>
     </g>
    </g>
    <g id="ytick_6">
     <g id="line2d_13">
      <g>
       <use xlink:href="#m42754f90cf" x="47.298945" y="24.52353" style="stroke: #000000; stroke-width: 1.5"/>
      </g>
     </g>
     <g id="text_14">
      <!-- 1.0 -->
      <g transform="translate(24.338945 29.619722) scale(0.14 -0.14)">
       <use xlink:href="#ArialMT-14"/>
       <use xlink:href="#ArialMT-11" transform="translate(55.609375 0)"/>
       <use xlink:href="#ArialMT-13" transform="translate(83.390625 0)"/>
      </g>
     </g>
    </g>
    <g id="text_15">
     <!-- Ion Current (m/z 38) -->
     <g transform="translate(17.392383 222.733457) rotate(-90) scale(0.14 -0.14)">
      <defs>
       <path id="ArialMT-2c" d="M 597 0 
L 597 4581 
L 1203 4581 
L 1203 0 
L 597 0 
z
" transform="scale(0.015625)"/>
       <path id="ArialMT-52" d="M 213 1659 
Q 213 2581 725 3025 
Q 1153 3394 1769 3394 
Q 2453 3394 2887 2945 
Q 3322 2497 3322 1706 
Q 3322 1066 3130 698 
Q 2938 331 2570 128 
Q 2203 -75 1769 -75 
Q 1072 -75 642 372 
Q 213 819 213 1659 
z
M 791 1659 
Q 791 1022 1069 705 
Q 1347 388 1769 388 
Q 2188 388 2466 706 
Q 2744 1025 2744 1678 
Q 2744 2294 2464 2611 
Q 2184 2928 1769 2928 
Q 1347 2928 1069 2612 
Q 791 2297 791 1659 
z
" transform="scale(0.015625)"/>
       <path id="ArialMT-51" d="M 422 0 
L 422 3319 
L 928 3319 
L 928 2847 
Q 1294 3394 1984 3394 
Q 2284 3394 2536 3286 
Q 2788 3178 2913 3003 
Q 3038 2828 3088 2588 
Q 3119 2431 3119 2041 
L 3119 0 
L 2556 0 
L 2556 2019 
Q 2556 2363 2490 2533 
Q 2425 2703 2258 2804 
Q 2091 2906 1866 2906 
Q 1506 2906 1245 2678 
Q 984 2450 984 1813 
L 984 0 
L 422 0 
z
" transform="scale(0.015625)"/>
       <path id="ArialMT-12" d="M 0 -78 
L 1328 4659 
L 1778 4659 
L 453 -78 
L 0 -78 
z
" transform="scale(0.015625)"/>
       <path id="ArialMT-5d" d="M 125 0 
L 125 456 
L 2238 2881 
Q 1878 2863 1603 2863 
L 250 2863 
L 250 3319 
L 2963 3319 
L 2963 2947 
L 1166 841 
L 819 456 
Q 1197 484 1528 484 
L 3063 484 
L 3063 0 
L 125 0 
z
" transform="scale(0.015625)"/>
       <path id="ArialMT-16" d="M 269 1209 
L 831 1284 
Q 928 806 1161 595 
Q 1394 384 1728 384 
Q 2125 384 2398 659 
Q 2672 934 2672 1341 
Q 2672 1728 2419 1979 
Q 2166 2231 1775 2231 
Q 1616 2231 1378 2169 
L 1441 2663 
Q 1497 2656 1531 2656 
Q 1891 2656 2178 2843 
Q 2466 3031 2466 3422 
Q 2466 3731 2256 3934 
Q 2047 4138 1716 4138 
Q 1388 4138 1169 3931 
Q 950 3725 888 3313 
L 325 3413 
Q 428 3978 793 4289 
Q 1159 4600 1703 4600 
Q 2078 4600 2393 4439 
Q 2709 4278 2876 4000 
Q 3044 3722 3044 3409 
Q 3044 3113 2884 2869 
Q 2725 2625 2413 2481 
Q 2819 2388 3044 2092 
Q 3269 1797 3269 1353 
Q 3269 753 2831 336 
Q 2394 -81 1725 -81 
Q 1122 -81 723 278 
Q 325 638 269 1209 
z
" transform="scale(0.015625)"/>
      </defs>
      <use xlink:href="#ArialMT-2c"/>
      <use xlink:href="#ArialMT-52" transform="translate(27.78125 0)"/>
      <use xlink:href="#ArialMT-51" transform="translate(83.390625 0)"/>
      <use xlink:href="#ArialMT-3" transform="translate(139 0)"/>
      <use xlink:href="#ArialMT-26" transform="translate(166.78125 0)"/>
      <use xlink:href="#ArialMT-58" transform="translate(239 0)"/>
      <use xlink:href="#ArialMT-55" transform="translate(294.609375 0)"/>
      <use xlink:href="#ArialMT-55" transform="translate(327.90625 0)"/>
      <use xlink:href="#ArialMT-48" transform="translate(361.203125 0)"/>
      <use xlink:href="#ArialMT-51" transform="translate(416.8125 0)"/>
      <use xlink:href="#ArialMT-57" transform="translate(472.421875 0)"/>
      <use xlink:href="#ArialMT-3" transform="translate(500.203125 0)"/>
      <use xlink:href="#ArialMT-b" transform="translate(527.984375 0)"/>
      <use xlink:href="#ArialMT-50" transform="translate(561.28125 0)"/>
      <use xlink:href="#ArialMT-12" transform="translate(644.578125 0)"/>
      <use xlink:href="#ArialMT-5d" transform="translate(672.359375 0)"/>
      <use xlink:href="#ArialMT-3" transform="translate(722.359375 0)"/>
      <use xlink:href="#ArialMT-16" transform="translate(750.140625 0)"/>
      <use xlink:href="#ArialMT-1b" transform="translate(805.75 0)"/>
      <use xlink:href="#ArialMT-c" transform="translate(861.359375 0)"/>
     </g>
    </g>
    <g id="text_16">
     <!-- 1e−12 -->
     <g transform="translate(47.298945 17.392383) scale(0.14 -0.14)">
      <defs>
       <path id="ArialMT-ed" d="M 3381 1997 
L 356 1997 
L 356 2522 
L 3381 2522 
L 3381 1997 
z
" transform="scale(0.015625)"/>
      </defs>
      <use xlink:href="#ArialMT-14"/>
      <use xlink:href="#ArialMT-48" transform="translate(55.609375 0)"/>
      <use xlink:href="#ArialMT-ed" transform="translate(111.21875 0)"/>
      <use xlink:href="#ArialMT-14" transform="translate(169.625 0)"/>
      <use xlink:href="#ArialMT-15" transform="translate(225.234375 0)"/>
     </g>
    </g>
   </g>
   <g id="line2d_14">
    <path d="M 66.195811 277.473405 
L 66.132611 283.902627 
L 66.132611 278.811138 
L 66.069411 271.997086 
L 66.227412 269.732792 
L 66.922614 271.282805 
L 68.56582 270.586656 
L 70.841028 273.18351 
L 73.053036 274.050021 
L 74.917442 275.033448 
L 76.402647 276.900664 
L 77.635052 278.886647 
L 78.867456 278.24924 
L 79.97346 278.335138 
L 81.111064 278.705215 
L 82.343468 280.181787 
L 83.607472 280.332382 
L 84.871477 278.717572 
L 86.261882 278.178402 
L 87.620687 276.217088 
L 88.916291 275.251624 
L 90.211896 274.528041 
L 91.4759 272.559045 
L 92.645104 272.618188 
L 93.877508 274.927042 
L 95.109913 274.905849 
L 96.373917 274.493689 
L 98.775526 270.728129 
L 100.00793 273.120773 
L 101.240334 272.840457 
L 102.472739 274.480333 
L 103.736743 277.819926 
L 105.000747 279.107261 
L 106.233152 280.712582 
L 108.72956 281.4731 
L 109.930365 279.681641 
L 111.162769 276.701531 
L 112.395173 281.569395 
L 113.627578 278.071965 
L 114.859982 276.397234 
L 116.092386 276.400633 
L 117.356391 273.951093 
L 118.557195 272.593794 
L 119.821199 272.325335 
L 121.053604 272.890743 
L 122.286008 271.967734 
L 123.518412 274.562512 
L 124.750817 278.119559 
L 127.278825 275.086896 
L 128.54283 274.908573 
L 129.806834 275.600282 
L 131.007638 275.349583 
L 132.240043 275.366258 
L 133.504047 277.220647 
L 134.673251 275.593658 
L 135.905656 277.739813 
L 137.16966 280.967251 
L 138.433665 279.959242 
L 139.666069 281.725845 
L 140.930073 279.243345 
L 142.099277 279.263112 
L 143.331682 277.963709 
L 144.532486 277.907919 
L 145.76489 279.255582 
L 146.965694 277.672894 
L 148.229699 279.127884 
L 149.462103 282.240897 
L 150.694507 282.994921 
L 151.958512 281.599631 
L 153.159316 277.553333 
L 154.423321 275.950513 
L 155.624125 272.642793 
L 156.888129 275.719918 
L 158.120533 277.256135 
L 159.384538 275.911597 
L 160.648542 276.590101 
L 161.849347 276.822345 
L 163.113351 275.327753 
L 164.345755 274.552637 
L 165.546559 273.567976 
L 166.747364 272.044742 
L 168.011368 272.221403 
L 169.212172 275.876203 
L 170.412977 276.286909 
L 171.645381 277.714374 
L 172.909385 279.617686 
L 174.20499 278.349137 
L 175.437394 274.813356 
L 176.701399 278.618636 
L 177.965403 277.376922 
L 179.229407 276.407273 
L 180.430212 277.953985 
L 181.631016 279.84974 
L 182.89502 279.540955 
L 184.159025 280.388977 
L 185.328229 277.224708 
L 186.497433 274.917308 
L 187.761437 271.830391 
L 190.226246 274.942411 
L 191.45865 273.537504 
L 192.691055 275.428859 
L 193.860259 278.274845 
L 195.092663 277.312949 
L 196.356667 277.672556 
L 197.589072 276.534974 
L 198.789876 275.12601 
L 200.02228 275.035807 
L 201.254685 276.593161 
L 202.518689 277.325222 
L 203.719493 274.668193 
L 206.215902 277.931217 
L 207.448306 277.481899 
L 208.680711 277.537365 
L 209.881515 275.841779 
L 212.377923 276.469397 
L 214.811132 275.527013 
L 216.043536 276.425596 
L 217.275941 277.167268 
L 219.709149 277.344878 
L 220.909953 276.778311 
L 222.142358 276.736235 
L 223.437962 277.569889 
L 224.638766 275.443073 
L 225.871171 274.919335 
L 227.008775 275.299674 
L 228.177979 275.114367 
L 229.410383 272.494789 
L 230.674388 272.048148 
L 231.938392 271.172088 
L 233.170796 270.713156 
L 234.434801 271.117296 
L 235.667205 271.019902 
L 238.100414 273.664596 
L 239.332818 276.250923 
L 240.596822 276.881723 
L 241.797627 277.626682 
L 243.030031 277.017722 
L 244.294035 276.851792 
L 245.52644 277.973019 
L 246.727244 278.153545 
L 247.959648 276.139503 
L 249.192052 277.021136 
L 250.424457 276.607518 
L 251.688461 279.07374 
L 252.920865 275.574309 
L 255.417274 271.146557 
L 256.618078 272.010682 
L 257.850483 273.333401 
L 259.051287 275.817279 
L 260.283691 276.411688 
L 261.579296 279.892426 
L 262.7485 280.799753 
L 263.980904 280.987398 
L 265.213309 279.213475 
L 266.414113 278.344783 
L 267.678117 278.205604 
L 268.973722 277.101176 
L 270.237726 276.834523 
L 272.670935 279.196517 
L 273.934939 279.069539 
L 275.135743 278.002144 
L 276.399748 278.352682 
L 277.663752 280.459077 
L 278.896156 281.651284 
L 280.128561 281.236834 
L 281.360965 281.859277 
L 282.561769 280.620441 
L 283.825774 278.640172 
L 285.026578 277.094704 
L 286.227382 273.436117 
L 287.459786 272.25129 
L 288.692191 273.478996 
L 289.892995 273.165936 
L 291.156999 274.603039 
L 292.421004 277.71505 
L 293.590208 278.96111 
L 294.854212 277.16403 
L 296.118217 272.945839 
L 297.287421 273.220133 
L 298.519825 270.969303 
L 299.75223 269.17354 
L 300.984634 269.190055 
L 302.217038 268.878936 
L 303.386242 268.960521 
L 304.650247 272.165999 
L 305.882651 272.940806 
L 307.083455 275.12783 
L 308.31586 276.335437 
L 309.548264 277.721924 
L 310.780668 272.585051 
L 312.013072 270.027949 
L 313.213877 270.780819 
L 314.414681 270.017807 
L 315.710285 270.3763 
L 316.94269 274.356255 
L 318.143494 277.005822 
L 319.312698 278.783331 
L 320.608303 279.709735 
L 321.809107 278.397319 
L 323.073111 278.174677 
L 325.47472 278.323301 
L 326.707124 276.228832 
L 327.971128 276.053245 
L 329.140332 275.662472 
L 330.435937 272.802129 
L 331.984342 270.905863 
L 333.311547 270.250475 
L 334.543951 271.906543 
L 335.807956 274.328069 
L 336.97716 273.642532 
L 338.177964 274.279259 
L 339.473569 272.643238 
L 340.705973 270.17226 
L 341.969977 270.958025 
L 343.107581 273.123722 
L 344.403186 277.141828 
L 345.57239 279.079197 
L 346.899595 279.660217 
L 349.269603 284.556636 
L 350.533607 285.115159 
L 351.829212 282.620459 
L 352.935216 279.348218 
L 356.664029 277.518062 
L 359.192038 272.435654 
L 360.456042 272.4049 
L 361.498846 271.768064 
L 362.79445 270.765396 
L 364.121655 271.786524 
L 365.227659 273.554833 
L 366.491663 273.510959 
L 367.913668 273.602172 
L 369.146073 274.206506 
L 370.315277 276.02647 
L 371.452881 274.151921 
L 373.886089 271.700856 
L 375.150094 272.09728 
L 376.256097 276.391947 
L 377.488502 274.16618 
L 378.720906 273.200182 
L 379.95331 271.371841 
L 381.154115 270.625587 
L 382.449719 270.455739 
L 383.587323 270.129733 
L 384.851328 274.381047 
L 385.988932 275.846585 
L 387.410937 279.447803 
L 388.611741 281.5554 
L 389.844145 278.11802 
L 391.044949 279.085745 
L 392.340554 276.00818 
L 393.383357 275.45595 
L 395.089763 273.782596 
L 396.385368 274.715773 
L 397.712573 276.395539 
L 398.881777 275.075652 
L 400.114181 276.863575 
L 401.409786 272.737877 
L 402.515789 271.186667 
L 403.748194 271.069087 
L 404.885798 271.804736 
L 406.244602 272.051552 
L 407.413807 270.482243 
L 408.709411 272.010763 
L 410.036616 273.243164 
L 411.20582 274.489422 
L 412.343424 274.878251 
L 413.512628 270.115761 
L 414.839833 270.22945 
L 415.977437 269.215751 
L 417.367841 269.887031 
L 418.663446 265.519428 
L 419.67465 263.193851 
L 421.065054 261.813805 
L 422.139458 260.047055 
L 423.435063 257.506501 
L 424.699067 253.805042 
L 425.710271 248.555576 
L 425.710271 248.555576 
" clip-path="url(#pcc3035f6a5)" style="fill: none; stroke: #000000; stroke-width: 2.5; stroke-linecap: square"/>
   </g>
   <g id="line2d_15">
    <path d="M 58.200983 287.12128 
L 58.200983 273.218036 
L 58.200983 279.911625 
L 58.358984 278.25032 
L 59.022586 275.998307 
L 60.760592 274.769375 
L 63.0042 277.212835 
L 65.184608 277.747421 
L 67.017414 277.508352 
L 68.53422 275.74738 
L 69.798224 276.871449 
L 70.935828 276.606684 
L 71.978632 278.295026 
L 73.211036 274.074008 
L 74.47504 271.597738 
L 75.612644 271.850836 
L 76.939849 271.979874 
L 78.203854 271.1356 
L 79.341458 269.786078 
L 80.700262 269.851157 
L 81.869466 272.043633 
L 83.165071 273.978895 
L 84.460675 276.616887 
L 85.75628 274.375681 
L 87.020284 274.729785 
L 88.347489 274.775561 
L 89.706294 273.992563 
L 90.875498 276.259307 
L 92.171102 276.356574 
L 93.340307 275.961576 
L 94.604311 275.319315 
L 95.773515 277.257297 
L 97.10072 280.497278 
L 98.364724 282.346529 
L 99.565528 283.21087 
L 100.734732 285.416653 
L 103.262741 286.27369 
L 104.495146 284.036663 
L 106.865154 277.835704 
L 108.160758 278.19066 
L 109.393163 276.734683 
L 110.657167 276.274726 
L 111.952772 278.573388 
L 113.058776 279.371597 
L 114.35438 279.102729 
L 115.586784 277.388458 
L 116.882389 276.273187 
L 118.051593 276.14931 
L 119.315598 277.420533 
L 120.611202 281.263644 
L 121.717206 280.450263 
L 123.01281 280.083161 
L 124.276815 279.206113 
L 125.414419 274.002471 
L 126.710023 274.577732 
L 128.005628 272.393275 
L 129.206432 271.966249 
L 130.502037 274.311137 
L 131.766041 275.306092 
L 132.966845 280.423269 
L 134.136049 281.423162 
L 135.336854 282.891483 
L 136.600858 281.474825 
L 137.833262 277.343178 
L 139.065667 277.201179 
L 140.266471 274.963757 
L 141.562075 276.120579 
L 142.82608 274.49438 
L 144.058484 270.190126 
L 146.554893 273.324364 
L 147.724097 276.749408 
L 148.893301 277.016259 
L 150.220506 276.532932 
L 151.42131 277.334052 
L 152.748515 277.729405 
L 153.917719 280.167192 
L 155.150123 276.978887 
L 156.382527 274.684228 
L 157.583332 275.46032 
L 158.847336 275.524989 
L 160.11134 274.800205 
L 161.375345 273.644406 
L 162.576149 274.662796 
L 163.840153 274.052522 
L 165.009358 275.087508 
L 166.178562 272.800843 
L 167.474166 271.028356 
L 168.706571 270.743826 
L 169.907375 272.542582 
L 171.139779 272.164049 
L 172.372183 271.420273 
L 173.636188 272.467 
L 174.931792 275.290271 
L 176.132597 275.732964 
L 177.333401 276.502311 
L 178.597405 272.614781 
L 179.766609 271.571697 
L 182.294618 268.239565 
L 183.495422 265.716385 
L 184.727827 265.608197 
L 185.960231 264.423089 
L 187.192635 263.413931 
L 188.48824 264.484671 
L 189.689044 266.383665 
L 190.921448 265.935182 
L 192.122253 267.658963 
L 193.354657 265.99872 
L 194.618661 263.716699 
L 195.882666 260.521697 
L 197.05187 261.113774 
L 198.284274 257.602777 
L 199.516678 256.358741 
L 200.780683 257.186442 
L 202.044687 258.38029 
L 203.213891 259.715633 
L 204.477896 262.297034 
L 205.6787 263.711031 
L 206.911104 264.118417 
L 208.143509 263.470427 
L 209.375913 263.833307 
L 210.513517 263.137549 
L 211.872322 262.438042 
L 213.009926 258.477568 
L 214.27393 256.947158 
L 215.474734 254.750785 
L 216.738739 254.483168 
L 217.971143 256.456946 
L 219.171947 257.536643 
L 220.372751 258.815922 
L 221.605156 261.499262 
L 222.83756 261.439906 
L 224.038364 261.569476 
L 225.333969 259.023811 
L 226.534773 258.53695 
L 227.767177 256.672158 
L 229.031182 258.817226 
L 230.200386 259.925856 
L 231.49599 260.279311 
L 232.728395 261.150234 
L 233.897599 262.250785 
L 235.130003 259.359683 
L 236.330807 260.834092 
L 237.563212 259.546117 
L 238.795616 258.582102 
L 239.99642 259.303488 
L 241.292025 258.533666 
L 242.524429 256.158358 
L 243.725233 251.213026 
L 244.989238 248.525765 
L 246.190042 245.445379 
L 247.454046 244.744122 
L 248.686451 247.846518 
L 249.887255 249.09602 
L 251.151259 250.089606 
L 252.352063 254.135276 
L 253.647668 257.917999 
L 254.816872 262.516779 
L 256.080877 261.69849 
L 257.281681 263.844047 
L 258.545685 262.66644 
L 259.77809 264.103755 
L 260.947294 262.437248 
L 262.242898 258.89652 
L 263.443702 258.066657 
L 264.644507 257.473974 
L 265.876911 258.098328 
L 267.109315 260.880567 
L 268.40492 258.00049 
L 269.732124 259.820478 
L 270.901328 261.225974 
L 272.165333 260.299684 
L 273.397737 258.614682 
L 274.661742 260.617738 
L 275.894146 265.938797 
L 277.12655 265.876032 
L 278.295754 265.246353 
L 279.528159 267.745906 
L 280.760563 264.756648 
L 282.024567 263.767907 
L 283.225372 263.616987 
L 284.457776 259.08171 
L 285.69018 259.245382 
L 286.954185 256.629417 
L 288.154989 259.87346 
L 289.355793 259.148441 
L 290.619798 259.374877 
L 291.820602 261.616859 
L 293.021406 260.26305 
L 294.28541 260.413146 
L 295.549415 261.768117 
L 296.718619 259.893262 
L 297.982623 261.695029 
L 299.246628 258.416462 
L 300.415832 261.90813 
L 301.648236 263.370213 
L 302.88064 264.027431 
L 304.144645 264.090459 
L 305.313849 262.265211 
L 306.577853 262.81571 
L 309.011062 260.257671 
L 311.44427 256.444197 
L 312.676675 259.588519 
L 313.877479 261.40215 
L 315.109883 260.077439 
L 316.342288 258.517677 
L 317.606292 255.279233 
L 320.071101 250.931661 
L 321.240305 247.967676 
L 322.472709 243.473789 
L 323.736714 244.1894 
L 325.000718 247.888976 
L 326.138322 250.158552 
L 327.433926 251.368664 
L 328.634731 251.909639 
L 329.835535 250.416615 
L 331.35234 246.937475 
L 332.711145 241.477997 
L 333.975149 237.673726 
L 335.270754 242.290501 
L 336.503158 240.448158 
L 337.672362 243.05087 
L 338.967967 240.393815 
L 340.168771 240.35091 
L 341.337975 242.097308 
L 342.63358 239.167365 
L 343.834384 232.825723 
L 345.129988 228.068016 
L 346.299193 232.320119 
L 347.563197 240.493377 
L 348.795601 239.203652 
L 350.028006 242.003525 
L 351.29201 234.992552 
L 352.429614 232.213727 
L 353.630418 229.632732 
L 354.926023 224.115674 
L 356.158427 216.945838 
L 357.359231 216.200902 
L 358.654836 218.014225 
L 359.72924 217.097133 
L 361.088044 215.68655 
L 362.383649 215.409366 
L 364.690457 201.290182 
L 365.922861 197.083209 
L 367.155266 194.428457 
L 368.48247 190.448984 
L 369.714875 191.980693 
L 370.947279 187.0448 
L 372.116483 183.104321 
L 373.348887 186.989385 
L 374.518091 189.572221 
L 375.813696 195.89651 
L 376.9197 204.27209 
L 378.246904 216.235436 
L 380.616913 232.108871 
L 381.912517 237.161613 
L 383.144922 239.13152 
L 384.314126 238.350061 
L 385.54653 243.866336 
L 386.747334 242.992027 
L 388.042939 247.221326 
L 390.412947 256.089228 
L 391.708552 253.289788 
L 392.972556 255.614544 
L 394.331361 260.765252 
L 395.784966 261.404734 
L 396.92257 258.466344 
L 398.344575 262.902171 
L 399.545379 262.982344 
L 403.210992 268.826888 
L 404.443396 264.786708 
L 405.770601 263.433448 
L 406.845005 260.809498 
L 408.203809 254.8233 
L 409.404614 253.261026 
L 410.415817 258.661724 
L 413.038626 269.31673 
L 414.334231 272.632408 
L 415.471835 274.361608 
L 416.641039 273.288837 
L 417.968244 270.216643 
L 419.263848 267.621727 
L 421.665457 265.565203 
L 422.73986 263.900483 
L 424.225065 261.301167 
L 425.362669 257.384535 
L 425.362669 257.384535 
" clip-path="url(#pcc3035f6a5)" style="fill: none; stroke: #1f77b4; stroke-width: 2.5; stroke-linecap: square"/>
   </g>
   <g id="line2d_16">
    <path d="M 58.011383 283.397329 
L 58.011383 265.444203 
L 58.011383 272.247468 
L 58.137783 273.021864 
L 58.738185 272.126377 
L 60.19179 271.329563 
L 62.435398 267.493726 
L 64.679006 268.192268 
L 66.669813 267.62553 
L 69.545423 273.547509 
L 70.683027 275.237243 
L 71.820631 276.515176 
L 72.958235 278.496681 
L 74.127439 277.259432 
L 75.359844 277.913719 
L 76.623848 274.699437 
L 77.856252 276.662732 
L 79.088657 274.949861 
L 80.321061 275.014849 
L 81.553465 273.987231 
L 82.81747 274.734669 
L 84.049874 275.130261 
L 85.408679 277.478015 
L 86.799084 277.635378 
L 88.126288 280.255032 
L 89.390293 281.806191 
L 90.622697 282.984063 
L 91.855101 280.840953 
L 93.087506 280.733121 
L 94.31991 277.451793 
L 95.552314 277.049422 
L 96.816319 275.960645 
L 98.017123 277.069539 
L 99.281127 276.259822 
L 100.513532 276.843155 
L 101.745936 276.156613 
L 103.00994 276.368022 
L 104.242345 276.176329 
L 105.474749 277.595896 
L 106.707153 275.844965 
L 107.939558 277.173522 
L 109.171962 279.571059 
L 110.341166 280.109409 
L 111.636771 280.254125 
L 112.837575 281.545718 
L 115.302383 282.102347 
L 116.566388 281.32144 
L 117.767192 277.705107 
L 118.999596 275.810105 
L 120.200401 275.824868 
L 121.401205 274.836539 
L 122.696809 274.141321 
L 123.897614 276.007333 
L 125.130018 277.417098 
L 126.394022 276.509353 
L 127.658027 277.872204 
L 129.048432 277.172515 
L 130.186036 276.759758 
L 131.41844 277.661659 
L 132.587644 275.786491 
L 133.883249 276.076952 
L 135.115653 279.974489 
L 136.379657 282.00897 
L 137.580462 281.476499 
L 138.844466 279.510525 
L 140.04527 279.570074 
L 141.309275 277.259787 
L 142.478479 278.779514 
L 145.069688 271.778217 
L 147.471296 274.280676 
L 148.7037 274.536691 
L 149.999305 273.009295 
L 151.200109 275.154481 
L 152.432514 273.517978 
L 153.601718 273.787104 
L 154.897322 275.335999 
L 156.098126 274.459105 
L 157.362131 274.002739 
L 158.594535 275.605147 
L 159.826939 276.496355 
L 161.027744 279.057172 
L 162.260148 281.078607 
L 163.492552 283.816165 
L 164.661756 283.484187 
L 165.925761 284.218495 
L 167.158165 283.374754 
L 168.358969 280.432668 
L 169.622974 276.674345 
L 170.886978 275.266707 
L 172.087782 275.993261 
L 173.288587 275.840507 
L 174.552591 275.306471 
L 178.407805 275.339586 
L 179.545408 275.721965 
L 180.777813 274.740416 
L 182.010217 275.086396 
L 183.242621 279.507034 
L 184.443426 280.914799 
L 185.70743 279.41638 
L 186.971435 276.609752 
L 189.341443 267.366882 
L 190.573847 263.778217 
L 191.837852 263.397737 
L 193.070256 261.372871 
L 194.27106 258.841172 
L 195.535064 258.186413 
L 196.735869 259.300793 
L 197.999873 258.188957 
L 199.232277 256.920784 
L 200.433082 256.746198 
L 201.602286 258.193866 
L 202.86629 257.788163 
L 205.362699 262.115923 
L 206.595103 261.351658 
L 207.859108 261.881119 
L 209.059912 261.753846 
L 210.292316 258.183521 
L 211.46152 258.95353 
L 212.725525 259.651293 
L 213.957929 257.338165 
L 215.158733 254.726288 
L 216.454338 253.867862 
L 217.686742 254.311256 
L 218.887546 254.060235 
L 220.119951 254.598067 
L 221.352355 256.390641 
L 222.553159 259.627727 
L 223.817164 259.394924 
L 226.281972 261.040139 
L 229.979185 250.946 
L 231.179989 252.67227 
L 232.380794 253.90399 
L 233.644798 254.994649 
L 234.845602 255.702519 
L 236.014806 252.436293 
L 237.278811 252.148377 
L 238.606015 254.870389 
L 239.80682 245.500105 
L 241.007624 242.001129 
L 242.240028 241.87415 
L 244.704837 246.640625 
L 245.937241 244.109209 
L 247.138045 249.700312 
L 248.40205 252.661142 
L 249.666054 257.4269 
L 250.898458 258.663948 
L 252.067662 249.645247 
L 253.394867 251.195174 
L 254.532471 252.274234 
L 255.764875 252.48433 
L 257.06048 255.783423 
L 258.261284 251.957185 
L 259.462088 255.572796 
L 260.662893 256.800912 
L 261.990097 257.915987 
L 263.127701 254.749457 
L 264.391706 254.21235 
L 265.62411 261.165593 
L 266.856514 260.582269 
L 268.120519 262.452581 
L 269.416123 265.402394 
L 270.648528 263.7154 
L 271.944132 263.569924 
L 273.113336 261.78088 
L 274.408941 259.371846 
L 275.609745 257.818698 
L 276.778949 261.195488 
L 278.042953 264.019668 
L 279.243758 257.881165 
L 281.771767 258.820066 
L 282.909371 254.724012 
L 284.173375 252.262379 
L 285.405779 250.362575 
L 286.638184 249.008486 
L 287.902188 249.484488 
L 289.008192 254.224549 
L 290.303796 251.772506 
L 291.504601 251.028967 
L 292.768605 251.219555 
L 294.001009 249.307626 
L 295.233414 245.605444 
L 296.529018 244.629453 
L 297.666622 239.757644 
L 298.899027 230.69707 
L 300.163031 228.491072 
L 301.363835 225.117686 
L 302.596239 222.690141 
L 303.828644 224.576789 
L 306.230252 225.429349 
L 307.494257 224.226101 
L 308.726661 225.966298 
L 309.959065 217.68462 
L 311.128269 211.760963 
L 312.360674 217.064324 
L 313.624678 218.358341 
L 314.888683 223.095512 
L 316.121087 220.849527 
L 317.290291 220.000473 
L 318.522695 219.685564 
L 319.7551 216.964131 
L 320.987504 214.998006 
L 322.219908 206.93716 
L 323.483913 206.568155 
L 324.653117 209.797772 
L 325.948721 210.561193 
L 327.149525 211.731961 
L 328.38193 214.269637 
L 329.582734 219.916518 
L 330.973139 231.540422 
L 332.395144 236.82776 
L 333.627548 238.961657 
L 334.923153 243.404164 
L 336.218757 243.869125 
L 337.387961 239.680644 
L 338.683566 238.303414 
L 339.91597 237.90957 
L 341.148374 237.852232 
L 342.317579 235.733757 
L 343.581583 236.976023 
L 344.845587 236.374358 
L 346.046392 234.253863 
L 347.247196 239.111627 
L 348.448 238.994314 
L 349.712004 236.931106 
L 350.912809 241.328843 
L 352.208413 246.682523 
L 353.409217 249.937181 
L 354.546821 250.119305 
L 355.874026 253.021746 
L 357.07483 256.205507 
L 358.307235 253.623373 
L 359.571239 257.636457 
L 360.677243 258.047935 
L 363.236852 254.308802 
L 364.437656 256.831511 
L 365.70166 258.938142 
L 366.902465 254.395955 
L 368.166469 257.936196 
L 369.367273 259.61043 
L 370.568078 260.206504 
L 371.926882 261.334766 
L 373.096086 261.257272 
L 374.328491 260.791202 
L 375.497695 263.438079 
L 376.698499 264.128681 
L 377.994104 268.310372 
L 379.226508 269.810036 
L 381.628116 277.946188 
L 382.892121 278.380285 
L 384.124525 274.712624 
L 385.325329 274.132524 
L 386.399733 272.666565 
L 387.726938 273.253568 
L 388.990942 266.191531 
L 390.160146 267.880802 
L 391.424151 268.736197 
L 392.561755 268.40552 
L 393.952159 272.162128 
L 395.405765 272.235271 
L 396.796169 274.345776 
L 398.060174 275.825723 
L 399.324178 275.785585 
L 400.493382 274.360414 
L 401.757387 270.13466 
L 402.894991 268.756293 
L 404.127395 266.793182 
L 405.4546 265.163957 
L 406.687004 265.425816 
L 407.793008 266.626332 
L 410.226216 270.214599 
L 411.521821 273.714023 
L 412.849026 274.131948 
L 414.01823 273.154174 
L 415.124234 270.902546 
L 416.483038 269.501305 
L 417.589042 263.925744 
L 418.916247 260.105838 
L 421.412656 257.768417 
L 422.58186 257.828701 
L 423.845864 259.475582 
L 425.173069 263.012271 
L 426.026272 268.741982 
L 426.026272 268.741982 
" clip-path="url(#pcc3035f6a5)" style="fill: none; stroke: #0033ff; stroke-width: 2.5; stroke-linecap: square"/>
   </g>
   <g id="line2d_17">
    <path d="M 56.115376 271.070302 
L 56.178576 277.45978 
L 56.178576 272.491348 
L 56.273377 274.061576 
L 56.778979 275.529869 
L 58.295784 275.155628 
L 60.476191 276.518251 
L 62.783 275.808444 
L 64.710606 276.837222 
L 66.353812 277.951867 
L 67.681017 275.439457 
L 68.818621 277.273201 
L 69.924625 277.532039 
L 71.125429 277.096604 
L 72.326233 278.34904 
L 73.558637 278.144934 
L 74.759441 279.204449 
L 76.023446 279.181568 
L 77.28745 277.821433 
L 78.519855 276.303512 
L 79.689059 275.213523 
L 80.921463 274.821971 
L 82.185468 273.367928 
L 83.386272 272.681919 
L 84.745076 273.193397 
L 86.072281 274.834839 
L 87.462686 275.265902 
L 88.72669 276.179782 
L 89.990695 274.773626 
L 91.254699 274.762043 
L 92.455503 278.346346 
L 93.687908 276.824262 
L 94.920312 278.346809 
L 96.184317 279.682055 
L 98.680725 279.96257 
L 99.881529 277.005823 
L 101.113934 277.517856 
L 102.346338 276.585334 
L 103.578742 277.374359 
L 104.842747 275.489941 
L 106.075151 273.16513 
L 107.275955 272.853997 
L 108.445159 271.861675 
L 109.772364 272.195238 
L 111.004768 270.499239 
L 112.173973 269.713409 
L 113.406377 270.719333 
L 114.607181 274.206032 
L 115.934386 276.845903 
L 117.13519 275.612736 
L 118.399194 277.241797 
L 119.631599 276.543768 
L 120.832403 273.193265 
L 123.297211 268.5521 
L 124.466416 267.17708 
L 125.69882 266.749935 
L 127.026025 266.985714 
L 128.321629 268.235875 
L 129.554033 271.708249 
L 130.818038 274.147426 
L 131.987242 274.645675 
L 133.219646 273.425003 
L 134.452051 274.79364 
L 135.716055 275.519969 
L 136.980059 276.726635 
L 138.212464 274.868196 
L 139.444868 270.200754 
L 140.677272 270.036526 
L 141.878077 269.513723 
L 143.078881 268.034672 
L 144.342885 270.072446 
L 145.512089 271.241556 
L 146.870894 275.662299 
L 149.304103 281.109945 
L 150.568107 279.039644 
L 151.768911 277.595704 
L 153.032916 275.218609 
L 154.26532 273.479274 
L 156.666928 275.114681 
L 157.867733 276.541119 
L 159.163337 275.460821 
L 160.427342 275.655915 
L 161.628146 274.923147 
L 162.79735 271.996805 
L 164.061354 271.139536 
L 165.293759 270.727522 
L 166.557763 270.851943 
L 167.695367 274.756108 
L 168.990972 275.13091 
L 170.191776 277.35038 
L 171.45578 275.06238 
L 172.688184 275.4992 
L 173.888989 275.046113 
L 175.121393 272.690653 
L 176.416998 272.18883 
L 177.681002 272.212327 
L 178.881806 269.2586 
L 180.08261 271.824419 
L 181.315015 273.147582 
L 182.579019 271.865708 
L 183.843024 268.425501 
L 184.980628 264.145633 
L 186.181432 263.808322 
L 187.477036 262.745279 
L 188.709441 260.424523 
L 189.878645 260.302669 
L 191.205849 263.270226 
L 192.406654 266.660233 
L 193.702258 267.203176 
L 194.871462 264.455036 
L 196.103866 262.93398 
L 197.304671 260.838222 
L 201.065084 256.072931 
L 202.297488 257.551918 
L 203.529893 260.579251 
L 204.730697 259.815001 
L 205.994701 260.698494 
L 208.45951 267.242749 
L 209.660314 269.000236 
L 210.829518 268.761613 
L 212.061922 271.542303 
L 213.325927 272.451044 
L 214.558331 270.598602 
L 215.790735 269.924214 
L 217.02314 271.761196 
L 218.255544 269.504093 
L 219.456348 264.956733 
L 220.688753 261.069677 
L 221.921157 258.72018 
L 223.185161 256.591512 
L 224.417566 259.425267 
L 225.61837 261.539592 
L 226.850774 261.916291 
L 228.083178 264.835266 
L 229.315583 268.399245 
L 230.516387 267.361767 
L 231.748791 266.100065 
L 232.981196 262.941044 
L 234.182 256.881856 
L 235.446004 254.753517 
L 236.678409 253.335004 
L 240.344021 249.76909 
L 241.608026 250.707365 
L 242.84043 253.715473 
L 244.041234 255.465138 
L 245.273639 254.766707 
L 246.506043 252.267201 
L 247.738447 253.395821 
L 250.203256 252.109517 
L 251.46726 253.510027 
L 252.668065 251.891893 
L 253.868869 250.870339 
L 255.132873 250.862666 
L 256.333677 254.160626 
L 257.566082 253.942751 
L 258.830086 254.596163 
L 260.094091 256.378463 
L 261.294895 255.728618 
L 262.495699 253.178787 
L 263.759703 253.981781 
L 264.992108 253.26024 
L 266.192912 252.9219 
L 268.752521 254.947553 
L 269.984925 256.74715 
L 271.21733 258.121901 
L 272.512934 262.582711 
L 273.682138 262.374115 
L 274.946143 263.772057 
L 276.178547 263.54205 
L 277.379351 261.367002 
L 278.611755 259.719305 
L 279.84416 254.842823 
L 281.044964 251.73882 
L 282.277368 254.647806 
L 283.541373 256.973027 
L 284.742177 260.265434 
L 286.006181 262.295835 
L 287.238586 263.708155 
L 288.47099 262.864687 
L 290.872598 262.956151 
L 292.136603 259.977677 
L 293.400607 260.249917 
L 294.569811 261.559684 
L 295.865416 265.438404 
L 297.03462 264.952207 
L 298.298624 262.178652 
L 299.499429 261.376796 
L 300.731833 258.654815 
L 301.932637 260.275982 
L 303.165041 260.534233 
L 305.62985 257.623138 
L 308.063059 260.89705 
L 309.295463 259.360038 
L 310.559467 256.183194 
L 311.791872 258.499469 
L 313.024276 253.933137 
L 314.22508 255.880526 
L 315.425884 258.89465 
L 317.922293 256.540783 
L 319.123097 256.827334 
L 320.292301 255.888464 
L 321.556306 254.727138 
L 322.72551 254.489784 
L 324.021115 257.602846 
L 325.253519 255.144625 
L 326.485923 259.012818 
L 327.655127 259.895133 
L 328.950732 259.56987 
L 330.214736 258.891638 
L 331.668341 255.552937 
L 333.027146 256.823206 
L 335.555155 253.929928 
L 336.819159 255.352931 
L 338.051564 251.180248 
L 339.283968 251.057964 
L 340.421572 248.463457 
L 341.748777 247.549907 
L 342.949581 244.129749 
L 344.118785 244.429356 
L 345.44599 245.645007 
L 346.615194 246.534476 
L 347.784398 245.283657 
L 349.048402 246.376919 
L 350.217606 245.576096 
L 351.513211 247.903871 
L 352.714015 247.966013 
L 353.946419 245.434798 
L 355.273624 245.283403 
L 356.442828 250.3357 
L 357.643632 251.118021 
L 358.907637 253.249951 
L 360.108441 251.763443 
L 361.340845 250.921411 
L 362.510049 251.581208 
L 363.805654 249.075133 
L 365.069658 241.881861 
L 366.238862 238.851029 
L 367.502867 240.676822 
L 368.766871 243.874922 
L 369.904475 247.075777 
L 372.495684 252.054275 
L 373.570088 255.966378 
L 374.960493 260.484967 
L 377.267301 261.560914 
L 378.562906 267.178668 
L 379.76371 269.769893 
L 380.964514 271.39724 
L 382.260118 274.707455 
L 383.397722 274.617848 
L 384.598527 273.793556 
L 387.031735 267.102766 
L 388.32734 267.011617 
L 389.591344 267.473012 
L 390.728948 267.532608 
L 391.992953 266.143623 
L 393.193757 268.813399 
L 394.647362 271.232304 
L 396.100967 272.002632 
L 397.270171 268.560162 
L 398.502575 263.790931 
L 399.82978 263.760332 
L 401.125385 264.81515 
L 402.326189 264.320997 
L 403.590193 265.263969 
L 404.759397 268.486072 
L 406.055002 270.618741 
L 408.45661 268.9898 
L 409.594214 266.896077 
L 410.984619 265.291052 
L 411.995823 265.337003 
L 413.291427 265.105818 
L 414.618632 263.179961 
L 415.693036 262.928108 
L 417.178241 265.943259 
L 418.221044 264.865578 
L 419.548249 264.318614 
L 420.717453 264.526008 
L 421.886657 264.188787 
L 423.119062 262.91128 
L 424.446266 260.297814 
L 425.58387 255.952717 
L 425.58387 255.952717 
" clip-path="url(#pcc3035f6a5)" style="fill: none; stroke: #ff7f0e; stroke-width: 2.5; stroke-linecap: square"/>
   </g>
   <g id="line2d_18">
    <path d="M 66.227412 271.978145 
L 66.227412 277.804203 
L 66.227412 276.985411 
L 66.827814 278.731487 
L 68.407819 281.423864 
L 70.651427 282.347694 
L 72.926635 279.542839 
L 74.917442 278.559281 
L 76.465847 278.263254 
L 77.729852 275.355726 
L 78.930656 271.897866 
L 80.00506 272.013469 
L 81.237464 271.418316 
L 82.375068 271.009705 
L 83.639073 270.72568 
L 84.966277 271.269778 
L 86.261882 274.818829 
L 87.589086 276.591862 
L 88.884691 276.33335 
L 90.148695 274.580095 
L 91.4443 270.895813 
L 92.613504 272.066503 
L 93.877508 270.633088 
L 95.078313 270.806486 
L 96.342317 268.741862 
L 97.606322 270.188968 
L 98.838726 275.254449 
L 100.00793 274.91799 
L 101.240334 275.269612 
L 102.504339 275.122509 
L 103.799943 275.598801 
L 106.201552 270.189316 
L 107.528756 269.093595 
L 108.761161 266.510166 
L 109.993565 266.324459 
L 111.225969 271.007669 
L 112.395173 272.739884 
L 113.627578 276.308607 
L 114.923182 278.114116 
L 116.123986 277.72565 
L 117.387991 273.687214 
L 118.588795 270.496273 
L 119.852799 271.147353 
L 121.053604 271.503806 
L 122.254408 272.557207 
L 123.518412 276.357189 
L 124.750817 274.80745 
L 126.014821 275.889093 
L 127.310426 275.202757 
L 128.57443 271.768666 
L 129.838434 270.623674 
L 130.976038 271.276137 
L 132.240043 272.59743 
L 134.704851 277.671604 
L 135.905656 277.389668 
L 137.16966 273.020299 
L 138.402064 272.02449 
L 139.634469 270.428129 
L 140.835273 269.684146 
L 142.067677 269.9887 
L 143.331682 271.626549 
L 144.595686 274.466413 
L 145.82809 278.905841 
L 147.060495 282.108576 
L 148.324499 280.17873 
L 149.525303 277.828433 
L 150.789308 273.392412 
L 152.021712 271.696116 
L 153.254116 272.499446 
L 154.486521 272.200367 
L 155.655725 271.260499 
L 156.919729 274.461843 
L 158.152134 274.560117 
L 159.416138 275.618657 
L 160.616942 274.694622 
L 161.849347 272.834119 
L 163.081751 268.394283 
L 164.314155 266.682236 
L 165.514959 266.691505 
L 166.778964 266.210219 
L 168.042968 264.687598 
L 169.338573 265.275971 
L 170.507777 265.414221 
L 171.708581 265.003099 
L 172.940985 266.035621 
L 174.20499 265.549817 
L 175.468994 263.393345 
L 176.732999 264.431556 
L 177.902203 266.37418 
L 179.134607 266.145755 
L 180.335411 265.234156 
L 181.631016 266.953129 
L 182.86342 264.473772 
L 184.127425 263.427046 
L 185.296629 263.919112 
L 186.529033 261.26442 
L 187.761437 258.235816 
L 188.962241 254.943972 
L 190.226246 249.701441 
L 191.45865 242.382556 
L 192.659454 231.536632 
L 193.891859 226.596368 
L 195.124263 223.173051 
L 196.356667 221.535915 
L 197.589072 222.899335 
L 198.853076 217.42531 
L 200.08548 210.665625 
L 201.286285 196.834221 
L 202.518689 189.516175 
L 203.751093 180.959775 
L 204.983498 159.463823 
L 206.184302 151.135213 
L 207.448306 143.74821 
L 208.680711 135.064036 
L 211.113919 121.529332 
L 212.346323 120.045982 
L 213.547128 114.995491 
L 214.811132 110.615177 
L 216.011936 96.254634 
L 217.275941 73.408823 
L 218.476745 68.389364 
L 220.973154 41.189645 
L 222.205558 33.530394 
L 223.406362 37.46343 
L 224.638766 42.06214 
L 225.839571 38.965569 
L 227.071975 33.469529 
L 228.335979 33.093759 
L 229.568384 36.111701 
L 230.737588 54.094193 
L 231.969992 48.98534 
L 233.265597 52.025188 
L 234.403201 60.318517 
L 235.667205 60.794366 
L 236.899609 58.332594 
L 238.132014 49.278912 
L 239.332818 50.638794 
L 240.533622 49.409555 
L 241.734426 53.162076 
L 242.966831 62.514722 
L 244.294035 58.29892 
L 245.494839 72.268554 
L 246.727244 90.176457 
L 247.928048 90.437994 
L 250.424457 106.510944 
L 251.751661 110.82505 
L 252.952466 115.308732 
L 255.417274 128.293055 
L 256.618078 136.459214 
L 259.082887 161.415638 
L 260.346891 163.976255 
L 261.516096 174.149186 
L 262.7801 178.546608 
L 264.044104 176.084739 
L 265.181708 182.018177 
L 266.414113 174.18607 
L 267.709717 176.633802 
L 268.973722 180.956142 
L 270.269326 184.705636 
L 271.47013 189.161282 
L 272.734135 199.898147 
L 273.934939 209.003759 
L 276.462948 213.629984 
L 277.632152 217.459893 
L 278.896156 214.179318 
L 280.065361 214.790333 
L 281.360965 216.215116 
L 282.530169 213.904852 
L 283.762574 215.292471 
L 286.290582 220.100458 
L 287.459786 220.94436 
L 288.755391 222.867459 
L 289.987795 222.741998 
L 291.1886 218.410117 
L 292.389404 215.223015 
L 293.590208 211.237775 
L 294.854212 204.312166 
L 297.319021 196.793143 
L 298.551425 204.986978 
L 299.75223 205.769445 
L 301.016234 206.02697 
L 302.217038 205.574139 
L 303.481043 204.39991 
L 304.681847 205.076731 
L 305.882651 204.322251 
L 307.083455 197.161289 
L 308.37906 193.40914 
L 309.548264 197.638511 
L 310.812268 204.448724 
L 312.013072 204.212305 
L 313.213877 207.921555 
L 314.446281 203.628455 
L 315.678685 197.761007 
L 316.97429 194.95894 
L 318.143494 188.885008 
L 319.407498 177.816011 
L 320.608303 176.037566 
L 321.840707 177.179809 
L 323.104711 180.661072 
L 324.305516 189.750703 
L 325.50632 193.854717 
L 326.738724 189.030369 
L 327.971128 190.640799 
L 329.140332 189.66737 
L 330.435937 180.23147 
L 331.984342 175.469621 
L 333.216747 178.55018 
L 334.575551 180.697617 
L 335.807956 184.41706 
L 337.04036 190.064509 
L 338.272764 191.073194 
L 339.536769 195.77753 
L 340.674373 196.888927 
L 341.969977 191.754731 
L 343.170782 183.108298 
L 344.339986 183.951781 
L 345.63559 191.240461 
L 346.867995 196.493621 
L 349.332803 198.742138 
L 350.470407 203.522032 
L 351.766012 215.028256 
L 353.061616 214.011932 
L 354.16762 211.07769 
L 355.463225 209.448205 
L 356.664029 210.285683 
L 357.928033 213.423495 
L 359.160438 215.824125 
L 360.392842 214.071267 
L 361.656846 214.072624 
L 362.79445 217.631039 
L 364.026855 224.682501 
L 365.259259 221.745133 
L 366.554863 223.041343 
L 367.882068 226.396387 
L 368.988072 224.296345 
L 370.157276 221.658038 
L 371.421281 223.435493 
L 372.685285 222.706502 
L 373.917689 228.974914 
L 375.086893 233.486282 
L 376.382498 241.444243 
L 377.520102 245.039748 
L 378.720906 248.407391 
L 379.95331 251.498348 
L 381.185715 251.059174 
L 382.512919 248.032659 
L 383.682123 244.77203 
L 384.851328 239.818885 
L 386.115332 244.353319 
L 387.442537 244.468121 
L 388.580141 248.203673 
L 389.780945 249.066301 
L 391.013349 250.853195 
L 392.340554 253.650647 
L 393.541358 254.736165 
L 394.963363 251.573042 
L 396.353768 251.793899 
L 397.649372 253.338392 
L 398.881777 259.437213 
L 400.019381 260.938652 
L 401.409786 261.137387 
L 402.54739 262.953807 
L 403.748194 264.508154 
L 404.917398 262.453299 
L 406.307803 259.585189 
L 407.540207 256.501357 
L 408.709411 259.257615 
L 409.847015 260.207221 
L 411.14262 264.289692 
L 412.438224 260.974624 
L 413.639028 257.3899 
L 414.871433 257.968478 
L 416.103837 252.739972 
L 419.80105 242.200344 
L 420.970254 241.397299 
L 422.234258 242.275449 
L 423.403463 245.020306 
L 424.762267 249.817378 
L 425.741871 256.852175 
L 425.741871 256.852175 
" clip-path="url(#pcc3035f6a5)" style="fill: none; stroke: #ff0000; stroke-width: 2.5; stroke-linecap: square"/>
   </g>
   <g id="patch_3">
    <path d="M 47.298945 299.822656 
L 47.298945 20.392383 
" style="fill: none; stroke: #000000; stroke-width: 1.5; stroke-linejoin: miter; stroke-linecap: square"/>
   </g>
   <g id="patch_4">
    <path d="M 47.298945 299.822656 
L 426.500273 299.822656 
" style="fill: none; stroke: #000000; stroke-width: 1.5; stroke-linejoin: miter; stroke-linecap: square"/>
   </g>
   <g id="legend_1">
    <g id="line2d_19">
     <path d="M 58.098945 35.728711 
L 70.098945 35.728711 
L 82.098945 35.728711 
" style="fill: none; stroke: #000000; stroke-width: 2.5; stroke-linecap: square"/>
    </g>
    <g id="text_17">
     <!-- vacuum -->
     <g transform="translate(91.698945 39.928711) scale(0.12 -0.12)">
      <defs>
       <path id="ArialMT-59" d="M 1344 0 
L 81 3319 
L 675 3319 
L 1388 1331 
Q 1503 1009 1600 663 
Q 1675 925 1809 1294 
L 2547 3319 
L 3125 3319 
L 1869 0 
L 1344 0 
z
" transform="scale(0.015625)"/>
       <path id="ArialMT-46" d="M 2588 1216 
L 3141 1144 
Q 3050 572 2676 248 
Q 2303 -75 1759 -75 
Q 1078 -75 664 370 
Q 250 816 250 1647 
Q 250 2184 428 2587 
Q 606 2991 970 3192 
Q 1334 3394 1763 3394 
Q 2303 3394 2647 3120 
Q 2991 2847 3088 2344 
L 2541 2259 
Q 2463 2594 2264 2762 
Q 2066 2931 1784 2931 
Q 1359 2931 1093 2626 
Q 828 2322 828 1663 
Q 828 994 1084 691 
Q 1341 388 1753 388 
Q 2084 388 2306 591 
Q 2528 794 2588 1216 
z
" transform="scale(0.015625)"/>
      </defs>
      <use xlink:href="#ArialMT-59"/>
      <use xlink:href="#ArialMT-44" transform="translate(50 0)"/>
      <use xlink:href="#ArialMT-46" transform="translate(105.609375 0)"/>
      <use xlink:href="#ArialMT-58" transform="translate(155.609375 0)"/>
      <use xlink:href="#ArialMT-58" transform="translate(211.21875 0)"/>
      <use xlink:href="#ArialMT-50" transform="translate(266.828125 0)"/>
     </g>
    </g>
    <g id="line2d_20">
     <path d="M 58.098945 52.99043 
L 70.098945 52.99043 
L 82.098945 52.99043 
" style="fill: none; stroke: #1f77b4; stroke-width: 2.5; stroke-linecap: square"/>
    </g>
    <g id="text_18">
     <!-- 1h -->
     <g transform="translate(91.698945 57.19043) scale(0.12 -0.12)">
      <defs>
       <path id="ArialMT-4b" d="M 422 0 
L 422 4581 
L 984 4581 
L 984 2938 
Q 1378 3394 1978 3394 
Q 2347 3394 2619 3248 
Q 2891 3103 3008 2847 
Q 3125 2591 3125 2103 
L 3125 0 
L 2563 0 
L 2563 2103 
Q 2563 2525 2380 2717 
Q 2197 2909 1863 2909 
Q 1613 2909 1392 2779 
Q 1172 2650 1078 2428 
Q 984 2206 984 1816 
L 984 0 
L 422 0 
z
" transform="scale(0.015625)"/>
      </defs>
      <use xlink:href="#ArialMT-14"/>
      <use xlink:href="#ArialMT-4b" transform="translate(55.609375 0)"/>
     </g>
    </g>
    <g id="line2d_21">
     <path d="M 58.098945 70.252148 
L 70.098945 70.252148 
L 82.098945 70.252148 
" style="fill: none; stroke: #0033ff; stroke-width: 2.5; stroke-linecap: square"/>
    </g>
    <g id="text_19">
     <!-- 2h -->
     <g transform="translate(91.698945 74.452148) scale(0.12 -0.12)">
      <use xlink:href="#ArialMT-15"/>
      <use xlink:href="#ArialMT-4b" transform="translate(55.609375 0)"/>
     </g>
    </g>
    <g id="line2d_22">
     <path d="M 58.098945 87.513867 
L 70.098945 87.513867 
L 82.098945 87.513867 
" style="fill: none; stroke: #ff7f0e; stroke-width: 2.5; stroke-linecap: square"/>
    </g>
    <g id="text_20">
     <!-- 4h -->
     <g transform="translate(91.698945 91.713867) scale(0.12 -0.12)">
      <use xlink:href="#ArialMT-17"/>
      <use xlink:href="#ArialMT-4b" transform="translate(55.609375 0)"/>
     </g>
    </g>
    <g id="line2d_23">
     <path d="M 58.098945 104.775586 
L 70.098945 104.775586 
L 82.098945 104.775586 
" style="fill: none; stroke: #ff0000; stroke-width: 2.5; stroke-linecap: square"/>
    </g>
    <g id="text_21">
     <!-- first -->
     <g transform="translate(91.698945 108.975586) scale(0.12 -0.12)">
      <defs>
       <path id="ArialMT-49" d="M 556 0 
L 556 2881 
L 59 2881 
L 59 3319 
L 556 3319 
L 556 3672 
Q 556 4006 616 4169 
Q 697 4388 901 4523 
Q 1106 4659 1475 4659 
Q 1713 4659 2000 4603 
L 1916 4113 
Q 1741 4144 1584 4144 
Q 1328 4144 1222 4034 
Q 1116 3925 1116 3625 
L 1116 3319 
L 1763 3319 
L 1763 2881 
L 1116 2881 
L 1116 0 
L 556 0 
z
" transform="scale(0.015625)"/>
       <path id="ArialMT-4c" d="M 425 3934 
L 425 4581 
L 988 4581 
L 988 3934 
L 425 3934 
z
M 425 0 
L 425 3319 
L 988 3319 
L 988 0 
L 425 0 
z
" transform="scale(0.015625)"/>
       <path id="ArialMT-56" d="M 197 991 
L 753 1078 
Q 800 744 1014 566 
Q 1228 388 1613 388 
Q 2000 388 2187 545 
Q 2375 703 2375 916 
Q 2375 1106 2209 1216 
Q 2094 1291 1634 1406 
Q 1016 1563 777 1677 
Q 538 1791 414 1992 
Q 291 2194 291 2438 
Q 291 2659 392 2848 
Q 494 3038 669 3163 
Q 800 3259 1026 3326 
Q 1253 3394 1513 3394 
Q 1903 3394 2198 3281 
Q 2494 3169 2634 2976 
Q 2775 2784 2828 2463 
L 2278 2388 
Q 2241 2644 2061 2787 
Q 1881 2931 1553 2931 
Q 1166 2931 1000 2803 
Q 834 2675 834 2503 
Q 834 2394 903 2306 
Q 972 2216 1119 2156 
Q 1203 2125 1616 2013 
Q 2213 1853 2448 1751 
Q 2684 1650 2818 1456 
Q 2953 1263 2953 975 
Q 2953 694 2789 445 
Q 2625 197 2315 61 
Q 2006 -75 1616 -75 
Q 969 -75 630 194 
Q 291 463 197 991 
z
" transform="scale(0.015625)"/>
      </defs>
      <use xlink:href="#ArialMT-49"/>
      <use xlink:href="#ArialMT-4c" transform="translate(27.78125 0)"/>
      <use xlink:href="#ArialMT-55" transform="translate(50 0)"/>
      <use xlink:href="#ArialMT-56" transform="translate(83.296875 0)"/>
      <use xlink:href="#ArialMT-57" transform="translate(133.296875 0)"/>
     </g>
    </g>
   </g>
  </g>
 </g>
 <defs>
  <clipPath id="pcc3035f6a5">
   <rect x="47.298945" y="20.392383" width="379.201328" height="279.430273"/>
  </clipPath>
 </defs>
</svg>
