<?xml version="1.0" encoding="utf-8" standalone="no"?>
<!DOCTYPE svg PUBLIC "-//W3C//DTD SVG 1.1//EN"
  "http://www.w3.org/Graphics/SVG/1.1/DTD/svg11.dtd">
<svg xmlns:xlink="http://www.w3.org/1999/xlink" width="449.116211pt" height="340.800273pt" viewBox="0 0 449.116211 340.800273" xmlns="http://www.w3.org/2000/svg" version="1.1">
 <metadata>
  <rdf:RDF xmlns:dc="http://purl.org/dc/elements/1.1/" xmlns:cc="http://creativecommons.org/ns#" xmlns:rdf="http://www.w3.org/1999/02/22-rdf-syntax-ns#">
   <cc:Work>
    <dc:type rdf:resource="http://purl.org/dc/dcmitype/StillImage"/>
    <dc:date>2026-07-09T17:08:20.628250</dc:date>
    <dc:format>image/svg+xml</dc:format>
    <dc:creator>
     <cc:Agent>
      <dc:title>Matplotlib v3.11.0, https://matplotlib.org/</dc:title>
     </cc:Agent>
    </dc:creator>
   </cc:Work>
  </rdf:RDF>
 </metadata>
 <defs>
  <style type="text/css">*{stroke-linejoin: round; stroke-linecap: butt}</style>
 </defs>
 <g id="figure_1">
  <g id="patch_1">
   <path d="M 0 340.800273 
L 449.116211 340.800273 
L 449.116211 0 
L 0 0 
z
" style="fill: #ffffff"/>
  </g>
  <g id="axes_1">
   <g id="patch_2">
    <path d="M 35.624258 299.822656 
L 426.345586 299.822656 
L 426.345586 20.392383 
L 35.624258 20.392383 
z
" style="fill: #ffffff"/>
   </g>
   <g id="matplotlib.axis_1">
    <g id="xtick_1">
     <g id="line2d_1">
      <defs>
       <path id="m9367f33a28" d="M 0 0 
L 0 -6 
" style="stroke: #000000; stroke-width: 1.5"/>
      </defs>
      <g>
       <use xlink:href="#m9367f33a28" x="35.624258" y="299.822656" style="stroke: #000000; stroke-width: 1.5"/>
      </g>
     </g>
     <g id="text_1">
      <!-- 0 -->
      <g transform="translate(31.731602 313.515039) scale(0.14 -0.14)">
       <defs>
        <path id="ArialMT-13" d="M 266 2259 
Q 266 3072 433 3567 
Q 600 4063 929 4331 
Q 1259 4600 1759 4600 
Q 2128 4600 2406 4451 
Q 2684 4303 2865 4023 
Q 3047 3744 3150 3342 
Q 3253 2941 3253 2259 
Q 3253 1453 3087 958 
Q 2922 463 2592 192 
Q 2263 -78 1759 -78 
Q 1097 -78 719 397 
Q 266 969 266 2259 
z
M 844 2259 
Q 844 1131 1108 757 
Q 1372 384 1759 384 
Q 2147 384 2411 759 
Q 2675 1134 2675 2259 
Q 2675 3391 2411 3762 
Q 2147 4134 1753 4134 
Q 1366 4134 1134 3806 
Q 844 3388 844 2259 
z
" transform="scale(0.015625)"/>
       </defs>
       <use xlink:href="#ArialMT-13"/>
      </g>
     </g>
    </g>
    <g id="xtick_2">
     <g id="line2d_2">
      <g>
       <use xlink:href="#m9367f33a28" x="100.744479" y="299.822656" style="stroke: #000000; stroke-width: 1.5"/>
      </g>
     </g>
     <g id="text_2">
      <!-- 200 -->
      <g transform="translate(89.06651 313.515039) scale(0.14 -0.14)">
       <defs>
        <path id="ArialMT-15" d="M 3222 541 
L 3222 0 
L 194 0 
Q 188 203 259 391 
Q 375 700 629 1000 
Q 884 1300 1366 1694 
Q 2113 2306 2375 2664 
Q 2638 3022 2638 3341 
Q 2638 3675 2398 3904 
Q 2159 4134 1775 4134 
Q 1369 4134 1125 3890 
Q 881 3647 878 3216 
L 300 3275 
Q 359 3922 746 4261 
Q 1134 4600 1788 4600 
Q 2447 4600 2831 4234 
Q 3216 3869 3216 3328 
Q 3216 3053 3103 2787 
Q 2991 2522 2730 2228 
Q 2469 1934 1863 1422 
Q 1356 997 1212 845 
Q 1069 694 975 541 
L 3222 541 
z
" transform="scale(0.015625)"/>
       </defs>
       <use xlink:href="#ArialMT-15"/>
       <use xlink:href="#ArialMT-13" transform="translate(55.609375 0)"/>
       <use xlink:href="#ArialMT-13" transform="translate(111.21875 0)"/>
      </g>
     </g>
    </g>
    <g id="xtick_3">
     <g id="line2d_3">
      <g>
       <use xlink:href="#m9367f33a28" x="165.864701" y="299.822656" style="stroke: #000000; stroke-width: 1.5"/>
      </g>
     </g>
     <g id="text_3">
      <!-- 400 -->
      <g transform="translate(154.186732 313.515039) scale(0.14 -0.14)">
       <defs>
        <path id="ArialMT-17" d="M 2069 0 
L 2069 1097 
L 81 1097 
L 81 1613 
L 2172 4581 
L 2631 4581 
L 2631 1613 
L 3250 1613 
L 3250 1097 
L 2631 1097 
L 2631 0 
L 2069 0 
z
M 2069 1613 
L 2069 3678 
L 634 1613 
L 2069 1613 
z
" transform="scale(0.015625)"/>
       </defs>
       <use xlink:href="#ArialMT-17"/>
       <use xlink:href="#ArialMT-13" transform="translate(55.609375 0)"/>
       <use xlink:href="#ArialMT-13" transform="translate(111.21875 0)"/>
      </g>
     </g>
    </g>
    <g id="xtick_4">
     <g id="line2d_4">
      <g>
       <use xlink:href="#m9367f33a28" x="230.984922" y="299.822656" style="stroke: #000000; stroke-width: 1.5"/>
      </g>
     </g>
     <g id="text_4">
      <!-- 600 -->
      <g transform="translate(219.306953 313.515039) scale(0.14 -0.14)">
       <defs>
        <path id="ArialMT-19" d="M 3184 3459 
L 2625 3416 
Q 2550 3747 2413 3897 
Q 2184 4138 1850 4138 
Q 1581 4138 1378 3988 
Q 1113 3794 959 3422 
Q 806 3050 800 2363 
Q 1003 2672 1297 2822 
Q 1591 2972 1913 2972 
Q 2475 2972 2870 2558 
Q 3266 2144 3266 1488 
Q 3266 1056 3080 686 
Q 2894 316 2569 119 
Q 2244 -78 1831 -78 
Q 1128 -78 684 439 
Q 241 956 241 2144 
Q 241 3472 731 4075 
Q 1159 4600 1884 4600 
Q 2425 4600 2770 4297 
Q 3116 3994 3184 3459 
z
M 888 1484 
Q 888 1194 1011 928 
Q 1134 663 1356 523 
Q 1578 384 1822 384 
Q 2178 384 2434 671 
Q 2691 959 2691 1453 
Q 2691 1928 2437 2201 
Q 2184 2475 1800 2475 
Q 1419 2475 1153 2201 
Q 888 1928 888 1484 
z
" transform="scale(0.015625)"/>
       </defs>
       <use xlink:href="#ArialMT-19"/>
       <use xlink:href="#ArialMT-13" transform="translate(55.609375 0)"/>
       <use xlink:href="#ArialMT-13" transform="translate(111.21875 0)"/>
      </g>
     </g>
    </g>
    <g id="xtick_5">
     <g id="line2d_5">
      <g>
       <use xlink:href="#m9367f33a28" x="296.105143" y="299.822656" style="stroke: #000000; stroke-width: 1.5"/>
      </g>
     </g>
     <g id="text_5">
      <!-- 800 -->
      <g transform="translate(284.427174 313.515039) scale(0.14 -0.14)">
       <defs>
        <path id="ArialMT-1b" d="M 1131 2484 
Q 781 2613 612 2850 
Q 444 3088 444 3419 
Q 444 3919 803 4259 
Q 1163 4600 1759 4600 
Q 2359 4600 2725 4251 
Q 3091 3903 3091 3403 
Q 3091 3084 2923 2848 
Q 2756 2613 2416 2484 
Q 2838 2347 3058 2040 
Q 3278 1734 3278 1309 
Q 3278 722 2862 322 
Q 2447 -78 1769 -78 
Q 1091 -78 675 323 
Q 259 725 259 1325 
Q 259 1772 486 2073 
Q 713 2375 1131 2484 
z
M 1019 3438 
Q 1019 3113 1228 2906 
Q 1438 2700 1772 2700 
Q 2097 2700 2305 2904 
Q 2513 3109 2513 3406 
Q 2513 3716 2298 3927 
Q 2084 4138 1766 4138 
Q 1444 4138 1231 3931 
Q 1019 3725 1019 3438 
z
M 838 1322 
Q 838 1081 952 856 
Q 1066 631 1291 507 
Q 1516 384 1775 384 
Q 2178 384 2440 643 
Q 2703 903 2703 1303 
Q 2703 1709 2433 1975 
Q 2163 2241 1756 2241 
Q 1359 2241 1098 1978 
Q 838 1716 838 1322 
z
" transform="scale(0.015625)"/>
       </defs>
       <use xlink:href="#ArialMT-1b"/>
       <use xlink:href="#ArialMT-13" transform="translate(55.609375 0)"/>
       <use xlink:href="#ArialMT-13" transform="translate(111.21875 0)"/>
      </g>
     </g>
    </g>
    <g id="xtick_6">
     <g id="line2d_6">
      <g>
       <use xlink:href="#m9367f33a28" x="361.225365" y="299.822656" style="stroke: #000000; stroke-width: 1.5"/>
      </g>
     </g>
     <g id="text_6">
      <!-- 1000 -->
      <g transform="translate(345.65474 313.515039) scale(0.14 -0.14)">
       <defs>
        <path id="ArialMT-14" d="M 2384 0 
L 1822 0 
L 1822 3584 
Q 1619 3391 1289 3197 
Q 959 3003 697 2906 
L 697 3450 
Q 1169 3672 1522 3987 
Q 1875 4303 2022 4600 
L 2384 4600 
L 2384 0 
z
" transform="scale(0.015625)"/>
       </defs>
       <use xlink:href="#ArialMT-14"/>
       <use xlink:href="#ArialMT-13" transform="translate(55.609375 0)"/>
       <use xlink:href="#ArialMT-13" transform="translate(111.21875 0)"/>
       <use xlink:href="#ArialMT-13" transform="translate(166.828125 0)"/>
      </g>
     </g>
    </g>
    <g id="xtick_7">
     <g id="line2d_7">
      <g>
       <use xlink:href="#m9367f33a28" x="426.345586" y="299.822656" style="stroke: #000000; stroke-width: 1.5"/>
      </g>
     </g>
     <g id="text_7">
      <!-- 1200 -->
      <g transform="translate(410.774961 313.515039) scale(0.14 -0.14)">
       <use xlink:href="#ArialMT-14"/>
       <use xlink:href="#ArialMT-15" transform="translate(55.609375 0)"/>
       <use xlink:href="#ArialMT-13" transform="translate(111.21875 0)"/>
       <use xlink:href="#ArialMT-13" transform="translate(166.828125 0)"/>
      </g>
     </g>
    </g>
    <g id="text_8">
     <!-- T1 Temperature (°C) -->
     <g transform="translate(167.245547 330.653711) scale(0.14 -0.14)">
      <defs>
       <path id="ArialMT-37" d="M 1659 0 
L 1659 4041 
L 150 4041 
L 150 4581 
L 3781 4581 
L 3781 4041 
L 2266 4041 
L 2266 0 
L 1659 0 
z
" transform="scale(0.015625)"/>
       <path id="ArialMT-3" transform="scale(0.015625)"/>
       <path id="ArialMT-48" d="M 2694 1069 
L 3275 997 
Q 3138 488 2766 206 
Q 2394 -75 1816 -75 
Q 1088 -75 661 373 
Q 234 822 234 1631 
Q 234 2469 665 2931 
Q 1097 3394 1784 3394 
Q 2450 3394 2872 2941 
Q 3294 2488 3294 1666 
Q 3294 1616 3291 1516 
L 816 1516 
Q 847 969 1125 678 
Q 1403 388 1819 388 
Q 2128 388 2347 550 
Q 2566 713 2694 1069 
z
M 847 1978 
L 2700 1978 
Q 2663 2397 2488 2606 
Q 2219 2931 1791 2931 
Q 1403 2931 1139 2672 
Q 875 2413 847 1978 
z
" transform="scale(0.015625)"/>
       <path id="ArialMT-50" d="M 422 0 
L 422 3319 
L 925 3319 
L 925 2853 
Q 1081 3097 1340 3245 
Q 1600 3394 1931 3394 
Q 2300 3394 2536 3241 
Q 2772 3088 2869 2813 
Q 3263 3394 3894 3394 
Q 4388 3394 4653 3120 
Q 4919 2847 4919 2278 
L 4919 0 
L 4359 0 
L 4359 2091 
Q 4359 2428 4304 2576 
Q 4250 2725 4106 2815 
Q 3963 2906 3769 2906 
Q 3419 2906 3187 2673 
Q 2956 2441 2956 1928 
L 2956 0 
L 2394 0 
L 2394 2156 
Q 2394 2531 2256 2718 
Q 2119 2906 1806 2906 
Q 1569 2906 1367 2781 
Q 1166 2656 1075 2415 
Q 984 2175 984 1722 
L 984 0 
L 422 0 
z
" transform="scale(0.015625)"/>
       <path id="ArialMT-53" d="M 422 -1272 
L 422 3319 
L 934 3319 
L 934 2888 
Q 1116 3141 1344 3267 
Q 1572 3394 1897 3394 
Q 2322 3394 2647 3175 
Q 2972 2956 3137 2557 
Q 3303 2159 3303 1684 
Q 3303 1175 3120 767 
Q 2938 359 2589 142 
Q 2241 -75 1856 -75 
Q 1575 -75 1351 44 
Q 1128 163 984 344 
L 984 -1272 
L 422 -1272 
z
M 931 1641 
Q 931 1000 1190 694 
Q 1450 388 1819 388 
Q 2194 388 2461 705 
Q 2728 1022 2728 1688 
Q 2728 2322 2467 2637 
Q 2206 2953 1844 2953 
Q 1484 2953 1207 2617 
Q 931 2281 931 1641 
z
" transform="scale(0.015625)"/>
       <path id="ArialMT-55" d="M 416 0 
L 416 3319 
L 922 3319 
L 922 2816 
Q 1116 3169 1280 3281 
Q 1444 3394 1641 3394 
Q 1925 3394 2219 3213 
L 2025 2691 
Q 1819 2813 1613 2813 
Q 1428 2813 1281 2702 
Q 1134 2591 1072 2394 
Q 978 2094 978 1738 
L 978 0 
L 416 0 
z
" transform="scale(0.015625)"/>
       <path id="ArialMT-44" d="M 2588 409 
Q 2275 144 1986 34 
Q 1697 -75 1366 -75 
Q 819 -75 525 192 
Q 231 459 231 875 
Q 231 1119 342 1320 
Q 453 1522 633 1644 
Q 813 1766 1038 1828 
Q 1203 1872 1538 1913 
Q 2219 1994 2541 2106 
Q 2544 2222 2544 2253 
Q 2544 2597 2384 2738 
Q 2169 2928 1744 2928 
Q 1347 2928 1158 2789 
Q 969 2650 878 2297 
L 328 2372 
Q 403 2725 575 2942 
Q 747 3159 1072 3276 
Q 1397 3394 1825 3394 
Q 2250 3394 2515 3294 
Q 2781 3194 2906 3042 
Q 3031 2891 3081 2659 
Q 3109 2516 3109 2141 
L 3109 1391 
Q 3109 606 3145 398 
Q 3181 191 3288 0 
L 2700 0 
Q 2613 175 2588 409 
z
M 2541 1666 
Q 2234 1541 1622 1453 
Q 1275 1403 1131 1340 
Q 988 1278 909 1158 
Q 831 1038 831 891 
Q 831 666 1001 516 
Q 1172 366 1500 366 
Q 1825 366 2078 508 
Q 2331 650 2450 897 
Q 2541 1088 2541 1459 
L 2541 1666 
z
" transform="scale(0.015625)"/>
       <path id="ArialMT-57" d="M 1650 503 
L 1731 6 
Q 1494 -44 1306 -44 
Q 1000 -44 831 53 
Q 663 150 594 308 
Q 525 466 525 972 
L 525 2881 
L 113 2881 
L 113 3319 
L 525 3319 
L 525 4141 
L 1084 4478 
L 1084 3319 
L 1650 3319 
L 1650 2881 
L 1084 2881 
L 1084 941 
Q 1084 700 1114 631 
Q 1144 563 1211 522 
Q 1278 481 1403 481 
Q 1497 481 1650 503 
z
" transform="scale(0.015625)"/>
       <path id="ArialMT-58" d="M 2597 0 
L 2597 488 
Q 2209 -75 1544 -75 
Q 1250 -75 995 37 
Q 741 150 617 320 
Q 494 491 444 738 
Q 409 903 409 1263 
L 409 3319 
L 972 3319 
L 972 1478 
Q 972 1038 1006 884 
Q 1059 663 1231 536 
Q 1403 409 1656 409 
Q 1909 409 2131 539 
Q 2353 669 2445 892 
Q 2538 1116 2538 1541 
L 2538 3319 
L 3100 3319 
L 3100 0 
L 2597 0 
z
" transform="scale(0.015625)"/>
       <path id="ArialMT-b" d="M 1497 -1347 
Q 1031 -759 709 28 
Q 388 816 388 1659 
Q 388 2403 628 3084 
Q 909 3875 1497 4659 
L 1900 4659 
Q 1522 4009 1400 3731 
Q 1209 3300 1100 2831 
Q 966 2247 966 1656 
Q 966 153 1900 -1347 
L 1497 -1347 
z
" transform="scale(0.015625)"/>
       <path id="ArialMT-83" d="M 400 3794 
Q 400 4153 654 4406 
Q 909 4659 1266 4659 
Q 1628 4659 1881 4406 
Q 2134 4153 2134 3794 
Q 2134 3434 1879 3179 
Q 1625 2925 1266 2925 
Q 909 2925 654 3178 
Q 400 3431 400 3794 
z
M 741 3794 
Q 741 3575 895 3420 
Q 1050 3266 1269 3266 
Q 1484 3266 1639 3420 
Q 1794 3575 1794 3794 
Q 1794 4013 1639 4167 
Q 1484 4322 1269 4322 
Q 1050 4322 895 4167 
Q 741 4013 741 3794 
z
" transform="scale(0.015625)"/>
       <path id="ArialMT-26" d="M 3763 1606 
L 4369 1453 
Q 4178 706 3683 314 
Q 3188 -78 2472 -78 
Q 1731 -78 1267 223 
Q 803 525 561 1097 
Q 319 1669 319 2325 
Q 319 3041 592 3573 
Q 866 4106 1370 4382 
Q 1875 4659 2481 4659 
Q 3169 4659 3637 4309 
Q 4106 3959 4291 3325 
L 3694 3184 
Q 3534 3684 3231 3912 
Q 2928 4141 2469 4141 
Q 1941 4141 1586 3887 
Q 1231 3634 1087 3207 
Q 944 2781 944 2328 
Q 944 1744 1114 1308 
Q 1284 872 1643 656 
Q 2003 441 2422 441 
Q 2931 441 3284 734 
Q 3638 1028 3763 1606 
z
" transform="scale(0.015625)"/>
       <path id="ArialMT-c" d="M 791 -1347 
L 388 -1347 
Q 1322 153 1322 1656 
Q 1322 2244 1188 2822 
Q 1081 3291 891 3722 
Q 769 4003 388 4659 
L 791 4659 
Q 1378 3875 1659 3084 
Q 1900 2403 1900 1659 
Q 1900 816 1576 28 
Q 1253 -759 791 -1347 
z
" transform="scale(0.015625)"/>
      </defs>
      <use xlink:href="#ArialMT-37"/>
      <use xlink:href="#ArialMT-14" transform="translate(61.078125 0)"/>
      <use xlink:href="#ArialMT-3" transform="translate(116.6875 0)"/>
      <use xlink:href="#ArialMT-37" transform="translate(142.65625 0)"/>
      <use xlink:href="#ArialMT-48" transform="translate(192.65625 0)"/>
      <use xlink:href="#ArialMT-50" transform="translate(248.265625 0)"/>
      <use xlink:href="#ArialMT-53" transform="translate(331.5625 0)"/>
      <use xlink:href="#ArialMT-48" transform="translate(387.171875 0)"/>
      <use xlink:href="#ArialMT-55" transform="translate(442.78125 0)"/>
      <use xlink:href="#ArialMT-44" transform="translate(476.078125 0)"/>
      <use xlink:href="#ArialMT-57" transform="translate(531.6875 0)"/>
      <use xlink:href="#ArialMT-58" transform="translate(559.46875 0)"/>
      <use xlink:href="#ArialMT-55" transform="translate(615.078125 0)"/>
      <use xlink:href="#ArialMT-48" transform="translate(648.375 0)"/>
      <use xlink:href="#ArialMT-3" transform="translate(703.984375 0)"/>
      <use xlink:href="#ArialMT-b" transform="translate(731.765625 0)"/>
      <use xlink:href="#ArialMT-83" transform="translate(765.0625 0)"/>
      <use xlink:href="#ArialMT-26" transform="translate(805.046875 0)"/>
      <use xlink:href="#ArialMT-c" transform="translate(877.265625 0)"/>
     </g>
    </g>
   </g>
   <g id="matplotlib.axis_2">
    <g id="ytick_1">
     <g id="line2d_8">
      <defs>
       <path id="mdd20c8c294" d="M 0 0 
L 6 0 
" style="stroke: #000000; stroke-width: 1.5"/>
      </defs>
      <g>
       <use xlink:href="#mdd20c8c294" x="35.624258" y="280.72873" style="stroke: #000000; stroke-width: 1.5"/>
      </g>
     </g>
     <g id="text_9">
      <!-- 0 -->
      <g transform="translate(24.338945 285.824921) scale(0.14 -0.14)">
       <use xlink:href="#ArialMT-13"/>
      </g>
     </g>
    </g>
    <g id="ytick_2">
     <g id="line2d_9">
      <g>
       <use xlink:href="#mdd20c8c294" x="35.624258" y="247.99654" style="stroke: #000000; stroke-width: 1.5"/>
      </g>
     </g>
     <g id="text_10">
      <!-- 1 -->
      <g transform="translate(24.338945 253.092732) scale(0.14 -0.14)">
       <use xlink:href="#ArialMT-14"/>
      </g>
     </g>
    </g>
    <g id="ytick_3">
     <g id="line2d_10">
      <g>
       <use xlink:href="#mdd20c8c294" x="35.624258" y="215.264351" style="stroke: #000000; stroke-width: 1.5"/>
      </g>
     </g>
     <g id="text_11">
      <!-- 2 -->
      <g transform="translate(24.338945 220.360542) scale(0.14 -0.14)">
       <use xlink:href="#ArialMT-15"/>
      </g>
     </g>
    </g>
    <g id="ytick_4">
     <g id="line2d_11">
      <g>
       <use xlink:href="#mdd20c8c294" x="35.624258" y="182.532161" style="stroke: #000000; stroke-width: 1.5"/>
      </g>
     </g>
     <g id="text_12">
      <!-- 3 -->
      <g transform="translate(24.338945 187.628353) scale(0.14 -0.14)">
       <defs>
        <path id="ArialMT-16" d="M 269 1209 
L 831 1284 
Q 928 806 1161 595 
Q 1394 384 1728 384 
Q 2125 384 2398 659 
Q 2672 934 2672 1341 
Q 2672 1728 2419 1979 
Q 2166 2231 1775 2231 
Q 1616 2231 1378 2169 
L 1441 2663 
Q 1497 2656 1531 2656 
Q 1891 2656 2178 2843 
Q 2466 3031 2466 3422 
Q 2466 3731 2256 3934 
Q 2047 4138 1716 4138 
Q 1388 4138 1169 3931 
Q 950 3725 888 3313 
L 325 3413 
Q 428 3978 793 4289 
Q 1159 4600 1703 4600 
Q 2078 4600 2393 4439 
Q 2709 4278 2876 4000 
Q 3044 3722 3044 3409 
Q 3044 3113 2884 2869 
Q 2725 2625 2413 2481 
Q 2819 2388 3044 2092 
Q 3269 1797 3269 1353 
Q 3269 753 2831 336 
Q 2394 -81 1725 -81 
Q 1122 -81 723 278 
Q 325 638 269 1209 
z
" transform="scale(0.015625)"/>
       </defs>
       <use xlink:href="#ArialMT-16"/>
      </g>
     </g>
    </g>
    <g id="ytick_5">
     <g id="line2d_12">
      <g>
       <use xlink:href="#mdd20c8c294" x="35.624258" y="149.799972" style="stroke: #000000; stroke-width: 1.5"/>
      </g>
     </g>
     <g id="text_13">
      <!-- 4 -->
      <g transform="translate(24.338945 154.896163) scale(0.14 -0.14)">
       <use xlink:href="#ArialMT-17"/>
      </g>
     </g>
    </g>
    <g id="ytick_6">
     <g id="line2d_13">
      <g>
       <use xlink:href="#mdd20c8c294" x="35.624258" y="117.067782" style="stroke: #000000; stroke-width: 1.5"/>
      </g>
     </g>
     <g id="text_14">
      <!-- 5 -->
      <g transform="translate(24.338945 122.163974) scale(0.14 -0.14)">
       <defs>
        <path id="ArialMT-18" d="M 266 1200 
L 856 1250 
Q 922 819 1161 601 
Q 1400 384 1738 384 
Q 2144 384 2425 690 
Q 2706 997 2706 1503 
Q 2706 1984 2436 2262 
Q 2166 2541 1728 2541 
Q 1456 2541 1237 2417 
Q 1019 2294 894 2097 
L 366 2166 
L 809 4519 
L 3088 4519 
L 3088 3981 
L 1259 3981 
L 1013 2750 
Q 1425 3038 1878 3038 
Q 2478 3038 2890 2622 
Q 3303 2206 3303 1553 
Q 3303 931 2941 478 
Q 2500 -78 1738 -78 
Q 1113 -78 717 272 
Q 322 622 266 1200 
z
" transform="scale(0.015625)"/>
       </defs>
       <use xlink:href="#ArialMT-18"/>
      </g>
     </g>
    </g>
    <g id="ytick_7">
     <g id="line2d_14">
      <g>
       <use xlink:href="#mdd20c8c294" x="35.624258" y="84.335593" style="stroke: #000000; stroke-width: 1.5"/>
      </g>
     </g>
     <g id="text_15">
      <!-- 6 -->
      <g transform="translate(24.338945 89.431784) scale(0.14 -0.14)">
       <use xlink:href="#ArialMT-19"/>
      </g>
     </g>
    </g>
    <g id="ytick_8">
     <g id="line2d_15">
      <g>
       <use xlink:href="#mdd20c8c294" x="35.624258" y="51.603403" style="stroke: #000000; stroke-width: 1.5"/>
      </g>
     </g>
     <g id="text_16">
      <!-- 7 -->
      <g transform="translate(24.338945 56.699595) scale(0.14 -0.14)">
       <defs>
        <path id="ArialMT-1a" d="M 303 3981 
L 303 4522 
L 3269 4522 
L 3269 4084 
Q 2831 3619 2401 2847 
Q 1972 2075 1738 1259 
Q 1569 684 1522 0 
L 944 0 
Q 953 541 1156 1306 
Q 1359 2072 1739 2783 
Q 2119 3494 2547 3981 
L 303 3981 
z
" transform="scale(0.015625)"/>
       </defs>
       <use xlink:href="#ArialMT-1a"/>
      </g>
     </g>
    </g>
    <g id="text_17">
     <!-- Ion Current (m/z 32) -->
     <g transform="translate(17.392383 222.733457) rotate(-90) scale(0.14 -0.14)">
      <defs>
       <path id="ArialMT-2c" d="M 597 0 
L 597 4581 
L 1203 4581 
L 1203 0 
L 597 0 
z
" transform="scale(0.015625)"/>
       <path id="ArialMT-52" d="M 213 1659 
Q 213 2581 725 3025 
Q 1153 3394 1769 3394 
Q 2453 3394 2887 2945 
Q 3322 2497 3322 1706 
Q 3322 1066 3130 698 
Q 2938 331 2570 128 
Q 2203 -75 1769 -75 
Q 1072 -75 642 372 
Q 213 819 213 1659 
z
M 791 1659 
Q 791 1022 1069 705 
Q 1347 388 1769 388 
Q 2188 388 2466 706 
Q 2744 1025 2744 1678 
Q 2744 2294 2464 2611 
Q 2184 2928 1769 2928 
Q 1347 2928 1069 2612 
Q 791 2297 791 1659 
z
" transform="scale(0.015625)"/>
       <path id="ArialMT-51" d="M 422 0 
L 422 3319 
L 928 3319 
L 928 2847 
Q 1294 3394 1984 3394 
Q 2284 3394 2536 3286 
Q 2788 3178 2913 3003 
Q 3038 2828 3088 2588 
Q 3119 2431 3119 2041 
L 3119 0 
L 2556 0 
L 2556 2019 
Q 2556 2363 2490 2533 
Q 2425 2703 2258 2804 
Q 2091 2906 1866 2906 
Q 1506 2906 1245 2678 
Q 984 2450 984 1813 
L 984 0 
L 422 0 
z
" transform="scale(0.015625)"/>
       <path id="ArialMT-12" d="M 0 -78 
L 1328 4659 
L 1778 4659 
L 453 -78 
L 0 -78 
z
" transform="scale(0.015625)"/>
       <path id="ArialMT-5d" d="M 125 0 
L 125 456 
L 2238 2881 
Q 1878 2863 1603 2863 
L 250 2863 
L 250 3319 
L 2963 3319 
L 2963 2947 
L 1166 841 
L 819 456 
Q 1197 484 1528 484 
L 3063 484 
L 3063 0 
L 125 0 
z
" transform="scale(0.015625)"/>
      </defs>
      <use xlink:href="#ArialMT-2c"/>
      <use xlink:href="#ArialMT-52" transform="translate(27.78125 0)"/>
      <use xlink:href="#ArialMT-51" transform="translate(83.390625 0)"/>
      <use xlink:href="#ArialMT-3" transform="translate(139 0)"/>
      <use xlink:href="#ArialMT-26" transform="translate(166.78125 0)"/>
      <use xlink:href="#ArialMT-58" transform="translate(239 0)"/>
      <use xlink:href="#ArialMT-55" transform="translate(294.609375 0)"/>
      <use xlink:href="#ArialMT-55" transform="translate(327.90625 0)"/>
      <use xlink:href="#ArialMT-48" transform="translate(361.203125 0)"/>
      <use xlink:href="#ArialMT-51" transform="translate(416.8125 0)"/>
      <use xlink:href="#ArialMT-57" transform="translate(472.421875 0)"/>
      <use xlink:href="#ArialMT-3" transform="translate(500.203125 0)"/>
      <use xlink:href="#ArialMT-b" transform="translate(527.984375 0)"/>
      <use xlink:href="#ArialMT-50" transform="translate(561.28125 0)"/>
      <use xlink:href="#ArialMT-12" transform="translate(644.578125 0)"/>
      <use xlink:href="#ArialMT-5d" transform="translate(672.359375 0)"/>
      <use xlink:href="#ArialMT-3" transform="translate(722.359375 0)"/>
      <use xlink:href="#ArialMT-16" transform="translate(750.140625 0)"/>
      <use xlink:href="#ArialMT-15" transform="translate(805.75 0)"/>
      <use xlink:href="#ArialMT-c" transform="translate(861.359375 0)"/>
     </g>
    </g>
    <g id="text_18">
     <!-- 1e−13 -->
     <g transform="translate(35.624258 17.392383) scale(0.14 -0.14)">
      <defs>
       <path id="ArialMT-ed" d="M 3381 1997 
L 356 1997 
L 356 2522 
L 3381 2522 
L 3381 1997 
z
" transform="scale(0.015625)"/>
      </defs>
      <use xlink:href="#ArialMT-14"/>
      <use xlink:href="#ArialMT-48" transform="translate(55.609375 0)"/>
      <use xlink:href="#ArialMT-ed" transform="translate(111.21875 0)"/>
      <use xlink:href="#ArialMT-14" transform="translate(169.625 0)"/>
      <use xlink:href="#ArialMT-16" transform="translate(225.234375 0)"/>
     </g>
    </g>
   </g>
   <g id="line2d_16">
    <path d="M 55.095204 287.12128 
L 55.030084 267.563569 
L 54.964964 268.468144 
L 55.127764 269.738028 
L 55.844087 269.543714 
L 57.537212 270.914132 
L 59.88154 272.196012 
L 62.160748 272.136654 
L 64.081795 274.604513 
L 65.61212 271.299716 
L 66.881964 274.236635 
L 68.151808 275.411431 
L 69.291412 274.328153 
L 70.463576 271.906157 
L 71.733421 276.756231 
L 73.035825 277.705233 
L 74.338229 282.027734 
L 75.770874 283.703392 
L 77.170959 283.077737 
L 78.505924 281.343067 
L 79.840888 283.588722 
L 81.143293 282.361511 
L 82.348017 279.577676 
L 83.617861 278.069238 
L 84.887705 280.832649 
L 86.19011 277.001326 
L 87.394834 278.19958 
L 88.664678 280.894277 
L 89.934522 275.838827 
L 91.204367 276.379889 
L 92.474211 276.01939 
L 93.776615 273.939667 
L 95.07902 276.493815 
L 97.651269 272.78014 
L 98.921113 268.987468 
L 100.158397 270.745283 
L 101.428241 272.309482 
L 102.698086 266.257707 
L 103.96793 268.903543 
L 105.237774 270.567959 
L 106.507619 272.919141 
L 107.810023 276.093025 
L 109.047307 276.24843 
L 110.349712 278.596163 
L 111.619556 277.728674 
L 112.8894 274.995942 
L 114.159245 273.811452 
L 115.429089 271.215425 
L 116.731494 271.739759 
L 118.033898 270.118262 
L 119.336302 270.190305 
L 120.638707 269.099762 
L 121.875991 272.307071 
L 123.145835 273.214723 
L 124.44824 274.67003 
L 125.652964 275.350301 
L 126.922808 279.165215 
L 128.225213 275.692794 
L 129.527617 272.805902 
L 130.797461 268.197484 
L 132.099866 269.249491 
L 133.30459 269.217385 
L 134.574434 272.362433 
L 135.811718 270.157517 
L 137.081563 271.598139 
L 138.318847 271.569848 
L 139.621251 275.213001 
L 140.891096 273.332781 
L 142.16094 271.18776 
L 143.463344 271.87164 
L 144.700629 275.948281 
L 146.003033 278.567756 
L 147.240317 281.446113 
L 148.542722 278.15447 
L 149.812566 278.877699 
L 151.11497 275.733011 
L 152.417375 277.788125 
L 153.654659 274.342538 
L 154.957063 276.082925 
L 156.226908 275.283965 
L 157.464192 270.614593 
L 158.701476 268.174634 
L 160.003881 266.875317 
L 161.241165 264.481705 
L 162.478449 266.422954 
L 163.748293 267.054438 
L 166.385662 274.391788 
L 167.655507 283.123367 
L 168.957911 283.465923 
L 170.260315 279.275797 
L 171.56272 279.162817 
L 172.800004 275.320369 
L 174.037288 273.072988 
L 175.339693 272.220865 
L 176.642097 271.863958 
L 177.846821 274.368428 
L 179.051545 278.959483 
L 180.35395 282.006027 
L 181.623794 281.964582 
L 182.893638 280.003739 
L 184.163483 279.641993 
L 186.638051 274.115979 
L 187.907895 272.6394 
L 189.2103 271.382738 
L 190.480144 274.468429 
L 191.717428 278.017127 
L 192.987273 277.915025 
L 194.257117 278.748755 
L 195.559521 277.0413 
L 196.796806 276.768125 
L 198.06665 272.6392 
L 199.369054 271.668833 
L 200.638899 271.332324 
L 201.908743 270.831839 
L 203.146027 272.240015 
L 204.448432 274.735656 
L 205.718276 276.646523 
L 206.95556 275.753756 
L 208.225405 270.517539 
L 209.495249 268.749213 
L 210.765093 263.946239 
L 211.969817 266.454976 
L 213.272222 266.915759 
L 214.509506 265.756418 
L 215.77935 270.180365 
L 217.114315 270.520051 
L 218.351599 277.008792 
L 219.621443 277.108108 
L 220.793607 277.952328 
L 221.998331 278.635905 
L 223.268176 278.293291 
L 224.57058 278.478958 
L 225.872984 277.35629 
L 227.142829 270.802116 
L 228.445233 272.957386 
L 229.715078 268.234749 
L 230.919802 270.16484 
L 232.222206 271.255635 
L 233.49205 275.030178 
L 234.794455 279.958927 
L 236.031739 282.215514 
L 237.301583 282.194041 
L 238.603988 280.59266 
L 239.873832 278.700622 
L 241.111116 277.525855 
L 242.380961 274.22662 
L 243.650805 272.60138 
L 246.223054 273.393606 
L 247.492898 277.254301 
L 248.730182 276.989558 
L 251.302431 281.032562 
L 252.572275 285.291922 
L 253.809559 283.497387 
L 255.079404 281.030363 
L 256.414368 276.165118 
L 257.619092 272.946351 
L 258.888937 273.918204 
L 260.158781 269.775162 
L 261.396065 268.872033 
L 262.69847 273.215612 
L 265.335839 279.995883 
L 266.605683 280.36111 
L 267.842967 278.019866 
L 269.145372 278.885616 
L 270.382656 285.570652 
L 271.68506 286.232376 
L 272.987465 278.658391 
L 274.257309 278.675324 
L 275.527153 279.191397 
L 276.796998 276.987032 
L 278.034282 275.325212 
L 279.336686 271.588567 
L 280.57397 269.057071 
L 281.811255 269.819139 
L 283.081099 269.908602 
L 284.350943 270.712146 
L 285.588227 273.182664 
L 286.890632 279.912879 
L 288.193036 282.096481 
L 289.39776 286.407279 
L 290.700165 285.231709 
L 292.002569 284.72076 
L 293.207293 283.229781 
L 294.477138 276.277952 
L 295.746982 271.751513 
L 297.016826 272.622391 
L 298.286671 272.00066 
L 299.491395 274.08478 
L 300.793799 271.766599 
L 302.063643 275.966241 
L 303.300928 271.578363 
L 304.570772 272.112584 
L 305.840616 271.8372 
L 307.110461 269.222979 
L 308.380305 272.07799 
L 309.617589 271.765059 
L 310.854873 272.261353 
L 312.189838 276.672522 
L 313.459682 278.203964 
L 314.696966 280.143513 
L 315.901691 277.369562 
L 317.236655 277.640834 
L 319.776344 275.185155 
L 321.013628 277.735562 
L 323.520756 272.788602 
L 324.823161 274.169441 
L 326.027885 276.323841 
L 327.362849 275.209296 
L 328.958295 274.978169 
L 330.32582 275.439975 
L 331.595664 275.088576 
L 332.898068 277.063856 
L 334.102792 280.016994 
L 335.340077 279.734341 
L 336.675041 277.739434 
L 337.944885 274.516298 
L 339.24729 278.14462 
L 340.419454 277.977035 
L 341.754418 276.316935 
L 342.959142 276.991973 
L 344.326667 276.184019 
L 345.563951 276.258998 
L 346.768675 275.732477 
L 348.07108 274.420441 
L 349.406044 271.614917 
L 350.545648 270.566759 
L 351.815493 273.987202 
L 353.183017 275.184259 
L 354.387741 272.565223 
L 355.690146 271.853091 
L 356.99255 269.130856 
L 358.294955 269.359274 
L 359.369438 268.970273 
L 360.704403 270.916159 
L 362.071927 272.575344 
L 363.211531 270.906352 
L 364.513936 274.38518 
L 368.453709 268.192139 
L 369.625873 268.555904 
L 370.895717 270.481377 
L 372.133002 272.848894 
L 373.435406 274.105692 
L 374.57501 272.326483 
L 375.844854 271.550976 
L 377.114699 277.857429 
L 378.384543 277.351325 
L 380.956792 277.232227 
L 382.128956 271.919447 
L 383.43136 268.912153 
L 384.603524 267.398356 
L 386.068729 264.410028 
L 387.306013 259.217889 
L 388.575858 262.919956 
L 389.813142 268.332549 
L 391.148106 271.149066 
L 392.22259 272.51388 
L 393.980836 273.114821 
L 395.3158 267.003192 
L 399.157894 262.823497 
L 400.492858 258.929259 
L 402.902306 266.926319 
L 404.07447 266.591539 
L 405.474555 267.232935 
L 408.014244 260.951686 
L 409.381768 261.003758 
L 410.586492 256.431422 
L 411.758656 255.5628 
L 412.96338 252.822192 
L 414.330905 256.777101 
L 416.935714 260.275594 
L 418.270678 259.7679 
L 419.312602 257.5957 
L 420.745247 256.668089 
L 421.852291 254.192208 
L 423.187255 249.501924 
L 424.48966 241.931104 
L 425.531583 230.813614 
L 425.531583 230.813614 
" clip-path="url(#pe1d55861d3)" style="fill: none; stroke: #000000; stroke-width: 2.5; stroke-linecap: square"/>
   </g>
   <g id="line2d_17">
    <path d="M 46.857496 245.088111 
L 46.857496 266.052998 
L 46.857496 243.673018 
L 47.020297 246.361958 
L 47.704059 247.951316 
L 49.494865 249.827275 
L 51.806633 255.559056 
L 54.05328 257.066482 
L 55.941767 262.105223 
L 57.504652 271.339895 
L 58.807057 269.189972 
L 59.979221 268.227867 
L 61.053704 265.499356 
L 62.323549 267.092529 
L 64.798117 256.890436 
L 66.165642 252.4016 
L 67.468046 251.777513 
L 70.040295 256.66543 
L 71.245019 253.157638 
L 72.579983 254.612921 
L 75.249913 266.332951 
L 76.552317 268.823093 
L 77.919842 268.401277 
L 79.319926 263.927798 
L 80.52465 264.551701 
L 81.859615 262.590506 
L 83.064339 265.135508 
L 84.366743 267.546265 
L 85.571468 266.802299 
L 86.938992 265.27668 
L 89.478681 264.000187 
L 90.683405 259.665255 
L 91.985809 259.060964 
L 93.288214 255.86444 
L 94.558058 258.928651 
L 95.860463 264.771955 
L 97.000066 265.262991 
L 98.335031 260.180794 
L 99.604875 259.573602 
L 100.90728 261.719372 
L 102.242244 259.958302 
L 103.381848 264.592891 
L 104.716813 262.712127 
L 105.986657 264.705081 
L 107.321622 268.299393 
L 108.526346 268.641478 
L 109.82875 266.943308 
L 111.163715 266.302719 
L 112.303318 266.149514 
L 113.638283 263.951258 
L 114.940687 262.308075 
L 116.112851 262.536739 
L 117.447816 255.278238 
L 118.78278 262.375998 
L 120.020065 261.010821 
L 121.355029 258.138635 
L 122.657434 256.947153 
L 123.894718 258.566167 
L 125.099442 256.674184 
L 126.336726 256.65549 
L 127.639131 259.64028 
L 128.908975 261.875138 
L 130.178819 266.070147 
L 131.416103 272.172522 
L 132.751068 268.129358 
L 134.053472 265.870617 
L 135.323317 266.53713 
L 136.528041 263.988134 
L 137.895565 255.307719 
L 139.10029 254.376393 
L 140.305014 255.132414 
L 141.672538 256.823921 
L 142.909822 261.725397 
L 144.277347 262.509134 
L 145.482071 262.140889 
L 146.751916 268.997366 
L 148.02176 268.836545 
L 149.259044 261.041754 
L 150.561449 260.376191 
L 151.863853 257.433678 
L 153.166257 256.443945 
L 154.403542 250.929535 
L 155.705946 246.531341 
L 156.91067 237.747731 
L 158.115394 235.867735 
L 159.450359 239.469992 
L 160.720203 232.585288 
L 161.957487 230.138746 
L 163.227332 236.477823 
L 164.497176 235.851396 
L 165.79958 238.428403 
L 167.134545 239.883344 
L 168.371829 241.900275 
L 169.609113 241.304573 
L 170.911518 244.583308 
L 172.116242 250.893147 
L 173.516327 249.560395 
L 174.721051 251.506489 
L 175.958335 250.384539 
L 177.228179 241.761783 
L 179.767868 235.943308 
L 181.102832 237.814942 
L 182.340117 237.386418 
L 183.609961 237.335789 
L 184.847245 242.500285 
L 186.117089 244.440621 
L 187.419494 249.647149 
L 188.721898 253.549002 
L 189.926622 250.266578 
L 191.196467 255.514194 
L 192.466311 253.033691 
L 193.768715 254.581078 
L 195.07112 252.874477 
L 196.275844 250.942703 
L 197.578248 249.92749 
L 198.815533 247.173673 
L 200.085377 247.480833 
L 202.625065 250.388115 
L 203.797229 249.114058 
L 205.197314 246.943037 
L 206.369478 245.980875 
L 207.671883 247.058669 
L 208.909167 251.880336 
L 210.211571 255.966612 
L 211.481416 258.426435 
L 212.7187 257.343517 
L 213.955984 260.031675 
L 215.225828 263.378781 
L 216.495673 261.722205 
L 219.067921 257.345977 
L 220.305206 258.282028 
L 221.57505 256.145614 
L 222.877454 255.533932 
L 224.082178 258.685487 
L 225.417143 258.984694 
L 226.686987 261.907604 
L 227.891711 262.2738 
L 229.161556 264.552705 
L 231.668684 259.394098 
L 232.938529 259.898305 
L 234.175813 250.613608 
L 235.510777 249.304194 
L 236.780622 250.929938 
L 238.017906 257.477698 
L 239.32031 258.722588 
L 241.859999 265.201793 
L 243.129843 264.713987 
L 244.367127 263.454806 
L 245.669532 263.760891 
L 246.906816 259.872672 
L 248.241781 258.713984 
L 249.446505 256.92915 
L 250.748909 257.942325 
L 251.986193 255.48483 
L 253.288598 258.903974 
L 254.558442 257.090339 
L 255.763166 253.832143 
L 257.098131 252.59139 
L 258.335415 253.952381 
L 259.572699 256.349646 
L 260.842543 257.969525 
L 262.112388 258.396103 
L 263.447352 257.161954 
L 264.814877 262.293532 
L 266.019601 267.94351 
L 267.322005 272.380869 
L 268.59185 272.003502 
L 269.894254 270.558492 
L 271.164098 272.51495 
L 273.638667 268.82976 
L 274.908511 267.403341 
L 276.178355 266.866819 
L 277.48076 269.306487 
L 278.718044 273.694345 
L 279.987888 278.829178 
L 281.257733 276.524931 
L 282.560137 275.129604 
L 283.797421 272.049509 
L 285.034706 269.55148 
L 286.33711 267.178162 
L 287.574394 265.389623 
L 288.811678 265.072272 
L 290.114083 266.86284 
L 291.416487 271.222451 
L 292.621211 277.590697 
L 293.923616 275.280776 
L 295.22602 275.507085 
L 296.430744 273.957204 
L 297.700589 271.377338 
L 298.970433 267.7394 
L 300.272837 268.42476 
L 301.477561 260.958824 
L 302.779966 255.465372 
L 303.98469 252.331419 
L 305.287094 254.590608 
L 306.556939 251.194231 
L 309.064067 253.256397 
L 310.301351 252.975534 
L 312.84104 267.83393 
L 314.143445 263.195319 
L 315.413289 264.220617 
L 316.683133 265.971737 
L 317.887857 272.877642 
L 319.157702 272.200514 
L 320.460106 272.829544 
L 321.76251 265.519472 
L 322.934674 257.104912 
L 324.269639 252.001565 
L 326.744207 249.509629 
L 328.307093 250.856322 
L 329.707177 253.201636 
L 331.009582 261.116591 
L 332.344546 267.989962 
L 333.614391 273.30851 
L 334.819115 265.943871 
L 336.154079 262.032845 
L 337.391364 253.607922 
L 338.596088 253.065126 
L 339.931052 250.689559 
L 341.168336 249.118192 
L 342.503301 252.371919 
L 343.708025 252.570284 
L 345.010429 257.888092 
L 346.280274 257.705862 
L 347.550118 257.902236 
L 348.852523 258.398999 
L 350.024687 257.3617 
L 351.261971 261.857413 
L 352.596935 264.404188 
L 355.104064 260.704047 
L 356.439028 256.16767 
L 357.546072 257.956611 
L 358.946157 256.763072 
L 360.281121 257.097011 
L 361.453285 256.096536 
L 362.658009 261.376519 
L 363.927854 265.664385 
L 365.197698 267.150957 
L 367.835067 263.290001 
L 369.104911 264.321876 
L 370.309635 268.415768 
L 371.57948 267.562053 
L 372.784204 267.858973 
L 374.119168 265.576805 
L 375.258772 266.014794 
L 376.626297 268.314624 
L 377.896141 267.001252 
L 379.068305 261.827587 
L 380.40327 261.114602 
L 381.673114 262.221509 
L 382.877838 264.609187 
L 384.147683 262.623071 
L 385.384967 262.116116 
L 386.719931 260.996883 
L 388.022336 261.184116 
L 389.16194 260.29269 
L 390.496904 253.090385 
L 391.799309 250.292581 
L 393.199393 254.309238 
L 394.697158 257.284261 
L 395.869322 255.624386 
L 397.334527 253.214796 
L 398.571812 251.753443 
L 399.809096 254.318645 
L 401.1115 255.809221 
L 402.348784 251.264426 
L 403.618629 247.701605 
L 404.986153 248.307368 
L 406.093197 249.841897 
L 407.493282 249.424004 
L 408.730566 246.984559 
L 409.77249 249.308491 
L 411.205134 245.504982 
L 412.474979 250.468806 
L 413.809943 251.805846 
L 414.982107 249.84121 
L 416.186831 252.189144 
L 417.554356 248.392982 
L 418.889321 251.916256 
L 420.028924 250.433316 
L 421.363889 244.887386 
L 422.470933 233.81078 
L 424.001258 215.735808 
L 425.173422 189.194786 
L 425.173422 189.194786 
" clip-path="url(#pe1d55861d3)" style="fill: none; stroke: #1f77b4; stroke-width: 2.5; stroke-linecap: square"/>
   </g>
   <g id="line2d_18">
    <path d="M 46.662135 260.694453 
L 46.662135 252.9911 
L 46.662135 267.290124 
L 46.662135 266.771858 
L 46.792376 269.24371 
L 47.411018 274.310148 
L 48.908783 275.083017 
L 51.220551 274.563845 
L 53.532319 275.622877 
L 55.583606 274.942696 
L 57.211611 273.75276 
L 58.546576 274.821163 
L 60.890904 266.989854 
L 62.063068 268.134868 
L 63.267792 267.583628 
L 64.537636 263.839758 
L 65.840041 263.881005 
L 67.109885 262.988979 
L 68.379729 266.006532 
L 69.649573 266.808627 
L 70.919418 264.749957 
L 72.221822 263.726933 
L 73.491667 264.115378 
L 74.891751 263.934718 
L 76.324396 262.832885 
L 77.691921 258.812471 
L 78.994325 254.036335 
L 80.26417 251.802542 
L 81.534014 257.32309 
L 82.803858 256.13937 
L 84.073703 256.502888 
L 86.645951 259.107073 
L 87.883235 258.926288 
L 89.18564 262.244181 
L 90.455484 260.854519 
L 91.725329 259.137601 
L 93.027733 260.65994 
L 94.297577 265.260956 
L 95.567422 264.962534 
L 96.837266 266.133426 
L 99.376955 262.202175 
L 100.581679 259.320207 
L 101.916643 257.871603 
L 103.153927 256.051072 
L 104.391212 256.387649 
L 105.693616 256.180459 
L 106.99602 257.347315 
L 108.233305 257.31485 
L 109.503149 258.463978 
L 110.740433 254.227195 
L 111.977717 256.978074 
L 113.312682 255.141659 
L 114.549966 257.326582 
L 115.81981 257.764363 
L 117.122215 261.478438 
L 118.424619 266.018563 
L 119.857264 268.999039 
L 121.029428 270.009036 
L 122.299272 275.097031 
L 124.838961 275.840898 
L 126.108805 271.416298 
L 127.41121 265.18535 
L 128.648494 256.212759 
L 129.950898 255.555806 
L 131.188183 254.344495 
L 132.490587 253.956743 
L 133.695311 256.139208 
L 134.965155 263.071236 
L 136.36524 268.259815 
L 137.569964 266.106149 
L 138.839809 268.037757 
L 140.109653 268.601389 
L 141.444618 266.958899 
L 142.681902 268.244454 
L 143.951746 268.426912 
L 145.15647 266.028672 
L 146.491435 266.539622 
L 149.031123 263.638536 
L 150.300968 258.571828 
L 151.570812 254.430196 
L 152.808096 255.938663 
L 154.07794 253.806259 
L 155.347785 255.308898 
L 156.552509 260.374281 
L 157.854913 261.448577 
L 159.124758 266.419665 
L 160.362042 265.742591 
L 161.664446 266.464016 
L 162.966851 265.685767 
L 164.204135 262.719407 
L 165.441419 265.188447 
L 166.743824 263.738674 
L 168.111348 263.064749 
L 169.348632 263.504881 
L 170.716157 261.534001 
L 171.888321 260.857646 
L 173.158165 255.768072 
L 175.697854 255.395373 
L 176.935138 253.447153 
L 178.237543 250.31359 
L 179.539947 248.117948 
L 180.777231 247.627929 
L 181.981955 245.668612 
L 183.2518 245.991753 
L 184.554204 245.115225 
L 185.824048 244.607443 
L 187.061333 248.365877 
L 188.363737 245.024818 
L 190.903426 241.115479 
L 192.17327 242.817177 
L 193.410554 241.99026 
L 194.615278 240.755792 
L 195.917683 247.325092 
L 198.489931 257.218755 
L 199.759776 264.743095 
L 201.06218 262.642377 
L 203.569309 266.159569 
L 204.774033 266.389699 
L 207.346282 257.736761 
L 208.583566 259.024411 
L 209.91853 259.035522 
L 211.188375 260.417699 
L 212.425659 264.751999 
L 213.695503 263.93165 
L 214.965347 266.400172 
L 216.202632 269.775933 
L 217.505036 271.450857 
L 218.77488 272.605519 
L 220.044725 268.944445 
L 221.282009 264.796711 
L 222.551853 262.256007 
L 223.854258 257.417387 
L 225.091542 258.760946 
L 226.328826 257.874995 
L 227.63123 259.724913 
L 228.868515 262.400311 
L 231.375643 271.35248 
L 232.743168 269.939055 
L 233.980452 269.513568 
L 235.217736 266.46514 
L 236.487581 266.015889 
L 237.724865 264.11737 
L 239.027269 262.836491 
L 240.297114 266.383222 
L 241.534398 261.541519 
L 242.836802 260.841465 
L 244.139207 260.600483 
L 245.409051 256.553973 
L 246.613775 256.892192 
L 247.9813 256.876522 
L 249.153464 259.057986 
L 250.423308 258.688712 
L 251.758272 262.786543 
L 252.995557 267.869377 
L 254.232841 266.212506 
L 255.470125 271.357349 
L 256.83765 270.116807 
L 258.009814 266.007111 
L 259.312218 265.043386 
L 260.582062 264.839172 
L 261.851907 260.827411 
L 263.154311 260.25141 
L 264.489276 260.051717 
L 265.75912 263.078725 
L 267.094085 265.275253 
L 268.298809 267.994213 
L 269.633773 266.171493 
L 270.871057 268.103362 
L 272.075782 267.254658 
L 273.378186 267.567117 
L 274.61547 264.176805 
L 275.917875 260.037164 
L 277.220279 261.412567 
L 278.392443 260.247312 
L 279.694847 258.246853 
L 280.964692 255.565919 
L 282.234536 257.228424 
L 283.536941 260.994594 
L 284.676544 261.735635 
L 286.011509 265.96157 
L 287.248793 264.83316 
L 288.551198 265.510192 
L 289.821042 268.034464 
L 291.090886 265.865114 
L 292.425851 261.751839 
L 293.598015 256.913063 
L 294.867859 254.817518 
L 296.170263 256.123596 
L 297.407548 258.751592 
L 298.677392 266.011807 
L 299.947236 269.542286 
L 301.217081 275.656515 
L 302.421805 279.020004 
L 303.724209 279.591425 
L 304.994053 276.934121 
L 306.263898 273.053247 
L 307.468622 268.433913 
L 308.738466 269.241458 
L 310.040871 264.938444 
L 311.343275 265.579768 
L 312.613119 267.168123 
L 313.817843 270.003658 
L 315.087688 266.253811 
L 316.357532 264.28058 
L 317.627376 259.64221 
L 318.897221 257.036649 
L 320.199625 255.311776 
L 321.404349 252.547605 
L 322.739314 250.073756 
L 323.976598 253.78041 
L 325.246442 262.299655 
L 326.483726 265.82841 
L 327.916371 265.669416 
L 329.381576 266.669702 
L 331.986385 270.566486 
L 333.32135 269.525678 
L 334.526074 265.55769 
L 335.861038 262.82171 
L 337.130883 261.358296 
L 338.400727 261.126763 
L 339.605451 258.639822 
L 340.907856 260.581891 
L 342.21026 261.970728 
L 344.684828 273.762432 
L 345.922113 272.250246 
L 347.224517 266.942835 
L 348.461801 263.016575 
L 349.796766 261.315327 
L 351.03405 256.491917 
L 352.206214 257.097108 
L 353.573739 262.579397 
L 354.811023 263.414397 
L 356.080867 265.881542 
L 357.383272 272.310419 
L 358.522875 270.387897 
L 359.8904 266.269284 
L 361.160244 264.670781 
L 362.397529 263.599665 
L 363.699933 262.949891 
L 364.937217 266.619946 
L 366.239622 269.10084 
L 368.71419 262.918544 
L 370.114275 266.031839 
L 371.318999 264.949931 
L 372.588843 261.01839 
L 373.793567 260.942384 
L 375.030852 265.99511 
L 376.365816 266.692811 
L 377.63566 267.800931 
L 378.938065 265.488779 
L 380.110229 264.854076 
L 381.412633 262.551653 
L 382.682478 266.131224 
L 383.919762 266.471192 
L 385.026805 265.662097 
L 386.39433 269.370246 
L 387.696735 274.49402 
L 388.901459 276.923336 
L 390.203863 274.62529 
L 391.376027 271.848058 
L 392.808672 270.559432 
L 394.306437 266.561307 
L 395.739082 267.092103 
L 397.041486 265.865729 
L 398.343891 266.696623 
L 399.548615 264.013688 
L 400.851019 263.277037 
L 402.023183 263.355582 
L 403.293028 257.814636 
L 404.660552 255.792841 
L 405.930397 256.825282 
L 407.07 257.939962 
L 408.437525 261.452623 
L 409.577129 259.548395 
L 410.912093 259.0863 
L 412.279618 251.827888 
L 413.484342 247.455268 
L 414.623946 252.390055 
L 416.024031 251.475428 
L 417.163635 254.621782 
L 418.531159 252.741048 
L 419.801004 249.046048 
L 421.103408 240.145725 
L 422.308132 233.199293 
L 423.610537 230.946406 
L 424.978061 236.126719 
L 425.857184 251.479888 
L 425.857184 251.479888 
" clip-path="url(#pe1d55861d3)" style="fill: none; stroke: #0033ff; stroke-width: 2.5; stroke-linecap: square"/>
   </g>
   <g id="line2d_19">
    <path d="M 44.708529 277.409195 
L 44.773649 263.824863 
L 44.773649 265.571665 
L 44.871329 261.700143 
L 45.392291 263.884614 
L 46.955176 264.294841 
L 49.201824 265.565563 
L 51.578712 266.274464 
L 53.564879 263.043722 
L 55.258005 259.937241 
L 56.625529 257.746941 
L 57.797693 260.263493 
L 58.937297 257.122252 
L 60.174581 257.50119 
L 61.411865 261.570707 
L 62.68171 262.024807 
L 63.918994 261.95519 
L 65.221398 264.841645 
L 66.523803 263.059454 
L 67.793647 263.964625 
L 68.998371 260.315606 
L 70.268216 262.866793 
L 71.57062 260.178167 
L 72.807904 262.09688 
L 74.207989 263.070501 
L 75.575514 263.204106 
L 77.008158 265.960807 
L 78.310563 267.649222 
L 79.612967 272.129435 
L 80.915372 275.4083 
L 82.152656 271.895634 
L 83.4225 273.074584 
L 84.692345 269.835859 
L 85.994749 269.849782 
L 87.264593 270.775601 
L 88.566998 277.566377 
L 89.804282 278.901657 
L 91.074126 276.713621 
L 92.343971 278.300027 
L 93.613815 273.17249 
L 94.916219 269.642151 
L 97.423348 258.971983 
L 98.628072 256.150768 
L 99.995597 255.197627 
L 101.265441 261.859522 
L 102.470165 261.906393 
L 103.740009 266.854663 
L 104.977294 269.628288 
L 106.344818 272.130464 
L 107.582102 275.039635 
L 108.884507 274.894765 
L 110.154351 271.803902 
L 111.391635 269.41013 
L 112.596359 266.672076 
L 113.931324 268.073834 
L 115.136048 264.719974 
L 116.405892 269.020496 
L 117.773417 270.882721 
L 119.108382 271.296977 
L 120.378226 268.464267 
L 121.68063 271.237501 
L 122.885354 268.864251 
L 124.155199 269.429066 
L 125.425043 265.5017 
L 126.727447 264.756867 
L 128.029852 260.689341 
L 129.299696 261.807049 
L 130.569541 263.351954 
L 131.839385 264.314834 
L 133.076669 264.938645 
L 134.313953 268.4321 
L 135.616358 266.430439 
L 136.821082 270.344771 
L 138.221167 269.102908 
L 139.491011 266.856114 
L 140.728295 263.819017 
L 142.0307 263.528207 
L 143.267984 265.365637 
L 144.570388 269.799546 
L 145.840232 265.092002 
L 147.110077 261.396514 
L 148.314801 260.899903 
L 149.552085 262.443006 
L 150.88705 263.02781 
L 152.189454 255.40802 
L 153.426738 254.075812 
L 154.631462 257.786201 
L 155.933867 256.043765 
L 157.203711 256.878353 
L 158.506116 252.470452 
L 159.678279 253.047752 
L 161.013244 251.121574 
L 162.250528 246.173325 
L 163.552933 240.085319 
L 164.822777 235.000812 
L 166.060061 237.301635 
L 167.329906 245.597458 
L 168.66487 246.429593 
L 169.967274 245.492772 
L 171.204559 246.383006 
L 172.441843 242.967208 
L 173.711687 238.5404 
L 175.014092 233.522371 
L 176.316496 223.741433 
L 177.48866 230.532067 
L 178.725944 229.510173 
L 180.060909 232.98949 
L 181.330753 238.063044 
L 182.535477 232.345481 
L 183.903002 233.003616 
L 185.140286 225.953816 
L 186.475251 220.483517 
L 187.679975 212.427004 
L 188.949819 202.898167 
L 191.522068 194.240513 
L 192.791912 199.604823 
L 196.601445 240.063552 
L 197.838729 249.350096 
L 199.141134 254.907706 
L 200.410978 256.402979 
L 201.680822 251.064063 
L 202.918106 244.677674 
L 204.122831 245.987387 
L 205.392675 245.772924 
L 206.695079 249.385797 
L 207.964924 255.438797 
L 209.234768 255.436893 
L 210.504612 259.242213 
L 211.774457 259.443631 
L 213.011741 258.753144 
L 214.281585 259.157772 
L 215.551429 261.703986 
L 216.853834 263.549344 
L 218.123678 266.593286 
L 219.360962 263.520159 
L 220.630807 258.465199 
L 221.900651 256.709539 
L 223.170495 258.538408 
L 224.40778 256.22195 
L 225.677624 258.613265 
L 226.947468 257.01634 
L 228.184752 257.571804 
L 229.487157 259.047426 
L 230.757001 265.170705 
L 231.961725 258.283499 
L 233.26413 261.120492 
L 234.533974 268.190144 
L 235.836378 268.940296 
L 237.106223 264.329534 
L 238.343507 262.830892 
L 239.613351 258.310899 
L 240.883196 255.975891 
L 242.15304 252.99628 
L 243.422884 251.968438 
L 244.692728 249.537594 
L 245.995133 255.533196 
L 247.232417 256.197349 
L 248.469701 254.404659 
L 249.772106 254.955921 
L 251.00939 256.853527 
L 252.279234 260.595374 
L 253.581639 259.694367 
L 254.884043 261.195136 
L 256.121327 264.338475 
L 257.358612 268.146907 
L 258.661016 267.421432 
L 259.93086 265.030218 
L 261.168144 265.57487 
L 262.470549 265.480753 
L 263.805513 262.715844 
L 265.075358 256.460516 
L 266.345202 254.52646 
L 268.884891 258.212891 
L 270.187295 258.766381 
L 271.457139 262.86337 
L 272.694424 265.025822 
L 273.964268 264.516105 
L 275.234112 267.182533 
L 277.741241 265.496939 
L 279.043645 268.833077 
L 280.280929 269.928924 
L 281.583334 268.517669 
L 282.853178 270.43905 
L 284.123023 270.251704 
L 285.392867 267.893791 
L 286.597591 262.031973 
L 287.899995 260.161892 
L 289.2024 260.49613 
L 290.407124 263.297665 
L 291.742088 263.673297 
L 292.946812 262.344815 
L 294.249217 264.939966 
L 295.486501 268.219306 
L 296.756345 266.494827 
L 297.99363 264.495565 
L 299.263474 268.152282 
L 300.533318 272.219061 
L 301.803163 277.676501 
L 303.105567 279.310684 
L 304.310291 280.605422 
L 305.580135 280.906625 
L 306.88254 281.100102 
L 309.422228 275.011316 
L 310.659513 268.011093 
L 311.896797 270.523088 
L 313.134081 271.205279 
L 314.469046 271.032359 
L 315.70633 270.417749 
L 316.911054 274.667712 
L 318.213458 276.710476 
L 319.418182 275.943377 
L 320.753147 274.68652 
L 322.022991 275.071452 
L 323.292836 273.860215 
L 324.49756 272.181678 
L 325.832524 270.886854 
L 327.134929 268.740954 
L 328.632694 267.368718 
L 330.032779 269.938243 
L 331.367743 268.37838 
L 332.637587 269.634357 
L 333.939992 271.31829 
L 335.209836 272.421838 
L 336.47968 272.951089 
L 337.651844 271.238712 
L 339.019369 269.842829 
L 340.256653 266.284236 
L 341.461377 264.949658 
L 342.828902 268.432784 
L 344.033626 268.296815 
L 345.23835 272.674174 
L 346.540755 272.792811 
L 347.745479 272.056922 
L 349.080443 271.085689 
L 350.317728 271.112833 
L 351.587572 272.550405 
L 352.955096 267.764471 
L 354.159821 267.089581 
L 355.397105 270.348452 
L 356.699509 269.094302 
L 359.206638 263.672076 
L 360.411362 261.873867 
L 361.746326 258.138824 
L 364.253455 257.770006 
L 365.555859 255.334976 
L 366.858264 253.152199 
L 368.030428 255.345618 
L 369.332832 256.518255 
L 370.700357 255.168491 
L 371.807401 263.812969 
L 373.240045 266.713666 
L 374.379649 266.705456 
L 375.616934 269.284935 
L 376.951898 269.51491 
L 378.189182 268.697353 
L 379.426466 264.688094 
L 380.761431 262.612896 
L 381.933595 261.57404 
L 383.170879 263.309434 
L 384.538404 264.867355 
L 387.012972 260.925631 
L 388.315377 261.303045 
L 389.487541 261.766673 
L 390.789945 262.926223 
L 392.027229 260.9425 
L 393.524994 261.302387 
L 395.022759 262.263597 
L 396.227484 263.183154 
L 397.497328 260.928232 
L 398.864853 263.09298 
L 400.199817 264.374441 
L 401.437101 265.738565 
L 402.739506 267.917473 
L 403.94423 270.198445 
L 405.279194 270.699185 
L 406.386238 273.388969 
L 407.753763 272.892403 
L 408.925927 270.531753 
L 410.358572 270.730607 
L 411.400495 271.3102 
L 414.102984 260.767147 
L 415.210028 258.669808 
L 416.740353 255.15357 
L 417.814837 259.839732 
L 419.182362 260.274906 
L 420.387086 261.623883 
L 421.59181 261.805696 
L 422.861654 260.064841 
L 424.229179 255.645815 
L 425.401343 247.793112 
L 425.401343 247.793112 
" clip-path="url(#pe1d55861d3)" style="fill: none; stroke: #ff7f0e; stroke-width: 2.5; stroke-linecap: square"/>
   </g>
   <g id="line2d_20">
    <path d="M 55.127764 272.944632 
L 55.127764 262.245982 
L 55.127764 272.377414 
L 55.746406 269.958845 
L 57.374412 268.973702 
L 59.68618 266.903159 
L 64.081795 258.529702 
L 65.67724 253.126163 
L 66.979644 250.577951 
L 68.216929 252.969542 
L 69.323972 256.137885 
L 70.593817 260.386332 
L 71.765981 266.138414 
L 73.068385 271.082761 
L 74.43591 269.840586 
L 75.770874 266.940758 
L 77.138399 267.6127 
L 78.473363 266.513306 
L 79.775768 269.401932 
L 81.110732 269.399644 
L 82.315457 270.127506 
L 83.617861 271.329459 
L 84.855145 277.302158 
L 86.15755 276.790889 
L 87.459954 274.487138 
L 88.729798 268.06466 
L 89.934522 269.496698 
L 91.204367 267.671793 
L 92.506771 264.487124 
L 93.841736 260.292356 
L 95.14414 259.279323 
L 96.316304 262.254749 
L 97.683829 266.526267 
L 98.953673 266.627374 
L 100.223517 264.49746 
L 101.493362 258.531174 
L 102.698086 261.347597 
L 103.96793 261.145611 
L 105.302895 261.991848 
L 106.540179 265.929376 
L 109.079868 272.041183 
L 110.382272 272.55199 
L 111.619556 273.234493 
L 112.85684 264.682126 
L 114.159245 261.8232 
L 115.429089 264.784643 
L 116.731494 264.561743 
L 118.066458 271.11768 
L 119.368862 272.675602 
L 120.671267 272.228306 
L 121.843431 271.98187 
L 123.145835 271.419347 
L 124.41568 267.804655 
L 125.685524 262.03115 
L 126.922808 262.153312 
L 128.225213 265.018565 
L 129.495057 265.078485 
L 130.764901 271.791861 
L 132.002185 272.548559 
L 133.27203 272.698352 
L 134.574434 270.629387 
L 135.876839 267.651514 
L 137.146683 266.721968 
L 138.416527 260.135409 
L 139.718932 257.796603 
L 140.956216 258.497515 
L 142.25862 261.981737 
L 143.528465 262.81616 
L 144.798309 264.45598 
L 146.068153 265.520345 
L 147.272877 261.261908 
L 148.575282 258.675278 
L 149.845126 256.739369 
L 151.14753 242.081993 
L 152.384815 233.14387 
L 154.924503 218.377967 
L 156.194348 217.575428 
L 157.431632 214.125939 
L 158.734036 216.665191 
L 160.036441 215.518749 
L 161.371405 217.423747 
L 162.576129 223.513262 
L 163.813414 222.149851 
L 165.083258 222.672602 
L 166.385662 223.715221 
L 167.688067 227.251207 
L 168.990471 230.289535 
L 170.195195 220.926271 
L 171.46504 216.012414 
L 172.702324 209.655335 
L 174.037288 196.899879 
L 176.609537 174.974633 
L 177.814261 168.813104 
L 179.084105 157.486223 
L 180.35395 154.357171 
L 181.591234 141.678892 
L 182.893638 122.671511 
L 185.400767 97.37298 
L 186.670611 67.744152 
L 187.940456 45.246791 
L 189.2103 36.124649 
L 190.480144 35.06814 
L 191.782549 33.093759 
L 193.052393 51.36397 
L 194.289677 52.838901 
L 195.559521 56.333449 
L 196.829366 66.021885 
L 198.09921 73.644219 
L 199.336494 75.994465 
L 200.638899 87.332495 
L 201.908743 100.608033 
L 204.415872 151.549944 
L 205.685716 170.23604 
L 206.923 172.41426 
L 208.225405 187.347523 
L 213.304782 215.497879 
L 214.574626 214.617388 
L 215.84447 227.265919 
L 217.081755 230.676185 
L 218.351599 227.545563 
L 219.588883 230.400249 
L 220.858727 241.845677 
L 222.161132 241.199943 
L 223.430976 242.689148 
L 225.905545 237.709345 
L 227.240509 232.825406 
L 228.412673 232.99089 
L 229.715078 229.792806 
L 230.984922 230.248929 
L 232.254766 232.072979 
L 233.49205 235.502583 
L 234.729335 230.234199 
L 235.966619 231.243099 
L 237.236463 227.702053 
L 238.603988 227.173382 
L 239.841272 224.587446 
L 241.111116 222.644868 
L 242.348401 223.261971 
L 243.650805 228.082634 
L 244.920649 228.667676 
L 247.525458 231.539001 
L 248.795302 232.623256 
L 250.065147 227.499385 
L 251.302431 225.248989 
L 252.539715 221.106742 
L 253.84212 222.815687 
L 255.144524 224.990278 
L 256.349248 227.40245 
L 257.651653 225.320705 
L 258.954057 232.249673 
L 260.126221 233.186034 
L 261.396065 226.868079 
L 262.73103 215.056407 
L 264.033434 210.720734 
L 265.368399 208.501903 
L 266.605683 207.249706 
L 267.908087 205.55521 
L 269.145372 207.693598 
L 270.447776 212.318091 
L 271.75018 226.562652 
L 272.954905 226.605721 
L 274.257309 224.937746 
L 275.462033 220.685736 
L 276.796998 222.010901 
L 278.001722 225.536531 
L 279.271566 225.906862 
L 280.606531 224.120906 
L 281.876375 226.574422 
L 283.081099 227.603944 
L 284.416063 231.676907 
L 285.685908 230.877007 
L 286.923192 230.93739 
L 288.160476 226.585454 
L 289.39776 229.102208 
L 290.700165 234.238564 
L 291.937449 233.882713 
L 293.239853 232.476712 
L 294.509698 232.955136 
L 295.746982 233.009186 
L 297.049386 234.359882 
L 298.286671 238.897509 
L 299.589075 246.882561 
L 300.826359 242.652242 
L 302.063643 250.076507 
L 303.300928 254.656045 
L 304.635892 251.855279 
L 305.840616 250.18172 
L 307.143021 248.701248 
L 308.380305 251.990045 
L 309.617589 248.300223 
L 310.887433 248.245091 
L 312.157278 251.296783 
L 313.492242 247.584422 
L 314.696966 249.031559 
L 315.999371 250.277605 
L 317.236655 249.108531 
L 318.506499 250.838257 
L 319.808904 253.868751 
L 321.046188 259.369819 
L 322.283472 261.112656 
L 323.553317 264.581469 
L 326.027885 259.77733 
L 327.362849 257.426425 
L 328.958295 255.340952 
L 330.228139 256.702794 
L 331.628224 256.036844 
L 332.898068 251.865452 
L 334.167913 249.532522 
L 335.437757 248.862776 
L 336.740161 246.884084 
L 337.912325 241.330553 
L 339.24729 239.922429 
L 340.484574 242.254388 
L 341.689298 236.214947 
L 343.024263 239.668361 
L 344.294107 236.784064 
L 345.563951 238.638746 
L 346.833796 233.129712 
L 348.00596 229.264911 
L 349.340924 228.350463 
L 350.675889 222.306488 
L 351.815493 222.003427 
L 353.150457 228.878806 
L 354.387741 230.991777 
L 355.690146 237.195719 
L 356.95999 240.027584 
L 358.229834 257.2405 
L 359.532239 256.368403 
L 360.704403 256.525956 
L 361.974247 251.071257 
L 363.244091 244.354931 
L 364.579056 244.231303 
L 365.946581 246.947213 
L 367.086185 244.650965 
L 368.290909 244.057646 
L 369.593313 244.515061 
L 370.895717 252.435926 
L 372.165562 247.556406 
L 373.370286 244.244626 
L 374.70525 241.190914 
L 375.877414 247.564577 
L 377.114699 249.683963 
L 378.384543 251.383426 
L 379.654387 252.09085 
L 381.021912 250.396836 
L 382.226636 250.278386 
L 383.43136 246.705928 
L 384.733764 242.352724 
L 386.101289 240.055571 
L 387.273453 237.478079 
L 388.510737 239.348346 
L 389.780582 238.202301 
L 392.385391 242.461796 
L 393.850595 240.473543 
L 395.28324 247.144475 
L 396.618205 250.402945 
L 397.888049 250.814817 
L 399.060213 253.832814 
L 400.492858 258.891213 
L 401.665022 256.452376 
L 402.902306 258.416417 
L 404.10703 253.420307 
L 405.539675 253.884157 
L 406.80952 250.178055 
L 408.014244 248.90361 
L 409.186408 242.598343 
L 410.521372 240.617044 
L 411.856337 240.384543 
L 413.093621 244.299648 
L 414.363465 240.552972 
L 415.63331 240.393937 
L 416.805474 234.245287 
L 418.238118 237.5039 
L 419.442842 233.885444 
L 420.647567 229.319125 
L 421.949971 223.33647 
L 424.55478 206.751279 
L 425.564143 195.963307 
L 425.564143 195.963307 
" clip-path="url(#pe1d55861d3)" style="fill: none; stroke: #ff0000; stroke-width: 2.5; stroke-linecap: square"/>
   </g>
   <g id="patch_3">
    <path d="M 35.624258 299.822656 
L 35.624258 20.392383 
" style="fill: none; stroke: #000000; stroke-width: 1.5; stroke-linejoin: miter; stroke-linecap: square"/>
   </g>
   <g id="patch_4">
    <path d="M 35.624258 299.822656 
L 426.345586 299.822656 
" style="fill: none; stroke: #000000; stroke-width: 1.5; stroke-linejoin: miter; stroke-linecap: square"/>
   </g>
   <g id="legend_1">
    <g id="line2d_21">
     <path d="M 46.424258 35.728711 
L 58.424258 35.728711 
L 70.424258 35.728711 
" style="fill: none; stroke: #000000; stroke-width: 2.5; stroke-linecap: square"/>
    </g>
    <g id="text_19">
     <!-- vacuum -->
     <g transform="translate(80.024258 39.928711) scale(0.12 -0.12)">
      <defs>
       <path id="ArialMT-59" d="M 1344 0 
L 81 3319 
L 675 3319 
L 1388 1331 
Q 1503 1009 1600 663 
Q 1675 925 1809 1294 
L 2547 3319 
L 3125 3319 
L 1869 0 
L 1344 0 
z
" transform="scale(0.015625)"/>
       <path id="ArialMT-46" d="M 2588 1216 
L 3141 1144 
Q 3050 572 2676 248 
Q 2303 -75 1759 -75 
Q 1078 -75 664 370 
Q 250 816 250 1647 
Q 250 2184 428 2587 
Q 606 2991 970 3192 
Q 1334 3394 1763 3394 
Q 2303 3394 2647 3120 
Q 2991 2847 3088 2344 
L 2541 2259 
Q 2463 2594 2264 2762 
Q 2066 2931 1784 2931 
Q 1359 2931 1093 2626 
Q 828 2322 828 1663 
Q 828 994 1084 691 
Q 1341 388 1753 388 
Q 2084 388 2306 591 
Q 2528 794 2588 1216 
z
" transform="scale(0.015625)"/>
      </defs>
      <use xlink:href="#ArialMT-59"/>
      <use xlink:href="#ArialMT-44" transform="translate(50 0)"/>
      <use xlink:href="#ArialMT-46" transform="translate(105.609375 0)"/>
      <use xlink:href="#ArialMT-58" transform="translate(155.609375 0)"/>
      <use xlink:href="#ArialMT-58" transform="translate(211.21875 0)"/>
      <use xlink:href="#ArialMT-50" transform="translate(266.828125 0)"/>
     </g>
    </g>
    <g id="line2d_22">
     <path d="M 46.424258 52.99043 
L 58.424258 52.99043 
L 70.424258 52.99043 
" style="fill: none; stroke: #1f77b4; stroke-width: 2.5; stroke-linecap: square"/>
    </g>
    <g id="text_20">
     <!-- 1h -->
     <g transform="translate(80.024258 57.19043) scale(0.12 -0.12)">
      <defs>
       <path id="ArialMT-4b" d="M 422 0 
L 422 4581 
L 984 4581 
L 984 2938 
Q 1378 3394 1978 3394 
Q 2347 3394 2619 3248 
Q 2891 3103 3008 2847 
Q 3125 2591 3125 2103 
L 3125 0 
L 2563 0 
L 2563 2103 
Q 2563 2525 2380 2717 
Q 2197 2909 1863 2909 
Q 1613 2909 1392 2779 
Q 1172 2650 1078 2428 
Q 984 2206 984 1816 
L 984 0 
L 422 0 
z
" transform="scale(0.015625)"/>
      </defs>
      <use xlink:href="#ArialMT-14"/>
      <use xlink:href="#ArialMT-4b" transform="translate(55.609375 0)"/>
     </g>
    </g>
    <g id="line2d_23">
     <path d="M 46.424258 70.252148 
L 58.424258 70.252148 
L 70.424258 70.252148 
" style="fill: none; stroke: #0033ff; stroke-width: 2.5; stroke-linecap: square"/>
    </g>
    <g id="text_21">
     <!-- 2h -->
     <g transform="translate(80.024258 74.452148) scale(0.12 -0.12)">
      <use xlink:href="#ArialMT-15"/>
      <use xlink:href="#ArialMT-4b" transform="translate(55.609375 0)"/>
     </g>
    </g>
    <g id="line2d_24">
     <path d="M 46.424258 87.513867 
L 58.424258 87.513867 
L 70.424258 87.513867 
" style="fill: none; stroke: #ff7f0e; stroke-width: 2.5; stroke-linecap: square"/>
    </g>
    <g id="text_22">
     <!-- 4h -->
     <g transform="translate(80.024258 91.713867) scale(0.12 -0.12)">
      <use xlink:href="#ArialMT-17"/>
      <use xlink:href="#ArialMT-4b" transform="translate(55.609375 0)"/>
     </g>
    </g>
    <g id="line2d_25">
     <path d="M 46.424258 104.775586 
L 58.424258 104.775586 
L 70.424258 104.775586 
" style="fill: none; stroke: #ff0000; stroke-width: 2.5; stroke-linecap: square"/>
    </g>
    <g id="text_23">
     <!-- first -->
     <g transform="translate(80.024258 108.975586) scale(0.12 -0.12)">
      <defs>
       <path id="ArialMT-49" d="M 556 0 
L 556 2881 
L 59 2881 
L 59 3319 
L 556 3319 
L 556 3672 
Q 556 4006 616 4169 
Q 697 4388 901 4523 
Q 1106 4659 1475 4659 
Q 1713 4659 2000 4603 
L 1916 4113 
Q 1741 4144 1584 4144 
Q 1328 4144 1222 4034 
Q 1116 3925 1116 3625 
L 1116 3319 
L 1763 3319 
L 1763 2881 
L 1116 2881 
L 1116 0 
L 556 0 
z
" transform="scale(0.015625)"/>
       <path id="ArialMT-4c" d="M 425 3934 
L 425 4581 
L 988 4581 
L 988 3934 
L 425 3934 
z
M 425 0 
L 425 3319 
L 988 3319 
L 988 0 
L 425 0 
z
" transform="scale(0.015625)"/>
       <path id="ArialMT-56" d="M 197 991 
L 753 1078 
Q 800 744 1014 566 
Q 1228 388 1613 388 
Q 2000 388 2187 545 
Q 2375 703 2375 916 
Q 2375 1106 2209 1216 
Q 2094 1291 1634 1406 
Q 1016 1563 777 1677 
Q 538 1791 414 1992 
Q 291 2194 291 2438 
Q 291 2659 392 2848 
Q 494 3038 669 3163 
Q 800 3259 1026 3326 
Q 1253 3394 1513 3394 
Q 1903 3394 2198 3281 
Q 2494 3169 2634 2976 
Q 2775 2784 2828 2463 
L 2278 2388 
Q 2241 2644 2061 2787 
Q 1881 2931 1553 2931 
Q 1166 2931 1000 2803 
Q 834 2675 834 2503 
Q 834 2394 903 2306 
Q 972 2216 1119 2156 
Q 1203 2125 1616 2013 
Q 2213 1853 2448 1751 
Q 2684 1650 2818 1456 
Q 2953 1263 2953 975 
Q 2953 694 2789 445 
Q 2625 197 2315 61 
Q 2006 -75 1616 -75 
Q 969 -75 630 194 
Q 291 463 197 991 
z
" transform="scale(0.015625)"/>
      </defs>
      <use xlink:href="#ArialMT-49"/>
      <use xlink:href="#ArialMT-4c" transform="translate(27.78125 0)"/>
      <use xlink:href="#ArialMT-55" transform="translate(50 0)"/>
      <use xlink:href="#ArialMT-56" transform="translate(83.296875 0)"/>
      <use xlink:href="#ArialMT-57" transform="translate(133.296875 0)"/>
     </g>
    </g>
   </g>
  </g>
 </g>
 <defs>
  <clipPath id="pe1d55861d3">
   <rect x="35.624258" y="20.392383" width="390.721328" height="279.430273"/>
  </clipPath>
 </defs>
</svg>
