<?xml version="1.0" encoding="utf-8" standalone="no"?>
<!DOCTYPE svg PUBLIC "-//W3C//DTD SVG 1.1//EN"
  "http://www.w3.org/Graphics/SVG/1.1/DTD/svg11.dtd">
<svg xmlns:xlink="http://www.w3.org/1999/xlink" width="449.270898pt" height="340.800273pt" viewBox="0 0 449.270898 340.800273" xmlns="http://www.w3.org/2000/svg" version="1.1">
 <metadata>
  <rdf:RDF xmlns:dc="http://purl.org/dc/elements/1.1/" xmlns:cc="http://creativecommons.org/ns#" xmlns:rdf="http://www.w3.org/1999/02/22-rdf-syntax-ns#">
   <cc:Work>
    <dc:type rdf:resource="http://purl.org/dc/dcmitype/StillImage"/>
    <dc:date>2026-07-09T17:08:24.140505</dc:date>
    <dc:format>image/svg+xml</dc:format>
    <dc:creator>
     <cc:Agent>
      <dc:title>Matplotlib v3.11.0, https://matplotlib.org/</dc:title>
     </cc:Agent>
    </dc:creator>
   </cc:Work>
  </rdf:RDF>
 </metadata>
 <defs>
  <style type="text/css">*{stroke-linejoin: round; stroke-linecap: butt}</style>
 </defs>
 <g id="figure_1">
  <g id="patch_1">
   <path d="M 0 340.800273 
L 449.270898 340.800273 
L 449.270898 0 
L 0 0 
z
" style="fill: #ffffff"/>
  </g>
  <g id="axes_1">
   <g id="patch_2">
    <path d="M 47.298945 299.822656 
L 426.500273 299.822656 
L 426.500273 20.392383 
L 47.298945 20.392383 
z
" style="fill: #ffffff"/>
   </g>
   <g id="matplotlib.axis_1">
    <g id="xtick_1">
     <g id="line2d_1">
      <defs>
       <path id="m799e178097" d="M 0 0 
L 0 -6 
" style="stroke: #000000; stroke-width: 1.5"/>
      </defs>
      <g>
       <use xlink:href="#m799e178097" x="47.298945" y="299.822656" style="stroke: #000000; stroke-width: 1.5"/>
      </g>
     </g>
     <g id="text_1">
      <!-- 0 -->
      <g transform="translate(43.406289 313.515039) scale(0.14 -0.14)">
       <defs>
        <path id="ArialMT-13" d="M 266 2259 
Q 266 3072 433 3567 
Q 600 4063 929 4331 
Q 1259 4600 1759 4600 
Q 2128 4600 2406 4451 
Q 2684 4303 2865 4023 
Q 3047 3744 3150 3342 
Q 3253 2941 3253 2259 
Q 3253 1453 3087 958 
Q 2922 463 2592 192 
Q 2263 -78 1759 -78 
Q 1097 -78 719 397 
Q 266 969 266 2259 
z
M 844 2259 
Q 844 1131 1108 757 
Q 1372 384 1759 384 
Q 2147 384 2411 759 
Q 2675 1134 2675 2259 
Q 2675 3391 2411 3762 
Q 2147 4134 1753 4134 
Q 1366 4134 1134 3806 
Q 844 3388 844 2259 
z
" transform="scale(0.015625)"/>
       </defs>
       <use xlink:href="#ArialMT-13"/>
      </g>
     </g>
    </g>
    <g id="xtick_2">
     <g id="line2d_2">
      <g>
       <use xlink:href="#m799e178097" x="110.499167" y="299.822656" style="stroke: #000000; stroke-width: 1.5"/>
      </g>
     </g>
     <g id="text_2">
      <!-- 200 -->
      <g transform="translate(98.821198 313.515039) scale(0.14 -0.14)">
       <defs>
        <path id="ArialMT-15" d="M 3222 541 
L 3222 0 
L 194 0 
Q 188 203 259 391 
Q 375 700 629 1000 
Q 884 1300 1366 1694 
Q 2113 2306 2375 2664 
Q 2638 3022 2638 3341 
Q 2638 3675 2398 3904 
Q 2159 4134 1775 4134 
Q 1369 4134 1125 3890 
Q 881 3647 878 3216 
L 300 3275 
Q 359 3922 746 4261 
Q 1134 4600 1788 4600 
Q 2447 4600 2831 4234 
Q 3216 3869 3216 3328 
Q 3216 3053 3103 2787 
Q 2991 2522 2730 2228 
Q 2469 1934 1863 1422 
Q 1356 997 1212 845 
Q 1069 694 975 541 
L 3222 541 
z
" transform="scale(0.015625)"/>
       </defs>
       <use xlink:href="#ArialMT-15"/>
       <use xlink:href="#ArialMT-13" transform="translate(55.609375 0)"/>
       <use xlink:href="#ArialMT-13" transform="translate(111.21875 0)"/>
      </g>
     </g>
    </g>
    <g id="xtick_3">
     <g id="line2d_3">
      <g>
       <use xlink:href="#m799e178097" x="173.699388" y="299.822656" style="stroke: #000000; stroke-width: 1.5"/>
      </g>
     </g>
     <g id="text_3">
      <!-- 400 -->
      <g transform="translate(162.021419 313.515039) scale(0.14 -0.14)">
       <defs>
        <path id="ArialMT-17" d="M 2069 0 
L 2069 1097 
L 81 1097 
L 81 1613 
L 2172 4581 
L 2631 4581 
L 2631 1613 
L 3250 1613 
L 3250 1097 
L 2631 1097 
L 2631 0 
L 2069 0 
z
M 2069 1613 
L 2069 3678 
L 634 1613 
L 2069 1613 
z
" transform="scale(0.015625)"/>
       </defs>
       <use xlink:href="#ArialMT-17"/>
       <use xlink:href="#ArialMT-13" transform="translate(55.609375 0)"/>
       <use xlink:href="#ArialMT-13" transform="translate(111.21875 0)"/>
      </g>
     </g>
    </g>
    <g id="xtick_4">
     <g id="line2d_4">
      <g>
       <use xlink:href="#m799e178097" x="236.899609" y="299.822656" style="stroke: #000000; stroke-width: 1.5"/>
      </g>
     </g>
     <g id="text_4">
      <!-- 600 -->
      <g transform="translate(225.221641 313.515039) scale(0.14 -0.14)">
       <defs>
        <path id="ArialMT-19" d="M 3184 3459 
L 2625 3416 
Q 2550 3747 2413 3897 
Q 2184 4138 1850 4138 
Q 1581 4138 1378 3988 
Q 1113 3794 959 3422 
Q 806 3050 800 2363 
Q 1003 2672 1297 2822 
Q 1591 2972 1913 2972 
Q 2475 2972 2870 2558 
Q 3266 2144 3266 1488 
Q 3266 1056 3080 686 
Q 2894 316 2569 119 
Q 2244 -78 1831 -78 
Q 1128 -78 684 439 
Q 241 956 241 2144 
Q 241 3472 731 4075 
Q 1159 4600 1884 4600 
Q 2425 4600 2770 4297 
Q 3116 3994 3184 3459 
z
M 888 1484 
Q 888 1194 1011 928 
Q 1134 663 1356 523 
Q 1578 384 1822 384 
Q 2178 384 2434 671 
Q 2691 959 2691 1453 
Q 2691 1928 2437 2201 
Q 2184 2475 1800 2475 
Q 1419 2475 1153 2201 
Q 888 1928 888 1484 
z
" transform="scale(0.015625)"/>
       </defs>
       <use xlink:href="#ArialMT-19"/>
       <use xlink:href="#ArialMT-13" transform="translate(55.609375 0)"/>
       <use xlink:href="#ArialMT-13" transform="translate(111.21875 0)"/>
      </g>
     </g>
    </g>
    <g id="xtick_5">
     <g id="line2d_5">
      <g>
       <use xlink:href="#m799e178097" x="300.099831" y="299.822656" style="stroke: #000000; stroke-width: 1.5"/>
      </g>
     </g>
     <g id="text_5">
      <!-- 800 -->
      <g transform="translate(288.421862 313.515039) scale(0.14 -0.14)">
       <defs>
        <path id="ArialMT-1b" d="M 1131 2484 
Q 781 2613 612 2850 
Q 444 3088 444 3419 
Q 444 3919 803 4259 
Q 1163 4600 1759 4600 
Q 2359 4600 2725 4251 
Q 3091 3903 3091 3403 
Q 3091 3084 2923 2848 
Q 2756 2613 2416 2484 
Q 2838 2347 3058 2040 
Q 3278 1734 3278 1309 
Q 3278 722 2862 322 
Q 2447 -78 1769 -78 
Q 1091 -78 675 323 
Q 259 725 259 1325 
Q 259 1772 486 2073 
Q 713 2375 1131 2484 
z
M 1019 3438 
Q 1019 3113 1228 2906 
Q 1438 2700 1772 2700 
Q 2097 2700 2305 2904 
Q 2513 3109 2513 3406 
Q 2513 3716 2298 3927 
Q 2084 4138 1766 4138 
Q 1444 4138 1231 3931 
Q 1019 3725 1019 3438 
z
M 838 1322 
Q 838 1081 952 856 
Q 1066 631 1291 507 
Q 1516 384 1775 384 
Q 2178 384 2440 643 
Q 2703 903 2703 1303 
Q 2703 1709 2433 1975 
Q 2163 2241 1756 2241 
Q 1359 2241 1098 1978 
Q 838 1716 838 1322 
z
" transform="scale(0.015625)"/>
       </defs>
       <use xlink:href="#ArialMT-1b"/>
       <use xlink:href="#ArialMT-13" transform="translate(55.609375 0)"/>
       <use xlink:href="#ArialMT-13" transform="translate(111.21875 0)"/>
      </g>
     </g>
    </g>
    <g id="xtick_6">
     <g id="line2d_6">
      <g>
       <use xlink:href="#m799e178097" x="363.300052" y="299.822656" style="stroke: #000000; stroke-width: 1.5"/>
      </g>
     </g>
     <g id="text_6">
      <!-- 1000 -->
      <g transform="translate(347.729427 313.515039) scale(0.14 -0.14)">
       <defs>
        <path id="ArialMT-14" d="M 2384 0 
L 1822 0 
L 1822 3584 
Q 1619 3391 1289 3197 
Q 959 3003 697 2906 
L 697 3450 
Q 1169 3672 1522 3987 
Q 1875 4303 2022 4600 
L 2384 4600 
L 2384 0 
z
" transform="scale(0.015625)"/>
       </defs>
       <use xlink:href="#ArialMT-14"/>
       <use xlink:href="#ArialMT-13" transform="translate(55.609375 0)"/>
       <use xlink:href="#ArialMT-13" transform="translate(111.21875 0)"/>
       <use xlink:href="#ArialMT-13" transform="translate(166.828125 0)"/>
      </g>
     </g>
    </g>
    <g id="xtick_7">
     <g id="line2d_7">
      <g>
       <use xlink:href="#m799e178097" x="426.500273" y="299.822656" style="stroke: #000000; stroke-width: 1.5"/>
      </g>
     </g>
     <g id="text_7">
      <!-- 1200 -->
      <g transform="translate(410.929648 313.515039) scale(0.14 -0.14)">
       <use xlink:href="#ArialMT-14"/>
       <use xlink:href="#ArialMT-15" transform="translate(55.609375 0)"/>
       <use xlink:href="#ArialMT-13" transform="translate(111.21875 0)"/>
       <use xlink:href="#ArialMT-13" transform="translate(166.828125 0)"/>
      </g>
     </g>
    </g>
    <g id="text_8">
     <!-- T1 Temperature (°C) -->
     <g transform="translate(173.160234 330.653711) scale(0.14 -0.14)">
      <defs>
       <path id="ArialMT-37" d="M 1659 0 
L 1659 4041 
L 150 4041 
L 150 4581 
L 3781 4581 
L 3781 4041 
L 2266 4041 
L 2266 0 
L 1659 0 
z
" transform="scale(0.015625)"/>
       <path id="ArialMT-3" transform="scale(0.015625)"/>
       <path id="ArialMT-48" d="M 2694 1069 
L 3275 997 
Q 3138 488 2766 206 
Q 2394 -75 1816 -75 
Q 1088 -75 661 373 
Q 234 822 234 1631 
Q 234 2469 665 2931 
Q 1097 3394 1784 3394 
Q 2450 3394 2872 2941 
Q 3294 2488 3294 1666 
Q 3294 1616 3291 1516 
L 816 1516 
Q 847 969 1125 678 
Q 1403 388 1819 388 
Q 2128 388 2347 550 
Q 2566 713 2694 1069 
z
M 847 1978 
L 2700 1978 
Q 2663 2397 2488 2606 
Q 2219 2931 1791 2931 
Q 1403 2931 1139 2672 
Q 875 2413 847 1978 
z
" transform="scale(0.015625)"/>
       <path id="ArialMT-50" d="M 422 0 
L 422 3319 
L 925 3319 
L 925 2853 
Q 1081 3097 1340 3245 
Q 1600 3394 1931 3394 
Q 2300 3394 2536 3241 
Q 2772 3088 2869 2813 
Q 3263 3394 3894 3394 
Q 4388 3394 4653 3120 
Q 4919 2847 4919 2278 
L 4919 0 
L 4359 0 
L 4359 2091 
Q 4359 2428 4304 2576 
Q 4250 2725 4106 2815 
Q 3963 2906 3769 2906 
Q 3419 2906 3187 2673 
Q 2956 2441 2956 1928 
L 2956 0 
L 2394 0 
L 2394 2156 
Q 2394 2531 2256 2718 
Q 2119 2906 1806 2906 
Q 1569 2906 1367 2781 
Q 1166 2656 1075 2415 
Q 984 2175 984 1722 
L 984 0 
L 422 0 
z
" transform="scale(0.015625)"/>
       <path id="ArialMT-53" d="M 422 -1272 
L 422 3319 
L 934 3319 
L 934 2888 
Q 1116 3141 1344 3267 
Q 1572 3394 1897 3394 
Q 2322 3394 2647 3175 
Q 2972 2956 3137 2557 
Q 3303 2159 3303 1684 
Q 3303 1175 3120 767 
Q 2938 359 2589 142 
Q 2241 -75 1856 -75 
Q 1575 -75 1351 44 
Q 1128 163 984 344 
L 984 -1272 
L 422 -1272 
z
M 931 1641 
Q 931 1000 1190 694 
Q 1450 388 1819 388 
Q 2194 388 2461 705 
Q 2728 1022 2728 1688 
Q 2728 2322 2467 2637 
Q 2206 2953 1844 2953 
Q 1484 2953 1207 2617 
Q 931 2281 931 1641 
z
" transform="scale(0.015625)"/>
       <path id="ArialMT-55" d="M 416 0 
L 416 3319 
L 922 3319 
L 922 2816 
Q 1116 3169 1280 3281 
Q 1444 3394 1641 3394 
Q 1925 3394 2219 3213 
L 2025 2691 
Q 1819 2813 1613 2813 
Q 1428 2813 1281 2702 
Q 1134 2591 1072 2394 
Q 978 2094 978 1738 
L 978 0 
L 416 0 
z
" transform="scale(0.015625)"/>
       <path id="ArialMT-44" d="M 2588 409 
Q 2275 144 1986 34 
Q 1697 -75 1366 -75 
Q 819 -75 525 192 
Q 231 459 231 875 
Q 231 1119 342 1320 
Q 453 1522 633 1644 
Q 813 1766 1038 1828 
Q 1203 1872 1538 1913 
Q 2219 1994 2541 2106 
Q 2544 2222 2544 2253 
Q 2544 2597 2384 2738 
Q 2169 2928 1744 2928 
Q 1347 2928 1158 2789 
Q 969 2650 878 2297 
L 328 2372 
Q 403 2725 575 2942 
Q 747 3159 1072 3276 
Q 1397 3394 1825 3394 
Q 2250 3394 2515 3294 
Q 2781 3194 2906 3042 
Q 3031 2891 3081 2659 
Q 3109 2516 3109 2141 
L 3109 1391 
Q 3109 606 3145 398 
Q 3181 191 3288 0 
L 2700 0 
Q 2613 175 2588 409 
z
M 2541 1666 
Q 2234 1541 1622 1453 
Q 1275 1403 1131 1340 
Q 988 1278 909 1158 
Q 831 1038 831 891 
Q 831 666 1001 516 
Q 1172 366 1500 366 
Q 1825 366 2078 508 
Q 2331 650 2450 897 
Q 2541 1088 2541 1459 
L 2541 1666 
z
" transform="scale(0.015625)"/>
       <path id="ArialMT-57" d="M 1650 503 
L 1731 6 
Q 1494 -44 1306 -44 
Q 1000 -44 831 53 
Q 663 150 594 308 
Q 525 466 525 972 
L 525 2881 
L 113 2881 
L 113 3319 
L 525 3319 
L 525 4141 
L 1084 4478 
L 1084 3319 
L 1650 3319 
L 1650 2881 
L 1084 2881 
L 1084 941 
Q 1084 700 1114 631 
Q 1144 563 1211 522 
Q 1278 481 1403 481 
Q 1497 481 1650 503 
z
" transform="scale(0.015625)"/>
       <path id="ArialMT-58" d="M 2597 0 
L 2597 488 
Q 2209 -75 1544 -75 
Q 1250 -75 995 37 
Q 741 150 617 320 
Q 494 491 444 738 
Q 409 903 409 1263 
L 409 3319 
L 972 3319 
L 972 1478 
Q 972 1038 1006 884 
Q 1059 663 1231 536 
Q 1403 409 1656 409 
Q 1909 409 2131 539 
Q 2353 669 2445 892 
Q 2538 1116 2538 1541 
L 2538 3319 
L 3100 3319 
L 3100 0 
L 2597 0 
z
" transform="scale(0.015625)"/>
       <path id="ArialMT-b" d="M 1497 -1347 
Q 1031 -759 709 28 
Q 388 816 388 1659 
Q 388 2403 628 3084 
Q 909 3875 1497 4659 
L 1900 4659 
Q 1522 4009 1400 3731 
Q 1209 3300 1100 2831 
Q 966 2247 966 1656 
Q 966 153 1900 -1347 
L 1497 -1347 
z
" transform="scale(0.015625)"/>
       <path id="ArialMT-83" d="M 400 3794 
Q 400 4153 654 4406 
Q 909 4659 1266 4659 
Q 1628 4659 1881 4406 
Q 2134 4153 2134 3794 
Q 2134 3434 1879 3179 
Q 1625 2925 1266 2925 
Q 909 2925 654 3178 
Q 400 3431 400 3794 
z
M 741 3794 
Q 741 3575 895 3420 
Q 1050 3266 1269 3266 
Q 1484 3266 1639 3420 
Q 1794 3575 1794 3794 
Q 1794 4013 1639 4167 
Q 1484 4322 1269 4322 
Q 1050 4322 895 4167 
Q 741 4013 741 3794 
z
" transform="scale(0.015625)"/>
       <path id="ArialMT-26" d="M 3763 1606 
L 4369 1453 
Q 4178 706 3683 314 
Q 3188 -78 2472 -78 
Q 1731 -78 1267 223 
Q 803 525 561 1097 
Q 319 1669 319 2325 
Q 319 3041 592 3573 
Q 866 4106 1370 4382 
Q 1875 4659 2481 4659 
Q 3169 4659 3637 4309 
Q 4106 3959 4291 3325 
L 3694 3184 
Q 3534 3684 3231 3912 
Q 2928 4141 2469 4141 
Q 1941 4141 1586 3887 
Q 1231 3634 1087 3207 
Q 944 2781 944 2328 
Q 944 1744 1114 1308 
Q 1284 872 1643 656 
Q 2003 441 2422 441 
Q 2931 441 3284 734 
Q 3638 1028 3763 1606 
z
" transform="scale(0.015625)"/>
       <path id="ArialMT-c" d="M 791 -1347 
L 388 -1347 
Q 1322 153 1322 1656 
Q 1322 2244 1188 2822 
Q 1081 3291 891 3722 
Q 769 4003 388 4659 
L 791 4659 
Q 1378 3875 1659 3084 
Q 1900 2403 1900 1659 
Q 1900 816 1576 28 
Q 1253 -759 791 -1347 
z
" transform="scale(0.015625)"/>
      </defs>
      <use xlink:href="#ArialMT-37"/>
      <use xlink:href="#ArialMT-14" transform="translate(61.078125 0)"/>
      <use xlink:href="#ArialMT-3" transform="translate(116.6875 0)"/>
      <use xlink:href="#ArialMT-37" transform="translate(142.65625 0)"/>
      <use xlink:href="#ArialMT-48" transform="translate(192.65625 0)"/>
      <use xlink:href="#ArialMT-50" transform="translate(248.265625 0)"/>
      <use xlink:href="#ArialMT-53" transform="translate(331.5625 0)"/>
      <use xlink:href="#ArialMT-48" transform="translate(387.171875 0)"/>
      <use xlink:href="#ArialMT-55" transform="translate(442.78125 0)"/>
      <use xlink:href="#ArialMT-44" transform="translate(476.078125 0)"/>
      <use xlink:href="#ArialMT-57" transform="translate(531.6875 0)"/>
      <use xlink:href="#ArialMT-58" transform="translate(559.46875 0)"/>
      <use xlink:href="#ArialMT-55" transform="translate(615.078125 0)"/>
      <use xlink:href="#ArialMT-48" transform="translate(648.375 0)"/>
      <use xlink:href="#ArialMT-3" transform="translate(703.984375 0)"/>
      <use xlink:href="#ArialMT-b" transform="translate(731.765625 0)"/>
      <use xlink:href="#ArialMT-83" transform="translate(765.0625 0)"/>
      <use xlink:href="#ArialMT-26" transform="translate(805.046875 0)"/>
      <use xlink:href="#ArialMT-c" transform="translate(877.265625 0)"/>
     </g>
    </g>
   </g>
   <g id="matplotlib.axis_2">
    <g id="ytick_1">
     <g id="line2d_8">
      <defs>
       <path id="md17829af83" d="M 0 0 
L 6 0 
" style="stroke: #000000; stroke-width: 1.5"/>
      </defs>
      <g>
       <use xlink:href="#md17829af83" x="47.298945" y="289.211881" style="stroke: #000000; stroke-width: 1.5"/>
      </g>
     </g>
     <g id="text_9">
      <!-- 0.0 -->
      <g transform="translate(24.338945 294.308072) scale(0.14 -0.14)">
       <defs>
        <path id="ArialMT-11" d="M 581 0 
L 581 641 
L 1222 641 
L 1222 0 
L 581 0 
z
" transform="scale(0.015625)"/>
       </defs>
       <use xlink:href="#ArialMT-13"/>
       <use xlink:href="#ArialMT-11" transform="translate(55.609375 0)"/>
       <use xlink:href="#ArialMT-13" transform="translate(83.390625 0)"/>
      </g>
     </g>
    </g>
    <g id="ytick_2">
     <g id="line2d_9">
      <g>
       <use xlink:href="#md17829af83" x="47.298945" y="245.066281" style="stroke: #000000; stroke-width: 1.5"/>
      </g>
     </g>
     <g id="text_10">
      <!-- 0.5 -->
      <g transform="translate(24.338945 250.162473) scale(0.14 -0.14)">
       <defs>
        <path id="ArialMT-18" d="M 266 1200 
L 856 1250 
Q 922 819 1161 601 
Q 1400 384 1738 384 
Q 2144 384 2425 690 
Q 2706 997 2706 1503 
Q 2706 1984 2436 2262 
Q 2166 2541 1728 2541 
Q 1456 2541 1237 2417 
Q 1019 2294 894 2097 
L 366 2166 
L 809 4519 
L 3088 4519 
L 3088 3981 
L 1259 3981 
L 1013 2750 
Q 1425 3038 1878 3038 
Q 2478 3038 2890 2622 
Q 3303 2206 3303 1553 
Q 3303 931 2941 478 
Q 2500 -78 1738 -78 
Q 1113 -78 717 272 
Q 322 622 266 1200 
z
" transform="scale(0.015625)"/>
       </defs>
       <use xlink:href="#ArialMT-13"/>
       <use xlink:href="#ArialMT-11" transform="translate(55.609375 0)"/>
       <use xlink:href="#ArialMT-18" transform="translate(83.390625 0)"/>
      </g>
     </g>
    </g>
    <g id="ytick_3">
     <g id="line2d_10">
      <g>
       <use xlink:href="#md17829af83" x="47.298945" y="200.920682" style="stroke: #000000; stroke-width: 1.5"/>
      </g>
     </g>
     <g id="text_11">
      <!-- 1.0 -->
      <g transform="translate(24.338945 206.016873) scale(0.14 -0.14)">
       <use xlink:href="#ArialMT-14"/>
       <use xlink:href="#ArialMT-11" transform="translate(55.609375 0)"/>
       <use xlink:href="#ArialMT-13" transform="translate(83.390625 0)"/>
      </g>
     </g>
    </g>
    <g id="ytick_4">
     <g id="line2d_11">
      <g>
       <use xlink:href="#md17829af83" x="47.298945" y="156.775083" style="stroke: #000000; stroke-width: 1.5"/>
      </g>
     </g>
     <g id="text_12">
      <!-- 1.5 -->
      <g transform="translate(24.338945 161.871274) scale(0.14 -0.14)">
       <use xlink:href="#ArialMT-14"/>
       <use xlink:href="#ArialMT-11" transform="translate(55.609375 0)"/>
       <use xlink:href="#ArialMT-18" transform="translate(83.390625 0)"/>
      </g>
     </g>
    </g>
    <g id="ytick_5">
     <g id="line2d_12">
      <g>
       <use xlink:href="#md17829af83" x="47.298945" y="112.629484" style="stroke: #000000; stroke-width: 1.5"/>
      </g>
     </g>
     <g id="text_13">
      <!-- 2.0 -->
      <g transform="translate(24.338945 117.725675) scale(0.14 -0.14)">
       <use xlink:href="#ArialMT-15"/>
       <use xlink:href="#ArialMT-11" transform="translate(55.609375 0)"/>
       <use xlink:href="#ArialMT-13" transform="translate(83.390625 0)"/>
      </g>
     </g>
    </g>
    <g id="ytick_6">
     <g id="line2d_13">
      <g>
       <use xlink:href="#md17829af83" x="47.298945" y="68.483884" style="stroke: #000000; stroke-width: 1.5"/>
      </g>
     </g>
     <g id="text_14">
      <!-- 2.5 -->
      <g transform="translate(24.338945 73.580076) scale(0.14 -0.14)">
       <use xlink:href="#ArialMT-15"/>
       <use xlink:href="#ArialMT-11" transform="translate(55.609375 0)"/>
       <use xlink:href="#ArialMT-18" transform="translate(83.390625 0)"/>
      </g>
     </g>
    </g>
    <g id="ytick_7">
     <g id="line2d_14">
      <g>
       <use xlink:href="#md17829af83" x="47.298945" y="24.338285" style="stroke: #000000; stroke-width: 1.5"/>
      </g>
     </g>
     <g id="text_15">
      <!-- 3.0 -->
      <g transform="translate(24.338945 29.434476) scale(0.14 -0.14)">
       <defs>
        <path id="ArialMT-16" d="M 269 1209 
L 831 1284 
Q 928 806 1161 595 
Q 1394 384 1728 384 
Q 2125 384 2398 659 
Q 2672 934 2672 1341 
Q 2672 1728 2419 1979 
Q 2166 2231 1775 2231 
Q 1616 2231 1378 2169 
L 1441 2663 
Q 1497 2656 1531 2656 
Q 1891 2656 2178 2843 
Q 2466 3031 2466 3422 
Q 2466 3731 2256 3934 
Q 2047 4138 1716 4138 
Q 1388 4138 1169 3931 
Q 950 3725 888 3313 
L 325 3413 
Q 428 3978 793 4289 
Q 1159 4600 1703 4600 
Q 2078 4600 2393 4439 
Q 2709 4278 2876 4000 
Q 3044 3722 3044 3409 
Q 3044 3113 2884 2869 
Q 2725 2625 2413 2481 
Q 2819 2388 3044 2092 
Q 3269 1797 3269 1353 
Q 3269 753 2831 336 
Q 2394 -81 1725 -81 
Q 1122 -81 723 278 
Q 325 638 269 1209 
z
" transform="scale(0.015625)"/>
       </defs>
       <use xlink:href="#ArialMT-16"/>
       <use xlink:href="#ArialMT-11" transform="translate(55.609375 0)"/>
       <use xlink:href="#ArialMT-13" transform="translate(83.390625 0)"/>
      </g>
     </g>
    </g>
    <g id="text_16">
     <!-- Ion Current (m/z 44) -->
     <g transform="translate(17.392383 222.733457) rotate(-90) scale(0.14 -0.14)">
      <defs>
       <path id="ArialMT-2c" d="M 597 0 
L 597 4581 
L 1203 4581 
L 1203 0 
L 597 0 
z
" transform="scale(0.015625)"/>
       <path id="ArialMT-52" d="M 213 1659 
Q 213 2581 725 3025 
Q 1153 3394 1769 3394 
Q 2453 3394 2887 2945 
Q 3322 2497 3322 1706 
Q 3322 1066 3130 698 
Q 2938 331 2570 128 
Q 2203 -75 1769 -75 
Q 1072 -75 642 372 
Q 213 819 213 1659 
z
M 791 1659 
Q 791 1022 1069 705 
Q 1347 388 1769 388 
Q 2188 388 2466 706 
Q 2744 1025 2744 1678 
Q 2744 2294 2464 2611 
Q 2184 2928 1769 2928 
Q 1347 2928 1069 2612 
Q 791 2297 791 1659 
z
" transform="scale(0.015625)"/>
       <path id="ArialMT-51" d="M 422 0 
L 422 3319 
L 928 3319 
L 928 2847 
Q 1294 3394 1984 3394 
Q 2284 3394 2536 3286 
Q 2788 3178 2913 3003 
Q 3038 2828 3088 2588 
Q 3119 2431 3119 2041 
L 3119 0 
L 2556 0 
L 2556 2019 
Q 2556 2363 2490 2533 
Q 2425 2703 2258 2804 
Q 2091 2906 1866 2906 
Q 1506 2906 1245 2678 
Q 984 2450 984 1813 
L 984 0 
L 422 0 
z
" transform="scale(0.015625)"/>
       <path id="ArialMT-12" d="M 0 -78 
L 1328 4659 
L 1778 4659 
L 453 -78 
L 0 -78 
z
" transform="scale(0.015625)"/>
       <path id="ArialMT-5d" d="M 125 0 
L 125 456 
L 2238 2881 
Q 1878 2863 1603 2863 
L 250 2863 
L 250 3319 
L 2963 3319 
L 2963 2947 
L 1166 841 
L 819 456 
Q 1197 484 1528 484 
L 3063 484 
L 3063 0 
L 125 0 
z
" transform="scale(0.015625)"/>
      </defs>
      <use xlink:href="#ArialMT-2c"/>
      <use xlink:href="#ArialMT-52" transform="translate(27.78125 0)"/>
      <use xlink:href="#ArialMT-51" transform="translate(83.390625 0)"/>
      <use xlink:href="#ArialMT-3" transform="translate(139 0)"/>
      <use xlink:href="#ArialMT-26" transform="translate(166.78125 0)"/>
      <use xlink:href="#ArialMT-58" transform="translate(239 0)"/>
      <use xlink:href="#ArialMT-55" transform="translate(294.609375 0)"/>
      <use xlink:href="#ArialMT-55" transform="translate(327.90625 0)"/>
      <use xlink:href="#ArialMT-48" transform="translate(361.203125 0)"/>
      <use xlink:href="#ArialMT-51" transform="translate(416.8125 0)"/>
      <use xlink:href="#ArialMT-57" transform="translate(472.421875 0)"/>
      <use xlink:href="#ArialMT-3" transform="translate(500.203125 0)"/>
      <use xlink:href="#ArialMT-b" transform="translate(527.984375 0)"/>
      <use xlink:href="#ArialMT-50" transform="translate(561.28125 0)"/>
      <use xlink:href="#ArialMT-12" transform="translate(644.578125 0)"/>
      <use xlink:href="#ArialMT-5d" transform="translate(672.359375 0)"/>
      <use xlink:href="#ArialMT-3" transform="translate(722.359375 0)"/>
      <use xlink:href="#ArialMT-17" transform="translate(750.140625 0)"/>
      <use xlink:href="#ArialMT-17" transform="translate(805.75 0)"/>
      <use xlink:href="#ArialMT-c" transform="translate(861.359375 0)"/>
     </g>
    </g>
    <g id="text_17">
     <!-- 1e−11 -->
     <g transform="translate(47.298945 17.392383) scale(0.14 -0.14)">
      <defs>
       <path id="ArialMT-ed" d="M 3381 1997 
L 356 1997 
L 356 2522 
L 3381 2522 
L 3381 1997 
z
" transform="scale(0.015625)"/>
      </defs>
      <use xlink:href="#ArialMT-14"/>
      <use xlink:href="#ArialMT-48" transform="translate(55.609375 0)"/>
      <use xlink:href="#ArialMT-ed" transform="translate(111.21875 0)"/>
      <use xlink:href="#ArialMT-14" transform="translate(169.625 0)"/>
      <use xlink:href="#ArialMT-14" transform="translate(217.8125 0)"/>
     </g>
    </g>
   </g>
   <g id="line2d_15">
    <path d="M 66.195811 286.94538 
L 66.195811 286.319303 
L 66.132611 286.593621 
L 66.069411 286.84737 
L 66.227412 286.630087 
L 66.922614 286.255329 
L 73.053036 285.776719 
L 74.917442 285.902493 
L 76.402647 285.794694 
L 78.867456 286.079953 
L 79.97346 286.272688 
L 82.343468 286.141382 
L 83.607472 286.182683 
L 84.871477 286.034416 
L 86.261882 285.999885 
L 87.620687 286.26412 
L 88.916291 286.284731 
L 90.211896 286.459192 
L 96.373917 286.420755 
L 97.543121 286.231489 
L 98.775526 286.246142 
L 100.00793 286.438721 
L 101.240334 286.399852 
L 102.472739 286.573869 
L 105.000747 286.511783 
L 107.497156 286.656896 
L 109.930365 286.474067 
L 111.162769 286.492063 
L 113.627578 286.220019 
L 114.859982 286.454732 
L 119.821199 286.20811 
L 121.053604 286.259646 
L 122.286008 286.423603 
L 123.518412 286.468133 
L 124.750817 286.325969 
L 126.014821 286.323406 
L 127.278825 286.479783 
L 128.54283 286.253739 
L 131.007638 286.218836 
L 132.240043 286.243327 
L 133.504047 286.405026 
L 134.673251 286.21994 
L 137.16966 286.274087 
L 138.433665 286.014268 
L 142.099277 285.808488 
L 143.331682 285.774072 
L 144.532486 285.874304 
L 145.76489 286.124808 
L 146.965694 286.211043 
L 148.229699 286.470339 
L 149.462103 286.582303 
L 150.694507 286.329878 
L 154.423321 286.394156 
L 155.624125 286.217218 
L 158.120533 286.477009 
L 160.648542 286.580874 
L 163.113351 286.713709 
L 166.747364 286.646681 
L 168.011368 286.330095 
L 170.412977 286.233039 
L 171.645381 286.236239 
L 172.909385 286.447191 
L 175.437394 286.414115 
L 176.701399 286.153277 
L 177.965403 286.265003 
L 180.430212 286.088319 
L 182.89502 286.280977 
L 185.328229 286.54703 
L 186.497433 286.498197 
L 187.761437 286.634885 
L 188.993842 286.462678 
L 190.226246 286.46382 
L 191.45865 286.313027 
L 198.789876 286.263711 
L 202.518689 286.401218 
L 203.719493 286.552167 
L 207.448306 286.366746 
L 208.680711 286.518331 
L 209.881515 286.511461 
L 211.145519 286.633464 
L 213.578728 286.43982 
L 216.043536 286.500223 
L 217.275941 286.269901 
L 219.709149 286.205239 
L 222.142358 286.49986 
L 223.437962 286.442823 
L 225.871171 286.15059 
L 228.177979 286.009307 
L 229.410383 285.770144 
L 231.938392 285.91423 
L 234.434801 286.307543 
L 236.836409 286.141804 
L 238.100414 286.225959 
L 241.797627 285.662242 
L 245.52644 286.111172 
L 247.959648 285.766877 
L 250.424457 285.927559 
L 251.688461 285.90915 
L 254.12167 286.171268 
L 256.618078 286.502784 
L 257.850483 286.520648 
L 259.051287 286.166284 
L 260.283691 286.171633 
L 262.7485 285.966945 
L 266.414113 286.34116 
L 270.237726 286.253655 
L 273.934939 285.416593 
L 277.663752 285.777538 
L 282.561769 286.420169 
L 285.026578 286.374382 
L 286.227382 286.481666 
L 292.421004 286.064705 
L 293.590208 285.894206 
L 297.287421 285.960802 
L 298.519825 286.167169 
L 299.75223 286.07062 
L 302.217038 286.400755 
L 307.083455 285.8987 
L 308.31586 285.527539 
L 309.548264 285.332847 
L 313.213877 285.211475 
L 316.94269 285.285043 
L 321.809107 285.809694 
L 324.273915 285.569204 
L 325.47472 285.204371 
L 327.971128 285.244324 
L 330.435937 285.193712 
L 333.311547 285.757169 
L 336.97716 285.004422 
L 338.177964 284.871706 
L 339.473569 285.139453 
L 340.705973 285.018965 
L 341.969977 285.045841 
L 344.403186 285.423685 
L 346.899595 284.921223 
L 349.269603 284.545585 
L 351.829212 284.602086 
L 352.935216 284.372554 
L 354.16762 284.579828 
L 355.494825 284.488134 
L 356.664029 284.211407 
L 357.928033 284.126982 
L 359.192038 283.906228 
L 362.79445 283.548862 
L 364.121655 283.116398 
L 365.227659 283.165411 
L 367.913668 282.582177 
L 369.146073 282.066525 
L 373.886089 281.577955 
L 375.150094 280.938412 
L 377.488502 280.650889 
L 378.720906 280.195299 
L 379.95331 280.452868 
L 383.587323 278.009624 
L 384.851328 276.975981 
L 385.988932 276.402842 
L 387.410937 275.074116 
L 388.611741 274.440389 
L 389.844145 273.630525 
L 391.044949 273.107391 
L 392.340554 271.854862 
L 393.383357 269.837887 
L 395.089763 268.001741 
L 396.385368 266.307649 
L 397.712573 263.892002 
L 400.114181 258.590302 
L 401.409786 255.934059 
L 402.515789 252.584345 
L 403.748194 249.351646 
L 404.885798 245.280045 
L 406.244602 242.114854 
L 408.709411 233.861777 
L 410.036616 228.291613 
L 412.343424 214.47348 
L 414.839833 196.905009 
L 415.977437 187.468704 
L 418.663446 167.941543 
L 419.67465 155.722265 
L 421.065054 143.420797 
L 422.139458 130.232611 
L 423.435063 116.099489 
L 424.699067 100.963212 
L 425.710271 84.765562 
L 425.710271 84.765562 
" clip-path="url(#p3f8699460d)" style="fill: none; stroke: #000000; stroke-width: 2.5; stroke-linecap: square"/>
   </g>
   <g id="line2d_16">
    <path d="M 58.200983 284.784993 
L 58.200983 284.06695 
L 58.200983 284.203066 
L 58.358984 284.460829 
L 59.022586 284.466013 
L 60.760592 284.184475 
L 67.017414 284.316496 
L 68.53422 284.240769 
L 69.798224 284.456013 
L 71.978632 284.458704 
L 75.612644 284.205357 
L 76.939849 284.332882 
L 80.700262 285.219401 
L 81.869466 285.281225 
L 89.706294 284.627708 
L 90.875498 284.798717 
L 92.171102 284.707735 
L 93.340307 284.998592 
L 95.773515 284.896171 
L 99.565528 284.087365 
L 101.998737 284.370666 
L 103.262741 284.662745 
L 104.495146 284.597414 
L 106.865154 285.096627 
L 110.657167 284.528552 
L 113.058776 284.821779 
L 114.35438 284.794288 
L 116.882389 284.944537 
L 118.051593 284.870872 
L 119.315598 284.909002 
L 120.611202 284.739216 
L 121.717206 284.477893 
L 123.01281 284.558414 
L 124.276815 284.815146 
L 125.414419 284.789375 
L 126.710023 284.48048 
L 128.005628 284.422404 
L 129.206432 284.48869 
L 136.600858 284.14717 
L 137.833262 283.926041 
L 139.065667 283.543588 
L 140.266471 283.376261 
L 142.82608 283.532081 
L 144.058484 283.407199 
L 145.227688 283.501966 
L 147.724097 283.133895 
L 148.893301 282.703276 
L 150.220506 282.449414 
L 151.42131 282.079088 
L 153.917719 281.928272 
L 155.150123 281.645438 
L 160.11134 281.150631 
L 166.178562 278.193374 
L 167.474166 277.838296 
L 168.706571 277.812352 
L 171.139779 278.118891 
L 172.372183 277.995607 
L 173.636188 277.264505 
L 174.931792 276.832299 
L 178.597405 272.776916 
L 179.766609 270.712088 
L 183.495422 265.389636 
L 184.727827 264.308823 
L 185.960231 263.692369 
L 188.48824 264.853753 
L 189.689044 266.248536 
L 190.921448 268.103454 
L 192.122253 269.303574 
L 193.354657 271.069797 
L 194.618661 272.027795 
L 195.882666 272.603251 
L 199.516678 273.105464 
L 200.780683 273.361196 
L 203.213891 274.663282 
L 204.477896 274.865672 
L 205.6787 275.897821 
L 206.911104 275.998715 
L 208.143509 276.377079 
L 210.513517 277.505871 
L 211.872322 277.630603 
L 213.009926 277.949946 
L 214.27393 278.787212 
L 216.738739 279.169552 
L 217.971143 279.924341 
L 219.171947 279.885629 
L 220.372751 280.595438 
L 221.605156 281.063945 
L 222.83756 281.147373 
L 225.333969 280.829103 
L 226.534773 280.847747 
L 229.031182 280.669446 
L 230.200386 280.803604 
L 231.49599 280.613879 
L 232.728395 280.687215 
L 235.130003 280.667978 
L 236.330807 280.69727 
L 237.563212 280.91973 
L 238.795616 280.767292 
L 239.99642 280.780605 
L 241.292025 280.555943 
L 242.524429 280.803638 
L 244.989238 280.49221 
L 246.190042 280.738933 
L 248.686451 281.022619 
L 253.647668 280.368474 
L 254.816872 280.522415 
L 256.080877 280.368086 
L 257.281681 280.447644 
L 258.545685 280.850215 
L 260.947294 280.844348 
L 263.443702 280.692686 
L 264.644507 280.219139 
L 268.40492 279.17279 
L 270.901328 278.379127 
L 273.397737 278.071802 
L 277.12655 279.264985 
L 278.295754 279.937353 
L 279.528159 280.245807 
L 280.760563 280.342386 
L 282.024567 280.268418 
L 283.225372 279.859409 
L 285.69018 279.770267 
L 286.954185 279.952634 
L 288.154989 279.939893 
L 289.355793 280.124719 
L 290.619798 280.624349 
L 293.021406 280.802197 
L 294.28541 280.936015 
L 295.549415 280.659967 
L 296.718619 280.800284 
L 297.982623 280.58599 
L 300.415832 279.916638 
L 301.648236 279.983694 
L 302.88064 280.298202 
L 304.144645 280.313396 
L 306.577853 280.801533 
L 307.747058 280.701811 
L 309.011062 280.85782 
L 310.243466 280.613962 
L 312.676675 280.509015 
L 313.877479 280.312588 
L 315.109883 280.289654 
L 316.342288 279.783788 
L 317.606292 279.740077 
L 320.071101 279.240268 
L 321.240305 278.72233 
L 323.736714 276.996431 
L 325.000718 276.282021 
L 327.433926 273.357267 
L 329.835535 267.222196 
L 331.35234 262.863438 
L 333.975149 252.494205 
L 335.270754 248.976503 
L 336.503158 246.734689 
L 337.672362 246.456971 
L 338.967967 248.695895 
L 340.168771 252.036583 
L 341.337975 256.313988 
L 342.63358 260.034352 
L 343.834384 262.813105 
L 345.129988 264.865385 
L 346.299193 265.997122 
L 347.563197 266.893116 
L 348.795601 267.156236 
L 350.028006 267.669445 
L 353.630418 272.086075 
L 354.926023 273.160901 
L 356.158427 274.648619 
L 357.359231 275.426775 
L 358.654836 275.262082 
L 361.088044 275.815418 
L 362.383649 276.078743 
L 363.521253 276.470458 
L 365.922861 277.62894 
L 367.155266 278.352213 
L 368.48247 278.650814 
L 370.947279 277.678121 
L 372.116483 276.822383 
L 373.348887 276.202322 
L 375.813696 275.520101 
L 376.9197 275.657818 
L 378.246904 275.278825 
L 379.479309 274.743137 
L 380.616913 273.938113 
L 383.144922 272.886445 
L 384.314126 272.111456 
L 385.54653 271.733348 
L 386.747334 271.198349 
L 388.042939 270.802146 
L 389.306943 269.624815 
L 390.412947 268.442334 
L 392.972556 264.78951 
L 395.784966 260.086878 
L 396.92257 258.020536 
L 400.746183 250.190005 
L 405.770601 237.746098 
L 406.845005 233.460669 
L 408.203809 228.869861 
L 409.404614 224.268615 
L 410.415817 218.764808 
L 411.806222 212.528287 
L 413.038626 205.027989 
L 414.334231 195.904533 
L 415.471835 186.535094 
L 417.968244 168.085898 
L 419.263848 156.683662 
L 420.369852 145.465654 
L 421.665457 133.588993 
L 422.73986 120.969414 
L 424.225065 107.522649 
L 425.362669 93.164432 
L 425.362669 93.164432 
" clip-path="url(#p3f8699460d)" style="fill: none; stroke: #1f77b4; stroke-width: 2.5; stroke-linecap: square"/>
   </g>
   <g id="line2d_17">
    <path d="M 58.011383 284.191949 
L 58.011383 283.850894 
L 58.011383 284.501747 
L 58.137783 284.243762 
L 58.738185 284.207044 
L 60.19179 284.553011 
L 64.679006 284.304498 
L 66.669813 284.169211 
L 72.958235 284.427982 
L 74.127439 284.395631 
L 75.359844 284.618154 
L 77.856252 284.444789 
L 79.088657 284.418337 
L 81.553465 284.511662 
L 82.81747 284.371014 
L 84.049874 284.510286 
L 86.799084 284.513999 
L 89.390293 284.969285 
L 90.622697 284.953111 
L 91.855101 284.779109 
L 93.087506 284.482417 
L 94.31991 284.506629 
L 96.816319 284.321268 
L 99.281127 284.495733 
L 101.745936 284.748807 
L 103.00994 284.700766 
L 106.707153 285.015758 
L 110.341166 284.751835 
L 112.837575 284.902137 
L 115.302383 284.811892 
L 116.566388 285.038311 
L 117.767192 285.11169 
L 118.999596 284.864093 
L 121.401205 284.824916 
L 122.696809 284.850052 
L 123.897614 285.061332 
L 125.130018 284.961503 
L 126.394022 284.586384 
L 129.048432 284.456276 
L 130.186036 284.316092 
L 131.41844 283.623176 
L 132.587644 283.337526 
L 135.115653 283.31264 
L 136.379657 283.425725 
L 138.844466 283.467825 
L 140.04527 283.854224 
L 141.309275 283.999949 
L 142.478479 283.957399 
L 146.238892 283.355093 
L 151.200109 283.207563 
L 153.601718 283.474103 
L 154.897322 283.542628 
L 156.098126 283.936153 
L 164.661756 282.688717 
L 165.925761 282.338476 
L 168.358969 282.178115 
L 172.087782 280.954383 
L 173.288587 280.740375 
L 177.0806 280.719658 
L 178.407805 280.697873 
L 179.545408 280.876385 
L 180.777813 280.679243 
L 185.70743 279.239388 
L 189.341443 279.261734 
L 190.573847 279.641222 
L 191.837852 279.745001 
L 193.070256 280.05116 
L 197.999873 279.521331 
L 200.433082 280.081812 
L 202.86629 280.355521 
L 204.161895 280.35158 
L 205.362699 280.786822 
L 207.859108 280.474334 
L 209.059912 280.540581 
L 212.725525 281.445314 
L 213.957929 281.558419 
L 215.158733 281.512251 
L 216.454338 281.914277 
L 220.119951 281.924444 
L 225.049568 282.22434 
L 228.715181 282.001792 
L 229.979185 281.595312 
L 232.380794 281.741822 
L 233.644798 282.047008 
L 234.845602 282.101232 
L 236.014806 282.469349 
L 238.606015 282.234092 
L 239.80682 282.188163 
L 241.007624 281.740025 
L 243.440832 281.548729 
L 248.40205 282.420249 
L 249.666054 282.109628 
L 250.898458 282.174739 
L 255.764875 281.711057 
L 257.06048 282.052313 
L 259.462088 281.570434 
L 260.662893 281.232559 
L 261.990097 280.494595 
L 263.127701 279.699316 
L 264.391706 278.595563 
L 266.856514 276.792865 
L 268.120519 275.812293 
L 269.416123 275.480297 
L 270.648528 274.767306 
L 271.944132 274.791966 
L 273.113336 274.9747 
L 274.408941 275.353416 
L 276.778949 276.514122 
L 278.042953 277.259059 
L 280.507762 278.321892 
L 282.909371 279.128154 
L 284.173375 279.961281 
L 286.638184 281.0767 
L 289.008192 281.477827 
L 290.303796 281.144333 
L 292.768605 280.758715 
L 294.001009 280.373163 
L 295.233414 280.720397 
L 300.163031 280.562714 
L 301.363835 280.011038 
L 305.061048 279.023831 
L 307.494257 278.780085 
L 311.128269 277.120239 
L 312.360674 276.185981 
L 313.624678 274.572062 
L 314.888683 273.315112 
L 317.290291 269.852872 
L 318.522695 268.437073 
L 319.7551 266.591402 
L 320.987504 265.084206 
L 323.483913 262.774009 
L 324.653117 261.952413 
L 325.948721 261.97268 
L 327.149525 261.87578 
L 328.38193 262.475595 
L 329.582734 263.376459 
L 333.627548 266.905 
L 334.923153 268.470961 
L 336.218757 269.681551 
L 338.683566 272.760722 
L 339.91597 273.740829 
L 341.148374 275.355718 
L 342.317579 276.409523 
L 344.845587 277.884334 
L 346.046392 277.913869 
L 347.247196 278.27725 
L 348.448 278.479005 
L 349.712004 278.508024 
L 352.208413 279.007442 
L 353.409217 279.559611 
L 355.874026 280.145784 
L 358.307235 280.171511 
L 360.677243 279.594898 
L 363.236852 278.639215 
L 364.437656 278.247323 
L 366.902465 278.894607 
L 368.166469 278.778633 
L 370.568078 279.303384 
L 373.096086 278.749144 
L 375.497695 277.43242 
L 376.698499 276.954619 
L 377.994104 276.815315 
L 379.226508 276.375357 
L 380.490512 276.247971 
L 381.628116 276.449572 
L 382.892121 276.123005 
L 384.124525 275.688873 
L 385.325329 275.05762 
L 386.399733 274.01864 
L 391.424151 269.955133 
L 392.561755 269.445838 
L 395.405765 266.65347 
L 396.796169 265.166063 
L 399.324178 261.842867 
L 400.493382 259.310347 
L 402.894991 254.701459 
L 404.127395 252.076209 
L 405.4546 248.700081 
L 407.793008 240.903014 
L 409.120213 237.552823 
L 410.226216 232.664861 
L 411.521821 228.073526 
L 412.849026 221.782294 
L 414.01823 215.582705 
L 415.124234 207.376744 
L 416.483038 199.507179 
L 417.589042 188.648142 
L 418.916247 178.399697 
L 420.148651 167.776629 
L 421.412656 155.6595 
L 423.845864 126.947262 
L 425.173069 109.89936 
L 426.026272 90.755073 
L 426.026272 90.755073 
" clip-path="url(#p3f8699460d)" style="fill: none; stroke: #0033ff; stroke-width: 2.5; stroke-linecap: square"/>
   </g>
   <g id="line2d_18">
    <path d="M 56.115376 286.561536 
L 56.178576 286.063575 
L 56.178576 286.073588 
L 56.273377 286.305223 
L 56.778979 286.509037 
L 58.295784 286.579155 
L 60.476191 286.505969 
L 62.783 286.277614 
L 64.710606 285.884889 
L 66.353812 285.753396 
L 67.681017 285.907475 
L 68.818621 285.87937 
L 69.924625 286.000643 
L 72.326233 286.632381 
L 76.023446 286.657844 
L 78.519855 286.555764 
L 84.745076 286.877618 
L 88.72669 287.12128 
L 92.455503 286.606083 
L 93.687908 286.621478 
L 99.881529 286.101976 
L 101.113934 286.325667 
L 102.346338 285.980256 
L 112.173973 286.24019 
L 113.406377 286.532263 
L 114.607181 286.237559 
L 115.934386 286.142428 
L 118.399194 285.743427 
L 120.832403 285.273038 
L 122.001607 285.423181 
L 124.466416 285.525305 
L 125.69882 285.616475 
L 127.026025 285.535504 
L 129.554033 285.664777 
L 133.219646 285.460858 
L 134.452051 285.653467 
L 136.980059 285.218652 
L 143.078881 284.05967 
L 145.512089 283.692716 
L 146.870894 283.480467 
L 148.103298 283.046492 
L 149.304103 282.969388 
L 154.26532 282.020425 
L 157.867733 281.676988 
L 160.427342 281.421645 
L 161.628146 281.301073 
L 164.061354 280.169748 
L 165.293759 279.761999 
L 166.557763 279.208751 
L 167.695367 278.874746 
L 168.990972 279.025686 
L 170.191776 278.594634 
L 171.45578 278.696366 
L 172.688184 278.672307 
L 173.888989 278.272861 
L 175.121393 277.080056 
L 176.416998 276.097817 
L 177.681002 274.707592 
L 178.881806 273.647478 
L 181.315015 271.794614 
L 182.579019 270.027736 
L 184.980628 267.163612 
L 186.181432 265.419601 
L 187.477036 264.633942 
L 188.709441 264.289242 
L 189.878645 263.289416 
L 191.205849 264.789332 
L 192.406654 263.798393 
L 193.702258 262.913788 
L 196.103866 258.923416 
L 197.304671 258.264696 
L 198.600275 258.511394 
L 199.83268 261.421964 
L 201.065084 264.779703 
L 202.297488 268.803309 
L 203.529893 274.048191 
L 205.994701 278.588 
L 207.227105 279.306502 
L 209.660314 279.605782 
L 210.829518 279.781654 
L 212.061922 280.201264 
L 213.325927 280.244486 
L 214.558331 280.538794 
L 218.255544 280.201724 
L 219.456348 280.269427 
L 221.921157 280.179868 
L 224.417566 280.546856 
L 226.850774 280.468971 
L 228.083178 280.071417 
L 229.315583 280.093917 
L 230.516387 280.31653 
L 231.748791 280.334454 
L 235.446004 280.135545 
L 236.678409 280.176822 
L 237.847613 279.732512 
L 240.344021 279.153492 
L 242.84043 279.025075 
L 245.273639 279.05204 
L 246.506043 278.912678 
L 247.738447 278.575271 
L 250.203256 278.233823 
L 251.46726 278.513406 
L 252.668065 278.586167 
L 253.868869 278.434523 
L 255.132873 278.778239 
L 258.830086 279.236973 
L 262.495699 279.887347 
L 263.759703 280.199312 
L 266.192912 280.148439 
L 267.456916 280.275101 
L 268.752521 280.071871 
L 271.21733 280.198644 
L 276.178547 278.683713 
L 277.379351 278.521078 
L 281.044964 279.478449 
L 282.277368 279.554897 
L 283.541373 279.928365 
L 284.742177 279.642246 
L 286.006181 280.055821 
L 292.136603 280.058102 
L 293.400607 280.365474 
L 294.569811 280.155292 
L 295.865416 280.644825 
L 297.03462 280.762118 
L 298.298624 281.190742 
L 299.499429 281.177125 
L 300.731833 281.395162 
L 303.165041 281.398691 
L 306.893855 282.265862 
L 308.063059 282.798979 
L 309.295463 283.035067 
L 313.024276 282.660837 
L 314.22508 282.79738 
L 315.425884 282.810585 
L 316.626689 282.970845 
L 317.922293 282.813653 
L 319.123097 283.036489 
L 320.292301 283.121645 
L 322.72551 282.821854 
L 325.253519 283.121984 
L 327.655127 283.601845 
L 328.950732 283.717363 
L 330.214736 283.510062 
L 331.668341 283.396563 
L 333.027146 283.407374 
L 334.322751 283.275088 
L 336.819159 283.265263 
L 339.283968 282.55735 
L 340.421572 282.480531 
L 344.118785 281.336481 
L 346.615194 281.812159 
L 347.784398 282.008911 
L 349.048402 282.082531 
L 350.217606 281.897136 
L 351.513211 281.851899 
L 352.714015 281.696168 
L 353.946419 281.298996 
L 355.273624 280.407998 
L 356.442828 278.423724 
L 357.643632 275.382585 
L 358.907637 269.253354 
L 361.340845 249.781727 
L 362.510049 239.300533 
L 363.805654 229.227386 
L 366.238862 212.594033 
L 367.502867 207.472775 
L 368.766871 205.155146 
L 369.904475 207.115826 
L 371.16848 211.499044 
L 372.495684 217.936126 
L 373.570088 227.831107 
L 374.960493 239.337114 
L 376.066497 250.569908 
L 377.267301 259.640689 
L 378.562906 264.665166 
L 379.76371 268.803132 
L 380.964514 270.398734 
L 382.260118 271.538837 
L 383.397722 272.128154 
L 388.32734 271.365861 
L 389.591344 271.023146 
L 390.728948 270.345779 
L 391.992953 269.746633 
L 393.193757 267.927618 
L 394.647362 267.05299 
L 396.100967 265.741036 
L 397.270171 263.87617 
L 398.502575 261.274362 
L 399.82978 259.021505 
L 401.125385 256.465809 
L 402.326189 254.35005 
L 403.590193 251.176328 
L 404.759397 247.814186 
L 406.055002 244.654203 
L 407.129406 241.405012 
L 408.45661 236.473018 
L 410.984619 222.915847 
L 411.995823 215.465708 
L 413.291427 207.244852 
L 414.618632 197.44408 
L 415.693036 187.459905 
L 417.178241 178.080144 
L 419.548249 158.271795 
L 420.717453 146.068286 
L 421.886657 131.639047 
L 423.119062 114.425675 
L 424.446266 93.869766 
L 425.58387 69.412919 
L 425.58387 69.412919 
" clip-path="url(#p3f8699460d)" style="fill: none; stroke: #ff7f0e; stroke-width: 2.5; stroke-linecap: square"/>
   </g>
   <g id="line2d_19">
    <path d="M 66.227412 284.340463 
L 66.164211 285.06277 
L 66.227412 284.677251 
L 66.827814 284.271304 
L 68.407819 284.19926 
L 70.651427 284.307477 
L 72.926635 284.578583 
L 74.917442 284.607287 
L 76.465847 285.04989 
L 77.729852 284.839798 
L 78.930656 284.838766 
L 80.00506 284.690416 
L 81.237464 284.717976 
L 82.375068 284.484212 
L 84.966277 284.281911 
L 87.589086 284.484439 
L 92.613504 284.467308 
L 96.342317 283.947652 
L 98.838726 284.098001 
L 101.240334 284.345489 
L 102.504339 284.47711 
L 105.063948 284.385271 
L 106.201552 284.090038 
L 107.528756 284.255162 
L 108.761161 284.139263 
L 109.993565 284.311242 
L 111.225969 284.257984 
L 112.395173 284.369234 
L 113.627578 284.275164 
L 114.923182 284.343504 
L 116.123986 284.589368 
L 118.588795 284.048597 
L 122.254408 284.001865 
L 126.014821 283.935804 
L 128.57443 284.078162 
L 130.976038 283.607532 
L 133.472447 283.786161 
L 138.402064 282.799908 
L 139.634469 282.092456 
L 143.331682 280.4788 
L 144.595686 279.676734 
L 145.82809 278.757707 
L 147.060495 278.173826 
L 148.324499 277.957683 
L 152.021712 275.987959 
L 154.486521 275.951078 
L 156.919729 275.417109 
L 158.152134 274.653579 
L 159.416138 273.669229 
L 161.849347 269.124901 
L 163.081751 265.953765 
L 165.514959 259.332057 
L 166.778964 257.454381 
L 168.042968 257.113447 
L 169.338573 257.934695 
L 171.708581 261.3413 
L 172.940985 262.105668 
L 174.20499 263.636092 
L 175.468994 263.027513 
L 176.732999 261.133131 
L 177.902203 258.586316 
L 181.631016 248.417441 
L 182.86342 245.56098 
L 184.127425 243.316407 
L 185.296629 242.254765 
L 187.761437 242.921343 
L 190.226246 244.464722 
L 191.45865 244.16467 
L 192.659454 244.773564 
L 193.891859 243.776576 
L 196.356667 242.772631 
L 197.589072 243.505065 
L 198.853076 243.757918 
L 200.08548 243.599229 
L 201.286285 243.640437 
L 202.518689 244.378142 
L 203.751093 244.521819 
L 204.983498 245.108562 
L 206.184302 245.003713 
L 207.448306 245.686213 
L 208.680711 245.950245 
L 211.113919 248.138905 
L 212.346323 249.028022 
L 214.811132 252.510587 
L 216.011936 253.770649 
L 217.275941 255.525664 
L 219.740749 258.32962 
L 220.973154 259.470675 
L 225.839571 265.192242 
L 227.071975 265.961795 
L 228.335979 266.942961 
L 229.568384 267.649981 
L 230.737588 267.853019 
L 231.969992 267.915325 
L 233.265597 268.547712 
L 234.403201 269.242246 
L 235.667205 269.845573 
L 236.899609 270.762949 
L 239.332818 272.998479 
L 240.533622 273.190594 
L 242.966831 273.301768 
L 244.294035 272.869448 
L 245.494839 272.987608 
L 247.928048 272.399365 
L 249.192052 273.041189 
L 251.751661 274.13891 
L 252.952466 274.061343 
L 254.18487 274.455191 
L 255.417274 274.509498 
L 256.618078 274.067493 
L 257.818883 273.41729 
L 259.082887 271.859416 
L 260.346891 269.601987 
L 261.516096 266.973797 
L 262.7801 263.190114 
L 264.044104 258.717581 
L 266.414113 248.572403 
L 267.709717 244.362443 
L 268.973722 240.853568 
L 270.269326 239.12819 
L 271.47013 238.236496 
L 272.734135 238.415907 
L 273.934939 239.774957 
L 276.462948 242.954785 
L 277.632152 244.231705 
L 278.896156 245.248733 
L 280.065361 246.040439 
L 281.360965 246.60618 
L 282.530169 247.880129 
L 283.762574 248.502355 
L 286.290582 252.127056 
L 287.459786 254.130655 
L 288.755391 255.721074 
L 289.987795 256.775072 
L 291.1886 258.503413 
L 292.389404 259.185519 
L 294.854212 261.143698 
L 296.055017 261.674313 
L 297.319021 262.697877 
L 298.551425 263.306094 
L 299.75223 264.272164 
L 301.016234 264.455685 
L 302.217038 264.339586 
L 303.481043 265.235711 
L 304.681847 265.454267 
L 305.882651 265.539087 
L 307.083455 265.457707 
L 308.37906 265.768191 
L 310.812268 266.567644 
L 312.013072 266.625436 
L 315.678685 267.244131 
L 316.97429 267.14757 
L 318.143494 267.394699 
L 319.407498 267.533497 
L 320.608303 267.952198 
L 321.840707 267.918542 
L 325.50632 268.257783 
L 326.738724 267.914988 
L 327.971128 267.312251 
L 329.140332 266.979417 
L 330.435937 265.957526 
L 334.575551 261.919175 
L 335.807956 261.281324 
L 337.04036 259.850989 
L 338.272764 257.809805 
L 339.536769 254.801119 
L 340.674373 251.017665 
L 341.969977 246.30502 
L 345.63559 227.188389 
L 349.332803 210.397304 
L 350.470407 206.86515 
L 351.766012 205.409804 
L 353.061616 206.689109 
L 354.16762 210.195898 
L 355.463225 215.795379 
L 357.928033 229.259436 
L 359.160438 236.209605 
L 360.392842 241.427782 
L 361.656846 245.918817 
L 362.79445 248.38825 
L 364.026855 250.595829 
L 365.259259 252.560458 
L 366.554863 253.872233 
L 367.882068 255.013471 
L 370.157276 256.237313 
L 371.421281 257.443416 
L 372.685285 258.901101 
L 373.917689 259.078523 
L 376.382498 259.036341 
L 377.520102 259.098351 
L 379.95331 257.527455 
L 381.185715 257.117274 
L 382.512919 256.245428 
L 384.851328 255.448041 
L 386.115332 254.820181 
L 387.442537 254.754039 
L 388.580141 254.202631 
L 389.780945 254.64473 
L 391.013349 253.194941 
L 392.340554 251.864903 
L 393.541358 250.916134 
L 394.963363 248.831497 
L 398.881777 242.066502 
L 400.019381 239.31224 
L 402.54739 234.335802 
L 404.917398 226.151532 
L 406.307803 220.881997 
L 409.847015 203.065883 
L 412.438224 188.319555 
L 413.639028 180.780596 
L 414.871433 172.062022 
L 416.103837 164.653315 
L 417.241441 153.261217 
L 418.631846 141.231675 
L 419.80105 128.704658 
L 422.234258 98.70909 
L 424.762267 58.351197 
L 425.741871 33.093759 
L 425.741871 33.093759 
" clip-path="url(#p3f8699460d)" style="fill: none; stroke: #ff0000; stroke-width: 2.5; stroke-linecap: square"/>
   </g>
   <g id="patch_3">
    <path d="M 47.298945 299.822656 
L 47.298945 20.392383 
" style="fill: none; stroke: #000000; stroke-width: 1.5; stroke-linejoin: miter; stroke-linecap: square"/>
   </g>
   <g id="patch_4">
    <path d="M 47.298945 299.822656 
L 426.500273 299.822656 
" style="fill: none; stroke: #000000; stroke-width: 1.5; stroke-linejoin: miter; stroke-linecap: square"/>
   </g>
   <g id="legend_1">
    <g id="line2d_20">
     <path d="M 58.098945 35.728711 
L 70.098945 35.728711 
L 82.098945 35.728711 
" style="fill: none; stroke: #000000; stroke-width: 2.5; stroke-linecap: square"/>
    </g>
    <g id="text_18">
     <!-- vacuum -->
     <g transform="translate(91.698945 39.928711) scale(0.12 -0.12)">
      <defs>
       <path id="ArialMT-59" d="M 1344 0 
L 81 3319 
L 675 3319 
L 1388 1331 
Q 1503 1009 1600 663 
Q 1675 925 1809 1294 
L 2547 3319 
L 3125 3319 
L 1869 0 
L 1344 0 
z
" transform="scale(0.015625)"/>
       <path id="ArialMT-46" d="M 2588 1216 
L 3141 1144 
Q 3050 572 2676 248 
Q 2303 -75 1759 -75 
Q 1078 -75 664 370 
Q 250 816 250 1647 
Q 250 2184 428 2587 
Q 606 2991 970 3192 
Q 1334 3394 1763 3394 
Q 2303 3394 2647 3120 
Q 2991 2847 3088 2344 
L 2541 2259 
Q 2463 2594 2264 2762 
Q 2066 2931 1784 2931 
Q 1359 2931 1093 2626 
Q 828 2322 828 1663 
Q 828 994 1084 691 
Q 1341 388 1753 388 
Q 2084 388 2306 591 
Q 2528 794 2588 1216 
z
" transform="scale(0.015625)"/>
      </defs>
      <use xlink:href="#ArialMT-59"/>
      <use xlink:href="#ArialMT-44" transform="translate(50 0)"/>
      <use xlink:href="#ArialMT-46" transform="translate(105.609375 0)"/>
      <use xlink:href="#ArialMT-58" transform="translate(155.609375 0)"/>
      <use xlink:href="#ArialMT-58" transform="translate(211.21875 0)"/>
      <use xlink:href="#ArialMT-50" transform="translate(266.828125 0)"/>
     </g>
    </g>
    <g id="line2d_21">
     <path d="M 58.098945 52.99043 
L 70.098945 52.99043 
L 82.098945 52.99043 
" style="fill: none; stroke: #1f77b4; stroke-width: 2.5; stroke-linecap: square"/>
    </g>
    <g id="text_19">
     <!-- 1h -->
     <g transform="translate(91.698945 57.19043) scale(0.12 -0.12)">
      <defs>
       <path id="ArialMT-4b" d="M 422 0 
L 422 4581 
L 984 4581 
L 984 2938 
Q 1378 3394 1978 3394 
Q 2347 3394 2619 3248 
Q 2891 3103 3008 2847 
Q 3125 2591 3125 2103 
L 3125 0 
L 2563 0 
L 2563 2103 
Q 2563 2525 2380 2717 
Q 2197 2909 1863 2909 
Q 1613 2909 1392 2779 
Q 1172 2650 1078 2428 
Q 984 2206 984 1816 
L 984 0 
L 422 0 
z
" transform="scale(0.015625)"/>
      </defs>
      <use xlink:href="#ArialMT-14"/>
      <use xlink:href="#ArialMT-4b" transform="translate(55.609375 0)"/>
     </g>
    </g>
    <g id="line2d_22">
     <path d="M 58.098945 70.252148 
L 70.098945 70.252148 
L 82.098945 70.252148 
" style="fill: none; stroke: #0033ff; stroke-width: 2.5; stroke-linecap: square"/>
    </g>
    <g id="text_20">
     <!-- 2h -->
     <g transform="translate(91.698945 74.452148) scale(0.12 -0.12)">
      <use xlink:href="#ArialMT-15"/>
      <use xlink:href="#ArialMT-4b" transform="translate(55.609375 0)"/>
     </g>
    </g>
    <g id="line2d_23">
     <path d="M 58.098945 87.513867 
L 70.098945 87.513867 
L 82.098945 87.513867 
" style="fill: none; stroke: #ff7f0e; stroke-width: 2.5; stroke-linecap: square"/>
    </g>
    <g id="text_21">
     <!-- 4h -->
     <g transform="translate(91.698945 91.713867) scale(0.12 -0.12)">
      <use xlink:href="#ArialMT-17"/>
      <use xlink:href="#ArialMT-4b" transform="translate(55.609375 0)"/>
     </g>
    </g>
    <g id="line2d_24">
     <path d="M 58.098945 104.775586 
L 70.098945 104.775586 
L 82.098945 104.775586 
" style="fill: none; stroke: #ff0000; stroke-width: 2.5; stroke-linecap: square"/>
    </g>
    <g id="text_22">
     <!-- first -->
     <g transform="translate(91.698945 108.975586) scale(0.12 -0.12)">
      <defs>
       <path id="ArialMT-49" d="M 556 0 
L 556 2881 
L 59 2881 
L 59 3319 
L 556 3319 
L 556 3672 
Q 556 4006 616 4169 
Q 697 4388 901 4523 
Q 1106 4659 1475 4659 
Q 1713 4659 2000 4603 
L 1916 4113 
Q 1741 4144 1584 4144 
Q 1328 4144 1222 4034 
Q 1116 3925 1116 3625 
L 1116 3319 
L 1763 3319 
L 1763 2881 
L 1116 2881 
L 1116 0 
L 556 0 
z
" transform="scale(0.015625)"/>
       <path id="ArialMT-4c" d="M 425 3934 
L 425 4581 
L 988 4581 
L 988 3934 
L 425 3934 
z
M 425 0 
L 425 3319 
L 988 3319 
L 988 0 
L 425 0 
z
" transform="scale(0.015625)"/>
       <path id="ArialMT-56" d="M 197 991 
L 753 1078 
Q 800 744 1014 566 
Q 1228 388 1613 388 
Q 2000 388 2187 545 
Q 2375 703 2375 916 
Q 2375 1106 2209 1216 
Q 2094 1291 1634 1406 
Q 1016 1563 777 1677 
Q 538 1791 414 1992 
Q 291 2194 291 2438 
Q 291 2659 392 2848 
Q 494 3038 669 3163 
Q 800 3259 1026 3326 
Q 1253 3394 1513 3394 
Q 1903 3394 2198 3281 
Q 2494 3169 2634 2976 
Q 2775 2784 2828 2463 
L 2278 2388 
Q 2241 2644 2061 2787 
Q 1881 2931 1553 2931 
Q 1166 2931 1000 2803 
Q 834 2675 834 2503 
Q 834 2394 903 2306 
Q 972 2216 1119 2156 
Q 1203 2125 1616 2013 
Q 2213 1853 2448 1751 
Q 2684 1650 2818 1456 
Q 2953 1263 2953 975 
Q 2953 694 2789 445 
Q 2625 197 2315 61 
Q 2006 -75 1616 -75 
Q 969 -75 630 194 
Q 291 463 197 991 
z
" transform="scale(0.015625)"/>
      </defs>
      <use xlink:href="#ArialMT-49"/>
      <use xlink:href="#ArialMT-4c" transform="translate(27.78125 0)"/>
      <use xlink:href="#ArialMT-55" transform="translate(50 0)"/>
      <use xlink:href="#ArialMT-56" transform="translate(83.296875 0)"/>
      <use xlink:href="#ArialMT-57" transform="translate(133.296875 0)"/>
     </g>
    </g>
   </g>
  </g>
 </g>
 <defs>
  <clipPath id="p3f8699460d">
   <rect x="47.298945" y="20.392383" width="379.201328" height="279.430273"/>
  </clipPath>
 </defs>
</svg>
