<?xml version="1.0" encoding="utf-8" standalone="no"?>
<!DOCTYPE svg PUBLIC "-//W3C//DTD SVG 1.1//EN"
  "http://www.w3.org/Graphics/SVG/1.1/DTD/svg11.dtd">
<svg xmlns:xlink="http://www.w3.org/1999/xlink" width="449.270898pt" height="340.800273pt" viewBox="0 0 449.270898 340.800273" xmlns="http://www.w3.org/2000/svg" version="1.1">
 <metadata>
  <rdf:RDF xmlns:dc="http://purl.org/dc/elements/1.1/" xmlns:cc="http://creativecommons.org/ns#" xmlns:rdf="http://www.w3.org/1999/02/22-rdf-syntax-ns#">
   <cc:Work>
    <dc:type rdf:resource="http://purl.org/dc/dcmitype/StillImage"/>
    <dc:date>2026-07-09T17:08:22.978289</dc:date>
    <dc:format>image/svg+xml</dc:format>
    <dc:creator>
     <cc:Agent>
      <dc:title>Matplotlib v3.11.0, https://matplotlib.org/</dc:title>
     </cc:Agent>
    </dc:creator>
   </cc:Work>
  </rdf:RDF>
 </metadata>
 <defs>
  <style type="text/css">*{stroke-linejoin: round; stroke-linecap: butt}</style>
 </defs>
 <g id="figure_1">
  <g id="patch_1">
   <path d="M 0 340.800273 
L 449.270898 340.800273 
L 449.270898 0 
L 0 0 
z
" style="fill: #ffffff"/>
  </g>
  <g id="axes_1">
   <g id="patch_2">
    <path d="M 47.298945 299.822656 
L 426.500273 299.822656 
L 426.500273 20.392383 
L 47.298945 20.392383 
z
" style="fill: #ffffff"/>
   </g>
   <g id="matplotlib.axis_1">
    <g id="xtick_1">
     <g id="line2d_1">
      <defs>
       <path id="m2f88c4f53c" d="M 0 0 
L 0 -6 
" style="stroke: #000000; stroke-width: 1.5"/>
      </defs>
      <g>
       <use xlink:href="#m2f88c4f53c" x="47.298945" y="299.822656" style="stroke: #000000; stroke-width: 1.5"/>
      </g>
     </g>
     <g id="text_1">
      <!-- 0 -->
      <g transform="translate(43.406289 313.515039) scale(0.14 -0.14)">
       <defs>
        <path id="ArialMT-13" d="M 266 2259 
Q 266 3072 433 3567 
Q 600 4063 929 4331 
Q 1259 4600 1759 4600 
Q 2128 4600 2406 4451 
Q 2684 4303 2865 4023 
Q 3047 3744 3150 3342 
Q 3253 2941 3253 2259 
Q 3253 1453 3087 958 
Q 2922 463 2592 192 
Q 2263 -78 1759 -78 
Q 1097 -78 719 397 
Q 266 969 266 2259 
z
M 844 2259 
Q 844 1131 1108 757 
Q 1372 384 1759 384 
Q 2147 384 2411 759 
Q 2675 1134 2675 2259 
Q 2675 3391 2411 3762 
Q 2147 4134 1753 4134 
Q 1366 4134 1134 3806 
Q 844 3388 844 2259 
z
" transform="scale(0.015625)"/>
       </defs>
       <use xlink:href="#ArialMT-13"/>
      </g>
     </g>
    </g>
    <g id="xtick_2">
     <g id="line2d_2">
      <g>
       <use xlink:href="#m2f88c4f53c" x="110.499167" y="299.822656" style="stroke: #000000; stroke-width: 1.5"/>
      </g>
     </g>
     <g id="text_2">
      <!-- 200 -->
      <g transform="translate(98.821198 313.515039) scale(0.14 -0.14)">
       <defs>
        <path id="ArialMT-15" d="M 3222 541 
L 3222 0 
L 194 0 
Q 188 203 259 391 
Q 375 700 629 1000 
Q 884 1300 1366 1694 
Q 2113 2306 2375 2664 
Q 2638 3022 2638 3341 
Q 2638 3675 2398 3904 
Q 2159 4134 1775 4134 
Q 1369 4134 1125 3890 
Q 881 3647 878 3216 
L 300 3275 
Q 359 3922 746 4261 
Q 1134 4600 1788 4600 
Q 2447 4600 2831 4234 
Q 3216 3869 3216 3328 
Q 3216 3053 3103 2787 
Q 2991 2522 2730 2228 
Q 2469 1934 1863 1422 
Q 1356 997 1212 845 
Q 1069 694 975 541 
L 3222 541 
z
" transform="scale(0.015625)"/>
       </defs>
       <use xlink:href="#ArialMT-15"/>
       <use xlink:href="#ArialMT-13" transform="translate(55.609375 0)"/>
       <use xlink:href="#ArialMT-13" transform="translate(111.21875 0)"/>
      </g>
     </g>
    </g>
    <g id="xtick_3">
     <g id="line2d_3">
      <g>
       <use xlink:href="#m2f88c4f53c" x="173.699388" y="299.822656" style="stroke: #000000; stroke-width: 1.5"/>
      </g>
     </g>
     <g id="text_3">
      <!-- 400 -->
      <g transform="translate(162.021419 313.515039) scale(0.14 -0.14)">
       <defs>
        <path id="ArialMT-17" d="M 2069 0 
L 2069 1097 
L 81 1097 
L 81 1613 
L 2172 4581 
L 2631 4581 
L 2631 1613 
L 3250 1613 
L 3250 1097 
L 2631 1097 
L 2631 0 
L 2069 0 
z
M 2069 1613 
L 2069 3678 
L 634 1613 
L 2069 1613 
z
" transform="scale(0.015625)"/>
       </defs>
       <use xlink:href="#ArialMT-17"/>
       <use xlink:href="#ArialMT-13" transform="translate(55.609375 0)"/>
       <use xlink:href="#ArialMT-13" transform="translate(111.21875 0)"/>
      </g>
     </g>
    </g>
    <g id="xtick_4">
     <g id="line2d_4">
      <g>
       <use xlink:href="#m2f88c4f53c" x="236.899609" y="299.822656" style="stroke: #000000; stroke-width: 1.5"/>
      </g>
     </g>
     <g id="text_4">
      <!-- 600 -->
      <g transform="translate(225.221641 313.515039) scale(0.14 -0.14)">
       <defs>
        <path id="ArialMT-19" d="M 3184 3459 
L 2625 3416 
Q 2550 3747 2413 3897 
Q 2184 4138 1850 4138 
Q 1581 4138 1378 3988 
Q 1113 3794 959 3422 
Q 806 3050 800 2363 
Q 1003 2672 1297 2822 
Q 1591 2972 1913 2972 
Q 2475 2972 2870 2558 
Q 3266 2144 3266 1488 
Q 3266 1056 3080 686 
Q 2894 316 2569 119 
Q 2244 -78 1831 -78 
Q 1128 -78 684 439 
Q 241 956 241 2144 
Q 241 3472 731 4075 
Q 1159 4600 1884 4600 
Q 2425 4600 2770 4297 
Q 3116 3994 3184 3459 
z
M 888 1484 
Q 888 1194 1011 928 
Q 1134 663 1356 523 
Q 1578 384 1822 384 
Q 2178 384 2434 671 
Q 2691 959 2691 1453 
Q 2691 1928 2437 2201 
Q 2184 2475 1800 2475 
Q 1419 2475 1153 2201 
Q 888 1928 888 1484 
z
" transform="scale(0.015625)"/>
       </defs>
       <use xlink:href="#ArialMT-19"/>
       <use xlink:href="#ArialMT-13" transform="translate(55.609375 0)"/>
       <use xlink:href="#ArialMT-13" transform="translate(111.21875 0)"/>
      </g>
     </g>
    </g>
    <g id="xtick_5">
     <g id="line2d_5">
      <g>
       <use xlink:href="#m2f88c4f53c" x="300.099831" y="299.822656" style="stroke: #000000; stroke-width: 1.5"/>
      </g>
     </g>
     <g id="text_5">
      <!-- 800 -->
      <g transform="translate(288.421862 313.515039) scale(0.14 -0.14)">
       <defs>
        <path id="ArialMT-1b" d="M 1131 2484 
Q 781 2613 612 2850 
Q 444 3088 444 3419 
Q 444 3919 803 4259 
Q 1163 4600 1759 4600 
Q 2359 4600 2725 4251 
Q 3091 3903 3091 3403 
Q 3091 3084 2923 2848 
Q 2756 2613 2416 2484 
Q 2838 2347 3058 2040 
Q 3278 1734 3278 1309 
Q 3278 722 2862 322 
Q 2447 -78 1769 -78 
Q 1091 -78 675 323 
Q 259 725 259 1325 
Q 259 1772 486 2073 
Q 713 2375 1131 2484 
z
M 1019 3438 
Q 1019 3113 1228 2906 
Q 1438 2700 1772 2700 
Q 2097 2700 2305 2904 
Q 2513 3109 2513 3406 
Q 2513 3716 2298 3927 
Q 2084 4138 1766 4138 
Q 1444 4138 1231 3931 
Q 1019 3725 1019 3438 
z
M 838 1322 
Q 838 1081 952 856 
Q 1066 631 1291 507 
Q 1516 384 1775 384 
Q 2178 384 2440 643 
Q 2703 903 2703 1303 
Q 2703 1709 2433 1975 
Q 2163 2241 1756 2241 
Q 1359 2241 1098 1978 
Q 838 1716 838 1322 
z
" transform="scale(0.015625)"/>
       </defs>
       <use xlink:href="#ArialMT-1b"/>
       <use xlink:href="#ArialMT-13" transform="translate(55.609375 0)"/>
       <use xlink:href="#ArialMT-13" transform="translate(111.21875 0)"/>
      </g>
     </g>
    </g>
    <g id="xtick_6">
     <g id="line2d_6">
      <g>
       <use xlink:href="#m2f88c4f53c" x="363.300052" y="299.822656" style="stroke: #000000; stroke-width: 1.5"/>
      </g>
     </g>
     <g id="text_6">
      <!-- 1000 -->
      <g transform="translate(347.729427 313.515039) scale(0.14 -0.14)">
       <defs>
        <path id="ArialMT-14" d="M 2384 0 
L 1822 0 
L 1822 3584 
Q 1619 3391 1289 3197 
Q 959 3003 697 2906 
L 697 3450 
Q 1169 3672 1522 3987 
Q 1875 4303 2022 4600 
L 2384 4600 
L 2384 0 
z
" transform="scale(0.015625)"/>
       </defs>
       <use xlink:href="#ArialMT-14"/>
       <use xlink:href="#ArialMT-13" transform="translate(55.609375 0)"/>
       <use xlink:href="#ArialMT-13" transform="translate(111.21875 0)"/>
       <use xlink:href="#ArialMT-13" transform="translate(166.828125 0)"/>
      </g>
     </g>
    </g>
    <g id="xtick_7">
     <g id="line2d_7">
      <g>
       <use xlink:href="#m2f88c4f53c" x="426.500273" y="299.822656" style="stroke: #000000; stroke-width: 1.5"/>
      </g>
     </g>
     <g id="text_7">
      <!-- 1200 -->
      <g transform="translate(410.929648 313.515039) scale(0.14 -0.14)">
       <use xlink:href="#ArialMT-14"/>
       <use xlink:href="#ArialMT-15" transform="translate(55.609375 0)"/>
       <use xlink:href="#ArialMT-13" transform="translate(111.21875 0)"/>
       <use xlink:href="#ArialMT-13" transform="translate(166.828125 0)"/>
      </g>
     </g>
    </g>
    <g id="text_8">
     <!-- T1 Temperature (°C) -->
     <g transform="translate(173.160234 330.653711) scale(0.14 -0.14)">
      <defs>
       <path id="ArialMT-37" d="M 1659 0 
L 1659 4041 
L 150 4041 
L 150 4581 
L 3781 4581 
L 3781 4041 
L 2266 4041 
L 2266 0 
L 1659 0 
z
" transform="scale(0.015625)"/>
       <path id="ArialMT-3" transform="scale(0.015625)"/>
       <path id="ArialMT-48" d="M 2694 1069 
L 3275 997 
Q 3138 488 2766 206 
Q 2394 -75 1816 -75 
Q 1088 -75 661 373 
Q 234 822 234 1631 
Q 234 2469 665 2931 
Q 1097 3394 1784 3394 
Q 2450 3394 2872 2941 
Q 3294 2488 3294 1666 
Q 3294 1616 3291 1516 
L 816 1516 
Q 847 969 1125 678 
Q 1403 388 1819 388 
Q 2128 388 2347 550 
Q 2566 713 2694 1069 
z
M 847 1978 
L 2700 1978 
Q 2663 2397 2488 2606 
Q 2219 2931 1791 2931 
Q 1403 2931 1139 2672 
Q 875 2413 847 1978 
z
" transform="scale(0.015625)"/>
       <path id="ArialMT-50" d="M 422 0 
L 422 3319 
L 925 3319 
L 925 2853 
Q 1081 3097 1340 3245 
Q 1600 3394 1931 3394 
Q 2300 3394 2536 3241 
Q 2772 3088 2869 2813 
Q 3263 3394 3894 3394 
Q 4388 3394 4653 3120 
Q 4919 2847 4919 2278 
L 4919 0 
L 4359 0 
L 4359 2091 
Q 4359 2428 4304 2576 
Q 4250 2725 4106 2815 
Q 3963 2906 3769 2906 
Q 3419 2906 3187 2673 
Q 2956 2441 2956 1928 
L 2956 0 
L 2394 0 
L 2394 2156 
Q 2394 2531 2256 2718 
Q 2119 2906 1806 2906 
Q 1569 2906 1367 2781 
Q 1166 2656 1075 2415 
Q 984 2175 984 1722 
L 984 0 
L 422 0 
z
" transform="scale(0.015625)"/>
       <path id="ArialMT-53" d="M 422 -1272 
L 422 3319 
L 934 3319 
L 934 2888 
Q 1116 3141 1344 3267 
Q 1572 3394 1897 3394 
Q 2322 3394 2647 3175 
Q 2972 2956 3137 2557 
Q 3303 2159 3303 1684 
Q 3303 1175 3120 767 
Q 2938 359 2589 142 
Q 2241 -75 1856 -75 
Q 1575 -75 1351 44 
Q 1128 163 984 344 
L 984 -1272 
L 422 -1272 
z
M 931 1641 
Q 931 1000 1190 694 
Q 1450 388 1819 388 
Q 2194 388 2461 705 
Q 2728 1022 2728 1688 
Q 2728 2322 2467 2637 
Q 2206 2953 1844 2953 
Q 1484 2953 1207 2617 
Q 931 2281 931 1641 
z
" transform="scale(0.015625)"/>
       <path id="ArialMT-55" d="M 416 0 
L 416 3319 
L 922 3319 
L 922 2816 
Q 1116 3169 1280 3281 
Q 1444 3394 1641 3394 
Q 1925 3394 2219 3213 
L 2025 2691 
Q 1819 2813 1613 2813 
Q 1428 2813 1281 2702 
Q 1134 2591 1072 2394 
Q 978 2094 978 1738 
L 978 0 
L 416 0 
z
" transform="scale(0.015625)"/>
       <path id="ArialMT-44" d="M 2588 409 
Q 2275 144 1986 34 
Q 1697 -75 1366 -75 
Q 819 -75 525 192 
Q 231 459 231 875 
Q 231 1119 342 1320 
Q 453 1522 633 1644 
Q 813 1766 1038 1828 
Q 1203 1872 1538 1913 
Q 2219 1994 2541 2106 
Q 2544 2222 2544 2253 
Q 2544 2597 2384 2738 
Q 2169 2928 1744 2928 
Q 1347 2928 1158 2789 
Q 969 2650 878 2297 
L 328 2372 
Q 403 2725 575 2942 
Q 747 3159 1072 3276 
Q 1397 3394 1825 3394 
Q 2250 3394 2515 3294 
Q 2781 3194 2906 3042 
Q 3031 2891 3081 2659 
Q 3109 2516 3109 2141 
L 3109 1391 
Q 3109 606 3145 398 
Q 3181 191 3288 0 
L 2700 0 
Q 2613 175 2588 409 
z
M 2541 1666 
Q 2234 1541 1622 1453 
Q 1275 1403 1131 1340 
Q 988 1278 909 1158 
Q 831 1038 831 891 
Q 831 666 1001 516 
Q 1172 366 1500 366 
Q 1825 366 2078 508 
Q 2331 650 2450 897 
Q 2541 1088 2541 1459 
L 2541 1666 
z
" transform="scale(0.015625)"/>
       <path id="ArialMT-57" d="M 1650 503 
L 1731 6 
Q 1494 -44 1306 -44 
Q 1000 -44 831 53 
Q 663 150 594 308 
Q 525 466 525 972 
L 525 2881 
L 113 2881 
L 113 3319 
L 525 3319 
L 525 4141 
L 1084 4478 
L 1084 3319 
L 1650 3319 
L 1650 2881 
L 1084 2881 
L 1084 941 
Q 1084 700 1114 631 
Q 1144 563 1211 522 
Q 1278 481 1403 481 
Q 1497 481 1650 503 
z
" transform="scale(0.015625)"/>
       <path id="ArialMT-58" d="M 2597 0 
L 2597 488 
Q 2209 -75 1544 -75 
Q 1250 -75 995 37 
Q 741 150 617 320 
Q 494 491 444 738 
Q 409 903 409 1263 
L 409 3319 
L 972 3319 
L 972 1478 
Q 972 1038 1006 884 
Q 1059 663 1231 536 
Q 1403 409 1656 409 
Q 1909 409 2131 539 
Q 2353 669 2445 892 
Q 2538 1116 2538 1541 
L 2538 3319 
L 3100 3319 
L 3100 0 
L 2597 0 
z
" transform="scale(0.015625)"/>
       <path id="ArialMT-b" d="M 1497 -1347 
Q 1031 -759 709 28 
Q 388 816 388 1659 
Q 388 2403 628 3084 
Q 909 3875 1497 4659 
L 1900 4659 
Q 1522 4009 1400 3731 
Q 1209 3300 1100 2831 
Q 966 2247 966 1656 
Q 966 153 1900 -1347 
L 1497 -1347 
z
" transform="scale(0.015625)"/>
       <path id="ArialMT-83" d="M 400 3794 
Q 400 4153 654 4406 
Q 909 4659 1266 4659 
Q 1628 4659 1881 4406 
Q 2134 4153 2134 3794 
Q 2134 3434 1879 3179 
Q 1625 2925 1266 2925 
Q 909 2925 654 3178 
Q 400 3431 400 3794 
z
M 741 3794 
Q 741 3575 895 3420 
Q 1050 3266 1269 3266 
Q 1484 3266 1639 3420 
Q 1794 3575 1794 3794 
Q 1794 4013 1639 4167 
Q 1484 4322 1269 4322 
Q 1050 4322 895 4167 
Q 741 4013 741 3794 
z
" transform="scale(0.015625)"/>
       <path id="ArialMT-26" d="M 3763 1606 
L 4369 1453 
Q 4178 706 3683 314 
Q 3188 -78 2472 -78 
Q 1731 -78 1267 223 
Q 803 525 561 1097 
Q 319 1669 319 2325 
Q 319 3041 592 3573 
Q 866 4106 1370 4382 
Q 1875 4659 2481 4659 
Q 3169 4659 3637 4309 
Q 4106 3959 4291 3325 
L 3694 3184 
Q 3534 3684 3231 3912 
Q 2928 4141 2469 4141 
Q 1941 4141 1586 3887 
Q 1231 3634 1087 3207 
Q 944 2781 944 2328 
Q 944 1744 1114 1308 
Q 1284 872 1643 656 
Q 2003 441 2422 441 
Q 2931 441 3284 734 
Q 3638 1028 3763 1606 
z
" transform="scale(0.015625)"/>
       <path id="ArialMT-c" d="M 791 -1347 
L 388 -1347 
Q 1322 153 1322 1656 
Q 1322 2244 1188 2822 
Q 1081 3291 891 3722 
Q 769 4003 388 4659 
L 791 4659 
Q 1378 3875 1659 3084 
Q 1900 2403 1900 1659 
Q 1900 816 1576 28 
Q 1253 -759 791 -1347 
z
" transform="scale(0.015625)"/>
      </defs>
      <use xlink:href="#ArialMT-37"/>
      <use xlink:href="#ArialMT-14" transform="translate(61.078125 0)"/>
      <use xlink:href="#ArialMT-3" transform="translate(116.6875 0)"/>
      <use xlink:href="#ArialMT-37" transform="translate(142.65625 0)"/>
      <use xlink:href="#ArialMT-48" transform="translate(192.65625 0)"/>
      <use xlink:href="#ArialMT-50" transform="translate(248.265625 0)"/>
      <use xlink:href="#ArialMT-53" transform="translate(331.5625 0)"/>
      <use xlink:href="#ArialMT-48" transform="translate(387.171875 0)"/>
      <use xlink:href="#ArialMT-55" transform="translate(442.78125 0)"/>
      <use xlink:href="#ArialMT-44" transform="translate(476.078125 0)"/>
      <use xlink:href="#ArialMT-57" transform="translate(531.6875 0)"/>
      <use xlink:href="#ArialMT-58" transform="translate(559.46875 0)"/>
      <use xlink:href="#ArialMT-55" transform="translate(615.078125 0)"/>
      <use xlink:href="#ArialMT-48" transform="translate(648.375 0)"/>
      <use xlink:href="#ArialMT-3" transform="translate(703.984375 0)"/>
      <use xlink:href="#ArialMT-b" transform="translate(731.765625 0)"/>
      <use xlink:href="#ArialMT-83" transform="translate(765.0625 0)"/>
      <use xlink:href="#ArialMT-26" transform="translate(805.046875 0)"/>
      <use xlink:href="#ArialMT-c" transform="translate(877.265625 0)"/>
     </g>
    </g>
   </g>
   <g id="matplotlib.axis_2">
    <g id="ytick_1">
     <g id="line2d_8">
      <defs>
       <path id="m68106b3d8c" d="M 0 0 
L 6 0 
" style="stroke: #000000; stroke-width: 1.5"/>
      </defs>
      <g>
       <use xlink:href="#m68106b3d8c" x="47.298945" y="279.241031" style="stroke: #000000; stroke-width: 1.5"/>
      </g>
     </g>
     <g id="text_9">
      <!-- 0.0 -->
      <g transform="translate(24.338945 284.337222) scale(0.14 -0.14)">
       <defs>
        <path id="ArialMT-11" d="M 581 0 
L 581 641 
L 1222 641 
L 1222 0 
L 581 0 
z
" transform="scale(0.015625)"/>
       </defs>
       <use xlink:href="#ArialMT-13"/>
       <use xlink:href="#ArialMT-11" transform="translate(55.609375 0)"/>
       <use xlink:href="#ArialMT-13" transform="translate(83.390625 0)"/>
      </g>
     </g>
    </g>
    <g id="ytick_2">
     <g id="line2d_9">
      <g>
       <use xlink:href="#m68106b3d8c" x="47.298945" y="243.773758" style="stroke: #000000; stroke-width: 1.5"/>
      </g>
     </g>
     <g id="text_10">
      <!-- 0.2 -->
      <g transform="translate(24.338945 248.86995) scale(0.14 -0.14)">
       <use xlink:href="#ArialMT-13"/>
       <use xlink:href="#ArialMT-11" transform="translate(55.609375 0)"/>
       <use xlink:href="#ArialMT-15" transform="translate(83.390625 0)"/>
      </g>
     </g>
    </g>
    <g id="ytick_3">
     <g id="line2d_10">
      <g>
       <use xlink:href="#m68106b3d8c" x="47.298945" y="208.306486" style="stroke: #000000; stroke-width: 1.5"/>
      </g>
     </g>
     <g id="text_11">
      <!-- 0.4 -->
      <g transform="translate(24.338945 213.402677) scale(0.14 -0.14)">
       <use xlink:href="#ArialMT-13"/>
       <use xlink:href="#ArialMT-11" transform="translate(55.609375 0)"/>
       <use xlink:href="#ArialMT-17" transform="translate(83.390625 0)"/>
      </g>
     </g>
    </g>
    <g id="ytick_4">
     <g id="line2d_11">
      <g>
       <use xlink:href="#m68106b3d8c" x="47.298945" y="172.839213" style="stroke: #000000; stroke-width: 1.5"/>
      </g>
     </g>
     <g id="text_12">
      <!-- 0.6 -->
      <g transform="translate(24.338945 177.935405) scale(0.14 -0.14)">
       <use xlink:href="#ArialMT-13"/>
       <use xlink:href="#ArialMT-11" transform="translate(55.609375 0)"/>
       <use xlink:href="#ArialMT-19" transform="translate(83.390625 0)"/>
      </g>
     </g>
    </g>
    <g id="ytick_5">
     <g id="line2d_12">
      <g>
       <use xlink:href="#m68106b3d8c" x="47.298945" y="137.371941" style="stroke: #000000; stroke-width: 1.5"/>
      </g>
     </g>
     <g id="text_13">
      <!-- 0.8 -->
      <g transform="translate(24.338945 142.468132) scale(0.14 -0.14)">
       <use xlink:href="#ArialMT-13"/>
       <use xlink:href="#ArialMT-11" transform="translate(55.609375 0)"/>
       <use xlink:href="#ArialMT-1b" transform="translate(83.390625 0)"/>
      </g>
     </g>
    </g>
    <g id="ytick_6">
     <g id="line2d_13">
      <g>
       <use xlink:href="#m68106b3d8c" x="47.298945" y="101.904668" style="stroke: #000000; stroke-width: 1.5"/>
      </g>
     </g>
     <g id="text_14">
      <!-- 1.0 -->
      <g transform="translate(24.338945 107.00086) scale(0.14 -0.14)">
       <use xlink:href="#ArialMT-14"/>
       <use xlink:href="#ArialMT-11" transform="translate(55.609375 0)"/>
       <use xlink:href="#ArialMT-13" transform="translate(83.390625 0)"/>
      </g>
     </g>
    </g>
    <g id="ytick_7">
     <g id="line2d_14">
      <g>
       <use xlink:href="#m68106b3d8c" x="47.298945" y="66.437396" style="stroke: #000000; stroke-width: 1.5"/>
      </g>
     </g>
     <g id="text_15">
      <!-- 1.2 -->
      <g transform="translate(24.338945 71.533587) scale(0.14 -0.14)">
       <use xlink:href="#ArialMT-14"/>
       <use xlink:href="#ArialMT-11" transform="translate(55.609375 0)"/>
       <use xlink:href="#ArialMT-15" transform="translate(83.390625 0)"/>
      </g>
     </g>
    </g>
    <g id="ytick_8">
     <g id="line2d_15">
      <g>
       <use xlink:href="#m68106b3d8c" x="47.298945" y="30.970123" style="stroke: #000000; stroke-width: 1.5"/>
      </g>
     </g>
     <g id="text_16">
      <!-- 1.4 -->
      <g transform="translate(24.338945 36.066315) scale(0.14 -0.14)">
       <use xlink:href="#ArialMT-14"/>
       <use xlink:href="#ArialMT-11" transform="translate(55.609375 0)"/>
       <use xlink:href="#ArialMT-17" transform="translate(83.390625 0)"/>
      </g>
     </g>
    </g>
    <g id="text_17">
     <!-- Ion Current (m/z 40) -->
     <g transform="translate(17.392383 222.733457) rotate(-90) scale(0.14 -0.14)">
      <defs>
       <path id="ArialMT-2c" d="M 597 0 
L 597 4581 
L 1203 4581 
L 1203 0 
L 597 0 
z
" transform="scale(0.015625)"/>
       <path id="ArialMT-52" d="M 213 1659 
Q 213 2581 725 3025 
Q 1153 3394 1769 3394 
Q 2453 3394 2887 2945 
Q 3322 2497 3322 1706 
Q 3322 1066 3130 698 
Q 2938 331 2570 128 
Q 2203 -75 1769 -75 
Q 1072 -75 642 372 
Q 213 819 213 1659 
z
M 791 1659 
Q 791 1022 1069 705 
Q 1347 388 1769 388 
Q 2188 388 2466 706 
Q 2744 1025 2744 1678 
Q 2744 2294 2464 2611 
Q 2184 2928 1769 2928 
Q 1347 2928 1069 2612 
Q 791 2297 791 1659 
z
" transform="scale(0.015625)"/>
       <path id="ArialMT-51" d="M 422 0 
L 422 3319 
L 928 3319 
L 928 2847 
Q 1294 3394 1984 3394 
Q 2284 3394 2536 3286 
Q 2788 3178 2913 3003 
Q 3038 2828 3088 2588 
Q 3119 2431 3119 2041 
L 3119 0 
L 2556 0 
L 2556 2019 
Q 2556 2363 2490 2533 
Q 2425 2703 2258 2804 
Q 2091 2906 1866 2906 
Q 1506 2906 1245 2678 
Q 984 2450 984 1813 
L 984 0 
L 422 0 
z
" transform="scale(0.015625)"/>
       <path id="ArialMT-12" d="M 0 -78 
L 1328 4659 
L 1778 4659 
L 453 -78 
L 0 -78 
z
" transform="scale(0.015625)"/>
       <path id="ArialMT-5d" d="M 125 0 
L 125 456 
L 2238 2881 
Q 1878 2863 1603 2863 
L 250 2863 
L 250 3319 
L 2963 3319 
L 2963 2947 
L 1166 841 
L 819 456 
Q 1197 484 1528 484 
L 3063 484 
L 3063 0 
L 125 0 
z
" transform="scale(0.015625)"/>
      </defs>
      <use xlink:href="#ArialMT-2c"/>
      <use xlink:href="#ArialMT-52" transform="translate(27.78125 0)"/>
      <use xlink:href="#ArialMT-51" transform="translate(83.390625 0)"/>
      <use xlink:href="#ArialMT-3" transform="translate(139 0)"/>
      <use xlink:href="#ArialMT-26" transform="translate(166.78125 0)"/>
      <use xlink:href="#ArialMT-58" transform="translate(239 0)"/>
      <use xlink:href="#ArialMT-55" transform="translate(294.609375 0)"/>
      <use xlink:href="#ArialMT-55" transform="translate(327.90625 0)"/>
      <use xlink:href="#ArialMT-48" transform="translate(361.203125 0)"/>
      <use xlink:href="#ArialMT-51" transform="translate(416.8125 0)"/>
      <use xlink:href="#ArialMT-57" transform="translate(472.421875 0)"/>
      <use xlink:href="#ArialMT-3" transform="translate(500.203125 0)"/>
      <use xlink:href="#ArialMT-b" transform="translate(527.984375 0)"/>
      <use xlink:href="#ArialMT-50" transform="translate(561.28125 0)"/>
      <use xlink:href="#ArialMT-12" transform="translate(644.578125 0)"/>
      <use xlink:href="#ArialMT-5d" transform="translate(672.359375 0)"/>
      <use xlink:href="#ArialMT-3" transform="translate(722.359375 0)"/>
      <use xlink:href="#ArialMT-17" transform="translate(750.140625 0)"/>
      <use xlink:href="#ArialMT-13" transform="translate(805.75 0)"/>
      <use xlink:href="#ArialMT-c" transform="translate(861.359375 0)"/>
     </g>
    </g>
    <g id="text_18">
     <!-- 1e−12 -->
     <g transform="translate(47.298945 17.392383) scale(0.14 -0.14)">
      <defs>
       <path id="ArialMT-ed" d="M 3381 1997 
L 356 1997 
L 356 2522 
L 3381 2522 
L 3381 1997 
z
" transform="scale(0.015625)"/>
      </defs>
      <use xlink:href="#ArialMT-14"/>
      <use xlink:href="#ArialMT-48" transform="translate(55.609375 0)"/>
      <use xlink:href="#ArialMT-ed" transform="translate(111.21875 0)"/>
      <use xlink:href="#ArialMT-14" transform="translate(169.625 0)"/>
      <use xlink:href="#ArialMT-15" transform="translate(225.234375 0)"/>
     </g>
    </g>
   </g>
   <g id="line2d_16">
    <path d="M 66.195811 270.335871 
L 66.227412 280.344976 
L 66.922614 280.743402 
L 68.56582 280.110473 
L 70.841028 280.135857 
L 73.053036 277.429231 
L 76.402647 276.553875 
L 77.635052 275.700645 
L 79.97346 276.163923 
L 81.111064 275.699801 
L 82.343468 276.472416 
L 83.607472 274.530395 
L 84.871477 275.307253 
L 86.261882 276.541284 
L 87.620687 276.716974 
L 88.916291 277.468827 
L 90.211896 277.9906 
L 91.4759 278.833826 
L 92.645104 278.849969 
L 93.877508 278.319878 
L 95.109913 277.24813 
L 96.373917 276.519019 
L 97.543121 278.952652 
L 98.775526 279.096925 
L 100.00793 278.176001 
L 101.240334 277.467003 
L 102.472739 276.295646 
L 103.736743 276.805486 
L 105.000747 275.90727 
L 106.233152 276.728636 
L 107.497156 276.277665 
L 108.72956 277.457711 
L 109.930365 278.112495 
L 111.162769 278.29987 
L 112.395173 277.594982 
L 113.627578 275.419652 
L 114.859982 276.679865 
L 116.092386 276.965763 
L 117.356391 278.163193 
L 118.557195 279.126366 
L 119.821199 280.468641 
L 122.286008 278.840406 
L 123.518412 278.756277 
L 124.750817 275.491629 
L 126.014821 274.769923 
L 127.278825 276.737913 
L 128.54283 277.041302 
L 129.806834 278.129496 
L 131.007638 277.859055 
L 132.240043 280.11979 
L 133.504047 278.222815 
L 134.673251 277.47505 
L 135.905656 276.863876 
L 137.16966 275.892902 
L 138.433665 276.812564 
L 139.666069 277.88407 
L 140.930073 278.651371 
L 142.099277 279.798399 
L 143.331682 281.466555 
L 144.532486 282.462843 
L 145.76489 278.964481 
L 146.965694 279.006831 
L 148.229699 277.619911 
L 149.462103 277.56795 
L 150.694507 275.759821 
L 151.958512 275.307359 
L 153.159316 274.250066 
L 154.423321 275.777512 
L 155.624125 276.571365 
L 156.888129 276.924943 
L 158.120533 275.638689 
L 159.384538 277.725763 
L 160.648542 277.610449 
L 161.849347 278.341106 
L 163.113351 277.148707 
L 164.345755 276.677255 
L 165.546559 276.035608 
L 168.011368 277.868818 
L 169.212172 279.032174 
L 170.412977 278.070511 
L 171.645381 278.245806 
L 172.909385 277.807622 
L 174.20499 277.085559 
L 175.437394 276.860448 
L 176.701399 276.496043 
L 177.965403 276.975112 
L 179.229407 278.196296 
L 180.430212 279.196145 
L 181.631016 278.902132 
L 184.159025 279.842096 
L 185.328229 281.252043 
L 186.497433 279.712886 
L 188.993842 279.858587 
L 190.226246 280.574222 
L 191.45865 280.559541 
L 192.691055 278.194318 
L 193.860259 277.241469 
L 195.092663 279.330718 
L 196.356667 278.341046 
L 197.589072 278.713631 
L 198.789876 276.735671 
L 200.02228 277.095911 
L 201.254685 277.31982 
L 204.951897 274.688641 
L 206.215902 275.114924 
L 207.448306 277.334129 
L 208.680711 275.472934 
L 209.881515 275.912809 
L 211.145519 277.792854 
L 212.377923 278.972206 
L 213.578728 279.168551 
L 214.811132 277.272266 
L 216.043536 277.978249 
L 217.275941 279.730334 
L 218.445145 280.51597 
L 219.709149 280.724825 
L 220.909953 279.895538 
L 222.142358 278.757373 
L 223.437962 279.327918 
L 224.638766 277.74932 
L 225.871171 277.167812 
L 227.008775 275.998402 
L 228.177979 277.628231 
L 230.674388 279.237317 
L 231.938392 280.443299 
L 233.170796 280.178052 
L 235.667205 278.088217 
L 236.836409 275.639436 
L 238.100414 276.171367 
L 239.332818 276.026663 
L 240.596822 277.748492 
L 241.797627 278.667364 
L 243.030031 279.313334 
L 244.294035 280.867412 
L 245.52644 280.039386 
L 246.727244 280.59617 
L 247.959648 279.881978 
L 249.192052 276.937552 
L 250.424457 276.802888 
L 251.688461 274.460987 
L 252.920865 274.931556 
L 254.12167 275.000638 
L 255.417274 275.952105 
L 256.618078 276.340936 
L 257.850483 276.263788 
L 259.051287 278.597877 
L 260.283691 279.271193 
L 261.579296 277.928046 
L 262.7485 276.534328 
L 263.980904 274.887032 
L 265.213309 272.541985 
L 266.414113 271.546515 
L 267.678117 271.954072 
L 268.973722 272.185839 
L 270.237726 272.560595 
L 271.47013 274.571618 
L 272.670935 274.692737 
L 273.934939 275.621363 
L 275.135743 276.182508 
L 276.399748 277.407444 
L 277.663752 276.833975 
L 280.128561 277.081993 
L 281.360965 277.81011 
L 282.561769 277.635982 
L 283.825774 277.185182 
L 285.026578 276.940934 
L 286.227382 277.774915 
L 287.459786 279.229912 
L 288.692191 279.417143 
L 289.892995 279.866817 
L 292.421004 276.615584 
L 293.590208 277.698264 
L 294.854212 277.926911 
L 296.118217 278.01232 
L 297.287421 277.752273 
L 298.519825 278.413323 
L 299.75223 280.604507 
L 300.984634 280.335015 
L 303.386242 278.855054 
L 304.650247 277.543699 
L 305.882651 278.201896 
L 307.083455 277.059711 
L 308.31586 278.275159 
L 309.548264 278.073976 
L 310.780668 279.502956 
L 312.013072 280.1703 
L 313.213877 278.904987 
L 314.414681 278.69534 
L 315.710285 279.241133 
L 316.94269 277.717898 
L 318.143494 275.667212 
L 319.312698 274.460066 
L 320.608303 275.351157 
L 321.809107 274.728475 
L 323.073111 274.358224 
L 324.273915 273.266211 
L 325.47472 273.365841 
L 326.707124 273.683699 
L 327.971128 274.805546 
L 329.140332 275.558763 
L 330.435937 275.629832 
L 331.984342 276.795977 
L 333.311547 278.375568 
L 334.543951 278.417455 
L 335.807956 279.626505 
L 336.97716 280.225564 
L 338.177964 280.972852 
L 339.473569 279.727245 
L 340.705973 280.539079 
L 341.969977 280.542004 
L 343.107581 280.118219 
L 344.403186 277.829723 
L 345.57239 277.627284 
L 346.899595 279.673299 
L 348.100399 279.35459 
L 349.269603 277.917758 
L 350.533607 277.234355 
L 351.829212 274.291506 
L 354.16762 272.406857 
L 355.494825 271.987705 
L 356.664029 269.914014 
L 359.192038 276.462152 
L 360.456042 277.32254 
L 361.498846 279.622934 
L 362.79445 280.4343 
L 364.121655 279.536544 
L 365.227659 278.012414 
L 366.491663 277.404372 
L 367.913668 277.389434 
L 369.146073 276.978892 
L 370.315277 279.152613 
L 371.452881 278.33051 
L 372.685285 279.13259 
L 373.886089 280.622463 
L 375.150094 279.186847 
L 376.256097 278.66364 
L 377.488502 277.50718 
L 378.720906 277.180557 
L 379.95331 277.743261 
L 381.154115 277.940847 
L 382.449719 278.545753 
L 383.587323 278.673888 
L 384.851328 277.138871 
L 385.988932 278.313053 
L 388.611741 273.684486 
L 389.844145 270.894469 
L 391.044949 270.122887 
L 392.340554 270.543954 
L 393.383357 270.496031 
L 395.089763 272.856101 
L 396.385368 277.215064 
L 397.712573 278.052374 
L 398.881777 280.988183 
L 400.114181 278.164794 
L 401.409786 277.937099 
L 402.515789 278.438613 
L 403.748194 277.769823 
L 404.885798 275.938902 
L 406.244602 275.050907 
L 407.413807 274.714807 
L 408.709411 274.638086 
L 410.036616 273.644447 
L 411.20582 271.696951 
L 412.343424 269.420816 
L 414.839833 272.721734 
L 415.977437 270.631136 
L 417.367841 270.187136 
L 418.663446 269.595339 
L 419.67465 268.616267 
L 422.139458 266.768812 
L 423.435063 266.176067 
L 424.699067 265.971313 
L 425.710271 266.280051 
L 425.710271 266.280051 
" clip-path="url(#p735f301790)" style="fill: none; stroke: #000000; stroke-width: 2.5; stroke-linecap: square"/>
   </g>
   <g id="line2d_17">
    <path d="M 58.200983 281.887167 
L 58.200983 277.128805 
L 58.200983 277.380423 
L 58.358984 277.358988 
L 59.022586 276.190681 
L 60.760592 276.462005 
L 63.0042 277.210857 
L 67.017414 277.871126 
L 68.53422 279.803206 
L 69.798224 280.806984 
L 70.935828 280.31141 
L 71.978632 280.547898 
L 73.211036 281.329004 
L 75.612644 281.223675 
L 76.939849 281.237038 
L 78.203854 281.034296 
L 79.341458 279.623266 
L 80.700262 279.096439 
L 81.869466 278.249125 
L 83.165071 277.112713 
L 84.460675 278.056504 
L 85.75628 277.126953 
L 87.020284 276.509385 
L 88.347489 278.151945 
L 89.706294 278.196208 
L 90.875498 278.073935 
L 92.171102 277.703693 
L 93.340307 277.155664 
L 94.604311 278.022369 
L 95.773515 276.286589 
L 97.10072 276.055293 
L 98.364724 275.962397 
L 99.565528 277.768043 
L 100.734732 278.327435 
L 101.998737 277.645449 
L 103.262741 276.636287 
L 104.495146 277.640271 
L 105.75915 277.195558 
L 106.865154 277.326584 
L 108.160758 274.215863 
L 109.393163 275.962516 
L 110.657167 278.781021 
L 111.952772 280.333111 
L 113.058776 279.949685 
L 114.35438 280.714812 
L 115.586784 279.791332 
L 118.051593 280.71667 
L 119.315598 280.433922 
L 120.611202 278.638222 
L 121.717206 279.363988 
L 123.01281 278.994226 
L 124.276815 280.123986 
L 125.414419 279.045944 
L 126.710023 278.866357 
L 128.005628 276.985971 
L 129.206432 275.997626 
L 131.766041 277.056122 
L 132.966845 275.919963 
L 134.136049 275.319131 
L 135.336854 275.925628 
L 136.600858 279.668908 
L 137.833262 280.482092 
L 139.065667 280.844198 
L 140.266471 279.846622 
L 141.562075 280.009942 
L 142.82608 279.658198 
L 144.058484 281.063282 
L 145.227688 280.194487 
L 146.554893 280.752938 
L 147.724097 280.882817 
L 148.893301 282.012302 
L 150.220506 281.022458 
L 152.748515 276.900353 
L 153.917719 274.5107 
L 155.150123 272.640276 
L 156.382527 272.566927 
L 157.583332 272.881531 
L 158.847336 274.674569 
L 160.11134 277.349811 
L 161.375345 279.248138 
L 163.840153 280.822092 
L 165.009358 280.300334 
L 167.474166 275.402926 
L 169.907375 273.031522 
L 171.139779 274.686909 
L 172.372183 277.297637 
L 173.636188 276.668749 
L 174.931792 275.822507 
L 176.132597 276.527338 
L 177.333401 277.091242 
L 178.597405 275.352746 
L 179.766609 274.713412 
L 181.125414 275.062265 
L 182.294618 272.992025 
L 183.495422 272.757519 
L 184.727827 272.087011 
L 185.960231 268.934198 
L 187.192635 267.18229 
L 188.48824 266.229843 
L 189.689044 264.535215 
L 190.921448 265.467797 
L 192.122253 265.610039 
L 193.354657 264.869077 
L 195.882666 263.037639 
L 197.05187 262.056706 
L 198.284274 261.243309 
L 199.516678 259.562095 
L 200.780683 261.308418 
L 202.044687 260.562493 
L 203.213891 261.675938 
L 204.477896 260.372616 
L 205.6787 260.569697 
L 206.911104 261.640178 
L 208.143509 261.509941 
L 209.375913 259.81676 
L 210.513517 260.607707 
L 211.872322 260.504388 
L 213.009926 266.905925 
L 214.27393 267.721596 
L 215.474734 267.411831 
L 216.738739 269.711473 
L 217.971143 266.854229 
L 219.171947 264.88545 
L 220.372751 262.46585 
L 221.605156 260.30731 
L 224.038364 257.204693 
L 225.333969 259.664859 
L 226.534773 257.616529 
L 227.767177 254.519795 
L 229.031182 256.267186 
L 230.200386 252.059535 
L 231.49599 252.112296 
L 233.897599 255.69227 
L 235.130003 255.788172 
L 236.330807 254.935782 
L 237.563212 255.439674 
L 238.795616 255.4972 
L 239.99642 250.891492 
L 241.292025 253.118088 
L 242.524429 251.726142 
L 243.725233 251.574865 
L 244.989238 251.914723 
L 246.190042 252.73314 
L 247.454046 251.634186 
L 248.686451 249.544156 
L 249.887255 250.590361 
L 251.151259 254.819287 
L 252.352063 254.3121 
L 253.647668 257.500519 
L 254.816872 258.562121 
L 256.080877 260.391296 
L 257.281681 259.335151 
L 258.545685 258.461464 
L 259.77809 256.133933 
L 260.947294 257.041012 
L 262.242898 257.80455 
L 263.443702 257.73572 
L 264.644507 259.034124 
L 265.876911 259.844225 
L 267.109315 259.305559 
L 268.40492 257.968573 
L 269.732124 255.126976 
L 270.901328 255.192894 
L 272.165333 254.272502 
L 273.397737 255.025718 
L 274.661742 254.707572 
L 275.894146 254.9245 
L 277.12655 261.301212 
L 278.295754 262.302087 
L 279.528159 260.81161 
L 280.760563 261.035893 
L 282.024567 263.519942 
L 283.225372 264.079107 
L 285.69018 259.370314 
L 286.954185 259.042978 
L 288.154989 260.748357 
L 289.355793 261.720456 
L 290.619798 258.772135 
L 291.820602 259.568275 
L 293.021406 259.740878 
L 294.28541 262.452486 
L 295.549415 261.1379 
L 296.718619 263.327745 
L 297.982623 263.177783 
L 299.246628 265.50242 
L 300.415832 266.811139 
L 301.648236 264.543208 
L 302.88064 263.140428 
L 304.144645 265.084042 
L 305.313849 262.644208 
L 306.577853 263.895381 
L 307.747058 261.065393 
L 309.011062 261.603327 
L 310.243466 260.379739 
L 311.44427 258.168487 
L 312.676675 252.222738 
L 315.109883 246.981026 
L 316.342288 249.003673 
L 317.606292 249.532083 
L 318.838696 250.439292 
L 320.071101 250.328249 
L 321.240305 254.746946 
L 322.472709 256.258628 
L 323.736714 252.886962 
L 325.000718 248.528266 
L 326.138322 246.970521 
L 327.433926 245.718402 
L 328.634731 246.951884 
L 329.835535 245.599173 
L 331.35234 243.461237 
L 332.711145 243.502829 
L 333.975149 245.610086 
L 335.270754 244.800976 
L 336.503158 243.017926 
L 337.672362 243.044697 
L 338.967967 243.828474 
L 341.337975 239.574918 
L 342.63358 239.423178 
L 345.129988 240.168213 
L 346.299193 237.576811 
L 347.563197 238.516973 
L 348.795601 241.085893 
L 350.028006 243.375823 
L 351.29201 239.919186 
L 352.429614 234.415551 
L 353.630418 234.011853 
L 356.158427 234.185701 
L 357.359231 232.294745 
L 358.654836 229.822319 
L 359.72924 232.153524 
L 361.088044 233.28502 
L 362.383649 232.572374 
L 363.521253 225.869481 
L 364.690457 221.594402 
L 365.922861 217.625914 
L 367.155266 215.382288 
L 368.48247 208.302289 
L 369.714875 202.644462 
L 370.947279 200.520178 
L 372.116483 200.005346 
L 373.348887 200.037775 
L 374.518091 199.718181 
L 375.813696 199.991354 
L 376.9197 206.141694 
L 378.246904 216.305549 
L 379.479309 226.949398 
L 380.616913 229.158223 
L 381.912517 234.76749 
L 383.144922 240.973851 
L 384.314126 245.36027 
L 385.54653 245.375348 
L 386.747334 242.942238 
L 388.042939 244.745235 
L 390.412947 254.94118 
L 391.708552 256.528846 
L 392.972556 257.256955 
L 394.331361 256.770001 
L 396.92257 263.958616 
L 398.344575 262.926951 
L 399.545379 263.015096 
L 400.746183 266.578969 
L 402.010188 267.198702 
L 403.210992 268.742968 
L 404.443396 268.866931 
L 405.770601 268.281723 
L 406.845005 268.190975 
L 409.404614 273.516373 
L 410.415817 274.180391 
L 411.806222 274.189834 
L 413.038626 274.453563 
L 414.334231 272.177066 
L 415.471835 271.865677 
L 416.641039 270.314825 
L 417.968244 270.368868 
L 419.263848 270.088095 
L 421.665457 270.289507 
L 422.73986 270.153237 
L 424.225065 269.685968 
L 425.362669 268.757939 
L 425.362669 268.757939 
" clip-path="url(#p735f301790)" style="fill: none; stroke: #1f77b4; stroke-width: 2.5; stroke-linecap: square"/>
   </g>
   <g id="line2d_18">
    <path d="M 58.011383 282.474041 
L 58.011383 287.12128 
L 58.011383 278.569568 
L 58.137783 277.083188 
L 58.738185 275.6346 
L 60.19179 277.029645 
L 62.435398 280.410676 
L 64.679006 281.182987 
L 68.249819 283.128282 
L 69.545423 283.001097 
L 70.683027 280.404237 
L 71.820631 279.458601 
L 72.958235 277.698007 
L 74.127439 273.934914 
L 75.359844 273.930215 
L 76.623848 273.685802 
L 77.856252 272.679664 
L 79.088657 274.365568 
L 80.321061 276.613359 
L 82.81747 277.441381 
L 84.049874 279.402939 
L 85.408679 279.77609 
L 88.126288 278.685667 
L 89.390293 277.538949 
L 90.622697 276.922564 
L 91.855101 277.995298 
L 93.087506 278.124718 
L 94.31991 279.161265 
L 95.552314 279.668376 
L 96.816319 281.477766 
L 98.017123 281.930685 
L 99.281127 280.806971 
L 100.513532 280.491827 
L 101.745936 280.916768 
L 103.00994 278.791794 
L 104.242345 279.751078 
L 105.474749 280.080796 
L 106.707153 280.558554 
L 107.939558 279.84401 
L 109.171962 278.639371 
L 110.341166 276.185795 
L 111.636771 275.432042 
L 112.837575 274.153477 
L 114.038379 275.139778 
L 115.302383 276.335375 
L 116.566388 279.229826 
L 117.767192 283.18994 
L 118.999596 283.8099 
L 120.200401 284.03594 
L 121.401205 282.510222 
L 122.696809 281.563388 
L 123.897614 279.424424 
L 125.130018 275.173193 
L 126.394022 276.245467 
L 127.658027 275.807637 
L 129.048432 277.094191 
L 130.186036 280.563328 
L 131.41844 280.334534 
L 132.587644 279.482421 
L 133.883249 278.775883 
L 135.115653 276.630429 
L 136.379657 274.667224 
L 137.580462 273.662056 
L 138.844466 275.599184 
L 140.04527 274.216444 
L 141.309275 275.624004 
L 142.478479 274.972243 
L 143.710883 274.918034 
L 145.069688 274.509028 
L 146.238892 275.332923 
L 147.471296 274.563185 
L 148.7037 275.063215 
L 151.200109 277.155586 
L 152.432514 277.719516 
L 153.601718 278.47973 
L 154.897322 276.237642 
L 156.098126 277.50744 
L 157.362131 276.11442 
L 158.594535 276.694487 
L 159.826939 276.16891 
L 161.027744 275.150905 
L 162.260148 275.357202 
L 163.492552 275.829346 
L 164.661756 279.010421 
L 165.925761 278.718377 
L 167.158165 277.794412 
L 168.358969 278.199154 
L 170.886978 277.620751 
L 172.087782 276.21839 
L 173.288587 274.504585 
L 174.552591 274.229658 
L 175.879796 272.507893 
L 177.0806 273.443471 
L 178.407805 271.636543 
L 179.545408 271.536229 
L 180.777813 273.199965 
L 182.010217 275.094339 
L 183.242621 273.195093 
L 184.443426 275.201601 
L 185.70743 276.013611 
L 186.971435 275.297606 
L 188.172239 272.90913 
L 189.341443 274.952609 
L 190.573847 273.489138 
L 191.837852 272.441523 
L 193.070256 272.635779 
L 194.27106 271.95132 
L 195.535064 268.091882 
L 196.735869 269.349773 
L 199.232277 264.056881 
L 200.433082 262.813611 
L 201.602286 264.43877 
L 202.86629 263.249137 
L 204.161895 264.222839 
L 205.362699 265.639678 
L 206.595103 264.386973 
L 207.859108 263.401544 
L 209.059912 266.262823 
L 210.292316 263.784985 
L 211.46152 264.841979 
L 212.725525 266.30947 
L 215.158733 264.376531 
L 216.454338 264.685029 
L 217.686742 262.954408 
L 218.887546 259.936437 
L 220.119951 257.641416 
L 221.352355 255.679547 
L 222.553159 252.947357 
L 225.049568 250.784012 
L 226.281972 248.518839 
L 227.482776 245.959585 
L 228.715181 244.92174 
L 229.979185 247.361709 
L 231.179989 245.973116 
L 232.380794 245.988157 
L 233.644798 248.884721 
L 234.845602 250.559557 
L 236.014806 251.21396 
L 237.278811 249.118143 
L 238.606015 248.652978 
L 239.80682 245.815798 
L 241.007624 244.780555 
L 242.240028 245.608325 
L 243.440832 245.28245 
L 244.704837 247.888094 
L 245.937241 249.570953 
L 247.138045 250.648903 
L 248.40205 250.604818 
L 249.666054 248.521884 
L 250.898458 250.112631 
L 252.067662 251.999787 
L 253.394867 253.077651 
L 254.532471 255.204021 
L 255.764875 262.079801 
L 257.06048 263.989343 
L 258.261284 262.321131 
L 259.462088 262.775722 
L 260.662893 259.237264 
L 261.990097 258.788124 
L 263.127701 256.717585 
L 264.391706 255.840649 
L 265.62411 253.177238 
L 266.856514 252.486773 
L 269.416123 256.987431 
L 270.648528 257.045922 
L 271.944132 260.640836 
L 273.113336 261.987007 
L 274.408941 264.824114 
L 275.609745 266.533639 
L 276.778949 266.438084 
L 279.243758 261.319255 
L 280.507762 260.62532 
L 281.771767 260.079594 
L 282.909371 257.494388 
L 284.173375 255.276197 
L 285.405779 253.746216 
L 286.638184 250.530649 
L 287.902188 249.533119 
L 289.008192 247.074577 
L 290.303796 244.480467 
L 291.504601 243.683837 
L 292.768605 244.209226 
L 294.001009 244.206256 
L 295.233414 243.389184 
L 296.529018 243.063826 
L 297.666622 244.361514 
L 298.899027 243.313294 
L 300.163031 243.852462 
L 301.363835 241.192205 
L 302.596239 236.00386 
L 303.828644 233.998743 
L 305.061048 229.980365 
L 307.494257 226.206898 
L 308.726661 222.912876 
L 309.959065 221.223294 
L 311.128269 218.990266 
L 312.360674 217.578404 
L 313.624678 212.529692 
L 314.888683 209.846789 
L 316.121087 211.475456 
L 317.290291 212.813308 
L 318.522695 218.502418 
L 319.7551 221.757784 
L 320.987504 220.545024 
L 322.219908 223.99808 
L 323.483913 224.74751 
L 324.653117 228.225143 
L 325.948721 225.774361 
L 327.149525 226.774346 
L 328.38193 228.472331 
L 329.582734 227.90028 
L 330.973139 229.689158 
L 332.395144 229.363461 
L 333.627548 228.642371 
L 334.923153 231.395436 
L 337.387961 237.853852 
L 338.683566 236.573765 
L 339.91597 238.59959 
L 341.148374 241.331102 
L 342.317579 241.574436 
L 343.581583 245.56178 
L 344.845587 248.394922 
L 346.046392 249.631738 
L 347.247196 249.589775 
L 348.448 252.322323 
L 349.712004 252.4062 
L 350.912809 251.111217 
L 352.208413 252.516099 
L 353.409217 254.956392 
L 354.546821 254.175646 
L 357.07483 253.326664 
L 358.307235 255.057933 
L 359.571239 254.860532 
L 360.677243 258.776218 
L 362.004448 260.318554 
L 363.236852 259.45884 
L 364.437656 262.282907 
L 365.70166 263.581794 
L 366.902465 263.670439 
L 368.166469 264.315985 
L 369.367273 266.41879 
L 370.568078 269.807671 
L 371.926882 272.49855 
L 373.096086 276.555346 
L 374.328491 280.07844 
L 375.497695 277.286666 
L 376.698499 275.692886 
L 377.994104 273.576976 
L 379.226508 272.519448 
L 380.490512 270.633895 
L 382.892121 265.534237 
L 384.124525 267.462701 
L 385.325329 270.132887 
L 386.399733 272.841465 
L 387.726938 270.751075 
L 388.990942 271.218049 
L 391.424151 272.574141 
L 392.561755 272.535324 
L 393.952159 269.656457 
L 395.405765 269.688428 
L 396.796169 270.607993 
L 398.060174 271.180585 
L 399.324178 268.778688 
L 400.493382 269.698352 
L 401.757387 269.312208 
L 402.894991 269.794404 
L 404.127395 269.01665 
L 405.4546 267.482242 
L 406.687004 264.089265 
L 407.793008 265.942426 
L 409.120213 266.969922 
L 410.226216 266.739078 
L 411.521821 265.989064 
L 412.849026 268.469488 
L 414.01823 268.544406 
L 415.124234 271.330918 
L 416.483038 271.451899 
L 417.589042 268.649743 
L 418.916247 267.439004 
L 420.148651 268.440918 
L 421.412656 266.980562 
L 423.845864 262.818708 
L 425.173069 260.300175 
L 426.026272 257.611878 
L 426.026272 257.611878 
" clip-path="url(#p735f301790)" style="fill: none; stroke: #0033ff; stroke-width: 2.5; stroke-linecap: square"/>
   </g>
   <g id="line2d_19">
    <path d="M 56.115376 282.709619 
L 56.178576 277.811503 
L 56.273377 276.152305 
L 56.778979 277.79799 
L 58.295784 277.626663 
L 60.476191 276.738061 
L 64.710606 281.136993 
L 66.353812 281.766371 
L 67.681017 281.909707 
L 68.818621 282.57101 
L 69.924625 282.721568 
L 71.125429 282.120338 
L 72.326233 281.052777 
L 73.558637 279.445375 
L 74.759441 278.821285 
L 76.023446 278.863068 
L 77.28745 278.379946 
L 78.519855 277.31913 
L 79.689059 277.367109 
L 80.921463 279.195637 
L 82.185468 279.782793 
L 83.386272 279.145467 
L 84.745076 277.077986 
L 86.072281 277.096961 
L 87.462686 276.798046 
L 88.72669 276.809624 
L 89.990695 277.478999 
L 91.254699 277.015139 
L 92.455503 276.237272 
L 93.687908 276.777001 
L 94.920312 275.629469 
L 96.184317 274.943858 
L 97.416721 274.599328 
L 98.680725 274.872937 
L 99.881529 275.632291 
L 103.578742 278.711084 
L 104.842747 279.273533 
L 106.075151 278.47524 
L 107.275955 277.994129 
L 108.445159 277.28317 
L 109.772364 275.839543 
L 111.004768 275.072646 
L 112.173973 275.217197 
L 113.406377 274.669698 
L 114.607181 275.41713 
L 115.934386 276.722529 
L 117.13519 278.591658 
L 118.399194 278.906498 
L 119.631599 280.145083 
L 120.832403 280.315476 
L 122.001607 279.329771 
L 123.297211 279.076434 
L 124.466416 278.026243 
L 125.69882 278.132371 
L 127.026025 278.934236 
L 129.554033 279.308309 
L 130.818038 277.474541 
L 131.987242 278.584702 
L 133.219646 278.889329 
L 134.452051 279.815575 
L 135.716055 280.042231 
L 136.980059 280.663449 
L 138.212464 280.728175 
L 139.444868 279.219929 
L 140.677272 279.764225 
L 141.878077 278.153484 
L 143.078881 277.401638 
L 144.342885 278.666157 
L 145.512089 279.092391 
L 148.103298 280.535479 
L 149.304103 279.555408 
L 150.568107 277.164815 
L 151.768911 274.27154 
L 153.032916 274.820549 
L 154.26532 274.273881 
L 155.497724 274.757638 
L 156.666928 274.478408 
L 157.867733 272.859196 
L 159.163337 274.542921 
L 160.427342 276.719638 
L 162.79735 280.254384 
L 165.293759 285.043242 
L 166.557763 284.427717 
L 167.695367 282.436354 
L 168.990972 280.835142 
L 170.191776 278.216315 
L 171.45578 278.907894 
L 172.688184 276.658213 
L 173.888989 277.50493 
L 175.121393 276.669902 
L 176.416998 276.339651 
L 177.681002 274.371724 
L 178.881806 270.881206 
L 180.08261 267.863627 
L 181.315015 267.327323 
L 182.579019 267.807714 
L 183.843024 268.119505 
L 184.980628 268.727378 
L 186.181432 271.067794 
L 187.477036 271.63394 
L 188.709441 270.76888 
L 189.878645 271.454302 
L 191.205849 271.264712 
L 192.406654 267.48032 
L 193.702258 265.515915 
L 194.871462 265.17228 
L 196.103866 263.230343 
L 197.304671 263.565977 
L 198.600275 261.719639 
L 199.83268 261.347943 
L 201.065084 263.016822 
L 202.297488 265.839234 
L 203.529893 267.688411 
L 204.730697 268.032008 
L 205.994701 270.816221 
L 207.227105 272.898569 
L 208.45951 274.472148 
L 209.660314 274.48422 
L 210.829518 272.950288 
L 212.061922 269.027933 
L 213.325927 267.238695 
L 214.558331 264.721412 
L 215.790735 262.905296 
L 217.02314 263.181616 
L 218.255544 265.106831 
L 219.456348 264.743799 
L 220.688753 264.898509 
L 221.921157 264.794914 
L 223.185161 265.244636 
L 224.417566 262.278356 
L 225.61837 262.691325 
L 226.850774 264.155583 
L 228.083178 265.936113 
L 229.315583 265.196077 
L 230.516387 264.683776 
L 231.748791 263.218589 
L 232.981196 262.549832 
L 234.182 260.583995 
L 235.446004 257.939694 
L 236.678409 256.702357 
L 237.847613 255.255421 
L 240.344021 255.712187 
L 241.608026 253.755023 
L 242.84043 254.504004 
L 244.041234 257.001905 
L 245.273639 256.657397 
L 246.506043 255.08851 
L 247.738447 254.248276 
L 248.970852 254.579424 
L 250.203256 252.160343 
L 251.46726 251.580579 
L 252.668065 251.86622 
L 253.868869 252.03688 
L 255.132873 251.799674 
L 256.333677 252.958475 
L 257.566082 250.56185 
L 258.830086 249.386312 
L 260.094091 248.90835 
L 261.294895 248.016593 
L 262.495699 249.033629 
L 263.759703 251.356885 
L 264.992108 254.374277 
L 266.192912 253.778325 
L 267.456916 255.155163 
L 268.752521 256.759445 
L 269.984925 256.945188 
L 271.21733 254.970281 
L 273.682138 254.18109 
L 274.946143 253.697169 
L 276.178547 254.995287 
L 277.379351 254.24082 
L 278.611755 251.810024 
L 279.84416 253.074569 
L 281.044964 254.987081 
L 282.277368 258.375649 
L 283.541373 259.19543 
L 284.742177 261.964067 
L 286.006181 261.848028 
L 287.238586 259.054926 
L 288.47099 260.578217 
L 289.703394 259.166754 
L 290.872598 259.858762 
L 292.136603 258.502052 
L 293.400607 258.019946 
L 294.569811 258.597821 
L 295.865416 257.668273 
L 298.298624 254.550753 
L 299.499429 252.609239 
L 300.731833 254.297789 
L 301.932637 255.327184 
L 303.165041 258.103336 
L 304.397446 259.004404 
L 305.62985 260.888382 
L 306.893855 261.804147 
L 309.295463 258.450716 
L 310.559467 259.221405 
L 311.791872 256.171915 
L 314.22508 259.019853 
L 315.425884 261.021029 
L 316.626689 262.38795 
L 317.922293 265.105559 
L 319.123097 263.26241 
L 320.292301 261.840881 
L 321.556306 261.936363 
L 322.72551 261.813176 
L 324.021115 258.503987 
L 325.253519 260.439327 
L 326.485923 258.01955 
L 327.655127 254.313445 
L 328.950732 251.860792 
L 330.214736 251.119448 
L 331.668341 247.948967 
L 333.027146 247.573635 
L 334.322751 252.127839 
L 335.555155 252.410946 
L 336.819159 254.593085 
L 338.051564 255.211586 
L 340.421572 249.386115 
L 341.748777 248.346057 
L 342.949581 246.057053 
L 344.118785 242.982725 
L 345.44599 244.549071 
L 346.615194 249.217363 
L 349.048402 257.7409 
L 350.217606 257.490389 
L 351.513211 257.826633 
L 352.714015 258.567088 
L 353.946419 260.840664 
L 356.442828 254.326131 
L 357.643632 253.569677 
L 358.907637 253.639023 
L 360.108441 253.519507 
L 361.340845 253.945795 
L 362.510049 253.577702 
L 363.805654 256.158775 
L 365.069658 260.434551 
L 366.238862 261.074079 
L 367.502867 258.910058 
L 368.766871 257.988506 
L 369.904475 258.409713 
L 371.16848 259.036061 
L 372.495684 259.512397 
L 373.570088 263.796429 
L 374.960493 266.056593 
L 376.066497 268.623828 
L 377.267301 270.186129 
L 378.562906 266.303136 
L 379.76371 265.989521 
L 380.964514 265.082108 
L 382.260118 266.767359 
L 383.397722 267.919754 
L 384.598527 270.407431 
L 385.925731 272.860479 
L 387.031735 274.030671 
L 388.32734 273.209591 
L 389.591344 274.444282 
L 390.728948 273.230506 
L 391.992953 275.77757 
L 393.193757 276.425432 
L 394.647362 277.516702 
L 396.100967 276.536449 
L 397.270171 277.521693 
L 398.502575 276.627876 
L 399.82978 273.340987 
L 401.125385 271.191527 
L 402.326189 271.555984 
L 403.590193 270.983003 
L 404.759397 272.649018 
L 407.129406 274.164949 
L 408.45661 272.675767 
L 409.594214 272.838987 
L 410.984619 271.53386 
L 411.995823 270.403614 
L 413.291427 271.54563 
L 414.618632 270.360393 
L 415.693036 268.922718 
L 417.178241 270.63117 
L 418.221044 271.591835 
L 419.548249 270.650964 
L 420.717453 269.510592 
L 421.886657 267.754953 
L 423.119062 265.323709 
L 424.446266 262.156523 
L 425.58387 258.193059 
L 425.58387 258.193059 
" clip-path="url(#p735f301790)" style="fill: none; stroke: #ff7f0e; stroke-width: 2.5; stroke-linecap: square"/>
   </g>
   <g id="line2d_20">
    <path d="M 66.227412 282.278829 
L 66.164211 272.697301 
L 66.227412 274.991106 
L 66.827814 275.432308 
L 68.407819 277.769361 
L 70.651427 277.869097 
L 72.926635 277.443747 
L 74.917442 279.723426 
L 76.465847 280.298688 
L 77.729852 280.285103 
L 78.930656 280.824336 
L 80.00506 279.928459 
L 81.237464 281.545734 
L 82.375068 281.465448 
L 83.639073 281.261293 
L 84.966277 280.66095 
L 86.261882 278.624951 
L 87.589086 277.903981 
L 88.884691 276.980782 
L 90.148695 277.394901 
L 91.4443 278.798736 
L 92.613504 279.039449 
L 93.877508 280.818697 
L 95.078313 280.249242 
L 96.342317 281.971906 
L 97.606322 283.089502 
L 98.838726 281.249043 
L 100.00793 279.993961 
L 101.240334 280.349749 
L 102.504339 280.042406 
L 103.799943 279.506641 
L 105.063948 280.213041 
L 106.201552 280.103033 
L 107.528756 279.601875 
L 108.761161 281.541933 
L 109.993565 281.535378 
L 111.225969 280.954683 
L 112.395173 280.102532 
L 113.627578 278.611059 
L 114.923182 276.433885 
L 116.123986 276.104348 
L 117.387991 277.281521 
L 118.588795 277.79874 
L 119.852799 277.290067 
L 121.053604 278.813355 
L 122.254408 281.309599 
L 123.518412 282.272358 
L 124.750817 282.460773 
L 126.014821 279.93034 
L 127.310426 280.412635 
L 128.57443 281.844838 
L 129.838434 281.044079 
L 130.976038 279.790622 
L 132.240043 278.113119 
L 133.472447 278.424641 
L 134.704851 279.44583 
L 135.905656 279.60546 
L 137.16966 279.285208 
L 138.402064 278.774631 
L 139.634469 280.243011 
L 140.835273 280.073141 
L 143.331682 277.247607 
L 144.595686 277.603648 
L 145.82809 277.28942 
L 147.060495 276.773586 
L 149.525303 277.902544 
L 150.789308 278.961408 
L 152.021712 279.020629 
L 153.254116 278.661295 
L 154.486521 279.220489 
L 155.655725 279.338867 
L 156.919729 279.79909 
L 158.152134 280.747447 
L 159.416138 278.766464 
L 163.081751 273.967924 
L 164.314155 273.231316 
L 165.514959 274.260655 
L 166.778964 275.712883 
L 168.042968 276.310982 
L 169.338573 275.983989 
L 170.507777 277.639653 
L 171.708581 276.29708 
L 172.940985 273.003806 
L 174.20499 271.000746 
L 175.468994 271.14093 
L 176.732999 270.426312 
L 177.902203 268.812874 
L 179.134607 267.555884 
L 180.335411 263.823088 
L 181.631016 262.5342 
L 184.127425 259.363699 
L 185.296629 255.050074 
L 186.529033 254.251737 
L 187.761437 253.210628 
L 188.962241 250.850375 
L 190.226246 249.443315 
L 191.45865 250.468009 
L 192.659454 249.464256 
L 193.891859 246.037361 
L 195.124263 239.602344 
L 196.356667 235.478359 
L 200.08548 206.178057 
L 201.286285 201.604054 
L 202.518689 202.305883 
L 203.751093 200.822564 
L 204.983498 197.575323 
L 206.184302 185.630068 
L 207.448306 177.037563 
L 211.113919 144.333663 
L 212.346323 140.070261 
L 213.547128 139.280645 
L 214.811132 140.287122 
L 216.011936 133.857628 
L 217.275941 127.956182 
L 219.740749 112.431407 
L 220.973154 101.449225 
L 222.205558 91.962552 
L 223.406362 89.680379 
L 224.638766 90.4969 
L 225.839571 85.035049 
L 228.335979 74.95794 
L 229.568384 67.086742 
L 230.737588 58.821439 
L 231.969992 54.629892 
L 233.265597 45.745772 
L 234.403201 33.093759 
L 235.667205 35.477778 
L 236.899609 39.71844 
L 238.132014 39.014981 
L 239.332818 51.233002 
L 240.533622 54.194188 
L 241.734426 51.309591 
L 242.966831 55.871228 
L 244.294035 64.930063 
L 245.494839 67.760011 
L 246.727244 68.605437 
L 247.928048 79.979187 
L 249.192052 87.836491 
L 251.751661 120.123814 
L 252.952466 124.67453 
L 254.18487 136.520101 
L 255.417274 151.146304 
L 256.618078 158.804837 
L 257.818883 164.946011 
L 259.082887 166.716065 
L 260.346891 171.196862 
L 261.516096 167.231001 
L 262.7801 179.029683 
L 264.044104 181.059548 
L 265.181708 181.171911 
L 267.709717 191.94352 
L 268.973722 188.195501 
L 270.269326 191.055599 
L 271.47013 189.339428 
L 272.734135 192.117216 
L 273.934939 195.207888 
L 275.198944 207.298942 
L 276.462948 212.693663 
L 277.632152 214.309192 
L 278.896156 220.977408 
L 280.065361 225.182103 
L 281.360965 224.471465 
L 282.530169 228.701869 
L 283.762574 223.932651 
L 285.058178 226.338904 
L 286.290582 226.246708 
L 287.459786 227.38859 
L 288.755391 225.044612 
L 289.987795 224.456227 
L 291.1886 222.831775 
L 292.389404 222.368561 
L 293.590208 217.038616 
L 294.854212 215.740999 
L 296.055017 216.005027 
L 297.319021 216.65084 
L 298.551425 216.961933 
L 299.75223 218.342365 
L 301.016234 218.794777 
L 302.217038 221.036332 
L 303.481043 221.316845 
L 304.681847 219.746884 
L 305.882651 215.840387 
L 307.083455 214.818217 
L 308.37906 215.205987 
L 309.548264 212.508037 
L 310.812268 213.422114 
L 314.446281 202.015782 
L 315.678685 199.182739 
L 316.97429 193.783079 
L 318.143494 197.226348 
L 319.407498 194.813943 
L 321.840707 198.731692 
L 323.104711 201.102283 
L 324.305516 196.491826 
L 325.50632 194.417098 
L 326.738724 195.19187 
L 327.971128 194.477235 
L 329.140332 196.048975 
L 330.435937 196.950909 
L 331.984342 190.35595 
L 333.216747 187.693475 
L 334.575551 182.924178 
L 335.807956 184.842558 
L 337.04036 181.222974 
L 338.272764 186.725063 
L 339.536769 189.18214 
L 340.674373 195.695588 
L 341.969977 201.948842 
L 343.170782 202.65434 
L 344.339986 203.925454 
L 345.63559 201.051481 
L 346.867995 200.959792 
L 348.100399 205.882345 
L 349.332803 205.588326 
L 350.470407 207.997007 
L 351.766012 205.003859 
L 353.061616 213.816502 
L 354.16762 216.437476 
L 355.463225 217.454335 
L 356.664029 220.894517 
L 357.928033 216.249849 
L 359.160438 220.357692 
L 360.392842 218.580666 
L 361.656846 221.494275 
L 362.79445 223.232256 
L 364.026855 223.51455 
L 365.259259 230.181705 
L 366.554863 233.525818 
L 367.882068 236.513284 
L 368.988072 238.453363 
L 370.157276 239.019559 
L 371.421281 240.821314 
L 372.685285 238.54807 
L 373.917689 242.492244 
L 375.086893 242.714877 
L 376.382498 239.954952 
L 377.520102 241.239404 
L 378.720906 243.883081 
L 379.95331 246.886828 
L 381.185715 247.836249 
L 383.682123 253.360751 
L 384.851328 255.329683 
L 386.115332 255.527986 
L 387.442537 254.301229 
L 388.580141 252.401241 
L 389.780945 255.063536 
L 391.013349 258.74579 
L 392.340554 259.399082 
L 393.541358 260.761846 
L 394.963363 262.90493 
L 396.353768 263.691908 
L 397.649372 263.024698 
L 398.881777 259.573147 
L 400.019381 258.549619 
L 401.409786 256.584942 
L 402.54739 256.667259 
L 403.748194 255.641115 
L 404.917398 253.917983 
L 406.307803 255.41938 
L 407.540207 260.881908 
L 408.709411 259.962828 
L 409.847015 260.675974 
L 411.14262 260.560127 
L 412.438224 261.807884 
L 413.639028 262.497929 
L 414.871433 258.427057 
L 416.103837 255.852169 
L 417.241441 251.134442 
L 418.631846 250.923746 
L 419.80105 253.236546 
L 420.970254 250.512422 
L 422.234258 248.724774 
L 423.403463 248.946511 
L 424.762267 252.250541 
L 425.741871 259.709771 
L 425.741871 259.709771 
" clip-path="url(#p735f301790)" style="fill: none; stroke: #ff0000; stroke-width: 2.5; stroke-linecap: square"/>
   </g>
   <g id="patch_3">
    <path d="M 47.298945 299.822656 
L 47.298945 20.392383 
" style="fill: none; stroke: #000000; stroke-width: 1.5; stroke-linejoin: miter; stroke-linecap: square"/>
   </g>
   <g id="patch_4">
    <path d="M 47.298945 299.822656 
L 426.500273 299.822656 
" style="fill: none; stroke: #000000; stroke-width: 1.5; stroke-linejoin: miter; stroke-linecap: square"/>
   </g>
   <g id="legend_1">
    <g id="line2d_21">
     <path d="M 58.098945 35.728711 
L 70.098945 35.728711 
L 82.098945 35.728711 
" style="fill: none; stroke: #000000; stroke-width: 2.5; stroke-linecap: square"/>
    </g>
    <g id="text_19">
     <!-- vacuum -->
     <g transform="translate(91.698945 39.928711) scale(0.12 -0.12)">
      <defs>
       <path id="ArialMT-59" d="M 1344 0 
L 81 3319 
L 675 3319 
L 1388 1331 
Q 1503 1009 1600 663 
Q 1675 925 1809 1294 
L 2547 3319 
L 3125 3319 
L 1869 0 
L 1344 0 
z
" transform="scale(0.015625)"/>
       <path id="ArialMT-46" d="M 2588 1216 
L 3141 1144 
Q 3050 572 2676 248 
Q 2303 -75 1759 -75 
Q 1078 -75 664 370 
Q 250 816 250 1647 
Q 250 2184 428 2587 
Q 606 2991 970 3192 
Q 1334 3394 1763 3394 
Q 2303 3394 2647 3120 
Q 2991 2847 3088 2344 
L 2541 2259 
Q 2463 2594 2264 2762 
Q 2066 2931 1784 2931 
Q 1359 2931 1093 2626 
Q 828 2322 828 1663 
Q 828 994 1084 691 
Q 1341 388 1753 388 
Q 2084 388 2306 591 
Q 2528 794 2588 1216 
z
" transform="scale(0.015625)"/>
      </defs>
      <use xlink:href="#ArialMT-59"/>
      <use xlink:href="#ArialMT-44" transform="translate(50 0)"/>
      <use xlink:href="#ArialMT-46" transform="translate(105.609375 0)"/>
      <use xlink:href="#ArialMT-58" transform="translate(155.609375 0)"/>
      <use xlink:href="#ArialMT-58" transform="translate(211.21875 0)"/>
      <use xlink:href="#ArialMT-50" transform="translate(266.828125 0)"/>
     </g>
    </g>
    <g id="line2d_22">
     <path d="M 58.098945 52.99043 
L 70.098945 52.99043 
L 82.098945 52.99043 
" style="fill: none; stroke: #1f77b4; stroke-width: 2.5; stroke-linecap: square"/>
    </g>
    <g id="text_20">
     <!-- 1h -->
     <g transform="translate(91.698945 57.19043) scale(0.12 -0.12)">
      <defs>
       <path id="ArialMT-4b" d="M 422 0 
L 422 4581 
L 984 4581 
L 984 2938 
Q 1378 3394 1978 3394 
Q 2347 3394 2619 3248 
Q 2891 3103 3008 2847 
Q 3125 2591 3125 2103 
L 3125 0 
L 2563 0 
L 2563 2103 
Q 2563 2525 2380 2717 
Q 2197 2909 1863 2909 
Q 1613 2909 1392 2779 
Q 1172 2650 1078 2428 
Q 984 2206 984 1816 
L 984 0 
L 422 0 
z
" transform="scale(0.015625)"/>
      </defs>
      <use xlink:href="#ArialMT-14"/>
      <use xlink:href="#ArialMT-4b" transform="translate(55.609375 0)"/>
     </g>
    </g>
    <g id="line2d_23">
     <path d="M 58.098945 70.252148 
L 70.098945 70.252148 
L 82.098945 70.252148 
" style="fill: none; stroke: #0033ff; stroke-width: 2.5; stroke-linecap: square"/>
    </g>
    <g id="text_21">
     <!-- 2h -->
     <g transform="translate(91.698945 74.452148) scale(0.12 -0.12)">
      <use xlink:href="#ArialMT-15"/>
      <use xlink:href="#ArialMT-4b" transform="translate(55.609375 0)"/>
     </g>
    </g>
    <g id="line2d_24">
     <path d="M 58.098945 87.513867 
L 70.098945 87.513867 
L 82.098945 87.513867 
" style="fill: none; stroke: #ff7f0e; stroke-width: 2.5; stroke-linecap: square"/>
    </g>
    <g id="text_22">
     <!-- 4h -->
     <g transform="translate(91.698945 91.713867) scale(0.12 -0.12)">
      <use xlink:href="#ArialMT-17"/>
      <use xlink:href="#ArialMT-4b" transform="translate(55.609375 0)"/>
     </g>
    </g>
    <g id="line2d_25">
     <path d="M 58.098945 104.775586 
L 70.098945 104.775586 
L 82.098945 104.775586 
" style="fill: none; stroke: #ff0000; stroke-width: 2.5; stroke-linecap: square"/>
    </g>
    <g id="text_23">
     <!-- first -->
     <g transform="translate(91.698945 108.975586) scale(0.12 -0.12)">
      <defs>
       <path id="ArialMT-49" d="M 556 0 
L 556 2881 
L 59 2881 
L 59 3319 
L 556 3319 
L 556 3672 
Q 556 4006 616 4169 
Q 697 4388 901 4523 
Q 1106 4659 1475 4659 
Q 1713 4659 2000 4603 
L 1916 4113 
Q 1741 4144 1584 4144 
Q 1328 4144 1222 4034 
Q 1116 3925 1116 3625 
L 1116 3319 
L 1763 3319 
L 1763 2881 
L 1116 2881 
L 1116 0 
L 556 0 
z
" transform="scale(0.015625)"/>
       <path id="ArialMT-4c" d="M 425 3934 
L 425 4581 
L 988 4581 
L 988 3934 
L 425 3934 
z
M 425 0 
L 425 3319 
L 988 3319 
L 988 0 
L 425 0 
z
" transform="scale(0.015625)"/>
       <path id="ArialMT-56" d="M 197 991 
L 753 1078 
Q 800 744 1014 566 
Q 1228 388 1613 388 
Q 2000 388 2187 545 
Q 2375 703 2375 916 
Q 2375 1106 2209 1216 
Q 2094 1291 1634 1406 
Q 1016 1563 777 1677 
Q 538 1791 414 1992 
Q 291 2194 291 2438 
Q 291 2659 392 2848 
Q 494 3038 669 3163 
Q 800 3259 1026 3326 
Q 1253 3394 1513 3394 
Q 1903 3394 2198 3281 
Q 2494 3169 2634 2976 
Q 2775 2784 2828 2463 
L 2278 2388 
Q 2241 2644 2061 2787 
Q 1881 2931 1553 2931 
Q 1166 2931 1000 2803 
Q 834 2675 834 2503 
Q 834 2394 903 2306 
Q 972 2216 1119 2156 
Q 1203 2125 1616 2013 
Q 2213 1853 2448 1751 
Q 2684 1650 2818 1456 
Q 2953 1263 2953 975 
Q 2953 694 2789 445 
Q 2625 197 2315 61 
Q 2006 -75 1616 -75 
Q 969 -75 630 194 
Q 291 463 197 991 
z
" transform="scale(0.015625)"/>
      </defs>
      <use xlink:href="#ArialMT-49"/>
      <use xlink:href="#ArialMT-4c" transform="translate(27.78125 0)"/>
      <use xlink:href="#ArialMT-55" transform="translate(50 0)"/>
      <use xlink:href="#ArialMT-56" transform="translate(83.296875 0)"/>
      <use xlink:href="#ArialMT-57" transform="translate(133.296875 0)"/>
     </g>
    </g>
   </g>
  </g>
 </g>
 <defs>
  <clipPath id="p735f301790">
   <rect x="47.298945" y="20.392383" width="379.201328" height="279.430273"/>
  </clipPath>
 </defs>
</svg>
