<?xml version="1.0" encoding="utf-8" standalone="no"?>
<!DOCTYPE svg PUBLIC "-//W3C//DTD SVG 1.1//EN"
  "http://www.w3.org/Graphics/SVG/1.1/DTD/svg11.dtd">
<svg xmlns:xlink="http://www.w3.org/1999/xlink" width="449.133086pt" height="340.800273pt" viewBox="0 0 449.133086 340.800273" xmlns="http://www.w3.org/2000/svg" version="1.1">
 <metadata>
  <rdf:RDF xmlns:dc="http://purl.org/dc/elements/1.1/" xmlns:cc="http://creativecommons.org/ns#" xmlns:rdf="http://www.w3.org/1999/02/22-rdf-syntax-ns#">
   <cc:Work>
    <dc:type rdf:resource="http://purl.org/dc/dcmitype/StillImage"/>
    <dc:date>2026-07-09T17:08:25.215286</dc:date>
    <dc:format>image/svg+xml</dc:format>
    <dc:creator>
     <cc:Agent>
      <dc:title>Matplotlib v3.11.0, https://matplotlib.org/</dc:title>
     </cc:Agent>
    </dc:creator>
   </cc:Work>
  </rdf:RDF>
 </metadata>
 <defs>
  <style type="text/css">*{stroke-linejoin: round; stroke-linecap: butt}</style>
 </defs>
 <g id="figure_1">
  <g id="patch_1">
   <path d="M 0 340.800273 
L 449.133086 340.800273 
L 449.133086 0 
L 0 0 
z
" style="fill: #ffffff"/>
  </g>
  <g id="axes_1">
   <g id="patch_2">
    <path d="M 43.801133 299.822656 
L 426.362461 299.822656 
L 426.362461 20.392383 
L 43.801133 20.392383 
z
" style="fill: #ffffff"/>
   </g>
   <g id="matplotlib.axis_1">
    <g id="xtick_1">
     <g id="line2d_1">
      <defs>
       <path id="ma3947c03b6" d="M 0 0 
L 0 -6 
" style="stroke: #000000; stroke-width: 1.5"/>
      </defs>
      <g>
       <use xlink:href="#ma3947c03b6" x="43.801133" y="299.822656" style="stroke: #000000; stroke-width: 1.5"/>
      </g>
     </g>
     <g id="text_1">
      <!-- 0 -->
      <g transform="translate(39.908477 313.515039) scale(0.14 -0.14)">
       <defs>
        <path id="ArialMT-13" d="M 266 2259 
Q 266 3072 433 3567 
Q 600 4063 929 4331 
Q 1259 4600 1759 4600 
Q 2128 4600 2406 4451 
Q 2684 4303 2865 4023 
Q 3047 3744 3150 3342 
Q 3253 2941 3253 2259 
Q 3253 1453 3087 958 
Q 2922 463 2592 192 
Q 2263 -78 1759 -78 
Q 1097 -78 719 397 
Q 266 969 266 2259 
z
M 844 2259 
Q 844 1131 1108 757 
Q 1372 384 1759 384 
Q 2147 384 2411 759 
Q 2675 1134 2675 2259 
Q 2675 3391 2411 3762 
Q 2147 4134 1753 4134 
Q 1366 4134 1134 3806 
Q 844 3388 844 2259 
z
" transform="scale(0.015625)"/>
       </defs>
       <use xlink:href="#ArialMT-13"/>
      </g>
     </g>
    </g>
    <g id="xtick_2">
     <g id="line2d_2">
      <g>
       <use xlink:href="#ma3947c03b6" x="107.561354" y="299.822656" style="stroke: #000000; stroke-width: 1.5"/>
      </g>
     </g>
     <g id="text_2">
      <!-- 200 -->
      <g transform="translate(95.883385 313.515039) scale(0.14 -0.14)">
       <defs>
        <path id="ArialMT-15" d="M 3222 541 
L 3222 0 
L 194 0 
Q 188 203 259 391 
Q 375 700 629 1000 
Q 884 1300 1366 1694 
Q 2113 2306 2375 2664 
Q 2638 3022 2638 3341 
Q 2638 3675 2398 3904 
Q 2159 4134 1775 4134 
Q 1369 4134 1125 3890 
Q 881 3647 878 3216 
L 300 3275 
Q 359 3922 746 4261 
Q 1134 4600 1788 4600 
Q 2447 4600 2831 4234 
Q 3216 3869 3216 3328 
Q 3216 3053 3103 2787 
Q 2991 2522 2730 2228 
Q 2469 1934 1863 1422 
Q 1356 997 1212 845 
Q 1069 694 975 541 
L 3222 541 
z
" transform="scale(0.015625)"/>
       </defs>
       <use xlink:href="#ArialMT-15"/>
       <use xlink:href="#ArialMT-13" transform="translate(55.609375 0)"/>
       <use xlink:href="#ArialMT-13" transform="translate(111.21875 0)"/>
      </g>
     </g>
    </g>
    <g id="xtick_3">
     <g id="line2d_3">
      <g>
       <use xlink:href="#ma3947c03b6" x="171.321576" y="299.822656" style="stroke: #000000; stroke-width: 1.5"/>
      </g>
     </g>
     <g id="text_3">
      <!-- 400 -->
      <g transform="translate(159.643607 313.515039) scale(0.14 -0.14)">
       <defs>
        <path id="ArialMT-17" d="M 2069 0 
L 2069 1097 
L 81 1097 
L 81 1613 
L 2172 4581 
L 2631 4581 
L 2631 1613 
L 3250 1613 
L 3250 1097 
L 2631 1097 
L 2631 0 
L 2069 0 
z
M 2069 1613 
L 2069 3678 
L 634 1613 
L 2069 1613 
z
" transform="scale(0.015625)"/>
       </defs>
       <use xlink:href="#ArialMT-17"/>
       <use xlink:href="#ArialMT-13" transform="translate(55.609375 0)"/>
       <use xlink:href="#ArialMT-13" transform="translate(111.21875 0)"/>
      </g>
     </g>
    </g>
    <g id="xtick_4">
     <g id="line2d_4">
      <g>
       <use xlink:href="#ma3947c03b6" x="235.081797" y="299.822656" style="stroke: #000000; stroke-width: 1.5"/>
      </g>
     </g>
     <g id="text_4">
      <!-- 600 -->
      <g transform="translate(223.403828 313.515039) scale(0.14 -0.14)">
       <defs>
        <path id="ArialMT-19" d="M 3184 3459 
L 2625 3416 
Q 2550 3747 2413 3897 
Q 2184 4138 1850 4138 
Q 1581 4138 1378 3988 
Q 1113 3794 959 3422 
Q 806 3050 800 2363 
Q 1003 2672 1297 2822 
Q 1591 2972 1913 2972 
Q 2475 2972 2870 2558 
Q 3266 2144 3266 1488 
Q 3266 1056 3080 686 
Q 2894 316 2569 119 
Q 2244 -78 1831 -78 
Q 1128 -78 684 439 
Q 241 956 241 2144 
Q 241 3472 731 4075 
Q 1159 4600 1884 4600 
Q 2425 4600 2770 4297 
Q 3116 3994 3184 3459 
z
M 888 1484 
Q 888 1194 1011 928 
Q 1134 663 1356 523 
Q 1578 384 1822 384 
Q 2178 384 2434 671 
Q 2691 959 2691 1453 
Q 2691 1928 2437 2201 
Q 2184 2475 1800 2475 
Q 1419 2475 1153 2201 
Q 888 1928 888 1484 
z
" transform="scale(0.015625)"/>
       </defs>
       <use xlink:href="#ArialMT-19"/>
       <use xlink:href="#ArialMT-13" transform="translate(55.609375 0)"/>
       <use xlink:href="#ArialMT-13" transform="translate(111.21875 0)"/>
      </g>
     </g>
    </g>
    <g id="xtick_5">
     <g id="line2d_5">
      <g>
       <use xlink:href="#ma3947c03b6" x="298.842018" y="299.822656" style="stroke: #000000; stroke-width: 1.5"/>
      </g>
     </g>
     <g id="text_5">
      <!-- 800 -->
      <g transform="translate(287.164049 313.515039) scale(0.14 -0.14)">
       <defs>
        <path id="ArialMT-1b" d="M 1131 2484 
Q 781 2613 612 2850 
Q 444 3088 444 3419 
Q 444 3919 803 4259 
Q 1163 4600 1759 4600 
Q 2359 4600 2725 4251 
Q 3091 3903 3091 3403 
Q 3091 3084 2923 2848 
Q 2756 2613 2416 2484 
Q 2838 2347 3058 2040 
Q 3278 1734 3278 1309 
Q 3278 722 2862 322 
Q 2447 -78 1769 -78 
Q 1091 -78 675 323 
Q 259 725 259 1325 
Q 259 1772 486 2073 
Q 713 2375 1131 2484 
z
M 1019 3438 
Q 1019 3113 1228 2906 
Q 1438 2700 1772 2700 
Q 2097 2700 2305 2904 
Q 2513 3109 2513 3406 
Q 2513 3716 2298 3927 
Q 2084 4138 1766 4138 
Q 1444 4138 1231 3931 
Q 1019 3725 1019 3438 
z
M 838 1322 
Q 838 1081 952 856 
Q 1066 631 1291 507 
Q 1516 384 1775 384 
Q 2178 384 2440 643 
Q 2703 903 2703 1303 
Q 2703 1709 2433 1975 
Q 2163 2241 1756 2241 
Q 1359 2241 1098 1978 
Q 838 1716 838 1322 
z
" transform="scale(0.015625)"/>
       </defs>
       <use xlink:href="#ArialMT-1b"/>
       <use xlink:href="#ArialMT-13" transform="translate(55.609375 0)"/>
       <use xlink:href="#ArialMT-13" transform="translate(111.21875 0)"/>
      </g>
     </g>
    </g>
    <g id="xtick_6">
     <g id="line2d_6">
      <g>
       <use xlink:href="#ma3947c03b6" x="362.60224" y="299.822656" style="stroke: #000000; stroke-width: 1.5"/>
      </g>
     </g>
     <g id="text_6">
      <!-- 1000 -->
      <g transform="translate(347.031615 313.515039) scale(0.14 -0.14)">
       <defs>
        <path id="ArialMT-14" d="M 2384 0 
L 1822 0 
L 1822 3584 
Q 1619 3391 1289 3197 
Q 959 3003 697 2906 
L 697 3450 
Q 1169 3672 1522 3987 
Q 1875 4303 2022 4600 
L 2384 4600 
L 2384 0 
z
" transform="scale(0.015625)"/>
       </defs>
       <use xlink:href="#ArialMT-14"/>
       <use xlink:href="#ArialMT-13" transform="translate(55.609375 0)"/>
       <use xlink:href="#ArialMT-13" transform="translate(111.21875 0)"/>
       <use xlink:href="#ArialMT-13" transform="translate(166.828125 0)"/>
      </g>
     </g>
    </g>
    <g id="xtick_7">
     <g id="line2d_7">
      <g>
       <use xlink:href="#ma3947c03b6" x="426.362461" y="299.822656" style="stroke: #000000; stroke-width: 1.5"/>
      </g>
     </g>
     <g id="text_7">
      <!-- 1200 -->
      <g transform="translate(410.791836 313.515039) scale(0.14 -0.14)">
       <use xlink:href="#ArialMT-14"/>
       <use xlink:href="#ArialMT-15" transform="translate(55.609375 0)"/>
       <use xlink:href="#ArialMT-13" transform="translate(111.21875 0)"/>
       <use xlink:href="#ArialMT-13" transform="translate(166.828125 0)"/>
      </g>
     </g>
    </g>
    <g id="text_8">
     <!-- T1 Temperature (°C) -->
     <g transform="translate(171.342422 330.653711) scale(0.14 -0.14)">
      <defs>
       <path id="ArialMT-37" d="M 1659 0 
L 1659 4041 
L 150 4041 
L 150 4581 
L 3781 4581 
L 3781 4041 
L 2266 4041 
L 2266 0 
L 1659 0 
z
" transform="scale(0.015625)"/>
       <path id="ArialMT-3" transform="scale(0.015625)"/>
       <path id="ArialMT-48" d="M 2694 1069 
L 3275 997 
Q 3138 488 2766 206 
Q 2394 -75 1816 -75 
Q 1088 -75 661 373 
Q 234 822 234 1631 
Q 234 2469 665 2931 
Q 1097 3394 1784 3394 
Q 2450 3394 2872 2941 
Q 3294 2488 3294 1666 
Q 3294 1616 3291 1516 
L 816 1516 
Q 847 969 1125 678 
Q 1403 388 1819 388 
Q 2128 388 2347 550 
Q 2566 713 2694 1069 
z
M 847 1978 
L 2700 1978 
Q 2663 2397 2488 2606 
Q 2219 2931 1791 2931 
Q 1403 2931 1139 2672 
Q 875 2413 847 1978 
z
" transform="scale(0.015625)"/>
       <path id="ArialMT-50" d="M 422 0 
L 422 3319 
L 925 3319 
L 925 2853 
Q 1081 3097 1340 3245 
Q 1600 3394 1931 3394 
Q 2300 3394 2536 3241 
Q 2772 3088 2869 2813 
Q 3263 3394 3894 3394 
Q 4388 3394 4653 3120 
Q 4919 2847 4919 2278 
L 4919 0 
L 4359 0 
L 4359 2091 
Q 4359 2428 4304 2576 
Q 4250 2725 4106 2815 
Q 3963 2906 3769 2906 
Q 3419 2906 3187 2673 
Q 2956 2441 2956 1928 
L 2956 0 
L 2394 0 
L 2394 2156 
Q 2394 2531 2256 2718 
Q 2119 2906 1806 2906 
Q 1569 2906 1367 2781 
Q 1166 2656 1075 2415 
Q 984 2175 984 1722 
L 984 0 
L 422 0 
z
" transform="scale(0.015625)"/>
       <path id="ArialMT-53" d="M 422 -1272 
L 422 3319 
L 934 3319 
L 934 2888 
Q 1116 3141 1344 3267 
Q 1572 3394 1897 3394 
Q 2322 3394 2647 3175 
Q 2972 2956 3137 2557 
Q 3303 2159 3303 1684 
Q 3303 1175 3120 767 
Q 2938 359 2589 142 
Q 2241 -75 1856 -75 
Q 1575 -75 1351 44 
Q 1128 163 984 344 
L 984 -1272 
L 422 -1272 
z
M 931 1641 
Q 931 1000 1190 694 
Q 1450 388 1819 388 
Q 2194 388 2461 705 
Q 2728 1022 2728 1688 
Q 2728 2322 2467 2637 
Q 2206 2953 1844 2953 
Q 1484 2953 1207 2617 
Q 931 2281 931 1641 
z
" transform="scale(0.015625)"/>
       <path id="ArialMT-55" d="M 416 0 
L 416 3319 
L 922 3319 
L 922 2816 
Q 1116 3169 1280 3281 
Q 1444 3394 1641 3394 
Q 1925 3394 2219 3213 
L 2025 2691 
Q 1819 2813 1613 2813 
Q 1428 2813 1281 2702 
Q 1134 2591 1072 2394 
Q 978 2094 978 1738 
L 978 0 
L 416 0 
z
" transform="scale(0.015625)"/>
       <path id="ArialMT-44" d="M 2588 409 
Q 2275 144 1986 34 
Q 1697 -75 1366 -75 
Q 819 -75 525 192 
Q 231 459 231 875 
Q 231 1119 342 1320 
Q 453 1522 633 1644 
Q 813 1766 1038 1828 
Q 1203 1872 1538 1913 
Q 2219 1994 2541 2106 
Q 2544 2222 2544 2253 
Q 2544 2597 2384 2738 
Q 2169 2928 1744 2928 
Q 1347 2928 1158 2789 
Q 969 2650 878 2297 
L 328 2372 
Q 403 2725 575 2942 
Q 747 3159 1072 3276 
Q 1397 3394 1825 3394 
Q 2250 3394 2515 3294 
Q 2781 3194 2906 3042 
Q 3031 2891 3081 2659 
Q 3109 2516 3109 2141 
L 3109 1391 
Q 3109 606 3145 398 
Q 3181 191 3288 0 
L 2700 0 
Q 2613 175 2588 409 
z
M 2541 1666 
Q 2234 1541 1622 1453 
Q 1275 1403 1131 1340 
Q 988 1278 909 1158 
Q 831 1038 831 891 
Q 831 666 1001 516 
Q 1172 366 1500 366 
Q 1825 366 2078 508 
Q 2331 650 2450 897 
Q 2541 1088 2541 1459 
L 2541 1666 
z
" transform="scale(0.015625)"/>
       <path id="ArialMT-57" d="M 1650 503 
L 1731 6 
Q 1494 -44 1306 -44 
Q 1000 -44 831 53 
Q 663 150 594 308 
Q 525 466 525 972 
L 525 2881 
L 113 2881 
L 113 3319 
L 525 3319 
L 525 4141 
L 1084 4478 
L 1084 3319 
L 1650 3319 
L 1650 2881 
L 1084 2881 
L 1084 941 
Q 1084 700 1114 631 
Q 1144 563 1211 522 
Q 1278 481 1403 481 
Q 1497 481 1650 503 
z
" transform="scale(0.015625)"/>
       <path id="ArialMT-58" d="M 2597 0 
L 2597 488 
Q 2209 -75 1544 -75 
Q 1250 -75 995 37 
Q 741 150 617 320 
Q 494 491 444 738 
Q 409 903 409 1263 
L 409 3319 
L 972 3319 
L 972 1478 
Q 972 1038 1006 884 
Q 1059 663 1231 536 
Q 1403 409 1656 409 
Q 1909 409 2131 539 
Q 2353 669 2445 892 
Q 2538 1116 2538 1541 
L 2538 3319 
L 3100 3319 
L 3100 0 
L 2597 0 
z
" transform="scale(0.015625)"/>
       <path id="ArialMT-b" d="M 1497 -1347 
Q 1031 -759 709 28 
Q 388 816 388 1659 
Q 388 2403 628 3084 
Q 909 3875 1497 4659 
L 1900 4659 
Q 1522 4009 1400 3731 
Q 1209 3300 1100 2831 
Q 966 2247 966 1656 
Q 966 153 1900 -1347 
L 1497 -1347 
z
" transform="scale(0.015625)"/>
       <path id="ArialMT-83" d="M 400 3794 
Q 400 4153 654 4406 
Q 909 4659 1266 4659 
Q 1628 4659 1881 4406 
Q 2134 4153 2134 3794 
Q 2134 3434 1879 3179 
Q 1625 2925 1266 2925 
Q 909 2925 654 3178 
Q 400 3431 400 3794 
z
M 741 3794 
Q 741 3575 895 3420 
Q 1050 3266 1269 3266 
Q 1484 3266 1639 3420 
Q 1794 3575 1794 3794 
Q 1794 4013 1639 4167 
Q 1484 4322 1269 4322 
Q 1050 4322 895 4167 
Q 741 4013 741 3794 
z
" transform="scale(0.015625)"/>
       <path id="ArialMT-26" d="M 3763 1606 
L 4369 1453 
Q 4178 706 3683 314 
Q 3188 -78 2472 -78 
Q 1731 -78 1267 223 
Q 803 525 561 1097 
Q 319 1669 319 2325 
Q 319 3041 592 3573 
Q 866 4106 1370 4382 
Q 1875 4659 2481 4659 
Q 3169 4659 3637 4309 
Q 4106 3959 4291 3325 
L 3694 3184 
Q 3534 3684 3231 3912 
Q 2928 4141 2469 4141 
Q 1941 4141 1586 3887 
Q 1231 3634 1087 3207 
Q 944 2781 944 2328 
Q 944 1744 1114 1308 
Q 1284 872 1643 656 
Q 2003 441 2422 441 
Q 2931 441 3284 734 
Q 3638 1028 3763 1606 
z
" transform="scale(0.015625)"/>
       <path id="ArialMT-c" d="M 791 -1347 
L 388 -1347 
Q 1322 153 1322 1656 
Q 1322 2244 1188 2822 
Q 1081 3291 891 3722 
Q 769 4003 388 4659 
L 791 4659 
Q 1378 3875 1659 3084 
Q 1900 2403 1900 1659 
Q 1900 816 1576 28 
Q 1253 -759 791 -1347 
z
" transform="scale(0.015625)"/>
      </defs>
      <use xlink:href="#ArialMT-37"/>
      <use xlink:href="#ArialMT-14" transform="translate(61.078125 0)"/>
      <use xlink:href="#ArialMT-3" transform="translate(116.6875 0)"/>
      <use xlink:href="#ArialMT-37" transform="translate(142.65625 0)"/>
      <use xlink:href="#ArialMT-48" transform="translate(192.65625 0)"/>
      <use xlink:href="#ArialMT-50" transform="translate(248.265625 0)"/>
      <use xlink:href="#ArialMT-53" transform="translate(331.5625 0)"/>
      <use xlink:href="#ArialMT-48" transform="translate(387.171875 0)"/>
      <use xlink:href="#ArialMT-55" transform="translate(442.78125 0)"/>
      <use xlink:href="#ArialMT-44" transform="translate(476.078125 0)"/>
      <use xlink:href="#ArialMT-57" transform="translate(531.6875 0)"/>
      <use xlink:href="#ArialMT-58" transform="translate(559.46875 0)"/>
      <use xlink:href="#ArialMT-55" transform="translate(615.078125 0)"/>
      <use xlink:href="#ArialMT-48" transform="translate(648.375 0)"/>
      <use xlink:href="#ArialMT-3" transform="translate(703.984375 0)"/>
      <use xlink:href="#ArialMT-b" transform="translate(731.765625 0)"/>
      <use xlink:href="#ArialMT-83" transform="translate(765.0625 0)"/>
      <use xlink:href="#ArialMT-26" transform="translate(805.046875 0)"/>
      <use xlink:href="#ArialMT-c" transform="translate(877.265625 0)"/>
     </g>
    </g>
   </g>
   <g id="matplotlib.axis_2">
    <g id="ytick_1">
     <g id="line2d_8">
      <defs>
       <path id="m40fdfad2fe" d="M 0 0 
L 6 0 
" style="stroke: #000000; stroke-width: 1.5"/>
      </defs>
      <g>
       <use xlink:href="#m40fdfad2fe" x="43.801133" y="286.632449" style="stroke: #000000; stroke-width: 1.5"/>
      </g>
     </g>
     <g id="text_9">
      <!-- −4 -->
      <g transform="translate(24.338945 291.728641) scale(0.14 -0.14)">
       <defs>
        <path id="ArialMT-ed" d="M 3381 1997 
L 356 1997 
L 356 2522 
L 3381 2522 
L 3381 1997 
z
" transform="scale(0.015625)"/>
       </defs>
       <use xlink:href="#ArialMT-ed"/>
       <use xlink:href="#ArialMT-17" transform="translate(58.40625 0)"/>
      </g>
     </g>
    </g>
    <g id="ytick_2">
     <g id="line2d_9">
      <g>
       <use xlink:href="#m40fdfad2fe" x="43.801133" y="241.6955" style="stroke: #000000; stroke-width: 1.5"/>
      </g>
     </g>
     <g id="text_10">
      <!-- −2 -->
      <g transform="translate(24.338945 246.791692) scale(0.14 -0.14)">
       <use xlink:href="#ArialMT-ed"/>
       <use xlink:href="#ArialMT-15" transform="translate(58.40625 0)"/>
      </g>
     </g>
    </g>
    <g id="ytick_3">
     <g id="line2d_10">
      <g>
       <use xlink:href="#m40fdfad2fe" x="43.801133" y="196.758551" style="stroke: #000000; stroke-width: 1.5"/>
      </g>
     </g>
     <g id="text_11">
      <!-- 0 -->
      <g transform="translate(32.51582 201.854743) scale(0.14 -0.14)">
       <use xlink:href="#ArialMT-13"/>
      </g>
     </g>
    </g>
    <g id="ytick_4">
     <g id="line2d_11">
      <g>
       <use xlink:href="#m40fdfad2fe" x="43.801133" y="151.821602" style="stroke: #000000; stroke-width: 1.5"/>
      </g>
     </g>
     <g id="text_12">
      <!-- 2 -->
      <g transform="translate(32.51582 156.917794) scale(0.14 -0.14)">
       <use xlink:href="#ArialMT-15"/>
      </g>
     </g>
    </g>
    <g id="ytick_5">
     <g id="line2d_12">
      <g>
       <use xlink:href="#m40fdfad2fe" x="43.801133" y="106.884654" style="stroke: #000000; stroke-width: 1.5"/>
      </g>
     </g>
     <g id="text_13">
      <!-- 4 -->
      <g transform="translate(32.51582 111.980845) scale(0.14 -0.14)">
       <use xlink:href="#ArialMT-17"/>
      </g>
     </g>
    </g>
    <g id="ytick_6">
     <g id="line2d_13">
      <g>
       <use xlink:href="#m40fdfad2fe" x="43.801133" y="61.947705" style="stroke: #000000; stroke-width: 1.5"/>
      </g>
     </g>
     <g id="text_14">
      <!-- 6 -->
      <g transform="translate(32.51582 67.043896) scale(0.14 -0.14)">
       <use xlink:href="#ArialMT-19"/>
      </g>
     </g>
    </g>
    <g id="text_15">
     <!-- Ion Current (m/z 60) -->
     <g transform="translate(17.392383 222.733457) rotate(-90) scale(0.14 -0.14)">
      <defs>
       <path id="ArialMT-2c" d="M 597 0 
L 597 4581 
L 1203 4581 
L 1203 0 
L 597 0 
z
" transform="scale(0.015625)"/>
       <path id="ArialMT-52" d="M 213 1659 
Q 213 2581 725 3025 
Q 1153 3394 1769 3394 
Q 2453 3394 2887 2945 
Q 3322 2497 3322 1706 
Q 3322 1066 3130 698 
Q 2938 331 2570 128 
Q 2203 -75 1769 -75 
Q 1072 -75 642 372 
Q 213 819 213 1659 
z
M 791 1659 
Q 791 1022 1069 705 
Q 1347 388 1769 388 
Q 2188 388 2466 706 
Q 2744 1025 2744 1678 
Q 2744 2294 2464 2611 
Q 2184 2928 1769 2928 
Q 1347 2928 1069 2612 
Q 791 2297 791 1659 
z
" transform="scale(0.015625)"/>
       <path id="ArialMT-51" d="M 422 0 
L 422 3319 
L 928 3319 
L 928 2847 
Q 1294 3394 1984 3394 
Q 2284 3394 2536 3286 
Q 2788 3178 2913 3003 
Q 3038 2828 3088 2588 
Q 3119 2431 3119 2041 
L 3119 0 
L 2556 0 
L 2556 2019 
Q 2556 2363 2490 2533 
Q 2425 2703 2258 2804 
Q 2091 2906 1866 2906 
Q 1506 2906 1245 2678 
Q 984 2450 984 1813 
L 984 0 
L 422 0 
z
" transform="scale(0.015625)"/>
       <path id="ArialMT-12" d="M 0 -78 
L 1328 4659 
L 1778 4659 
L 453 -78 
L 0 -78 
z
" transform="scale(0.015625)"/>
       <path id="ArialMT-5d" d="M 125 0 
L 125 456 
L 2238 2881 
Q 1878 2863 1603 2863 
L 250 2863 
L 250 3319 
L 2963 3319 
L 2963 2947 
L 1166 841 
L 819 456 
Q 1197 484 1528 484 
L 3063 484 
L 3063 0 
L 125 0 
z
" transform="scale(0.015625)"/>
      </defs>
      <use xlink:href="#ArialMT-2c"/>
      <use xlink:href="#ArialMT-52" transform="translate(27.78125 0)"/>
      <use xlink:href="#ArialMT-51" transform="translate(83.390625 0)"/>
      <use xlink:href="#ArialMT-3" transform="translate(139 0)"/>
      <use xlink:href="#ArialMT-26" transform="translate(166.78125 0)"/>
      <use xlink:href="#ArialMT-58" transform="translate(239 0)"/>
      <use xlink:href="#ArialMT-55" transform="translate(294.609375 0)"/>
      <use xlink:href="#ArialMT-55" transform="translate(327.90625 0)"/>
      <use xlink:href="#ArialMT-48" transform="translate(361.203125 0)"/>
      <use xlink:href="#ArialMT-51" transform="translate(416.8125 0)"/>
      <use xlink:href="#ArialMT-57" transform="translate(472.421875 0)"/>
      <use xlink:href="#ArialMT-3" transform="translate(500.203125 0)"/>
      <use xlink:href="#ArialMT-b" transform="translate(527.984375 0)"/>
      <use xlink:href="#ArialMT-50" transform="translate(561.28125 0)"/>
      <use xlink:href="#ArialMT-12" transform="translate(644.578125 0)"/>
      <use xlink:href="#ArialMT-5d" transform="translate(672.359375 0)"/>
      <use xlink:href="#ArialMT-3" transform="translate(722.359375 0)"/>
      <use xlink:href="#ArialMT-19" transform="translate(750.140625 0)"/>
      <use xlink:href="#ArialMT-13" transform="translate(805.75 0)"/>
      <use xlink:href="#ArialMT-c" transform="translate(861.359375 0)"/>
     </g>
    </g>
    <g id="text_16">
     <!-- 1e−14 -->
     <g transform="translate(43.801133 17.392383) scale(0.14 -0.14)">
      <use xlink:href="#ArialMT-14"/>
      <use xlink:href="#ArialMT-48" transform="translate(55.609375 0)"/>
      <use xlink:href="#ArialMT-ed" transform="translate(111.21875 0)"/>
      <use xlink:href="#ArialMT-14" transform="translate(169.625 0)"/>
      <use xlink:href="#ArialMT-17" transform="translate(225.234375 0)"/>
     </g>
    </g>
   </g>
   <g id="line2d_14">
    <path d="M 62.865439 224.655715 
L 62.737919 150.601715 
L 62.897319 136.294586 
L 65.256447 179.484962 
L 67.551815 177.572085 
L 69.783423 185.136917 
L 71.66435 198.251064 
L 73.162715 235.192937 
L 74.406039 222.674314 
L 75.649363 222.108711 
L 76.765167 211.42609 
L 77.912851 204.22937 
L 79.156176 197.382123 
L 80.43138 181.411639 
L 81.706584 150.708559 
L 83.109309 156.577276 
L 84.480154 173.035857 
L 85.787239 201.62572 
L 87.094323 203.008635 
L 88.369528 195.241683 
L 89.549092 180.063795 
L 90.792416 177.41847 
L 92.03574 157.278506 
L 93.310945 140.614859 
L 94.490509 156.656118 
L 95.733833 165.598843 
L 96.977157 181.708682 
L 98.220482 219.359712 
L 99.463806 208.649642 
L 100.73901 182.010746 
L 102.014215 161.247134 
L 103.257539 162.931038 
L 104.532744 163.878754 
L 105.776068 167.76373 
L 106.987512 192.896744 
L 108.230836 186.021292 
L 109.474161 188.098962 
L 110.717485 214.008936 
L 111.960809 183.853792 
L 113.204134 184.006303 
L 114.479338 164.213838 
L 115.690782 150.001761 
L 116.965987 152.717185 
L 118.209311 156.828599 
L 119.452635 179.798813 
L 120.69596 189.294777 
L 121.939284 207.638006 
L 123.214489 199.730704 
L 124.489693 196.70772 
L 125.764897 193.345716 
L 127.040102 192.485871 
L 128.251546 163.270601 
L 129.49487 162.297111 
L 130.770075 173.73354 
L 131.949639 190.411324 
L 133.192963 210.146372 
L 134.468168 203.158734 
L 135.743372 183.314152 
L 136.986696 207.915556 
L 138.261901 199.447122 
L 139.441465 230.000144 
L 140.684789 197.543093 
L 141.896233 188.25096 
L 143.139558 190.751407 
L 144.351002 196.799277 
L 145.626206 206.198748 
L 146.869531 203.725636 
L 148.112855 232.702349 
L 149.388059 237.354608 
L 150.599504 224.22263 
L 151.874708 243.182086 
L 153.086152 209.632744 
L 154.361357 187.008351 
L 155.604681 157.749085 
L 156.879885 145.170659 
L 158.15509 146.153423 
L 159.366534 153.446188 
L 160.641738 168.177666 
L 161.885063 158.962874 
L 163.096507 160.916778 
L 164.307951 177.241352 
L 165.583156 160.311842 
L 166.7946 167.200941 
L 168.006044 167.922728 
L 169.249368 188.04474 
L 170.524573 211.728533 
L 171.831657 215.357448 
L 173.074982 222.736626 
L 174.350186 217.813933 
L 175.62539 218.779846 
L 176.900595 182.025667 
L 178.112039 171.425861 
L 179.323483 180.449225 
L 180.598688 195.382019 
L 181.873892 201.764544 
L 183.053456 215.893487 
L 184.23302 221.538684 
L 185.508225 220.818447 
L 186.751549 205.539653 
L 187.994873 194.3327 
L 189.238198 160.868236 
L 190.481522 160.155996 
L 191.661086 161.504272 
L 192.90441 159.987719 
L 194.179615 149.228543 
L 195.422939 176.812202 
L 196.634383 198.279598 
L 197.877708 212.493587 
L 199.121032 207.312888 
L 200.396236 224.563662 
L 201.607681 217.241411 
L 202.851005 217.332194 
L 204.126209 211.848548 
L 205.369534 189.244565 
L 206.612858 189.009683 
L 207.824302 194.766684 
L 209.099507 180.51517 
L 210.342831 172.564932 
L 211.554275 161.767043 
L 212.7976 176.614718 
L 214.040924 181.82745 
L 215.284248 200.31552 
L 216.463812 213.870161 
L 217.739017 224.591877 
L 218.950461 213.960104 
L 220.193785 201.286708 
L 221.50087 179.358286 
L 222.712314 174.065216 
L 223.955638 161.771188 
L 225.103322 155.131573 
L 226.282886 169.993287 
L 227.526211 195.492975 
L 228.801415 227.465353 
L 230.076619 224.582642 
L 231.319944 211.754276 
L 232.595148 227.052881 
L 233.838473 198.526377 
L 235.018037 188.510995 
L 236.293241 157.822891 
L 237.536565 155.281084 
L 238.81177 148.635661 
L 240.023214 189.385705 
L 241.266538 181.724313 
L 242.541743 172.206077 
L 243.785067 185.783065 
L 244.996511 203.883681 
L 246.239836 202.105843 
L 247.48316 214.029299 
L 248.726484 212.71869 
L 250.001689 211.110544 
L 251.245013 207.530069 
L 252.456457 223.273468 
L 253.763542 184.849736 
L 254.974986 181.098192 
L 256.21831 176.279689 
L 257.429754 184.309602 
L 258.673079 175.595671 
L 259.980163 169.557543 
L 261.159727 184.457616 
L 262.403052 166.933618 
L 263.646376 184.354212 
L 264.85782 180.808409 
L 266.133025 183.39754 
L 267.440109 187.8785 
L 268.715314 198.852745 
L 269.958638 203.76327 
L 271.170082 203.017888 
L 272.445287 217.133296 
L 273.656731 219.466826 
L 274.931935 195.148121 
L 276.20714 195.780227 
L 277.450464 191.815049 
L 279.937113 173.833455 
L 281.148557 197.608933 
L 283.635205 205.767493 
L 284.84665 210.39731 
L 286.089974 208.136385 
L 287.333298 204.323527 
L 288.544742 210.624302 
L 289.819947 204.73584 
L 291.095151 189.967763 
L 292.274715 207.733268 
L 293.54992 213.122088 
L 294.825124 185.29622 
L 296.004688 174.393122 
L 297.248013 182.770519 
L 298.491337 192.590056 
L 299.734661 182.657106 
L 300.977986 179.708631 
L 302.15755 182.806171 
L 303.432754 203.275761 
L 304.676078 216.070041 
L 305.887523 187.521968 
L 307.130847 171.191233 
L 308.374171 184.038056 
L 309.617496 176.915212 
L 310.86082 159.666528 
L 312.072264 145.154539 
L 313.283708 143.536905 
L 314.590793 152.106155 
L 315.834117 169.890847 
L 317.045561 194.788724 
L 319.53221 216.48619 
L 320.743654 234.860795 
L 322.018859 222.188203 
L 323.230303 193.238579 
L 324.441747 186.747413 
L 325.685071 173.012451 
L 326.960276 167.482143 
L 328.13984 168.388912 
L 329.446924 199.273256 
L 331.00905 184.052496 
L 332.348015 201.970811 
L 333.591339 216.753891 
L 334.866543 220.026486 
L 336.046107 215.755564 
L 337.257552 221.181806 
L 338.564636 206.634811 
L 339.80796 195.745088 
L 341.083165 194.848722 
L 342.230849 197.656912 
L 343.537933 200.529925 
L 344.717497 217.743949 
L 346.056462 215.549217 
L 347.267906 220.047921 
L 349.722675 177.786666 
L 351.029759 166.729568 
L 352.145563 168.878169 
L 353.388888 173.654666 
L 354.727852 174.950846 
L 355.907416 189.155214 
L 357.182621 195.065779 
L 358.457825 199.394082 
L 359.73303 205.947419 
L 360.785073 185.974793 
L 362.092158 187.234333 
L 363.431122 189.10387 
L 364.546926 184.150697 
L 365.822131 186.002013 
L 368.50006 212.823263 
L 369.679624 233.575672 
L 370.827308 240.00021 
L 372.070632 253.146218 
L 373.282077 248.72225 
L 374.557281 233.372625 
L 375.673085 214.719467 
L 376.916409 181.340116 
L 378.159734 152.159121 
L 379.403058 130.789472 
L 380.614502 141.648355 
L 381.921587 160.745982 
L 384.344475 218.942784 
L 385.492159 239.083436 
L 386.926764 246.898336 
L 388.138208 236.007255 
L 389.381533 228.753204 
L 390.592977 188.467885 
L 391.900061 183.788915 
L 392.952105 210.858115 
L 394.673631 228.779214 
L 395.980715 239.316549 
L 397.31968 251.929995 
L 398.499244 253.835777 
L 399.742569 251.059329 
L 401.049653 213.033597 
L 402.165457 219.887198 
L 403.408781 213.770109 
L 405.92731 223.400608 
L 407.106874 214.034998 
L 408.413959 221.816031 
L 409.752923 234.113391 
L 410.932487 228.232501 
L 412.080171 226.885812 
L 413.259735 217.911303 
L 415.746384 258.380046 
L 417.149109 221.383607 
L 418.456193 201.149236 
L 419.476357 158.960844 
L 420.879082 125.311053 
L 421.963006 106.504582 
L 423.27009 111.443666 
L 424.545295 149.030539 
L 425.565458 228.167438 
L 425.565458 228.167438 
" clip-path="url(#pf66023b753)" style="fill: none; stroke: #000000; stroke-width: 2.5; stroke-linecap: square"/>
   </g>
   <g id="line2d_15">
    <path d="M 54.799771 208.545843 
L 54.799771 227.949845 
L 54.799771 174.609154 
L 54.799771 174.659248 
L 54.959172 216.217789 
L 55.628654 217.084416 
L 57.38206 213.741043 
L 59.645548 200.873402 
L 61.845275 203.815913 
L 63.694322 207.347166 
L 65.224567 194.180676 
L 66.499772 199.098697 
L 67.647456 208.228443 
L 68.699499 199.029529 
L 69.942824 237.060383 
L 71.218028 223.04972 
L 72.365712 208.701787 
L 73.704677 187.201557 
L 74.979881 209.233337 
L 76.127565 212.733616 
L 77.49841 216.464453 
L 78.677974 212.918111 
L 79.985058 232.994184 
L 81.292143 234.413419 
L 82.599228 271.130932 
L 83.874432 261.047511 
L 85.213397 256.307548 
L 86.584241 238.149974 
L 87.763805 238.680147 
L 89.07089 219.349942 
L 90.250454 204.622687 
L 91.525658 160.173286 
L 92.705223 183.835557 
L 94.044187 185.733018 
L 96.530836 216.257803 
L 97.7104 197.289964 
L 98.985604 195.119527 
L 100.260809 185.53323 
L 101.504133 185.285383 
L 102.779338 155.277142 
L 103.895141 148.949515 
L 105.202226 172.833219 
L 106.44555 185.125038 
L 107.720755 194.907277 
L 109.027839 184.731642 
L 110.143643 156.191395 
L 111.450728 168.306986 
L 112.694052 158.962654 
L 114.001137 157.513163 
L 115.180701 167.359421 
L 116.455905 198.102541 
L 117.76299 222.397788 
L 118.878793 232.079614 
L 120.185878 216.203379 
L 121.461082 180.829316 
L 122.608766 180.883003 
L 123.915851 181.813747 
L 125.222935 172.025911 
L 126.43438 149.621406 
L 127.741464 144.416524 
L 129.016669 160.768709 
L 130.228113 166.846696 
L 131.407677 197.226774 
L 132.619121 185.538714 
L 133.894326 204.436637 
L 135.13765 231.45304 
L 137.592418 227.605709 
L 138.899503 204.548802 
L 140.174707 188.155559 
L 141.418032 205.053015 
L 142.597596 191.10193 
L 143.93656 184.33569 
L 145.116125 190.499928 
L 146.295689 207.159714 
L 147.634653 202.904661 
L 148.846097 192.096248 
L 150.185062 214.676524 
L 151.364626 212.247161 
L 152.607951 209.313176 
L 153.851275 200.659602 
L 155.062719 181.215784 
L 156.337924 175.080405 
L 157.613128 200.82745 
L 158.888332 192.627798 
L 160.099777 186.654127 
L 161.374981 208.601984 
L 162.554545 215.040834 
L 163.734109 201.605468 
L 165.041194 173.633949 
L 166.284518 139.151386 
L 167.495962 148.50311 
L 168.739287 156.468295 
L 169.982611 155.959793 
L 171.257815 167.282562 
L 172.5649 182.819272 
L 173.776344 211.810811 
L 174.987788 200.141138 
L 176.262993 202.129224 
L 177.442557 167.978431 
L 178.813402 148.567683 
L 181.20441 168.863122 
L 182.447734 191.663974 
L 183.691058 210.661633 
L 184.934383 243.622801 
L 186.241467 255.858424 
L 187.452912 251.942737 
L 188.696236 265.071485 
L 189.90768 256.36507 
L 191.151004 242.05825 
L 192.426209 224.067645 
L 193.701413 238.587299 
L 194.880977 244.080148 
L 196.124302 225.781238 
L 197.367626 229.809873 
L 198.64283 196.860149 
L 199.918035 174.541881 
L 201.097599 172.318822 
L 202.372803 165.779773 
L 203.584248 158.758096 
L 204.827572 175.50825 
L 206.070896 215.806925 
L 207.31422 219.520689 
L 208.461904 220.181912 
L 209.832749 210.582088 
L 210.980433 197.013503 
L 212.255638 199.231256 
L 213.467082 178.03583 
L 214.742286 152.489512 
L 215.985611 169.885844 
L 217.197055 189.057689 
L 218.408499 200.142715 
L 219.651823 182.176107 
L 220.895148 182.289982 
L 222.106592 207.295502 
L 223.413676 224.205746 
L 224.625121 223.355235 
L 225.868445 200.9431 
L 227.143649 198.718103 
L 228.323213 214.632549 
L 229.630298 208.504664 
L 230.873622 200.55719 
L 232.053186 185.111586 
L 233.296511 190.190455 
L 234.507955 195.615542 
L 236.994604 172.749029 
L 238.206048 167.802065 
L 239.513132 156.135798 
L 240.756457 158.34273 
L 241.967901 166.864494 
L 243.243105 190.972446 
L 244.454549 189.930431 
L 245.729754 184.671708 
L 246.973078 199.828873 
L 248.184522 226.117764 
L 249.459727 235.024296 
L 250.671171 230.621318 
L 251.978256 214.221849 
L 253.15782 226.425992 
L 254.433024 232.277719 
L 255.644468 234.27991 
L 256.919673 198.516532 
L 258.162997 193.984905 
L 259.342561 202.634067 
L 260.649646 204.71874 
L 261.86109 203.374839 
L 263.072534 173.941244 
L 264.315858 165.053259 
L 265.559183 189.427999 
L 266.866267 188.136879 
L 268.205232 178.46233 
L 269.384796 178.082703 
L 270.66 193.132854 
L 271.903325 190.799194 
L 273.178529 191.588952 
L 274.421853 176.449907 
L 275.665178 154.248256 
L 276.844742 151.896776 
L 278.088066 171.574129 
L 279.33139 170.167829 
L 280.606595 163.726747 
L 281.818039 187.771894 
L 283.061363 204.76343 
L 284.304688 204.564851 
L 285.579892 190.683653 
L 286.791336 200.671389 
L 288.002781 211.944933 
L 289.277985 192.37639 
L 290.489429 196.318223 
L 291.700873 180.864849 
L 292.976078 155.06335 
L 294.251282 165.425601 
L 295.430846 171.031594 
L 296.706051 170.839508 
L 297.981255 161.745446 
L 299.160819 185.001314 
L 300.404144 190.887379 
L 301.647468 181.389634 
L 302.922672 176.860807 
L 304.102236 184.085137 
L 305.377441 162.360274 
L 306.557005 157.396777 
L 307.832209 172.39548 
L 309.075534 172.734661 
L 310.286978 174.361138 
L 311.530302 188.414359 
L 312.741746 181.96283 
L 313.985071 188.743573 
L 315.228395 160.086624 
L 316.5036 163.479217 
L 317.746924 136.950755 
L 318.990248 141.236785 
L 320.169812 175.167915 
L 321.413137 168.760894 
L 322.688341 172.556085 
L 323.963545 172.753406 
L 325.111229 185.209409 
L 326.418314 185.649447 
L 327.629758 155.175972 
L 328.841202 161.283135 
L 330.371448 162.940813 
L 331.742292 173.538344 
L 333.017497 201.566248 
L 334.324581 181.185133 
L 335.567906 176.993939 
L 336.74747 173.769424 
L 338.054554 181.10084 
L 339.265999 184.776404 
L 340.445563 175.591471 
L 341.752647 179.999509 
L 342.964091 159.688612 
L 344.271176 167.296024 
L 345.45074 194.251755 
L 346.725944 200.738446 
L 347.969269 205.709642 
L 349.212593 212.026781 
L 350.487798 215.525322 
L 351.635482 244.533431 
L 352.846926 226.790414 
L 354.15401 211.322601 
L 355.397335 188.793362 
L 356.608779 213.029812 
L 357.915863 213.957103 
L 358.999787 214.35276 
L 360.370632 190.095827 
L 361.677716 198.342172 
L 362.8254 197.591491 
L 364.004964 200.948564 
L 365.248289 181.44198 
L 366.491613 186.145332 
L 367.830578 203.126765 
L 369.073902 233.955399 
L 370.317226 215.126216 
L 371.49679 221.018865 
L 372.740115 199.165612 
L 373.919679 206.743671 
L 375.226763 195.664445 
L 376.342567 188.144214 
L 377.681532 192.516269 
L 378.924856 209.539046 
L 380.07254 201.13844 
L 381.379625 185.011474 
L 382.622949 165.176477 
L 383.802513 161.300826 
L 385.045838 133.386287 
L 386.257282 151.824207 
L 387.564366 169.381056 
L 388.839571 193.028472 
L 389.955375 216.913291 
L 391.262459 217.5584 
L 393.908508 163.929707 
L 396.522677 153.016887 
L 397.957282 145.270097 
L 399.168727 172.716677 
L 400.380171 194.09453 
L 402.866819 247.1053 
L 404.110144 234.494219 
L 405.449108 213.824969 
L 406.533032 173.982817 
L 407.903877 166.942709 
L 409.115321 167.487502 
L 410.135485 166.167012 
L 411.538209 181.591416 
L 412.781534 211.193573 
L 414.088618 225.269753 
L 415.236302 228.390324 
L 416.415866 206.606132 
L 417.754831 186.963893 
L 419.061916 172.547728 
L 420.177719 170.074426 
L 421.484804 164.736553 
L 422.568728 151.969503 
L 424.067093 127.208673 
L 425.214777 85.889457 
L 425.214777 85.889457 
" clip-path="url(#pf66023b753)" style="fill: none; stroke: #1f77b4; stroke-width: 2.5; stroke-linecap: square"/>
   </g>
   <g id="line2d_16">
    <path d="M 54.60849 212.241804 
L 54.60849 186.754635 
L 54.60849 211.379917 
L 54.736011 227.765882 
L 55.341733 237.133252 
L 56.808218 236.023374 
L 59.071706 191.493959 
L 61.335194 183.50472 
L 63.343641 196.627708 
L 64.937646 193.928189 
L 66.244731 194.394879 
L 67.392415 203.456608 
L 68.540099 201.83365 
L 69.687783 210.863581 
L 70.867347 207.575568 
L 72.110671 205.408581 
L 73.385876 214.206753 
L 74.6292 250.575111 
L 75.872524 263.712108 
L 77.115848 242.478796 
L 78.359173 243.772403 
L 79.634377 237.085609 
L 82.248546 216.086937 
L 83.651271 194.4938 
L 84.990236 176.260569 
L 86.26544 174.710934 
L 87.508765 154.361066 
L 88.752089 137.983105 
L 89.995413 139.983912 
L 91.238738 137.22788 
L 92.482062 159.964963 
L 93.757266 158.391888 
L 94.96871 156.671286 
L 96.243915 176.59148 
L 97.487239 183.096895 
L 98.730564 194.056046 
L 100.005768 164.146195 
L 101.249092 166.721412 
L 102.492417 178.708686 
L 103.735741 150.536115 
L 104.979065 148.135124 
L 106.22239 123.878906 
L 107.401954 109.521015 
L 108.709038 159.27383 
L 109.920482 162.572396 
L 111.131927 164.979998 
L 112.407131 140.770068 
L 113.682335 141.204653 
L 114.89378 157.827232 
L 116.137104 143.007012 
L 117.348548 148.754344 
L 118.559992 175.828367 
L 119.867077 178.042353 
L 121.078521 212.540723 
L 122.321845 217.134483 
L 123.59705 216.268122 
L 124.872254 225.614921 
L 126.274979 221.603447 
L 127.422663 212.174335 
L 128.665987 197.535977 
L 129.845552 193.568493 
L 131.152636 195.581295 
L 132.39596 179.288156 
L 133.671165 188.940147 
L 134.882609 193.521795 
L 136.157813 208.233205 
L 137.369258 220.729337 
L 138.644462 217.220879 
L 139.824026 230.675357 
L 141.06735 256.480502 
L 143.617759 209.335229 
L 144.861084 205.259595 
L 146.104408 230.972787 
L 147.411493 228.044404 
L 148.622937 234.009704 
L 149.866261 234.670729 
L 151.045825 228.051093 
L 152.35291 241.37401 
L 153.564354 225.611064 
L 154.839558 188.633217 
L 156.082883 164.688925 
L 157.326207 157.629782 
L 158.537651 176.456334 
L 159.780975 191.911875 
L 161.0243 193.235859 
L 162.203864 192.592571 
L 163.479068 212.969253 
L 164.722393 195.707062 
L 165.933837 180.749355 
L 167.209041 177.955319 
L 168.484246 163.436158 
L 169.69569 156.106285 
L 170.907134 155.687787 
L 172.182339 181.611297 
L 173.521303 188.447756 
L 174.732747 193.061965 
L 176.071712 227.266193 
L 177.219396 221.698824 
L 178.46272 231.544035 
L 179.706045 223.049713 
L 180.949369 210.962594 
L 182.160813 205.581872 
L 183.436018 195.527156 
L 184.711222 192.159852 
L 185.922666 186.456762 
L 187.10223 174.325721 
L 188.345555 174.132927 
L 189.620759 180.872075 
L 190.864083 165.095894 
L 192.075528 159.785749 
L 193.350732 158.167928 
L 194.562176 174.548 
L 195.837381 196.082259 
L 197.080705 178.946167 
L 198.292149 186.491654 
L 199.471713 187.496142 
L 200.746918 168.410063 
L 202.054002 162.449443 
L 203.265446 141.268205 
L 204.508771 152.012114 
L 205.783975 172.283072 
L 206.995419 183.542071 
L 208.238744 213.994027 
L 209.418308 231.640116 
L 210.693512 254.638346 
L 211.936837 260.039892 
L 213.148281 242.700468 
L 214.455365 233.491627 
L 215.69869 197.119318 
L 216.910134 180.329011 
L 218.153458 160.529013 
L 219.396782 134.899887 
L 220.608227 141.641054 
L 221.883431 160.952355 
L 223.126755 168.113018 
L 224.37008 191.080679 
L 225.581524 204.663176 
L 226.824848 225.098235 
L 228.100053 221.144159 
L 229.311497 223.527324 
L 230.522941 205.615671 
L 231.798145 206.166677 
L 233.00959 204.249367 
L 234.189154 191.498498 
L 235.464358 196.743337 
L 236.803323 192.150834 
L 238.014767 182.970719 
L 239.226211 183.707849 
L 240.469536 189.930524 
L 241.68098 197.309964 
L 242.956184 196.992115 
L 244.199509 208.139226 
L 245.410953 200.83458 
L 246.686157 201.273272 
L 247.961362 214.502767 
L 249.204686 204.974289 
L 250.38425 188.212273 
L 251.723215 179.940845 
L 252.870899 199.587127 
L 254.114223 197.404504 
L 255.421307 226.518581 
L 256.632752 216.901762 
L 257.844196 202.440993 
L 259.05564 195.402446 
L 260.394605 185.724617 
L 261.542289 186.478128 
L 262.817493 186.25311 
L 264.060817 194.924122 
L 265.304142 226.637637 
L 266.579346 227.050654 
L 267.886431 255.047277 
L 269.129755 238.198453 
L 270.43684 229.184098 
L 271.616404 204.772809 
L 272.923488 209.177159 
L 274.134932 228.912365 
L 275.314497 238.877142 
L 276.589701 213.46344 
L 277.801145 205.355713 
L 279.07635 185.338546 
L 280.351554 178.089563 
L 281.499238 155.071244 
L 282.774442 156.048962 
L 284.017767 172.144183 
L 285.261091 202.829596 
L 286.536296 223.927233 
L 287.652099 250.716644 
L 288.959184 222.640124 
L 290.170628 213.599355 
L 291.445833 198.013411 
L 292.689157 196.614636 
L 293.932481 179.963655 
L 295.239566 148.00175 
L 296.38725 158.576677 
L 297.630574 144.76905 
L 298.905778 138.710217 
L 300.117223 179.652606 
L 301.360547 186.110533 
L 302.603871 213.061873 
L 303.847196 242.628007 
L 305.02676 260.718719 
L 306.301964 254.923539 
L 307.545288 222.354164 
L 308.788613 219.497013 
L 309.968177 184.967837 
L 311.211501 166.031214 
L 312.486706 173.974097 
L 313.76191 177.051701 
L 315.005234 191.641326 
L 316.184798 212.142837 
L 317.428123 195.895238 
L 318.671447 205.646579 
L 319.914771 224.410533 
L 321.158096 218.969224 
L 322.4333 210.255072 
L 323.612864 218.231758 
L 324.919949 213.863971 
L 326.131393 203.533323 
L 327.374717 231.067707 
L 328.586161 251.885326 
L 329.988886 260.4718 
L 331.423491 275.071001 
L 332.666816 269.068036 
L 333.9739 233.924918 
L 335.280985 205.2766 
L 336.460549 200.632053 
L 337.767633 182.737715 
L 339.010958 181.169205 
L 340.254282 229.861569 
L 341.433846 246.369264 
L 342.709051 265.991104 
L 343.984255 260.92453 
L 345.195699 240.821726 
L 346.407143 214.536416 
L 347.618588 207.933926 
L 348.893792 183.861961 
L 350.105236 172.516926 
L 351.412321 179.034648 
L 352.623765 183.041265 
L 353.771449 173.265506 
L 355.110414 169.788575 
L 356.321858 159.561463 
L 357.565182 159.054766 
L 358.840387 159.6056 
L 359.95619 149.805924 
L 361.295155 140.142563 
L 362.538479 133.16047 
L 363.749924 155.645309 
L 366.236572 221.954069 
L 367.511777 244.68355 
L 368.723221 249.770166 
L 369.934665 237.503514 
L 371.30551 210.353112 
L 372.485074 180.543256 
L 373.728398 172.736232 
L 374.907962 142.303438 
L 376.119407 163.718313 
L 377.426491 178.789558 
L 378.669815 212.869148 
L 379.94502 217.36979 
L 381.092704 194.9379 
L 382.367908 167.709707 
L 383.611233 153.474383 
L 384.822677 158.882116 
L 385.9066 158.191404 
L 387.245565 154.263298 
L 388.52077 160.750257 
L 389.700334 173.230196 
L 390.975538 197.122827 
L 392.123222 194.940135 
L 393.525947 192.642418 
L 394.992432 186.130388 
L 396.395157 211.995787 
L 397.670361 212.602786 
L 398.945566 211.915889 
L 400.12513 210.717166 
L 401.400334 206.419383 
L 402.548018 205.289144 
L 403.791343 192.971361 
L 405.130307 197.144084 
L 406.373632 202.563958 
L 407.489435 205.229632 
L 408.8284 224.333735 
L 409.944204 219.03336 
L 411.251288 244.853767 
L 412.590253 260.616993 
L 413.769817 238.485896 
L 414.885621 233.34255 
L 416.256466 243.986623 
L 417.37227 226.262232 
L 418.711234 220.852849 
L 419.954559 189.024474 
L 421.229763 164.009665 
L 422.409327 148.600081 
L 423.684532 149.361896 
L 425.023496 172.861283 
L 425.884259 225.664416 
L 425.884259 225.664416 
" clip-path="url(#pf66023b753)" style="fill: none; stroke: #0033ff; stroke-width: 2.5; stroke-linecap: square"/>
   </g>
   <g id="line2d_17">
    <path d="M 52.695684 114.268772 
L 52.727564 188.68328 
L 52.759444 132.649683 
L 52.855084 136.385066 
L 53.365166 148.282025 
L 54.895411 147.364172 
L 57.095139 185.860709 
L 59.422387 182.916686 
L 61.367074 199.638833 
L 63.02484 217.020449 
L 64.363804 222.168987 
L 65.511488 207.33542 
L 66.627292 196.539157 
L 67.838736 156.756275 
L 69.05018 146.46008 
L 70.293505 157.440421 
L 71.504949 158.492114 
L 72.780153 141.352492 
L 74.055358 156.223355 
L 75.298682 201.026215 
L 76.478246 189.957978 
L 77.721571 187.99475 
L 78.996775 143.300843 
L 80.208219 119.98888 
L 81.579064 136.477905 
L 82.918029 140.942037 
L 84.320753 136.367278 
L 85.595958 123.457509 
L 86.871162 131.154837 
L 88.146367 159.63377 
L 89.357811 161.9551 
L 90.601135 160.490906 
L 91.84446 148.831122 
L 93.119664 180.771672 
L 94.362988 184.979995 
L 95.638193 187.324892 
L 96.849637 209.283567 
L 98.092961 217.995952 
L 99.336286 233.351267 
L 100.57961 233.517042 
L 101.854814 230.618083 
L 103.098139 208.809478 
L 104.309583 204.175109 
L 105.489147 191.494077 
L 106.828112 182.166337 
L 108.071436 178.702745 
L 109.251 171.42009 
L 110.494324 176.557869 
L 111.705769 180.422186 
L 113.044733 164.787328 
L 114.256177 170.409545 
L 115.531382 173.949224 
L 116.774706 170.059764 
L 117.98615 167.930615 
L 119.165714 175.18933 
L 120.472799 166.528756 
L 121.652363 168.356476 
L 122.895687 174.191907 
L 124.234652 184.454037 
L 125.541737 175.947817 
L 126.785061 207.064353 
L 128.060265 222.43349 
L 129.239829 210.641974 
L 131.726478 200.229893 
L 133.001682 182.637255 
L 134.276887 194.511842 
L 135.520211 198.728601 
L 136.763536 218.029522 
L 138.00686 220.140121 
L 139.218304 242.946788 
L 140.429748 257.622164 
L 141.704953 267.491981 
L 142.884517 244.632634 
L 144.255362 254.43607 
L 145.498686 238.508054 
L 146.71013 242.788216 
L 147.985335 214.882804 
L 149.196779 201.671336 
L 150.471983 201.736419 
L 151.715307 189.379738 
L 152.958632 202.198107 
L 154.138196 216.289363 
L 155.34964 203.222661 
L 156.656725 203.420875 
L 157.931929 199.647059 
L 159.143373 218.189295 
L 160.322937 205.534129 
L 161.598142 200.106785 
L 162.841466 199.952348 
L 164.116671 195.758581 
L 165.264354 197.49156 
L 166.571439 197.283248 
L 167.782883 195.842969 
L 169.058088 167.32483 
L 170.301412 175.970404 
L 171.512856 183.124346 
L 172.756181 161.056926 
L 174.063265 146.518679 
L 175.338469 144.476667 
L 176.549914 163.285991 
L 177.761358 152.683237 
L 179.004682 169.056068 
L 180.279887 179.642491 
L 181.555091 180.274921 
L 182.702775 186.837482 
L 183.914219 175.628704 
L 185.221304 173.822565 
L 186.464628 178.804647 
L 187.644192 189.256924 
L 188.983157 203.652694 
L 190.194601 196.84452 
L 191.501686 214.88687 
L 192.68125 213.303882 
L 193.924574 213.38543 
L 195.136018 203.202065 
L 196.443103 199.112484 
L 197.686427 209.627307 
L 198.929751 195.814273 
L 200.173076 209.724499 
L 201.4164 216.813845 
L 202.627844 193.109465 
L 203.903049 213.723519 
L 205.146373 207.438962 
L 206.389697 210.567537 
L 207.601141 198.722553 
L 208.780706 214.299075 
L 210.02403 228.751921 
L 211.299234 213.452481 
L 212.542559 191.355185 
L 213.785883 177.774668 
L 215.029207 165.659033 
L 216.272532 174.720767 
L 217.483976 154.706625 
L 218.7273 163.808396 
L 219.970624 165.333541 
L 222.489153 191.733537 
L 223.700597 187.79268 
L 224.943922 171.140982 
L 226.187246 185.426551 
L 227.43057 182.767506 
L 228.642015 176.619961 
L 229.885339 193.422745 
L 231.128663 199.610941 
L 232.340107 181.361819 
L 233.615312 172.422283 
L 234.858636 194.960618 
L 236.0382 192.792411 
L 237.313405 202.853639 
L 238.556729 201.81108 
L 239.831933 175.629183 
L 241.075258 193.966229 
L 242.286702 232.037596 
L 243.530026 224.490412 
L 244.773351 191.388307 
L 246.016675 191.81835 
L 247.259999 193.043867 
L 248.503323 170.684672 
L 249.778528 192.370936 
L 250.989972 201.91446 
L 252.201416 201.433293 
L 254.688065 245.02597 
L 255.931389 227.429446 
L 257.206594 194.567887 
L 258.481798 204.731928 
L 259.693242 197.535812 
L 260.904687 197.378953 
L 262.179891 231.849863 
L 263.423215 244.677709 
L 264.634659 241.39675 
L 265.909864 231.191624 
L 267.216948 225.039455 
L 268.460273 213.025122 
L 269.703597 224.410703 
L 271.010682 242.232014 
L 272.190246 241.362588 
L 273.46545 250.664848 
L 274.708774 258.023191 
L 275.920219 246.287914 
L 277.163543 211.342003 
L 278.406867 189.830925 
L 279.618311 186.181827 
L 280.861636 197.15855 
L 282.13684 202.146606 
L 283.348284 199.982722 
L 284.623489 198.788443 
L 285.866813 187.015605 
L 287.110138 185.019686 
L 288.353462 167.417187 
L 289.533026 172.529691 
L 290.80823 173.03511 
L 292.083435 185.602091 
L 293.262999 202.386958 
L 294.570083 209.274907 
L 295.749647 216.345555 
L 297.024852 182.949049 
L 298.236296 159.843696 
L 299.47962 142.561311 
L 300.691065 137.084203 
L 301.934389 161.446052 
L 303.177713 156.669673 
L 304.421038 154.628678 
L 305.696242 171.786694 
L 306.875806 175.234125 
L 308.11913 191.395751 
L 309.394335 174.411728 
L 310.637659 174.729511 
L 311.880983 182.540903 
L 313.092428 205.148904 
L 314.303872 211.09697 
L 315.515316 203.630122 
L 316.822401 215.018978 
L 318.033845 215.71813 
L 319.213409 202.126104 
L 320.488613 205.770171 
L 321.668177 168.172288 
L 322.975262 145.636988 
L 324.218586 137.838476 
L 325.461911 131.020455 
L 326.641475 115.555439 
L 327.948559 131.236772 
L 329.223764 161.404475 
L 332.061094 182.343444 
L 333.368178 205.611589 
L 334.611502 195.940745 
L 335.886707 197.813575 
L 337.130031 185.449366 
L 338.373355 204.587266 
L 339.521039 216.014266 
L 340.860004 226.298777 
L 342.071448 226.823814 
L 343.251012 210.684762 
L 344.589977 238.813257 
L 345.769541 249.895241 
L 346.949105 242.320245 
L 349.403874 219.747206 
L 350.710958 219.647552 
L 351.922403 201.912454 
L 353.165727 155.964237 
L 354.504691 151.50777 
L 355.684256 137.232886 
L 356.8957 152.206719 
L 358.170904 160.301476 
L 359.382348 197.128089 
L 360.625673 216.256644 
L 361.805237 239.830582 
L 363.112321 238.106708 
L 364.387526 234.265823 
L 365.56709 226.336408 
L 366.842294 225.005128 
L 368.117499 225.224995 
L 369.265183 188.711834 
L 370.540387 192.321607 
L 371.879352 203.445967 
L 372.963276 203.412164 
L 374.366 203.838618 
L 375.481804 192.679214 
L 376.693249 177.907997 
L 379.211777 153.555841 
L 380.423221 170.798378 
L 381.730306 175.655711 
L 382.87799 193.063802 
L 384.089434 202.002653 
L 385.428399 205.763949 
L 386.544203 206.672894 
L 387.851287 189.949891 
L 389.126492 193.517895 
L 390.274176 174.687741 
L 391.54938 169.368575 
L 392.760824 200.249644 
L 395.693794 236.485354 
L 396.873359 239.35551 
L 398.116683 261.687798 
L 399.455648 273.995682 
L 400.762732 249.063089 
L 401.974176 249.436435 
L 403.249381 241.346453 
L 404.428945 230.149595 
L 405.736029 247.834496 
L 406.819953 235.269698 
L 408.158918 238.500304 
L 409.306602 223.543163 
L 410.709327 239.509703 
L 411.72949 257.79075 
L 413.036575 219.807402 
L 414.375539 205.109623 
L 415.459463 211.305095 
L 416.957828 197.540159 
L 418.009872 183.978464 
L 419.348837 175.148081 
L 420.528401 165.60808 
L 421.707965 159.410271 
L 422.951289 157.646191 
L 424.290254 161.407375 
L 425.437938 171.78536 
L 425.437938 171.78536 
" clip-path="url(#pf66023b753)" style="fill: none; stroke: #ff7f0e; stroke-width: 2.5; stroke-linecap: square"/>
   </g>
   <g id="line2d_18">
    <path d="M 62.897319 129.711779 
L 62.897319 159.603676 
L 62.897319 136.197448 
L 63.503041 157.280637 
L 65.097047 163.406467 
L 67.360535 168.726089 
L 69.655903 172.918587 
L 71.66435 180.291917 
L 73.226475 214.903216 
L 74.501679 220.988584 
L 75.713124 216.292021 
L 76.797047 211.523048 
L 80.46326 168.179244 
L 81.802225 146.661879 
L 83.109309 155.546889 
L 84.448274 194.000928 
L 85.755358 196.336658 
L 87.030563 189.914529 
L 88.337647 189.439798 
L 89.517212 187.697495 
L 90.792416 166.384253 
L 92.00386 164.210059 
L 93.279065 165.127216 
L 94.554269 154.669142 
L 95.797593 183.248101 
L 96.977157 200.213762 
L 98.220482 182.156957 
L 99.495686 170.946321 
L 100.802771 156.895127 
L 102.077975 166.682688 
L 103.225659 169.735055 
L 104.564624 177.964985 
L 105.807948 173.428618 
L 107.051272 182.593784 
L 108.294597 174.050245 
L 109.474161 169.925443 
L 110.717485 164.194577 
L 112.02457 127.801642 
L 113.236014 112.911326 
L 114.511218 133.233875 
L 115.722663 144.989611 
L 116.997867 163.64081 
L 118.209311 212.261349 
L 119.420755 228.565087 
L 120.69596 217.367346 
L 121.939284 223.824198 
L 123.214489 217.83956 
L 124.521573 187.701828 
L 125.796777 185.031107 
L 127.071982 170.879654 
L 128.219666 156.256635 
L 129.49487 151.286812 
L 130.738195 187.518366 
L 131.981519 181.87694 
L 133.192963 192.330438 
L 134.468168 185.58835 
L 135.711492 183.643163 
L 136.954816 196.39545 
L 138.16626 180.017249 
L 139.409585 209.100076 
L 140.684789 215.039012 
L 141.959994 226.60674 
L 143.203318 273.041763 
L 144.446642 277.877161 
L 145.721847 285.469573 
L 146.933291 266.84617 
L 148.208495 253.486009 
L 149.45182 218.193082 
L 150.695144 174.0274 
L 151.938468 189.127533 
L 153.118032 179.833064 
L 154.393237 161.862658 
L 155.636561 157.526844 
L 156.911765 155.633922 
L 158.12321 169.089435 
L 159.366534 165.954548 
L 160.609858 173.279823 
L 161.853183 159.039811 
L 163.064627 149.958558 
L 164.339831 153.872097 
L 165.615036 158.275377 
L 166.92212 134.793793 
L 168.101684 128.458178 
L 169.313129 137.597101 
L 170.556453 156.377863 
L 171.831657 179.200302 
L 173.106862 186.255292 
L 174.382066 176.257704 
L 175.56163 184.36575 
L 176.804955 176.251588 
L 179.323483 98.789693 
L 180.566808 66.70404 
L 181.842012 86.588204 
L 183.021576 112.856901 
L 184.2649 122.011128 
L 185.508225 124.761035 
L 186.719669 126.835072 
L 187.994873 129.977959 
L 189.238198 90.696645 
L 190.449642 59.89315 
L 191.692966 37.141607 
L 192.936291 48.03565 
L 194.179615 82.849618 
L 195.422939 95.747957 
L 196.698144 112.76039 
L 197.941468 114.412539 
L 199.152912 109.897014 
L 200.396236 90.918544 
L 201.639561 85.438126 
L 202.882885 119.434795 
L 204.094329 143.40634 
L 205.369534 172.489818 
L 206.612858 192.588159 
L 207.856182 209.947126 
L 209.067627 217.468339 
L 211.522395 173.901561 
L 212.7976 142.366677 
L 214.009044 129.211025 
L 215.284248 160.973432 
L 216.495692 165.248118 
L 217.770897 183.451046 
L 219.014221 206.451637 
L 220.257545 212.632282 
L 221.46899 220.720304 
L 222.712314 216.950938 
L 223.923758 197.578666 
L 226.442287 189.2485 
L 227.685611 218.79059 
L 228.865175 209.868231 
L 230.1085 224.769186 
L 231.415584 206.251505 
L 232.563268 196.076252 
L 233.838473 205.457153 
L 235.081797 206.52426 
L 236.325121 181.330381 
L 237.536565 181.247055 
L 238.74801 176.482757 
L 239.959454 172.36964 
L 241.202778 155.976524 
L 242.541743 153.41237 
L 243.753187 133.415063 
L 244.996511 136.715366 
L 246.207956 149.329478 
L 247.48316 173.739554 
L 248.726484 169.636795 
L 250.065449 176.090139 
L 251.276893 173.980651 
L 252.520217 170.491174 
L 253.763542 176.10135 
L 254.974986 186.773598 
L 256.18643 210.491725 
L 257.461635 228.650089 
L 258.736839 231.092946 
L 259.916403 254.942734 
L 261.191608 264.101591 
L 262.466812 244.399683 
L 264.85782 179.145412 
L 266.164905 151.622261 
L 267.440109 138.91949 
L 268.747194 131.567498 
L 269.958638 140.559445 
L 271.233842 116.172439 
L 272.445287 136.878491 
L 273.720491 125.205664 
L 274.995695 123.572428 
L 277.450464 66.446848 
L 278.630028 48.106703 
L 279.937113 39.738975 
L 281.116677 33.093759 
L 282.360001 81.900891 
L 283.667086 106.190804 
L 284.91041 144.193624 
L 286.089974 156.86781 
L 287.397058 201.875899 
L 288.640383 176.455009 
L 289.851827 169.497814 
L 291.063271 181.949295 
L 292.274715 166.802959 
L 293.54992 146.751996 
L 294.761364 163.155265 
L 296.036568 186.858609 
L 297.279893 205.105395 
L 298.491337 217.488111 
L 299.766541 221.154063 
L 300.977986 208.963372 
L 302.25319 230.18359 
L 303.464634 230.05493 
L 304.676078 207.637414 
L 305.887523 195.283573 
L 307.194607 180.183433 
L 309.649376 148.234733 
L 310.86082 134.866957 
L 312.072264 129.388512 
L 313.315588 139.769813 
L 314.558913 138.798898 
L 315.865997 137.96468 
L 317.045561 135.550362 
L 318.320766 174.495003 
L 319.53221 172.84341 
L 320.775534 167.168225 
L 322.050739 164.372042 
L 323.262183 172.686482 
L 324.473627 188.779085 
L 325.716952 193.546775 
L 326.960276 183.44558 
L 328.13984 172.734263 
L 329.446924 151.351423 
L 331.00905 185.079057 
L 332.252374 182.13909 
L 333.623219 185.205229 
L 334.866543 184.768168 
L 336.109868 179.349731 
L 337.353192 203.689365 
L 338.628396 217.389705 
L 339.77608 217.934318 
L 341.083165 206.850862 
L 342.294609 200.944781 
L 343.474173 207.738501 
L 344.781258 222.290452 
L 346.024582 213.956791 
L 347.267906 219.773294 
L 348.511231 204.93944 
L 349.658915 224.094055 
L 350.965999 219.322117 
L 352.273084 182.13563 
L 353.388888 176.184988 
L 354.695972 162.360692 
L 355.907416 138.09949 
L 357.182621 157.245484 
L 358.425945 152.656414 
L 359.669269 140.718185 
L 360.944474 139.567183 
L 362.092158 156.791923 
L 363.335482 166.972003 
L 364.578806 160.327131 
L 365.885891 184.028207 
L 367.224856 169.156614 
L 368.34066 161.425461 
L 369.520224 182.253317 
L 370.795428 174.803668 
L 372.070632 153.109566 
L 373.313957 164.839525 
L 374.493521 182.249947 
L 375.800605 191.92625 
L 376.948289 205.36418 
L 378.159734 209.131026 
L 379.403058 202.478874 
L 380.646382 208.34723 
L 381.985347 208.005693 
L 383.164911 195.413361 
L 384.344475 189.269317 
L 385.619679 195.697608 
L 386.958644 195.962454 
L 388.106328 227.557301 
L 389.317772 252.216027 
L 391.900061 287.12128 
L 393.111506 269.019956 
L 394.54611 252.97046 
L 395.948835 221.457162 
L 397.25592 180.471025 
L 399.646928 114.207645 
L 401.049653 127.897066 
L 402.197337 143.742748 
L 403.408781 162.033744 
L 404.588345 178.07073 
L 405.99107 169.19019 
L 407.234395 166.874786 
L 408.413959 156.470912 
L 409.561643 153.086337 
L 410.868727 152.433228 
L 412.175812 145.321199 
L 413.387256 167.065815 
L 414.63058 183.804569 
L 415.873905 169.946721 
L 417.021589 139.848081 
L 418.424313 122.075428 
L 419.603877 84.227861 
L 420.783442 70.784294 
L 422.058646 73.894499 
L 423.23821 98.152459 
L 424.609055 148.152162 
L 425.597338 228.487594 
L 425.597338 228.487594 
" clip-path="url(#pf66023b753)" style="fill: none; stroke: #ff0000; stroke-width: 2.5; stroke-linecap: square"/>
   </g>
   <g id="patch_3">
    <path d="M 43.801133 299.822656 
L 43.801133 20.392383 
" style="fill: none; stroke: #000000; stroke-width: 1.5; stroke-linejoin: miter; stroke-linecap: square"/>
   </g>
   <g id="patch_4">
    <path d="M 43.801133 299.822656 
L 426.362461 299.822656 
" style="fill: none; stroke: #000000; stroke-width: 1.5; stroke-linejoin: miter; stroke-linecap: square"/>
   </g>
   <g id="legend_1">
    <g id="line2d_19">
     <path d="M 54.601133 35.728711 
L 66.601133 35.728711 
L 78.601133 35.728711 
" style="fill: none; stroke: #000000; stroke-width: 2.5; stroke-linecap: square"/>
    </g>
    <g id="text_17">
     <!-- vacuum -->
     <g transform="translate(88.201133 39.928711) scale(0.12 -0.12)">
      <defs>
       <path id="ArialMT-59" d="M 1344 0 
L 81 3319 
L 675 3319 
L 1388 1331 
Q 1503 1009 1600 663 
Q 1675 925 1809 1294 
L 2547 3319 
L 3125 3319 
L 1869 0 
L 1344 0 
z
" transform="scale(0.015625)"/>
       <path id="ArialMT-46" d="M 2588 1216 
L 3141 1144 
Q 3050 572 2676 248 
Q 2303 -75 1759 -75 
Q 1078 -75 664 370 
Q 250 816 250 1647 
Q 250 2184 428 2587 
Q 606 2991 970 3192 
Q 1334 3394 1763 3394 
Q 2303 3394 2647 3120 
Q 2991 2847 3088 2344 
L 2541 2259 
Q 2463 2594 2264 2762 
Q 2066 2931 1784 2931 
Q 1359 2931 1093 2626 
Q 828 2322 828 1663 
Q 828 994 1084 691 
Q 1341 388 1753 388 
Q 2084 388 2306 591 
Q 2528 794 2588 1216 
z
" transform="scale(0.015625)"/>
      </defs>
      <use xlink:href="#ArialMT-59"/>
      <use xlink:href="#ArialMT-44" transform="translate(50 0)"/>
      <use xlink:href="#ArialMT-46" transform="translate(105.609375 0)"/>
      <use xlink:href="#ArialMT-58" transform="translate(155.609375 0)"/>
      <use xlink:href="#ArialMT-58" transform="translate(211.21875 0)"/>
      <use xlink:href="#ArialMT-50" transform="translate(266.828125 0)"/>
     </g>
    </g>
    <g id="line2d_20">
     <path d="M 54.601133 52.99043 
L 66.601133 52.99043 
L 78.601133 52.99043 
" style="fill: none; stroke: #1f77b4; stroke-width: 2.5; stroke-linecap: square"/>
    </g>
    <g id="text_18">
     <!-- 1h -->
     <g transform="translate(88.201133 57.19043) scale(0.12 -0.12)">
      <defs>
       <path id="ArialMT-4b" d="M 422 0 
L 422 4581 
L 984 4581 
L 984 2938 
Q 1378 3394 1978 3394 
Q 2347 3394 2619 3248 
Q 2891 3103 3008 2847 
Q 3125 2591 3125 2103 
L 3125 0 
L 2563 0 
L 2563 2103 
Q 2563 2525 2380 2717 
Q 2197 2909 1863 2909 
Q 1613 2909 1392 2779 
Q 1172 2650 1078 2428 
Q 984 2206 984 1816 
L 984 0 
L 422 0 
z
" transform="scale(0.015625)"/>
      </defs>
      <use xlink:href="#ArialMT-14"/>
      <use xlink:href="#ArialMT-4b" transform="translate(55.609375 0)"/>
     </g>
    </g>
    <g id="line2d_21">
     <path d="M 54.601133 70.252148 
L 66.601133 70.252148 
L 78.601133 70.252148 
" style="fill: none; stroke: #0033ff; stroke-width: 2.5; stroke-linecap: square"/>
    </g>
    <g id="text_19">
     <!-- 2h -->
     <g transform="translate(88.201133 74.452148) scale(0.12 -0.12)">
      <use xlink:href="#ArialMT-15"/>
      <use xlink:href="#ArialMT-4b" transform="translate(55.609375 0)"/>
     </g>
    </g>
    <g id="line2d_22">
     <path d="M 54.601133 87.513867 
L 66.601133 87.513867 
L 78.601133 87.513867 
" style="fill: none; stroke: #ff7f0e; stroke-width: 2.5; stroke-linecap: square"/>
    </g>
    <g id="text_20">
     <!-- 4h -->
     <g transform="translate(88.201133 91.713867) scale(0.12 -0.12)">
      <use xlink:href="#ArialMT-17"/>
      <use xlink:href="#ArialMT-4b" transform="translate(55.609375 0)"/>
     </g>
    </g>
    <g id="line2d_23">
     <path d="M 54.601133 104.775586 
L 66.601133 104.775586 
L 78.601133 104.775586 
" style="fill: none; stroke: #ff0000; stroke-width: 2.5; stroke-linecap: square"/>
    </g>
    <g id="text_21">
     <!-- first -->
     <g transform="translate(88.201133 108.975586) scale(0.12 -0.12)">
      <defs>
       <path id="ArialMT-49" d="M 556 0 
L 556 2881 
L 59 2881 
L 59 3319 
L 556 3319 
L 556 3672 
Q 556 4006 616 4169 
Q 697 4388 901 4523 
Q 1106 4659 1475 4659 
Q 1713 4659 2000 4603 
L 1916 4113 
Q 1741 4144 1584 4144 
Q 1328 4144 1222 4034 
Q 1116 3925 1116 3625 
L 1116 3319 
L 1763 3319 
L 1763 2881 
L 1116 2881 
L 1116 0 
L 556 0 
z
" transform="scale(0.015625)"/>
       <path id="ArialMT-4c" d="M 425 3934 
L 425 4581 
L 988 4581 
L 988 3934 
L 425 3934 
z
M 425 0 
L 425 3319 
L 988 3319 
L 988 0 
L 425 0 
z
" transform="scale(0.015625)"/>
       <path id="ArialMT-56" d="M 197 991 
L 753 1078 
Q 800 744 1014 566 
Q 1228 388 1613 388 
Q 2000 388 2187 545 
Q 2375 703 2375 916 
Q 2375 1106 2209 1216 
Q 2094 1291 1634 1406 
Q 1016 1563 777 1677 
Q 538 1791 414 1992 
Q 291 2194 291 2438 
Q 291 2659 392 2848 
Q 494 3038 669 3163 
Q 800 3259 1026 3326 
Q 1253 3394 1513 3394 
Q 1903 3394 2198 3281 
Q 2494 3169 2634 2976 
Q 2775 2784 2828 2463 
L 2278 2388 
Q 2241 2644 2061 2787 
Q 1881 2931 1553 2931 
Q 1166 2931 1000 2803 
Q 834 2675 834 2503 
Q 834 2394 903 2306 
Q 972 2216 1119 2156 
Q 1203 2125 1616 2013 
Q 2213 1853 2448 1751 
Q 2684 1650 2818 1456 
Q 2953 1263 2953 975 
Q 2953 694 2789 445 
Q 2625 197 2315 61 
Q 2006 -75 1616 -75 
Q 969 -75 630 194 
Q 291 463 197 991 
z
" transform="scale(0.015625)"/>
      </defs>
      <use xlink:href="#ArialMT-49"/>
      <use xlink:href="#ArialMT-4c" transform="translate(27.78125 0)"/>
      <use xlink:href="#ArialMT-55" transform="translate(50 0)"/>
      <use xlink:href="#ArialMT-56" transform="translate(83.296875 0)"/>
      <use xlink:href="#ArialMT-57" transform="translate(133.296875 0)"/>
     </g>
    </g>
   </g>
  </g>
 </g>
 <defs>
  <clipPath id="pf66023b753">
   <rect x="43.801133" y="20.392383" width="382.561328" height="279.430273"/>
  </clipPath>
 </defs>
</svg>
