<?xml version="1.0" encoding="utf-8" standalone="no"?>
<!DOCTYPE svg PUBLIC "-//W3C//DTD SVG 1.1//EN"
  "http://www.w3.org/Graphics/SVG/1.1/DTD/svg11.dtd">
<svg xmlns:xlink="http://www.w3.org/1999/xlink" width="571.921237pt" height="344.160273pt" viewBox="0 0 571.921237 344.160273" xmlns="http://www.w3.org/2000/svg" version="1.1">
 <metadata>
  <rdf:RDF xmlns:dc="http://purl.org/dc/elements/1.1/" xmlns:cc="http://creativecommons.org/ns#" xmlns:rdf="http://www.w3.org/1999/02/22-rdf-syntax-ns#">
   <cc:Work>
    <dc:type rdf:resource="http://purl.org/dc/dcmitype/StillImage"/>
    <dc:date>2026-07-10T11:48:28.359037</dc:date>
    <dc:format>image/svg+xml</dc:format>
    <dc:creator>
     <cc:Agent>
      <dc:title>Matplotlib v3.11.0, https://matplotlib.org/</dc:title>
     </cc:Agent>
    </dc:creator>
   </cc:Work>
  </rdf:RDF>
 </metadata>
 <defs>
  <style type="text/css">*{stroke-linejoin: round; stroke-linecap: butt}</style>
 </defs>
 <g id="figure_1">
  <g id="patch_1">
   <path d="M 0 344.160273 
L 571.921237 344.160273 
L 571.921237 0 
L 0 0 
z
" style="fill: #ffffff"/>
  </g>
  <g id="axes_1">
   <g id="patch_2">
    <path d="M 47.298945 303.182656 
L 495.300273 303.182656 
L 495.300273 39.679004 
L 47.298945 39.679004 
z
" style="fill: #ffffff"/>
   </g>
   <g id="matplotlib.axis_1">
    <g id="xtick_1">
     <g id="line2d_1">
      <defs>
       <path id="m6e4633dbbd" d="M 0 0 
L 0 -6 
" style="stroke: #000000; stroke-width: 0.8"/>
      </defs>
      <g>
       <use xlink:href="#m6e4633dbbd" x="105.733901" y="303.182656" style="stroke: #000000; stroke-width: 0.8"/>
      </g>
     </g>
     <g id="text_1">
      <!-- 200 -->
      <g transform="translate(94.055932 316.875039) scale(0.14 -0.14)">
       <defs>
        <path id="ArialMT-15" d="M 3222 541 
L 3222 0 
L 194 0 
Q 188 203 259 391 
Q 375 700 629 1000 
Q 884 1300 1366 1694 
Q 2113 2306 2375 2664 
Q 2638 3022 2638 3341 
Q 2638 3675 2398 3904 
Q 2159 4134 1775 4134 
Q 1369 4134 1125 3890 
Q 881 3647 878 3216 
L 300 3275 
Q 359 3922 746 4261 
Q 1134 4600 1788 4600 
Q 2447 4600 2831 4234 
Q 3216 3869 3216 3328 
Q 3216 3053 3103 2787 
Q 2991 2522 2730 2228 
Q 2469 1934 1863 1422 
Q 1356 997 1212 845 
Q 1069 694 975 541 
L 3222 541 
z
" transform="scale(0.015625)"/>
        <path id="ArialMT-13" d="M 266 2259 
Q 266 3072 433 3567 
Q 600 4063 929 4331 
Q 1259 4600 1759 4600 
Q 2128 4600 2406 4451 
Q 2684 4303 2865 4023 
Q 3047 3744 3150 3342 
Q 3253 2941 3253 2259 
Q 3253 1453 3087 958 
Q 2922 463 2592 192 
Q 2263 -78 1759 -78 
Q 1097 -78 719 397 
Q 266 969 266 2259 
z
M 844 2259 
Q 844 1131 1108 757 
Q 1372 384 1759 384 
Q 2147 384 2411 759 
Q 2675 1134 2675 2259 
Q 2675 3391 2411 3762 
Q 2147 4134 1753 4134 
Q 1366 4134 1134 3806 
Q 844 3388 844 2259 
z
" transform="scale(0.015625)"/>
       </defs>
       <use xlink:href="#ArialMT-15"/>
       <use xlink:href="#ArialMT-13" transform="translate(55.609375 0)"/>
       <use xlink:href="#ArialMT-13" transform="translate(111.21875 0)"/>
      </g>
     </g>
    </g>
    <g id="xtick_2">
     <g id="line2d_2">
      <g>
       <use xlink:href="#m6e4633dbbd" x="183.647176" y="303.182656" style="stroke: #000000; stroke-width: 0.8"/>
      </g>
     </g>
     <g id="text_2">
      <!-- 400 -->
      <g transform="translate(171.969207 316.875039) scale(0.14 -0.14)">
       <defs>
        <path id="ArialMT-17" d="M 2069 0 
L 2069 1097 
L 81 1097 
L 81 1613 
L 2172 4581 
L 2631 4581 
L 2631 1613 
L 3250 1613 
L 3250 1097 
L 2631 1097 
L 2631 0 
L 2069 0 
z
M 2069 1613 
L 2069 3678 
L 634 1613 
L 2069 1613 
z
" transform="scale(0.015625)"/>
       </defs>
       <use xlink:href="#ArialMT-17"/>
       <use xlink:href="#ArialMT-13" transform="translate(55.609375 0)"/>
       <use xlink:href="#ArialMT-13" transform="translate(111.21875 0)"/>
      </g>
     </g>
    </g>
    <g id="xtick_3">
     <g id="line2d_3">
      <g>
       <use xlink:href="#m6e4633dbbd" x="261.56045" y="303.182656" style="stroke: #000000; stroke-width: 0.8"/>
      </g>
     </g>
     <g id="text_3">
      <!-- 600 -->
      <g transform="translate(249.882481 316.875039) scale(0.14 -0.14)">
       <defs>
        <path id="ArialMT-19" d="M 3184 3459 
L 2625 3416 
Q 2550 3747 2413 3897 
Q 2184 4138 1850 4138 
Q 1581 4138 1378 3988 
Q 1113 3794 959 3422 
Q 806 3050 800 2363 
Q 1003 2672 1297 2822 
Q 1591 2972 1913 2972 
Q 2475 2972 2870 2558 
Q 3266 2144 3266 1488 
Q 3266 1056 3080 686 
Q 2894 316 2569 119 
Q 2244 -78 1831 -78 
Q 1128 -78 684 439 
Q 241 956 241 2144 
Q 241 3472 731 4075 
Q 1159 4600 1884 4600 
Q 2425 4600 2770 4297 
Q 3116 3994 3184 3459 
z
M 888 1484 
Q 888 1194 1011 928 
Q 1134 663 1356 523 
Q 1578 384 1822 384 
Q 2178 384 2434 671 
Q 2691 959 2691 1453 
Q 2691 1928 2437 2201 
Q 2184 2475 1800 2475 
Q 1419 2475 1153 2201 
Q 888 1928 888 1484 
z
" transform="scale(0.015625)"/>
       </defs>
       <use xlink:href="#ArialMT-19"/>
       <use xlink:href="#ArialMT-13" transform="translate(55.609375 0)"/>
       <use xlink:href="#ArialMT-13" transform="translate(111.21875 0)"/>
      </g>
     </g>
    </g>
    <g id="xtick_4">
     <g id="line2d_4">
      <g>
       <use xlink:href="#m6e4633dbbd" x="339.473725" y="303.182656" style="stroke: #000000; stroke-width: 0.8"/>
      </g>
     </g>
     <g id="text_4">
      <!-- 800 -->
      <g transform="translate(327.795756 316.875039) scale(0.14 -0.14)">
       <defs>
        <path id="ArialMT-1b" d="M 1131 2484 
Q 781 2613 612 2850 
Q 444 3088 444 3419 
Q 444 3919 803 4259 
Q 1163 4600 1759 4600 
Q 2359 4600 2725 4251 
Q 3091 3903 3091 3403 
Q 3091 3084 2923 2848 
Q 2756 2613 2416 2484 
Q 2838 2347 3058 2040 
Q 3278 1734 3278 1309 
Q 3278 722 2862 322 
Q 2447 -78 1769 -78 
Q 1091 -78 675 323 
Q 259 725 259 1325 
Q 259 1772 486 2073 
Q 713 2375 1131 2484 
z
M 1019 3438 
Q 1019 3113 1228 2906 
Q 1438 2700 1772 2700 
Q 2097 2700 2305 2904 
Q 2513 3109 2513 3406 
Q 2513 3716 2298 3927 
Q 2084 4138 1766 4138 
Q 1444 4138 1231 3931 
Q 1019 3725 1019 3438 
z
M 838 1322 
Q 838 1081 952 856 
Q 1066 631 1291 507 
Q 1516 384 1775 384 
Q 2178 384 2440 643 
Q 2703 903 2703 1303 
Q 2703 1709 2433 1975 
Q 2163 2241 1756 2241 
Q 1359 2241 1098 1978 
Q 838 1716 838 1322 
z
" transform="scale(0.015625)"/>
       </defs>
       <use xlink:href="#ArialMT-1b"/>
       <use xlink:href="#ArialMT-13" transform="translate(55.609375 0)"/>
       <use xlink:href="#ArialMT-13" transform="translate(111.21875 0)"/>
      </g>
     </g>
    </g>
    <g id="xtick_5">
     <g id="line2d_5">
      <g>
       <use xlink:href="#m6e4633dbbd" x="417.386999" y="303.182656" style="stroke: #000000; stroke-width: 0.8"/>
      </g>
     </g>
     <g id="text_5">
      <!-- 1000 -->
      <g transform="translate(401.816374 316.875039) scale(0.14 -0.14)">
       <defs>
        <path id="ArialMT-14" d="M 2384 0 
L 1822 0 
L 1822 3584 
Q 1619 3391 1289 3197 
Q 959 3003 697 2906 
L 697 3450 
Q 1169 3672 1522 3987 
Q 1875 4303 2022 4600 
L 2384 4600 
L 2384 0 
z
" transform="scale(0.015625)"/>
       </defs>
       <use xlink:href="#ArialMT-14"/>
       <use xlink:href="#ArialMT-13" transform="translate(55.609375 0)"/>
       <use xlink:href="#ArialMT-13" transform="translate(111.21875 0)"/>
       <use xlink:href="#ArialMT-13" transform="translate(166.828125 0)"/>
      </g>
     </g>
    </g>
    <g id="xtick_6">
     <g id="line2d_6">
      <g>
       <use xlink:href="#m6e4633dbbd" x="495.300273" y="303.182656" style="stroke: #000000; stroke-width: 0.8"/>
      </g>
     </g>
     <g id="text_6">
      <!-- 1200 -->
      <g transform="translate(479.729648 316.875039) scale(0.14 -0.14)">
       <use xlink:href="#ArialMT-14"/>
       <use xlink:href="#ArialMT-15" transform="translate(55.609375 0)"/>
       <use xlink:href="#ArialMT-13" transform="translate(111.21875 0)"/>
       <use xlink:href="#ArialMT-13" transform="translate(166.828125 0)"/>
      </g>
     </g>
    </g>
    <g id="text_7">
     <!-- T1 Temperature (°C) -->
     <g transform="translate(207.560234 334.013711) scale(0.14 -0.14)">
      <defs>
       <path id="ArialMT-37" d="M 1659 0 
L 1659 4041 
L 150 4041 
L 150 4581 
L 3781 4581 
L 3781 4041 
L 2266 4041 
L 2266 0 
L 1659 0 
z
" transform="scale(0.015625)"/>
       <path id="ArialMT-3" transform="scale(0.015625)"/>
       <path id="ArialMT-48" d="M 2694 1069 
L 3275 997 
Q 3138 488 2766 206 
Q 2394 -75 1816 -75 
Q 1088 -75 661 373 
Q 234 822 234 1631 
Q 234 2469 665 2931 
Q 1097 3394 1784 3394 
Q 2450 3394 2872 2941 
Q 3294 2488 3294 1666 
Q 3294 1616 3291 1516 
L 816 1516 
Q 847 969 1125 678 
Q 1403 388 1819 388 
Q 2128 388 2347 550 
Q 2566 713 2694 1069 
z
M 847 1978 
L 2700 1978 
Q 2663 2397 2488 2606 
Q 2219 2931 1791 2931 
Q 1403 2931 1139 2672 
Q 875 2413 847 1978 
z
" transform="scale(0.015625)"/>
       <path id="ArialMT-50" d="M 422 0 
L 422 3319 
L 925 3319 
L 925 2853 
Q 1081 3097 1340 3245 
Q 1600 3394 1931 3394 
Q 2300 3394 2536 3241 
Q 2772 3088 2869 2813 
Q 3263 3394 3894 3394 
Q 4388 3394 4653 3120 
Q 4919 2847 4919 2278 
L 4919 0 
L 4359 0 
L 4359 2091 
Q 4359 2428 4304 2576 
Q 4250 2725 4106 2815 
Q 3963 2906 3769 2906 
Q 3419 2906 3187 2673 
Q 2956 2441 2956 1928 
L 2956 0 
L 2394 0 
L 2394 2156 
Q 2394 2531 2256 2718 
Q 2119 2906 1806 2906 
Q 1569 2906 1367 2781 
Q 1166 2656 1075 2415 
Q 984 2175 984 1722 
L 984 0 
L 422 0 
z
" transform="scale(0.015625)"/>
       <path id="ArialMT-53" d="M 422 -1272 
L 422 3319 
L 934 3319 
L 934 2888 
Q 1116 3141 1344 3267 
Q 1572 3394 1897 3394 
Q 2322 3394 2647 3175 
Q 2972 2956 3137 2557 
Q 3303 2159 3303 1684 
Q 3303 1175 3120 767 
Q 2938 359 2589 142 
Q 2241 -75 1856 -75 
Q 1575 -75 1351 44 
Q 1128 163 984 344 
L 984 -1272 
L 422 -1272 
z
M 931 1641 
Q 931 1000 1190 694 
Q 1450 388 1819 388 
Q 2194 388 2461 705 
Q 2728 1022 2728 1688 
Q 2728 2322 2467 2637 
Q 2206 2953 1844 2953 
Q 1484 2953 1207 2617 
Q 931 2281 931 1641 
z
" transform="scale(0.015625)"/>
       <path id="ArialMT-55" d="M 416 0 
L 416 3319 
L 922 3319 
L 922 2816 
Q 1116 3169 1280 3281 
Q 1444 3394 1641 3394 
Q 1925 3394 2219 3213 
L 2025 2691 
Q 1819 2813 1613 2813 
Q 1428 2813 1281 2702 
Q 1134 2591 1072 2394 
Q 978 2094 978 1738 
L 978 0 
L 416 0 
z
" transform="scale(0.015625)"/>
       <path id="ArialMT-44" d="M 2588 409 
Q 2275 144 1986 34 
Q 1697 -75 1366 -75 
Q 819 -75 525 192 
Q 231 459 231 875 
Q 231 1119 342 1320 
Q 453 1522 633 1644 
Q 813 1766 1038 1828 
Q 1203 1872 1538 1913 
Q 2219 1994 2541 2106 
Q 2544 2222 2544 2253 
Q 2544 2597 2384 2738 
Q 2169 2928 1744 2928 
Q 1347 2928 1158 2789 
Q 969 2650 878 2297 
L 328 2372 
Q 403 2725 575 2942 
Q 747 3159 1072 3276 
Q 1397 3394 1825 3394 
Q 2250 3394 2515 3294 
Q 2781 3194 2906 3042 
Q 3031 2891 3081 2659 
Q 3109 2516 3109 2141 
L 3109 1391 
Q 3109 606 3145 398 
Q 3181 191 3288 0 
L 2700 0 
Q 2613 175 2588 409 
z
M 2541 1666 
Q 2234 1541 1622 1453 
Q 1275 1403 1131 1340 
Q 988 1278 909 1158 
Q 831 1038 831 891 
Q 831 666 1001 516 
Q 1172 366 1500 366 
Q 1825 366 2078 508 
Q 2331 650 2450 897 
Q 2541 1088 2541 1459 
L 2541 1666 
z
" transform="scale(0.015625)"/>
       <path id="ArialMT-57" d="M 1650 503 
L 1731 6 
Q 1494 -44 1306 -44 
Q 1000 -44 831 53 
Q 663 150 594 308 
Q 525 466 525 972 
L 525 2881 
L 113 2881 
L 113 3319 
L 525 3319 
L 525 4141 
L 1084 4478 
L 1084 3319 
L 1650 3319 
L 1650 2881 
L 1084 2881 
L 1084 941 
Q 1084 700 1114 631 
Q 1144 563 1211 522 
Q 1278 481 1403 481 
Q 1497 481 1650 503 
z
" transform="scale(0.015625)"/>
       <path id="ArialMT-58" d="M 2597 0 
L 2597 488 
Q 2209 -75 1544 -75 
Q 1250 -75 995 37 
Q 741 150 617 320 
Q 494 491 444 738 
Q 409 903 409 1263 
L 409 3319 
L 972 3319 
L 972 1478 
Q 972 1038 1006 884 
Q 1059 663 1231 536 
Q 1403 409 1656 409 
Q 1909 409 2131 539 
Q 2353 669 2445 892 
Q 2538 1116 2538 1541 
L 2538 3319 
L 3100 3319 
L 3100 0 
L 2597 0 
z
" transform="scale(0.015625)"/>
       <path id="ArialMT-b" d="M 1497 -1347 
Q 1031 -759 709 28 
Q 388 816 388 1659 
Q 388 2403 628 3084 
Q 909 3875 1497 4659 
L 1900 4659 
Q 1522 4009 1400 3731 
Q 1209 3300 1100 2831 
Q 966 2247 966 1656 
Q 966 153 1900 -1347 
L 1497 -1347 
z
" transform="scale(0.015625)"/>
       <path id="ArialMT-83" d="M 400 3794 
Q 400 4153 654 4406 
Q 909 4659 1266 4659 
Q 1628 4659 1881 4406 
Q 2134 4153 2134 3794 
Q 2134 3434 1879 3179 
Q 1625 2925 1266 2925 
Q 909 2925 654 3178 
Q 400 3431 400 3794 
z
M 741 3794 
Q 741 3575 895 3420 
Q 1050 3266 1269 3266 
Q 1484 3266 1639 3420 
Q 1794 3575 1794 3794 
Q 1794 4013 1639 4167 
Q 1484 4322 1269 4322 
Q 1050 4322 895 4167 
Q 741 4013 741 3794 
z
" transform="scale(0.015625)"/>
       <path id="ArialMT-26" d="M 3763 1606 
L 4369 1453 
Q 4178 706 3683 314 
Q 3188 -78 2472 -78 
Q 1731 -78 1267 223 
Q 803 525 561 1097 
Q 319 1669 319 2325 
Q 319 3041 592 3573 
Q 866 4106 1370 4382 
Q 1875 4659 2481 4659 
Q 3169 4659 3637 4309 
Q 4106 3959 4291 3325 
L 3694 3184 
Q 3534 3684 3231 3912 
Q 2928 4141 2469 4141 
Q 1941 4141 1586 3887 
Q 1231 3634 1087 3207 
Q 944 2781 944 2328 
Q 944 1744 1114 1308 
Q 1284 872 1643 656 
Q 2003 441 2422 441 
Q 2931 441 3284 734 
Q 3638 1028 3763 1606 
z
" transform="scale(0.015625)"/>
       <path id="ArialMT-c" d="M 791 -1347 
L 388 -1347 
Q 1322 153 1322 1656 
Q 1322 2244 1188 2822 
Q 1081 3291 891 3722 
Q 769 4003 388 4659 
L 791 4659 
Q 1378 3875 1659 3084 
Q 1900 2403 1900 1659 
Q 1900 816 1576 28 
Q 1253 -759 791 -1347 
z
" transform="scale(0.015625)"/>
      </defs>
      <use xlink:href="#ArialMT-37"/>
      <use xlink:href="#ArialMT-14" transform="translate(61.078125 0)"/>
      <use xlink:href="#ArialMT-3" transform="translate(116.6875 0)"/>
      <use xlink:href="#ArialMT-37" transform="translate(142.65625 0)"/>
      <use xlink:href="#ArialMT-48" transform="translate(192.65625 0)"/>
      <use xlink:href="#ArialMT-50" transform="translate(248.265625 0)"/>
      <use xlink:href="#ArialMT-53" transform="translate(331.5625 0)"/>
      <use xlink:href="#ArialMT-48" transform="translate(387.171875 0)"/>
      <use xlink:href="#ArialMT-55" transform="translate(442.78125 0)"/>
      <use xlink:href="#ArialMT-44" transform="translate(476.078125 0)"/>
      <use xlink:href="#ArialMT-57" transform="translate(531.6875 0)"/>
      <use xlink:href="#ArialMT-58" transform="translate(559.46875 0)"/>
      <use xlink:href="#ArialMT-55" transform="translate(615.078125 0)"/>
      <use xlink:href="#ArialMT-48" transform="translate(648.375 0)"/>
      <use xlink:href="#ArialMT-3" transform="translate(703.984375 0)"/>
      <use xlink:href="#ArialMT-b" transform="translate(731.765625 0)"/>
      <use xlink:href="#ArialMT-83" transform="translate(765.0625 0)"/>
      <use xlink:href="#ArialMT-26" transform="translate(805.046875 0)"/>
      <use xlink:href="#ArialMT-c" transform="translate(877.265625 0)"/>
     </g>
    </g>
   </g>
   <g id="matplotlib.axis_2">
    <g id="ytick_1">
     <g id="line2d_7">
      <defs>
       <path id="m14c0e17714" d="M 0 0 
L 6 0 
" style="stroke: #000000; stroke-width: 0.8"/>
      </defs>
      <g>
       <use xlink:href="#m14c0e17714" x="47.298945" y="291.33426" style="stroke: #000000; stroke-width: 0.8"/>
      </g>
     </g>
     <g id="text_8">
      <!-- 0.0 -->
      <g transform="translate(24.338945 296.430451) scale(0.14 -0.14)">
       <defs>
        <path id="ArialMT-11" d="M 581 0 
L 581 641 
L 1222 641 
L 1222 0 
L 581 0 
z
" transform="scale(0.015625)"/>
       </defs>
       <use xlink:href="#ArialMT-13"/>
       <use xlink:href="#ArialMT-11" transform="translate(55.609375 0)"/>
       <use xlink:href="#ArialMT-13" transform="translate(83.390625 0)"/>
      </g>
     </g>
    </g>
    <g id="ytick_2">
     <g id="line2d_8">
      <g>
       <use xlink:href="#m14c0e17714" x="47.298945" y="254.395487" style="stroke: #000000; stroke-width: 0.8"/>
      </g>
     </g>
     <g id="text_9">
      <!-- 0.5 -->
      <g transform="translate(24.338945 259.491678) scale(0.14 -0.14)">
       <defs>
        <path id="ArialMT-18" d="M 266 1200 
L 856 1250 
Q 922 819 1161 601 
Q 1400 384 1738 384 
Q 2144 384 2425 690 
Q 2706 997 2706 1503 
Q 2706 1984 2436 2262 
Q 2166 2541 1728 2541 
Q 1456 2541 1237 2417 
Q 1019 2294 894 2097 
L 366 2166 
L 809 4519 
L 3088 4519 
L 3088 3981 
L 1259 3981 
L 1013 2750 
Q 1425 3038 1878 3038 
Q 2478 3038 2890 2622 
Q 3303 2206 3303 1553 
Q 3303 931 2941 478 
Q 2500 -78 1738 -78 
Q 1113 -78 717 272 
Q 322 622 266 1200 
z
" transform="scale(0.015625)"/>
       </defs>
       <use xlink:href="#ArialMT-13"/>
       <use xlink:href="#ArialMT-11" transform="translate(55.609375 0)"/>
       <use xlink:href="#ArialMT-18" transform="translate(83.390625 0)"/>
      </g>
     </g>
    </g>
    <g id="ytick_3">
     <g id="line2d_9">
      <g>
       <use xlink:href="#m14c0e17714" x="47.298945" y="217.456713" style="stroke: #000000; stroke-width: 0.8"/>
      </g>
     </g>
     <g id="text_10">
      <!-- 1.0 -->
      <g transform="translate(24.338945 222.552905) scale(0.14 -0.14)">
       <use xlink:href="#ArialMT-14"/>
       <use xlink:href="#ArialMT-11" transform="translate(55.609375 0)"/>
       <use xlink:href="#ArialMT-13" transform="translate(83.390625 0)"/>
      </g>
     </g>
    </g>
    <g id="ytick_4">
     <g id="line2d_10">
      <g>
       <use xlink:href="#m14c0e17714" x="47.298945" y="180.51794" style="stroke: #000000; stroke-width: 0.8"/>
      </g>
     </g>
     <g id="text_11">
      <!-- 1.5 -->
      <g transform="translate(24.338945 185.614132) scale(0.14 -0.14)">
       <use xlink:href="#ArialMT-14"/>
       <use xlink:href="#ArialMT-11" transform="translate(55.609375 0)"/>
       <use xlink:href="#ArialMT-18" transform="translate(83.390625 0)"/>
      </g>
     </g>
    </g>
    <g id="ytick_5">
     <g id="line2d_11">
      <g>
       <use xlink:href="#m14c0e17714" x="47.298945" y="143.579167" style="stroke: #000000; stroke-width: 0.8"/>
      </g>
     </g>
     <g id="text_12">
      <!-- 2.0 -->
      <g transform="translate(24.338945 148.675358) scale(0.14 -0.14)">
       <use xlink:href="#ArialMT-15"/>
       <use xlink:href="#ArialMT-11" transform="translate(55.609375 0)"/>
       <use xlink:href="#ArialMT-13" transform="translate(83.390625 0)"/>
      </g>
     </g>
    </g>
    <g id="ytick_6">
     <g id="line2d_12">
      <g>
       <use xlink:href="#m14c0e17714" x="47.298945" y="106.640394" style="stroke: #000000; stroke-width: 0.8"/>
      </g>
     </g>
     <g id="text_13">
      <!-- 2.5 -->
      <g transform="translate(24.338945 111.736585) scale(0.14 -0.14)">
       <use xlink:href="#ArialMT-15"/>
       <use xlink:href="#ArialMT-11" transform="translate(55.609375 0)"/>
       <use xlink:href="#ArialMT-18" transform="translate(83.390625 0)"/>
      </g>
     </g>
    </g>
    <g id="ytick_7">
     <g id="line2d_13">
      <g>
       <use xlink:href="#m14c0e17714" x="47.298945" y="69.701621" style="stroke: #000000; stroke-width: 0.8"/>
      </g>
     </g>
     <g id="text_14">
      <!-- 3.0 -->
      <g transform="translate(24.338945 74.797812) scale(0.14 -0.14)">
       <defs>
        <path id="ArialMT-16" d="M 269 1209 
L 831 1284 
Q 928 806 1161 595 
Q 1394 384 1728 384 
Q 2125 384 2398 659 
Q 2672 934 2672 1341 
Q 2672 1728 2419 1979 
Q 2166 2231 1775 2231 
Q 1616 2231 1378 2169 
L 1441 2663 
Q 1497 2656 1531 2656 
Q 1891 2656 2178 2843 
Q 2466 3031 2466 3422 
Q 2466 3731 2256 3934 
Q 2047 4138 1716 4138 
Q 1388 4138 1169 3931 
Q 950 3725 888 3313 
L 325 3413 
Q 428 3978 793 4289 
Q 1159 4600 1703 4600 
Q 2078 4600 2393 4439 
Q 2709 4278 2876 4000 
Q 3044 3722 3044 3409 
Q 3044 3113 2884 2869 
Q 2725 2625 2413 2481 
Q 2819 2388 3044 2092 
Q 3269 1797 3269 1353 
Q 3269 753 2831 336 
Q 2394 -81 1725 -81 
Q 1122 -81 723 278 
Q 325 638 269 1209 
z
" transform="scale(0.015625)"/>
       </defs>
       <use xlink:href="#ArialMT-16"/>
       <use xlink:href="#ArialMT-11" transform="translate(55.609375 0)"/>
       <use xlink:href="#ArialMT-13" transform="translate(83.390625 0)"/>
      </g>
     </g>
    </g>
    <g id="text_15">
     <!-- Ion Current (m/z 17) -->
     <g transform="translate(17.392383 234.056768) rotate(-90) scale(0.14 -0.14)">
      <defs>
       <path id="ArialMT-2c" d="M 597 0 
L 597 4581 
L 1203 4581 
L 1203 0 
L 597 0 
z
" transform="scale(0.015625)"/>
       <path id="ArialMT-52" d="M 213 1659 
Q 213 2581 725 3025 
Q 1153 3394 1769 3394 
Q 2453 3394 2887 2945 
Q 3322 2497 3322 1706 
Q 3322 1066 3130 698 
Q 2938 331 2570 128 
Q 2203 -75 1769 -75 
Q 1072 -75 642 372 
Q 213 819 213 1659 
z
M 791 1659 
Q 791 1022 1069 705 
Q 1347 388 1769 388 
Q 2188 388 2466 706 
Q 2744 1025 2744 1678 
Q 2744 2294 2464 2611 
Q 2184 2928 1769 2928 
Q 1347 2928 1069 2612 
Q 791 2297 791 1659 
z
" transform="scale(0.015625)"/>
       <path id="ArialMT-51" d="M 422 0 
L 422 3319 
L 928 3319 
L 928 2847 
Q 1294 3394 1984 3394 
Q 2284 3394 2536 3286 
Q 2788 3178 2913 3003 
Q 3038 2828 3088 2588 
Q 3119 2431 3119 2041 
L 3119 0 
L 2556 0 
L 2556 2019 
Q 2556 2363 2490 2533 
Q 2425 2703 2258 2804 
Q 2091 2906 1866 2906 
Q 1506 2906 1245 2678 
Q 984 2450 984 1813 
L 984 0 
L 422 0 
z
" transform="scale(0.015625)"/>
       <path id="ArialMT-12" d="M 0 -78 
L 1328 4659 
L 1778 4659 
L 453 -78 
L 0 -78 
z
" transform="scale(0.015625)"/>
       <path id="ArialMT-5d" d="M 125 0 
L 125 456 
L 2238 2881 
Q 1878 2863 1603 2863 
L 250 2863 
L 250 3319 
L 2963 3319 
L 2963 2947 
L 1166 841 
L 819 456 
Q 1197 484 1528 484 
L 3063 484 
L 3063 0 
L 125 0 
z
" transform="scale(0.015625)"/>
       <path id="ArialMT-1a" d="M 303 3981 
L 303 4522 
L 3269 4522 
L 3269 4084 
Q 2831 3619 2401 2847 
Q 1972 2075 1738 1259 
Q 1569 684 1522 0 
L 944 0 
Q 953 541 1156 1306 
Q 1359 2072 1739 2783 
Q 2119 3494 2547 3981 
L 303 3981 
z
" transform="scale(0.015625)"/>
      </defs>
      <use xlink:href="#ArialMT-2c"/>
      <use xlink:href="#ArialMT-52" transform="translate(27.78125 0)"/>
      <use xlink:href="#ArialMT-51" transform="translate(83.390625 0)"/>
      <use xlink:href="#ArialMT-3" transform="translate(139 0)"/>
      <use xlink:href="#ArialMT-26" transform="translate(166.78125 0)"/>
      <use xlink:href="#ArialMT-58" transform="translate(239 0)"/>
      <use xlink:href="#ArialMT-55" transform="translate(294.609375 0)"/>
      <use xlink:href="#ArialMT-55" transform="translate(327.90625 0)"/>
      <use xlink:href="#ArialMT-48" transform="translate(361.203125 0)"/>
      <use xlink:href="#ArialMT-51" transform="translate(416.8125 0)"/>
      <use xlink:href="#ArialMT-57" transform="translate(472.421875 0)"/>
      <use xlink:href="#ArialMT-3" transform="translate(500.203125 0)"/>
      <use xlink:href="#ArialMT-b" transform="translate(527.984375 0)"/>
      <use xlink:href="#ArialMT-50" transform="translate(561.28125 0)"/>
      <use xlink:href="#ArialMT-12" transform="translate(644.578125 0)"/>
      <use xlink:href="#ArialMT-5d" transform="translate(672.359375 0)"/>
      <use xlink:href="#ArialMT-3" transform="translate(722.359375 0)"/>
      <use xlink:href="#ArialMT-14" transform="translate(750.140625 0)"/>
      <use xlink:href="#ArialMT-1a" transform="translate(805.75 0)"/>
      <use xlink:href="#ArialMT-c" transform="translate(861.359375 0)"/>
     </g>
    </g>
    <g id="text_16">
     <!-- 1e−11 -->
     <g transform="translate(47.298945 36.679004) scale(0.14 -0.14)">
      <defs>
       <path id="ArialMT-ed" d="M 3381 1997 
L 356 1997 
L 356 2522 
L 3381 2522 
L 3381 1997 
z
" transform="scale(0.015625)"/>
      </defs>
      <use xlink:href="#ArialMT-14"/>
      <use xlink:href="#ArialMT-48" transform="translate(55.609375 0)"/>
      <use xlink:href="#ArialMT-ed" transform="translate(111.21875 0)"/>
      <use xlink:href="#ArialMT-14" transform="translate(169.625 0)"/>
      <use xlink:href="#ArialMT-14" transform="translate(217.8125 0)"/>
     </g>
    </g>
   </g>
   <g id="line2d_14">
    <path d="M 46.286073 290.679358 
L 46.208159 290.964369 
L 46.208159 290.947418 
L 46.480856 290.992803 
L 48.857211 290.904902 
L 55.674622 291.046797 
L 66.037088 290.875883 
L 72.15328 290.783745 
L 73.399892 290.717773 
L 76.126857 290.888136 
L 79.944607 290.692741 
L 85.982886 290.524072 
L 88.515067 290.66312 
L 90.930379 290.458264 
L 93.345691 290.31452 
L 104.253549 289.459587 
L 110.330784 287.979171 
L 112.785052 287.07824 
L 118.940201 284.647211 
L 123.731868 281.600159 
L 124.97848 280.667124 
L 126.225092 279.478026 
L 128.757274 277.550233 
L 129.96493 276.836084 
L 131.094672 275.84129 
L 135.925295 272.400809 
L 140.833831 267.254604 
L 142.080444 266.257195 
L 143.288099 265.046988 
L 144.495755 264.293461 
L 145.781324 263.274993 
L 146.950023 262.129633 
L 153.027259 254.890831 
L 155.481527 253.024052 
L 156.728139 252.449517 
L 157.935795 251.723745 
L 159.182407 250.328494 
L 160.390063 248.582256 
L 161.519806 247.355559 
L 162.727461 245.713407 
L 167.635998 239.906147 
L 170.012353 236.274389 
L 171.258965 233.778364 
L 173.674276 227.449961 
L 174.920889 223.519975 
L 178.543856 208.364427 
L 179.790469 202.282405 
L 182.20578 188.582834 
L 183.491349 180.810297 
L 185.906661 165.127238 
L 187.231186 158.640066 
L 188.438842 153.335425 
L 189.646498 150.781999 
L 190.815197 149.179064 
L 191.983896 148.594257 
L 193.191552 148.831189 
L 194.360251 148.739135 
L 195.606863 149.325395 
L 196.853476 151.799275 
L 198.061131 155.254609 
L 200.5154 163.850654 
L 201.684099 169.366212 
L 204.138367 179.273617 
L 205.384979 182.522102 
L 206.553678 186.584692 
L 207.761334 190.09469 
L 209.007946 194.686477 
L 212.630914 205.481834 
L 219.915805 231.901413 
L 221.123461 235.829602 
L 222.370073 238.73106 
L 224.746428 243.131063 
L 225.954084 244.997057 
L 227.161739 246.418208 
L 228.330439 248.378248 
L 229.616008 249.847855 
L 232.031319 252.865987 
L 233.238975 254.243018 
L 234.446631 254.581289 
L 235.693243 253.262593 
L 236.861942 251.460534 
L 238.108554 248.799212 
L 239.31621 247.139916 
L 240.562823 247.42086 
L 241.731522 248.464328 
L 242.939177 251.056408 
L 245.393446 258.150747 
L 246.601101 261.024754 
L 247.7698 261.739134 
L 249.016413 262.281061 
L 250.224069 261.849434 
L 251.470681 262.120289 
L 255.132605 263.643972 
L 256.379217 263.87458 
L 258.794529 264.545687 
L 260.002185 264.509587 
L 261.248797 264.960746 
L 263.625152 265.306693 
L 264.793851 265.757138 
L 266.001507 265.675339 
L 267.287076 265.743892 
L 268.455775 265.633566 
L 269.702387 266.062517 
L 272.117699 266.097405 
L 274.53301 266.493737 
L 275.740666 266.352653 
L 276.948322 265.953748 
L 278.155978 265.072427 
L 279.40259 264.312614 
L 283.025557 259.404302 
L 284.27217 258.655172 
L 285.440869 258.758702 
L 286.648524 259.455601 
L 287.895137 260.343818 
L 289.102793 261.660773 
L 290.271492 263.337527 
L 291.557061 264.896896 
L 292.72576 265.5531 
L 293.972372 265.911793 
L 295.141071 266.5502 
L 298.725082 267.930157 
L 300.049608 268.222593 
L 301.29622 268.262434 
L 306.28267 269.414034 
L 313.489647 270.77931 
L 314.658347 271.376385 
L 315.943916 271.592851 
L 317.151571 272.024625 
L 319.566883 273.10078 
L 320.813495 273.660554 
L 321.982194 273.830208 
L 325.605162 275.309958 
L 328.05943 275.83126 
L 329.228129 276.426849 
L 331.64344 277.360956 
L 332.890053 277.618155 
L 334.097709 277.676518 
L 335.266408 277.912352 
L 336.474063 278.000539 
L 337.720676 277.966448 
L 338.928332 277.817108 
L 340.135987 277.80378 
L 344.96661 279.009807 
L 347.420879 279.979487 
L 348.628534 280.127543 
L 351.043846 280.618378 
L 352.251502 280.553077 
L 357.121081 281.293949 
L 358.328737 281.619214 
L 360.744048 281.643609 
L 361.873791 281.676838 
L 364.367016 281.304602 
L 365.613628 281.445173 
L 366.743371 281.726757 
L 367.951026 281.697581 
L 370.444251 282.169918 
L 371.573994 282.205407 
L 377.884969 281.89134 
L 379.326364 282.095445 
L 382.988288 282.144266 
L 385.52047 281.815667 
L 386.611256 281.922498 
L 387.935781 281.837536 
L 389.143437 281.640548 
L 391.558748 281.874987 
L 392.727448 282.049406 
L 397.597027 281.690797 
L 398.84364 281.747918 
L 402.505564 281.448848 
L 403.713219 281.232398 
L 406.050618 281.073148 
L 407.4141 281.209399 
L 409.751498 281.210917 
L 414.582121 282.034112 
L 419.412744 282.326679 
L 420.659357 282.319354 
L 421.750142 282.081127 
L 423.308408 281.956324 
L 424.399194 281.728731 
L 426.775549 281.757026 
L 430.359559 282.139526 
L 432.696957 282.609589 
L 436.397838 281.856238 
L 438.774193 281.818177 
L 441.267418 281.353527 
L 442.51403 281.294281 
L 443.682729 281.107322 
L 445.007255 281.10102 
L 446.020127 280.852617 
L 447.26674 280.747518 
L 449.682051 280.185189 
L 451.006577 279.709934 
L 452.214233 278.983911 
L 454.473718 277.876475 
L 456.031983 277.327633 
L 457.395465 277.083421 
L 458.719991 276.472508 
L 460.12243 276.072427 
L 461.135303 275.519935 
L 463.628527 274.531166 
L 464.914096 274.11638 
L 467.329408 272.45721 
L 468.34228 271.470824 
L 469.822633 270.560128 
L 470.757592 269.303247 
L 473.289773 267.273906 
L 475.666128 266.090734 
L 476.912741 265.51841 
L 479.522835 263.858078 
L 481.704407 262.140663 
L 487.859556 258.607701 
L 490.313824 256.152245 
L 491.482523 254.388547 
L 492.729135 252.176666 
L 494.014704 249.448452 
L 494.014704 249.448452 
" clip-path="url(#pefa06a05a0)" style="fill: none; stroke: #000000; stroke-width: 2.5; stroke-linecap: square"/>
   </g>
   <g id="line2d_15">
    <path d="M 45.662767 290.973557 
L 45.662767 290.998317 
L 45.584853 290.693564 
L 45.662767 290.712413 
L 58.71324 291.027263 
L 62.219337 290.917004 
L 64.478822 290.837447 
L 71.763713 290.839927 
L 75.698334 290.746717 
L 79.593998 290.515558 
L 86.878889 290.698847 
L 94.16378 290.585611 
L 97.747791 290.46666 
L 98.994403 290.449532 
L 101.448671 290.217625 
L 102.61737 290.108052 
L 108.694606 288.664145 
L 112.395486 287.484782 
L 114.849754 286.785594 
L 116.096367 286.392502 
L 117.304022 285.761033 
L 120.965946 283.381703 
L 128.250837 277.590163 
L 133.159374 271.463319 
L 134.405986 269.631734 
L 140.522178 261.827871 
L 144.184102 257.620669 
L 145.391758 256.034517 
L 146.5215 254.007782 
L 150.183424 248.860184 
L 152.715606 244.751395 
L 155.130917 241.210528 
L 158.792841 238.282155 
L 161.247109 236.650391 
L 162.376852 235.852439 
L 163.623464 234.041461 
L 164.792163 232.58907 
L 168.376174 226.359204 
L 170.869399 220.623047 
L 172.116011 216.662259 
L 174.492366 207.658415 
L 175.700022 203.656124 
L 178.193246 193.548603 
L 179.400902 187.53592 
L 180.608558 180.530286 
L 181.85517 174.093184 
L 183.101783 168.73396 
L 185.517094 157.228724 
L 186.763707 153.13583 
L 188.049276 150.894828 
L 189.256931 147.525113 
L 190.42563 146.426959 
L 191.633286 146.137119 
L 192.840942 147.640174 
L 194.087554 150.827501 
L 195.256254 155.479407 
L 196.463909 161.21046 
L 197.671565 167.912344 
L 200.086877 179.278234 
L 201.372446 184.321905 
L 203.787757 194.305562 
L 206.164112 202.815222 
L 207.449681 206.193626 
L 208.61838 209.743869 
L 211.072648 214.847094 
L 212.280304 217.809374 
L 213.449003 221.071808 
L 214.656659 224.053201 
L 218.318583 234.196826 
L 219.565195 236.325713 
L 220.772851 238.103087 
L 221.94155 239.328967 
L 223.149206 241.290108 
L 224.356862 242.858119 
L 225.564517 244.044699 
L 230.434097 251.239465 
L 231.680709 252.311477 
L 232.888365 252.962485 
L 234.096021 253.369865 
L 236.511332 254.504231 
L 237.718988 255.323262 
L 238.926644 256.421246 
L 240.1343 256.984154 
L 241.302999 257.868978 
L 242.549611 259.193932 
L 243.83518 259.491386 
L 245.042836 260.007441 
L 246.250492 260.738849 
L 247.497104 261.178256 
L 248.665803 261.81313 
L 249.873459 262.605614 
L 251.159028 262.971105 
L 252.327727 262.985035 
L 253.613296 263.208111 
L 254.781995 264.030489 
L 255.989651 264.127578 
L 257.197307 264.629329 
L 258.404962 265.458868 
L 259.651575 265.873093 
L 260.859231 266.497933 
L 262.066886 266.884488 
L 263.313499 267.033107 
L 265.650897 267.953595 
L 266.897509 268.280484 
L 268.105165 268.465566 
L 269.312821 268.438094 
L 270.520477 268.657858 
L 275.390056 269.043891 
L 276.597712 269.416435 
L 280.259636 269.957492 
L 281.428335 269.699939 
L 282.674947 269.762014 
L 285.129216 269.522872 
L 286.297915 269.51716 
L 287.544527 269.117988 
L 288.752183 268.865788 
L 289.959839 268.760724 
L 291.167494 268.900367 
L 294.751505 269.740384 
L 295.998117 269.702091 
L 300.94561 270.060656 
L 302.192223 270.553759 
L 303.438835 270.828536 
L 305.893103 271.17782 
L 307.061802 271.0907 
L 308.308415 270.870716 
L 309.555027 270.853321 
L 310.723726 271.189712 
L 311.970339 271.808879 
L 314.38565 273.403757 
L 316.762005 274.390053 
L 318.047574 274.932269 
L 320.423929 275.406208 
L 321.631585 275.557021 
L 331.292831 278.186859 
L 332.46153 278.238354 
L 336.16241 278.904751 
L 337.370066 279.094726 
L 338.538765 279.508225 
L 340.876163 279.923192 
L 343.369388 280.3131 
L 350.654279 280.684622 
L 351.978805 280.760627 
L 356.692558 281.7109 
L 359.146826 281.662588 
L 361.601094 281.825173 
L 362.769794 281.658743 
L 366.392761 281.81277 
L 367.639373 281.684391 
L 371.223384 282.006111 
L 373.599739 282.060677 
L 374.846351 281.872998 
L 376.13192 281.878846 
L 377.417489 281.691704 
L 380.222367 281.46226 
L 381.391066 281.674877 
L 385.16986 281.91845 
L 386.338559 281.888972 
L 388.714914 281.557611 
L 391.247095 281.349752 
L 394.831106 281.534223 
L 396.077718 281.727249 
L 403.323653 281.918569 
L 404.531309 282.060957 
L 405.738964 281.907146 
L 408.193233 282.156068 
L 414.231511 282.187768 
L 416.763693 282.461339 
L 417.854479 282.45767 
L 419.062134 282.576428 
L 420.191877 282.823455 
L 428.918164 283.745001 
L 437.176971 283.048253 
L 440.916808 283.053843 
L 442.04655 282.863236 
L 443.332119 282.790692 
L 444.461862 282.48646 
L 446.91613 282.237346 
L 450.617011 281.880784 
L 451.78571 281.77242 
L 459.577037 279.460625 
L 460.901563 279.451168 
L 463.122091 279.253171 
L 464.52453 279.271151 
L 465.615316 279.17 
L 468.108541 278.686783 
L 469.355153 278.196692 
L 470.445939 277.532505 
L 471.731508 276.892012 
L 472.783337 276.778928 
L 474.146819 276.354766 
L 475.354475 276.409147 
L 477.769787 276.288987 
L 479.016399 276.541639 
L 481.353797 276.721065 
L 482.639366 276.470259 
L 484.041805 276.377912 
L 484.937808 276.497878 
L 486.262334 276.226091 
L 487.508946 276.199787 
L 488.482862 275.723365 
L 491.17087 274.94088 
L 492.495396 274.351552 
L 493.469311 273.581732 
L 494.482184 272.595093 
L 494.482184 272.595093 
" clip-path="url(#pefa06a05a0)" style="fill: none; stroke: #1f77b4; stroke-width: 2.5; stroke-linecap: square"/>
   </g>
   <g id="line2d_16">
    <path d="M 45.2732 291.083057 
L 45.234244 290.914483 
L 45.312157 290.954134 
L 46.714596 291.004484 
L 62.8816 290.911222 
L 65.180042 290.805071 
L 73.828415 290.932169 
L 76.516423 290.781125 
L 79.126518 290.822755 
L 82.710529 290.805912 
L 98.643793 290.015621 
L 99.812492 289.835332 
L 100.903278 289.83829 
L 108.343996 287.774988 
L 111.966963 286.048705 
L 113.213576 285.726778 
L 115.667844 284.187003 
L 116.875499 283.194352 
L 118.161068 282.462713 
L 121.822992 279.606213 
L 122.991691 279.053098 
L 126.731529 276.622438 
L 129.14684 273.926809 
L 130.315539 272.560167 
L 131.562152 270.854647 
L 133.977463 268.193364 
L 135.224076 266.929279 
L 138.885999 264.066714 
L 140.054699 262.665862 
L 142.547923 260.294089 
L 144.963235 256.496067 
L 146.209847 253.937381 
L 148.625159 250.276232 
L 151.079427 247.60621 
L 152.287083 246.546808 
L 154.702394 245.630189 
L 157.117706 242.791701 
L 159.571974 239.676344 
L 161.987285 235.707539 
L 164.441553 230.551524 
L 165.649209 227.681026 
L 168.064521 220.543135 
L 169.272176 217.124543 
L 170.440876 213.14559 
L 171.687488 209.318997 
L 174.102799 200.159336 
L 176.557068 192.008763 
L 179.050292 180.424107 
L 181.504561 171.189087 
L 182.712216 167.215994 
L 185.205441 160.624699 
L 187.581796 159.555259 
L 188.789452 159.401199 
L 189.997107 159.938196 
L 191.204763 162.840521 
L 192.412419 166.878676 
L 196.1133 181.726844 
L 198.450698 190.390541 
L 199.736267 193.353606 
L 200.982879 195.800578 
L 202.190535 199.732333 
L 203.320277 203.019015 
L 204.605846 206.166484 
L 205.774546 209.48679 
L 208.228814 214.398176 
L 209.436469 216.496409 
L 210.683082 218.986588 
L 211.890738 221.116801 
L 213.098393 223.669696 
L 214.267092 226.818154 
L 215.474748 228.369317 
L 216.682404 231.006697 
L 219.175629 234.987005 
L 220.344328 237.369514 
L 221.59094 239.437284 
L 225.174951 244.424297 
L 226.382607 245.84416 
L 227.629219 246.516008 
L 230.044531 248.47521 
L 233.667498 250.183735 
L 234.91411 250.924854 
L 236.121766 251.394938 
L 237.329422 251.413183 
L 238.498121 252.486202 
L 239.744733 253.22193 
L 240.952389 254.16974 
L 242.121088 255.435136 
L 244.5364 256.494399 
L 245.821969 257.455767 
L 246.951711 258.085344 
L 248.23728 258.100432 
L 249.444936 258.302803 
L 250.613635 259.220517 
L 251.860247 259.444648 
L 253.067903 260.174152 
L 255.522171 261.864648 
L 259.145139 263.677421 
L 260.352794 263.737087 
L 261.56045 264.040625 
L 263.975762 264.332205 
L 268.884298 265.510745 
L 270.01404 266.031903 
L 273.714921 266.329141 
L 274.922577 265.968106 
L 276.169189 266.117056 
L 278.545544 266.039039 
L 279.831113 265.95978 
L 284.622779 266.807163 
L 287.116004 266.657386 
L 289.492359 266.987081 
L 290.777928 266.794911 
L 291.946627 266.909008 
L 293.115326 266.71672 
L 294.322982 266.77604 
L 295.569594 266.966018 
L 299.231518 267.181102 
L 300.439174 267.534457 
L 301.7637 268.083103 
L 303.049269 268.119826 
L 305.46458 268.388038 
L 306.672236 269.1012 
L 307.879892 269.388827 
L 309.087547 270.201282 
L 310.295203 271.175073 
L 311.463902 271.832384 
L 312.710515 272.885164 
L 313.957127 273.326377 
L 317.619051 274.110965 
L 318.78775 274.661127 
L 319.956449 274.758855 
L 322.410717 275.803724 
L 324.748116 276.786986 
L 330.825351 277.710223 
L 332.033007 277.586274 
L 339.356855 279.46832 
L 345.356177 280.313684 
L 348.979144 281.200549 
L 351.511325 281.385518 
L 352.680025 281.304847 
L 353.809767 281.566515 
L 357.510648 281.61246 
L 360.003872 281.81276 
L 364.756582 281.912677 
L 366.003194 282.25751 
L 367.171894 282.232951 
L 370.872774 282.669538 
L 372.041473 282.715451 
L 373.210172 282.447194 
L 375.625484 282.377103 
L 376.95001 282.317642 
L 378.430362 282.468875 
L 379.793844 282.40724 
L 381.0015 282.583319 
L 384.741337 282.521829 
L 385.910036 282.317568 
L 389.57196 282.334752 
L 392.026228 282.578975 
L 395.610239 282.686081 
L 397.947637 282.520452 
L 399.272163 282.757811 
L 400.479818 282.655171 
L 406.479141 282.994837 
L 407.76471 283.143294 
L 408.933409 283.088142 
L 411.34872 283.254655 
L 412.673246 282.891261 
L 413.802988 282.993154 
L 414.971687 282.905216 
L 416.296213 282.689513 
L 418.750481 283.070244 
L 419.91918 283.353083 
L 421.048923 283.425324 
L 424.632934 283.974561 
L 426.035372 284.202752 
L 428.255901 283.853345 
L 434.372093 283.322492 
L 436.865318 283.477188 
L 441.618027 282.91478 
L 442.86464 282.895796 
L 446.56552 282.404096 
L 448.863962 282.42228 
L 455.058067 282.254812 
L 457.979815 281.805856 
L 459.109557 281.269761 
L 460.395126 280.85529 
L 461.641739 280.701 
L 464.096007 280.028464 
L 465.225749 279.962651 
L 466.394449 279.741122 
L 467.602104 279.752711 
L 471.225072 279.083149 
L 472.549597 278.748211 
L 473.79621 278.629421 
L 474.809082 278.32744 
L 478.587876 277.770653 
L 479.717619 277.99239 
L 480.964231 277.960824 
L 482.210843 278.377936 
L 483.379542 278.623095 
L 485.794854 278.787095 
L 487.11938 278.935183 
L 490.547564 278.78267 
L 492.066873 278.976743 
L 493.274528 279.431815 
L 494.170531 280.226809 
L 494.170531 280.226809 
" clip-path="url(#pefa06a05a0)" style="fill: none; stroke: #d62728; stroke-width: 2.5; stroke-linecap: square"/>
   </g>
   <g id="line2d_17">
    <path d="M 47.065205 291.205218 
L 47.026249 290.77679 
L 46.987292 290.93136 
L 47.727468 291.072264 
L 51.038782 291.068475 
L 57.349758 291.029528 
L 63.738646 290.906968 
L 66.037088 290.697281 
L 69.621098 290.641692 
L 77.412426 290.816708 
L 82.359919 290.420807 
L 84.77523 290.205149 
L 86.021843 290.113917 
L 87.229498 290.184557 
L 88.398198 290.02615 
L 90.774552 290.054091 
L 94.436476 289.80495 
L 95.683089 289.557365 
L 96.890745 289.43737 
L 99.383969 288.982778 
L 100.591625 288.533402 
L 101.877194 288.446161 
L 103.006937 288.199264 
L 104.253549 287.755628 
L 106.66886 287.204849 
L 107.876516 286.849354 
L 109.084172 286.64127 
L 110.252871 286.148397 
L 111.460527 285.474003 
L 115.122451 283.735228 
L 117.615676 282.614476 
L 118.823331 281.796129 
L 120.069944 281.135752 
L 121.277599 280.226338 
L 123.731868 277.839565 
L 126.225092 275.975159 
L 127.471705 274.977375 
L 129.925973 273.276695 
L 131.133629 272.257792 
L 133.587897 269.761987 
L 138.496433 264.939956 
L 139.704089 263.52452 
L 140.911745 261.779377 
L 142.158357 260.189496 
L 150.572991 246.831493 
L 151.819603 244.642684 
L 153.027259 242.072882 
L 156.650226 235.807049 
L 157.857882 232.829947 
L 159.065538 230.281295 
L 160.234237 228.187435 
L 161.519806 226.16209 
L 162.766418 223.734618 
L 165.18173 216.777494 
L 166.428342 213.995465 
L 168.88261 206.074309 
L 170.051309 200.599917 
L 173.713233 185.334033 
L 174.842976 178.625239 
L 178.504899 153.745046 
L 179.790469 144.26446 
L 180.959168 134.562376 
L 182.166823 122.877404 
L 185.906661 95.064407 
L 187.114316 86.779101 
L 189.490671 68.659987 
L 190.77624 62.124144 
L 191.983896 56.561013 
L 193.230508 52.367568 
L 194.399207 51.656443 
L 195.606863 55.832945 
L 196.814519 62.140347 
L 198.061131 71.77841 
L 200.437486 96.225477 
L 202.891754 120.78237 
L 206.514722 149.681354 
L 207.761334 155.328194 
L 208.96899 158.859358 
L 210.176646 163.035484 
L 215.085182 182.975366 
L 216.331794 188.510218 
L 217.53945 194.951593 
L 218.786062 200.489845 
L 224.824341 217.031633 
L 226.031997 219.589026 
L 227.200696 222.443811 
L 228.447308 224.814956 
L 229.693921 226.361442 
L 230.901577 228.680625 
L 232.031319 230.473165 
L 233.200018 233.025485 
L 235.693243 235.823425 
L 239.355167 239.724448 
L 240.562823 240.475889 
L 241.731522 240.932665 
L 242.939177 242.32867 
L 244.224747 243.168785 
L 245.354489 244.520778 
L 250.224069 247.965928 
L 251.431724 248.532453 
L 252.63938 248.620588 
L 253.885993 249.094142 
L 255.093648 249.848404 
L 256.301304 250.079221 
L 257.50896 251.244599 
L 259.963228 253.100937 
L 261.09297 253.464397 
L 262.378539 253.752627 
L 263.586195 253.827689 
L 266.07942 253.603331 
L 267.248119 253.837745 
L 268.416818 253.744795 
L 270.871086 254.241602 
L 273.286398 255.184475 
L 274.53301 256.2234 
L 275.779623 257.110046 
L 276.987278 257.779554 
L 279.363633 258.537254 
L 280.571289 258.396979 
L 284.194256 257.445595 
L 286.609568 258.185922 
L 287.85618 258.137238 
L 289.102793 258.79629 
L 290.271492 259.032211 
L 291.479147 259.099227 
L 292.686803 259.34144 
L 293.933416 259.463294 
L 295.180028 259.125072 
L 296.270814 259.311495 
L 297.556383 259.851997 
L 300.010651 259.70109 
L 301.335177 260.204748 
L 302.581789 260.289543 
L 303.750488 260.661642 
L 306.1658 261.964551 
L 307.412412 262.31422 
L 309.86668 264.147796 
L 315.904959 267.255116 
L 317.112615 267.746237 
L 318.320271 268.465811 
L 320.696625 269.56426 
L 321.982194 270.347618 
L 324.358549 271.353411 
L 325.566205 272.105303 
L 334.019795 275.369247 
L 336.51302 275.845462 
L 337.681719 276.33546 
L 338.928332 276.523774 
L 340.135987 276.956975 
L 341.304686 277.13959 
L 346.135309 278.735328 
L 347.342965 278.926107 
L 348.667491 278.942852 
L 349.797233 279.196675 
L 352.212545 279.040295 
L 353.420201 279.132568 
L 357.043168 279.889255 
L 359.458479 280.62351 
L 361.912748 281.345605 
L 364.405972 281.593941 
L 365.574671 281.895474 
L 367.951026 281.867997 
L 370.366338 281.985562 
L 371.535037 281.87436 
L 373.950348 282.005399 
L 375.235917 282.220372 
L 376.36566 282.050978 
L 380.65089 281.942573 
L 385.559426 281.756191 
L 386.767082 281.865456 
L 389.143437 281.732305 
L 390.390049 281.46092 
L 392.727448 281.840918 
L 400.090252 281.76473 
L 402.466607 281.867615 
L 403.596349 282.42736 
L 404.842962 282.729206 
L 410.881241 283.010404 
L 413.413422 282.998344 
L 415.789777 283.481263 
L 416.919519 283.557339 
L 418.244045 283.431399 
L 424.32128 283.648388 
L 425.412066 283.792704 
L 426.736592 284.17524 
L 428.022161 284.379005 
L 429.151903 284.421389 
L 430.281646 284.223283 
L 438.813149 284.480404 
L 441.111591 283.89301 
L 442.436117 283.500888 
L 446.020127 283.156035 
L 447.26674 283.034957 
L 448.474395 282.723177 
L 449.604138 282.606217 
L 451.006577 282.255402 
L 452.097363 281.730806 
L 454.434761 281.231676 
L 455.993026 281.099521 
L 458.564165 280.546853 
L 459.966603 280.485994 
L 461.252172 280.245121 
L 462.615655 280.221098 
L 463.667484 279.801926 
L 464.797226 279.636036 
L 467.212538 279.075714 
L 473.32873 276.669196 
L 474.497429 276.383682 
L 478.120396 276.428369 
L 480.652578 276.954172 
L 481.938147 277.179617 
L 483.067889 277.654496 
L 484.314502 277.59228 
L 485.444244 277.658035 
L 486.41816 277.938087 
L 487.781642 277.945575 
L 489.067211 277.597562 
L 490.274867 277.091155 
L 491.443566 276.459415 
L 493.742008 274.952187 
L 493.742008 274.952187 
" clip-path="url(#pefa06a05a0)" style="fill: none; stroke: #ff7f0e; stroke-width: 2.5; stroke-linecap: square"/>
   </g>
   <g id="line2d_18">
    <path d="M 45.74068 291.069648 
L 45.74068 290.747199 
L 45.662767 291.039811 
L 45.662767 291.148211 
L 45.74068 290.98078 
L 48.701384 290.820954 
L 57.154975 290.958607 
L 64.322996 291.096796 
L 66.738307 291.104925 
L 71.646844 290.697142 
L 75.464594 290.671135 
L 79.399214 290.440661 
L 81.853483 290.202384 
L 86.723062 290.186099 
L 89.216287 289.970279 
L 92.878211 289.522648 
L 95.254566 289.067539 
L 97.747791 288.339293 
L 98.994403 288.200397 
L 105.071638 286.909131 
L 106.318251 286.290823 
L 107.48695 285.837458 
L 114.810798 281.920221 
L 115.94054 281.546997 
L 117.148196 280.736807 
L 118.433765 279.709432 
L 122.095689 277.717101 
L 123.303345 276.765004 
L 124.549957 275.959716 
L 125.796569 274.944265 
L 130.783019 270.041754 
L 131.990675 268.84369 
L 134.444943 266.778096 
L 135.652599 265.228611 
L 138.028953 262.710313 
L 142.898533 255.769874 
L 146.5215 251.568806 
L 150.183424 247.182946 
L 151.430037 245.310718 
L 156.26066 237.138958 
L 157.468315 234.51876 
L 159.922584 230.221854 
L 161.130239 227.551477 
L 163.545551 220.487519 
L 164.83112 217.422212 
L 166.077732 214.135466 
L 168.493044 206.481296 
L 169.700699 202.086942 
L 170.908355 198.660249 
L 172.116011 194.627155 
L 174.492366 183.373437 
L 175.700022 177.439165 
L 176.907677 172.790232 
L 178.115333 168.641026 
L 179.284032 163.859792 
L 184.231525 147.183484 
L 186.685793 136.658723 
L 187.893449 132.346232 
L 189.140061 131.13984 
L 190.347717 130.837172 
L 191.516416 131.06503 
L 192.763029 134.100499 
L 193.970684 137.950376 
L 195.217297 143.865223 
L 196.424953 150.660383 
L 197.671565 155.395242 
L 198.879221 161.447302 
L 201.294532 175.652861 
L 204.878543 190.663001 
L 208.50151 201.017983 
L 209.709166 203.125478 
L 210.994735 206.456304 
L 213.37109 213.5791 
L 214.578746 216.11203 
L 215.825358 219.797885 
L 217.07197 222.62067 
L 218.279626 224.530716 
L 220.694938 228.868362 
L 221.94155 230.57318 
L 223.110249 232.448905 
L 226.772173 237.425227 
L 228.018785 239.565884 
L 231.602796 243.012028 
L 232.810452 244.262097 
L 234.018108 244.900991 
L 235.303677 246.091346 
L 236.472376 246.756235 
L 237.680031 247.816986 
L 238.887687 248.704116 
L 241.302999 249.74326 
L 242.549611 250.54683 
L 243.757267 251.577726 
L 244.964923 252.338315 
L 246.172578 252.8704 
L 247.458147 254.117517 
L 249.873459 255.972758 
L 251.081115 256.944021 
L 252.249814 257.520435 
L 254.704082 259.75978 
L 255.872781 260.494339 
L 257.119393 260.984512 
L 258.288093 261.831596 
L 260.742361 263.009332 
L 261.91106 263.877286 
L 263.118716 264.519448 
L 265.534027 265.455987 
L 266.858553 265.674 
L 268.027252 265.606781 
L 269.195951 265.86921 
L 270.36465 265.927044 
L 271.650219 265.65002 
L 272.818918 266.127009 
L 275.312143 266.42488 
L 277.727455 266.297227 
L 281.389378 267.520738 
L 283.765733 267.864448 
L 285.012346 268.335102 
L 286.258958 267.985613 
L 289.842969 267.865205 
L 291.050624 268.504889 
L 292.297237 268.523083 
L 293.465936 268.81722 
L 294.712548 268.893142 
L 297.12786 269.401423 
L 299.582128 269.164106 
L 302.114309 269.853007 
L 303.399878 270.257355 
L 304.607534 270.437286 
L 305.81519 270.789667 
L 307.061802 271.02433 
L 308.308415 271.765465 
L 309.438157 272.582066 
L 310.606856 273.1102 
L 311.853469 273.429313 
L 314.26878 274.596496 
L 315.515393 274.949055 
L 316.723048 275.473337 
L 319.13836 275.99294 
L 320.307059 276.456169 
L 322.722371 276.987094 
L 323.930026 277.09141 
L 326.384294 277.690219 
L 328.799606 278.711588 
L 332.34466 280.054539 
L 333.708142 280.318994 
L 334.915798 280.731274 
L 336.04554 280.926718 
L 337.21424 280.998831 
L 338.538765 280.921296 
L 339.668508 281.005061 
L 340.837207 280.874544 
L 342.083819 280.86333 
L 344.577044 281.357422 
L 345.745743 281.563453 
L 348.238968 282.179764 
L 349.36871 282.421238 
L 350.576366 282.428212 
L 354.199333 283.156712 
L 355.406989 283.261082 
L 359.029956 283.15867 
L 362.652924 282.814086 
L 363.899536 283.005304 
L 365.146148 282.964369 
L 366.314848 283.075171 
L 367.483547 283.054788 
L 369.937815 283.364654 
L 371.145471 283.468221 
L 377.378533 282.7227 
L 380.105497 282.926056 
L 381.391066 283.106169 
L 382.559765 283.100317 
L 385.091947 282.724874 
L 386.299602 282.809638 
L 387.507258 282.575373 
L 393.467624 282.742258 
L 394.714236 282.936339 
L 395.921892 282.893062 
L 398.37616 283.295955 
L 399.544859 283.029406 
L 403.24574 283.350526 
L 404.375482 283.163496 
L 409.284018 283.95786 
L 410.530631 284.026181 
L 411.8162 283.910141 
L 413.023856 284.224788 
L 415.361254 284.42732 
L 416.56891 284.240517 
L 420.15292 284.328346 
L 421.360576 284.28715 
L 426.308069 284.693323 
L 427.554681 284.927559 
L 428.684424 284.946107 
L 431.060779 285.335483 
L 432.385304 285.332996 
L 433.515047 285.175725 
L 434.761659 285.260876 
L 435.930358 285.129212 
L 437.254884 284.816413 
L 438.46254 284.685212 
L 439.592282 284.190688 
L 445.630561 282.595257 
L 446.760303 282.539958 
L 448.045872 282.213796 
L 449.292485 282.023505 
L 450.500141 282.061092 
L 451.707796 281.828711 
L 455.447634 281.994759 
L 458.213555 282.255304 
L 459.53808 282.638646 
L 462.148175 282.710292 
L 463.394788 282.449925 
L 464.212877 282.075241 
L 465.381576 281.815698 
L 469.199326 280.630074 
L 470.406982 280.534577 
L 471.653595 280.555905 
L 472.900207 280.351007 
L 475.237605 280.282424 
L 480.224055 280.08648 
L 481.353797 280.281126 
L 486.262334 281.747562 
L 487.431033 281.965873 
L 489.885301 281.545608 
L 493.508268 280.300386 
L 494.365314 279.837411 
L 494.365314 279.837411 
" clip-path="url(#pefa06a05a0)" style="fill: none; stroke: #9467bd; stroke-width: 2.5; stroke-linecap: square"/>
   </g>
   <g id="line2d_19">
    <path d="M 46.792509 290.995836 
L 46.714596 290.590985 
L 46.714596 290.811931 
L 46.636682 290.818067 
L 47.298945 290.861888 
L 52.558091 290.949328 
L 54.77862 291.003148 
L 63.193253 290.428294 
L 65.530652 290.537894 
L 66.660394 290.683395 
L 71.646844 290.71476 
L 72.893456 290.575515 
L 80.684783 290.424726 
L 89.216287 290.085086 
L 94.085867 289.579782 
L 96.501178 289.313678 
L 98.91649 288.801391 
L 102.578414 288.183568 
L 103.786069 287.852933 
L 106.201381 286.903617 
L 107.447993 286.663325 
L 111.07096 284.50984 
L 114.732884 281.941499 
L 115.901583 280.784144 
L 118.316895 278.869956 
L 119.563507 277.990804 
L 120.81012 276.57586 
L 122.056732 275.633281 
L 128.250837 269.430368 
L 129.458493 267.999164 
L 135.574685 259.682363 
L 136.821298 258.390437 
L 140.522178 253.828921 
L 142.898533 251.274282 
L 144.145145 249.230233 
L 149.014725 242.267191 
L 152.637692 235.555036 
L 153.845348 233.968042 
L 155.014047 232.060759 
L 156.221703 229.683866 
L 157.507272 228.239544 
L 158.714928 225.151127 
L 159.883627 221.466155 
L 161.091283 218.335725 
L 162.337895 214.491619 
L 164.792163 204.937654 
L 169.622786 182.677247 
L 173.206797 161.857123 
L 175.661065 144.26785 
L 181.699344 96.874111 
L 185.439181 71.582324 
L 186.763707 64.954146 
L 187.971362 59.708992 
L 189.140061 58.234432 
L 190.386674 60.431561 
L 191.59433 64.329275 
L 192.840942 73.68691 
L 194.009641 84.443155 
L 197.671565 124.298486 
L 198.840264 135.622097 
L 201.294532 152.489106 
L 202.463231 159.550006 
L 203.709844 164.701751 
L 204.9175 170.625563 
L 206.164112 175.202053 
L 207.371768 179.049289 
L 208.540467 183.77791 
L 209.787079 188.027624 
L 210.994735 191.420306 
L 212.163434 195.873636 
L 213.410046 199.701276 
L 214.617702 204.043278 
L 215.864315 207.779719 
L 217.033014 212.157991 
L 218.279626 215.888087 
L 223.110249 227.163053 
L 224.356862 229.965412 
L 225.525561 231.745148 
L 226.772173 233.195514 
L 229.187485 236.359618 
L 230.434097 237.543005 
L 231.641753 238.240545 
L 232.849408 239.244545 
L 235.26472 242.20176 
L 236.472376 243.418088 
L 238.887687 244.72185 
L 240.095343 245.639791 
L 241.341955 246.269429 
L 243.757267 247.213367 
L 244.964923 247.747962 
L 246.172578 248.762778 
L 247.341277 250.106862 
L 251.003201 251.785831 
L 252.210857 252.5727 
L 253.418513 252.916727 
L 254.626169 253.456915 
L 257.080437 253.866121 
L 260.664447 255.328838 
L 261.872103 255.558969 
L 263.118716 256.091562 
L 265.534027 256.899777 
L 266.741683 257.533835 
L 267.910382 257.591447 
L 269.195951 257.829795 
L 271.650219 258.62902 
L 272.818918 258.642806 
L 273.987617 258.996411 
L 276.441885 258.974137 
L 277.649541 259.369405 
L 278.93511 259.502406 
L 280.142766 259.50097 
L 281.311465 259.633729 
L 282.480164 259.951447 
L 283.726777 260.837232 
L 284.895476 261.078966 
L 286.064175 261.558098 
L 287.232874 261.535559 
L 288.5574 261.916504 
L 289.726099 262.424623 
L 290.972711 262.536302 
L 293.388023 262.545322 
L 295.842291 263.411356 
L 297.049947 263.311688 
L 298.296559 263.592613 
L 303.360922 265.585632 
L 304.529621 265.96845 
L 306.867019 267.326955 
L 308.035718 267.363448 
L 310.528943 268.771735 
L 312.983211 270.096599 
L 314.229824 270.474845 
L 315.437479 271.082511 
L 317.852791 272.73659 
L 320.268102 273.644719 
L 321.475758 274.691689 
L 322.722371 275.011815 
L 326.384294 276.481059 
L 327.59195 276.662152 
L 328.721693 277.00401 
L 330.046218 277.219839 
L 331.175961 277.600729 
L 333.591272 277.955494 
L 334.798928 278.177044 
L 336.04554 278.781688 
L 337.331109 279.025022 
L 338.460852 279.572513 
L 340.993033 279.704172 
L 343.408345 280.000496 
L 344.577044 279.84098 
L 345.66783 280.105857 
L 346.992356 280.250118 
L 348.122098 280.551962 
L 349.36871 280.47421 
L 351.745065 280.987037 
L 353.030634 281.108778 
L 354.23829 281.356099 
L 356.614645 281.599427 
L 357.822301 281.788878 
L 359.029956 281.534062 
L 360.237612 281.494797 
L 361.523181 281.272259 
L 366.353804 281.69721 
L 367.522503 281.478004 
L 372.353126 281.408601 
L 373.560782 281.623399 
L 377.456446 281.729198 
L 378.780971 281.650826 
L 381.35211 281.384633 
L 385.091947 281.203311 
L 386.299602 281.433855 
L 387.468302 281.197037 
L 392.337881 282.024889 
L 394.714236 282.127273 
L 397.207461 282.648168 
L 400.791472 282.80784 
L 405.622095 282.772302 
L 409.284018 283.499508 
L 417.893435 283.316646 
L 420.191877 283.501854 
L 423.853801 283.930595 
L 425.334153 283.848222 
L 426.424939 283.934841 
L 428.645467 284.389763 
L 431.138692 284.325003 
L 432.385304 284.275336 
L 433.554003 283.977414 
L 434.644789 283.968471 
L 435.852445 283.634201 
L 437.138014 283.093628 
L 438.34567 282.740242 
L 439.631239 282.631946 
L 444.500818 281.67531 
L 446.79926 281.082378 
L 448.006916 281.02993 
L 449.253528 280.816554 
L 451.66884 280.611119 
L 452.915452 280.456758 
L 454.006238 280.554641 
L 455.447634 280.404582 
L 458.135642 280.308279 
L 459.460167 280.172879 
L 460.667823 280.27745 
L 461.875479 280.193946 
L 463.161048 279.738424 
L 465.537403 278.615292 
L 466.667145 278.410225 
L 467.796888 277.977978 
L 469.121413 277.945758 
L 470.329069 278.189686 
L 471.575681 278.114028 
L 472.86125 278.358437 
L 474.02995 278.759922 
L 475.198649 278.902853 
L 476.367348 279.335773 
L 478.860573 280.660784 
L 480.068228 281.064293 
L 482.561453 281.616804 
L 483.613282 281.44649 
L 485.054678 281.548514 
L 488.521819 281.362551 
L 491.092957 281.307412 
L 492.339569 281.121408 
L 494.482184 280.221586 
L 494.482184 280.221586 
" clip-path="url(#pefa06a05a0)" style="fill: none; stroke: #2ca02c; stroke-width: 2.5; stroke-linecap: square"/>
   </g>
   <g id="patch_3">
    <path d="M 47.298945 303.182656 
L 47.298945 39.679004 
" style="fill: none; stroke: #000000; stroke-width: 1.5; stroke-linejoin: miter; stroke-linecap: square"/>
   </g>
   <g id="patch_4">
    <path d="M 47.298945 303.182656 
L 495.300273 303.182656 
" style="fill: none; stroke: #000000; stroke-width: 1.5; stroke-linejoin: miter; stroke-linecap: square"/>
   </g>
   <g id="text_17">
    <!-- 1421_wo_HF -->
    <g transform="translate(229.664922 18.441699) scale(0.14 -0.14)">
     <defs>
      <path id="ArialMT-42" d="M -97 -1272 
L -97 -866 
L 3631 -866 
L 3631 -1272 
L -97 -1272 
z
" transform="scale(0.015625)"/>
      <path id="ArialMT-5a" d="M 1034 0 
L 19 3319 
L 600 3319 
L 1128 1403 
L 1325 691 
Q 1338 744 1497 1375 
L 2025 3319 
L 2603 3319 
L 3100 1394 
L 3266 759 
L 3456 1400 
L 4025 3319 
L 4572 3319 
L 3534 0 
L 2950 0 
L 2422 1988 
L 2294 2553 
L 1622 0 
L 1034 0 
z
" transform="scale(0.015625)"/>
      <path id="ArialMT-2b" d="M 513 0 
L 513 4581 
L 1119 4581 
L 1119 2700 
L 3500 2700 
L 3500 4581 
L 4106 4581 
L 4106 0 
L 3500 0 
L 3500 2159 
L 1119 2159 
L 1119 0 
L 513 0 
z
" transform="scale(0.015625)"/>
      <path id="ArialMT-29" d="M 525 0 
L 525 4581 
L 3616 4581 
L 3616 4041 
L 1131 4041 
L 1131 2622 
L 3281 2622 
L 3281 2081 
L 1131 2081 
L 1131 0 
L 525 0 
z
" transform="scale(0.015625)"/>
     </defs>
     <use xlink:href="#ArialMT-14"/>
     <use xlink:href="#ArialMT-17" transform="translate(55.609375 0)"/>
     <use xlink:href="#ArialMT-15" transform="translate(111.21875 0)"/>
     <use xlink:href="#ArialMT-14" transform="translate(166.828125 0)"/>
     <use xlink:href="#ArialMT-42" transform="translate(222.4375 0)"/>
     <use xlink:href="#ArialMT-5a" transform="translate(278.046875 0)"/>
     <use xlink:href="#ArialMT-52" transform="translate(350.265625 0)"/>
     <use xlink:href="#ArialMT-42" transform="translate(405.875 0)"/>
     <use xlink:href="#ArialMT-2b" transform="translate(461.484375 0)"/>
     <use xlink:href="#ArialMT-29" transform="translate(533.703125 0)"/>
    </g>
    <!-- m/z 17 -->
    <g transform="translate(250.294141 33.679004) scale(0.14 -0.14)">
     <use xlink:href="#ArialMT-50"/>
     <use xlink:href="#ArialMT-12" transform="translate(83.296875 0)"/>
     <use xlink:href="#ArialMT-5d" transform="translate(111.078125 0)"/>
     <use xlink:href="#ArialMT-3" transform="translate(161.078125 0)"/>
     <use xlink:href="#ArialMT-14" transform="translate(188.859375 0)"/>
     <use xlink:href="#ArialMT-1a" transform="translate(244.46875 0)"/>
    </g>
   </g>
   <g id="legend_1">
    <g id="line2d_20">
     <path d="M 513.2603 52.459277 
L 523.2603 52.459277 
L 533.2603 52.459277 
" style="fill: none; stroke: #000000; stroke-width: 2.5; stroke-linecap: square"/>
    </g>
    <g id="text_18">
     <!-- 0 h -->
     <g transform="translate(541.2603 55.959277) scale(0.1 -0.1)">
      <defs>
       <path id="ArialMT-4b" d="M 422 0 
L 422 4581 
L 984 4581 
L 984 2938 
Q 1378 3394 1978 3394 
Q 2347 3394 2619 3248 
Q 2891 3103 3008 2847 
Q 3125 2591 3125 2103 
L 3125 0 
L 2563 0 
L 2563 2103 
Q 2563 2525 2380 2717 
Q 2197 2909 1863 2909 
Q 1613 2909 1392 2779 
Q 1172 2650 1078 2428 
Q 984 2206 984 1816 
L 984 0 
L 422 0 
z
" transform="scale(0.015625)"/>
      </defs>
      <use xlink:href="#ArialMT-13"/>
      <use xlink:href="#ArialMT-3" transform="translate(55.609375 0)"/>
      <use xlink:href="#ArialMT-4b" transform="translate(83.390625 0)"/>
     </g>
    </g>
    <g id="line2d_21">
     <path d="M 513.2603 66.844043 
L 523.2603 66.844043 
L 533.2603 66.844043 
" style="fill: none; stroke: #1f77b4; stroke-width: 2.5; stroke-linecap: square"/>
    </g>
    <g id="text_19">
     <!-- 6 h -->
     <g transform="translate(541.2603 70.344043) scale(0.1 -0.1)">
      <use xlink:href="#ArialMT-19"/>
      <use xlink:href="#ArialMT-3" transform="translate(55.609375 0)"/>
      <use xlink:href="#ArialMT-4b" transform="translate(83.390625 0)"/>
     </g>
    </g>
    <g id="line2d_22">
     <path d="M 513.2603 81.228809 
L 523.2603 81.228809 
L 533.2603 81.228809 
" style="fill: none; stroke: #d62728; stroke-width: 2.5; stroke-linecap: square"/>
    </g>
    <g id="text_20">
     <!-- 24 h -->
     <g transform="translate(541.2603 84.728809) scale(0.1 -0.1)">
      <use xlink:href="#ArialMT-15"/>
      <use xlink:href="#ArialMT-17" transform="translate(55.609375 0)"/>
      <use xlink:href="#ArialMT-3" transform="translate(111.21875 0)"/>
      <use xlink:href="#ArialMT-4b" transform="translate(139 0)"/>
     </g>
    </g>
    <g id="line2d_23">
     <path d="M 513.2603 95.613574 
L 523.2603 95.613574 
L 533.2603 95.613574 
" style="fill: none; stroke: #ff7f0e; stroke-width: 2.5; stroke-linecap: square"/>
    </g>
    <g id="text_21">
     <!-- 7 d -->
     <g transform="translate(541.2603 99.113574) scale(0.1 -0.1)">
      <defs>
       <path id="ArialMT-47" d="M 2575 0 
L 2575 419 
Q 2259 -75 1647 -75 
Q 1250 -75 917 144 
Q 584 363 401 755 
Q 219 1147 219 1656 
Q 219 2153 384 2558 
Q 550 2963 881 3178 
Q 1213 3394 1622 3394 
Q 1922 3394 2156 3267 
Q 2391 3141 2538 2938 
L 2538 4581 
L 3097 4581 
L 3097 0 
L 2575 0 
z
M 797 1656 
Q 797 1019 1065 703 
Q 1334 388 1700 388 
Q 2069 388 2326 689 
Q 2584 991 2584 1609 
Q 2584 2291 2321 2609 
Q 2059 2928 1675 2928 
Q 1300 2928 1048 2622 
Q 797 2316 797 1656 
z
" transform="scale(0.015625)"/>
      </defs>
      <use xlink:href="#ArialMT-1a"/>
      <use xlink:href="#ArialMT-3" transform="translate(55.609375 0)"/>
      <use xlink:href="#ArialMT-47" transform="translate(83.390625 0)"/>
     </g>
    </g>
    <g id="line2d_24">
     <path d="M 513.2603 109.99834 
L 523.2603 109.99834 
L 533.2603 109.99834 
" style="fill: none; stroke: #9467bd; stroke-width: 2.5; stroke-linecap: square"/>
    </g>
    <g id="text_22">
     <!-- 14 d -->
     <g transform="translate(541.2603 113.49834) scale(0.1 -0.1)">
      <use xlink:href="#ArialMT-14"/>
      <use xlink:href="#ArialMT-17" transform="translate(55.609375 0)"/>
      <use xlink:href="#ArialMT-3" transform="translate(111.21875 0)"/>
      <use xlink:href="#ArialMT-47" transform="translate(139 0)"/>
     </g>
    </g>
    <g id="line2d_25">
     <path d="M 513.2603 124.383105 
L 523.2603 124.383105 
L 533.2603 124.383105 
" style="fill: none; stroke: #2ca02c; stroke-width: 2.5; stroke-linecap: square"/>
    </g>
    <g id="text_23">
     <!-- 28 d -->
     <g transform="translate(541.2603 127.883105) scale(0.1 -0.1)">
      <use xlink:href="#ArialMT-15"/>
      <use xlink:href="#ArialMT-1b" transform="translate(55.609375 0)"/>
      <use xlink:href="#ArialMT-3" transform="translate(111.21875 0)"/>
      <use xlink:href="#ArialMT-47" transform="translate(139 0)"/>
     </g>
    </g>
   </g>
  </g>
 </g>
 <defs>
  <clipPath id="pefa06a05a0">
   <rect x="47.298945" y="39.679004" width="448.001328" height="263.503652"/>
  </clipPath>
 </defs>
</svg>
