<?xml version="1.0" encoding="utf-8" standalone="no"?>
<!DOCTYPE svg PUBLIC "-//W3C//DTD SVG 1.1//EN"
  "http://www.w3.org/Graphics/SVG/1.1/DTD/svg11.dtd">
<svg xmlns:xlink="http://www.w3.org/1999/xlink" width="571.921237pt" height="344.160273pt" viewBox="0 0 571.921237 344.160273" xmlns="http://www.w3.org/2000/svg" version="1.1">
 <metadata>
  <rdf:RDF xmlns:dc="http://purl.org/dc/elements/1.1/" xmlns:cc="http://creativecommons.org/ns#" xmlns:rdf="http://www.w3.org/1999/02/22-rdf-syntax-ns#">
   <cc:Work>
    <dc:type rdf:resource="http://purl.org/dc/dcmitype/StillImage"/>
    <dc:date>2026-07-10T11:48:25.907008</dc:date>
    <dc:format>image/svg+xml</dc:format>
    <dc:creator>
     <cc:Agent>
      <dc:title>Matplotlib v3.11.0, https://matplotlib.org/</dc:title>
     </cc:Agent>
    </dc:creator>
   </cc:Work>
  </rdf:RDF>
 </metadata>
 <defs>
  <style type="text/css">*{stroke-linejoin: round; stroke-linecap: butt}</style>
 </defs>
 <g id="figure_1">
  <g id="patch_1">
   <path d="M 0 344.160273 
L 571.921237 344.160273 
L 571.921237 0 
L 0 0 
z
" style="fill: #ffffff"/>
  </g>
  <g id="axes_1">
   <g id="patch_2">
    <path d="M 47.298945 303.182656 
L 495.300273 303.182656 
L 495.300273 39.679004 
L 47.298945 39.679004 
z
" style="fill: #ffffff"/>
   </g>
   <g id="matplotlib.axis_1">
    <g id="xtick_1">
     <g id="line2d_1">
      <defs>
       <path id="m59afc918dd" d="M 0 0 
L 0 -6 
" style="stroke: #000000; stroke-width: 0.8"/>
      </defs>
      <g>
       <use xlink:href="#m59afc918dd" x="105.733901" y="303.182656" style="stroke: #000000; stroke-width: 0.8"/>
      </g>
     </g>
     <g id="text_1">
      <!-- 200 -->
      <g transform="translate(94.055932 316.875039) scale(0.14 -0.14)">
       <defs>
        <path id="ArialMT-15" d="M 3222 541 
L 3222 0 
L 194 0 
Q 188 203 259 391 
Q 375 700 629 1000 
Q 884 1300 1366 1694 
Q 2113 2306 2375 2664 
Q 2638 3022 2638 3341 
Q 2638 3675 2398 3904 
Q 2159 4134 1775 4134 
Q 1369 4134 1125 3890 
Q 881 3647 878 3216 
L 300 3275 
Q 359 3922 746 4261 
Q 1134 4600 1788 4600 
Q 2447 4600 2831 4234 
Q 3216 3869 3216 3328 
Q 3216 3053 3103 2787 
Q 2991 2522 2730 2228 
Q 2469 1934 1863 1422 
Q 1356 997 1212 845 
Q 1069 694 975 541 
L 3222 541 
z
" transform="scale(0.015625)"/>
        <path id="ArialMT-13" d="M 266 2259 
Q 266 3072 433 3567 
Q 600 4063 929 4331 
Q 1259 4600 1759 4600 
Q 2128 4600 2406 4451 
Q 2684 4303 2865 4023 
Q 3047 3744 3150 3342 
Q 3253 2941 3253 2259 
Q 3253 1453 3087 958 
Q 2922 463 2592 192 
Q 2263 -78 1759 -78 
Q 1097 -78 719 397 
Q 266 969 266 2259 
z
M 844 2259 
Q 844 1131 1108 757 
Q 1372 384 1759 384 
Q 2147 384 2411 759 
Q 2675 1134 2675 2259 
Q 2675 3391 2411 3762 
Q 2147 4134 1753 4134 
Q 1366 4134 1134 3806 
Q 844 3388 844 2259 
z
" transform="scale(0.015625)"/>
       </defs>
       <use xlink:href="#ArialMT-15"/>
       <use xlink:href="#ArialMT-13" transform="translate(55.609375 0)"/>
       <use xlink:href="#ArialMT-13" transform="translate(111.21875 0)"/>
      </g>
     </g>
    </g>
    <g id="xtick_2">
     <g id="line2d_2">
      <g>
       <use xlink:href="#m59afc918dd" x="183.647176" y="303.182656" style="stroke: #000000; stroke-width: 0.8"/>
      </g>
     </g>
     <g id="text_2">
      <!-- 400 -->
      <g transform="translate(171.969207 316.875039) scale(0.14 -0.14)">
       <defs>
        <path id="ArialMT-17" d="M 2069 0 
L 2069 1097 
L 81 1097 
L 81 1613 
L 2172 4581 
L 2631 4581 
L 2631 1613 
L 3250 1613 
L 3250 1097 
L 2631 1097 
L 2631 0 
L 2069 0 
z
M 2069 1613 
L 2069 3678 
L 634 1613 
L 2069 1613 
z
" transform="scale(0.015625)"/>
       </defs>
       <use xlink:href="#ArialMT-17"/>
       <use xlink:href="#ArialMT-13" transform="translate(55.609375 0)"/>
       <use xlink:href="#ArialMT-13" transform="translate(111.21875 0)"/>
      </g>
     </g>
    </g>
    <g id="xtick_3">
     <g id="line2d_3">
      <g>
       <use xlink:href="#m59afc918dd" x="261.56045" y="303.182656" style="stroke: #000000; stroke-width: 0.8"/>
      </g>
     </g>
     <g id="text_3">
      <!-- 600 -->
      <g transform="translate(249.882481 316.875039) scale(0.14 -0.14)">
       <defs>
        <path id="ArialMT-19" d="M 3184 3459 
L 2625 3416 
Q 2550 3747 2413 3897 
Q 2184 4138 1850 4138 
Q 1581 4138 1378 3988 
Q 1113 3794 959 3422 
Q 806 3050 800 2363 
Q 1003 2672 1297 2822 
Q 1591 2972 1913 2972 
Q 2475 2972 2870 2558 
Q 3266 2144 3266 1488 
Q 3266 1056 3080 686 
Q 2894 316 2569 119 
Q 2244 -78 1831 -78 
Q 1128 -78 684 439 
Q 241 956 241 2144 
Q 241 3472 731 4075 
Q 1159 4600 1884 4600 
Q 2425 4600 2770 4297 
Q 3116 3994 3184 3459 
z
M 888 1484 
Q 888 1194 1011 928 
Q 1134 663 1356 523 
Q 1578 384 1822 384 
Q 2178 384 2434 671 
Q 2691 959 2691 1453 
Q 2691 1928 2437 2201 
Q 2184 2475 1800 2475 
Q 1419 2475 1153 2201 
Q 888 1928 888 1484 
z
" transform="scale(0.015625)"/>
       </defs>
       <use xlink:href="#ArialMT-19"/>
       <use xlink:href="#ArialMT-13" transform="translate(55.609375 0)"/>
       <use xlink:href="#ArialMT-13" transform="translate(111.21875 0)"/>
      </g>
     </g>
    </g>
    <g id="xtick_4">
     <g id="line2d_4">
      <g>
       <use xlink:href="#m59afc918dd" x="339.473725" y="303.182656" style="stroke: #000000; stroke-width: 0.8"/>
      </g>
     </g>
     <g id="text_4">
      <!-- 800 -->
      <g transform="translate(327.795756 316.875039) scale(0.14 -0.14)">
       <defs>
        <path id="ArialMT-1b" d="M 1131 2484 
Q 781 2613 612 2850 
Q 444 3088 444 3419 
Q 444 3919 803 4259 
Q 1163 4600 1759 4600 
Q 2359 4600 2725 4251 
Q 3091 3903 3091 3403 
Q 3091 3084 2923 2848 
Q 2756 2613 2416 2484 
Q 2838 2347 3058 2040 
Q 3278 1734 3278 1309 
Q 3278 722 2862 322 
Q 2447 -78 1769 -78 
Q 1091 -78 675 323 
Q 259 725 259 1325 
Q 259 1772 486 2073 
Q 713 2375 1131 2484 
z
M 1019 3438 
Q 1019 3113 1228 2906 
Q 1438 2700 1772 2700 
Q 2097 2700 2305 2904 
Q 2513 3109 2513 3406 
Q 2513 3716 2298 3927 
Q 2084 4138 1766 4138 
Q 1444 4138 1231 3931 
Q 1019 3725 1019 3438 
z
M 838 1322 
Q 838 1081 952 856 
Q 1066 631 1291 507 
Q 1516 384 1775 384 
Q 2178 384 2440 643 
Q 2703 903 2703 1303 
Q 2703 1709 2433 1975 
Q 2163 2241 1756 2241 
Q 1359 2241 1098 1978 
Q 838 1716 838 1322 
z
" transform="scale(0.015625)"/>
       </defs>
       <use xlink:href="#ArialMT-1b"/>
       <use xlink:href="#ArialMT-13" transform="translate(55.609375 0)"/>
       <use xlink:href="#ArialMT-13" transform="translate(111.21875 0)"/>
      </g>
     </g>
    </g>
    <g id="xtick_5">
     <g id="line2d_5">
      <g>
       <use xlink:href="#m59afc918dd" x="417.386999" y="303.182656" style="stroke: #000000; stroke-width: 0.8"/>
      </g>
     </g>
     <g id="text_5">
      <!-- 1000 -->
      <g transform="translate(401.816374 316.875039) scale(0.14 -0.14)">
       <defs>
        <path id="ArialMT-14" d="M 2384 0 
L 1822 0 
L 1822 3584 
Q 1619 3391 1289 3197 
Q 959 3003 697 2906 
L 697 3450 
Q 1169 3672 1522 3987 
Q 1875 4303 2022 4600 
L 2384 4600 
L 2384 0 
z
" transform="scale(0.015625)"/>
       </defs>
       <use xlink:href="#ArialMT-14"/>
       <use xlink:href="#ArialMT-13" transform="translate(55.609375 0)"/>
       <use xlink:href="#ArialMT-13" transform="translate(111.21875 0)"/>
       <use xlink:href="#ArialMT-13" transform="translate(166.828125 0)"/>
      </g>
     </g>
    </g>
    <g id="xtick_6">
     <g id="line2d_6">
      <g>
       <use xlink:href="#m59afc918dd" x="495.300273" y="303.182656" style="stroke: #000000; stroke-width: 0.8"/>
      </g>
     </g>
     <g id="text_6">
      <!-- 1200 -->
      <g transform="translate(479.729648 316.875039) scale(0.14 -0.14)">
       <use xlink:href="#ArialMT-14"/>
       <use xlink:href="#ArialMT-15" transform="translate(55.609375 0)"/>
       <use xlink:href="#ArialMT-13" transform="translate(111.21875 0)"/>
       <use xlink:href="#ArialMT-13" transform="translate(166.828125 0)"/>
      </g>
     </g>
    </g>
    <g id="text_7">
     <!-- T1 Temperature (°C) -->
     <g transform="translate(207.560234 334.013711) scale(0.14 -0.14)">
      <defs>
       <path id="ArialMT-37" d="M 1659 0 
L 1659 4041 
L 150 4041 
L 150 4581 
L 3781 4581 
L 3781 4041 
L 2266 4041 
L 2266 0 
L 1659 0 
z
" transform="scale(0.015625)"/>
       <path id="ArialMT-3" transform="scale(0.015625)"/>
       <path id="ArialMT-48" d="M 2694 1069 
L 3275 997 
Q 3138 488 2766 206 
Q 2394 -75 1816 -75 
Q 1088 -75 661 373 
Q 234 822 234 1631 
Q 234 2469 665 2931 
Q 1097 3394 1784 3394 
Q 2450 3394 2872 2941 
Q 3294 2488 3294 1666 
Q 3294 1616 3291 1516 
L 816 1516 
Q 847 969 1125 678 
Q 1403 388 1819 388 
Q 2128 388 2347 550 
Q 2566 713 2694 1069 
z
M 847 1978 
L 2700 1978 
Q 2663 2397 2488 2606 
Q 2219 2931 1791 2931 
Q 1403 2931 1139 2672 
Q 875 2413 847 1978 
z
" transform="scale(0.015625)"/>
       <path id="ArialMT-50" d="M 422 0 
L 422 3319 
L 925 3319 
L 925 2853 
Q 1081 3097 1340 3245 
Q 1600 3394 1931 3394 
Q 2300 3394 2536 3241 
Q 2772 3088 2869 2813 
Q 3263 3394 3894 3394 
Q 4388 3394 4653 3120 
Q 4919 2847 4919 2278 
L 4919 0 
L 4359 0 
L 4359 2091 
Q 4359 2428 4304 2576 
Q 4250 2725 4106 2815 
Q 3963 2906 3769 2906 
Q 3419 2906 3187 2673 
Q 2956 2441 2956 1928 
L 2956 0 
L 2394 0 
L 2394 2156 
Q 2394 2531 2256 2718 
Q 2119 2906 1806 2906 
Q 1569 2906 1367 2781 
Q 1166 2656 1075 2415 
Q 984 2175 984 1722 
L 984 0 
L 422 0 
z
" transform="scale(0.015625)"/>
       <path id="ArialMT-53" d="M 422 -1272 
L 422 3319 
L 934 3319 
L 934 2888 
Q 1116 3141 1344 3267 
Q 1572 3394 1897 3394 
Q 2322 3394 2647 3175 
Q 2972 2956 3137 2557 
Q 3303 2159 3303 1684 
Q 3303 1175 3120 767 
Q 2938 359 2589 142 
Q 2241 -75 1856 -75 
Q 1575 -75 1351 44 
Q 1128 163 984 344 
L 984 -1272 
L 422 -1272 
z
M 931 1641 
Q 931 1000 1190 694 
Q 1450 388 1819 388 
Q 2194 388 2461 705 
Q 2728 1022 2728 1688 
Q 2728 2322 2467 2637 
Q 2206 2953 1844 2953 
Q 1484 2953 1207 2617 
Q 931 2281 931 1641 
z
" transform="scale(0.015625)"/>
       <path id="ArialMT-55" d="M 416 0 
L 416 3319 
L 922 3319 
L 922 2816 
Q 1116 3169 1280 3281 
Q 1444 3394 1641 3394 
Q 1925 3394 2219 3213 
L 2025 2691 
Q 1819 2813 1613 2813 
Q 1428 2813 1281 2702 
Q 1134 2591 1072 2394 
Q 978 2094 978 1738 
L 978 0 
L 416 0 
z
" transform="scale(0.015625)"/>
       <path id="ArialMT-44" d="M 2588 409 
Q 2275 144 1986 34 
Q 1697 -75 1366 -75 
Q 819 -75 525 192 
Q 231 459 231 875 
Q 231 1119 342 1320 
Q 453 1522 633 1644 
Q 813 1766 1038 1828 
Q 1203 1872 1538 1913 
Q 2219 1994 2541 2106 
Q 2544 2222 2544 2253 
Q 2544 2597 2384 2738 
Q 2169 2928 1744 2928 
Q 1347 2928 1158 2789 
Q 969 2650 878 2297 
L 328 2372 
Q 403 2725 575 2942 
Q 747 3159 1072 3276 
Q 1397 3394 1825 3394 
Q 2250 3394 2515 3294 
Q 2781 3194 2906 3042 
Q 3031 2891 3081 2659 
Q 3109 2516 3109 2141 
L 3109 1391 
Q 3109 606 3145 398 
Q 3181 191 3288 0 
L 2700 0 
Q 2613 175 2588 409 
z
M 2541 1666 
Q 2234 1541 1622 1453 
Q 1275 1403 1131 1340 
Q 988 1278 909 1158 
Q 831 1038 831 891 
Q 831 666 1001 516 
Q 1172 366 1500 366 
Q 1825 366 2078 508 
Q 2331 650 2450 897 
Q 2541 1088 2541 1459 
L 2541 1666 
z
" transform="scale(0.015625)"/>
       <path id="ArialMT-57" d="M 1650 503 
L 1731 6 
Q 1494 -44 1306 -44 
Q 1000 -44 831 53 
Q 663 150 594 308 
Q 525 466 525 972 
L 525 2881 
L 113 2881 
L 113 3319 
L 525 3319 
L 525 4141 
L 1084 4478 
L 1084 3319 
L 1650 3319 
L 1650 2881 
L 1084 2881 
L 1084 941 
Q 1084 700 1114 631 
Q 1144 563 1211 522 
Q 1278 481 1403 481 
Q 1497 481 1650 503 
z
" transform="scale(0.015625)"/>
       <path id="ArialMT-58" d="M 2597 0 
L 2597 488 
Q 2209 -75 1544 -75 
Q 1250 -75 995 37 
Q 741 150 617 320 
Q 494 491 444 738 
Q 409 903 409 1263 
L 409 3319 
L 972 3319 
L 972 1478 
Q 972 1038 1006 884 
Q 1059 663 1231 536 
Q 1403 409 1656 409 
Q 1909 409 2131 539 
Q 2353 669 2445 892 
Q 2538 1116 2538 1541 
L 2538 3319 
L 3100 3319 
L 3100 0 
L 2597 0 
z
" transform="scale(0.015625)"/>
       <path id="ArialMT-b" d="M 1497 -1347 
Q 1031 -759 709 28 
Q 388 816 388 1659 
Q 388 2403 628 3084 
Q 909 3875 1497 4659 
L 1900 4659 
Q 1522 4009 1400 3731 
Q 1209 3300 1100 2831 
Q 966 2247 966 1656 
Q 966 153 1900 -1347 
L 1497 -1347 
z
" transform="scale(0.015625)"/>
       <path id="ArialMT-83" d="M 400 3794 
Q 400 4153 654 4406 
Q 909 4659 1266 4659 
Q 1628 4659 1881 4406 
Q 2134 4153 2134 3794 
Q 2134 3434 1879 3179 
Q 1625 2925 1266 2925 
Q 909 2925 654 3178 
Q 400 3431 400 3794 
z
M 741 3794 
Q 741 3575 895 3420 
Q 1050 3266 1269 3266 
Q 1484 3266 1639 3420 
Q 1794 3575 1794 3794 
Q 1794 4013 1639 4167 
Q 1484 4322 1269 4322 
Q 1050 4322 895 4167 
Q 741 4013 741 3794 
z
" transform="scale(0.015625)"/>
       <path id="ArialMT-26" d="M 3763 1606 
L 4369 1453 
Q 4178 706 3683 314 
Q 3188 -78 2472 -78 
Q 1731 -78 1267 223 
Q 803 525 561 1097 
Q 319 1669 319 2325 
Q 319 3041 592 3573 
Q 866 4106 1370 4382 
Q 1875 4659 2481 4659 
Q 3169 4659 3637 4309 
Q 4106 3959 4291 3325 
L 3694 3184 
Q 3534 3684 3231 3912 
Q 2928 4141 2469 4141 
Q 1941 4141 1586 3887 
Q 1231 3634 1087 3207 
Q 944 2781 944 2328 
Q 944 1744 1114 1308 
Q 1284 872 1643 656 
Q 2003 441 2422 441 
Q 2931 441 3284 734 
Q 3638 1028 3763 1606 
z
" transform="scale(0.015625)"/>
       <path id="ArialMT-c" d="M 791 -1347 
L 388 -1347 
Q 1322 153 1322 1656 
Q 1322 2244 1188 2822 
Q 1081 3291 891 3722 
Q 769 4003 388 4659 
L 791 4659 
Q 1378 3875 1659 3084 
Q 1900 2403 1900 1659 
Q 1900 816 1576 28 
Q 1253 -759 791 -1347 
z
" transform="scale(0.015625)"/>
      </defs>
      <use xlink:href="#ArialMT-37"/>
      <use xlink:href="#ArialMT-14" transform="translate(61.078125 0)"/>
      <use xlink:href="#ArialMT-3" transform="translate(116.6875 0)"/>
      <use xlink:href="#ArialMT-37" transform="translate(142.65625 0)"/>
      <use xlink:href="#ArialMT-48" transform="translate(192.65625 0)"/>
      <use xlink:href="#ArialMT-50" transform="translate(248.265625 0)"/>
      <use xlink:href="#ArialMT-53" transform="translate(331.5625 0)"/>
      <use xlink:href="#ArialMT-48" transform="translate(387.171875 0)"/>
      <use xlink:href="#ArialMT-55" transform="translate(442.78125 0)"/>
      <use xlink:href="#ArialMT-44" transform="translate(476.078125 0)"/>
      <use xlink:href="#ArialMT-57" transform="translate(531.6875 0)"/>
      <use xlink:href="#ArialMT-58" transform="translate(559.46875 0)"/>
      <use xlink:href="#ArialMT-55" transform="translate(615.078125 0)"/>
      <use xlink:href="#ArialMT-48" transform="translate(648.375 0)"/>
      <use xlink:href="#ArialMT-3" transform="translate(703.984375 0)"/>
      <use xlink:href="#ArialMT-b" transform="translate(731.765625 0)"/>
      <use xlink:href="#ArialMT-83" transform="translate(765.0625 0)"/>
      <use xlink:href="#ArialMT-26" transform="translate(805.046875 0)"/>
      <use xlink:href="#ArialMT-c" transform="translate(877.265625 0)"/>
     </g>
    </g>
   </g>
   <g id="matplotlib.axis_2">
    <g id="ytick_1">
     <g id="line2d_7">
      <defs>
       <path id="m9b5a1692a9" d="M 0 0 
L 6 0 
" style="stroke: #000000; stroke-width: 0.8"/>
      </defs>
      <g>
       <use xlink:href="#m9b5a1692a9" x="47.298945" y="292.35878" style="stroke: #000000; stroke-width: 0.8"/>
      </g>
     </g>
     <g id="text_8">
      <!-- 0.0 -->
      <g transform="translate(24.338945 297.454971) scale(0.14 -0.14)">
       <defs>
        <path id="ArialMT-11" d="M 581 0 
L 581 641 
L 1222 641 
L 1222 0 
L 581 0 
z
" transform="scale(0.015625)"/>
       </defs>
       <use xlink:href="#ArialMT-13"/>
       <use xlink:href="#ArialMT-11" transform="translate(55.609375 0)"/>
       <use xlink:href="#ArialMT-13" transform="translate(83.390625 0)"/>
      </g>
     </g>
    </g>
    <g id="ytick_2">
     <g id="line2d_8">
      <g>
       <use xlink:href="#m9b5a1692a9" x="47.298945" y="249.227091" style="stroke: #000000; stroke-width: 0.8"/>
      </g>
     </g>
     <g id="text_9">
      <!-- 0.5 -->
      <g transform="translate(24.338945 254.323283) scale(0.14 -0.14)">
       <defs>
        <path id="ArialMT-18" d="M 266 1200 
L 856 1250 
Q 922 819 1161 601 
Q 1400 384 1738 384 
Q 2144 384 2425 690 
Q 2706 997 2706 1503 
Q 2706 1984 2436 2262 
Q 2166 2541 1728 2541 
Q 1456 2541 1237 2417 
Q 1019 2294 894 2097 
L 366 2166 
L 809 4519 
L 3088 4519 
L 3088 3981 
L 1259 3981 
L 1013 2750 
Q 1425 3038 1878 3038 
Q 2478 3038 2890 2622 
Q 3303 2206 3303 1553 
Q 3303 931 2941 478 
Q 2500 -78 1738 -78 
Q 1113 -78 717 272 
Q 322 622 266 1200 
z
" transform="scale(0.015625)"/>
       </defs>
       <use xlink:href="#ArialMT-13"/>
       <use xlink:href="#ArialMT-11" transform="translate(55.609375 0)"/>
       <use xlink:href="#ArialMT-18" transform="translate(83.390625 0)"/>
      </g>
     </g>
    </g>
    <g id="ytick_3">
     <g id="line2d_9">
      <g>
       <use xlink:href="#m9b5a1692a9" x="47.298945" y="206.095403" style="stroke: #000000; stroke-width: 0.8"/>
      </g>
     </g>
     <g id="text_10">
      <!-- 1.0 -->
      <g transform="translate(24.338945 211.191594) scale(0.14 -0.14)">
       <use xlink:href="#ArialMT-14"/>
       <use xlink:href="#ArialMT-11" transform="translate(55.609375 0)"/>
       <use xlink:href="#ArialMT-13" transform="translate(83.390625 0)"/>
      </g>
     </g>
    </g>
    <g id="ytick_4">
     <g id="line2d_10">
      <g>
       <use xlink:href="#m9b5a1692a9" x="47.298945" y="162.963715" style="stroke: #000000; stroke-width: 0.8"/>
      </g>
     </g>
     <g id="text_11">
      <!-- 1.5 -->
      <g transform="translate(24.338945 168.059906) scale(0.14 -0.14)">
       <use xlink:href="#ArialMT-14"/>
       <use xlink:href="#ArialMT-11" transform="translate(55.609375 0)"/>
       <use xlink:href="#ArialMT-18" transform="translate(83.390625 0)"/>
      </g>
     </g>
    </g>
    <g id="ytick_5">
     <g id="line2d_11">
      <g>
       <use xlink:href="#m9b5a1692a9" x="47.298945" y="119.832026" style="stroke: #000000; stroke-width: 0.8"/>
      </g>
     </g>
     <g id="text_12">
      <!-- 2.0 -->
      <g transform="translate(24.338945 124.928218) scale(0.14 -0.14)">
       <use xlink:href="#ArialMT-15"/>
       <use xlink:href="#ArialMT-11" transform="translate(55.609375 0)"/>
       <use xlink:href="#ArialMT-13" transform="translate(83.390625 0)"/>
      </g>
     </g>
    </g>
    <g id="ytick_6">
     <g id="line2d_12">
      <g>
       <use xlink:href="#m9b5a1692a9" x="47.298945" y="76.700338" style="stroke: #000000; stroke-width: 0.8"/>
      </g>
     </g>
     <g id="text_13">
      <!-- 2.5 -->
      <g transform="translate(24.338945 81.796529) scale(0.14 -0.14)">
       <use xlink:href="#ArialMT-15"/>
       <use xlink:href="#ArialMT-11" transform="translate(55.609375 0)"/>
       <use xlink:href="#ArialMT-18" transform="translate(83.390625 0)"/>
      </g>
     </g>
    </g>
    <g id="text_14">
     <!-- Ion Current (m/z 12) -->
     <g transform="translate(17.392383 234.056768) rotate(-90) scale(0.14 -0.14)">
      <defs>
       <path id="ArialMT-2c" d="M 597 0 
L 597 4581 
L 1203 4581 
L 1203 0 
L 597 0 
z
" transform="scale(0.015625)"/>
       <path id="ArialMT-52" d="M 213 1659 
Q 213 2581 725 3025 
Q 1153 3394 1769 3394 
Q 2453 3394 2887 2945 
Q 3322 2497 3322 1706 
Q 3322 1066 3130 698 
Q 2938 331 2570 128 
Q 2203 -75 1769 -75 
Q 1072 -75 642 372 
Q 213 819 213 1659 
z
M 791 1659 
Q 791 1022 1069 705 
Q 1347 388 1769 388 
Q 2188 388 2466 706 
Q 2744 1025 2744 1678 
Q 2744 2294 2464 2611 
Q 2184 2928 1769 2928 
Q 1347 2928 1069 2612 
Q 791 2297 791 1659 
z
" transform="scale(0.015625)"/>
       <path id="ArialMT-51" d="M 422 0 
L 422 3319 
L 928 3319 
L 928 2847 
Q 1294 3394 1984 3394 
Q 2284 3394 2536 3286 
Q 2788 3178 2913 3003 
Q 3038 2828 3088 2588 
Q 3119 2431 3119 2041 
L 3119 0 
L 2556 0 
L 2556 2019 
Q 2556 2363 2490 2533 
Q 2425 2703 2258 2804 
Q 2091 2906 1866 2906 
Q 1506 2906 1245 2678 
Q 984 2450 984 1813 
L 984 0 
L 422 0 
z
" transform="scale(0.015625)"/>
       <path id="ArialMT-12" d="M 0 -78 
L 1328 4659 
L 1778 4659 
L 453 -78 
L 0 -78 
z
" transform="scale(0.015625)"/>
       <path id="ArialMT-5d" d="M 125 0 
L 125 456 
L 2238 2881 
Q 1878 2863 1603 2863 
L 250 2863 
L 250 3319 
L 2963 3319 
L 2963 2947 
L 1166 841 
L 819 456 
Q 1197 484 1528 484 
L 3063 484 
L 3063 0 
L 125 0 
z
" transform="scale(0.015625)"/>
      </defs>
      <use xlink:href="#ArialMT-2c"/>
      <use xlink:href="#ArialMT-52" transform="translate(27.78125 0)"/>
      <use xlink:href="#ArialMT-51" transform="translate(83.390625 0)"/>
      <use xlink:href="#ArialMT-3" transform="translate(139 0)"/>
      <use xlink:href="#ArialMT-26" transform="translate(166.78125 0)"/>
      <use xlink:href="#ArialMT-58" transform="translate(239 0)"/>
      <use xlink:href="#ArialMT-55" transform="translate(294.609375 0)"/>
      <use xlink:href="#ArialMT-55" transform="translate(327.90625 0)"/>
      <use xlink:href="#ArialMT-48" transform="translate(361.203125 0)"/>
      <use xlink:href="#ArialMT-51" transform="translate(416.8125 0)"/>
      <use xlink:href="#ArialMT-57" transform="translate(472.421875 0)"/>
      <use xlink:href="#ArialMT-3" transform="translate(500.203125 0)"/>
      <use xlink:href="#ArialMT-b" transform="translate(527.984375 0)"/>
      <use xlink:href="#ArialMT-50" transform="translate(561.28125 0)"/>
      <use xlink:href="#ArialMT-12" transform="translate(644.578125 0)"/>
      <use xlink:href="#ArialMT-5d" transform="translate(672.359375 0)"/>
      <use xlink:href="#ArialMT-3" transform="translate(722.359375 0)"/>
      <use xlink:href="#ArialMT-14" transform="translate(750.140625 0)"/>
      <use xlink:href="#ArialMT-15" transform="translate(805.75 0)"/>
      <use xlink:href="#ArialMT-c" transform="translate(861.359375 0)"/>
     </g>
    </g>
    <g id="text_15">
     <!-- 1e−12 -->
     <g transform="translate(47.298945 36.679004) scale(0.14 -0.14)">
      <defs>
       <path id="ArialMT-ed" d="M 3381 1997 
L 356 1997 
L 356 2522 
L 3381 2522 
L 3381 1997 
z
" transform="scale(0.015625)"/>
      </defs>
      <use xlink:href="#ArialMT-14"/>
      <use xlink:href="#ArialMT-48" transform="translate(55.609375 0)"/>
      <use xlink:href="#ArialMT-ed" transform="translate(111.21875 0)"/>
      <use xlink:href="#ArialMT-14" transform="translate(169.625 0)"/>
      <use xlink:href="#ArialMT-15" transform="translate(225.234375 0)"/>
     </g>
    </g>
   </g>
   <g id="line2d_13">
    <path d="M 46.286073 289.25074 
L 46.247116 290.446196 
L 46.208159 290.117379 
L 46.480856 290.773526 
L 47.298945 290.786759 
L 48.857211 290.467296 
L 51.116696 290.288469 
L 53.493051 290.300232 
L 55.674622 289.798765 
L 57.505584 289.802923 
L 59.024893 290.181705 
L 60.349419 290.046992 
L 61.518118 289.751441 
L 64.907345 290.168627 
L 66.037088 290.124786 
L 67.205787 290.335338 
L 68.452399 290.733386 
L 70.906667 291.205218 
L 73.399892 290.425647 
L 74.763375 290.277879 
L 76.126857 290.341266 
L 77.412426 290.192972 
L 78.697995 289.584564 
L 81.19122 290.139755 
L 82.398875 290.019949 
L 83.606531 290.173129 
L 84.814187 289.962407 
L 85.982886 290.008528 
L 88.515067 289.655204 
L 89.722723 289.307249 
L 90.930379 289.286533 
L 92.138035 289.644706 
L 93.345691 289.674506 
L 95.799959 290.542445 
L 99.306056 290.659387 
L 100.552668 290.518938 
L 104.253549 289.719131 
L 105.500161 289.924867 
L 106.66886 290.303703 
L 109.084172 290.38999 
L 111.53844 290.600819 
L 114.070622 290.140598 
L 115.317234 289.722679 
L 116.52489 290.179172 
L 117.732545 290.288025 
L 118.940201 289.838232 
L 120.147857 290.075138 
L 121.355513 289.595666 
L 122.563168 289.449047 
L 123.731868 289.459063 
L 124.97848 288.740819 
L 126.225092 288.341654 
L 127.510661 288.049475 
L 128.757274 288.452811 
L 129.96493 288.392223 
L 131.094672 288.483474 
L 132.341284 289.178551 
L 133.509983 288.871314 
L 134.717639 289.119958 
L 135.925295 289.009497 
L 137.132951 288.356907 
L 138.41852 288.352644 
L 139.665132 287.619206 
L 140.833831 287.214783 
L 143.288099 286.901244 
L 144.495755 287.206529 
L 146.950023 286.784967 
L 148.118722 286.614672 
L 149.326378 286.698958 
L 150.534034 286.610561 
L 151.819603 285.482788 
L 153.027259 285.082761 
L 155.481527 283.795958 
L 156.728139 283.45846 
L 157.935795 281.532375 
L 160.390063 278.445336 
L 161.519806 276.729132 
L 162.727461 275.135081 
L 163.974074 274.422885 
L 165.18173 273.591639 
L 166.389385 272.55579 
L 167.635998 272.440886 
L 170.012353 269.686622 
L 173.674276 263.98744 
L 174.920889 262.79311 
L 176.089588 261.832796 
L 177.297244 259.756338 
L 178.543856 257.937011 
L 179.790469 257.582684 
L 182.20578 252.466823 
L 183.491349 248.863927 
L 184.737961 244.399188 
L 185.906661 238.298634 
L 188.438842 222.555043 
L 189.646498 216.700092 
L 190.815197 210.252972 
L 194.360251 196.776676 
L 195.606863 194.826585 
L 196.853476 193.141197 
L 198.061131 192.192269 
L 199.268787 190.700518 
L 200.5154 193.247891 
L 201.684099 196.19691 
L 202.930711 196.995192 
L 204.138367 195.834708 
L 205.384979 189.890852 
L 207.761334 168.213203 
L 209.007946 152.972843 
L 212.630914 99.773527 
L 213.838569 83.551514 
L 215.085182 77.887736 
L 216.292838 74.776972 
L 217.500493 75.499887 
L 218.747106 83.916846 
L 219.915805 96.22255 
L 221.123461 110.266435 
L 222.370073 122.806969 
L 223.538772 136.442011 
L 224.746428 146.886713 
L 225.954084 156.011339 
L 227.161739 167.420097 
L 228.330439 173.791291 
L 229.616008 185.920794 
L 230.784707 189.538009 
L 232.031319 189.489834 
L 233.238975 188.373628 
L 234.446631 185.124061 
L 235.693243 180.032308 
L 236.861942 179.152216 
L 238.108554 178.50955 
L 239.31621 182.097167 
L 240.562823 189.837619 
L 241.731522 203.837427 
L 242.939177 208.29652 
L 244.146833 216.912193 
L 246.601101 228.332683 
L 247.7698 230.05041 
L 249.016413 232.344026 
L 250.224069 232.014465 
L 251.470681 231.956434 
L 252.717293 231.657738 
L 253.885993 232.3396 
L 255.132605 231.442378 
L 256.379217 232.969418 
L 257.586873 234.201068 
L 260.002185 238.422809 
L 261.248797 238.495938 
L 262.417496 239.735532 
L 263.625152 239.839511 
L 264.793851 241.264 
L 266.001507 241.009505 
L 267.287076 240.49024 
L 268.455775 240.565718 
L 269.702387 241.842087 
L 270.910043 241.928314 
L 272.117699 240.652384 
L 273.286398 238.906216 
L 274.53301 239.744958 
L 275.740666 238.958596 
L 276.948322 239.46764 
L 278.155978 238.924555 
L 279.40259 237.281356 
L 281.817901 232.445169 
L 283.025557 228.784307 
L 284.27217 226.043527 
L 285.440869 224.253966 
L 286.648524 222.041736 
L 287.895137 222.941122 
L 289.102793 222.412874 
L 290.271492 219.940088 
L 291.557061 216.870298 
L 293.972372 209.925118 
L 295.141071 208.847217 
L 296.348727 204.132701 
L 297.517426 198.443074 
L 298.725082 191.199326 
L 300.049608 186.054039 
L 301.29622 176.855671 
L 302.581789 170.84633 
L 303.789445 166.212693 
L 305.036057 164.685574 
L 306.28267 166.208832 
L 307.529282 172.461479 
L 308.697981 175.361232 
L 309.905637 181.346044 
L 311.113293 186.657934 
L 312.281992 190.349083 
L 313.489647 195.403329 
L 314.658347 200.886476 
L 315.943916 202.33869 
L 317.151571 206.005391 
L 318.359227 208.680262 
L 319.566883 212.989696 
L 320.813495 214.642253 
L 321.982194 217.181967 
L 323.150894 218.806605 
L 324.358549 216.673964 
L 325.605162 216.982323 
L 326.812817 216.373273 
L 328.05943 215.595817 
L 329.228129 215.670847 
L 330.474741 213.499133 
L 331.64344 213.281229 
L 332.890053 213.198241 
L 334.097709 213.405003 
L 335.266408 213.734287 
L 336.474063 213.32201 
L 337.720676 214.06328 
L 338.928332 215.404762 
L 340.135987 217.732945 
L 341.304686 220.799098 
L 342.590256 221.988744 
L 343.758955 223.964438 
L 344.96661 226.26881 
L 346.213223 227.669261 
L 347.420879 230.639661 
L 348.628534 231.900571 
L 349.875147 231.66327 
L 351.043846 232.31803 
L 352.251502 232.419082 
L 353.420201 234.564651 
L 354.70577 233.94833 
L 355.913425 234.376081 
L 357.121081 234.326442 
L 358.328737 233.993093 
L 359.497436 234.928279 
L 360.744048 233.116082 
L 363.15936 231.587175 
L 364.367016 230.240028 
L 365.613628 230.499081 
L 366.743371 228.714735 
L 367.951026 228.523302 
L 369.197639 225.583629 
L 370.444251 224.516147 
L 371.573994 225.225135 
L 372.742693 223.550091 
L 374.067218 221.1405 
L 375.196961 218.173117 
L 377.884969 213.461259 
L 380.572977 205.835731 
L 381.819589 201.949903 
L 382.988288 199.806333 
L 384.273857 198.198841 
L 387.935781 185.623228 
L 389.143437 184.0942 
L 390.351093 182.946817 
L 391.558748 181.093658 
L 392.727448 179.80903 
L 393.97406 178.607144 
L 396.428328 175.33666 
L 397.597027 172.823707 
L 398.84364 170.740499 
L 400.012339 168.411382 
L 401.258951 168.546922 
L 402.505564 169.63522 
L 403.713219 168.205419 
L 404.881918 168.379386 
L 406.050618 167.846117 
L 407.4141 169.054573 
L 408.504886 167.694378 
L 409.751498 167.050962 
L 410.920197 166.670985 
L 412.088896 165.932434 
L 413.374465 165.642136 
L 414.582121 166.895776 
L 415.789777 167.518449 
L 416.997433 170.961681 
L 418.321958 174.28791 
L 419.412744 178.985082 
L 420.659357 180.317666 
L 421.750142 183.864629 
L 423.308408 188.092164 
L 424.399194 189.185101 
L 426.775549 196.129517 
L 427.983204 198.417534 
L 429.19086 202.47948 
L 430.359559 204.520407 
L 431.567215 206.157632 
L 432.696957 208.960297 
L 434.021483 211.499376 
L 435.190182 214.007261 
L 436.397838 214.547587 
L 437.605494 217.456139 
L 438.774193 220.637419 
L 440.176632 219.904484 
L 441.267418 221.529226 
L 442.51403 220.902222 
L 443.682729 221.173512 
L 445.007255 223.381944 
L 446.020127 223.268242 
L 447.26674 222.889214 
L 448.513352 223.322174 
L 449.682051 225.141415 
L 451.006577 226.399669 
L 452.214233 224.779081 
L 454.473718 225.304549 
L 456.031983 225.547642 
L 457.395465 225.393284 
L 458.719991 222.870521 
L 460.12243 221.788345 
L 461.135303 219.177002 
L 462.537742 217.294514 
L 463.628527 214.121172 
L 464.914096 212.523669 
L 466.043839 210.904519 
L 467.329408 210.396108 
L 468.34228 208.523348 
L 469.822633 204.957042 
L 470.757592 202.019793 
L 472.121074 198.370204 
L 473.289773 192.095695 
L 474.614299 187.118409 
L 475.666128 180.659571 
L 478.159353 168.944936 
L 479.522835 161.996049 
L 481.704407 149.183639 
L 482.873106 144.805045 
L 485.405288 134.526898 
L 487.859556 115.092071 
L 488.989298 103.219256 
L 490.313824 90.676495 
L 492.729135 65.556165 
L 494.014704 53.966113 
L 494.014704 53.966113 
" clip-path="url(#p8de76cdc95)" style="fill: none; stroke: #000000; stroke-width: 2.5; stroke-linecap: square"/>
   </g>
   <g id="line2d_14">
    <path d="M 45.662767 289.88812 
L 45.662767 290.101736 
L 45.584853 289.469211 
L 45.662767 289.664003 
L 46.130246 289.383313 
L 47.221032 289.597721 
L 49.051994 290.227027 
L 51.350436 290.663095 
L 53.609921 290.639696 
L 55.596709 290.989671 
L 58.71324 290.799793 
L 59.959852 290.482093 
L 61.089595 290.316381 
L 62.219337 289.797196 
L 63.34908 289.7207 
L 64.478822 290.050215 
L 65.647521 290.227307 
L 66.855177 290.215287 
L 68.062833 290.556025 
L 69.270489 290.512509 
L 70.517101 291.105099 
L 73.010326 290.816681 
L 74.373808 290.430594 
L 75.698334 290.195588 
L 77.02286 290.196146 
L 79.593998 289.216261 
L 80.84061 289.373513 
L 82.048266 289.397983 
L 83.255921 289.755617 
L 84.463577 289.521945 
L 85.671233 289.635675 
L 86.878889 289.901412 
L 88.086544 289.929569 
L 89.333157 290.3692 
L 90.540813 290.673175 
L 91.748468 290.441933 
L 92.956124 290.618362 
L 94.16378 289.936309 
L 95.332479 289.746965 
L 96.501178 289.678805 
L 97.747791 289.448305 
L 98.994403 289.383149 
L 100.241015 289.982859 
L 102.61737 290.731185 
L 105.071638 290.355985 
L 106.279294 290.0088 
L 107.48695 290.030139 
L 108.694606 290.163877 
L 111.18783 289.975434 
L 112.395486 290.545215 
L 113.642099 290.063723 
L 114.849754 290.038654 
L 116.096367 289.377796 
L 117.304022 289.175257 
L 118.511678 289.324385 
L 119.758291 289.321028 
L 120.965946 288.954954 
L 123.381258 289.181145 
L 124.62787 289.553309 
L 125.835526 289.351591 
L 127.043182 289.355172 
L 128.250837 289.071665 
L 129.49745 289.185316 
L 131.951718 289.079377 
L 133.159374 288.354605 
L 134.405986 288.226696 
L 135.613642 288.252328 
L 136.821298 287.721513 
L 138.06791 287.398013 
L 139.275566 287.472325 
L 141.729834 286.754966 
L 142.976446 285.90011 
L 144.184102 285.705391 
L 147.729156 284.476382 
L 148.975768 284.271103 
L 151.468993 283.379597 
L 152.715606 282.830544 
L 153.962218 281.425905 
L 155.130917 279.158422 
L 156.37753 278.186064 
L 158.792841 275.678091 
L 160.039453 275.331192 
L 161.247109 275.826411 
L 162.376852 275.628519 
L 164.792163 276.031031 
L 165.999819 273.841533 
L 167.246431 272.480902 
L 168.376174 270.901912 
L 169.622786 268.908207 
L 170.869399 267.143769 
L 172.116011 264.878898 
L 173.28471 263.63428 
L 174.492366 261.668887 
L 175.700022 260.14255 
L 179.400902 253.659649 
L 180.608558 250.514766 
L 181.85517 248.437221 
L 183.101783 245.654566 
L 184.387352 240.510341 
L 185.517094 236.517738 
L 186.763707 231.574418 
L 188.049276 227.102039 
L 189.256931 221.565231 
L 190.42563 219.454268 
L 191.633286 216.318022 
L 192.840942 215.070907 
L 194.087554 214.844039 
L 196.463909 217.78881 
L 198.879221 221.344585 
L 200.086877 221.039736 
L 201.372446 219.643986 
L 202.541145 218.770869 
L 203.787757 213.002843 
L 206.164112 203.890505 
L 207.449681 202.202409 
L 208.61838 199.424347 
L 209.826036 194.491045 
L 211.072648 192.753307 
L 212.280304 188.994372 
L 213.449003 187.749751 
L 214.656659 185.140231 
L 215.864315 183.522652 
L 217.07197 185.6411 
L 218.318583 187.173029 
L 219.565195 189.099893 
L 220.772851 191.661505 
L 221.94155 194.51968 
L 223.149206 198.300449 
L 224.356862 200.111121 
L 225.564517 201.385929 
L 226.81113 201.790548 
L 229.226441 206.423258 
L 230.434097 206.561609 
L 231.680709 206.961767 
L 232.888365 209.14624 
L 234.096021 212.309291 
L 235.303677 213.288726 
L 236.511332 213.285086 
L 237.718988 211.587423 
L 238.926644 211.412213 
L 240.1343 212.170917 
L 241.302999 214.632806 
L 242.549611 217.804047 
L 243.83518 220.336009 
L 246.250492 228.214465 
L 247.497104 230.04728 
L 248.665803 232.28374 
L 249.873459 232.325979 
L 251.159028 233.641882 
L 252.327727 234.248346 
L 253.613296 235.343487 
L 255.989651 236.835973 
L 257.197307 236.563886 
L 258.404962 237.059935 
L 259.651575 237.085263 
L 260.859231 238.506786 
L 262.066886 239.272371 
L 263.313499 241.753138 
L 264.443241 242.120106 
L 265.650897 242.210611 
L 266.897509 241.31831 
L 268.105165 241.603241 
L 270.520477 238.34928 
L 271.767089 237.145249 
L 272.935788 236.82293 
L 274.143444 238.578633 
L 275.390056 238.681523 
L 276.597712 237.947685 
L 279.05198 237.222859 
L 280.259636 236.625139 
L 281.428335 233.581183 
L 282.674947 229.193789 
L 283.92156 226.962662 
L 285.129216 223.771956 
L 286.297915 221.796914 
L 288.752183 211.924677 
L 289.959839 203.455046 
L 291.167494 192.470764 
L 293.621763 166.319128 
L 294.751505 156.193961 
L 295.998117 147.683738 
L 297.24473 142.517466 
L 298.452386 141.777815 
L 299.698998 144.042098 
L 300.94561 151.469162 
L 305.893103 178.051577 
L 307.061802 185.055985 
L 308.308415 188.748095 
L 310.723726 195.206529 
L 313.177994 205.029601 
L 314.38565 208.074044 
L 315.554349 209.907292 
L 316.762005 212.420668 
L 318.047574 215.402674 
L 319.177317 217.122956 
L 320.423929 217.969303 
L 321.631585 220.035426 
L 322.800284 223.325817 
L 324.046896 227.190999 
L 325.176639 226.806485 
L 326.462208 227.502083 
L 327.630907 226.952999 
L 328.877519 228.145306 
L 330.046218 227.970718 
L 331.292831 226.703018 
L 332.46153 225.800746 
L 333.630229 227.259962 
L 334.915798 229.070939 
L 336.16241 231.590696 
L 337.370066 232.738638 
L 338.538765 234.555828 
L 339.707464 235.282254 
L 340.876163 236.329106 
L 342.161732 234.657686 
L 343.369388 233.357633 
L 344.616001 230.622614 
L 345.90157 228.807364 
L 348.200011 228.971201 
L 349.48558 226.733542 
L 350.654279 225.215121 
L 351.978805 223.965137 
L 353.030634 223.27612 
L 354.199333 223.601305 
L 355.523859 222.471446 
L 356.692558 220.322802 
L 357.900214 218.544044 
L 359.146826 219.185646 
L 360.432395 217.87808 
L 361.601094 214.289693 
L 362.769794 213.101334 
L 363.977449 211.173787 
L 365.263018 208.857434 
L 366.392761 209.08522 
L 367.639373 206.385407 
L 368.847029 204.220488 
L 370.015728 202.530592 
L 371.223384 201.888701 
L 372.43104 200.922366 
L 373.599739 198.781603 
L 374.846351 197.256054 
L 376.13192 193.246125 
L 377.417489 188.358376 
L 378.897841 186.968438 
L 380.222367 184.862431 
L 381.391066 181.233944 
L 382.598722 180.433953 
L 385.16986 176.960525 
L 386.338559 176.506186 
L 387.507258 175.4781 
L 388.714914 172.787318 
L 389.961526 170.844914 
L 391.247095 171.095632 
L 392.454751 170.191797 
L 393.467624 166.786272 
L 394.831106 165.802292 
L 397.246418 166.018214 
L 398.454073 165.171957 
L 399.739642 163.699457 
L 400.947298 161.796611 
L 402.077041 162.717576 
L 403.323653 162.842003 
L 404.531309 163.457356 
L 405.738964 163.136203 
L 406.907664 164.08611 
L 408.193233 169.234362 
L 409.439845 171.17298 
L 410.530631 170.247927 
L 411.660373 171.054944 
L 413.023856 172.755507 
L 414.231511 176.070799 
L 415.439167 177.355703 
L 416.763693 179.163128 
L 417.854479 182.857773 
L 419.062134 186.320326 
L 420.191877 190.505015 
L 421.477446 192.920846 
L 422.763015 195.047526 
L 425.100413 198.488897 
L 426.308069 201.048829 
L 427.788421 202.916006 
L 428.918164 204.864195 
L 430.047906 209.637033 
L 431.177649 211.165721 
L 432.424261 214.901173 
L 433.554003 217.802894 
L 434.800616 220.001176 
L 437.176971 220.833357 
L 438.501496 222.376614 
L 439.787065 223.574482 
L 442.04655 227.133892 
L 443.332119 227.466517 
L 444.461862 230.395784 
L 446.91613 231.337925 
L 448.084829 231.745219 
L 450.617011 232.974094 
L 451.78571 234.289946 
L 452.993365 234.739382 
L 454.006238 235.713369 
L 455.60346 236.727565 
L 457.200682 237.488407 
L 458.486251 236.769136 
L 459.577037 237.698044 
L 460.901563 238.066814 
L 462.148175 238.188368 
L 463.122091 238.635335 
L 464.52453 237.804435 
L 465.615316 235.525988 
L 466.822972 234.672947 
L 468.108541 232.095637 
L 469.355153 230.548696 
L 470.445939 227.494459 
L 471.731508 225.864163 
L 472.783337 223.432708 
L 474.146819 221.174508 
L 475.354475 220.267961 
L 477.769787 216.890043 
L 479.016399 215.399116 
L 480.418838 212.650375 
L 481.353797 212.496078 
L 482.639366 211.557882 
L 484.041805 211.434191 
L 484.937808 210.194417 
L 486.262334 209.184206 
L 487.508946 206.743912 
L 488.482862 203.402952 
L 489.807388 197.589137 
L 491.17087 190.131704 
L 492.495396 181.022162 
L 493.469311 170.252017 
L 494.482184 157.812779 
L 494.482184 157.812779 
" clip-path="url(#p8de76cdc95)" style="fill: none; stroke: #1f77b4; stroke-width: 2.5; stroke-linecap: square"/>
   </g>
   <g id="line2d_15">
    <path d="M 45.2732 288.721997 
L 45.234244 290.136269 
L 45.312157 288.457908 
L 45.662767 288.847958 
L 46.714596 288.539926 
L 50.805043 289.082151 
L 53.103484 289.211726 
L 55.129229 289.588708 
L 56.804365 289.709848 
L 60.622115 288.747949 
L 61.751858 288.734543 
L 62.8816 288.375924 
L 65.180042 288.176168 
L 67.595353 289.260118 
L 68.841966 289.496172 
L 70.088578 289.50621 
L 71.296234 289.375632 
L 73.828415 288.373276 
L 75.152941 288.447514 
L 79.126518 287.462278 
L 80.334174 287.88507 
L 81.541829 288.124541 
L 85.12584 288.529618 
L 88.787764 289.804214 
L 90.034376 288.894585 
L 92.527601 288.798821 
L 93.774214 288.302421 
L 94.942913 288.171458 
L 96.150568 287.909646 
L 97.436137 287.880249 
L 98.643793 288.255251 
L 99.812492 288.355424 
L 100.903278 288.946939 
L 102.110934 288.971348 
L 103.396503 289.418078 
L 104.643115 289.728264 
L 105.889728 289.764054 
L 107.097383 290.165065 
L 108.343996 289.807365 
L 109.590608 289.605723 
L 111.966963 289.538907 
L 113.213576 290.060664 
L 114.421231 290.10053 
L 116.875499 290.69134 
L 118.161068 290.69459 
L 119.407681 290.381184 
L 121.822992 289.360627 
L 122.991691 288.931511 
L 124.199347 288.246883 
L 125.407003 288.24267 
L 126.731529 287.902626 
L 129.14684 288.13615 
L 130.315539 287.860619 
L 131.562152 286.937243 
L 132.730851 286.440495 
L 133.977463 286.47692 
L 135.224076 285.783361 
L 136.431731 284.583313 
L 137.678344 284.840593 
L 138.885999 284.285061 
L 140.054699 284.209181 
L 141.301311 284.361376 
L 142.547923 283.781596 
L 143.755579 283.518905 
L 144.963235 283.53982 
L 146.209847 282.633485 
L 147.45646 280.299375 
L 148.625159 278.938669 
L 149.871771 278.425758 
L 151.079427 277.388296 
L 152.287083 277.084124 
L 153.494738 276.946268 
L 154.702394 277.144995 
L 155.91005 276.749661 
L 157.117706 277.100385 
L 158.364318 275.68005 
L 159.571974 274.992647 
L 160.818586 274.834934 
L 161.987285 274.087151 
L 163.233898 271.659836 
L 165.649209 268.081999 
L 166.856865 266.60672 
L 168.064521 264.613807 
L 169.272176 264.417596 
L 170.440876 262.858787 
L 171.687488 261.772394 
L 172.895144 259.873539 
L 175.310455 252.70756 
L 176.557068 249.829145 
L 177.764723 246.704771 
L 179.050292 244.179217 
L 180.257948 241.225996 
L 181.504561 237.630703 
L 186.413097 214.955707 
L 187.581796 211.549727 
L 188.789452 210.529878 
L 189.997107 211.027781 
L 191.204763 212.605933 
L 192.412419 215.269768 
L 193.659031 216.248224 
L 194.866687 215.415669 
L 196.1133 215.026279 
L 197.281999 215.689322 
L 198.450698 215.695136 
L 199.736267 216.366695 
L 200.982879 218.659508 
L 202.190535 219.56455 
L 203.320277 219.230981 
L 204.605846 219.014134 
L 205.774546 216.197915 
L 207.060115 212.255982 
L 209.436469 209.23354 
L 210.683082 208.274012 
L 211.890738 207.094608 
L 213.098393 206.996813 
L 214.267092 206.536663 
L 215.474748 207.195857 
L 216.682404 207.115138 
L 217.929016 207.319073 
L 219.175629 209.581241 
L 220.344328 212.864199 
L 221.59094 213.866895 
L 222.759639 216.388829 
L 224.006252 217.244296 
L 225.174951 218.443443 
L 226.382607 219.956322 
L 227.629219 220.858393 
L 228.836875 219.203042 
L 230.044531 218.889226 
L 231.252186 218.796074 
L 232.498799 219.044746 
L 233.667498 217.644866 
L 234.91411 217.489784 
L 236.121766 217.711172 
L 237.329422 219.469813 
L 238.498121 221.477545 
L 239.744733 222.039049 
L 240.952389 223.359077 
L 242.121088 225.383691 
L 243.3677 225.699657 
L 244.5364 226.578061 
L 245.821969 226.743867 
L 248.23728 229.381153 
L 249.444936 231.631544 
L 250.613635 232.057383 
L 251.860247 232.08321 
L 253.067903 232.806013 
L 254.275559 234.188015 
L 255.522171 232.558299 
L 256.729827 232.372073 
L 257.937483 234.642999 
L 259.145139 236.642347 
L 260.352794 237.311185 
L 261.56045 239.141711 
L 262.807062 238.450472 
L 265.261331 236.332737 
L 266.43003 235.879577 
L 267.676642 233.870223 
L 268.884298 232.620813 
L 270.01404 232.039238 
L 271.338566 230.95357 
L 272.507265 230.305533 
L 273.714921 230.788428 
L 274.922577 229.719278 
L 276.169189 229.973988 
L 277.376845 230.438673 
L 278.545544 231.891556 
L 279.831113 230.563033 
L 281.077725 227.767425 
L 282.246424 222.063377 
L 283.45408 217.376681 
L 284.622779 213.937854 
L 285.908348 208.949119 
L 287.116004 201.759141 
L 288.32366 192.366715 
L 290.777928 170.684744 
L 291.946627 156.253599 
L 293.115326 143.668582 
L 294.322982 135.43834 
L 295.569594 134.362042 
L 296.77725 136.835075 
L 297.984906 143.52088 
L 299.231518 151.627165 
L 301.7637 161.947737 
L 303.049269 161.258424 
L 304.179011 159.051733 
L 305.46458 159.264928 
L 306.672236 163.828395 
L 307.879892 166.927181 
L 309.087547 172.977473 
L 310.295203 181.144762 
L 311.463902 189.911118 
L 313.957127 204.107892 
L 315.125826 206.819657 
L 316.333482 210.038399 
L 317.619051 213.851845 
L 318.78775 216.869784 
L 319.956449 217.466052 
L 321.203062 218.77675 
L 322.410717 217.605283 
L 323.618373 218.230196 
L 324.748116 218.467588 
L 325.994728 217.98233 
L 327.202384 216.533452 
L 328.448996 216.752232 
L 329.695609 218.620711 
L 330.825351 218.907519 
L 332.033007 222.20755 
L 333.240663 223.322126 
L 334.448318 224.975505 
L 335.694931 224.695117 
L 336.941543 224.985263 
L 338.110242 225.134329 
L 339.356855 224.363618 
L 340.56451 223.26113 
L 341.811123 223.967487 
L 342.940865 221.911494 
L 344.109564 222.014447 
L 345.356177 221.330541 
L 346.563832 222.603737 
L 347.810445 222.253405 
L 348.979144 223.70424 
L 350.225756 224.350807 
L 351.511325 225.407313 
L 352.680025 226.56064 
L 353.809767 226.517297 
L 357.510648 220.120602 
L 358.75726 219.262299 
L 360.003872 218.137735 
L 361.133615 216.605912 
L 363.587883 217.064862 
L 364.756582 218.398542 
L 366.003194 218.294547 
L 367.171894 217.492719 
L 368.340593 217.129945 
L 369.626162 214.908216 
L 370.872774 213.153171 
L 372.041473 211.917173 
L 373.210172 208.739176 
L 374.495741 207.901172 
L 376.95001 202.262678 
L 378.430362 199.851307 
L 379.793844 197.247694 
L 381.0015 195.579161 
L 382.287069 190.52351 
L 383.494725 188.703291 
L 384.741337 188.469607 
L 385.910036 186.122011 
L 387.117692 185.278114 
L 388.364304 183.121724 
L 389.57196 179.677023 
L 390.701702 178.278128 
L 392.026228 178.434963 
L 393.233884 179.165782 
L 394.44154 177.3379 
L 396.778938 177.017786 
L 397.947637 175.899594 
L 399.272163 175.101965 
L 400.479818 172.893946 
L 401.687474 171.116193 
L 402.77826 171.182533 
L 404.102786 173.319364 
L 405.388355 177.359715 
L 407.76471 178.713797 
L 408.933409 179.875268 
L 410.180021 178.177279 
L 411.34872 178.645198 
L 412.673246 177.325899 
L 413.802988 178.931178 
L 417.542826 189.597975 
L 418.750481 191.318898 
L 419.91918 194.797887 
L 421.048923 196.01543 
L 422.295535 195.98946 
L 423.581104 200.149241 
L 424.632934 202.310142 
L 426.035372 207.226729 
L 427.126158 211.81177 
L 428.255901 213.808661 
L 429.502513 214.710479 
L 431.839911 218.88912 
L 433.203394 218.422176 
L 434.372093 218.402268 
L 435.579749 221.063241 
L 437.99506 221.384379 
L 439.319586 224.555973 
L 440.449328 225.346771 
L 441.618027 227.325121 
L 442.86464 230.331198 
L 444.111252 231.313333 
L 445.318908 232.09028 
L 446.56552 233.438727 
L 447.617349 235.646331 
L 450.149531 236.23942 
L 451.31823 239.471315 
L 452.564842 238.866637 
L 453.694585 238.033647 
L 455.058067 238.136368 
L 456.499463 236.767281 
L 457.979815 238.108659 
L 459.109557 238.507005 
L 460.395126 239.851198 
L 461.641739 240.489331 
L 462.888351 241.419942 
L 464.096007 242.948712 
L 465.225749 242.882579 
L 466.394449 241.09538 
L 467.602104 240.683333 
L 468.770803 238.412611 
L 469.978459 239.56873 
L 471.225072 239.162652 
L 473.79621 238.70223 
L 476.094651 239.213917 
L 477.38022 237.482904 
L 478.587876 233.776518 
L 479.717619 230.732208 
L 480.964231 227.708891 
L 482.210843 226.452525 
L 483.379542 224.827156 
L 484.743025 224.970892 
L 487.11938 227.598995 
L 488.327035 228.487712 
L 489.339908 228.03248 
L 490.547564 226.235104 
L 492.066873 222.760476 
L 493.274528 217.273488 
L 494.170531 209.439033 
L 494.170531 209.439033 
" clip-path="url(#p8de76cdc95)" style="fill: none; stroke: #d62728; stroke-width: 2.5; stroke-linecap: square"/>
   </g>
   <g id="line2d_16">
    <path d="M 47.065205 290.040281 
L 47.026249 287.767308 
L 46.987292 290.273169 
L 47.143119 289.870127 
L 47.727468 289.639888 
L 51.038782 289.487123 
L 53.298267 288.610796 
L 57.349758 288.686786 
L 58.908023 289.111928 
L 61.479161 289.479657 
L 62.608904 289.088965 
L 63.738646 289.665678 
L 64.868389 289.657934 
L 67.205787 289.038611 
L 68.413443 289.331374 
L 69.621098 289.453913 
L 70.867711 288.860904 
L 72.114323 288.47782 
L 73.399892 288.634845 
L 74.724418 288.207939 
L 76.126857 288.489445 
L 77.412426 288.189072 
L 78.697995 288.045332 
L 82.359919 288.790703 
L 83.567575 288.369247 
L 84.77523 288.432247 
L 86.021843 288.827123 
L 87.229498 288.150134 
L 88.398198 288.638871 
L 90.774552 288.205379 
L 92.021165 287.740907 
L 93.228821 287.506446 
L 94.436476 287.627622 
L 95.683089 287.378448 
L 96.890745 287.449124 
L 98.176314 287.869066 
L 99.383969 288.056284 
L 100.591625 289.054053 
L 103.006937 289.88379 
L 104.253549 289.499381 
L 106.66886 289.126678 
L 109.084172 287.877604 
L 110.252871 288.05516 
L 111.460527 287.951038 
L 112.668183 288.02844 
L 113.914795 287.851461 
L 116.369063 287.923077 
L 117.615676 288.244857 
L 118.823331 288.723035 
L 120.069944 288.632585 
L 121.277599 288.226518 
L 122.485255 288.202778 
L 123.731868 287.781023 
L 124.97848 286.828684 
L 126.225092 286.398556 
L 127.471705 286.141672 
L 131.133629 286.605284 
L 133.587897 286.0827 
L 134.795553 286.220142 
L 137.249821 285.134891 
L 138.496433 285.153194 
L 139.704089 284.589867 
L 140.911745 284.56711 
L 142.158357 283.946371 
L 145.820281 283.00914 
L 146.98898 283.27771 
L 148.157679 281.625285 
L 149.365335 280.432982 
L 154.195958 270.773432 
L 155.44257 269.059933 
L 156.650226 267.920428 
L 157.857882 267.550105 
L 159.065538 267.541678 
L 160.234237 266.334091 
L 161.519806 266.869039 
L 162.766418 265.001761 
L 163.974074 262.928958 
L 165.18173 260.102384 
L 166.428342 256.120414 
L 168.88261 251.599998 
L 170.051309 249.688766 
L 171.297922 248.130686 
L 172.466621 245.896497 
L 173.713233 243.880234 
L 174.842976 241.306291 
L 176.089588 239.53825 
L 177.258287 235.818502 
L 178.504899 232.92269 
L 179.790469 229.564125 
L 180.959168 225.438473 
L 182.166823 219.785531 
L 183.452392 214.523373 
L 184.660048 207.383888 
L 185.906661 202.121861 
L 187.114316 198.400654 
L 188.321972 191.182071 
L 189.490671 180.793937 
L 190.77624 172.615822 
L 191.983896 162.153619 
L 194.399207 146.568007 
L 195.606863 143.783491 
L 196.814519 140.072772 
L 198.061131 141.064236 
L 199.229831 144.597367 
L 200.437486 145.484818 
L 201.684099 146.71043 
L 202.891754 149.593681 
L 204.138367 151.751957 
L 206.514722 158.996641 
L 207.761334 157.026247 
L 208.96899 151.544157 
L 210.176646 149.085974 
L 211.423258 147.910458 
L 212.630914 145.435187 
L 213.838569 146.196131 
L 215.085182 146.754627 
L 216.331794 150.128339 
L 217.53945 154.564988 
L 218.786062 157.495805 
L 219.954762 157.727526 
L 221.162417 163.283623 
L 222.40903 166.476015 
L 223.616685 167.838205 
L 224.824341 169.748747 
L 226.031997 175.014115 
L 227.200696 176.996112 
L 228.447308 180.544732 
L 229.693921 184.611475 
L 230.901577 187.302349 
L 232.031319 192.411854 
L 233.200018 196.713662 
L 234.446631 197.02609 
L 235.693243 196.378676 
L 236.861942 196.027157 
L 238.108554 197.688061 
L 239.355167 198.115845 
L 240.562823 200.950361 
L 241.731522 205.019877 
L 242.939177 208.126217 
L 244.224747 209.249392 
L 245.354489 209.253588 
L 246.562145 210.734012 
L 249.016413 209.350979 
L 250.224069 210.58132 
L 251.431724 210.280644 
L 252.63938 210.459608 
L 253.885993 212.145833 
L 255.093648 212.486146 
L 257.50896 210.475843 
L 259.963228 211.920247 
L 261.09297 214.436267 
L 262.378539 215.556086 
L 263.586195 214.056466 
L 264.832808 214.740312 
L 266.07942 215.699571 
L 267.248119 215.631101 
L 268.416818 216.180118 
L 269.702387 214.801272 
L 270.871086 214.971022 
L 272.078742 216.246373 
L 273.286398 217.885271 
L 274.53301 218.108924 
L 275.779623 216.282748 
L 276.987278 216.257723 
L 278.194934 215.022878 
L 279.363633 214.766389 
L 280.571289 213.446386 
L 281.778945 209.610536 
L 283.064514 208.873655 
L 284.194256 207.676231 
L 285.440869 206.564031 
L 286.609568 205.00707 
L 287.85618 198.960528 
L 289.102793 193.84455 
L 290.271492 188.233556 
L 291.479147 178.90343 
L 293.933416 157.309962 
L 295.180028 146.940083 
L 296.270814 135.066511 
L 297.556383 124.888156 
L 298.725082 117.264581 
L 300.010651 110.021692 
L 301.335177 111.631196 
L 302.581789 117.06236 
L 303.750488 123.463531 
L 304.997101 133.141408 
L 306.1658 143.271813 
L 307.412412 149.180502 
L 309.86668 157.874998 
L 311.035379 161.25871 
L 312.243035 163.241338 
L 314.658347 177.121105 
L 317.112615 189.6869 
L 318.320271 192.954957 
L 319.60584 194.293085 
L 320.696625 196.477041 
L 321.982194 197.326401 
L 324.358549 197.376221 
L 326.773861 199.450711 
L 327.981517 199.907011 
L 329.189172 202.066757 
L 330.435785 202.512145 
L 331.64344 204.320932 
L 332.851096 207.498879 
L 334.019795 207.090948 
L 335.266408 205.80346 
L 336.51302 206.151947 
L 337.681719 207.207316 
L 338.928332 206.546217 
L 340.135987 206.820004 
L 341.304686 206.576711 
L 342.512342 205.759882 
L 343.836868 207.512003 
L 344.96661 208.096663 
L 346.135309 206.822371 
L 347.342965 203.559369 
L 348.667491 204.72779 
L 349.797233 206.439734 
L 351.043846 206.912329 
L 352.212545 206.984605 
L 353.420201 206.088765 
L 355.913425 206.135836 
L 357.043168 201.94821 
L 358.250824 199.200392 
L 359.458479 194.187424 
L 361.912748 190.29032 
L 363.120403 190.999266 
L 364.405972 192.094173 
L 365.574671 193.676256 
L 366.782327 194.221046 
L 367.951026 193.951671 
L 369.236595 191.911176 
L 370.366338 191.768914 
L 371.535037 188.530006 
L 372.820606 186.444923 
L 373.950348 183.820948 
L 375.235917 182.969461 
L 376.36566 181.214773 
L 377.884969 176.214009 
L 379.326364 172.683253 
L 380.65089 168.245303 
L 383.144115 162.423792 
L 384.273857 158.747585 
L 385.559426 157.402427 
L 386.767082 154.958566 
L 387.896825 153.036079 
L 389.143437 151.670644 
L 390.390049 149.22403 
L 391.519792 150.04945 
L 392.727448 150.053781 
L 393.97406 151.575779 
L 395.220672 149.565021 
L 396.545198 148.529716 
L 397.558071 148.119865 
L 398.84364 146.668901 
L 400.090252 144.489934 
L 401.142081 143.095512 
L 402.466607 140.469232 
L 403.596349 139.95357 
L 404.842962 142.978119 
L 406.011661 145.195259 
L 407.29723 145.639101 
L 408.426972 145.075401 
L 409.790455 146.487394 
L 412.088896 148.491754 
L 413.413422 148.377927 
L 414.504208 149.714579 
L 415.789777 152.081811 
L 416.919519 156.146654 
L 418.244045 159.417194 
L 419.646484 161.621271 
L 420.698313 160.044164 
L 421.789099 164.423645 
L 423.074668 166.191105 
L 425.412066 169.884981 
L 426.736592 174.398633 
L 429.151903 180.286092 
L 430.281646 183.430053 
L 431.567215 185.836525 
L 432.735914 187.748415 
L 433.748787 191.938218 
L 435.229139 193.454782 
L 436.397838 195.015889 
L 438.813149 200.337138 
L 440.020805 201.665921 
L 442.436117 205.160403 
L 443.643772 206.175129 
L 444.851428 206.760758 
L 446.020127 206.051069 
L 447.26674 207.40832 
L 448.474395 208.181607 
L 449.604138 209.814927 
L 451.006577 209.362335 
L 452.097363 207.634102 
L 453.382932 208.62902 
L 454.434761 210.682735 
L 455.993026 210.908343 
L 457.356509 211.489073 
L 458.564165 212.442402 
L 459.966603 214.848118 
L 461.252172 215.55958 
L 462.615655 216.975048 
L 463.667484 215.937375 
L 464.797226 213.823764 
L 466.082796 214.077253 
L 467.212538 212.74933 
L 468.381237 209.922127 
L 472.121074 200.104582 
L 473.32873 197.736994 
L 474.497429 197.801932 
L 475.588215 196.773654 
L 476.912741 196.028883 
L 478.120396 196.260133 
L 479.289096 196.693467 
L 480.652578 195.610512 
L 481.938147 195.110462 
L 483.067889 191.785079 
L 484.314502 189.14805 
L 485.444244 188.236025 
L 486.41816 186.690607 
L 487.781642 180.88325 
L 489.067211 174.910259 
L 490.274867 167.520851 
L 491.443566 158.605852 
L 493.742008 135.762387 
L 493.742008 135.762387 
" clip-path="url(#p8de76cdc95)" style="fill: none; stroke: #ff7f0e; stroke-width: 2.5; stroke-linecap: square"/>
   </g>
   <g id="line2d_17">
    <path d="M 45.74068 288.627152 
L 45.74068 288.743127 
L 45.662767 288.241707 
L 45.62381 288.271184 
L 45.62381 288.733831 
L 45.74068 288.454464 
L 47.026249 288.778325 
L 48.701384 289.6316 
L 50.999826 289.872179 
L 55.401926 289.850377 
L 59.804026 290.481959 
L 60.933768 289.80899 
L 62.063511 289.45464 
L 63.193253 289.632234 
L 64.322996 289.624934 
L 66.738307 289.390471 
L 69.192575 289.253121 
L 71.646844 289.469504 
L 72.854499 289.173068 
L 75.464594 289.678445 
L 76.828076 289.446156 
L 78.113645 289.764943 
L 79.399214 290.309122 
L 80.645827 290.274579 
L 81.853483 290.092904 
L 83.100095 290.385176 
L 86.723062 289.372135 
L 88.008631 288.703101 
L 89.216287 289.154833 
L 90.423943 289.352011 
L 91.670555 289.308132 
L 92.878211 288.909323 
L 94.085867 289.684431 
L 95.254566 289.944543 
L 96.540135 289.735813 
L 97.747791 289.803485 
L 98.994403 288.972485 
L 100.241015 289.011308 
L 101.487628 289.416767 
L 103.902939 288.633098 
L 105.071638 288.680137 
L 106.318251 289.393204 
L 109.941218 289.979175 
L 111.148874 289.33826 
L 112.356529 289.72845 
L 113.564185 289.71101 
L 114.810798 289.545091 
L 115.94054 288.747398 
L 117.148196 288.192478 
L 118.433765 288.521233 
L 119.602464 288.435795 
L 120.849076 288.554221 
L 122.095689 288.894652 
L 123.303345 288.579708 
L 124.549957 288.379217 
L 125.796569 288.592693 
L 127.043182 288.923413 
L 129.536407 286.694079 
L 130.783019 286.544973 
L 131.990675 285.939799 
L 133.19833 286.528103 
L 134.444943 286.429745 
L 136.860254 285.916079 
L 138.028953 286.5006 
L 139.236609 286.773068 
L 140.444265 286.601883 
L 142.898533 285.883399 
L 144.145145 285.397197 
L 145.352801 285.497055 
L 146.5215 283.96432 
L 147.768113 283.136622 
L 151.430037 279.235179 
L 152.598736 277.759335 
L 153.806391 276.554806 
L 155.053004 274.771678 
L 156.26066 274.198206 
L 157.468315 273.361863 
L 158.675971 271.630642 
L 159.922584 271.188489 
L 161.130239 270.044796 
L 163.545551 266.926567 
L 164.83112 265.031871 
L 166.077732 263.612306 
L 167.285388 261.326931 
L 168.493044 259.450527 
L 169.700699 257.354493 
L 172.116011 254.339679 
L 173.28471 253.249128 
L 174.492366 251.342679 
L 175.700022 250.758008 
L 176.907677 249.164856 
L 178.115333 248.71498 
L 179.284032 246.427124 
L 180.569601 245.094443 
L 181.816214 241.171614 
L 183.023869 238.042411 
L 184.231525 233.141171 
L 185.439181 227.640803 
L 186.685793 221.337086 
L 187.893449 217.073455 
L 189.140061 211.814972 
L 190.347717 210.140494 
L 191.516416 206.201387 
L 192.763029 205.475382 
L 193.970684 203.707296 
L 195.217297 205.751133 
L 196.424953 208.070892 
L 197.671565 208.973338 
L 198.879221 210.963457 
L 200.04792 211.894426 
L 202.502188 210.737506 
L 203.709844 207.19446 
L 204.878543 204.291399 
L 206.086199 202.482536 
L 207.332811 201.873741 
L 208.50151 201.168778 
L 209.709166 197.953056 
L 210.994735 197.94568 
L 212.163434 195.168003 
L 213.37109 193.933797 
L 214.578746 191.521781 
L 215.825358 189.323536 
L 217.07197 189.140157 
L 219.487282 193.418668 
L 220.694938 196.320146 
L 221.94155 196.684162 
L 223.110249 200.62525 
L 224.317905 199.645323 
L 225.603474 202.42627 
L 226.772173 202.273689 
L 228.018785 203.853476 
L 229.226441 206.652479 
L 230.434097 206.652237 
L 231.602796 207.134026 
L 232.810452 207.255363 
L 234.018108 205.033883 
L 235.303677 205.507994 
L 236.472376 205.058696 
L 237.680031 207.755209 
L 238.887687 209.565241 
L 240.1343 213.081042 
L 241.302999 215.916616 
L 242.549611 213.650908 
L 243.757267 212.733742 
L 246.172578 207.336614 
L 247.458147 204.41941 
L 248.665803 203.15874 
L 249.873459 202.459539 
L 251.081115 204.264399 
L 252.249814 206.542285 
L 253.45747 209.539287 
L 254.704082 210.07865 
L 255.872781 212.085081 
L 257.119393 215.02731 
L 258.288093 217.42337 
L 259.534705 217.242732 
L 260.742361 217.690166 
L 261.91106 217.99985 
L 263.118716 217.418655 
L 264.365328 217.014294 
L 265.534027 216.859057 
L 266.858553 215.424752 
L 269.195951 214.779083 
L 270.36465 214.700354 
L 271.650219 213.815239 
L 272.818918 213.575118 
L 274.065531 214.119226 
L 275.312143 214.915351 
L 277.727455 215.192092 
L 278.857197 215.185137 
L 280.103809 213.511368 
L 281.389378 209.172393 
L 283.765733 204.020036 
L 285.012346 200.623158 
L 286.258958 195.93812 
L 287.427657 192.07842 
L 289.842969 170.319863 
L 291.050624 158.003311 
L 293.465936 135.438569 
L 294.712548 130.844946 
L 295.959161 130.506413 
L 297.12786 133.688782 
L 298.374472 140.171507 
L 299.582128 147.89597 
L 302.114309 154.365046 
L 303.399878 155.630873 
L 304.607534 157.703919 
L 305.81519 156.281587 
L 309.438157 161.13362 
L 310.606856 166.609503 
L 311.853469 170.809698 
L 312.983211 176.386348 
L 314.26878 181.867256 
L 315.515393 188.79073 
L 316.723048 193.196205 
L 317.852791 196.879282 
L 319.13836 200.268893 
L 321.514715 198.971308 
L 322.722371 202.342329 
L 323.930026 201.149244 
L 325.176639 202.38327 
L 326.384294 205.388944 
L 327.552994 208.826553 
L 328.799606 210.252731 
L 329.968305 214.030985 
L 331.175961 213.2077 
L 332.34466 212.092927 
L 333.708142 212.707152 
L 334.915798 212.571692 
L 336.04554 209.385567 
L 337.21424 208.902696 
L 338.538765 210.118371 
L 339.668508 210.521719 
L 340.837207 212.658539 
L 342.083819 213.48932 
L 343.291475 212.930015 
L 344.577044 214.179623 
L 345.745743 213.768842 
L 346.914442 212.158951 
L 348.238968 211.799821 
L 349.36871 208.181333 
L 351.822979 205.147855 
L 353.030634 204.497372 
L 354.199333 200.918635 
L 356.614645 195.164825 
L 359.029956 190.915543 
L 360.237612 191.728277 
L 361.484225 188.990444 
L 362.652924 188.71022 
L 365.146148 186.413078 
L 366.314848 184.570742 
L 367.483547 179.537998 
L 368.691202 177.532708 
L 369.937815 175.9477 
L 371.145471 172.742925 
L 372.353126 172.812893 
L 373.521825 172.736995 
L 374.807394 170.924328 
L 376.01505 167.6743 
L 377.378533 165.743929 
L 378.742015 161.829777 
L 380.105497 156.044326 
L 381.391066 154.096984 
L 382.559765 150.579833 
L 383.923248 147.303952 
L 385.091947 145.554977 
L 386.299602 145.487157 
L 387.507258 141.861495 
L 388.714914 139.487251 
L 391.169182 135.247288 
L 392.337881 135.243706 
L 393.467624 135.903893 
L 394.714236 136.917739 
L 395.921892 137.498402 
L 397.168504 135.926498 
L 398.37616 133.560272 
L 399.544859 129.963481 
L 402.038084 129.597219 
L 403.24574 128.859875 
L 405.622095 134.900185 
L 407.959493 139.825373 
L 409.284018 141.586677 
L 410.530631 141.196879 
L 411.8162 140.250191 
L 413.023856 142.718898 
L 414.114641 145.51938 
L 415.361254 146.405409 
L 417.737609 153.034784 
L 418.984221 157.020727 
L 420.15292 162.57831 
L 421.360576 164.692304 
L 422.607188 167.187284 
L 424.048584 167.508723 
L 425.25624 172.174795 
L 426.308069 175.303884 
L 427.554681 176.280821 
L 428.684424 178.951111 
L 429.77521 182.549778 
L 431.060779 188.110321 
L 432.385304 191.142017 
L 433.515047 192.288189 
L 434.761659 195.493332 
L 435.930358 196.632608 
L 437.254884 199.754251 
L 438.46254 200.470098 
L 439.592282 199.844564 
L 440.722025 202.186233 
L 442.007594 202.687293 
L 443.254206 205.396256 
L 444.306035 203.912644 
L 445.630561 204.274503 
L 446.760303 205.241025 
L 448.045872 206.503404 
L 449.292485 205.98501 
L 450.500141 207.172053 
L 451.707796 207.736596 
L 452.798582 209.367281 
L 454.006238 210.016405 
L 455.447634 211.810311 
L 456.927986 212.823787 
L 458.213555 215.859435 
L 459.53808 218.074916 
L 460.628866 220.927596 
L 462.148175 221.615733 
L 463.394788 224.675195 
L 464.212877 224.763062 
L 465.381576 223.296329 
L 466.706102 220.969411 
L 467.991671 218.984771 
L 469.199326 217.575215 
L 470.406982 215.941608 
L 471.653595 214.472064 
L 472.900207 214.885574 
L 474.02995 217.485849 
L 475.237605 219.466586 
L 476.484218 218.652375 
L 477.73083 218.338959 
L 478.821616 217.402841 
L 480.224055 217.450669 
L 481.353797 216.944794 
L 482.639366 217.358653 
L 483.847022 216.426699 
L 485.015721 214.738835 
L 486.262334 215.842233 
L 487.431033 213.976927 
L 488.638688 208.866876 
L 489.885301 205.221899 
L 490.976087 201.541607 
L 492.222699 197.984449 
L 493.508268 194.708871 
L 494.365314 191.873321 
L 494.365314 191.873321 
" clip-path="url(#p8de76cdc95)" style="fill: none; stroke: #9467bd; stroke-width: 2.5; stroke-linecap: square"/>
   </g>
   <g id="line2d_18">
    <path d="M 46.792509 288.886085 
L 46.714596 288.012251 
L 46.714596 289.375047 
L 46.636682 290.048532 
L 46.753552 289.479276 
L 47.298945 289.092001 
L 48.467644 288.412823 
L 50.298606 288.085205 
L 52.558091 287.816293 
L 54.77862 287.964292 
L 56.726452 287.665162 
L 58.36263 288.333068 
L 59.765069 289.179696 
L 60.972725 289.085291 
L 62.102467 288.557885 
L 63.193253 289.12462 
L 64.361952 289.078732 
L 65.530652 289.255956 
L 66.660394 289.202365 
L 67.907006 289.713575 
L 69.153619 289.828225 
L 70.361275 290.338105 
L 71.646844 290.522729 
L 72.893456 289.3816 
L 74.217982 289.022331 
L 75.542507 289.203164 
L 78.191559 288.938301 
L 79.477128 289.271242 
L 80.684783 289.428503 
L 81.931396 289.331703 
L 83.100095 289.438899 
L 84.307751 289.959493 
L 85.515406 289.904853 
L 86.762019 290.321888 
L 87.969675 290.589313 
L 89.216287 290.994082 
L 90.423943 290.473424 
L 91.670555 289.710898 
L 92.878211 288.659164 
L 94.085867 288.287887 
L 96.501178 288.404706 
L 97.708834 288.153803 
L 98.91649 288.424086 
L 100.124145 289.182278 
L 101.370758 289.355274 
L 102.578414 289.282794 
L 104.993725 289.288969 
L 106.201381 289.624891 
L 107.447993 289.65946 
L 108.694606 289.029127 
L 109.863305 288.711259 
L 111.07096 288.797533 
L 112.278616 288.464599 
L 113.486272 287.987905 
L 115.901583 287.546728 
L 117.109239 286.772553 
L 119.563507 285.581433 
L 120.81012 285.392171 
L 122.056732 285.799773 
L 124.549957 285.688066 
L 125.796569 286.539034 
L 127.043182 286.515827 
L 128.250837 287.113385 
L 130.666149 285.773356 
L 131.834848 284.781578 
L 133.120417 284.986469 
L 135.574685 283.320533 
L 136.821298 283.411794 
L 138.028953 283.135736 
L 139.275566 282.514708 
L 140.522178 282.770642 
L 141.690877 281.194641 
L 142.898533 280.348088 
L 144.145145 279.101688 
L 145.313845 279.109396 
L 146.560457 277.824491 
L 147.807069 275.429546 
L 150.222381 272.742316 
L 151.39108 271.161639 
L 152.637692 270.294149 
L 153.845348 267.267527 
L 155.014047 264.71793 
L 156.221703 263.530307 
L 157.507272 261.851326 
L 158.714928 259.391798 
L 159.883627 255.957987 
L 162.337895 253.309203 
L 164.792163 247.91564 
L 165.960862 243.227698 
L 167.129561 240.77127 
L 168.376174 239.796721 
L 169.622786 234.400697 
L 170.830442 230.605614 
L 172.038098 225.914726 
L 173.206797 220.080465 
L 174.453409 216.373366 
L 175.661065 211.604933 
L 176.868721 208.555204 
L 178.115333 204.857176 
L 179.322989 201.988064 
L 180.491688 195.097753 
L 181.699344 186.886355 
L 182.945956 176.285588 
L 185.439181 150.080377 
L 186.763707 142.049929 
L 187.971362 132.21593 
L 190.386674 120.222045 
L 191.59433 118.973635 
L 192.840942 117.488467 
L 194.009641 120.487935 
L 195.17834 123.166277 
L 196.385996 129.770454 
L 198.840264 141.51128 
L 200.04792 143.674504 
L 201.294532 147.218569 
L 202.463231 145.857224 
L 203.709844 147.384881 
L 204.9175 145.819548 
L 206.164112 145.605736 
L 207.371768 146.684464 
L 208.540467 146.375193 
L 209.787079 145.146093 
L 210.994735 143.100673 
L 212.163434 143.504796 
L 213.410046 144.347426 
L 214.617702 144.527819 
L 215.864315 147.080506 
L 217.033014 151.188599 
L 219.487282 164.114476 
L 220.733894 166.789986 
L 221.902593 172.400041 
L 223.110249 175.14689 
L 224.356862 179.284985 
L 225.525561 180.034754 
L 226.772173 179.235563 
L 227.979829 180.978335 
L 229.187485 181.309228 
L 230.434097 182.927958 
L 231.641753 184.953842 
L 232.849408 186.62812 
L 234.018108 190.493423 
L 235.26472 191.671947 
L 236.472376 193.694242 
L 237.680031 193.889757 
L 238.887687 192.665032 
L 240.095343 195.39567 
L 241.341955 192.801442 
L 242.549611 193.702221 
L 244.964923 201.639045 
L 246.172578 204.328951 
L 247.341277 204.52139 
L 248.58789 206.240192 
L 249.795546 204.487444 
L 251.003201 203.316438 
L 252.210857 204.042402 
L 253.418513 202.467506 
L 254.626169 201.940296 
L 255.794868 204.766738 
L 257.080437 205.952338 
L 258.288093 208.710554 
L 259.534705 209.50402 
L 260.664447 210.65867 
L 261.872103 209.891181 
L 263.118716 211.426265 
L 264.326371 212.456497 
L 265.534027 210.192196 
L 266.741683 207.450447 
L 267.910382 206.486605 
L 269.195951 204.768324 
L 270.403607 204.716399 
L 271.650219 202.888852 
L 272.818918 201.746132 
L 273.987617 201.674641 
L 275.23423 201.064465 
L 276.441885 199.893537 
L 277.649541 197.224248 
L 278.93511 195.126532 
L 280.142766 192.498944 
L 281.311465 188.631986 
L 282.480164 180.868913 
L 283.726777 173.345452 
L 286.064175 147.844948 
L 287.232874 123.3344 
L 289.726099 75.752438 
L 290.972711 60.811488 
L 292.14141 52.758931 
L 293.388023 51.656443 
L 294.634635 60.248365 
L 298.296559 114.235662 
L 299.543171 121.104409 
L 300.82874 129.765779 
L 303.360922 143.125879 
L 304.529621 148.575894 
L 305.58145 152.622059 
L 309.321287 173.885909 
L 310.528943 178.598286 
L 311.775555 181.321174 
L 312.983211 185.259761 
L 314.229824 187.884016 
L 315.437479 188.972872 
L 316.684092 193.020418 
L 317.852791 193.426724 
L 319.099403 196.053744 
L 321.475758 200.011501 
L 322.722371 202.673055 
L 323.968983 203.251602 
L 325.176639 205.632989 
L 326.384294 209.118915 
L 327.59195 210.232568 
L 328.721693 213.420868 
L 330.046218 212.835138 
L 331.175961 215.108018 
L 332.383617 213.092497 
L 333.591272 211.867743 
L 334.798928 211.882621 
L 336.04554 210.926493 
L 337.331109 210.346658 
L 338.460852 212.14313 
L 339.629551 211.733403 
L 340.993033 212.578774 
L 342.122776 212.373669 
L 343.408345 213.156844 
L 344.577044 210.854005 
L 345.66783 210.420244 
L 346.992356 213.180845 
L 348.122098 211.996526 
L 349.36871 208.801267 
L 350.576366 209.234208 
L 351.745065 209.529658 
L 353.030634 208.954083 
L 354.23829 204.792747 
L 355.368033 201.71232 
L 356.614645 201.145316 
L 357.822301 198.331 
L 359.029956 199.23896 
L 360.237612 196.910404 
L 361.523181 196.045772 
L 362.69188 196.31654 
L 363.899536 197.351731 
L 365.107192 194.073909 
L 366.353804 187.704045 
L 367.522503 183.828042 
L 368.691202 181.778582 
L 369.937815 178.836996 
L 371.184427 179.09379 
L 373.560782 176.314567 
L 374.885308 173.498492 
L 375.976094 168.720603 
L 378.780971 155.545076 
L 380.144454 152.565497 
L 381.35211 150.345204 
L 382.559765 151.209248 
L 383.884291 151.984576 
L 385.091947 154.179056 
L 386.299602 155.319147 
L 387.468302 154.222158 
L 389.883613 146.954253 
L 391.130225 145.979353 
L 392.337881 142.390557 
L 393.50658 141.060665 
L 394.714236 144.566314 
L 397.207461 150.96548 
L 398.415117 151.788893 
L 399.583816 152.359102 
L 400.791472 151.293985 
L 402.038084 152.048693 
L 403.167826 153.931621 
L 404.492352 153.053126 
L 405.622095 153.360894 
L 406.94662 156.983022 
L 408.115319 159.49233 
L 410.530631 162.722754 
L 411.738287 166.626248 
L 412.945942 168.672721 
L 414.114641 171.822141 
L 415.40021 173.895531 
L 416.529953 175.401184 
L 417.893435 176.09443 
L 418.906308 179.732631 
L 420.191877 183.347847 
L 421.516403 186.651692 
L 422.607188 190.754887 
L 423.853801 194.676334 
L 425.334153 197.87732 
L 426.424939 197.902677 
L 427.593638 198.050472 
L 428.645467 198.442136 
L 429.853123 201.498911 
L 431.138692 205.955408 
L 432.385304 207.126209 
L 433.554003 209.424662 
L 435.852445 216.272581 
L 437.138014 218.417847 
L 438.34567 219.4458 
L 439.631239 218.746629 
L 440.760981 219.185731 
L 443.254206 223.129579 
L 444.500818 220.373838 
L 445.630561 220.694012 
L 446.79926 220.657189 
L 448.006916 221.244198 
L 449.253528 220.494285 
L 450.422227 222.418473 
L 451.66884 221.977365 
L 452.915452 223.621345 
L 455.447634 229.912822 
L 456.927986 231.115838 
L 458.135642 234.104678 
L 459.460167 236.091737 
L 461.875479 237.28129 
L 463.161048 237.05212 
L 464.563487 236.051335 
L 465.537403 234.808689 
L 466.667145 235.636677 
L 467.796888 234.265301 
L 469.121413 231.711422 
L 470.329069 230.292205 
L 471.575681 229.721668 
L 472.86125 228.611088 
L 474.02995 228.460131 
L 475.198649 227.654651 
L 476.367348 227.991704 
L 477.73083 231.157002 
L 478.860573 233.341767 
L 480.068228 233.728934 
L 481.314841 234.747731 
L 482.561453 235.182493 
L 483.613282 237.436336 
L 485.054678 236.898829 
L 486.340247 236.74402 
L 487.586859 236.805046 
L 488.521819 235.679384 
L 489.651561 235.729969 
L 491.092957 234.806758 
L 492.339569 232.332057 
L 493.274528 227.728171 
L 494.482184 220.417409 
L 494.482184 220.417409 
" clip-path="url(#p8de76cdc95)" style="fill: none; stroke: #2ca02c; stroke-width: 2.5; stroke-linecap: square"/>
   </g>
   <g id="patch_3">
    <path d="M 47.298945 303.182656 
L 47.298945 39.679004 
" style="fill: none; stroke: #000000; stroke-width: 1.5; stroke-linejoin: miter; stroke-linecap: square"/>
   </g>
   <g id="patch_4">
    <path d="M 47.298945 303.182656 
L 495.300273 303.182656 
" style="fill: none; stroke: #000000; stroke-width: 1.5; stroke-linejoin: miter; stroke-linecap: square"/>
   </g>
   <g id="text_16">
    <!-- 1421_wo_HF -->
    <g transform="translate(229.664922 18.441699) scale(0.14 -0.14)">
     <defs>
      <path id="ArialMT-42" d="M -97 -1272 
L -97 -866 
L 3631 -866 
L 3631 -1272 
L -97 -1272 
z
" transform="scale(0.015625)"/>
      <path id="ArialMT-5a" d="M 1034 0 
L 19 3319 
L 600 3319 
L 1128 1403 
L 1325 691 
Q 1338 744 1497 1375 
L 2025 3319 
L 2603 3319 
L 3100 1394 
L 3266 759 
L 3456 1400 
L 4025 3319 
L 4572 3319 
L 3534 0 
L 2950 0 
L 2422 1988 
L 2294 2553 
L 1622 0 
L 1034 0 
z
" transform="scale(0.015625)"/>
      <path id="ArialMT-2b" d="M 513 0 
L 513 4581 
L 1119 4581 
L 1119 2700 
L 3500 2700 
L 3500 4581 
L 4106 4581 
L 4106 0 
L 3500 0 
L 3500 2159 
L 1119 2159 
L 1119 0 
L 513 0 
z
" transform="scale(0.015625)"/>
      <path id="ArialMT-29" d="M 525 0 
L 525 4581 
L 3616 4581 
L 3616 4041 
L 1131 4041 
L 1131 2622 
L 3281 2622 
L 3281 2081 
L 1131 2081 
L 1131 0 
L 525 0 
z
" transform="scale(0.015625)"/>
     </defs>
     <use xlink:href="#ArialMT-14"/>
     <use xlink:href="#ArialMT-17" transform="translate(55.609375 0)"/>
     <use xlink:href="#ArialMT-15" transform="translate(111.21875 0)"/>
     <use xlink:href="#ArialMT-14" transform="translate(166.828125 0)"/>
     <use xlink:href="#ArialMT-42" transform="translate(222.4375 0)"/>
     <use xlink:href="#ArialMT-5a" transform="translate(278.046875 0)"/>
     <use xlink:href="#ArialMT-52" transform="translate(350.265625 0)"/>
     <use xlink:href="#ArialMT-42" transform="translate(405.875 0)"/>
     <use xlink:href="#ArialMT-2b" transform="translate(461.484375 0)"/>
     <use xlink:href="#ArialMT-29" transform="translate(533.703125 0)"/>
    </g>
    <!-- m/z 12 -->
    <g transform="translate(250.294141 33.679004) scale(0.14 -0.14)">
     <use xlink:href="#ArialMT-50"/>
     <use xlink:href="#ArialMT-12" transform="translate(83.296875 0)"/>
     <use xlink:href="#ArialMT-5d" transform="translate(111.078125 0)"/>
     <use xlink:href="#ArialMT-3" transform="translate(161.078125 0)"/>
     <use xlink:href="#ArialMT-14" transform="translate(188.859375 0)"/>
     <use xlink:href="#ArialMT-15" transform="translate(244.46875 0)"/>
    </g>
   </g>
   <g id="legend_1">
    <g id="line2d_19">
     <path d="M 513.2603 52.459277 
L 523.2603 52.459277 
L 533.2603 52.459277 
" style="fill: none; stroke: #000000; stroke-width: 2.5; stroke-linecap: square"/>
    </g>
    <g id="text_17">
     <!-- 0 h -->
     <g transform="translate(541.2603 55.959277) scale(0.1 -0.1)">
      <defs>
       <path id="ArialMT-4b" d="M 422 0 
L 422 4581 
L 984 4581 
L 984 2938 
Q 1378 3394 1978 3394 
Q 2347 3394 2619 3248 
Q 2891 3103 3008 2847 
Q 3125 2591 3125 2103 
L 3125 0 
L 2563 0 
L 2563 2103 
Q 2563 2525 2380 2717 
Q 2197 2909 1863 2909 
Q 1613 2909 1392 2779 
Q 1172 2650 1078 2428 
Q 984 2206 984 1816 
L 984 0 
L 422 0 
z
" transform="scale(0.015625)"/>
      </defs>
      <use xlink:href="#ArialMT-13"/>
      <use xlink:href="#ArialMT-3" transform="translate(55.609375 0)"/>
      <use xlink:href="#ArialMT-4b" transform="translate(83.390625 0)"/>
     </g>
    </g>
    <g id="line2d_20">
     <path d="M 513.2603 66.844043 
L 523.2603 66.844043 
L 533.2603 66.844043 
" style="fill: none; stroke: #1f77b4; stroke-width: 2.5; stroke-linecap: square"/>
    </g>
    <g id="text_18">
     <!-- 6 h -->
     <g transform="translate(541.2603 70.344043) scale(0.1 -0.1)">
      <use xlink:href="#ArialMT-19"/>
      <use xlink:href="#ArialMT-3" transform="translate(55.609375 0)"/>
      <use xlink:href="#ArialMT-4b" transform="translate(83.390625 0)"/>
     </g>
    </g>
    <g id="line2d_21">
     <path d="M 513.2603 81.228809 
L 523.2603 81.228809 
L 533.2603 81.228809 
" style="fill: none; stroke: #d62728; stroke-width: 2.5; stroke-linecap: square"/>
    </g>
    <g id="text_19">
     <!-- 24 h -->
     <g transform="translate(541.2603 84.728809) scale(0.1 -0.1)">
      <use xlink:href="#ArialMT-15"/>
      <use xlink:href="#ArialMT-17" transform="translate(55.609375 0)"/>
      <use xlink:href="#ArialMT-3" transform="translate(111.21875 0)"/>
      <use xlink:href="#ArialMT-4b" transform="translate(139 0)"/>
     </g>
    </g>
    <g id="line2d_22">
     <path d="M 513.2603 95.613574 
L 523.2603 95.613574 
L 533.2603 95.613574 
" style="fill: none; stroke: #ff7f0e; stroke-width: 2.5; stroke-linecap: square"/>
    </g>
    <g id="text_20">
     <!-- 7 d -->
     <g transform="translate(541.2603 99.113574) scale(0.1 -0.1)">
      <defs>
       <path id="ArialMT-1a" d="M 303 3981 
L 303 4522 
L 3269 4522 
L 3269 4084 
Q 2831 3619 2401 2847 
Q 1972 2075 1738 1259 
Q 1569 684 1522 0 
L 944 0 
Q 953 541 1156 1306 
Q 1359 2072 1739 2783 
Q 2119 3494 2547 3981 
L 303 3981 
z
" transform="scale(0.015625)"/>
       <path id="ArialMT-47" d="M 2575 0 
L 2575 419 
Q 2259 -75 1647 -75 
Q 1250 -75 917 144 
Q 584 363 401 755 
Q 219 1147 219 1656 
Q 219 2153 384 2558 
Q 550 2963 881 3178 
Q 1213 3394 1622 3394 
Q 1922 3394 2156 3267 
Q 2391 3141 2538 2938 
L 2538 4581 
L 3097 4581 
L 3097 0 
L 2575 0 
z
M 797 1656 
Q 797 1019 1065 703 
Q 1334 388 1700 388 
Q 2069 388 2326 689 
Q 2584 991 2584 1609 
Q 2584 2291 2321 2609 
Q 2059 2928 1675 2928 
Q 1300 2928 1048 2622 
Q 797 2316 797 1656 
z
" transform="scale(0.015625)"/>
      </defs>
      <use xlink:href="#ArialMT-1a"/>
      <use xlink:href="#ArialMT-3" transform="translate(55.609375 0)"/>
      <use xlink:href="#ArialMT-47" transform="translate(83.390625 0)"/>
     </g>
    </g>
    <g id="line2d_23">
     <path d="M 513.2603 109.99834 
L 523.2603 109.99834 
L 533.2603 109.99834 
" style="fill: none; stroke: #9467bd; stroke-width: 2.5; stroke-linecap: square"/>
    </g>
    <g id="text_21">
     <!-- 14 d -->
     <g transform="translate(541.2603 113.49834) scale(0.1 -0.1)">
      <use xlink:href="#ArialMT-14"/>
      <use xlink:href="#ArialMT-17" transform="translate(55.609375 0)"/>
      <use xlink:href="#ArialMT-3" transform="translate(111.21875 0)"/>
      <use xlink:href="#ArialMT-47" transform="translate(139 0)"/>
     </g>
    </g>
    <g id="line2d_24">
     <path d="M 513.2603 124.383105 
L 523.2603 124.383105 
L 533.2603 124.383105 
" style="fill: none; stroke: #2ca02c; stroke-width: 2.5; stroke-linecap: square"/>
    </g>
    <g id="text_22">
     <!-- 28 d -->
     <g transform="translate(541.2603 127.883105) scale(0.1 -0.1)">
      <use xlink:href="#ArialMT-15"/>
      <use xlink:href="#ArialMT-1b" transform="translate(55.609375 0)"/>
      <use xlink:href="#ArialMT-3" transform="translate(111.21875 0)"/>
      <use xlink:href="#ArialMT-47" transform="translate(139 0)"/>
     </g>
    </g>
   </g>
  </g>
 </g>
 <defs>
  <clipPath id="p8de76cdc95">
   <rect x="47.298945" y="39.679004" width="448.001328" height="263.503652"/>
  </clipPath>
 </defs>
</svg>
