<?xml version="1.0" encoding="utf-8" standalone="no"?>
<!DOCTYPE svg PUBLIC "-//W3C//DTD SVG 1.1//EN"
  "http://www.w3.org/Graphics/SVG/1.1/DTD/svg11.dtd">
<svg xmlns:xlink="http://www.w3.org/1999/xlink" width="571.99695pt" height="344.160273pt" viewBox="0 0 571.99695 344.160273" xmlns="http://www.w3.org/2000/svg" version="1.1">
 <metadata>
  <rdf:RDF xmlns:dc="http://purl.org/dc/elements/1.1/" xmlns:cc="http://creativecommons.org/ns#" xmlns:rdf="http://www.w3.org/1999/02/22-rdf-syntax-ns#">
   <cc:Work>
    <dc:type rdf:resource="http://purl.org/dc/dcmitype/StillImage"/>
    <dc:date>2026-07-10T11:48:29.607039</dc:date>
    <dc:format>image/svg+xml</dc:format>
    <dc:creator>
     <cc:Agent>
      <dc:title>Matplotlib v3.11.0, https://matplotlib.org/</dc:title>
     </cc:Agent>
    </dc:creator>
   </cc:Work>
  </rdf:RDF>
 </metadata>
 <defs>
  <style type="text/css">*{stroke-linejoin: round; stroke-linecap: butt}</style>
 </defs>
 <g id="figure_1">
  <g id="patch_1">
   <path d="M 0 344.160273 
L 571.99695 344.160273 
L 571.99695 0 
L 0 0 
z
" style="fill: #ffffff"/>
  </g>
  <g id="axes_1">
   <g id="patch_2">
    <path d="M 35.624258 303.182656 
L 495.145586 303.182656 
L 495.145586 39.679004 
L 35.624258 39.679004 
z
" style="fill: #ffffff"/>
   </g>
   <g id="matplotlib.axis_1">
    <g id="xtick_1">
     <g id="line2d_1">
      <defs>
       <path id="m73353770f3" d="M 0 0 
L 0 -6 
" style="stroke: #000000; stroke-width: 0.8"/>
      </defs>
      <g>
       <use xlink:href="#m73353770f3" x="95.561822" y="303.182656" style="stroke: #000000; stroke-width: 0.8"/>
      </g>
     </g>
     <g id="text_1">
      <!-- 200 -->
      <g transform="translate(83.883854 316.875039) scale(0.14 -0.14)">
       <defs>
        <path id="ArialMT-15" d="M 3222 541 
L 3222 0 
L 194 0 
Q 188 203 259 391 
Q 375 700 629 1000 
Q 884 1300 1366 1694 
Q 2113 2306 2375 2664 
Q 2638 3022 2638 3341 
Q 2638 3675 2398 3904 
Q 2159 4134 1775 4134 
Q 1369 4134 1125 3890 
Q 881 3647 878 3216 
L 300 3275 
Q 359 3922 746 4261 
Q 1134 4600 1788 4600 
Q 2447 4600 2831 4234 
Q 3216 3869 3216 3328 
Q 3216 3053 3103 2787 
Q 2991 2522 2730 2228 
Q 2469 1934 1863 1422 
Q 1356 997 1212 845 
Q 1069 694 975 541 
L 3222 541 
z
" transform="scale(0.015625)"/>
        <path id="ArialMT-13" d="M 266 2259 
Q 266 3072 433 3567 
Q 600 4063 929 4331 
Q 1259 4600 1759 4600 
Q 2128 4600 2406 4451 
Q 2684 4303 2865 4023 
Q 3047 3744 3150 3342 
Q 3253 2941 3253 2259 
Q 3253 1453 3087 958 
Q 2922 463 2592 192 
Q 2263 -78 1759 -78 
Q 1097 -78 719 397 
Q 266 969 266 2259 
z
M 844 2259 
Q 844 1131 1108 757 
Q 1372 384 1759 384 
Q 2147 384 2411 759 
Q 2675 1134 2675 2259 
Q 2675 3391 2411 3762 
Q 2147 4134 1753 4134 
Q 1366 4134 1134 3806 
Q 844 3388 844 2259 
z
" transform="scale(0.015625)"/>
       </defs>
       <use xlink:href="#ArialMT-15"/>
       <use xlink:href="#ArialMT-13" transform="translate(55.609375 0)"/>
       <use xlink:href="#ArialMT-13" transform="translate(111.21875 0)"/>
      </g>
     </g>
    </g>
    <g id="xtick_2">
     <g id="line2d_2">
      <g>
       <use xlink:href="#m73353770f3" x="175.478575" y="303.182656" style="stroke: #000000; stroke-width: 0.8"/>
      </g>
     </g>
     <g id="text_2">
      <!-- 400 -->
      <g transform="translate(163.800606 316.875039) scale(0.14 -0.14)">
       <defs>
        <path id="ArialMT-17" d="M 2069 0 
L 2069 1097 
L 81 1097 
L 81 1613 
L 2172 4581 
L 2631 4581 
L 2631 1613 
L 3250 1613 
L 3250 1097 
L 2631 1097 
L 2631 0 
L 2069 0 
z
M 2069 1613 
L 2069 3678 
L 634 1613 
L 2069 1613 
z
" transform="scale(0.015625)"/>
       </defs>
       <use xlink:href="#ArialMT-17"/>
       <use xlink:href="#ArialMT-13" transform="translate(55.609375 0)"/>
       <use xlink:href="#ArialMT-13" transform="translate(111.21875 0)"/>
      </g>
     </g>
    </g>
    <g id="xtick_3">
     <g id="line2d_3">
      <g>
       <use xlink:href="#m73353770f3" x="255.395328" y="303.182656" style="stroke: #000000; stroke-width: 0.8"/>
      </g>
     </g>
     <g id="text_3">
      <!-- 600 -->
      <g transform="translate(243.717359 316.875039) scale(0.14 -0.14)">
       <defs>
        <path id="ArialMT-19" d="M 3184 3459 
L 2625 3416 
Q 2550 3747 2413 3897 
Q 2184 4138 1850 4138 
Q 1581 4138 1378 3988 
Q 1113 3794 959 3422 
Q 806 3050 800 2363 
Q 1003 2672 1297 2822 
Q 1591 2972 1913 2972 
Q 2475 2972 2870 2558 
Q 3266 2144 3266 1488 
Q 3266 1056 3080 686 
Q 2894 316 2569 119 
Q 2244 -78 1831 -78 
Q 1128 -78 684 439 
Q 241 956 241 2144 
Q 241 3472 731 4075 
Q 1159 4600 1884 4600 
Q 2425 4600 2770 4297 
Q 3116 3994 3184 3459 
z
M 888 1484 
Q 888 1194 1011 928 
Q 1134 663 1356 523 
Q 1578 384 1822 384 
Q 2178 384 2434 671 
Q 2691 959 2691 1453 
Q 2691 1928 2437 2201 
Q 2184 2475 1800 2475 
Q 1419 2475 1153 2201 
Q 888 1928 888 1484 
z
" transform="scale(0.015625)"/>
       </defs>
       <use xlink:href="#ArialMT-19"/>
       <use xlink:href="#ArialMT-13" transform="translate(55.609375 0)"/>
       <use xlink:href="#ArialMT-13" transform="translate(111.21875 0)"/>
      </g>
     </g>
    </g>
    <g id="xtick_4">
     <g id="line2d_4">
      <g>
       <use xlink:href="#m73353770f3" x="335.312081" y="303.182656" style="stroke: #000000; stroke-width: 0.8"/>
      </g>
     </g>
     <g id="text_4">
      <!-- 800 -->
      <g transform="translate(323.634112 316.875039) scale(0.14 -0.14)">
       <defs>
        <path id="ArialMT-1b" d="M 1131 2484 
Q 781 2613 612 2850 
Q 444 3088 444 3419 
Q 444 3919 803 4259 
Q 1163 4600 1759 4600 
Q 2359 4600 2725 4251 
Q 3091 3903 3091 3403 
Q 3091 3084 2923 2848 
Q 2756 2613 2416 2484 
Q 2838 2347 3058 2040 
Q 3278 1734 3278 1309 
Q 3278 722 2862 322 
Q 2447 -78 1769 -78 
Q 1091 -78 675 323 
Q 259 725 259 1325 
Q 259 1772 486 2073 
Q 713 2375 1131 2484 
z
M 1019 3438 
Q 1019 3113 1228 2906 
Q 1438 2700 1772 2700 
Q 2097 2700 2305 2904 
Q 2513 3109 2513 3406 
Q 2513 3716 2298 3927 
Q 2084 4138 1766 4138 
Q 1444 4138 1231 3931 
Q 1019 3725 1019 3438 
z
M 838 1322 
Q 838 1081 952 856 
Q 1066 631 1291 507 
Q 1516 384 1775 384 
Q 2178 384 2440 643 
Q 2703 903 2703 1303 
Q 2703 1709 2433 1975 
Q 2163 2241 1756 2241 
Q 1359 2241 1098 1978 
Q 838 1716 838 1322 
z
" transform="scale(0.015625)"/>
       </defs>
       <use xlink:href="#ArialMT-1b"/>
       <use xlink:href="#ArialMT-13" transform="translate(55.609375 0)"/>
       <use xlink:href="#ArialMT-13" transform="translate(111.21875 0)"/>
      </g>
     </g>
    </g>
    <g id="xtick_5">
     <g id="line2d_5">
      <g>
       <use xlink:href="#m73353770f3" x="415.228833" y="303.182656" style="stroke: #000000; stroke-width: 0.8"/>
      </g>
     </g>
     <g id="text_5">
      <!-- 1000 -->
      <g transform="translate(399.658208 316.875039) scale(0.14 -0.14)">
       <defs>
        <path id="ArialMT-14" d="M 2384 0 
L 1822 0 
L 1822 3584 
Q 1619 3391 1289 3197 
Q 959 3003 697 2906 
L 697 3450 
Q 1169 3672 1522 3987 
Q 1875 4303 2022 4600 
L 2384 4600 
L 2384 0 
z
" transform="scale(0.015625)"/>
       </defs>
       <use xlink:href="#ArialMT-14"/>
       <use xlink:href="#ArialMT-13" transform="translate(55.609375 0)"/>
       <use xlink:href="#ArialMT-13" transform="translate(111.21875 0)"/>
       <use xlink:href="#ArialMT-13" transform="translate(166.828125 0)"/>
      </g>
     </g>
    </g>
    <g id="xtick_6">
     <g id="line2d_6">
      <g>
       <use xlink:href="#m73353770f3" x="495.145586" y="303.182656" style="stroke: #000000; stroke-width: 0.8"/>
      </g>
     </g>
     <g id="text_6">
      <!-- 1200 -->
      <g transform="translate(479.574961 316.875039) scale(0.14 -0.14)">
       <use xlink:href="#ArialMT-14"/>
       <use xlink:href="#ArialMT-15" transform="translate(55.609375 0)"/>
       <use xlink:href="#ArialMT-13" transform="translate(111.21875 0)"/>
       <use xlink:href="#ArialMT-13" transform="translate(166.828125 0)"/>
      </g>
     </g>
    </g>
    <g id="text_7">
     <!-- T1 Temperature (°C) -->
     <g transform="translate(201.645547 334.013711) scale(0.14 -0.14)">
      <defs>
       <path id="ArialMT-37" d="M 1659 0 
L 1659 4041 
L 150 4041 
L 150 4581 
L 3781 4581 
L 3781 4041 
L 2266 4041 
L 2266 0 
L 1659 0 
z
" transform="scale(0.015625)"/>
       <path id="ArialMT-3" transform="scale(0.015625)"/>
       <path id="ArialMT-48" d="M 2694 1069 
L 3275 997 
Q 3138 488 2766 206 
Q 2394 -75 1816 -75 
Q 1088 -75 661 373 
Q 234 822 234 1631 
Q 234 2469 665 2931 
Q 1097 3394 1784 3394 
Q 2450 3394 2872 2941 
Q 3294 2488 3294 1666 
Q 3294 1616 3291 1516 
L 816 1516 
Q 847 969 1125 678 
Q 1403 388 1819 388 
Q 2128 388 2347 550 
Q 2566 713 2694 1069 
z
M 847 1978 
L 2700 1978 
Q 2663 2397 2488 2606 
Q 2219 2931 1791 2931 
Q 1403 2931 1139 2672 
Q 875 2413 847 1978 
z
" transform="scale(0.015625)"/>
       <path id="ArialMT-50" d="M 422 0 
L 422 3319 
L 925 3319 
L 925 2853 
Q 1081 3097 1340 3245 
Q 1600 3394 1931 3394 
Q 2300 3394 2536 3241 
Q 2772 3088 2869 2813 
Q 3263 3394 3894 3394 
Q 4388 3394 4653 3120 
Q 4919 2847 4919 2278 
L 4919 0 
L 4359 0 
L 4359 2091 
Q 4359 2428 4304 2576 
Q 4250 2725 4106 2815 
Q 3963 2906 3769 2906 
Q 3419 2906 3187 2673 
Q 2956 2441 2956 1928 
L 2956 0 
L 2394 0 
L 2394 2156 
Q 2394 2531 2256 2718 
Q 2119 2906 1806 2906 
Q 1569 2906 1367 2781 
Q 1166 2656 1075 2415 
Q 984 2175 984 1722 
L 984 0 
L 422 0 
z
" transform="scale(0.015625)"/>
       <path id="ArialMT-53" d="M 422 -1272 
L 422 3319 
L 934 3319 
L 934 2888 
Q 1116 3141 1344 3267 
Q 1572 3394 1897 3394 
Q 2322 3394 2647 3175 
Q 2972 2956 3137 2557 
Q 3303 2159 3303 1684 
Q 3303 1175 3120 767 
Q 2938 359 2589 142 
Q 2241 -75 1856 -75 
Q 1575 -75 1351 44 
Q 1128 163 984 344 
L 984 -1272 
L 422 -1272 
z
M 931 1641 
Q 931 1000 1190 694 
Q 1450 388 1819 388 
Q 2194 388 2461 705 
Q 2728 1022 2728 1688 
Q 2728 2322 2467 2637 
Q 2206 2953 1844 2953 
Q 1484 2953 1207 2617 
Q 931 2281 931 1641 
z
" transform="scale(0.015625)"/>
       <path id="ArialMT-55" d="M 416 0 
L 416 3319 
L 922 3319 
L 922 2816 
Q 1116 3169 1280 3281 
Q 1444 3394 1641 3394 
Q 1925 3394 2219 3213 
L 2025 2691 
Q 1819 2813 1613 2813 
Q 1428 2813 1281 2702 
Q 1134 2591 1072 2394 
Q 978 2094 978 1738 
L 978 0 
L 416 0 
z
" transform="scale(0.015625)"/>
       <path id="ArialMT-44" d="M 2588 409 
Q 2275 144 1986 34 
Q 1697 -75 1366 -75 
Q 819 -75 525 192 
Q 231 459 231 875 
Q 231 1119 342 1320 
Q 453 1522 633 1644 
Q 813 1766 1038 1828 
Q 1203 1872 1538 1913 
Q 2219 1994 2541 2106 
Q 2544 2222 2544 2253 
Q 2544 2597 2384 2738 
Q 2169 2928 1744 2928 
Q 1347 2928 1158 2789 
Q 969 2650 878 2297 
L 328 2372 
Q 403 2725 575 2942 
Q 747 3159 1072 3276 
Q 1397 3394 1825 3394 
Q 2250 3394 2515 3294 
Q 2781 3194 2906 3042 
Q 3031 2891 3081 2659 
Q 3109 2516 3109 2141 
L 3109 1391 
Q 3109 606 3145 398 
Q 3181 191 3288 0 
L 2700 0 
Q 2613 175 2588 409 
z
M 2541 1666 
Q 2234 1541 1622 1453 
Q 1275 1403 1131 1340 
Q 988 1278 909 1158 
Q 831 1038 831 891 
Q 831 666 1001 516 
Q 1172 366 1500 366 
Q 1825 366 2078 508 
Q 2331 650 2450 897 
Q 2541 1088 2541 1459 
L 2541 1666 
z
" transform="scale(0.015625)"/>
       <path id="ArialMT-57" d="M 1650 503 
L 1731 6 
Q 1494 -44 1306 -44 
Q 1000 -44 831 53 
Q 663 150 594 308 
Q 525 466 525 972 
L 525 2881 
L 113 2881 
L 113 3319 
L 525 3319 
L 525 4141 
L 1084 4478 
L 1084 3319 
L 1650 3319 
L 1650 2881 
L 1084 2881 
L 1084 941 
Q 1084 700 1114 631 
Q 1144 563 1211 522 
Q 1278 481 1403 481 
Q 1497 481 1650 503 
z
" transform="scale(0.015625)"/>
       <path id="ArialMT-58" d="M 2597 0 
L 2597 488 
Q 2209 -75 1544 -75 
Q 1250 -75 995 37 
Q 741 150 617 320 
Q 494 491 444 738 
Q 409 903 409 1263 
L 409 3319 
L 972 3319 
L 972 1478 
Q 972 1038 1006 884 
Q 1059 663 1231 536 
Q 1403 409 1656 409 
Q 1909 409 2131 539 
Q 2353 669 2445 892 
Q 2538 1116 2538 1541 
L 2538 3319 
L 3100 3319 
L 3100 0 
L 2597 0 
z
" transform="scale(0.015625)"/>
       <path id="ArialMT-b" d="M 1497 -1347 
Q 1031 -759 709 28 
Q 388 816 388 1659 
Q 388 2403 628 3084 
Q 909 3875 1497 4659 
L 1900 4659 
Q 1522 4009 1400 3731 
Q 1209 3300 1100 2831 
Q 966 2247 966 1656 
Q 966 153 1900 -1347 
L 1497 -1347 
z
" transform="scale(0.015625)"/>
       <path id="ArialMT-83" d="M 400 3794 
Q 400 4153 654 4406 
Q 909 4659 1266 4659 
Q 1628 4659 1881 4406 
Q 2134 4153 2134 3794 
Q 2134 3434 1879 3179 
Q 1625 2925 1266 2925 
Q 909 2925 654 3178 
Q 400 3431 400 3794 
z
M 741 3794 
Q 741 3575 895 3420 
Q 1050 3266 1269 3266 
Q 1484 3266 1639 3420 
Q 1794 3575 1794 3794 
Q 1794 4013 1639 4167 
Q 1484 4322 1269 4322 
Q 1050 4322 895 4167 
Q 741 4013 741 3794 
z
" transform="scale(0.015625)"/>
       <path id="ArialMT-26" d="M 3763 1606 
L 4369 1453 
Q 4178 706 3683 314 
Q 3188 -78 2472 -78 
Q 1731 -78 1267 223 
Q 803 525 561 1097 
Q 319 1669 319 2325 
Q 319 3041 592 3573 
Q 866 4106 1370 4382 
Q 1875 4659 2481 4659 
Q 3169 4659 3637 4309 
Q 4106 3959 4291 3325 
L 3694 3184 
Q 3534 3684 3231 3912 
Q 2928 4141 2469 4141 
Q 1941 4141 1586 3887 
Q 1231 3634 1087 3207 
Q 944 2781 944 2328 
Q 944 1744 1114 1308 
Q 1284 872 1643 656 
Q 2003 441 2422 441 
Q 2931 441 3284 734 
Q 3638 1028 3763 1606 
z
" transform="scale(0.015625)"/>
       <path id="ArialMT-c" d="M 791 -1347 
L 388 -1347 
Q 1322 153 1322 1656 
Q 1322 2244 1188 2822 
Q 1081 3291 891 3722 
Q 769 4003 388 4659 
L 791 4659 
Q 1378 3875 1659 3084 
Q 1900 2403 1900 1659 
Q 1900 816 1576 28 
Q 1253 -759 791 -1347 
z
" transform="scale(0.015625)"/>
      </defs>
      <use xlink:href="#ArialMT-37"/>
      <use xlink:href="#ArialMT-14" transform="translate(61.078125 0)"/>
      <use xlink:href="#ArialMT-3" transform="translate(116.6875 0)"/>
      <use xlink:href="#ArialMT-37" transform="translate(142.65625 0)"/>
      <use xlink:href="#ArialMT-48" transform="translate(192.65625 0)"/>
      <use xlink:href="#ArialMT-50" transform="translate(248.265625 0)"/>
      <use xlink:href="#ArialMT-53" transform="translate(331.5625 0)"/>
      <use xlink:href="#ArialMT-48" transform="translate(387.171875 0)"/>
      <use xlink:href="#ArialMT-55" transform="translate(442.78125 0)"/>
      <use xlink:href="#ArialMT-44" transform="translate(476.078125 0)"/>
      <use xlink:href="#ArialMT-57" transform="translate(531.6875 0)"/>
      <use xlink:href="#ArialMT-58" transform="translate(559.46875 0)"/>
      <use xlink:href="#ArialMT-55" transform="translate(615.078125 0)"/>
      <use xlink:href="#ArialMT-48" transform="translate(648.375 0)"/>
      <use xlink:href="#ArialMT-3" transform="translate(703.984375 0)"/>
      <use xlink:href="#ArialMT-b" transform="translate(731.765625 0)"/>
      <use xlink:href="#ArialMT-83" transform="translate(765.0625 0)"/>
      <use xlink:href="#ArialMT-26" transform="translate(805.046875 0)"/>
      <use xlink:href="#ArialMT-c" transform="translate(877.265625 0)"/>
     </g>
    </g>
   </g>
   <g id="matplotlib.axis_2">
    <g id="ytick_1">
     <g id="line2d_7">
      <defs>
       <path id="m5506de2525" d="M 0 0 
L 6 0 
" style="stroke: #000000; stroke-width: 0.8"/>
      </defs>
      <g>
       <use xlink:href="#m5506de2525" x="35.624258" y="291.240751" style="stroke: #000000; stroke-width: 0.8"/>
      </g>
     </g>
     <g id="text_8">
      <!-- 0 -->
      <g transform="translate(24.338945 296.336942) scale(0.14 -0.14)">
       <use xlink:href="#ArialMT-13"/>
      </g>
     </g>
    </g>
    <g id="ytick_2">
     <g id="line2d_8">
      <g>
       <use xlink:href="#m5506de2525" x="35.624258" y="259.1793" style="stroke: #000000; stroke-width: 0.8"/>
      </g>
     </g>
     <g id="text_9">
      <!-- 1 -->
      <g transform="translate(24.338945 264.275492) scale(0.14 -0.14)">
       <use xlink:href="#ArialMT-14"/>
      </g>
     </g>
    </g>
    <g id="ytick_3">
     <g id="line2d_9">
      <g>
       <use xlink:href="#m5506de2525" x="35.624258" y="227.11785" style="stroke: #000000; stroke-width: 0.8"/>
      </g>
     </g>
     <g id="text_10">
      <!-- 2 -->
      <g transform="translate(24.338945 232.214042) scale(0.14 -0.14)">
       <use xlink:href="#ArialMT-15"/>
      </g>
     </g>
    </g>
    <g id="ytick_4">
     <g id="line2d_10">
      <g>
       <use xlink:href="#m5506de2525" x="35.624258" y="195.0564" style="stroke: #000000; stroke-width: 0.8"/>
      </g>
     </g>
     <g id="text_11">
      <!-- 3 -->
      <g transform="translate(24.338945 200.152592) scale(0.14 -0.14)">
       <defs>
        <path id="ArialMT-16" d="M 269 1209 
L 831 1284 
Q 928 806 1161 595 
Q 1394 384 1728 384 
Q 2125 384 2398 659 
Q 2672 934 2672 1341 
Q 2672 1728 2419 1979 
Q 2166 2231 1775 2231 
Q 1616 2231 1378 2169 
L 1441 2663 
Q 1497 2656 1531 2656 
Q 1891 2656 2178 2843 
Q 2466 3031 2466 3422 
Q 2466 3731 2256 3934 
Q 2047 4138 1716 4138 
Q 1388 4138 1169 3931 
Q 950 3725 888 3313 
L 325 3413 
Q 428 3978 793 4289 
Q 1159 4600 1703 4600 
Q 2078 4600 2393 4439 
Q 2709 4278 2876 4000 
Q 3044 3722 3044 3409 
Q 3044 3113 2884 2869 
Q 2725 2625 2413 2481 
Q 2819 2388 3044 2092 
Q 3269 1797 3269 1353 
Q 3269 753 2831 336 
Q 2394 -81 1725 -81 
Q 1122 -81 723 278 
Q 325 638 269 1209 
z
" transform="scale(0.015625)"/>
       </defs>
       <use xlink:href="#ArialMT-16"/>
      </g>
     </g>
    </g>
    <g id="ytick_5">
     <g id="line2d_11">
      <g>
       <use xlink:href="#m5506de2525" x="35.624258" y="162.99495" style="stroke: #000000; stroke-width: 0.8"/>
      </g>
     </g>
     <g id="text_12">
      <!-- 4 -->
      <g transform="translate(24.338945 168.091141) scale(0.14 -0.14)">
       <use xlink:href="#ArialMT-17"/>
      </g>
     </g>
    </g>
    <g id="ytick_6">
     <g id="line2d_12">
      <g>
       <use xlink:href="#m5506de2525" x="35.624258" y="130.9335" style="stroke: #000000; stroke-width: 0.8"/>
      </g>
     </g>
     <g id="text_13">
      <!-- 5 -->
      <g transform="translate(24.338945 136.029691) scale(0.14 -0.14)">
       <defs>
        <path id="ArialMT-18" d="M 266 1200 
L 856 1250 
Q 922 819 1161 601 
Q 1400 384 1738 384 
Q 2144 384 2425 690 
Q 2706 997 2706 1503 
Q 2706 1984 2436 2262 
Q 2166 2541 1728 2541 
Q 1456 2541 1237 2417 
Q 1019 2294 894 2097 
L 366 2166 
L 809 4519 
L 3088 4519 
L 3088 3981 
L 1259 3981 
L 1013 2750 
Q 1425 3038 1878 3038 
Q 2478 3038 2890 2622 
Q 3303 2206 3303 1553 
Q 3303 931 2941 478 
Q 2500 -78 1738 -78 
Q 1113 -78 717 272 
Q 322 622 266 1200 
z
" transform="scale(0.015625)"/>
       </defs>
       <use xlink:href="#ArialMT-18"/>
      </g>
     </g>
    </g>
    <g id="ytick_7">
     <g id="line2d_13">
      <g>
       <use xlink:href="#m5506de2525" x="35.624258" y="98.87205" style="stroke: #000000; stroke-width: 0.8"/>
      </g>
     </g>
     <g id="text_14">
      <!-- 6 -->
      <g transform="translate(24.338945 103.968241) scale(0.14 -0.14)">
       <use xlink:href="#ArialMT-19"/>
      </g>
     </g>
    </g>
    <g id="ytick_8">
     <g id="line2d_14">
      <g>
       <use xlink:href="#m5506de2525" x="35.624258" y="66.810599" style="stroke: #000000; stroke-width: 0.8"/>
      </g>
     </g>
     <g id="text_15">
      <!-- 7 -->
      <g transform="translate(24.338945 71.906791) scale(0.14 -0.14)">
       <defs>
        <path id="ArialMT-1a" d="M 303 3981 
L 303 4522 
L 3269 4522 
L 3269 4084 
Q 2831 3619 2401 2847 
Q 1972 2075 1738 1259 
Q 1569 684 1522 0 
L 944 0 
Q 953 541 1156 1306 
Q 1359 2072 1739 2783 
Q 2119 3494 2547 3981 
L 303 3981 
z
" transform="scale(0.015625)"/>
       </defs>
       <use xlink:href="#ArialMT-1a"/>
      </g>
     </g>
    </g>
    <g id="text_16">
     <!-- Ion Current (m/z 18) -->
     <g transform="translate(17.392383 234.056768) rotate(-90) scale(0.14 -0.14)">
      <defs>
       <path id="ArialMT-2c" d="M 597 0 
L 597 4581 
L 1203 4581 
L 1203 0 
L 597 0 
z
" transform="scale(0.015625)"/>
       <path id="ArialMT-52" d="M 213 1659 
Q 213 2581 725 3025 
Q 1153 3394 1769 3394 
Q 2453 3394 2887 2945 
Q 3322 2497 3322 1706 
Q 3322 1066 3130 698 
Q 2938 331 2570 128 
Q 2203 -75 1769 -75 
Q 1072 -75 642 372 
Q 213 819 213 1659 
z
M 791 1659 
Q 791 1022 1069 705 
Q 1347 388 1769 388 
Q 2188 388 2466 706 
Q 2744 1025 2744 1678 
Q 2744 2294 2464 2611 
Q 2184 2928 1769 2928 
Q 1347 2928 1069 2612 
Q 791 2297 791 1659 
z
" transform="scale(0.015625)"/>
       <path id="ArialMT-51" d="M 422 0 
L 422 3319 
L 928 3319 
L 928 2847 
Q 1294 3394 1984 3394 
Q 2284 3394 2536 3286 
Q 2788 3178 2913 3003 
Q 3038 2828 3088 2588 
Q 3119 2431 3119 2041 
L 3119 0 
L 2556 0 
L 2556 2019 
Q 2556 2363 2490 2533 
Q 2425 2703 2258 2804 
Q 2091 2906 1866 2906 
Q 1506 2906 1245 2678 
Q 984 2450 984 1813 
L 984 0 
L 422 0 
z
" transform="scale(0.015625)"/>
       <path id="ArialMT-12" d="M 0 -78 
L 1328 4659 
L 1778 4659 
L 453 -78 
L 0 -78 
z
" transform="scale(0.015625)"/>
       <path id="ArialMT-5d" d="M 125 0 
L 125 456 
L 2238 2881 
Q 1878 2863 1603 2863 
L 250 2863 
L 250 3319 
L 2963 3319 
L 2963 2947 
L 1166 841 
L 819 456 
Q 1197 484 1528 484 
L 3063 484 
L 3063 0 
L 125 0 
z
" transform="scale(0.015625)"/>
      </defs>
      <use xlink:href="#ArialMT-2c"/>
      <use xlink:href="#ArialMT-52" transform="translate(27.78125 0)"/>
      <use xlink:href="#ArialMT-51" transform="translate(83.390625 0)"/>
      <use xlink:href="#ArialMT-3" transform="translate(139 0)"/>
      <use xlink:href="#ArialMT-26" transform="translate(166.78125 0)"/>
      <use xlink:href="#ArialMT-58" transform="translate(239 0)"/>
      <use xlink:href="#ArialMT-55" transform="translate(294.609375 0)"/>
      <use xlink:href="#ArialMT-55" transform="translate(327.90625 0)"/>
      <use xlink:href="#ArialMT-48" transform="translate(361.203125 0)"/>
      <use xlink:href="#ArialMT-51" transform="translate(416.8125 0)"/>
      <use xlink:href="#ArialMT-57" transform="translate(472.421875 0)"/>
      <use xlink:href="#ArialMT-3" transform="translate(500.203125 0)"/>
      <use xlink:href="#ArialMT-b" transform="translate(527.984375 0)"/>
      <use xlink:href="#ArialMT-50" transform="translate(561.28125 0)"/>
      <use xlink:href="#ArialMT-12" transform="translate(644.578125 0)"/>
      <use xlink:href="#ArialMT-5d" transform="translate(672.359375 0)"/>
      <use xlink:href="#ArialMT-3" transform="translate(722.359375 0)"/>
      <use xlink:href="#ArialMT-14" transform="translate(750.140625 0)"/>
      <use xlink:href="#ArialMT-1b" transform="translate(805.75 0)"/>
      <use xlink:href="#ArialMT-c" transform="translate(861.359375 0)"/>
     </g>
    </g>
    <g id="text_17">
     <!-- 1e−11 -->
     <g transform="translate(35.624258 36.679004) scale(0.14 -0.14)">
      <defs>
       <path id="ArialMT-ed" d="M 3381 1997 
L 356 1997 
L 356 2522 
L 3381 2522 
L 3381 1997 
z
" transform="scale(0.015625)"/>
      </defs>
      <use xlink:href="#ArialMT-14"/>
      <use xlink:href="#ArialMT-48" transform="translate(55.609375 0)"/>
      <use xlink:href="#ArialMT-ed" transform="translate(111.21875 0)"/>
      <use xlink:href="#ArialMT-14" transform="translate(169.625 0)"/>
      <use xlink:href="#ArialMT-14" transform="translate(217.8125 0)"/>
     </g>
    </g>
   </g>
   <g id="line2d_15">
    <path d="M 34.58534 291.035282 
L 34.58534 290.828142 
L 34.505423 291.024999 
L 39.540179 291.054165 
L 62.39637 290.994707 
L 66.512083 290.930582 
L 80.377639 290.646329 
L 90.247358 289.951904 
L 96.520823 289.138862 
L 98.998243 288.60112 
L 102.794288 287.354834 
L 104.112915 286.913575 
L 107.869002 285.185291 
L 110.346422 283.88948 
L 114.022592 281.771076 
L 116.579928 280.250411 
L 117.898555 279.341023 
L 124.052145 273.955087 
L 125.290854 273.022017 
L 127.768274 270.859924 
L 129.0869 269.913227 
L 130.365568 268.709899 
L 131.564319 267.103102 
L 132.842987 265.903776 
L 134.081697 264.54123 
L 136.639033 261.500132 
L 139.036536 259.04929 
L 140.275245 257.949719 
L 141.513955 257.103031 
L 144.071291 254.411129 
L 145.349959 253.585518 
L 146.588669 252.196429 
L 149.106047 249.947231 
L 151.623424 247.650185 
L 154.020927 244.762149 
L 156.538305 240.903694 
L 157.777014 239.007027 
L 162.771811 230.349337 
L 165.249231 224.943824 
L 166.527899 221.879806 
L 167.72665 218.399027 
L 168.96536 215.151494 
L 170.244028 211.468201 
L 175.318742 195.268994 
L 179.154746 184.141601 
L 180.393455 179.645429 
L 184.029668 168.299562 
L 185.268377 165.114338 
L 186.467129 163.468841 
L 187.745797 163.246407 
L 189.024465 164.598049 
L 190.263174 166.912482 
L 192.780552 172.383549 
L 196.496681 182.981032 
L 197.775349 185.614095 
L 198.9741 188.745147 
L 201.491478 194.234027 
L 204.048814 198.880327 
L 206.446317 204.241881 
L 207.724985 207.638321 
L 212.679823 224.207315 
L 213.918533 228.33072 
L 216.395952 234.808405 
L 217.634662 237.298652 
L 218.873372 239.339063 
L 222.629459 244.682088 
L 225.106879 247.65545 
L 226.345588 249.459213 
L 227.584298 249.897828 
L 228.862966 247.665921 
L 231.340385 240.997298 
L 232.579095 239.261811 
L 233.857763 239.10999 
L 235.056514 240.72838 
L 236.295224 244.063089 
L 238.812602 253.982933 
L 240.051311 257.367294 
L 241.250063 258.199095 
L 242.528731 258.714233 
L 243.76744 258.630484 
L 245.046108 259.078177 
L 246.324776 259.261482 
L 247.523528 259.695428 
L 248.802196 260.031641 
L 250.080864 260.537213 
L 252.558283 261.091499 
L 253.796993 261.193132 
L 256.274412 261.871763 
L 257.513122 262.113826 
L 258.711873 262.16581 
L 259.950583 262.492354 
L 263.746628 262.885912 
L 264.985338 263.00932 
L 266.224048 262.867695 
L 267.422799 262.927662 
L 268.701467 263.24458 
L 269.940177 262.833051 
L 271.178886 262.710307 
L 272.417596 262.041336 
L 273.696264 260.820891 
L 276.173683 256.639535 
L 277.412393 254.95329 
L 278.691061 253.875153 
L 279.889812 253.848352 
L 281.128522 254.615866 
L 282.40719 255.786814 
L 284.844651 260.038746 
L 286.163278 261.996878 
L 289.839448 264.651447 
L 291.078158 265.025386 
L 292.276909 265.244961 
L 293.515619 265.331413 
L 294.874204 265.53925 
L 296.152872 265.590191 
L 298.710208 265.942338 
L 299.988876 265.847256 
L 302.546212 266.744305 
L 303.744963 267.049236 
L 307.421134 268.484969 
L 308.659843 268.807347 
L 309.858595 269.32238 
L 311.177221 269.551003 
L 313.654641 270.754823 
L 322.325608 273.531343 
L 326.081696 274.904623 
L 329.797825 275.764845 
L 332.235286 276.350117 
L 333.513954 276.870423 
L 334.752663 277.05113 
L 335.991373 277.514305 
L 342.22488 278.196291 
L 348.418428 279.57862 
L 349.617179 279.622846 
L 357.129354 280.473381 
L 364.521654 281.065755 
L 368.237783 281.399191 
L 370.795119 281.634207 
L 373.23258 282.049917 
L 374.71104 281.989094 
L 378.746836 282.118149 
L 379.945587 281.916427 
L 386.25901 282.223563 
L 387.49772 282.190949 
L 389.935181 282.479246 
L 397.407397 282.527706 
L 403.600946 282.679799 
L 404.999489 282.694059 
L 406.118323 282.464638 
L 408.595743 282.280456 
L 412.35183 282.016151 
L 417.306669 282.148941 
L 419.704171 281.913474 
L 421.302506 281.8647 
L 423.580134 281.618388 
L 427.336221 281.480751 
L 428.534973 281.539794 
L 438.604483 280.782295 
L 441.001986 280.337037 
L 443.559322 279.670251 
L 444.59824 279.118613 
L 448.354327 277.611656 
L 452.23029 275.706257 
L 453.269208 275.126004 
L 456.266086 274.107982 
L 459.063172 272.767136 
L 460.10209 271.980336 
L 461.540591 271.149496 
L 462.659426 270.228486 
L 465.136845 268.644763 
L 466.455472 267.721611 
L 467.494389 266.717268 
L 469.012808 265.57453 
L 469.971809 264.201202 
L 471.370352 262.728675 
L 472.569103 261.211327 
L 473.927688 259.734284 
L 475.006564 258.765333 
L 476.285232 258.238609 
L 478.962444 257.382957 
L 481.200113 256.508086 
L 482.398864 255.785918 
L 483.797407 254.599103 
L 487.513536 249.898998 
L 488.672329 248.250278 
L 491.229665 245.286002 
L 492.508333 244.124533 
L 493.82696 243.279568 
L 493.82696 243.279568 
" clip-path="url(#p310e9ae9b0)" style="fill: none; stroke: #000000; stroke-width: 2.5; stroke-linecap: square"/>
   </g>
   <g id="line2d_16">
    <path d="M 33.946006 290.915216 
L 33.946006 290.788769 
L 33.946006 290.965685 
L 35.544341 291.054352 
L 53.245902 290.965924 
L 58.160782 291.019221 
L 60.718118 290.946419 
L 71.26713 290.848047 
L 74.983259 290.639289 
L 79.978056 290.5102 
L 84.892936 290.45932 
L 87.370355 290.302714 
L 94.88253 289.34589 
L 99.917285 288.527666 
L 102.394705 287.646329 
L 103.673373 287.109887 
L 108.66817 284.385732 
L 109.946838 283.572161 
L 112.424257 281.614057 
L 114.941635 279.401446 
L 116.180345 278.065734 
L 118.657764 275.088738 
L 124.971187 267.670606 
L 126.209897 266.628588 
L 129.965984 261.491387 
L 132.483362 257.845485 
L 133.76203 255.908916 
L 135.00074 253.720919 
L 136.239449 251.793326 
L 137.398242 249.710839 
L 141.15433 243.996569 
L 142.472956 242.236042 
L 143.751624 240.856097 
L 145.030292 239.651936 
L 146.229044 237.918598 
L 148.746421 235.351453 
L 149.985131 233.749118 
L 153.661302 229.672045 
L 154.93997 228.454961 
L 156.138721 227.498015 
L 158.656099 224.023395 
L 159.814892 222.032493 
L 162.372228 215.64879 
L 163.650896 211.648459 
L 166.088357 202.524317 
L 172.361822 179.980755 
L 173.64049 174.871331 
L 176.237784 165.424863 
L 177.396577 160.377361 
L 178.675245 156.188263 
L 179.993872 152.480832 
L 181.232581 149.885172 
L 182.431333 148.228622 
L 183.670042 148.516815 
L 184.908752 150.383863 
L 186.18742 154.119345 
L 187.386171 159.053159 
L 191.1023 175.539936 
L 192.34101 180.058266 
L 193.659636 184.133867 
L 196.137056 191.287819 
L 198.574517 199.637091 
L 199.893143 203.172701 
L 201.091894 206.904099 
L 203.609272 213.360423 
L 204.847982 216.224988 
L 209.762862 229.079411 
L 211.04153 231.713035 
L 213.558908 236.305841 
L 214.757659 238.07571 
L 215.996369 239.253706 
L 218.473788 241.812713 
L 219.752456 243.077634 
L 220.991166 244.946616 
L 222.229875 246.29521 
L 223.468585 247.125026 
L 225.985963 249.410993 
L 227.224672 250.242646 
L 229.702092 251.458542 
L 230.940801 251.877146 
L 232.179511 252.789266 
L 233.418221 253.912144 
L 237.214267 255.325279 
L 238.452976 256.048687 
L 239.691686 257.02732 
L 240.970354 257.699335 
L 243.407815 258.784124 
L 245.925193 260.130684 
L 248.44257 261.111382 
L 249.68128 261.363211 
L 250.91999 261.921342 
L 252.158699 262.793941 
L 255.914787 263.589702 
L 258.352248 264.697031 
L 259.590957 265.438579 
L 262.108335 266.151445 
L 263.347045 266.416989 
L 264.585754 266.861986 
L 269.580551 266.795017 
L 272.057971 267.126867 
L 278.331436 267.35697 
L 282.047565 266.693755 
L 294.514578 266.561628 
L 295.793246 266.630652 
L 299.62925 267.498645 
L 300.86796 267.739781 
L 302.066711 268.259353 
L 305.822799 268.930467 
L 310.777637 270.904177 
L 312.016347 271.439779 
L 313.334974 271.864363 
L 314.493766 272.439858 
L 318.209895 273.92828 
L 319.488563 274.5348 
L 323.164734 275.67681 
L 324.443402 275.889604 
L 325.642153 275.966602 
L 333.154328 277.276059 
L 335.551831 278.031684 
L 339.307918 278.721612 
L 343.024047 279.134324 
L 344.262757 279.450814 
L 345.581383 279.557036 
L 346.780135 279.939091 
L 358.008438 281.08201 
L 359.20719 281.393524 
L 360.445899 281.338078 
L 361.764526 281.407459 
L 365.440696 281.926481 
L 366.639448 281.825773 
L 370.315618 282.134251 
L 371.594286 282.232256 
L 372.912913 282.192524 
L 377.108542 282.431017 
L 379.546003 282.177439 
L 383.382007 282.480567 
L 385.819468 282.44948 
L 388.416763 282.61218 
L 389.655472 282.676704 
L 392.092933 282.512847 
L 393.371601 282.598997 
L 398.366398 282.449313 
L 399.525191 282.446429 
L 403.281279 282.727433 
L 404.48003 282.664146 
L 405.798656 282.71657 
L 410.753495 282.52407 
L 424.379301 282.912222 
L 427.056513 282.806355 
L 429.374098 282.855652 
L 430.652766 282.786764 
L 433.090227 282.811216 
L 436.886273 282.102441 
L 438.2049 281.78952 
L 444.35849 281.046669 
L 447.954743 279.838657 
L 452.789707 278.213083 
L 454.428 278.06095 
L 459.86234 277.027367 
L 461.141008 276.927811 
L 462.139967 276.711594 
L 463.578469 276.526976 
L 468.533307 274.460988 
L 470.970768 273.844013 
L 472.049644 273.632373 
L 474.686897 273.522921 
L 477.164317 273.875971 
L 479.881486 274.030564 
L 483.597615 273.909056 
L 488.15287 272.405808 
L 490.909998 271.484012 
L 492.268583 270.832077 
L 493.267542 270.008472 
L 494.30646 268.979962 
L 494.30646 268.979962 
" clip-path="url(#p310e9ae9b0)" style="fill: none; stroke: #1f77b4; stroke-width: 2.5; stroke-linecap: square"/>
   </g>
   <g id="line2d_17">
    <path d="M 33.546422 290.743966 
L 33.546422 290.729748 
L 33.506464 290.924766 
L 33.586381 290.812102 
L 50.448815 290.982993 
L 52.766401 290.92957 
L 57.72124 290.89693 
L 60.238618 290.863913 
L 65.59304 290.73864 
L 79.458597 290.338164 
L 84.493352 290.050795 
L 87.050688 289.708565 
L 88.289398 289.631174 
L 93.16432 288.731459 
L 96.960366 287.99667 
L 101.955163 285.346719 
L 106.989918 282.727117 
L 108.308544 282.047625 
L 109.587212 281.227806 
L 112.064632 278.713791 
L 114.502093 276.559515 
L 115.740802 275.34991 
L 117.099387 274.414977 
L 119.576807 271.849898 
L 122.054226 269.174806 
L 125.810313 265.116247 
L 127.049023 263.246245 
L 130.765152 258.983815 
L 132.04382 257.169442 
L 133.322488 255.864494 
L 138.357243 249.298042 
L 139.555995 247.361209 
L 140.834663 246.068217 
L 143.312082 243.36067 
L 144.550792 241.955582 
L 145.789501 240.986005 
L 147.028211 239.819229 
L 149.545589 237.731136 
L 153.261718 232.678931 
L 157.017805 225.11956 
L 159.495225 218.772088 
L 160.733934 215.044677 
L 169.44486 186.499692 
L 173.280864 175.236129 
L 174.519574 171.714951 
L 177.07691 166.624314 
L 179.514371 164.059966 
L 180.753081 163.925936 
L 181.99179 165.83244 
L 183.2305 168.657894 
L 185.747878 177.318181 
L 189.464007 190.722111 
L 190.662758 194.216566 
L 193.260053 200.117583 
L 194.498762 203.230137 
L 195.657555 206.482939 
L 198.174933 212.574599 
L 199.493559 215.703417 
L 201.93102 222.278239 
L 204.448398 227.238253 
L 205.687108 229.52596 
L 209.363278 235.411492 
L 210.641946 236.809781 
L 215.596785 244.279793 
L 219.312914 248.612027 
L 221.830292 251.028996 
L 228.063798 253.663493 
L 229.302508 253.687196 
L 231.739969 254.07604 
L 234.257347 254.757199 
L 236.734766 255.735541 
L 237.933517 256.678888 
L 241.729563 259.077496 
L 242.968273 259.474438 
L 244.167024 259.619639 
L 246.684402 260.47852 
L 247.923111 260.7034 
L 250.440489 261.576641 
L 251.679199 261.811827 
L 252.917908 262.202354 
L 254.156618 262.739502 
L 255.395328 262.744763 
L 256.673996 263.048535 
L 257.872747 263.096244 
L 259.191374 263.465494 
L 260.390125 263.598507 
L 261.668793 264.003924 
L 265.42488 264.735838 
L 267.862341 265.034132 
L 269.101051 265.384884 
L 270.379719 265.374684 
L 271.618429 265.604776 
L 272.81718 265.441395 
L 275.414474 265.493336 
L 277.851935 265.232567 
L 279.050687 264.95168 
L 282.846732 264.87563 
L 284.045484 265.070501 
L 285.36411 264.915859 
L 287.761613 265.05463 
L 290.27899 265.430253 
L 291.5177 265.541447 
L 296.632372 266.810227 
L 299.109792 266.780017 
L 302.905837 268.004357 
L 304.144547 268.505395 
L 306.582008 270.074487 
L 309.139344 271.530399 
L 310.338095 272.085438 
L 311.576805 272.498764 
L 312.895431 273.14838 
L 314.094183 273.387786 
L 315.292934 273.909509 
L 319.049021 275.211827 
L 320.207814 275.801392 
L 321.486482 276.145846 
L 322.725192 276.670433 
L 325.282528 277.131029 
L 327.680031 277.494967 
L 328.91874 277.714966 
L 331.436118 277.907243 
L 340.067127 280.110502 
L 342.584505 280.457741 
L 345.061924 280.518165 
L 347.659219 280.537324 
L 351.335389 281.062008 
L 353.812809 281.499347 
L 355.091477 281.803433 
L 357.528938 282.103584 
L 361.245067 282.312478 
L 364.921237 282.215473 
L 371.234661 283.03828 
L 373.752039 283.170979 
L 375.270457 283.0806 
L 379.226336 283.143949 
L 380.465046 283.053613 
L 382.942465 283.269105 
L 384.181175 283.292313 
L 385.459843 283.202767 
L 390.45464 283.491614 
L 392.892101 283.533306 
L 395.289603 283.631428 
L 401.603027 283.535973 
L 402.921653 283.629045 
L 404.040488 283.581005 
L 405.359114 283.764091 
L 414.109999 283.383237 
L 415.388667 283.562164 
L 416.627376 283.519084 
L 417.826128 283.703872 
L 420.263589 283.666119 
L 422.661091 283.439104 
L 425.218427 283.279191 
L 428.974515 282.962658 
L 431.451934 283.049633 
L 433.889395 282.705896 
L 435.208021 282.51538 
L 437.725399 282.418308 
L 441.361611 282.133999 
L 442.640279 282.058877 
L 443.878989 281.726802 
L 446.236533 280.913542 
L 451.311247 279.610429 
L 455.347043 279.37775 
L 459.342881 278.86807 
L 461.900217 278.224031 
L 464.297719 277.471707 
L 465.496471 277.35882 
L 466.73518 277.064765 
L 467.933932 277.058142 
L 469.172641 276.903954 
L 473.088562 275.72988 
L 474.12748 275.543364 
L 475.446106 275.14059 
L 476.764733 275.029699 
L 478.003442 275.134845 
L 479.162235 275.015979 
L 481.719571 275.165779 
L 482.918323 275.109298 
L 484.316866 275.279263 
L 485.395742 275.630369 
L 490.270664 276.767041 
L 491.829041 276.798948 
L 493.06775 276.522045 
L 493.986793 275.84374 
L 493.986793 275.84374 
" clip-path="url(#p310e9ae9b0)" style="fill: none; stroke: #d62728; stroke-width: 2.5; stroke-linecap: square"/>
   </g>
   <g id="line2d_18">
    <path d="M 35.384508 290.753654 
L 35.344549 290.871828 
L 35.264632 291.008104 
L 35.304591 291.013989 
L 35.464424 291.045968 
L 39.460262 290.944836 
L 47.531854 290.894208 
L 58.520407 290.743366 
L 61.077744 290.69403 
L 71.586797 290.590067 
L 77.780345 289.99781 
L 80.217806 289.757686 
L 83.973893 289.556727 
L 86.491271 289.141936 
L 94.043404 287.348789 
L 96.520823 286.913205 
L 98.998243 285.969722 
L 101.435704 284.650452 
L 110.266505 279.813773 
L 112.743924 277.932126 
L 115.30126 275.633358 
L 116.579928 274.17346 
L 117.858596 273.048566 
L 121.614684 268.687926 
L 122.853393 267.216016 
L 125.370771 264.752749 
L 126.609481 263.490057 
L 131.644236 256.769285 
L 132.922904 254.913075 
L 139.076494 243.957075 
L 146.548711 228.786558 
L 147.78742 226.593634 
L 149.02613 224.708734 
L 150.26484 223.080342 
L 151.463591 221.124923 
L 152.782217 218.753035 
L 154.060885 216.209404 
L 156.538305 209.940727 
L 157.816973 206.18955 
L 160.33435 197.182747 
L 161.533102 192.536473 
L 162.81177 188.240043 
L 164.010521 182.651609 
L 166.447982 169.482356 
L 167.72665 161.973304 
L 175.278783 110.967107 
L 176.517493 102.712238 
L 177.796161 95.01217 
L 179.034871 88.429995 
L 181.472332 73.933456 
L 182.790958 68.680815 
L 184.029668 64.963628 
L 185.308336 64.074926 
L 186.507087 65.992469 
L 187.745797 71.507979 
L 188.984506 78.587997 
L 190.263174 88.115541 
L 192.700635 108.783309 
L 195.218013 128.899232 
L 196.496681 137.932681 
L 197.695432 150.124384 
L 198.934142 154.28391 
L 200.21281 154.869033 
L 201.45152 154.477931 
L 202.690229 155.538963 
L 203.968897 157.872323 
L 205.207607 162.224612 
L 206.446317 168.574687 
L 207.724985 176.105102 
L 209.003653 185.607205 
L 210.242362 196.524487 
L 211.521031 199.168067 
L 212.719782 202.174711 
L 216.475869 212.417081 
L 218.953289 218.299762 
L 220.15204 220.893784 
L 222.709376 224.166405 
L 225.106879 228.181462 
L 226.30563 229.740509 
L 227.584298 231.938199 
L 228.862966 233.333607 
L 230.061717 234.880365 
L 232.619053 237.546958 
L 233.857763 238.590778 
L 235.056514 239.284903 
L 236.295224 240.35759 
L 238.772643 241.872119 
L 240.011353 242.444324 
L 241.290021 242.323547 
L 243.76744 243.918331 
L 245.00615 244.471462 
L 246.24486 245.567688 
L 247.523528 246.320976 
L 248.762237 247.572289 
L 250.000947 248.479321 
L 251.239657 248.816789 
L 253.757034 249.280264 
L 254.915827 249.708427 
L 256.234454 250.07429 
L 257.473163 250.064831 
L 261.229251 252.288984 
L 267.422799 254.552457 
L 268.701467 254.840931 
L 269.980135 254.844557 
L 274.895015 256.289757 
L 276.133725 256.74962 
L 278.611144 257.062103 
L 281.088564 257.426773 
L 282.367232 257.286484 
L 283.6459 257.310244 
L 284.844651 257.206113 
L 286.083361 256.852925 
L 287.32207 257.192873 
L 289.879407 256.694156 
L 290.998241 256.774077 
L 292.316868 257.221944 
L 293.515619 257.343048 
L 298.670249 258.824962 
L 303.705005 261.325806 
L 304.943714 262.228664 
L 306.142466 262.635774 
L 309.858595 264.801788 
L 312.375972 266.121384 
L 313.614682 267.099492 
L 314.933309 267.592504 
L 317.37077 269.183071 
L 319.80823 270.096314 
L 327.280447 273.683702 
L 328.519157 274.033582 
L 329.717908 274.51424 
L 332.275244 275.131006 
L 335.991373 276.367444 
L 338.428834 277.162785 
L 339.787419 277.531004 
L 340.946212 277.518309 
L 342.144963 277.879992 
L 344.742257 278.392044 
L 345.90105 278.753871 
L 347.179718 278.932938 
L 349.617179 279.733179 
L 350.935806 279.799855 
L 354.572018 280.576188 
L 357.129354 280.791103 
L 359.566815 281.305188 
L 362.084193 281.963381 
L 363.322902 282.10232 
L 364.521654 282.389057 
L 366.999073 282.67174 
L 368.197824 282.559928 
L 373.152663 282.742042 
L 377.548084 283.498325 
L 382.58284 283.849977 
L 386.25901 283.652771 
L 391.213849 284.072084 
L 393.851102 284.348937 
L 394.89002 284.351281 
L 396.208646 284.210385 
L 399.924775 284.061289 
L 402.362236 283.929004 
L 403.560987 284.15409 
L 411.153079 284.434617 
L 417.546419 284.229495 
L 419.74413 284.318289 
L 426.13747 284.378324 
L 433.52977 284.274282 
L 438.44465 284.221627 
L 439.563484 284.023371 
L 442.160779 283.318139 
L 443.399489 283.135265 
L 444.59824 282.647467 
L 449.712912 281.366532 
L 450.831747 280.819129 
L 453.229249 280.004507 
L 460.221965 278.931079 
L 462.699384 278.663777 
L 463.858177 278.268998 
L 465.176804 277.945432 
L 472.609062 274.370894 
L 473.807813 274.153274 
L 476.285232 274.283519 
L 480.121236 275.822302 
L 482.598656 277.023366 
L 483.877324 277.366819 
L 485.036117 277.550644 
L 486.035076 277.348595 
L 487.433619 277.237923 
L 488.752246 276.807914 
L 489.990955 276.224649 
L 491.189707 275.508436 
L 493.547251 273.758385 
L 493.547251 273.758385 
" clip-path="url(#p310e9ae9b0)" style="fill: none; stroke: #ff7f0e; stroke-width: 2.5; stroke-linecap: square"/>
   </g>
   <g id="line2d_19">
    <path d="M 34.025923 291.205218 
L 34.025923 290.7362 
L 33.946006 290.937555 
L 33.906048 290.909735 
L 34.025923 290.933646 
L 34.34559 290.834342 
L 35.344549 290.775065 
L 43.9356 290.902135 
L 47.172229 290.994736 
L 50.768482 291.016113 
L 53.086068 290.941108 
L 58.080865 290.758457 
L 60.598243 290.82102 
L 63.195538 290.796327 
L 73.544757 290.403949 
L 84.813019 289.280383 
L 87.370355 288.614492 
L 89.927691 287.951203 
L 96.161198 286.340599 
L 99.877327 284.581033 
L 107.269627 280.413864 
L 112.34434 276.658973 
L 113.58305 275.636691 
L 114.861718 274.43234 
L 117.419054 271.863653 
L 118.737681 270.770748 
L 123.732478 265.03906 
L 126.249855 262.598704 
L 129.926026 258.308486 
L 132.443404 254.830975 
L 137.398242 247.041891 
L 138.67691 245.356424 
L 144.870459 235.650764 
L 146.149127 233.878698 
L 149.865256 227.190508 
L 151.143924 224.512882 
L 153.621343 218.041811 
L 156.178679 210.611959 
L 157.457347 206.973495 
L 158.696057 202.87813 
L 159.934767 198.245006 
L 162.412186 189.95168 
L 163.650896 185.2763 
L 166.088357 177.051994 
L 171.003237 157.629354 
L 172.321863 153.24735 
L 173.600531 149.418032 
L 176.077951 140.57358 
L 179.834038 131.422967 
L 181.112706 129.487574 
L 182.351416 129.485739 
L 183.550167 130.824344 
L 184.828835 134.049595 
L 186.067545 138.366945 
L 187.346213 143.230085 
L 188.584923 149.145421 
L 192.301052 168.301007 
L 196.057139 183.458609 
L 198.4946 191.901581 
L 202.210729 202.06636 
L 204.728107 207.296195 
L 205.966816 210.207695 
L 207.205526 212.797033 
L 208.484194 215.937391 
L 209.762862 218.512544 
L 211.001572 221.522866 
L 213.478991 226.456511 
L 215.95641 230.677897 
L 220.991166 238.422846 
L 222.229875 239.765767 
L 223.468585 241.293196 
L 224.667336 242.506279 
L 227.144756 244.402984 
L 229.662133 245.993933 
L 230.900843 246.594002 
L 235.89564 249.505368 
L 237.13435 250.111253 
L 238.373059 251.047538 
L 239.611769 251.722969 
L 242.169105 253.656366 
L 243.407815 254.203064 
L 244.646525 254.978653 
L 245.845276 255.511673 
L 247.083986 256.30495 
L 248.362654 256.947713 
L 249.561405 257.347948 
L 253.317492 259.307673 
L 254.556202 259.714531 
L 258.272331 261.486326 
L 259.471082 262.171396 
L 260.829667 262.762346 
L 262.028418 263.018488 
L 264.425921 263.82658 
L 265.744547 263.845747 
L 266.943299 263.501557 
L 269.500635 263.67124 
L 271.978054 264.022112 
L 273.136847 264.305168 
L 274.415515 264.463177 
L 276.972851 265.38055 
L 278.171602 265.488803 
L 279.45027 265.311249 
L 280.728938 265.527463 
L 286.922487 265.833872 
L 288.121238 266.204957 
L 291.877325 266.691319 
L 293.155993 267.128458 
L 294.394703 267.167479 
L 299.549334 268.008742 
L 302.066711 269.098156 
L 304.504172 270.184529 
L 305.702924 270.725707 
L 306.981592 271.065614 
L 308.140385 271.668719 
L 309.459011 271.998089 
L 311.976389 273.209863 
L 313.135182 274.055202 
L 315.652559 275.26263 
L 316.891269 275.694697 
L 319.368688 276.180215 
L 323.084817 277.485432 
L 327.999698 278.603161 
L 329.398241 278.99661 
L 330.63695 279.116998 
L 331.795743 279.558968 
L 332.994495 280.139864 
L 334.353079 280.61778 
L 337.989292 281.104237 
L 339.228001 281.350838 
L 347.978886 282.208028 
L 355.371185 283.224696 
L 357.888563 283.440942 
L 360.365982 283.979668 
L 364.042153 284.181118 
L 366.559531 284.146862 
L 375.590124 284.929381 
L 379.506045 284.717986 
L 384.580759 284.561207 
L 385.819468 284.602235 
L 386.938303 284.792553 
L 389.535597 284.908197 
L 393.211768 285.15708 
L 395.729146 285.300008 
L 403.161404 285.194878 
L 408.196159 285.385587 
L 410.753495 285.222672 
L 411.87233 285.097457 
L 414.389707 285.150139 
L 415.588459 284.987551 
L 418.065878 285.025359 
L 419.304588 284.927022 
L 422.061716 284.903541 
L 423.300425 284.821239 
L 425.657969 284.90847 
L 426.816762 284.868893 
L 427.935597 284.672401 
L 433.050269 284.798403 
L 435.607605 284.432311 
L 438.005108 283.615646 
L 439.163901 283.187033 
L 440.482527 282.529268 
L 446.676075 281.261709 
L 447.954743 281.129326 
L 449.193453 280.824385 
L 450.432163 280.74976 
L 451.550997 280.452253 
L 452.789707 280.253978 
L 455.786585 280.407604 
L 457.105212 280.234965 
L 459.582631 280.326208 
L 461.141008 280.520586 
L 462.419676 280.480837 
L 463.258802 280.342648 
L 464.457553 279.985054 
L 467.134764 279.393334 
L 469.612183 278.416048 
L 472.16952 278.053416 
L 473.328312 278.188154 
L 474.567022 278.110606 
L 478.243193 278.311897 
L 480.840487 278.634332 
L 482.159114 279.15442 
L 483.397823 279.495232 
L 484.596575 279.639895 
L 485.875243 279.989735 
L 489.591372 279.7666 
L 494.186585 278.779102 
L 494.186585 278.779102 
" clip-path="url(#p310e9ae9b0)" style="fill: none; stroke: #9467bd; stroke-width: 2.5; stroke-linecap: square"/>
   </g>
   <g id="line2d_20">
    <path d="M 35.104799 291.087691 
L 35.024882 290.797161 
L 35.024882 290.959477 
L 34.944965 290.95898 
L 43.296266 290.968792 
L 51.927275 290.783443 
L 56.762239 290.9998 
L 59.279617 290.938053 
L 64.594081 290.791337 
L 68.629877 290.73417 
L 69.868586 290.805015 
L 82.375558 289.995369 
L 89.807816 289.010807 
L 93.563904 287.892266 
L 98.598659 286.036827 
L 101.03612 285.017042 
L 104.792207 282.727339 
L 108.468378 279.544893 
L 116.140386 272.201912 
L 118.657764 269.257848 
L 119.896474 267.690338 
L 122.333935 263.999061 
L 123.652561 262.273849 
L 126.169939 258.348714 
L 127.448607 256.702301 
L 129.965984 252.863244 
L 131.244652 251.36116 
L 136.159533 243.609704 
L 138.716869 239.174194 
L 139.955578 237.482388 
L 144.910417 228.756239 
L 148.666505 221.059668 
L 149.905214 217.985736 
L 153.621343 207.593947 
L 154.860053 203.092793 
L 156.138721 197.952172 
L 158.536223 187.012597 
L 161.09356 174.431138 
L 162.332269 167.235477 
L 166.048398 143.113883 
L 168.525818 126.197085 
L 171.043195 109.328458 
L 177.31666 65.143515 
L 178.675245 57.665499 
L 179.913955 53.236511 
L 181.112706 51.656443 
L 182.391374 52.796673 
L 183.630084 57.3198 
L 184.908752 65.680515 
L 186.107503 75.622122 
L 188.544964 101.374081 
L 191.062342 126.876691 
L 192.301052 137.714081 
L 193.57972 146.763836 
L 194.778471 154.106573 
L 196.057139 160.618649 
L 197.295849 166.004665 
L 199.813226 174.307043 
L 201.011978 177.14819 
L 202.290646 181.27 
L 206.006775 191.256925 
L 207.245484 195.380603 
L 208.524152 200.466377 
L 211.001572 208.807299 
L 214.717701 219.787128 
L 215.95641 221.988855 
L 217.235078 223.558377 
L 220.951207 227.389532 
L 222.189917 228.279466 
L 224.707295 231.139766 
L 225.946004 233.354924 
L 227.144756 234.957223 
L 228.423424 236.93987 
L 230.900843 239.387175 
L 232.139553 240.158624 
L 235.89564 243.249895 
L 237.13435 243.848003 
L 240.81052 246.459528 
L 242.089188 246.731685 
L 244.566608 247.70658 
L 245.805317 248.495706 
L 249.481488 249.199877 
L 250.800115 249.771792 
L 252.038824 250.475234 
L 253.317492 251.056554 
L 254.476285 251.765133 
L 256.993663 252.72795 
L 258.232373 253.575972 
L 259.471082 253.71279 
L 260.709792 253.994604 
L 261.908543 253.77963 
L 264.465879 254.256748 
L 266.943299 254.864451 
L 268.14205 254.890436 
L 269.420718 255.38602 
L 270.659428 256.18536 
L 273.216764 256.837543 
L 274.455473 256.683435 
L 275.654225 256.948748 
L 276.852976 256.954022 
L 278.131644 257.158419 
L 280.529147 256.886247 
L 283.086483 257.870693 
L 284.285234 258.156209 
L 285.563902 258.669448 
L 290.558699 259.867118 
L 293.076077 260.792036 
L 294.354745 261.568838 
L 296.991998 262.45511 
L 298.270666 263.241921 
L 299.469417 263.575628 
L 303.065671 265.306705 
L 304.384297 266.514985 
L 305.623007 267.456418 
L 306.901675 268.147657 
L 310.657762 269.820502 
L 311.93643 270.105101 
L 313.135182 270.89482 
L 314.41385 271.166441 
L 319.408647 273.664384 
L 323.124776 275.002866 
L 325.642153 276.084718 
L 326.800946 276.219525 
L 330.517075 277.043478 
L 331.795743 277.5485 
L 333.11437 277.844437 
L 338.02925 279.659836 
L 341.665462 279.895508 
L 343.024047 280.024644 
L 344.18284 280.291904 
L 346.700218 280.514541 
L 349.217595 281.111985 
L 351.615098 281.179705 
L 356.609895 281.884542 
L 359.127273 282.209715 
L 360.365982 282.354466 
L 364.082111 282.501604 
L 367.838199 282.986854 
L 369.03695 282.935018 
L 371.634245 283.164891 
L 372.753079 283.070532 
L 375.630082 283.076273 
L 377.028625 283.246307 
L 385.77951 283.601244 
L 387.01822 283.699412 
L 388.296888 283.660373 
L 390.734349 283.841118 
L 393.331643 283.907423 
L 395.769104 284.009797 
L 402.002611 283.717845 
L 409.434869 284.100621 
L 410.673578 284.000865 
L 413.190956 284.149862 
L 415.748292 284.024538 
L 425.697928 284.009043 
L 430.612808 283.415324 
L 436.72644 282.559677 
L 438.045066 282.27938 
L 440.442569 281.244281 
L 441.761195 280.995075 
L 444.198656 280.218989 
L 445.397407 279.946183 
L 447.914785 279.72511 
L 450.392204 279.743176 
L 451.670872 279.547393 
L 455.786585 279.543977 
L 457.025295 279.290578 
L 458.38388 279.195364 
L 463.618427 277.889182 
L 464.617386 277.290451 
L 466.934972 276.238132 
L 469.532267 275.825602 
L 472.129561 276.725338 
L 474.527064 277.883773 
L 475.725815 278.712269 
L 478.283151 279.623283 
L 480.800529 280.22089 
L 482.079197 280.32319 
L 483.158073 280.618991 
L 484.636533 280.757904 
L 485.955159 280.691051 
L 487.233827 280.4419 
L 488.192828 280.432255 
L 490.830081 279.942884 
L 492.108749 279.592991 
L 494.30646 278.691359 
L 494.30646 278.691359 
" clip-path="url(#p310e9ae9b0)" style="fill: none; stroke: #2ca02c; stroke-width: 2.5; stroke-linecap: square"/>
   </g>
   <g id="patch_3">
    <path d="M 35.624258 303.182656 
L 35.624258 39.679004 
" style="fill: none; stroke: #000000; stroke-width: 1.5; stroke-linejoin: miter; stroke-linecap: square"/>
   </g>
   <g id="patch_4">
    <path d="M 35.624258 303.182656 
L 495.145586 303.182656 
" style="fill: none; stroke: #000000; stroke-width: 1.5; stroke-linejoin: miter; stroke-linecap: square"/>
   </g>
   <g id="text_18">
    <!-- 1421_wo_HF -->
    <g transform="translate(223.750234 18.441699) scale(0.14 -0.14)">
     <defs>
      <path id="ArialMT-42" d="M -97 -1272 
L -97 -866 
L 3631 -866 
L 3631 -1272 
L -97 -1272 
z
" transform="scale(0.015625)"/>
      <path id="ArialMT-5a" d="M 1034 0 
L 19 3319 
L 600 3319 
L 1128 1403 
L 1325 691 
Q 1338 744 1497 1375 
L 2025 3319 
L 2603 3319 
L 3100 1394 
L 3266 759 
L 3456 1400 
L 4025 3319 
L 4572 3319 
L 3534 0 
L 2950 0 
L 2422 1988 
L 2294 2553 
L 1622 0 
L 1034 0 
z
" transform="scale(0.015625)"/>
      <path id="ArialMT-2b" d="M 513 0 
L 513 4581 
L 1119 4581 
L 1119 2700 
L 3500 2700 
L 3500 4581 
L 4106 4581 
L 4106 0 
L 3500 0 
L 3500 2159 
L 1119 2159 
L 1119 0 
L 513 0 
z
" transform="scale(0.015625)"/>
      <path id="ArialMT-29" d="M 525 0 
L 525 4581 
L 3616 4581 
L 3616 4041 
L 1131 4041 
L 1131 2622 
L 3281 2622 
L 3281 2081 
L 1131 2081 
L 1131 0 
L 525 0 
z
" transform="scale(0.015625)"/>
     </defs>
     <use xlink:href="#ArialMT-14"/>
     <use xlink:href="#ArialMT-17" transform="translate(55.609375 0)"/>
     <use xlink:href="#ArialMT-15" transform="translate(111.21875 0)"/>
     <use xlink:href="#ArialMT-14" transform="translate(166.828125 0)"/>
     <use xlink:href="#ArialMT-42" transform="translate(222.4375 0)"/>
     <use xlink:href="#ArialMT-5a" transform="translate(278.046875 0)"/>
     <use xlink:href="#ArialMT-52" transform="translate(350.265625 0)"/>
     <use xlink:href="#ArialMT-42" transform="translate(405.875 0)"/>
     <use xlink:href="#ArialMT-2b" transform="translate(461.484375 0)"/>
     <use xlink:href="#ArialMT-29" transform="translate(533.703125 0)"/>
    </g>
    <!-- m/z 18 -->
    <g transform="translate(244.379453 33.679004) scale(0.14 -0.14)">
     <use xlink:href="#ArialMT-50"/>
     <use xlink:href="#ArialMT-12" transform="translate(83.296875 0)"/>
     <use xlink:href="#ArialMT-5d" transform="translate(111.078125 0)"/>
     <use xlink:href="#ArialMT-3" transform="translate(161.078125 0)"/>
     <use xlink:href="#ArialMT-14" transform="translate(188.859375 0)"/>
     <use xlink:href="#ArialMT-1b" transform="translate(244.46875 0)"/>
    </g>
   </g>
   <g id="legend_1">
    <g id="line2d_21">
     <path d="M 513.336012 52.459277 
L 523.336012 52.459277 
L 533.336012 52.459277 
" style="fill: none; stroke: #000000; stroke-width: 2.5; stroke-linecap: square"/>
    </g>
    <g id="text_19">
     <!-- 0 h -->
     <g transform="translate(541.336012 55.959277) scale(0.1 -0.1)">
      <defs>
       <path id="ArialMT-4b" d="M 422 0 
L 422 4581 
L 984 4581 
L 984 2938 
Q 1378 3394 1978 3394 
Q 2347 3394 2619 3248 
Q 2891 3103 3008 2847 
Q 3125 2591 3125 2103 
L 3125 0 
L 2563 0 
L 2563 2103 
Q 2563 2525 2380 2717 
Q 2197 2909 1863 2909 
Q 1613 2909 1392 2779 
Q 1172 2650 1078 2428 
Q 984 2206 984 1816 
L 984 0 
L 422 0 
z
" transform="scale(0.015625)"/>
      </defs>
      <use xlink:href="#ArialMT-13"/>
      <use xlink:href="#ArialMT-3" transform="translate(55.609375 0)"/>
      <use xlink:href="#ArialMT-4b" transform="translate(83.390625 0)"/>
     </g>
    </g>
    <g id="line2d_22">
     <path d="M 513.336012 66.844043 
L 523.336012 66.844043 
L 533.336012 66.844043 
" style="fill: none; stroke: #1f77b4; stroke-width: 2.5; stroke-linecap: square"/>
    </g>
    <g id="text_20">
     <!-- 6 h -->
     <g transform="translate(541.336012 70.344043) scale(0.1 -0.1)">
      <use xlink:href="#ArialMT-19"/>
      <use xlink:href="#ArialMT-3" transform="translate(55.609375 0)"/>
      <use xlink:href="#ArialMT-4b" transform="translate(83.390625 0)"/>
     </g>
    </g>
    <g id="line2d_23">
     <path d="M 513.336012 81.228809 
L 523.336012 81.228809 
L 533.336012 81.228809 
" style="fill: none; stroke: #d62728; stroke-width: 2.5; stroke-linecap: square"/>
    </g>
    <g id="text_21">
     <!-- 24 h -->
     <g transform="translate(541.336012 84.728809) scale(0.1 -0.1)">
      <use xlink:href="#ArialMT-15"/>
      <use xlink:href="#ArialMT-17" transform="translate(55.609375 0)"/>
      <use xlink:href="#ArialMT-3" transform="translate(111.21875 0)"/>
      <use xlink:href="#ArialMT-4b" transform="translate(139 0)"/>
     </g>
    </g>
    <g id="line2d_24">
     <path d="M 513.336012 95.613574 
L 523.336012 95.613574 
L 533.336012 95.613574 
" style="fill: none; stroke: #ff7f0e; stroke-width: 2.5; stroke-linecap: square"/>
    </g>
    <g id="text_22">
     <!-- 7 d -->
     <g transform="translate(541.336012 99.113574) scale(0.1 -0.1)">
      <defs>
       <path id="ArialMT-47" d="M 2575 0 
L 2575 419 
Q 2259 -75 1647 -75 
Q 1250 -75 917 144 
Q 584 363 401 755 
Q 219 1147 219 1656 
Q 219 2153 384 2558 
Q 550 2963 881 3178 
Q 1213 3394 1622 3394 
Q 1922 3394 2156 3267 
Q 2391 3141 2538 2938 
L 2538 4581 
L 3097 4581 
L 3097 0 
L 2575 0 
z
M 797 1656 
Q 797 1019 1065 703 
Q 1334 388 1700 388 
Q 2069 388 2326 689 
Q 2584 991 2584 1609 
Q 2584 2291 2321 2609 
Q 2059 2928 1675 2928 
Q 1300 2928 1048 2622 
Q 797 2316 797 1656 
z
" transform="scale(0.015625)"/>
      </defs>
      <use xlink:href="#ArialMT-1a"/>
      <use xlink:href="#ArialMT-3" transform="translate(55.609375 0)"/>
      <use xlink:href="#ArialMT-47" transform="translate(83.390625 0)"/>
     </g>
    </g>
    <g id="line2d_25">
     <path d="M 513.336012 109.99834 
L 523.336012 109.99834 
L 533.336012 109.99834 
" style="fill: none; stroke: #9467bd; stroke-width: 2.5; stroke-linecap: square"/>
    </g>
    <g id="text_23">
     <!-- 14 d -->
     <g transform="translate(541.336012 113.49834) scale(0.1 -0.1)">
      <use xlink:href="#ArialMT-14"/>
      <use xlink:href="#ArialMT-17" transform="translate(55.609375 0)"/>
      <use xlink:href="#ArialMT-3" transform="translate(111.21875 0)"/>
      <use xlink:href="#ArialMT-47" transform="translate(139 0)"/>
     </g>
    </g>
    <g id="line2d_26">
     <path d="M 513.336012 124.383105 
L 523.336012 124.383105 
L 533.336012 124.383105 
" style="fill: none; stroke: #2ca02c; stroke-width: 2.5; stroke-linecap: square"/>
    </g>
    <g id="text_24">
     <!-- 28 d -->
     <g transform="translate(541.336012 127.883105) scale(0.1 -0.1)">
      <use xlink:href="#ArialMT-15"/>
      <use xlink:href="#ArialMT-1b" transform="translate(55.609375 0)"/>
      <use xlink:href="#ArialMT-3" transform="translate(111.21875 0)"/>
      <use xlink:href="#ArialMT-47" transform="translate(139 0)"/>
     </g>
    </g>
   </g>
  </g>
 </g>
 <defs>
  <clipPath id="p310e9ae9b0">
   <rect x="35.624258" y="39.679004" width="459.521328" height="263.503652"/>
  </clipPath>
 </defs>
</svg>
