<?xml version="1.0" encoding="utf-8" standalone="no"?>
<!DOCTYPE svg PUBLIC "-//W3C//DTD SVG 1.1//EN"
  "http://www.w3.org/Graphics/SVG/1.1/DTD/svg11.dtd">
<svg xmlns:xlink="http://www.w3.org/1999/xlink" width="571.921237pt" height="344.160273pt" viewBox="0 0 571.921237 344.160273" xmlns="http://www.w3.org/2000/svg" version="1.1">
 <metadata>
  <rdf:RDF xmlns:dc="http://purl.org/dc/elements/1.1/" xmlns:cc="http://creativecommons.org/ns#" xmlns:rdf="http://www.w3.org/1999/02/22-rdf-syntax-ns#">
   <cc:Work>
    <dc:type rdf:resource="http://purl.org/dc/dcmitype/StillImage"/>
    <dc:date>2026-07-10T11:48:30.805387</dc:date>
    <dc:format>image/svg+xml</dc:format>
    <dc:creator>
     <cc:Agent>
      <dc:title>Matplotlib v3.11.0, https://matplotlib.org/</dc:title>
     </cc:Agent>
    </dc:creator>
   </cc:Work>
  </rdf:RDF>
 </metadata>
 <defs>
  <style type="text/css">*{stroke-linejoin: round; stroke-linecap: butt}</style>
 </defs>
 <g id="figure_1">
  <g id="patch_1">
   <path d="M 0 344.160273 
L 571.921237 344.160273 
L 571.921237 0 
L 0 0 
z
" style="fill: #ffffff"/>
  </g>
  <g id="axes_1">
   <g id="patch_2">
    <path d="M 47.298945 303.182656 
L 495.300273 303.182656 
L 495.300273 39.679004 
L 47.298945 39.679004 
z
" style="fill: #ffffff"/>
   </g>
   <g id="matplotlib.axis_1">
    <g id="xtick_1">
     <g id="line2d_1">
      <defs>
       <path id="md0dd361d80" d="M 0 0 
L 0 -6 
" style="stroke: #000000; stroke-width: 0.8"/>
      </defs>
      <g>
       <use xlink:href="#md0dd361d80" x="105.733901" y="303.182656" style="stroke: #000000; stroke-width: 0.8"/>
      </g>
     </g>
     <g id="text_1">
      <!-- 200 -->
      <g transform="translate(94.055932 316.875039) scale(0.14 -0.14)">
       <defs>
        <path id="ArialMT-15" d="M 3222 541 
L 3222 0 
L 194 0 
Q 188 203 259 391 
Q 375 700 629 1000 
Q 884 1300 1366 1694 
Q 2113 2306 2375 2664 
Q 2638 3022 2638 3341 
Q 2638 3675 2398 3904 
Q 2159 4134 1775 4134 
Q 1369 4134 1125 3890 
Q 881 3647 878 3216 
L 300 3275 
Q 359 3922 746 4261 
Q 1134 4600 1788 4600 
Q 2447 4600 2831 4234 
Q 3216 3869 3216 3328 
Q 3216 3053 3103 2787 
Q 2991 2522 2730 2228 
Q 2469 1934 1863 1422 
Q 1356 997 1212 845 
Q 1069 694 975 541 
L 3222 541 
z
" transform="scale(0.015625)"/>
        <path id="ArialMT-13" d="M 266 2259 
Q 266 3072 433 3567 
Q 600 4063 929 4331 
Q 1259 4600 1759 4600 
Q 2128 4600 2406 4451 
Q 2684 4303 2865 4023 
Q 3047 3744 3150 3342 
Q 3253 2941 3253 2259 
Q 3253 1453 3087 958 
Q 2922 463 2592 192 
Q 2263 -78 1759 -78 
Q 1097 -78 719 397 
Q 266 969 266 2259 
z
M 844 2259 
Q 844 1131 1108 757 
Q 1372 384 1759 384 
Q 2147 384 2411 759 
Q 2675 1134 2675 2259 
Q 2675 3391 2411 3762 
Q 2147 4134 1753 4134 
Q 1366 4134 1134 3806 
Q 844 3388 844 2259 
z
" transform="scale(0.015625)"/>
       </defs>
       <use xlink:href="#ArialMT-15"/>
       <use xlink:href="#ArialMT-13" transform="translate(55.609375 0)"/>
       <use xlink:href="#ArialMT-13" transform="translate(111.21875 0)"/>
      </g>
     </g>
    </g>
    <g id="xtick_2">
     <g id="line2d_2">
      <g>
       <use xlink:href="#md0dd361d80" x="183.647176" y="303.182656" style="stroke: #000000; stroke-width: 0.8"/>
      </g>
     </g>
     <g id="text_2">
      <!-- 400 -->
      <g transform="translate(171.969207 316.875039) scale(0.14 -0.14)">
       <defs>
        <path id="ArialMT-17" d="M 2069 0 
L 2069 1097 
L 81 1097 
L 81 1613 
L 2172 4581 
L 2631 4581 
L 2631 1613 
L 3250 1613 
L 3250 1097 
L 2631 1097 
L 2631 0 
L 2069 0 
z
M 2069 1613 
L 2069 3678 
L 634 1613 
L 2069 1613 
z
" transform="scale(0.015625)"/>
       </defs>
       <use xlink:href="#ArialMT-17"/>
       <use xlink:href="#ArialMT-13" transform="translate(55.609375 0)"/>
       <use xlink:href="#ArialMT-13" transform="translate(111.21875 0)"/>
      </g>
     </g>
    </g>
    <g id="xtick_3">
     <g id="line2d_3">
      <g>
       <use xlink:href="#md0dd361d80" x="261.56045" y="303.182656" style="stroke: #000000; stroke-width: 0.8"/>
      </g>
     </g>
     <g id="text_3">
      <!-- 600 -->
      <g transform="translate(249.882481 316.875039) scale(0.14 -0.14)">
       <defs>
        <path id="ArialMT-19" d="M 3184 3459 
L 2625 3416 
Q 2550 3747 2413 3897 
Q 2184 4138 1850 4138 
Q 1581 4138 1378 3988 
Q 1113 3794 959 3422 
Q 806 3050 800 2363 
Q 1003 2672 1297 2822 
Q 1591 2972 1913 2972 
Q 2475 2972 2870 2558 
Q 3266 2144 3266 1488 
Q 3266 1056 3080 686 
Q 2894 316 2569 119 
Q 2244 -78 1831 -78 
Q 1128 -78 684 439 
Q 241 956 241 2144 
Q 241 3472 731 4075 
Q 1159 4600 1884 4600 
Q 2425 4600 2770 4297 
Q 3116 3994 3184 3459 
z
M 888 1484 
Q 888 1194 1011 928 
Q 1134 663 1356 523 
Q 1578 384 1822 384 
Q 2178 384 2434 671 
Q 2691 959 2691 1453 
Q 2691 1928 2437 2201 
Q 2184 2475 1800 2475 
Q 1419 2475 1153 2201 
Q 888 1928 888 1484 
z
" transform="scale(0.015625)"/>
       </defs>
       <use xlink:href="#ArialMT-19"/>
       <use xlink:href="#ArialMT-13" transform="translate(55.609375 0)"/>
       <use xlink:href="#ArialMT-13" transform="translate(111.21875 0)"/>
      </g>
     </g>
    </g>
    <g id="xtick_4">
     <g id="line2d_4">
      <g>
       <use xlink:href="#md0dd361d80" x="339.473725" y="303.182656" style="stroke: #000000; stroke-width: 0.8"/>
      </g>
     </g>
     <g id="text_4">
      <!-- 800 -->
      <g transform="translate(327.795756 316.875039) scale(0.14 -0.14)">
       <defs>
        <path id="ArialMT-1b" d="M 1131 2484 
Q 781 2613 612 2850 
Q 444 3088 444 3419 
Q 444 3919 803 4259 
Q 1163 4600 1759 4600 
Q 2359 4600 2725 4251 
Q 3091 3903 3091 3403 
Q 3091 3084 2923 2848 
Q 2756 2613 2416 2484 
Q 2838 2347 3058 2040 
Q 3278 1734 3278 1309 
Q 3278 722 2862 322 
Q 2447 -78 1769 -78 
Q 1091 -78 675 323 
Q 259 725 259 1325 
Q 259 1772 486 2073 
Q 713 2375 1131 2484 
z
M 1019 3438 
Q 1019 3113 1228 2906 
Q 1438 2700 1772 2700 
Q 2097 2700 2305 2904 
Q 2513 3109 2513 3406 
Q 2513 3716 2298 3927 
Q 2084 4138 1766 4138 
Q 1444 4138 1231 3931 
Q 1019 3725 1019 3438 
z
M 838 1322 
Q 838 1081 952 856 
Q 1066 631 1291 507 
Q 1516 384 1775 384 
Q 2178 384 2440 643 
Q 2703 903 2703 1303 
Q 2703 1709 2433 1975 
Q 2163 2241 1756 2241 
Q 1359 2241 1098 1978 
Q 838 1716 838 1322 
z
" transform="scale(0.015625)"/>
       </defs>
       <use xlink:href="#ArialMT-1b"/>
       <use xlink:href="#ArialMT-13" transform="translate(55.609375 0)"/>
       <use xlink:href="#ArialMT-13" transform="translate(111.21875 0)"/>
      </g>
     </g>
    </g>
    <g id="xtick_5">
     <g id="line2d_5">
      <g>
       <use xlink:href="#md0dd361d80" x="417.386999" y="303.182656" style="stroke: #000000; stroke-width: 0.8"/>
      </g>
     </g>
     <g id="text_5">
      <!-- 1000 -->
      <g transform="translate(401.816374 316.875039) scale(0.14 -0.14)">
       <defs>
        <path id="ArialMT-14" d="M 2384 0 
L 1822 0 
L 1822 3584 
Q 1619 3391 1289 3197 
Q 959 3003 697 2906 
L 697 3450 
Q 1169 3672 1522 3987 
Q 1875 4303 2022 4600 
L 2384 4600 
L 2384 0 
z
" transform="scale(0.015625)"/>
       </defs>
       <use xlink:href="#ArialMT-14"/>
       <use xlink:href="#ArialMT-13" transform="translate(55.609375 0)"/>
       <use xlink:href="#ArialMT-13" transform="translate(111.21875 0)"/>
       <use xlink:href="#ArialMT-13" transform="translate(166.828125 0)"/>
      </g>
     </g>
    </g>
    <g id="xtick_6">
     <g id="line2d_6">
      <g>
       <use xlink:href="#md0dd361d80" x="495.300273" y="303.182656" style="stroke: #000000; stroke-width: 0.8"/>
      </g>
     </g>
     <g id="text_6">
      <!-- 1200 -->
      <g transform="translate(479.729648 316.875039) scale(0.14 -0.14)">
       <use xlink:href="#ArialMT-14"/>
       <use xlink:href="#ArialMT-15" transform="translate(55.609375 0)"/>
       <use xlink:href="#ArialMT-13" transform="translate(111.21875 0)"/>
       <use xlink:href="#ArialMT-13" transform="translate(166.828125 0)"/>
      </g>
     </g>
    </g>
    <g id="text_7">
     <!-- T1 Temperature (°C) -->
     <g transform="translate(207.560234 334.013711) scale(0.14 -0.14)">
      <defs>
       <path id="ArialMT-37" d="M 1659 0 
L 1659 4041 
L 150 4041 
L 150 4581 
L 3781 4581 
L 3781 4041 
L 2266 4041 
L 2266 0 
L 1659 0 
z
" transform="scale(0.015625)"/>
       <path id="ArialMT-3" transform="scale(0.015625)"/>
       <path id="ArialMT-48" d="M 2694 1069 
L 3275 997 
Q 3138 488 2766 206 
Q 2394 -75 1816 -75 
Q 1088 -75 661 373 
Q 234 822 234 1631 
Q 234 2469 665 2931 
Q 1097 3394 1784 3394 
Q 2450 3394 2872 2941 
Q 3294 2488 3294 1666 
Q 3294 1616 3291 1516 
L 816 1516 
Q 847 969 1125 678 
Q 1403 388 1819 388 
Q 2128 388 2347 550 
Q 2566 713 2694 1069 
z
M 847 1978 
L 2700 1978 
Q 2663 2397 2488 2606 
Q 2219 2931 1791 2931 
Q 1403 2931 1139 2672 
Q 875 2413 847 1978 
z
" transform="scale(0.015625)"/>
       <path id="ArialMT-50" d="M 422 0 
L 422 3319 
L 925 3319 
L 925 2853 
Q 1081 3097 1340 3245 
Q 1600 3394 1931 3394 
Q 2300 3394 2536 3241 
Q 2772 3088 2869 2813 
Q 3263 3394 3894 3394 
Q 4388 3394 4653 3120 
Q 4919 2847 4919 2278 
L 4919 0 
L 4359 0 
L 4359 2091 
Q 4359 2428 4304 2576 
Q 4250 2725 4106 2815 
Q 3963 2906 3769 2906 
Q 3419 2906 3187 2673 
Q 2956 2441 2956 1928 
L 2956 0 
L 2394 0 
L 2394 2156 
Q 2394 2531 2256 2718 
Q 2119 2906 1806 2906 
Q 1569 2906 1367 2781 
Q 1166 2656 1075 2415 
Q 984 2175 984 1722 
L 984 0 
L 422 0 
z
" transform="scale(0.015625)"/>
       <path id="ArialMT-53" d="M 422 -1272 
L 422 3319 
L 934 3319 
L 934 2888 
Q 1116 3141 1344 3267 
Q 1572 3394 1897 3394 
Q 2322 3394 2647 3175 
Q 2972 2956 3137 2557 
Q 3303 2159 3303 1684 
Q 3303 1175 3120 767 
Q 2938 359 2589 142 
Q 2241 -75 1856 -75 
Q 1575 -75 1351 44 
Q 1128 163 984 344 
L 984 -1272 
L 422 -1272 
z
M 931 1641 
Q 931 1000 1190 694 
Q 1450 388 1819 388 
Q 2194 388 2461 705 
Q 2728 1022 2728 1688 
Q 2728 2322 2467 2637 
Q 2206 2953 1844 2953 
Q 1484 2953 1207 2617 
Q 931 2281 931 1641 
z
" transform="scale(0.015625)"/>
       <path id="ArialMT-55" d="M 416 0 
L 416 3319 
L 922 3319 
L 922 2816 
Q 1116 3169 1280 3281 
Q 1444 3394 1641 3394 
Q 1925 3394 2219 3213 
L 2025 2691 
Q 1819 2813 1613 2813 
Q 1428 2813 1281 2702 
Q 1134 2591 1072 2394 
Q 978 2094 978 1738 
L 978 0 
L 416 0 
z
" transform="scale(0.015625)"/>
       <path id="ArialMT-44" d="M 2588 409 
Q 2275 144 1986 34 
Q 1697 -75 1366 -75 
Q 819 -75 525 192 
Q 231 459 231 875 
Q 231 1119 342 1320 
Q 453 1522 633 1644 
Q 813 1766 1038 1828 
Q 1203 1872 1538 1913 
Q 2219 1994 2541 2106 
Q 2544 2222 2544 2253 
Q 2544 2597 2384 2738 
Q 2169 2928 1744 2928 
Q 1347 2928 1158 2789 
Q 969 2650 878 2297 
L 328 2372 
Q 403 2725 575 2942 
Q 747 3159 1072 3276 
Q 1397 3394 1825 3394 
Q 2250 3394 2515 3294 
Q 2781 3194 2906 3042 
Q 3031 2891 3081 2659 
Q 3109 2516 3109 2141 
L 3109 1391 
Q 3109 606 3145 398 
Q 3181 191 3288 0 
L 2700 0 
Q 2613 175 2588 409 
z
M 2541 1666 
Q 2234 1541 1622 1453 
Q 1275 1403 1131 1340 
Q 988 1278 909 1158 
Q 831 1038 831 891 
Q 831 666 1001 516 
Q 1172 366 1500 366 
Q 1825 366 2078 508 
Q 2331 650 2450 897 
Q 2541 1088 2541 1459 
L 2541 1666 
z
" transform="scale(0.015625)"/>
       <path id="ArialMT-57" d="M 1650 503 
L 1731 6 
Q 1494 -44 1306 -44 
Q 1000 -44 831 53 
Q 663 150 594 308 
Q 525 466 525 972 
L 525 2881 
L 113 2881 
L 113 3319 
L 525 3319 
L 525 4141 
L 1084 4478 
L 1084 3319 
L 1650 3319 
L 1650 2881 
L 1084 2881 
L 1084 941 
Q 1084 700 1114 631 
Q 1144 563 1211 522 
Q 1278 481 1403 481 
Q 1497 481 1650 503 
z
" transform="scale(0.015625)"/>
       <path id="ArialMT-58" d="M 2597 0 
L 2597 488 
Q 2209 -75 1544 -75 
Q 1250 -75 995 37 
Q 741 150 617 320 
Q 494 491 444 738 
Q 409 903 409 1263 
L 409 3319 
L 972 3319 
L 972 1478 
Q 972 1038 1006 884 
Q 1059 663 1231 536 
Q 1403 409 1656 409 
Q 1909 409 2131 539 
Q 2353 669 2445 892 
Q 2538 1116 2538 1541 
L 2538 3319 
L 3100 3319 
L 3100 0 
L 2597 0 
z
" transform="scale(0.015625)"/>
       <path id="ArialMT-b" d="M 1497 -1347 
Q 1031 -759 709 28 
Q 388 816 388 1659 
Q 388 2403 628 3084 
Q 909 3875 1497 4659 
L 1900 4659 
Q 1522 4009 1400 3731 
Q 1209 3300 1100 2831 
Q 966 2247 966 1656 
Q 966 153 1900 -1347 
L 1497 -1347 
z
" transform="scale(0.015625)"/>
       <path id="ArialMT-83" d="M 400 3794 
Q 400 4153 654 4406 
Q 909 4659 1266 4659 
Q 1628 4659 1881 4406 
Q 2134 4153 2134 3794 
Q 2134 3434 1879 3179 
Q 1625 2925 1266 2925 
Q 909 2925 654 3178 
Q 400 3431 400 3794 
z
M 741 3794 
Q 741 3575 895 3420 
Q 1050 3266 1269 3266 
Q 1484 3266 1639 3420 
Q 1794 3575 1794 3794 
Q 1794 4013 1639 4167 
Q 1484 4322 1269 4322 
Q 1050 4322 895 4167 
Q 741 4013 741 3794 
z
" transform="scale(0.015625)"/>
       <path id="ArialMT-26" d="M 3763 1606 
L 4369 1453 
Q 4178 706 3683 314 
Q 3188 -78 2472 -78 
Q 1731 -78 1267 223 
Q 803 525 561 1097 
Q 319 1669 319 2325 
Q 319 3041 592 3573 
Q 866 4106 1370 4382 
Q 1875 4659 2481 4659 
Q 3169 4659 3637 4309 
Q 4106 3959 4291 3325 
L 3694 3184 
Q 3534 3684 3231 3912 
Q 2928 4141 2469 4141 
Q 1941 4141 1586 3887 
Q 1231 3634 1087 3207 
Q 944 2781 944 2328 
Q 944 1744 1114 1308 
Q 1284 872 1643 656 
Q 2003 441 2422 441 
Q 2931 441 3284 734 
Q 3638 1028 3763 1606 
z
" transform="scale(0.015625)"/>
       <path id="ArialMT-c" d="M 791 -1347 
L 388 -1347 
Q 1322 153 1322 1656 
Q 1322 2244 1188 2822 
Q 1081 3291 891 3722 
Q 769 4003 388 4659 
L 791 4659 
Q 1378 3875 1659 3084 
Q 1900 2403 1900 1659 
Q 1900 816 1576 28 
Q 1253 -759 791 -1347 
z
" transform="scale(0.015625)"/>
      </defs>
      <use xlink:href="#ArialMT-37"/>
      <use xlink:href="#ArialMT-14" transform="translate(61.078125 0)"/>
      <use xlink:href="#ArialMT-3" transform="translate(116.6875 0)"/>
      <use xlink:href="#ArialMT-37" transform="translate(142.65625 0)"/>
      <use xlink:href="#ArialMT-48" transform="translate(192.65625 0)"/>
      <use xlink:href="#ArialMT-50" transform="translate(248.265625 0)"/>
      <use xlink:href="#ArialMT-53" transform="translate(331.5625 0)"/>
      <use xlink:href="#ArialMT-48" transform="translate(387.171875 0)"/>
      <use xlink:href="#ArialMT-55" transform="translate(442.78125 0)"/>
      <use xlink:href="#ArialMT-44" transform="translate(476.078125 0)"/>
      <use xlink:href="#ArialMT-57" transform="translate(531.6875 0)"/>
      <use xlink:href="#ArialMT-58" transform="translate(559.46875 0)"/>
      <use xlink:href="#ArialMT-55" transform="translate(615.078125 0)"/>
      <use xlink:href="#ArialMT-48" transform="translate(648.375 0)"/>
      <use xlink:href="#ArialMT-3" transform="translate(703.984375 0)"/>
      <use xlink:href="#ArialMT-b" transform="translate(731.765625 0)"/>
      <use xlink:href="#ArialMT-83" transform="translate(765.0625 0)"/>
      <use xlink:href="#ArialMT-26" transform="translate(805.046875 0)"/>
      <use xlink:href="#ArialMT-c" transform="translate(877.265625 0)"/>
     </g>
    </g>
   </g>
   <g id="matplotlib.axis_2">
    <g id="ytick_1">
     <g id="line2d_7">
      <defs>
       <path id="ma8a8b4a5fb" d="M 0 0 
L 6 0 
" style="stroke: #000000; stroke-width: 0.8"/>
      </defs>
      <g>
       <use xlink:href="#ma8a8b4a5fb" x="47.298945" y="296.05471" style="stroke: #000000; stroke-width: 0.8"/>
      </g>
     </g>
     <g id="text_8">
      <!-- 0.0 -->
      <g transform="translate(24.338945 301.150901) scale(0.14 -0.14)">
       <defs>
        <path id="ArialMT-11" d="M 581 0 
L 581 641 
L 1222 641 
L 1222 0 
L 581 0 
z
" transform="scale(0.015625)"/>
       </defs>
       <use xlink:href="#ArialMT-13"/>
       <use xlink:href="#ArialMT-11" transform="translate(55.609375 0)"/>
       <use xlink:href="#ArialMT-13" transform="translate(83.390625 0)"/>
      </g>
     </g>
    </g>
    <g id="ytick_2">
     <g id="line2d_8">
      <g>
       <use xlink:href="#ma8a8b4a5fb" x="47.298945" y="257.516867" style="stroke: #000000; stroke-width: 0.8"/>
      </g>
     </g>
     <g id="text_9">
      <!-- 0.5 -->
      <g transform="translate(24.338945 262.613058) scale(0.14 -0.14)">
       <defs>
        <path id="ArialMT-18" d="M 266 1200 
L 856 1250 
Q 922 819 1161 601 
Q 1400 384 1738 384 
Q 2144 384 2425 690 
Q 2706 997 2706 1503 
Q 2706 1984 2436 2262 
Q 2166 2541 1728 2541 
Q 1456 2541 1237 2417 
Q 1019 2294 894 2097 
L 366 2166 
L 809 4519 
L 3088 4519 
L 3088 3981 
L 1259 3981 
L 1013 2750 
Q 1425 3038 1878 3038 
Q 2478 3038 2890 2622 
Q 3303 2206 3303 1553 
Q 3303 931 2941 478 
Q 2500 -78 1738 -78 
Q 1113 -78 717 272 
Q 322 622 266 1200 
z
" transform="scale(0.015625)"/>
       </defs>
       <use xlink:href="#ArialMT-13"/>
       <use xlink:href="#ArialMT-11" transform="translate(55.609375 0)"/>
       <use xlink:href="#ArialMT-18" transform="translate(83.390625 0)"/>
      </g>
     </g>
    </g>
    <g id="ytick_3">
     <g id="line2d_9">
      <g>
       <use xlink:href="#ma8a8b4a5fb" x="47.298945" y="218.979024" style="stroke: #000000; stroke-width: 0.8"/>
      </g>
     </g>
     <g id="text_10">
      <!-- 1.0 -->
      <g transform="translate(24.338945 224.075215) scale(0.14 -0.14)">
       <use xlink:href="#ArialMT-14"/>
       <use xlink:href="#ArialMT-11" transform="translate(55.609375 0)"/>
       <use xlink:href="#ArialMT-13" transform="translate(83.390625 0)"/>
      </g>
     </g>
    </g>
    <g id="ytick_4">
     <g id="line2d_10">
      <g>
       <use xlink:href="#ma8a8b4a5fb" x="47.298945" y="180.441181" style="stroke: #000000; stroke-width: 0.8"/>
      </g>
     </g>
     <g id="text_11">
      <!-- 1.5 -->
      <g transform="translate(24.338945 185.537373) scale(0.14 -0.14)">
       <use xlink:href="#ArialMT-14"/>
       <use xlink:href="#ArialMT-11" transform="translate(55.609375 0)"/>
       <use xlink:href="#ArialMT-18" transform="translate(83.390625 0)"/>
      </g>
     </g>
    </g>
    <g id="ytick_5">
     <g id="line2d_11">
      <g>
       <use xlink:href="#ma8a8b4a5fb" x="47.298945" y="141.903339" style="stroke: #000000; stroke-width: 0.8"/>
      </g>
     </g>
     <g id="text_12">
      <!-- 2.0 -->
      <g transform="translate(24.338945 146.99953) scale(0.14 -0.14)">
       <use xlink:href="#ArialMT-15"/>
       <use xlink:href="#ArialMT-11" transform="translate(55.609375 0)"/>
       <use xlink:href="#ArialMT-13" transform="translate(83.390625 0)"/>
      </g>
     </g>
    </g>
    <g id="ytick_6">
     <g id="line2d_12">
      <g>
       <use xlink:href="#ma8a8b4a5fb" x="47.298945" y="103.365496" style="stroke: #000000; stroke-width: 0.8"/>
      </g>
     </g>
     <g id="text_13">
      <!-- 2.5 -->
      <g transform="translate(24.338945 108.461687) scale(0.14 -0.14)">
       <use xlink:href="#ArialMT-15"/>
       <use xlink:href="#ArialMT-11" transform="translate(55.609375 0)"/>
       <use xlink:href="#ArialMT-18" transform="translate(83.390625 0)"/>
      </g>
     </g>
    </g>
    <g id="ytick_7">
     <g id="line2d_13">
      <g>
       <use xlink:href="#ma8a8b4a5fb" x="47.298945" y="64.827653" style="stroke: #000000; stroke-width: 0.8"/>
      </g>
     </g>
     <g id="text_14">
      <!-- 3.0 -->
      <g transform="translate(24.338945 69.923845) scale(0.14 -0.14)">
       <defs>
        <path id="ArialMT-16" d="M 269 1209 
L 831 1284 
Q 928 806 1161 595 
Q 1394 384 1728 384 
Q 2125 384 2398 659 
Q 2672 934 2672 1341 
Q 2672 1728 2419 1979 
Q 2166 2231 1775 2231 
Q 1616 2231 1378 2169 
L 1441 2663 
Q 1497 2656 1531 2656 
Q 1891 2656 2178 2843 
Q 2466 3031 2466 3422 
Q 2466 3731 2256 3934 
Q 2047 4138 1716 4138 
Q 1388 4138 1169 3931 
Q 950 3725 888 3313 
L 325 3413 
Q 428 3978 793 4289 
Q 1159 4600 1703 4600 
Q 2078 4600 2393 4439 
Q 2709 4278 2876 4000 
Q 3044 3722 3044 3409 
Q 3044 3113 2884 2869 
Q 2725 2625 2413 2481 
Q 2819 2388 3044 2092 
Q 3269 1797 3269 1353 
Q 3269 753 2831 336 
Q 2394 -81 1725 -81 
Q 1122 -81 723 278 
Q 325 638 269 1209 
z
" transform="scale(0.015625)"/>
       </defs>
       <use xlink:href="#ArialMT-16"/>
       <use xlink:href="#ArialMT-11" transform="translate(55.609375 0)"/>
       <use xlink:href="#ArialMT-13" transform="translate(83.390625 0)"/>
      </g>
     </g>
    </g>
    <g id="text_15">
     <!-- Ion Current (m/z 19) -->
     <g transform="translate(17.392383 234.056768) rotate(-90) scale(0.14 -0.14)">
      <defs>
       <path id="ArialMT-2c" d="M 597 0 
L 597 4581 
L 1203 4581 
L 1203 0 
L 597 0 
z
" transform="scale(0.015625)"/>
       <path id="ArialMT-52" d="M 213 1659 
Q 213 2581 725 3025 
Q 1153 3394 1769 3394 
Q 2453 3394 2887 2945 
Q 3322 2497 3322 1706 
Q 3322 1066 3130 698 
Q 2938 331 2570 128 
Q 2203 -75 1769 -75 
Q 1072 -75 642 372 
Q 213 819 213 1659 
z
M 791 1659 
Q 791 1022 1069 705 
Q 1347 388 1769 388 
Q 2188 388 2466 706 
Q 2744 1025 2744 1678 
Q 2744 2294 2464 2611 
Q 2184 2928 1769 2928 
Q 1347 2928 1069 2612 
Q 791 2297 791 1659 
z
" transform="scale(0.015625)"/>
       <path id="ArialMT-51" d="M 422 0 
L 422 3319 
L 928 3319 
L 928 2847 
Q 1294 3394 1984 3394 
Q 2284 3394 2536 3286 
Q 2788 3178 2913 3003 
Q 3038 2828 3088 2588 
Q 3119 2431 3119 2041 
L 3119 0 
L 2556 0 
L 2556 2019 
Q 2556 2363 2490 2533 
Q 2425 2703 2258 2804 
Q 2091 2906 1866 2906 
Q 1506 2906 1245 2678 
Q 984 2450 984 1813 
L 984 0 
L 422 0 
z
" transform="scale(0.015625)"/>
       <path id="ArialMT-12" d="M 0 -78 
L 1328 4659 
L 1778 4659 
L 453 -78 
L 0 -78 
z
" transform="scale(0.015625)"/>
       <path id="ArialMT-5d" d="M 125 0 
L 125 456 
L 2238 2881 
Q 1878 2863 1603 2863 
L 250 2863 
L 250 3319 
L 2963 3319 
L 2963 2947 
L 1166 841 
L 819 456 
Q 1197 484 1528 484 
L 3063 484 
L 3063 0 
L 125 0 
z
" transform="scale(0.015625)"/>
       <path id="ArialMT-1c" d="M 350 1059 
L 891 1109 
Q 959 728 1153 556 
Q 1347 384 1650 384 
Q 1909 384 2104 503 
Q 2300 622 2425 820 
Q 2550 1019 2634 1356 
Q 2719 1694 2719 2044 
Q 2719 2081 2716 2156 
Q 2547 1888 2255 1720 
Q 1963 1553 1622 1553 
Q 1053 1553 659 1965 
Q 266 2378 266 3053 
Q 266 3750 677 4175 
Q 1088 4600 1706 4600 
Q 2153 4600 2523 4359 
Q 2894 4119 3086 3673 
Q 3278 3228 3278 2384 
Q 3278 1506 3087 986 
Q 2897 466 2520 194 
Q 2144 -78 1638 -78 
Q 1100 -78 759 220 
Q 419 519 350 1059 
z
M 2653 3081 
Q 2653 3566 2395 3850 
Q 2138 4134 1775 4134 
Q 1400 4134 1122 3828 
Q 844 3522 844 3034 
Q 844 2597 1108 2323 
Q 1372 2050 1759 2050 
Q 2150 2050 2401 2323 
Q 2653 2597 2653 3081 
z
" transform="scale(0.015625)"/>
      </defs>
      <use xlink:href="#ArialMT-2c"/>
      <use xlink:href="#ArialMT-52" transform="translate(27.78125 0)"/>
      <use xlink:href="#ArialMT-51" transform="translate(83.390625 0)"/>
      <use xlink:href="#ArialMT-3" transform="translate(139 0)"/>
      <use xlink:href="#ArialMT-26" transform="translate(166.78125 0)"/>
      <use xlink:href="#ArialMT-58" transform="translate(239 0)"/>
      <use xlink:href="#ArialMT-55" transform="translate(294.609375 0)"/>
      <use xlink:href="#ArialMT-55" transform="translate(327.90625 0)"/>
      <use xlink:href="#ArialMT-48" transform="translate(361.203125 0)"/>
      <use xlink:href="#ArialMT-51" transform="translate(416.8125 0)"/>
      <use xlink:href="#ArialMT-57" transform="translate(472.421875 0)"/>
      <use xlink:href="#ArialMT-3" transform="translate(500.203125 0)"/>
      <use xlink:href="#ArialMT-b" transform="translate(527.984375 0)"/>
      <use xlink:href="#ArialMT-50" transform="translate(561.28125 0)"/>
      <use xlink:href="#ArialMT-12" transform="translate(644.578125 0)"/>
      <use xlink:href="#ArialMT-5d" transform="translate(672.359375 0)"/>
      <use xlink:href="#ArialMT-3" transform="translate(722.359375 0)"/>
      <use xlink:href="#ArialMT-14" transform="translate(750.140625 0)"/>
      <use xlink:href="#ArialMT-1c" transform="translate(805.75 0)"/>
      <use xlink:href="#ArialMT-c" transform="translate(861.359375 0)"/>
     </g>
    </g>
    <g id="text_16">
     <!-- 1e−12 -->
     <g transform="translate(47.298945 36.679004) scale(0.14 -0.14)">
      <defs>
       <path id="ArialMT-ed" d="M 3381 1997 
L 356 1997 
L 356 2522 
L 3381 2522 
L 3381 1997 
z
" transform="scale(0.015625)"/>
      </defs>
      <use xlink:href="#ArialMT-14"/>
      <use xlink:href="#ArialMT-48" transform="translate(55.609375 0)"/>
      <use xlink:href="#ArialMT-ed" transform="translate(111.21875 0)"/>
      <use xlink:href="#ArialMT-14" transform="translate(169.625 0)"/>
      <use xlink:href="#ArialMT-15" transform="translate(225.234375 0)"/>
     </g>
    </g>
   </g>
   <g id="line2d_14">
    <path d="M 46.286073 279.753672 
L 46.208159 289.704421 
L 46.208159 288.916239 
L 46.480856 288.91209 
L 47.298945 289.928465 
L 48.857211 287.127775 
L 51.116696 286.166386 
L 53.493051 285.757235 
L 55.674622 284.833142 
L 57.505584 284.973873 
L 59.024893 284.602806 
L 60.349419 283.833142 
L 61.518118 284.088431 
L 62.64786 284.557854 
L 63.738646 285.528361 
L 64.907345 283.222831 
L 66.037088 284.682651 
L 67.205787 284.804463 
L 68.452399 284.285391 
L 70.906667 286.567606 
L 72.15328 287.096766 
L 73.399892 287.96273 
L 74.763375 287.659948 
L 77.412426 286.014916 
L 78.697995 285.987313 
L 81.19122 283.509357 
L 82.398875 284.39829 
L 83.606531 286.762873 
L 84.814187 287.55685 
L 85.982886 288.51879 
L 88.515067 289.542188 
L 89.722723 290.612885 
L 90.930379 289.708999 
L 92.138035 290.626766 
L 93.345691 289.291652 
L 94.592303 289.896487 
L 95.799959 291.205218 
L 96.968658 290.951923 
L 98.137357 290.824442 
L 99.306056 290.504362 
L 100.552668 290.020464 
L 101.760324 290.13635 
L 103.006937 289.545316 
L 104.253549 289.774996 
L 105.500161 287.111238 
L 106.66886 287.030011 
L 107.876516 286.258703 
L 109.084172 286.13786 
L 110.330784 285.572911 
L 111.53844 286.001764 
L 112.785052 286.102335 
L 114.070622 287.776037 
L 115.317234 288.458652 
L 116.52489 289.839038 
L 117.732545 289.160649 
L 118.940201 290.179868 
L 120.147857 290.038088 
L 121.355513 289.638512 
L 124.97848 284.776261 
L 126.225092 284.268454 
L 127.510661 283.394841 
L 128.757274 284.519976 
L 129.96493 283.7459 
L 131.094672 284.889525 
L 132.341284 284.630228 
L 133.509983 284.005961 
L 134.717639 283.575293 
L 135.925295 283.490591 
L 137.132951 282.521071 
L 138.41852 282.678268 
L 139.665132 283.30749 
L 140.833831 283.294516 
L 142.080444 283.12731 
L 143.288099 283.215768 
L 144.495755 281.811143 
L 145.781324 281.465394 
L 146.950023 281.4062 
L 148.118722 279.809878 
L 149.326378 280.013723 
L 150.534034 282.036396 
L 151.819603 281.332639 
L 153.027259 279.64173 
L 154.273871 279.623778 
L 157.935795 276.692393 
L 159.182407 274.538483 
L 160.390063 272.749195 
L 161.519806 274.146487 
L 162.727461 274.535886 
L 163.974074 272.220353 
L 165.18173 271.258574 
L 166.389385 269.349819 
L 167.635998 267.631199 
L 170.012353 266.654972 
L 171.258965 267.473696 
L 173.674276 268.759157 
L 174.920889 267.097392 
L 176.089588 265.112033 
L 177.297244 263.363982 
L 178.543856 258.661 
L 179.790469 256.276048 
L 180.920211 255.127101 
L 183.491349 260.888271 
L 184.737961 260.463666 
L 185.906661 260.567793 
L 188.438842 256.515954 
L 189.646498 253.823828 
L 190.815197 250.439249 
L 193.191552 247.051289 
L 194.360251 249.51948 
L 195.606863 248.771828 
L 196.853476 246.387072 
L 199.268787 242.524103 
L 200.5154 239.812292 
L 201.684099 237.853043 
L 202.930711 236.973445 
L 204.138367 237.35195 
L 205.384979 235.566131 
L 206.553678 236.326341 
L 207.761334 233.004193 
L 209.007946 232.108229 
L 210.293515 230.953404 
L 211.501171 228.271628 
L 212.630914 226.051057 
L 215.085182 225.051718 
L 216.292838 224.942789 
L 218.747106 222.54299 
L 219.915805 222.128783 
L 221.123461 226.775134 
L 223.538772 231.092444 
L 224.746428 234.486458 
L 227.161739 241.929856 
L 228.330439 244.732734 
L 229.616008 246.862298 
L 230.784707 242.566294 
L 232.031319 240.656176 
L 233.238975 239.955709 
L 234.446631 236.951243 
L 235.693243 236.816656 
L 236.861942 235.998378 
L 238.108554 237.589095 
L 239.31621 238.397789 
L 240.562823 240.471816 
L 241.731522 241.107256 
L 242.939177 238.111203 
L 244.146833 237.113607 
L 245.393446 238.175477 
L 246.601101 239.364374 
L 247.7698 242.131039 
L 249.016413 245.37557 
L 250.224069 248.015329 
L 251.470681 248.075728 
L 252.717293 247.517552 
L 253.885993 246.113784 
L 255.132605 241.978652 
L 256.379217 240.869503 
L 257.586873 240.692403 
L 258.794529 241.731074 
L 262.417496 249.622457 
L 263.625152 250.647479 
L 264.793851 250.530513 
L 266.001507 248.510652 
L 267.287076 244.310789 
L 268.455775 242.977108 
L 269.702387 240.439611 
L 270.910043 238.617773 
L 272.117699 239.690491 
L 273.286398 240.114233 
L 274.53301 241.251481 
L 275.740666 241.484051 
L 276.948322 242.766757 
L 279.40259 240.121787 
L 280.610246 239.179126 
L 281.817901 238.411352 
L 283.025557 237.872209 
L 284.27217 238.210542 
L 285.440869 237.825455 
L 287.895137 234.792275 
L 290.271492 231.666674 
L 291.557061 231.849985 
L 292.72576 232.929448 
L 293.972372 232.288419 
L 295.141071 231.420674 
L 296.348727 231.565178 
L 297.517426 229.508221 
L 298.725082 227.047709 
L 300.049608 225.435526 
L 301.29622 224.583606 
L 302.581789 224.531889 
L 303.789445 227.200812 
L 305.036057 227.805158 
L 306.28267 227.671807 
L 307.529282 228.616939 
L 308.697981 230.87032 
L 309.905637 225.58153 
L 311.113293 223.596267 
L 312.281992 220.779357 
L 313.489647 219.292227 
L 314.658347 217.368852 
L 315.943916 216.340526 
L 317.151571 216.034687 
L 318.359227 218.167822 
L 320.813495 221.450713 
L 321.982194 219.950997 
L 323.150894 219.473664 
L 324.358549 218.106655 
L 325.605162 219.257639 
L 326.812817 220.144411 
L 328.05943 219.416725 
L 329.228129 220.965784 
L 330.474741 219.414009 
L 331.64344 219.465767 
L 332.890053 218.394514 
L 334.097709 217.747845 
L 335.266408 216.230148 
L 336.474063 217.202537 
L 337.720676 217.808424 
L 338.928332 218.223442 
L 340.135987 217.101935 
L 341.304686 214.799459 
L 342.590256 210.308924 
L 343.758955 209.147192 
L 344.96661 207.307933 
L 346.213223 207.659644 
L 347.420879 210.146098 
L 348.628534 213.037067 
L 349.875147 213.325059 
L 351.043846 212.816469 
L 352.251502 213.966478 
L 353.420201 210.9897 
L 354.70577 209.872449 
L 357.121081 205.292944 
L 358.328737 204.494643 
L 359.497436 205.735538 
L 360.744048 205.407081 
L 361.873791 204.919884 
L 363.15936 203.860204 
L 364.367016 206.726426 
L 365.613628 202.99322 
L 366.743371 201.065799 
L 367.951026 196.448515 
L 369.197639 192.932908 
L 370.444251 189.986761 
L 371.573994 188.766358 
L 372.742693 188.250014 
L 374.067218 190.23493 
L 375.196961 191.710435 
L 376.443573 191.577594 
L 377.884969 191.177916 
L 379.326364 191.054052 
L 380.572977 189.075137 
L 381.819589 186.841286 
L 382.988288 182.241874 
L 384.273857 181.671634 
L 385.52047 179.825541 
L 386.611256 181.320728 
L 387.935781 180.031054 
L 389.143437 179.493361 
L 390.351093 182.994535 
L 391.558748 184.231084 
L 392.727448 184.337693 
L 393.97406 184.721634 
L 395.142759 182.830217 
L 396.428328 183.082641 
L 397.597027 180.303521 
L 398.84364 184.012763 
L 400.012339 182.409326 
L 401.258951 183.490969 
L 402.505564 183.013348 
L 403.713219 184.047802 
L 404.881918 185.20798 
L 406.050618 185.236062 
L 407.4141 183.52217 
L 408.504886 182.801269 
L 409.751498 180.761019 
L 410.920197 182.644037 
L 412.088896 182.718277 
L 413.374465 185.242429 
L 414.582121 187.014823 
L 415.789777 191.738619 
L 416.997433 192.980025 
L 418.321958 193.288288 
L 420.659357 191.6856 
L 421.750142 188.748278 
L 423.308408 186.840384 
L 424.399194 187.860273 
L 425.528936 185.71968 
L 426.775549 185.634582 
L 427.983204 187.363706 
L 429.19086 186.512386 
L 430.359559 189.509741 
L 431.567215 188.160786 
L 434.021483 189.450531 
L 435.190182 189.010377 
L 436.397838 189.346662 
L 437.605494 186.9065 
L 438.774193 186.319904 
L 440.176632 185.408821 
L 441.267418 185.19711 
L 442.51403 187.638511 
L 443.682729 184.782675 
L 445.007255 184.921578 
L 446.020127 184.566294 
L 447.26674 183.520409 
L 448.513352 184.268293 
L 449.682051 184.23786 
L 451.006577 183.344355 
L 452.214233 184.498178 
L 453.460845 183.097208 
L 454.473718 181.358828 
L 456.031983 179.463916 
L 458.719991 173.641687 
L 460.12243 172.006022 
L 461.135303 170.052779 
L 462.537742 167.893474 
L 463.628527 167.659494 
L 464.914096 169.93838 
L 466.043839 166.882402 
L 467.329408 164.488561 
L 468.34228 168.141258 
L 469.822633 165.643843 
L 470.757592 164.896489 
L 472.121074 162.896179 
L 473.289773 159.420094 
L 474.614299 157.691403 
L 475.666128 153.681714 
L 476.912741 150.954114 
L 478.159353 145.843953 
L 479.522835 142.208982 
L 480.613621 143.934141 
L 481.704407 139.317383 
L 482.873106 137.739216 
L 484.236588 134.889394 
L 485.405288 134.098752 
L 486.612943 133.127717 
L 487.859556 129.790907 
L 488.989298 128.713517 
L 490.313824 128.530931 
L 491.482523 129.383694 
L 492.729135 131.412352 
L 494.014704 134.757447 
L 494.014704 134.757447 
" clip-path="url(#p3cdc000290)" style="fill: none; stroke: #000000; stroke-width: 2.5; stroke-linecap: square"/>
   </g>
   <g id="line2d_15">
    <path d="M 45.662767 281.697376 
L 45.62381 280.630265 
L 45.662767 284.391408 
L 46.130246 285.1264 
L 47.221032 284.512173 
L 49.051994 284.302574 
L 51.350436 284.590803 
L 53.609921 284.278995 
L 55.596709 284.706315 
L 57.271844 284.264196 
L 58.71324 285.205597 
L 59.959852 284.913349 
L 61.089595 284.859333 
L 62.219337 283.504749 
L 63.34908 283.77566 
L 64.478822 284.979984 
L 65.647521 285.978209 
L 66.855177 286.078878 
L 68.062833 285.966686 
L 69.270489 286.389894 
L 70.517101 287.378345 
L 71.763713 287.404478 
L 73.010326 285.635914 
L 74.373808 285.488896 
L 75.698334 286.403687 
L 77.02286 285.849595 
L 78.347385 285.842198 
L 79.593998 285.611484 
L 80.84061 286.184239 
L 82.048266 287.406569 
L 83.255921 288.126959 
L 84.463577 287.751156 
L 85.671233 286.716826 
L 88.086544 288.127638 
L 89.333157 288.277663 
L 90.540813 288.18951 
L 91.748468 289.021447 
L 92.956124 288.946076 
L 94.16378 287.173728 
L 95.332479 286.194158 
L 96.501178 284.436736 
L 97.747791 283.63673 
L 98.994403 285.118453 
L 100.241015 286.292152 
L 101.448671 287.087365 
L 102.61737 288.591344 
L 103.863983 289.40545 
L 106.279294 287.856144 
L 107.48695 287.089049 
L 108.694606 286.70829 
L 109.980175 285.919033 
L 111.18783 286.960864 
L 112.395486 287.70853 
L 113.642099 286.402293 
L 114.849754 287.147279 
L 116.096367 287.480208 
L 117.304022 288.210101 
L 118.511678 290.400024 
L 119.758291 289.354629 
L 120.965946 289.4298 
L 122.173602 287.4304 
L 123.381258 286.882732 
L 124.62787 285.28479 
L 125.835526 282.343796 
L 127.043182 282.148309 
L 128.250837 282.274614 
L 129.49745 282.524191 
L 130.705106 283.901345 
L 131.951718 283.595127 
L 133.159374 284.608013 
L 134.405986 284.596794 
L 135.613642 284.801525 
L 136.821298 284.683202 
L 138.06791 284.030297 
L 139.275566 282.516006 
L 140.522178 280.60749 
L 141.729834 280.308851 
L 142.976446 279.360609 
L 145.391758 277.062418 
L 146.5215 276.88433 
L 147.729156 276.94062 
L 148.975768 276.475858 
L 150.183424 275.386799 
L 151.468993 274.433009 
L 152.715606 272.72628 
L 153.962218 273.243378 
L 155.130917 271.705026 
L 156.37753 271.040525 
L 157.585185 268.770198 
L 158.792841 266.747206 
L 160.039453 265.262028 
L 161.247109 262.678417 
L 162.376852 259.957768 
L 163.623464 258.925887 
L 164.792163 256.999834 
L 165.999819 257.487648 
L 167.246431 257.293913 
L 168.376174 257.811346 
L 169.622786 258.869069 
L 170.869399 258.659839 
L 172.116011 258.815417 
L 173.28471 256.136035 
L 174.492366 253.85617 
L 175.700022 253.480315 
L 176.946634 251.505083 
L 178.193246 248.931624 
L 179.400902 245.3305 
L 183.101783 238.4907 
L 184.387352 239.336632 
L 185.517094 237.442326 
L 186.763707 239.172115 
L 188.049276 239.15781 
L 190.42563 238.243962 
L 191.633286 236.896244 
L 192.840942 236.625128 
L 194.087554 233.106766 
L 195.256254 233.6457 
L 196.463909 235.759196 
L 197.671565 235.575227 
L 198.879221 236.340457 
L 200.086877 234.695157 
L 201.372446 234.036234 
L 202.541145 234.735297 
L 204.995413 232.99033 
L 206.164112 231.170737 
L 207.449681 230.596798 
L 208.61838 230.610426 
L 209.826036 229.413202 
L 211.072648 229.452394 
L 212.280304 227.395681 
L 213.449003 225.89697 
L 214.656659 228.307767 
L 215.864315 228.032924 
L 217.07197 231.200064 
L 218.318583 231.407971 
L 219.565195 231.902416 
L 220.772851 230.719554 
L 221.94155 230.09625 
L 223.149206 232.573183 
L 224.356862 231.166877 
L 225.564517 232.213652 
L 226.81113 234.592355 
L 228.018785 233.729743 
L 229.226441 237.243862 
L 230.434097 235.540609 
L 231.680709 237.25327 
L 232.888365 234.610197 
L 234.096021 236.055583 
L 235.303677 236.227329 
L 236.511332 233.181683 
L 237.718988 233.57566 
L 238.926644 233.808094 
L 240.1343 233.504284 
L 241.302999 235.144969 
L 242.549611 234.85802 
L 243.83518 236.350194 
L 245.042836 236.905969 
L 246.250492 237.830639 
L 247.497104 235.940362 
L 248.665803 236.098272 
L 249.873459 236.463448 
L 251.159028 237.225136 
L 252.327727 235.347498 
L 253.613296 235.363201 
L 254.781995 234.078122 
L 255.989651 233.629396 
L 258.404962 234.037213 
L 259.651575 233.286252 
L 260.859231 233.243457 
L 262.066886 231.67182 
L 263.313499 230.715306 
L 264.443241 229.076058 
L 265.650897 229.796828 
L 266.897509 229.974023 
L 268.105165 230.989754 
L 269.312821 233.944922 
L 270.520477 236.132238 
L 271.767089 234.61555 
L 272.935788 234.21238 
L 274.143444 233.132409 
L 276.597712 230.126246 
L 277.805368 227.837455 
L 279.05198 226.226996 
L 280.259636 227.238257 
L 281.428335 228.727806 
L 283.92156 231.113082 
L 285.129216 232.598907 
L 286.297915 231.781348 
L 287.544527 233.271252 
L 288.752183 233.09284 
L 289.959839 232.446122 
L 291.167494 232.287923 
L 292.37515 233.98953 
L 293.621763 232.781404 
L 295.998117 231.301551 
L 298.452386 223.926748 
L 299.698998 223.611362 
L 300.94561 220.593715 
L 302.192223 220.037991 
L 303.438835 221.406446 
L 304.685447 224.318981 
L 308.308415 228.463039 
L 309.555027 227.163619 
L 310.723726 228.787765 
L 311.970339 228.189053 
L 313.177994 225.489915 
L 314.38565 223.726612 
L 315.554349 223.001454 
L 316.762005 221.338748 
L 318.047574 220.16511 
L 319.177317 218.785611 
L 320.423929 218.585934 
L 321.631585 217.7765 
L 322.800284 218.021313 
L 324.046896 219.37702 
L 325.176639 219.264451 
L 326.462208 217.599173 
L 327.630907 217.041803 
L 328.877519 214.454682 
L 330.046218 216.764306 
L 331.292831 218.612551 
L 332.46153 218.667834 
L 333.630229 218.187721 
L 334.915798 215.799156 
L 336.16241 215.323497 
L 337.370066 212.080203 
L 339.707464 209.793128 
L 340.876163 208.412566 
L 342.161732 209.272421 
L 343.369388 209.520068 
L 344.616001 208.967768 
L 345.90157 210.07106 
L 346.992356 208.661084 
L 348.200011 207.612089 
L 349.48558 207.898437 
L 350.654279 205.316576 
L 351.978805 202.760261 
L 353.030634 199.382515 
L 354.199333 196.266927 
L 355.523859 194.14506 
L 356.692558 195.405871 
L 357.900214 198.398747 
L 359.146826 199.606009 
L 360.432395 201.020578 
L 361.601094 201.744076 
L 362.769794 199.663714 
L 363.977449 196.93958 
L 365.263018 193.221647 
L 366.392761 188.873507 
L 367.639373 187.204266 
L 368.847029 188.713672 
L 370.015728 192.358448 
L 371.223384 192.787977 
L 372.43104 191.643094 
L 374.846351 194.844775 
L 376.13192 193.666363 
L 377.417489 191.257557 
L 378.897841 191.453331 
L 380.222367 192.656688 
L 381.391066 193.375137 
L 382.598722 195.561539 
L 383.845334 193.315279 
L 385.16986 187.573525 
L 386.338559 188.199347 
L 387.507258 190.135919 
L 388.714914 191.809804 
L 389.961526 189.11794 
L 391.247095 189.73226 
L 392.454751 189.089213 
L 393.467624 188.851211 
L 394.831106 188.01077 
L 396.077718 186.365228 
L 397.246418 185.187432 
L 398.454073 187.33927 
L 399.739642 187.804072 
L 400.947298 189.616546 
L 402.077041 186.041181 
L 403.323653 184.08588 
L 404.531309 183.008729 
L 405.738964 184.050691 
L 406.907664 182.907821 
L 408.193233 183.954262 
L 409.439845 187.305504 
L 410.530631 188.474897 
L 411.660373 186.839832 
L 413.023856 190.573177 
L 414.231511 189.7541 
L 415.439167 187.485213 
L 416.763693 187.79263 
L 417.854479 190.378575 
L 419.062134 190.456227 
L 421.477446 192.853538 
L 422.763015 192.910644 
L 424.009627 192.109389 
L 425.100413 194.29267 
L 426.308069 191.781365 
L 430.047906 189.380259 
L 431.177649 187.266612 
L 432.424261 185.606467 
L 433.554003 182.883827 
L 434.800616 182.510405 
L 436.047228 183.900929 
L 437.176971 184.626249 
L 438.501496 185.233579 
L 439.787065 189.530323 
L 440.916808 191.908283 
L 442.04655 193.518237 
L 443.332119 194.275291 
L 444.461862 194.501481 
L 445.786388 190.63726 
L 446.91613 192.430811 
L 448.084829 191.863236 
L 449.292485 188.722161 
L 450.617011 186.485864 
L 451.78571 183.654199 
L 452.993365 182.706351 
L 454.006238 180.25107 
L 455.60346 178.108223 
L 457.200682 176.228796 
L 458.486251 173.592928 
L 459.577037 176.368495 
L 460.901563 175.691066 
L 462.148175 174.399894 
L 463.122091 173.157651 
L 464.52453 171.910085 
L 465.615316 171.999971 
L 466.822972 171.484811 
L 468.108541 167.56313 
L 469.355153 164.340178 
L 471.731508 159.081543 
L 472.783337 157.42871 
L 474.146819 156.322667 
L 475.354475 155.721009 
L 476.562131 152.512372 
L 477.769787 150.946832 
L 479.016399 147.436054 
L 481.353797 141.338534 
L 482.639366 139.735881 
L 484.041805 137.732441 
L 484.937808 139.246709 
L 486.262334 139.573064 
L 487.508946 140.831661 
L 488.482862 137.341297 
L 489.807388 135.592558 
L 491.17087 132.576672 
L 492.495396 127.781472 
L 493.469311 120.694789 
L 494.482184 110.804453 
L 494.482184 110.804453 
" clip-path="url(#p3cdc000290)" style="fill: none; stroke: #1f77b4; stroke-width: 2.5; stroke-linecap: square"/>
   </g>
   <g id="line2d_16">
    <path d="M 45.2732 274.995786 
L 45.234244 283.194083 
L 45.312157 281.923526 
L 45.662767 282.415129 
L 46.714596 283.110757 
L 48.584514 281.825852 
L 50.805043 282.565369 
L 53.103484 281.655777 
L 55.129229 281.907763 
L 56.804365 281.954105 
L 58.24576 283.204172 
L 59.492373 284.749147 
L 60.622115 285.966953 
L 62.8816 285.763352 
L 64.011343 286.023297 
L 65.180042 284.690853 
L 66.387698 283.714057 
L 67.595353 283.073394 
L 68.841966 283.250459 
L 70.088578 282.969708 
L 71.296234 281.210492 
L 72.542846 280.51442 
L 73.828415 282.039957 
L 75.152941 283.091722 
L 76.516423 283.598833 
L 77.879906 282.433883 
L 79.126518 282.887978 
L 80.334174 283.477941 
L 81.541829 284.464588 
L 82.710529 284.043949 
L 83.918184 282.913503 
L 85.12584 282.067171 
L 86.372452 282.794544 
L 87.580108 283.131928 
L 90.034376 281.986671 
L 91.280989 283.317671 
L 92.527601 285.338337 
L 94.942913 287.759772 
L 96.150568 288.041918 
L 97.436137 287.723444 
L 98.643793 286.965344 
L 99.812492 284.94126 
L 102.110934 283.266335 
L 103.396503 283.286805 
L 104.643115 284.986395 
L 105.889728 284.764926 
L 107.097383 284.776846 
L 108.343996 286.828744 
L 109.590608 285.552008 
L 110.798264 283.939873 
L 111.966963 283.147501 
L 113.213576 283.380288 
L 114.421231 283.964053 
L 115.667844 284.699639 
L 116.875499 286.396695 
L 118.161068 283.775584 
L 120.615337 286.422687 
L 121.822992 285.784925 
L 122.991691 283.941864 
L 124.199347 283.245801 
L 125.407003 282.699175 
L 126.731529 282.951028 
L 127.978141 284.381037 
L 129.14684 282.685939 
L 130.315539 280.640983 
L 131.562152 282.127294 
L 132.730851 281.890573 
L 133.977463 281.418625 
L 135.224076 281.198911 
L 136.431731 281.462644 
L 137.678344 279.988934 
L 138.885999 279.795901 
L 140.054699 280.51348 
L 141.301311 278.544718 
L 142.547923 277.946594 
L 143.755579 278.184096 
L 144.963235 279.399609 
L 146.209847 278.437559 
L 147.45646 278.185805 
L 148.625159 276.189372 
L 149.871771 275.148759 
L 151.079427 274.682161 
L 152.287083 274.730015 
L 154.702394 273.051924 
L 155.91005 275.616392 
L 157.117706 275.042096 
L 158.364318 272.740025 
L 159.571974 269.923006 
L 161.987285 266.806578 
L 163.233898 265.572245 
L 164.441553 266.911126 
L 166.856865 268.587278 
L 168.064521 271.507715 
L 169.272176 269.851318 
L 170.440876 267.611344 
L 171.687488 264.596778 
L 172.895144 263.876733 
L 174.102799 259.982016 
L 175.310455 258.994238 
L 176.557068 256.011656 
L 177.764723 253.817972 
L 179.050292 253.627748 
L 180.257948 252.660157 
L 181.504561 249.718583 
L 182.712216 250.01927 
L 183.997785 251.661824 
L 185.205441 256.130295 
L 186.413097 256.617968 
L 187.581796 258.98474 
L 188.789452 259.367459 
L 189.997107 258.736263 
L 191.204763 256.535273 
L 192.412419 250.873058 
L 193.659031 247.306062 
L 194.866687 246.085323 
L 196.1133 241.612433 
L 197.281999 240.366122 
L 198.450698 240.033061 
L 199.736267 241.530551 
L 200.982879 241.106158 
L 202.190535 242.180308 
L 203.320277 244.335491 
L 204.605846 245.591305 
L 205.774546 249.023196 
L 207.060115 248.762679 
L 208.228814 245.930602 
L 209.436469 245.869091 
L 210.683082 246.902681 
L 213.098393 244.463423 
L 214.267092 246.777842 
L 215.474748 248.470792 
L 216.682404 246.350283 
L 219.175629 243.41462 
L 220.344328 240.898324 
L 221.59094 241.715055 
L 222.759639 243.680108 
L 225.174951 244.509647 
L 226.382607 244.463106 
L 227.629219 247.151706 
L 228.836875 244.004055 
L 230.044531 243.802191 
L 231.252186 244.203935 
L 232.498799 244.130805 
L 233.667498 246.054164 
L 234.91411 247.470144 
L 236.121766 247.968748 
L 237.329422 246.621546 
L 238.498121 247.927491 
L 239.744733 250.780093 
L 240.952389 247.571183 
L 242.121088 247.917836 
L 243.3677 247.665542 
L 244.5364 246.616447 
L 245.821969 247.578262 
L 246.951711 247.711604 
L 248.23728 248.755889 
L 249.444936 248.655489 
L 250.613635 248.081683 
L 251.860247 247.345567 
L 253.067903 246.853249 
L 254.275559 246.897964 
L 255.522171 247.483747 
L 256.729827 246.38934 
L 257.937483 248.940736 
L 259.145139 247.307022 
L 260.352794 249.753012 
L 261.56045 248.792049 
L 262.807062 246.413567 
L 263.975762 245.407085 
L 265.261331 248.025483 
L 266.43003 247.923776 
L 267.676642 248.122272 
L 268.884298 245.626671 
L 270.01404 245.039772 
L 271.338566 241.824558 
L 272.507265 241.970646 
L 273.714921 242.656611 
L 274.922577 240.455904 
L 276.169189 241.691676 
L 277.376845 244.659026 
L 278.545544 245.980895 
L 279.831113 245.969409 
L 281.077725 245.453262 
L 282.246424 246.084894 
L 283.45408 243.943558 
L 284.622779 242.826929 
L 285.908348 244.360831 
L 287.116004 240.521238 
L 288.32366 239.177368 
L 289.492359 240.677722 
L 290.777928 240.765085 
L 291.946627 240.186151 
L 293.115326 243.170208 
L 294.322982 244.818064 
L 295.569594 243.805533 
L 296.77725 244.123462 
L 297.984906 243.776595 
L 299.231518 241.330093 
L 300.439174 236.362315 
L 301.7637 237.720561 
L 303.049269 235.221735 
L 304.179011 233.469584 
L 305.46458 233.97102 
L 306.672236 232.731749 
L 307.879892 232.843069 
L 309.087547 233.997475 
L 310.295203 237.353471 
L 311.463902 238.772302 
L 312.710515 238.419722 
L 313.957127 240.825837 
L 315.125826 238.990938 
L 316.333482 237.523979 
L 317.619051 233.752823 
L 318.78775 228.341601 
L 322.410717 222.79526 
L 323.618373 221.346695 
L 325.994728 219.655823 
L 327.202384 218.658004 
L 329.695609 222.4695 
L 330.825351 222.332788 
L 332.033007 226.22781 
L 333.240663 226.40584 
L 334.448318 223.708183 
L 335.694931 223.192378 
L 338.110242 217.491422 
L 339.356855 215.67529 
L 340.56451 215.364566 
L 342.940865 211.892008 
L 344.109564 210.900384 
L 345.356177 208.624215 
L 346.563832 209.25171 
L 347.810445 209.275057 
L 348.979144 206.175439 
L 350.225756 204.653486 
L 351.511325 202.408303 
L 352.680025 203.784945 
L 353.809767 202.40257 
L 355.095336 202.424263 
L 356.302992 200.627699 
L 357.510648 202.387252 
L 358.75726 202.895858 
L 360.003872 200.638547 
L 361.133615 199.448498 
L 362.380227 195.829849 
L 363.587883 194.349911 
L 364.756582 195.923951 
L 366.003194 195.462031 
L 367.171894 196.97478 
L 368.340593 198.279364 
L 369.626162 198.903947 
L 370.872774 194.790044 
L 372.041473 193.871409 
L 373.210172 196.530465 
L 374.495741 194.108247 
L 375.625484 195.40929 
L 376.95001 195.710079 
L 378.430362 197.004883 
L 379.793844 195.851006 
L 381.0015 192.619143 
L 382.287069 190.200742 
L 383.494725 186.225676 
L 385.910036 186.813368 
L 387.117692 188.83944 
L 388.364304 189.40163 
L 389.57196 189.088347 
L 390.701702 191.171621 
L 392.026228 190.412506 
L 393.233884 187.699064 
L 394.44154 187.671572 
L 395.610239 186.65196 
L 396.778938 189.293857 
L 397.947637 188.256934 
L 399.272163 192.681567 
L 400.479818 192.349281 
L 401.687474 191.855828 
L 402.77826 193.306479 
L 404.102786 192.870812 
L 405.388355 190.872332 
L 406.479141 190.888586 
L 407.76471 188.072517 
L 408.933409 187.671998 
L 410.180021 186.089528 
L 411.34872 188.110491 
L 412.673246 188.403285 
L 413.802988 188.773681 
L 414.971687 187.964036 
L 416.296213 190.288626 
L 417.542826 192.107407 
L 418.750481 191.881748 
L 419.91918 189.597491 
L 421.048923 186.879802 
L 422.295535 187.479289 
L 423.581104 187.490171 
L 424.632934 187.745694 
L 426.035372 189.383132 
L 427.126158 189.432707 
L 428.255901 193.963864 
L 429.502513 195.749983 
L 430.788082 192.858523 
L 433.203394 185.546129 
L 434.372093 185.513015 
L 435.579749 184.874657 
L 436.865318 185.690233 
L 437.99506 188.181655 
L 439.319586 187.438851 
L 440.449328 188.512524 
L 441.618027 190.308632 
L 442.86464 188.824626 
L 444.111252 188.148013 
L 445.318908 187.120086 
L 446.56552 189.03067 
L 447.617349 189.061921 
L 448.863962 191.304423 
L 450.149531 188.910798 
L 451.31823 183.410911 
L 455.058067 175.199352 
L 456.499463 172.87155 
L 457.979815 169.570811 
L 459.109557 171.550196 
L 460.395126 170.535172 
L 461.641739 171.307793 
L 462.888351 169.303896 
L 465.225749 167.373238 
L 466.394449 164.350398 
L 467.602104 162.376121 
L 469.978459 152.652411 
L 471.225072 149.319581 
L 472.549597 146.56269 
L 473.79621 142.842534 
L 474.809082 139.432874 
L 476.094651 136.366487 
L 477.38022 135.330012 
L 478.587876 133.353676 
L 479.717619 134.595534 
L 480.964231 132.508573 
L 482.210843 133.334502 
L 483.379542 132.248923 
L 484.743025 133.930339 
L 485.794854 132.856507 
L 487.11938 131.32663 
L 488.327035 127.374568 
L 490.547564 118.97503 
L 492.066873 114.176282 
L 493.274528 109.185039 
L 494.170531 104.156416 
L 494.170531 104.156416 
" clip-path="url(#p3cdc000290)" style="fill: none; stroke: #d62728; stroke-width: 2.5; stroke-linecap: square"/>
   </g>
   <g id="line2d_17">
    <path d="M 47.065205 279.584887 
L 47.026249 279.391541 
L 47.026249 279.880313 
L 46.987292 286.084029 
L 47.143119 285.509069 
L 47.727468 285.81016 
L 49.051994 286.931558 
L 51.038782 286.2196 
L 53.298267 284.300872 
L 55.440882 285.641996 
L 57.349758 286.689951 
L 58.908023 285.751139 
L 60.310462 284.547781 
L 61.479161 283.852735 
L 64.868389 283.795837 
L 67.205787 280.652603 
L 68.413443 282.122199 
L 69.621098 282.923092 
L 70.867711 282.870527 
L 72.114323 282.580826 
L 73.399892 284.149762 
L 74.724418 284.193966 
L 76.126857 283.840497 
L 77.412426 283.936679 
L 78.697995 283.235237 
L 79.944607 283.066618 
L 81.152263 284.00892 
L 82.359919 284.331919 
L 84.77523 284.507673 
L 86.021843 283.538761 
L 87.229498 281.491736 
L 88.398198 281.92129 
L 89.605853 281.57846 
L 90.774552 280.618661 
L 94.436476 281.425629 
L 95.683089 282.968133 
L 96.890745 283.03508 
L 98.176314 281.91712 
L 99.383969 282.29935 
L 100.591625 283.077369 
L 101.877194 282.508145 
L 103.006937 283.374183 
L 104.253549 282.869412 
L 105.461205 283.280702 
L 107.876516 288.625673 
L 109.084172 288.184776 
L 111.460527 289.517497 
L 112.668183 287.573761 
L 113.914795 285.343149 
L 115.122451 285.308194 
L 116.369063 282.822886 
L 117.615676 283.689408 
L 118.823331 283.520259 
L 120.069944 282.114337 
L 121.277599 282.033435 
L 122.485255 282.934214 
L 123.731868 284.807944 
L 124.97848 285.642381 
L 126.225092 283.547776 
L 127.471705 283.119618 
L 128.718317 284.06307 
L 129.925973 284.705582 
L 131.133629 283.708256 
L 132.341284 284.055506 
L 133.587897 286.131557 
L 134.795553 287.212313 
L 136.003208 287.921129 
L 137.249821 286.879129 
L 138.496433 281.770258 
L 139.704089 278.983211 
L 140.911745 279.631833 
L 142.158357 278.482018 
L 143.366013 278.78361 
L 144.612625 280.603874 
L 145.820281 282.104323 
L 146.98898 282.754326 
L 148.157679 283.023493 
L 149.365335 282.062526 
L 151.819603 281.360366 
L 153.027259 282.955215 
L 154.195958 281.200897 
L 155.44257 281.610284 
L 156.650226 280.309487 
L 157.857882 277.70283 
L 159.065538 277.221416 
L 160.234237 274.358079 
L 161.519806 271.773241 
L 162.766418 270.802631 
L 163.974074 269.587107 
L 165.18173 269.132943 
L 166.428342 268.469277 
L 167.635998 271.366863 
L 168.88261 272.347643 
L 170.051309 272.272352 
L 171.297922 272.896643 
L 172.466621 270.626586 
L 173.713233 270.6506 
L 174.842976 269.2779 
L 176.089588 266.734435 
L 177.258287 264.008681 
L 178.504899 262.832122 
L 179.790469 262.611246 
L 180.959168 263.861353 
L 182.166823 261.280398 
L 183.452392 261.351568 
L 184.660048 259.911007 
L 185.906661 259.947032 
L 188.321972 251.378077 
L 189.490671 249.191597 
L 190.77624 246.505835 
L 191.983896 245.378652 
L 193.230508 246.5738 
L 194.399207 245.097916 
L 195.606863 245.733982 
L 196.814519 243.514231 
L 198.061131 242.006828 
L 199.229831 239.907024 
L 200.437486 241.965981 
L 201.684099 242.518823 
L 202.891754 241.537893 
L 204.138367 242.040421 
L 205.307066 244.123424 
L 206.514722 242.976702 
L 207.761334 241.540351 
L 208.96899 239.46565 
L 210.176646 239.613219 
L 211.423258 240.994881 
L 212.630914 243.70655 
L 213.838569 243.257813 
L 215.085182 244.089401 
L 216.331794 243.289324 
L 217.53945 245.08177 
L 218.786062 245.356798 
L 219.954762 246.649947 
L 221.162417 246.074739 
L 222.40903 244.803057 
L 223.616685 244.088736 
L 224.824341 242.349586 
L 226.031997 242.116402 
L 227.200696 242.064808 
L 228.447308 240.902324 
L 229.693921 241.961204 
L 230.901577 243.329361 
L 232.031319 243.446942 
L 233.200018 243.281375 
L 234.446631 241.106508 
L 235.693243 241.183989 
L 236.861942 240.700279 
L 238.108554 241.167909 
L 239.355167 242.520697 
L 240.562823 244.893051 
L 241.731522 245.30795 
L 242.939177 247.164344 
L 244.224747 247.106532 
L 245.354489 248.080503 
L 246.562145 246.204832 
L 247.808757 246.006455 
L 249.016413 246.857161 
L 250.224069 245.268847 
L 251.431724 246.965109 
L 252.63938 246.862001 
L 253.885993 244.848713 
L 255.093648 243.583918 
L 256.301304 240.90529 
L 257.50896 239.373998 
L 258.716616 237.595901 
L 259.963228 236.738495 
L 261.09297 235.668485 
L 262.378539 234.137329 
L 263.586195 236.140114 
L 264.832808 236.387594 
L 266.07942 237.338864 
L 267.248119 239.329995 
L 268.416818 241.589478 
L 269.702387 242.301668 
L 270.871086 243.18398 
L 272.078742 242.634653 
L 273.286398 240.486036 
L 274.53301 239.360429 
L 275.779623 239.995739 
L 276.987278 238.928148 
L 278.194934 238.345993 
L 279.363633 240.059581 
L 280.571289 239.82682 
L 281.778945 238.033561 
L 283.064514 237.712646 
L 284.194256 237.274926 
L 286.609568 230.699048 
L 287.85618 230.101205 
L 289.102793 228.342523 
L 290.271492 229.276655 
L 291.479147 229.942501 
L 292.686803 229.4958 
L 293.933416 229.691944 
L 295.180028 230.507586 
L 296.270814 230.421313 
L 297.556383 226.701687 
L 298.725082 224.79708 
L 300.010651 224.653913 
L 301.335177 224.142249 
L 302.581789 224.937095 
L 303.750488 219.822347 
L 304.997101 218.173013 
L 306.1658 215.85773 
L 307.412412 213.966714 
L 308.659024 211.871878 
L 309.86668 207.571778 
L 311.035379 206.948407 
L 312.243035 205.784063 
L 313.450691 205.627631 
L 314.658347 206.071695 
L 315.904959 202.013164 
L 317.112615 198.904854 
L 319.60584 194.816402 
L 320.696625 191.927196 
L 321.982194 186.561267 
L 323.150894 183.658577 
L 324.358549 179.655327 
L 325.566205 178.844897 
L 326.773861 181.036317 
L 327.981517 180.165786 
L 329.189172 179.545459 
L 330.435785 181.196758 
L 331.64344 180.892653 
L 332.851096 181.905977 
L 334.019795 176.534425 
L 335.266408 171.942099 
L 336.51302 169.610224 
L 337.681719 168.408948 
L 338.928332 167.608493 
L 340.135987 165.054882 
L 341.304686 165.098607 
L 342.512342 166.752229 
L 344.96661 170.703772 
L 346.135309 167.71427 
L 347.342965 169.073745 
L 348.667491 167.920786 
L 349.797233 165.612226 
L 351.043846 163.543942 
L 352.212545 160.438676 
L 353.420201 161.692047 
L 354.70577 161.667061 
L 355.913425 163.757734 
L 357.043168 164.34497 
L 358.250824 167.154133 
L 359.458479 166.848282 
L 360.744048 165.449896 
L 361.912748 162.663436 
L 363.120403 160.454109 
L 364.405972 155.788565 
L 365.574671 153.699751 
L 366.782327 151.022671 
L 367.951026 152.640147 
L 369.236595 154.189291 
L 370.366338 157.803663 
L 371.535037 158.599653 
L 372.820606 160.846248 
L 373.950348 160.123955 
L 375.235917 157.274034 
L 376.36566 158.466303 
L 377.884969 157.521316 
L 379.326364 158.604944 
L 380.65089 160.033148 
L 381.858546 162.240714 
L 383.144115 162.378369 
L 384.273857 162.018091 
L 385.559426 160.379268 
L 386.767082 160.352917 
L 387.896825 158.138238 
L 389.143437 161.198525 
L 390.390049 159.071471 
L 391.519792 159.220628 
L 392.727448 159.598903 
L 393.97406 157.727236 
L 395.220672 155.454239 
L 396.545198 156.949966 
L 397.558071 158.278792 
L 398.84364 159.063931 
L 400.090252 160.649333 
L 401.142081 160.142187 
L 403.596349 160.160317 
L 404.842962 162.658421 
L 406.011661 160.175386 
L 407.29723 161.909334 
L 408.426972 163.728792 
L 409.790455 161.646067 
L 410.881241 161.390984 
L 412.088896 159.478118 
L 413.413422 158.166594 
L 414.504208 159.846955 
L 415.789777 161.097944 
L 416.919519 163.936117 
L 418.244045 163.67289 
L 419.646484 163.62707 
L 420.698313 161.876712 
L 421.789099 163.0982 
L 423.074668 166.090097 
L 424.32128 163.254072 
L 425.412066 165.334503 
L 426.736592 164.305211 
L 428.022161 164.073877 
L 429.151903 164.660334 
L 430.281646 161.575325 
L 431.567215 160.796783 
L 432.735914 159.147721 
L 433.748787 161.719138 
L 435.229139 164.68042 
L 436.397838 159.811405 
L 437.566537 160.094629 
L 438.813149 159.664828 
L 440.020805 162.015894 
L 441.111591 163.710632 
L 442.436117 160.20911 
L 443.643772 161.55266 
L 444.851428 159.392908 
L 446.020127 158.960314 
L 447.26674 157.583868 
L 448.474395 152.814415 
L 449.604138 153.281099 
L 451.006577 155.881914 
L 452.097363 156.248216 
L 454.434761 151.173754 
L 455.993026 151.14124 
L 457.356509 151.832286 
L 458.564165 150.230971 
L 459.966603 150.798167 
L 461.252172 153.108611 
L 462.615655 155.021011 
L 463.667484 156.999519 
L 464.797226 155.161828 
L 466.082796 148.875729 
L 467.212538 145.176337 
L 468.381237 139.485663 
L 469.549936 134.474822 
L 470.874462 127.880255 
L 473.32873 123.08865 
L 474.497429 124.597659 
L 475.588215 122.917454 
L 476.912741 124.632738 
L 478.120396 121.945467 
L 479.289096 121.039342 
L 480.652578 119.389033 
L 481.938147 113.694647 
L 483.067889 111.168419 
L 484.314502 109.634031 
L 485.444244 110.608268 
L 486.41816 109.883318 
L 487.781642 107.91538 
L 489.067211 108.869762 
L 490.274867 108.575373 
L 491.443566 105.911185 
L 492.534352 99.756171 
L 493.742008 88.989301 
L 493.742008 88.989301 
" clip-path="url(#p3cdc000290)" style="fill: none; stroke: #ff7f0e; stroke-width: 2.5; stroke-linecap: square"/>
   </g>
   <g id="line2d_18">
    <path d="M 45.74068 284.036637 
L 45.74068 276.589633 
L 45.662767 277.753989 
L 45.62381 277.163707 
L 45.62381 278.264869 
L 45.74068 277.886937 
L 46.052333 279.005636 
L 47.026249 278.617558 
L 48.701384 279.048314 
L 50.999826 276.994587 
L 55.401926 276.604459 
L 57.154975 275.027367 
L 58.557413 274.56538 
L 59.804026 274.820066 
L 60.933768 277.032002 
L 62.063511 278.455641 
L 63.193253 279.329837 
L 64.322996 279.069696 
L 65.530652 280.457805 
L 66.738307 282.56486 
L 67.98492 281.643316 
L 69.192575 278.461209 
L 70.478144 277.211143 
L 71.646844 276.705135 
L 72.854499 278.326052 
L 74.179025 279.551287 
L 75.464594 281.30776 
L 76.828076 282.130397 
L 78.113645 285.336526 
L 79.399214 283.833536 
L 80.645827 278.853174 
L 81.853483 278.303748 
L 83.100095 276.741941 
L 84.268794 277.030396 
L 85.515406 277.071729 
L 86.723062 277.7421 
L 88.008631 277.973932 
L 89.216287 280.152401 
L 90.423943 281.010328 
L 91.670555 281.343847 
L 92.878211 280.05618 
L 94.085867 282.567277 
L 95.254566 281.779579 
L 96.540135 283.137771 
L 97.747791 281.275408 
L 98.994403 281.606305 
L 100.241015 282.446984 
L 101.487628 283.029302 
L 102.695283 282.097457 
L 103.902939 283.458753 
L 105.071638 281.522009 
L 106.318251 281.633025 
L 107.48695 279.573321 
L 108.694606 280.4255 
L 109.941218 278.615635 
L 111.148874 282.139687 
L 112.356529 284.151936 
L 113.564185 284.176498 
L 114.810798 283.375908 
L 115.94054 284.350305 
L 117.148196 281.921986 
L 120.849076 278.481263 
L 122.095689 275.698966 
L 123.303345 277.375074 
L 124.549957 275.750241 
L 125.796569 274.312292 
L 127.043182 275.044321 
L 128.328751 276.56107 
L 129.536407 275.771642 
L 130.783019 277.31418 
L 131.990675 278.368013 
L 133.19833 275.849784 
L 134.444943 273.882678 
L 135.652599 273.971272 
L 136.860254 272.717609 
L 138.028953 273.644652 
L 140.444265 277.027925 
L 141.690877 277.840822 
L 142.898533 278.868492 
L 144.145145 276.255868 
L 145.352801 274.454992 
L 146.5215 273.263794 
L 147.768113 272.492733 
L 148.975768 272.9693 
L 150.183424 273.717125 
L 151.430037 273.356585 
L 152.598736 276.386135 
L 153.806391 277.027535 
L 156.26066 274.620939 
L 158.675971 270.191087 
L 159.922584 268.654929 
L 161.130239 269.287989 
L 162.337895 268.507347 
L 163.545551 269.128985 
L 164.83112 272.890431 
L 167.285388 269.143615 
L 168.493044 270.165513 
L 169.700699 267.590532 
L 170.908355 267.493011 
L 172.116011 266.561146 
L 173.28471 268.659913 
L 174.492366 268.214305 
L 175.700022 268.591799 
L 176.907677 271.825903 
L 178.115333 268.151226 
L 179.284032 268.768219 
L 180.569601 268.025783 
L 181.816214 265.994635 
L 184.231525 261.467375 
L 185.439181 261.251955 
L 186.685793 257.882532 
L 187.893449 256.96084 
L 189.140061 259.586808 
L 190.347717 257.195757 
L 191.516416 258.632705 
L 193.970684 254.590062 
L 195.217297 253.618587 
L 196.424953 251.615995 
L 197.671565 250.306885 
L 198.879221 249.224153 
L 200.04792 249.983892 
L 201.294532 251.514246 
L 202.502188 250.371981 
L 203.709844 251.008935 
L 204.878543 248.954862 
L 206.086199 247.587943 
L 207.332811 248.043679 
L 208.50151 247.160219 
L 209.709166 248.9927 
L 210.994735 249.755072 
L 212.163434 249.370129 
L 213.37109 248.453903 
L 214.578746 245.064861 
L 215.825358 245.37354 
L 217.07197 242.739925 
L 218.279626 243.707823 
L 220.694938 245.375823 
L 221.94155 247.07346 
L 223.110249 248.173775 
L 224.317905 248.652225 
L 225.603474 248.458597 
L 226.772173 246.790301 
L 228.018785 246.43002 
L 229.226441 245.005747 
L 230.434097 246.280318 
L 231.602796 244.473933 
L 232.810452 243.619262 
L 234.018108 244.26794 
L 236.472376 245.057291 
L 237.680031 245.939902 
L 238.887687 244.966062 
L 240.1343 244.313027 
L 241.302999 244.185331 
L 242.549611 243.387958 
L 243.757267 240.926352 
L 244.964923 241.796405 
L 246.172578 243.804517 
L 247.458147 242.743464 
L 248.665803 239.830402 
L 249.873459 238.760716 
L 251.081115 237.281288 
L 252.249814 236.220334 
L 254.704082 236.540033 
L 255.872781 240.698076 
L 258.288093 251.223328 
L 259.534705 252.1243 
L 260.742361 247.601775 
L 261.91106 245.053916 
L 263.118716 239.796662 
L 264.365328 236.163338 
L 265.534027 234.887173 
L 266.858553 235.066817 
L 268.027252 238.126817 
L 269.195951 240.685314 
L 270.36465 242.695315 
L 271.650219 243.075011 
L 272.818918 240.999129 
L 274.065531 240.011324 
L 275.312143 237.416021 
L 276.480842 239.777742 
L 277.727455 238.25261 
L 278.857197 238.063167 
L 280.103809 233.235679 
L 281.389378 232.266983 
L 282.597034 231.047969 
L 283.765733 230.378753 
L 286.258958 232.174871 
L 287.427657 235.498966 
L 288.67427 237.092191 
L 289.842969 234.802735 
L 291.050624 233.822963 
L 292.297237 228.058138 
L 293.465936 230.189752 
L 294.712548 227.351887 
L 295.959161 226.755358 
L 298.374472 226.126984 
L 299.582128 228.059605 
L 300.867697 222.779665 
L 302.114309 220.927342 
L 304.607534 215.427371 
L 305.81519 215.65944 
L 307.061802 213.334629 
L 308.308415 214.830837 
L 309.438157 214.892157 
L 310.606856 216.667017 
L 311.853469 217.520219 
L 312.983211 215.894484 
L 314.26878 215.065108 
L 315.515393 211.669253 
L 316.723048 210.020694 
L 317.852791 205.744757 
L 320.307059 193.642462 
L 321.514715 186.792318 
L 322.722371 184.894995 
L 323.930026 180.122735 
L 325.176639 180.452701 
L 326.384294 179.266341 
L 327.552994 177.561743 
L 328.799606 177.375429 
L 329.968305 174.437598 
L 331.175961 168.127539 
L 332.34466 168.408025 
L 333.708142 165.043522 
L 334.915798 165.62371 
L 336.04554 164.09691 
L 337.21424 166.241391 
L 339.668508 161.707593 
L 340.837207 160.155262 
L 342.083819 153.883511 
L 343.291475 149.921925 
L 344.577044 150.230265 
L 345.745743 147.435443 
L 346.914442 150.835351 
L 348.238968 150.15525 
L 349.36871 148.975306 
L 350.576366 146.078313 
L 351.822979 146.54491 
L 353.030634 140.469934 
L 354.199333 136.881037 
L 355.406989 135.229765 
L 356.614645 132.3845 
L 357.822301 132.633996 
L 359.029956 135.691583 
L 360.237612 134.890576 
L 361.484225 134.981292 
L 362.652924 134.377848 
L 363.899536 137.946361 
L 365.146148 134.742993 
L 366.314848 138.050201 
L 367.483547 134.849158 
L 368.691202 133.587237 
L 369.937815 133.421786 
L 371.145471 134.287366 
L 372.353126 133.718882 
L 373.521825 131.262235 
L 374.807394 130.359205 
L 376.01505 132.405156 
L 377.378533 128.728551 
L 378.742015 129.442615 
L 380.105497 126.326643 
L 381.391066 128.039464 
L 382.559765 128.901899 
L 383.923248 131.828436 
L 385.091947 131.657068 
L 386.299602 127.639878 
L 387.507258 127.761391 
L 389.8057 123.412436 
L 391.169182 125.231573 
L 392.337881 125.8149 
L 393.467624 128.780998 
L 394.714236 132.568262 
L 395.921892 137.747538 
L 397.168504 139.478327 
L 398.37616 137.705881 
L 399.544859 139.130019 
L 400.752515 139.653196 
L 402.038084 140.659786 
L 404.375482 133.85889 
L 405.622095 131.547958 
L 406.907664 129.759874 
L 407.959493 134.093164 
L 409.284018 137.922345 
L 410.530631 137.461048 
L 411.8162 139.921545 
L 413.023856 141.831462 
L 414.114641 144.810267 
L 415.361254 143.053473 
L 416.56891 144.135668 
L 417.737609 144.354293 
L 418.984221 143.377635 
L 420.15292 142.168145 
L 421.360576 142.785598 
L 422.607188 135.850731 
L 424.048584 132.551546 
L 425.25624 130.520298 
L 426.308069 137.093728 
L 427.554681 138.628026 
L 428.684424 141.997691 
L 429.77521 143.216315 
L 431.060779 142.948467 
L 432.385304 141.436476 
L 433.515047 146.206363 
L 434.761659 140.945079 
L 435.930358 141.449956 
L 437.254884 140.2763 
L 438.46254 142.981548 
L 439.592282 140.917656 
L 442.007594 142.365768 
L 443.254206 143.742623 
L 444.306035 145.264153 
L 445.630561 146.650065 
L 446.760303 144.79904 
L 448.045872 144.097105 
L 449.292485 140.973567 
L 450.500141 143.250808 
L 451.707796 141.338255 
L 452.798582 138.20943 
L 454.006238 138.759635 
L 455.447634 137.565212 
L 456.927986 135.727952 
L 458.213555 133.562102 
L 459.53808 126.947971 
L 460.628866 123.651164 
L 462.148175 125.068877 
L 463.394788 128.883432 
L 465.381576 127.17924 
L 466.706102 131.085389 
L 467.991671 130.965555 
L 469.199326 128.521596 
L 470.406982 124.672943 
L 471.653595 119.549854 
L 472.900207 118.049048 
L 475.237605 114.878812 
L 476.484218 113.432166 
L 477.73083 111.424681 
L 478.821616 111.316094 
L 480.224055 104.850682 
L 481.353797 102.396928 
L 482.639366 102.664529 
L 483.847022 104.614237 
L 486.262334 99.302727 
L 487.431033 97.991247 
L 488.638688 93.668502 
L 490.976087 82.15969 
L 492.222699 77.697525 
L 493.508268 75.274643 
L 494.365314 75.774384 
L 494.365314 75.774384 
" clip-path="url(#p3cdc000290)" style="fill: none; stroke: #9467bd; stroke-width: 2.5; stroke-linecap: square"/>
   </g>
   <g id="line2d_19">
    <path d="M 46.792509 261.377259 
L 46.753552 272.342773 
L 48.467644 270.237083 
L 52.558091 269.686861 
L 54.77862 268.514682 
L 56.726452 267.764595 
L 58.36263 270.374529 
L 59.765069 271.668247 
L 60.972725 273.531832 
L 62.102467 273.329113 
L 63.193253 274.087376 
L 64.361952 272.332894 
L 65.530652 270.013512 
L 66.660394 266.316305 
L 67.907006 265.42049 
L 69.153619 266.02389 
L 70.361275 268.359924 
L 71.646844 268.738985 
L 72.893456 267.831987 
L 74.217982 268.049432 
L 75.542507 270.625585 
L 78.191559 269.166164 
L 79.477128 266.956547 
L 80.684783 269.855861 
L 81.931396 269.858528 
L 83.100095 271.384957 
L 84.307751 271.207994 
L 85.515406 269.904863 
L 86.762019 267.689816 
L 87.969675 271.078799 
L 89.216287 272.479142 
L 90.423943 273.105546 
L 91.670555 272.068642 
L 92.878211 273.977836 
L 94.085867 272.475102 
L 95.293522 269.711106 
L 96.501178 267.795825 
L 97.708834 266.173211 
L 98.91649 265.168871 
L 101.370758 273.335279 
L 102.578414 273.46944 
L 103.786069 272.877882 
L 104.993725 274.791172 
L 106.201381 273.588957 
L 107.447993 270.513584 
L 109.863305 267.574999 
L 111.07096 269.143657 
L 112.278616 268.618418 
L 113.486272 271.323008 
L 114.732884 271.861998 
L 115.901583 275.217906 
L 117.109239 279.628058 
L 118.316895 279.7483 
L 119.563507 279.758109 
L 120.81012 280.046033 
L 122.056732 277.660938 
L 123.264388 276.786967 
L 124.549957 272.603269 
L 125.796569 270.842976 
L 127.043182 270.578082 
L 128.250837 269.500788 
L 130.666149 264.967983 
L 131.834848 266.01027 
L 133.120417 267.660109 
L 134.36703 267.74124 
L 135.574685 267.993068 
L 136.821298 269.692522 
L 138.028953 271.007228 
L 139.275566 271.125291 
L 140.522178 270.681288 
L 141.690877 269.301932 
L 142.898533 270.15004 
L 144.145145 269.718756 
L 145.313845 268.095802 
L 146.560457 267.22353 
L 147.807069 263.126486 
L 149.014725 264.987283 
L 150.222381 265.993887 
L 151.39108 266.104293 
L 152.637692 265.367864 
L 153.845348 265.068371 
L 155.014047 266.070612 
L 156.221703 263.795355 
L 157.507272 261.772926 
L 158.714928 262.432271 
L 159.883627 261.601111 
L 161.091283 262.791773 
L 162.337895 263.143218 
L 164.792163 260.210461 
L 165.960862 258.024858 
L 167.129561 258.689249 
L 169.622786 254.644679 
L 170.830442 257.145314 
L 172.038098 257.377369 
L 173.206797 257.080925 
L 174.453409 257.479734 
L 176.868721 254.035349 
L 178.115333 251.216329 
L 179.322989 249.586821 
L 180.491688 245.219459 
L 181.699344 242.11257 
L 182.945956 242.203214 
L 184.231525 239.204543 
L 185.439181 238.10465 
L 186.763707 238.144159 
L 187.971362 235.115855 
L 190.386674 233.169822 
L 191.59433 232.84771 
L 192.840942 231.433236 
L 194.009641 231.290631 
L 195.17834 229.884123 
L 196.385996 228.107792 
L 197.671565 229.148028 
L 198.840264 231.366797 
L 200.04792 231.830545 
L 201.294532 233.275177 
L 202.463231 233.779368 
L 203.709844 235.180726 
L 206.164112 230.878268 
L 207.371768 230.253558 
L 208.540467 233.375895 
L 209.787079 234.830292 
L 210.994735 235.817657 
L 212.163434 236.167943 
L 213.410046 236.15805 
L 214.617702 234.708395 
L 215.864315 232.001014 
L 217.033014 227.799745 
L 218.279626 226.204656 
L 219.487282 227.94037 
L 220.733894 228.768738 
L 221.902593 228.04768 
L 223.110249 228.663493 
L 224.356862 228.811108 
L 225.525561 228.689456 
L 226.772173 229.422139 
L 227.979829 231.649505 
L 229.187485 232.553614 
L 230.434097 233.98706 
L 231.641753 236.704059 
L 232.849408 236.516332 
L 234.018108 238.374959 
L 235.26472 238.609357 
L 236.472376 237.617717 
L 237.680031 236.158797 
L 238.887687 235.737223 
L 240.095343 237.193349 
L 241.341955 233.203566 
L 242.549611 232.226884 
L 243.757267 233.260911 
L 244.964923 232.295847 
L 246.172578 232.717847 
L 247.341277 232.904532 
L 248.58789 232.894618 
L 249.795546 234.890429 
L 251.003201 234.388645 
L 252.210857 231.48534 
L 253.418513 229.333253 
L 254.626169 229.831796 
L 255.794868 230.103013 
L 257.080437 230.060183 
L 258.288093 229.533596 
L 259.534705 230.467444 
L 260.664447 231.06577 
L 261.872103 231.242957 
L 263.118716 230.177191 
L 264.326371 228.751808 
L 265.534027 229.941557 
L 266.741683 227.407833 
L 267.910382 228.557905 
L 269.195951 229.006546 
L 270.403607 227.466578 
L 271.650219 229.521691 
L 272.818918 228.973396 
L 273.987617 227.162362 
L 275.23423 227.808831 
L 276.441885 227.390776 
L 278.93511 225.553896 
L 280.142766 225.907165 
L 281.311465 227.062111 
L 282.480164 225.229264 
L 283.726777 226.179215 
L 284.895476 224.179444 
L 286.064175 221.703602 
L 287.232874 220.842508 
L 288.5574 217.85588 
L 289.726099 214.647118 
L 290.972711 215.915953 
L 292.14141 216.012334 
L 293.388023 217.215573 
L 294.634635 215.677586 
L 295.842291 215.109018 
L 297.049947 217.043043 
L 298.296559 215.684594 
L 299.543171 216.975165 
L 302.114309 210.600379 
L 303.360922 211.390201 
L 304.529621 211.631172 
L 305.58145 209.827597 
L 306.867019 208.634279 
L 308.035718 205.76633 
L 309.321287 204.221292 
L 310.528943 200.391585 
L 311.775555 198.974767 
L 312.983211 197.305877 
L 314.229824 194.302419 
L 315.437479 190.430009 
L 316.684092 186.856378 
L 317.852791 182.213444 
L 319.099403 179.982635 
L 320.268102 177.070547 
L 321.475758 175.18532 
L 322.722371 175.327468 
L 323.968983 176.765083 
L 325.176639 176.603878 
L 326.384294 174.158099 
L 327.59195 168.868936 
L 328.721693 165.197801 
L 330.046218 159.335967 
L 331.175961 160.844214 
L 332.383617 159.690585 
L 333.591272 160.900999 
L 334.798928 160.635312 
L 336.04554 161.407416 
L 337.331109 159.864079 
L 338.460852 156.780401 
L 339.629551 149.668581 
L 340.993033 147.589668 
L 342.122776 141.754579 
L 343.408345 143.462339 
L 344.577044 140.809495 
L 345.66783 142.678857 
L 346.992356 142.931769 
L 348.122098 145.920947 
L 349.36871 148.776957 
L 350.576366 146.78788 
L 351.745065 139.875102 
L 353.030634 139.450436 
L 354.23829 134.339296 
L 355.368033 131.74755 
L 356.614645 130.661059 
L 357.822301 132.802908 
L 359.029956 134.717558 
L 360.237612 135.756781 
L 361.523181 140.39311 
L 362.69188 140.968836 
L 365.107192 137.498824 
L 366.353804 132.304857 
L 367.522503 129.753729 
L 368.691202 128.30231 
L 369.937815 127.964102 
L 371.184427 127.884596 
L 372.353126 126.450451 
L 373.560782 126.697919 
L 374.885308 128.720673 
L 375.976094 130.950329 
L 377.456446 129.798423 
L 378.780971 129.652473 
L 380.144454 128.923788 
L 381.35211 128.138834 
L 382.559765 127.050065 
L 383.884291 124.339026 
L 385.091947 121.499942 
L 386.299602 116.989324 
L 387.468302 120.455286 
L 388.675957 123.185203 
L 389.883613 125.555494 
L 391.130225 126.974734 
L 392.337881 133.723806 
L 393.50658 135.692113 
L 394.714236 135.352721 
L 396.038762 133.335146 
L 397.207461 131.944339 
L 398.415117 127.347833 
L 399.583816 125.85928 
L 400.791472 126.753248 
L 402.038084 123.021643 
L 403.167826 122.493787 
L 404.492352 130.915781 
L 405.622095 131.103256 
L 406.94662 130.961002 
L 408.115319 133.628414 
L 409.284018 135.916319 
L 410.530631 136.950369 
L 412.945942 142.287614 
L 414.114641 137.707994 
L 415.40021 136.971215 
L 416.529953 140.989473 
L 417.893435 139.83239 
L 418.906308 138.416975 
L 420.191877 135.638799 
L 421.516403 137.070345 
L 422.607188 137.62036 
L 423.853801 141.275402 
L 425.334153 138.360407 
L 426.424939 135.278529 
L 427.593638 133.278853 
L 428.645467 132.646551 
L 429.853123 132.24522 
L 431.138692 131.639074 
L 432.385304 128.739911 
L 433.554003 133.003546 
L 434.644789 134.704083 
L 435.852445 140.952473 
L 437.138014 141.395969 
L 438.34567 140.48539 
L 439.631239 137.66737 
L 443.254206 124.647158 
L 444.500818 121.171073 
L 445.630561 121.517305 
L 446.79926 120.160264 
L 448.006916 126.219926 
L 449.253528 127.871478 
L 450.422227 127.175427 
L 451.66884 125.113306 
L 452.915452 124.101816 
L 454.006238 118.270721 
L 455.447634 116.842248 
L 456.927986 118.832594 
L 458.135642 121.569064 
L 459.460167 117.332375 
L 460.667823 121.277847 
L 461.875479 118.980852 
L 463.161048 115.393203 
L 464.563487 111.125111 
L 465.537403 104.461886 
L 466.667145 100.030149 
L 467.796888 100.742479 
L 469.121413 101.09091 
L 470.329069 98.627452 
L 471.575681 90.863644 
L 472.86125 87.374302 
L 474.02995 83.581786 
L 475.198649 82.175611 
L 476.367348 82.156125 
L 477.73083 79.588996 
L 478.860573 86.193477 
L 480.068228 86.981498 
L 481.314841 90.493673 
L 482.561453 87.445475 
L 483.613282 81.70099 
L 485.054678 75.323376 
L 486.340247 72.688926 
L 487.586859 70.421846 
L 488.521819 69.581354 
L 489.651561 69.826491 
L 491.092957 69.173073 
L 492.339569 66.604595 
L 493.274528 61.104553 
L 494.482184 51.656443 
L 494.482184 51.656443 
" clip-path="url(#p3cdc000290)" style="fill: none; stroke: #2ca02c; stroke-width: 2.5; stroke-linecap: square"/>
   </g>
   <g id="patch_3">
    <path d="M 47.298945 303.182656 
L 47.298945 39.679004 
" style="fill: none; stroke: #000000; stroke-width: 1.5; stroke-linejoin: miter; stroke-linecap: square"/>
   </g>
   <g id="patch_4">
    <path d="M 47.298945 303.182656 
L 495.300273 303.182656 
" style="fill: none; stroke: #000000; stroke-width: 1.5; stroke-linejoin: miter; stroke-linecap: square"/>
   </g>
   <g id="text_17">
    <!-- 1421_wo_HF -->
    <g transform="translate(229.664922 18.441699) scale(0.14 -0.14)">
     <defs>
      <path id="ArialMT-42" d="M -97 -1272 
L -97 -866 
L 3631 -866 
L 3631 -1272 
L -97 -1272 
z
" transform="scale(0.015625)"/>
      <path id="ArialMT-5a" d="M 1034 0 
L 19 3319 
L 600 3319 
L 1128 1403 
L 1325 691 
Q 1338 744 1497 1375 
L 2025 3319 
L 2603 3319 
L 3100 1394 
L 3266 759 
L 3456 1400 
L 4025 3319 
L 4572 3319 
L 3534 0 
L 2950 0 
L 2422 1988 
L 2294 2553 
L 1622 0 
L 1034 0 
z
" transform="scale(0.015625)"/>
      <path id="ArialMT-2b" d="M 513 0 
L 513 4581 
L 1119 4581 
L 1119 2700 
L 3500 2700 
L 3500 4581 
L 4106 4581 
L 4106 0 
L 3500 0 
L 3500 2159 
L 1119 2159 
L 1119 0 
L 513 0 
z
" transform="scale(0.015625)"/>
      <path id="ArialMT-29" d="M 525 0 
L 525 4581 
L 3616 4581 
L 3616 4041 
L 1131 4041 
L 1131 2622 
L 3281 2622 
L 3281 2081 
L 1131 2081 
L 1131 0 
L 525 0 
z
" transform="scale(0.015625)"/>
     </defs>
     <use xlink:href="#ArialMT-14"/>
     <use xlink:href="#ArialMT-17" transform="translate(55.609375 0)"/>
     <use xlink:href="#ArialMT-15" transform="translate(111.21875 0)"/>
     <use xlink:href="#ArialMT-14" transform="translate(166.828125 0)"/>
     <use xlink:href="#ArialMT-42" transform="translate(222.4375 0)"/>
     <use xlink:href="#ArialMT-5a" transform="translate(278.046875 0)"/>
     <use xlink:href="#ArialMT-52" transform="translate(350.265625 0)"/>
     <use xlink:href="#ArialMT-42" transform="translate(405.875 0)"/>
     <use xlink:href="#ArialMT-2b" transform="translate(461.484375 0)"/>
     <use xlink:href="#ArialMT-29" transform="translate(533.703125 0)"/>
    </g>
    <!-- m/z 19 -->
    <g transform="translate(250.294141 33.679004) scale(0.14 -0.14)">
     <use xlink:href="#ArialMT-50"/>
     <use xlink:href="#ArialMT-12" transform="translate(83.296875 0)"/>
     <use xlink:href="#ArialMT-5d" transform="translate(111.078125 0)"/>
     <use xlink:href="#ArialMT-3" transform="translate(161.078125 0)"/>
     <use xlink:href="#ArialMT-14" transform="translate(188.859375 0)"/>
     <use xlink:href="#ArialMT-1c" transform="translate(244.46875 0)"/>
    </g>
   </g>
   <g id="legend_1">
    <g id="line2d_20">
     <path d="M 513.2603 52.459277 
L 523.2603 52.459277 
L 533.2603 52.459277 
" style="fill: none; stroke: #000000; stroke-width: 2.5; stroke-linecap: square"/>
    </g>
    <g id="text_18">
     <!-- 0 h -->
     <g transform="translate(541.2603 55.959277) scale(0.1 -0.1)">
      <defs>
       <path id="ArialMT-4b" d="M 422 0 
L 422 4581 
L 984 4581 
L 984 2938 
Q 1378 3394 1978 3394 
Q 2347 3394 2619 3248 
Q 2891 3103 3008 2847 
Q 3125 2591 3125 2103 
L 3125 0 
L 2563 0 
L 2563 2103 
Q 2563 2525 2380 2717 
Q 2197 2909 1863 2909 
Q 1613 2909 1392 2779 
Q 1172 2650 1078 2428 
Q 984 2206 984 1816 
L 984 0 
L 422 0 
z
" transform="scale(0.015625)"/>
      </defs>
      <use xlink:href="#ArialMT-13"/>
      <use xlink:href="#ArialMT-3" transform="translate(55.609375 0)"/>
      <use xlink:href="#ArialMT-4b" transform="translate(83.390625 0)"/>
     </g>
    </g>
    <g id="line2d_21">
     <path d="M 513.2603 66.844043 
L 523.2603 66.844043 
L 533.2603 66.844043 
" style="fill: none; stroke: #1f77b4; stroke-width: 2.5; stroke-linecap: square"/>
    </g>
    <g id="text_19">
     <!-- 6 h -->
     <g transform="translate(541.2603 70.344043) scale(0.1 -0.1)">
      <use xlink:href="#ArialMT-19"/>
      <use xlink:href="#ArialMT-3" transform="translate(55.609375 0)"/>
      <use xlink:href="#ArialMT-4b" transform="translate(83.390625 0)"/>
     </g>
    </g>
    <g id="line2d_22">
     <path d="M 513.2603 81.228809 
L 523.2603 81.228809 
L 533.2603 81.228809 
" style="fill: none; stroke: #d62728; stroke-width: 2.5; stroke-linecap: square"/>
    </g>
    <g id="text_20">
     <!-- 24 h -->
     <g transform="translate(541.2603 84.728809) scale(0.1 -0.1)">
      <use xlink:href="#ArialMT-15"/>
      <use xlink:href="#ArialMT-17" transform="translate(55.609375 0)"/>
      <use xlink:href="#ArialMT-3" transform="translate(111.21875 0)"/>
      <use xlink:href="#ArialMT-4b" transform="translate(139 0)"/>
     </g>
    </g>
    <g id="line2d_23">
     <path d="M 513.2603 95.613574 
L 523.2603 95.613574 
L 533.2603 95.613574 
" style="fill: none; stroke: #ff7f0e; stroke-width: 2.5; stroke-linecap: square"/>
    </g>
    <g id="text_21">
     <!-- 7 d -->
     <g transform="translate(541.2603 99.113574) scale(0.1 -0.1)">
      <defs>
       <path id="ArialMT-1a" d="M 303 3981 
L 303 4522 
L 3269 4522 
L 3269 4084 
Q 2831 3619 2401 2847 
Q 1972 2075 1738 1259 
Q 1569 684 1522 0 
L 944 0 
Q 953 541 1156 1306 
Q 1359 2072 1739 2783 
Q 2119 3494 2547 3981 
L 303 3981 
z
" transform="scale(0.015625)"/>
       <path id="ArialMT-47" d="M 2575 0 
L 2575 419 
Q 2259 -75 1647 -75 
Q 1250 -75 917 144 
Q 584 363 401 755 
Q 219 1147 219 1656 
Q 219 2153 384 2558 
Q 550 2963 881 3178 
Q 1213 3394 1622 3394 
Q 1922 3394 2156 3267 
Q 2391 3141 2538 2938 
L 2538 4581 
L 3097 4581 
L 3097 0 
L 2575 0 
z
M 797 1656 
Q 797 1019 1065 703 
Q 1334 388 1700 388 
Q 2069 388 2326 689 
Q 2584 991 2584 1609 
Q 2584 2291 2321 2609 
Q 2059 2928 1675 2928 
Q 1300 2928 1048 2622 
Q 797 2316 797 1656 
z
" transform="scale(0.015625)"/>
      </defs>
      <use xlink:href="#ArialMT-1a"/>
      <use xlink:href="#ArialMT-3" transform="translate(55.609375 0)"/>
      <use xlink:href="#ArialMT-47" transform="translate(83.390625 0)"/>
     </g>
    </g>
    <g id="line2d_24">
     <path d="M 513.2603 109.99834 
L 523.2603 109.99834 
L 533.2603 109.99834 
" style="fill: none; stroke: #9467bd; stroke-width: 2.5; stroke-linecap: square"/>
    </g>
    <g id="text_22">
     <!-- 14 d -->
     <g transform="translate(541.2603 113.49834) scale(0.1 -0.1)">
      <use xlink:href="#ArialMT-14"/>
      <use xlink:href="#ArialMT-17" transform="translate(55.609375 0)"/>
      <use xlink:href="#ArialMT-3" transform="translate(111.21875 0)"/>
      <use xlink:href="#ArialMT-47" transform="translate(139 0)"/>
     </g>
    </g>
    <g id="line2d_25">
     <path d="M 513.2603 124.383105 
L 523.2603 124.383105 
L 533.2603 124.383105 
" style="fill: none; stroke: #2ca02c; stroke-width: 2.5; stroke-linecap: square"/>
    </g>
    <g id="text_23">
     <!-- 28 d -->
     <g transform="translate(541.2603 127.883105) scale(0.1 -0.1)">
      <use xlink:href="#ArialMT-15"/>
      <use xlink:href="#ArialMT-1b" transform="translate(55.609375 0)"/>
      <use xlink:href="#ArialMT-3" transform="translate(111.21875 0)"/>
      <use xlink:href="#ArialMT-47" transform="translate(139 0)"/>
     </g>
    </g>
   </g>
  </g>
 </g>
 <defs>
  <clipPath id="p3cdc000290">
   <rect x="47.298945" y="39.679004" width="448.001328" height="263.503652"/>
  </clipPath>
 </defs>
</svg>
