<?xml version="1.0" encoding="utf-8" standalone="no"?>
<!DOCTYPE svg PUBLIC "-//W3C//DTD SVG 1.1//EN"
  "http://www.w3.org/Graphics/SVG/1.1/DTD/svg11.dtd">
<svg xmlns:xlink="http://www.w3.org/1999/xlink" width="571.99695pt" height="344.160273pt" viewBox="0 0 571.99695 344.160273" xmlns="http://www.w3.org/2000/svg" version="1.1">
 <metadata>
  <rdf:RDF xmlns:dc="http://purl.org/dc/elements/1.1/" xmlns:cc="http://creativecommons.org/ns#" xmlns:rdf="http://www.w3.org/1999/02/22-rdf-syntax-ns#">
   <cc:Work>
    <dc:type rdf:resource="http://purl.org/dc/dcmitype/StillImage"/>
    <dc:date>2026-07-10T11:48:27.184102</dc:date>
    <dc:format>image/svg+xml</dc:format>
    <dc:creator>
     <cc:Agent>
      <dc:title>Matplotlib v3.11.0, https://matplotlib.org/</dc:title>
     </cc:Agent>
    </dc:creator>
   </cc:Work>
  </rdf:RDF>
 </metadata>
 <defs>
  <style type="text/css">*{stroke-linejoin: round; stroke-linecap: butt}</style>
 </defs>
 <g id="figure_1">
  <g id="patch_1">
   <path d="M 0 344.160273 
L 571.99695 344.160273 
L 571.99695 0 
L 0 0 
z
" style="fill: #ffffff"/>
  </g>
  <g id="axes_1">
   <g id="patch_2">
    <path d="M 35.624258 303.182656 
L 495.145586 303.182656 
L 495.145586 39.679004 
L 35.624258 39.679004 
z
" style="fill: #ffffff"/>
   </g>
   <g id="matplotlib.axis_1">
    <g id="xtick_1">
     <g id="line2d_1">
      <defs>
       <path id="m7c97e89c3a" d="M 0 0 
L 0 -6 
" style="stroke: #000000; stroke-width: 0.8"/>
      </defs>
      <g>
       <use xlink:href="#m7c97e89c3a" x="95.561822" y="303.182656" style="stroke: #000000; stroke-width: 0.8"/>
      </g>
     </g>
     <g id="text_1">
      <!-- 200 -->
      <g transform="translate(83.883854 316.875039) scale(0.14 -0.14)">
       <defs>
        <path id="ArialMT-15" d="M 3222 541 
L 3222 0 
L 194 0 
Q 188 203 259 391 
Q 375 700 629 1000 
Q 884 1300 1366 1694 
Q 2113 2306 2375 2664 
Q 2638 3022 2638 3341 
Q 2638 3675 2398 3904 
Q 2159 4134 1775 4134 
Q 1369 4134 1125 3890 
Q 881 3647 878 3216 
L 300 3275 
Q 359 3922 746 4261 
Q 1134 4600 1788 4600 
Q 2447 4600 2831 4234 
Q 3216 3869 3216 3328 
Q 3216 3053 3103 2787 
Q 2991 2522 2730 2228 
Q 2469 1934 1863 1422 
Q 1356 997 1212 845 
Q 1069 694 975 541 
L 3222 541 
z
" transform="scale(0.015625)"/>
        <path id="ArialMT-13" d="M 266 2259 
Q 266 3072 433 3567 
Q 600 4063 929 4331 
Q 1259 4600 1759 4600 
Q 2128 4600 2406 4451 
Q 2684 4303 2865 4023 
Q 3047 3744 3150 3342 
Q 3253 2941 3253 2259 
Q 3253 1453 3087 958 
Q 2922 463 2592 192 
Q 2263 -78 1759 -78 
Q 1097 -78 719 397 
Q 266 969 266 2259 
z
M 844 2259 
Q 844 1131 1108 757 
Q 1372 384 1759 384 
Q 2147 384 2411 759 
Q 2675 1134 2675 2259 
Q 2675 3391 2411 3762 
Q 2147 4134 1753 4134 
Q 1366 4134 1134 3806 
Q 844 3388 844 2259 
z
" transform="scale(0.015625)"/>
       </defs>
       <use xlink:href="#ArialMT-15"/>
       <use xlink:href="#ArialMT-13" transform="translate(55.609375 0)"/>
       <use xlink:href="#ArialMT-13" transform="translate(111.21875 0)"/>
      </g>
     </g>
    </g>
    <g id="xtick_2">
     <g id="line2d_2">
      <g>
       <use xlink:href="#m7c97e89c3a" x="175.478575" y="303.182656" style="stroke: #000000; stroke-width: 0.8"/>
      </g>
     </g>
     <g id="text_2">
      <!-- 400 -->
      <g transform="translate(163.800606 316.875039) scale(0.14 -0.14)">
       <defs>
        <path id="ArialMT-17" d="M 2069 0 
L 2069 1097 
L 81 1097 
L 81 1613 
L 2172 4581 
L 2631 4581 
L 2631 1613 
L 3250 1613 
L 3250 1097 
L 2631 1097 
L 2631 0 
L 2069 0 
z
M 2069 1613 
L 2069 3678 
L 634 1613 
L 2069 1613 
z
" transform="scale(0.015625)"/>
       </defs>
       <use xlink:href="#ArialMT-17"/>
       <use xlink:href="#ArialMT-13" transform="translate(55.609375 0)"/>
       <use xlink:href="#ArialMT-13" transform="translate(111.21875 0)"/>
      </g>
     </g>
    </g>
    <g id="xtick_3">
     <g id="line2d_3">
      <g>
       <use xlink:href="#m7c97e89c3a" x="255.395328" y="303.182656" style="stroke: #000000; stroke-width: 0.8"/>
      </g>
     </g>
     <g id="text_3">
      <!-- 600 -->
      <g transform="translate(243.717359 316.875039) scale(0.14 -0.14)">
       <defs>
        <path id="ArialMT-19" d="M 3184 3459 
L 2625 3416 
Q 2550 3747 2413 3897 
Q 2184 4138 1850 4138 
Q 1581 4138 1378 3988 
Q 1113 3794 959 3422 
Q 806 3050 800 2363 
Q 1003 2672 1297 2822 
Q 1591 2972 1913 2972 
Q 2475 2972 2870 2558 
Q 3266 2144 3266 1488 
Q 3266 1056 3080 686 
Q 2894 316 2569 119 
Q 2244 -78 1831 -78 
Q 1128 -78 684 439 
Q 241 956 241 2144 
Q 241 3472 731 4075 
Q 1159 4600 1884 4600 
Q 2425 4600 2770 4297 
Q 3116 3994 3184 3459 
z
M 888 1484 
Q 888 1194 1011 928 
Q 1134 663 1356 523 
Q 1578 384 1822 384 
Q 2178 384 2434 671 
Q 2691 959 2691 1453 
Q 2691 1928 2437 2201 
Q 2184 2475 1800 2475 
Q 1419 2475 1153 2201 
Q 888 1928 888 1484 
z
" transform="scale(0.015625)"/>
       </defs>
       <use xlink:href="#ArialMT-19"/>
       <use xlink:href="#ArialMT-13" transform="translate(55.609375 0)"/>
       <use xlink:href="#ArialMT-13" transform="translate(111.21875 0)"/>
      </g>
     </g>
    </g>
    <g id="xtick_4">
     <g id="line2d_4">
      <g>
       <use xlink:href="#m7c97e89c3a" x="335.312081" y="303.182656" style="stroke: #000000; stroke-width: 0.8"/>
      </g>
     </g>
     <g id="text_4">
      <!-- 800 -->
      <g transform="translate(323.634112 316.875039) scale(0.14 -0.14)">
       <defs>
        <path id="ArialMT-1b" d="M 1131 2484 
Q 781 2613 612 2850 
Q 444 3088 444 3419 
Q 444 3919 803 4259 
Q 1163 4600 1759 4600 
Q 2359 4600 2725 4251 
Q 3091 3903 3091 3403 
Q 3091 3084 2923 2848 
Q 2756 2613 2416 2484 
Q 2838 2347 3058 2040 
Q 3278 1734 3278 1309 
Q 3278 722 2862 322 
Q 2447 -78 1769 -78 
Q 1091 -78 675 323 
Q 259 725 259 1325 
Q 259 1772 486 2073 
Q 713 2375 1131 2484 
z
M 1019 3438 
Q 1019 3113 1228 2906 
Q 1438 2700 1772 2700 
Q 2097 2700 2305 2904 
Q 2513 3109 2513 3406 
Q 2513 3716 2298 3927 
Q 2084 4138 1766 4138 
Q 1444 4138 1231 3931 
Q 1019 3725 1019 3438 
z
M 838 1322 
Q 838 1081 952 856 
Q 1066 631 1291 507 
Q 1516 384 1775 384 
Q 2178 384 2440 643 
Q 2703 903 2703 1303 
Q 2703 1709 2433 1975 
Q 2163 2241 1756 2241 
Q 1359 2241 1098 1978 
Q 838 1716 838 1322 
z
" transform="scale(0.015625)"/>
       </defs>
       <use xlink:href="#ArialMT-1b"/>
       <use xlink:href="#ArialMT-13" transform="translate(55.609375 0)"/>
       <use xlink:href="#ArialMT-13" transform="translate(111.21875 0)"/>
      </g>
     </g>
    </g>
    <g id="xtick_5">
     <g id="line2d_5">
      <g>
       <use xlink:href="#m7c97e89c3a" x="415.228833" y="303.182656" style="stroke: #000000; stroke-width: 0.8"/>
      </g>
     </g>
     <g id="text_5">
      <!-- 1000 -->
      <g transform="translate(399.658208 316.875039) scale(0.14 -0.14)">
       <defs>
        <path id="ArialMT-14" d="M 2384 0 
L 1822 0 
L 1822 3584 
Q 1619 3391 1289 3197 
Q 959 3003 697 2906 
L 697 3450 
Q 1169 3672 1522 3987 
Q 1875 4303 2022 4600 
L 2384 4600 
L 2384 0 
z
" transform="scale(0.015625)"/>
       </defs>
       <use xlink:href="#ArialMT-14"/>
       <use xlink:href="#ArialMT-13" transform="translate(55.609375 0)"/>
       <use xlink:href="#ArialMT-13" transform="translate(111.21875 0)"/>
       <use xlink:href="#ArialMT-13" transform="translate(166.828125 0)"/>
      </g>
     </g>
    </g>
    <g id="xtick_6">
     <g id="line2d_6">
      <g>
       <use xlink:href="#m7c97e89c3a" x="495.145586" y="303.182656" style="stroke: #000000; stroke-width: 0.8"/>
      </g>
     </g>
     <g id="text_6">
      <!-- 1200 -->
      <g transform="translate(479.574961 316.875039) scale(0.14 -0.14)">
       <use xlink:href="#ArialMT-14"/>
       <use xlink:href="#ArialMT-15" transform="translate(55.609375 0)"/>
       <use xlink:href="#ArialMT-13" transform="translate(111.21875 0)"/>
       <use xlink:href="#ArialMT-13" transform="translate(166.828125 0)"/>
      </g>
     </g>
    </g>
    <g id="text_7">
     <!-- T1 Temperature (°C) -->
     <g transform="translate(201.645547 334.013711) scale(0.14 -0.14)">
      <defs>
       <path id="ArialMT-37" d="M 1659 0 
L 1659 4041 
L 150 4041 
L 150 4581 
L 3781 4581 
L 3781 4041 
L 2266 4041 
L 2266 0 
L 1659 0 
z
" transform="scale(0.015625)"/>
       <path id="ArialMT-3" transform="scale(0.015625)"/>
       <path id="ArialMT-48" d="M 2694 1069 
L 3275 997 
Q 3138 488 2766 206 
Q 2394 -75 1816 -75 
Q 1088 -75 661 373 
Q 234 822 234 1631 
Q 234 2469 665 2931 
Q 1097 3394 1784 3394 
Q 2450 3394 2872 2941 
Q 3294 2488 3294 1666 
Q 3294 1616 3291 1516 
L 816 1516 
Q 847 969 1125 678 
Q 1403 388 1819 388 
Q 2128 388 2347 550 
Q 2566 713 2694 1069 
z
M 847 1978 
L 2700 1978 
Q 2663 2397 2488 2606 
Q 2219 2931 1791 2931 
Q 1403 2931 1139 2672 
Q 875 2413 847 1978 
z
" transform="scale(0.015625)"/>
       <path id="ArialMT-50" d="M 422 0 
L 422 3319 
L 925 3319 
L 925 2853 
Q 1081 3097 1340 3245 
Q 1600 3394 1931 3394 
Q 2300 3394 2536 3241 
Q 2772 3088 2869 2813 
Q 3263 3394 3894 3394 
Q 4388 3394 4653 3120 
Q 4919 2847 4919 2278 
L 4919 0 
L 4359 0 
L 4359 2091 
Q 4359 2428 4304 2576 
Q 4250 2725 4106 2815 
Q 3963 2906 3769 2906 
Q 3419 2906 3187 2673 
Q 2956 2441 2956 1928 
L 2956 0 
L 2394 0 
L 2394 2156 
Q 2394 2531 2256 2718 
Q 2119 2906 1806 2906 
Q 1569 2906 1367 2781 
Q 1166 2656 1075 2415 
Q 984 2175 984 1722 
L 984 0 
L 422 0 
z
" transform="scale(0.015625)"/>
       <path id="ArialMT-53" d="M 422 -1272 
L 422 3319 
L 934 3319 
L 934 2888 
Q 1116 3141 1344 3267 
Q 1572 3394 1897 3394 
Q 2322 3394 2647 3175 
Q 2972 2956 3137 2557 
Q 3303 2159 3303 1684 
Q 3303 1175 3120 767 
Q 2938 359 2589 142 
Q 2241 -75 1856 -75 
Q 1575 -75 1351 44 
Q 1128 163 984 344 
L 984 -1272 
L 422 -1272 
z
M 931 1641 
Q 931 1000 1190 694 
Q 1450 388 1819 388 
Q 2194 388 2461 705 
Q 2728 1022 2728 1688 
Q 2728 2322 2467 2637 
Q 2206 2953 1844 2953 
Q 1484 2953 1207 2617 
Q 931 2281 931 1641 
z
" transform="scale(0.015625)"/>
       <path id="ArialMT-55" d="M 416 0 
L 416 3319 
L 922 3319 
L 922 2816 
Q 1116 3169 1280 3281 
Q 1444 3394 1641 3394 
Q 1925 3394 2219 3213 
L 2025 2691 
Q 1819 2813 1613 2813 
Q 1428 2813 1281 2702 
Q 1134 2591 1072 2394 
Q 978 2094 978 1738 
L 978 0 
L 416 0 
z
" transform="scale(0.015625)"/>
       <path id="ArialMT-44" d="M 2588 409 
Q 2275 144 1986 34 
Q 1697 -75 1366 -75 
Q 819 -75 525 192 
Q 231 459 231 875 
Q 231 1119 342 1320 
Q 453 1522 633 1644 
Q 813 1766 1038 1828 
Q 1203 1872 1538 1913 
Q 2219 1994 2541 2106 
Q 2544 2222 2544 2253 
Q 2544 2597 2384 2738 
Q 2169 2928 1744 2928 
Q 1347 2928 1158 2789 
Q 969 2650 878 2297 
L 328 2372 
Q 403 2725 575 2942 
Q 747 3159 1072 3276 
Q 1397 3394 1825 3394 
Q 2250 3394 2515 3294 
Q 2781 3194 2906 3042 
Q 3031 2891 3081 2659 
Q 3109 2516 3109 2141 
L 3109 1391 
Q 3109 606 3145 398 
Q 3181 191 3288 0 
L 2700 0 
Q 2613 175 2588 409 
z
M 2541 1666 
Q 2234 1541 1622 1453 
Q 1275 1403 1131 1340 
Q 988 1278 909 1158 
Q 831 1038 831 891 
Q 831 666 1001 516 
Q 1172 366 1500 366 
Q 1825 366 2078 508 
Q 2331 650 2450 897 
Q 2541 1088 2541 1459 
L 2541 1666 
z
" transform="scale(0.015625)"/>
       <path id="ArialMT-57" d="M 1650 503 
L 1731 6 
Q 1494 -44 1306 -44 
Q 1000 -44 831 53 
Q 663 150 594 308 
Q 525 466 525 972 
L 525 2881 
L 113 2881 
L 113 3319 
L 525 3319 
L 525 4141 
L 1084 4478 
L 1084 3319 
L 1650 3319 
L 1650 2881 
L 1084 2881 
L 1084 941 
Q 1084 700 1114 631 
Q 1144 563 1211 522 
Q 1278 481 1403 481 
Q 1497 481 1650 503 
z
" transform="scale(0.015625)"/>
       <path id="ArialMT-58" d="M 2597 0 
L 2597 488 
Q 2209 -75 1544 -75 
Q 1250 -75 995 37 
Q 741 150 617 320 
Q 494 491 444 738 
Q 409 903 409 1263 
L 409 3319 
L 972 3319 
L 972 1478 
Q 972 1038 1006 884 
Q 1059 663 1231 536 
Q 1403 409 1656 409 
Q 1909 409 2131 539 
Q 2353 669 2445 892 
Q 2538 1116 2538 1541 
L 2538 3319 
L 3100 3319 
L 3100 0 
L 2597 0 
z
" transform="scale(0.015625)"/>
       <path id="ArialMT-b" d="M 1497 -1347 
Q 1031 -759 709 28 
Q 388 816 388 1659 
Q 388 2403 628 3084 
Q 909 3875 1497 4659 
L 1900 4659 
Q 1522 4009 1400 3731 
Q 1209 3300 1100 2831 
Q 966 2247 966 1656 
Q 966 153 1900 -1347 
L 1497 -1347 
z
" transform="scale(0.015625)"/>
       <path id="ArialMT-83" d="M 400 3794 
Q 400 4153 654 4406 
Q 909 4659 1266 4659 
Q 1628 4659 1881 4406 
Q 2134 4153 2134 3794 
Q 2134 3434 1879 3179 
Q 1625 2925 1266 2925 
Q 909 2925 654 3178 
Q 400 3431 400 3794 
z
M 741 3794 
Q 741 3575 895 3420 
Q 1050 3266 1269 3266 
Q 1484 3266 1639 3420 
Q 1794 3575 1794 3794 
Q 1794 4013 1639 4167 
Q 1484 4322 1269 4322 
Q 1050 4322 895 4167 
Q 741 4013 741 3794 
z
" transform="scale(0.015625)"/>
       <path id="ArialMT-26" d="M 3763 1606 
L 4369 1453 
Q 4178 706 3683 314 
Q 3188 -78 2472 -78 
Q 1731 -78 1267 223 
Q 803 525 561 1097 
Q 319 1669 319 2325 
Q 319 3041 592 3573 
Q 866 4106 1370 4382 
Q 1875 4659 2481 4659 
Q 3169 4659 3637 4309 
Q 4106 3959 4291 3325 
L 3694 3184 
Q 3534 3684 3231 3912 
Q 2928 4141 2469 4141 
Q 1941 4141 1586 3887 
Q 1231 3634 1087 3207 
Q 944 2781 944 2328 
Q 944 1744 1114 1308 
Q 1284 872 1643 656 
Q 2003 441 2422 441 
Q 2931 441 3284 734 
Q 3638 1028 3763 1606 
z
" transform="scale(0.015625)"/>
       <path id="ArialMT-c" d="M 791 -1347 
L 388 -1347 
Q 1322 153 1322 1656 
Q 1322 2244 1188 2822 
Q 1081 3291 891 3722 
Q 769 4003 388 4659 
L 791 4659 
Q 1378 3875 1659 3084 
Q 1900 2403 1900 1659 
Q 1900 816 1576 28 
Q 1253 -759 791 -1347 
z
" transform="scale(0.015625)"/>
      </defs>
      <use xlink:href="#ArialMT-37"/>
      <use xlink:href="#ArialMT-14" transform="translate(61.078125 0)"/>
      <use xlink:href="#ArialMT-3" transform="translate(116.6875 0)"/>
      <use xlink:href="#ArialMT-37" transform="translate(142.65625 0)"/>
      <use xlink:href="#ArialMT-48" transform="translate(192.65625 0)"/>
      <use xlink:href="#ArialMT-50" transform="translate(248.265625 0)"/>
      <use xlink:href="#ArialMT-53" transform="translate(331.5625 0)"/>
      <use xlink:href="#ArialMT-48" transform="translate(387.171875 0)"/>
      <use xlink:href="#ArialMT-55" transform="translate(442.78125 0)"/>
      <use xlink:href="#ArialMT-44" transform="translate(476.078125 0)"/>
      <use xlink:href="#ArialMT-57" transform="translate(531.6875 0)"/>
      <use xlink:href="#ArialMT-58" transform="translate(559.46875 0)"/>
      <use xlink:href="#ArialMT-55" transform="translate(615.078125 0)"/>
      <use xlink:href="#ArialMT-48" transform="translate(648.375 0)"/>
      <use xlink:href="#ArialMT-3" transform="translate(703.984375 0)"/>
      <use xlink:href="#ArialMT-b" transform="translate(731.765625 0)"/>
      <use xlink:href="#ArialMT-83" transform="translate(765.0625 0)"/>
      <use xlink:href="#ArialMT-26" transform="translate(805.046875 0)"/>
      <use xlink:href="#ArialMT-c" transform="translate(877.265625 0)"/>
     </g>
    </g>
   </g>
   <g id="matplotlib.axis_2">
    <g id="ytick_1">
     <g id="line2d_7">
      <defs>
       <path id="m182db33dab" d="M 0 0 
L 6 0 
" style="stroke: #000000; stroke-width: 0.8"/>
      </defs>
      <g>
       <use xlink:href="#m182db33dab" x="35.624258" y="291.359913" style="stroke: #000000; stroke-width: 0.8"/>
      </g>
     </g>
     <g id="text_8">
      <!-- 0 -->
      <g transform="translate(24.338945 296.456104) scale(0.14 -0.14)">
       <use xlink:href="#ArialMT-13"/>
      </g>
     </g>
    </g>
    <g id="ytick_2">
     <g id="line2d_8">
      <g>
       <use xlink:href="#m182db33dab" x="35.624258" y="235.893195" style="stroke: #000000; stroke-width: 0.8"/>
      </g>
     </g>
     <g id="text_9">
      <!-- 1 -->
      <g transform="translate(24.338945 240.989386) scale(0.14 -0.14)">
       <use xlink:href="#ArialMT-14"/>
      </g>
     </g>
    </g>
    <g id="ytick_3">
     <g id="line2d_9">
      <g>
       <use xlink:href="#m182db33dab" x="35.624258" y="180.426477" style="stroke: #000000; stroke-width: 0.8"/>
      </g>
     </g>
     <g id="text_10">
      <!-- 2 -->
      <g transform="translate(24.338945 185.522669) scale(0.14 -0.14)">
       <use xlink:href="#ArialMT-15"/>
      </g>
     </g>
    </g>
    <g id="ytick_4">
     <g id="line2d_10">
      <g>
       <use xlink:href="#m182db33dab" x="35.624258" y="124.95976" style="stroke: #000000; stroke-width: 0.8"/>
      </g>
     </g>
     <g id="text_11">
      <!-- 3 -->
      <g transform="translate(24.338945 130.055951) scale(0.14 -0.14)">
       <defs>
        <path id="ArialMT-16" d="M 269 1209 
L 831 1284 
Q 928 806 1161 595 
Q 1394 384 1728 384 
Q 2125 384 2398 659 
Q 2672 934 2672 1341 
Q 2672 1728 2419 1979 
Q 2166 2231 1775 2231 
Q 1616 2231 1378 2169 
L 1441 2663 
Q 1497 2656 1531 2656 
Q 1891 2656 2178 2843 
Q 2466 3031 2466 3422 
Q 2466 3731 2256 3934 
Q 2047 4138 1716 4138 
Q 1388 4138 1169 3931 
Q 950 3725 888 3313 
L 325 3413 
Q 428 3978 793 4289 
Q 1159 4600 1703 4600 
Q 2078 4600 2393 4439 
Q 2709 4278 2876 4000 
Q 3044 3722 3044 3409 
Q 3044 3113 2884 2869 
Q 2725 2625 2413 2481 
Q 2819 2388 3044 2092 
Q 3269 1797 3269 1353 
Q 3269 753 2831 336 
Q 2394 -81 1725 -81 
Q 1122 -81 723 278 
Q 325 638 269 1209 
z
" transform="scale(0.015625)"/>
       </defs>
       <use xlink:href="#ArialMT-16"/>
      </g>
     </g>
    </g>
    <g id="ytick_5">
     <g id="line2d_11">
      <g>
       <use xlink:href="#m182db33dab" x="35.624258" y="69.493042" style="stroke: #000000; stroke-width: 0.8"/>
      </g>
     </g>
     <g id="text_12">
      <!-- 4 -->
      <g transform="translate(24.338945 74.589233) scale(0.14 -0.14)">
       <use xlink:href="#ArialMT-17"/>
      </g>
     </g>
    </g>
    <g id="text_13">
     <!-- Ion Current (m/z 16) -->
     <g transform="translate(17.392383 234.056768) rotate(-90) scale(0.14 -0.14)">
      <defs>
       <path id="ArialMT-2c" d="M 597 0 
L 597 4581 
L 1203 4581 
L 1203 0 
L 597 0 
z
" transform="scale(0.015625)"/>
       <path id="ArialMT-52" d="M 213 1659 
Q 213 2581 725 3025 
Q 1153 3394 1769 3394 
Q 2453 3394 2887 2945 
Q 3322 2497 3322 1706 
Q 3322 1066 3130 698 
Q 2938 331 2570 128 
Q 2203 -75 1769 -75 
Q 1072 -75 642 372 
Q 213 819 213 1659 
z
M 791 1659 
Q 791 1022 1069 705 
Q 1347 388 1769 388 
Q 2188 388 2466 706 
Q 2744 1025 2744 1678 
Q 2744 2294 2464 2611 
Q 2184 2928 1769 2928 
Q 1347 2928 1069 2612 
Q 791 2297 791 1659 
z
" transform="scale(0.015625)"/>
       <path id="ArialMT-51" d="M 422 0 
L 422 3319 
L 928 3319 
L 928 2847 
Q 1294 3394 1984 3394 
Q 2284 3394 2536 3286 
Q 2788 3178 2913 3003 
Q 3038 2828 3088 2588 
Q 3119 2431 3119 2041 
L 3119 0 
L 2556 0 
L 2556 2019 
Q 2556 2363 2490 2533 
Q 2425 2703 2258 2804 
Q 2091 2906 1866 2906 
Q 1506 2906 1245 2678 
Q 984 2450 984 1813 
L 984 0 
L 422 0 
z
" transform="scale(0.015625)"/>
       <path id="ArialMT-12" d="M 0 -78 
L 1328 4659 
L 1778 4659 
L 453 -78 
L 0 -78 
z
" transform="scale(0.015625)"/>
       <path id="ArialMT-5d" d="M 125 0 
L 125 456 
L 2238 2881 
Q 1878 2863 1603 2863 
L 250 2863 
L 250 3319 
L 2963 3319 
L 2963 2947 
L 1166 841 
L 819 456 
Q 1197 484 1528 484 
L 3063 484 
L 3063 0 
L 125 0 
z
" transform="scale(0.015625)"/>
      </defs>
      <use xlink:href="#ArialMT-2c"/>
      <use xlink:href="#ArialMT-52" transform="translate(27.78125 0)"/>
      <use xlink:href="#ArialMT-51" transform="translate(83.390625 0)"/>
      <use xlink:href="#ArialMT-3" transform="translate(139 0)"/>
      <use xlink:href="#ArialMT-26" transform="translate(166.78125 0)"/>
      <use xlink:href="#ArialMT-58" transform="translate(239 0)"/>
      <use xlink:href="#ArialMT-55" transform="translate(294.609375 0)"/>
      <use xlink:href="#ArialMT-55" transform="translate(327.90625 0)"/>
      <use xlink:href="#ArialMT-48" transform="translate(361.203125 0)"/>
      <use xlink:href="#ArialMT-51" transform="translate(416.8125 0)"/>
      <use xlink:href="#ArialMT-57" transform="translate(472.421875 0)"/>
      <use xlink:href="#ArialMT-3" transform="translate(500.203125 0)"/>
      <use xlink:href="#ArialMT-b" transform="translate(527.984375 0)"/>
      <use xlink:href="#ArialMT-50" transform="translate(561.28125 0)"/>
      <use xlink:href="#ArialMT-12" transform="translate(644.578125 0)"/>
      <use xlink:href="#ArialMT-5d" transform="translate(672.359375 0)"/>
      <use xlink:href="#ArialMT-3" transform="translate(722.359375 0)"/>
      <use xlink:href="#ArialMT-14" transform="translate(750.140625 0)"/>
      <use xlink:href="#ArialMT-19" transform="translate(805.75 0)"/>
      <use xlink:href="#ArialMT-c" transform="translate(861.359375 0)"/>
     </g>
    </g>
    <g id="text_14">
     <!-- 1e−11 -->
     <g transform="translate(35.624258 36.679004) scale(0.14 -0.14)">
      <defs>
       <path id="ArialMT-ed" d="M 3381 1997 
L 356 1997 
L 356 2522 
L 3381 2522 
L 3381 1997 
z
" transform="scale(0.015625)"/>
      </defs>
      <use xlink:href="#ArialMT-14"/>
      <use xlink:href="#ArialMT-48" transform="translate(55.609375 0)"/>
      <use xlink:href="#ArialMT-ed" transform="translate(111.21875 0)"/>
      <use xlink:href="#ArialMT-14" transform="translate(169.625 0)"/>
      <use xlink:href="#ArialMT-14" transform="translate(217.8125 0)"/>
     </g>
    </g>
   </g>
   <g id="line2d_12">
    <path d="M 34.58534 290.792959 
L 34.58534 290.83664 
L 34.505423 290.542158 
L 34.505423 290.584777 
L 35.624258 290.648541 
L 37.222593 290.59906 
L 41.97764 290.731083 
L 49.010314 290.817733 
L 51.367858 290.745183 
L 61.117702 290.700179 
L 67.830709 290.674609 
L 71.626755 290.643156 
L 76.621552 290.794006 
L 100.276911 290.519462 
L 104.112915 290.112872 
L 107.869002 289.867273 
L 110.346422 289.713467 
L 115.30126 289.137199 
L 130.365568 287.62642 
L 131.564319 287.645796 
L 132.842987 287.406852 
L 139.036536 286.808719 
L 141.513955 286.345808 
L 146.588669 285.589561 
L 147.867337 285.53693 
L 150.384715 285.189732 
L 154.020927 283.981509 
L 155.299595 283.662009 
L 156.538305 283.56403 
L 160.294392 282.439406 
L 162.771811 281.155772 
L 165.249231 279.26233 
L 166.527899 278.117009 
L 168.96536 275.498086 
L 170.244028 273.99839 
L 171.522696 272.020198 
L 172.681489 269.752742 
L 174.000115 266.569802 
L 176.59741 258.188432 
L 177.796161 254.40484 
L 179.154746 251.390306 
L 180.393455 249.382719 
L 181.632165 248.152739 
L 182.830916 248.409796 
L 184.029668 249.015334 
L 185.268377 250.13583 
L 186.467129 251.029907 
L 187.745797 251.385625 
L 189.024465 251.924543 
L 191.501884 254.519172 
L 192.780552 256.05976 
L 193.979303 257.327588 
L 195.257971 258.917376 
L 197.775349 261.293918 
L 198.9741 261.943467 
L 200.21281 261.626352 
L 202.810104 260.658458 
L 204.048814 259.583499 
L 205.207607 258.972332 
L 206.446317 258.696318 
L 207.724985 258.810554 
L 208.963694 259.713739 
L 211.481072 262.775411 
L 213.918533 266.148238 
L 215.197201 267.49526 
L 218.873372 270.371734 
L 220.112081 271.016487 
L 222.629459 273.192032 
L 223.82821 273.418592 
L 226.345588 272.928061 
L 230.061717 271.669282 
L 231.340385 271.562567 
L 232.579095 271.947672 
L 233.857763 272.834243 
L 235.056514 273.883813 
L 236.295224 273.95197 
L 240.051311 275.688013 
L 241.250063 275.794241 
L 243.76744 275.434597 
L 245.046108 275.161715 
L 247.523528 274.830284 
L 248.802196 274.453825 
L 251.319573 274.567219 
L 252.558283 274.333014 
L 253.796993 274.313297 
L 256.274412 273.960746 
L 257.513122 273.51962 
L 259.950583 273.5396 
L 261.269209 273.288798 
L 262.46796 273.180239 
L 266.224048 271.707381 
L 271.178886 270.185831 
L 272.417596 269.926023 
L 274.934974 268.444119 
L 276.173683 267.304458 
L 277.412393 266.441977 
L 278.691061 265.839984 
L 279.889812 265.766613 
L 283.6459 265.151014 
L 284.844651 264.787886 
L 287.362029 263.36494 
L 288.640697 262.227412 
L 291.078158 260.614075 
L 292.276909 259.428329 
L 297.471498 252.699108 
L 298.710208 251.803174 
L 299.988876 251.200856 
L 301.267544 251.108681 
L 302.546212 251.84963 
L 306.222383 253.183867 
L 307.421134 253.454594 
L 308.659843 253.2865 
L 311.177221 254.264671 
L 312.415931 254.468179 
L 313.654641 255.001224 
L 318.569521 257.76117 
L 319.80823 258.026274 
L 321.086899 258.121018 
L 322.325608 258.485056 
L 323.604276 258.516209 
L 327.280447 258.068876 
L 328.559115 258.170117 
L 329.797825 257.833815 
L 330.996576 257.923756 
L 333.513954 257.861092 
L 334.752663 257.902944 
L 337.190124 258.701765 
L 338.508751 258.746724 
L 340.946212 258.31554 
L 343.463589 256.956133 
L 344.702299 256.48599 
L 345.980967 255.704934 
L 347.179718 255.213537 
L 348.418428 254.833353 
L 349.617179 253.900669 
L 352.174515 252.455006 
L 353.413225 251.47961 
L 355.850686 248.032183 
L 357.129354 246.382327 
L 358.288147 244.087813 
L 359.606773 242.115621 
L 360.845483 239.85187 
L 362.124151 237.103638 
L 363.282944 235.002076 
L 364.521654 232.502884 
L 365.800322 229.488365 
L 367.07899 226.151586 
L 368.237783 222.780799 
L 369.436534 218.942865 
L 370.795119 214.971002 
L 374.71104 200.842545 
L 376.1895 195.523438 
L 377.468168 189.632529 
L 381.264213 170.26187 
L 382.542881 164.595527 
L 383.661716 158.451144 
L 387.49772 140.311054 
L 389.935181 130.011574 
L 392.4126 120.800644 
L 393.731227 116.843506 
L 396.208646 110.768145 
L 397.407397 108.646768 
L 398.686065 108.107978 
L 399.964733 107.019585 
L 402.402194 108.547138 
L 404.999489 110.484357 
L 406.118323 112.155928 
L 407.396991 113.582421 
L 412.35183 124.926345 
L 414.829249 132.660645 
L 416.187834 137.03215 
L 418.585337 147.018316 
L 419.704171 152.883391 
L 421.302506 158.972927 
L 422.421341 165.034473 
L 424.858802 176.035319 
L 428.534973 192.027361 
L 429.773682 196.28032 
L 430.932475 201.281112 
L 432.29106 205.652126 
L 433.489811 208.89275 
L 434.728521 212.786681 
L 437.165982 217.099305 
L 438.604483 219.051573 
L 439.723318 221.031264 
L 444.59824 228.298237 
L 445.876908 229.635634 
L 448.354327 231.596998 
L 449.712912 232.151292 
L 452.23029 232.81775 
L 453.269208 233.26413 
L 454.867543 233.773998 
L 456.266086 233.771133 
L 457.624671 233.155595 
L 459.063172 232.875313 
L 460.10209 232.14243 
L 461.540591 232.638591 
L 465.136845 230.354548 
L 466.455472 229.689279 
L 467.494389 228.177595 
L 469.012808 226.539946 
L 469.971809 223.811323 
L 471.370352 220.597671 
L 472.569103 217.153863 
L 473.927688 214.00514 
L 475.006564 209.035534 
L 476.285232 204.497694 
L 477.5639 199.507521 
L 478.962444 193.413284 
L 480.081278 187.595159 
L 483.797407 163.719762 
L 486.234868 143.539036 
L 487.513536 131.149451 
L 491.229665 87.646034 
L 493.82696 51.945932 
L 493.82696 51.945932 
" clip-path="url(#pe4a59722ae)" style="fill: none; stroke: #000000; stroke-width: 2.5; stroke-linecap: square"/>
   </g>
   <g id="line2d_13">
    <path d="M 33.946006 291.182621 
L 33.946006 290.943517 
L 33.946006 291.026342 
L 35.544341 290.983124 
L 49.769523 290.982953 
L 53.245902 290.957472 
L 55.683363 291.04219 
L 61.996786 290.983535 
L 64.753914 291.007642 
L 68.749752 291.119349 
L 84.892936 290.843696 
L 89.927691 291.047746 
L 94.88253 290.973063 
L 99.917285 290.685384 
L 101.155995 290.682556 
L 103.673373 290.490097 
L 104.912082 290.540948 
L 111.185548 290.100183 
L 114.941635 289.761939 
L 123.692519 288.513858 
L 127.448607 288.052591 
L 131.244652 287.163579 
L 132.483362 286.876727 
L 135.00074 286.634563 
L 138.636952 286.206672 
L 139.91562 285.883677 
L 142.472956 285.510373 
L 143.751624 285.141768 
L 145.030292 284.631078 
L 147.507712 284.068931 
L 152.502509 282.936213 
L 153.661302 282.606487 
L 154.93997 282.423377 
L 157.377431 281.197611 
L 158.656099 280.744811 
L 161.09356 279.518394 
L 163.650896 278.013755 
L 164.849647 276.745125 
L 166.088357 275.683409 
L 167.327066 274.474639 
L 171.123112 270.074488 
L 177.396577 261.466978 
L 178.675245 260.170395 
L 179.993872 258.425336 
L 181.232581 257.131719 
L 182.431333 256.361923 
L 183.670042 255.779214 
L 184.908752 255.765556 
L 186.18742 256.163535 
L 187.386171 256.695993 
L 188.624881 257.560838 
L 191.1023 259.869638 
L 192.34101 260.696356 
L 194.858388 262.93332 
L 196.137056 263.726007 
L 197.375765 264.343577 
L 198.574517 264.716899 
L 199.893143 264.966888 
L 201.091894 265.048977 
L 202.330604 264.961832 
L 203.609272 264.996823 
L 206.046733 265.597134 
L 207.285443 266.163591 
L 214.757659 268.286215 
L 215.996369 268.29118 
L 217.235078 268.508053 
L 218.473788 268.468003 
L 219.752456 269.085204 
L 220.991166 269.268284 
L 225.985963 271.176303 
L 227.224672 271.563986 
L 228.463382 271.201205 
L 229.702092 271.110743 
L 230.940801 270.764497 
L 232.179511 270.677886 
L 233.418221 270.405107 
L 235.89564 270.422793 
L 239.691686 270.965129 
L 240.970354 270.954366 
L 242.169105 271.205497 
L 244.726441 270.981136 
L 247.243819 270.717031 
L 249.68128 270.384855 
L 250.91999 270.189647 
L 254.676077 269.848111 
L 258.352248 269.475927 
L 259.590957 269.591638 
L 260.869625 269.394595 
L 263.347045 269.382787 
L 264.585754 269.049037 
L 273.336639 265.125371 
L 275.7741 264.417849 
L 280.768897 262.247419 
L 282.047565 261.286747 
L 283.286274 260.023794 
L 284.524984 258.245243 
L 289.439864 249.34487 
L 290.718532 247.603115 
L 291.997201 246.615318 
L 293.23591 246.262698 
L 294.514578 246.036288 
L 298.350582 247.679009 
L 300.86796 248.708028 
L 302.066711 248.918767 
L 303.345379 248.98267 
L 307.101467 249.985898 
L 313.334974 254.412046 
L 315.772434 255.527527 
L 318.209895 256.374474 
L 321.965983 256.494343 
L 323.164734 256.449573 
L 324.443402 256.156801 
L 328.119573 254.748903 
L 329.318324 253.99625 
L 330.63695 253.77859 
L 331.915619 252.70552 
L 333.154328 251.87949 
L 334.353079 251.333574 
L 335.551831 250.640211 
L 336.750582 249.807635 
L 338.069208 249.145962 
L 339.307918 248.335982 
L 343.024047 246.775209 
L 344.262757 245.681031 
L 345.581383 244.272916 
L 346.780135 242.73633 
L 348.138719 241.198589 
L 350.416347 237.080596 
L 351.774932 235.185659 
L 352.973683 232.991794 
L 354.212393 231.33511 
L 355.491061 229.256339 
L 356.809687 226.47736 
L 362.923319 209.990368 
L 364.201987 206.083497 
L 365.440696 201.57072 
L 366.639448 198.235145 
L 370.315618 183.272544 
L 371.594286 178.175145 
L 374.231539 166.030122 
L 375.749957 159.540451 
L 378.307293 144.746205 
L 379.546003 139.089775 
L 380.824671 132.686319 
L 384.580759 118.989947 
L 385.819468 115.219201 
L 387.098136 111.931344 
L 388.416763 109.680847 
L 389.655472 106.460031 
L 390.69439 105.534374 
L 392.092933 105.431648 
L 393.371601 104.678997 
L 394.570353 105.127814 
L 395.809062 105.12583 
L 397.127689 106.728102 
L 398.366398 108.736458 
L 399.525191 110.947132 
L 400.803859 113.672052 
L 402.042569 115.938461 
L 405.798656 126.131951 
L 407.077324 130.137567 
L 408.196159 134.182433 
L 411.992205 150.246767 
L 416.947043 172.822629 
L 418.105836 178.299728 
L 422.021757 193.943334 
L 423.140592 199.385806 
L 424.379301 203.81869 
L 425.89772 208.503555 
L 427.056513 212.768709 
L 428.215306 215.745909 
L 429.374098 219.862112 
L 430.652766 223.196253 
L 431.811559 226.573946 
L 433.090227 229.355177 
L 434.368895 231.330063 
L 435.527688 233.53431 
L 436.886273 235.54765 
L 440.522485 240.08692 
L 442.999905 243.626755 
L 444.35849 245.820107 
L 445.517282 247.248381 
L 449.313328 250.71434 
L 450.51208 251.277265 
L 451.750789 252.087955 
L 452.789707 252.292849 
L 456.066294 252.564416 
L 458.503755 253.741417 
L 459.86234 254.050633 
L 461.141008 254.645368 
L 462.139967 255.347996 
L 463.578469 255.51294 
L 464.697303 255.763756 
L 467.254639 254.020375 
L 470.970768 249.961391 
L 472.049644 248.222434 
L 473.448188 246.939905 
L 474.686897 245.299006 
L 475.925607 243.186129 
L 477.164317 240.766982 
L 478.442985 237.337675 
L 479.881486 233.801121 
L 480.840487 230.016307 
L 482.159114 226.616807 
L 483.597615 221.305266 
L 484.516658 215.698149 
L 485.875243 209.206268 
L 487.153911 201.608383 
L 488.15287 193.532413 
L 490.909998 173.824688 
L 492.268583 163.362707 
L 494.30646 142.434533 
L 494.30646 142.434533 
" clip-path="url(#pe4a59722ae)" style="fill: none; stroke: #1f77b4; stroke-width: 2.5; stroke-linecap: square"/>
   </g>
   <g id="line2d_14">
    <path d="M 33.546422 290.977876 
L 33.466505 290.895434 
L 33.506464 290.998775 
L 33.586381 290.941062 
L 33.946006 290.926 
L 35.024882 291.017258 
L 55.203862 290.894149 
L 57.72124 290.793629 
L 70.747671 290.986097 
L 71.946422 290.924271 
L 74.423841 290.937869 
L 88.289398 290.886904 
L 90.606984 290.966846 
L 96.960366 290.944529 
L 106.989918 290.656732 
L 109.587212 290.157708 
L 110.825922 289.899742 
L 113.263383 289.635682 
L 114.502093 289.654606 
L 117.099387 289.397574 
L 118.378055 289.506205 
L 120.775558 289.322945 
L 125.810313 288.589195 
L 127.049023 288.474543 
L 129.566401 287.939695 
L 135.799907 286.66606 
L 137.078575 286.329537 
L 138.357243 286.281509 
L 140.834663 285.654572 
L 143.312082 284.76721 
L 150.784298 282.846673 
L 154.540386 280.853663 
L 155.779096 280.332489 
L 157.017805 279.668187 
L 161.932685 276.373035 
L 163.211354 275.187383 
L 164.450063 273.786026 
L 165.688773 272.932143 
L 168.206151 269.946618 
L 169.44486 268.178985 
L 170.763487 266.519299 
L 173.280864 263.944275 
L 175.8382 261.552176 
L 177.07691 260.688168 
L 178.31562 260.04625 
L 179.514371 258.981648 
L 180.753081 258.260569 
L 181.99179 257.734417 
L 183.2305 258.208978 
L 185.747878 259.80365 
L 186.986587 260.705258 
L 189.464007 262.096844 
L 191.981385 262.78995 
L 193.260053 262.805158 
L 194.498762 263.041606 
L 195.657555 263.498677 
L 196.976182 263.615613 
L 198.174933 264.057045 
L 199.493559 264.092033 
L 200.692311 264.320562 
L 203.209688 264.453097 
L 204.448398 264.76391 
L 205.687108 264.906774 
L 209.363278 265.716392 
L 210.641946 266.366377 
L 211.920614 266.743261 
L 215.596785 268.371504 
L 218.074204 268.599612 
L 220.591582 269.344163 
L 223.069001 269.940636 
L 224.307711 269.70043 
L 225.586379 269.608549 
L 226.78513 269.829198 
L 228.063798 269.755152 
L 229.302508 269.387555 
L 230.541218 269.186208 
L 231.739969 269.347972 
L 234.257347 269.082626 
L 235.456098 268.88599 
L 236.734766 268.491513 
L 237.933517 268.371966 
L 239.252144 268.634371 
L 240.410937 268.638589 
L 241.729563 268.847933 
L 242.968273 268.616132 
L 244.167024 268.894793 
L 245.445692 268.868359 
L 249.201779 267.480081 
L 250.440489 266.794593 
L 251.679199 266.747791 
L 252.917908 266.025995 
L 254.156618 265.821053 
L 255.395328 265.343765 
L 256.673996 265.162192 
L 257.872747 264.82291 
L 259.191374 264.138552 
L 261.668793 263.333538 
L 262.907503 262.690542 
L 264.066295 262.739756 
L 265.42488 262.024992 
L 267.862341 261.434597 
L 270.379719 260.440408 
L 271.618429 259.924126 
L 274.135806 259.191414 
L 275.414474 258.762014 
L 276.613226 258.060228 
L 277.851935 257.135924 
L 279.050687 255.588414 
L 280.369313 254.684406 
L 281.608023 253.6204 
L 286.562861 247.530804 
L 289.000322 243.88877 
L 290.27899 243.14427 
L 291.5177 242.265032 
L 292.75641 242.705288 
L 294.035078 242.962571 
L 295.273787 242.799126 
L 297.950999 242.977114 
L 299.109792 242.902492 
L 300.428418 243.142797 
L 301.667128 243.764402 
L 302.905837 245.698421 
L 304.144547 247.255053 
L 305.383257 249.092729 
L 306.582008 250.45899 
L 309.139344 252.799293 
L 310.338095 253.58434 
L 311.576805 254.587576 
L 314.094183 255.773093 
L 315.292934 256.750065 
L 317.810312 257.239216 
L 321.486482 257.224871 
L 322.725192 257.442897 
L 324.00386 257.449956 
L 325.282528 257.188882 
L 326.441321 257.1847 
L 328.91874 256.786831 
L 332.714786 255.70715 
L 333.913537 255.106851 
L 335.192205 254.815738 
L 336.430915 253.957554 
L 338.868376 253.162263 
L 340.067127 252.542848 
L 342.584505 252.255921 
L 345.061924 250.907681 
L 346.340592 250.035138 
L 347.659219 248.717392 
L 348.85797 246.901811 
L 350.016763 245.907475 
L 353.812809 240.949921 
L 355.091477 239.699462 
L 356.370145 237.612178 
L 358.807606 232.065292 
L 361.245067 225.721314 
L 363.722486 219.9044 
L 364.921237 217.06111 
L 367.518532 211.8444 
L 368.717283 208.448107 
L 369.916034 204.326176 
L 371.234661 200.356785 
L 372.393454 196.021525 
L 376.669 182.318461 
L 377.90771 177.455945 
L 381.743714 164.450135 
L 384.181175 156.502719 
L 385.459843 152.878103 
L 387.857345 149.505516 
L 389.21593 148.828782 
L 390.45464 147.899745 
L 391.69335 148.179766 
L 392.892101 148.885675 
L 394.090852 148.97144 
L 395.289603 148.852414 
L 396.648188 148.425504 
L 397.886898 150.277276 
L 399.125608 151.352215 
L 400.244442 152.850601 
L 401.603027 155.354811 
L 402.921653 157.415538 
L 404.040488 160.794411 
L 405.359114 163.074413 
L 406.557866 165.629049 
L 407.836534 169.647909 
L 409.035285 172.794709 
L 410.39387 176.926931 
L 411.552663 179.905815 
L 417.826128 200.522979 
L 418.984921 205.478303 
L 420.263589 210.414153 
L 421.582215 213.742206 
L 422.661091 217.721507 
L 426.37722 228.81737 
L 430.053391 237.641371 
L 432.650685 241.787827 
L 435.208021 244.034905 
L 436.366814 245.410764 
L 437.725399 246.393576 
L 440.082943 249.11485 
L 441.361611 251.003059 
L 442.640279 252.068111 
L 443.878989 253.884393 
L 445.157657 255.494851 
L 447.515201 257.874106 
L 448.833828 258.943913 
L 450.032579 259.755969 
L 451.311247 260.871823 
L 452.47004 261.649375 
L 453.868583 262.302257 
L 455.347043 262.422454 
L 456.865461 263.118603 
L 458.024254 263.408054 
L 459.342881 263.48616 
L 460.621549 263.90418 
L 461.900217 264.495759 
L 463.138926 264.767367 
L 465.496471 265.726568 
L 466.73518 265.754486 
L 469.172641 264.808344 
L 473.088562 262.727916 
L 474.12748 262.484728 
L 475.446106 261.9122 
L 478.003442 259.633178 
L 479.162235 258.258501 
L 481.719571 254.821141 
L 482.918323 252.967762 
L 484.316866 251.026845 
L 485.395742 248.643979 
L 486.754327 246.3219 
L 487.993037 243.113465 
L 489.031954 239.09921 
L 490.270664 234.77598 
L 491.829041 230.309064 
L 493.06775 225.863755 
L 493.986793 221.60534 
L 493.986793 221.60534 
" clip-path="url(#pe4a59722ae)" style="fill: none; stroke: #d62728; stroke-width: 2.5; stroke-linecap: square"/>
   </g>
   <g id="line2d_15">
    <path d="M 35.384508 291.014866 
L 35.344549 290.795982 
L 35.304591 291.154941 
L 35.264632 291.172091 
L 35.464424 291.062191 
L 36.0638 290.979412 
L 39.460262 290.940854 
L 47.531854 290.987458 
L 54.844237 290.893643 
L 59.799076 290.981942 
L 63.754955 291.055486 
L 69.109377 290.912669 
L 71.586797 290.880375 
L 74.064216 290.963787 
L 80.217806 291.205218 
L 101.435704 290.304298 
L 103.953081 290.070634 
L 112.743924 289.82073 
L 121.614684 288.823685 
L 124.132061 288.609696 
L 127.888149 288.294395 
L 129.166817 288.137174 
L 131.644236 287.636786 
L 134.161614 287.29519 
L 135.440282 287.002461 
L 136.678992 286.549362 
L 139.076494 286.023791 
L 140.315204 285.561594 
L 141.553914 285.25959 
L 142.832582 284.718996 
L 144.071291 284.353416 
L 145.270043 283.783589 
L 149.02613 281.575445 
L 150.26484 281.120611 
L 157.816973 277.141164 
L 160.33435 275.164612 
L 161.533102 273.731568 
L 162.81177 272.406758 
L 165.289189 269.236517 
L 170.204069 261.615271 
L 175.278783 249.28311 
L 179.034871 238.275092 
L 180.27358 235.15705 
L 181.472332 231.665791 
L 184.029668 224.877825 
L 185.308336 223.073849 
L 186.507087 222.075741 
L 187.745797 221.649462 
L 188.984506 221.809591 
L 190.263174 223.370625 
L 195.218013 234.745016 
L 197.695432 239.900856 
L 198.934142 241.997966 
L 200.21281 242.939231 
L 205.207607 246.049998 
L 206.446317 247.21391 
L 207.724985 248.187195 
L 211.521031 252.058912 
L 212.719782 252.680922 
L 217.714579 255.960869 
L 218.953289 257.030347 
L 220.15204 257.786741 
L 221.430708 258.735696 
L 222.709376 259.527979 
L 225.106879 260.657012 
L 228.862966 261.340753 
L 230.061717 261.134827 
L 231.340385 261.413233 
L 232.619053 261.295019 
L 233.857763 261.561603 
L 235.056514 261.678314 
L 237.61385 261.181529 
L 238.772643 261.015976 
L 240.011353 260.601695 
L 243.76744 259.90708 
L 245.00615 259.84885 
L 252.478366 256.332736 
L 253.757034 256.415904 
L 254.915827 255.99697 
L 256.234454 255.694918 
L 257.473163 255.632379 
L 258.751831 254.662311 
L 261.229251 253.954936 
L 262.428002 253.343073 
L 264.94538 252.635253 
L 266.184089 252.446606 
L 267.422799 251.444403 
L 268.701467 250.747951 
L 269.980135 249.72774 
L 271.218845 249.343495 
L 272.457554 248.648626 
L 274.895015 246.989715 
L 278.611144 244.664443 
L 281.088564 243.028877 
L 282.367232 242.347973 
L 283.6459 241.856223 
L 286.083361 238.96863 
L 287.32207 236.802035 
L 289.879407 231.658215 
L 290.998241 228.883044 
L 292.316868 226.658503 
L 293.515619 224.939865 
L 294.834245 223.873226 
L 296.19283 223.646826 
L 297.471498 224.183343 
L 298.670249 224.913387 
L 301.147669 226.782523 
L 306.142466 229.265217 
L 307.381175 230.136194 
L 308.619885 231.573516 
L 309.858595 232.779405 
L 311.137263 233.65199 
L 312.375972 234.948243 
L 313.614682 235.875654 
L 314.933309 236.446649 
L 316.052143 237.241508 
L 319.80823 239.083654 
L 321.04694 239.857505 
L 322.28565 240.439727 
L 323.524359 240.668666 
L 324.763069 240.43033 
L 326.041737 240.309367 
L 327.280447 239.70729 
L 328.519157 239.548047 
L 329.717908 239.567488 
L 330.996576 239.368429 
L 333.473995 239.522907 
L 334.752663 239.551088 
L 335.991373 238.897727 
L 337.190124 237.777041 
L 338.428834 237.297619 
L 342.144963 234.467245 
L 343.383673 233.685958 
L 344.742257 233.02995 
L 345.90105 232.13426 
L 347.179718 231.302136 
L 348.37847 229.924062 
L 350.935806 227.207071 
L 352.174515 225.245835 
L 353.333308 222.969739 
L 355.810728 217.317769 
L 358.328105 209.861821 
L 360.885441 202.317063 
L 362.084193 198.321618 
L 366.999073 183.352432 
L 368.197824 178.447312 
L 369.516451 173.657504 
L 370.675244 168.355233 
L 371.99387 162.950871 
L 373.152663 156.787516 
L 376.1895 143.20615 
L 380.10542 124.74572 
L 381.264213 118.639314 
L 382.58284 113.988558 
L 383.821549 108.810058 
L 384.980342 104.785772 
L 386.25901 101.714033 
L 387.537678 99.144556 
L 388.696471 97.286088 
L 389.935181 96.454828 
L 391.213849 95.96874 
L 392.492517 96.267585 
L 393.851102 96.919252 
L 396.208646 97.576275 
L 398.56619 100.532632 
L 401.083568 104.093526 
L 402.362236 106.339492 
L 403.560987 109.130758 
L 404.879614 111.858256 
L 406.038407 114.972771 
L 407.43695 118.389105 
L 408.555784 122.30245 
L 409.794494 126.154725 
L 411.153079 129.852755 
L 412.271913 134.993805 
L 413.59054 140.126881 
L 414.749333 146.034031 
L 417.546419 156.885948 
L 419.74413 169.296676 
L 422.341424 178.609248 
L 423.460259 183.37356 
L 424.818844 187.806451 
L 426.13747 191.674065 
L 427.296263 195.743976 
L 432.011351 210.079604 
L 433.52977 212.253471 
L 434.728521 215.088256 
L 435.927272 217.155062 
L 438.44465 219.340659 
L 439.563484 221.052472 
L 443.399489 225.477413 
L 445.876908 227.040636 
L 447.115618 227.907708 
L 448.27441 228.477954 
L 449.712912 228.489018 
L 453.229249 229.123949 
L 454.827584 229.545635 
L 456.226127 229.598743 
L 457.464837 229.171134 
L 461.620508 228.020321 
L 463.858177 226.189434 
L 465.176804 224.653374 
L 466.335597 222.968548 
L 467.534348 221.451969 
L 468.733099 219.025651 
L 472.609062 212.990948 
L 473.807813 210.387606 
L 474.926647 207.251686 
L 476.285232 202.683734 
L 477.523942 197.763637 
L 481.439863 178.607067 
L 483.877324 164.774227 
L 485.036117 155.952728 
L 486.035076 145.655497 
L 487.433619 134.612744 
L 488.752246 121.299093 
L 489.990955 106.365892 
L 491.189707 89.793885 
L 493.547251 51.656443 
L 493.547251 51.656443 
" clip-path="url(#pe4a59722ae)" style="fill: none; stroke: #ff7f0e; stroke-width: 2.5; stroke-linecap: square"/>
   </g>
   <g id="line2d_16">
    <path d="M 34.025923 290.564025 
L 34.025923 290.438828 
L 33.946006 290.676608 
L 33.906048 290.639655 
L 33.946006 290.756671 
L 34.025923 290.668227 
L 51.927275 290.804867 
L 53.086068 290.925679 
L 54.324778 290.881805 
L 55.563488 290.707971 
L 59.399492 290.540067 
L 61.836953 290.653443 
L 73.544757 290.723903 
L 76.062135 290.47171 
L 77.380761 290.415626 
L 82.375558 290.587526 
L 84.813019 290.625873 
L 89.927691 290.246419 
L 94.88253 290.115986 
L 97.359949 290.157403 
L 103.593456 289.712979 
L 104.872124 289.4259 
L 118.737681 288.231629 
L 119.97639 288.253788 
L 122.493768 287.991561 
L 125.011146 287.466385 
L 128.687316 286.963602 
L 132.443404 286.613628 
L 134.960781 286.337959 
L 136.199491 285.975128 
L 137.398242 285.812247 
L 142.432998 284.621872 
L 148.626546 282.087546 
L 149.865256 281.813869 
L 157.457347 278.158277 
L 159.934767 276.370097 
L 161.173476 275.420961 
L 164.849647 273.366936 
L 169.804486 268.001229 
L 171.003237 266.263895 
L 172.321863 265.043694 
L 173.600531 263.443706 
L 176.077951 261.087551 
L 179.834038 255.630134 
L 181.112706 254.177594 
L 182.351416 253.298741 
L 183.550167 252.78092 
L 184.828835 253.067316 
L 186.067545 253.023331 
L 187.346213 253.193398 
L 189.863591 254.1614 
L 191.1023 255.020736 
L 192.301052 255.520454 
L 197.25589 258.76675 
L 198.4946 258.844394 
L 199.773268 258.498303 
L 200.972019 258.619141 
L 203.529355 258.621278 
L 204.728107 258.096151 
L 205.966816 258.311755 
L 207.205526 258.19901 
L 208.484194 258.498033 
L 209.762862 258.962594 
L 211.001572 258.97652 
L 212.240281 259.170338 
L 213.478991 259.589297 
L 214.757659 259.748661 
L 217.19512 259.711272 
L 218.513746 259.858595 
L 219.712498 259.574989 
L 223.468585 260.181328 
L 224.667336 260.54865 
L 227.144756 260.920192 
L 228.463382 260.554594 
L 229.662133 260.735515 
L 230.900843 260.501047 
L 232.139553 259.864391 
L 233.418221 259.77675 
L 235.89564 258.966861 
L 237.13435 258.407274 
L 240.930396 257.051702 
L 242.169105 257.075693 
L 244.646525 256.811033 
L 245.845276 256.931311 
L 247.083986 256.883934 
L 248.362654 255.993029 
L 249.561405 255.843542 
L 253.317492 254.781515 
L 256.993663 252.502954 
L 258.272331 252.061297 
L 260.829667 249.726213 
L 262.028418 249.507814 
L 263.22717 248.403787 
L 265.744547 247.223437 
L 269.500635 244.549415 
L 270.699386 243.969021 
L 274.415515 240.99199 
L 275.734141 239.376374 
L 276.972851 238.378824 
L 278.171602 237.617511 
L 279.45027 236.302693 
L 281.92769 233.214425 
L 284.405109 229.54242 
L 285.643819 227.182488 
L 288.121238 223.250299 
L 289.399906 222.093538 
L 291.877325 220.885287 
L 295.71333 219.51095 
L 298.310624 218.967598 
L 299.549334 218.888613 
L 300.788043 218.966181 
L 302.066711 219.369097 
L 303.345379 219.953877 
L 304.504172 220.775429 
L 306.981592 223.569033 
L 308.140385 225.409961 
L 310.737679 228.161948 
L 311.976389 229.115843 
L 313.135182 229.81017 
L 315.652559 230.134976 
L 316.891269 230.532075 
L 318.129979 231.176074 
L 319.368688 231.605748 
L 320.647356 232.398864 
L 321.886066 232.77764 
L 324.363485 233.894172 
L 325.562237 234.230674 
L 326.800946 234.178657 
L 327.999698 233.874616 
L 329.398241 233.346927 
L 331.795743 231.334747 
L 332.994495 230.806312 
L 334.353079 229.884993 
L 335.511872 229.624317 
L 336.710624 229.114359 
L 337.989292 228.176767 
L 339.228001 227.087908 
L 341.745379 223.646692 
L 347.978886 213.52272 
L 349.217595 210.489562 
L 354.132476 196.17425 
L 357.888563 184.331691 
L 359.087314 179.596065 
L 361.644651 168.86176 
L 364.042153 156.370959 
L 367.79824 137.920132 
L 371.554328 116.210787 
L 372.793038 108.042911 
L 379.506045 71.412453 
L 382.103339 60.928108 
L 383.342049 57.097247 
L 384.580759 56.500801 
L 385.819468 55.038607 
L 386.938303 54.806591 
L 388.336846 56.111903 
L 389.535597 57.435289 
L 390.69439 57.68168 
L 391.973058 59.150005 
L 393.211768 61.987834 
L 395.729146 69.35742 
L 396.927897 73.64844 
L 398.166607 77.210902 
L 399.485233 81.849679 
L 404.48003 102.095695 
L 405.558906 108.364794 
L 406.917491 115.066179 
L 408.196159 120.650926 
L 409.514785 125.545771 
L 413.150998 144.682448 
L 418.065878 166.657683 
L 419.304588 172.34993 
L 420.583256 177.106962 
L 422.061716 181.782562 
L 423.300425 186.280813 
L 424.379301 190.788428 
L 425.657969 195.145858 
L 426.816762 198.456852 
L 427.935597 202.607659 
L 429.254223 207.00128 
L 430.612808 209.920082 
L 431.771601 213.048851 
L 433.050269 215.609926 
L 434.24902 217.405111 
L 435.607605 218.994156 
L 436.846315 220.799703 
L 439.163901 223.794602 
L 440.482527 225.764747 
L 441.761195 227.406509 
L 445.357449 231.226948 
L 446.676075 232.331277 
L 447.954743 232.965455 
L 450.432163 235.535769 
L 451.550997 236.53236 
L 452.789707 237.824923 
L 454.268167 238.476035 
L 455.786585 238.796542 
L 457.105212 238.94517 
L 458.463796 239.237315 
L 459.582631 239.346432 
L 461.141008 239.194472 
L 463.258802 240.397525 
L 464.457553 240.554286 
L 465.816138 240.992215 
L 468.373474 239.446565 
L 469.612183 238.467418 
L 470.890851 237.819525 
L 472.16952 236.110662 
L 473.328312 234.306453 
L 474.567022 232.986229 
L 478.243193 228.114284 
L 479.681694 225.241064 
L 482.159114 219.692481 
L 483.397823 216.500403 
L 485.875243 207.306942 
L 487.073994 202.993354 
L 489.591372 188.98931 
L 491.988874 170.559636 
L 493.307501 158.86722 
L 494.186585 145.235599 
L 494.186585 145.235599 
" clip-path="url(#pe4a59722ae)" style="fill: none; stroke: #9467bd; stroke-width: 2.5; stroke-linecap: square"/>
   </g>
   <g id="line2d_17">
    <path d="M 35.104799 290.742227 
L 35.024882 291.056917 
L 35.024882 290.682251 
L 35.024882 290.790346 
L 34.944965 290.886737 
L 35.064841 290.888116 
L 38.701053 290.955803 
L 41.018639 290.839552 
L 58.040907 290.878708 
L 63.235496 290.610017 
L 67.31125 290.741281 
L 71.147254 290.786151 
L 76.102093 290.729647 
L 78.619471 290.850041 
L 83.614268 290.800252 
L 96.041323 290.040074 
L 102.27483 289.51028 
L 103.513539 289.449081 
L 105.990959 289.007574 
L 112.304382 287.749352 
L 116.140386 287.470278 
L 118.657764 286.98891 
L 119.896474 286.689533 
L 121.135183 286.585167 
L 123.652561 286.1098 
L 126.169939 285.889459 
L 127.448607 285.685939 
L 128.687316 285.336831 
L 129.965984 285.138916 
L 132.443404 284.485334 
L 133.682113 284.291718 
L 134.960781 283.950546 
L 141.194288 282.972191 
L 143.671707 282.025679 
L 148.666505 279.747646 
L 151.103965 278.019207 
L 154.860053 275.157978 
L 156.138721 274.500607 
L 157.337472 273.561751 
L 159.814892 271.235949 
L 162.332269 268.602205 
L 163.570979 267.199484 
L 166.048398 263.033272 
L 168.525818 258.4582 
L 171.043195 252.577434 
L 174.759324 243.41861 
L 176.077951 240.249972 
L 177.31666 236.757356 
L 178.675245 233.935125 
L 179.913955 232.345064 
L 181.112706 231.753013 
L 182.391374 231.871006 
L 183.630084 232.840404 
L 184.908752 234.236753 
L 186.107503 236.011875 
L 187.306254 238.40197 
L 188.544964 240.268076 
L 189.863591 241.883745 
L 192.301052 245.591329 
L 193.57972 247.112944 
L 194.778471 247.977199 
L 196.057139 248.512406 
L 198.574517 249.339379 
L 199.813226 249.919815 
L 201.011978 250.319835 
L 202.290646 250.317218 
L 204.728107 250.808799 
L 207.245484 251.887973 
L 209.722904 253.773222 
L 212.240281 255.827743 
L 213.518949 256.493534 
L 214.717701 256.756406 
L 215.95641 257.175174 
L 218.43383 257.429559 
L 219.712498 257.547836 
L 220.951207 258.006632 
L 222.189917 258.047228 
L 223.468585 258.472823 
L 224.707295 258.64244 
L 227.144756 259.143913 
L 232.139553 259.048098 
L 233.378262 259.077358 
L 234.65693 258.850379 
L 235.89564 259.044417 
L 238.373059 258.40932 
L 240.81052 257.094631 
L 242.089188 256.761437 
L 243.327898 256.574613 
L 244.566608 256.048481 
L 245.805317 255.723309 
L 247.044027 255.008433 
L 248.282737 254.599258 
L 250.800115 252.524302 
L 253.317492 250.763966 
L 254.476285 250.165016 
L 255.714995 249.662846 
L 256.993663 248.926591 
L 258.232373 248.597024 
L 259.471082 247.639223 
L 260.709792 246.985289 
L 263.22717 245.367338 
L 264.465879 244.110412 
L 266.943299 243.207533 
L 268.14205 242.395854 
L 269.420718 241.944261 
L 270.659428 241.028533 
L 271.898137 239.530844 
L 274.455473 237.461395 
L 276.852976 234.525768 
L 278.131644 233.467159 
L 279.330395 231.870013 
L 280.529147 229.650864 
L 281.727898 226.724565 
L 283.086483 222.86752 
L 284.285234 218.91215 
L 285.563902 215.613701 
L 286.762653 213.239822 
L 288.041321 212.246432 
L 289.319989 212.559304 
L 290.558699 213.593851 
L 293.076077 217.791016 
L 295.673371 219.923833 
L 296.991998 220.223274 
L 298.270666 221.259486 
L 299.469417 222.565943 
L 300.548293 223.991235 
L 303.065671 226.899583 
L 305.623007 230.133024 
L 306.901675 230.658086 
L 308.140385 231.55984 
L 309.419053 232.716471 
L 310.657762 234.48041 
L 311.93643 235.760859 
L 313.135182 236.371184 
L 314.41385 237.262295 
L 315.612601 237.813304 
L 316.851311 238.771186 
L 318.129979 239.612776 
L 320.647356 240.862703 
L 321.886066 241.75947 
L 323.124776 242.291496 
L 324.283569 242.410592 
L 325.642153 241.528436 
L 326.800946 241.165247 
L 329.278366 240.665406 
L 330.517075 240.926119 
L 331.795743 240.367925 
L 333.11437 239.299152 
L 338.02925 236.925144 
L 339.347877 235.957792 
L 341.665462 233.804794 
L 343.024047 233.554692 
L 344.18284 231.244063 
L 347.898969 225.483161 
L 349.217595 223.589513 
L 350.456305 220.681402 
L 352.893766 213.657733 
L 354.132476 210.434874 
L 357.928522 196.454087 
L 364.082111 171.380405 
L 366.559531 160.865846 
L 367.838199 155.646058 
L 369.03695 151.503794 
L 370.27566 146.000562 
L 371.634245 141.171705 
L 372.753079 136.708201 
L 378.267335 117.971945 
L 379.506045 114.520829 
L 380.86463 111.619247 
L 382.103339 110.176734 
L 383.342049 108.421513 
L 384.5408 108.841104 
L 385.77951 110.223266 
L 387.01822 111.984231 
L 388.296888 114.267431 
L 389.535597 116.20673 
L 391.973058 120.401739 
L 393.331643 122.63328 
L 394.530394 125.89254 
L 395.769104 128.762253 
L 396.967855 132.446439 
L 398.206565 135.85314 
L 399.485233 139.963796 
L 400.644026 144.894569 
L 404.519988 159.052354 
L 406.917491 169.740452 
L 408.196159 175.887523 
L 410.673578 185.96135 
L 413.190956 197.139383 
L 414.349749 201.474904 
L 415.748292 205.870248 
L 416.78721 209.528182 
L 419.464421 216.544757 
L 420.583256 220.363663 
L 421.861924 223.445502 
L 423.380342 226.758357 
L 425.697928 232.817443 
L 426.776804 235.532629 
L 428.015514 238.31264 
L 429.33414 240.209486 
L 430.612808 241.742289 
L 431.811559 243.74912 
L 435.48773 248.7939 
L 436.72644 250.426765 
L 438.045066 251.608091 
L 439.203859 252.460056 
L 440.442569 253.136608 
L 443.039863 254.033355 
L 445.397407 255.347975 
L 446.636117 256.337028 
L 447.914785 257.067168 
L 450.392204 258.754473 
L 451.670872 259.095883 
L 452.789707 259.784649 
L 454.268167 260.383985 
L 455.786585 260.875901 
L 457.025295 261.662433 
L 458.38388 262.308505 
L 459.622589 262.702715 
L 462.179925 262.796225 
L 463.618427 262.617975 
L 464.617386 261.964675 
L 466.934972 261.009214 
L 468.293557 261.077331 
L 469.532267 260.406481 
L 470.810935 260.064709 
L 472.129561 259.90974 
L 473.328312 259.309364 
L 474.527064 258.971151 
L 475.725815 258.285597 
L 477.124358 257.76724 
L 478.283151 257.089183 
L 479.521861 256.803855 
L 480.800529 255.871112 
L 482.079197 254.040338 
L 483.158073 252.272248 
L 484.636533 250.238114 
L 485.955159 247.360432 
L 487.233827 244.202973 
L 489.351621 236.76437 
L 490.830081 232.116384 
L 492.108749 226.713861 
L 493.06775 220.450298 
L 494.30646 213.219191 
L 494.30646 213.219191 
" clip-path="url(#pe4a59722ae)" style="fill: none; stroke: #2ca02c; stroke-width: 2.5; stroke-linecap: square"/>
   </g>
   <g id="patch_3">
    <path d="M 35.624258 303.182656 
L 35.624258 39.679004 
" style="fill: none; stroke: #000000; stroke-width: 1.5; stroke-linejoin: miter; stroke-linecap: square"/>
   </g>
   <g id="patch_4">
    <path d="M 35.624258 303.182656 
L 495.145586 303.182656 
" style="fill: none; stroke: #000000; stroke-width: 1.5; stroke-linejoin: miter; stroke-linecap: square"/>
   </g>
   <g id="text_15">
    <!-- 1421_wo_HF -->
    <g transform="translate(223.750234 18.441699) scale(0.14 -0.14)">
     <defs>
      <path id="ArialMT-42" d="M -97 -1272 
L -97 -866 
L 3631 -866 
L 3631 -1272 
L -97 -1272 
z
" transform="scale(0.015625)"/>
      <path id="ArialMT-5a" d="M 1034 0 
L 19 3319 
L 600 3319 
L 1128 1403 
L 1325 691 
Q 1338 744 1497 1375 
L 2025 3319 
L 2603 3319 
L 3100 1394 
L 3266 759 
L 3456 1400 
L 4025 3319 
L 4572 3319 
L 3534 0 
L 2950 0 
L 2422 1988 
L 2294 2553 
L 1622 0 
L 1034 0 
z
" transform="scale(0.015625)"/>
      <path id="ArialMT-2b" d="M 513 0 
L 513 4581 
L 1119 4581 
L 1119 2700 
L 3500 2700 
L 3500 4581 
L 4106 4581 
L 4106 0 
L 3500 0 
L 3500 2159 
L 1119 2159 
L 1119 0 
L 513 0 
z
" transform="scale(0.015625)"/>
      <path id="ArialMT-29" d="M 525 0 
L 525 4581 
L 3616 4581 
L 3616 4041 
L 1131 4041 
L 1131 2622 
L 3281 2622 
L 3281 2081 
L 1131 2081 
L 1131 0 
L 525 0 
z
" transform="scale(0.015625)"/>
     </defs>
     <use xlink:href="#ArialMT-14"/>
     <use xlink:href="#ArialMT-17" transform="translate(55.609375 0)"/>
     <use xlink:href="#ArialMT-15" transform="translate(111.21875 0)"/>
     <use xlink:href="#ArialMT-14" transform="translate(166.828125 0)"/>
     <use xlink:href="#ArialMT-42" transform="translate(222.4375 0)"/>
     <use xlink:href="#ArialMT-5a" transform="translate(278.046875 0)"/>
     <use xlink:href="#ArialMT-52" transform="translate(350.265625 0)"/>
     <use xlink:href="#ArialMT-42" transform="translate(405.875 0)"/>
     <use xlink:href="#ArialMT-2b" transform="translate(461.484375 0)"/>
     <use xlink:href="#ArialMT-29" transform="translate(533.703125 0)"/>
    </g>
    <!-- m/z 16 -->
    <g transform="translate(244.379453 33.679004) scale(0.14 -0.14)">
     <use xlink:href="#ArialMT-50"/>
     <use xlink:href="#ArialMT-12" transform="translate(83.296875 0)"/>
     <use xlink:href="#ArialMT-5d" transform="translate(111.078125 0)"/>
     <use xlink:href="#ArialMT-3" transform="translate(161.078125 0)"/>
     <use xlink:href="#ArialMT-14" transform="translate(188.859375 0)"/>
     <use xlink:href="#ArialMT-19" transform="translate(244.46875 0)"/>
    </g>
   </g>
   <g id="legend_1">
    <g id="line2d_18">
     <path d="M 513.336012 52.459277 
L 523.336012 52.459277 
L 533.336012 52.459277 
" style="fill: none; stroke: #000000; stroke-width: 2.5; stroke-linecap: square"/>
    </g>
    <g id="text_16">
     <!-- 0 h -->
     <g transform="translate(541.336012 55.959277) scale(0.1 -0.1)">
      <defs>
       <path id="ArialMT-4b" d="M 422 0 
L 422 4581 
L 984 4581 
L 984 2938 
Q 1378 3394 1978 3394 
Q 2347 3394 2619 3248 
Q 2891 3103 3008 2847 
Q 3125 2591 3125 2103 
L 3125 0 
L 2563 0 
L 2563 2103 
Q 2563 2525 2380 2717 
Q 2197 2909 1863 2909 
Q 1613 2909 1392 2779 
Q 1172 2650 1078 2428 
Q 984 2206 984 1816 
L 984 0 
L 422 0 
z
" transform="scale(0.015625)"/>
      </defs>
      <use xlink:href="#ArialMT-13"/>
      <use xlink:href="#ArialMT-3" transform="translate(55.609375 0)"/>
      <use xlink:href="#ArialMT-4b" transform="translate(83.390625 0)"/>
     </g>
    </g>
    <g id="line2d_19">
     <path d="M 513.336012 66.844043 
L 523.336012 66.844043 
L 533.336012 66.844043 
" style="fill: none; stroke: #1f77b4; stroke-width: 2.5; stroke-linecap: square"/>
    </g>
    <g id="text_17">
     <!-- 6 h -->
     <g transform="translate(541.336012 70.344043) scale(0.1 -0.1)">
      <use xlink:href="#ArialMT-19"/>
      <use xlink:href="#ArialMT-3" transform="translate(55.609375 0)"/>
      <use xlink:href="#ArialMT-4b" transform="translate(83.390625 0)"/>
     </g>
    </g>
    <g id="line2d_20">
     <path d="M 513.336012 81.228809 
L 523.336012 81.228809 
L 533.336012 81.228809 
" style="fill: none; stroke: #d62728; stroke-width: 2.5; stroke-linecap: square"/>
    </g>
    <g id="text_18">
     <!-- 24 h -->
     <g transform="translate(541.336012 84.728809) scale(0.1 -0.1)">
      <use xlink:href="#ArialMT-15"/>
      <use xlink:href="#ArialMT-17" transform="translate(55.609375 0)"/>
      <use xlink:href="#ArialMT-3" transform="translate(111.21875 0)"/>
      <use xlink:href="#ArialMT-4b" transform="translate(139 0)"/>
     </g>
    </g>
    <g id="line2d_21">
     <path d="M 513.336012 95.613574 
L 523.336012 95.613574 
L 533.336012 95.613574 
" style="fill: none; stroke: #ff7f0e; stroke-width: 2.5; stroke-linecap: square"/>
    </g>
    <g id="text_19">
     <!-- 7 d -->
     <g transform="translate(541.336012 99.113574) scale(0.1 -0.1)">
      <defs>
       <path id="ArialMT-1a" d="M 303 3981 
L 303 4522 
L 3269 4522 
L 3269 4084 
Q 2831 3619 2401 2847 
Q 1972 2075 1738 1259 
Q 1569 684 1522 0 
L 944 0 
Q 953 541 1156 1306 
Q 1359 2072 1739 2783 
Q 2119 3494 2547 3981 
L 303 3981 
z
" transform="scale(0.015625)"/>
       <path id="ArialMT-47" d="M 2575 0 
L 2575 419 
Q 2259 -75 1647 -75 
Q 1250 -75 917 144 
Q 584 363 401 755 
Q 219 1147 219 1656 
Q 219 2153 384 2558 
Q 550 2963 881 3178 
Q 1213 3394 1622 3394 
Q 1922 3394 2156 3267 
Q 2391 3141 2538 2938 
L 2538 4581 
L 3097 4581 
L 3097 0 
L 2575 0 
z
M 797 1656 
Q 797 1019 1065 703 
Q 1334 388 1700 388 
Q 2069 388 2326 689 
Q 2584 991 2584 1609 
Q 2584 2291 2321 2609 
Q 2059 2928 1675 2928 
Q 1300 2928 1048 2622 
Q 797 2316 797 1656 
z
" transform="scale(0.015625)"/>
      </defs>
      <use xlink:href="#ArialMT-1a"/>
      <use xlink:href="#ArialMT-3" transform="translate(55.609375 0)"/>
      <use xlink:href="#ArialMT-47" transform="translate(83.390625 0)"/>
     </g>
    </g>
    <g id="line2d_22">
     <path d="M 513.336012 109.99834 
L 523.336012 109.99834 
L 533.336012 109.99834 
" style="fill: none; stroke: #9467bd; stroke-width: 2.5; stroke-linecap: square"/>
    </g>
    <g id="text_20">
     <!-- 14 d -->
     <g transform="translate(541.336012 113.49834) scale(0.1 -0.1)">
      <use xlink:href="#ArialMT-14"/>
      <use xlink:href="#ArialMT-17" transform="translate(55.609375 0)"/>
      <use xlink:href="#ArialMT-3" transform="translate(111.21875 0)"/>
      <use xlink:href="#ArialMT-47" transform="translate(139 0)"/>
     </g>
    </g>
    <g id="line2d_23">
     <path d="M 513.336012 124.383105 
L 523.336012 124.383105 
L 533.336012 124.383105 
" style="fill: none; stroke: #2ca02c; stroke-width: 2.5; stroke-linecap: square"/>
    </g>
    <g id="text_21">
     <!-- 28 d -->
     <g transform="translate(541.336012 127.883105) scale(0.1 -0.1)">
      <use xlink:href="#ArialMT-15"/>
      <use xlink:href="#ArialMT-1b" transform="translate(55.609375 0)"/>
      <use xlink:href="#ArialMT-3" transform="translate(111.21875 0)"/>
      <use xlink:href="#ArialMT-47" transform="translate(139 0)"/>
     </g>
    </g>
   </g>
  </g>
 </g>
 <defs>
  <clipPath id="pe4a59722ae">
   <rect x="35.624258" y="39.679004" width="459.521328" height="263.503652"/>
  </clipPath>
 </defs>
</svg>
