<?xml version="1.0" encoding="utf-8" standalone="no"?>
<!DOCTYPE svg PUBLIC "-//W3C//DTD SVG 1.1//EN"
  "http://www.w3.org/Graphics/SVG/1.1/DTD/svg11.dtd">
<svg xmlns:xlink="http://www.w3.org/1999/xlink" width="571.87295pt" height="344.160273pt" viewBox="0 0 571.87295 344.160273" xmlns="http://www.w3.org/2000/svg" version="1.1">
 <metadata>
  <rdf:RDF xmlns:dc="http://purl.org/dc/elements/1.1/" xmlns:cc="http://creativecommons.org/ns#" xmlns:rdf="http://www.w3.org/1999/02/22-rdf-syntax-ns#">
   <cc:Work>
    <dc:type rdf:resource="http://purl.org/dc/dcmitype/StillImage"/>
    <dc:date>2026-07-10T11:48:33.418856</dc:date>
    <dc:format>image/svg+xml</dc:format>
    <dc:creator>
     <cc:Agent>
      <dc:title>Matplotlib v3.11.0, https://matplotlib.org/</dc:title>
     </cc:Agent>
    </dc:creator>
   </cc:Work>
  </rdf:RDF>
 </metadata>
 <defs>
  <style type="text/css">*{stroke-linejoin: round; stroke-linecap: butt}</style>
 </defs>
 <g id="figure_1">
  <g id="patch_1">
   <path d="M 0 344.160273 
L 571.87295 344.160273 
L 571.87295 0 
L 0 0 
z
" style="fill: #ffffff"/>
  </g>
  <g id="axes_1">
   <g id="patch_2">
    <path d="M 55.084258 303.182656 
L 495.405586 303.182656 
L 495.405586 39.679004 
L 55.084258 39.679004 
z
" style="fill: #ffffff"/>
   </g>
   <g id="matplotlib.axis_1">
    <g id="xtick_1">
     <g id="line2d_1">
      <defs>
       <path id="m2a6271d13e" d="M 0 0 
L 0 -6 
" style="stroke: #000000; stroke-width: 0.8"/>
      </defs>
      <g>
       <use xlink:href="#m2a6271d13e" x="112.517475" y="303.182656" style="stroke: #000000; stroke-width: 0.8"/>
      </g>
     </g>
     <g id="text_1">
      <!-- 200 -->
      <g transform="translate(100.839506 316.875039) scale(0.14 -0.14)">
       <defs>
        <path id="ArialMT-15" d="M 3222 541 
L 3222 0 
L 194 0 
Q 188 203 259 391 
Q 375 700 629 1000 
Q 884 1300 1366 1694 
Q 2113 2306 2375 2664 
Q 2638 3022 2638 3341 
Q 2638 3675 2398 3904 
Q 2159 4134 1775 4134 
Q 1369 4134 1125 3890 
Q 881 3647 878 3216 
L 300 3275 
Q 359 3922 746 4261 
Q 1134 4600 1788 4600 
Q 2447 4600 2831 4234 
Q 3216 3869 3216 3328 
Q 3216 3053 3103 2787 
Q 2991 2522 2730 2228 
Q 2469 1934 1863 1422 
Q 1356 997 1212 845 
Q 1069 694 975 541 
L 3222 541 
z
" transform="scale(0.015625)"/>
        <path id="ArialMT-13" d="M 266 2259 
Q 266 3072 433 3567 
Q 600 4063 929 4331 
Q 1259 4600 1759 4600 
Q 2128 4600 2406 4451 
Q 2684 4303 2865 4023 
Q 3047 3744 3150 3342 
Q 3253 2941 3253 2259 
Q 3253 1453 3087 958 
Q 2922 463 2592 192 
Q 2263 -78 1759 -78 
Q 1097 -78 719 397 
Q 266 969 266 2259 
z
M 844 2259 
Q 844 1131 1108 757 
Q 1372 384 1759 384 
Q 2147 384 2411 759 
Q 2675 1134 2675 2259 
Q 2675 3391 2411 3762 
Q 2147 4134 1753 4134 
Q 1366 4134 1134 3806 
Q 844 3388 844 2259 
z
" transform="scale(0.015625)"/>
       </defs>
       <use xlink:href="#ArialMT-15"/>
       <use xlink:href="#ArialMT-13" transform="translate(55.609375 0)"/>
       <use xlink:href="#ArialMT-13" transform="translate(111.21875 0)"/>
      </g>
     </g>
    </g>
    <g id="xtick_2">
     <g id="line2d_2">
      <g>
       <use xlink:href="#m2a6271d13e" x="189.095097" y="303.182656" style="stroke: #000000; stroke-width: 0.8"/>
      </g>
     </g>
     <g id="text_2">
      <!-- 400 -->
      <g transform="translate(177.417128 316.875039) scale(0.14 -0.14)">
       <defs>
        <path id="ArialMT-17" d="M 2069 0 
L 2069 1097 
L 81 1097 
L 81 1613 
L 2172 4581 
L 2631 4581 
L 2631 1613 
L 3250 1613 
L 3250 1097 
L 2631 1097 
L 2631 0 
L 2069 0 
z
M 2069 1613 
L 2069 3678 
L 634 1613 
L 2069 1613 
z
" transform="scale(0.015625)"/>
       </defs>
       <use xlink:href="#ArialMT-17"/>
       <use xlink:href="#ArialMT-13" transform="translate(55.609375 0)"/>
       <use xlink:href="#ArialMT-13" transform="translate(111.21875 0)"/>
      </g>
     </g>
    </g>
    <g id="xtick_3">
     <g id="line2d_3">
      <g>
       <use xlink:href="#m2a6271d13e" x="265.672719" y="303.182656" style="stroke: #000000; stroke-width: 0.8"/>
      </g>
     </g>
     <g id="text_3">
      <!-- 600 -->
      <g transform="translate(253.99475 316.875039) scale(0.14 -0.14)">
       <defs>
        <path id="ArialMT-19" d="M 3184 3459 
L 2625 3416 
Q 2550 3747 2413 3897 
Q 2184 4138 1850 4138 
Q 1581 4138 1378 3988 
Q 1113 3794 959 3422 
Q 806 3050 800 2363 
Q 1003 2672 1297 2822 
Q 1591 2972 1913 2972 
Q 2475 2972 2870 2558 
Q 3266 2144 3266 1488 
Q 3266 1056 3080 686 
Q 2894 316 2569 119 
Q 2244 -78 1831 -78 
Q 1128 -78 684 439 
Q 241 956 241 2144 
Q 241 3472 731 4075 
Q 1159 4600 1884 4600 
Q 2425 4600 2770 4297 
Q 3116 3994 3184 3459 
z
M 888 1484 
Q 888 1194 1011 928 
Q 1134 663 1356 523 
Q 1578 384 1822 384 
Q 2178 384 2434 671 
Q 2691 959 2691 1453 
Q 2691 1928 2437 2201 
Q 2184 2475 1800 2475 
Q 1419 2475 1153 2201 
Q 888 1928 888 1484 
z
" transform="scale(0.015625)"/>
       </defs>
       <use xlink:href="#ArialMT-19"/>
       <use xlink:href="#ArialMT-13" transform="translate(55.609375 0)"/>
       <use xlink:href="#ArialMT-13" transform="translate(111.21875 0)"/>
      </g>
     </g>
    </g>
    <g id="xtick_4">
     <g id="line2d_4">
      <g>
       <use xlink:href="#m2a6271d13e" x="342.250341" y="303.182656" style="stroke: #000000; stroke-width: 0.8"/>
      </g>
     </g>
     <g id="text_4">
      <!-- 800 -->
      <g transform="translate(330.572373 316.875039) scale(0.14 -0.14)">
       <defs>
        <path id="ArialMT-1b" d="M 1131 2484 
Q 781 2613 612 2850 
Q 444 3088 444 3419 
Q 444 3919 803 4259 
Q 1163 4600 1759 4600 
Q 2359 4600 2725 4251 
Q 3091 3903 3091 3403 
Q 3091 3084 2923 2848 
Q 2756 2613 2416 2484 
Q 2838 2347 3058 2040 
Q 3278 1734 3278 1309 
Q 3278 722 2862 322 
Q 2447 -78 1769 -78 
Q 1091 -78 675 323 
Q 259 725 259 1325 
Q 259 1772 486 2073 
Q 713 2375 1131 2484 
z
M 1019 3438 
Q 1019 3113 1228 2906 
Q 1438 2700 1772 2700 
Q 2097 2700 2305 2904 
Q 2513 3109 2513 3406 
Q 2513 3716 2298 3927 
Q 2084 4138 1766 4138 
Q 1444 4138 1231 3931 
Q 1019 3725 1019 3438 
z
M 838 1322 
Q 838 1081 952 856 
Q 1066 631 1291 507 
Q 1516 384 1775 384 
Q 2178 384 2440 643 
Q 2703 903 2703 1303 
Q 2703 1709 2433 1975 
Q 2163 2241 1756 2241 
Q 1359 2241 1098 1978 
Q 838 1716 838 1322 
z
" transform="scale(0.015625)"/>
       </defs>
       <use xlink:href="#ArialMT-1b"/>
       <use xlink:href="#ArialMT-13" transform="translate(55.609375 0)"/>
       <use xlink:href="#ArialMT-13" transform="translate(111.21875 0)"/>
      </g>
     </g>
    </g>
    <g id="xtick_5">
     <g id="line2d_5">
      <g>
       <use xlink:href="#m2a6271d13e" x="418.827964" y="303.182656" style="stroke: #000000; stroke-width: 0.8"/>
      </g>
     </g>
     <g id="text_5">
      <!-- 1000 -->
      <g transform="translate(403.257339 316.875039) scale(0.14 -0.14)">
       <defs>
        <path id="ArialMT-14" d="M 2384 0 
L 1822 0 
L 1822 3584 
Q 1619 3391 1289 3197 
Q 959 3003 697 2906 
L 697 3450 
Q 1169 3672 1522 3987 
Q 1875 4303 2022 4600 
L 2384 4600 
L 2384 0 
z
" transform="scale(0.015625)"/>
       </defs>
       <use xlink:href="#ArialMT-14"/>
       <use xlink:href="#ArialMT-13" transform="translate(55.609375 0)"/>
       <use xlink:href="#ArialMT-13" transform="translate(111.21875 0)"/>
       <use xlink:href="#ArialMT-13" transform="translate(166.828125 0)"/>
      </g>
     </g>
    </g>
    <g id="xtick_6">
     <g id="line2d_6">
      <g>
       <use xlink:href="#m2a6271d13e" x="495.405586" y="303.182656" style="stroke: #000000; stroke-width: 0.8"/>
      </g>
     </g>
     <g id="text_6">
      <!-- 1200 -->
      <g transform="translate(479.834961 316.875039) scale(0.14 -0.14)">
       <use xlink:href="#ArialMT-14"/>
       <use xlink:href="#ArialMT-15" transform="translate(55.609375 0)"/>
       <use xlink:href="#ArialMT-13" transform="translate(111.21875 0)"/>
       <use xlink:href="#ArialMT-13" transform="translate(166.828125 0)"/>
      </g>
     </g>
    </g>
    <g id="text_7">
     <!-- T1 Temperature (°C) -->
     <g transform="translate(211.505547 334.013711) scale(0.14 -0.14)">
      <defs>
       <path id="ArialMT-37" d="M 1659 0 
L 1659 4041 
L 150 4041 
L 150 4581 
L 3781 4581 
L 3781 4041 
L 2266 4041 
L 2266 0 
L 1659 0 
z
" transform="scale(0.015625)"/>
       <path id="ArialMT-3" transform="scale(0.015625)"/>
       <path id="ArialMT-48" d="M 2694 1069 
L 3275 997 
Q 3138 488 2766 206 
Q 2394 -75 1816 -75 
Q 1088 -75 661 373 
Q 234 822 234 1631 
Q 234 2469 665 2931 
Q 1097 3394 1784 3394 
Q 2450 3394 2872 2941 
Q 3294 2488 3294 1666 
Q 3294 1616 3291 1516 
L 816 1516 
Q 847 969 1125 678 
Q 1403 388 1819 388 
Q 2128 388 2347 550 
Q 2566 713 2694 1069 
z
M 847 1978 
L 2700 1978 
Q 2663 2397 2488 2606 
Q 2219 2931 1791 2931 
Q 1403 2931 1139 2672 
Q 875 2413 847 1978 
z
" transform="scale(0.015625)"/>
       <path id="ArialMT-50" d="M 422 0 
L 422 3319 
L 925 3319 
L 925 2853 
Q 1081 3097 1340 3245 
Q 1600 3394 1931 3394 
Q 2300 3394 2536 3241 
Q 2772 3088 2869 2813 
Q 3263 3394 3894 3394 
Q 4388 3394 4653 3120 
Q 4919 2847 4919 2278 
L 4919 0 
L 4359 0 
L 4359 2091 
Q 4359 2428 4304 2576 
Q 4250 2725 4106 2815 
Q 3963 2906 3769 2906 
Q 3419 2906 3187 2673 
Q 2956 2441 2956 1928 
L 2956 0 
L 2394 0 
L 2394 2156 
Q 2394 2531 2256 2718 
Q 2119 2906 1806 2906 
Q 1569 2906 1367 2781 
Q 1166 2656 1075 2415 
Q 984 2175 984 1722 
L 984 0 
L 422 0 
z
" transform="scale(0.015625)"/>
       <path id="ArialMT-53" d="M 422 -1272 
L 422 3319 
L 934 3319 
L 934 2888 
Q 1116 3141 1344 3267 
Q 1572 3394 1897 3394 
Q 2322 3394 2647 3175 
Q 2972 2956 3137 2557 
Q 3303 2159 3303 1684 
Q 3303 1175 3120 767 
Q 2938 359 2589 142 
Q 2241 -75 1856 -75 
Q 1575 -75 1351 44 
Q 1128 163 984 344 
L 984 -1272 
L 422 -1272 
z
M 931 1641 
Q 931 1000 1190 694 
Q 1450 388 1819 388 
Q 2194 388 2461 705 
Q 2728 1022 2728 1688 
Q 2728 2322 2467 2637 
Q 2206 2953 1844 2953 
Q 1484 2953 1207 2617 
Q 931 2281 931 1641 
z
" transform="scale(0.015625)"/>
       <path id="ArialMT-55" d="M 416 0 
L 416 3319 
L 922 3319 
L 922 2816 
Q 1116 3169 1280 3281 
Q 1444 3394 1641 3394 
Q 1925 3394 2219 3213 
L 2025 2691 
Q 1819 2813 1613 2813 
Q 1428 2813 1281 2702 
Q 1134 2591 1072 2394 
Q 978 2094 978 1738 
L 978 0 
L 416 0 
z
" transform="scale(0.015625)"/>
       <path id="ArialMT-44" d="M 2588 409 
Q 2275 144 1986 34 
Q 1697 -75 1366 -75 
Q 819 -75 525 192 
Q 231 459 231 875 
Q 231 1119 342 1320 
Q 453 1522 633 1644 
Q 813 1766 1038 1828 
Q 1203 1872 1538 1913 
Q 2219 1994 2541 2106 
Q 2544 2222 2544 2253 
Q 2544 2597 2384 2738 
Q 2169 2928 1744 2928 
Q 1347 2928 1158 2789 
Q 969 2650 878 2297 
L 328 2372 
Q 403 2725 575 2942 
Q 747 3159 1072 3276 
Q 1397 3394 1825 3394 
Q 2250 3394 2515 3294 
Q 2781 3194 2906 3042 
Q 3031 2891 3081 2659 
Q 3109 2516 3109 2141 
L 3109 1391 
Q 3109 606 3145 398 
Q 3181 191 3288 0 
L 2700 0 
Q 2613 175 2588 409 
z
M 2541 1666 
Q 2234 1541 1622 1453 
Q 1275 1403 1131 1340 
Q 988 1278 909 1158 
Q 831 1038 831 891 
Q 831 666 1001 516 
Q 1172 366 1500 366 
Q 1825 366 2078 508 
Q 2331 650 2450 897 
Q 2541 1088 2541 1459 
L 2541 1666 
z
" transform="scale(0.015625)"/>
       <path id="ArialMT-57" d="M 1650 503 
L 1731 6 
Q 1494 -44 1306 -44 
Q 1000 -44 831 53 
Q 663 150 594 308 
Q 525 466 525 972 
L 525 2881 
L 113 2881 
L 113 3319 
L 525 3319 
L 525 4141 
L 1084 4478 
L 1084 3319 
L 1650 3319 
L 1650 2881 
L 1084 2881 
L 1084 941 
Q 1084 700 1114 631 
Q 1144 563 1211 522 
Q 1278 481 1403 481 
Q 1497 481 1650 503 
z
" transform="scale(0.015625)"/>
       <path id="ArialMT-58" d="M 2597 0 
L 2597 488 
Q 2209 -75 1544 -75 
Q 1250 -75 995 37 
Q 741 150 617 320 
Q 494 491 444 738 
Q 409 903 409 1263 
L 409 3319 
L 972 3319 
L 972 1478 
Q 972 1038 1006 884 
Q 1059 663 1231 536 
Q 1403 409 1656 409 
Q 1909 409 2131 539 
Q 2353 669 2445 892 
Q 2538 1116 2538 1541 
L 2538 3319 
L 3100 3319 
L 3100 0 
L 2597 0 
z
" transform="scale(0.015625)"/>
       <path id="ArialMT-b" d="M 1497 -1347 
Q 1031 -759 709 28 
Q 388 816 388 1659 
Q 388 2403 628 3084 
Q 909 3875 1497 4659 
L 1900 4659 
Q 1522 4009 1400 3731 
Q 1209 3300 1100 2831 
Q 966 2247 966 1656 
Q 966 153 1900 -1347 
L 1497 -1347 
z
" transform="scale(0.015625)"/>
       <path id="ArialMT-83" d="M 400 3794 
Q 400 4153 654 4406 
Q 909 4659 1266 4659 
Q 1628 4659 1881 4406 
Q 2134 4153 2134 3794 
Q 2134 3434 1879 3179 
Q 1625 2925 1266 2925 
Q 909 2925 654 3178 
Q 400 3431 400 3794 
z
M 741 3794 
Q 741 3575 895 3420 
Q 1050 3266 1269 3266 
Q 1484 3266 1639 3420 
Q 1794 3575 1794 3794 
Q 1794 4013 1639 4167 
Q 1484 4322 1269 4322 
Q 1050 4322 895 4167 
Q 741 4013 741 3794 
z
" transform="scale(0.015625)"/>
       <path id="ArialMT-26" d="M 3763 1606 
L 4369 1453 
Q 4178 706 3683 314 
Q 3188 -78 2472 -78 
Q 1731 -78 1267 223 
Q 803 525 561 1097 
Q 319 1669 319 2325 
Q 319 3041 592 3573 
Q 866 4106 1370 4382 
Q 1875 4659 2481 4659 
Q 3169 4659 3637 4309 
Q 4106 3959 4291 3325 
L 3694 3184 
Q 3534 3684 3231 3912 
Q 2928 4141 2469 4141 
Q 1941 4141 1586 3887 
Q 1231 3634 1087 3207 
Q 944 2781 944 2328 
Q 944 1744 1114 1308 
Q 1284 872 1643 656 
Q 2003 441 2422 441 
Q 2931 441 3284 734 
Q 3638 1028 3763 1606 
z
" transform="scale(0.015625)"/>
       <path id="ArialMT-c" d="M 791 -1347 
L 388 -1347 
Q 1322 153 1322 1656 
Q 1322 2244 1188 2822 
Q 1081 3291 891 3722 
Q 769 4003 388 4659 
L 791 4659 
Q 1378 3875 1659 3084 
Q 1900 2403 1900 1659 
Q 1900 816 1576 28 
Q 1253 -759 791 -1347 
z
" transform="scale(0.015625)"/>
      </defs>
      <use xlink:href="#ArialMT-37"/>
      <use xlink:href="#ArialMT-14" transform="translate(61.078125 0)"/>
      <use xlink:href="#ArialMT-3" transform="translate(116.6875 0)"/>
      <use xlink:href="#ArialMT-37" transform="translate(142.65625 0)"/>
      <use xlink:href="#ArialMT-48" transform="translate(192.65625 0)"/>
      <use xlink:href="#ArialMT-50" transform="translate(248.265625 0)"/>
      <use xlink:href="#ArialMT-53" transform="translate(331.5625 0)"/>
      <use xlink:href="#ArialMT-48" transform="translate(387.171875 0)"/>
      <use xlink:href="#ArialMT-55" transform="translate(442.78125 0)"/>
      <use xlink:href="#ArialMT-44" transform="translate(476.078125 0)"/>
      <use xlink:href="#ArialMT-57" transform="translate(531.6875 0)"/>
      <use xlink:href="#ArialMT-58" transform="translate(559.46875 0)"/>
      <use xlink:href="#ArialMT-55" transform="translate(615.078125 0)"/>
      <use xlink:href="#ArialMT-48" transform="translate(648.375 0)"/>
      <use xlink:href="#ArialMT-3" transform="translate(703.984375 0)"/>
      <use xlink:href="#ArialMT-b" transform="translate(731.765625 0)"/>
      <use xlink:href="#ArialMT-83" transform="translate(765.0625 0)"/>
      <use xlink:href="#ArialMT-26" transform="translate(805.046875 0)"/>
      <use xlink:href="#ArialMT-c" transform="translate(877.265625 0)"/>
     </g>
    </g>
   </g>
   <g id="matplotlib.axis_2">
    <g id="ytick_1">
     <g id="line2d_7">
      <defs>
       <path id="md53bdcccb9" d="M 0 0 
L 6 0 
" style="stroke: #000000; stroke-width: 0.8"/>
      </defs>
      <g>
       <use xlink:href="#md53bdcccb9" x="55.084258" y="291.540835" style="stroke: #000000; stroke-width: 0.8"/>
      </g>
     </g>
     <g id="text_8">
      <!-- 0.00 -->
      <g transform="translate(24.338945 296.637027) scale(0.14 -0.14)">
       <defs>
        <path id="ArialMT-11" d="M 581 0 
L 581 641 
L 1222 641 
L 1222 0 
L 581 0 
z
" transform="scale(0.015625)"/>
       </defs>
       <use xlink:href="#ArialMT-13"/>
       <use xlink:href="#ArialMT-11" transform="translate(55.609375 0)"/>
       <use xlink:href="#ArialMT-13" transform="translate(83.390625 0)"/>
       <use xlink:href="#ArialMT-13" transform="translate(139 0)"/>
      </g>
     </g>
    </g>
    <g id="ytick_2">
     <g id="line2d_8">
      <g>
       <use xlink:href="#md53bdcccb9" x="55.084258" y="259.633977" style="stroke: #000000; stroke-width: 0.8"/>
      </g>
     </g>
     <g id="text_9">
      <!-- 0.25 -->
      <g transform="translate(24.338945 264.730169) scale(0.14 -0.14)">
       <defs>
        <path id="ArialMT-18" d="M 266 1200 
L 856 1250 
Q 922 819 1161 601 
Q 1400 384 1738 384 
Q 2144 384 2425 690 
Q 2706 997 2706 1503 
Q 2706 1984 2436 2262 
Q 2166 2541 1728 2541 
Q 1456 2541 1237 2417 
Q 1019 2294 894 2097 
L 366 2166 
L 809 4519 
L 3088 4519 
L 3088 3981 
L 1259 3981 
L 1013 2750 
Q 1425 3038 1878 3038 
Q 2478 3038 2890 2622 
Q 3303 2206 3303 1553 
Q 3303 931 2941 478 
Q 2500 -78 1738 -78 
Q 1113 -78 717 272 
Q 322 622 266 1200 
z
" transform="scale(0.015625)"/>
       </defs>
       <use xlink:href="#ArialMT-13"/>
       <use xlink:href="#ArialMT-11" transform="translate(55.609375 0)"/>
       <use xlink:href="#ArialMT-15" transform="translate(83.390625 0)"/>
       <use xlink:href="#ArialMT-18" transform="translate(139 0)"/>
      </g>
     </g>
    </g>
    <g id="ytick_3">
     <g id="line2d_9">
      <g>
       <use xlink:href="#md53bdcccb9" x="55.084258" y="227.72712" style="stroke: #000000; stroke-width: 0.8"/>
      </g>
     </g>
     <g id="text_10">
      <!-- 0.50 -->
      <g transform="translate(24.338945 232.823311) scale(0.14 -0.14)">
       <use xlink:href="#ArialMT-13"/>
       <use xlink:href="#ArialMT-11" transform="translate(55.609375 0)"/>
       <use xlink:href="#ArialMT-18" transform="translate(83.390625 0)"/>
       <use xlink:href="#ArialMT-13" transform="translate(139 0)"/>
      </g>
     </g>
    </g>
    <g id="ytick_4">
     <g id="line2d_10">
      <g>
       <use xlink:href="#md53bdcccb9" x="55.084258" y="195.820262" style="stroke: #000000; stroke-width: 0.8"/>
      </g>
     </g>
     <g id="text_11">
      <!-- 0.75 -->
      <g transform="translate(24.338945 200.916453) scale(0.14 -0.14)">
       <defs>
        <path id="ArialMT-1a" d="M 303 3981 
L 303 4522 
L 3269 4522 
L 3269 4084 
Q 2831 3619 2401 2847 
Q 1972 2075 1738 1259 
Q 1569 684 1522 0 
L 944 0 
Q 953 541 1156 1306 
Q 1359 2072 1739 2783 
Q 2119 3494 2547 3981 
L 303 3981 
z
" transform="scale(0.015625)"/>
       </defs>
       <use xlink:href="#ArialMT-13"/>
       <use xlink:href="#ArialMT-11" transform="translate(55.609375 0)"/>
       <use xlink:href="#ArialMT-1a" transform="translate(83.390625 0)"/>
       <use xlink:href="#ArialMT-18" transform="translate(139 0)"/>
      </g>
     </g>
    </g>
    <g id="ytick_5">
     <g id="line2d_11">
      <g>
       <use xlink:href="#md53bdcccb9" x="55.084258" y="163.913404" style="stroke: #000000; stroke-width: 0.8"/>
      </g>
     </g>
     <g id="text_12">
      <!-- 1.00 -->
      <g transform="translate(24.338945 169.009596) scale(0.14 -0.14)">
       <use xlink:href="#ArialMT-14"/>
       <use xlink:href="#ArialMT-11" transform="translate(55.609375 0)"/>
       <use xlink:href="#ArialMT-13" transform="translate(83.390625 0)"/>
       <use xlink:href="#ArialMT-13" transform="translate(139 0)"/>
      </g>
     </g>
    </g>
    <g id="ytick_6">
     <g id="line2d_12">
      <g>
       <use xlink:href="#md53bdcccb9" x="55.084258" y="132.006547" style="stroke: #000000; stroke-width: 0.8"/>
      </g>
     </g>
     <g id="text_13">
      <!-- 1.25 -->
      <g transform="translate(24.338945 137.102738) scale(0.14 -0.14)">
       <use xlink:href="#ArialMT-14"/>
       <use xlink:href="#ArialMT-11" transform="translate(55.609375 0)"/>
       <use xlink:href="#ArialMT-15" transform="translate(83.390625 0)"/>
       <use xlink:href="#ArialMT-18" transform="translate(139 0)"/>
      </g>
     </g>
    </g>
    <g id="ytick_7">
     <g id="line2d_13">
      <g>
       <use xlink:href="#md53bdcccb9" x="55.084258" y="100.099689" style="stroke: #000000; stroke-width: 0.8"/>
      </g>
     </g>
     <g id="text_14">
      <!-- 1.50 -->
      <g transform="translate(24.338945 105.19588) scale(0.14 -0.14)">
       <use xlink:href="#ArialMT-14"/>
       <use xlink:href="#ArialMT-11" transform="translate(55.609375 0)"/>
       <use xlink:href="#ArialMT-18" transform="translate(83.390625 0)"/>
       <use xlink:href="#ArialMT-13" transform="translate(139 0)"/>
      </g>
     </g>
    </g>
    <g id="ytick_8">
     <g id="line2d_14">
      <g>
       <use xlink:href="#md53bdcccb9" x="55.084258" y="68.192831" style="stroke: #000000; stroke-width: 0.8"/>
      </g>
     </g>
     <g id="text_15">
      <!-- 1.75 -->
      <g transform="translate(24.338945 73.289023) scale(0.14 -0.14)">
       <use xlink:href="#ArialMT-14"/>
       <use xlink:href="#ArialMT-11" transform="translate(55.609375 0)"/>
       <use xlink:href="#ArialMT-1a" transform="translate(83.390625 0)"/>
       <use xlink:href="#ArialMT-18" transform="translate(139 0)"/>
      </g>
     </g>
    </g>
    <g id="text_16">
     <!-- Ion Current (m/z 28) -->
     <g transform="translate(17.392383 234.056768) rotate(-90) scale(0.14 -0.14)">
      <defs>
       <path id="ArialMT-2c" d="M 597 0 
L 597 4581 
L 1203 4581 
L 1203 0 
L 597 0 
z
" transform="scale(0.015625)"/>
       <path id="ArialMT-52" d="M 213 1659 
Q 213 2581 725 3025 
Q 1153 3394 1769 3394 
Q 2453 3394 2887 2945 
Q 3322 2497 3322 1706 
Q 3322 1066 3130 698 
Q 2938 331 2570 128 
Q 2203 -75 1769 -75 
Q 1072 -75 642 372 
Q 213 819 213 1659 
z
M 791 1659 
Q 791 1022 1069 705 
Q 1347 388 1769 388 
Q 2188 388 2466 706 
Q 2744 1025 2744 1678 
Q 2744 2294 2464 2611 
Q 2184 2928 1769 2928 
Q 1347 2928 1069 2612 
Q 791 2297 791 1659 
z
" transform="scale(0.015625)"/>
       <path id="ArialMT-51" d="M 422 0 
L 422 3319 
L 928 3319 
L 928 2847 
Q 1294 3394 1984 3394 
Q 2284 3394 2536 3286 
Q 2788 3178 2913 3003 
Q 3038 2828 3088 2588 
Q 3119 2431 3119 2041 
L 3119 0 
L 2556 0 
L 2556 2019 
Q 2556 2363 2490 2533 
Q 2425 2703 2258 2804 
Q 2091 2906 1866 2906 
Q 1506 2906 1245 2678 
Q 984 2450 984 1813 
L 984 0 
L 422 0 
z
" transform="scale(0.015625)"/>
       <path id="ArialMT-12" d="M 0 -78 
L 1328 4659 
L 1778 4659 
L 453 -78 
L 0 -78 
z
" transform="scale(0.015625)"/>
       <path id="ArialMT-5d" d="M 125 0 
L 125 456 
L 2238 2881 
Q 1878 2863 1603 2863 
L 250 2863 
L 250 3319 
L 2963 3319 
L 2963 2947 
L 1166 841 
L 819 456 
Q 1197 484 1528 484 
L 3063 484 
L 3063 0 
L 125 0 
z
" transform="scale(0.015625)"/>
      </defs>
      <use xlink:href="#ArialMT-2c"/>
      <use xlink:href="#ArialMT-52" transform="translate(27.78125 0)"/>
      <use xlink:href="#ArialMT-51" transform="translate(83.390625 0)"/>
      <use xlink:href="#ArialMT-3" transform="translate(139 0)"/>
      <use xlink:href="#ArialMT-26" transform="translate(166.78125 0)"/>
      <use xlink:href="#ArialMT-58" transform="translate(239 0)"/>
      <use xlink:href="#ArialMT-55" transform="translate(294.609375 0)"/>
      <use xlink:href="#ArialMT-55" transform="translate(327.90625 0)"/>
      <use xlink:href="#ArialMT-48" transform="translate(361.203125 0)"/>
      <use xlink:href="#ArialMT-51" transform="translate(416.8125 0)"/>
      <use xlink:href="#ArialMT-57" transform="translate(472.421875 0)"/>
      <use xlink:href="#ArialMT-3" transform="translate(500.203125 0)"/>
      <use xlink:href="#ArialMT-b" transform="translate(527.984375 0)"/>
      <use xlink:href="#ArialMT-50" transform="translate(561.28125 0)"/>
      <use xlink:href="#ArialMT-12" transform="translate(644.578125 0)"/>
      <use xlink:href="#ArialMT-5d" transform="translate(672.359375 0)"/>
      <use xlink:href="#ArialMT-3" transform="translate(722.359375 0)"/>
      <use xlink:href="#ArialMT-15" transform="translate(750.140625 0)"/>
      <use xlink:href="#ArialMT-1b" transform="translate(805.75 0)"/>
      <use xlink:href="#ArialMT-c" transform="translate(861.359375 0)"/>
     </g>
    </g>
    <g id="text_17">
     <!-- 1e−11 -->
     <g transform="translate(55.084258 36.679004) scale(0.14 -0.14)">
      <defs>
       <path id="ArialMT-ed" d="M 3381 1997 
L 356 1997 
L 356 2522 
L 3381 2522 
L 3381 1997 
z
" transform="scale(0.015625)"/>
      </defs>
      <use xlink:href="#ArialMT-14"/>
      <use xlink:href="#ArialMT-48" transform="translate(55.609375 0)"/>
      <use xlink:href="#ArialMT-ed" transform="translate(111.21875 0)"/>
      <use xlink:href="#ArialMT-14" transform="translate(169.625 0)"/>
      <use xlink:href="#ArialMT-14" transform="translate(217.8125 0)"/>
     </g>
    </g>
   </g>
   <g id="line2d_15">
    <path d="M 54.088749 290.711346 
L 54.012171 290.04286 
L 54.012171 290.497913 
L 54.280193 290.656239 
L 56.61581 290.654979 
L 58.836561 290.768195 
L 63.316352 290.651603 
L 65.115926 290.762298 
L 72.3908 290.671724 
L 77.100324 290.586257 
L 79.512519 290.310596 
L 87.170282 291.197239 
L 89.582477 290.896252 
L 90.76943 290.762274 
L 91.956383 290.464784 
L 93.105047 290.308457 
L 94.368578 290.256468 
L 95.59382 290.328247 
L 96.780773 290.576613 
L 99.154679 290.678796 
L 103.902492 290.472903 
L 105.051156 290.277147 
L 111.0625 290.557214 
L 112.287742 290.467762 
L 114.623359 290.50729 
L 118.222507 290.522647 
L 120.71128 290.127889 
L 123.123475 289.982986 
L 126.684335 290.209692 
L 130.206905 289.842568 
L 136.333115 289.027462 
L 139.817397 288.91002 
L 142.191303 288.63438 
L 143.378256 288.538079 
L 145.867029 287.751332 
L 147.015693 287.682005 
L 148.240935 287.370532 
L 151.878372 286.951486 
L 154.175701 286.221972 
L 155.362654 285.933445 
L 157.813138 285.554982 
L 159.000091 285.247185 
L 162.637528 282.922606 
L 163.824481 281.690433 
L 165.049723 280.591213 
L 166.236677 279.796697 
L 168.534005 278.946338 
L 169.759247 278.198438 
L 170.9462 277.634627 
L 174.545349 274.57451 
L 175.694013 273.446832 
L 176.919255 272.037355 
L 180.518403 268.364158 
L 182.854021 265.887891 
L 185.304505 261.869471 
L 186.41488 259.476569 
L 187.678411 255.824221 
L 190.167184 247.08036 
L 191.315848 241.655791 
L 196.140238 215.334387 
L 197.288902 211.115753 
L 198.475856 207.785803 
L 199.62452 205.012213 
L 200.849762 204.136172 
L 203.261957 203.508512 
L 204.44891 202.99857 
L 205.674152 202.212291 
L 206.822816 201.248807 
L 208.048058 198.325709 
L 209.235011 194.836206 
L 210.460253 187.264145 
L 211.608918 176.294149 
L 212.795871 160.484009 
L 215.284644 119.362085 
L 217.581972 78.379789 
L 218.768925 63.685402 
L 219.994167 54.378379 
L 221.181121 51.656443 
L 222.368074 54.583689 
L 223.593316 63.353306 
L 224.74198 74.412547 
L 227.154175 100.920012 
L 228.302839 114.259286 
L 230.676746 135.942116 
L 234.275894 164.853547 
L 235.424558 169.768266 
L 236.6498 171.926813 
L 237.836753 172.174322 
L 239.023707 171.457555 
L 241.397613 166.02528 
L 242.622855 165.583231 
L 243.809808 168.409036 
L 245.03505 175.302175 
L 246.183714 185.377242 
L 247.370667 190.701484 
L 248.557621 197.433221 
L 249.782862 203.403977 
L 250.969816 206.978311 
L 252.11848 209.537895 
L 253.343722 211.321239 
L 255.755917 213.863075 
L 256.981159 215.416174 
L 258.129823 216.40919 
L 260.580307 218.935455 
L 261.76726 219.493416 
L 262.954213 219.719736 
L 264.141167 220.888907 
L 265.366409 221.853668 
L 266.515073 222.085043 
L 267.702026 222.493378 
L 268.85069 222.679254 
L 272.449839 222.677447 
L 273.675081 222.425724 
L 274.862034 222.301552 
L 276.048987 222.709677 
L 277.197651 222.608438 
L 278.422893 222.638082 
L 280.796799 220.04611 
L 281.983753 218.574447 
L 283.208995 214.499623 
L 284.395948 209.547705 
L 285.582901 205.558152 
L 286.769854 202.325354 
L 287.995096 200.072441 
L 289.14376 198.201702 
L 290.330713 198.374839 
L 291.555955 197.911647 
L 292.742909 198.172037 
L 293.891573 197.475178 
L 297.52901 188.225436 
L 298.677674 184.396381 
L 299.864627 179.312026 
L 303.502064 165.915597 
L 304.727306 161.075818 
L 305.990837 157.311885 
L 307.17779 154.855206 
L 308.403032 153.506433 
L 309.628274 152.66624 
L 310.853516 153.561004 
L 312.002181 156.069872 
L 314.376087 165.564849 
L 315.524751 171.562901 
L 316.711704 176.535896 
L 317.860369 182.365909 
L 320.310853 192.580633 
L 322.684759 200.830834 
L 326.20733 211.287183 
L 327.394283 213.700919 
L 328.619525 214.906224 
L 329.806478 215.841281 
L 332.180384 216.234878 
L 333.405626 215.916555 
L 334.55429 215.744835 
L 335.779532 214.783114 
L 336.966485 215.153214 
L 338.11515 215.73636 
L 339.302103 216.060218 
L 340.527345 216.544421 
L 341.714298 216.122357 
L 344.049915 216.143075 
L 345.313446 216.477131 
L 346.462111 216.414738 
L 347.649064 215.181297 
L 348.874306 215.273504 
L 350.061259 214.908109 
L 351.248212 214.89277 
L 352.473454 213.887934 
L 353.622118 212.284851 
L 354.809071 212.024016 
L 355.957736 211.509206 
L 357.221267 211.126506 
L 358.40822 210.155502 
L 361.93079 208.016031 
L 363.156032 207.090659 
L 367.942134 200.034935 
L 369.052509 198.87045 
L 370.239462 197.361461 
L 372.689946 195.868923 
L 373.800322 195.686322 
L 374.948986 194.481524 
L 376.250806 192.54339 
L 377.361181 189.383623 
L 380.003109 184.039965 
L 381.419795 181.504839 
L 382.645037 178.34286 
L 385.018943 173.851269 
L 386.282474 172.374652 
L 387.507716 169.589956 
L 388.579803 166.544391 
L 391.068576 162.098643 
L 392.255529 158.500909 
L 393.442482 156.428211 
L 394.591146 153.821544 
L 396.965052 149.92326 
L 399.377248 146.582965 
L 400.60249 146.625841 
L 401.751154 147.069567 
L 402.976396 146.953614 
L 404.201638 146.542969 
L 405.388591 146.969851 
L 406.537255 145.83314 
L 407.68592 145.579364 
L 409.026028 144.246095 
L 410.098115 142.401319 
L 411.323357 141.824482 
L 412.472021 142.794533 
L 413.620685 143.37262 
L 418.445076 148.594233 
L 420.818982 153.626931 
L 422.044224 155.448439 
L 424.647863 158.510012 
L 425.71995 160.208379 
L 426.830325 162.34665 
L 430.429473 170.640226 
L 431.578138 173.954566 
L 432.765091 176.657999 
L 433.875466 178.74561 
L 435.177286 180.34461 
L 436.32595 182.750003 
L 437.512903 184.49201 
L 439.848521 188.650025 
L 441.226918 188.911998 
L 443.524247 190.760943 
L 444.672911 191.795062 
L 445.974731 191.849052 
L 446.97024 192.692318 
L 448.195482 194.215711 
L 449.420724 195.027513 
L 450.569388 196.309404 
L 451.871208 195.9212 
L 453.058161 194.417544 
L 454.283403 193.080867 
L 455.278912 192.525844 
L 456.810464 191.247024 
L 458.150573 187.789325 
L 460.830789 184.242426 
L 461.826299 182.314983 
L 463.204696 180.440262 
L 464.276782 176.960521 
L 465.540313 173.720542 
L 466.650689 170.283692 
L 467.91422 167.324648 
L 468.909729 161.865799 
L 470.364703 156.097786 
L 471.283635 148.820872 
L 472.623743 142.125939 
L 473.772408 134.586987 
L 475.074227 127.946555 
L 476.108025 121.277771 
L 477.333267 116.044181 
L 478.558509 112.708833 
L 479.898617 111.284945 
L 480.970704 109.629373 
L 482.042791 107.719814 
L 483.191455 103.331498 
L 484.531564 101.094091 
L 485.680228 97.017585 
L 486.867181 95.162721 
L 488.092423 92.514633 
L 490.504618 88.320345 
L 491.653282 85.126278 
L 492.878524 80.611739 
L 494.142055 74.334835 
L 494.142055 74.334835 
" clip-path="url(#p2d73c3ac65)" style="fill: none; stroke: #000000; stroke-width: 2.5; stroke-linecap: square"/>
   </g>
   <g id="line2d_16">
    <path d="M 53.476128 290.975193 
L 53.476128 289.71427 
L 53.476128 290.840072 
L 53.935593 290.659863 
L 55.00768 290.449917 
L 61.287045 290.295926 
L 63.239775 290.519005 
L 64.886193 290.411396 
L 68.638497 290.494905 
L 69.748872 290.315689 
L 70.859248 290.422422 
L 75.492194 290.354908 
L 76.679147 290.115403 
L 79.129631 290.153031 
L 84.298621 290.310024 
L 85.60044 290.109108 
L 90.42483 290.258849 
L 92.798737 290.565527 
L 93.98569 290.614482 
L 96.397885 290.422397 
L 97.584838 290.180479 
L 99.958744 290.246927 
L 101.145698 290.108867 
L 102.294362 290.275136 
L 105.89351 290.232602 
L 107.118752 290.162758 
L 110.679612 290.402729 
L 113.053518 290.195457 
L 114.240471 290.264074 
L 115.427424 290.056467 
L 119.064861 289.825492 
L 122.702298 289.922541 
L 129.862306 289.471625 
L 132.274501 289.074775 
L 133.461454 289.041803 
L 135.873649 288.593113 
L 139.472798 288.318001 
L 143.071946 287.422277 
L 145.484141 287.138062 
L 147.896336 286.336243 
L 149.121578 286.069082 
L 150.308531 285.690109 
L 151.495484 285.524067 
L 152.60586 284.97865 
L 155.018055 284.35119 
L 156.205008 284.175475 
L 157.468539 283.689734 
L 158.693781 283.467724 
L 159.919023 283.032874 
L 161.067687 282.482659 
L 163.479882 281.928433 
L 167.07903 281.142579 
L 170.563312 279.113821 
L 171.750265 277.894583 
L 172.975507 276.451246 
L 174.085883 274.66314 
L 181.284179 268.160588 
L 183.734663 264.110938 
L 184.921616 261.281599 
L 186.10857 257.877571 
L 187.333811 255.261366 
L 188.559053 251.938598 
L 189.822584 249.095599 
L 190.93296 246.224858 
L 193.421732 241.972682 
L 194.608686 239.845319 
L 195.75735 239.0773 
L 196.944303 238.506545 
L 199.356498 238.606785 
L 200.505163 238.51004 
L 201.692116 238.578652 
L 202.879069 238.117197 
L 204.066022 237.172847 
L 205.252975 234.400145 
L 206.516506 231.955214 
L 207.66517 229.201998 
L 208.890412 225.51564 
L 210.077365 221.285731 
L 211.22603 215.72027 
L 214.825178 201.400565 
L 217.237373 192.545278 
L 218.386037 189.473766 
L 220.759944 185.627224 
L 221.946897 184.424303 
L 223.172139 183.895044 
L 224.397381 184.485364 
L 225.584334 185.751108 
L 226.732998 187.251352 
L 229.106904 191.084714 
L 232.706053 198.47355 
L 233.893006 201.322691 
L 236.305201 206.016864 
L 237.492154 207.681514 
L 238.679107 208.608219 
L 239.86606 209.951945 
L 241.053014 210.872158 
L 242.239967 212.383554 
L 243.42692 213.617645 
L 244.613873 215.319596 
L 245.762537 216.391695 
L 246.987779 218.088449 
L 248.25131 219.581131 
L 249.438263 220.668139 
L 250.625216 221.396953 
L 251.850458 222.92266 
L 252.999123 223.829317 
L 254.186076 225.110262 
L 256.598271 225.868197 
L 257.861802 225.45595 
L 259.010466 225.90072 
L 260.197419 225.678867 
L 261.384372 225.978559 
L 262.571325 227.042079 
L 263.796567 228.412714 
L 264.98352 228.954854 
L 266.170474 229.78783 
L 267.395716 230.017325 
L 268.506091 230.54802 
L 269.693044 229.619997 
L 270.918286 229.479617 
L 273.292193 227.795794 
L 274.479146 227.761951 
L 275.704388 226.908753 
L 278.040005 225.658324 
L 280.4522 222.86927 
L 282.864395 218.033226 
L 286.425255 210.115734 
L 288.83745 203.979408 
L 289.986114 199.675704 
L 291.211356 195.575366 
L 292.398309 190.747706 
L 295.959169 170.781265 
L 297.184411 164.823347 
L 298.294786 158.792473 
L 299.520028 153.55825 
L 300.74527 149.076875 
L 301.932223 146.570413 
L 303.157465 145.87665 
L 304.382707 145.492911 
L 305.607949 145.281896 
L 308.058433 149.360154 
L 309.245386 153.32575 
L 310.394051 157.768528 
L 312.844534 168.71079 
L 313.993199 174.991996 
L 317.592347 192.233883 
L 318.741011 197.708044 
L 321.191495 206.703476 
L 322.301871 211.414748 
L 323.527113 214.827527 
L 324.714066 216.206563 
L 325.86273 218.056494 
L 327.087972 219.10941 
L 328.198348 219.468642 
L 329.461878 218.706429 
L 330.610543 219.123335 
L 331.835785 217.903954 
L 332.984449 217.703011 
L 335.358355 217.657954 
L 336.50702 216.884683 
L 337.77055 216.640532 
L 338.995792 215.780838 
L 340.182746 214.571254 
L 341.33141 212.98492 
L 342.480074 213.008506 
L 343.628739 210.924474 
L 346.079222 210.065765 
L 347.304464 210.11276 
L 348.567995 209.597628 
L 349.640082 208.604846 
L 350.827035 207.980082 
L 353.23923 205.78154 
L 354.54105 204.754023 
L 356.723512 202.038012 
L 359.173996 200.201573 
L 360.360949 199.621537 
L 361.586191 197.474784 
L 362.849722 196.405244 
L 365.14705 194.785601 
L 368.70791 190.267889 
L 369.933152 189.153115 
L 371.120105 187.669474 
L 372.268769 186.437717 
L 373.455722 184.114387 
L 375.79134 180.913557 
L 377.016582 178.725678 
L 378.280113 175.907857 
L 379.543643 174.155441 
L 380.998618 172.734869 
L 382.300438 169.898977 
L 383.449102 166.491761 
L 384.636055 164.294227 
L 387.163117 158.407994 
L 388.311781 154.920806 
L 389.460446 151.924307 
L 390.647399 149.581556 
L 391.872641 149.055064 
L 393.136171 147.261235 
L 394.323125 146.789296 
L 395.318634 145.472154 
L 396.658742 144.650388 
L 397.883984 143.391583 
L 399.032648 141.346388 
L 400.219601 139.704489 
L 401.483132 138.757963 
L 402.670085 138.316072 
L 403.780461 138.23345 
L 405.005703 138.936776 
L 406.192656 140.874098 
L 407.379609 141.215395 
L 408.528273 141.793182 
L 409.791804 141.65734 
L 411.017046 143.046876 
L 413.199508 146.02122 
L 415.72657 147.845761 
L 416.913523 151.065144 
L 418.215343 153.334126 
L 419.287429 155.469432 
L 420.474383 158.27127 
L 421.584758 159.914958 
L 422.848289 163.501683 
L 424.11182 165.509945 
L 429.051076 174.397332 
L 430.161452 176.768362 
L 431.271827 178.856384 
L 432.382203 181.849334 
L 434.71782 185.804838 
L 435.943062 186.7405 
L 437.168304 187.816554 
L 439.580499 190.280312 
L 440.84403 191.36893 
L 443.064781 193.855068 
L 444.328312 195.076528 
L 445.438687 195.545348 
L 446.740507 194.767059 
L 448.999547 193.033628 
L 450.1865 191.713436 
L 451.48832 191.538242 
L 452.636984 191.773888 
L 454.819446 190.609919 
L 456.389287 189.516517 
L 457.959129 188.25744 
L 459.222659 186.011294 
L 460.294746 184.998731 
L 462.821808 181.503429 
L 463.779028 181.407276 
L 465.157425 180.640992 
L 466.229512 179.535092 
L 467.416465 177.230906 
L 468.679996 174.259298 
L 469.905238 169.514184 
L 472.240855 159.516668 
L 473.274653 156.075552 
L 474.614761 154.069997 
L 475.801715 154.057249 
L 476.988668 155.760516 
L 480.77926 162.711179 
L 481.698192 165.610537 
L 482.961722 169.183546 
L 484.34012 171.45701 
L 485.220762 174.871206 
L 488.705044 178.847209 
L 491.346972 176.558907 
L 492.648792 175.885884 
L 493.606012 176.283683 
L 494.601521 178.319858 
L 494.601521 178.319858 
" clip-path="url(#p2d73c3ac65)" style="fill: none; stroke: #1f77b4; stroke-width: 2.5; stroke-linecap: square"/>
   </g>
   <g id="line2d_17">
    <path d="M 53.09324 289.478127 
L 53.054951 290.789856 
L 53.131528 290.060051 
L 53.476128 289.97048 
L 56.347789 290.314603 
L 60.789291 290.417185 
L 65.843414 289.885129 
L 67.068656 289.863589 
L 73.845775 290.593082 
L 76.25797 290.558571 
L 79.895407 289.944738 
L 81.158938 290.004129 
L 82.460758 289.763809 
L 85.140975 289.815791 
L 86.366217 289.768744 
L 87.55317 290.037309 
L 91.07574 289.807543 
L 92.262693 289.888267 
L 93.487935 290.127435 
L 95.861842 290.263972 
L 97.087084 290.193255 
L 99.537568 290.517691 
L 100.76281 290.220481 
L 103.098427 290.194745 
L 108.956615 290.202353 
L 111.445388 290.129882 
L 112.67063 289.908505 
L 113.857583 289.935645 
L 115.082825 289.843111 
L 116.308067 290.044042 
L 122.281121 289.774707 
L 127.1438 289.012192 
L 128.330754 289.202274 
L 130.666371 288.731641 
L 131.853324 288.744488 
L 133.155144 288.570678 
L 134.380386 288.65887 
L 135.52905 288.370591 
L 136.677714 288.275652 
L 137.902956 287.880233 
L 139.051621 287.711425 
L 140.276863 287.768801 
L 141.502105 287.591091 
L 142.689058 287.163568 
L 143.9143 287.167434 
L 145.101253 286.600334 
L 147.475159 286.035776 
L 148.700401 285.595236 
L 149.887354 284.785293 
L 151.074307 284.195205 
L 152.299549 283.441473 
L 153.524791 283.155679 
L 154.673456 282.405904 
L 155.898698 282.327816 
L 157.085651 281.628375 
L 158.272604 281.693 
L 159.459557 282.138229 
L 160.64651 282.058095 
L 161.833463 281.587902 
L 163.020416 281.415113 
L 164.245658 281.017951 
L 165.432612 280.977169 
L 167.806518 280.083874 
L 169.03176 279.043529 
L 170.218713 278.367188 
L 171.405666 277.830614 
L 173.779572 275.61286 
L 174.966525 274.983355 
L 178.527385 272.56592 
L 179.714338 270.635848 
L 180.901291 268.969168 
L 183.313486 264.178948 
L 184.577017 262.074376 
L 189.439696 252.734529 
L 191.813602 249.048866 
L 194.14922 247.279886 
L 195.336173 246.60731 
L 196.523126 246.782122 
L 197.710079 246.65794 
L 198.935321 246.399439 
L 200.122274 245.972804 
L 201.347516 244.944913 
L 203.644845 242.647418 
L 204.908376 241.600823 
L 206.133618 240.908907 
L 207.320571 239.532959 
L 208.430946 238.68888 
L 209.694477 236.443492 
L 210.843142 233.814228 
L 212.106672 231.351487 
L 213.255337 228.364524 
L 214.44229 225.854465 
L 215.667532 223.964593 
L 216.854485 223.216889 
L 220.377056 222.307014 
L 222.789251 220.746356 
L 225.163157 220.798219 
L 226.388399 221.521056 
L 227.537063 221.679159 
L 228.762305 222.579969 
L 229.910969 222.934048 
L 231.097923 223.550337 
L 232.323165 224.793144 
L 233.510118 225.236522 
L 234.697071 224.631229 
L 235.884024 224.705886 
L 237.109266 224.942927 
L 238.25793 225.402302 
L 239.483172 224.816268 
L 240.670125 225.287765 
L 241.857079 225.368567 
L 243.005743 226.517635 
L 244.230985 227.188161 
L 245.417938 226.656839 
L 246.566602 226.484851 
L 247.791844 226.452605 
L 248.940509 226.903849 
L 251.314415 227.12561 
L 252.577946 227.536236 
L 253.764899 226.972733 
L 254.913563 227.011912 
L 256.138805 227.313292 
L 257.325758 228.162818 
L 258.512711 229.277815 
L 260.924907 230.133182 
L 262.11186 230.029298 
L 264.485766 228.650409 
L 265.672719 226.97954 
L 266.897961 225.681208 
L 268.046625 225.540631 
L 269.310156 224.920679 
L 270.45882 222.25092 
L 271.684062 218.107489 
L 273.981391 209.0002 
L 275.283211 206.312878 
L 276.431875 206.285748 
L 277.618828 206.971225 
L 278.805781 208.559239 
L 280.031023 211.664472 
L 281.217976 213.569029 
L 282.366641 213.58637 
L 283.630172 212.754763 
L 284.855413 210.222643 
L 286.004078 206.89442 
L 288.339695 197.704869 
L 289.603226 192.103543 
L 294.389327 166.697022 
L 295.537992 160.950622 
L 296.686656 156.513996 
L 299.098851 148.35742 
L 300.285804 146.261769 
L 301.472758 145.527667 
L 302.697999 145.758923 
L 303.884953 146.973645 
L 305.186772 148.057395 
L 306.450303 150.836845 
L 307.560678 154.222014 
L 308.824209 160.699305 
L 310.011162 167.73731 
L 314.720686 199.127173 
L 315.945928 205.39034 
L 318.319834 214.143861 
L 320.770318 219.719105 
L 323.067647 222.818584 
L 324.292889 222.218695 
L 325.479842 222.391395 
L 326.666795 222.311033 
L 327.777171 221.563609 
L 329.002413 221.189644 
L 330.189366 221.452527 
L 331.414608 220.806173 
L 333.750225 221.573693 
L 334.937178 221.759831 
L 336.124132 220.684374 
L 337.311085 219.826842 
L 338.536327 218.309263 
L 339.761569 217.267727 
L 342.135475 216.914058 
L 343.322428 215.619864 
L 344.54767 215.927611 
L 345.658046 216.723576 
L 348.031952 216.82752 
L 349.218905 216.032746 
L 350.444147 214.921751 
L 351.592811 214.288871 
L 352.818053 213.438338 
L 356.340624 209.661414 
L 357.604155 208.705173 
L 358.791108 208.372125 
L 359.978061 208.366111 
L 361.203303 207.429062 
L 362.428545 207.131976 
L 364.764162 205.234264 
L 365.951115 203.962892 
L 367.09978 203.481981 
L 369.473686 200.827628 
L 370.62235 200.989416 
L 371.885881 200.740964 
L 373.111123 198.51523 
L 374.259787 197.592984 
L 375.408452 195.79395 
L 376.671983 193.549117 
L 377.782358 190.70205 
L 379.084178 189.452114 
L 380.539153 185.845305 
L 384.329745 178.252357 
L 385.516698 174.94381 
L 386.74194 173.642593 
L 387.890604 171.600733 
L 389.077557 170.238028 
L 390.302799 168.031273 
L 391.489752 166.784913 
L 392.600128 163.902605 
L 393.901948 162.268254 
L 395.088901 160.108553 
L 396.275854 160.622376 
L 397.424518 160.721641 
L 398.573183 160.14968 
L 399.721847 158.711345 
L 401.023666 159.243823 
L 402.21062 155.707585 
L 403.397573 153.992653 
L 405.771479 151.693994 
L 407.03501 151.798431 
L 408.107097 153.767294 
L 409.370627 155.650632 
L 410.519292 156.310297 
L 411.744534 157.559056 
L 412.893198 160.212318 
L 414.195018 159.620697 
L 415.305393 161.209878 
L 417.755877 163.654377 
L 418.981119 165.530552 
L 420.168072 166.7868 
L 421.316736 169.344897 
L 422.427112 171.477927 
L 425.949683 179.593017 
L 427.32808 181.74052 
L 428.400166 183.135384 
L 429.510542 185.043221 
L 430.735784 186.094178 
L 431.999315 186.514456 
L 434.373221 188.901776 
L 436.708838 192.739135 
L 439.082745 195.477694 
L 440.384564 196.19642 
L 441.49494 197.384083 
L 442.643604 197.624011 
L 443.868846 197.38797 
L 445.094088 196.278254 
L 446.281041 194.943188 
L 448.540081 195.965044 
L 449.765323 195.35459 
L 451.028854 195.495006 
L 452.177518 196.247922 
L 453.40276 196.117183 
L 454.513136 195.622067 
L 455.853244 194.663239 
L 457.26993 193.370211 
L 458.724905 192.471161 
L 459.83528 191.525211 
L 461.098811 189.52889 
L 462.324053 187.840008 
L 464.736248 183.654616 
L 465.846624 180.934249 
L 466.995288 179.483766 
L 468.182241 178.387086 
L 469.330906 176.771681 
L 470.517859 174.717209 
L 474.270162 165.563229 
L 475.265671 161.955481 
L 476.529202 159.834366 
L 477.792733 158.476286 
L 478.979686 158.981871 
L 480.090061 159.941174 
L 481.315303 160.14239 
L 482.540545 162.268502 
L 485.029318 168.02739 
L 486.063116 171.905162 
L 487.364936 174.753787 
L 489.547398 181.117603 
L 490.734351 183.287548 
L 492.227615 184.742483 
L 493.414568 185.344419 
L 494.29521 184.955367 
L 494.29521 184.955367 
" clip-path="url(#p2d73c3ac65)" style="fill: none; stroke: #d62728; stroke-width: 2.5; stroke-linecap: square"/>
   </g>
   <g id="line2d_18">
    <path d="M 54.854525 289.360573 
L 54.816236 290.461519 
L 54.777947 289.997548 
L 54.931103 290.223989 
L 56.807254 290.252172 
L 66.494324 290.066596 
L 67.872721 290.211896 
L 69.021385 290.489268 
L 71.242136 290.537466 
L 72.352512 290.613772 
L 74.64984 290.446273 
L 75.836793 290.31844 
L 80.737761 290.448636 
L 82.039581 290.342981 
L 87.170282 290.329933 
L 88.357235 290.158942 
L 89.544188 290.102478 
L 90.731141 290.201537 
L 93.143336 290.050168 
L 94.330289 290.062339 
L 97.814571 290.550139 
L 99.039813 290.363612 
L 101.413719 290.302304 
L 102.638961 290.366852 
L 105.089445 290.152658 
L 108.726882 290.19729 
L 109.837258 289.99587 
L 111.0625 290.105025 
L 113.436406 289.98573 
L 115.810312 290.227573 
L 118.14593 289.88954 
L 120.558125 289.605301 
L 121.745078 289.352911 
L 122.97032 289.432739 
L 124.195562 289.077883 
L 125.382515 289.069243 
L 127.79471 289.447538 
L 130.206905 289.043425 
L 131.432147 289.117535 
L 132.657389 288.898071 
L 133.882631 288.499105 
L 137.481779 287.866768 
L 138.668733 288.02436 
L 147.092271 286.361547 
L 148.317513 286.118709 
L 149.504466 285.653636 
L 150.729708 285.319949 
L 151.916661 284.398453 
L 154.21399 282.829662 
L 156.587896 281.06323 
L 157.813138 280.260123 
L 159.000091 279.279872 
L 160.148756 278.833852 
L 162.560951 277.326145 
L 163.747904 276.677727 
L 164.934857 276.311756 
L 167.347052 275.840325 
L 168.572294 275.312804 
L 169.759247 274.988877 
L 172.171442 273.292097 
L 173.358395 271.986251 
L 174.583637 269.714426 
L 175.732302 267.993438 
L 176.957544 265.878856 
L 178.106208 264.435932 
L 180.441825 261.208674 
L 181.667067 259.768331 
L 182.815732 257.914466 
L 184.040974 256.166377 
L 185.304505 254.002518 
L 186.453169 250.946107 
L 187.640122 248.438583 
L 190.090606 241.059299 
L 191.315848 235.796051 
L 192.502801 231.350387 
L 196.101949 215.243944 
L 197.288902 210.694823 
L 198.514144 207.345538 
L 199.662809 204.92584 
L 200.849762 203.342262 
L 202.036715 202.970819 
L 203.261957 202.717069 
L 204.410621 204.129196 
L 205.597574 204.154476 
L 206.822816 204.676169 
L 208.00977 204.224754 
L 209.235011 203.196508 
L 210.383676 209.485974 
L 213.982824 174.197784 
L 215.169777 165.751249 
L 216.395019 159.786745 
L 217.581972 156.673054 
L 218.768925 158.083401 
L 219.994167 162.615607 
L 221.219409 170.206721 
L 222.406363 181.449261 
L 223.631604 175.272839 
L 224.780269 174.818511 
L 225.967222 177.057502 
L 227.192464 178.118923 
L 229.56637 183.01064 
L 230.753323 185.229905 
L 231.901988 188.041362 
L 234.352472 193.21872 
L 236.6498 196.284555 
L 237.798465 197.333992 
L 239.023707 197.906195 
L 240.248948 199.521208 
L 241.397613 200.27861 
L 242.622855 201.294146 
L 243.848097 203.263763 
L 245.03505 204.248741 
L 247.370667 205.378006 
L 248.634198 206.375229 
L 249.744574 206.975802 
L 250.931527 207.853981 
L 252.156769 207.821285 
L 254.530675 209.672702 
L 255.717628 208.981689 
L 256.904581 207.874965 
L 258.129823 207.086406 
L 259.316776 207.669396 
L 260.50373 208.922895 
L 261.690683 208.717706 
L 262.877636 208.053011 
L 264.102878 207.613828 
L 266.476784 207.885492 
L 270.114221 205.638107 
L 271.262886 205.809786 
L 272.41155 206.642647 
L 273.675081 205.2898 
L 274.823745 204.478478 
L 277.197651 203.533449 
L 278.422893 203.359727 
L 279.648135 203.867936 
L 280.835088 202.417805 
L 282.022041 201.388291 
L 283.170706 199.31783 
L 284.357659 198.262576 
L 285.544612 195.076699 
L 287.918518 190.325838 
L 289.14376 187.539361 
L 290.292425 184.430199 
L 291.517667 181.805117 
L 292.742909 177.803013 
L 293.891573 171.779119 
L 299.78805 135.058857 
L 302.200245 124.592637 
L 303.463776 122.702528 
L 304.765595 122.012718 
L 305.990837 122.424377 
L 307.139502 124.895732 
L 308.364744 128.153585 
L 309.513408 132.362031 
L 310.73865 138.805506 
L 311.963892 144.051037 
L 315.486462 161.81421 
L 317.860369 175.373382 
L 320.272564 185.977806 
L 322.723048 193.802354 
L 326.20733 200.072583 
L 327.394283 201.69673 
L 328.581236 202.764676 
L 330.955142 203.359579 
L 332.142095 203.030516 
L 333.367337 202.2295 
L 334.55429 202.43377 
L 336.889908 202.636683 
L 338.11515 202.878791 
L 339.340392 203.239329 
L 340.489056 201.877574 
L 341.714298 201.558555 
L 342.901251 201.479716 
L 344.049915 200.171812 
L 345.236869 199.535659 
L 346.538688 198.475452 
L 347.649064 196.521988 
L 348.797728 195.319999 
L 351.286501 193.447377 
L 352.396876 192.168949 
L 353.622118 191.830259 
L 354.770783 192.311257 
L 357.221267 190.223055 
L 358.40822 189.868708 
L 359.518595 189.96045 
L 360.705548 190.302035 
L 361.892501 190.158541 
L 363.156032 188.81761 
L 365.49165 185.999833 
L 366.755181 184.94207 
L 367.903845 183.772528 
L 369.090798 182.95207 
L 370.239462 183.813101 
L 371.502993 183.747719 
L 373.762033 184.555471 
L 375.025564 182.519981 
L 376.135939 181.725144 
L 378.509846 177.466734 
L 380.003109 174.736876 
L 381.419795 171.654149 
L 382.721615 169.305558 
L 383.908568 166.274436 
L 385.172099 164.680516 
L 387.546005 160.304105 
L 388.732958 160.167334 
L 389.843334 158.370737 
L 391.068576 157.773259 
L 392.293818 156.776172 
L 393.404193 154.963238 
L 394.591146 153.998059 
L 395.816388 152.496925 
L 397.04163 151.829401 
L 398.34345 150.33511 
L 399.338959 149.382129 
L 400.60249 148.56199 
L 401.827732 147.35764 
L 402.861529 148.053617 
L 404.163349 147.71873 
L 405.273725 146.610397 
L 406.498966 146.414913 
L 407.647631 145.446736 
L 408.911162 145.660578 
L 410.021537 144.491639 
L 412.433732 142.445968 
L 413.620685 142.795533 
L 414.922505 142.973783 
L 415.994592 143.326677 
L 417.258122 145.390059 
L 418.368498 146.581409 
L 419.670317 148.349793 
L 421.048715 150.592922 
L 423.154599 155.199806 
L 424.41813 158.784764 
L 426.715459 163.510004 
L 428.017278 167.322211 
L 429.280809 169.944791 
L 430.391185 171.56278 
L 431.50156 173.896814 
L 432.765091 175.29967 
L 433.913755 177.44156 
L 434.909264 178.660233 
L 436.364239 180.737538 
L 437.512903 180.860921 
L 438.661568 181.882062 
L 439.88681 183.510695 
L 441.073763 184.559729 
L 442.14585 185.93052 
L 443.447669 187.04509 
L 444.634622 188.393404 
L 445.821576 188.671996 
L 446.97024 188.142105 
L 448.195482 186.403174 
L 450.49281 181.719112 
L 451.871208 180.720018 
L 452.943294 179.127874 
L 455.240623 176.387964 
L 456.772175 175.578274 
L 460.677634 169.986129 
L 464.315071 163.733228 
L 466.688978 157.313555 
L 467.799353 153.577908 
L 470.096682 142.559161 
L 473.810696 127.483811 
L 474.959361 123.352571 
L 476.031448 122.860349 
L 477.333267 123.477738 
L 478.52022 126.284355 
L 481.008993 136.442546 
L 483.382899 147.857447 
L 484.608141 153.501455 
L 485.718517 157.244766 
L 488.015845 162.24227 
L 489.279376 163.323925 
L 490.466329 163.568576 
L 491.614994 163.04121 
L 492.68708 161.806815 
L 493.874033 159.930376 
L 493.874033 159.930376 
" clip-path="url(#p2d73c3ac65)" style="fill: none; stroke: #ff7f0e; stroke-width: 2.5; stroke-linecap: square"/>
   </g>
   <g id="line2d_19">
    <path d="M 53.552705 290.495855 
L 53.552705 289.851696 
L 53.476128 290.161018 
L 53.437839 290.167526 
L 53.552705 290.414848 
L 58.721695 290.784638 
L 61.019024 290.9802 
L 64.771327 290.738584 
L 67.374966 290.441161 
L 68.485342 290.280887 
L 69.595717 289.939637 
L 70.706093 289.791618 
L 71.816468 289.875828 
L 74.190375 290.320844 
L 79.014765 290.370202 
L 82.767068 289.914797 
L 86.634238 290.256449 
L 87.85948 290.218965 
L 89.046433 290.002421 
L 91.42034 290.190839 
L 92.645582 290.096072 
L 93.832535 290.250862 
L 96.283019 289.985249 
L 97.469972 289.941625 
L 98.695214 290.039884 
L 99.882167 289.799006 
L 101.06912 289.735261 
L 103.481315 289.952746 
L 104.668268 289.797549 
L 105.89351 290.01331 
L 108.343994 290.067706 
L 109.530947 290.384524 
L 110.7179 290.376424 
L 115.427424 289.64265 
L 116.652666 289.587336 
L 121.438768 289.965202 
L 122.549143 289.931578 
L 124.999627 289.259831 
L 126.148291 289.110194 
L 127.373533 289.227627 
L 128.598775 289.206531 
L 129.785728 288.96732 
L 134.724985 288.539794 
L 135.911938 288.058849 
L 138.324133 287.836537 
L 140.736328 287.029079 
L 141.923281 286.841158 
L 144.258899 286.248164 
L 145.445852 285.434751 
L 146.632805 284.853799 
L 150.270242 284.052745 
L 151.457195 283.505292 
L 153.831102 282.901513 
L 156.205008 281.351823 
L 157.43025 280.28822 
L 158.578914 279.589116 
L 160.991109 278.903406 
L 163.365016 278.769883 
L 164.551969 278.140242 
L 165.777211 277.134187 
L 169.33807 272.783928 
L 170.601601 271.15785 
L 171.826843 269.90821 
L 174.200749 267.965806 
L 176.574656 266.23685 
L 177.761609 265.672601 
L 180.097226 263.326459 
L 181.284179 261.546974 
L 182.471132 260.160937 
L 186.070281 254.730996 
L 187.295523 252.585995 
L 188.482476 251.233469 
L 189.669429 249.164702 
L 190.856382 246.26537 
L 193.268577 241.714156 
L 195.680772 238.988599 
L 196.829437 238.663511 
L 198.054679 238.935354 
L 199.241632 238.61905 
L 200.466874 238.803762 
L 201.653827 237.646479 
L 204.066022 234.185353 
L 206.439928 230.887677 
L 207.626881 228.817661 
L 209.962499 226.198716 
L 211.149452 223.559368 
L 213.523358 217.420647 
L 214.710311 213.545219 
L 215.973842 210.087934 
L 218.30946 204.505759 
L 219.496413 202.491484 
L 220.721655 201.653779 
L 221.946897 201.399238 
L 223.13385 200.765484 
L 224.320803 201.163983 
L 225.507756 202.184886 
L 226.732998 203.647378 
L 227.881662 204.059152 
L 229.068616 205.165923 
L 230.332146 205.82348 
L 231.480811 206.706632 
L 232.706053 208.29853 
L 233.893006 208.909928 
L 235.079959 209.932736 
L 236.228623 211.192757 
L 237.415576 212.938901 
L 238.60253 214.432346 
L 239.86606 214.226457 
L 241.014725 214.636985 
L 242.201678 214.750878 
L 243.388631 214.417204 
L 244.613873 214.449134 
L 245.762537 212.770392 
L 248.174732 212.170582 
L 249.361686 212.924044 
L 251.812169 212.419764 
L 252.999123 212.00032 
L 254.186076 212.654438 
L 255.373029 212.76041 
L 256.521693 213.134461 
L 257.708646 212.378439 
L 258.933888 211.989038 
L 260.082553 211.863567 
L 261.307795 212.098129 
L 262.456459 212.116175 
L 263.681701 212.307855 
L 264.868654 211.723347 
L 266.017318 211.840198 
L 267.204272 211.710608 
L 268.429513 211.845935 
L 269.578178 210.688045 
L 270.879997 209.548916 
L 272.028662 207.6493 
L 273.177326 205.430572 
L 275.589521 203.33488 
L 276.738186 200.957444 
L 279.188669 197.968579 
L 280.337334 197.663274 
L 281.562576 196.373854 
L 282.672951 195.516981 
L 283.898193 191.590459 
L 285.161724 188.855285 
L 286.348677 185.75998 
L 287.497341 181.377502 
L 289.947825 170.029088 
L 291.09649 163.030913 
L 292.321732 157.472021 
L 293.470396 150.704717 
L 294.657349 144.394584 
L 295.882591 136.760078 
L 297.031255 132.716691 
L 298.256497 127.294045 
L 300.630404 122.998079 
L 301.855646 123.272895 
L 303.042599 123.407168 
L 305.531371 127.935476 
L 306.794902 132.354586 
L 307.981855 137.312151 
L 309.168809 144.163762 
L 310.394051 150.183987 
L 311.619292 158.3223 
L 312.729668 164.941316 
L 313.878332 172.760591 
L 317.477481 190.469831 
L 318.702723 196.306749 
L 319.889676 200.214789 
L 321.000051 204.295473 
L 322.263582 208.219676 
L 323.412246 210.84569 
L 324.599199 212.730147 
L 325.786153 214.001407 
L 326.973106 214.171707 
L 328.198348 213.531309 
L 329.385301 212.733876 
L 331.759207 212.324318 
L 332.907871 212.84327 
L 334.094825 213.865131 
L 335.243489 214.500675 
L 336.583597 214.934097 
L 337.77055 214.918174 
L 338.880926 214.71144 
L 340.02959 213.290324 
L 341.33141 211.88242 
L 343.59045 212.010819 
L 344.815692 211.837161 
L 346.002645 211.055459 
L 347.266176 211.148743 
L 348.41484 210.606981 
L 349.563504 210.341177 
L 350.865324 209.481554 
L 351.975699 208.008534 
L 353.162653 206.791399 
L 354.387895 206.709899 
L 355.574848 205.614633 
L 357.910465 202.770568 
L 360.284371 200.901345 
L 361.471325 199.596385 
L 363.88352 198.605863 
L 365.032184 198.220378 
L 366.257426 197.205498 
L 367.482668 195.174681 
L 368.631332 193.765791 
L 369.779997 192.775206 
L 370.96695 190.916838 
L 372.192192 189.333201 
L 373.379145 186.917579 
L 374.566098 185.318611 
L 375.714762 183.316339 
L 376.978293 181.795994 
L 378.165246 179.13547 
L 380.845463 174.299738 
L 382.185571 171.792338 
L 383.449102 168.669963 
L 385.937875 163.413623 
L 387.086539 161.311213 
L 388.273492 160.538556 
L 389.460446 160.106975 
L 390.647399 159.550302 
L 391.719485 158.643522 
L 394.208258 153.835904 
L 395.318634 151.971077 
L 396.543876 149.371651 
L 400.143024 146.670117 
L 401.291688 146.276427 
L 403.742172 146.556389 
L 404.929125 146.34254 
L 406.039501 146.985357 
L 407.264743 148.45846 
L 408.528273 149.452348 
L 409.562071 151.801472 
L 410.863891 153.018782 
L 412.089133 153.345017 
L 413.352664 154.318797 
L 414.539617 154.41884 
L 415.611704 155.646199 
L 416.836945 157.519809 
L 418.023899 158.517837 
L 419.172563 160.183122 
L 421.546469 164.319997 
L 422.733422 166.471716 
L 423.958664 168.457449 
L 425.37535 170.26353 
L 426.562304 171.274363 
L 427.596101 172.711357 
L 428.821343 175.407868 
L 429.931719 175.931589 
L 432.267336 179.294519 
L 434.679531 183.360967 
L 437.053438 186.235789 
L 438.355257 186.763271 
L 439.54221 187.054574 
L 440.652586 186.712197 
L 441.762962 184.825543 
L 444.251734 181.123564 
L 445.285532 180.840185 
L 447.697727 178.136602 
L 448.961258 177.353929 
L 450.1865 176.939766 
L 451.373453 177.568551 
L 452.560406 176.598966 
L 453.632493 176.705515 
L 454.819446 176.139371 
L 456.236132 175.181476 
L 457.691107 174.06018 
L 458.954638 172.931102 
L 460.256457 172.951452 
L 461.328544 173.250269 
L 462.821808 173.529304 
L 464.04705 172.614197 
L 464.851115 170.581488 
L 465.999779 169.42039 
L 467.301599 166.089822 
L 468.565129 162.285785 
L 469.752082 157.145864 
L 470.939036 153.610531 
L 473.38952 147.363661 
L 475.686848 144.556054 
L 476.91209 144.996565 
L 478.137332 147.699137 
L 479.209419 150.454149 
L 484.148675 169.313055 
L 486.522582 177.49922 
L 488.858199 182.484365 
L 490.083441 184.194211 
L 491.155528 185.042775 
L 492.38077 184.89261 
L 493.644301 183.60627 
L 494.486654 181.046307 
L 494.486654 181.046307 
" clip-path="url(#p2d73c3ac65)" style="fill: none; stroke: #9467bd; stroke-width: 2.5; stroke-linecap: square"/>
   </g>
   <g id="line2d_20">
    <path d="M 54.586503 290.432557 
L 54.509926 289.891345 
L 54.509926 290.550257 
L 54.509926 290.438832 
L 54.433348 290.269284 
L 54.548214 289.974621 
L 58.032496 289.685949 
L 64.35015 290.3626 
L 65.95828 290.241291 
L 69.634006 289.75166 
L 71.854757 290.044737 
L 73.003421 290.094183 
L 76.564281 290.58413 
L 79.014765 290.432065 
L 81.541826 290.336882 
L 82.843646 290.576884 
L 84.183754 290.50158 
L 86.710816 289.989082 
L 90.271675 290.306835 
L 92.645582 290.161795 
L 93.870823 290.359359 
L 96.283019 290.3852 
L 98.695214 290.389192 
L 101.06912 290.54294 
L 102.256073 290.366192 
L 103.443026 289.894542 
L 104.629979 289.56377 
L 107.003886 289.481103 
L 108.229128 289.544406 
L 110.603034 290.025846 
L 111.789987 290.255954 
L 116.576089 290.301437 
L 118.949995 290.246997 
L 120.136948 289.958951 
L 122.510854 289.915528 
L 126.110002 289.2754 
L 128.560486 288.691838 
L 129.74744 288.174879 
L 132.236212 287.844378 
L 133.461454 287.879327 
L 134.648407 287.70195 
L 135.835361 287.827266 
L 137.022314 287.680613 
L 138.170978 287.316214 
L 139.434509 286.680517 
L 140.659751 286.460787 
L 141.846704 285.898023 
L 144.258899 285.364079 
L 145.484141 285.219764 
L 147.858047 284.665098 
L 149.045 283.975138 
L 150.270242 283.009109 
L 151.418907 282.284075 
L 152.644149 281.776059 
L 153.869391 280.795744 
L 155.056344 280.127847 
L 158.617203 277.519356 
L 159.804156 276.832081 
L 160.952821 275.255787 
L 162.139774 274.131572 
L 163.403305 273.293279 
L 164.590258 271.982769 
L 165.738922 270.453473 
L 166.925875 269.124699 
L 168.151117 266.971771 
L 170.563312 263.257027 
L 171.711977 260.675717 
L 172.860641 257.441991 
L 175.311125 252.537894 
L 176.498078 248.600775 
L 177.685031 245.236085 
L 180.058937 237.002059 
L 181.245891 232.712564 
L 182.432844 229.304815 
L 184.845039 219.010159 
L 187.180656 207.469875 
L 188.405898 200.151647 
L 189.669429 193.636919 
L 192.158202 178.399847 
L 194.493819 167.317499 
L 195.719061 163.560355 
L 196.906014 160.936479 
L 198.131256 160.77695 
L 199.279921 163.114791 
L 200.428585 167.195697 
L 201.615538 172.180035 
L 202.879069 176.451604 
L 204.027733 179.442019 
L 205.214686 181.841931 
L 206.439928 180.774682 
L 207.588593 179.143239 
L 208.813835 176.379815 
L 211.22603 168.745009 
L 212.412983 164.333119 
L 213.561647 161.454354 
L 214.786889 158.697703 
L 215.973842 157.760385 
L 217.122507 158.938423 
L 218.347749 159.344071 
L 221.908608 166.434531 
L 224.320803 172.165168 
L 225.546045 174.866759 
L 226.694709 176.229781 
L 227.881662 178.407165 
L 229.106904 181.462998 
L 230.255569 183.182332 
L 231.480811 185.216904 
L 232.667764 186.017382 
L 233.854717 188.322276 
L 235.079959 190.953478 
L 236.266912 193.214334 
L 239.827772 196.869071 
L 242.201678 199.640599 
L 243.388631 199.519766 
L 244.575584 199.610668 
L 245.800826 200.067986 
L 246.987779 200.956999 
L 248.174732 200.988004 
L 249.361686 201.283126 
L 250.548639 202.286212 
L 251.697303 202.879443 
L 252.922545 203.785181 
L 254.109498 203.50911 
L 257.670358 203.389119 
L 258.857311 203.597349 
L 260.005975 201.735792 
L 261.269506 200.900732 
L 262.456459 201.153859 
L 263.681701 200.593744 
L 264.792076 199.813713 
L 265.97903 199.657252 
L 267.204272 199.147266 
L 268.391225 198.956145 
L 269.578178 197.702308 
L 270.765131 197.175965 
L 271.913795 195.798198 
L 273.177326 194.626608 
L 274.364279 194.958865 
L 275.589521 194.639647 
L 276.738186 193.318604 
L 277.88685 192.926908 
L 279.112092 191.868359 
L 280.299045 190.430608 
L 281.485998 187.904641 
L 282.749529 185.688558 
L 283.936482 182.469877 
L 285.085146 178.406337 
L 286.233811 174.845886 
L 287.459053 169.866661 
L 289.756381 155.039126 
L 290.905046 147.115605 
L 293.35553 127.73347 
L 294.580772 120.449124 
L 295.729436 115.94224 
L 296.954678 115.011024 
L 298.17992 115.483117 
L 299.366873 118.721019 
L 300.553826 122.716781 
L 301.779068 127.822815 
L 303.00431 132.426548 
L 304.267841 136.7068 
L 306.756613 146.916425 
L 307.905278 153.240012 
L 308.939076 160.446135 
L 311.351271 171.962529 
L 315.026997 184.953468 
L 316.21395 187.805909 
L 317.439192 191.254913 
L 319.851387 195.675581 
L 321.000051 199.2003 
L 322.225293 201.282552 
L 323.373957 201.410692 
L 324.560911 202.173178 
L 325.786153 202.095136 
L 327.011395 202.597263 
L 328.198348 202.376006 
L 329.385301 202.508241 
L 330.572254 202.168327 
L 331.682629 202.204171 
L 332.984449 203.399336 
L 334.094825 203.450444 
L 335.281778 203.251131 
L 336.468731 203.659163 
L 337.655684 203.788649 
L 338.880926 204.051737 
L 340.144457 202.759898 
L 343.743605 199.564707 
L 344.853981 198.409948 
L 346.117511 198.440333 
L 347.266176 199.07128 
L 349.640082 201.030813 
L 350.750457 200.783608 
L 353.162653 199.46433 
L 354.311317 198.280386 
L 356.761801 194.486419 
L 357.872176 193.721483 
L 359.097418 192.445601 
L 360.284371 190.747337 
L 361.471325 190.018251 
L 362.658278 188.074656 
L 365.070473 183.621432 
L 366.257426 183.169651 
L 367.444379 181.63767 
L 368.669621 179.65672 
L 370.96695 176.675105 
L 373.417434 174.110843 
L 374.566098 171.925085 
L 375.753051 168.559562 
L 379.581932 160.429451 
L 380.883752 157.532694 
L 382.22386 156.158316 
L 383.410813 154.091278 
L 384.597766 152.981731 
L 385.899586 152.370473 
L 387.086539 150.90393 
L 388.273492 148.942864 
L 389.422157 147.727584 
L 390.60911 145.607725 
L 391.796063 143.083293 
L 393.021305 141.769742 
L 394.208258 140.329426 
L 395.356922 138.634858 
L 396.543876 139.457725 
L 397.845695 140.121328 
L 398.994359 139.944902 
L 400.181313 141.222756 
L 401.329977 143.136649 
L 402.51693 144.757556 
L 403.742172 145.667242 
L 404.852548 145.970788 
L 406.154367 145.343628 
L 407.264743 146.564437 
L 408.566562 148.86992 
L 409.715227 150.196181 
L 410.863891 150.904918 
L 412.089133 154.006692 
L 413.276086 157.32335 
L 415.611704 162.794748 
L 416.875234 163.924362 
L 417.98561 165.865524 
L 419.325718 167.857553 
L 420.321227 169.000083 
L 421.584758 171.131827 
L 422.886578 173.097546 
L 425.183906 177.629325 
L 426.638881 179.355267 
L 427.710968 181.806599 
L 428.859632 183.447006 
L 429.89343 186.457576 
L 431.080383 187.493654 
L 432.343914 189.153245 
L 433.569156 191.897936 
L 434.71782 193.029315 
L 435.789907 192.436604 
L 436.97686 192.091921 
L 438.240391 191.090595 
L 439.427344 190.559071 
L 440.690875 189.792241 
L 441.80125 189.458628 
L 445.476976 187.69153 
L 446.587352 185.783146 
L 447.736016 184.641547 
L 448.922969 182.823834 
L 450.148211 181.797909 
L 451.296876 181.297023 
L 452.522117 181.432525 
L 454.819446 178.9607 
L 456.236132 176.896069 
L 458.87806 173.5662 
L 460.17988 173.289633 
L 461.366833 171.468554 
L 462.553786 169.167289 
L 463.817317 165.246351 
L 465.195714 161.738952 
L 466.152934 156.056628 
L 467.26331 150.829851 
L 468.373685 146.191098 
L 469.675505 143.622461 
L 470.862458 143.681068 
L 472.0877 145.279544 
L 473.351231 148.531629 
L 475.648559 158.418617 
L 476.797224 165.049905 
L 480.434661 181.000997 
L 481.659903 185.480537 
L 483.918943 191.615087 
L 485.335629 194.798361 
L 486.599159 197.967447 
L 487.824401 200.136558 
L 488.743333 201.295548 
L 489.853708 201.688939 
L 493.414568 201.718334 
L 494.601521 202.098664 
L 494.601521 202.098664 
" clip-path="url(#p2d73c3ac65)" style="fill: none; stroke: #2ca02c; stroke-width: 2.5; stroke-linecap: square"/>
   </g>
   <g id="patch_3">
    <path d="M 55.084258 303.182656 
L 55.084258 39.679004 
" style="fill: none; stroke: #000000; stroke-width: 1.5; stroke-linejoin: miter; stroke-linecap: square"/>
   </g>
   <g id="patch_4">
    <path d="M 55.084258 303.182656 
L 495.405586 303.182656 
" style="fill: none; stroke: #000000; stroke-width: 1.5; stroke-linejoin: miter; stroke-linecap: square"/>
   </g>
   <g id="text_18">
    <!-- 1421_wo_HF -->
    <g transform="translate(233.610234 18.441699) scale(0.14 -0.14)">
     <defs>
      <path id="ArialMT-42" d="M -97 -1272 
L -97 -866 
L 3631 -866 
L 3631 -1272 
L -97 -1272 
z
" transform="scale(0.015625)"/>
      <path id="ArialMT-5a" d="M 1034 0 
L 19 3319 
L 600 3319 
L 1128 1403 
L 1325 691 
Q 1338 744 1497 1375 
L 2025 3319 
L 2603 3319 
L 3100 1394 
L 3266 759 
L 3456 1400 
L 4025 3319 
L 4572 3319 
L 3534 0 
L 2950 0 
L 2422 1988 
L 2294 2553 
L 1622 0 
L 1034 0 
z
" transform="scale(0.015625)"/>
      <path id="ArialMT-2b" d="M 513 0 
L 513 4581 
L 1119 4581 
L 1119 2700 
L 3500 2700 
L 3500 4581 
L 4106 4581 
L 4106 0 
L 3500 0 
L 3500 2159 
L 1119 2159 
L 1119 0 
L 513 0 
z
" transform="scale(0.015625)"/>
      <path id="ArialMT-29" d="M 525 0 
L 525 4581 
L 3616 4581 
L 3616 4041 
L 1131 4041 
L 1131 2622 
L 3281 2622 
L 3281 2081 
L 1131 2081 
L 1131 0 
L 525 0 
z
" transform="scale(0.015625)"/>
     </defs>
     <use xlink:href="#ArialMT-14"/>
     <use xlink:href="#ArialMT-17" transform="translate(55.609375 0)"/>
     <use xlink:href="#ArialMT-15" transform="translate(111.21875 0)"/>
     <use xlink:href="#ArialMT-14" transform="translate(166.828125 0)"/>
     <use xlink:href="#ArialMT-42" transform="translate(222.4375 0)"/>
     <use xlink:href="#ArialMT-5a" transform="translate(278.046875 0)"/>
     <use xlink:href="#ArialMT-52" transform="translate(350.265625 0)"/>
     <use xlink:href="#ArialMT-42" transform="translate(405.875 0)"/>
     <use xlink:href="#ArialMT-2b" transform="translate(461.484375 0)"/>
     <use xlink:href="#ArialMT-29" transform="translate(533.703125 0)"/>
    </g>
    <!-- m/z 28 -->
    <g transform="translate(254.239453 33.679004) scale(0.14 -0.14)">
     <use xlink:href="#ArialMT-50"/>
     <use xlink:href="#ArialMT-12" transform="translate(83.296875 0)"/>
     <use xlink:href="#ArialMT-5d" transform="translate(111.078125 0)"/>
     <use xlink:href="#ArialMT-3" transform="translate(161.078125 0)"/>
     <use xlink:href="#ArialMT-15" transform="translate(188.859375 0)"/>
     <use xlink:href="#ArialMT-1b" transform="translate(244.46875 0)"/>
    </g>
   </g>
   <g id="legend_1">
    <g id="line2d_21">
     <path d="M 513.212012 52.459277 
L 523.212012 52.459277 
L 533.212012 52.459277 
" style="fill: none; stroke: #000000; stroke-width: 2.5; stroke-linecap: square"/>
    </g>
    <g id="text_19">
     <!-- 0 h -->
     <g transform="translate(541.212012 55.959277) scale(0.1 -0.1)">
      <defs>
       <path id="ArialMT-4b" d="M 422 0 
L 422 4581 
L 984 4581 
L 984 2938 
Q 1378 3394 1978 3394 
Q 2347 3394 2619 3248 
Q 2891 3103 3008 2847 
Q 3125 2591 3125 2103 
L 3125 0 
L 2563 0 
L 2563 2103 
Q 2563 2525 2380 2717 
Q 2197 2909 1863 2909 
Q 1613 2909 1392 2779 
Q 1172 2650 1078 2428 
Q 984 2206 984 1816 
L 984 0 
L 422 0 
z
" transform="scale(0.015625)"/>
      </defs>
      <use xlink:href="#ArialMT-13"/>
      <use xlink:href="#ArialMT-3" transform="translate(55.609375 0)"/>
      <use xlink:href="#ArialMT-4b" transform="translate(83.390625 0)"/>
     </g>
    </g>
    <g id="line2d_22">
     <path d="M 513.212012 66.844043 
L 523.212012 66.844043 
L 533.212012 66.844043 
" style="fill: none; stroke: #1f77b4; stroke-width: 2.5; stroke-linecap: square"/>
    </g>
    <g id="text_20">
     <!-- 6 h -->
     <g transform="translate(541.212012 70.344043) scale(0.1 -0.1)">
      <use xlink:href="#ArialMT-19"/>
      <use xlink:href="#ArialMT-3" transform="translate(55.609375 0)"/>
      <use xlink:href="#ArialMT-4b" transform="translate(83.390625 0)"/>
     </g>
    </g>
    <g id="line2d_23">
     <path d="M 513.212012 81.228809 
L 523.212012 81.228809 
L 533.212012 81.228809 
" style="fill: none; stroke: #d62728; stroke-width: 2.5; stroke-linecap: square"/>
    </g>
    <g id="text_21">
     <!-- 24 h -->
     <g transform="translate(541.212012 84.728809) scale(0.1 -0.1)">
      <use xlink:href="#ArialMT-15"/>
      <use xlink:href="#ArialMT-17" transform="translate(55.609375 0)"/>
      <use xlink:href="#ArialMT-3" transform="translate(111.21875 0)"/>
      <use xlink:href="#ArialMT-4b" transform="translate(139 0)"/>
     </g>
    </g>
    <g id="line2d_24">
     <path d="M 513.212012 95.613574 
L 523.212012 95.613574 
L 533.212012 95.613574 
" style="fill: none; stroke: #ff7f0e; stroke-width: 2.5; stroke-linecap: square"/>
    </g>
    <g id="text_22">
     <!-- 7 d -->
     <g transform="translate(541.212012 99.113574) scale(0.1 -0.1)">
      <defs>
       <path id="ArialMT-47" d="M 2575 0 
L 2575 419 
Q 2259 -75 1647 -75 
Q 1250 -75 917 144 
Q 584 363 401 755 
Q 219 1147 219 1656 
Q 219 2153 384 2558 
Q 550 2963 881 3178 
Q 1213 3394 1622 3394 
Q 1922 3394 2156 3267 
Q 2391 3141 2538 2938 
L 2538 4581 
L 3097 4581 
L 3097 0 
L 2575 0 
z
M 797 1656 
Q 797 1019 1065 703 
Q 1334 388 1700 388 
Q 2069 388 2326 689 
Q 2584 991 2584 1609 
Q 2584 2291 2321 2609 
Q 2059 2928 1675 2928 
Q 1300 2928 1048 2622 
Q 797 2316 797 1656 
z
" transform="scale(0.015625)"/>
      </defs>
      <use xlink:href="#ArialMT-1a"/>
      <use xlink:href="#ArialMT-3" transform="translate(55.609375 0)"/>
      <use xlink:href="#ArialMT-47" transform="translate(83.390625 0)"/>
     </g>
    </g>
    <g id="line2d_25">
     <path d="M 513.212012 109.99834 
L 523.212012 109.99834 
L 533.212012 109.99834 
" style="fill: none; stroke: #9467bd; stroke-width: 2.5; stroke-linecap: square"/>
    </g>
    <g id="text_23">
     <!-- 14 d -->
     <g transform="translate(541.212012 113.49834) scale(0.1 -0.1)">
      <use xlink:href="#ArialMT-14"/>
      <use xlink:href="#ArialMT-17" transform="translate(55.609375 0)"/>
      <use xlink:href="#ArialMT-3" transform="translate(111.21875 0)"/>
      <use xlink:href="#ArialMT-47" transform="translate(139 0)"/>
     </g>
    </g>
    <g id="line2d_26">
     <path d="M 513.212012 124.383105 
L 523.212012 124.383105 
L 533.212012 124.383105 
" style="fill: none; stroke: #2ca02c; stroke-width: 2.5; stroke-linecap: square"/>
    </g>
    <g id="text_24">
     <!-- 28 d -->
     <g transform="translate(541.212012 127.883105) scale(0.1 -0.1)">
      <use xlink:href="#ArialMT-15"/>
      <use xlink:href="#ArialMT-1b" transform="translate(55.609375 0)"/>
      <use xlink:href="#ArialMT-3" transform="translate(111.21875 0)"/>
      <use xlink:href="#ArialMT-47" transform="translate(139 0)"/>
     </g>
    </g>
   </g>
  </g>
 </g>
 <defs>
  <clipPath id="p2d73c3ac65">
   <rect x="55.084258" y="39.679004" width="440.321328" height="263.503652"/>
  </clipPath>
 </defs>
</svg>
