<?xml version="1.0" encoding="utf-8" standalone="no"?>
<!DOCTYPE svg PUBLIC "-//W3C//DTD SVG 1.1//EN"
  "http://www.w3.org/Graphics/SVG/1.1/DTD/svg11.dtd">
<svg xmlns:xlink="http://www.w3.org/1999/xlink" width="571.87295pt" height="344.160273pt" viewBox="0 0 571.87295 344.160273" xmlns="http://www.w3.org/2000/svg" version="1.1">
 <metadata>
  <rdf:RDF xmlns:dc="http://purl.org/dc/elements/1.1/" xmlns:cc="http://creativecommons.org/ns#" xmlns:rdf="http://www.w3.org/1999/02/22-rdf-syntax-ns#">
   <cc:Work>
    <dc:type rdf:resource="http://purl.org/dc/dcmitype/StillImage"/>
    <dc:date>2026-07-10T11:48:32.113637</dc:date>
    <dc:format>image/svg+xml</dc:format>
    <dc:creator>
     <cc:Agent>
      <dc:title>Matplotlib v3.11.0, https://matplotlib.org/</dc:title>
     </cc:Agent>
    </dc:creator>
   </cc:Work>
  </rdf:RDF>
 </metadata>
 <defs>
  <style type="text/css">*{stroke-linejoin: round; stroke-linecap: butt}</style>
 </defs>
 <g id="figure_1">
  <g id="patch_1">
   <path d="M 0 344.160273 
L 571.87295 344.160273 
L 571.87295 0 
L 0 0 
z
" style="fill: #ffffff"/>
  </g>
  <g id="axes_1">
   <g id="patch_2">
    <path d="M 55.084258 303.182656 
L 495.405586 303.182656 
L 495.405586 39.679004 
L 55.084258 39.679004 
z
" style="fill: #ffffff"/>
   </g>
   <g id="matplotlib.axis_1">
    <g id="xtick_1">
     <g id="line2d_1">
      <defs>
       <path id="m03419ae76c" d="M 0 0 
L 0 -6 
" style="stroke: #000000; stroke-width: 0.8"/>
      </defs>
      <g>
       <use xlink:href="#m03419ae76c" x="112.517475" y="303.182656" style="stroke: #000000; stroke-width: 0.8"/>
      </g>
     </g>
     <g id="text_1">
      <!-- 200 -->
      <g transform="translate(100.839506 316.875039) scale(0.14 -0.14)">
       <defs>
        <path id="ArialMT-15" d="M 3222 541 
L 3222 0 
L 194 0 
Q 188 203 259 391 
Q 375 700 629 1000 
Q 884 1300 1366 1694 
Q 2113 2306 2375 2664 
Q 2638 3022 2638 3341 
Q 2638 3675 2398 3904 
Q 2159 4134 1775 4134 
Q 1369 4134 1125 3890 
Q 881 3647 878 3216 
L 300 3275 
Q 359 3922 746 4261 
Q 1134 4600 1788 4600 
Q 2447 4600 2831 4234 
Q 3216 3869 3216 3328 
Q 3216 3053 3103 2787 
Q 2991 2522 2730 2228 
Q 2469 1934 1863 1422 
Q 1356 997 1212 845 
Q 1069 694 975 541 
L 3222 541 
z
" transform="scale(0.015625)"/>
        <path id="ArialMT-13" d="M 266 2259 
Q 266 3072 433 3567 
Q 600 4063 929 4331 
Q 1259 4600 1759 4600 
Q 2128 4600 2406 4451 
Q 2684 4303 2865 4023 
Q 3047 3744 3150 3342 
Q 3253 2941 3253 2259 
Q 3253 1453 3087 958 
Q 2922 463 2592 192 
Q 2263 -78 1759 -78 
Q 1097 -78 719 397 
Q 266 969 266 2259 
z
M 844 2259 
Q 844 1131 1108 757 
Q 1372 384 1759 384 
Q 2147 384 2411 759 
Q 2675 1134 2675 2259 
Q 2675 3391 2411 3762 
Q 2147 4134 1753 4134 
Q 1366 4134 1134 3806 
Q 844 3388 844 2259 
z
" transform="scale(0.015625)"/>
       </defs>
       <use xlink:href="#ArialMT-15"/>
       <use xlink:href="#ArialMT-13" transform="translate(55.609375 0)"/>
       <use xlink:href="#ArialMT-13" transform="translate(111.21875 0)"/>
      </g>
     </g>
    </g>
    <g id="xtick_2">
     <g id="line2d_2">
      <g>
       <use xlink:href="#m03419ae76c" x="189.095097" y="303.182656" style="stroke: #000000; stroke-width: 0.8"/>
      </g>
     </g>
     <g id="text_2">
      <!-- 400 -->
      <g transform="translate(177.417128 316.875039) scale(0.14 -0.14)">
       <defs>
        <path id="ArialMT-17" d="M 2069 0 
L 2069 1097 
L 81 1097 
L 81 1613 
L 2172 4581 
L 2631 4581 
L 2631 1613 
L 3250 1613 
L 3250 1097 
L 2631 1097 
L 2631 0 
L 2069 0 
z
M 2069 1613 
L 2069 3678 
L 634 1613 
L 2069 1613 
z
" transform="scale(0.015625)"/>
       </defs>
       <use xlink:href="#ArialMT-17"/>
       <use xlink:href="#ArialMT-13" transform="translate(55.609375 0)"/>
       <use xlink:href="#ArialMT-13" transform="translate(111.21875 0)"/>
      </g>
     </g>
    </g>
    <g id="xtick_3">
     <g id="line2d_3">
      <g>
       <use xlink:href="#m03419ae76c" x="265.672719" y="303.182656" style="stroke: #000000; stroke-width: 0.8"/>
      </g>
     </g>
     <g id="text_3">
      <!-- 600 -->
      <g transform="translate(253.99475 316.875039) scale(0.14 -0.14)">
       <defs>
        <path id="ArialMT-19" d="M 3184 3459 
L 2625 3416 
Q 2550 3747 2413 3897 
Q 2184 4138 1850 4138 
Q 1581 4138 1378 3988 
Q 1113 3794 959 3422 
Q 806 3050 800 2363 
Q 1003 2672 1297 2822 
Q 1591 2972 1913 2972 
Q 2475 2972 2870 2558 
Q 3266 2144 3266 1488 
Q 3266 1056 3080 686 
Q 2894 316 2569 119 
Q 2244 -78 1831 -78 
Q 1128 -78 684 439 
Q 241 956 241 2144 
Q 241 3472 731 4075 
Q 1159 4600 1884 4600 
Q 2425 4600 2770 4297 
Q 3116 3994 3184 3459 
z
M 888 1484 
Q 888 1194 1011 928 
Q 1134 663 1356 523 
Q 1578 384 1822 384 
Q 2178 384 2434 671 
Q 2691 959 2691 1453 
Q 2691 1928 2437 2201 
Q 2184 2475 1800 2475 
Q 1419 2475 1153 2201 
Q 888 1928 888 1484 
z
" transform="scale(0.015625)"/>
       </defs>
       <use xlink:href="#ArialMT-19"/>
       <use xlink:href="#ArialMT-13" transform="translate(55.609375 0)"/>
       <use xlink:href="#ArialMT-13" transform="translate(111.21875 0)"/>
      </g>
     </g>
    </g>
    <g id="xtick_4">
     <g id="line2d_4">
      <g>
       <use xlink:href="#m03419ae76c" x="342.250341" y="303.182656" style="stroke: #000000; stroke-width: 0.8"/>
      </g>
     </g>
     <g id="text_4">
      <!-- 800 -->
      <g transform="translate(330.572373 316.875039) scale(0.14 -0.14)">
       <defs>
        <path id="ArialMT-1b" d="M 1131 2484 
Q 781 2613 612 2850 
Q 444 3088 444 3419 
Q 444 3919 803 4259 
Q 1163 4600 1759 4600 
Q 2359 4600 2725 4251 
Q 3091 3903 3091 3403 
Q 3091 3084 2923 2848 
Q 2756 2613 2416 2484 
Q 2838 2347 3058 2040 
Q 3278 1734 3278 1309 
Q 3278 722 2862 322 
Q 2447 -78 1769 -78 
Q 1091 -78 675 323 
Q 259 725 259 1325 
Q 259 1772 486 2073 
Q 713 2375 1131 2484 
z
M 1019 3438 
Q 1019 3113 1228 2906 
Q 1438 2700 1772 2700 
Q 2097 2700 2305 2904 
Q 2513 3109 2513 3406 
Q 2513 3716 2298 3927 
Q 2084 4138 1766 4138 
Q 1444 4138 1231 3931 
Q 1019 3725 1019 3438 
z
M 838 1322 
Q 838 1081 952 856 
Q 1066 631 1291 507 
Q 1516 384 1775 384 
Q 2178 384 2440 643 
Q 2703 903 2703 1303 
Q 2703 1709 2433 1975 
Q 2163 2241 1756 2241 
Q 1359 2241 1098 1978 
Q 838 1716 838 1322 
z
" transform="scale(0.015625)"/>
       </defs>
       <use xlink:href="#ArialMT-1b"/>
       <use xlink:href="#ArialMT-13" transform="translate(55.609375 0)"/>
       <use xlink:href="#ArialMT-13" transform="translate(111.21875 0)"/>
      </g>
     </g>
    </g>
    <g id="xtick_5">
     <g id="line2d_5">
      <g>
       <use xlink:href="#m03419ae76c" x="418.827964" y="303.182656" style="stroke: #000000; stroke-width: 0.8"/>
      </g>
     </g>
     <g id="text_5">
      <!-- 1000 -->
      <g transform="translate(403.257339 316.875039) scale(0.14 -0.14)">
       <defs>
        <path id="ArialMT-14" d="M 2384 0 
L 1822 0 
L 1822 3584 
Q 1619 3391 1289 3197 
Q 959 3003 697 2906 
L 697 3450 
Q 1169 3672 1522 3987 
Q 1875 4303 2022 4600 
L 2384 4600 
L 2384 0 
z
" transform="scale(0.015625)"/>
       </defs>
       <use xlink:href="#ArialMT-14"/>
       <use xlink:href="#ArialMT-13" transform="translate(55.609375 0)"/>
       <use xlink:href="#ArialMT-13" transform="translate(111.21875 0)"/>
       <use xlink:href="#ArialMT-13" transform="translate(166.828125 0)"/>
      </g>
     </g>
    </g>
    <g id="xtick_6">
     <g id="line2d_6">
      <g>
       <use xlink:href="#m03419ae76c" x="495.405586" y="303.182656" style="stroke: #000000; stroke-width: 0.8"/>
      </g>
     </g>
     <g id="text_6">
      <!-- 1200 -->
      <g transform="translate(479.834961 316.875039) scale(0.14 -0.14)">
       <use xlink:href="#ArialMT-14"/>
       <use xlink:href="#ArialMT-15" transform="translate(55.609375 0)"/>
       <use xlink:href="#ArialMT-13" transform="translate(111.21875 0)"/>
       <use xlink:href="#ArialMT-13" transform="translate(166.828125 0)"/>
      </g>
     </g>
    </g>
    <g id="text_7">
     <!-- T1 Temperature (°C) -->
     <g transform="translate(211.505547 334.013711) scale(0.14 -0.14)">
      <defs>
       <path id="ArialMT-37" d="M 1659 0 
L 1659 4041 
L 150 4041 
L 150 4581 
L 3781 4581 
L 3781 4041 
L 2266 4041 
L 2266 0 
L 1659 0 
z
" transform="scale(0.015625)"/>
       <path id="ArialMT-3" transform="scale(0.015625)"/>
       <path id="ArialMT-48" d="M 2694 1069 
L 3275 997 
Q 3138 488 2766 206 
Q 2394 -75 1816 -75 
Q 1088 -75 661 373 
Q 234 822 234 1631 
Q 234 2469 665 2931 
Q 1097 3394 1784 3394 
Q 2450 3394 2872 2941 
Q 3294 2488 3294 1666 
Q 3294 1616 3291 1516 
L 816 1516 
Q 847 969 1125 678 
Q 1403 388 1819 388 
Q 2128 388 2347 550 
Q 2566 713 2694 1069 
z
M 847 1978 
L 2700 1978 
Q 2663 2397 2488 2606 
Q 2219 2931 1791 2931 
Q 1403 2931 1139 2672 
Q 875 2413 847 1978 
z
" transform="scale(0.015625)"/>
       <path id="ArialMT-50" d="M 422 0 
L 422 3319 
L 925 3319 
L 925 2853 
Q 1081 3097 1340 3245 
Q 1600 3394 1931 3394 
Q 2300 3394 2536 3241 
Q 2772 3088 2869 2813 
Q 3263 3394 3894 3394 
Q 4388 3394 4653 3120 
Q 4919 2847 4919 2278 
L 4919 0 
L 4359 0 
L 4359 2091 
Q 4359 2428 4304 2576 
Q 4250 2725 4106 2815 
Q 3963 2906 3769 2906 
Q 3419 2906 3187 2673 
Q 2956 2441 2956 1928 
L 2956 0 
L 2394 0 
L 2394 2156 
Q 2394 2531 2256 2718 
Q 2119 2906 1806 2906 
Q 1569 2906 1367 2781 
Q 1166 2656 1075 2415 
Q 984 2175 984 1722 
L 984 0 
L 422 0 
z
" transform="scale(0.015625)"/>
       <path id="ArialMT-53" d="M 422 -1272 
L 422 3319 
L 934 3319 
L 934 2888 
Q 1116 3141 1344 3267 
Q 1572 3394 1897 3394 
Q 2322 3394 2647 3175 
Q 2972 2956 3137 2557 
Q 3303 2159 3303 1684 
Q 3303 1175 3120 767 
Q 2938 359 2589 142 
Q 2241 -75 1856 -75 
Q 1575 -75 1351 44 
Q 1128 163 984 344 
L 984 -1272 
L 422 -1272 
z
M 931 1641 
Q 931 1000 1190 694 
Q 1450 388 1819 388 
Q 2194 388 2461 705 
Q 2728 1022 2728 1688 
Q 2728 2322 2467 2637 
Q 2206 2953 1844 2953 
Q 1484 2953 1207 2617 
Q 931 2281 931 1641 
z
" transform="scale(0.015625)"/>
       <path id="ArialMT-55" d="M 416 0 
L 416 3319 
L 922 3319 
L 922 2816 
Q 1116 3169 1280 3281 
Q 1444 3394 1641 3394 
Q 1925 3394 2219 3213 
L 2025 2691 
Q 1819 2813 1613 2813 
Q 1428 2813 1281 2702 
Q 1134 2591 1072 2394 
Q 978 2094 978 1738 
L 978 0 
L 416 0 
z
" transform="scale(0.015625)"/>
       <path id="ArialMT-44" d="M 2588 409 
Q 2275 144 1986 34 
Q 1697 -75 1366 -75 
Q 819 -75 525 192 
Q 231 459 231 875 
Q 231 1119 342 1320 
Q 453 1522 633 1644 
Q 813 1766 1038 1828 
Q 1203 1872 1538 1913 
Q 2219 1994 2541 2106 
Q 2544 2222 2544 2253 
Q 2544 2597 2384 2738 
Q 2169 2928 1744 2928 
Q 1347 2928 1158 2789 
Q 969 2650 878 2297 
L 328 2372 
Q 403 2725 575 2942 
Q 747 3159 1072 3276 
Q 1397 3394 1825 3394 
Q 2250 3394 2515 3294 
Q 2781 3194 2906 3042 
Q 3031 2891 3081 2659 
Q 3109 2516 3109 2141 
L 3109 1391 
Q 3109 606 3145 398 
Q 3181 191 3288 0 
L 2700 0 
Q 2613 175 2588 409 
z
M 2541 1666 
Q 2234 1541 1622 1453 
Q 1275 1403 1131 1340 
Q 988 1278 909 1158 
Q 831 1038 831 891 
Q 831 666 1001 516 
Q 1172 366 1500 366 
Q 1825 366 2078 508 
Q 2331 650 2450 897 
Q 2541 1088 2541 1459 
L 2541 1666 
z
" transform="scale(0.015625)"/>
       <path id="ArialMT-57" d="M 1650 503 
L 1731 6 
Q 1494 -44 1306 -44 
Q 1000 -44 831 53 
Q 663 150 594 308 
Q 525 466 525 972 
L 525 2881 
L 113 2881 
L 113 3319 
L 525 3319 
L 525 4141 
L 1084 4478 
L 1084 3319 
L 1650 3319 
L 1650 2881 
L 1084 2881 
L 1084 941 
Q 1084 700 1114 631 
Q 1144 563 1211 522 
Q 1278 481 1403 481 
Q 1497 481 1650 503 
z
" transform="scale(0.015625)"/>
       <path id="ArialMT-58" d="M 2597 0 
L 2597 488 
Q 2209 -75 1544 -75 
Q 1250 -75 995 37 
Q 741 150 617 320 
Q 494 491 444 738 
Q 409 903 409 1263 
L 409 3319 
L 972 3319 
L 972 1478 
Q 972 1038 1006 884 
Q 1059 663 1231 536 
Q 1403 409 1656 409 
Q 1909 409 2131 539 
Q 2353 669 2445 892 
Q 2538 1116 2538 1541 
L 2538 3319 
L 3100 3319 
L 3100 0 
L 2597 0 
z
" transform="scale(0.015625)"/>
       <path id="ArialMT-b" d="M 1497 -1347 
Q 1031 -759 709 28 
Q 388 816 388 1659 
Q 388 2403 628 3084 
Q 909 3875 1497 4659 
L 1900 4659 
Q 1522 4009 1400 3731 
Q 1209 3300 1100 2831 
Q 966 2247 966 1656 
Q 966 153 1900 -1347 
L 1497 -1347 
z
" transform="scale(0.015625)"/>
       <path id="ArialMT-83" d="M 400 3794 
Q 400 4153 654 4406 
Q 909 4659 1266 4659 
Q 1628 4659 1881 4406 
Q 2134 4153 2134 3794 
Q 2134 3434 1879 3179 
Q 1625 2925 1266 2925 
Q 909 2925 654 3178 
Q 400 3431 400 3794 
z
M 741 3794 
Q 741 3575 895 3420 
Q 1050 3266 1269 3266 
Q 1484 3266 1639 3420 
Q 1794 3575 1794 3794 
Q 1794 4013 1639 4167 
Q 1484 4322 1269 4322 
Q 1050 4322 895 4167 
Q 741 4013 741 3794 
z
" transform="scale(0.015625)"/>
       <path id="ArialMT-26" d="M 3763 1606 
L 4369 1453 
Q 4178 706 3683 314 
Q 3188 -78 2472 -78 
Q 1731 -78 1267 223 
Q 803 525 561 1097 
Q 319 1669 319 2325 
Q 319 3041 592 3573 
Q 866 4106 1370 4382 
Q 1875 4659 2481 4659 
Q 3169 4659 3637 4309 
Q 4106 3959 4291 3325 
L 3694 3184 
Q 3534 3684 3231 3912 
Q 2928 4141 2469 4141 
Q 1941 4141 1586 3887 
Q 1231 3634 1087 3207 
Q 944 2781 944 2328 
Q 944 1744 1114 1308 
Q 1284 872 1643 656 
Q 2003 441 2422 441 
Q 2931 441 3284 734 
Q 3638 1028 3763 1606 
z
" transform="scale(0.015625)"/>
       <path id="ArialMT-c" d="M 791 -1347 
L 388 -1347 
Q 1322 153 1322 1656 
Q 1322 2244 1188 2822 
Q 1081 3291 891 3722 
Q 769 4003 388 4659 
L 791 4659 
Q 1378 3875 1659 3084 
Q 1900 2403 1900 1659 
Q 1900 816 1576 28 
Q 1253 -759 791 -1347 
z
" transform="scale(0.015625)"/>
      </defs>
      <use xlink:href="#ArialMT-37"/>
      <use xlink:href="#ArialMT-14" transform="translate(61.078125 0)"/>
      <use xlink:href="#ArialMT-3" transform="translate(116.6875 0)"/>
      <use xlink:href="#ArialMT-37" transform="translate(142.65625 0)"/>
      <use xlink:href="#ArialMT-48" transform="translate(192.65625 0)"/>
      <use xlink:href="#ArialMT-50" transform="translate(248.265625 0)"/>
      <use xlink:href="#ArialMT-53" transform="translate(331.5625 0)"/>
      <use xlink:href="#ArialMT-48" transform="translate(387.171875 0)"/>
      <use xlink:href="#ArialMT-55" transform="translate(442.78125 0)"/>
      <use xlink:href="#ArialMT-44" transform="translate(476.078125 0)"/>
      <use xlink:href="#ArialMT-57" transform="translate(531.6875 0)"/>
      <use xlink:href="#ArialMT-58" transform="translate(559.46875 0)"/>
      <use xlink:href="#ArialMT-55" transform="translate(615.078125 0)"/>
      <use xlink:href="#ArialMT-48" transform="translate(648.375 0)"/>
      <use xlink:href="#ArialMT-3" transform="translate(703.984375 0)"/>
      <use xlink:href="#ArialMT-b" transform="translate(731.765625 0)"/>
      <use xlink:href="#ArialMT-83" transform="translate(765.0625 0)"/>
      <use xlink:href="#ArialMT-26" transform="translate(805.046875 0)"/>
      <use xlink:href="#ArialMT-c" transform="translate(877.265625 0)"/>
     </g>
    </g>
   </g>
   <g id="matplotlib.axis_2">
    <g id="ytick_1">
     <g id="line2d_7">
      <defs>
       <path id="m3ad8adef03" d="M 0 0 
L 6 0 
" style="stroke: #000000; stroke-width: 0.8"/>
      </defs>
      <g>
       <use xlink:href="#m3ad8adef03" x="55.084258" y="283.265048" style="stroke: #000000; stroke-width: 0.8"/>
      </g>
     </g>
     <g id="text_8">
      <!-- 0.00 -->
      <g transform="translate(24.338945 288.361239) scale(0.14 -0.14)">
       <defs>
        <path id="ArialMT-11" d="M 581 0 
L 581 641 
L 1222 641 
L 1222 0 
L 581 0 
z
" transform="scale(0.015625)"/>
       </defs>
       <use xlink:href="#ArialMT-13"/>
       <use xlink:href="#ArialMT-11" transform="translate(55.609375 0)"/>
       <use xlink:href="#ArialMT-13" transform="translate(83.390625 0)"/>
       <use xlink:href="#ArialMT-13" transform="translate(139 0)"/>
      </g>
     </g>
    </g>
    <g id="ytick_2">
     <g id="line2d_8">
      <g>
       <use xlink:href="#m3ad8adef03" x="55.084258" y="253.788498" style="stroke: #000000; stroke-width: 0.8"/>
      </g>
     </g>
     <g id="text_9">
      <!-- 0.25 -->
      <g transform="translate(24.338945 258.88469) scale(0.14 -0.14)">
       <defs>
        <path id="ArialMT-18" d="M 266 1200 
L 856 1250 
Q 922 819 1161 601 
Q 1400 384 1738 384 
Q 2144 384 2425 690 
Q 2706 997 2706 1503 
Q 2706 1984 2436 2262 
Q 2166 2541 1728 2541 
Q 1456 2541 1237 2417 
Q 1019 2294 894 2097 
L 366 2166 
L 809 4519 
L 3088 4519 
L 3088 3981 
L 1259 3981 
L 1013 2750 
Q 1425 3038 1878 3038 
Q 2478 3038 2890 2622 
Q 3303 2206 3303 1553 
Q 3303 931 2941 478 
Q 2500 -78 1738 -78 
Q 1113 -78 717 272 
Q 322 622 266 1200 
z
" transform="scale(0.015625)"/>
       </defs>
       <use xlink:href="#ArialMT-13"/>
       <use xlink:href="#ArialMT-11" transform="translate(55.609375 0)"/>
       <use xlink:href="#ArialMT-15" transform="translate(83.390625 0)"/>
       <use xlink:href="#ArialMT-18" transform="translate(139 0)"/>
      </g>
     </g>
    </g>
    <g id="ytick_3">
     <g id="line2d_9">
      <g>
       <use xlink:href="#m3ad8adef03" x="55.084258" y="224.311949" style="stroke: #000000; stroke-width: 0.8"/>
      </g>
     </g>
     <g id="text_10">
      <!-- 0.50 -->
      <g transform="translate(24.338945 229.40814) scale(0.14 -0.14)">
       <use xlink:href="#ArialMT-13"/>
       <use xlink:href="#ArialMT-11" transform="translate(55.609375 0)"/>
       <use xlink:href="#ArialMT-18" transform="translate(83.390625 0)"/>
       <use xlink:href="#ArialMT-13" transform="translate(139 0)"/>
      </g>
     </g>
    </g>
    <g id="ytick_4">
     <g id="line2d_10">
      <g>
       <use xlink:href="#m3ad8adef03" x="55.084258" y="194.8354" style="stroke: #000000; stroke-width: 0.8"/>
      </g>
     </g>
     <g id="text_11">
      <!-- 0.75 -->
      <g transform="translate(24.338945 199.931591) scale(0.14 -0.14)">
       <defs>
        <path id="ArialMT-1a" d="M 303 3981 
L 303 4522 
L 3269 4522 
L 3269 4084 
Q 2831 3619 2401 2847 
Q 1972 2075 1738 1259 
Q 1569 684 1522 0 
L 944 0 
Q 953 541 1156 1306 
Q 1359 2072 1739 2783 
Q 2119 3494 2547 3981 
L 303 3981 
z
" transform="scale(0.015625)"/>
       </defs>
       <use xlink:href="#ArialMT-13"/>
       <use xlink:href="#ArialMT-11" transform="translate(55.609375 0)"/>
       <use xlink:href="#ArialMT-1a" transform="translate(83.390625 0)"/>
       <use xlink:href="#ArialMT-18" transform="translate(139 0)"/>
      </g>
     </g>
    </g>
    <g id="ytick_5">
     <g id="line2d_11">
      <g>
       <use xlink:href="#m3ad8adef03" x="55.084258" y="165.35885" style="stroke: #000000; stroke-width: 0.8"/>
      </g>
     </g>
     <g id="text_12">
      <!-- 1.00 -->
      <g transform="translate(24.338945 170.455042) scale(0.14 -0.14)">
       <use xlink:href="#ArialMT-14"/>
       <use xlink:href="#ArialMT-11" transform="translate(55.609375 0)"/>
       <use xlink:href="#ArialMT-13" transform="translate(83.390625 0)"/>
       <use xlink:href="#ArialMT-13" transform="translate(139 0)"/>
      </g>
     </g>
    </g>
    <g id="ytick_6">
     <g id="line2d_12">
      <g>
       <use xlink:href="#m3ad8adef03" x="55.084258" y="135.882301" style="stroke: #000000; stroke-width: 0.8"/>
      </g>
     </g>
     <g id="text_13">
      <!-- 1.25 -->
      <g transform="translate(24.338945 140.978492) scale(0.14 -0.14)">
       <use xlink:href="#ArialMT-14"/>
       <use xlink:href="#ArialMT-11" transform="translate(55.609375 0)"/>
       <use xlink:href="#ArialMT-15" transform="translate(83.390625 0)"/>
       <use xlink:href="#ArialMT-18" transform="translate(139 0)"/>
      </g>
     </g>
    </g>
    <g id="ytick_7">
     <g id="line2d_13">
      <g>
       <use xlink:href="#m3ad8adef03" x="55.084258" y="106.405751" style="stroke: #000000; stroke-width: 0.8"/>
      </g>
     </g>
     <g id="text_14">
      <!-- 1.50 -->
      <g transform="translate(24.338945 111.501943) scale(0.14 -0.14)">
       <use xlink:href="#ArialMT-14"/>
       <use xlink:href="#ArialMT-11" transform="translate(55.609375 0)"/>
       <use xlink:href="#ArialMT-18" transform="translate(83.390625 0)"/>
       <use xlink:href="#ArialMT-13" transform="translate(139 0)"/>
      </g>
     </g>
    </g>
    <g id="ytick_8">
     <g id="line2d_14">
      <g>
       <use xlink:href="#m3ad8adef03" x="55.084258" y="76.929202" style="stroke: #000000; stroke-width: 0.8"/>
      </g>
     </g>
     <g id="text_15">
      <!-- 1.75 -->
      <g transform="translate(24.338945 82.025393) scale(0.14 -0.14)">
       <use xlink:href="#ArialMT-14"/>
       <use xlink:href="#ArialMT-11" transform="translate(55.609375 0)"/>
       <use xlink:href="#ArialMT-1a" transform="translate(83.390625 0)"/>
       <use xlink:href="#ArialMT-18" transform="translate(139 0)"/>
      </g>
     </g>
    </g>
    <g id="ytick_9">
     <g id="line2d_15">
      <g>
       <use xlink:href="#m3ad8adef03" x="55.084258" y="47.452652" style="stroke: #000000; stroke-width: 0.8"/>
      </g>
     </g>
     <g id="text_16">
      <!-- 2.00 -->
      <g transform="translate(24.338945 52.548844) scale(0.14 -0.14)">
       <use xlink:href="#ArialMT-15"/>
       <use xlink:href="#ArialMT-11" transform="translate(55.609375 0)"/>
       <use xlink:href="#ArialMT-13" transform="translate(83.390625 0)"/>
       <use xlink:href="#ArialMT-13" transform="translate(139 0)"/>
      </g>
     </g>
    </g>
    <g id="text_17">
     <!-- Ion Current (m/z 20) -->
     <g transform="translate(17.392383 234.056768) rotate(-90) scale(0.14 -0.14)">
      <defs>
       <path id="ArialMT-2c" d="M 597 0 
L 597 4581 
L 1203 4581 
L 1203 0 
L 597 0 
z
" transform="scale(0.015625)"/>
       <path id="ArialMT-52" d="M 213 1659 
Q 213 2581 725 3025 
Q 1153 3394 1769 3394 
Q 2453 3394 2887 2945 
Q 3322 2497 3322 1706 
Q 3322 1066 3130 698 
Q 2938 331 2570 128 
Q 2203 -75 1769 -75 
Q 1072 -75 642 372 
Q 213 819 213 1659 
z
M 791 1659 
Q 791 1022 1069 705 
Q 1347 388 1769 388 
Q 2188 388 2466 706 
Q 2744 1025 2744 1678 
Q 2744 2294 2464 2611 
Q 2184 2928 1769 2928 
Q 1347 2928 1069 2612 
Q 791 2297 791 1659 
z
" transform="scale(0.015625)"/>
       <path id="ArialMT-51" d="M 422 0 
L 422 3319 
L 928 3319 
L 928 2847 
Q 1294 3394 1984 3394 
Q 2284 3394 2536 3286 
Q 2788 3178 2913 3003 
Q 3038 2828 3088 2588 
Q 3119 2431 3119 2041 
L 3119 0 
L 2556 0 
L 2556 2019 
Q 2556 2363 2490 2533 
Q 2425 2703 2258 2804 
Q 2091 2906 1866 2906 
Q 1506 2906 1245 2678 
Q 984 2450 984 1813 
L 984 0 
L 422 0 
z
" transform="scale(0.015625)"/>
       <path id="ArialMT-12" d="M 0 -78 
L 1328 4659 
L 1778 4659 
L 453 -78 
L 0 -78 
z
" transform="scale(0.015625)"/>
       <path id="ArialMT-5d" d="M 125 0 
L 125 456 
L 2238 2881 
Q 1878 2863 1603 2863 
L 250 2863 
L 250 3319 
L 2963 3319 
L 2963 2947 
L 1166 841 
L 819 456 
Q 1197 484 1528 484 
L 3063 484 
L 3063 0 
L 125 0 
z
" transform="scale(0.015625)"/>
      </defs>
      <use xlink:href="#ArialMT-2c"/>
      <use xlink:href="#ArialMT-52" transform="translate(27.78125 0)"/>
      <use xlink:href="#ArialMT-51" transform="translate(83.390625 0)"/>
      <use xlink:href="#ArialMT-3" transform="translate(139 0)"/>
      <use xlink:href="#ArialMT-26" transform="translate(166.78125 0)"/>
      <use xlink:href="#ArialMT-58" transform="translate(239 0)"/>
      <use xlink:href="#ArialMT-55" transform="translate(294.609375 0)"/>
      <use xlink:href="#ArialMT-55" transform="translate(327.90625 0)"/>
      <use xlink:href="#ArialMT-48" transform="translate(361.203125 0)"/>
      <use xlink:href="#ArialMT-51" transform="translate(416.8125 0)"/>
      <use xlink:href="#ArialMT-57" transform="translate(472.421875 0)"/>
      <use xlink:href="#ArialMT-3" transform="translate(500.203125 0)"/>
      <use xlink:href="#ArialMT-b" transform="translate(527.984375 0)"/>
      <use xlink:href="#ArialMT-50" transform="translate(561.28125 0)"/>
      <use xlink:href="#ArialMT-12" transform="translate(644.578125 0)"/>
      <use xlink:href="#ArialMT-5d" transform="translate(672.359375 0)"/>
      <use xlink:href="#ArialMT-3" transform="translate(722.359375 0)"/>
      <use xlink:href="#ArialMT-15" transform="translate(750.140625 0)"/>
      <use xlink:href="#ArialMT-13" transform="translate(805.75 0)"/>
      <use xlink:href="#ArialMT-c" transform="translate(861.359375 0)"/>
     </g>
    </g>
    <g id="text_18">
     <!-- 1e−13 -->
     <g transform="translate(55.084258 36.679004) scale(0.14 -0.14)">
      <defs>
       <path id="ArialMT-ed" d="M 3381 1997 
L 356 1997 
L 356 2522 
L 3381 2522 
L 3381 1997 
z
" transform="scale(0.015625)"/>
       <path id="ArialMT-16" d="M 269 1209 
L 831 1284 
Q 928 806 1161 595 
Q 1394 384 1728 384 
Q 2125 384 2398 659 
Q 2672 934 2672 1341 
Q 2672 1728 2419 1979 
Q 2166 2231 1775 2231 
Q 1616 2231 1378 2169 
L 1441 2663 
Q 1497 2656 1531 2656 
Q 1891 2656 2178 2843 
Q 2466 3031 2466 3422 
Q 2466 3731 2256 3934 
Q 2047 4138 1716 4138 
Q 1388 4138 1169 3931 
Q 950 3725 888 3313 
L 325 3413 
Q 428 3978 793 4289 
Q 1159 4600 1703 4600 
Q 2078 4600 2393 4439 
Q 2709 4278 2876 4000 
Q 3044 3722 3044 3409 
Q 3044 3113 2884 2869 
Q 2725 2625 2413 2481 
Q 2819 2388 3044 2092 
Q 3269 1797 3269 1353 
Q 3269 753 2831 336 
Q 2394 -81 1725 -81 
Q 1122 -81 723 278 
Q 325 638 269 1209 
z
" transform="scale(0.015625)"/>
      </defs>
      <use xlink:href="#ArialMT-14"/>
      <use xlink:href="#ArialMT-48" transform="translate(55.609375 0)"/>
      <use xlink:href="#ArialMT-ed" transform="translate(111.21875 0)"/>
      <use xlink:href="#ArialMT-14" transform="translate(169.625 0)"/>
      <use xlink:href="#ArialMT-16" transform="translate(225.234375 0)"/>
     </g>
    </g>
   </g>
   <g id="line2d_16">
    <path d="M 54.088749 286.591369 
L 54.088749 287.4052 
L 54.012171 280.294746 
L 54.012171 281.215933 
L 54.280193 280.614519 
L 55.084258 281.95166 
L 56.61581 285.557772 
L 58.836561 285.37529 
L 61.172179 285.676502 
L 63.316352 284.722467 
L 65.115926 282.526981 
L 66.60919 281.049904 
L 67.91101 279.542933 
L 70.170049 281.666131 
L 71.242136 282.070293 
L 72.3908 280.782772 
L 73.501176 277.805027 
L 74.64984 276.213981 
L 75.875082 274.253535 
L 77.100324 271.896342 
L 78.287277 270.424065 
L 79.512519 274.574313 
L 82.07787 280.249584 
L 83.417978 281.047128 
L 84.681509 282.312782 
L 85.94504 284.158372 
L 87.170282 282.521605 
L 88.395524 280.525322 
L 89.582477 279.903727 
L 90.76943 277.770295 
L 91.956383 280.949463 
L 93.105047 275.776461 
L 94.368578 275.24338 
L 95.59382 277.936555 
L 96.780773 283.839884 
L 97.967726 283.006888 
L 99.154679 283.797086 
L 100.341633 283.366268 
L 101.566875 284.992527 
L 102.753828 283.254887 
L 103.902492 285.893726 
L 105.051156 281.664443 
L 106.199821 280.813874 
L 107.425063 280.88538 
L 108.612016 284.063596 
L 109.837258 282.27121 
L 111.0625 284.899643 
L 112.287742 285.343254 
L 113.436406 286.44281 
L 114.623359 287.26274 
L 115.810312 286.305013 
L 117.035554 279.982778 
L 118.222507 274.971153 
L 119.447749 272.339154 
L 120.71128 269.262985 
L 121.936522 267.198047 
L 123.123475 265.766588 
L 126.684335 270.091049 
L 127.871288 270.700981 
L 129.058241 271.803317 
L 130.206905 272.683415 
L 131.432147 271.904527 
L 132.657389 267.61782 
L 133.92092 267.954119 
L 135.146162 264.072885 
L 136.333115 259.715784 
L 137.443491 254.061631 
L 138.668733 250.23334 
L 139.817397 248.647729 
L 141.00435 250.795018 
L 142.191303 246.87313 
L 143.378256 247.670872 
L 144.641787 250.135452 
L 145.867029 252.809799 
L 147.015693 255.776887 
L 148.240935 253.268434 
L 149.427888 251.711412 
L 150.614842 256.697538 
L 151.878372 256.723433 
L 153.027037 254.667684 
L 154.175701 249.329349 
L 155.362654 252.438008 
L 156.549607 245.063338 
L 157.813138 239.880767 
L 159.000091 237.047966 
L 160.225333 225.987031 
L 161.412286 226.987867 
L 162.637528 225.641489 
L 163.824481 220.737287 
L 165.049723 217.073093 
L 166.236677 224.152205 
L 167.347052 223.780912 
L 168.534005 216.191348 
L 170.9462 213.58457 
L 172.133153 207.684564 
L 173.358395 209.931129 
L 174.545349 207.791168 
L 175.694013 210.115081 
L 176.919255 214.310411 
L 178.106208 221.733725 
L 179.293161 219.39896 
L 180.518403 215.561718 
L 181.667067 215.339947 
L 182.854021 212.607879 
L 184.079263 206.463948 
L 185.304505 197.959635 
L 186.41488 195.784252 
L 187.678411 189.512231 
L 188.941942 184.376383 
L 190.167184 185.290318 
L 191.315848 185.958746 
L 192.617667 179.689243 
L 193.804621 175.711292 
L 194.991574 170.706425 
L 196.140238 157.73699 
L 197.288902 154.841288 
L 198.475856 152.221592 
L 199.62452 147.767878 
L 200.849762 143.709195 
L 202.075004 146.072167 
L 203.261957 146.017407 
L 204.44891 147.091862 
L 205.674152 148.708499 
L 206.822816 144.339885 
L 208.048058 143.511606 
L 209.235011 148.84389 
L 210.460253 144.483673 
L 211.608918 134.922345 
L 212.795871 112.368707 
L 215.284644 85.998409 
L 216.471597 83.323068 
L 218.768925 75.648526 
L 219.994167 82.752971 
L 221.181121 81.450338 
L 222.368074 79.083246 
L 223.593316 72.63358 
L 224.74198 69.830306 
L 225.928933 74.748918 
L 227.154175 83.269125 
L 229.489793 113.500168 
L 230.676746 132.715831 
L 231.863699 147.152323 
L 233.012363 158.957511 
L 234.275894 166.62296 
L 235.424558 171.352754 
L 236.6498 179.516531 
L 237.836753 177.339802 
L 239.023707 181.988782 
L 240.248948 181.816254 
L 241.397613 185.869488 
L 242.622855 188.022018 
L 243.809808 186.686832 
L 245.03505 191.745236 
L 246.183714 192.260765 
L 247.370667 191.619284 
L 248.557621 198.447107 
L 249.782862 198.321014 
L 250.969816 206.559584 
L 252.11848 211.228519 
L 253.343722 219.132666 
L 254.530675 221.590289 
L 255.755917 226.812292 
L 256.981159 228.17481 
L 258.129823 222.7195 
L 259.355065 222.109217 
L 260.580307 224.352265 
L 261.76726 219.754471 
L 262.954213 226.002826 
L 264.141167 226.39004 
L 265.366409 225.111842 
L 266.515073 224.62957 
L 267.702026 228.396894 
L 268.85069 225.111988 
L 271.301174 226.987895 
L 272.449839 224.02842 
L 273.675081 218.254318 
L 274.862034 216.189117 
L 276.048987 210.951766 
L 277.197651 214.325333 
L 278.422893 214.574829 
L 279.609846 215.025661 
L 280.796799 217.264899 
L 281.983753 216.294931 
L 283.208995 215.802456 
L 284.395948 210.468567 
L 285.582901 199.3928 
L 286.769854 191.693618 
L 287.995096 191.315079 
L 289.14376 209.183867 
L 290.330713 208.977486 
L 291.555955 210.673588 
L 292.742909 210.768661 
L 293.891573 202.972453 
L 295.155104 209.561677 
L 296.303768 205.667592 
L 297.52901 202.67017 
L 298.677674 203.936018 
L 299.864627 206.544835 
L 301.013292 217.232656 
L 302.200245 211.669447 
L 303.502064 212.405524 
L 304.727306 210.595947 
L 305.990837 210.881014 
L 307.17779 218.904024 
L 308.403032 207.586913 
L 309.628274 202.428877 
L 310.853516 206.243537 
L 312.002181 202.425409 
L 313.189134 197.871141 
L 314.376087 193.826818 
L 315.524751 194.716965 
L 316.711704 197.815613 
L 317.860369 201.171274 
L 319.123899 206.742122 
L 320.310853 196.657285 
L 321.497806 199.76659 
L 322.684759 214.257335 
L 325.058665 221.781872 
L 326.20733 227.765003 
L 327.394283 227.226302 
L 328.619525 228.257329 
L 329.806478 227.218243 
L 331.03172 229.962052 
L 332.180384 223.108743 
L 333.405626 223.077005 
L 334.55429 225.033923 
L 335.779532 225.888228 
L 336.966485 229.769757 
L 338.11515 231.902876 
L 339.302103 226.111425 
L 340.527345 227.250199 
L 341.714298 222.914233 
L 342.901251 223.769349 
L 344.049915 220.580765 
L 345.313446 221.16519 
L 346.462111 222.423866 
L 347.649064 225.717004 
L 348.874306 226.105956 
L 350.061259 228.237389 
L 351.248212 224.745312 
L 352.473454 226.097539 
L 353.622118 220.927542 
L 354.809071 218.203735 
L 355.957736 224.541579 
L 357.221267 222.940988 
L 358.40822 218.816552 
L 359.595173 215.836316 
L 360.782126 210.07555 
L 361.93079 212.807158 
L 363.156032 206.481655 
L 364.266408 207.488704 
L 365.529939 203.820022 
L 366.716892 200.950042 
L 367.942134 210.527132 
L 369.052509 212.008351 
L 370.239462 221.121965 
L 371.464704 226.227495 
L 372.689946 228.336086 
L 373.800322 228.815558 
L 374.948986 222.856288 
L 376.250806 220.90907 
L 377.361181 207.097091 
L 378.586423 194.717726 
L 380.003109 187.341358 
L 381.419795 192.493843 
L 382.645037 199.272851 
L 385.018943 191.871614 
L 386.282474 187.297958 
L 387.507716 185.434052 
L 388.579803 186.014632 
L 389.881622 183.796419 
L 391.068576 185.82599 
L 392.255529 193.69988 
L 393.442482 210.282792 
L 394.591146 212.962273 
L 396.965052 194.809244 
L 398.228583 190.950948 
L 399.377248 185.909138 
L 400.60249 177.702709 
L 401.751154 172.08633 
L 402.976396 177.825569 
L 404.201638 196.477324 
L 405.388591 202.664774 
L 406.537255 189.796859 
L 407.68592 173.91282 
L 409.026028 168.839226 
L 410.098115 174.848292 
L 411.323357 174.77908 
L 412.472021 171.307391 
L 413.620685 175.782322 
L 414.884216 192.505531 
L 416.071169 206.573487 
L 417.258122 210.083932 
L 418.445076 200.644774 
L 419.746895 193.415692 
L 420.818982 198.33497 
L 422.044224 202.533081 
L 423.116311 198.691096 
L 424.647863 202.326737 
L 425.71995 203.290293 
L 426.830325 203.46283 
L 428.055567 201.182034 
L 429.24252 202.152162 
L 430.429473 195.529993 
L 431.578138 196.385773 
L 432.765091 207.083289 
L 433.875466 207.056885 
L 435.177286 206.331871 
L 436.32595 213.357476 
L 437.512903 213.569791 
L 438.699857 211.745646 
L 439.848521 216.66156 
L 441.226918 214.900933 
L 442.299005 213.280055 
L 443.524247 208.513226 
L 444.672911 204.696412 
L 445.974731 198.098419 
L 446.97024 196.73779 
L 449.420724 208.314579 
L 450.569388 209.142467 
L 451.871208 213.30156 
L 453.058161 213.423196 
L 454.283403 217.639348 
L 455.278912 211.226107 
L 456.810464 204.494245 
L 458.150573 202.957084 
L 459.452392 209.160528 
L 460.830789 212.450189 
L 461.826299 211.077756 
L 463.204696 202.420135 
L 464.276782 197.981647 
L 465.540313 197.555635 
L 466.650689 201.671198 
L 467.91422 200.376666 
L 468.909729 200.461377 
L 470.364703 201.520987 
L 471.283635 202.89631 
L 472.623743 193.401365 
L 473.772408 190.089426 
L 475.074227 188.470555 
L 476.108025 191.482048 
L 477.333267 185.235679 
L 478.558509 187.103567 
L 480.970704 178.247187 
L 482.042791 173.403896 
L 483.191455 166.643891 
L 484.531564 157.69993 
L 485.680228 157.621159 
L 486.867181 165.100934 
L 488.092423 172.097596 
L 489.202799 175.840835 
L 490.504618 177.959841 
L 491.653282 177.726688 
L 492.878524 174.413452 
L 494.142055 167.292207 
L 494.142055 167.292207 
" clip-path="url(#pecb7dfe2d7)" style="fill: none; stroke: #000000; stroke-width: 2.5; stroke-linecap: square"/>
   </g>
   <g id="line2d_17">
    <path d="M 53.476128 288.901765 
L 53.39955 276.081433 
L 53.476128 279.348395 
L 53.935593 283.840353 
L 55.00768 283.879313 
L 56.807254 285.687537 
L 59.066294 289.45256 
L 61.287045 291.205218 
L 63.239775 286.293038 
L 64.886193 285.175973 
L 66.302879 286.220901 
L 67.528121 281.794416 
L 68.638497 280.42675 
L 69.748872 277.227972 
L 70.859248 277.488671 
L 71.969624 274.978442 
L 73.118288 273.777764 
L 74.305241 272.863763 
L 75.492194 278.539531 
L 76.679147 275.81388 
L 77.904389 280.930995 
L 79.129631 280.561716 
L 80.354873 281.737508 
L 81.694982 278.512299 
L 82.996801 280.234343 
L 84.298621 279.428686 
L 85.60044 282.562224 
L 86.825682 283.804229 
L 88.050924 290.640505 
L 89.237877 286.101391 
L 90.42483 288.56711 
L 91.611784 286.283255 
L 92.798737 288.987138 
L 93.98569 285.895464 
L 97.584838 282.531571 
L 98.771791 277.554633 
L 99.958744 278.564252 
L 101.145698 275.063166 
L 102.294362 276.704664 
L 103.443026 276.12956 
L 104.668268 279.91833 
L 105.89351 282.580974 
L 107.118752 282.916072 
L 108.305705 282.134032 
L 109.45437 284.385503 
L 110.679612 283.831464 
L 111.866565 282.190488 
L 113.053518 279.063692 
L 114.240471 278.829344 
L 115.427424 277.663192 
L 116.690955 277.888426 
L 117.877908 281.446202 
L 119.064861 282.120789 
L 120.290103 284.609434 
L 121.477056 287.943112 
L 122.702298 286.54868 
L 125.076205 276.475694 
L 126.301447 272.409626 
L 127.4884 269.161773 
L 128.675353 269.924342 
L 129.862306 270.181725 
L 131.087548 270.054332 
L 132.274501 271.252245 
L 133.461454 265.814671 
L 134.648407 265.653541 
L 135.873649 261.113629 
L 137.060602 255.120595 
L 138.285844 249.563706 
L 139.472798 245.894666 
L 140.69804 246.640682 
L 141.884993 246.735861 
L 143.071946 245.769201 
L 144.297188 246.175974 
L 145.484141 240.90426 
L 146.709383 236.823323 
L 147.896336 224.144256 
L 149.121578 213.027775 
L 150.308531 206.562236 
L 151.495484 205.637023 
L 152.60586 209.180076 
L 153.792813 216.366586 
L 155.018055 216.409824 
L 156.205008 224.342434 
L 157.468539 227.73213 
L 158.693781 224.818607 
L 159.919023 221.087399 
L 161.067687 219.980887 
L 162.292929 221.63775 
L 163.479882 224.490828 
L 164.666835 218.946487 
L 165.892077 210.166442 
L 168.189406 188.222521 
L 169.414648 179.70477 
L 170.563312 178.328475 
L 171.750265 181.180589 
L 172.975507 174.040366 
L 174.085883 175.615562 
L 175.311125 176.300313 
L 176.536367 172.201364 
L 177.761609 164.461258 
L 178.910273 155.462618 
L 180.097226 148.502444 
L 181.284179 149.185242 
L 182.509421 160.758867 
L 183.734663 166.463199 
L 184.921616 161.225778 
L 186.10857 163.107338 
L 187.333811 163.336054 
L 188.559053 154.58947 
L 189.822584 138.128783 
L 190.93296 129.488738 
L 192.158202 123.868686 
L 193.421732 119.385828 
L 194.608686 130.209372 
L 195.75735 127.949357 
L 198.131256 129.276921 
L 199.356498 137.088518 
L 200.505163 142.503394 
L 201.692116 143.427851 
L 202.879069 153.721038 
L 204.066022 157.679259 
L 205.252975 157.284875 
L 206.516506 161.201532 
L 207.66517 150.388045 
L 208.890412 149.1658 
L 210.077365 150.724909 
L 211.22603 161.66486 
L 212.48956 171.31874 
L 213.638225 163.005879 
L 214.825178 168.056653 
L 216.05042 168.13015 
L 217.237373 162.675208 
L 218.386037 160.600762 
L 219.57299 147.663683 
L 220.759944 143.515429 
L 221.946897 143.760727 
L 224.397381 167.365525 
L 225.584334 164.516715 
L 229.106904 194.705297 
L 230.293858 199.04557 
L 231.5191 192.631762 
L 232.706053 184.71369 
L 233.893006 185.92532 
L 235.079959 189.646063 
L 236.305201 195.788245 
L 237.492154 193.819648 
L 238.679107 194.559198 
L 239.86606 201.484182 
L 241.053014 201.954192 
L 242.239967 213.323595 
L 243.42692 212.051533 
L 244.613873 206.474614 
L 245.762537 208.883075 
L 246.987779 203.437539 
L 248.25131 210.553215 
L 249.438263 206.352666 
L 250.625216 203.948442 
L 251.850458 200.610582 
L 252.999123 205.140197 
L 254.186076 216.063726 
L 255.449607 208.288985 
L 256.598271 209.140657 
L 257.861802 210.514615 
L 259.010466 210.887343 
L 260.197419 219.020244 
L 261.384372 212.549431 
L 262.571325 212.896724 
L 263.796567 215.267579 
L 264.98352 223.257297 
L 266.170474 220.640444 
L 267.395716 214.096326 
L 268.506091 214.772504 
L 269.693044 212.983338 
L 270.918286 213.781827 
L 272.105239 213.759914 
L 273.292193 214.140017 
L 274.479146 217.370255 
L 275.704388 223.78367 
L 276.853052 221.827913 
L 278.040005 222.787266 
L 279.265247 216.202199 
L 280.4522 213.925764 
L 281.639153 213.491455 
L 282.864395 210.676736 
L 284.051348 211.386758 
L 285.200013 215.453548 
L 286.425255 215.42978 
L 287.650497 217.605401 
L 288.83745 214.026024 
L 289.986114 215.408642 
L 291.211356 210.687281 
L 292.398309 213.550426 
L 293.585262 208.870056 
L 294.772216 209.847476 
L 295.959169 205.426767 
L 297.184411 200.032109 
L 298.294786 190.0919 
L 299.520028 185.230534 
L 301.932223 182.290621 
L 303.157465 185.055713 
L 304.382707 193.320766 
L 305.607949 202.972556 
L 306.833191 217.026365 
L 308.058433 219.935644 
L 309.245386 220.128107 
L 310.394051 216.541534 
L 311.619292 215.586946 
L 312.844534 211.569963 
L 313.993199 210.596278 
L 315.218441 208.816085 
L 316.405394 208.329191 
L 317.592347 216.909523 
L 318.741011 219.241716 
L 319.927964 216.646294 
L 321.191495 217.708344 
L 322.301871 224.701115 
L 323.527113 221.096465 
L 324.714066 219.754163 
L 325.86273 227.924653 
L 327.087972 222.608374 
L 328.198348 216.915546 
L 329.461878 214.480991 
L 330.610543 208.295921 
L 331.835785 203.222738 
L 332.984449 210.144698 
L 334.209691 216.57746 
L 335.358355 215.287952 
L 337.77055 238.267791 
L 338.995792 237.518699 
L 340.182746 234.126407 
L 341.33141 227.66241 
L 342.480074 223.136858 
L 343.628739 219.450727 
L 344.892269 214.763008 
L 346.079222 216.031935 
L 347.304464 217.086438 
L 348.567995 224.870293 
L 349.640082 226.140015 
L 350.827035 229.821773 
L 352.090566 224.220385 
L 353.23923 227.551642 
L 354.54105 229.903937 
L 355.574848 225.121653 
L 356.723512 220.901616 
L 358.025332 224.321754 
L 359.173996 222.477464 
L 361.586191 204.427908 
L 362.849722 202.737211 
L 363.998386 198.449132 
L 365.14705 206.011691 
L 366.334004 207.495133 
L 367.597534 206.978816 
L 368.70791 209.935073 
L 369.933152 216.887672 
L 371.120105 219.042988 
L 372.268769 214.939741 
L 373.455722 214.582795 
L 374.642676 213.813138 
L 375.79134 212.526014 
L 377.016582 210.164934 
L 378.280113 195.861372 
L 379.543643 186.263224 
L 380.998618 187.656808 
L 382.300438 197.821898 
L 383.449102 200.476018 
L 384.636055 203.617949 
L 385.861297 212.489254 
L 387.163117 212.28921 
L 388.311781 215.410196 
L 389.460446 211.91921 
L 390.647399 196.86949 
L 391.872641 196.531681 
L 393.136171 191.226976 
L 394.323125 194.676411 
L 395.318634 193.879336 
L 396.658742 199.308356 
L 397.883984 205.322705 
L 399.032648 199.995886 
L 400.219601 204.568232 
L 401.483132 202.959377 
L 402.670085 199.231294 
L 403.780461 198.619841 
L 405.005703 191.440508 
L 406.192656 192.214348 
L 407.379609 199.063558 
L 408.528273 209.084337 
L 409.791804 211.496456 
L 411.017046 214.380438 
L 412.089133 220.375621 
L 413.199508 218.320844 
L 414.539617 211.974181 
L 415.72657 212.366326 
L 416.913523 215.020056 
L 418.215343 213.798906 
L 419.287429 216.522677 
L 420.474383 217.383021 
L 422.848289 227.159917 
L 424.11182 227.918108 
L 425.337062 225.343977 
L 426.409148 220.003638 
L 427.596101 221.878595 
L 429.051076 222.777507 
L 430.161452 221.992938 
L 431.271827 216.046281 
L 432.382203 213.933937 
L 433.607445 220.632633 
L 434.71782 220.612768 
L 435.943062 219.580707 
L 437.168304 219.111891 
L 438.27868 212.044072 
L 439.580499 211.730383 
L 440.84403 214.11609 
L 441.954406 208.273978 
L 443.064781 210.98687 
L 444.328312 217.029967 
L 445.438687 218.440224 
L 446.740507 218.615724 
L 447.850882 217.412801 
L 448.999547 222.197379 
L 450.1865 223.037636 
L 451.48832 222.121424 
L 452.636984 219.780377 
L 453.823937 212.199578 
L 454.819446 214.624305 
L 456.389287 216.701157 
L 457.959129 210.063773 
L 459.222659 210.241214 
L 460.294746 213.017952 
L 461.596566 218.267981 
L 462.821808 215.46135 
L 463.779028 207.192431 
L 465.157425 201.742017 
L 466.229512 198.79629 
L 467.416465 192.304849 
L 468.679996 193.176845 
L 469.905238 195.682734 
L 472.240855 186.035032 
L 473.274653 187.89558 
L 474.614761 180.940958 
L 475.801715 185.016594 
L 476.988668 186.334417 
L 478.175621 185.326235 
L 479.400863 184.75724 
L 480.77926 186.672497 
L 481.698192 189.755393 
L 482.961722 187.433202 
L 484.34012 187.002257 
L 485.220762 193.570827 
L 486.522582 184.993844 
L 487.747824 187.012565 
L 488.705044 184.574075 
L 490.006864 180.496466 
L 491.346972 179.728648 
L 492.648792 184.452152 
L 493.606012 196.848509 
L 494.601521 219.099251 
L 494.601521 219.099251 
" clip-path="url(#pecb7dfe2d7)" style="fill: none; stroke: #1f77b4; stroke-width: 2.5; stroke-linecap: square"/>
   </g>
   <g id="line2d_18">
    <path d="M 53.09324 274.344965 
L 53.016662 290.14983 
L 53.131528 286.14638 
L 53.476128 285.529315 
L 54.509926 288.281591 
L 56.347789 285.761725 
L 58.530251 279.393294 
L 60.789291 281.349336 
L 62.780309 280.069402 
L 64.426728 272.347552 
L 65.843414 272.649631 
L 67.068656 270.469143 
L 68.179031 271.684751 
L 69.289407 271.01584 
L 70.399782 271.176055 
L 71.510158 274.974521 
L 72.658822 275.369806 
L 73.845775 279.711181 
L 75.032728 278.882163 
L 76.25797 279.748884 
L 77.483212 282.803939 
L 78.670165 282.885174 
L 79.895407 280.838223 
L 81.158938 277.936361 
L 82.460758 278.795138 
L 83.800866 279.875491 
L 85.140975 278.668888 
L 86.366217 279.393861 
L 87.55317 281.064626 
L 88.740123 285.098503 
L 89.888787 285.153286 
L 91.07574 284.672245 
L 92.262693 286.07367 
L 93.487935 284.83041 
L 94.674889 287.498559 
L 95.861842 277.769246 
L 97.087084 277.718854 
L 98.312326 274.751905 
L 99.537568 276.567175 
L 100.76281 279.053333 
L 101.911474 275.577065 
L 103.098427 270.623274 
L 104.361958 268.778015 
L 105.548911 267.269077 
L 106.697575 268.97055 
L 107.769662 258.98208 
L 108.956615 258.837576 
L 110.220146 256.603243 
L 111.445388 262.779543 
L 112.67063 266.833175 
L 115.082825 266.74176 
L 116.308067 271.062104 
L 117.49502 277.581945 
L 118.643684 280.93565 
L 119.868926 274.343483 
L 121.055879 277.475475 
L 122.281121 276.814157 
L 123.468075 274.59721 
L 124.731605 272.852975 
L 125.956847 270.626731 
L 128.330754 262.548797 
L 129.479418 264.561399 
L 130.666371 264.186113 
L 131.853324 261.210723 
L 133.155144 263.664466 
L 134.380386 261.112466 
L 135.52905 264.084928 
L 136.677714 268.024003 
L 137.902956 270.219867 
L 139.051621 272.741472 
L 140.276863 273.650025 
L 141.502105 271.025906 
L 142.689058 270.981655 
L 143.9143 263.373507 
L 145.101253 261.301445 
L 146.249917 249.234765 
L 147.475159 244.01407 
L 148.700401 241.054952 
L 149.887354 239.6211 
L 151.074307 237.979073 
L 152.299549 231.752702 
L 153.524791 227.687453 
L 154.673456 230.548137 
L 155.898698 227.008771 
L 157.085651 235.82923 
L 158.272604 228.807981 
L 159.459557 230.440936 
L 160.64651 235.684769 
L 161.833463 233.391397 
L 163.020416 227.443909 
L 164.245658 219.48518 
L 165.432612 223.780496 
L 167.806518 213.48517 
L 169.03176 213.118856 
L 170.218713 212.452107 
L 171.405666 206.204937 
L 173.779572 199.660657 
L 174.966525 202.521585 
L 176.11519 209.073277 
L 177.340432 218.14879 
L 178.527385 215.030951 
L 179.714338 216.830721 
L 180.901291 209.05201 
L 182.126533 195.984471 
L 183.313486 177.150519 
L 184.577017 167.089384 
L 185.76397 165.801962 
L 186.989212 162.917309 
L 188.176165 159.124874 
L 189.439696 165.440575 
L 190.626649 161.938086 
L 191.813602 164.790302 
L 192.962267 159.593016 
L 194.14922 146.66691 
L 195.336173 155.0093 
L 196.523126 165.783202 
L 197.710079 185.249628 
L 198.935321 181.308188 
L 200.122274 181.515024 
L 201.347516 188.372153 
L 202.496181 185.767145 
L 203.644845 179.180577 
L 204.908376 178.627477 
L 206.133618 175.689374 
L 207.320571 179.458257 
L 208.430946 184.875335 
L 209.694477 196.424125 
L 210.843142 191.004227 
L 212.106672 191.817061 
L 213.255337 186.736173 
L 214.44229 191.400868 
L 215.667532 194.109667 
L 216.854485 202.127869 
L 218.041438 201.408263 
L 219.190102 195.651 
L 220.377056 192.567056 
L 222.789251 177.271836 
L 224.014493 176.456695 
L 225.163157 172.073952 
L 226.388399 176.643237 
L 227.537063 192.282749 
L 228.762305 194.474581 
L 229.910969 197.521004 
L 231.097923 201.419201 
L 232.323165 210.54244 
L 233.510118 208.853178 
L 234.697071 209.761979 
L 235.884024 214.154078 
L 237.109266 207.941455 
L 238.25793 208.019687 
L 239.483172 221.470937 
L 240.670125 222.74995 
L 241.857079 221.58072 
L 243.005743 229.274496 
L 244.230985 235.294712 
L 246.566602 219.283588 
L 247.791844 216.188847 
L 248.940509 201.357826 
L 250.204039 204.838189 
L 251.314415 209.271184 
L 252.577946 205.242168 
L 253.764899 207.152005 
L 254.913563 216.807568 
L 256.138805 212.158655 
L 257.325758 206.821203 
L 258.512711 207.727071 
L 260.924907 223.5381 
L 262.11186 224.7756 
L 263.298813 221.79307 
L 264.485766 216.687076 
L 265.672719 217.358798 
L 266.897961 214.677969 
L 268.046625 202.808108 
L 269.310156 201.21207 
L 270.45882 214.688071 
L 271.684062 227.341455 
L 272.871016 242.169711 
L 273.981391 232.79911 
L 275.283211 229.934662 
L 276.431875 226.160085 
L 277.618828 218.081234 
L 278.805781 211.89853 
L 280.031023 206.480983 
L 281.217976 209.316343 
L 282.366641 216.644171 
L 283.630172 215.756612 
L 284.855413 222.073221 
L 286.004078 215.22018 
L 287.191031 214.958696 
L 288.339695 209.685643 
L 289.603226 206.097288 
L 290.790179 206.077805 
L 291.977132 204.700751 
L 293.125797 212.171405 
L 294.389327 213.929867 
L 295.537992 217.154498 
L 296.686656 220.76522 
L 299.098851 230.844462 
L 300.285804 221.818763 
L 301.472758 223.50688 
L 302.697999 227.207527 
L 303.884953 232.157692 
L 305.186772 240.24771 
L 306.450303 239.340887 
L 307.560678 239.801953 
L 308.824209 235.975331 
L 310.011162 235.697232 
L 311.198116 227.132524 
L 312.385069 216.557106 
L 313.572022 215.742217 
L 314.720686 220.999365 
L 315.945928 224.736217 
L 317.17117 226.025867 
L 319.506788 233.3079 
L 320.770318 227.678829 
L 321.918983 228.133586 
L 323.067647 230.601818 
L 324.292889 232.821833 
L 325.479842 234.008679 
L 326.666795 235.617889 
L 327.777171 234.760251 
L 329.002413 234.18759 
L 330.189366 232.924347 
L 331.414608 233.611094 
L 332.63985 230.824376 
L 334.937178 246.047071 
L 336.124132 246.025271 
L 337.311085 241.743135 
L 338.536327 240.480964 
L 339.761569 238.201334 
L 340.910233 236.746583 
L 342.135475 235.541077 
L 343.322428 231.790251 
L 344.54767 226.994015 
L 345.658046 228.987985 
L 346.80671 233.064887 
L 348.031952 228.979138 
L 349.218905 223.759371 
L 350.444147 226.45895 
L 351.592811 223.575257 
L 352.818053 224.742256 
L 354.081584 221.443147 
L 355.230248 222.361889 
L 356.340624 221.925649 
L 358.791108 231.463552 
L 359.978061 234.303366 
L 361.203303 233.275164 
L 362.428545 239.4757 
L 363.53892 236.79197 
L 364.764162 236.722626 
L 365.951115 230.485871 
L 367.09978 237.433779 
L 369.473686 221.776873 
L 370.62235 223.475831 
L 371.885881 224.619947 
L 373.111123 224.661896 
L 374.259787 226.001587 
L 375.408452 226.174374 
L 376.671983 225.950479 
L 377.782358 224.85821 
L 379.084178 229.32918 
L 380.539153 224.735632 
L 381.879261 222.440187 
L 383.066214 224.648402 
L 384.329745 221.981829 
L 385.516698 216.334132 
L 386.74194 214.883395 
L 387.890604 215.534609 
L 389.077557 218.302151 
L 390.302799 217.577596 
L 391.489752 221.631719 
L 392.600128 218.54046 
L 393.901948 216.715268 
L 395.088901 211.991071 
L 396.275854 209.354259 
L 398.573183 201.506787 
L 399.721847 201.781993 
L 401.023666 207.200826 
L 402.21062 209.927968 
L 403.397573 220.45073 
L 404.469659 218.110452 
L 405.771479 222.192246 
L 407.03501 227.426979 
L 408.107097 227.400256 
L 409.370627 221.884861 
L 410.519292 214.134218 
L 411.744534 214.558495 
L 412.893198 219.192912 
L 414.195018 218.04764 
L 415.305393 224.472716 
L 416.454057 225.65154 
L 418.981119 240.377417 
L 420.168072 231.010716 
L 421.316736 224.441845 
L 422.427112 219.600242 
L 423.652354 211.805598 
L 424.915885 213.336637 
L 425.949683 204.917098 
L 427.32808 207.740182 
L 428.400166 210.245877 
L 429.510542 218.206627 
L 430.735784 226.180113 
L 431.999315 219.368717 
L 433.033113 218.860782 
L 434.373221 215.852069 
L 435.521885 209.506487 
L 436.708838 216.296571 
L 437.972369 211.652843 
L 439.082745 207.136236 
L 440.384564 204.880851 
L 441.49494 218.842489 
L 442.643604 224.16205 
L 443.868846 227.71533 
L 445.094088 225.650071 
L 446.281041 229.073058 
L 447.506283 227.026118 
L 448.540081 229.063139 
L 449.765323 226.287342 
L 451.028854 218.57748 
L 452.177518 222.825846 
L 453.40276 227.906045 
L 454.513136 222.073762 
L 455.853244 229.127896 
L 457.26993 219.230184 
L 458.724905 219.580827 
L 459.83528 212.494212 
L 461.098811 211.930988 
L 462.324053 212.554424 
L 463.549295 210.31592 
L 464.736248 211.838937 
L 466.995288 197.427607 
L 468.182241 201.406687 
L 469.330906 199.663335 
L 470.517859 204.797702 
L 471.743101 207.00797 
L 473.04492 213.695743 
L 474.270162 209.792809 
L 475.265671 214.319473 
L 476.529202 210.097129 
L 477.792733 206.426938 
L 478.979686 191.46456 
L 480.090061 193.26091 
L 481.315303 201.320568 
L 482.540545 200.871273 
L 483.68921 197.626906 
L 485.029318 197.460035 
L 486.063116 190.24457 
L 487.364936 187.64216 
L 489.547398 172.292782 
L 490.734351 169.205436 
L 492.227615 172.730037 
L 493.414568 185.291738 
L 494.29521 209.315695 
L 494.29521 209.315695 
" clip-path="url(#pecb7dfe2d7)" style="fill: none; stroke: #d62728; stroke-width: 2.5; stroke-linecap: square"/>
   </g>
   <g id="line2d_19">
    <path d="M 54.854525 280.107687 
L 54.816236 273.173784 
L 54.816236 286.607342 
L 54.777947 285.490038 
L 54.739659 285.993442 
L 54.777947 282.01653 
L 54.931103 279.136092 
L 55.505435 279.253604 
L 56.807254 282.880145 
L 58.759984 282.653465 
L 60.980735 283.57308 
L 63.086619 282.967335 
L 64.962771 282.659623 
L 66.494324 279.301569 
L 69.021385 274.5496 
L 70.131761 277.026087 
L 71.242136 274.959911 
L 72.352512 274.352962 
L 73.501176 270.068955 
L 74.64984 272.11016 
L 75.836793 269.089306 
L 77.023747 269.336248 
L 78.248989 267.079974 
L 79.474231 267.277013 
L 80.737761 269.655038 
L 82.039581 271.660807 
L 83.417978 264.964396 
L 84.681509 263.99189 
L 85.94504 265.712697 
L 87.170282 272.01385 
L 88.357235 273.838893 
L 89.544188 279.486365 
L 90.731141 283.963584 
L 91.918094 281.774668 
L 93.143336 280.27079 
L 94.330289 274.525224 
L 95.478954 266.349677 
L 96.665907 262.762363 
L 97.814571 263.649096 
L 99.039813 267.991287 
L 100.226766 272.62337 
L 101.413719 272.837413 
L 102.638961 274.967422 
L 103.825914 271.028333 
L 105.089445 272.354922 
L 106.276398 268.857767 
L 107.463351 266.080633 
L 108.726882 264.76497 
L 109.837258 263.83047 
L 111.0625 264.881859 
L 112.249453 266.220909 
L 113.436406 265.298285 
L 114.623359 269.581753 
L 115.810312 267.876921 
L 116.958977 274.332456 
L 118.14593 275.653194 
L 120.558125 278.823915 
L 121.745078 275.268343 
L 122.97032 273.089961 
L 124.195562 271.58262 
L 125.382515 273.014197 
L 126.607757 271.020543 
L 127.79471 265.314751 
L 128.981663 266.616345 
L 130.206905 261.928024 
L 131.432147 259.986236 
L 132.657389 255.746427 
L 133.882631 250.145795 
L 135.107873 248.230704 
L 136.294826 244.084276 
L 138.668733 242.117259 
L 141.080928 247.300412 
L 142.267881 248.093476 
L 143.493123 248.45526 
L 144.718365 244.372723 
L 147.092271 251.501886 
L 148.317513 252.665541 
L 149.504466 250.365445 
L 150.729708 250.682605 
L 151.916661 247.775335 
L 153.065326 239.916196 
L 154.21399 234.438644 
L 155.400943 226.465503 
L 156.587896 222.291457 
L 157.813138 220.066076 
L 159.000091 224.703274 
L 160.148756 231.037217 
L 161.373998 232.899275 
L 162.560951 232.378057 
L 163.747904 228.781356 
L 164.934857 226.030779 
L 166.083521 216.795658 
L 167.347052 200.228445 
L 168.572294 195.278066 
L 169.759247 183.411271 
L 170.9462 186.939586 
L 172.171442 189.894318 
L 173.358395 190.003944 
L 174.583637 186.504717 
L 175.732302 180.142217 
L 176.957544 182.82662 
L 179.33145 161.260307 
L 180.441825 161.780325 
L 181.667067 153.313955 
L 182.815732 154.703809 
L 184.040974 154.640964 
L 185.304505 143.569116 
L 186.453169 142.833469 
L 187.640122 136.246421 
L 188.903653 133.137346 
L 191.315848 107.172856 
L 192.502801 101.294449 
L 193.689754 81.933559 
L 194.838418 70.305836 
L 196.101949 61.30034 
L 197.288902 51.656443 
L 198.514144 62.08004 
L 199.662809 69.261039 
L 200.849762 73.989273 
L 202.036715 76.868215 
L 203.261957 88.107108 
L 206.822816 128.649832 
L 208.00977 134.836288 
L 209.235011 135.512129 
L 210.383676 151.465218 
L 211.570629 152.939412 
L 212.795871 142.453897 
L 213.982824 129.109555 
L 215.169777 125.13946 
L 216.395019 122.566839 
L 217.581972 133.258847 
L 218.768925 134.204844 
L 219.994167 133.908511 
L 221.219409 129.168513 
L 222.406363 141.292908 
L 223.631604 137.941494 
L 224.780269 138.602062 
L 225.967222 142.180455 
L 227.192464 153.154681 
L 228.379417 157.259654 
L 230.753323 177.684419 
L 231.901988 181.373539 
L 233.12723 173.878131 
L 234.352472 175.504748 
L 235.539425 166.712021 
L 236.6498 169.970677 
L 237.798465 172.959955 
L 239.023707 179.776895 
L 240.248948 185.879135 
L 241.397613 188.787553 
L 242.622855 198.052159 
L 243.848097 201.703479 
L 245.03505 200.16565 
L 246.183714 197.591323 
L 247.370667 187.563801 
L 249.744574 190.272991 
L 250.931527 187.270399 
L 252.156769 193.304168 
L 253.343722 189.414573 
L 255.717628 206.632834 
L 256.904581 210.605739 
L 258.129823 209.359805 
L 259.316776 211.567585 
L 260.50373 209.081695 
L 261.690683 211.318831 
L 262.877636 207.432505 
L 264.102878 209.152518 
L 265.213253 202.48183 
L 266.476784 204.913586 
L 267.663737 205.597856 
L 268.888979 204.816234 
L 270.114221 197.583339 
L 271.262886 185.867797 
L 272.41155 175.449537 
L 273.675081 171.942465 
L 274.823745 175.775654 
L 276.010698 184.997315 
L 277.197651 180.225959 
L 279.648135 195.736585 
L 280.835088 197.948905 
L 282.022041 192.506457 
L 283.170706 183.258683 
L 284.357659 180.923449 
L 285.544612 181.27974 
L 286.808143 182.098675 
L 287.918518 188.548118 
L 289.14376 175.965887 
L 290.292425 178.311436 
L 291.517667 186.964191 
L 292.742909 180.733481 
L 293.891573 182.381942 
L 295.078526 183.874568 
L 296.265479 180.879288 
L 297.490721 182.430647 
L 298.715963 180.690026 
L 299.78805 184.054616 
L 301.051581 182.206617 
L 302.200245 185.05398 
L 303.463776 195.228098 
L 304.765595 189.8261 
L 305.990837 198.022484 
L 307.139502 194.76161 
L 308.364744 188.677288 
L 309.513408 193.686544 
L 310.73865 197.748367 
L 311.963892 202.886244 
L 313.150845 208.575346 
L 314.299509 209.975298 
L 315.486462 215.132936 
L 316.673416 214.818489 
L 317.860369 217.940708 
L 319.085611 207.056447 
L 320.272564 201.940115 
L 321.459517 200.262756 
L 322.723048 195.863149 
L 323.795134 191.422412 
L 325.058665 195.019109 
L 326.20733 192.431197 
L 327.394283 196.728816 
L 328.581236 204.325856 
L 329.768189 211.071599 
L 330.955142 213.893748 
L 332.142095 221.289302 
L 333.367337 225.378031 
L 334.55429 226.884354 
L 335.741243 222.209553 
L 336.889908 225.007587 
L 338.11515 216.4839 
L 339.340392 212.014175 
L 340.489056 214.960953 
L 341.714298 215.085992 
L 342.901251 214.263867 
L 344.049915 217.113898 
L 345.236869 218.329964 
L 346.538688 214.68104 
L 347.649064 209.812725 
L 348.797728 206.26699 
L 351.286501 194.799962 
L 352.396876 197.734452 
L 353.622118 192.282946 
L 354.770783 199.309367 
L 355.957736 203.223737 
L 357.221267 202.656501 
L 358.40822 204.393889 
L 359.518595 207.10768 
L 360.705548 205.284959 
L 361.892501 208.065818 
L 363.156032 203.020413 
L 364.304697 197.402419 
L 365.49165 195.318388 
L 366.755181 208.006474 
L 367.903845 213.93076 
L 369.090798 218.600831 
L 370.239462 216.715018 
L 371.502993 209.321546 
L 372.613369 206.767003 
L 373.762033 206.862484 
L 375.025564 196.969835 
L 376.135939 196.221988 
L 377.39947 199.617733 
L 378.509846 205.255284 
L 380.003109 216.507284 
L 381.419795 219.684356 
L 382.721615 213.287829 
L 383.908568 211.399469 
L 385.172099 210.27069 
L 386.282474 205.92072 
L 387.546005 206.553579 
L 388.732958 205.39823 
L 389.843334 201.440359 
L 391.068576 202.891836 
L 392.293818 213.626775 
L 394.591146 224.829467 
L 395.816388 223.152929 
L 397.04163 212.458786 
L 398.34345 212.520091 
L 399.338959 209.215525 
L 400.60249 198.180313 
L 401.827732 191.608177 
L 402.861529 194.413204 
L 404.163349 200.872133 
L 405.273725 198.176094 
L 406.498966 193.633091 
L 407.647631 186.8478 
L 408.911162 185.202014 
L 410.021537 195.7232 
L 411.361645 192.76686 
L 412.433732 195.323482 
L 413.620685 200.298341 
L 414.922505 206.416907 
L 415.994592 204.381005 
L 417.258122 199.061301 
L 418.368498 197.595359 
L 419.670317 199.239294 
L 421.048715 202.061353 
L 422.082513 208.727208 
L 423.154599 205.001158 
L 424.41813 211.944777 
L 425.643372 215.117712 
L 426.715459 213.930778 
L 428.017278 211.74883 
L 429.280809 219.031129 
L 430.391185 216.718029 
L 431.50156 223.66451 
L 432.765091 220.072123 
L 433.913755 220.977138 
L 434.909264 210.412429 
L 436.364239 206.080685 
L 437.512903 200.745882 
L 438.661568 197.858205 
L 439.88681 203.283581 
L 441.073763 216.123428 
L 442.14585 220.563766 
L 443.447669 235.202364 
L 444.634622 229.380987 
L 446.97024 215.590654 
L 448.195482 206.479008 
L 449.382435 202.767669 
L 450.49281 203.71368 
L 451.871208 206.883493 
L 452.943294 210.446719 
L 454.206825 208.289308 
L 455.240623 209.184589 
L 456.772175 206.122186 
L 458.112284 199.772481 
L 459.299237 200.596167 
L 460.677634 202.433116 
L 461.941165 212.602173 
L 463.281273 210.984755 
L 465.425447 205.060643 
L 467.799353 190.863357 
L 468.948017 190.664048 
L 470.096682 184.471243 
L 471.398501 174.635674 
L 472.623743 174.758732 
L 473.810696 180.914149 
L 474.959361 169.319798 
L 476.031448 175.90187 
L 477.333267 178.72933 
L 478.52022 174.49245 
L 479.668885 175.710159 
L 481.008993 191.112393 
L 482.272524 200.931706 
L 483.382899 195.181262 
L 484.608141 195.848626 
L 485.718517 198.465235 
L 486.675737 186.184774 
L 488.015845 185.908767 
L 489.279376 176.120525 
L 490.466329 170.971346 
L 491.614994 174.283746 
L 492.68708 189.880244 
L 493.874033 221.583356 
L 493.874033 221.583356 
" clip-path="url(#pecb7dfe2d7)" style="fill: none; stroke: #ff7f0e; stroke-width: 2.5; stroke-linecap: square"/>
   </g>
   <g id="line2d_20">
    <path d="M 53.552705 259.271484 
L 53.476128 272.044481 
L 53.437839 271.11808 
L 53.476128 272.656064 
L 53.552705 271.965855 
L 53.859016 271.680078 
L 56.462655 273.250758 
L 58.721695 269.981076 
L 61.019024 271.979101 
L 64.771327 268.487554 
L 66.149724 268.550162 
L 67.374966 265.817408 
L 68.485342 263.931324 
L 69.595717 267.583664 
L 70.706093 271.718907 
L 71.816468 278.458073 
L 73.003421 275.967488 
L 74.190375 277.725366 
L 75.415617 277.715805 
L 76.60257 274.916629 
L 77.8661 271.245531 
L 79.014765 270.341622 
L 80.201718 269.685691 
L 81.503538 275.682066 
L 82.767068 272.179784 
L 84.107177 274.354855 
L 85.370707 273.228116 
L 86.634238 275.946874 
L 87.85948 275.721545 
L 89.046433 270.787719 
L 90.271675 272.380375 
L 91.42034 273.5172 
L 92.645582 274.202064 
L 93.832535 273.005555 
L 95.096065 265.960761 
L 96.283019 268.187115 
L 97.469972 271.951655 
L 98.695214 272.917995 
L 99.882167 278.107002 
L 101.06912 280.731246 
L 102.217784 285.218858 
L 103.481315 283.691725 
L 104.668268 281.351866 
L 105.89351 279.592019 
L 107.118752 283.126665 
L 109.530947 269.666078 
L 110.7179 267.209355 
L 111.866565 269.968066 
L 113.091807 268.88975 
L 114.240471 271.22398 
L 115.427424 268.729808 
L 116.652666 270.512738 
L 117.839619 274.603325 
L 119.026572 277.438147 
L 120.213526 267.905319 
L 121.438768 269.880353 
L 122.549143 273.744496 
L 123.736096 278.924247 
L 124.999627 281.343111 
L 126.148291 282.99847 
L 128.598775 278.695557 
L 129.785728 273.571314 
L 131.01097 266.028338 
L 132.236212 263.893813 
L 133.461454 266.242642 
L 134.724985 269.59591 
L 135.911938 266.974438 
L 137.13718 269.460369 
L 138.324133 269.641533 
L 140.736328 258.856299 
L 141.923281 253.0113 
L 143.110235 246.560652 
L 144.258899 245.910339 
L 145.445852 243.416468 
L 146.632805 242.146244 
L 147.858047 239.432426 
L 149.045 246.681942 
L 150.270242 247.69142 
L 151.457195 244.69976 
L 152.60586 246.603414 
L 153.831102 244.893429 
L 156.205008 234.094339 
L 157.43025 233.451669 
L 158.578914 231.825191 
L 159.765867 232.918157 
L 160.991109 231.991937 
L 162.178063 236.595104 
L 163.365016 238.264798 
L 164.551969 240.229428 
L 166.964164 222.581073 
L 168.151117 211.204912 
L 169.33807 210.623697 
L 170.601601 203.928302 
L 171.826843 194.649018 
L 173.013796 191.236554 
L 174.200749 194.029888 
L 175.387702 196.127669 
L 176.574656 195.181656 
L 178.910273 189.748442 
L 180.097226 185.729514 
L 181.284179 186.750819 
L 183.658086 176.523917 
L 184.80675 176.343078 
L 186.070281 175.296804 
L 187.295523 176.662394 
L 188.482476 171.200547 
L 189.669429 162.036857 
L 190.856382 151.567633 
L 192.081624 145.558528 
L 193.268577 137.045874 
L 194.493819 135.217228 
L 195.680772 132.052459 
L 196.829437 135.877906 
L 199.241632 151.825798 
L 200.466874 162.670655 
L 201.653827 160.104684 
L 202.879069 159.890187 
L 204.066022 165.318892 
L 205.214686 161.558714 
L 206.439928 168.781 
L 207.626881 163.249786 
L 208.813835 162.164398 
L 209.962499 157.474318 
L 211.149452 169.325433 
L 212.374694 172.775324 
L 213.523358 167.121356 
L 214.710311 170.557998 
L 215.973842 174.570213 
L 217.122507 169.670479 
L 218.30946 170.066015 
L 219.496413 163.990766 
L 220.721655 163.029745 
L 221.946897 167.67646 
L 223.13385 178.19237 
L 224.320803 176.54406 
L 225.507756 192.358475 
L 226.732998 198.386738 
L 227.881662 199.674323 
L 230.332146 199.06545 
L 231.480811 204.011042 
L 232.706053 198.605 
L 233.893006 197.90097 
L 235.079959 196.765645 
L 236.228623 201.375885 
L 237.415576 207.193179 
L 238.60253 205.641805 
L 239.86606 209.840372 
L 241.014725 217.563015 
L 242.201678 215.796103 
L 243.388631 213.282334 
L 244.613873 201.255151 
L 245.762537 202.647063 
L 246.987779 208.399772 
L 248.174732 207.700939 
L 249.361686 200.647196 
L 250.548639 205.171215 
L 251.812169 206.982765 
L 252.999123 209.229706 
L 254.186076 202.966974 
L 255.373029 198.503258 
L 256.521693 198.006128 
L 257.708646 207.568999 
L 258.933888 209.450835 
L 260.082553 204.555753 
L 261.307795 203.590339 
L 262.456459 210.423964 
L 263.681701 216.037685 
L 264.868654 222.426523 
L 266.017318 217.146767 
L 267.204272 213.177901 
L 268.429513 210.271379 
L 269.578178 209.934932 
L 270.879997 206.084324 
L 272.028662 205.901687 
L 273.177326 212.863802 
L 274.32599 212.187313 
L 275.589521 217.4936 
L 276.738186 224.740906 
L 277.963427 211.130924 
L 279.188669 207.006138 
L 280.337334 205.743932 
L 281.562576 207.003619 
L 282.672951 211.494745 
L 283.898193 215.321083 
L 285.161724 220.23474 
L 286.348677 212.517959 
L 287.497341 212.881392 
L 288.722583 214.43009 
L 289.947825 215.48794 
L 291.09649 214.301238 
L 292.321732 213.275162 
L 294.657349 217.130233 
L 295.882591 218.476704 
L 297.031255 216.3753 
L 298.256497 204.472191 
L 299.481739 201.456267 
L 300.630404 205.474918 
L 301.855646 208.346969 
L 303.042599 208.295797 
L 304.30613 208.650082 
L 305.531371 214.422434 
L 306.794902 218.106114 
L 309.168809 204.138572 
L 310.394051 203.51143 
L 311.619292 199.703378 
L 312.729668 204.261951 
L 313.878332 204.739321 
L 316.21395 221.25401 
L 317.477481 227.989924 
L 318.702723 225.140943 
L 319.889676 223.894743 
L 321.000051 226.177223 
L 322.263582 227.890645 
L 323.412246 221.23169 
L 324.599199 219.938844 
L 325.786153 210.898737 
L 326.973106 209.980545 
L 328.198348 217.401677 
L 329.385301 213.842899 
L 330.533965 205.412333 
L 331.759207 211.229147 
L 332.907871 214.919169 
L 334.094825 213.410795 
L 335.243489 217.885996 
L 336.583597 208.154655 
L 337.77055 205.745297 
L 338.880926 217.77878 
L 340.02959 224.128809 
L 341.33141 222.309477 
L 342.441785 209.177192 
L 343.59045 208.998487 
L 344.815692 214.93433 
L 347.266176 225.584777 
L 348.41484 221.595149 
L 349.563504 231.829298 
L 350.865324 241.381423 
L 351.975699 233.497641 
L 353.162653 231.33736 
L 354.387895 218.74221 
L 355.574848 215.945798 
L 356.723512 219.075477 
L 357.910465 220.424877 
L 359.097418 214.765032 
L 360.284371 213.541431 
L 361.471325 217.722912 
L 362.658278 222.43923 
L 363.88352 219.296738 
L 365.032184 225.281197 
L 366.257426 222.167146 
L 368.631332 216.984766 
L 369.779997 210.853918 
L 370.96695 206.241722 
L 372.192192 204.990155 
L 373.379145 214.505857 
L 374.566098 221.387013 
L 375.714762 222.097425 
L 376.978293 222.165768 
L 378.165246 218.94326 
L 379.505355 219.873503 
L 380.845463 213.787595 
L 382.185571 211.082126 
L 383.449102 207.618559 
L 384.597766 205.554735 
L 385.937875 207.808661 
L 387.086539 204.934892 
L 388.273492 192.282938 
L 389.460446 193.157719 
L 390.647399 199.787412 
L 391.719485 210.1237 
L 393.059594 211.236696 
L 394.208258 216.249835 
L 395.318634 219.291256 
L 396.543876 225.184734 
L 397.730829 220.30434 
L 398.956071 212.438083 
L 400.143024 196.034439 
L 402.478641 202.53992 
L 403.742172 199.473669 
L 404.929125 199.568732 
L 406.039501 203.308586 
L 407.264743 214.715392 
L 408.528273 224.816543 
L 409.562071 224.337677 
L 410.863891 222.037586 
L 412.089133 225.693608 
L 413.352664 231.541809 
L 414.539617 226.079865 
L 415.611704 213.153268 
L 416.836945 217.373094 
L 418.023899 216.4837 
L 419.172563 218.422401 
L 420.397805 219.529824 
L 421.546469 221.917755 
L 422.733422 225.367912 
L 423.958664 226.29954 
L 425.37535 229.301429 
L 426.562304 222.065074 
L 427.596101 214.470077 
L 428.821343 214.431373 
L 429.931719 209.948079 
L 431.003806 210.152788 
L 432.267336 216.35098 
L 433.569156 227.429406 
L 434.679531 231.489596 
L 435.904773 229.918136 
L 437.053438 234.401748 
L 438.355257 233.894594 
L 439.54221 234.401355 
L 440.652586 230.854962 
L 441.762962 219.494761 
L 443.026492 213.743127 
L 444.251734 213.525005 
L 445.285532 212.481111 
L 446.587352 212.906595 
L 447.697727 217.265525 
L 448.961258 224.76451 
L 450.1865 230.293747 
L 451.373453 239.30074 
L 452.560406 238.597225 
L 453.632493 229.569316 
L 454.819446 229.214035 
L 456.236132 224.940743 
L 457.691107 215.620421 
L 458.954638 216.621479 
L 461.328544 207.734008 
L 462.821808 203.837953 
L 464.04705 211.484615 
L 464.851115 207.93395 
L 465.999779 211.292604 
L 467.301599 213.164135 
L 468.565129 210.151046 
L 469.752082 203.818496 
L 470.939036 198.603682 
L 472.164278 196.470004 
L 474.499895 181.903045 
L 475.686848 179.524409 
L 476.91209 180.964076 
L 478.137332 185.173287 
L 479.209419 184.625505 
L 480.587816 191.5669 
L 481.698192 194.733764 
L 482.961722 201.432754 
L 484.148675 211.809972 
L 485.29734 208.217822 
L 486.522582 200.787182 
L 487.671246 203.361355 
L 488.858199 207.732855 
L 490.083441 203.104329 
L 491.155528 198.403831 
L 492.38077 195.161432 
L 493.644301 194.9072 
L 494.486654 199.171204 
L 494.486654 199.171204 
" clip-path="url(#pecb7dfe2d7)" style="fill: none; stroke: #9467bd; stroke-width: 2.5; stroke-linecap: square"/>
   </g>
   <g id="line2d_21">
    <path d="M 54.586503 276.183802 
L 54.548214 277.012506 
L 54.509926 276.545598 
L 54.548214 271.113377 
L 55.084258 276.166932 
L 56.232922 272.732525 
L 58.032496 272.367651 
L 60.253247 270.903874 
L 62.43571 268.161466 
L 64.35015 275.908067 
L 65.95828 274.912168 
L 67.336677 272.393333 
L 68.523631 268.091924 
L 69.634006 267.822643 
L 70.706093 266.372269 
L 71.854757 261.609636 
L 73.003421 262.639659 
L 74.113797 260.791167 
L 75.339039 263.011795 
L 76.564281 271.263829 
L 77.751234 269.409629 
L 79.014765 271.02747 
L 80.240007 268.892711 
L 81.541826 268.027075 
L 82.843646 263.67029 
L 84.183754 264.831108 
L 86.710816 274.162983 
L 87.897769 277.930566 
L 89.123011 277.020984 
L 90.271675 278.2232 
L 91.458628 277.015054 
L 92.645582 277.260264 
L 93.870823 276.204838 
L 95.057777 273.668276 
L 96.283019 275.837465 
L 97.469972 280.926576 
L 98.695214 278.130914 
L 99.882167 278.609259 
L 101.06912 274.291438 
L 102.256073 274.9252 
L 103.443026 277.745813 
L 104.629979 282.835042 
L 105.816933 279.823156 
L 107.003886 278.789477 
L 108.229128 277.059076 
L 109.416081 277.059004 
L 110.603034 269.545869 
L 111.789987 268.879084 
L 112.97694 261.918058 
L 114.202182 258.19375 
L 115.427424 259.561147 
L 116.576089 260.26322 
L 117.763042 262.457449 
L 118.949995 264.088704 
L 120.136948 266.28793 
L 121.36219 270.604781 
L 122.510854 266.803149 
L 123.697807 266.343634 
L 124.884761 260.1569 
L 126.110002 254.482656 
L 127.335244 257.942105 
L 128.560486 260.380318 
L 129.74744 261.618337 
L 131.01097 261.777582 
L 132.236212 262.058486 
L 133.461454 265.967726 
L 134.648407 258.109829 
L 135.835361 257.268114 
L 137.022314 247.940902 
L 138.170978 245.520741 
L 139.434509 242.43079 
L 140.659751 235.10165 
L 141.846704 231.404614 
L 143.071946 235.919929 
L 144.258899 239.140632 
L 145.484141 247.890154 
L 146.709383 243.846792 
L 147.858047 250.672992 
L 149.045 250.031868 
L 150.270242 248.9449 
L 151.418907 241.424743 
L 152.644149 237.867118 
L 153.869391 238.504396 
L 155.056344 237.625993 
L 156.243297 235.757614 
L 157.391961 234.620898 
L 158.617203 228.931901 
L 159.804156 225.725535 
L 160.952821 223.565993 
L 162.139774 224.364926 
L 163.403305 230.189903 
L 165.738922 233.077811 
L 166.925875 223.807187 
L 168.151117 216.061245 
L 169.33807 210.577046 
L 171.711977 175.593802 
L 172.860641 169.642438 
L 174.085883 169.720055 
L 175.311125 168.754065 
L 176.498078 161.941949 
L 177.685031 161.91312 
L 178.833695 157.693004 
L 180.058937 161.210844 
L 181.245891 156.240372 
L 182.432844 135.345353 
L 183.658086 125.689186 
L 184.845039 109.399512 
L 185.993703 104.171952 
L 187.180656 94.541539 
L 188.405898 87.193416 
L 189.669429 80.669206 
L 190.856382 83.960042 
L 192.158202 98.407583 
L 193.345155 97.762903 
L 194.493819 96.013664 
L 195.719061 97.661781 
L 196.906014 97.222804 
L 198.131256 104.364902 
L 199.279921 103.245566 
L 200.428585 102.698888 
L 201.615538 99.313608 
L 204.027733 91.6996 
L 205.214686 88.341255 
L 206.439928 89.186256 
L 207.588593 104.664821 
L 208.813835 111.979704 
L 210.000788 121.488852 
L 211.22603 133.153434 
L 212.412983 155.336971 
L 213.561647 158.113972 
L 214.786889 146.887964 
L 217.122507 135.014516 
L 218.347749 129.798714 
L 219.534702 132.242621 
L 220.759944 119.871532 
L 221.908608 127.186951 
L 223.13385 146.090274 
L 224.320803 166.557809 
L 225.546045 171.197051 
L 226.694709 185.047192 
L 227.881662 186.340128 
L 229.106904 186.180587 
L 230.255569 192.766122 
L 231.480811 186.781312 
L 232.667764 178.078215 
L 233.854717 175.476158 
L 235.079959 184.31361 
L 236.266912 181.119961 
L 237.453865 183.836004 
L 238.60253 183.413422 
L 239.827772 174.216463 
L 241.014725 184.774517 
L 242.201678 192.043785 
L 243.388631 190.095831 
L 244.575584 193.437392 
L 245.800826 197.779276 
L 246.987779 205.636308 
L 248.174732 208.818669 
L 249.361686 217.867351 
L 250.548639 215.557873 
L 251.697303 221.179292 
L 252.922545 222.551652 
L 254.109498 221.504654 
L 255.296451 218.28622 
L 256.483404 211.166505 
L 257.670358 201.326211 
L 258.857311 195.147279 
L 260.005975 196.094071 
L 261.269506 199.974972 
L 262.456459 201.535446 
L 263.681701 204.342913 
L 264.792076 195.074308 
L 265.97903 196.141796 
L 267.204272 184.531373 
L 268.391225 180.897377 
L 269.578178 171.068329 
L 270.765131 181.904103 
L 271.913795 187.348373 
L 273.177326 198.265975 
L 274.364279 206.212722 
L 275.589521 207.338185 
L 276.738186 204.979601 
L 277.88685 205.085196 
L 279.112092 193.532931 
L 280.299045 190.950169 
L 281.485998 180.92707 
L 282.749529 180.278775 
L 283.936482 172.31039 
L 285.085146 176.915157 
L 286.233811 168.195546 
L 287.459053 167.881324 
L 288.607717 175.085468 
L 289.756381 184.415676 
L 290.905046 187.541095 
L 292.206865 191.906599 
L 293.35553 198.557117 
L 294.580772 212.849689 
L 296.954678 218.426933 
L 298.17992 204.505631 
L 299.366873 199.199664 
L 300.553826 201.290466 
L 301.779068 189.413753 
L 303.00431 181.195896 
L 304.267841 171.821732 
L 305.531371 173.499676 
L 306.756613 187.091429 
L 307.905278 185.476832 
L 308.939076 190.442778 
L 310.202606 197.395363 
L 311.351271 197.646917 
L 312.614802 207.853858 
L 313.801755 209.882809 
L 315.026997 214.213619 
L 316.21395 207.383816 
L 317.439192 206.528039 
L 318.626145 202.013504 
L 319.851387 196.391617 
L 321.000051 193.560801 
L 322.225293 195.025587 
L 323.373957 189.386521 
L 324.560911 197.689702 
L 325.786153 202.520085 
L 327.011395 196.41194 
L 328.198348 193.597866 
L 329.385301 196.289908 
L 330.572254 198.221381 
L 331.682629 204.162942 
L 332.984449 207.082632 
L 334.094825 204.982231 
L 335.281778 203.614632 
L 336.468731 202.604415 
L 337.655684 200.26276 
L 338.880926 190.821027 
L 340.144457 196.194991 
L 342.403497 210.385583 
L 343.743605 212.654128 
L 344.853981 220.160514 
L 347.266176 213.328701 
L 348.338262 213.248061 
L 350.750457 215.987048 
L 351.975699 219.732834 
L 353.162653 222.880263 
L 355.574848 212.331632 
L 356.761801 209.009715 
L 359.097418 200.672168 
L 360.284371 203.82727 
L 361.471325 207.769008 
L 362.658278 217.246038 
L 363.921808 213.746328 
L 365.070473 215.294846 
L 366.257426 207.236637 
L 367.444379 200.901764 
L 368.669621 199.612766 
L 369.818285 202.256131 
L 370.96695 201.999467 
L 372.192192 210.437482 
L 373.417434 213.111492 
L 374.566098 214.847391 
L 375.753051 210.939113 
L 377.054871 206.125089 
L 378.126957 199.16976 
L 379.581932 194.144809 
L 380.883752 196.87989 
L 382.22386 192.804728 
L 383.410813 190.713215 
L 384.597766 195.885907 
L 385.899586 191.89157 
L 387.086539 189.428814 
L 388.273492 196.36322 
L 389.422157 189.518699 
L 390.60911 191.05117 
L 391.796063 186.413847 
L 393.021305 188.897884 
L 394.208258 190.065881 
L 395.356922 188.473104 
L 396.543876 183.976442 
L 397.845695 176.061571 
L 398.994359 173.131021 
L 400.181313 178.125853 
L 401.329977 174.797129 
L 402.51693 176.245556 
L 403.742172 180.754631 
L 404.852548 193.19761 
L 406.154367 204.3008 
L 407.264743 208.57684 
L 409.715227 223.744879 
L 410.863891 226.652365 
L 412.089133 225.588741 
L 413.276086 220.394736 
L 414.463039 207.657309 
L 415.611704 205.495359 
L 416.875234 198.646982 
L 417.98561 187.679001 
L 419.325718 183.72757 
L 420.321227 192.879006 
L 422.886578 203.090188 
L 423.958664 208.836656 
L 425.183906 223.241824 
L 426.638881 219.885268 
L 427.710968 216.278444 
L 428.859632 213.550798 
L 429.89343 210.587416 
L 431.080383 209.416854 
L 432.343914 209.035763 
L 433.569156 206.154799 
L 434.71782 210.680223 
L 435.789907 208.874597 
L 436.97686 213.11769 
L 438.240391 203.559051 
L 439.427344 197.298208 
L 440.690875 201.495005 
L 441.80125 202.606616 
L 442.988203 200.519324 
L 444.251734 204.136259 
L 445.476976 203.699713 
L 446.587352 213.207875 
L 447.736016 213.021161 
L 448.922969 202.353813 
L 450.148211 200.390733 
L 451.296876 197.99955 
L 452.522117 198.145504 
L 453.747359 202.929581 
L 454.819446 197.194595 
L 456.236132 196.000121 
L 457.691107 196.997721 
L 458.87806 208.735496 
L 460.17988 207.082588 
L 461.366833 196.410414 
L 462.553786 189.135429 
L 463.817317 184.386185 
L 465.195714 172.603856 
L 466.152934 168.555182 
L 467.26331 159.620752 
L 468.373685 155.727787 
L 469.675505 165.18248 
L 470.862458 172.035223 
L 472.0877 178.104958 
L 474.499895 203.92595 
L 475.648559 207.568793 
L 476.797224 198.0804 
L 478.137332 201.474747 
L 479.247708 196.98229 
L 480.434661 183.576313 
L 481.659903 179.985174 
L 482.885145 170.437568 
L 483.918943 167.982182 
L 485.335629 175.121854 
L 486.599159 182.313379 
L 487.824401 182.763941 
L 489.853708 196.815451 
L 491.270394 202.067954 
L 492.495636 202.387668 
L 493.414568 195.56106 
L 494.601521 179.374599 
L 494.601521 179.374599 
" clip-path="url(#pecb7dfe2d7)" style="fill: none; stroke: #2ca02c; stroke-width: 2.5; stroke-linecap: square"/>
   </g>
   <g id="patch_3">
    <path d="M 55.084258 303.182656 
L 55.084258 39.679004 
" style="fill: none; stroke: #000000; stroke-width: 1.5; stroke-linejoin: miter; stroke-linecap: square"/>
   </g>
   <g id="patch_4">
    <path d="M 55.084258 303.182656 
L 495.405586 303.182656 
" style="fill: none; stroke: #000000; stroke-width: 1.5; stroke-linejoin: miter; stroke-linecap: square"/>
   </g>
   <g id="text_19">
    <!-- 1421_wo_HF -->
    <g transform="translate(233.610234 18.441699) scale(0.14 -0.14)">
     <defs>
      <path id="ArialMT-42" d="M -97 -1272 
L -97 -866 
L 3631 -866 
L 3631 -1272 
L -97 -1272 
z
" transform="scale(0.015625)"/>
      <path id="ArialMT-5a" d="M 1034 0 
L 19 3319 
L 600 3319 
L 1128 1403 
L 1325 691 
Q 1338 744 1497 1375 
L 2025 3319 
L 2603 3319 
L 3100 1394 
L 3266 759 
L 3456 1400 
L 4025 3319 
L 4572 3319 
L 3534 0 
L 2950 0 
L 2422 1988 
L 2294 2553 
L 1622 0 
L 1034 0 
z
" transform="scale(0.015625)"/>
      <path id="ArialMT-2b" d="M 513 0 
L 513 4581 
L 1119 4581 
L 1119 2700 
L 3500 2700 
L 3500 4581 
L 4106 4581 
L 4106 0 
L 3500 0 
L 3500 2159 
L 1119 2159 
L 1119 0 
L 513 0 
z
" transform="scale(0.015625)"/>
      <path id="ArialMT-29" d="M 525 0 
L 525 4581 
L 3616 4581 
L 3616 4041 
L 1131 4041 
L 1131 2622 
L 3281 2622 
L 3281 2081 
L 1131 2081 
L 1131 0 
L 525 0 
z
" transform="scale(0.015625)"/>
     </defs>
     <use xlink:href="#ArialMT-14"/>
     <use xlink:href="#ArialMT-17" transform="translate(55.609375 0)"/>
     <use xlink:href="#ArialMT-15" transform="translate(111.21875 0)"/>
     <use xlink:href="#ArialMT-14" transform="translate(166.828125 0)"/>
     <use xlink:href="#ArialMT-42" transform="translate(222.4375 0)"/>
     <use xlink:href="#ArialMT-5a" transform="translate(278.046875 0)"/>
     <use xlink:href="#ArialMT-52" transform="translate(350.265625 0)"/>
     <use xlink:href="#ArialMT-42" transform="translate(405.875 0)"/>
     <use xlink:href="#ArialMT-2b" transform="translate(461.484375 0)"/>
     <use xlink:href="#ArialMT-29" transform="translate(533.703125 0)"/>
    </g>
    <!-- m/z 20 -->
    <g transform="translate(254.239453 33.679004) scale(0.14 -0.14)">
     <use xlink:href="#ArialMT-50"/>
     <use xlink:href="#ArialMT-12" transform="translate(83.296875 0)"/>
     <use xlink:href="#ArialMT-5d" transform="translate(111.078125 0)"/>
     <use xlink:href="#ArialMT-3" transform="translate(161.078125 0)"/>
     <use xlink:href="#ArialMT-15" transform="translate(188.859375 0)"/>
     <use xlink:href="#ArialMT-13" transform="translate(244.46875 0)"/>
    </g>
   </g>
   <g id="legend_1">
    <g id="line2d_22">
     <path d="M 513.212012 52.459277 
L 523.212012 52.459277 
L 533.212012 52.459277 
" style="fill: none; stroke: #000000; stroke-width: 2.5; stroke-linecap: square"/>
    </g>
    <g id="text_20">
     <!-- 0 h -->
     <g transform="translate(541.212012 55.959277) scale(0.1 -0.1)">
      <defs>
       <path id="ArialMT-4b" d="M 422 0 
L 422 4581 
L 984 4581 
L 984 2938 
Q 1378 3394 1978 3394 
Q 2347 3394 2619 3248 
Q 2891 3103 3008 2847 
Q 3125 2591 3125 2103 
L 3125 0 
L 2563 0 
L 2563 2103 
Q 2563 2525 2380 2717 
Q 2197 2909 1863 2909 
Q 1613 2909 1392 2779 
Q 1172 2650 1078 2428 
Q 984 2206 984 1816 
L 984 0 
L 422 0 
z
" transform="scale(0.015625)"/>
      </defs>
      <use xlink:href="#ArialMT-13"/>
      <use xlink:href="#ArialMT-3" transform="translate(55.609375 0)"/>
      <use xlink:href="#ArialMT-4b" transform="translate(83.390625 0)"/>
     </g>
    </g>
    <g id="line2d_23">
     <path d="M 513.212012 66.844043 
L 523.212012 66.844043 
L 533.212012 66.844043 
" style="fill: none; stroke: #1f77b4; stroke-width: 2.5; stroke-linecap: square"/>
    </g>
    <g id="text_21">
     <!-- 6 h -->
     <g transform="translate(541.212012 70.344043) scale(0.1 -0.1)">
      <use xlink:href="#ArialMT-19"/>
      <use xlink:href="#ArialMT-3" transform="translate(55.609375 0)"/>
      <use xlink:href="#ArialMT-4b" transform="translate(83.390625 0)"/>
     </g>
    </g>
    <g id="line2d_24">
     <path d="M 513.212012 81.228809 
L 523.212012 81.228809 
L 533.212012 81.228809 
" style="fill: none; stroke: #d62728; stroke-width: 2.5; stroke-linecap: square"/>
    </g>
    <g id="text_22">
     <!-- 24 h -->
     <g transform="translate(541.212012 84.728809) scale(0.1 -0.1)">
      <use xlink:href="#ArialMT-15"/>
      <use xlink:href="#ArialMT-17" transform="translate(55.609375 0)"/>
      <use xlink:href="#ArialMT-3" transform="translate(111.21875 0)"/>
      <use xlink:href="#ArialMT-4b" transform="translate(139 0)"/>
     </g>
    </g>
    <g id="line2d_25">
     <path d="M 513.212012 95.613574 
L 523.212012 95.613574 
L 533.212012 95.613574 
" style="fill: none; stroke: #ff7f0e; stroke-width: 2.5; stroke-linecap: square"/>
    </g>
    <g id="text_23">
     <!-- 7 d -->
     <g transform="translate(541.212012 99.113574) scale(0.1 -0.1)">
      <defs>
       <path id="ArialMT-47" d="M 2575 0 
L 2575 419 
Q 2259 -75 1647 -75 
Q 1250 -75 917 144 
Q 584 363 401 755 
Q 219 1147 219 1656 
Q 219 2153 384 2558 
Q 550 2963 881 3178 
Q 1213 3394 1622 3394 
Q 1922 3394 2156 3267 
Q 2391 3141 2538 2938 
L 2538 4581 
L 3097 4581 
L 3097 0 
L 2575 0 
z
M 797 1656 
Q 797 1019 1065 703 
Q 1334 388 1700 388 
Q 2069 388 2326 689 
Q 2584 991 2584 1609 
Q 2584 2291 2321 2609 
Q 2059 2928 1675 2928 
Q 1300 2928 1048 2622 
Q 797 2316 797 1656 
z
" transform="scale(0.015625)"/>
      </defs>
      <use xlink:href="#ArialMT-1a"/>
      <use xlink:href="#ArialMT-3" transform="translate(55.609375 0)"/>
      <use xlink:href="#ArialMT-47" transform="translate(83.390625 0)"/>
     </g>
    </g>
    <g id="line2d_26">
     <path d="M 513.212012 109.99834 
L 523.212012 109.99834 
L 533.212012 109.99834 
" style="fill: none; stroke: #9467bd; stroke-width: 2.5; stroke-linecap: square"/>
    </g>
    <g id="text_24">
     <!-- 14 d -->
     <g transform="translate(541.212012 113.49834) scale(0.1 -0.1)">
      <use xlink:href="#ArialMT-14"/>
      <use xlink:href="#ArialMT-17" transform="translate(55.609375 0)"/>
      <use xlink:href="#ArialMT-3" transform="translate(111.21875 0)"/>
      <use xlink:href="#ArialMT-47" transform="translate(139 0)"/>
     </g>
    </g>
    <g id="line2d_27">
     <path d="M 513.212012 124.383105 
L 523.212012 124.383105 
L 533.212012 124.383105 
" style="fill: none; stroke: #2ca02c; stroke-width: 2.5; stroke-linecap: square"/>
    </g>
    <g id="text_25">
     <!-- 28 d -->
     <g transform="translate(541.212012 127.883105) scale(0.1 -0.1)">
      <use xlink:href="#ArialMT-15"/>
      <use xlink:href="#ArialMT-1b" transform="translate(55.609375 0)"/>
      <use xlink:href="#ArialMT-3" transform="translate(111.21875 0)"/>
      <use xlink:href="#ArialMT-47" transform="translate(139 0)"/>
     </g>
    </g>
   </g>
  </g>
 </g>
 <defs>
  <clipPath id="pecb7dfe2d7">
   <rect x="55.084258" y="39.679004" width="440.321328" height="263.503652"/>
  </clipPath>
 </defs>
</svg>
