<?xml version="1.0" encoding="utf-8" standalone="no"?>
<!DOCTYPE svg PUBLIC "-//W3C//DTD SVG 1.1//EN"
  "http://www.w3.org/Graphics/SVG/1.1/DTD/svg11.dtd">
<svg xmlns:xlink="http://www.w3.org/1999/xlink" width="571.921237pt" height="344.160273pt" viewBox="0 0 571.921237 344.160273" xmlns="http://www.w3.org/2000/svg" version="1.1">
 <metadata>
  <rdf:RDF xmlns:dc="http://purl.org/dc/elements/1.1/" xmlns:cc="http://creativecommons.org/ns#" xmlns:rdf="http://www.w3.org/1999/02/22-rdf-syntax-ns#">
   <cc:Work>
    <dc:type rdf:resource="http://purl.org/dc/dcmitype/StillImage"/>
    <dc:date>2026-07-10T11:48:24.608930</dc:date>
    <dc:format>image/svg+xml</dc:format>
    <dc:creator>
     <cc:Agent>
      <dc:title>Matplotlib v3.11.0, https://matplotlib.org/</dc:title>
     </cc:Agent>
    </dc:creator>
   </cc:Work>
  </rdf:RDF>
 </metadata>
 <defs>
  <style type="text/css">*{stroke-linejoin: round; stroke-linecap: butt}</style>
 </defs>
 <g id="figure_1">
  <g id="patch_1">
   <path d="M 0 344.160273 
L 571.921237 344.160273 
L 571.921237 0 
L 0 0 
z
" style="fill: #ffffff"/>
  </g>
  <g id="axes_1">
   <g id="patch_2">
    <path d="M 47.298945 303.182656 
L 495.300273 303.182656 
L 495.300273 39.679004 
L 47.298945 39.679004 
z
" style="fill: #ffffff"/>
   </g>
   <g id="matplotlib.axis_1">
    <g id="xtick_1">
     <g id="line2d_1">
      <defs>
       <path id="m8d3620fe60" d="M 0 0 
L 0 -6 
" style="stroke: #000000; stroke-width: 0.8"/>
      </defs>
      <g>
       <use xlink:href="#m8d3620fe60" x="105.733901" y="303.182656" style="stroke: #000000; stroke-width: 0.8"/>
      </g>
     </g>
     <g id="text_1">
      <!-- 200 -->
      <g transform="translate(94.055932 316.875039) scale(0.14 -0.14)">
       <defs>
        <path id="ArialMT-15" d="M 3222 541 
L 3222 0 
L 194 0 
Q 188 203 259 391 
Q 375 700 629 1000 
Q 884 1300 1366 1694 
Q 2113 2306 2375 2664 
Q 2638 3022 2638 3341 
Q 2638 3675 2398 3904 
Q 2159 4134 1775 4134 
Q 1369 4134 1125 3890 
Q 881 3647 878 3216 
L 300 3275 
Q 359 3922 746 4261 
Q 1134 4600 1788 4600 
Q 2447 4600 2831 4234 
Q 3216 3869 3216 3328 
Q 3216 3053 3103 2787 
Q 2991 2522 2730 2228 
Q 2469 1934 1863 1422 
Q 1356 997 1212 845 
Q 1069 694 975 541 
L 3222 541 
z
" transform="scale(0.015625)"/>
        <path id="ArialMT-13" d="M 266 2259 
Q 266 3072 433 3567 
Q 600 4063 929 4331 
Q 1259 4600 1759 4600 
Q 2128 4600 2406 4451 
Q 2684 4303 2865 4023 
Q 3047 3744 3150 3342 
Q 3253 2941 3253 2259 
Q 3253 1453 3087 958 
Q 2922 463 2592 192 
Q 2263 -78 1759 -78 
Q 1097 -78 719 397 
Q 266 969 266 2259 
z
M 844 2259 
Q 844 1131 1108 757 
Q 1372 384 1759 384 
Q 2147 384 2411 759 
Q 2675 1134 2675 2259 
Q 2675 3391 2411 3762 
Q 2147 4134 1753 4134 
Q 1366 4134 1134 3806 
Q 844 3388 844 2259 
z
" transform="scale(0.015625)"/>
       </defs>
       <use xlink:href="#ArialMT-15"/>
       <use xlink:href="#ArialMT-13" transform="translate(55.609375 0)"/>
       <use xlink:href="#ArialMT-13" transform="translate(111.21875 0)"/>
      </g>
     </g>
    </g>
    <g id="xtick_2">
     <g id="line2d_2">
      <g>
       <use xlink:href="#m8d3620fe60" x="183.647176" y="303.182656" style="stroke: #000000; stroke-width: 0.8"/>
      </g>
     </g>
     <g id="text_2">
      <!-- 400 -->
      <g transform="translate(171.969207 316.875039) scale(0.14 -0.14)">
       <defs>
        <path id="ArialMT-17" d="M 2069 0 
L 2069 1097 
L 81 1097 
L 81 1613 
L 2172 4581 
L 2631 4581 
L 2631 1613 
L 3250 1613 
L 3250 1097 
L 2631 1097 
L 2631 0 
L 2069 0 
z
M 2069 1613 
L 2069 3678 
L 634 1613 
L 2069 1613 
z
" transform="scale(0.015625)"/>
       </defs>
       <use xlink:href="#ArialMT-17"/>
       <use xlink:href="#ArialMT-13" transform="translate(55.609375 0)"/>
       <use xlink:href="#ArialMT-13" transform="translate(111.21875 0)"/>
      </g>
     </g>
    </g>
    <g id="xtick_3">
     <g id="line2d_3">
      <g>
       <use xlink:href="#m8d3620fe60" x="261.56045" y="303.182656" style="stroke: #000000; stroke-width: 0.8"/>
      </g>
     </g>
     <g id="text_3">
      <!-- 600 -->
      <g transform="translate(249.882481 316.875039) scale(0.14 -0.14)">
       <defs>
        <path id="ArialMT-19" d="M 3184 3459 
L 2625 3416 
Q 2550 3747 2413 3897 
Q 2184 4138 1850 4138 
Q 1581 4138 1378 3988 
Q 1113 3794 959 3422 
Q 806 3050 800 2363 
Q 1003 2672 1297 2822 
Q 1591 2972 1913 2972 
Q 2475 2972 2870 2558 
Q 3266 2144 3266 1488 
Q 3266 1056 3080 686 
Q 2894 316 2569 119 
Q 2244 -78 1831 -78 
Q 1128 -78 684 439 
Q 241 956 241 2144 
Q 241 3472 731 4075 
Q 1159 4600 1884 4600 
Q 2425 4600 2770 4297 
Q 3116 3994 3184 3459 
z
M 888 1484 
Q 888 1194 1011 928 
Q 1134 663 1356 523 
Q 1578 384 1822 384 
Q 2178 384 2434 671 
Q 2691 959 2691 1453 
Q 2691 1928 2437 2201 
Q 2184 2475 1800 2475 
Q 1419 2475 1153 2201 
Q 888 1928 888 1484 
z
" transform="scale(0.015625)"/>
       </defs>
       <use xlink:href="#ArialMT-19"/>
       <use xlink:href="#ArialMT-13" transform="translate(55.609375 0)"/>
       <use xlink:href="#ArialMT-13" transform="translate(111.21875 0)"/>
      </g>
     </g>
    </g>
    <g id="xtick_4">
     <g id="line2d_4">
      <g>
       <use xlink:href="#m8d3620fe60" x="339.473725" y="303.182656" style="stroke: #000000; stroke-width: 0.8"/>
      </g>
     </g>
     <g id="text_4">
      <!-- 800 -->
      <g transform="translate(327.795756 316.875039) scale(0.14 -0.14)">
       <defs>
        <path id="ArialMT-1b" d="M 1131 2484 
Q 781 2613 612 2850 
Q 444 3088 444 3419 
Q 444 3919 803 4259 
Q 1163 4600 1759 4600 
Q 2359 4600 2725 4251 
Q 3091 3903 3091 3403 
Q 3091 3084 2923 2848 
Q 2756 2613 2416 2484 
Q 2838 2347 3058 2040 
Q 3278 1734 3278 1309 
Q 3278 722 2862 322 
Q 2447 -78 1769 -78 
Q 1091 -78 675 323 
Q 259 725 259 1325 
Q 259 1772 486 2073 
Q 713 2375 1131 2484 
z
M 1019 3438 
Q 1019 3113 1228 2906 
Q 1438 2700 1772 2700 
Q 2097 2700 2305 2904 
Q 2513 3109 2513 3406 
Q 2513 3716 2298 3927 
Q 2084 4138 1766 4138 
Q 1444 4138 1231 3931 
Q 1019 3725 1019 3438 
z
M 838 1322 
Q 838 1081 952 856 
Q 1066 631 1291 507 
Q 1516 384 1775 384 
Q 2178 384 2440 643 
Q 2703 903 2703 1303 
Q 2703 1709 2433 1975 
Q 2163 2241 1756 2241 
Q 1359 2241 1098 1978 
Q 838 1716 838 1322 
z
" transform="scale(0.015625)"/>
       </defs>
       <use xlink:href="#ArialMT-1b"/>
       <use xlink:href="#ArialMT-13" transform="translate(55.609375 0)"/>
       <use xlink:href="#ArialMT-13" transform="translate(111.21875 0)"/>
      </g>
     </g>
    </g>
    <g id="xtick_5">
     <g id="line2d_5">
      <g>
       <use xlink:href="#m8d3620fe60" x="417.386999" y="303.182656" style="stroke: #000000; stroke-width: 0.8"/>
      </g>
     </g>
     <g id="text_5">
      <!-- 1000 -->
      <g transform="translate(401.816374 316.875039) scale(0.14 -0.14)">
       <defs>
        <path id="ArialMT-14" d="M 2384 0 
L 1822 0 
L 1822 3584 
Q 1619 3391 1289 3197 
Q 959 3003 697 2906 
L 697 3450 
Q 1169 3672 1522 3987 
Q 1875 4303 2022 4600 
L 2384 4600 
L 2384 0 
z
" transform="scale(0.015625)"/>
       </defs>
       <use xlink:href="#ArialMT-14"/>
       <use xlink:href="#ArialMT-13" transform="translate(55.609375 0)"/>
       <use xlink:href="#ArialMT-13" transform="translate(111.21875 0)"/>
       <use xlink:href="#ArialMT-13" transform="translate(166.828125 0)"/>
      </g>
     </g>
    </g>
    <g id="xtick_6">
     <g id="line2d_6">
      <g>
       <use xlink:href="#m8d3620fe60" x="495.300273" y="303.182656" style="stroke: #000000; stroke-width: 0.8"/>
      </g>
     </g>
     <g id="text_6">
      <!-- 1200 -->
      <g transform="translate(479.729648 316.875039) scale(0.14 -0.14)">
       <use xlink:href="#ArialMT-14"/>
       <use xlink:href="#ArialMT-15" transform="translate(55.609375 0)"/>
       <use xlink:href="#ArialMT-13" transform="translate(111.21875 0)"/>
       <use xlink:href="#ArialMT-13" transform="translate(166.828125 0)"/>
      </g>
     </g>
    </g>
    <g id="text_7">
     <!-- T1 Temperature (°C) -->
     <g transform="translate(207.560234 334.013711) scale(0.14 -0.14)">
      <defs>
       <path id="ArialMT-37" d="M 1659 0 
L 1659 4041 
L 150 4041 
L 150 4581 
L 3781 4581 
L 3781 4041 
L 2266 4041 
L 2266 0 
L 1659 0 
z
" transform="scale(0.015625)"/>
       <path id="ArialMT-3" transform="scale(0.015625)"/>
       <path id="ArialMT-48" d="M 2694 1069 
L 3275 997 
Q 3138 488 2766 206 
Q 2394 -75 1816 -75 
Q 1088 -75 661 373 
Q 234 822 234 1631 
Q 234 2469 665 2931 
Q 1097 3394 1784 3394 
Q 2450 3394 2872 2941 
Q 3294 2488 3294 1666 
Q 3294 1616 3291 1516 
L 816 1516 
Q 847 969 1125 678 
Q 1403 388 1819 388 
Q 2128 388 2347 550 
Q 2566 713 2694 1069 
z
M 847 1978 
L 2700 1978 
Q 2663 2397 2488 2606 
Q 2219 2931 1791 2931 
Q 1403 2931 1139 2672 
Q 875 2413 847 1978 
z
" transform="scale(0.015625)"/>
       <path id="ArialMT-50" d="M 422 0 
L 422 3319 
L 925 3319 
L 925 2853 
Q 1081 3097 1340 3245 
Q 1600 3394 1931 3394 
Q 2300 3394 2536 3241 
Q 2772 3088 2869 2813 
Q 3263 3394 3894 3394 
Q 4388 3394 4653 3120 
Q 4919 2847 4919 2278 
L 4919 0 
L 4359 0 
L 4359 2091 
Q 4359 2428 4304 2576 
Q 4250 2725 4106 2815 
Q 3963 2906 3769 2906 
Q 3419 2906 3187 2673 
Q 2956 2441 2956 1928 
L 2956 0 
L 2394 0 
L 2394 2156 
Q 2394 2531 2256 2718 
Q 2119 2906 1806 2906 
Q 1569 2906 1367 2781 
Q 1166 2656 1075 2415 
Q 984 2175 984 1722 
L 984 0 
L 422 0 
z
" transform="scale(0.015625)"/>
       <path id="ArialMT-53" d="M 422 -1272 
L 422 3319 
L 934 3319 
L 934 2888 
Q 1116 3141 1344 3267 
Q 1572 3394 1897 3394 
Q 2322 3394 2647 3175 
Q 2972 2956 3137 2557 
Q 3303 2159 3303 1684 
Q 3303 1175 3120 767 
Q 2938 359 2589 142 
Q 2241 -75 1856 -75 
Q 1575 -75 1351 44 
Q 1128 163 984 344 
L 984 -1272 
L 422 -1272 
z
M 931 1641 
Q 931 1000 1190 694 
Q 1450 388 1819 388 
Q 2194 388 2461 705 
Q 2728 1022 2728 1688 
Q 2728 2322 2467 2637 
Q 2206 2953 1844 2953 
Q 1484 2953 1207 2617 
Q 931 2281 931 1641 
z
" transform="scale(0.015625)"/>
       <path id="ArialMT-55" d="M 416 0 
L 416 3319 
L 922 3319 
L 922 2816 
Q 1116 3169 1280 3281 
Q 1444 3394 1641 3394 
Q 1925 3394 2219 3213 
L 2025 2691 
Q 1819 2813 1613 2813 
Q 1428 2813 1281 2702 
Q 1134 2591 1072 2394 
Q 978 2094 978 1738 
L 978 0 
L 416 0 
z
" transform="scale(0.015625)"/>
       <path id="ArialMT-44" d="M 2588 409 
Q 2275 144 1986 34 
Q 1697 -75 1366 -75 
Q 819 -75 525 192 
Q 231 459 231 875 
Q 231 1119 342 1320 
Q 453 1522 633 1644 
Q 813 1766 1038 1828 
Q 1203 1872 1538 1913 
Q 2219 1994 2541 2106 
Q 2544 2222 2544 2253 
Q 2544 2597 2384 2738 
Q 2169 2928 1744 2928 
Q 1347 2928 1158 2789 
Q 969 2650 878 2297 
L 328 2372 
Q 403 2725 575 2942 
Q 747 3159 1072 3276 
Q 1397 3394 1825 3394 
Q 2250 3394 2515 3294 
Q 2781 3194 2906 3042 
Q 3031 2891 3081 2659 
Q 3109 2516 3109 2141 
L 3109 1391 
Q 3109 606 3145 398 
Q 3181 191 3288 0 
L 2700 0 
Q 2613 175 2588 409 
z
M 2541 1666 
Q 2234 1541 1622 1453 
Q 1275 1403 1131 1340 
Q 988 1278 909 1158 
Q 831 1038 831 891 
Q 831 666 1001 516 
Q 1172 366 1500 366 
Q 1825 366 2078 508 
Q 2331 650 2450 897 
Q 2541 1088 2541 1459 
L 2541 1666 
z
" transform="scale(0.015625)"/>
       <path id="ArialMT-57" d="M 1650 503 
L 1731 6 
Q 1494 -44 1306 -44 
Q 1000 -44 831 53 
Q 663 150 594 308 
Q 525 466 525 972 
L 525 2881 
L 113 2881 
L 113 3319 
L 525 3319 
L 525 4141 
L 1084 4478 
L 1084 3319 
L 1650 3319 
L 1650 2881 
L 1084 2881 
L 1084 941 
Q 1084 700 1114 631 
Q 1144 563 1211 522 
Q 1278 481 1403 481 
Q 1497 481 1650 503 
z
" transform="scale(0.015625)"/>
       <path id="ArialMT-58" d="M 2597 0 
L 2597 488 
Q 2209 -75 1544 -75 
Q 1250 -75 995 37 
Q 741 150 617 320 
Q 494 491 444 738 
Q 409 903 409 1263 
L 409 3319 
L 972 3319 
L 972 1478 
Q 972 1038 1006 884 
Q 1059 663 1231 536 
Q 1403 409 1656 409 
Q 1909 409 2131 539 
Q 2353 669 2445 892 
Q 2538 1116 2538 1541 
L 2538 3319 
L 3100 3319 
L 3100 0 
L 2597 0 
z
" transform="scale(0.015625)"/>
       <path id="ArialMT-b" d="M 1497 -1347 
Q 1031 -759 709 28 
Q 388 816 388 1659 
Q 388 2403 628 3084 
Q 909 3875 1497 4659 
L 1900 4659 
Q 1522 4009 1400 3731 
Q 1209 3300 1100 2831 
Q 966 2247 966 1656 
Q 966 153 1900 -1347 
L 1497 -1347 
z
" transform="scale(0.015625)"/>
       <path id="ArialMT-83" d="M 400 3794 
Q 400 4153 654 4406 
Q 909 4659 1266 4659 
Q 1628 4659 1881 4406 
Q 2134 4153 2134 3794 
Q 2134 3434 1879 3179 
Q 1625 2925 1266 2925 
Q 909 2925 654 3178 
Q 400 3431 400 3794 
z
M 741 3794 
Q 741 3575 895 3420 
Q 1050 3266 1269 3266 
Q 1484 3266 1639 3420 
Q 1794 3575 1794 3794 
Q 1794 4013 1639 4167 
Q 1484 4322 1269 4322 
Q 1050 4322 895 4167 
Q 741 4013 741 3794 
z
" transform="scale(0.015625)"/>
       <path id="ArialMT-26" d="M 3763 1606 
L 4369 1453 
Q 4178 706 3683 314 
Q 3188 -78 2472 -78 
Q 1731 -78 1267 223 
Q 803 525 561 1097 
Q 319 1669 319 2325 
Q 319 3041 592 3573 
Q 866 4106 1370 4382 
Q 1875 4659 2481 4659 
Q 3169 4659 3637 4309 
Q 4106 3959 4291 3325 
L 3694 3184 
Q 3534 3684 3231 3912 
Q 2928 4141 2469 4141 
Q 1941 4141 1586 3887 
Q 1231 3634 1087 3207 
Q 944 2781 944 2328 
Q 944 1744 1114 1308 
Q 1284 872 1643 656 
Q 2003 441 2422 441 
Q 2931 441 3284 734 
Q 3638 1028 3763 1606 
z
" transform="scale(0.015625)"/>
       <path id="ArialMT-c" d="M 791 -1347 
L 388 -1347 
Q 1322 153 1322 1656 
Q 1322 2244 1188 2822 
Q 1081 3291 891 3722 
Q 769 4003 388 4659 
L 791 4659 
Q 1378 3875 1659 3084 
Q 1900 2403 1900 1659 
Q 1900 816 1576 28 
Q 1253 -759 791 -1347 
z
" transform="scale(0.015625)"/>
      </defs>
      <use xlink:href="#ArialMT-37"/>
      <use xlink:href="#ArialMT-14" transform="translate(61.078125 0)"/>
      <use xlink:href="#ArialMT-3" transform="translate(116.6875 0)"/>
      <use xlink:href="#ArialMT-37" transform="translate(142.65625 0)"/>
      <use xlink:href="#ArialMT-48" transform="translate(192.65625 0)"/>
      <use xlink:href="#ArialMT-50" transform="translate(248.265625 0)"/>
      <use xlink:href="#ArialMT-53" transform="translate(331.5625 0)"/>
      <use xlink:href="#ArialMT-48" transform="translate(387.171875 0)"/>
      <use xlink:href="#ArialMT-55" transform="translate(442.78125 0)"/>
      <use xlink:href="#ArialMT-44" transform="translate(476.078125 0)"/>
      <use xlink:href="#ArialMT-57" transform="translate(531.6875 0)"/>
      <use xlink:href="#ArialMT-58" transform="translate(559.46875 0)"/>
      <use xlink:href="#ArialMT-55" transform="translate(615.078125 0)"/>
      <use xlink:href="#ArialMT-48" transform="translate(648.375 0)"/>
      <use xlink:href="#ArialMT-3" transform="translate(703.984375 0)"/>
      <use xlink:href="#ArialMT-b" transform="translate(731.765625 0)"/>
      <use xlink:href="#ArialMT-83" transform="translate(765.0625 0)"/>
      <use xlink:href="#ArialMT-26" transform="translate(805.046875 0)"/>
      <use xlink:href="#ArialMT-c" transform="translate(877.265625 0)"/>
     </g>
    </g>
   </g>
   <g id="matplotlib.axis_2">
    <g id="ytick_1">
     <g id="line2d_7">
      <defs>
       <path id="mf4b0584e02" d="M 0 0 
L 6 0 
" style="stroke: #000000; stroke-width: 0.8"/>
      </defs>
      <g>
       <use xlink:href="#mf4b0584e02" x="47.298945" y="291.295922" style="stroke: #000000; stroke-width: 0.8"/>
      </g>
     </g>
     <g id="text_8">
      <!-- 0.0 -->
      <g transform="translate(24.338945 296.392113) scale(0.14 -0.14)">
       <defs>
        <path id="ArialMT-11" d="M 581 0 
L 581 641 
L 1222 641 
L 1222 0 
L 581 0 
z
" transform="scale(0.015625)"/>
       </defs>
       <use xlink:href="#ArialMT-13"/>
       <use xlink:href="#ArialMT-11" transform="translate(55.609375 0)"/>
       <use xlink:href="#ArialMT-13" transform="translate(83.390625 0)"/>
      </g>
     </g>
    </g>
    <g id="ytick_2">
     <g id="line2d_8">
      <g>
       <use xlink:href="#mf4b0584e02" x="47.298945" y="247.731709" style="stroke: #000000; stroke-width: 0.8"/>
      </g>
     </g>
     <g id="text_9">
      <!-- 0.2 -->
      <g transform="translate(24.338945 252.8279) scale(0.14 -0.14)">
       <use xlink:href="#ArialMT-13"/>
       <use xlink:href="#ArialMT-11" transform="translate(55.609375 0)"/>
       <use xlink:href="#ArialMT-15" transform="translate(83.390625 0)"/>
      </g>
     </g>
    </g>
    <g id="ytick_3">
     <g id="line2d_9">
      <g>
       <use xlink:href="#mf4b0584e02" x="47.298945" y="204.167496" style="stroke: #000000; stroke-width: 0.8"/>
      </g>
     </g>
     <g id="text_10">
      <!-- 0.4 -->
      <g transform="translate(24.338945 209.263687) scale(0.14 -0.14)">
       <use xlink:href="#ArialMT-13"/>
       <use xlink:href="#ArialMT-11" transform="translate(55.609375 0)"/>
       <use xlink:href="#ArialMT-17" transform="translate(83.390625 0)"/>
      </g>
     </g>
    </g>
    <g id="ytick_4">
     <g id="line2d_10">
      <g>
       <use xlink:href="#mf4b0584e02" x="47.298945" y="160.603283" style="stroke: #000000; stroke-width: 0.8"/>
      </g>
     </g>
     <g id="text_11">
      <!-- 0.6 -->
      <g transform="translate(24.338945 165.699474) scale(0.14 -0.14)">
       <use xlink:href="#ArialMT-13"/>
       <use xlink:href="#ArialMT-11" transform="translate(55.609375 0)"/>
       <use xlink:href="#ArialMT-19" transform="translate(83.390625 0)"/>
      </g>
     </g>
    </g>
    <g id="ytick_5">
     <g id="line2d_11">
      <g>
       <use xlink:href="#mf4b0584e02" x="47.298945" y="117.03907" style="stroke: #000000; stroke-width: 0.8"/>
      </g>
     </g>
     <g id="text_12">
      <!-- 0.8 -->
      <g transform="translate(24.338945 122.135261) scale(0.14 -0.14)">
       <use xlink:href="#ArialMT-13"/>
       <use xlink:href="#ArialMT-11" transform="translate(55.609375 0)"/>
       <use xlink:href="#ArialMT-1b" transform="translate(83.390625 0)"/>
      </g>
     </g>
    </g>
    <g id="ytick_6">
     <g id="line2d_12">
      <g>
       <use xlink:href="#mf4b0584e02" x="47.298945" y="73.474857" style="stroke: #000000; stroke-width: 0.8"/>
      </g>
     </g>
     <g id="text_13">
      <!-- 1.0 -->
      <g transform="translate(24.338945 78.571048) scale(0.14 -0.14)">
       <use xlink:href="#ArialMT-14"/>
       <use xlink:href="#ArialMT-11" transform="translate(55.609375 0)"/>
       <use xlink:href="#ArialMT-13" transform="translate(83.390625 0)"/>
      </g>
     </g>
    </g>
    <g id="text_14">
     <!-- Ion Current (m/z 2) -->
     <g transform="translate(17.392383 230.164111) rotate(-90) scale(0.14 -0.14)">
      <defs>
       <path id="ArialMT-2c" d="M 597 0 
L 597 4581 
L 1203 4581 
L 1203 0 
L 597 0 
z
" transform="scale(0.015625)"/>
       <path id="ArialMT-52" d="M 213 1659 
Q 213 2581 725 3025 
Q 1153 3394 1769 3394 
Q 2453 3394 2887 2945 
Q 3322 2497 3322 1706 
Q 3322 1066 3130 698 
Q 2938 331 2570 128 
Q 2203 -75 1769 -75 
Q 1072 -75 642 372 
Q 213 819 213 1659 
z
M 791 1659 
Q 791 1022 1069 705 
Q 1347 388 1769 388 
Q 2188 388 2466 706 
Q 2744 1025 2744 1678 
Q 2744 2294 2464 2611 
Q 2184 2928 1769 2928 
Q 1347 2928 1069 2612 
Q 791 2297 791 1659 
z
" transform="scale(0.015625)"/>
       <path id="ArialMT-51" d="M 422 0 
L 422 3319 
L 928 3319 
L 928 2847 
Q 1294 3394 1984 3394 
Q 2284 3394 2536 3286 
Q 2788 3178 2913 3003 
Q 3038 2828 3088 2588 
Q 3119 2431 3119 2041 
L 3119 0 
L 2556 0 
L 2556 2019 
Q 2556 2363 2490 2533 
Q 2425 2703 2258 2804 
Q 2091 2906 1866 2906 
Q 1506 2906 1245 2678 
Q 984 2450 984 1813 
L 984 0 
L 422 0 
z
" transform="scale(0.015625)"/>
       <path id="ArialMT-12" d="M 0 -78 
L 1328 4659 
L 1778 4659 
L 453 -78 
L 0 -78 
z
" transform="scale(0.015625)"/>
       <path id="ArialMT-5d" d="M 125 0 
L 125 456 
L 2238 2881 
Q 1878 2863 1603 2863 
L 250 2863 
L 250 3319 
L 2963 3319 
L 2963 2947 
L 1166 841 
L 819 456 
Q 1197 484 1528 484 
L 3063 484 
L 3063 0 
L 125 0 
z
" transform="scale(0.015625)"/>
      </defs>
      <use xlink:href="#ArialMT-2c"/>
      <use xlink:href="#ArialMT-52" transform="translate(27.78125 0)"/>
      <use xlink:href="#ArialMT-51" transform="translate(83.390625 0)"/>
      <use xlink:href="#ArialMT-3" transform="translate(139 0)"/>
      <use xlink:href="#ArialMT-26" transform="translate(166.78125 0)"/>
      <use xlink:href="#ArialMT-58" transform="translate(239 0)"/>
      <use xlink:href="#ArialMT-55" transform="translate(294.609375 0)"/>
      <use xlink:href="#ArialMT-55" transform="translate(327.90625 0)"/>
      <use xlink:href="#ArialMT-48" transform="translate(361.203125 0)"/>
      <use xlink:href="#ArialMT-51" transform="translate(416.8125 0)"/>
      <use xlink:href="#ArialMT-57" transform="translate(472.421875 0)"/>
      <use xlink:href="#ArialMT-3" transform="translate(500.203125 0)"/>
      <use xlink:href="#ArialMT-b" transform="translate(527.984375 0)"/>
      <use xlink:href="#ArialMT-50" transform="translate(561.28125 0)"/>
      <use xlink:href="#ArialMT-12" transform="translate(644.578125 0)"/>
      <use xlink:href="#ArialMT-5d" transform="translate(672.359375 0)"/>
      <use xlink:href="#ArialMT-3" transform="translate(722.359375 0)"/>
      <use xlink:href="#ArialMT-15" transform="translate(750.140625 0)"/>
      <use xlink:href="#ArialMT-c" transform="translate(805.75 0)"/>
     </g>
    </g>
    <g id="text_15">
     <!-- 1e−9 -->
     <g transform="translate(47.298945 36.679004) scale(0.14 -0.14)">
      <defs>
       <path id="ArialMT-ed" d="M 3381 1997 
L 356 1997 
L 356 2522 
L 3381 2522 
L 3381 1997 
z
" transform="scale(0.015625)"/>
       <path id="ArialMT-1c" d="M 350 1059 
L 891 1109 
Q 959 728 1153 556 
Q 1347 384 1650 384 
Q 1909 384 2104 503 
Q 2300 622 2425 820 
Q 2550 1019 2634 1356 
Q 2719 1694 2719 2044 
Q 2719 2081 2716 2156 
Q 2547 1888 2255 1720 
Q 1963 1553 1622 1553 
Q 1053 1553 659 1965 
Q 266 2378 266 3053 
Q 266 3750 677 4175 
Q 1088 4600 1706 4600 
Q 2153 4600 2523 4359 
Q 2894 4119 3086 3673 
Q 3278 3228 3278 2384 
Q 3278 1506 3087 986 
Q 2897 466 2520 194 
Q 2144 -78 1638 -78 
Q 1100 -78 759 220 
Q 419 519 350 1059 
z
M 2653 3081 
Q 2653 3566 2395 3850 
Q 2138 4134 1775 4134 
Q 1400 4134 1122 3828 
Q 844 3522 844 3034 
Q 844 2597 1108 2323 
Q 1372 2050 1759 2050 
Q 2150 2050 2401 2323 
Q 2653 2597 2653 3081 
z
" transform="scale(0.015625)"/>
      </defs>
      <use xlink:href="#ArialMT-14"/>
      <use xlink:href="#ArialMT-48" transform="translate(55.609375 0)"/>
      <use xlink:href="#ArialMT-ed" transform="translate(111.21875 0)"/>
      <use xlink:href="#ArialMT-1c" transform="translate(169.625 0)"/>
     </g>
    </g>
   </g>
   <g id="line2d_13">
    <path d="M 46.286073 291.126195 
L 46.208159 291.125063 
L 46.208159 291.180766 
L 47.298945 291.180789 
L 60.349419 291.113822 
L 64.907345 291.119616 
L 79.944607 291.15665 
L 84.814187 291.174333 
L 96.968658 291.129489 
L 101.760324 291.153227 
L 107.876516 291.098397 
L 122.563168 290.998704 
L 149.326378 290.508998 
L 172.466621 289.603227 
L 189.646498 288.142997 
L 199.268787 286.871415 
L 205.384979 285.906479 
L 212.630914 284.328154 
L 215.085182 283.971784 
L 216.292838 283.867315 
L 218.747106 283.930907 
L 223.538772 284.469054 
L 228.330439 284.986741 
L 233.238975 285.223676 
L 245.393446 284.867084 
L 251.470681 284.409974 
L 253.885993 284.226268 
L 273.286398 282.787309 
L 280.610246 282.466768 
L 283.025557 282.392618 
L 306.28267 281.951646 
L 314.658347 282.28793 
L 319.566883 282.383086 
L 324.358549 282.658281 
L 328.05943 282.709985 
L 332.890053 282.703043 
L 338.928332 282.735266 
L 343.758955 282.665976 
L 353.420201 282.484379 
L 361.873791 282.161439 
L 365.613628 281.985965 
L 372.742693 281.405338 
L 375.196961 281.304891 
L 380.572977 280.420183 
L 389.143437 278.567748 
L 393.97406 277.091605 
L 396.428328 276.1544 
L 401.258951 274.373928 
L 404.881918 272.788413 
L 419.412744 266.245673 
L 421.750142 265.563168 
L 425.528936 264.894755 
L 427.983204 264.422972 
L 430.359559 264.153306 
L 435.190182 263.690869 
L 437.605494 263.33018 
L 440.176632 262.718024 
L 445.007255 261.330831 
L 446.020127 260.912566 
L 448.513352 260.166983 
L 451.006577 259.138456 
L 453.460845 257.859976 
L 456.031983 256.20612 
L 457.395465 255.283525 
L 460.12243 252.845355 
L 461.135303 251.403615 
L 462.537742 249.981845 
L 463.628527 248.408733 
L 464.914096 246.774882 
L 467.329408 243.073796 
L 468.34228 240.841688 
L 469.822633 238.5125 
L 470.757592 235.579014 
L 472.121074 232.307038 
L 474.614299 224.631436 
L 479.522835 203.122318 
L 480.613621 195.853074 
L 484.236588 167.044369 
L 487.859556 130.714587 
L 488.989298 118.449425 
L 491.482523 96.695062 
L 492.729135 88.119017 
L 494.014704 81.685835 
L 494.014704 81.685835 
" clip-path="url(#p74ebef3eb7)" style="fill: none; stroke: #000000; stroke-width: 2.5; stroke-linecap: square"/>
   </g>
   <g id="line2d_14">
    <path d="M 45.662767 291.112648 
L 45.62381 291.075345 
L 45.662767 291.106351 
L 49.051994 291.139039 
L 59.959852 291.122999 
L 79.593998 291.118464 
L 98.994403 291.066621 
L 105.071638 291.138122 
L 118.511678 290.967981 
L 122.173602 291.004022 
L 134.405986 290.816235 
L 145.391758 290.606984 
L 148.975768 290.494033 
L 156.37753 290.282944 
L 174.492366 289.317466 
L 184.387352 288.494226 
L 197.671565 286.821395 
L 206.164112 285.236444 
L 209.826036 284.769138 
L 212.280304 284.575869 
L 214.656659 284.449235 
L 218.318583 284.542009 
L 220.772851 284.699729 
L 224.356862 284.929449 
L 232.888365 284.949171 
L 237.718988 284.701197 
L 241.302999 284.490477 
L 252.327727 283.894378 
L 262.066886 283.529443 
L 272.935788 283.083897 
L 279.05198 283.065519 
L 287.544527 282.931247 
L 291.167494 283.048957 
L 297.24473 283.007317 
L 299.698998 282.92052 
L 302.192223 283.025184 
L 310.723726 283.076459 
L 325.176639 283.517281 
L 332.46153 283.367436 
L 334.915798 283.211275 
L 342.161732 282.958075 
L 355.523859 282.326613 
L 363.977449 281.629108 
L 373.599739 280.717191 
L 376.13192 280.280339 
L 378.897841 279.697538 
L 382.598722 278.641752 
L 399.739642 272.632922 
L 406.907664 269.539241 
L 409.439845 268.783474 
L 415.439167 266.834687 
L 417.854479 266.27951 
L 426.308069 264.865856 
L 428.918164 264.612492 
L 432.424261 264.33193 
L 436.047228 263.851299 
L 443.332119 262.289638 
L 444.461862 261.855566 
L 445.786388 261.488729 
L 448.084829 260.471649 
L 452.993365 257.941867 
L 454.006238 257.08342 
L 457.200682 255.119548 
L 458.486251 254.030961 
L 462.148175 250.205113 
L 463.122091 248.55266 
L 464.52453 246.805142 
L 466.822972 242.404264 
L 468.108541 239.727201 
L 469.355153 236.822996 
L 470.445939 233.702594 
L 471.731508 230.450488 
L 472.783337 226.883305 
L 474.146819 223.059935 
L 476.562131 214.467964 
L 480.418838 198.910889 
L 481.353797 193.282646 
L 484.041805 181.124111 
L 484.937808 174.484761 
L 487.508946 160.919227 
L 488.482862 154.346142 
L 489.807388 148.236094 
L 491.17087 143.118273 
L 492.495396 139.354748 
L 493.469311 137.307585 
L 494.482184 137.338854 
L 494.482184 137.338854 
" clip-path="url(#p74ebef3eb7)" style="fill: none; stroke: #1f77b4; stroke-width: 2.5; stroke-linecap: square"/>
   </g>
   <g id="line2d_15">
    <path d="M 45.2732 291.164031 
L 45.234244 291.006761 
L 45.312157 291.121655 
L 46.714596 291.117413 
L 60.622115 291.048832 
L 66.387698 291.09469 
L 82.710529 291.045334 
L 87.580108 291.030279 
L 91.280989 291.018609 
L 104.643115 291.070273 
L 118.161068 290.967059 
L 124.199347 290.912947 
L 127.978141 290.841078 
L 133.977463 290.728271 
L 137.678344 290.734539 
L 153.494738 290.127388 
L 165.649209 289.788619 
L 169.272176 289.590683 
L 171.687488 289.560981 
L 175.310455 289.341153 
L 179.050292 289.085988 
L 183.997785 288.769121 
L 202.190535 287.179728 
L 205.774546 286.74244 
L 209.436469 286.493426 
L 213.098393 286.376861 
L 215.474748 286.414655 
L 227.629219 286.639048 
L 234.91411 286.513265 
L 243.3677 286.117636 
L 245.821969 286.060738 
L 250.613635 285.627207 
L 254.275559 285.279505 
L 256.729827 285.197989 
L 266.43003 284.492452 
L 268.884298 284.391112 
L 272.507265 284.320001 
L 282.246424 284.307872 
L 284.622779 284.358407 
L 287.116004 284.494403 
L 296.77725 284.589444 
L 306.672236 284.882317 
L 316.333482 285.03722 
L 318.78775 285.188494 
L 322.410717 285.300423 
L 341.811123 284.775432 
L 353.809767 284.289435 
L 361.133615 283.923474 
L 374.495741 282.924117 
L 376.95001 282.449721 
L 379.793844 281.939611 
L 387.117692 280.143017 
L 395.610239 277.808561 
L 404.102786 275.338849 
L 407.76471 274.527247 
L 412.673246 273.550259 
L 414.971687 273.016225 
L 417.542826 272.50474 
L 434.372093 270.777008 
L 435.579749 270.575869 
L 440.449328 270.290316 
L 445.318908 269.644594 
L 448.863962 268.748814 
L 452.564842 267.559449 
L 455.058067 266.473618 
L 457.979815 265.373282 
L 462.888351 262.122564 
L 464.096007 261.112717 
L 465.225749 260.001945 
L 466.394449 258.595357 
L 467.602104 256.833427 
L 468.770803 254.804726 
L 469.978459 252.20069 
L 472.549597 245.724125 
L 473.79621 241.745423 
L 474.809082 237.388523 
L 476.094651 232.725942 
L 477.38022 227.3998 
L 478.587876 221.890696 
L 480.964231 210.121742 
L 483.379542 197.989817 
L 484.743025 192.423121 
L 485.794854 187.55249 
L 487.11938 183.854169 
L 488.327035 181.415222 
L 489.339908 179.998177 
L 490.547564 179.746623 
L 492.066873 180.717206 
L 493.274528 182.966573 
L 494.170531 186.551367 
L 494.170531 186.551367 
" clip-path="url(#p74ebef3eb7)" style="fill: none; stroke: #d62728; stroke-width: 2.5; stroke-linecap: square"/>
   </g>
   <g id="line2d_16">
    <path d="M 47.065205 290.84016 
L 46.948336 290.962399 
L 46.987292 290.91233 
L 47.727468 290.930564 
L 55.440882 290.938453 
L 73.399892 290.910138 
L 77.412426 290.90079 
L 86.021843 290.969085 
L 93.228821 290.987685 
L 98.176314 290.945314 
L 146.98898 290.520182 
L 165.18173 289.824986 
L 174.842976 289.254896 
L 179.790469 288.759406 
L 184.660048 288.244876 
L 189.490671 287.679889 
L 205.307066 285.108982 
L 208.96899 284.309748 
L 212.630914 283.630728 
L 215.085182 283.410962 
L 219.954762 283.345313 
L 223.616685 283.502151 
L 226.031997 283.681918 
L 229.693921 283.806394 
L 235.693243 283.744065 
L 239.355167 283.622183 
L 250.224069 282.940599 
L 255.093648 282.519636 
L 270.871086 280.919886 
L 283.064514 280.200324 
L 292.686803 280.289521 
L 295.180028 280.358377 
L 297.556383 280.501934 
L 301.335177 280.570024 
L 309.86668 280.931109 
L 313.450691 281.204341 
L 315.904959 281.422946 
L 332.851096 282.078263 
L 342.512342 281.846894 
L 351.043846 281.402219 
L 353.420201 281.335596 
L 357.043168 281.066264 
L 361.912748 280.815482 
L 371.535037 279.734056 
L 373.950348 279.216185 
L 379.326364 277.734258 
L 383.144115 276.375848 
L 386.767082 274.690095 
L 397.558071 269.037913 
L 400.090252 267.60097 
L 401.142081 266.851638 
L 403.596349 265.310002 
L 406.011661 263.860282 
L 409.790455 261.763174 
L 412.088896 260.608352 
L 413.413422 260.029316 
L 414.504208 259.428209 
L 418.244045 258.045499 
L 420.698313 257.376589 
L 421.789099 257.139143 
L 424.32128 256.815862 
L 425.412066 256.640586 
L 428.022161 256.390329 
L 432.735914 255.446853 
L 433.748787 255.117345 
L 435.229139 254.780878 
L 440.020805 252.877063 
L 441.111591 252.307353 
L 442.436117 251.763345 
L 448.474395 248.313055 
L 453.382932 244.457242 
L 454.434761 243.313106 
L 455.993026 242.032584 
L 457.356509 240.619489 
L 462.615655 233.765774 
L 464.797226 229.802972 
L 466.082796 227.478871 
L 468.381237 222.096209 
L 472.121074 211.032967 
L 473.32873 206.450516 
L 474.497429 201.37822 
L 475.588215 195.861554 
L 476.912741 189.799221 
L 478.120396 183.248001 
L 481.938147 159.298726 
L 484.314502 139.621947 
L 485.444244 128.40793 
L 486.41816 116.450014 
L 489.067211 91.327735 
L 491.443566 68.36803 
L 492.534352 58.987569 
L 493.742008 51.656443 
L 493.742008 51.656443 
" clip-path="url(#p74ebef3eb7)" style="fill: none; stroke: #ff7f0e; stroke-width: 2.5; stroke-linecap: square"/>
   </g>
   <g id="line2d_17">
    <path d="M 45.74068 291.084697 
L 45.74068 291.156731 
L 45.662767 291.129907 
L 45.62381 291.118263 
L 46.052333 291.186853 
L 57.154975 291.090968 
L 67.98492 291.131748 
L 76.828076 291.025755 
L 86.723062 291.092084 
L 89.216287 291.101164 
L 100.241015 290.966712 
L 111.148874 290.977141 
L 114.810798 290.940476 
L 123.303345 291.0011 
L 133.19833 290.938807 
L 136.860254 290.88882 
L 145.352801 290.568942 
L 148.975768 290.517264 
L 157.468315 290.111988 
L 161.130239 289.944776 
L 164.83112 289.772276 
L 169.700699 289.477604 
L 174.492366 289.025216 
L 180.569601 288.429381 
L 195.217297 286.239241 
L 204.878543 284.148199 
L 214.578746 282.930046 
L 218.279626 282.928243 
L 224.317905 283.137445 
L 237.680031 282.990657 
L 242.549611 282.601756 
L 257.119393 281.098614 
L 266.858553 279.929625 
L 270.36465 279.407901 
L 274.065531 278.942213 
L 275.312143 278.894679 
L 277.727455 278.667219 
L 281.389378 278.480597 
L 287.427657 278.759251 
L 291.050624 279.147926 
L 294.712548 279.526373 
L 299.582128 279.89331 
L 307.061802 280.647639 
L 316.723048 281.307547 
L 322.722371 281.686509 
L 342.083819 281.149662 
L 348.238968 280.594744 
L 351.822979 280.123957 
L 360.237612 279.350112 
L 366.314848 278.415023 
L 369.937815 277.575457 
L 373.521825 276.554256 
L 377.378533 275.218473 
L 380.105497 274.001327 
L 381.391066 273.331615 
L 382.559765 272.588046 
L 385.091947 271.298165 
L 388.714914 269.211501 
L 393.467624 265.732739 
L 402.038084 259.774783 
L 404.375482 258.242121 
L 406.907664 256.930267 
L 409.284018 255.652001 
L 414.114641 253.969703 
L 418.984221 252.886546 
L 421.360576 252.534152 
L 422.607188 252.53977 
L 426.308069 252.257842 
L 431.060779 252.408495 
L 433.515047 252.645762 
L 438.46254 252.529631 
L 439.592282 252.254488 
L 440.722025 251.848683 
L 450.500141 249.302278 
L 451.707796 248.68501 
L 456.927986 244.886924 
L 459.53808 242.435356 
L 460.628866 240.972968 
L 462.148175 239.570921 
L 463.394788 238.042241 
L 464.212877 236.384222 
L 466.706102 232.80083 
L 467.991671 230.429364 
L 469.199326 227.567914 
L 470.406982 224.290847 
L 471.653595 220.507274 
L 472.900207 215.99619 
L 475.237605 205.089055 
L 477.73083 191.793209 
L 478.821616 183.772511 
L 480.224055 174.656656 
L 483.847022 141.279975 
L 486.262334 115.467402 
L 487.431033 103.814944 
L 488.638688 93.525312 
L 489.885301 85.208667 
L 490.976087 79.478364 
L 492.222699 76.90221 
L 493.508268 78.048013 
L 494.365314 83.483581 
L 494.365314 83.483581 
" clip-path="url(#p74ebef3eb7)" style="fill: none; stroke: #9467bd; stroke-width: 2.5; stroke-linecap: square"/>
   </g>
   <g id="line2d_18">
    <path d="M 46.792509 291.034015 
L 46.714596 291.192579 
L 46.714596 291.007752 
L 46.636682 291.042679 
L 46.753552 291.077705 
L 50.298606 291.139738 
L 76.90599 291.087311 
L 80.684783 291.12265 
L 91.670555 291.187171 
L 97.708834 291.173677 
L 103.786069 291.13217 
L 106.201381 291.161891 
L 114.732884 291.045839 
L 119.563507 291.04435 
L 122.056732 290.98503 
L 124.549957 291.010535 
L 130.666149 290.949793 
L 134.36703 290.816649 
L 136.821298 290.860203 
L 144.145145 290.715237 
L 152.637692 290.458674 
L 157.507272 290.233982 
L 162.337895 290.011201 
L 165.960862 289.780171 
L 168.376174 289.561609 
L 173.206797 289.228164 
L 187.971362 287.419213 
L 190.386674 286.967851 
L 200.04792 285.61504 
L 203.709844 285.0124 
L 209.787079 284.404688 
L 214.617702 284.25604 
L 217.033014 284.290954 
L 219.487282 284.273067 
L 224.356862 284.310616 
L 237.680031 284.051073 
L 243.757267 283.595273 
L 247.341277 283.494347 
L 249.795546 283.246754 
L 261.872103 281.547719 
L 270.403607 280.003999 
L 272.818918 279.824595 
L 277.649541 279.721367 
L 281.311465 279.788363 
L 283.726777 279.840364 
L 292.14141 280.362189 
L 298.296559 281.049944 
L 300.82874 281.55321 
L 306.867019 282.175421 
L 309.321287 282.255124 
L 312.983211 282.57171 
L 315.437479 282.747822 
L 322.722371 283.421593 
L 330.046218 283.654536 
L 332.383617 283.825596 
L 336.04554 283.816027 
L 338.460852 283.674012 
L 342.122776 283.619402 
L 345.66783 283.499675 
L 351.745065 283.093614 
L 361.523181 282.040825 
L 371.184427 280.095241 
L 374.885308 279.068719 
L 380.144454 277.057939 
L 382.559765 275.910767 
L 387.468302 273.712818 
L 393.50658 270.71632 
L 400.791472 267.511162 
L 403.167826 266.537705 
L 404.492352 266.213849 
L 405.622095 265.820849 
L 410.530631 264.66317 
L 416.529953 264.114119 
L 434.644789 263.230137 
L 438.34567 262.414126 
L 444.500818 260.685252 
L 448.006916 259.346151 
L 452.915452 257.057267 
L 454.006238 256.251685 
L 455.447634 255.398612 
L 456.927986 254.311644 
L 459.460167 251.869129 
L 463.161048 246.912439 
L 464.563487 245.007195 
L 466.667145 240.616592 
L 470.329069 232.843501 
L 471.575681 229.714023 
L 472.86125 226.16019 
L 474.02995 222.18307 
L 475.198649 217.680867 
L 476.367348 212.673049 
L 477.73083 207.364388 
L 480.068228 195.586679 
L 483.613282 180.419897 
L 485.054678 176.556824 
L 486.340247 173.804651 
L 487.586859 172.244069 
L 488.521819 171.542053 
L 489.651561 171.91351 
L 491.092957 173.17382 
L 492.339569 175.268326 
L 494.482184 181.741296 
L 494.482184 181.741296 
" clip-path="url(#p74ebef3eb7)" style="fill: none; stroke: #2ca02c; stroke-width: 2.5; stroke-linecap: square"/>
   </g>
   <g id="patch_3">
    <path d="M 47.298945 303.182656 
L 47.298945 39.679004 
" style="fill: none; stroke: #000000; stroke-width: 1.5; stroke-linejoin: miter; stroke-linecap: square"/>
   </g>
   <g id="patch_4">
    <path d="M 47.298945 303.182656 
L 495.300273 303.182656 
" style="fill: none; stroke: #000000; stroke-width: 1.5; stroke-linejoin: miter; stroke-linecap: square"/>
   </g>
   <g id="text_16">
    <!-- 1421_wo_HF -->
    <g transform="translate(229.664922 18.441699) scale(0.14 -0.14)">
     <defs>
      <path id="ArialMT-42" d="M -97 -1272 
L -97 -866 
L 3631 -866 
L 3631 -1272 
L -97 -1272 
z
" transform="scale(0.015625)"/>
      <path id="ArialMT-5a" d="M 1034 0 
L 19 3319 
L 600 3319 
L 1128 1403 
L 1325 691 
Q 1338 744 1497 1375 
L 2025 3319 
L 2603 3319 
L 3100 1394 
L 3266 759 
L 3456 1400 
L 4025 3319 
L 4572 3319 
L 3534 0 
L 2950 0 
L 2422 1988 
L 2294 2553 
L 1622 0 
L 1034 0 
z
" transform="scale(0.015625)"/>
      <path id="ArialMT-2b" d="M 513 0 
L 513 4581 
L 1119 4581 
L 1119 2700 
L 3500 2700 
L 3500 4581 
L 4106 4581 
L 4106 0 
L 3500 0 
L 3500 2159 
L 1119 2159 
L 1119 0 
L 513 0 
z
" transform="scale(0.015625)"/>
      <path id="ArialMT-29" d="M 525 0 
L 525 4581 
L 3616 4581 
L 3616 4041 
L 1131 4041 
L 1131 2622 
L 3281 2622 
L 3281 2081 
L 1131 2081 
L 1131 0 
L 525 0 
z
" transform="scale(0.015625)"/>
     </defs>
     <use xlink:href="#ArialMT-14"/>
     <use xlink:href="#ArialMT-17" transform="translate(55.609375 0)"/>
     <use xlink:href="#ArialMT-15" transform="translate(111.21875 0)"/>
     <use xlink:href="#ArialMT-14" transform="translate(166.828125 0)"/>
     <use xlink:href="#ArialMT-42" transform="translate(222.4375 0)"/>
     <use xlink:href="#ArialMT-5a" transform="translate(278.046875 0)"/>
     <use xlink:href="#ArialMT-52" transform="translate(350.265625 0)"/>
     <use xlink:href="#ArialMT-42" transform="translate(405.875 0)"/>
     <use xlink:href="#ArialMT-2b" transform="translate(461.484375 0)"/>
     <use xlink:href="#ArialMT-29" transform="translate(533.703125 0)"/>
    </g>
    <!-- m/z 2 -->
    <g transform="translate(254.186797 33.679004) scale(0.14 -0.14)">
     <use xlink:href="#ArialMT-50"/>
     <use xlink:href="#ArialMT-12" transform="translate(83.296875 0)"/>
     <use xlink:href="#ArialMT-5d" transform="translate(111.078125 0)"/>
     <use xlink:href="#ArialMT-3" transform="translate(161.078125 0)"/>
     <use xlink:href="#ArialMT-15" transform="translate(188.859375 0)"/>
    </g>
   </g>
   <g id="legend_1">
    <g id="line2d_19">
     <path d="M 513.2603 52.459277 
L 523.2603 52.459277 
L 533.2603 52.459277 
" style="fill: none; stroke: #000000; stroke-width: 2.5; stroke-linecap: square"/>
    </g>
    <g id="text_17">
     <!-- 0 h -->
     <g transform="translate(541.2603 55.959277) scale(0.1 -0.1)">
      <defs>
       <path id="ArialMT-4b" d="M 422 0 
L 422 4581 
L 984 4581 
L 984 2938 
Q 1378 3394 1978 3394 
Q 2347 3394 2619 3248 
Q 2891 3103 3008 2847 
Q 3125 2591 3125 2103 
L 3125 0 
L 2563 0 
L 2563 2103 
Q 2563 2525 2380 2717 
Q 2197 2909 1863 2909 
Q 1613 2909 1392 2779 
Q 1172 2650 1078 2428 
Q 984 2206 984 1816 
L 984 0 
L 422 0 
z
" transform="scale(0.015625)"/>
      </defs>
      <use xlink:href="#ArialMT-13"/>
      <use xlink:href="#ArialMT-3" transform="translate(55.609375 0)"/>
      <use xlink:href="#ArialMT-4b" transform="translate(83.390625 0)"/>
     </g>
    </g>
    <g id="line2d_20">
     <path d="M 513.2603 66.844043 
L 523.2603 66.844043 
L 533.2603 66.844043 
" style="fill: none; stroke: #1f77b4; stroke-width: 2.5; stroke-linecap: square"/>
    </g>
    <g id="text_18">
     <!-- 6 h -->
     <g transform="translate(541.2603 70.344043) scale(0.1 -0.1)">
      <use xlink:href="#ArialMT-19"/>
      <use xlink:href="#ArialMT-3" transform="translate(55.609375 0)"/>
      <use xlink:href="#ArialMT-4b" transform="translate(83.390625 0)"/>
     </g>
    </g>
    <g id="line2d_21">
     <path d="M 513.2603 81.228809 
L 523.2603 81.228809 
L 533.2603 81.228809 
" style="fill: none; stroke: #d62728; stroke-width: 2.5; stroke-linecap: square"/>
    </g>
    <g id="text_19">
     <!-- 24 h -->
     <g transform="translate(541.2603 84.728809) scale(0.1 -0.1)">
      <use xlink:href="#ArialMT-15"/>
      <use xlink:href="#ArialMT-17" transform="translate(55.609375 0)"/>
      <use xlink:href="#ArialMT-3" transform="translate(111.21875 0)"/>
      <use xlink:href="#ArialMT-4b" transform="translate(139 0)"/>
     </g>
    </g>
    <g id="line2d_22">
     <path d="M 513.2603 95.613574 
L 523.2603 95.613574 
L 533.2603 95.613574 
" style="fill: none; stroke: #ff7f0e; stroke-width: 2.5; stroke-linecap: square"/>
    </g>
    <g id="text_20">
     <!-- 7 d -->
     <g transform="translate(541.2603 99.113574) scale(0.1 -0.1)">
      <defs>
       <path id="ArialMT-1a" d="M 303 3981 
L 303 4522 
L 3269 4522 
L 3269 4084 
Q 2831 3619 2401 2847 
Q 1972 2075 1738 1259 
Q 1569 684 1522 0 
L 944 0 
Q 953 541 1156 1306 
Q 1359 2072 1739 2783 
Q 2119 3494 2547 3981 
L 303 3981 
z
" transform="scale(0.015625)"/>
       <path id="ArialMT-47" d="M 2575 0 
L 2575 419 
Q 2259 -75 1647 -75 
Q 1250 -75 917 144 
Q 584 363 401 755 
Q 219 1147 219 1656 
Q 219 2153 384 2558 
Q 550 2963 881 3178 
Q 1213 3394 1622 3394 
Q 1922 3394 2156 3267 
Q 2391 3141 2538 2938 
L 2538 4581 
L 3097 4581 
L 3097 0 
L 2575 0 
z
M 797 1656 
Q 797 1019 1065 703 
Q 1334 388 1700 388 
Q 2069 388 2326 689 
Q 2584 991 2584 1609 
Q 2584 2291 2321 2609 
Q 2059 2928 1675 2928 
Q 1300 2928 1048 2622 
Q 797 2316 797 1656 
z
" transform="scale(0.015625)"/>
      </defs>
      <use xlink:href="#ArialMT-1a"/>
      <use xlink:href="#ArialMT-3" transform="translate(55.609375 0)"/>
      <use xlink:href="#ArialMT-47" transform="translate(83.390625 0)"/>
     </g>
    </g>
    <g id="line2d_23">
     <path d="M 513.2603 109.99834 
L 523.2603 109.99834 
L 533.2603 109.99834 
" style="fill: none; stroke: #9467bd; stroke-width: 2.5; stroke-linecap: square"/>
    </g>
    <g id="text_21">
     <!-- 14 d -->
     <g transform="translate(541.2603 113.49834) scale(0.1 -0.1)">
      <use xlink:href="#ArialMT-14"/>
      <use xlink:href="#ArialMT-17" transform="translate(55.609375 0)"/>
      <use xlink:href="#ArialMT-3" transform="translate(111.21875 0)"/>
      <use xlink:href="#ArialMT-47" transform="translate(139 0)"/>
     </g>
    </g>
    <g id="line2d_24">
     <path d="M 513.2603 124.383105 
L 523.2603 124.383105 
L 533.2603 124.383105 
" style="fill: none; stroke: #2ca02c; stroke-width: 2.5; stroke-linecap: square"/>
    </g>
    <g id="text_22">
     <!-- 28 d -->
     <g transform="translate(541.2603 127.883105) scale(0.1 -0.1)">
      <use xlink:href="#ArialMT-15"/>
      <use xlink:href="#ArialMT-1b" transform="translate(55.609375 0)"/>
      <use xlink:href="#ArialMT-3" transform="translate(111.21875 0)"/>
      <use xlink:href="#ArialMT-47" transform="translate(139 0)"/>
     </g>
    </g>
   </g>
  </g>
 </g>
 <defs>
  <clipPath id="p74ebef3eb7">
   <rect x="47.298945" y="39.679004" width="448.001328" height="263.503652"/>
  </clipPath>
 </defs>
</svg>
