<?xml version="1.0" encoding="utf-8" standalone="no"?>
<!DOCTYPE svg PUBLIC "-//W3C//DTD SVG 1.1//EN"
  "http://www.w3.org/Graphics/SVG/1.1/DTD/svg11.dtd">
<svg xmlns:xlink="http://www.w3.org/1999/xlink" width="571.99695pt" height="344.160273pt" viewBox="0 0 571.99695 344.160273" xmlns="http://www.w3.org/2000/svg" version="1.1">
 <metadata>
  <rdf:RDF xmlns:dc="http://purl.org/dc/elements/1.1/" xmlns:cc="http://creativecommons.org/ns#" xmlns:rdf="http://www.w3.org/1999/02/22-rdf-syntax-ns#">
   <cc:Work>
    <dc:type rdf:resource="http://purl.org/dc/dcmitype/StillImage"/>
    <dc:date>2026-07-10T11:48:34.725011</dc:date>
    <dc:format>image/svg+xml</dc:format>
    <dc:creator>
     <cc:Agent>
      <dc:title>Matplotlib v3.11.0, https://matplotlib.org/</dc:title>
     </cc:Agent>
    </dc:creator>
   </cc:Work>
  </rdf:RDF>
 </metadata>
 <defs>
  <style type="text/css">*{stroke-linejoin: round; stroke-linecap: butt}</style>
 </defs>
 <g id="figure_1">
  <g id="patch_1">
   <path d="M 0 344.160273 
L 571.99695 344.160273 
L 571.99695 0 
L 0 0 
z
" style="fill: #ffffff"/>
  </g>
  <g id="axes_1">
   <g id="patch_2">
    <path d="M 35.624258 303.182656 
L 495.145586 303.182656 
L 495.145586 39.679004 
L 35.624258 39.679004 
z
" style="fill: #ffffff"/>
   </g>
   <g id="matplotlib.axis_1">
    <g id="xtick_1">
     <g id="line2d_1">
      <defs>
       <path id="m2ce78728f4" d="M 0 0 
L 0 -6 
" style="stroke: #000000; stroke-width: 0.8"/>
      </defs>
      <g>
       <use xlink:href="#m2ce78728f4" x="95.561822" y="303.182656" style="stroke: #000000; stroke-width: 0.8"/>
      </g>
     </g>
     <g id="text_1">
      <!-- 200 -->
      <g transform="translate(83.883854 316.875039) scale(0.14 -0.14)">
       <defs>
        <path id="ArialMT-15" d="M 3222 541 
L 3222 0 
L 194 0 
Q 188 203 259 391 
Q 375 700 629 1000 
Q 884 1300 1366 1694 
Q 2113 2306 2375 2664 
Q 2638 3022 2638 3341 
Q 2638 3675 2398 3904 
Q 2159 4134 1775 4134 
Q 1369 4134 1125 3890 
Q 881 3647 878 3216 
L 300 3275 
Q 359 3922 746 4261 
Q 1134 4600 1788 4600 
Q 2447 4600 2831 4234 
Q 3216 3869 3216 3328 
Q 3216 3053 3103 2787 
Q 2991 2522 2730 2228 
Q 2469 1934 1863 1422 
Q 1356 997 1212 845 
Q 1069 694 975 541 
L 3222 541 
z
" transform="scale(0.015625)"/>
        <path id="ArialMT-13" d="M 266 2259 
Q 266 3072 433 3567 
Q 600 4063 929 4331 
Q 1259 4600 1759 4600 
Q 2128 4600 2406 4451 
Q 2684 4303 2865 4023 
Q 3047 3744 3150 3342 
Q 3253 2941 3253 2259 
Q 3253 1453 3087 958 
Q 2922 463 2592 192 
Q 2263 -78 1759 -78 
Q 1097 -78 719 397 
Q 266 969 266 2259 
z
M 844 2259 
Q 844 1131 1108 757 
Q 1372 384 1759 384 
Q 2147 384 2411 759 
Q 2675 1134 2675 2259 
Q 2675 3391 2411 3762 
Q 2147 4134 1753 4134 
Q 1366 4134 1134 3806 
Q 844 3388 844 2259 
z
" transform="scale(0.015625)"/>
       </defs>
       <use xlink:href="#ArialMT-15"/>
       <use xlink:href="#ArialMT-13" transform="translate(55.609375 0)"/>
       <use xlink:href="#ArialMT-13" transform="translate(111.21875 0)"/>
      </g>
     </g>
    </g>
    <g id="xtick_2">
     <g id="line2d_2">
      <g>
       <use xlink:href="#m2ce78728f4" x="175.478575" y="303.182656" style="stroke: #000000; stroke-width: 0.8"/>
      </g>
     </g>
     <g id="text_2">
      <!-- 400 -->
      <g transform="translate(163.800606 316.875039) scale(0.14 -0.14)">
       <defs>
        <path id="ArialMT-17" d="M 2069 0 
L 2069 1097 
L 81 1097 
L 81 1613 
L 2172 4581 
L 2631 4581 
L 2631 1613 
L 3250 1613 
L 3250 1097 
L 2631 1097 
L 2631 0 
L 2069 0 
z
M 2069 1613 
L 2069 3678 
L 634 1613 
L 2069 1613 
z
" transform="scale(0.015625)"/>
       </defs>
       <use xlink:href="#ArialMT-17"/>
       <use xlink:href="#ArialMT-13" transform="translate(55.609375 0)"/>
       <use xlink:href="#ArialMT-13" transform="translate(111.21875 0)"/>
      </g>
     </g>
    </g>
    <g id="xtick_3">
     <g id="line2d_3">
      <g>
       <use xlink:href="#m2ce78728f4" x="255.395328" y="303.182656" style="stroke: #000000; stroke-width: 0.8"/>
      </g>
     </g>
     <g id="text_3">
      <!-- 600 -->
      <g transform="translate(243.717359 316.875039) scale(0.14 -0.14)">
       <defs>
        <path id="ArialMT-19" d="M 3184 3459 
L 2625 3416 
Q 2550 3747 2413 3897 
Q 2184 4138 1850 4138 
Q 1581 4138 1378 3988 
Q 1113 3794 959 3422 
Q 806 3050 800 2363 
Q 1003 2672 1297 2822 
Q 1591 2972 1913 2972 
Q 2475 2972 2870 2558 
Q 3266 2144 3266 1488 
Q 3266 1056 3080 686 
Q 2894 316 2569 119 
Q 2244 -78 1831 -78 
Q 1128 -78 684 439 
Q 241 956 241 2144 
Q 241 3472 731 4075 
Q 1159 4600 1884 4600 
Q 2425 4600 2770 4297 
Q 3116 3994 3184 3459 
z
M 888 1484 
Q 888 1194 1011 928 
Q 1134 663 1356 523 
Q 1578 384 1822 384 
Q 2178 384 2434 671 
Q 2691 959 2691 1453 
Q 2691 1928 2437 2201 
Q 2184 2475 1800 2475 
Q 1419 2475 1153 2201 
Q 888 1928 888 1484 
z
" transform="scale(0.015625)"/>
       </defs>
       <use xlink:href="#ArialMT-19"/>
       <use xlink:href="#ArialMT-13" transform="translate(55.609375 0)"/>
       <use xlink:href="#ArialMT-13" transform="translate(111.21875 0)"/>
      </g>
     </g>
    </g>
    <g id="xtick_4">
     <g id="line2d_4">
      <g>
       <use xlink:href="#m2ce78728f4" x="335.312081" y="303.182656" style="stroke: #000000; stroke-width: 0.8"/>
      </g>
     </g>
     <g id="text_4">
      <!-- 800 -->
      <g transform="translate(323.634112 316.875039) scale(0.14 -0.14)">
       <defs>
        <path id="ArialMT-1b" d="M 1131 2484 
Q 781 2613 612 2850 
Q 444 3088 444 3419 
Q 444 3919 803 4259 
Q 1163 4600 1759 4600 
Q 2359 4600 2725 4251 
Q 3091 3903 3091 3403 
Q 3091 3084 2923 2848 
Q 2756 2613 2416 2484 
Q 2838 2347 3058 2040 
Q 3278 1734 3278 1309 
Q 3278 722 2862 322 
Q 2447 -78 1769 -78 
Q 1091 -78 675 323 
Q 259 725 259 1325 
Q 259 1772 486 2073 
Q 713 2375 1131 2484 
z
M 1019 3438 
Q 1019 3113 1228 2906 
Q 1438 2700 1772 2700 
Q 2097 2700 2305 2904 
Q 2513 3109 2513 3406 
Q 2513 3716 2298 3927 
Q 2084 4138 1766 4138 
Q 1444 4138 1231 3931 
Q 1019 3725 1019 3438 
z
M 838 1322 
Q 838 1081 952 856 
Q 1066 631 1291 507 
Q 1516 384 1775 384 
Q 2178 384 2440 643 
Q 2703 903 2703 1303 
Q 2703 1709 2433 1975 
Q 2163 2241 1756 2241 
Q 1359 2241 1098 1978 
Q 838 1716 838 1322 
z
" transform="scale(0.015625)"/>
       </defs>
       <use xlink:href="#ArialMT-1b"/>
       <use xlink:href="#ArialMT-13" transform="translate(55.609375 0)"/>
       <use xlink:href="#ArialMT-13" transform="translate(111.21875 0)"/>
      </g>
     </g>
    </g>
    <g id="xtick_5">
     <g id="line2d_5">
      <g>
       <use xlink:href="#m2ce78728f4" x="415.228833" y="303.182656" style="stroke: #000000; stroke-width: 0.8"/>
      </g>
     </g>
     <g id="text_5">
      <!-- 1000 -->
      <g transform="translate(399.658208 316.875039) scale(0.14 -0.14)">
       <defs>
        <path id="ArialMT-14" d="M 2384 0 
L 1822 0 
L 1822 3584 
Q 1619 3391 1289 3197 
Q 959 3003 697 2906 
L 697 3450 
Q 1169 3672 1522 3987 
Q 1875 4303 2022 4600 
L 2384 4600 
L 2384 0 
z
" transform="scale(0.015625)"/>
       </defs>
       <use xlink:href="#ArialMT-14"/>
       <use xlink:href="#ArialMT-13" transform="translate(55.609375 0)"/>
       <use xlink:href="#ArialMT-13" transform="translate(111.21875 0)"/>
       <use xlink:href="#ArialMT-13" transform="translate(166.828125 0)"/>
      </g>
     </g>
    </g>
    <g id="xtick_6">
     <g id="line2d_6">
      <g>
       <use xlink:href="#m2ce78728f4" x="495.145586" y="303.182656" style="stroke: #000000; stroke-width: 0.8"/>
      </g>
     </g>
     <g id="text_6">
      <!-- 1200 -->
      <g transform="translate(479.574961 316.875039) scale(0.14 -0.14)">
       <use xlink:href="#ArialMT-14"/>
       <use xlink:href="#ArialMT-15" transform="translate(55.609375 0)"/>
       <use xlink:href="#ArialMT-13" transform="translate(111.21875 0)"/>
       <use xlink:href="#ArialMT-13" transform="translate(166.828125 0)"/>
      </g>
     </g>
    </g>
    <g id="text_7">
     <!-- T1 Temperature (°C) -->
     <g transform="translate(201.645547 334.013711) scale(0.14 -0.14)">
      <defs>
       <path id="ArialMT-37" d="M 1659 0 
L 1659 4041 
L 150 4041 
L 150 4581 
L 3781 4581 
L 3781 4041 
L 2266 4041 
L 2266 0 
L 1659 0 
z
" transform="scale(0.015625)"/>
       <path id="ArialMT-3" transform="scale(0.015625)"/>
       <path id="ArialMT-48" d="M 2694 1069 
L 3275 997 
Q 3138 488 2766 206 
Q 2394 -75 1816 -75 
Q 1088 -75 661 373 
Q 234 822 234 1631 
Q 234 2469 665 2931 
Q 1097 3394 1784 3394 
Q 2450 3394 2872 2941 
Q 3294 2488 3294 1666 
Q 3294 1616 3291 1516 
L 816 1516 
Q 847 969 1125 678 
Q 1403 388 1819 388 
Q 2128 388 2347 550 
Q 2566 713 2694 1069 
z
M 847 1978 
L 2700 1978 
Q 2663 2397 2488 2606 
Q 2219 2931 1791 2931 
Q 1403 2931 1139 2672 
Q 875 2413 847 1978 
z
" transform="scale(0.015625)"/>
       <path id="ArialMT-50" d="M 422 0 
L 422 3319 
L 925 3319 
L 925 2853 
Q 1081 3097 1340 3245 
Q 1600 3394 1931 3394 
Q 2300 3394 2536 3241 
Q 2772 3088 2869 2813 
Q 3263 3394 3894 3394 
Q 4388 3394 4653 3120 
Q 4919 2847 4919 2278 
L 4919 0 
L 4359 0 
L 4359 2091 
Q 4359 2428 4304 2576 
Q 4250 2725 4106 2815 
Q 3963 2906 3769 2906 
Q 3419 2906 3187 2673 
Q 2956 2441 2956 1928 
L 2956 0 
L 2394 0 
L 2394 2156 
Q 2394 2531 2256 2718 
Q 2119 2906 1806 2906 
Q 1569 2906 1367 2781 
Q 1166 2656 1075 2415 
Q 984 2175 984 1722 
L 984 0 
L 422 0 
z
" transform="scale(0.015625)"/>
       <path id="ArialMT-53" d="M 422 -1272 
L 422 3319 
L 934 3319 
L 934 2888 
Q 1116 3141 1344 3267 
Q 1572 3394 1897 3394 
Q 2322 3394 2647 3175 
Q 2972 2956 3137 2557 
Q 3303 2159 3303 1684 
Q 3303 1175 3120 767 
Q 2938 359 2589 142 
Q 2241 -75 1856 -75 
Q 1575 -75 1351 44 
Q 1128 163 984 344 
L 984 -1272 
L 422 -1272 
z
M 931 1641 
Q 931 1000 1190 694 
Q 1450 388 1819 388 
Q 2194 388 2461 705 
Q 2728 1022 2728 1688 
Q 2728 2322 2467 2637 
Q 2206 2953 1844 2953 
Q 1484 2953 1207 2617 
Q 931 2281 931 1641 
z
" transform="scale(0.015625)"/>
       <path id="ArialMT-55" d="M 416 0 
L 416 3319 
L 922 3319 
L 922 2816 
Q 1116 3169 1280 3281 
Q 1444 3394 1641 3394 
Q 1925 3394 2219 3213 
L 2025 2691 
Q 1819 2813 1613 2813 
Q 1428 2813 1281 2702 
Q 1134 2591 1072 2394 
Q 978 2094 978 1738 
L 978 0 
L 416 0 
z
" transform="scale(0.015625)"/>
       <path id="ArialMT-44" d="M 2588 409 
Q 2275 144 1986 34 
Q 1697 -75 1366 -75 
Q 819 -75 525 192 
Q 231 459 231 875 
Q 231 1119 342 1320 
Q 453 1522 633 1644 
Q 813 1766 1038 1828 
Q 1203 1872 1538 1913 
Q 2219 1994 2541 2106 
Q 2544 2222 2544 2253 
Q 2544 2597 2384 2738 
Q 2169 2928 1744 2928 
Q 1347 2928 1158 2789 
Q 969 2650 878 2297 
L 328 2372 
Q 403 2725 575 2942 
Q 747 3159 1072 3276 
Q 1397 3394 1825 3394 
Q 2250 3394 2515 3294 
Q 2781 3194 2906 3042 
Q 3031 2891 3081 2659 
Q 3109 2516 3109 2141 
L 3109 1391 
Q 3109 606 3145 398 
Q 3181 191 3288 0 
L 2700 0 
Q 2613 175 2588 409 
z
M 2541 1666 
Q 2234 1541 1622 1453 
Q 1275 1403 1131 1340 
Q 988 1278 909 1158 
Q 831 1038 831 891 
Q 831 666 1001 516 
Q 1172 366 1500 366 
Q 1825 366 2078 508 
Q 2331 650 2450 897 
Q 2541 1088 2541 1459 
L 2541 1666 
z
" transform="scale(0.015625)"/>
       <path id="ArialMT-57" d="M 1650 503 
L 1731 6 
Q 1494 -44 1306 -44 
Q 1000 -44 831 53 
Q 663 150 594 308 
Q 525 466 525 972 
L 525 2881 
L 113 2881 
L 113 3319 
L 525 3319 
L 525 4141 
L 1084 4478 
L 1084 3319 
L 1650 3319 
L 1650 2881 
L 1084 2881 
L 1084 941 
Q 1084 700 1114 631 
Q 1144 563 1211 522 
Q 1278 481 1403 481 
Q 1497 481 1650 503 
z
" transform="scale(0.015625)"/>
       <path id="ArialMT-58" d="M 2597 0 
L 2597 488 
Q 2209 -75 1544 -75 
Q 1250 -75 995 37 
Q 741 150 617 320 
Q 494 491 444 738 
Q 409 903 409 1263 
L 409 3319 
L 972 3319 
L 972 1478 
Q 972 1038 1006 884 
Q 1059 663 1231 536 
Q 1403 409 1656 409 
Q 1909 409 2131 539 
Q 2353 669 2445 892 
Q 2538 1116 2538 1541 
L 2538 3319 
L 3100 3319 
L 3100 0 
L 2597 0 
z
" transform="scale(0.015625)"/>
       <path id="ArialMT-b" d="M 1497 -1347 
Q 1031 -759 709 28 
Q 388 816 388 1659 
Q 388 2403 628 3084 
Q 909 3875 1497 4659 
L 1900 4659 
Q 1522 4009 1400 3731 
Q 1209 3300 1100 2831 
Q 966 2247 966 1656 
Q 966 153 1900 -1347 
L 1497 -1347 
z
" transform="scale(0.015625)"/>
       <path id="ArialMT-83" d="M 400 3794 
Q 400 4153 654 4406 
Q 909 4659 1266 4659 
Q 1628 4659 1881 4406 
Q 2134 4153 2134 3794 
Q 2134 3434 1879 3179 
Q 1625 2925 1266 2925 
Q 909 2925 654 3178 
Q 400 3431 400 3794 
z
M 741 3794 
Q 741 3575 895 3420 
Q 1050 3266 1269 3266 
Q 1484 3266 1639 3420 
Q 1794 3575 1794 3794 
Q 1794 4013 1639 4167 
Q 1484 4322 1269 4322 
Q 1050 4322 895 4167 
Q 741 4013 741 3794 
z
" transform="scale(0.015625)"/>
       <path id="ArialMT-26" d="M 3763 1606 
L 4369 1453 
Q 4178 706 3683 314 
Q 3188 -78 2472 -78 
Q 1731 -78 1267 223 
Q 803 525 561 1097 
Q 319 1669 319 2325 
Q 319 3041 592 3573 
Q 866 4106 1370 4382 
Q 1875 4659 2481 4659 
Q 3169 4659 3637 4309 
Q 4106 3959 4291 3325 
L 3694 3184 
Q 3534 3684 3231 3912 
Q 2928 4141 2469 4141 
Q 1941 4141 1586 3887 
Q 1231 3634 1087 3207 
Q 944 2781 944 2328 
Q 944 1744 1114 1308 
Q 1284 872 1643 656 
Q 2003 441 2422 441 
Q 2931 441 3284 734 
Q 3638 1028 3763 1606 
z
" transform="scale(0.015625)"/>
       <path id="ArialMT-c" d="M 791 -1347 
L 388 -1347 
Q 1322 153 1322 1656 
Q 1322 2244 1188 2822 
Q 1081 3291 891 3722 
Q 769 4003 388 4659 
L 791 4659 
Q 1378 3875 1659 3084 
Q 1900 2403 1900 1659 
Q 1900 816 1576 28 
Q 1253 -759 791 -1347 
z
" transform="scale(0.015625)"/>
      </defs>
      <use xlink:href="#ArialMT-37"/>
      <use xlink:href="#ArialMT-14" transform="translate(61.078125 0)"/>
      <use xlink:href="#ArialMT-3" transform="translate(116.6875 0)"/>
      <use xlink:href="#ArialMT-37" transform="translate(142.65625 0)"/>
      <use xlink:href="#ArialMT-48" transform="translate(192.65625 0)"/>
      <use xlink:href="#ArialMT-50" transform="translate(248.265625 0)"/>
      <use xlink:href="#ArialMT-53" transform="translate(331.5625 0)"/>
      <use xlink:href="#ArialMT-48" transform="translate(387.171875 0)"/>
      <use xlink:href="#ArialMT-55" transform="translate(442.78125 0)"/>
      <use xlink:href="#ArialMT-44" transform="translate(476.078125 0)"/>
      <use xlink:href="#ArialMT-57" transform="translate(531.6875 0)"/>
      <use xlink:href="#ArialMT-58" transform="translate(559.46875 0)"/>
      <use xlink:href="#ArialMT-55" transform="translate(615.078125 0)"/>
      <use xlink:href="#ArialMT-48" transform="translate(648.375 0)"/>
      <use xlink:href="#ArialMT-3" transform="translate(703.984375 0)"/>
      <use xlink:href="#ArialMT-b" transform="translate(731.765625 0)"/>
      <use xlink:href="#ArialMT-83" transform="translate(765.0625 0)"/>
      <use xlink:href="#ArialMT-26" transform="translate(805.046875 0)"/>
      <use xlink:href="#ArialMT-c" transform="translate(877.265625 0)"/>
     </g>
    </g>
   </g>
   <g id="matplotlib.axis_2">
    <g id="ytick_1">
     <g id="line2d_7">
      <defs>
       <path id="m93975ce003" d="M 0 0 
L 6 0 
" style="stroke: #000000; stroke-width: 0.8"/>
      </defs>
      <g>
       <use xlink:href="#m93975ce003" x="35.624258" y="290.063936" style="stroke: #000000; stroke-width: 0.8"/>
      </g>
     </g>
     <g id="text_8">
      <!-- 0 -->
      <g transform="translate(24.338945 295.160128) scale(0.14 -0.14)">
       <use xlink:href="#ArialMT-13"/>
      </g>
     </g>
    </g>
    <g id="ytick_2">
     <g id="line2d_8">
      <g>
       <use xlink:href="#m93975ce003" x="35.624258" y="259.8988" style="stroke: #000000; stroke-width: 0.8"/>
      </g>
     </g>
     <g id="text_9">
      <!-- 1 -->
      <g transform="translate(24.338945 264.994992) scale(0.14 -0.14)">
       <use xlink:href="#ArialMT-14"/>
      </g>
     </g>
    </g>
    <g id="ytick_3">
     <g id="line2d_9">
      <g>
       <use xlink:href="#m93975ce003" x="35.624258" y="229.733665" style="stroke: #000000; stroke-width: 0.8"/>
      </g>
     </g>
     <g id="text_10">
      <!-- 2 -->
      <g transform="translate(24.338945 234.829856) scale(0.14 -0.14)">
       <use xlink:href="#ArialMT-15"/>
      </g>
     </g>
    </g>
    <g id="ytick_4">
     <g id="line2d_10">
      <g>
       <use xlink:href="#m93975ce003" x="35.624258" y="199.568529" style="stroke: #000000; stroke-width: 0.8"/>
      </g>
     </g>
     <g id="text_11">
      <!-- 3 -->
      <g transform="translate(24.338945 204.66472) scale(0.14 -0.14)">
       <defs>
        <path id="ArialMT-16" d="M 269 1209 
L 831 1284 
Q 928 806 1161 595 
Q 1394 384 1728 384 
Q 2125 384 2398 659 
Q 2672 934 2672 1341 
Q 2672 1728 2419 1979 
Q 2166 2231 1775 2231 
Q 1616 2231 1378 2169 
L 1441 2663 
Q 1497 2656 1531 2656 
Q 1891 2656 2178 2843 
Q 2466 3031 2466 3422 
Q 2466 3731 2256 3934 
Q 2047 4138 1716 4138 
Q 1388 4138 1169 3931 
Q 950 3725 888 3313 
L 325 3413 
Q 428 3978 793 4289 
Q 1159 4600 1703 4600 
Q 2078 4600 2393 4439 
Q 2709 4278 2876 4000 
Q 3044 3722 3044 3409 
Q 3044 3113 2884 2869 
Q 2725 2625 2413 2481 
Q 2819 2388 3044 2092 
Q 3269 1797 3269 1353 
Q 3269 753 2831 336 
Q 2394 -81 1725 -81 
Q 1122 -81 723 278 
Q 325 638 269 1209 
z
" transform="scale(0.015625)"/>
       </defs>
       <use xlink:href="#ArialMT-16"/>
      </g>
     </g>
    </g>
    <g id="ytick_5">
     <g id="line2d_11">
      <g>
       <use xlink:href="#m93975ce003" x="35.624258" y="169.403393" style="stroke: #000000; stroke-width: 0.8"/>
      </g>
     </g>
     <g id="text_12">
      <!-- 4 -->
      <g transform="translate(24.338945 174.499584) scale(0.14 -0.14)">
       <use xlink:href="#ArialMT-17"/>
      </g>
     </g>
    </g>
    <g id="ytick_6">
     <g id="line2d_12">
      <g>
       <use xlink:href="#m93975ce003" x="35.624258" y="139.238257" style="stroke: #000000; stroke-width: 0.8"/>
      </g>
     </g>
     <g id="text_13">
      <!-- 5 -->
      <g transform="translate(24.338945 144.334449) scale(0.14 -0.14)">
       <defs>
        <path id="ArialMT-18" d="M 266 1200 
L 856 1250 
Q 922 819 1161 601 
Q 1400 384 1738 384 
Q 2144 384 2425 690 
Q 2706 997 2706 1503 
Q 2706 1984 2436 2262 
Q 2166 2541 1728 2541 
Q 1456 2541 1237 2417 
Q 1019 2294 894 2097 
L 366 2166 
L 809 4519 
L 3088 4519 
L 3088 3981 
L 1259 3981 
L 1013 2750 
Q 1425 3038 1878 3038 
Q 2478 3038 2890 2622 
Q 3303 2206 3303 1553 
Q 3303 931 2941 478 
Q 2500 -78 1738 -78 
Q 1113 -78 717 272 
Q 322 622 266 1200 
z
" transform="scale(0.015625)"/>
       </defs>
       <use xlink:href="#ArialMT-18"/>
      </g>
     </g>
    </g>
    <g id="ytick_7">
     <g id="line2d_13">
      <g>
       <use xlink:href="#m93975ce003" x="35.624258" y="109.073121" style="stroke: #000000; stroke-width: 0.8"/>
      </g>
     </g>
     <g id="text_14">
      <!-- 6 -->
      <g transform="translate(24.338945 114.169313) scale(0.14 -0.14)">
       <use xlink:href="#ArialMT-19"/>
      </g>
     </g>
    </g>
    <g id="ytick_8">
     <g id="line2d_14">
      <g>
       <use xlink:href="#m93975ce003" x="35.624258" y="78.907986" style="stroke: #000000; stroke-width: 0.8"/>
      </g>
     </g>
     <g id="text_15">
      <!-- 7 -->
      <g transform="translate(24.338945 84.004177) scale(0.14 -0.14)">
       <defs>
        <path id="ArialMT-1a" d="M 303 3981 
L 303 4522 
L 3269 4522 
L 3269 4084 
Q 2831 3619 2401 2847 
Q 1972 2075 1738 1259 
Q 1569 684 1522 0 
L 944 0 
Q 953 541 1156 1306 
Q 1359 2072 1739 2783 
Q 2119 3494 2547 3981 
L 303 3981 
z
" transform="scale(0.015625)"/>
       </defs>
       <use xlink:href="#ArialMT-1a"/>
      </g>
     </g>
    </g>
    <g id="ytick_9">
     <g id="line2d_15">
      <g>
       <use xlink:href="#m93975ce003" x="35.624258" y="48.74285" style="stroke: #000000; stroke-width: 0.8"/>
      </g>
     </g>
     <g id="text_16">
      <!-- 8 -->
      <g transform="translate(24.338945 53.839041) scale(0.14 -0.14)">
       <use xlink:href="#ArialMT-1b"/>
      </g>
     </g>
    </g>
    <g id="text_17">
     <!-- Ion Current (m/z 32) -->
     <g transform="translate(17.392383 234.056768) rotate(-90) scale(0.14 -0.14)">
      <defs>
       <path id="ArialMT-2c" d="M 597 0 
L 597 4581 
L 1203 4581 
L 1203 0 
L 597 0 
z
" transform="scale(0.015625)"/>
       <path id="ArialMT-52" d="M 213 1659 
Q 213 2581 725 3025 
Q 1153 3394 1769 3394 
Q 2453 3394 2887 2945 
Q 3322 2497 3322 1706 
Q 3322 1066 3130 698 
Q 2938 331 2570 128 
Q 2203 -75 1769 -75 
Q 1072 -75 642 372 
Q 213 819 213 1659 
z
M 791 1659 
Q 791 1022 1069 705 
Q 1347 388 1769 388 
Q 2188 388 2466 706 
Q 2744 1025 2744 1678 
Q 2744 2294 2464 2611 
Q 2184 2928 1769 2928 
Q 1347 2928 1069 2612 
Q 791 2297 791 1659 
z
" transform="scale(0.015625)"/>
       <path id="ArialMT-51" d="M 422 0 
L 422 3319 
L 928 3319 
L 928 2847 
Q 1294 3394 1984 3394 
Q 2284 3394 2536 3286 
Q 2788 3178 2913 3003 
Q 3038 2828 3088 2588 
Q 3119 2431 3119 2041 
L 3119 0 
L 2556 0 
L 2556 2019 
Q 2556 2363 2490 2533 
Q 2425 2703 2258 2804 
Q 2091 2906 1866 2906 
Q 1506 2906 1245 2678 
Q 984 2450 984 1813 
L 984 0 
L 422 0 
z
" transform="scale(0.015625)"/>
       <path id="ArialMT-12" d="M 0 -78 
L 1328 4659 
L 1778 4659 
L 453 -78 
L 0 -78 
z
" transform="scale(0.015625)"/>
       <path id="ArialMT-5d" d="M 125 0 
L 125 456 
L 2238 2881 
Q 1878 2863 1603 2863 
L 250 2863 
L 250 3319 
L 2963 3319 
L 2963 2947 
L 1166 841 
L 819 456 
Q 1197 484 1528 484 
L 3063 484 
L 3063 0 
L 125 0 
z
" transform="scale(0.015625)"/>
      </defs>
      <use xlink:href="#ArialMT-2c"/>
      <use xlink:href="#ArialMT-52" transform="translate(27.78125 0)"/>
      <use xlink:href="#ArialMT-51" transform="translate(83.390625 0)"/>
      <use xlink:href="#ArialMT-3" transform="translate(139 0)"/>
      <use xlink:href="#ArialMT-26" transform="translate(166.78125 0)"/>
      <use xlink:href="#ArialMT-58" transform="translate(239 0)"/>
      <use xlink:href="#ArialMT-55" transform="translate(294.609375 0)"/>
      <use xlink:href="#ArialMT-55" transform="translate(327.90625 0)"/>
      <use xlink:href="#ArialMT-48" transform="translate(361.203125 0)"/>
      <use xlink:href="#ArialMT-51" transform="translate(416.8125 0)"/>
      <use xlink:href="#ArialMT-57" transform="translate(472.421875 0)"/>
      <use xlink:href="#ArialMT-3" transform="translate(500.203125 0)"/>
      <use xlink:href="#ArialMT-b" transform="translate(527.984375 0)"/>
      <use xlink:href="#ArialMT-50" transform="translate(561.28125 0)"/>
      <use xlink:href="#ArialMT-12" transform="translate(644.578125 0)"/>
      <use xlink:href="#ArialMT-5d" transform="translate(672.359375 0)"/>
      <use xlink:href="#ArialMT-3" transform="translate(722.359375 0)"/>
      <use xlink:href="#ArialMT-16" transform="translate(750.140625 0)"/>
      <use xlink:href="#ArialMT-15" transform="translate(805.75 0)"/>
      <use xlink:href="#ArialMT-c" transform="translate(861.359375 0)"/>
     </g>
    </g>
    <g id="text_18">
     <!-- 1e−13 -->
     <g transform="translate(35.624258 36.679004) scale(0.14 -0.14)">
      <defs>
       <path id="ArialMT-ed" d="M 3381 1997 
L 356 1997 
L 356 2522 
L 3381 2522 
L 3381 1997 
z
" transform="scale(0.015625)"/>
      </defs>
      <use xlink:href="#ArialMT-14"/>
      <use xlink:href="#ArialMT-48" transform="translate(55.609375 0)"/>
      <use xlink:href="#ArialMT-ed" transform="translate(111.21875 0)"/>
      <use xlink:href="#ArialMT-14" transform="translate(169.625 0)"/>
      <use xlink:href="#ArialMT-16" transform="translate(225.234375 0)"/>
     </g>
    </g>
   </g>
   <g id="line2d_16">
    <path d="M 34.58534 284.102927 
L 34.505423 289.268522 
L 34.505423 287.769931 
L 34.785132 288.349667 
L 35.624258 289.11169 
L 37.222593 289.877395 
L 39.540179 291.205218 
L 41.97764 290.279013 
L 44.215309 289.889983 
L 47.651729 288.644001 
L 49.010314 288.585377 
L 50.209065 287.996337 
L 51.367858 288.407226 
L 52.486693 288.239693 
L 53.685444 287.62271 
L 54.844237 287.906895 
L 56.042988 286.917003 
L 57.321656 286.899049 
L 59.839034 287.233858 
L 61.117702 287.732014 
L 63.794913 288.14344 
L 65.193456 287.548829 
L 66.512083 286.810512 
L 67.830709 286.906501 
L 69.109377 287.266479 
L 70.388045 287.451156 
L 71.626755 288.10267 
L 72.865465 287.745881 
L 74.104174 288.262109 
L 76.621552 288.094412 
L 77.90022 287.913696 
L 79.13893 286.623521 
L 80.377639 286.969674 
L 81.616349 286.400102 
L 82.855059 285.996805 
L 84.133727 286.318508 
L 85.372436 285.799656 
L 87.769939 286.881288 
L 88.96869 287.77189 
L 90.247358 287.628453 
L 91.486068 287.899046 
L 92.764736 288.322219 
L 95.322072 287.033133 
L 96.520823 287.196993 
L 97.759533 286.79028 
L 98.998243 286.557939 
L 100.276911 287.212859 
L 101.51562 287.672402 
L 102.794288 287.340237 
L 104.112915 288.418218 
L 105.391583 288.587348 
L 106.630293 288.408515 
L 107.869002 287.486438 
L 109.107712 287.61707 
L 110.346422 287.257777 
L 111.585131 287.172181 
L 112.823841 287.647964 
L 114.022592 287.458827 
L 115.30126 286.648938 
L 116.579928 287.570676 
L 117.898555 286.505208 
L 119.177223 286.407246 
L 120.415932 285.650569 
L 121.574725 285.566628 
L 122.853393 285.255544 
L 124.052145 285.158828 
L 125.290854 284.930534 
L 126.529564 284.412799 
L 127.768274 283.556138 
L 129.0869 283.843356 
L 130.365568 283.210385 
L 131.564319 283.940869 
L 132.842987 284.397785 
L 134.081697 285.116225 
L 135.320407 284.998615 
L 137.837785 286.231547 
L 139.036536 286.021098 
L 141.513955 284.249363 
L 144.071291 284.034343 
L 146.588669 281.295496 
L 147.867337 280.399973 
L 149.106047 280.50659 
L 150.384715 279.138056 
L 152.782217 276.052576 
L 154.020927 274.838814 
L 155.299595 274.420773 
L 156.538305 272.698134 
L 157.777014 267.472992 
L 159.055682 261.538635 
L 160.294392 254.424 
L 161.493143 246.653202 
L 164.010521 226.179475 
L 165.249231 217.827944 
L 166.527899 213.699067 
L 167.72665 213.548541 
L 168.96536 213.880706 
L 170.244028 215.875915 
L 171.522696 220.222925 
L 172.681489 222.576546 
L 174.000115 223.92506 
L 175.318742 222.742748 
L 176.59741 223.088196 
L 177.796161 223.90695 
L 179.154746 223.803698 
L 180.393455 224.367687 
L 182.830916 219.900481 
L 184.029668 217.302938 
L 186.467129 206.738397 
L 187.745797 203.12404 
L 189.024465 201.288558 
L 190.263174 195.474062 
L 191.501884 186.975009 
L 192.780552 180.477541 
L 193.979303 171.412343 
L 195.257971 159.879479 
L 196.496681 149.874227 
L 198.9741 135.109682 
L 201.491478 120.216087 
L 204.048814 88.949479 
L 205.207607 75.586444 
L 206.446317 59.939334 
L 207.724985 51.656443 
L 208.963694 51.963557 
L 210.202404 62.738405 
L 211.481072 75.956627 
L 213.918533 110.911193 
L 215.197201 118.528488 
L 216.395952 129.288369 
L 217.634662 138.391711 
L 218.873372 142.253021 
L 221.310833 164.799087 
L 222.629459 178.840946 
L 223.82821 181.882229 
L 225.106879 187.624401 
L 226.345588 189.668347 
L 227.584298 188.993608 
L 228.862966 185.395018 
L 230.061717 180.6933 
L 231.340385 177.453859 
L 232.579095 182.690372 
L 233.857763 190.353444 
L 235.056514 201.269345 
L 236.295224 206.79036 
L 237.533934 218.357291 
L 238.812602 232.229152 
L 240.051311 240.121995 
L 241.250063 241.716137 
L 242.528731 240.836896 
L 243.76744 239.635906 
L 245.046108 240.140647 
L 246.324776 243.691546 
L 247.523528 245.636207 
L 250.080864 245.976692 
L 251.319573 248.900394 
L 252.558283 248.844582 
L 253.796993 251.440066 
L 255.075661 252.467849 
L 256.274412 250.639244 
L 257.513122 250.039699 
L 258.711873 252.13974 
L 259.950583 252.089001 
L 261.269209 251.000093 
L 262.46796 248.87134 
L 263.746628 248.568183 
L 264.985338 249.434184 
L 266.224048 251.181614 
L 267.422799 253.440332 
L 268.701467 253.966999 
L 269.940177 251.955848 
L 271.178886 252.063859 
L 272.417596 250.953724 
L 273.696264 241.802326 
L 274.934974 230.425499 
L 276.173683 222.622845 
L 277.412393 215.853286 
L 278.691061 213.46807 
L 279.889812 212.869031 
L 281.128522 215.65445 
L 282.40719 221.28128 
L 284.844651 238.894406 
L 287.362029 244.652738 
L 288.640697 250.608212 
L 291.078158 255.969788 
L 292.276909 255.663434 
L 293.515619 257.496589 
L 294.874204 259.032855 
L 296.152872 258.920067 
L 297.471498 258.309323 
L 298.710208 256.518659 
L 299.988876 254.19768 
L 301.267544 253.427052 
L 302.546212 250.287901 
L 303.744963 251.221653 
L 304.983673 251.501875 
L 306.222383 252.151478 
L 307.421134 253.393296 
L 309.858595 256.438985 
L 311.177221 257.621894 
L 312.415931 257.950483 
L 313.654641 260.104205 
L 314.89335 260.416615 
L 316.172018 264.560279 
L 317.37077 264.083673 
L 318.569521 263.308882 
L 319.80823 262.322718 
L 321.086899 260.873226 
L 322.325608 257.523651 
L 323.604276 256.319452 
L 324.803028 256.300241 
L 326.081696 258.424612 
L 327.280447 258.794807 
L 328.559115 261.271144 
L 329.797825 262.850553 
L 330.996576 263.662877 
L 332.235286 263.130966 
L 333.513954 262.252497 
L 334.752663 259.253005 
L 335.991373 259.414096 
L 337.190124 260.405957 
L 338.508751 261.256818 
L 339.707502 261.872324 
L 340.946212 262.207514 
L 342.22488 262.834113 
L 343.463589 259.193176 
L 344.702299 258.509836 
L 345.980967 257.567639 
L 347.179718 255.932234 
L 348.418428 258.785139 
L 349.617179 260.24406 
L 350.935806 260.712507 
L 352.174515 262.550989 
L 353.413225 263.396236 
L 354.651935 265.250442 
L 355.850686 261.715438 
L 357.129354 263.455066 
L 358.288147 263.668335 
L 359.606773 264.833654 
L 360.845483 266.167108 
L 362.124151 264.341009 
L 363.282944 263.574352 
L 364.521654 263.252555 
L 365.800322 264.869446 
L 367.07899 265.015336 
L 368.237783 261.845121 
L 369.436534 261.17834 
L 370.795119 262.125802 
L 371.953912 262.554315 
L 373.23258 260.109749 
L 374.71104 261.590831 
L 377.468168 261.618546 
L 378.746836 264.580034 
L 379.945587 264.401793 
L 381.264213 265.350109 
L 382.542881 266.752833 
L 383.661716 268.221676 
L 385.020301 268.544172 
L 386.25901 267.197139 
L 387.49772 268.038135 
L 388.73643 265.950939 
L 389.935181 264.559201 
L 391.213849 264.936852 
L 392.4126 265.607907 
L 393.731227 266.182664 
L 396.208646 268.580194 
L 398.686065 271.360953 
L 399.964733 271.856954 
L 401.203443 271.89925 
L 402.402194 269.673268 
L 403.600946 269.02914 
L 404.999489 269.9708 
L 406.118323 269.642337 
L 407.396991 270.830487 
L 408.595743 272.491574 
L 409.794494 272.362497 
L 411.11312 274.648743 
L 412.35183 272.208323 
L 413.59054 272.384119 
L 414.829249 270.254795 
L 417.306669 270.065661 
L 418.585337 270.689585 
L 419.704171 272.020961 
L 421.302506 272.949602 
L 422.421341 274.269375 
L 423.580134 275.026139 
L 424.858802 274.26298 
L 426.097512 277.201356 
L 428.534973 279.339151 
L 429.773682 279.709596 
L 430.932475 280.232014 
L 432.29106 279.385038 
L 434.728521 276.862224 
L 435.967231 275.159265 
L 437.165982 275.043757 
L 438.604483 275.561485 
L 439.723318 274.926916 
L 441.001986 275.418236 
L 442.200737 276.881149 
L 443.559322 277.549292 
L 444.59824 276.887835 
L 445.876908 277.712839 
L 447.155576 277.902344 
L 448.354327 278.659455 
L 449.712912 276.480099 
L 450.951622 273.822454 
L 452.23029 273.009259 
L 453.269208 271.633936 
L 454.867543 271.546857 
L 457.624671 270.229736 
L 460.10209 272.265848 
L 461.540591 272.187918 
L 462.659426 270.21621 
L 463.978052 269.77532 
L 465.136845 271.224569 
L 466.455472 270.028798 
L 467.494389 266.997737 
L 469.012808 266.923428 
L 469.971809 264.087665 
L 471.370352 261.714568 
L 473.927688 258.08205 
L 476.285232 252.839232 
L 477.5639 252.870331 
L 478.962444 252.224396 
L 480.081278 252.201373 
L 481.200113 255.762314 
L 482.398864 255.045108 
L 484.996158 259.127582 
L 486.234868 259.489154 
L 487.513536 258.197091 
L 488.672329 256.368559 
L 490.030914 254.76142 
L 491.229665 253.879112 
L 492.508333 254.225075 
L 493.82696 256.302749 
L 493.82696 256.302749 
" clip-path="url(#p2c388dde1b)" style="fill: none; stroke: #000000; stroke-width: 2.5; stroke-linecap: square"/>
   </g>
   <g id="line2d_17">
    <path d="M 33.946006 285.49822 
L 33.866089 289.890153 
L 33.946006 288.695278 
L 34.425507 287.742582 
L 35.544341 286.671661 
L 37.422385 285.226638 
L 39.779929 285.44417 
L 42.097515 286.206154 
L 44.135392 285.98531 
L 45.853602 286.424512 
L 47.332062 286.684676 
L 48.61073 286.650994 
L 49.769523 287.418508 
L 50.928316 287.677714 
L 52.087109 286.882757 
L 53.245902 286.516697 
L 54.444653 286.572428 
L 55.683363 287.729435 
L 56.922072 287.166626 
L 58.160782 288.242882 
L 59.43945 288.09058 
L 60.718118 288.05818 
L 61.996786 288.563049 
L 63.395329 289.48796 
L 64.753914 288.957791 
L 68.749752 290.155838 
L 70.02842 288.152264 
L 71.26713 288.283241 
L 72.505839 287.137112 
L 73.744549 286.336519 
L 74.983259 286.382174 
L 76.221968 286.013183 
L 77.460678 286.624657 
L 78.739346 287.437591 
L 79.978056 287.830702 
L 81.216765 287.87305 
L 82.455475 287.396153 
L 83.694185 288.005695 
L 84.892936 288.053949 
L 86.091687 288.598387 
L 87.370355 288.591343 
L 88.649023 287.482028 
L 89.927691 288.311505 
L 91.166401 287.993916 
L 92.365152 286.518662 
L 93.64382 285.915707 
L 94.88253 286.462082 
L 96.12124 285.88054 
L 97.359949 285.928025 
L 98.598659 286.887263 
L 99.917285 286.600646 
L 101.155995 285.523493 
L 102.394705 285.765431 
L 104.912082 285.532471 
L 106.19075 285.690904 
L 107.42946 286.86096 
L 108.66817 287.290879 
L 109.946838 288.640286 
L 111.185548 289.582903 
L 112.424257 288.2673 
L 113.662967 287.873749 
L 114.941635 285.834886 
L 116.180345 285.08015 
L 117.419054 283.465049 
L 118.657764 282.140157 
L 119.936432 282.295379 
L 121.175142 283.943888 
L 122.45381 285.134235 
L 123.692519 285.41474 
L 124.971187 285.106747 
L 126.209897 285.945829 
L 127.448607 285.687187 
L 129.965984 284.495501 
L 131.244652 284.770111 
L 132.483362 284.394495 
L 133.76203 285.170884 
L 135.00074 284.042937 
L 136.239449 283.970552 
L 137.398242 282.762445 
L 138.636952 283.844297 
L 139.91562 284.462771 
L 141.15433 283.103133 
L 142.472956 282.580774 
L 143.751624 281.899988 
L 145.030292 281.064692 
L 146.229044 278.652487 
L 148.746421 276.873289 
L 149.985131 276.374805 
L 151.263799 278.130489 
L 152.502509 276.849413 
L 153.661302 277.031353 
L 154.93997 274.072126 
L 156.138721 270.538491 
L 157.377431 263.988942 
L 158.656099 254.446433 
L 159.814892 243.730676 
L 162.372228 224.741622 
L 163.650896 219.028643 
L 164.849647 215.688361 
L 166.088357 213.88484 
L 167.327066 214.952963 
L 168.605734 219.840383 
L 169.884402 223.213358 
L 171.123112 225.899295 
L 172.361822 227.162192 
L 173.64049 230.815284 
L 174.919158 228.133427 
L 176.237784 226.000845 
L 177.396577 222.767869 
L 178.675245 217.248766 
L 181.232581 209.897104 
L 182.431333 207.481558 
L 183.670042 208.671064 
L 186.18742 213.583062 
L 187.386171 211.773153 
L 191.1023 197.545599 
L 192.34101 189.795823 
L 193.659636 180.221541 
L 194.858388 177.890082 
L 196.137056 178.857152 
L 197.375765 177.837906 
L 198.574517 177.871091 
L 199.893143 175.295948 
L 201.091894 170.141607 
L 202.330604 167.809969 
L 203.609272 164.235515 
L 204.847982 163.679619 
L 206.046733 157.908638 
L 207.285443 161.587149 
L 208.524152 164.870795 
L 209.762862 168.67173 
L 211.04153 169.804751 
L 212.320198 170.602895 
L 213.558908 173.272325 
L 214.757659 176.96336 
L 215.996369 179.389194 
L 217.235078 186.061449 
L 218.473788 189.68837 
L 219.752456 200.45656 
L 220.991166 209.928383 
L 222.229875 217.392599 
L 223.468585 220.581667 
L 224.747253 222.810702 
L 225.985963 227.503665 
L 227.224672 229.689178 
L 229.702092 235.703034 
L 230.940801 237.301831 
L 232.179511 242.825362 
L 233.418221 244.645673 
L 234.616972 246.954022 
L 235.89564 247.714694 
L 238.452976 246.330111 
L 239.691686 246.054641 
L 240.970354 248.819684 
L 242.169105 248.95233 
L 243.407815 248.040512 
L 244.726441 251.307832 
L 245.925193 251.086377 
L 247.243819 253.682437 
L 248.44257 252.717275 
L 249.68128 252.672074 
L 250.91999 250.228109 
L 252.158699 250.410768 
L 253.437367 252.453829 
L 254.676077 252.602384 
L 255.914787 253.380293 
L 257.193455 254.484999 
L 258.352248 254.138125 
L 259.590957 253.085744 
L 260.869625 252.904909 
L 262.108335 253.525123 
L 263.347045 252.833448 
L 267.063174 257.68897 
L 268.301883 258.927639 
L 269.580551 258.946382 
L 272.057971 261.088126 
L 273.336639 261.412878 
L 274.575348 261.230756 
L 275.7741 259.262427 
L 277.052768 260.278136 
L 278.331436 258.031873 
L 279.570145 260.13532 
L 282.047565 257.783084 
L 283.286274 257.84587 
L 284.524984 257.643344 
L 285.763694 256.959568 
L 288.281072 254.752436 
L 289.439864 255.343871 
L 290.718532 255.847943 
L 291.997201 255.772565 
L 293.23591 253.363811 
L 294.514578 251.291069 
L 295.793246 252.151408 
L 297.071914 252.482578 
L 298.350582 253.372632 
L 299.62925 252.331343 
L 300.86796 251.499211 
L 302.066711 251.693271 
L 303.345379 251.382854 
L 304.624047 249.122205 
L 305.822799 251.740966 
L 307.101467 253.793806 
L 308.340176 255.543008 
L 309.578886 256.311785 
L 310.777637 255.38827 
L 312.016347 255.543396 
L 313.334974 255.876787 
L 314.493766 255.276194 
L 315.772434 254.89383 
L 317.011144 256.904576 
L 318.209895 260.587501 
L 319.488563 259.862397 
L 320.647356 258.577693 
L 321.965983 257.771061 
L 323.164734 254.252843 
L 324.443402 255.86521 
L 325.642153 256.59638 
L 326.920821 255.705677 
L 328.119573 256.921871 
L 329.318324 258.471617 
L 330.63695 258.729643 
L 331.915619 256.46964 
L 333.154328 257.610326 
L 334.353079 256.344874 
L 335.551831 255.817432 
L 338.069208 256.979556 
L 339.307918 256.811479 
L 340.586586 254.896649 
L 341.905213 254.322328 
L 343.024047 254.331957 
L 344.262757 253.467394 
L 345.581383 254.760023 
L 346.780135 252.64437 
L 348.138719 254.439619 
L 349.217595 255.185159 
L 350.416347 257.476511 
L 351.774932 257.529392 
L 352.973683 254.196544 
L 354.212393 254.850145 
L 355.491061 256.890274 
L 356.809687 256.901647 
L 358.008438 257.795866 
L 359.20719 257.755941 
L 360.445899 261.933241 
L 361.764526 265.160461 
L 362.923319 267.533824 
L 364.201987 266.602923 
L 365.440696 263.049486 
L 366.639448 262.318619 
L 367.878157 261.776215 
L 369.116867 259.83226 
L 370.315618 257.726286 
L 371.594286 258.126882 
L 372.912913 259.134251 
L 374.231539 260.50703 
L 375.749957 262.323953 
L 377.108542 260.734482 
L 378.307293 260.846929 
L 379.546003 259.757798 
L 380.824671 260.714987 
L 382.183256 261.566391 
L 384.580759 265.454442 
L 385.819468 266.815303 
L 387.098136 266.308098 
L 388.416763 265.974373 
L 389.655472 263.699811 
L 390.69439 262.168331 
L 392.092933 260.39289 
L 393.371601 261.565734 
L 394.570353 264.639261 
L 395.809062 267.189937 
L 397.127689 266.85041 
L 398.366398 268.007195 
L 399.525191 266.377641 
L 400.803859 265.881872 
L 402.042569 264.978975 
L 403.281279 265.311312 
L 404.48003 266.964802 
L 405.798656 268.360484 
L 407.077324 269.995872 
L 408.196159 268.704217 
L 409.354952 267.705835 
L 410.753495 267.843906 
L 411.992205 267.1258 
L 413.230914 267.264058 
L 414.589499 267.888617 
L 418.105836 272.234998 
L 419.424463 272.820898 
L 420.743089 272.728395 
L 422.021757 272.935425 
L 423.140592 272.145554 
L 425.89772 272.460124 
L 427.056513 270.993975 
L 428.215306 272.222795 
L 429.374098 271.341937 
L 430.652766 271.422956 
L 431.811559 273.113886 
L 433.090227 273.612728 
L 434.368895 273.01959 
L 435.527688 270.742265 
L 436.886273 270.052298 
L 439.363693 270.465049 
L 440.522485 272.124646 
L 441.841112 271.477425 
L 442.999905 272.809954 
L 444.35849 273.503736 
L 445.517282 272.362103 
L 446.716034 270.348211 
L 447.954743 268.90248 
L 449.313328 267.655544 
L 450.51208 268.159139 
L 451.750789 267.584007 
L 452.789707 267.924936 
L 456.066294 268.155246 
L 457.38492 266.654313 
L 458.503755 267.944917 
L 459.86234 268.826035 
L 461.141008 270.606687 
L 462.139967 269.27777 
L 463.578469 270.234345 
L 464.697303 269.165184 
L 465.936013 269.125236 
L 467.254639 270.326599 
L 468.533307 267.882165 
L 469.652142 266.918315 
L 470.970768 264.687631 
L 472.049644 264.968758 
L 473.448188 263.925511 
L 474.686897 262.860728 
L 475.925607 263.61154 
L 477.164317 262.627052 
L 478.442985 263.347026 
L 479.881486 265.673846 
L 480.840487 263.259446 
L 482.159114 263.665507 
L 483.597615 264.772831 
L 484.516658 267.460385 
L 485.875243 268.464334 
L 487.153911 268.714718 
L 490.909998 262.362281 
L 492.268583 261.069166 
L 493.267542 261.357516 
L 494.30646 263.887967 
L 494.30646 263.887967 
" clip-path="url(#p2c388dde1b)" style="fill: none; stroke: #1f77b4; stroke-width: 2.5; stroke-linecap: square"/>
   </g>
   <g id="line2d_18">
    <path d="M 33.546422 287.664921 
L 33.546422 288.333226 
L 33.506464 284.939142 
L 33.586381 285.824243 
L 33.946006 287.154277 
L 35.024882 285.064106 
L 36.942884 285.140376 
L 39.220512 286.588473 
L 41.578056 286.01467 
L 43.655891 287.652793 
L 46.852562 288.901217 
L 48.13123 289.44612 
L 49.290023 290.547223 
L 50.448815 290.317439 
L 51.607608 288.890121 
L 52.766401 287.916041 
L 53.965153 287.377466 
L 55.203862 286.172236 
L 56.442572 286.326547 
L 57.72124 286.353508 
L 58.999908 285.9191 
L 60.238618 286.690806 
L 61.517286 286.886557 
L 64.194497 286.340945 
L 65.59304 285.838028 
L 66.991583 284.564813 
L 68.270251 284.704036 
L 70.747671 287.279202 
L 71.946422 286.761373 
L 74.423841 287.474267 
L 75.702509 288.357895 
L 78.179929 288.70499 
L 79.458597 287.763143 
L 80.737265 289.266421 
L 82.015933 288.978312 
L 83.294601 288.510214 
L 84.493352 286.692438 
L 85.732062 287.082862 
L 87.050688 288.494488 
L 88.289398 288.324031 
L 89.488149 286.488956 
L 90.606984 285.932185 
L 91.845693 285.095546 
L 93.16432 285.049833 
L 94.442988 284.478326 
L 95.721656 284.363352 
L 96.960366 285.439697 
L 99.517702 288.699165 
L 100.756411 287.749203 
L 101.955163 286.612588 
L 103.233831 286.157463 
L 104.47254 286.15398 
L 105.751208 285.956974 
L 106.989918 287.167961 
L 108.308544 286.482927 
L 109.587212 288.259648 
L 112.064632 287.316136 
L 114.502093 284.812863 
L 115.740802 284.272375 
L 117.099387 282.93351 
L 118.378055 282.575545 
L 119.576807 282.61098 
L 120.775558 281.950992 
L 122.054226 283.667261 
L 123.252977 284.25292 
L 124.531645 282.368018 
L 125.810313 282.418936 
L 127.049023 283.403356 
L 128.327691 283.57406 
L 129.566401 284.328748 
L 130.765152 286.010651 
L 132.04382 287.571653 
L 133.322488 287.26742 
L 134.561198 288.494183 
L 135.799907 287.630221 
L 137.078575 284.297406 
L 138.357243 282.086495 
L 139.555995 280.397954 
L 140.834663 279.096056 
L 142.073372 280.902917 
L 143.312082 280.328643 
L 144.550792 278.915715 
L 145.789501 278.306396 
L 147.028211 278.533228 
L 148.266921 276.726942 
L 149.545589 274.00258 
L 150.784298 267.36132 
L 152.062967 265.260775 
L 153.261718 266.121923 
L 154.540386 258.916166 
L 155.779096 250.323286 
L 157.017805 239.50068 
L 158.256515 232.806266 
L 159.495225 223.679883 
L 160.733934 219.76835 
L 161.932685 214.453427 
L 163.211354 211.327858 
L 164.450063 214.739869 
L 165.688773 222.67519 
L 166.927483 222.184852 
L 168.206151 222.668902 
L 169.44486 224.226104 
L 170.763487 226.875445 
L 172.002196 225.35726 
L 173.280864 227.392666 
L 174.519574 225.483813 
L 175.8382 224.787953 
L 177.07691 226.326114 
L 178.31562 226.460882 
L 179.514371 223.970819 
L 180.753081 220.73251 
L 181.99179 224.115135 
L 183.2305 221.457404 
L 184.46921 217.761123 
L 185.747878 214.483277 
L 186.986587 211.621422 
L 188.265256 207.504689 
L 189.464007 206.197189 
L 190.662758 201.877598 
L 191.981385 203.279903 
L 193.260053 204.340288 
L 194.498762 204.910222 
L 195.657555 206.122476 
L 196.976182 207.097905 
L 198.174933 201.440669 
L 199.493559 199.869789 
L 200.692311 197.750743 
L 201.93102 198.154414 
L 203.209688 199.680168 
L 204.448398 205.666142 
L 205.687108 203.910696 
L 206.885859 205.222678 
L 208.124569 210.546589 
L 209.363278 208.709561 
L 210.641946 206.378818 
L 211.920614 208.445649 
L 213.119366 207.331105 
L 214.398034 206.61273 
L 215.596785 208.156956 
L 216.875453 211.19555 
L 218.074204 209.355824 
L 219.312914 214.020555 
L 220.591582 217.183335 
L 221.830292 221.879715 
L 225.586379 240.569377 
L 226.78513 245.894922 
L 228.063798 250.183781 
L 229.302508 252.156048 
L 230.541218 253.198229 
L 231.739969 254.515054 
L 233.018637 254.412487 
L 234.257347 255.461084 
L 235.456098 253.805764 
L 236.734766 254.365225 
L 237.933517 256.667415 
L 240.410937 257.072333 
L 241.729563 257.480156 
L 242.968273 259.708236 
L 244.167024 261.50352 
L 245.445692 260.713412 
L 246.684402 261.898212 
L 247.923111 259.480966 
L 249.201779 254.738554 
L 250.440489 254.669844 
L 251.679199 255.296771 
L 252.917908 255.657226 
L 254.156618 258.103394 
L 255.395328 260.88712 
L 256.673996 264.235897 
L 257.872747 263.223407 
L 259.191374 266.751141 
L 261.668793 263.485015 
L 262.907503 264.373547 
L 264.066295 265.70423 
L 265.42488 261.697708 
L 266.623632 259.7764 
L 267.862341 259.106177 
L 269.101051 258.566221 
L 270.379719 256.652755 
L 271.618429 256.424964 
L 272.81718 256.453551 
L 275.414474 259.594628 
L 276.613226 262.465748 
L 277.851935 263.668811 
L 279.050687 264.614115 
L 280.369313 266.447046 
L 281.608023 267.161601 
L 282.846732 267.687112 
L 284.045484 266.34963 
L 285.36411 264.405801 
L 286.562861 264.449668 
L 287.761613 262.927687 
L 289.000322 262.388369 
L 290.27899 264.331428 
L 291.5177 264.421037 
L 292.75641 265.938083 
L 294.035078 265.704586 
L 295.273787 262.975977 
L 296.632372 262.593117 
L 297.950999 258.826879 
L 299.109792 259.248145 
L 300.428418 255.785508 
L 301.667128 255.192136 
L 302.905837 256.445144 
L 304.144547 257.460133 
L 305.383257 259.740524 
L 307.860676 258.0224 
L 309.139344 258.539235 
L 310.338095 259.234287 
L 311.576805 259.819273 
L 314.094183 260.12458 
L 315.292934 260.574722 
L 316.571602 261.287486 
L 317.810312 263.061891 
L 319.049021 262.314466 
L 320.207814 260.831566 
L 321.486482 258.540429 
L 322.725192 260.787073 
L 324.00386 259.701147 
L 325.282528 259.509374 
L 326.441321 257.141898 
L 328.91874 261.216156 
L 330.15745 262.886804 
L 331.436118 261.911622 
L 332.714786 259.705283 
L 333.913537 260.116519 
L 335.192205 261.953244 
L 336.430915 260.995671 
L 337.709583 260.764309 
L 338.868376 260.750298 
L 340.067127 262.349074 
L 341.345795 261.058046 
L 342.584505 259.065772 
L 343.863173 256.433005 
L 345.061924 255.532791 
L 346.340592 257.380913 
L 347.659219 256.375538 
L 348.85797 256.817071 
L 350.016763 258.376294 
L 351.335389 259.027324 
L 352.574099 259.086969 
L 353.812809 258.980756 
L 355.091477 257.446273 
L 356.370145 258.20235 
L 357.528938 260.679536 
L 360.046315 261.145219 
L 361.245067 260.787678 
L 362.523735 262.060645 
L 363.722486 261.125507 
L 364.921237 262.277356 
L 366.239864 262.75742 
L 367.518532 262.873822 
L 369.916034 265.750981 
L 371.234661 265.067459 
L 372.393454 265.802044 
L 373.752039 264.522205 
L 375.270457 263.492845 
L 376.669 262.738086 
L 377.90771 263.618363 
L 379.226336 263.342384 
L 380.465046 265.964829 
L 381.743714 266.506488 
L 382.942465 269.175066 
L 384.181175 271.07926 
L 385.459843 271.843312 
L 386.698552 273.18229 
L 387.857345 273.462786 
L 389.21593 273.061609 
L 391.69335 273.389143 
L 392.892101 271.82089 
L 394.090852 270.065256 
L 395.289603 270.422148 
L 396.648188 271.156635 
L 397.886898 270.060818 
L 399.125608 270.243977 
L 400.244442 270.565669 
L 401.603027 269.316143 
L 404.040488 272.195747 
L 405.359114 272.350898 
L 406.557866 272.871933 
L 407.836534 275.685454 
L 409.035285 277.311783 
L 410.39387 276.97657 
L 411.552663 274.814849 
L 412.751414 272.861248 
L 414.109999 272.310553 
L 416.627376 270.769698 
L 417.826128 270.875496 
L 418.984921 272.567851 
L 420.263589 274.670455 
L 421.582215 276.191801 
L 422.661091 276.805585 
L 424.099593 274.852124 
L 425.218427 273.075215 
L 426.37722 273.026765 
L 427.655888 271.163531 
L 428.974515 270.641699 
L 430.053391 271.512241 
L 431.451934 272.392182 
L 432.650685 272.466905 
L 433.889395 274.993346 
L 435.208021 275.346017 
L 436.366814 274.67411 
L 437.725399 274.464277 
L 438.884192 275.355704 
L 440.082943 274.826469 
L 441.361611 274.756453 
L 442.640279 275.773363 
L 443.878989 274.6288 
L 445.157657 275.307799 
L 446.236533 274.659199 
L 447.515201 274.024369 
L 448.833828 272.60268 
L 451.311247 271.410916 
L 452.47004 270.539983 
L 453.868583 270.762906 
L 455.347043 273.108191 
L 456.865461 274.325118 
L 459.342881 273.242949 
L 460.621549 273.208973 
L 461.900217 270.535306 
L 463.138926 268.821499 
L 464.297719 268.914906 
L 465.496471 267.509715 
L 466.73518 269.12215 
L 467.933932 268.89947 
L 469.172641 269.45695 
L 470.451309 265.610305 
L 471.809894 265.020424 
L 473.088562 264.890563 
L 474.12748 263.562841 
L 475.446106 264.031983 
L 476.764733 262.792443 
L 478.003442 259.907056 
L 479.162235 262.514038 
L 480.440903 261.162173 
L 481.719571 263.332755 
L 482.918323 263.057726 
L 486.754327 272.380108 
L 487.993037 274.067148 
L 489.031954 272.951246 
L 490.270664 271.306064 
L 493.06775 268.473394 
L 493.986793 268.308673 
L 493.986793 268.308673 
" clip-path="url(#p2c388dde1b)" style="fill: none; stroke: #d62728; stroke-width: 2.5; stroke-linecap: square"/>
   </g>
   <g id="line2d_19">
    <path d="M 35.384508 287.370831 
L 35.344549 286.313937 
L 35.304591 286.951786 
L 35.264632 287.670372 
L 35.304591 287.166602 
L 35.464424 287.394447 
L 36.0638 287.4026 
L 41.777848 285.666037 
L 43.975558 284.815727 
L 47.531854 285.172621 
L 48.970356 286.295787 
L 50.169107 285.502453 
L 51.3279 285.154808 
L 52.486693 284.960836 
L 53.645486 283.104125 
L 54.844237 281.607027 
L 56.042988 281.72325 
L 57.281698 282.23452 
L 58.520407 282.987279 
L 59.799076 284.249634 
L 61.077744 286.775712 
L 62.39637 287.810253 
L 63.754955 288.712645 
L 65.193456 288.733126 
L 66.512083 288.565336 
L 67.830709 288.040487 
L 69.109377 288.280263 
L 70.348087 287.041279 
L 71.586797 286.241274 
L 72.825506 285.961242 
L 74.064216 286.827229 
L 75.342884 286.988408 
L 76.581594 286.643893 
L 77.780345 287.157024 
L 79.019055 288.059764 
L 80.217806 287.996481 
L 81.496474 287.770974 
L 82.735184 287.110881 
L 83.973893 287.10465 
L 85.252561 286.636821 
L 87.809897 283.628632 
L 89.048607 283.050173 
L 90.287317 284.385164 
L 91.605943 284.347103 
L 92.764736 284.775966 
L 95.282114 286.566059 
L 96.520823 287.080537 
L 97.759533 286.64175 
L 98.998243 285.532459 
L 100.196994 284.037232 
L 101.435704 284.087888 
L 102.674413 284.483236 
L 103.953081 283.831783 
L 106.470459 286.371874 
L 107.749127 285.643217 
L 108.987837 286.250988 
L 110.266505 286.475648 
L 111.505215 286.506687 
L 112.743924 285.365705 
L 114.022592 285.711918 
L 115.30126 284.798135 
L 116.579928 284.790047 
L 119.137264 285.556166 
L 120.375974 285.47229 
L 121.614684 287.609508 
L 122.853393 287.954351 
L 124.132061 287.164068 
L 125.370771 286.072563 
L 126.609481 284.346075 
L 127.888149 282.789474 
L 130.405527 281.165357 
L 131.644236 282.72282 
L 132.922904 283.077046 
L 134.161614 284.130445 
L 135.440282 283.449958 
L 136.678992 282.999708 
L 139.076494 281.34816 
L 140.315204 281.051807 
L 141.553914 279.735866 
L 142.832582 278.566798 
L 144.071291 278.748344 
L 145.270043 277.983859 
L 146.548711 276.36063 
L 147.78742 276.178284 
L 149.02613 275.767927 
L 150.26484 275.753747 
L 151.463591 274.19421 
L 152.782217 271.840549 
L 154.060885 271.09812 
L 155.299595 270.752813 
L 156.538305 264.584051 
L 157.816973 256.999316 
L 160.33435 230.049298 
L 161.533102 212.586024 
L 164.010521 173.561379 
L 165.289189 159.810402 
L 166.447982 155.636955 
L 167.72665 155.480514 
L 168.925401 153.417548 
L 170.204069 158.653561 
L 171.522696 167.704713 
L 172.721447 178.563107 
L 173.960157 184.632843 
L 175.278783 185.016174 
L 176.517493 186.431101 
L 177.796161 184.053448 
L 179.034871 183.116415 
L 180.27358 179.809863 
L 182.790958 175.964193 
L 184.029668 178.494162 
L 185.308336 181.963801 
L 186.507087 179.306112 
L 187.745797 175.166609 
L 188.984506 173.009985 
L 191.461926 172.490357 
L 192.700635 171.329334 
L 193.979303 173.018947 
L 195.218013 168.590128 
L 196.496681 169.754143 
L 197.695432 175.504587 
L 198.934142 167.969663 
L 200.21281 159.178503 
L 201.45152 153.017331 
L 202.690229 152.018313 
L 203.968897 148.839454 
L 205.207607 149.925669 
L 207.724985 152.649773 
L 209.003653 161.307215 
L 210.242362 171.792136 
L 211.521031 170.89175 
L 212.719782 172.115235 
L 213.958492 173.199872 
L 215.23716 180.012246 
L 216.475869 184.654077 
L 217.714579 194.411942 
L 218.953289 196.602444 
L 221.430708 205.409675 
L 222.709376 209.021626 
L 223.948086 213.972201 
L 226.30563 221.704441 
L 227.584298 227.383743 
L 228.862966 232.10504 
L 230.061717 237.07662 
L 231.340385 236.28825 
L 232.619053 235.805168 
L 233.857763 236.350575 
L 235.056514 235.331673 
L 236.295224 235.654402 
L 237.61385 234.288756 
L 240.011353 236.215607 
L 241.290021 238.887372 
L 242.528731 240.87475 
L 243.76744 241.080827 
L 245.00615 240.187648 
L 246.24486 239.983024 
L 247.523528 238.262976 
L 250.000947 238.099107 
L 252.478366 241.317478 
L 254.915827 245.763212 
L 256.234454 246.872772 
L 257.473163 245.168421 
L 258.751831 242.972267 
L 260.030499 244.493742 
L 261.229251 247.084964 
L 262.428002 247.380735 
L 263.746628 248.771255 
L 264.94538 249.57851 
L 267.422799 253.199547 
L 268.701467 255.989823 
L 271.218845 258.265918 
L 272.457554 259.164687 
L 273.656306 260.211091 
L 274.895015 258.013154 
L 276.133725 258.222809 
L 277.452352 256.183532 
L 278.611144 253.856839 
L 279.889812 252.408721 
L 281.088564 252.44683 
L 282.367232 253.09326 
L 283.6459 252.915939 
L 284.844651 252.145347 
L 286.083361 253.406684 
L 287.32207 255.336377 
L 288.600739 258.372031 
L 290.998241 254.651134 
L 292.316868 254.556593 
L 293.515619 253.081138 
L 294.834245 250.718121 
L 296.19283 248.94849 
L 297.471498 246.841754 
L 299.948917 247.153576 
L 301.147669 246.762475 
L 302.426337 245.355278 
L 303.705005 248.244364 
L 304.943714 249.738701 
L 307.381175 248.237598 
L 308.619885 248.293378 
L 309.858595 246.657709 
L 311.137263 248.142353 
L 312.375972 246.198484 
L 313.614682 245.53441 
L 314.933309 244.265864 
L 316.052143 246.914325 
L 317.37077 246.710209 
L 318.569521 247.811193 
L 319.80823 247.237885 
L 321.04694 246.096667 
L 322.28565 245.755159 
L 323.524359 246.945809 
L 324.763069 246.111887 
L 326.041737 246.950071 
L 327.280447 246.375113 
L 328.519157 249.399225 
L 329.717908 251.103397 
L 330.996576 250.799464 
L 332.275244 251.03218 
L 333.473995 249.882295 
L 334.752663 252.003963 
L 335.991373 252.515935 
L 337.190124 252.706267 
L 338.428834 253.355615 
L 339.787419 252.987253 
L 340.946212 255.133112 
L 342.144963 254.366279 
L 343.383673 254.009928 
L 344.742257 256.233304 
L 345.90105 255.305264 
L 347.179718 257.26444 
L 348.37847 256.875151 
L 349.617179 257.194236 
L 350.935806 256.308042 
L 352.174515 256.689154 
L 353.333308 256.1742 
L 354.572018 253.615902 
L 355.810728 256.678643 
L 357.129354 257.577036 
L 358.328105 259.415154 
L 360.885441 259.283987 
L 362.084193 257.893956 
L 363.322902 257.348796 
L 364.521654 256.949112 
L 365.84028 255.402975 
L 366.999073 255.938657 
L 368.197824 256.964609 
L 369.516451 257.671802 
L 370.675244 259.151338 
L 371.99387 258.417827 
L 373.152663 258.795766 
L 374.71104 256.884541 
L 376.1895 259.600985 
L 377.548084 261.363407 
L 378.786794 262.336104 
L 380.10542 262.814232 
L 381.264213 260.192781 
L 382.58284 259.568177 
L 383.821549 259.487906 
L 384.980342 258.606387 
L 386.25901 259.791876 
L 387.537678 259.981972 
L 388.696471 262.474127 
L 389.935181 265.927734 
L 391.213849 264.75125 
L 392.492517 264.672678 
L 394.89002 263.880151 
L 396.208646 264.123704 
L 397.487314 263.190444 
L 398.56619 264.167053 
L 399.924775 264.605072 
L 401.083568 265.826439 
L 402.362236 267.892491 
L 403.560987 266.578176 
L 404.879614 268.698025 
L 406.038407 268.655853 
L 407.43695 270.238862 
L 408.555784 270.898403 
L 411.153079 270.427048 
L 412.271913 271.764469 
L 413.59054 271.844551 
L 416.107917 272.542648 
L 417.546419 271.625088 
L 418.625295 269.535291 
L 419.74413 269.661224 
L 421.062756 268.08055 
L 422.341424 266.921593 
L 423.460259 267.409374 
L 424.818844 268.590257 
L 426.13747 270.932795 
L 427.296263 271.528666 
L 428.455056 272.383159 
L 429.773682 271.869628 
L 432.011351 272.742357 
L 433.52977 272.318347 
L 434.728521 273.401337 
L 435.927272 274.134288 
L 437.20594 274.706362 
L 438.44465 275.49748 
L 439.563484 273.097421 
L 442.160779 274.195002 
L 443.399489 274.405771 
L 444.59824 272.544101 
L 445.876908 269.86899 
L 447.115618 269.159516 
L 448.27441 267.765271 
L 449.712912 267.120498 
L 450.831747 266.122605 
L 452.150373 267.458038 
L 453.229249 268.747356 
L 454.827584 270.0361 
L 456.226127 271.884167 
L 457.464837 272.119198 
L 458.903339 272.144057 
L 460.221965 272.920188 
L 461.620508 272.773734 
L 463.858177 268.622174 
L 465.176804 266.098961 
L 466.335597 262.611552 
L 467.534348 261.515796 
L 468.733099 261.815982 
L 470.091684 261.243049 
L 471.370352 260.543264 
L 472.609062 260.416845 
L 473.807813 259.32733 
L 474.926647 258.093407 
L 477.523942 257.105223 
L 480.121236 260.843729 
L 481.439863 261.607432 
L 482.598656 261.519613 
L 483.877324 263.121361 
L 485.036117 263.270876 
L 486.035076 263.10259 
L 487.433619 262.411735 
L 488.752246 262.408164 
L 489.990955 262.92013 
L 491.189707 264.193445 
L 492.308541 266.473919 
L 493.547251 270.007363 
L 493.547251 270.007363 
" clip-path="url(#p2c388dde1b)" style="fill: none; stroke: #ff7f0e; stroke-width: 2.5; stroke-linecap: square"/>
   </g>
   <g id="line2d_20">
    <path d="M 34.025923 281.968183 
L 34.025923 286.695529 
L 33.946006 285.54503 
L 33.906048 284.674242 
L 33.906048 286.839055 
L 34.025923 286.483026 
L 34.34559 285.903947 
L 35.344549 285.730122 
L 37.062759 286.846426 
L 39.420304 286.08674 
L 41.817806 286.95448 
L 43.9356 286.355624 
L 45.733727 285.272097 
L 47.172229 286.460998 
L 48.450897 286.320126 
L 49.60969 285.258131 
L 50.768482 283.535789 
L 51.927275 282.212749 
L 53.086068 281.389597 
L 54.324778 281.34632 
L 55.563488 283.254091 
L 56.842156 282.190215 
L 58.080865 282.210616 
L 59.399492 282.862678 
L 60.598243 284.054901 
L 61.836953 285.787544 
L 63.195538 286.492803 
L 64.514164 286.381653 
L 65.912707 287.391327 
L 67.231334 289.205579 
L 68.54996 290.378955 
L 69.828628 289.281111 
L 72.346006 286.465889 
L 73.544757 286.16681 
L 74.823425 286.104785 
L 76.062135 285.085646 
L 77.380761 284.693658 
L 79.85818 285.010008 
L 81.136848 284.687867 
L 82.375558 283.619706 
L 84.813019 283.659444 
L 86.131646 284.351928 
L 89.927691 287.587555 
L 91.206359 287.337595 
L 92.445069 286.744585 
L 93.683779 284.983136 
L 94.88253 283.813396 
L 96.161198 285.169893 
L 97.359949 283.189032 
L 98.598659 282.178892 
L 99.877327 283.156443 
L 101.116037 284.668935 
L 102.354746 285.233716 
L 103.593456 284.300309 
L 104.872124 284.523397 
L 106.030917 284.152689 
L 108.588253 286.696779 
L 109.787004 285.143327 
L 111.065672 284.280747 
L 112.34434 284.169 
L 113.58305 284.336565 
L 114.861718 284.688418 
L 116.140386 282.083019 
L 117.419054 281.652025 
L 118.737681 281.726662 
L 119.97639 281.94912 
L 121.255058 282.913419 
L 123.732478 283.398776 
L 125.011146 283.415082 
L 127.488565 284.370861 
L 128.687316 283.278651 
L 129.926026 283.812499 
L 131.164736 284.643538 
L 132.443404 286.24401 
L 133.682113 287.180188 
L 134.960781 288.779537 
L 136.199491 286.265697 
L 137.398242 282.555084 
L 138.67691 279.663357 
L 139.91562 277.738667 
L 141.15433 276.416199 
L 142.432998 274.680638 
L 143.631749 274.287081 
L 144.870459 276.191944 
L 146.149127 277.526722 
L 147.387836 277.719696 
L 148.626546 275.971464 
L 149.865256 275.137851 
L 151.143924 275.576737 
L 152.382634 273.175705 
L 153.621343 268.142923 
L 156.178679 256.273645 
L 157.457347 248.204657 
L 158.696057 237.460663 
L 159.934767 228.490215 
L 162.412186 213.201944 
L 163.650896 208.33934 
L 164.849647 204.395549 
L 166.088357 204.243332 
L 167.327066 204.462971 
L 168.565776 208.455785 
L 169.804486 211.245884 
L 171.003237 213.369678 
L 172.321863 217.661075 
L 173.600531 218.25757 
L 174.839241 222.10704 
L 176.077951 220.886273 
L 177.31666 222.83917 
L 178.595328 224.431236 
L 179.834038 222.527487 
L 181.112706 222.944406 
L 182.351416 220.691537 
L 183.550167 217.452249 
L 184.828835 215.058479 
L 186.067545 213.416807 
L 187.346213 212.486274 
L 188.584923 206.935594 
L 189.863591 206.928858 
L 191.1023 205.409324 
L 192.301052 203.41303 
L 193.57972 202.928416 
L 194.818429 201.665391 
L 196.057139 202.208252 
L 197.25589 201.091184 
L 198.4946 198.848889 
L 199.773268 193.921736 
L 200.972019 192.749017 
L 202.210729 193.30832 
L 203.529355 195.576785 
L 204.728107 197.400575 
L 205.966816 201.390169 
L 207.205526 202.133347 
L 208.484194 203.894595 
L 209.762862 200.791828 
L 211.001572 200.036155 
L 212.240281 195.686409 
L 213.478991 197.671617 
L 214.757659 199.144453 
L 215.95641 200.173262 
L 217.19512 202.438907 
L 218.513746 205.137004 
L 219.712498 209.610668 
L 220.991166 211.958544 
L 222.229875 215.994129 
L 223.468585 223.647126 
L 224.667336 226.479136 
L 225.906046 232.820323 
L 227.144756 237.158891 
L 228.463382 239.176201 
L 229.662133 245.217537 
L 230.900843 246.919601 
L 232.139553 248.391175 
L 233.418221 246.09485 
L 234.616972 247.331133 
L 235.89564 248.338213 
L 237.13435 247.138553 
L 238.373059 247.851083 
L 239.611769 250.619388 
L 240.930396 254.730147 
L 242.169105 261.137673 
L 243.407815 262.082874 
L 244.646525 260.771588 
L 245.845276 258.747778 
L 247.083986 257.686504 
L 248.362654 254.025218 
L 249.561405 251.317595 
L 250.840073 247.222862 
L 252.038824 247.31113 
L 253.317492 251.690793 
L 254.556202 256.746405 
L 255.754953 256.251985 
L 256.993663 257.341196 
L 258.272331 257.745363 
L 259.471082 258.530908 
L 260.829667 257.369784 
L 262.028418 258.206753 
L 263.22717 256.821768 
L 264.425921 259.372855 
L 265.744547 260.271326 
L 266.943299 262.511012 
L 268.221967 260.607763 
L 269.500635 260.351193 
L 270.699386 259.377246 
L 271.978054 256.879183 
L 273.136847 257.696231 
L 274.415515 256.587962 
L 275.734141 255.860841 
L 276.972851 255.534478 
L 278.171602 254.088923 
L 279.45027 254.297979 
L 280.728938 254.871709 
L 281.92769 254.827121 
L 283.206358 255.217365 
L 284.405109 253.780753 
L 285.643819 254.834461 
L 286.922487 252.671649 
L 289.399906 250.949883 
L 290.678574 252.52831 
L 291.877325 252.243498 
L 293.155993 254.325441 
L 294.394703 257.2884 
L 295.71333 256.90453 
L 296.991998 254.725728 
L 298.310624 253.282915 
L 299.549334 252.376042 
L 300.788043 252.88925 
L 302.066711 253.067585 
L 303.345379 254.609556 
L 304.504172 253.141918 
L 305.702924 255.450326 
L 306.981592 256.604849 
L 308.140385 255.883162 
L 309.459011 253.29149 
L 310.737679 251.864332 
L 311.976389 252.090109 
L 313.135182 250.81793 
L 314.453808 249.910104 
L 316.891269 246.585498 
L 318.129979 248.518675 
L 319.368688 246.760324 
L 320.647356 247.215349 
L 321.886066 246.282594 
L 323.084817 247.525534 
L 324.363485 248.516174 
L 325.562237 250.292011 
L 326.800946 253.804406 
L 327.999698 255.071696 
L 329.398241 257.218251 
L 330.63695 256.509964 
L 331.795743 255.495211 
L 332.994495 254.638005 
L 334.353079 254.100422 
L 335.511872 253.268111 
L 336.710624 251.568627 
L 337.989292 252.993192 
L 339.228001 252.213705 
L 340.546628 253.43273 
L 341.745379 251.509483 
L 342.94413 248.870701 
L 344.302715 249.167991 
L 345.461508 249.743016 
L 346.700218 251.705144 
L 347.978886 251.865184 
L 350.416347 255.08715 
L 351.655056 255.371498 
L 352.893766 257.335051 
L 354.132476 255.318446 
L 355.371185 257.715571 
L 356.609895 255.633044 
L 357.888563 253.73351 
L 359.087314 252.896505 
L 360.365982 252.18342 
L 361.644651 252.260939 
L 362.843402 253.141872 
L 364.042153 254.684886 
L 365.280863 257.816036 
L 366.559531 259.456995 
L 367.79824 259.523854 
L 369.03695 257.298087 
L 370.235701 256.877182 
L 371.554328 256.187682 
L 372.793038 258.15022 
L 375.590124 259.862812 
L 376.988667 262.51716 
L 378.307293 262.745647 
L 379.506045 261.497087 
L 380.904588 259.436954 
L 382.103339 260.172324 
L 383.342049 261.350235 
L 384.580759 260.667341 
L 385.819468 263.281764 
L 386.938303 264.698395 
L 388.336846 265.245413 
L 389.535597 266.439945 
L 390.69439 266.755983 
L 393.211768 266.906609 
L 394.490436 266.329561 
L 396.927897 268.153712 
L 398.166607 268.739575 
L 400.723943 272.957783 
L 401.882736 272.380867 
L 403.161404 273.181973 
L 404.48003 271.228642 
L 405.558906 270.984844 
L 406.917491 268.266844 
L 408.196159 267.675469 
L 409.514785 267.255189 
L 410.753495 266.579702 
L 411.87233 267.764478 
L 414.389707 268.516121 
L 415.588459 268.534643 
L 416.867127 267.260452 
L 418.065878 267.732453 
L 419.304588 266.881597 
L 420.583256 269.667101 
L 422.061716 269.679926 
L 423.300425 270.780389 
L 424.379301 271.555147 
L 427.935597 273.028977 
L 429.254223 270.892308 
L 430.612808 270.335936 
L 431.771601 270.271197 
L 433.050269 271.829424 
L 434.24902 272.191432 
L 435.607605 273.824056 
L 436.846315 273.407106 
L 438.005108 271.114807 
L 439.163901 269.841576 
L 440.482527 268.213939 
L 441.761195 267.019299 
L 442.840071 264.793991 
L 444.198656 263.343552 
L 445.357449 263.199546 
L 447.954743 267.664514 
L 449.193453 266.031193 
L 450.432163 263.573169 
L 452.789707 262.002386 
L 454.268167 264.224624 
L 455.786585 264.350746 
L 458.463796 265.093455 
L 459.582631 266.827181 
L 461.141008 266.646891 
L 462.419676 265.670461 
L 463.258802 264.148525 
L 464.457553 264.030148 
L 465.816138 260.896917 
L 467.134764 259.818269 
L 468.373474 258.637663 
L 469.612183 256.316263 
L 470.890851 256.845145 
L 472.16952 256.454791 
L 473.328312 258.837686 
L 474.567022 260.976583 
L 475.84569 262.292052 
L 477.124358 265.577926 
L 478.243193 264.389652 
L 479.681694 265.99782 
L 480.840487 264.022922 
L 482.159114 263.79176 
L 483.397823 263.785829 
L 484.596575 263.526055 
L 485.875243 265.925296 
L 487.073994 266.019443 
L 488.312704 266.24207 
L 489.591372 268.555073 
L 490.710206 270.845559 
L 491.988874 272.700193 
L 493.307501 273.705644 
L 494.186585 273.448579 
L 494.186585 273.448579 
" clip-path="url(#p2c388dde1b)" style="fill: none; stroke: #9467bd; stroke-width: 2.5; stroke-linecap: square"/>
   </g>
   <g id="line2d_21">
    <path d="M 35.104799 284.670681 
L 35.024882 290.592167 
L 35.024882 281.759606 
L 34.944965 281.008823 
L 35.064841 281.072068 
L 35.624258 282.480785 
L 36.823009 282.799127 
L 38.701053 284.639403 
L 41.018639 286.225856 
L 43.296266 286.683104 
L 45.294185 287.475867 
L 46.972437 286.871229 
L 48.410938 286.689895 
L 49.649648 286.373543 
L 50.808441 286.435646 
L 51.927275 287.623761 
L 53.126027 286.533347 
L 54.324778 285.641069 
L 55.483571 285.901957 
L 56.762239 285.172812 
L 58.040907 286.199429 
L 59.279617 285.137467 
L 60.598243 286.324357 
L 61.876911 287.681182 
L 63.235496 288.147423 
L 64.594081 289.368631 
L 65.992624 288.721206 
L 67.31125 288.947598 
L 68.629877 288.418597 
L 69.868586 287.760891 
L 71.147254 288.538298 
L 72.346006 287.335878 
L 73.584715 288.642558 
L 74.823425 288.446998 
L 76.102093 286.871208 
L 77.340803 287.179725 
L 78.619471 286.523311 
L 79.85818 286.189795 
L 82.375558 281.938456 
L 83.614268 282.097937 
L 84.852977 281.798769 
L 87.330397 284.260688 
L 88.569106 284.592263 
L 89.807816 285.079384 
L 91.086484 284.346072 
L 92.325194 285.509267 
L 93.563904 284.503593 
L 94.802613 283.320963 
L 96.041323 283.935023 
L 97.319991 284.33874 
L 98.598659 285.381321 
L 99.79741 287.27384 
L 101.03612 286.954864 
L 102.27483 285.987349 
L 103.513539 285.484824 
L 104.792207 287.173408 
L 105.990959 285.757282 
L 107.229668 285.547752 
L 108.468378 286.136572 
L 109.747046 287.35958 
L 111.025714 287.089218 
L 112.304382 287.833778 
L 113.543092 286.15261 
L 114.861718 284.616298 
L 116.140386 282.732761 
L 117.419054 283.110386 
L 118.657764 281.434569 
L 119.896474 281.53273 
L 122.333935 281.440477 
L 123.652561 282.405983 
L 124.931229 283.969547 
L 126.169939 283.165112 
L 128.687316 280.947826 
L 129.965984 281.118838 
L 131.244652 279.770365 
L 132.443404 279.157663 
L 133.682113 277.892702 
L 134.960781 277.219641 
L 136.159533 279.347366 
L 137.438201 280.709221 
L 139.955578 278.7783 
L 141.194288 278.971186 
L 142.393039 278.349141 
L 143.671707 278.929413 
L 144.910417 278.110041 
L 147.347878 272.38266 
L 148.666505 270.22529 
L 149.905214 268.894228 
L 151.103965 263.212698 
L 152.342675 261.231277 
L 153.621343 256.458543 
L 154.860053 247.811446 
L 156.138721 240.148349 
L 157.337472 226.798932 
L 159.814892 193.289507 
L 161.09356 179.620299 
L 162.332269 167.884855 
L 163.570979 164.935119 
L 164.76973 165.28694 
L 166.048398 169.914395 
L 167.287108 178.078629 
L 168.525818 189.930514 
L 169.804486 197.985643 
L 171.043195 203.235214 
L 172.241947 202.353258 
L 173.480656 196.496721 
L 174.759324 193.550214 
L 176.077951 192.753712 
L 177.31666 186.254069 
L 178.675245 184.791175 
L 179.913955 180.889396 
L 181.112706 177.938369 
L 183.630084 173.454809 
L 184.908752 168.650041 
L 186.107503 163.178056 
L 187.306254 164.229407 
L 188.544964 164.831416 
L 189.863591 164.749933 
L 191.062342 166.506243 
L 192.301052 169.025939 
L 193.57972 168.020559 
L 194.778471 170.248755 
L 196.057139 171.346258 
L 197.295849 170.579034 
L 198.574517 163.438732 
L 199.813226 159.996047 
L 201.011978 155.702426 
L 202.290646 151.683701 
L 203.529355 151.037624 
L 204.728107 155.927512 
L 206.006775 155.819457 
L 207.245484 162.255496 
L 208.524152 169.683274 
L 209.722904 175.189244 
L 211.001572 177.315154 
L 212.240281 184.935042 
L 213.518949 189.529151 
L 217.235078 211.396015 
L 218.43383 215.250164 
L 219.712498 221.215975 
L 220.951207 224.915086 
L 222.189917 226.637975 
L 223.468585 230.518429 
L 224.707295 232.528475 
L 225.946004 228.455916 
L 227.144756 228.978015 
L 228.423424 231.343751 
L 229.662133 233.05169 
L 230.900843 236.07313 
L 232.139553 238.153635 
L 233.378262 237.263767 
L 234.65693 241.318276 
L 235.89564 243.840172 
L 237.13435 241.096278 
L 238.373059 235.971432 
L 239.611769 236.896239 
L 240.81052 238.340954 
L 242.089188 238.459533 
L 243.327898 238.934936 
L 244.566608 237.684301 
L 245.805317 239.893469 
L 247.044027 243.845377 
L 248.282737 245.071744 
L 249.481488 247.575667 
L 250.800115 249.156028 
L 252.038824 250.023942 
L 253.317492 247.830208 
L 254.476285 245.320042 
L 255.714995 245.380932 
L 256.993663 246.269465 
L 259.471082 250.804605 
L 260.709792 251.601396 
L 261.908543 253.491113 
L 263.22717 254.919664 
L 265.744547 251.056697 
L 266.943299 250.434086 
L 268.14205 252.554425 
L 269.420718 253.606681 
L 270.659428 255.05745 
L 271.898137 257.373258 
L 273.216764 256.567997 
L 274.455473 256.226745 
L 275.654225 254.508575 
L 276.852976 250.776436 
L 278.131644 247.549925 
L 280.529147 245.046804 
L 281.727898 242.565934 
L 283.086483 244.990035 
L 284.285234 244.404858 
L 285.563902 246.558688 
L 286.762653 245.542486 
L 288.041321 243.880802 
L 289.319989 241.760901 
L 290.558699 237.991804 
L 291.797409 237.402482 
L 293.076077 238.083577 
L 294.354745 239.675583 
L 295.673371 242.013413 
L 296.991998 242.301177 
L 298.270666 245.593845 
L 299.469417 246.553854 
L 300.548293 247.148305 
L 301.866919 247.40524 
L 303.065671 246.644842 
L 304.384297 248.744471 
L 305.623007 252.031675 
L 306.901675 254.424468 
L 308.140385 251.56707 
L 310.657762 243.845054 
L 311.93643 241.161383 
L 313.135182 240.344054 
L 314.41385 239.196192 
L 315.612601 239.617859 
L 316.851311 241.636381 
L 318.129979 243.107598 
L 319.408647 245.960635 
L 320.647356 244.918169 
L 323.124776 238.497163 
L 324.283569 238.58615 
L 325.642153 239.808638 
L 326.800946 240.361637 
L 328.039656 241.955992 
L 330.517075 244.092316 
L 331.795743 246.645443 
L 333.11437 247.655966 
L 334.273163 245.310804 
L 335.471914 245.116971 
L 336.870457 246.800397 
L 338.02925 246.164338 
L 339.347877 246.055016 
L 340.546628 245.6771 
L 343.024047 247.688662 
L 344.18284 249.857619 
L 345.461508 252.52267 
L 346.700218 253.802536 
L 347.898969 254.638658 
L 349.217595 254.84758 
L 351.615098 250.599936 
L 352.893766 249.058326 
L 354.132476 246.802735 
L 355.371185 247.771384 
L 356.609895 249.265206 
L 357.928522 251.33231 
L 359.127273 251.380437 
L 360.365982 254.022414 
L 361.604692 254.883349 
L 362.88336 255.622563 
L 364.082111 256.064344 
L 365.280863 257.767323 
L 366.559531 255.91541 
L 367.838199 257.635159 
L 369.03695 258.834973 
L 370.27566 258.971158 
L 371.634245 261.473466 
L 372.753079 262.572669 
L 374.271497 261.441795 
L 375.630082 262.885245 
L 377.028625 260.667662 
L 378.267335 260.966208 
L 379.506045 255.945183 
L 382.103339 251.918717 
L 383.342049 252.856933 
L 384.5408 256.211149 
L 385.77951 257.862034 
L 387.01822 261.120181 
L 388.296888 263.108759 
L 389.535597 263.188725 
L 390.734349 264.264412 
L 393.331643 262.753957 
L 394.530394 262.883632 
L 395.769104 262.684149 
L 396.967855 264.829576 
L 398.206565 267.792741 
L 399.485233 269.430035 
L 400.644026 268.871322 
L 402.002611 268.348696 
L 403.161404 265.447435 
L 404.519988 265.088235 
L 405.71874 265.045103 
L 406.917491 265.901618 
L 408.196159 266.090654 
L 409.434869 269.008045 
L 410.673578 273.123591 
L 411.87233 273.952441 
L 413.190956 273.032068 
L 414.349749 272.361589 
L 415.748292 270.395187 
L 416.78721 269.997835 
L 419.464421 270.637261 
L 420.583256 271.850909 
L 421.861924 272.808593 
L 423.380342 273.14057 
L 424.499177 269.942538 
L 425.697928 268.744562 
L 426.776804 268.760272 
L 428.015514 268.162768 
L 429.33414 269.658073 
L 430.612808 269.19948 
L 431.811559 269.837978 
L 432.930394 271.128973 
L 434.169104 271.533692 
L 435.48773 270.638895 
L 438.045066 263.947007 
L 440.442569 260.783831 
L 441.761195 260.293073 
L 443.039863 258.550332 
L 444.198656 259.682607 
L 445.397407 261.989875 
L 446.636117 261.780894 
L 447.914785 260.437206 
L 449.113536 257.712487 
L 450.392204 254.109397 
L 451.670872 254.275157 
L 452.789707 252.756609 
L 454.268167 253.045608 
L 455.786585 253.602843 
L 458.38388 257.971943 
L 459.622589 258.489847 
L 460.861299 259.625057 
L 462.179925 259.882083 
L 463.618427 257.097044 
L 464.617386 256.968886 
L 465.776179 253.186369 
L 466.934972 251.076596 
L 468.293557 250.719039 
L 469.532267 251.892678 
L 470.810935 254.166478 
L 472.129561 258.367518 
L 473.328312 260.659583 
L 474.527064 261.320951 
L 475.725815 261.180846 
L 477.124358 263.038335 
L 478.283151 262.716267 
L 479.521861 264.876765 
L 480.800529 267.890704 
L 482.079197 269.346547 
L 483.158073 272.836964 
L 484.636533 276.245299 
L 487.233827 273.794974 
L 488.192828 273.359826 
L 489.351621 272.525327 
L 490.830081 271.152759 
L 492.108749 269.108954 
L 494.30646 262.47496 
L 494.30646 262.47496 
" clip-path="url(#p2c388dde1b)" style="fill: none; stroke: #2ca02c; stroke-width: 2.5; stroke-linecap: square"/>
   </g>
   <g id="patch_3">
    <path d="M 35.624258 303.182656 
L 35.624258 39.679004 
" style="fill: none; stroke: #000000; stroke-width: 1.5; stroke-linejoin: miter; stroke-linecap: square"/>
   </g>
   <g id="patch_4">
    <path d="M 35.624258 303.182656 
L 495.145586 303.182656 
" style="fill: none; stroke: #000000; stroke-width: 1.5; stroke-linejoin: miter; stroke-linecap: square"/>
   </g>
   <g id="text_19">
    <!-- 1421_wo_HF -->
    <g transform="translate(223.750234 18.441699) scale(0.14 -0.14)">
     <defs>
      <path id="ArialMT-42" d="M -97 -1272 
L -97 -866 
L 3631 -866 
L 3631 -1272 
L -97 -1272 
z
" transform="scale(0.015625)"/>
      <path id="ArialMT-5a" d="M 1034 0 
L 19 3319 
L 600 3319 
L 1128 1403 
L 1325 691 
Q 1338 744 1497 1375 
L 2025 3319 
L 2603 3319 
L 3100 1394 
L 3266 759 
L 3456 1400 
L 4025 3319 
L 4572 3319 
L 3534 0 
L 2950 0 
L 2422 1988 
L 2294 2553 
L 1622 0 
L 1034 0 
z
" transform="scale(0.015625)"/>
      <path id="ArialMT-2b" d="M 513 0 
L 513 4581 
L 1119 4581 
L 1119 2700 
L 3500 2700 
L 3500 4581 
L 4106 4581 
L 4106 0 
L 3500 0 
L 3500 2159 
L 1119 2159 
L 1119 0 
L 513 0 
z
" transform="scale(0.015625)"/>
      <path id="ArialMT-29" d="M 525 0 
L 525 4581 
L 3616 4581 
L 3616 4041 
L 1131 4041 
L 1131 2622 
L 3281 2622 
L 3281 2081 
L 1131 2081 
L 1131 0 
L 525 0 
z
" transform="scale(0.015625)"/>
     </defs>
     <use xlink:href="#ArialMT-14"/>
     <use xlink:href="#ArialMT-17" transform="translate(55.609375 0)"/>
     <use xlink:href="#ArialMT-15" transform="translate(111.21875 0)"/>
     <use xlink:href="#ArialMT-14" transform="translate(166.828125 0)"/>
     <use xlink:href="#ArialMT-42" transform="translate(222.4375 0)"/>
     <use xlink:href="#ArialMT-5a" transform="translate(278.046875 0)"/>
     <use xlink:href="#ArialMT-52" transform="translate(350.265625 0)"/>
     <use xlink:href="#ArialMT-42" transform="translate(405.875 0)"/>
     <use xlink:href="#ArialMT-2b" transform="translate(461.484375 0)"/>
     <use xlink:href="#ArialMT-29" transform="translate(533.703125 0)"/>
    </g>
    <!-- m/z 32 -->
    <g transform="translate(244.379453 33.679004) scale(0.14 -0.14)">
     <use xlink:href="#ArialMT-50"/>
     <use xlink:href="#ArialMT-12" transform="translate(83.296875 0)"/>
     <use xlink:href="#ArialMT-5d" transform="translate(111.078125 0)"/>
     <use xlink:href="#ArialMT-3" transform="translate(161.078125 0)"/>
     <use xlink:href="#ArialMT-16" transform="translate(188.859375 0)"/>
     <use xlink:href="#ArialMT-15" transform="translate(244.46875 0)"/>
    </g>
   </g>
   <g id="legend_1">
    <g id="line2d_22">
     <path d="M 513.336012 52.459277 
L 523.336012 52.459277 
L 533.336012 52.459277 
" style="fill: none; stroke: #000000; stroke-width: 2.5; stroke-linecap: square"/>
    </g>
    <g id="text_20">
     <!-- 0 h -->
     <g transform="translate(541.336012 55.959277) scale(0.1 -0.1)">
      <defs>
       <path id="ArialMT-4b" d="M 422 0 
L 422 4581 
L 984 4581 
L 984 2938 
Q 1378 3394 1978 3394 
Q 2347 3394 2619 3248 
Q 2891 3103 3008 2847 
Q 3125 2591 3125 2103 
L 3125 0 
L 2563 0 
L 2563 2103 
Q 2563 2525 2380 2717 
Q 2197 2909 1863 2909 
Q 1613 2909 1392 2779 
Q 1172 2650 1078 2428 
Q 984 2206 984 1816 
L 984 0 
L 422 0 
z
" transform="scale(0.015625)"/>
      </defs>
      <use xlink:href="#ArialMT-13"/>
      <use xlink:href="#ArialMT-3" transform="translate(55.609375 0)"/>
      <use xlink:href="#ArialMT-4b" transform="translate(83.390625 0)"/>
     </g>
    </g>
    <g id="line2d_23">
     <path d="M 513.336012 66.844043 
L 523.336012 66.844043 
L 533.336012 66.844043 
" style="fill: none; stroke: #1f77b4; stroke-width: 2.5; stroke-linecap: square"/>
    </g>
    <g id="text_21">
     <!-- 6 h -->
     <g transform="translate(541.336012 70.344043) scale(0.1 -0.1)">
      <use xlink:href="#ArialMT-19"/>
      <use xlink:href="#ArialMT-3" transform="translate(55.609375 0)"/>
      <use xlink:href="#ArialMT-4b" transform="translate(83.390625 0)"/>
     </g>
    </g>
    <g id="line2d_24">
     <path d="M 513.336012 81.228809 
L 523.336012 81.228809 
L 533.336012 81.228809 
" style="fill: none; stroke: #d62728; stroke-width: 2.5; stroke-linecap: square"/>
    </g>
    <g id="text_22">
     <!-- 24 h -->
     <g transform="translate(541.336012 84.728809) scale(0.1 -0.1)">
      <use xlink:href="#ArialMT-15"/>
      <use xlink:href="#ArialMT-17" transform="translate(55.609375 0)"/>
      <use xlink:href="#ArialMT-3" transform="translate(111.21875 0)"/>
      <use xlink:href="#ArialMT-4b" transform="translate(139 0)"/>
     </g>
    </g>
    <g id="line2d_25">
     <path d="M 513.336012 95.613574 
L 523.336012 95.613574 
L 533.336012 95.613574 
" style="fill: none; stroke: #ff7f0e; stroke-width: 2.5; stroke-linecap: square"/>
    </g>
    <g id="text_23">
     <!-- 7 d -->
     <g transform="translate(541.336012 99.113574) scale(0.1 -0.1)">
      <defs>
       <path id="ArialMT-47" d="M 2575 0 
L 2575 419 
Q 2259 -75 1647 -75 
Q 1250 -75 917 144 
Q 584 363 401 755 
Q 219 1147 219 1656 
Q 219 2153 384 2558 
Q 550 2963 881 3178 
Q 1213 3394 1622 3394 
Q 1922 3394 2156 3267 
Q 2391 3141 2538 2938 
L 2538 4581 
L 3097 4581 
L 3097 0 
L 2575 0 
z
M 797 1656 
Q 797 1019 1065 703 
Q 1334 388 1700 388 
Q 2069 388 2326 689 
Q 2584 991 2584 1609 
Q 2584 2291 2321 2609 
Q 2059 2928 1675 2928 
Q 1300 2928 1048 2622 
Q 797 2316 797 1656 
z
" transform="scale(0.015625)"/>
      </defs>
      <use xlink:href="#ArialMT-1a"/>
      <use xlink:href="#ArialMT-3" transform="translate(55.609375 0)"/>
      <use xlink:href="#ArialMT-47" transform="translate(83.390625 0)"/>
     </g>
    </g>
    <g id="line2d_26">
     <path d="M 513.336012 109.99834 
L 523.336012 109.99834 
L 533.336012 109.99834 
" style="fill: none; stroke: #9467bd; stroke-width: 2.5; stroke-linecap: square"/>
    </g>
    <g id="text_24">
     <!-- 14 d -->
     <g transform="translate(541.336012 113.49834) scale(0.1 -0.1)">
      <use xlink:href="#ArialMT-14"/>
      <use xlink:href="#ArialMT-17" transform="translate(55.609375 0)"/>
      <use xlink:href="#ArialMT-3" transform="translate(111.21875 0)"/>
      <use xlink:href="#ArialMT-47" transform="translate(139 0)"/>
     </g>
    </g>
    <g id="line2d_27">
     <path d="M 513.336012 124.383105 
L 523.336012 124.383105 
L 533.336012 124.383105 
" style="fill: none; stroke: #2ca02c; stroke-width: 2.5; stroke-linecap: square"/>
    </g>
    <g id="text_25">
     <!-- 28 d -->
     <g transform="translate(541.336012 127.883105) scale(0.1 -0.1)">
      <use xlink:href="#ArialMT-15"/>
      <use xlink:href="#ArialMT-1b" transform="translate(55.609375 0)"/>
      <use xlink:href="#ArialMT-3" transform="translate(111.21875 0)"/>
      <use xlink:href="#ArialMT-47" transform="translate(139 0)"/>
     </g>
    </g>
   </g>
  </g>
 </g>
 <defs>
  <clipPath id="p2c388dde1b">
   <rect x="35.624258" y="39.679004" width="459.521328" height="263.503652"/>
  </clipPath>
 </defs>
</svg>
