<?xml version="1.0" encoding="utf-8" standalone="no"?>
<!DOCTYPE svg PUBLIC "-//W3C//DTD SVG 1.1//EN"
  "http://www.w3.org/Graphics/SVG/1.1/DTD/svg11.dtd">
<svg xmlns:xlink="http://www.w3.org/1999/xlink" width="571.87295pt" height="344.160273pt" viewBox="0 0 571.87295 344.160273" xmlns="http://www.w3.org/2000/svg" version="1.1">
 <metadata>
  <rdf:RDF xmlns:dc="http://purl.org/dc/elements/1.1/" xmlns:cc="http://creativecommons.org/ns#" xmlns:rdf="http://www.w3.org/1999/02/22-rdf-syntax-ns#">
   <cc:Work>
    <dc:type rdf:resource="http://purl.org/dc/dcmitype/StillImage"/>
    <dc:date>2026-07-10T11:48:37.367090</dc:date>
    <dc:format>image/svg+xml</dc:format>
    <dc:creator>
     <cc:Agent>
      <dc:title>Matplotlib v3.11.0, https://matplotlib.org/</dc:title>
     </cc:Agent>
    </dc:creator>
   </cc:Work>
  </rdf:RDF>
 </metadata>
 <defs>
  <style type="text/css">*{stroke-linejoin: round; stroke-linecap: butt}</style>
 </defs>
 <g id="figure_1">
  <g id="patch_1">
   <path d="M 0 344.160273 
L 571.87295 344.160273 
L 571.87295 0 
L 0 0 
z
" style="fill: #ffffff"/>
  </g>
  <g id="axes_1">
   <g id="patch_2">
    <path d="M 55.084258 303.182656 
L 495.405586 303.182656 
L 495.405586 39.679004 
L 55.084258 39.679004 
z
" style="fill: #ffffff"/>
   </g>
   <g id="matplotlib.axis_1">
    <g id="xtick_1">
     <g id="line2d_1">
      <defs>
       <path id="m6fee4289b3" d="M 0 0 
L 0 -6 
" style="stroke: #000000; stroke-width: 0.8"/>
      </defs>
      <g>
       <use xlink:href="#m6fee4289b3" x="112.517475" y="303.182656" style="stroke: #000000; stroke-width: 0.8"/>
      </g>
     </g>
     <g id="text_1">
      <!-- 200 -->
      <g transform="translate(100.839506 316.875039) scale(0.14 -0.14)">
       <defs>
        <path id="ArialMT-15" d="M 3222 541 
L 3222 0 
L 194 0 
Q 188 203 259 391 
Q 375 700 629 1000 
Q 884 1300 1366 1694 
Q 2113 2306 2375 2664 
Q 2638 3022 2638 3341 
Q 2638 3675 2398 3904 
Q 2159 4134 1775 4134 
Q 1369 4134 1125 3890 
Q 881 3647 878 3216 
L 300 3275 
Q 359 3922 746 4261 
Q 1134 4600 1788 4600 
Q 2447 4600 2831 4234 
Q 3216 3869 3216 3328 
Q 3216 3053 3103 2787 
Q 2991 2522 2730 2228 
Q 2469 1934 1863 1422 
Q 1356 997 1212 845 
Q 1069 694 975 541 
L 3222 541 
z
" transform="scale(0.015625)"/>
        <path id="ArialMT-13" d="M 266 2259 
Q 266 3072 433 3567 
Q 600 4063 929 4331 
Q 1259 4600 1759 4600 
Q 2128 4600 2406 4451 
Q 2684 4303 2865 4023 
Q 3047 3744 3150 3342 
Q 3253 2941 3253 2259 
Q 3253 1453 3087 958 
Q 2922 463 2592 192 
Q 2263 -78 1759 -78 
Q 1097 -78 719 397 
Q 266 969 266 2259 
z
M 844 2259 
Q 844 1131 1108 757 
Q 1372 384 1759 384 
Q 2147 384 2411 759 
Q 2675 1134 2675 2259 
Q 2675 3391 2411 3762 
Q 2147 4134 1753 4134 
Q 1366 4134 1134 3806 
Q 844 3388 844 2259 
z
" transform="scale(0.015625)"/>
       </defs>
       <use xlink:href="#ArialMT-15"/>
       <use xlink:href="#ArialMT-13" transform="translate(55.609375 0)"/>
       <use xlink:href="#ArialMT-13" transform="translate(111.21875 0)"/>
      </g>
     </g>
    </g>
    <g id="xtick_2">
     <g id="line2d_2">
      <g>
       <use xlink:href="#m6fee4289b3" x="189.095097" y="303.182656" style="stroke: #000000; stroke-width: 0.8"/>
      </g>
     </g>
     <g id="text_2">
      <!-- 400 -->
      <g transform="translate(177.417128 316.875039) scale(0.14 -0.14)">
       <defs>
        <path id="ArialMT-17" d="M 2069 0 
L 2069 1097 
L 81 1097 
L 81 1613 
L 2172 4581 
L 2631 4581 
L 2631 1613 
L 3250 1613 
L 3250 1097 
L 2631 1097 
L 2631 0 
L 2069 0 
z
M 2069 1613 
L 2069 3678 
L 634 1613 
L 2069 1613 
z
" transform="scale(0.015625)"/>
       </defs>
       <use xlink:href="#ArialMT-17"/>
       <use xlink:href="#ArialMT-13" transform="translate(55.609375 0)"/>
       <use xlink:href="#ArialMT-13" transform="translate(111.21875 0)"/>
      </g>
     </g>
    </g>
    <g id="xtick_3">
     <g id="line2d_3">
      <g>
       <use xlink:href="#m6fee4289b3" x="265.672719" y="303.182656" style="stroke: #000000; stroke-width: 0.8"/>
      </g>
     </g>
     <g id="text_3">
      <!-- 600 -->
      <g transform="translate(253.99475 316.875039) scale(0.14 -0.14)">
       <defs>
        <path id="ArialMT-19" d="M 3184 3459 
L 2625 3416 
Q 2550 3747 2413 3897 
Q 2184 4138 1850 4138 
Q 1581 4138 1378 3988 
Q 1113 3794 959 3422 
Q 806 3050 800 2363 
Q 1003 2672 1297 2822 
Q 1591 2972 1913 2972 
Q 2475 2972 2870 2558 
Q 3266 2144 3266 1488 
Q 3266 1056 3080 686 
Q 2894 316 2569 119 
Q 2244 -78 1831 -78 
Q 1128 -78 684 439 
Q 241 956 241 2144 
Q 241 3472 731 4075 
Q 1159 4600 1884 4600 
Q 2425 4600 2770 4297 
Q 3116 3994 3184 3459 
z
M 888 1484 
Q 888 1194 1011 928 
Q 1134 663 1356 523 
Q 1578 384 1822 384 
Q 2178 384 2434 671 
Q 2691 959 2691 1453 
Q 2691 1928 2437 2201 
Q 2184 2475 1800 2475 
Q 1419 2475 1153 2201 
Q 888 1928 888 1484 
z
" transform="scale(0.015625)"/>
       </defs>
       <use xlink:href="#ArialMT-19"/>
       <use xlink:href="#ArialMT-13" transform="translate(55.609375 0)"/>
       <use xlink:href="#ArialMT-13" transform="translate(111.21875 0)"/>
      </g>
     </g>
    </g>
    <g id="xtick_4">
     <g id="line2d_4">
      <g>
       <use xlink:href="#m6fee4289b3" x="342.250341" y="303.182656" style="stroke: #000000; stroke-width: 0.8"/>
      </g>
     </g>
     <g id="text_4">
      <!-- 800 -->
      <g transform="translate(330.572373 316.875039) scale(0.14 -0.14)">
       <defs>
        <path id="ArialMT-1b" d="M 1131 2484 
Q 781 2613 612 2850 
Q 444 3088 444 3419 
Q 444 3919 803 4259 
Q 1163 4600 1759 4600 
Q 2359 4600 2725 4251 
Q 3091 3903 3091 3403 
Q 3091 3084 2923 2848 
Q 2756 2613 2416 2484 
Q 2838 2347 3058 2040 
Q 3278 1734 3278 1309 
Q 3278 722 2862 322 
Q 2447 -78 1769 -78 
Q 1091 -78 675 323 
Q 259 725 259 1325 
Q 259 1772 486 2073 
Q 713 2375 1131 2484 
z
M 1019 3438 
Q 1019 3113 1228 2906 
Q 1438 2700 1772 2700 
Q 2097 2700 2305 2904 
Q 2513 3109 2513 3406 
Q 2513 3716 2298 3927 
Q 2084 4138 1766 4138 
Q 1444 4138 1231 3931 
Q 1019 3725 1019 3438 
z
M 838 1322 
Q 838 1081 952 856 
Q 1066 631 1291 507 
Q 1516 384 1775 384 
Q 2178 384 2440 643 
Q 2703 903 2703 1303 
Q 2703 1709 2433 1975 
Q 2163 2241 1756 2241 
Q 1359 2241 1098 1978 
Q 838 1716 838 1322 
z
" transform="scale(0.015625)"/>
       </defs>
       <use xlink:href="#ArialMT-1b"/>
       <use xlink:href="#ArialMT-13" transform="translate(55.609375 0)"/>
       <use xlink:href="#ArialMT-13" transform="translate(111.21875 0)"/>
      </g>
     </g>
    </g>
    <g id="xtick_5">
     <g id="line2d_5">
      <g>
       <use xlink:href="#m6fee4289b3" x="418.827964" y="303.182656" style="stroke: #000000; stroke-width: 0.8"/>
      </g>
     </g>
     <g id="text_5">
      <!-- 1000 -->
      <g transform="translate(403.257339 316.875039) scale(0.14 -0.14)">
       <defs>
        <path id="ArialMT-14" d="M 2384 0 
L 1822 0 
L 1822 3584 
Q 1619 3391 1289 3197 
Q 959 3003 697 2906 
L 697 3450 
Q 1169 3672 1522 3987 
Q 1875 4303 2022 4600 
L 2384 4600 
L 2384 0 
z
" transform="scale(0.015625)"/>
       </defs>
       <use xlink:href="#ArialMT-14"/>
       <use xlink:href="#ArialMT-13" transform="translate(55.609375 0)"/>
       <use xlink:href="#ArialMT-13" transform="translate(111.21875 0)"/>
       <use xlink:href="#ArialMT-13" transform="translate(166.828125 0)"/>
      </g>
     </g>
    </g>
    <g id="xtick_6">
     <g id="line2d_6">
      <g>
       <use xlink:href="#m6fee4289b3" x="495.405586" y="303.182656" style="stroke: #000000; stroke-width: 0.8"/>
      </g>
     </g>
     <g id="text_6">
      <!-- 1200 -->
      <g transform="translate(479.834961 316.875039) scale(0.14 -0.14)">
       <use xlink:href="#ArialMT-14"/>
       <use xlink:href="#ArialMT-15" transform="translate(55.609375 0)"/>
       <use xlink:href="#ArialMT-13" transform="translate(111.21875 0)"/>
       <use xlink:href="#ArialMT-13" transform="translate(166.828125 0)"/>
      </g>
     </g>
    </g>
    <g id="text_7">
     <!-- T1 Temperature (°C) -->
     <g transform="translate(211.505547 334.013711) scale(0.14 -0.14)">
      <defs>
       <path id="ArialMT-37" d="M 1659 0 
L 1659 4041 
L 150 4041 
L 150 4581 
L 3781 4581 
L 3781 4041 
L 2266 4041 
L 2266 0 
L 1659 0 
z
" transform="scale(0.015625)"/>
       <path id="ArialMT-3" transform="scale(0.015625)"/>
       <path id="ArialMT-48" d="M 2694 1069 
L 3275 997 
Q 3138 488 2766 206 
Q 2394 -75 1816 -75 
Q 1088 -75 661 373 
Q 234 822 234 1631 
Q 234 2469 665 2931 
Q 1097 3394 1784 3394 
Q 2450 3394 2872 2941 
Q 3294 2488 3294 1666 
Q 3294 1616 3291 1516 
L 816 1516 
Q 847 969 1125 678 
Q 1403 388 1819 388 
Q 2128 388 2347 550 
Q 2566 713 2694 1069 
z
M 847 1978 
L 2700 1978 
Q 2663 2397 2488 2606 
Q 2219 2931 1791 2931 
Q 1403 2931 1139 2672 
Q 875 2413 847 1978 
z
" transform="scale(0.015625)"/>
       <path id="ArialMT-50" d="M 422 0 
L 422 3319 
L 925 3319 
L 925 2853 
Q 1081 3097 1340 3245 
Q 1600 3394 1931 3394 
Q 2300 3394 2536 3241 
Q 2772 3088 2869 2813 
Q 3263 3394 3894 3394 
Q 4388 3394 4653 3120 
Q 4919 2847 4919 2278 
L 4919 0 
L 4359 0 
L 4359 2091 
Q 4359 2428 4304 2576 
Q 4250 2725 4106 2815 
Q 3963 2906 3769 2906 
Q 3419 2906 3187 2673 
Q 2956 2441 2956 1928 
L 2956 0 
L 2394 0 
L 2394 2156 
Q 2394 2531 2256 2718 
Q 2119 2906 1806 2906 
Q 1569 2906 1367 2781 
Q 1166 2656 1075 2415 
Q 984 2175 984 1722 
L 984 0 
L 422 0 
z
" transform="scale(0.015625)"/>
       <path id="ArialMT-53" d="M 422 -1272 
L 422 3319 
L 934 3319 
L 934 2888 
Q 1116 3141 1344 3267 
Q 1572 3394 1897 3394 
Q 2322 3394 2647 3175 
Q 2972 2956 3137 2557 
Q 3303 2159 3303 1684 
Q 3303 1175 3120 767 
Q 2938 359 2589 142 
Q 2241 -75 1856 -75 
Q 1575 -75 1351 44 
Q 1128 163 984 344 
L 984 -1272 
L 422 -1272 
z
M 931 1641 
Q 931 1000 1190 694 
Q 1450 388 1819 388 
Q 2194 388 2461 705 
Q 2728 1022 2728 1688 
Q 2728 2322 2467 2637 
Q 2206 2953 1844 2953 
Q 1484 2953 1207 2617 
Q 931 2281 931 1641 
z
" transform="scale(0.015625)"/>
       <path id="ArialMT-55" d="M 416 0 
L 416 3319 
L 922 3319 
L 922 2816 
Q 1116 3169 1280 3281 
Q 1444 3394 1641 3394 
Q 1925 3394 2219 3213 
L 2025 2691 
Q 1819 2813 1613 2813 
Q 1428 2813 1281 2702 
Q 1134 2591 1072 2394 
Q 978 2094 978 1738 
L 978 0 
L 416 0 
z
" transform="scale(0.015625)"/>
       <path id="ArialMT-44" d="M 2588 409 
Q 2275 144 1986 34 
Q 1697 -75 1366 -75 
Q 819 -75 525 192 
Q 231 459 231 875 
Q 231 1119 342 1320 
Q 453 1522 633 1644 
Q 813 1766 1038 1828 
Q 1203 1872 1538 1913 
Q 2219 1994 2541 2106 
Q 2544 2222 2544 2253 
Q 2544 2597 2384 2738 
Q 2169 2928 1744 2928 
Q 1347 2928 1158 2789 
Q 969 2650 878 2297 
L 328 2372 
Q 403 2725 575 2942 
Q 747 3159 1072 3276 
Q 1397 3394 1825 3394 
Q 2250 3394 2515 3294 
Q 2781 3194 2906 3042 
Q 3031 2891 3081 2659 
Q 3109 2516 3109 2141 
L 3109 1391 
Q 3109 606 3145 398 
Q 3181 191 3288 0 
L 2700 0 
Q 2613 175 2588 409 
z
M 2541 1666 
Q 2234 1541 1622 1453 
Q 1275 1403 1131 1340 
Q 988 1278 909 1158 
Q 831 1038 831 891 
Q 831 666 1001 516 
Q 1172 366 1500 366 
Q 1825 366 2078 508 
Q 2331 650 2450 897 
Q 2541 1088 2541 1459 
L 2541 1666 
z
" transform="scale(0.015625)"/>
       <path id="ArialMT-57" d="M 1650 503 
L 1731 6 
Q 1494 -44 1306 -44 
Q 1000 -44 831 53 
Q 663 150 594 308 
Q 525 466 525 972 
L 525 2881 
L 113 2881 
L 113 3319 
L 525 3319 
L 525 4141 
L 1084 4478 
L 1084 3319 
L 1650 3319 
L 1650 2881 
L 1084 2881 
L 1084 941 
Q 1084 700 1114 631 
Q 1144 563 1211 522 
Q 1278 481 1403 481 
Q 1497 481 1650 503 
z
" transform="scale(0.015625)"/>
       <path id="ArialMT-58" d="M 2597 0 
L 2597 488 
Q 2209 -75 1544 -75 
Q 1250 -75 995 37 
Q 741 150 617 320 
Q 494 491 444 738 
Q 409 903 409 1263 
L 409 3319 
L 972 3319 
L 972 1478 
Q 972 1038 1006 884 
Q 1059 663 1231 536 
Q 1403 409 1656 409 
Q 1909 409 2131 539 
Q 2353 669 2445 892 
Q 2538 1116 2538 1541 
L 2538 3319 
L 3100 3319 
L 3100 0 
L 2597 0 
z
" transform="scale(0.015625)"/>
       <path id="ArialMT-b" d="M 1497 -1347 
Q 1031 -759 709 28 
Q 388 816 388 1659 
Q 388 2403 628 3084 
Q 909 3875 1497 4659 
L 1900 4659 
Q 1522 4009 1400 3731 
Q 1209 3300 1100 2831 
Q 966 2247 966 1656 
Q 966 153 1900 -1347 
L 1497 -1347 
z
" transform="scale(0.015625)"/>
       <path id="ArialMT-83" d="M 400 3794 
Q 400 4153 654 4406 
Q 909 4659 1266 4659 
Q 1628 4659 1881 4406 
Q 2134 4153 2134 3794 
Q 2134 3434 1879 3179 
Q 1625 2925 1266 2925 
Q 909 2925 654 3178 
Q 400 3431 400 3794 
z
M 741 3794 
Q 741 3575 895 3420 
Q 1050 3266 1269 3266 
Q 1484 3266 1639 3420 
Q 1794 3575 1794 3794 
Q 1794 4013 1639 4167 
Q 1484 4322 1269 4322 
Q 1050 4322 895 4167 
Q 741 4013 741 3794 
z
" transform="scale(0.015625)"/>
       <path id="ArialMT-26" d="M 3763 1606 
L 4369 1453 
Q 4178 706 3683 314 
Q 3188 -78 2472 -78 
Q 1731 -78 1267 223 
Q 803 525 561 1097 
Q 319 1669 319 2325 
Q 319 3041 592 3573 
Q 866 4106 1370 4382 
Q 1875 4659 2481 4659 
Q 3169 4659 3637 4309 
Q 4106 3959 4291 3325 
L 3694 3184 
Q 3534 3684 3231 3912 
Q 2928 4141 2469 4141 
Q 1941 4141 1586 3887 
Q 1231 3634 1087 3207 
Q 944 2781 944 2328 
Q 944 1744 1114 1308 
Q 1284 872 1643 656 
Q 2003 441 2422 441 
Q 2931 441 3284 734 
Q 3638 1028 3763 1606 
z
" transform="scale(0.015625)"/>
       <path id="ArialMT-c" d="M 791 -1347 
L 388 -1347 
Q 1322 153 1322 1656 
Q 1322 2244 1188 2822 
Q 1081 3291 891 3722 
Q 769 4003 388 4659 
L 791 4659 
Q 1378 3875 1659 3084 
Q 1900 2403 1900 1659 
Q 1900 816 1576 28 
Q 1253 -759 791 -1347 
z
" transform="scale(0.015625)"/>
      </defs>
      <use xlink:href="#ArialMT-37"/>
      <use xlink:href="#ArialMT-14" transform="translate(61.078125 0)"/>
      <use xlink:href="#ArialMT-3" transform="translate(116.6875 0)"/>
      <use xlink:href="#ArialMT-37" transform="translate(142.65625 0)"/>
      <use xlink:href="#ArialMT-48" transform="translate(192.65625 0)"/>
      <use xlink:href="#ArialMT-50" transform="translate(248.265625 0)"/>
      <use xlink:href="#ArialMT-53" transform="translate(331.5625 0)"/>
      <use xlink:href="#ArialMT-48" transform="translate(387.171875 0)"/>
      <use xlink:href="#ArialMT-55" transform="translate(442.78125 0)"/>
      <use xlink:href="#ArialMT-44" transform="translate(476.078125 0)"/>
      <use xlink:href="#ArialMT-57" transform="translate(531.6875 0)"/>
      <use xlink:href="#ArialMT-58" transform="translate(559.46875 0)"/>
      <use xlink:href="#ArialMT-55" transform="translate(615.078125 0)"/>
      <use xlink:href="#ArialMT-48" transform="translate(648.375 0)"/>
      <use xlink:href="#ArialMT-3" transform="translate(703.984375 0)"/>
      <use xlink:href="#ArialMT-b" transform="translate(731.765625 0)"/>
      <use xlink:href="#ArialMT-83" transform="translate(765.0625 0)"/>
      <use xlink:href="#ArialMT-26" transform="translate(805.046875 0)"/>
      <use xlink:href="#ArialMT-c" transform="translate(877.265625 0)"/>
     </g>
    </g>
   </g>
   <g id="matplotlib.axis_2">
    <g id="ytick_1">
     <g id="line2d_7">
      <defs>
       <path id="mda7220a43f" d="M 0 0 
L 6 0 
" style="stroke: #000000; stroke-width: 0.8"/>
      </defs>
      <g>
       <use xlink:href="#mda7220a43f" x="55.084258" y="291.519099" style="stroke: #000000; stroke-width: 0.8"/>
      </g>
     </g>
     <g id="text_8">
      <!-- 0.00 -->
      <g transform="translate(24.338945 296.61529) scale(0.14 -0.14)">
       <defs>
        <path id="ArialMT-11" d="M 581 0 
L 581 641 
L 1222 641 
L 1222 0 
L 581 0 
z
" transform="scale(0.015625)"/>
       </defs>
       <use xlink:href="#ArialMT-13"/>
       <use xlink:href="#ArialMT-11" transform="translate(55.609375 0)"/>
       <use xlink:href="#ArialMT-13" transform="translate(83.390625 0)"/>
       <use xlink:href="#ArialMT-13" transform="translate(139 0)"/>
      </g>
     </g>
    </g>
    <g id="ytick_2">
     <g id="line2d_8">
      <g>
       <use xlink:href="#mda7220a43f" x="55.084258" y="260.776403" style="stroke: #000000; stroke-width: 0.8"/>
      </g>
     </g>
     <g id="text_9">
      <!-- 0.25 -->
      <g transform="translate(24.338945 265.872595) scale(0.14 -0.14)">
       <defs>
        <path id="ArialMT-18" d="M 266 1200 
L 856 1250 
Q 922 819 1161 601 
Q 1400 384 1738 384 
Q 2144 384 2425 690 
Q 2706 997 2706 1503 
Q 2706 1984 2436 2262 
Q 2166 2541 1728 2541 
Q 1456 2541 1237 2417 
Q 1019 2294 894 2097 
L 366 2166 
L 809 4519 
L 3088 4519 
L 3088 3981 
L 1259 3981 
L 1013 2750 
Q 1425 3038 1878 3038 
Q 2478 3038 2890 2622 
Q 3303 2206 3303 1553 
Q 3303 931 2941 478 
Q 2500 -78 1738 -78 
Q 1113 -78 717 272 
Q 322 622 266 1200 
z
" transform="scale(0.015625)"/>
       </defs>
       <use xlink:href="#ArialMT-13"/>
       <use xlink:href="#ArialMT-11" transform="translate(55.609375 0)"/>
       <use xlink:href="#ArialMT-15" transform="translate(83.390625 0)"/>
       <use xlink:href="#ArialMT-18" transform="translate(139 0)"/>
      </g>
     </g>
    </g>
    <g id="ytick_3">
     <g id="line2d_9">
      <g>
       <use xlink:href="#mda7220a43f" x="55.084258" y="230.033708" style="stroke: #000000; stroke-width: 0.8"/>
      </g>
     </g>
     <g id="text_10">
      <!-- 0.50 -->
      <g transform="translate(24.338945 235.1299) scale(0.14 -0.14)">
       <use xlink:href="#ArialMT-13"/>
       <use xlink:href="#ArialMT-11" transform="translate(55.609375 0)"/>
       <use xlink:href="#ArialMT-18" transform="translate(83.390625 0)"/>
       <use xlink:href="#ArialMT-13" transform="translate(139 0)"/>
      </g>
     </g>
    </g>
    <g id="ytick_4">
     <g id="line2d_10">
      <g>
       <use xlink:href="#mda7220a43f" x="55.084258" y="199.291013" style="stroke: #000000; stroke-width: 0.8"/>
      </g>
     </g>
     <g id="text_11">
      <!-- 0.75 -->
      <g transform="translate(24.338945 204.387204) scale(0.14 -0.14)">
       <defs>
        <path id="ArialMT-1a" d="M 303 3981 
L 303 4522 
L 3269 4522 
L 3269 4084 
Q 2831 3619 2401 2847 
Q 1972 2075 1738 1259 
Q 1569 684 1522 0 
L 944 0 
Q 953 541 1156 1306 
Q 1359 2072 1739 2783 
Q 2119 3494 2547 3981 
L 303 3981 
z
" transform="scale(0.015625)"/>
       </defs>
       <use xlink:href="#ArialMT-13"/>
       <use xlink:href="#ArialMT-11" transform="translate(55.609375 0)"/>
       <use xlink:href="#ArialMT-1a" transform="translate(83.390625 0)"/>
       <use xlink:href="#ArialMT-18" transform="translate(139 0)"/>
      </g>
     </g>
    </g>
    <g id="ytick_5">
     <g id="line2d_11">
      <g>
       <use xlink:href="#mda7220a43f" x="55.084258" y="168.548317" style="stroke: #000000; stroke-width: 0.8"/>
      </g>
     </g>
     <g id="text_12">
      <!-- 1.00 -->
      <g transform="translate(24.338945 173.644509) scale(0.14 -0.14)">
       <use xlink:href="#ArialMT-14"/>
       <use xlink:href="#ArialMT-11" transform="translate(55.609375 0)"/>
       <use xlink:href="#ArialMT-13" transform="translate(83.390625 0)"/>
       <use xlink:href="#ArialMT-13" transform="translate(139 0)"/>
      </g>
     </g>
    </g>
    <g id="ytick_6">
     <g id="line2d_12">
      <g>
       <use xlink:href="#mda7220a43f" x="55.084258" y="137.805622" style="stroke: #000000; stroke-width: 0.8"/>
      </g>
     </g>
     <g id="text_13">
      <!-- 1.25 -->
      <g transform="translate(24.338945 142.901813) scale(0.14 -0.14)">
       <use xlink:href="#ArialMT-14"/>
       <use xlink:href="#ArialMT-11" transform="translate(55.609375 0)"/>
       <use xlink:href="#ArialMT-15" transform="translate(83.390625 0)"/>
       <use xlink:href="#ArialMT-18" transform="translate(139 0)"/>
      </g>
     </g>
    </g>
    <g id="ytick_7">
     <g id="line2d_13">
      <g>
       <use xlink:href="#mda7220a43f" x="55.084258" y="107.062927" style="stroke: #000000; stroke-width: 0.8"/>
      </g>
     </g>
     <g id="text_14">
      <!-- 1.50 -->
      <g transform="translate(24.338945 112.159118) scale(0.14 -0.14)">
       <use xlink:href="#ArialMT-14"/>
       <use xlink:href="#ArialMT-11" transform="translate(55.609375 0)"/>
       <use xlink:href="#ArialMT-18" transform="translate(83.390625 0)"/>
       <use xlink:href="#ArialMT-13" transform="translate(139 0)"/>
      </g>
     </g>
    </g>
    <g id="ytick_8">
     <g id="line2d_14">
      <g>
       <use xlink:href="#mda7220a43f" x="55.084258" y="76.320231" style="stroke: #000000; stroke-width: 0.8"/>
      </g>
     </g>
     <g id="text_15">
      <!-- 1.75 -->
      <g transform="translate(24.338945 81.416423) scale(0.14 -0.14)">
       <use xlink:href="#ArialMT-14"/>
       <use xlink:href="#ArialMT-11" transform="translate(55.609375 0)"/>
       <use xlink:href="#ArialMT-1a" transform="translate(83.390625 0)"/>
       <use xlink:href="#ArialMT-18" transform="translate(139 0)"/>
      </g>
     </g>
    </g>
    <g id="ytick_9">
     <g id="line2d_15">
      <g>
       <use xlink:href="#mda7220a43f" x="55.084258" y="45.577536" style="stroke: #000000; stroke-width: 0.8"/>
      </g>
     </g>
     <g id="text_16">
      <!-- 2.00 -->
      <g transform="translate(24.338945 50.673727) scale(0.14 -0.14)">
       <use xlink:href="#ArialMT-15"/>
       <use xlink:href="#ArialMT-11" transform="translate(55.609375 0)"/>
       <use xlink:href="#ArialMT-13" transform="translate(83.390625 0)"/>
       <use xlink:href="#ArialMT-13" transform="translate(139 0)"/>
      </g>
     </g>
    </g>
    <g id="text_17">
     <!-- Ion Current (m/z 44) -->
     <g transform="translate(17.392383 234.056768) rotate(-90) scale(0.14 -0.14)">
      <defs>
       <path id="ArialMT-2c" d="M 597 0 
L 597 4581 
L 1203 4581 
L 1203 0 
L 597 0 
z
" transform="scale(0.015625)"/>
       <path id="ArialMT-52" d="M 213 1659 
Q 213 2581 725 3025 
Q 1153 3394 1769 3394 
Q 2453 3394 2887 2945 
Q 3322 2497 3322 1706 
Q 3322 1066 3130 698 
Q 2938 331 2570 128 
Q 2203 -75 1769 -75 
Q 1072 -75 642 372 
Q 213 819 213 1659 
z
M 791 1659 
Q 791 1022 1069 705 
Q 1347 388 1769 388 
Q 2188 388 2466 706 
Q 2744 1025 2744 1678 
Q 2744 2294 2464 2611 
Q 2184 2928 1769 2928 
Q 1347 2928 1069 2612 
Q 791 2297 791 1659 
z
" transform="scale(0.015625)"/>
       <path id="ArialMT-51" d="M 422 0 
L 422 3319 
L 928 3319 
L 928 2847 
Q 1294 3394 1984 3394 
Q 2284 3394 2536 3286 
Q 2788 3178 2913 3003 
Q 3038 2828 3088 2588 
Q 3119 2431 3119 2041 
L 3119 0 
L 2556 0 
L 2556 2019 
Q 2556 2363 2490 2533 
Q 2425 2703 2258 2804 
Q 2091 2906 1866 2906 
Q 1506 2906 1245 2678 
Q 984 2450 984 1813 
L 984 0 
L 422 0 
z
" transform="scale(0.015625)"/>
       <path id="ArialMT-12" d="M 0 -78 
L 1328 4659 
L 1778 4659 
L 453 -78 
L 0 -78 
z
" transform="scale(0.015625)"/>
       <path id="ArialMT-5d" d="M 125 0 
L 125 456 
L 2238 2881 
Q 1878 2863 1603 2863 
L 250 2863 
L 250 3319 
L 2963 3319 
L 2963 2947 
L 1166 841 
L 819 456 
Q 1197 484 1528 484 
L 3063 484 
L 3063 0 
L 125 0 
z
" transform="scale(0.015625)"/>
      </defs>
      <use xlink:href="#ArialMT-2c"/>
      <use xlink:href="#ArialMT-52" transform="translate(27.78125 0)"/>
      <use xlink:href="#ArialMT-51" transform="translate(83.390625 0)"/>
      <use xlink:href="#ArialMT-3" transform="translate(139 0)"/>
      <use xlink:href="#ArialMT-26" transform="translate(166.78125 0)"/>
      <use xlink:href="#ArialMT-58" transform="translate(239 0)"/>
      <use xlink:href="#ArialMT-55" transform="translate(294.609375 0)"/>
      <use xlink:href="#ArialMT-55" transform="translate(327.90625 0)"/>
      <use xlink:href="#ArialMT-48" transform="translate(361.203125 0)"/>
      <use xlink:href="#ArialMT-51" transform="translate(416.8125 0)"/>
      <use xlink:href="#ArialMT-57" transform="translate(472.421875 0)"/>
      <use xlink:href="#ArialMT-3" transform="translate(500.203125 0)"/>
      <use xlink:href="#ArialMT-b" transform="translate(527.984375 0)"/>
      <use xlink:href="#ArialMT-50" transform="translate(561.28125 0)"/>
      <use xlink:href="#ArialMT-12" transform="translate(644.578125 0)"/>
      <use xlink:href="#ArialMT-5d" transform="translate(672.359375 0)"/>
      <use xlink:href="#ArialMT-3" transform="translate(722.359375 0)"/>
      <use xlink:href="#ArialMT-17" transform="translate(750.140625 0)"/>
      <use xlink:href="#ArialMT-17" transform="translate(805.75 0)"/>
      <use xlink:href="#ArialMT-c" transform="translate(861.359375 0)"/>
     </g>
    </g>
    <g id="text_18">
     <!-- 1e−11 -->
     <g transform="translate(55.084258 36.679004) scale(0.14 -0.14)">
      <defs>
       <path id="ArialMT-ed" d="M 3381 1997 
L 356 1997 
L 356 2522 
L 3381 2522 
L 3381 1997 
z
" transform="scale(0.015625)"/>
      </defs>
      <use xlink:href="#ArialMT-14"/>
      <use xlink:href="#ArialMT-48" transform="translate(55.609375 0)"/>
      <use xlink:href="#ArialMT-ed" transform="translate(111.21875 0)"/>
      <use xlink:href="#ArialMT-14" transform="translate(169.625 0)"/>
      <use xlink:href="#ArialMT-14" transform="translate(217.8125 0)"/>
     </g>
    </g>
   </g>
   <g id="line2d_16">
    <path d="M 54.088749 290.707538 
L 54.05046 290.982221 
L 54.012171 290.912547 
L 55.084258 290.895717 
L 58.836561 290.953334 
L 65.115926 290.790882 
L 67.91101 290.733051 
L 71.242136 290.869161 
L 73.501176 290.999534 
L 75.875082 291.024852 
L 89.582477 291.063268 
L 90.76943 290.896597 
L 94.368578 290.940838 
L 101.566875 290.727566 
L 102.753828 290.613011 
L 112.287742 290.833107 
L 115.810312 290.434838 
L 117.035554 290.538912 
L 119.447749 290.285511 
L 121.936522 290.072271 
L 123.123475 289.901661 
L 125.497382 289.969806 
L 126.684335 289.88656 
L 129.058241 289.959505 
L 131.432147 289.697113 
L 133.92092 289.518794 
L 135.146162 289.375569 
L 137.443491 289.318849 
L 138.668733 289.03124 
L 139.817397 288.993182 
L 141.00435 288.841704 
L 143.378256 288.323607 
L 145.867029 287.964932 
L 147.015693 287.807036 
L 150.614842 286.97739 
L 153.027037 286.552835 
L 154.175701 285.985999 
L 157.813138 284.620887 
L 159.000091 284.096229 
L 163.824481 281.230451 
L 165.049723 280.623543 
L 167.347052 278.960711 
L 168.534005 278.469471 
L 169.759247 277.579473 
L 170.9462 276.494184 
L 172.133153 275.736585 
L 173.358395 274.57494 
L 174.545349 272.83102 
L 175.694013 270.868693 
L 176.919255 268.178117 
L 178.106208 265.880913 
L 179.293161 262.779538 
L 181.667067 257.653444 
L 182.854021 256.002784 
L 185.304505 253.665705 
L 186.41488 251.951692 
L 187.678411 249.203709 
L 190.167184 241.901022 
L 196.140238 211.537183 
L 197.288902 206.865761 
L 198.475856 203.188391 
L 199.62452 200.839395 
L 200.849762 200.440002 
L 202.075004 201.679054 
L 203.261957 203.32038 
L 204.44891 205.872882 
L 205.674152 209.331944 
L 206.822816 211.329145 
L 208.048058 213.182732 
L 209.235011 214.048369 
L 210.460253 212.986813 
L 211.608918 210.908309 
L 212.795871 207.178789 
L 214.021113 200.822534 
L 216.471597 186.621841 
L 217.581972 181.644784 
L 218.768925 178.202845 
L 219.994167 178.562499 
L 221.181121 181.088921 
L 222.368074 185.357712 
L 223.593316 191.530934 
L 224.74198 198.729567 
L 225.928933 204.998242 
L 227.154175 210.211925 
L 228.302839 216.421062 
L 231.863699 231.516367 
L 233.012363 235.516157 
L 234.275894 239.268313 
L 235.424558 241.312325 
L 236.6498 242.641494 
L 237.836753 242.929593 
L 239.023707 240.503234 
L 240.248948 238.477059 
L 241.397613 235.68689 
L 242.622855 234.541517 
L 243.809808 235.846963 
L 245.03505 239.469971 
L 246.183714 244.808806 
L 247.370667 249.646401 
L 248.557621 255.076204 
L 249.782862 259.707663 
L 250.969816 261.544106 
L 252.11848 262.792033 
L 253.343722 262.931805 
L 254.530675 263.320713 
L 258.129823 265.677192 
L 259.355065 266.052064 
L 260.580307 266.549226 
L 262.954213 266.90677 
L 265.366409 267.915983 
L 266.515073 268.365698 
L 267.702026 269.017106 
L 270.037644 269.865123 
L 271.301174 269.961885 
L 272.449839 269.827046 
L 273.675081 269.829845 
L 274.862034 270.088337 
L 277.197651 270.07155 
L 278.422893 269.840489 
L 279.609846 269.736741 
L 281.983753 268.743637 
L 283.208995 266.691292 
L 284.395948 264.410004 
L 285.582901 263.029924 
L 286.769854 261.477284 
L 289.14376 258.982769 
L 290.330713 258.593072 
L 291.555955 258.336746 
L 292.742909 257.942651 
L 293.891573 256.834659 
L 295.155104 253.769 
L 296.303768 250.131939 
L 297.52901 245.298765 
L 298.677674 237.740716 
L 299.864627 227.939364 
L 301.013292 216.487923 
L 303.502064 195.792263 
L 304.727306 187.736658 
L 305.990837 183.789284 
L 307.17779 184.193636 
L 308.403032 188.827661 
L 309.628274 195.421657 
L 312.002181 210.090294 
L 313.189134 217.57206 
L 314.376087 223.96649 
L 315.524751 227.704111 
L 316.711704 230.759641 
L 320.310853 241.5537 
L 321.497806 243.602319 
L 322.684759 245.210578 
L 323.910001 246.38449 
L 325.058665 247.16136 
L 326.20733 246.510866 
L 328.619525 242.568951 
L 329.806478 240.526269 
L 331.03172 238.815426 
L 332.180384 236.678872 
L 333.405626 235.631186 
L 334.55429 234.95294 
L 335.779532 235.532233 
L 336.966485 236.827799 
L 338.11515 238.546008 
L 339.302103 240.706142 
L 340.527345 243.54539 
L 344.049915 253.518173 
L 345.313446 257.648072 
L 346.462111 260.705496 
L 347.649064 264.332947 
L 348.874306 267.199912 
L 351.248212 271.47779 
L 353.622118 274.423665 
L 354.809071 275.244609 
L 355.957736 275.844997 
L 360.782126 277.688195 
L 361.93079 278.009932 
L 363.156032 278.471564 
L 364.266408 278.487587 
L 369.052509 278.971439 
L 370.239462 279.437334 
L 371.464704 279.539453 
L 372.689946 279.950954 
L 374.948986 280.1139 
L 376.250806 280.115658 
L 381.419795 280.609526 
L 382.645037 281.204169 
L 383.870279 281.208665 
L 385.018943 281.408515 
L 388.579803 280.883688 
L 391.068576 280.66801 
L 393.442482 280.853876 
L 394.591146 281.267197 
L 399.377248 282.235093 
L 404.201638 281.879467 
L 405.388591 281.499188 
L 406.537255 281.374195 
L 407.68592 281.068842 
L 410.098115 280.772805 
L 411.323357 280.201611 
L 413.620685 278.922155 
L 414.884216 278.352459 
L 417.258122 277.852921 
L 419.746895 277.945416 
L 420.818982 278.268893 
L 423.116311 278.688198 
L 424.647863 278.798202 
L 425.71995 278.729831 
L 429.24252 278.96017 
L 430.429473 279.196135 
L 431.578138 279.263801 
L 432.765091 279.01264 
L 435.177286 278.862451 
L 438.699857 277.204694 
L 442.299005 274.717874 
L 443.524247 273.44183 
L 445.974731 270.030511 
L 448.195482 265.430778 
L 453.058161 254.179825 
L 454.283403 251.632272 
L 455.278912 248.253848 
L 456.810464 244.239256 
L 460.830789 231.007742 
L 461.826299 226.335494 
L 463.204696 220.859343 
L 465.540313 209.777759 
L 466.650689 202.908941 
L 467.91422 193.708856 
L 468.909729 181.787936 
L 470.364703 168.424321 
L 471.283635 154.859761 
L 472.623743 142.392148 
L 473.772408 129.657267 
L 475.074227 119.985832 
L 476.108025 114.041679 
L 477.333267 112.256783 
L 478.558509 113.687248 
L 480.970704 119.892617 
L 483.191455 126.995381 
L 484.531564 129.847584 
L 485.680228 129.205458 
L 486.867181 129.247853 
L 489.202799 124.274207 
L 490.504618 121.273126 
L 492.878524 113.971245 
L 494.142055 109.877556 
L 494.142055 109.877556 
" clip-path="url(#p8c82c041a7)" style="fill: none; stroke: #000000; stroke-width: 2.5; stroke-linecap: square"/>
   </g>
   <g id="line2d_17">
    <path d="M 53.476128 290.688696 
L 53.476128 291.082818 
L 53.476128 290.843054 
L 55.00768 290.754912 
L 61.287045 290.834764 
L 63.239775 290.978065 
L 70.859248 290.95606 
L 71.969624 290.856973 
L 75.492194 290.977785 
L 81.694982 291.112741 
L 85.60044 290.932284 
L 89.237877 291.025639 
L 93.98569 291.152891 
L 97.584838 290.857195 
L 110.679612 290.820799 
L 111.866565 290.683643 
L 120.290103 290.545983 
L 121.477056 290.45872 
L 122.702298 290.219118 
L 131.087548 289.812958 
L 132.274501 289.86698 
L 135.873649 289.230002 
L 137.060602 289.062524 
L 138.285844 288.700986 
L 140.69804 288.261788 
L 143.071946 288.108528 
L 144.297188 288.035508 
L 146.709383 287.167264 
L 147.896336 286.956807 
L 149.121578 286.458238 
L 152.60586 284.422114 
L 153.792813 283.826897 
L 156.205008 282.269857 
L 158.693781 280.125004 
L 159.919023 279.37385 
L 161.067687 278.202539 
L 162.292929 277.309063 
L 163.479882 276.283038 
L 167.07903 273.82193 
L 168.189406 272.929969 
L 170.563312 270.286736 
L 171.750265 268.910877 
L 172.975507 266.92258 
L 174.085883 264.568813 
L 176.536367 258.327208 
L 177.761609 255.951145 
L 178.910273 254.429591 
L 180.097226 253.13213 
L 182.509421 249.962732 
L 183.734663 248.414489 
L 184.921616 246.417549 
L 186.10857 243.798939 
L 187.333811 239.804692 
L 188.559053 235.069815 
L 189.822584 231.240827 
L 192.158202 221.164966 
L 194.608686 209.87724 
L 195.75735 206.533784 
L 196.944303 204.310378 
L 198.131256 204.430811 
L 199.356498 205.768378 
L 200.505163 208.419666 
L 201.692116 211.752886 
L 204.066022 216.767279 
L 205.252975 218.555772 
L 206.516506 219.770219 
L 207.66517 221.197586 
L 208.890412 220.957948 
L 210.077365 221.097618 
L 211.22603 221.064793 
L 213.638225 221.75185 
L 214.825178 221.464385 
L 216.05042 221.579744 
L 217.237373 221.486364 
L 218.386037 221.682909 
L 219.57299 222.163331 
L 220.759944 222.364125 
L 221.946897 223.13442 
L 223.172139 224.531665 
L 224.397381 226.793408 
L 225.584334 229.641748 
L 226.732998 231.505042 
L 230.293858 238.889355 
L 231.5191 240.558252 
L 233.893006 244.882399 
L 235.079959 246.59131 
L 236.305201 247.977077 
L 237.492154 248.820548 
L 238.679107 249.903041 
L 239.86606 251.528931 
L 241.053014 252.83577 
L 242.239967 253.660476 
L 243.42692 253.992055 
L 244.613873 255.514479 
L 245.762537 256.679703 
L 248.25131 258.274677 
L 249.438263 258.672893 
L 250.625216 259.745071 
L 252.999123 262.45572 
L 254.186076 263.43213 
L 255.449607 264.626689 
L 256.598271 265.887255 
L 257.861802 266.81634 
L 260.197419 267.461134 
L 261.384372 268.16165 
L 262.571325 268.201304 
L 263.796567 268.500999 
L 264.98352 269.187926 
L 266.170474 269.453322 
L 267.395716 269.867249 
L 268.506091 269.817082 
L 269.693044 270.140665 
L 270.918286 269.98833 
L 273.292193 270.805498 
L 274.479146 270.545623 
L 275.704388 270.512313 
L 276.853052 270.303363 
L 278.040005 269.778821 
L 281.639153 267.754021 
L 282.864395 267.237682 
L 284.051348 266.480914 
L 286.425255 262.667626 
L 288.83745 254.485829 
L 289.986114 249.638522 
L 291.211356 242.435115 
L 292.398309 233.121587 
L 293.585262 220.830974 
L 294.772216 206.746932 
L 298.294786 158.879969 
L 299.520028 148.689314 
L 300.74527 146.409508 
L 301.932223 150.714593 
L 303.157465 160.503213 
L 304.382707 174.461554 
L 306.833191 204.739819 
L 308.058433 216.183964 
L 309.245386 225.118496 
L 310.394051 230.517283 
L 311.619292 235.444751 
L 315.218441 246.162357 
L 316.405394 249.814519 
L 317.592347 253.085119 
L 318.741011 255.514412 
L 321.191495 259.784546 
L 322.301871 261.258268 
L 325.86273 267.021593 
L 328.198348 270.215775 
L 329.461878 271.151928 
L 330.610543 271.767467 
L 331.835785 272.854408 
L 334.209691 274.096814 
L 335.358355 274.968583 
L 336.50702 275.640173 
L 337.77055 275.94648 
L 338.995792 276.122524 
L 340.182746 276.141808 
L 341.33141 275.914705 
L 344.892269 276.335902 
L 346.079222 276.676701 
L 352.090566 276.878789 
L 353.23923 276.702913 
L 354.54105 276.983249 
L 355.574848 276.924328 
L 358.025332 277.061918 
L 359.173996 276.88808 
L 361.586191 276.999972 
L 362.849722 277.443298 
L 363.998386 277.603307 
L 371.120105 279.339219 
L 374.642676 280.011387 
L 375.79134 280.248086 
L 377.016582 280.321015 
L 378.280113 280.589086 
L 379.543643 280.554807 
L 380.998618 280.403725 
L 383.449102 280.887735 
L 384.636055 281.142311 
L 385.861297 281.144717 
L 388.311781 281.294639 
L 389.460446 281.217488 
L 393.136171 281.47358 
L 395.318634 282.508127 
L 399.032648 283.364549 
L 400.219601 283.279378 
L 401.483132 283.335276 
L 402.670085 283.123116 
L 406.192656 283.402287 
L 407.379609 283.209957 
L 412.089133 283.429357 
L 415.72657 283.19203 
L 419.287429 283.18403 
L 420.474383 283.582766 
L 421.584758 283.238602 
L 422.848289 283.140165 
L 424.11182 282.778263 
L 425.337062 282.284671 
L 426.409148 282.050684 
L 427.596101 281.528927 
L 429.051076 281.108644 
L 430.161452 280.489155 
L 431.271827 280.123577 
L 435.943062 276.81062 
L 438.27868 275.678723 
L 439.580499 274.595241 
L 440.84403 273.205922 
L 441.954406 271.631195 
L 443.064781 269.474586 
L 445.438687 263.1526 
L 446.740507 259.1982 
L 447.850882 254.301609 
L 448.999547 249.901932 
L 450.1865 244.85712 
L 451.48832 240.035297 
L 454.819446 225.639566 
L 456.389287 221.833095 
L 457.959129 218.459395 
L 460.294746 212.593382 
L 461.596566 211.290601 
L 462.821808 209.01745 
L 463.779028 206.67064 
L 465.157425 202.479078 
L 466.229512 195.649774 
L 467.416465 187.202822 
L 470.977324 158.235732 
L 472.240855 153.235403 
L 473.274653 152.243715 
L 474.614761 154.268569 
L 475.801715 159.200728 
L 476.988668 165.61909 
L 479.400863 177.043042 
L 480.77926 181.808971 
L 481.698192 187.550874 
L 482.961722 194.660659 
L 484.34012 201.437645 
L 485.220762 208.055921 
L 486.522582 214.389218 
L 488.705044 222.470654 
L 490.006864 223.768147 
L 491.346972 223.989687 
L 492.648792 223.383089 
L 493.606012 222.196166 
L 494.601521 220.676732 
L 494.601521 220.676732 
" clip-path="url(#p8c82c041a7)" style="fill: none; stroke: #1f77b4; stroke-width: 2.5; stroke-linecap: square"/>
   </g>
   <g id="line2d_18">
    <path d="M 53.09324 290.610408 
L 53.09324 290.728801 
L 53.054951 290.483072 
L 53.131528 290.682493 
L 53.476128 290.796977 
L 56.347789 290.925707 
L 62.780309 290.985203 
L 65.843414 291.13195 
L 73.845775 290.720339 
L 76.25797 290.849013 
L 78.670165 291.019468 
L 81.158938 291.205218 
L 86.366217 290.823665 
L 87.55317 290.626976 
L 88.740123 290.616092 
L 93.487935 291.020584 
L 95.861842 291.080614 
L 98.312326 290.728953 
L 100.76281 290.581381 
L 105.548911 290.628245 
L 110.220146 290.831179 
L 112.67063 290.751028 
L 119.868926 290.071917 
L 123.468075 289.957439 
L 124.731605 289.887036 
L 125.956847 289.65798 
L 127.1438 289.657184 
L 128.330754 289.507487 
L 129.479418 289.494174 
L 133.155144 288.972631 
L 135.52905 288.916552 
L 137.902956 288.515824 
L 139.051621 288.351218 
L 142.689058 287.15716 
L 145.101253 285.910304 
L 146.249917 285.496992 
L 147.475159 284.773477 
L 148.700401 283.697827 
L 149.887354 283.253528 
L 155.898698 278.435243 
L 157.085651 277.278734 
L 160.64651 274.512514 
L 161.833463 274.255096 
L 166.657853 270.162252 
L 167.806518 268.841305 
L 169.03176 267.216658 
L 171.405666 263.438309 
L 174.966525 254.876772 
L 176.11519 251.500765 
L 180.901291 241.563546 
L 183.313486 235.0597 
L 186.989212 222.796103 
L 188.176165 218.020054 
L 189.439696 213.631201 
L 190.626649 208.732582 
L 191.813602 205.908749 
L 192.962267 202.662962 
L 194.14922 201.326988 
L 195.336173 201.502217 
L 196.523126 202.554372 
L 198.935321 207.88118 
L 200.122274 210.730149 
L 201.347516 212.986403 
L 202.496181 214.578526 
L 203.644845 216.992369 
L 204.908376 218.311995 
L 206.133618 220.26846 
L 207.320571 221.63433 
L 209.694477 223.762662 
L 210.843142 225.176507 
L 212.106672 227.023704 
L 213.255337 228.117104 
L 214.44229 229.605606 
L 215.667532 231.352465 
L 216.854485 233.470063 
L 218.041438 235.325656 
L 219.190102 236.314265 
L 221.564009 239.088673 
L 224.014493 241.807305 
L 225.163157 242.639563 
L 226.388399 244.208513 
L 228.762305 247.682023 
L 231.097923 250.162913 
L 232.323165 251.06784 
L 234.697071 252.575971 
L 235.884024 253.753859 
L 237.109266 254.656537 
L 238.25793 255.239941 
L 239.483172 256.07884 
L 240.670125 256.677308 
L 241.857079 257.427671 
L 243.005743 258.406536 
L 244.230985 258.311108 
L 245.417938 259.298299 
L 246.566602 259.987203 
L 247.791844 260.925154 
L 248.940509 261.65271 
L 250.204039 261.782692 
L 251.314415 262.393613 
L 252.577946 262.87004 
L 253.764899 263.977572 
L 254.913563 264.490124 
L 256.138805 265.302341 
L 257.325758 266.249189 
L 259.737953 267.490868 
L 260.924907 268.026927 
L 263.298813 268.631227 
L 265.672719 269.374731 
L 266.897961 269.406918 
L 268.046625 269.784314 
L 269.310156 269.937535 
L 270.45882 269.79807 
L 271.684062 269.278857 
L 272.871016 268.938412 
L 273.981391 268.301676 
L 277.618828 266.979442 
L 278.805781 266.872557 
L 281.217976 266.202057 
L 282.366641 264.975609 
L 283.630172 262.626853 
L 284.855413 259.83326 
L 286.004078 255.531846 
L 287.191031 251.651023 
L 288.339695 245.171855 
L 289.603226 236.503552 
L 290.790179 225.600471 
L 291.977132 211.834776 
L 294.389327 177.994755 
L 295.537992 162.785706 
L 296.686656 151.505011 
L 297.873609 146.89318 
L 299.098851 148.68794 
L 300.285804 154.49098 
L 302.697999 169.623966 
L 303.884953 173.938819 
L 305.186772 175.477062 
L 306.450303 176.7948 
L 307.560678 179.743809 
L 308.824209 185.882713 
L 310.011162 195.494029 
L 313.572022 230.666249 
L 314.720686 238.462492 
L 315.945928 243.620651 
L 317.17117 246.840334 
L 319.506788 249.696371 
L 320.770318 250.975662 
L 321.918983 251.813029 
L 323.067647 253.084331 
L 324.292889 252.720375 
L 325.479842 252.998411 
L 326.666795 252.694291 
L 327.777171 253.164314 
L 329.002413 253.314493 
L 330.189366 253.892545 
L 332.63985 255.880912 
L 333.750225 257.303991 
L 336.124132 259.866087 
L 337.311085 261.337651 
L 338.536327 262.47047 
L 339.761569 263.270306 
L 340.910233 263.644705 
L 342.135475 264.338723 
L 343.322428 265.40286 
L 346.80671 269.627092 
L 348.031952 271.477423 
L 350.444147 273.728853 
L 351.592811 274.446719 
L 354.081584 274.523481 
L 355.230248 275.115544 
L 356.340624 275.930592 
L 357.604155 276.291308 
L 364.764162 276.532619 
L 368.325022 278.123294 
L 369.473686 278.281157 
L 370.62235 278.578553 
L 371.885881 278.638448 
L 374.259787 279.945485 
L 375.408452 280.431828 
L 376.671983 280.637149 
L 377.782358 281.083132 
L 379.084178 280.911323 
L 380.539153 280.928837 
L 381.879261 280.63185 
L 384.329745 280.555989 
L 385.516698 281.039547 
L 387.890604 281.545714 
L 389.077557 281.61007 
L 390.302799 282.009639 
L 391.489752 282.011006 
L 392.600128 282.194854 
L 393.901948 282.232249 
L 395.088901 282.530159 
L 397.424518 282.847858 
L 398.573183 283.17245 
L 403.397573 283.600687 
L 404.469659 283.595377 
L 408.107097 283.222245 
L 410.519292 283.501683 
L 411.744534 283.630592 
L 414.195018 283.383392 
L 416.454057 283.811463 
L 417.755877 283.81896 
L 418.981119 283.572525 
L 420.168072 283.516792 
L 421.316736 283.68703 
L 422.427112 283.453003 
L 423.652354 283.06718 
L 424.915885 282.430728 
L 427.32808 281.787607 
L 429.510542 280.529533 
L 430.735784 279.8839 
L 434.373221 278.319825 
L 435.521885 277.573194 
L 436.708838 277.137491 
L 437.972369 276.359698 
L 440.384564 274.188894 
L 443.868846 269.849233 
L 445.094088 267.974552 
L 447.506283 263.575093 
L 448.540081 261.10527 
L 451.028854 256.446395 
L 455.853244 245.333374 
L 457.26993 241.637877 
L 458.724905 237.485016 
L 461.098811 228.82184 
L 465.846624 214.212001 
L 468.182241 205.499185 
L 469.330906 198.72629 
L 471.743101 183.685082 
L 473.04492 175.532366 
L 475.265671 165.449377 
L 476.529202 162.077787 
L 477.792733 161.918984 
L 478.979686 163.437242 
L 481.315303 170.61131 
L 482.540545 175.671655 
L 483.68921 182.511003 
L 485.029318 189.34806 
L 486.063116 197.31324 
L 487.364936 203.784977 
L 488.551889 210.603588 
L 489.547398 217.086638 
L 490.734351 222.815281 
L 492.227615 227.483405 
L 493.414568 230.784895 
L 494.29521 232.41364 
L 494.29521 232.41364 
" clip-path="url(#p8c82c041a7)" style="fill: none; stroke: #d62728; stroke-width: 2.5; stroke-linecap: square"/>
   </g>
   <g id="line2d_19">
    <path d="M 54.854525 290.539017 
L 54.816236 291.073935 
L 54.931103 290.671551 
L 55.505435 290.790098 
L 56.807254 290.787484 
L 60.980735 290.962895 
L 67.872721 290.786667 
L 69.021385 290.59965 
L 71.242136 290.742916 
L 74.64984 290.792177 
L 78.248989 290.660222 
L 79.474231 290.530552 
L 83.417978 290.804072 
L 85.94504 290.738737 
L 87.170282 290.807523 
L 89.544188 290.693281 
L 93.143336 290.840022 
L 94.330289 290.958173 
L 100.226766 290.816392 
L 102.638961 290.905635 
L 105.089445 290.756423 
L 106.276398 290.821043 
L 107.463351 290.703372 
L 113.436406 290.623808 
L 115.810312 290.342457 
L 120.558125 289.918556 
L 124.195562 289.89398 
L 125.382515 289.691041 
L 126.607757 289.673056 
L 133.882631 288.813257 
L 135.107873 288.693435 
L 136.294826 288.756241 
L 137.481779 288.510796 
L 138.668733 288.457009 
L 141.080928 287.898698 
L 143.493123 287.017886 
L 144.718365 286.523888 
L 148.317513 284.280139 
L 149.504466 283.042885 
L 150.729708 282.321602 
L 153.065326 280.146123 
L 156.587896 275.693045 
L 157.813138 273.867137 
L 163.747904 263.762841 
L 164.934857 261.699797 
L 166.083521 259.136715 
L 169.759247 252.88943 
L 170.9462 250.276256 
L 172.171442 248.164114 
L 173.358395 244.924868 
L 174.583637 240.685689 
L 175.732302 235.987214 
L 176.957544 231.687847 
L 178.106208 227.173919 
L 180.441825 220.517961 
L 181.667067 218.411162 
L 182.815732 216.122494 
L 184.040974 214.067154 
L 185.304505 210.517738 
L 186.453169 206.292277 
L 188.903653 195.505604 
L 190.090606 188.34082 
L 192.502801 170.116706 
L 197.288902 127.82544 
L 198.514144 120.77652 
L 199.662809 116.63685 
L 200.849762 116.455398 
L 202.036715 119.448489 
L 203.261957 124.919095 
L 204.410621 130.91765 
L 206.822816 145.929821 
L 208.00977 151.912599 
L 209.235011 157.454738 
L 210.383676 164.891921 
L 211.570629 166.447095 
L 212.795871 165.212453 
L 216.395019 163.781981 
L 217.581972 165.910076 
L 218.768925 169.718932 
L 219.994167 175.215976 
L 221.219409 182.312664 
L 222.406363 190.903465 
L 223.631604 193.412153 
L 224.780269 196.216484 
L 228.379417 206.616743 
L 230.753323 213.959695 
L 231.901988 217.162614 
L 234.352472 222.756242 
L 235.539425 224.88101 
L 236.6498 227.495968 
L 237.798465 229.571634 
L 239.023707 232.230726 
L 241.397613 236.166172 
L 242.622855 237.567817 
L 246.183714 240.961129 
L 247.370667 241.768537 
L 249.744574 244.066842 
L 250.931527 245.611625 
L 255.717628 249.564618 
L 256.904581 250.093267 
L 258.129823 250.877386 
L 259.316776 251.280376 
L 260.50373 252.068656 
L 261.690683 253.01711 
L 262.877636 254.194862 
L 264.102878 255.007713 
L 266.476784 256.955498 
L 267.663737 258.172056 
L 270.114221 259.052747 
L 271.262886 258.923975 
L 272.41155 258.935871 
L 273.675081 259.46763 
L 274.823745 259.178165 
L 276.010698 259.110306 
L 277.197651 259.509768 
L 280.835088 260.157351 
L 283.170706 258.875614 
L 284.357659 257.943836 
L 285.544612 257.168444 
L 286.808143 255.725372 
L 287.918518 254.079539 
L 289.14376 251.214755 
L 290.292425 247.172437 
L 291.517667 242.443185 
L 292.742909 235.630175 
L 293.891573 224.995714 
L 295.078526 212.052184 
L 299.78805 137.37385 
L 301.051581 124.918245 
L 302.200245 120.863006 
L 303.463776 125.341628 
L 304.765595 136.282707 
L 305.990837 151.833759 
L 307.139502 169.100416 
L 309.513408 198.010312 
L 310.73865 207.873571 
L 311.963892 216.036258 
L 314.299509 226.063627 
L 317.860369 238.479191 
L 320.272564 245.370025 
L 321.459517 247.874362 
L 323.795134 251.721285 
L 327.394283 256.64955 
L 328.581236 257.859948 
L 329.768189 259.439039 
L 330.955142 260.399398 
L 334.55429 263.787931 
L 335.741243 264.708064 
L 336.889908 265.842148 
L 338.11515 266.313982 
L 339.340392 267.008689 
L 341.714298 267.933641 
L 342.901251 267.835706 
L 344.049915 267.999221 
L 347.649064 269.42523 
L 348.797728 270.048653 
L 349.984681 270.110657 
L 351.286501 270.76997 
L 354.770783 271.921346 
L 355.957736 272.179687 
L 357.221267 272.615285 
L 358.40822 273.23591 
L 363.156032 274.330545 
L 364.304697 274.566417 
L 365.49165 275.243708 
L 366.755181 275.66609 
L 367.903845 275.560926 
L 371.502993 276.474096 
L 372.613369 276.518343 
L 375.025564 277.311764 
L 376.135939 277.761036 
L 377.39947 278.684431 
L 378.509846 279.110769 
L 380.003109 279.163353 
L 382.721615 279.951979 
L 385.172099 280.062191 
L 386.282474 280.03418 
L 387.546005 280.42815 
L 388.732958 280.670173 
L 389.843334 281.1931 
L 392.293818 281.194212 
L 393.404193 281.316112 
L 398.34345 281.423688 
L 400.60249 281.963158 
L 402.861529 282.155953 
L 405.273725 282.05462 
L 407.647631 282.134285 
L 410.021537 282.52844 
L 414.922505 282.699586 
L 415.994592 282.44936 
L 418.368498 282.414251 
L 419.670317 282.468275 
L 422.082513 283.151666 
L 423.154599 283.236097 
L 424.41813 283.221223 
L 426.715459 282.894832 
L 428.017278 282.507039 
L 431.50156 281.975233 
L 433.913755 281.829697 
L 437.512903 280.542048 
L 439.88681 278.75814 
L 441.073763 277.420891 
L 443.447669 273.081998 
L 445.821576 266.992963 
L 446.97024 262.776609 
L 448.195482 259.128335 
L 452.943294 242.636762 
L 454.206825 237.961222 
L 455.240623 232.59619 
L 456.772175 228.023767 
L 458.112284 224.655881 
L 459.299237 220.072466 
L 461.941165 212.962057 
L 463.281273 209.303791 
L 464.315071 205.205947 
L 465.425447 199.448772 
L 466.688978 190.888561 
L 468.948017 168.895471 
L 471.398501 146.834336 
L 472.623743 138.004599 
L 473.810696 132.6259 
L 474.959361 130.456669 
L 476.031448 132.237959 
L 477.333267 138.397577 
L 478.52022 147.755598 
L 481.008993 175.181839 
L 483.382899 205.344897 
L 484.608141 218.04529 
L 485.718517 228.270696 
L 486.675737 235.176726 
L 488.015845 239.41769 
L 489.279376 241.95297 
L 490.466329 242.835011 
L 491.614994 242.29765 
L 492.68708 240.574725 
L 493.874033 237.900072 
L 493.874033 237.900072 
" clip-path="url(#p8c82c041a7)" style="fill: none; stroke: #ff7f0e; stroke-width: 2.5; stroke-linecap: square"/>
   </g>
   <g id="line2d_20">
    <path d="M 53.552705 290.63011 
L 53.552705 290.588089 
L 53.476128 291.037868 
L 53.437839 290.989553 
L 53.552705 290.736575 
L 53.859016 290.642159 
L 54.816236 290.565978 
L 56.462655 290.772268 
L 63.048331 290.850826 
L 66.149724 290.724791 
L 70.706093 290.924445 
L 71.816468 291.091184 
L 80.201718 290.80012 
L 81.503538 290.873711 
L 82.767068 291.109571 
L 86.634238 290.913953 
L 89.046433 290.857882 
L 91.42034 290.929448 
L 92.645582 290.886141 
L 95.096065 291.106757 
L 97.469972 290.85041 
L 98.695214 290.921184 
L 99.882167 290.774996 
L 103.481315 290.596243 
L 105.89351 290.52417 
L 108.343994 290.262063 
L 109.530947 290.294145 
L 110.7179 290.472011 
L 113.091807 290.392035 
L 116.652666 290.33172 
L 119.026572 289.950864 
L 121.438768 290.070305 
L 122.549143 290.049603 
L 124.999627 289.84262 
L 127.373533 289.833007 
L 128.598775 289.704862 
L 129.785728 289.445067 
L 131.01097 289.440315 
L 132.236212 289.222559 
L 133.461454 288.880056 
L 135.911938 288.549147 
L 137.13718 288.229533 
L 139.511086 288.129891 
L 141.923281 287.39204 
L 143.110235 287.125504 
L 144.258899 286.594514 
L 146.632805 285.885242 
L 147.858047 285.247724 
L 149.045 284.495449 
L 150.270242 284.015973 
L 151.457195 283.183196 
L 152.60586 281.990683 
L 155.018055 279.947819 
L 156.205008 278.815523 
L 157.43025 277.395215 
L 158.578914 275.664719 
L 163.365016 269.363412 
L 164.551969 267.522239 
L 165.777211 266.531042 
L 168.151117 263.587459 
L 169.33807 261.416327 
L 170.601601 259.464176 
L 171.826843 257.332752 
L 173.013796 254.747036 
L 174.200749 253.21593 
L 175.387702 251.359728 
L 176.574656 250.287875 
L 177.761609 249.957493 
L 178.910273 249.957073 
L 180.097226 249.275908 
L 181.284179 247.415102 
L 182.471132 246.127369 
L 183.658086 243.359127 
L 184.80675 240.371112 
L 186.070281 237.441777 
L 187.295523 233.658201 
L 188.482476 229.386577 
L 190.856382 219.457315 
L 193.268577 207.438166 
L 195.680772 199.587891 
L 196.829437 198.743101 
L 198.054679 199.671803 
L 199.241632 201.842368 
L 200.466874 204.44473 
L 201.653827 207.253644 
L 202.879069 210.481494 
L 204.066022 213.275575 
L 206.439928 217.207349 
L 207.626881 217.361107 
L 209.962499 219.62756 
L 211.149452 221.218622 
L 212.374694 221.823815 
L 214.710311 223.366531 
L 215.973842 223.402836 
L 217.122507 223.98985 
L 218.30946 225.092684 
L 219.496413 225.95064 
L 220.721655 227.882671 
L 223.13385 233.195388 
L 226.732998 237.959965 
L 229.068616 240.444048 
L 230.332146 242.312133 
L 231.480811 244.59073 
L 233.893006 248.057829 
L 235.079959 249.249624 
L 236.228623 249.969437 
L 237.415576 250.875311 
L 238.60253 252.376406 
L 239.86606 253.327318 
L 241.014725 253.863559 
L 242.201678 255.278601 
L 243.388631 256.203899 
L 244.613873 256.755618 
L 245.762537 257.817503 
L 246.987779 258.717896 
L 248.174732 259.268918 
L 249.361686 260.300337 
L 250.548639 260.392684 
L 251.812169 260.815036 
L 256.521693 263.702954 
L 258.933888 265.6455 
L 261.307795 267.060122 
L 262.456459 266.933779 
L 263.681701 267.506069 
L 264.868654 268.284732 
L 266.017318 268.235576 
L 268.429513 269.020294 
L 269.578178 269.039024 
L 270.879997 269.763626 
L 273.177326 269.709311 
L 274.32599 269.236515 
L 275.589521 268.84472 
L 277.963427 266.984232 
L 279.188669 266.537606 
L 281.562576 265.203956 
L 282.672951 264.754217 
L 283.898193 263.366221 
L 285.161724 261.661473 
L 286.348677 259.563489 
L 287.497341 255.399534 
L 288.722583 249.62327 
L 289.947825 241.760568 
L 292.321732 219.201088 
L 294.657349 190.459605 
L 295.882591 178.210965 
L 297.031255 171.012364 
L 298.256497 169.061776 
L 299.481739 171.264829 
L 300.630404 178.22229 
L 303.042599 195.688566 
L 304.30613 204.550945 
L 305.531371 209.633922 
L 306.794902 213.5467 
L 307.981855 216.487922 
L 309.168809 219.070019 
L 310.394051 220.838519 
L 311.619292 223.31729 
L 312.729668 226.53164 
L 313.878332 229.211181 
L 315.103574 232.599872 
L 316.21395 236.369281 
L 317.477481 239.722806 
L 318.702723 243.452707 
L 319.889676 246.698407 
L 321.000051 249.357343 
L 322.263582 251.519826 
L 323.412246 253.774179 
L 324.599199 255.473875 
L 326.973106 258.436252 
L 328.198348 259.40318 
L 329.385301 260.832528 
L 332.907871 264.346274 
L 336.583597 266.92898 
L 337.77055 268.176694 
L 340.02959 269.550714 
L 341.33141 270.380863 
L 342.441785 270.883389 
L 344.815692 271.6336 
L 347.266176 271.927508 
L 348.41484 271.758426 
L 349.563504 272.528158 
L 355.574848 274.05084 
L 356.723512 274.697129 
L 357.910465 274.907538 
L 359.097418 275.267606 
L 360.284371 275.296443 
L 361.471325 275.894218 
L 363.88352 275.918694 
L 365.032184 276.367876 
L 366.257426 276.553122 
L 369.779997 277.43004 
L 370.96695 277.596302 
L 372.192192 277.463034 
L 374.566098 277.900973 
L 375.714762 278.3462 
L 376.978293 278.588776 
L 380.845463 279.869792 
L 383.449102 280.115982 
L 385.937875 280.881004 
L 388.273492 281.603107 
L 389.460446 281.81819 
L 390.647399 282.481042 
L 391.719485 282.56063 
L 393.059594 282.789289 
L 395.318634 282.53632 
L 396.543876 282.64534 
L 397.730829 282.504306 
L 398.956071 282.663736 
L 401.291688 282.676043 
L 404.929125 283.026281 
L 406.039501 282.795183 
L 409.562071 282.620161 
L 410.863891 282.748782 
L 412.089133 282.657677 
L 414.539617 282.817052 
L 419.172563 282.91052 
L 421.546469 282.726414 
L 422.733422 282.569749 
L 423.958664 282.624397 
L 425.37535 282.814454 
L 426.562304 282.686747 
L 427.596101 282.367325 
L 428.821343 282.3832 
L 429.931719 281.954475 
L 431.003806 281.369709 
L 432.267336 281.059551 
L 433.569156 280.289491 
L 435.904773 277.694261 
L 437.053438 275.532048 
L 438.355257 272.177889 
L 439.54221 268.085534 
L 444.251734 248.553158 
L 445.285532 244.043503 
L 446.587352 240.398375 
L 447.697727 237.759155 
L 450.1865 233.47317 
L 452.560406 230.32991 
L 453.632493 228.521217 
L 456.236132 225.366291 
L 457.691107 223.839619 
L 458.954638 220.9516 
L 460.256457 218.998186 
L 461.328544 217.718994 
L 462.821808 215.619451 
L 464.04705 212.67008 
L 465.999779 202.568697 
L 467.301599 196.331963 
L 468.565129 189.087731 
L 470.939036 171.328985 
L 472.164278 166.849768 
L 473.38952 164.579668 
L 474.499895 165.679334 
L 475.686848 171.036033 
L 476.91209 178.105626 
L 478.137332 187.125261 
L 479.209419 197.825289 
L 482.961722 226.755357 
L 484.148675 234.840752 
L 485.29734 240.425546 
L 486.522582 245.799155 
L 487.671246 249.960781 
L 488.858199 251.629126 
L 490.083441 252.996319 
L 491.155528 253.544181 
L 492.38077 253.388106 
L 493.644301 252.643487 
L 494.486654 251.425716 
L 494.486654 251.425716 
" clip-path="url(#p8c82c041a7)" style="fill: none; stroke: #9467bd; stroke-width: 2.5; stroke-linecap: square"/>
   </g>
   <g id="line2d_21">
    <path d="M 54.586503 290.405909 
L 54.509926 290.800566 
L 54.509926 290.697323 
L 54.433348 290.61053 
L 54.548214 290.579243 
L 55.084258 290.694861 
L 56.232922 290.555054 
L 60.253247 290.609134 
L 62.43571 290.598517 
L 67.336677 290.86284 
L 75.339039 290.635008 
L 82.843646 290.777126 
L 86.710816 290.673283 
L 89.123011 290.561894 
L 90.271675 290.660058 
L 104.629979 290.48243 
L 105.816933 290.605686 
L 110.603034 290.5551 
L 114.202182 290.077169 
L 117.763042 289.885893 
L 118.949995 289.785126 
L 120.136948 289.850208 
L 124.884761 289.545362 
L 126.110002 289.218774 
L 131.01097 288.686912 
L 133.461454 288.163905 
L 137.022314 287.38565 
L 139.434509 286.374979 
L 140.659751 286.217083 
L 143.071946 285.126552 
L 144.258899 284.011337 
L 145.484141 283.137216 
L 147.858047 281.148756 
L 149.045 280.132949 
L 151.418907 276.820393 
L 152.644149 274.933275 
L 153.869391 273.409753 
L 158.617203 264.31335 
L 162.139774 257.095655 
L 163.403305 254.773753 
L 168.151117 243.782797 
L 172.860641 228.957298 
L 174.085883 224.672833 
L 175.311125 221.462887 
L 177.685031 213.804993 
L 178.833695 210.972716 
L 181.245891 200.268461 
L 182.432844 194.995082 
L 183.658086 188.885564 
L 184.845039 181.694201 
L 185.993703 173.163151 
L 188.405898 152.278788 
L 192.158202 121.260292 
L 193.345155 112.918833 
L 194.493819 106.825069 
L 195.719061 104.925027 
L 196.906014 106.803911 
L 198.131256 112.139361 
L 199.279921 117.992424 
L 200.428585 126.912715 
L 201.615538 137.475218 
L 204.027733 154.124655 
L 205.214686 158.970474 
L 206.439928 162.194532 
L 207.588593 165.671594 
L 208.813835 167.547519 
L 210.000788 168.256798 
L 211.22603 167.541098 
L 212.412983 168.689278 
L 213.561647 170.536456 
L 214.786889 170.686889 
L 215.973842 172.118012 
L 217.122507 174.914572 
L 218.347749 178.343321 
L 220.759944 187.793575 
L 223.13385 196.339216 
L 224.320803 201.058037 
L 225.546045 204.980291 
L 226.694709 207.394985 
L 227.881662 210.987287 
L 229.106904 213.870034 
L 230.255569 217.024168 
L 231.480811 219.444084 
L 232.667764 221.477713 
L 233.854717 222.998329 
L 236.266912 226.911244 
L 237.453865 228.298249 
L 242.201678 236.946514 
L 243.388631 238.021106 
L 244.575584 238.801116 
L 245.800826 239.403474 
L 246.987779 240.306586 
L 248.174732 241.710069 
L 249.361686 242.679985 
L 250.548639 244.162776 
L 252.922545 245.104213 
L 254.109498 245.566098 
L 255.296451 246.479361 
L 256.483404 247.128283 
L 257.670358 248.164089 
L 260.005975 251.138002 
L 261.269506 251.954083 
L 262.456459 252.577837 
L 264.792076 252.533005 
L 265.97903 252.735994 
L 267.204272 253.411997 
L 268.391225 253.627015 
L 270.765131 254.775754 
L 273.177326 254.849097 
L 274.364279 255.059445 
L 275.589521 254.65505 
L 276.738186 253.451346 
L 277.88685 253.346321 
L 279.112092 251.97578 
L 280.299045 249.326645 
L 281.485998 246.042979 
L 283.936482 238.082822 
L 285.085146 232.054789 
L 286.233811 222.795547 
L 287.459053 207.481166 
L 288.607717 186.581798 
L 289.756381 156.897696 
L 290.905046 121.623504 
L 292.206865 88.260283 
L 293.35553 62.972066 
L 294.580772 51.656443 
L 295.729436 55.933516 
L 296.954678 71.419154 
L 298.17992 95.940326 
L 300.553826 149.421685 
L 301.779068 166.507498 
L 303.00431 178.800714 
L 305.531371 193.678413 
L 308.939076 213.741437 
L 311.351271 224.502191 
L 313.801755 234.05327 
L 315.026997 238.360513 
L 316.21395 240.222311 
L 317.439192 243.075541 
L 318.626145 245.229486 
L 321.000051 250.234864 
L 322.225293 251.929075 
L 324.560911 256.20289 
L 325.786153 258.570602 
L 327.011395 260.214369 
L 328.198348 260.499989 
L 329.385301 261.634009 
L 332.984449 265.739644 
L 335.281778 267.743506 
L 336.468731 268.705072 
L 337.655684 269.133312 
L 338.880926 269.417361 
L 340.144457 269.241305 
L 341.254832 269.609489 
L 342.403497 269.589916 
L 343.743605 269.84374 
L 346.117511 269.685902 
L 347.266176 269.785045 
L 348.338262 270.394645 
L 349.640082 270.7878 
L 350.750457 271.383921 
L 353.162653 272.466737 
L 354.311317 272.535319 
L 355.574848 273.037094 
L 356.761801 272.900765 
L 357.872176 273.407366 
L 359.097418 273.833078 
L 362.658278 275.758828 
L 363.921808 276.00974 
L 365.070473 276.022219 
L 367.444379 276.216518 
L 368.669621 276.259988 
L 369.818285 276.733337 
L 370.96695 277.02632 
L 372.192192 277.483559 
L 373.417434 278.31795 
L 374.566098 278.747814 
L 378.126957 279.076855 
L 379.581932 278.903359 
L 380.883752 279.086022 
L 382.22386 279.647196 
L 383.410813 279.87007 
L 384.597766 279.976262 
L 387.086539 280.46614 
L 389.422157 280.703463 
L 390.60911 281.17573 
L 391.796063 281.29814 
L 393.021305 281.563666 
L 394.208258 281.658245 
L 397.845695 281.623989 
L 398.994359 281.805393 
L 400.181313 281.765934 
L 401.329977 281.863092 
L 402.51693 282.313519 
L 403.742172 282.597979 
L 404.852548 282.563344 
L 406.154367 282.285922 
L 408.566562 282.445379 
L 409.715227 282.4234 
L 410.863891 282.545242 
L 412.089133 282.536436 
L 414.463039 282.860475 
L 415.611704 283.322666 
L 419.325718 283.108008 
L 421.584758 282.249765 
L 425.183906 281.88378 
L 427.710968 281.3406 
L 431.080383 279.860976 
L 432.343914 279.106327 
L 433.569156 278.101933 
L 434.71782 276.853599 
L 435.789907 275.076478 
L 438.240391 267.487805 
L 442.988203 246.062317 
L 445.476976 237.016059 
L 446.587352 233.183457 
L 448.922969 226.568682 
L 450.148211 224.286884 
L 451.296876 221.363348 
L 452.522117 219.453557 
L 453.747359 218.340637 
L 454.819446 216.663925 
L 456.236132 215.676687 
L 457.691107 214.879819 
L 458.87806 213.766294 
L 460.17988 211.735599 
L 461.366833 207.742397 
L 462.553786 201.101082 
L 463.817317 191.472583 
L 465.195714 179.994885 
L 466.152934 169.169136 
L 467.26331 158.943138 
L 468.373685 152.402326 
L 469.675505 150.182257 
L 470.862458 152.935463 
L 472.0877 160.759019 
L 473.351231 171.404735 
L 476.797224 209.794834 
L 480.434661 241.396752 
L 482.885145 255.589741 
L 483.918943 261.373495 
L 485.335629 265.271884 
L 486.599159 268.195038 
L 487.824401 269.292355 
L 488.743333 269.721594 
L 492.495636 267.340663 
L 493.414568 267.232661 
L 494.601521 268.185884 
L 494.601521 268.185884 
" clip-path="url(#p8c82c041a7)" style="fill: none; stroke: #2ca02c; stroke-width: 2.5; stroke-linecap: square"/>
   </g>
   <g id="patch_3">
    <path d="M 55.084258 303.182656 
L 55.084258 39.679004 
" style="fill: none; stroke: #000000; stroke-width: 1.5; stroke-linejoin: miter; stroke-linecap: square"/>
   </g>
   <g id="patch_4">
    <path d="M 55.084258 303.182656 
L 495.405586 303.182656 
" style="fill: none; stroke: #000000; stroke-width: 1.5; stroke-linejoin: miter; stroke-linecap: square"/>
   </g>
   <g id="text_19">
    <!-- 1421_wo_HF -->
    <g transform="translate(233.610234 18.441699) scale(0.14 -0.14)">
     <defs>
      <path id="ArialMT-42" d="M -97 -1272 
L -97 -866 
L 3631 -866 
L 3631 -1272 
L -97 -1272 
z
" transform="scale(0.015625)"/>
      <path id="ArialMT-5a" d="M 1034 0 
L 19 3319 
L 600 3319 
L 1128 1403 
L 1325 691 
Q 1338 744 1497 1375 
L 2025 3319 
L 2603 3319 
L 3100 1394 
L 3266 759 
L 3456 1400 
L 4025 3319 
L 4572 3319 
L 3534 0 
L 2950 0 
L 2422 1988 
L 2294 2553 
L 1622 0 
L 1034 0 
z
" transform="scale(0.015625)"/>
      <path id="ArialMT-2b" d="M 513 0 
L 513 4581 
L 1119 4581 
L 1119 2700 
L 3500 2700 
L 3500 4581 
L 4106 4581 
L 4106 0 
L 3500 0 
L 3500 2159 
L 1119 2159 
L 1119 0 
L 513 0 
z
" transform="scale(0.015625)"/>
      <path id="ArialMT-29" d="M 525 0 
L 525 4581 
L 3616 4581 
L 3616 4041 
L 1131 4041 
L 1131 2622 
L 3281 2622 
L 3281 2081 
L 1131 2081 
L 1131 0 
L 525 0 
z
" transform="scale(0.015625)"/>
     </defs>
     <use xlink:href="#ArialMT-14"/>
     <use xlink:href="#ArialMT-17" transform="translate(55.609375 0)"/>
     <use xlink:href="#ArialMT-15" transform="translate(111.21875 0)"/>
     <use xlink:href="#ArialMT-14" transform="translate(166.828125 0)"/>
     <use xlink:href="#ArialMT-42" transform="translate(222.4375 0)"/>
     <use xlink:href="#ArialMT-5a" transform="translate(278.046875 0)"/>
     <use xlink:href="#ArialMT-52" transform="translate(350.265625 0)"/>
     <use xlink:href="#ArialMT-42" transform="translate(405.875 0)"/>
     <use xlink:href="#ArialMT-2b" transform="translate(461.484375 0)"/>
     <use xlink:href="#ArialMT-29" transform="translate(533.703125 0)"/>
    </g>
    <!-- m/z 44 -->
    <g transform="translate(254.239453 33.679004) scale(0.14 -0.14)">
     <use xlink:href="#ArialMT-50"/>
     <use xlink:href="#ArialMT-12" transform="translate(83.296875 0)"/>
     <use xlink:href="#ArialMT-5d" transform="translate(111.078125 0)"/>
     <use xlink:href="#ArialMT-3" transform="translate(161.078125 0)"/>
     <use xlink:href="#ArialMT-17" transform="translate(188.859375 0)"/>
     <use xlink:href="#ArialMT-17" transform="translate(244.46875 0)"/>
    </g>
   </g>
   <g id="legend_1">
    <g id="line2d_22">
     <path d="M 513.212012 52.459277 
L 523.212012 52.459277 
L 533.212012 52.459277 
" style="fill: none; stroke: #000000; stroke-width: 2.5; stroke-linecap: square"/>
    </g>
    <g id="text_20">
     <!-- 0 h -->
     <g transform="translate(541.212012 55.959277) scale(0.1 -0.1)">
      <defs>
       <path id="ArialMT-4b" d="M 422 0 
L 422 4581 
L 984 4581 
L 984 2938 
Q 1378 3394 1978 3394 
Q 2347 3394 2619 3248 
Q 2891 3103 3008 2847 
Q 3125 2591 3125 2103 
L 3125 0 
L 2563 0 
L 2563 2103 
Q 2563 2525 2380 2717 
Q 2197 2909 1863 2909 
Q 1613 2909 1392 2779 
Q 1172 2650 1078 2428 
Q 984 2206 984 1816 
L 984 0 
L 422 0 
z
" transform="scale(0.015625)"/>
      </defs>
      <use xlink:href="#ArialMT-13"/>
      <use xlink:href="#ArialMT-3" transform="translate(55.609375 0)"/>
      <use xlink:href="#ArialMT-4b" transform="translate(83.390625 0)"/>
     </g>
    </g>
    <g id="line2d_23">
     <path d="M 513.212012 66.844043 
L 523.212012 66.844043 
L 533.212012 66.844043 
" style="fill: none; stroke: #1f77b4; stroke-width: 2.5; stroke-linecap: square"/>
    </g>
    <g id="text_21">
     <!-- 6 h -->
     <g transform="translate(541.212012 70.344043) scale(0.1 -0.1)">
      <use xlink:href="#ArialMT-19"/>
      <use xlink:href="#ArialMT-3" transform="translate(55.609375 0)"/>
      <use xlink:href="#ArialMT-4b" transform="translate(83.390625 0)"/>
     </g>
    </g>
    <g id="line2d_24">
     <path d="M 513.212012 81.228809 
L 523.212012 81.228809 
L 533.212012 81.228809 
" style="fill: none; stroke: #d62728; stroke-width: 2.5; stroke-linecap: square"/>
    </g>
    <g id="text_22">
     <!-- 24 h -->
     <g transform="translate(541.212012 84.728809) scale(0.1 -0.1)">
      <use xlink:href="#ArialMT-15"/>
      <use xlink:href="#ArialMT-17" transform="translate(55.609375 0)"/>
      <use xlink:href="#ArialMT-3" transform="translate(111.21875 0)"/>
      <use xlink:href="#ArialMT-4b" transform="translate(139 0)"/>
     </g>
    </g>
    <g id="line2d_25">
     <path d="M 513.212012 95.613574 
L 523.212012 95.613574 
L 533.212012 95.613574 
" style="fill: none; stroke: #ff7f0e; stroke-width: 2.5; stroke-linecap: square"/>
    </g>
    <g id="text_23">
     <!-- 7 d -->
     <g transform="translate(541.212012 99.113574) scale(0.1 -0.1)">
      <defs>
       <path id="ArialMT-47" d="M 2575 0 
L 2575 419 
Q 2259 -75 1647 -75 
Q 1250 -75 917 144 
Q 584 363 401 755 
Q 219 1147 219 1656 
Q 219 2153 384 2558 
Q 550 2963 881 3178 
Q 1213 3394 1622 3394 
Q 1922 3394 2156 3267 
Q 2391 3141 2538 2938 
L 2538 4581 
L 3097 4581 
L 3097 0 
L 2575 0 
z
M 797 1656 
Q 797 1019 1065 703 
Q 1334 388 1700 388 
Q 2069 388 2326 689 
Q 2584 991 2584 1609 
Q 2584 2291 2321 2609 
Q 2059 2928 1675 2928 
Q 1300 2928 1048 2622 
Q 797 2316 797 1656 
z
" transform="scale(0.015625)"/>
      </defs>
      <use xlink:href="#ArialMT-1a"/>
      <use xlink:href="#ArialMT-3" transform="translate(55.609375 0)"/>
      <use xlink:href="#ArialMT-47" transform="translate(83.390625 0)"/>
     </g>
    </g>
    <g id="line2d_26">
     <path d="M 513.212012 109.99834 
L 523.212012 109.99834 
L 533.212012 109.99834 
" style="fill: none; stroke: #9467bd; stroke-width: 2.5; stroke-linecap: square"/>
    </g>
    <g id="text_24">
     <!-- 14 d -->
     <g transform="translate(541.212012 113.49834) scale(0.1 -0.1)">
      <use xlink:href="#ArialMT-14"/>
      <use xlink:href="#ArialMT-17" transform="translate(55.609375 0)"/>
      <use xlink:href="#ArialMT-3" transform="translate(111.21875 0)"/>
      <use xlink:href="#ArialMT-47" transform="translate(139 0)"/>
     </g>
    </g>
    <g id="line2d_27">
     <path d="M 513.212012 124.383105 
L 523.212012 124.383105 
L 533.212012 124.383105 
" style="fill: none; stroke: #2ca02c; stroke-width: 2.5; stroke-linecap: square"/>
    </g>
    <g id="text_25">
     <!-- 28 d -->
     <g transform="translate(541.212012 127.883105) scale(0.1 -0.1)">
      <use xlink:href="#ArialMT-15"/>
      <use xlink:href="#ArialMT-1b" transform="translate(55.609375 0)"/>
      <use xlink:href="#ArialMT-3" transform="translate(111.21875 0)"/>
      <use xlink:href="#ArialMT-47" transform="translate(139 0)"/>
     </g>
    </g>
   </g>
  </g>
 </g>
 <defs>
  <clipPath id="p8c82c041a7">
   <rect x="55.084258" y="39.679004" width="440.321328" height="263.503652"/>
  </clipPath>
 </defs>
</svg>
