<?xml version="1.0" encoding="utf-8" standalone="no"?>
<!DOCTYPE svg PUBLIC "-//W3C//DTD SVG 1.1//EN"
  "http://www.w3.org/Graphics/SVG/1.1/DTD/svg11.dtd">
<svg xmlns:xlink="http://www.w3.org/1999/xlink" width="571.99695pt" height="344.160273pt" viewBox="0 0 571.99695 344.160273" xmlns="http://www.w3.org/2000/svg" version="1.1">
 <metadata>
  <rdf:RDF xmlns:dc="http://purl.org/dc/elements/1.1/" xmlns:cc="http://creativecommons.org/ns#" xmlns:rdf="http://www.w3.org/1999/02/22-rdf-syntax-ns#">
   <cc:Work>
    <dc:type rdf:resource="http://purl.org/dc/dcmitype/StillImage"/>
    <dc:date>2026-07-10T11:48:36.039282</dc:date>
    <dc:format>image/svg+xml</dc:format>
    <dc:creator>
     <cc:Agent>
      <dc:title>Matplotlib v3.11.0, https://matplotlib.org/</dc:title>
     </cc:Agent>
    </dc:creator>
   </cc:Work>
  </rdf:RDF>
 </metadata>
 <defs>
  <style type="text/css">*{stroke-linejoin: round; stroke-linecap: butt}</style>
 </defs>
 <g id="figure_1">
  <g id="patch_1">
   <path d="M 0 344.160273 
L 571.99695 344.160273 
L 571.99695 0 
L 0 0 
z
" style="fill: #ffffff"/>
  </g>
  <g id="axes_1">
   <g id="patch_2">
    <path d="M 35.624258 303.182656 
L 495.145586 303.182656 
L 495.145586 39.679004 
L 35.624258 39.679004 
z
" style="fill: #ffffff"/>
   </g>
   <g id="matplotlib.axis_1">
    <g id="xtick_1">
     <g id="line2d_1">
      <defs>
       <path id="m49d554b5ca" d="M 0 0 
L 0 -6 
" style="stroke: #000000; stroke-width: 0.8"/>
      </defs>
      <g>
       <use xlink:href="#m49d554b5ca" x="95.561822" y="303.182656" style="stroke: #000000; stroke-width: 0.8"/>
      </g>
     </g>
     <g id="text_1">
      <!-- 200 -->
      <g transform="translate(83.883854 316.875039) scale(0.14 -0.14)">
       <defs>
        <path id="ArialMT-15" d="M 3222 541 
L 3222 0 
L 194 0 
Q 188 203 259 391 
Q 375 700 629 1000 
Q 884 1300 1366 1694 
Q 2113 2306 2375 2664 
Q 2638 3022 2638 3341 
Q 2638 3675 2398 3904 
Q 2159 4134 1775 4134 
Q 1369 4134 1125 3890 
Q 881 3647 878 3216 
L 300 3275 
Q 359 3922 746 4261 
Q 1134 4600 1788 4600 
Q 2447 4600 2831 4234 
Q 3216 3869 3216 3328 
Q 3216 3053 3103 2787 
Q 2991 2522 2730 2228 
Q 2469 1934 1863 1422 
Q 1356 997 1212 845 
Q 1069 694 975 541 
L 3222 541 
z
" transform="scale(0.015625)"/>
        <path id="ArialMT-13" d="M 266 2259 
Q 266 3072 433 3567 
Q 600 4063 929 4331 
Q 1259 4600 1759 4600 
Q 2128 4600 2406 4451 
Q 2684 4303 2865 4023 
Q 3047 3744 3150 3342 
Q 3253 2941 3253 2259 
Q 3253 1453 3087 958 
Q 2922 463 2592 192 
Q 2263 -78 1759 -78 
Q 1097 -78 719 397 
Q 266 969 266 2259 
z
M 844 2259 
Q 844 1131 1108 757 
Q 1372 384 1759 384 
Q 2147 384 2411 759 
Q 2675 1134 2675 2259 
Q 2675 3391 2411 3762 
Q 2147 4134 1753 4134 
Q 1366 4134 1134 3806 
Q 844 3388 844 2259 
z
" transform="scale(0.015625)"/>
       </defs>
       <use xlink:href="#ArialMT-15"/>
       <use xlink:href="#ArialMT-13" transform="translate(55.609375 0)"/>
       <use xlink:href="#ArialMT-13" transform="translate(111.21875 0)"/>
      </g>
     </g>
    </g>
    <g id="xtick_2">
     <g id="line2d_2">
      <g>
       <use xlink:href="#m49d554b5ca" x="175.478575" y="303.182656" style="stroke: #000000; stroke-width: 0.8"/>
      </g>
     </g>
     <g id="text_2">
      <!-- 400 -->
      <g transform="translate(163.800606 316.875039) scale(0.14 -0.14)">
       <defs>
        <path id="ArialMT-17" d="M 2069 0 
L 2069 1097 
L 81 1097 
L 81 1613 
L 2172 4581 
L 2631 4581 
L 2631 1613 
L 3250 1613 
L 3250 1097 
L 2631 1097 
L 2631 0 
L 2069 0 
z
M 2069 1613 
L 2069 3678 
L 634 1613 
L 2069 1613 
z
" transform="scale(0.015625)"/>
       </defs>
       <use xlink:href="#ArialMT-17"/>
       <use xlink:href="#ArialMT-13" transform="translate(55.609375 0)"/>
       <use xlink:href="#ArialMT-13" transform="translate(111.21875 0)"/>
      </g>
     </g>
    </g>
    <g id="xtick_3">
     <g id="line2d_3">
      <g>
       <use xlink:href="#m49d554b5ca" x="255.395328" y="303.182656" style="stroke: #000000; stroke-width: 0.8"/>
      </g>
     </g>
     <g id="text_3">
      <!-- 600 -->
      <g transform="translate(243.717359 316.875039) scale(0.14 -0.14)">
       <defs>
        <path id="ArialMT-19" d="M 3184 3459 
L 2625 3416 
Q 2550 3747 2413 3897 
Q 2184 4138 1850 4138 
Q 1581 4138 1378 3988 
Q 1113 3794 959 3422 
Q 806 3050 800 2363 
Q 1003 2672 1297 2822 
Q 1591 2972 1913 2972 
Q 2475 2972 2870 2558 
Q 3266 2144 3266 1488 
Q 3266 1056 3080 686 
Q 2894 316 2569 119 
Q 2244 -78 1831 -78 
Q 1128 -78 684 439 
Q 241 956 241 2144 
Q 241 3472 731 4075 
Q 1159 4600 1884 4600 
Q 2425 4600 2770 4297 
Q 3116 3994 3184 3459 
z
M 888 1484 
Q 888 1194 1011 928 
Q 1134 663 1356 523 
Q 1578 384 1822 384 
Q 2178 384 2434 671 
Q 2691 959 2691 1453 
Q 2691 1928 2437 2201 
Q 2184 2475 1800 2475 
Q 1419 2475 1153 2201 
Q 888 1928 888 1484 
z
" transform="scale(0.015625)"/>
       </defs>
       <use xlink:href="#ArialMT-19"/>
       <use xlink:href="#ArialMT-13" transform="translate(55.609375 0)"/>
       <use xlink:href="#ArialMT-13" transform="translate(111.21875 0)"/>
      </g>
     </g>
    </g>
    <g id="xtick_4">
     <g id="line2d_4">
      <g>
       <use xlink:href="#m49d554b5ca" x="335.312081" y="303.182656" style="stroke: #000000; stroke-width: 0.8"/>
      </g>
     </g>
     <g id="text_4">
      <!-- 800 -->
      <g transform="translate(323.634112 316.875039) scale(0.14 -0.14)">
       <defs>
        <path id="ArialMT-1b" d="M 1131 2484 
Q 781 2613 612 2850 
Q 444 3088 444 3419 
Q 444 3919 803 4259 
Q 1163 4600 1759 4600 
Q 2359 4600 2725 4251 
Q 3091 3903 3091 3403 
Q 3091 3084 2923 2848 
Q 2756 2613 2416 2484 
Q 2838 2347 3058 2040 
Q 3278 1734 3278 1309 
Q 3278 722 2862 322 
Q 2447 -78 1769 -78 
Q 1091 -78 675 323 
Q 259 725 259 1325 
Q 259 1772 486 2073 
Q 713 2375 1131 2484 
z
M 1019 3438 
Q 1019 3113 1228 2906 
Q 1438 2700 1772 2700 
Q 2097 2700 2305 2904 
Q 2513 3109 2513 3406 
Q 2513 3716 2298 3927 
Q 2084 4138 1766 4138 
Q 1444 4138 1231 3931 
Q 1019 3725 1019 3438 
z
M 838 1322 
Q 838 1081 952 856 
Q 1066 631 1291 507 
Q 1516 384 1775 384 
Q 2178 384 2440 643 
Q 2703 903 2703 1303 
Q 2703 1709 2433 1975 
Q 2163 2241 1756 2241 
Q 1359 2241 1098 1978 
Q 838 1716 838 1322 
z
" transform="scale(0.015625)"/>
       </defs>
       <use xlink:href="#ArialMT-1b"/>
       <use xlink:href="#ArialMT-13" transform="translate(55.609375 0)"/>
       <use xlink:href="#ArialMT-13" transform="translate(111.21875 0)"/>
      </g>
     </g>
    </g>
    <g id="xtick_5">
     <g id="line2d_5">
      <g>
       <use xlink:href="#m49d554b5ca" x="415.228833" y="303.182656" style="stroke: #000000; stroke-width: 0.8"/>
      </g>
     </g>
     <g id="text_5">
      <!-- 1000 -->
      <g transform="translate(399.658208 316.875039) scale(0.14 -0.14)">
       <defs>
        <path id="ArialMT-14" d="M 2384 0 
L 1822 0 
L 1822 3584 
Q 1619 3391 1289 3197 
Q 959 3003 697 2906 
L 697 3450 
Q 1169 3672 1522 3987 
Q 1875 4303 2022 4600 
L 2384 4600 
L 2384 0 
z
" transform="scale(0.015625)"/>
       </defs>
       <use xlink:href="#ArialMT-14"/>
       <use xlink:href="#ArialMT-13" transform="translate(55.609375 0)"/>
       <use xlink:href="#ArialMT-13" transform="translate(111.21875 0)"/>
       <use xlink:href="#ArialMT-13" transform="translate(166.828125 0)"/>
      </g>
     </g>
    </g>
    <g id="xtick_6">
     <g id="line2d_6">
      <g>
       <use xlink:href="#m49d554b5ca" x="495.145586" y="303.182656" style="stroke: #000000; stroke-width: 0.8"/>
      </g>
     </g>
     <g id="text_6">
      <!-- 1200 -->
      <g transform="translate(479.574961 316.875039) scale(0.14 -0.14)">
       <use xlink:href="#ArialMT-14"/>
       <use xlink:href="#ArialMT-15" transform="translate(55.609375 0)"/>
       <use xlink:href="#ArialMT-13" transform="translate(111.21875 0)"/>
       <use xlink:href="#ArialMT-13" transform="translate(166.828125 0)"/>
      </g>
     </g>
    </g>
    <g id="text_7">
     <!-- T1 Temperature (°C) -->
     <g transform="translate(201.645547 334.013711) scale(0.14 -0.14)">
      <defs>
       <path id="ArialMT-37" d="M 1659 0 
L 1659 4041 
L 150 4041 
L 150 4581 
L 3781 4581 
L 3781 4041 
L 2266 4041 
L 2266 0 
L 1659 0 
z
" transform="scale(0.015625)"/>
       <path id="ArialMT-3" transform="scale(0.015625)"/>
       <path id="ArialMT-48" d="M 2694 1069 
L 3275 997 
Q 3138 488 2766 206 
Q 2394 -75 1816 -75 
Q 1088 -75 661 373 
Q 234 822 234 1631 
Q 234 2469 665 2931 
Q 1097 3394 1784 3394 
Q 2450 3394 2872 2941 
Q 3294 2488 3294 1666 
Q 3294 1616 3291 1516 
L 816 1516 
Q 847 969 1125 678 
Q 1403 388 1819 388 
Q 2128 388 2347 550 
Q 2566 713 2694 1069 
z
M 847 1978 
L 2700 1978 
Q 2663 2397 2488 2606 
Q 2219 2931 1791 2931 
Q 1403 2931 1139 2672 
Q 875 2413 847 1978 
z
" transform="scale(0.015625)"/>
       <path id="ArialMT-50" d="M 422 0 
L 422 3319 
L 925 3319 
L 925 2853 
Q 1081 3097 1340 3245 
Q 1600 3394 1931 3394 
Q 2300 3394 2536 3241 
Q 2772 3088 2869 2813 
Q 3263 3394 3894 3394 
Q 4388 3394 4653 3120 
Q 4919 2847 4919 2278 
L 4919 0 
L 4359 0 
L 4359 2091 
Q 4359 2428 4304 2576 
Q 4250 2725 4106 2815 
Q 3963 2906 3769 2906 
Q 3419 2906 3187 2673 
Q 2956 2441 2956 1928 
L 2956 0 
L 2394 0 
L 2394 2156 
Q 2394 2531 2256 2718 
Q 2119 2906 1806 2906 
Q 1569 2906 1367 2781 
Q 1166 2656 1075 2415 
Q 984 2175 984 1722 
L 984 0 
L 422 0 
z
" transform="scale(0.015625)"/>
       <path id="ArialMT-53" d="M 422 -1272 
L 422 3319 
L 934 3319 
L 934 2888 
Q 1116 3141 1344 3267 
Q 1572 3394 1897 3394 
Q 2322 3394 2647 3175 
Q 2972 2956 3137 2557 
Q 3303 2159 3303 1684 
Q 3303 1175 3120 767 
Q 2938 359 2589 142 
Q 2241 -75 1856 -75 
Q 1575 -75 1351 44 
Q 1128 163 984 344 
L 984 -1272 
L 422 -1272 
z
M 931 1641 
Q 931 1000 1190 694 
Q 1450 388 1819 388 
Q 2194 388 2461 705 
Q 2728 1022 2728 1688 
Q 2728 2322 2467 2637 
Q 2206 2953 1844 2953 
Q 1484 2953 1207 2617 
Q 931 2281 931 1641 
z
" transform="scale(0.015625)"/>
       <path id="ArialMT-55" d="M 416 0 
L 416 3319 
L 922 3319 
L 922 2816 
Q 1116 3169 1280 3281 
Q 1444 3394 1641 3394 
Q 1925 3394 2219 3213 
L 2025 2691 
Q 1819 2813 1613 2813 
Q 1428 2813 1281 2702 
Q 1134 2591 1072 2394 
Q 978 2094 978 1738 
L 978 0 
L 416 0 
z
" transform="scale(0.015625)"/>
       <path id="ArialMT-44" d="M 2588 409 
Q 2275 144 1986 34 
Q 1697 -75 1366 -75 
Q 819 -75 525 192 
Q 231 459 231 875 
Q 231 1119 342 1320 
Q 453 1522 633 1644 
Q 813 1766 1038 1828 
Q 1203 1872 1538 1913 
Q 2219 1994 2541 2106 
Q 2544 2222 2544 2253 
Q 2544 2597 2384 2738 
Q 2169 2928 1744 2928 
Q 1347 2928 1158 2789 
Q 969 2650 878 2297 
L 328 2372 
Q 403 2725 575 2942 
Q 747 3159 1072 3276 
Q 1397 3394 1825 3394 
Q 2250 3394 2515 3294 
Q 2781 3194 2906 3042 
Q 3031 2891 3081 2659 
Q 3109 2516 3109 2141 
L 3109 1391 
Q 3109 606 3145 398 
Q 3181 191 3288 0 
L 2700 0 
Q 2613 175 2588 409 
z
M 2541 1666 
Q 2234 1541 1622 1453 
Q 1275 1403 1131 1340 
Q 988 1278 909 1158 
Q 831 1038 831 891 
Q 831 666 1001 516 
Q 1172 366 1500 366 
Q 1825 366 2078 508 
Q 2331 650 2450 897 
Q 2541 1088 2541 1459 
L 2541 1666 
z
" transform="scale(0.015625)"/>
       <path id="ArialMT-57" d="M 1650 503 
L 1731 6 
Q 1494 -44 1306 -44 
Q 1000 -44 831 53 
Q 663 150 594 308 
Q 525 466 525 972 
L 525 2881 
L 113 2881 
L 113 3319 
L 525 3319 
L 525 4141 
L 1084 4478 
L 1084 3319 
L 1650 3319 
L 1650 2881 
L 1084 2881 
L 1084 941 
Q 1084 700 1114 631 
Q 1144 563 1211 522 
Q 1278 481 1403 481 
Q 1497 481 1650 503 
z
" transform="scale(0.015625)"/>
       <path id="ArialMT-58" d="M 2597 0 
L 2597 488 
Q 2209 -75 1544 -75 
Q 1250 -75 995 37 
Q 741 150 617 320 
Q 494 491 444 738 
Q 409 903 409 1263 
L 409 3319 
L 972 3319 
L 972 1478 
Q 972 1038 1006 884 
Q 1059 663 1231 536 
Q 1403 409 1656 409 
Q 1909 409 2131 539 
Q 2353 669 2445 892 
Q 2538 1116 2538 1541 
L 2538 3319 
L 3100 3319 
L 3100 0 
L 2597 0 
z
" transform="scale(0.015625)"/>
       <path id="ArialMT-b" d="M 1497 -1347 
Q 1031 -759 709 28 
Q 388 816 388 1659 
Q 388 2403 628 3084 
Q 909 3875 1497 4659 
L 1900 4659 
Q 1522 4009 1400 3731 
Q 1209 3300 1100 2831 
Q 966 2247 966 1656 
Q 966 153 1900 -1347 
L 1497 -1347 
z
" transform="scale(0.015625)"/>
       <path id="ArialMT-83" d="M 400 3794 
Q 400 4153 654 4406 
Q 909 4659 1266 4659 
Q 1628 4659 1881 4406 
Q 2134 4153 2134 3794 
Q 2134 3434 1879 3179 
Q 1625 2925 1266 2925 
Q 909 2925 654 3178 
Q 400 3431 400 3794 
z
M 741 3794 
Q 741 3575 895 3420 
Q 1050 3266 1269 3266 
Q 1484 3266 1639 3420 
Q 1794 3575 1794 3794 
Q 1794 4013 1639 4167 
Q 1484 4322 1269 4322 
Q 1050 4322 895 4167 
Q 741 4013 741 3794 
z
" transform="scale(0.015625)"/>
       <path id="ArialMT-26" d="M 3763 1606 
L 4369 1453 
Q 4178 706 3683 314 
Q 3188 -78 2472 -78 
Q 1731 -78 1267 223 
Q 803 525 561 1097 
Q 319 1669 319 2325 
Q 319 3041 592 3573 
Q 866 4106 1370 4382 
Q 1875 4659 2481 4659 
Q 3169 4659 3637 4309 
Q 4106 3959 4291 3325 
L 3694 3184 
Q 3534 3684 3231 3912 
Q 2928 4141 2469 4141 
Q 1941 4141 1586 3887 
Q 1231 3634 1087 3207 
Q 944 2781 944 2328 
Q 944 1744 1114 1308 
Q 1284 872 1643 656 
Q 2003 441 2422 441 
Q 2931 441 3284 734 
Q 3638 1028 3763 1606 
z
" transform="scale(0.015625)"/>
       <path id="ArialMT-c" d="M 791 -1347 
L 388 -1347 
Q 1322 153 1322 1656 
Q 1322 2244 1188 2822 
Q 1081 3291 891 3722 
Q 769 4003 388 4659 
L 791 4659 
Q 1378 3875 1659 3084 
Q 1900 2403 1900 1659 
Q 1900 816 1576 28 
Q 1253 -759 791 -1347 
z
" transform="scale(0.015625)"/>
      </defs>
      <use xlink:href="#ArialMT-37"/>
      <use xlink:href="#ArialMT-14" transform="translate(61.078125 0)"/>
      <use xlink:href="#ArialMT-3" transform="translate(116.6875 0)"/>
      <use xlink:href="#ArialMT-37" transform="translate(142.65625 0)"/>
      <use xlink:href="#ArialMT-48" transform="translate(192.65625 0)"/>
      <use xlink:href="#ArialMT-50" transform="translate(248.265625 0)"/>
      <use xlink:href="#ArialMT-53" transform="translate(331.5625 0)"/>
      <use xlink:href="#ArialMT-48" transform="translate(387.171875 0)"/>
      <use xlink:href="#ArialMT-55" transform="translate(442.78125 0)"/>
      <use xlink:href="#ArialMT-44" transform="translate(476.078125 0)"/>
      <use xlink:href="#ArialMT-57" transform="translate(531.6875 0)"/>
      <use xlink:href="#ArialMT-58" transform="translate(559.46875 0)"/>
      <use xlink:href="#ArialMT-55" transform="translate(615.078125 0)"/>
      <use xlink:href="#ArialMT-48" transform="translate(648.375 0)"/>
      <use xlink:href="#ArialMT-3" transform="translate(703.984375 0)"/>
      <use xlink:href="#ArialMT-b" transform="translate(731.765625 0)"/>
      <use xlink:href="#ArialMT-83" transform="translate(765.0625 0)"/>
      <use xlink:href="#ArialMT-26" transform="translate(805.046875 0)"/>
      <use xlink:href="#ArialMT-c" transform="translate(877.265625 0)"/>
     </g>
    </g>
   </g>
   <g id="matplotlib.axis_2">
    <g id="ytick_1">
     <g id="line2d_7">
      <defs>
       <path id="mf4b28a70d2" d="M 0 0 
L 6 0 
" style="stroke: #000000; stroke-width: 0.8"/>
      </defs>
      <g>
       <use xlink:href="#mf4b28a70d2" x="35.624258" y="290.767408" style="stroke: #000000; stroke-width: 0.8"/>
      </g>
     </g>
     <g id="text_8">
      <!-- 0 -->
      <g transform="translate(24.338945 295.8636) scale(0.14 -0.14)">
       <use xlink:href="#ArialMT-13"/>
      </g>
     </g>
    </g>
    <g id="ytick_2">
     <g id="line2d_8">
      <g>
       <use xlink:href="#mf4b28a70d2" x="35.624258" y="238.635959" style="stroke: #000000; stroke-width: 0.8"/>
      </g>
     </g>
     <g id="text_9">
      <!-- 2 -->
      <g transform="translate(24.338945 243.73215) scale(0.14 -0.14)">
       <use xlink:href="#ArialMT-15"/>
      </g>
     </g>
    </g>
    <g id="ytick_3">
     <g id="line2d_9">
      <g>
       <use xlink:href="#mf4b28a70d2" x="35.624258" y="186.50451" style="stroke: #000000; stroke-width: 0.8"/>
      </g>
     </g>
     <g id="text_10">
      <!-- 4 -->
      <g transform="translate(24.338945 191.600701) scale(0.14 -0.14)">
       <use xlink:href="#ArialMT-17"/>
      </g>
     </g>
    </g>
    <g id="ytick_4">
     <g id="line2d_10">
      <g>
       <use xlink:href="#mf4b28a70d2" x="35.624258" y="134.37306" style="stroke: #000000; stroke-width: 0.8"/>
      </g>
     </g>
     <g id="text_11">
      <!-- 6 -->
      <g transform="translate(24.338945 139.469252) scale(0.14 -0.14)">
       <use xlink:href="#ArialMT-19"/>
      </g>
     </g>
    </g>
    <g id="ytick_5">
     <g id="line2d_11">
      <g>
       <use xlink:href="#mf4b28a70d2" x="35.624258" y="82.241611" style="stroke: #000000; stroke-width: 0.8"/>
      </g>
     </g>
     <g id="text_12">
      <!-- 8 -->
      <g transform="translate(24.338945 87.337802) scale(0.14 -0.14)">
       <use xlink:href="#ArialMT-1b"/>
      </g>
     </g>
    </g>
    <g id="text_13">
     <!-- Ion Current (m/z 40) -->
     <g transform="translate(17.392383 234.056768) rotate(-90) scale(0.14 -0.14)">
      <defs>
       <path id="ArialMT-2c" d="M 597 0 
L 597 4581 
L 1203 4581 
L 1203 0 
L 597 0 
z
" transform="scale(0.015625)"/>
       <path id="ArialMT-52" d="M 213 1659 
Q 213 2581 725 3025 
Q 1153 3394 1769 3394 
Q 2453 3394 2887 2945 
Q 3322 2497 3322 1706 
Q 3322 1066 3130 698 
Q 2938 331 2570 128 
Q 2203 -75 1769 -75 
Q 1072 -75 642 372 
Q 213 819 213 1659 
z
M 791 1659 
Q 791 1022 1069 705 
Q 1347 388 1769 388 
Q 2188 388 2466 706 
Q 2744 1025 2744 1678 
Q 2744 2294 2464 2611 
Q 2184 2928 1769 2928 
Q 1347 2928 1069 2612 
Q 791 2297 791 1659 
z
" transform="scale(0.015625)"/>
       <path id="ArialMT-51" d="M 422 0 
L 422 3319 
L 928 3319 
L 928 2847 
Q 1294 3394 1984 3394 
Q 2284 3394 2536 3286 
Q 2788 3178 2913 3003 
Q 3038 2828 3088 2588 
Q 3119 2431 3119 2041 
L 3119 0 
L 2556 0 
L 2556 2019 
Q 2556 2363 2490 2533 
Q 2425 2703 2258 2804 
Q 2091 2906 1866 2906 
Q 1506 2906 1245 2678 
Q 984 2450 984 1813 
L 984 0 
L 422 0 
z
" transform="scale(0.015625)"/>
       <path id="ArialMT-12" d="M 0 -78 
L 1328 4659 
L 1778 4659 
L 453 -78 
L 0 -78 
z
" transform="scale(0.015625)"/>
       <path id="ArialMT-5d" d="M 125 0 
L 125 456 
L 2238 2881 
Q 1878 2863 1603 2863 
L 250 2863 
L 250 3319 
L 2963 3319 
L 2963 2947 
L 1166 841 
L 819 456 
Q 1197 484 1528 484 
L 3063 484 
L 3063 0 
L 125 0 
z
" transform="scale(0.015625)"/>
      </defs>
      <use xlink:href="#ArialMT-2c"/>
      <use xlink:href="#ArialMT-52" transform="translate(27.78125 0)"/>
      <use xlink:href="#ArialMT-51" transform="translate(83.390625 0)"/>
      <use xlink:href="#ArialMT-3" transform="translate(139 0)"/>
      <use xlink:href="#ArialMT-26" transform="translate(166.78125 0)"/>
      <use xlink:href="#ArialMT-58" transform="translate(239 0)"/>
      <use xlink:href="#ArialMT-55" transform="translate(294.609375 0)"/>
      <use xlink:href="#ArialMT-55" transform="translate(327.90625 0)"/>
      <use xlink:href="#ArialMT-48" transform="translate(361.203125 0)"/>
      <use xlink:href="#ArialMT-51" transform="translate(416.8125 0)"/>
      <use xlink:href="#ArialMT-57" transform="translate(472.421875 0)"/>
      <use xlink:href="#ArialMT-3" transform="translate(500.203125 0)"/>
      <use xlink:href="#ArialMT-b" transform="translate(527.984375 0)"/>
      <use xlink:href="#ArialMT-50" transform="translate(561.28125 0)"/>
      <use xlink:href="#ArialMT-12" transform="translate(644.578125 0)"/>
      <use xlink:href="#ArialMT-5d" transform="translate(672.359375 0)"/>
      <use xlink:href="#ArialMT-3" transform="translate(722.359375 0)"/>
      <use xlink:href="#ArialMT-17" transform="translate(750.140625 0)"/>
      <use xlink:href="#ArialMT-13" transform="translate(805.75 0)"/>
      <use xlink:href="#ArialMT-c" transform="translate(861.359375 0)"/>
     </g>
    </g>
    <g id="text_14">
     <!-- 1e−12 -->
     <g transform="translate(35.624258 36.679004) scale(0.14 -0.14)">
      <defs>
       <path id="ArialMT-ed" d="M 3381 1997 
L 356 1997 
L 356 2522 
L 3381 2522 
L 3381 1997 
z
" transform="scale(0.015625)"/>
      </defs>
      <use xlink:href="#ArialMT-14"/>
      <use xlink:href="#ArialMT-48" transform="translate(55.609375 0)"/>
      <use xlink:href="#ArialMT-ed" transform="translate(111.21875 0)"/>
      <use xlink:href="#ArialMT-14" transform="translate(169.625 0)"/>
      <use xlink:href="#ArialMT-15" transform="translate(225.234375 0)"/>
     </g>
    </g>
   </g>
   <g id="line2d_12">
    <path d="M 34.58534 290.791405 
L 34.58534 290.929455 
L 34.505423 290.566553 
L 37.222593 290.641546 
L 41.97764 290.692978 
L 44.215309 290.790151 
L 53.685444 290.50459 
L 56.042988 290.470715 
L 57.321656 290.612547 
L 58.600324 290.58236 
L 59.839034 290.714312 
L 70.388045 290.74413 
L 72.865465 290.680629 
L 75.302926 290.665131 
L 80.377639 290.816094 
L 87.769939 290.700304 
L 92.764736 290.771392 
L 95.322072 290.770013 
L 96.520823 290.643418 
L 105.391583 290.598848 
L 107.869002 290.6841 
L 110.346422 290.691806 
L 112.823841 290.680775 
L 114.022592 290.608935 
L 116.579928 290.697969 
L 119.177223 290.559426 
L 120.415932 290.343496 
L 126.529564 290.032878 
L 127.768274 290.136446 
L 136.639033 289.962936 
L 142.832582 289.321877 
L 144.071291 288.810569 
L 147.867337 287.667577 
L 150.384715 286.712834 
L 151.623424 286.319629 
L 156.538305 285.768354 
L 157.777014 285.847288 
L 165.249231 285.648911 
L 167.72665 285.365656 
L 168.96536 285.367248 
L 170.244028 285.173857 
L 171.522696 285.098226 
L 172.681489 285.223085 
L 174.000115 285.090515 
L 175.318742 285.276179 
L 176.59741 284.920726 
L 180.393455 283.01784 
L 182.830916 280.990585 
L 185.268377 279.807954 
L 186.467129 279.09091 
L 187.745797 278.561882 
L 190.263174 276.674583 
L 191.501884 276.005404 
L 192.780552 274.17244 
L 193.979303 271.568763 
L 195.257971 266.343033 
L 196.496681 258.494077 
L 197.775349 243.263004 
L 198.9741 222.816618 
L 200.21281 197.1531 
L 205.207607 73.467054 
L 206.446317 57.257855 
L 207.724985 51.656443 
L 208.963694 58.529745 
L 210.202404 72.499574 
L 211.481072 95.041212 
L 213.918533 144.828719 
L 216.395952 188.069974 
L 217.634662 206.420648 
L 218.873372 220.532286 
L 220.112081 232.417985 
L 222.629459 254.362809 
L 223.82821 256.827846 
L 225.106879 256.360615 
L 226.345588 256.373503 
L 227.584298 256.107974 
L 228.862966 256.689667 
L 230.061717 258.374412 
L 231.340385 261.170721 
L 232.579095 265.549532 
L 233.857763 271.466711 
L 235.056514 278.895685 
L 236.295224 277.674832 
L 237.533934 278.370978 
L 238.812602 279.639057 
L 240.051311 280.044088 
L 241.250063 280.169868 
L 242.528731 280.761315 
L 243.76744 281.033476 
L 246.324776 281.32229 
L 247.523528 281.182587 
L 248.802196 281.195419 
L 250.080864 281.51193 
L 251.319573 281.973712 
L 252.558283 281.899832 
L 255.075661 282.153776 
L 257.513122 282.084346 
L 259.950583 282.454739 
L 261.269209 282.505801 
L 264.985338 283.342028 
L 266.224048 283.365292 
L 267.422799 283.045623 
L 268.701467 282.840546 
L 273.696264 282.550841 
L 277.412393 283.009614 
L 278.691061 282.826515 
L 281.128522 282.766489 
L 282.40719 283.178091 
L 283.6459 282.904027 
L 284.844651 282.490024 
L 287.362029 281.825073 
L 289.839448 281.801415 
L 291.078158 281.592147 
L 292.276909 281.887281 
L 293.515619 282.3632 
L 294.874204 282.631921 
L 297.471498 282.273131 
L 299.988876 281.991696 
L 302.546212 282.697276 
L 303.744963 282.596033 
L 304.983673 282.892418 
L 306.222383 283.052872 
L 307.421134 282.948377 
L 308.659843 283.11521 
L 309.858595 282.993483 
L 314.89335 283.769494 
L 317.37077 283.472023 
L 319.80823 283.585599 
L 321.086899 283.947075 
L 322.325608 283.909202 
L 323.604276 284.386647 
L 324.803028 284.544799 
L 326.081696 284.573275 
L 327.280447 284.25188 
L 328.559115 284.371471 
L 329.797825 284.098096 
L 330.996576 284.188636 
L 332.235286 283.859594 
L 333.513954 283.986807 
L 334.752663 283.920546 
L 335.991373 284.002868 
L 339.707502 282.818253 
L 343.463589 282.552656 
L 344.702299 282.491489 
L 347.179718 283.130369 
L 349.617179 282.321081 
L 352.174515 281.27736 
L 353.413225 280.818197 
L 354.651935 280.80674 
L 355.850686 280.510998 
L 357.129354 280.49775 
L 358.288147 280.9729 
L 359.606773 280.803761 
L 362.124151 279.727296 
L 363.282944 278.591918 
L 364.521654 277.675255 
L 365.800322 276.904457 
L 367.07899 276.678675 
L 368.237783 276.142564 
L 369.436534 276.102912 
L 370.795119 276.4097 
L 371.953912 276.48909 
L 374.71104 276.154616 
L 377.468168 274.626214 
L 381.264213 272.924173 
L 383.661716 272.56111 
L 387.49772 272.930807 
L 388.73643 273.238121 
L 391.213849 273.208034 
L 396.208646 271.192779 
L 397.407397 270.952012 
L 398.686065 271.026359 
L 399.964733 271.596022 
L 401.203443 272.609546 
L 402.402194 273.099729 
L 403.600946 273.294436 
L 404.999489 272.872617 
L 406.118323 272.845494 
L 407.396991 273.086928 
L 409.794494 273.03584 
L 411.11312 273.584145 
L 412.35183 274.439381 
L 413.59054 275.09925 
L 414.829249 275.58356 
L 416.187834 275.866656 
L 417.306669 276.356566 
L 419.704171 278.248086 
L 421.302506 278.625618 
L 422.421341 279.097532 
L 423.580134 279.743061 
L 429.773682 281.492398 
L 430.932475 281.895234 
L 432.29106 282.132174 
L 434.728521 282.915196 
L 435.967231 283.373256 
L 438.604483 283.860971 
L 439.723318 284.591523 
L 441.001986 284.992995 
L 443.559322 285.289184 
L 444.59824 285.216227 
L 445.876908 285.35877 
L 447.155576 285.633933 
L 448.354327 285.701745 
L 450.951622 286.124171 
L 452.23029 286.714181 
L 453.269208 286.982271 
L 456.266086 287.151185 
L 460.10209 286.898186 
L 461.540591 286.691945 
L 465.136845 286.809391 
L 467.494389 286.53438 
L 471.370352 286.719742 
L 476.285232 287.146875 
L 480.081278 286.522263 
L 482.398864 286.404815 
L 483.797407 286.610891 
L 484.996158 286.612593 
L 486.234868 286.819515 
L 490.030914 286.636175 
L 492.508333 286.24674 
L 493.82696 285.960546 
L 493.82696 285.960546 
" clip-path="url(#pecc04e89bb)" style="fill: none; stroke: #000000; stroke-width: 2.5; stroke-linecap: square"/>
   </g>
   <g id="line2d_13">
    <path d="M 33.946006 290.705186 
L 33.866089 290.575291 
L 33.866089 290.805173 
L 33.946006 290.77047 
L 35.544341 290.638335 
L 39.779929 290.49403 
L 45.853602 290.41342 
L 50.928316 290.655489 
L 59.43945 290.751251 
L 60.718118 290.615818 
L 63.395329 290.543607 
L 64.753914 290.458311 
L 67.471084 290.456238 
L 68.749752 290.471675 
L 72.505839 290.9031 
L 88.649023 290.622013 
L 93.64382 290.833908 
L 107.42946 290.600972 
L 109.946838 290.593827 
L 112.424257 290.548806 
L 122.45381 290.717103 
L 123.692519 290.622065 
L 126.209897 290.616368 
L 131.244652 290.380416 
L 135.00074 290.315555 
L 136.239449 290.072427 
L 137.398242 290.014628 
L 139.91562 289.639136 
L 143.751624 289.380156 
L 145.030292 289.442434 
L 146.229044 289.612592 
L 147.507712 289.681058 
L 149.985131 289.472621 
L 151.263799 289.554184 
L 153.661302 289.424506 
L 154.93997 289.103435 
L 157.377431 288.939427 
L 161.09356 289.10865 
L 163.650896 289.573653 
L 166.088357 289.551474 
L 167.327066 289.180292 
L 172.361822 288.198418 
L 177.396577 288.083651 
L 178.675245 287.757034 
L 179.993872 287.237696 
L 181.232581 286.908941 
L 184.908752 285.449088 
L 186.18742 285.048828 
L 187.386171 284.464887 
L 188.624881 284.176294 
L 189.863591 283.384398 
L 191.1023 282.277009 
L 192.34101 281.488112 
L 193.659636 279.781132 
L 194.858388 277.396569 
L 196.137056 274.435224 
L 197.375765 271.065939 
L 199.893143 262.428942 
L 202.330604 253.388046 
L 203.609272 250.638135 
L 204.847982 248.655083 
L 206.046733 247.528119 
L 207.285443 247.370474 
L 208.524152 248.523741 
L 211.04153 253.638991 
L 213.558908 259.692999 
L 215.996369 266.253397 
L 218.473788 270.361895 
L 222.229875 274.910607 
L 224.747253 277.194278 
L 225.985963 277.927975 
L 227.224672 278.84593 
L 229.702092 279.276347 
L 230.940801 279.476356 
L 232.179511 279.969039 
L 234.616972 280.313518 
L 235.89564 280.08362 
L 237.214267 280.162505 
L 239.691686 280.943423 
L 240.970354 281.099489 
L 243.407815 282.107176 
L 244.726441 282.783046 
L 245.925193 283.051664 
L 247.243819 282.998895 
L 248.44257 282.669436 
L 249.68128 282.695052 
L 252.158699 282.368771 
L 254.676077 282.684978 
L 258.352248 283.153487 
L 259.590957 282.934816 
L 264.585754 282.822081 
L 265.864422 283.166667 
L 267.063174 283.239443 
L 268.301883 283.003888 
L 270.819261 283.244829 
L 272.057971 283.123811 
L 273.336639 283.422173 
L 274.575348 283.557017 
L 277.052768 283.553947 
L 278.331436 283.667725 
L 279.570145 283.600036 
L 280.768897 283.1137 
L 282.047565 283.122589 
L 284.524984 282.676028 
L 285.763694 282.390841 
L 287.002403 282.247067 
L 289.439864 282.455418 
L 293.23591 281.782956 
L 295.793246 282.143629 
L 299.62925 283.565361 
L 300.86796 284.141088 
L 302.066711 284.361975 
L 307.101467 283.796754 
L 309.578886 284.076307 
L 314.493766 284.106323 
L 315.772434 284.079831 
L 318.209895 283.749526 
L 320.647356 283.748154 
L 323.164734 283.944155 
L 324.443402 284.149095 
L 325.642153 284.043852 
L 328.119573 283.970791 
L 330.63695 283.829948 
L 331.915619 283.644582 
L 333.154328 283.229886 
L 334.353079 283.435139 
L 335.551831 283.362116 
L 341.905213 281.464423 
L 343.024047 281.418247 
L 344.262757 281.151187 
L 345.581383 281.054174 
L 346.780135 281.38488 
L 348.138719 281.50489 
L 350.416347 280.70335 
L 351.774932 280.65391 
L 352.973683 280.096652 
L 354.212393 279.759896 
L 355.491061 279.637879 
L 356.809687 279.201968 
L 358.008438 279.036517 
L 359.20719 278.382472 
L 360.445899 278.218814 
L 362.923319 277.092798 
L 364.201987 276.981696 
L 365.440696 276.574342 
L 367.878157 276.392932 
L 369.116867 276.349156 
L 370.315618 276.556702 
L 371.594286 276.164388 
L 372.912913 276.350773 
L 375.749957 275.663805 
L 379.546003 274.174915 
L 380.824671 273.307481 
L 382.183256 272.566196 
L 383.382007 272.580228 
L 384.580759 272.41816 
L 387.098136 272.231913 
L 388.416763 271.737936 
L 389.655472 271.471695 
L 390.69439 271.700792 
L 392.092933 271.752572 
L 393.371601 271.426946 
L 394.570353 271.710417 
L 397.127689 273.368003 
L 398.366398 273.715074 
L 399.525191 273.795646 
L 403.281279 273.511668 
L 404.48003 273.512385 
L 405.798656 273.388138 
L 408.196159 273.658872 
L 409.354952 274.331474 
L 411.992205 275.053899 
L 413.230914 275.659778 
L 414.589499 275.795277 
L 416.947043 276.949414 
L 419.424463 278.043842 
L 420.743089 278.358123 
L 422.021757 279.324841 
L 425.89772 280.892648 
L 427.056513 280.985372 
L 431.811559 282.176841 
L 433.090227 282.309405 
L 435.527688 282.957465 
L 439.363693 283.791029 
L 440.522485 284.135137 
L 442.999905 284.490016 
L 444.35849 284.63222 
L 445.517282 284.537807 
L 446.716034 284.939971 
L 449.313328 285.524597 
L 450.51208 286.057219 
L 451.750789 286.465626 
L 452.789707 286.654576 
L 456.066294 286.819862 
L 458.503755 286.327928 
L 459.86234 286.466487 
L 461.141008 286.41665 
L 462.139967 286.497546 
L 464.697303 286.835922 
L 465.936013 286.604602 
L 467.254639 286.70382 
L 468.533307 286.459852 
L 469.652142 286.445637 
L 472.049644 286.880922 
L 473.448188 286.983942 
L 474.686897 286.873618 
L 477.164317 286.394719 
L 478.442985 286.376811 
L 480.840487 286.901138 
L 484.516658 288.03167 
L 485.875243 288.187225 
L 488.15287 287.93614 
L 490.909998 288.197743 
L 492.268583 288.227623 
L 493.267542 288.112929 
L 494.30646 287.79569 
L 494.30646 287.79569 
" clip-path="url(#pecc04e89bb)" style="fill: none; stroke: #1f77b4; stroke-width: 2.5; stroke-linecap: square"/>
   </g>
   <g id="line2d_14">
    <path d="M 33.546422 290.640443 
L 33.546422 290.563578 
L 33.586381 290.830505 
L 35.024882 290.690926 
L 36.942884 290.595084 
L 45.374102 290.686114 
L 48.13123 290.615735 
L 53.965153 290.745462 
L 55.203862 290.896818 
L 56.442572 290.739855 
L 57.72124 290.749402 
L 60.238618 290.478177 
L 64.194497 290.513099 
L 65.59304 290.645055 
L 75.702509 290.591902 
L 80.737265 290.582729 
L 82.015933 290.735198 
L 85.732062 290.767501 
L 89.488149 290.53463 
L 90.606984 290.615965 
L 93.16432 290.550304 
L 94.442988 290.667855 
L 96.960366 290.533845 
L 101.955163 290.430561 
L 105.751208 290.639919 
L 112.064632 290.57163 
L 114.502093 290.486431 
L 115.740802 290.454746 
L 117.099387 290.537729 
L 119.576807 290.50215 
L 122.054226 290.690157 
L 123.252977 290.712652 
L 130.765152 290.299571 
L 137.078575 290.28338 
L 138.357243 290.342629 
L 139.555995 290.152378 
L 142.073372 290.189256 
L 144.550792 289.968354 
L 145.789501 289.840009 
L 152.062967 289.731547 
L 153.261718 289.91388 
L 155.779096 289.939019 
L 158.256515 289.696271 
L 161.932685 289.976281 
L 164.450063 289.729054 
L 165.688773 289.807783 
L 172.002196 289.201756 
L 173.280864 289.23712 
L 174.519574 289.027485 
L 175.8382 288.630536 
L 179.514371 288.090928 
L 180.753081 288.037734 
L 184.46921 287.238541 
L 185.747878 287.035346 
L 186.986587 286.610876 
L 188.265256 285.963574 
L 189.464007 285.212245 
L 190.662758 284.676639 
L 191.981385 283.594302 
L 193.260053 282.772263 
L 194.498762 281.817652 
L 195.657555 280.54357 
L 196.976182 279.378772 
L 198.174933 277.941841 
L 199.493559 276.853002 
L 200.692311 275.536082 
L 203.209688 274.151751 
L 204.448398 273.43969 
L 205.687108 272.505607 
L 206.885859 272.087972 
L 208.124569 271.779775 
L 209.363278 272.153092 
L 210.641946 272.107562 
L 211.920614 272.747316 
L 213.119366 273.786754 
L 214.398034 275.181177 
L 216.875453 277.405705 
L 218.074204 277.454185 
L 219.312914 278.150028 
L 221.830292 279.148411 
L 223.069001 278.939779 
L 224.307711 279.164889 
L 228.063798 279.339251 
L 229.302508 279.64499 
L 230.541218 279.526557 
L 234.257347 279.991041 
L 235.456098 279.981039 
L 236.734766 280.276821 
L 237.933517 280.112762 
L 241.729563 280.602943 
L 242.968273 280.54194 
L 244.167024 280.905807 
L 245.445692 281.168841 
L 246.684402 281.291501 
L 247.923111 281.724055 
L 249.201779 281.902991 
L 250.440489 281.707342 
L 251.679199 281.639321 
L 252.917908 281.901876 
L 254.156618 281.712324 
L 256.673996 282.100095 
L 257.872747 282.410766 
L 259.191374 282.197787 
L 260.390125 282.576017 
L 261.668793 282.285368 
L 264.066295 282.247283 
L 265.42488 282.582037 
L 266.623632 282.667897 
L 267.862341 283.102591 
L 270.379719 283.100954 
L 271.618429 282.654525 
L 272.81718 282.864839 
L 274.135806 282.49819 
L 275.414474 282.449029 
L 277.851935 282.682937 
L 279.050687 282.709657 
L 280.369313 283.155161 
L 282.846732 282.889662 
L 285.36411 282.983189 
L 287.761613 282.677687 
L 289.000322 282.901017 
L 290.27899 282.807044 
L 292.75641 283.176498 
L 294.035078 283.050156 
L 295.273787 283.364748 
L 299.109792 283.820072 
L 300.428418 284.161513 
L 302.905837 284.431631 
L 304.144547 284.425973 
L 305.383257 284.57076 
L 306.582008 284.566654 
L 307.860676 284.858958 
L 309.139344 284.969501 
L 310.338095 285.235933 
L 311.576805 285.22787 
L 312.895431 285.4276 
L 314.094183 285.053606 
L 317.810312 284.758455 
L 319.049021 284.553451 
L 321.486482 284.505854 
L 322.725192 284.884962 
L 324.00386 284.856449 
L 325.282528 285.129395 
L 326.441321 285.11965 
L 327.680031 285.264569 
L 328.91874 285.246348 
L 332.714786 284.789128 
L 333.913537 284.544379 
L 335.192205 284.637313 
L 341.345795 283.716962 
L 345.061924 284.097256 
L 346.340592 284.344348 
L 348.85797 284.25369 
L 353.812809 283.14127 
L 355.091477 282.914015 
L 356.370145 282.828571 
L 357.528938 282.596493 
L 358.807606 282.730277 
L 360.046315 282.316887 
L 361.245067 282.343047 
L 363.722486 281.410565 
L 364.921237 280.69942 
L 366.239864 280.560154 
L 367.518532 280.29184 
L 368.717283 280.302886 
L 369.916034 279.9963 
L 371.234661 279.870266 
L 372.393454 279.400878 
L 373.752039 279.281873 
L 375.270457 278.711133 
L 376.669 278.314541 
L 377.90771 277.784483 
L 379.226336 277.549436 
L 380.465046 276.95801 
L 381.743714 276.553418 
L 382.942465 276.531173 
L 384.181175 276.013348 
L 385.459843 275.602095 
L 386.698552 275.641908 
L 387.857345 275.250168 
L 389.21593 275.100693 
L 390.45464 275.201052 
L 391.69335 275.453418 
L 392.892101 275.408789 
L 394.090852 275.568891 
L 395.289603 275.470042 
L 396.648188 274.790025 
L 397.886898 274.801946 
L 399.125608 274.636677 
L 400.244442 274.239971 
L 401.603027 274.182495 
L 402.921653 274.694281 
L 404.040488 275.58543 
L 405.359114 275.701162 
L 406.557866 275.499306 
L 407.836534 275.018365 
L 409.035285 275.294496 
L 410.39387 275.480765 
L 414.109999 275.616144 
L 416.627376 277.299218 
L 418.984921 277.65312 
L 420.263589 278.419278 
L 421.582215 278.632124 
L 422.661091 278.661564 
L 424.099593 278.509593 
L 425.218427 278.208699 
L 426.37722 278.258351 
L 428.974515 279.287482 
L 430.053391 280.010792 
L 431.451934 280.462542 
L 432.650685 281.445762 
L 433.889395 281.347895 
L 436.366814 281.777933 
L 437.725399 281.793697 
L 440.082943 282.917272 
L 442.640279 283.907261 
L 443.878989 283.989615 
L 445.157657 284.259516 
L 446.236533 284.013526 
L 450.032579 284.180999 
L 452.47004 284.601573 
L 453.868583 284.653062 
L 456.865461 285.235716 
L 458.024254 285.224637 
L 459.342881 285.380724 
L 460.621549 285.828859 
L 461.900217 286.027642 
L 464.297719 285.971936 
L 465.496471 286.414032 
L 466.73518 286.18644 
L 469.172641 286.358456 
L 470.451309 286.036162 
L 473.088562 286.050826 
L 475.446106 285.533962 
L 476.764733 285.646065 
L 478.003442 286.127161 
L 481.719571 286.815615 
L 485.395742 286.983681 
L 486.754327 286.673791 
L 487.993037 286.811562 
L 489.031954 287.122424 
L 490.270664 287.369481 
L 491.829041 287.447307 
L 493.06775 287.250478 
L 493.986793 286.673568 
L 493.986793 286.673568 
" clip-path="url(#pecc04e89bb)" style="fill: none; stroke: #d62728; stroke-width: 2.5; stroke-linecap: square"/>
   </g>
   <g id="line2d_15">
    <path d="M 35.384508 290.617692 
L 35.344549 290.742418 
L 35.264632 290.939735 
L 35.304591 290.898186 
L 36.0638 290.739645 
L 43.975558 290.616836 
L 47.531854 290.643435 
L 51.3279 290.704708 
L 57.281698 290.948772 
L 58.520407 290.792208 
L 61.077744 290.76963 
L 66.512083 290.650374 
L 69.109377 290.768477 
L 74.064216 290.829732 
L 80.217806 290.465602 
L 85.252561 290.589828 
L 87.809897 290.6904 
L 95.282114 290.63278 
L 98.998243 290.777969 
L 112.743924 290.563449 
L 119.137264 290.610142 
L 121.614684 290.587256 
L 124.132061 290.648025 
L 127.888149 290.495344 
L 131.644236 290.237481 
L 134.161614 290.116544 
L 135.440282 290.125552 
L 137.877743 290.288485 
L 140.315204 290.397994 
L 142.832582 290.443283 
L 147.78742 289.939806 
L 155.299595 289.959588 
L 159.055682 289.642342 
L 160.33435 289.591348 
L 165.289189 289.85828 
L 166.447982 289.723351 
L 167.72665 289.730389 
L 170.204069 289.326062 
L 171.522696 289.202307 
L 172.721447 288.911917 
L 173.960157 288.972505 
L 175.278783 288.883669 
L 179.034871 287.83344 
L 182.790958 285.607164 
L 184.029668 285.324125 
L 185.308336 284.389171 
L 186.507087 283.762259 
L 187.745797 283.436413 
L 190.263174 282.180808 
L 191.461926 281.841113 
L 193.979303 280.156978 
L 195.218013 279.185738 
L 196.496681 277.547618 
L 197.695432 275.221282 
L 198.934142 272.438813 
L 202.690229 262.607164 
L 203.968897 259.788558 
L 205.207607 258.128817 
L 206.446317 257.546747 
L 207.724985 257.649432 
L 209.003653 258.370637 
L 211.521031 261.972224 
L 212.719782 263.459606 
L 213.958492 265.4836 
L 216.475869 268.519057 
L 217.714579 270.41514 
L 218.953289 271.959076 
L 220.15204 273.248454 
L 222.709376 276.427443 
L 223.948086 277.440887 
L 225.106879 277.97801 
L 228.862966 278.554753 
L 230.061717 278.545787 
L 231.340385 278.302836 
L 235.056514 278.981519 
L 236.295224 279.275426 
L 238.772643 279.016377 
L 240.011353 279.160101 
L 241.290021 279.461892 
L 242.528731 279.587337 
L 243.76744 279.416953 
L 245.00615 279.747122 
L 246.24486 279.930957 
L 247.523528 279.978145 
L 248.762237 280.171999 
L 250.000947 280.143518 
L 251.239657 280.417454 
L 254.915827 280.614824 
L 256.234454 280.380361 
L 257.473163 280.429038 
L 260.030499 279.481639 
L 262.428002 279.346985 
L 263.746628 279.494634 
L 264.94538 279.488865 
L 267.422799 280.107064 
L 269.980135 280.3318 
L 271.218845 280.158033 
L 272.457554 280.53265 
L 274.895015 280.573049 
L 279.889812 280.478192 
L 281.088564 280.845025 
L 286.083361 281.057131 
L 287.32207 280.774859 
L 288.600739 280.765169 
L 290.998241 281.291027 
L 292.316868 281.036584 
L 293.515619 281.103402 
L 294.834245 280.919695 
L 296.19283 280.970322 
L 297.471498 280.778174 
L 298.670249 280.784122 
L 299.948917 280.92772 
L 301.147669 281.821381 
L 302.426337 282.179761 
L 303.705005 282.375767 
L 304.943714 282.420773 
L 308.619885 283.013644 
L 311.137263 283.214527 
L 313.614682 284.221876 
L 316.052143 283.852441 
L 317.37077 283.789236 
L 318.569521 283.599429 
L 319.80823 283.153679 
L 321.04694 283.124902 
L 323.524359 282.92541 
L 324.763069 283.294827 
L 326.041737 283.512366 
L 328.519157 283.309622 
L 329.717908 283.015587 
L 334.752663 282.658488 
L 335.991373 283.027887 
L 337.190124 283.140294 
L 338.428834 283.391507 
L 339.787419 282.875139 
L 340.946212 282.573623 
L 342.144963 282.145155 
L 344.742257 281.80879 
L 345.90105 281.414122 
L 348.37847 281.074141 
L 349.617179 280.66839 
L 350.935806 280.768261 
L 352.174515 280.498361 
L 353.333308 280.578398 
L 354.572018 280.288546 
L 355.810728 280.196702 
L 357.129354 280.342346 
L 358.328105 280.157033 
L 360.885441 280.212267 
L 362.084193 279.985167 
L 364.521654 279.769494 
L 365.84028 279.520172 
L 366.999073 279.01313 
L 370.675244 279.120764 
L 371.99387 279.10306 
L 373.152663 278.469332 
L 374.71104 278.054206 
L 377.548084 276.572702 
L 378.786794 276.111409 
L 380.10542 275.82419 
L 381.264213 275.932589 
L 382.58284 276.51911 
L 383.821549 276.669944 
L 384.980342 277.01152 
L 386.25901 276.748577 
L 387.537678 276.963683 
L 389.935181 276.333435 
L 391.213849 276.031422 
L 392.492517 275.60504 
L 393.851102 275.618534 
L 394.89002 275.854094 
L 396.208646 276.025552 
L 397.487314 276.550678 
L 398.56619 276.851908 
L 399.924775 277.003792 
L 401.083568 277.012575 
L 402.362236 277.175106 
L 403.560987 277.125577 
L 404.879614 276.938481 
L 406.038407 277.25158 
L 407.43695 277.120557 
L 408.555784 277.127429 
L 411.153079 277.672319 
L 412.271913 277.628305 
L 413.59054 277.985018 
L 414.749333 278.569259 
L 416.107917 278.975397 
L 418.625295 280.040802 
L 419.74413 279.633032 
L 424.818844 279.48002 
L 426.13747 279.672616 
L 429.773682 281.350501 
L 430.972434 281.55584 
L 433.52977 282.188069 
L 434.728521 282.308936 
L 435.927272 282.842544 
L 437.20594 282.805127 
L 439.563484 283.162349 
L 440.922069 283.318105 
L 442.160779 283.162607 
L 444.59824 283.49287 
L 445.876908 283.725217 
L 447.115618 284.226306 
L 450.831747 285.143886 
L 452.150373 285.044283 
L 453.229249 285.36379 
L 454.827584 285.299251 
L 456.226127 285.38307 
L 458.903339 286.047241 
L 460.221965 286.378605 
L 463.858177 286.664405 
L 465.176804 286.49724 
L 466.335597 286.492347 
L 467.534348 286.2016 
L 468.733099 286.08314 
L 471.370352 286.082629 
L 472.609062 285.903268 
L 474.926647 286.172243 
L 476.285232 286.504146 
L 480.121236 286.799091 
L 481.439863 287.156801 
L 485.036117 287.435622 
L 486.035076 287.837795 
L 488.752246 288.327222 
L 489.990955 288.430246 
L 491.189707 288.398319 
L 492.308541 288.196059 
L 493.547251 287.788087 
L 493.547251 287.788087 
" clip-path="url(#pecc04e89bb)" style="fill: none; stroke: #ff7f0e; stroke-width: 2.5; stroke-linecap: square"/>
   </g>
   <g id="line2d_16">
    <path d="M 34.025923 291.205218 
L 33.946006 290.679776 
L 33.906048 290.648469 
L 35.344549 290.722755 
L 37.062759 290.678639 
L 41.817806 290.722496 
L 47.172229 290.582955 
L 51.927275 290.706091 
L 69.828628 290.781279 
L 73.544757 290.666521 
L 83.614268 290.599379 
L 87.370355 290.71119 
L 91.206359 290.721699 
L 97.359949 290.487844 
L 102.354746 290.427693 
L 106.030917 290.622575 
L 107.269627 290.708731 
L 125.011146 290.307124 
L 127.488565 290.17422 
L 129.926026 290.274803 
L 138.67691 290.230093 
L 139.91562 290.282779 
L 141.15433 290.140827 
L 143.631749 289.981388 
L 144.870459 289.796414 
L 147.387836 289.694548 
L 149.865256 289.584904 
L 151.143924 289.583358 
L 153.621343 289.334945 
L 154.860053 289.397475 
L 157.457347 289.353705 
L 159.934767 289.447752 
L 166.088357 289.301222 
L 167.327066 289.305147 
L 168.565776 289.036036 
L 172.321863 288.95483 
L 173.600531 288.882365 
L 174.839241 289.032555 
L 176.077951 288.858708 
L 177.31666 288.515641 
L 179.834038 287.962009 
L 181.112706 287.352286 
L 182.351416 286.977821 
L 183.550167 286.233532 
L 184.828835 285.955092 
L 186.067545 285.806175 
L 187.346213 285.834548 
L 188.584923 285.467537 
L 191.1023 284.318209 
L 192.301052 283.1582 
L 193.57972 281.582129 
L 196.057139 278.053558 
L 197.25589 275.267807 
L 200.972019 268.143514 
L 202.210729 265.471559 
L 203.529355 263.277113 
L 204.728107 262.129146 
L 205.966816 261.580868 
L 207.205526 262.763865 
L 208.484194 264.636963 
L 209.762862 265.353601 
L 212.240281 269.37786 
L 213.478991 271.030315 
L 215.95641 273.40445 
L 217.19512 274.978195 
L 218.513746 276.199874 
L 219.712498 277.88428 
L 220.991166 278.575968 
L 223.468585 279.225682 
L 224.667336 279.63549 
L 225.906046 279.858973 
L 227.144756 279.860821 
L 228.463382 279.694961 
L 232.139553 279.677554 
L 234.616972 279.135097 
L 235.89564 278.528466 
L 237.13435 278.719252 
L 239.611769 278.848943 
L 240.930396 278.934981 
L 242.169105 279.290191 
L 243.407815 279.82325 
L 245.845276 281.048688 
L 247.083986 281.183473 
L 248.362654 280.798323 
L 249.561405 281.256651 
L 250.840073 281.491683 
L 252.038824 281.496286 
L 253.317492 281.203201 
L 255.754953 281.286145 
L 256.993663 281.075419 
L 259.471082 281.108186 
L 260.829667 280.744067 
L 263.22717 281.345557 
L 265.744547 281.434676 
L 266.943299 281.921331 
L 270.699386 281.732256 
L 271.978054 281.3819 
L 273.136847 281.35258 
L 276.972851 280.941587 
L 280.728938 281.700272 
L 281.92769 281.722297 
L 283.206358 281.40778 
L 286.922487 281.229076 
L 289.399906 281.708265 
L 290.678574 281.778498 
L 294.394703 282.971017 
L 295.71333 283.176547 
L 296.991998 283.898564 
L 299.549334 284.21283 
L 300.788043 284.393232 
L 302.066711 284.265533 
L 303.345379 283.466187 
L 306.981592 282.907601 
L 308.140385 282.94296 
L 309.459011 283.332016 
L 313.135182 284.072527 
L 314.453808 284.697617 
L 327.999698 284.642409 
L 334.353079 283.997006 
L 335.511872 284.076914 
L 336.710624 283.898376 
L 337.989292 283.873858 
L 339.228001 283.576347 
L 340.546628 283.614615 
L 341.745379 283.30059 
L 344.302715 283.001568 
L 345.461508 283.060061 
L 349.217595 282.953295 
L 352.893766 282.119464 
L 354.132476 281.31277 
L 355.371185 281.414186 
L 356.609895 281.131124 
L 359.087314 281.055217 
L 360.365982 280.683221 
L 362.843402 280.45148 
L 365.280863 279.7528 
L 366.559531 279.187262 
L 367.79824 279.105823 
L 369.03695 278.893384 
L 374.191581 279.051473 
L 375.590124 279.403093 
L 376.988667 279.240045 
L 379.506045 278.49158 
L 384.580759 277.975268 
L 385.819468 278.02911 
L 389.535597 276.973039 
L 390.69439 276.542155 
L 391.973058 276.747955 
L 393.211768 277.073778 
L 394.490436 276.818899 
L 395.729146 277.580173 
L 399.485233 278.293537 
L 401.882736 278.138545 
L 403.161404 278.332207 
L 404.48003 278.702755 
L 405.558906 278.848426 
L 406.917491 278.816725 
L 408.196159 279.286141 
L 410.753495 279.669912 
L 411.87233 280.185989 
L 413.150998 280.315454 
L 414.389707 280.083478 
L 420.583256 281.376171 
L 423.300425 282.387887 
L 425.657969 282.621788 
L 430.612808 284.036781 
L 431.771601 284.037865 
L 433.050269 283.91964 
L 438.005108 284.552857 
L 439.163901 284.901679 
L 442.840071 285.105293 
L 444.198656 284.817832 
L 445.357449 284.927237 
L 446.676075 285.232238 
L 449.193453 286.046261 
L 450.432163 286.276182 
L 454.268167 286.442899 
L 457.105212 286.629731 
L 459.582631 286.964654 
L 461.141008 286.954938 
L 465.816138 286.258884 
L 467.134764 286.207589 
L 470.890851 286.577333 
L 472.16952 286.9449 
L 473.328312 287.051447 
L 478.243193 288.071133 
L 482.159114 288.090905 
L 483.397823 288.268953 
L 484.596575 288.265905 
L 485.875243 288.438173 
L 487.073994 288.777976 
L 489.591372 288.794375 
L 493.307501 288.507227 
L 494.186585 288.383456 
L 494.186585 288.383456 
" clip-path="url(#pecc04e89bb)" style="fill: none; stroke: #9467bd; stroke-width: 2.5; stroke-linecap: square"/>
   </g>
   <g id="line2d_17">
    <path d="M 35.104799 290.862537 
L 35.024882 290.58022 
L 35.024882 290.918285 
L 34.944965 290.819691 
L 35.064841 290.765164 
L 38.701053 290.697334 
L 43.296266 290.617787 
L 48.410938 290.690413 
L 56.762239 290.563536 
L 59.279617 290.754474 
L 60.598243 290.662019 
L 61.876911 290.708573 
L 65.992624 290.514447 
L 79.85818 290.784234 
L 82.375558 290.859113 
L 84.852977 290.820223 
L 97.319991 290.504836 
L 103.513539 290.458736 
L 104.792207 290.587385 
L 116.140386 290.646982 
L 118.657764 290.690997 
L 126.169939 290.524317 
L 127.448607 290.658934 
L 131.244652 290.432745 
L 133.682113 290.084592 
L 137.438201 289.839723 
L 138.716869 289.612622 
L 139.955578 289.643876 
L 142.393039 289.367813 
L 143.671707 289.281438 
L 151.103965 289.393218 
L 152.342675 289.251537 
L 157.337472 289.236638 
L 158.536223 289.26506 
L 159.814892 289.41857 
L 163.570979 289.278014 
L 167.287108 289.096405 
L 176.077951 287.242357 
L 179.913955 285.185893 
L 181.112706 284.280833 
L 182.391374 283.765286 
L 183.630084 282.83632 
L 186.107503 282.108524 
L 187.306254 281.969654 
L 188.544964 281.255369 
L 189.863591 280.712559 
L 191.062342 279.330133 
L 192.301052 277.014758 
L 193.57972 273.905452 
L 197.295849 264.09301 
L 199.813226 258.859881 
L 201.011978 257.924495 
L 202.290646 257.364412 
L 203.529355 257.500504 
L 204.728107 257.900656 
L 206.006775 258.974735 
L 207.245484 261.232478 
L 208.524152 264.071765 
L 209.722904 266.349766 
L 211.001572 269.091017 
L 212.240281 270.910729 
L 213.518949 273.077356 
L 214.717701 273.875734 
L 215.95641 275.082754 
L 217.235078 275.599078 
L 218.43383 275.848842 
L 219.712498 276.78987 
L 220.951207 277.556273 
L 222.189917 277.959498 
L 223.468585 278.86759 
L 224.707295 279.128707 
L 227.144756 279.094201 
L 229.662133 279.389373 
L 230.900843 279.106744 
L 233.378262 280.206831 
L 234.65693 280.366007 
L 235.89564 280.725108 
L 237.13435 280.843552 
L 238.373059 280.500867 
L 239.611769 280.68494 
L 242.089188 280.65144 
L 243.327898 280.732277 
L 244.566608 280.960538 
L 248.282737 280.789408 
L 249.481488 280.71605 
L 250.800115 280.894035 
L 254.476285 280.554824 
L 255.714995 280.856376 
L 258.232373 280.36757 
L 259.471082 279.873863 
L 261.908543 279.743778 
L 263.22717 280.106975 
L 264.465879 279.614251 
L 266.943299 279.768487 
L 268.14205 280.170878 
L 269.420718 280.212648 
L 270.659428 280.390178 
L 271.898137 280.194875 
L 273.216764 280.371501 
L 274.455473 280.377797 
L 275.654225 280.16673 
L 276.852976 279.467482 
L 278.131644 279.387384 
L 279.330395 278.912253 
L 280.529147 278.914283 
L 283.086483 279.788762 
L 284.285234 280.387066 
L 285.563902 280.783111 
L 286.762653 281.397788 
L 288.041321 281.633949 
L 289.319989 281.585871 
L 290.558699 281.741437 
L 291.797409 281.453121 
L 293.076077 281.336339 
L 295.673371 281.627031 
L 296.991998 282.368188 
L 298.270666 282.543771 
L 299.469417 283.312465 
L 300.548293 283.714848 
L 301.866919 283.735697 
L 303.065671 284.020898 
L 304.384297 283.944005 
L 305.623007 283.627883 
L 309.419053 284.249281 
L 310.657762 284.117503 
L 311.93643 284.288143 
L 314.41385 283.870147 
L 315.612601 283.94864 
L 316.851311 283.628243 
L 318.129979 283.539308 
L 319.408647 283.839828 
L 320.647356 283.869717 
L 323.124776 284.094986 
L 326.800946 283.757642 
L 328.039656 283.870572 
L 330.517075 283.74256 
L 331.795743 283.42575 
L 338.02925 282.646536 
L 340.546628 282.75306 
L 341.665462 282.666092 
L 346.700218 281.542135 
L 347.898969 281.339492 
L 349.217595 281.332801 
L 350.456305 281.055667 
L 351.615098 281.020007 
L 352.893766 280.842644 
L 355.371185 280.717368 
L 356.609895 280.306229 
L 357.928522 279.50247 
L 359.127273 279.105414 
L 360.365982 278.538913 
L 362.88336 277.630404 
L 364.082111 277.844575 
L 366.559531 278.64653 
L 367.838199 278.567139 
L 369.03695 278.203267 
L 370.27566 277.192398 
L 371.634245 276.497182 
L 374.271497 275.353409 
L 375.630082 274.539686 
L 377.028625 274.683813 
L 378.267335 274.6263 
L 379.506045 274.736692 
L 383.342049 273.940575 
L 384.5408 274.158149 
L 385.77951 274.609958 
L 387.01822 274.493881 
L 388.296888 274.172076 
L 389.535597 274.485466 
L 390.734349 273.931725 
L 391.973058 273.654992 
L 394.530394 273.639681 
L 395.769104 273.946482 
L 396.967855 274.391403 
L 398.206565 275.181224 
L 399.485233 275.797109 
L 400.644026 275.774662 
L 402.002611 276.293259 
L 403.161404 276.304989 
L 404.519988 276.575577 
L 405.71874 277.001555 
L 408.196159 277.170653 
L 409.434869 277.595899 
L 410.673578 278.688069 
L 411.87233 279.009655 
L 413.190956 278.888209 
L 414.349749 279.421645 
L 416.78721 279.703904 
L 418.105836 279.726754 
L 419.464421 279.978603 
L 420.583256 279.94131 
L 421.861924 280.444179 
L 423.380342 281.261288 
L 424.499177 281.297821 
L 425.697928 281.684553 
L 426.776804 281.88899 
L 429.33414 282.054639 
L 431.811559 282.632766 
L 432.930394 282.800076 
L 435.48773 283.75853 
L 436.72644 284.066592 
L 438.045066 284.561116 
L 440.442569 285.164709 
L 441.761195 285.351311 
L 445.397407 285.444302 
L 446.636117 285.199508 
L 447.914785 285.352926 
L 449.113536 285.304116 
L 451.670872 285.560093 
L 452.789707 285.76757 
L 454.268167 286.229789 
L 455.786585 286.507833 
L 457.025295 286.907083 
L 458.38388 287.033622 
L 459.622589 286.950526 
L 460.861299 287.205296 
L 462.179925 287.073819 
L 463.618427 286.800931 
L 464.617386 286.497251 
L 466.934972 286.497127 
L 468.293557 286.382261 
L 470.810935 286.413439 
L 478.283151 287.826074 
L 480.800529 288.059253 
L 482.079197 288.268046 
L 483.158073 288.561268 
L 484.636533 288.792957 
L 487.233827 288.725988 
L 488.192828 288.748009 
L 490.830081 288.561464 
L 493.06775 288.594655 
L 494.30646 288.792055 
L 494.30646 288.792055 
" clip-path="url(#pecc04e89bb)" style="fill: none; stroke: #2ca02c; stroke-width: 2.5; stroke-linecap: square"/>
   </g>
   <g id="patch_3">
    <path d="M 35.624258 303.182656 
L 35.624258 39.679004 
" style="fill: none; stroke: #000000; stroke-width: 1.5; stroke-linejoin: miter; stroke-linecap: square"/>
   </g>
   <g id="patch_4">
    <path d="M 35.624258 303.182656 
L 495.145586 303.182656 
" style="fill: none; stroke: #000000; stroke-width: 1.5; stroke-linejoin: miter; stroke-linecap: square"/>
   </g>
   <g id="text_15">
    <!-- 1421_wo_HF -->
    <g transform="translate(223.750234 18.441699) scale(0.14 -0.14)">
     <defs>
      <path id="ArialMT-42" d="M -97 -1272 
L -97 -866 
L 3631 -866 
L 3631 -1272 
L -97 -1272 
z
" transform="scale(0.015625)"/>
      <path id="ArialMT-5a" d="M 1034 0 
L 19 3319 
L 600 3319 
L 1128 1403 
L 1325 691 
Q 1338 744 1497 1375 
L 2025 3319 
L 2603 3319 
L 3100 1394 
L 3266 759 
L 3456 1400 
L 4025 3319 
L 4572 3319 
L 3534 0 
L 2950 0 
L 2422 1988 
L 2294 2553 
L 1622 0 
L 1034 0 
z
" transform="scale(0.015625)"/>
      <path id="ArialMT-2b" d="M 513 0 
L 513 4581 
L 1119 4581 
L 1119 2700 
L 3500 2700 
L 3500 4581 
L 4106 4581 
L 4106 0 
L 3500 0 
L 3500 2159 
L 1119 2159 
L 1119 0 
L 513 0 
z
" transform="scale(0.015625)"/>
      <path id="ArialMT-29" d="M 525 0 
L 525 4581 
L 3616 4581 
L 3616 4041 
L 1131 4041 
L 1131 2622 
L 3281 2622 
L 3281 2081 
L 1131 2081 
L 1131 0 
L 525 0 
z
" transform="scale(0.015625)"/>
     </defs>
     <use xlink:href="#ArialMT-14"/>
     <use xlink:href="#ArialMT-17" transform="translate(55.609375 0)"/>
     <use xlink:href="#ArialMT-15" transform="translate(111.21875 0)"/>
     <use xlink:href="#ArialMT-14" transform="translate(166.828125 0)"/>
     <use xlink:href="#ArialMT-42" transform="translate(222.4375 0)"/>
     <use xlink:href="#ArialMT-5a" transform="translate(278.046875 0)"/>
     <use xlink:href="#ArialMT-52" transform="translate(350.265625 0)"/>
     <use xlink:href="#ArialMT-42" transform="translate(405.875 0)"/>
     <use xlink:href="#ArialMT-2b" transform="translate(461.484375 0)"/>
     <use xlink:href="#ArialMT-29" transform="translate(533.703125 0)"/>
    </g>
    <!-- m/z 40 -->
    <g transform="translate(244.379453 33.679004) scale(0.14 -0.14)">
     <use xlink:href="#ArialMT-50"/>
     <use xlink:href="#ArialMT-12" transform="translate(83.296875 0)"/>
     <use xlink:href="#ArialMT-5d" transform="translate(111.078125 0)"/>
     <use xlink:href="#ArialMT-3" transform="translate(161.078125 0)"/>
     <use xlink:href="#ArialMT-17" transform="translate(188.859375 0)"/>
     <use xlink:href="#ArialMT-13" transform="translate(244.46875 0)"/>
    </g>
   </g>
   <g id="legend_1">
    <g id="line2d_18">
     <path d="M 513.336012 52.459277 
L 523.336012 52.459277 
L 533.336012 52.459277 
" style="fill: none; stroke: #000000; stroke-width: 2.5; stroke-linecap: square"/>
    </g>
    <g id="text_16">
     <!-- 0 h -->
     <g transform="translate(541.336012 55.959277) scale(0.1 -0.1)">
      <defs>
       <path id="ArialMT-4b" d="M 422 0 
L 422 4581 
L 984 4581 
L 984 2938 
Q 1378 3394 1978 3394 
Q 2347 3394 2619 3248 
Q 2891 3103 3008 2847 
Q 3125 2591 3125 2103 
L 3125 0 
L 2563 0 
L 2563 2103 
Q 2563 2525 2380 2717 
Q 2197 2909 1863 2909 
Q 1613 2909 1392 2779 
Q 1172 2650 1078 2428 
Q 984 2206 984 1816 
L 984 0 
L 422 0 
z
" transform="scale(0.015625)"/>
      </defs>
      <use xlink:href="#ArialMT-13"/>
      <use xlink:href="#ArialMT-3" transform="translate(55.609375 0)"/>
      <use xlink:href="#ArialMT-4b" transform="translate(83.390625 0)"/>
     </g>
    </g>
    <g id="line2d_19">
     <path d="M 513.336012 66.844043 
L 523.336012 66.844043 
L 533.336012 66.844043 
" style="fill: none; stroke: #1f77b4; stroke-width: 2.5; stroke-linecap: square"/>
    </g>
    <g id="text_17">
     <!-- 6 h -->
     <g transform="translate(541.336012 70.344043) scale(0.1 -0.1)">
      <use xlink:href="#ArialMT-19"/>
      <use xlink:href="#ArialMT-3" transform="translate(55.609375 0)"/>
      <use xlink:href="#ArialMT-4b" transform="translate(83.390625 0)"/>
     </g>
    </g>
    <g id="line2d_20">
     <path d="M 513.336012 81.228809 
L 523.336012 81.228809 
L 533.336012 81.228809 
" style="fill: none; stroke: #d62728; stroke-width: 2.5; stroke-linecap: square"/>
    </g>
    <g id="text_18">
     <!-- 24 h -->
     <g transform="translate(541.336012 84.728809) scale(0.1 -0.1)">
      <use xlink:href="#ArialMT-15"/>
      <use xlink:href="#ArialMT-17" transform="translate(55.609375 0)"/>
      <use xlink:href="#ArialMT-3" transform="translate(111.21875 0)"/>
      <use xlink:href="#ArialMT-4b" transform="translate(139 0)"/>
     </g>
    </g>
    <g id="line2d_21">
     <path d="M 513.336012 95.613574 
L 523.336012 95.613574 
L 533.336012 95.613574 
" style="fill: none; stroke: #ff7f0e; stroke-width: 2.5; stroke-linecap: square"/>
    </g>
    <g id="text_19">
     <!-- 7 d -->
     <g transform="translate(541.336012 99.113574) scale(0.1 -0.1)">
      <defs>
       <path id="ArialMT-1a" d="M 303 3981 
L 303 4522 
L 3269 4522 
L 3269 4084 
Q 2831 3619 2401 2847 
Q 1972 2075 1738 1259 
Q 1569 684 1522 0 
L 944 0 
Q 953 541 1156 1306 
Q 1359 2072 1739 2783 
Q 2119 3494 2547 3981 
L 303 3981 
z
" transform="scale(0.015625)"/>
       <path id="ArialMT-47" d="M 2575 0 
L 2575 419 
Q 2259 -75 1647 -75 
Q 1250 -75 917 144 
Q 584 363 401 755 
Q 219 1147 219 1656 
Q 219 2153 384 2558 
Q 550 2963 881 3178 
Q 1213 3394 1622 3394 
Q 1922 3394 2156 3267 
Q 2391 3141 2538 2938 
L 2538 4581 
L 3097 4581 
L 3097 0 
L 2575 0 
z
M 797 1656 
Q 797 1019 1065 703 
Q 1334 388 1700 388 
Q 2069 388 2326 689 
Q 2584 991 2584 1609 
Q 2584 2291 2321 2609 
Q 2059 2928 1675 2928 
Q 1300 2928 1048 2622 
Q 797 2316 797 1656 
z
" transform="scale(0.015625)"/>
      </defs>
      <use xlink:href="#ArialMT-1a"/>
      <use xlink:href="#ArialMT-3" transform="translate(55.609375 0)"/>
      <use xlink:href="#ArialMT-47" transform="translate(83.390625 0)"/>
     </g>
    </g>
    <g id="line2d_22">
     <path d="M 513.336012 109.99834 
L 523.336012 109.99834 
L 533.336012 109.99834 
" style="fill: none; stroke: #9467bd; stroke-width: 2.5; stroke-linecap: square"/>
    </g>
    <g id="text_20">
     <!-- 14 d -->
     <g transform="translate(541.336012 113.49834) scale(0.1 -0.1)">
      <use xlink:href="#ArialMT-14"/>
      <use xlink:href="#ArialMT-17" transform="translate(55.609375 0)"/>
      <use xlink:href="#ArialMT-3" transform="translate(111.21875 0)"/>
      <use xlink:href="#ArialMT-47" transform="translate(139 0)"/>
     </g>
    </g>
    <g id="line2d_23">
     <path d="M 513.336012 124.383105 
L 523.336012 124.383105 
L 533.336012 124.383105 
" style="fill: none; stroke: #2ca02c; stroke-width: 2.5; stroke-linecap: square"/>
    </g>
    <g id="text_21">
     <!-- 28 d -->
     <g transform="translate(541.336012 127.883105) scale(0.1 -0.1)">
      <use xlink:href="#ArialMT-15"/>
      <use xlink:href="#ArialMT-1b" transform="translate(55.609375 0)"/>
      <use xlink:href="#ArialMT-3" transform="translate(111.21875 0)"/>
      <use xlink:href="#ArialMT-47" transform="translate(139 0)"/>
     </g>
    </g>
   </g>
  </g>
 </g>
 <defs>
  <clipPath id="pecc04e89bb">
   <rect x="35.624258" y="39.679004" width="459.521328" height="263.503652"/>
  </clipPath>
 </defs>
</svg>
