<?xml version="1.0" encoding="utf-8" standalone="no"?>
<!DOCTYPE svg PUBLIC "-//W3C//DTD SVG 1.1//EN"
  "http://www.w3.org/Graphics/SVG/1.1/DTD/svg11.dtd">
<svg xmlns:xlink="http://www.w3.org/1999/xlink" width="571.87295pt" height="344.160273pt" viewBox="0 0 571.87295 344.160273" xmlns="http://www.w3.org/2000/svg" version="1.1">
 <metadata>
  <rdf:RDF xmlns:dc="http://purl.org/dc/elements/1.1/" xmlns:cc="http://creativecommons.org/ns#" xmlns:rdf="http://www.w3.org/1999/02/22-rdf-syntax-ns#">
   <cc:Work>
    <dc:type rdf:resource="http://purl.org/dc/dcmitype/StillImage"/>
    <dc:date>2026-07-10T11:48:38.621239</dc:date>
    <dc:format>image/svg+xml</dc:format>
    <dc:creator>
     <cc:Agent>
      <dc:title>Matplotlib v3.11.0, https://matplotlib.org/</dc:title>
     </cc:Agent>
    </dc:creator>
   </cc:Work>
  </rdf:RDF>
 </metadata>
 <defs>
  <style type="text/css">*{stroke-linejoin: round; stroke-linecap: butt}</style>
 </defs>
 <g id="figure_1">
  <g id="patch_1">
   <path d="M 0 344.160273 
L 571.87295 344.160273 
L 571.87295 0 
L 0 0 
z
" style="fill: #ffffff"/>
  </g>
  <g id="axes_1">
   <g id="patch_2">
    <path d="M 55.084258 303.182656 
L 495.405586 303.182656 
L 495.405586 39.679004 
L 55.084258 39.679004 
z
" style="fill: #ffffff"/>
   </g>
   <g id="matplotlib.axis_1">
    <g id="xtick_1">
     <g id="line2d_1">
      <defs>
       <path id="m4a3b168924" d="M 0 0 
L 0 -6 
" style="stroke: #000000; stroke-width: 0.8"/>
      </defs>
      <g>
       <use xlink:href="#m4a3b168924" x="112.517475" y="303.182656" style="stroke: #000000; stroke-width: 0.8"/>
      </g>
     </g>
     <g id="text_1">
      <!-- 200 -->
      <g transform="translate(100.839506 316.875039) scale(0.14 -0.14)">
       <defs>
        <path id="ArialMT-15" d="M 3222 541 
L 3222 0 
L 194 0 
Q 188 203 259 391 
Q 375 700 629 1000 
Q 884 1300 1366 1694 
Q 2113 2306 2375 2664 
Q 2638 3022 2638 3341 
Q 2638 3675 2398 3904 
Q 2159 4134 1775 4134 
Q 1369 4134 1125 3890 
Q 881 3647 878 3216 
L 300 3275 
Q 359 3922 746 4261 
Q 1134 4600 1788 4600 
Q 2447 4600 2831 4234 
Q 3216 3869 3216 3328 
Q 3216 3053 3103 2787 
Q 2991 2522 2730 2228 
Q 2469 1934 1863 1422 
Q 1356 997 1212 845 
Q 1069 694 975 541 
L 3222 541 
z
" transform="scale(0.015625)"/>
        <path id="ArialMT-13" d="M 266 2259 
Q 266 3072 433 3567 
Q 600 4063 929 4331 
Q 1259 4600 1759 4600 
Q 2128 4600 2406 4451 
Q 2684 4303 2865 4023 
Q 3047 3744 3150 3342 
Q 3253 2941 3253 2259 
Q 3253 1453 3087 958 
Q 2922 463 2592 192 
Q 2263 -78 1759 -78 
Q 1097 -78 719 397 
Q 266 969 266 2259 
z
M 844 2259 
Q 844 1131 1108 757 
Q 1372 384 1759 384 
Q 2147 384 2411 759 
Q 2675 1134 2675 2259 
Q 2675 3391 2411 3762 
Q 2147 4134 1753 4134 
Q 1366 4134 1134 3806 
Q 844 3388 844 2259 
z
" transform="scale(0.015625)"/>
       </defs>
       <use xlink:href="#ArialMT-15"/>
       <use xlink:href="#ArialMT-13" transform="translate(55.609375 0)"/>
       <use xlink:href="#ArialMT-13" transform="translate(111.21875 0)"/>
      </g>
     </g>
    </g>
    <g id="xtick_2">
     <g id="line2d_2">
      <g>
       <use xlink:href="#m4a3b168924" x="189.095097" y="303.182656" style="stroke: #000000; stroke-width: 0.8"/>
      </g>
     </g>
     <g id="text_2">
      <!-- 400 -->
      <g transform="translate(177.417128 316.875039) scale(0.14 -0.14)">
       <defs>
        <path id="ArialMT-17" d="M 2069 0 
L 2069 1097 
L 81 1097 
L 81 1613 
L 2172 4581 
L 2631 4581 
L 2631 1613 
L 3250 1613 
L 3250 1097 
L 2631 1097 
L 2631 0 
L 2069 0 
z
M 2069 1613 
L 2069 3678 
L 634 1613 
L 2069 1613 
z
" transform="scale(0.015625)"/>
       </defs>
       <use xlink:href="#ArialMT-17"/>
       <use xlink:href="#ArialMT-13" transform="translate(55.609375 0)"/>
       <use xlink:href="#ArialMT-13" transform="translate(111.21875 0)"/>
      </g>
     </g>
    </g>
    <g id="xtick_3">
     <g id="line2d_3">
      <g>
       <use xlink:href="#m4a3b168924" x="265.672719" y="303.182656" style="stroke: #000000; stroke-width: 0.8"/>
      </g>
     </g>
     <g id="text_3">
      <!-- 600 -->
      <g transform="translate(253.99475 316.875039) scale(0.14 -0.14)">
       <defs>
        <path id="ArialMT-19" d="M 3184 3459 
L 2625 3416 
Q 2550 3747 2413 3897 
Q 2184 4138 1850 4138 
Q 1581 4138 1378 3988 
Q 1113 3794 959 3422 
Q 806 3050 800 2363 
Q 1003 2672 1297 2822 
Q 1591 2972 1913 2972 
Q 2475 2972 2870 2558 
Q 3266 2144 3266 1488 
Q 3266 1056 3080 686 
Q 2894 316 2569 119 
Q 2244 -78 1831 -78 
Q 1128 -78 684 439 
Q 241 956 241 2144 
Q 241 3472 731 4075 
Q 1159 4600 1884 4600 
Q 2425 4600 2770 4297 
Q 3116 3994 3184 3459 
z
M 888 1484 
Q 888 1194 1011 928 
Q 1134 663 1356 523 
Q 1578 384 1822 384 
Q 2178 384 2434 671 
Q 2691 959 2691 1453 
Q 2691 1928 2437 2201 
Q 2184 2475 1800 2475 
Q 1419 2475 1153 2201 
Q 888 1928 888 1484 
z
" transform="scale(0.015625)"/>
       </defs>
       <use xlink:href="#ArialMT-19"/>
       <use xlink:href="#ArialMT-13" transform="translate(55.609375 0)"/>
       <use xlink:href="#ArialMT-13" transform="translate(111.21875 0)"/>
      </g>
     </g>
    </g>
    <g id="xtick_4">
     <g id="line2d_4">
      <g>
       <use xlink:href="#m4a3b168924" x="342.250341" y="303.182656" style="stroke: #000000; stroke-width: 0.8"/>
      </g>
     </g>
     <g id="text_4">
      <!-- 800 -->
      <g transform="translate(330.572373 316.875039) scale(0.14 -0.14)">
       <defs>
        <path id="ArialMT-1b" d="M 1131 2484 
Q 781 2613 612 2850 
Q 444 3088 444 3419 
Q 444 3919 803 4259 
Q 1163 4600 1759 4600 
Q 2359 4600 2725 4251 
Q 3091 3903 3091 3403 
Q 3091 3084 2923 2848 
Q 2756 2613 2416 2484 
Q 2838 2347 3058 2040 
Q 3278 1734 3278 1309 
Q 3278 722 2862 322 
Q 2447 -78 1769 -78 
Q 1091 -78 675 323 
Q 259 725 259 1325 
Q 259 1772 486 2073 
Q 713 2375 1131 2484 
z
M 1019 3438 
Q 1019 3113 1228 2906 
Q 1438 2700 1772 2700 
Q 2097 2700 2305 2904 
Q 2513 3109 2513 3406 
Q 2513 3716 2298 3927 
Q 2084 4138 1766 4138 
Q 1444 4138 1231 3931 
Q 1019 3725 1019 3438 
z
M 838 1322 
Q 838 1081 952 856 
Q 1066 631 1291 507 
Q 1516 384 1775 384 
Q 2178 384 2440 643 
Q 2703 903 2703 1303 
Q 2703 1709 2433 1975 
Q 2163 2241 1756 2241 
Q 1359 2241 1098 1978 
Q 838 1716 838 1322 
z
" transform="scale(0.015625)"/>
       </defs>
       <use xlink:href="#ArialMT-1b"/>
       <use xlink:href="#ArialMT-13" transform="translate(55.609375 0)"/>
       <use xlink:href="#ArialMT-13" transform="translate(111.21875 0)"/>
      </g>
     </g>
    </g>
    <g id="xtick_5">
     <g id="line2d_5">
      <g>
       <use xlink:href="#m4a3b168924" x="418.827964" y="303.182656" style="stroke: #000000; stroke-width: 0.8"/>
      </g>
     </g>
     <g id="text_5">
      <!-- 1000 -->
      <g transform="translate(403.257339 316.875039) scale(0.14 -0.14)">
       <defs>
        <path id="ArialMT-14" d="M 2384 0 
L 1822 0 
L 1822 3584 
Q 1619 3391 1289 3197 
Q 959 3003 697 2906 
L 697 3450 
Q 1169 3672 1522 3987 
Q 1875 4303 2022 4600 
L 2384 4600 
L 2384 0 
z
" transform="scale(0.015625)"/>
       </defs>
       <use xlink:href="#ArialMT-14"/>
       <use xlink:href="#ArialMT-13" transform="translate(55.609375 0)"/>
       <use xlink:href="#ArialMT-13" transform="translate(111.21875 0)"/>
       <use xlink:href="#ArialMT-13" transform="translate(166.828125 0)"/>
      </g>
     </g>
    </g>
    <g id="xtick_6">
     <g id="line2d_6">
      <g>
       <use xlink:href="#m4a3b168924" x="495.405586" y="303.182656" style="stroke: #000000; stroke-width: 0.8"/>
      </g>
     </g>
     <g id="text_6">
      <!-- 1200 -->
      <g transform="translate(479.834961 316.875039) scale(0.14 -0.14)">
       <use xlink:href="#ArialMT-14"/>
       <use xlink:href="#ArialMT-15" transform="translate(55.609375 0)"/>
       <use xlink:href="#ArialMT-13" transform="translate(111.21875 0)"/>
       <use xlink:href="#ArialMT-13" transform="translate(166.828125 0)"/>
      </g>
     </g>
    </g>
    <g id="text_7">
     <!-- T1 Temperature (°C) -->
     <g transform="translate(211.505547 334.013711) scale(0.14 -0.14)">
      <defs>
       <path id="ArialMT-37" d="M 1659 0 
L 1659 4041 
L 150 4041 
L 150 4581 
L 3781 4581 
L 3781 4041 
L 2266 4041 
L 2266 0 
L 1659 0 
z
" transform="scale(0.015625)"/>
       <path id="ArialMT-3" transform="scale(0.015625)"/>
       <path id="ArialMT-48" d="M 2694 1069 
L 3275 997 
Q 3138 488 2766 206 
Q 2394 -75 1816 -75 
Q 1088 -75 661 373 
Q 234 822 234 1631 
Q 234 2469 665 2931 
Q 1097 3394 1784 3394 
Q 2450 3394 2872 2941 
Q 3294 2488 3294 1666 
Q 3294 1616 3291 1516 
L 816 1516 
Q 847 969 1125 678 
Q 1403 388 1819 388 
Q 2128 388 2347 550 
Q 2566 713 2694 1069 
z
M 847 1978 
L 2700 1978 
Q 2663 2397 2488 2606 
Q 2219 2931 1791 2931 
Q 1403 2931 1139 2672 
Q 875 2413 847 1978 
z
" transform="scale(0.015625)"/>
       <path id="ArialMT-50" d="M 422 0 
L 422 3319 
L 925 3319 
L 925 2853 
Q 1081 3097 1340 3245 
Q 1600 3394 1931 3394 
Q 2300 3394 2536 3241 
Q 2772 3088 2869 2813 
Q 3263 3394 3894 3394 
Q 4388 3394 4653 3120 
Q 4919 2847 4919 2278 
L 4919 0 
L 4359 0 
L 4359 2091 
Q 4359 2428 4304 2576 
Q 4250 2725 4106 2815 
Q 3963 2906 3769 2906 
Q 3419 2906 3187 2673 
Q 2956 2441 2956 1928 
L 2956 0 
L 2394 0 
L 2394 2156 
Q 2394 2531 2256 2718 
Q 2119 2906 1806 2906 
Q 1569 2906 1367 2781 
Q 1166 2656 1075 2415 
Q 984 2175 984 1722 
L 984 0 
L 422 0 
z
" transform="scale(0.015625)"/>
       <path id="ArialMT-53" d="M 422 -1272 
L 422 3319 
L 934 3319 
L 934 2888 
Q 1116 3141 1344 3267 
Q 1572 3394 1897 3394 
Q 2322 3394 2647 3175 
Q 2972 2956 3137 2557 
Q 3303 2159 3303 1684 
Q 3303 1175 3120 767 
Q 2938 359 2589 142 
Q 2241 -75 1856 -75 
Q 1575 -75 1351 44 
Q 1128 163 984 344 
L 984 -1272 
L 422 -1272 
z
M 931 1641 
Q 931 1000 1190 694 
Q 1450 388 1819 388 
Q 2194 388 2461 705 
Q 2728 1022 2728 1688 
Q 2728 2322 2467 2637 
Q 2206 2953 1844 2953 
Q 1484 2953 1207 2617 
Q 931 2281 931 1641 
z
" transform="scale(0.015625)"/>
       <path id="ArialMT-55" d="M 416 0 
L 416 3319 
L 922 3319 
L 922 2816 
Q 1116 3169 1280 3281 
Q 1444 3394 1641 3394 
Q 1925 3394 2219 3213 
L 2025 2691 
Q 1819 2813 1613 2813 
Q 1428 2813 1281 2702 
Q 1134 2591 1072 2394 
Q 978 2094 978 1738 
L 978 0 
L 416 0 
z
" transform="scale(0.015625)"/>
       <path id="ArialMT-44" d="M 2588 409 
Q 2275 144 1986 34 
Q 1697 -75 1366 -75 
Q 819 -75 525 192 
Q 231 459 231 875 
Q 231 1119 342 1320 
Q 453 1522 633 1644 
Q 813 1766 1038 1828 
Q 1203 1872 1538 1913 
Q 2219 1994 2541 2106 
Q 2544 2222 2544 2253 
Q 2544 2597 2384 2738 
Q 2169 2928 1744 2928 
Q 1347 2928 1158 2789 
Q 969 2650 878 2297 
L 328 2372 
Q 403 2725 575 2942 
Q 747 3159 1072 3276 
Q 1397 3394 1825 3394 
Q 2250 3394 2515 3294 
Q 2781 3194 2906 3042 
Q 3031 2891 3081 2659 
Q 3109 2516 3109 2141 
L 3109 1391 
Q 3109 606 3145 398 
Q 3181 191 3288 0 
L 2700 0 
Q 2613 175 2588 409 
z
M 2541 1666 
Q 2234 1541 1622 1453 
Q 1275 1403 1131 1340 
Q 988 1278 909 1158 
Q 831 1038 831 891 
Q 831 666 1001 516 
Q 1172 366 1500 366 
Q 1825 366 2078 508 
Q 2331 650 2450 897 
Q 2541 1088 2541 1459 
L 2541 1666 
z
" transform="scale(0.015625)"/>
       <path id="ArialMT-57" d="M 1650 503 
L 1731 6 
Q 1494 -44 1306 -44 
Q 1000 -44 831 53 
Q 663 150 594 308 
Q 525 466 525 972 
L 525 2881 
L 113 2881 
L 113 3319 
L 525 3319 
L 525 4141 
L 1084 4478 
L 1084 3319 
L 1650 3319 
L 1650 2881 
L 1084 2881 
L 1084 941 
Q 1084 700 1114 631 
Q 1144 563 1211 522 
Q 1278 481 1403 481 
Q 1497 481 1650 503 
z
" transform="scale(0.015625)"/>
       <path id="ArialMT-58" d="M 2597 0 
L 2597 488 
Q 2209 -75 1544 -75 
Q 1250 -75 995 37 
Q 741 150 617 320 
Q 494 491 444 738 
Q 409 903 409 1263 
L 409 3319 
L 972 3319 
L 972 1478 
Q 972 1038 1006 884 
Q 1059 663 1231 536 
Q 1403 409 1656 409 
Q 1909 409 2131 539 
Q 2353 669 2445 892 
Q 2538 1116 2538 1541 
L 2538 3319 
L 3100 3319 
L 3100 0 
L 2597 0 
z
" transform="scale(0.015625)"/>
       <path id="ArialMT-b" d="M 1497 -1347 
Q 1031 -759 709 28 
Q 388 816 388 1659 
Q 388 2403 628 3084 
Q 909 3875 1497 4659 
L 1900 4659 
Q 1522 4009 1400 3731 
Q 1209 3300 1100 2831 
Q 966 2247 966 1656 
Q 966 153 1900 -1347 
L 1497 -1347 
z
" transform="scale(0.015625)"/>
       <path id="ArialMT-83" d="M 400 3794 
Q 400 4153 654 4406 
Q 909 4659 1266 4659 
Q 1628 4659 1881 4406 
Q 2134 4153 2134 3794 
Q 2134 3434 1879 3179 
Q 1625 2925 1266 2925 
Q 909 2925 654 3178 
Q 400 3431 400 3794 
z
M 741 3794 
Q 741 3575 895 3420 
Q 1050 3266 1269 3266 
Q 1484 3266 1639 3420 
Q 1794 3575 1794 3794 
Q 1794 4013 1639 4167 
Q 1484 4322 1269 4322 
Q 1050 4322 895 4167 
Q 741 4013 741 3794 
z
" transform="scale(0.015625)"/>
       <path id="ArialMT-26" d="M 3763 1606 
L 4369 1453 
Q 4178 706 3683 314 
Q 3188 -78 2472 -78 
Q 1731 -78 1267 223 
Q 803 525 561 1097 
Q 319 1669 319 2325 
Q 319 3041 592 3573 
Q 866 4106 1370 4382 
Q 1875 4659 2481 4659 
Q 3169 4659 3637 4309 
Q 4106 3959 4291 3325 
L 3694 3184 
Q 3534 3684 3231 3912 
Q 2928 4141 2469 4141 
Q 1941 4141 1586 3887 
Q 1231 3634 1087 3207 
Q 944 2781 944 2328 
Q 944 1744 1114 1308 
Q 1284 872 1643 656 
Q 2003 441 2422 441 
Q 2931 441 3284 734 
Q 3638 1028 3763 1606 
z
" transform="scale(0.015625)"/>
       <path id="ArialMT-c" d="M 791 -1347 
L 388 -1347 
Q 1322 153 1322 1656 
Q 1322 2244 1188 2822 
Q 1081 3291 891 3722 
Q 769 4003 388 4659 
L 791 4659 
Q 1378 3875 1659 3084 
Q 1900 2403 1900 1659 
Q 1900 816 1576 28 
Q 1253 -759 791 -1347 
z
" transform="scale(0.015625)"/>
      </defs>
      <use xlink:href="#ArialMT-37"/>
      <use xlink:href="#ArialMT-14" transform="translate(61.078125 0)"/>
      <use xlink:href="#ArialMT-3" transform="translate(116.6875 0)"/>
      <use xlink:href="#ArialMT-37" transform="translate(142.65625 0)"/>
      <use xlink:href="#ArialMT-48" transform="translate(192.65625 0)"/>
      <use xlink:href="#ArialMT-50" transform="translate(248.265625 0)"/>
      <use xlink:href="#ArialMT-53" transform="translate(331.5625 0)"/>
      <use xlink:href="#ArialMT-48" transform="translate(387.171875 0)"/>
      <use xlink:href="#ArialMT-55" transform="translate(442.78125 0)"/>
      <use xlink:href="#ArialMT-44" transform="translate(476.078125 0)"/>
      <use xlink:href="#ArialMT-57" transform="translate(531.6875 0)"/>
      <use xlink:href="#ArialMT-58" transform="translate(559.46875 0)"/>
      <use xlink:href="#ArialMT-55" transform="translate(615.078125 0)"/>
      <use xlink:href="#ArialMT-48" transform="translate(648.375 0)"/>
      <use xlink:href="#ArialMT-3" transform="translate(703.984375 0)"/>
      <use xlink:href="#ArialMT-b" transform="translate(731.765625 0)"/>
      <use xlink:href="#ArialMT-83" transform="translate(765.0625 0)"/>
      <use xlink:href="#ArialMT-26" transform="translate(805.046875 0)"/>
      <use xlink:href="#ArialMT-c" transform="translate(877.265625 0)"/>
     </g>
    </g>
   </g>
   <g id="matplotlib.axis_2">
    <g id="ytick_1">
     <g id="line2d_7">
      <defs>
       <path id="m7819762914" d="M 0 0 
L 6 0 
" style="stroke: #000000; stroke-width: 0.8"/>
      </defs>
      <g>
       <use xlink:href="#m7819762914" x="55.084258" y="278.05646" style="stroke: #000000; stroke-width: 0.8"/>
      </g>
     </g>
     <g id="text_8">
      <!-- 0.00 -->
      <g transform="translate(24.338945 283.152651) scale(0.14 -0.14)">
       <defs>
        <path id="ArialMT-11" d="M 581 0 
L 581 641 
L 1222 641 
L 1222 0 
L 581 0 
z
" transform="scale(0.015625)"/>
       </defs>
       <use xlink:href="#ArialMT-13"/>
       <use xlink:href="#ArialMT-11" transform="translate(55.609375 0)"/>
       <use xlink:href="#ArialMT-13" transform="translate(83.390625 0)"/>
       <use xlink:href="#ArialMT-13" transform="translate(139 0)"/>
      </g>
     </g>
    </g>
    <g id="ytick_2">
     <g id="line2d_8">
      <g>
       <use xlink:href="#m7819762914" x="55.084258" y="247.958512" style="stroke: #000000; stroke-width: 0.8"/>
      </g>
     </g>
     <g id="text_9">
      <!-- 0.25 -->
      <g transform="translate(24.338945 253.054703) scale(0.14 -0.14)">
       <defs>
        <path id="ArialMT-18" d="M 266 1200 
L 856 1250 
Q 922 819 1161 601 
Q 1400 384 1738 384 
Q 2144 384 2425 690 
Q 2706 997 2706 1503 
Q 2706 1984 2436 2262 
Q 2166 2541 1728 2541 
Q 1456 2541 1237 2417 
Q 1019 2294 894 2097 
L 366 2166 
L 809 4519 
L 3088 4519 
L 3088 3981 
L 1259 3981 
L 1013 2750 
Q 1425 3038 1878 3038 
Q 2478 3038 2890 2622 
Q 3303 2206 3303 1553 
Q 3303 931 2941 478 
Q 2500 -78 1738 -78 
Q 1113 -78 717 272 
Q 322 622 266 1200 
z
" transform="scale(0.015625)"/>
       </defs>
       <use xlink:href="#ArialMT-13"/>
       <use xlink:href="#ArialMT-11" transform="translate(55.609375 0)"/>
       <use xlink:href="#ArialMT-15" transform="translate(83.390625 0)"/>
       <use xlink:href="#ArialMT-18" transform="translate(139 0)"/>
      </g>
     </g>
    </g>
    <g id="ytick_3">
     <g id="line2d_9">
      <g>
       <use xlink:href="#m7819762914" x="55.084258" y="217.860564" style="stroke: #000000; stroke-width: 0.8"/>
      </g>
     </g>
     <g id="text_10">
      <!-- 0.50 -->
      <g transform="translate(24.338945 222.956755) scale(0.14 -0.14)">
       <use xlink:href="#ArialMT-13"/>
       <use xlink:href="#ArialMT-11" transform="translate(55.609375 0)"/>
       <use xlink:href="#ArialMT-18" transform="translate(83.390625 0)"/>
       <use xlink:href="#ArialMT-13" transform="translate(139 0)"/>
      </g>
     </g>
    </g>
    <g id="ytick_4">
     <g id="line2d_10">
      <g>
       <use xlink:href="#m7819762914" x="55.084258" y="187.762615" style="stroke: #000000; stroke-width: 0.8"/>
      </g>
     </g>
     <g id="text_11">
      <!-- 0.75 -->
      <g transform="translate(24.338945 192.858807) scale(0.14 -0.14)">
       <defs>
        <path id="ArialMT-1a" d="M 303 3981 
L 303 4522 
L 3269 4522 
L 3269 4084 
Q 2831 3619 2401 2847 
Q 1972 2075 1738 1259 
Q 1569 684 1522 0 
L 944 0 
Q 953 541 1156 1306 
Q 1359 2072 1739 2783 
Q 2119 3494 2547 3981 
L 303 3981 
z
" transform="scale(0.015625)"/>
       </defs>
       <use xlink:href="#ArialMT-13"/>
       <use xlink:href="#ArialMT-11" transform="translate(55.609375 0)"/>
       <use xlink:href="#ArialMT-1a" transform="translate(83.390625 0)"/>
       <use xlink:href="#ArialMT-18" transform="translate(139 0)"/>
      </g>
     </g>
    </g>
    <g id="ytick_5">
     <g id="line2d_11">
      <g>
       <use xlink:href="#m7819762914" x="55.084258" y="157.664667" style="stroke: #000000; stroke-width: 0.8"/>
      </g>
     </g>
     <g id="text_12">
      <!-- 1.00 -->
      <g transform="translate(24.338945 162.760859) scale(0.14 -0.14)">
       <use xlink:href="#ArialMT-14"/>
       <use xlink:href="#ArialMT-11" transform="translate(55.609375 0)"/>
       <use xlink:href="#ArialMT-13" transform="translate(83.390625 0)"/>
       <use xlink:href="#ArialMT-13" transform="translate(139 0)"/>
      </g>
     </g>
    </g>
    <g id="ytick_6">
     <g id="line2d_12">
      <g>
       <use xlink:href="#m7819762914" x="55.084258" y="127.566719" style="stroke: #000000; stroke-width: 0.8"/>
      </g>
     </g>
     <g id="text_13">
      <!-- 1.25 -->
      <g transform="translate(24.338945 132.662911) scale(0.14 -0.14)">
       <use xlink:href="#ArialMT-14"/>
       <use xlink:href="#ArialMT-11" transform="translate(55.609375 0)"/>
       <use xlink:href="#ArialMT-15" transform="translate(83.390625 0)"/>
       <use xlink:href="#ArialMT-18" transform="translate(139 0)"/>
      </g>
     </g>
    </g>
    <g id="ytick_7">
     <g id="line2d_13">
      <g>
       <use xlink:href="#m7819762914" x="55.084258" y="97.468771" style="stroke: #000000; stroke-width: 0.8"/>
      </g>
     </g>
     <g id="text_14">
      <!-- 1.50 -->
      <g transform="translate(24.338945 102.564962) scale(0.14 -0.14)">
       <use xlink:href="#ArialMT-14"/>
       <use xlink:href="#ArialMT-11" transform="translate(55.609375 0)"/>
       <use xlink:href="#ArialMT-18" transform="translate(83.390625 0)"/>
       <use xlink:href="#ArialMT-13" transform="translate(139 0)"/>
      </g>
     </g>
    </g>
    <g id="ytick_8">
     <g id="line2d_14">
      <g>
       <use xlink:href="#m7819762914" x="55.084258" y="67.370823" style="stroke: #000000; stroke-width: 0.8"/>
      </g>
     </g>
     <g id="text_15">
      <!-- 1.75 -->
      <g transform="translate(24.338945 72.467014) scale(0.14 -0.14)">
       <use xlink:href="#ArialMT-14"/>
       <use xlink:href="#ArialMT-11" transform="translate(55.609375 0)"/>
       <use xlink:href="#ArialMT-1a" transform="translate(83.390625 0)"/>
       <use xlink:href="#ArialMT-18" transform="translate(139 0)"/>
      </g>
     </g>
    </g>
    <g id="text_16">
     <!-- Ion Current (m/z 60) -->
     <g transform="translate(17.392383 234.056768) rotate(-90) scale(0.14 -0.14)">
      <defs>
       <path id="ArialMT-2c" d="M 597 0 
L 597 4581 
L 1203 4581 
L 1203 0 
L 597 0 
z
" transform="scale(0.015625)"/>
       <path id="ArialMT-52" d="M 213 1659 
Q 213 2581 725 3025 
Q 1153 3394 1769 3394 
Q 2453 3394 2887 2945 
Q 3322 2497 3322 1706 
Q 3322 1066 3130 698 
Q 2938 331 2570 128 
Q 2203 -75 1769 -75 
Q 1072 -75 642 372 
Q 213 819 213 1659 
z
M 791 1659 
Q 791 1022 1069 705 
Q 1347 388 1769 388 
Q 2188 388 2466 706 
Q 2744 1025 2744 1678 
Q 2744 2294 2464 2611 
Q 2184 2928 1769 2928 
Q 1347 2928 1069 2612 
Q 791 2297 791 1659 
z
" transform="scale(0.015625)"/>
       <path id="ArialMT-51" d="M 422 0 
L 422 3319 
L 928 3319 
L 928 2847 
Q 1294 3394 1984 3394 
Q 2284 3394 2536 3286 
Q 2788 3178 2913 3003 
Q 3038 2828 3088 2588 
Q 3119 2431 3119 2041 
L 3119 0 
L 2556 0 
L 2556 2019 
Q 2556 2363 2490 2533 
Q 2425 2703 2258 2804 
Q 2091 2906 1866 2906 
Q 1506 2906 1245 2678 
Q 984 2450 984 1813 
L 984 0 
L 422 0 
z
" transform="scale(0.015625)"/>
       <path id="ArialMT-12" d="M 0 -78 
L 1328 4659 
L 1778 4659 
L 453 -78 
L 0 -78 
z
" transform="scale(0.015625)"/>
       <path id="ArialMT-5d" d="M 125 0 
L 125 456 
L 2238 2881 
Q 1878 2863 1603 2863 
L 250 2863 
L 250 3319 
L 2963 3319 
L 2963 2947 
L 1166 841 
L 819 456 
Q 1197 484 1528 484 
L 3063 484 
L 3063 0 
L 125 0 
z
" transform="scale(0.015625)"/>
      </defs>
      <use xlink:href="#ArialMT-2c"/>
      <use xlink:href="#ArialMT-52" transform="translate(27.78125 0)"/>
      <use xlink:href="#ArialMT-51" transform="translate(83.390625 0)"/>
      <use xlink:href="#ArialMT-3" transform="translate(139 0)"/>
      <use xlink:href="#ArialMT-26" transform="translate(166.78125 0)"/>
      <use xlink:href="#ArialMT-58" transform="translate(239 0)"/>
      <use xlink:href="#ArialMT-55" transform="translate(294.609375 0)"/>
      <use xlink:href="#ArialMT-55" transform="translate(327.90625 0)"/>
      <use xlink:href="#ArialMT-48" transform="translate(361.203125 0)"/>
      <use xlink:href="#ArialMT-51" transform="translate(416.8125 0)"/>
      <use xlink:href="#ArialMT-57" transform="translate(472.421875 0)"/>
      <use xlink:href="#ArialMT-3" transform="translate(500.203125 0)"/>
      <use xlink:href="#ArialMT-b" transform="translate(527.984375 0)"/>
      <use xlink:href="#ArialMT-50" transform="translate(561.28125 0)"/>
      <use xlink:href="#ArialMT-12" transform="translate(644.578125 0)"/>
      <use xlink:href="#ArialMT-5d" transform="translate(672.359375 0)"/>
      <use xlink:href="#ArialMT-3" transform="translate(722.359375 0)"/>
      <use xlink:href="#ArialMT-19" transform="translate(750.140625 0)"/>
      <use xlink:href="#ArialMT-13" transform="translate(805.75 0)"/>
      <use xlink:href="#ArialMT-c" transform="translate(861.359375 0)"/>
     </g>
    </g>
    <g id="text_17">
     <!-- 1e−13 -->
     <g transform="translate(55.084258 36.679004) scale(0.14 -0.14)">
      <defs>
       <path id="ArialMT-ed" d="M 3381 1997 
L 356 1997 
L 356 2522 
L 3381 2522 
L 3381 1997 
z
" transform="scale(0.015625)"/>
       <path id="ArialMT-16" d="M 269 1209 
L 831 1284 
Q 928 806 1161 595 
Q 1394 384 1728 384 
Q 2125 384 2398 659 
Q 2672 934 2672 1341 
Q 2672 1728 2419 1979 
Q 2166 2231 1775 2231 
Q 1616 2231 1378 2169 
L 1441 2663 
Q 1497 2656 1531 2656 
Q 1891 2656 2178 2843 
Q 2466 3031 2466 3422 
Q 2466 3731 2256 3934 
Q 2047 4138 1716 4138 
Q 1388 4138 1169 3931 
Q 950 3725 888 3313 
L 325 3413 
Q 428 3978 793 4289 
Q 1159 4600 1703 4600 
Q 2078 4600 2393 4439 
Q 2709 4278 2876 4000 
Q 3044 3722 3044 3409 
Q 3044 3113 2884 2869 
Q 2725 2625 2413 2481 
Q 2819 2388 3044 2092 
Q 3269 1797 3269 1353 
Q 3269 753 2831 336 
Q 2394 -81 1725 -81 
Q 1122 -81 723 278 
Q 325 638 269 1209 
z
" transform="scale(0.015625)"/>
      </defs>
      <use xlink:href="#ArialMT-14"/>
      <use xlink:href="#ArialMT-48" transform="translate(55.609375 0)"/>
      <use xlink:href="#ArialMT-ed" transform="translate(111.21875 0)"/>
      <use xlink:href="#ArialMT-14" transform="translate(169.625 0)"/>
      <use xlink:href="#ArialMT-16" transform="translate(225.234375 0)"/>
     </g>
    </g>
   </g>
   <g id="line2d_15">
    <path d="M 54.088749 262.093454 
L 54.088749 284.370487 
L 54.012171 270.300889 
L 54.280193 274.117121 
L 55.084258 278.165872 
L 56.61581 276.851673 
L 58.836561 277.875709 
L 61.172179 277.672427 
L 63.316352 279.544385 
L 65.115926 277.673926 
L 66.60919 277.579026 
L 67.91101 279.416547 
L 69.059674 279.653906 
L 70.170049 281.864097 
L 71.242136 280.592692 
L 72.3908 282.341808 
L 73.501176 282.349527 
L 74.64984 279.703443 
L 75.875082 279.487645 
L 77.100324 274.919699 
L 78.287277 278.641862 
L 79.512519 277.856883 
L 80.737761 275.27362 
L 82.07787 275.947845 
L 83.417978 274.411742 
L 84.681509 274.889761 
L 85.94504 274.424143 
L 87.170282 272.681781 
L 88.395524 273.919263 
L 89.582477 273.313917 
L 90.76943 279.190507 
L 91.956383 277.624628 
L 93.105047 278.944488 
L 94.368578 280.63138 
L 95.59382 278.032396 
L 96.780773 276.788678 
L 97.967726 278.599816 
L 99.154679 274.12777 
L 100.341633 275.197966 
L 101.566875 275.014757 
L 102.753828 278.473666 
L 103.902492 278.613512 
L 105.051156 281.95599 
L 106.199821 282.11199 
L 107.425063 282.889756 
L 109.837258 278.056047 
L 111.0625 274.986772 
L 112.287742 275.916 
L 113.436406 272.896595 
L 115.810312 272.802813 
L 117.035554 275.221344 
L 118.222507 274.238444 
L 119.447749 273.606494 
L 120.71128 268.468471 
L 123.123475 267.382308 
L 124.310428 269.001289 
L 125.497382 261.892441 
L 126.684335 259.975617 
L 127.871288 256.38298 
L 131.432147 249.165555 
L 132.657389 245.070025 
L 133.92092 246.32704 
L 135.146162 248.536282 
L 136.333115 254.001047 
L 137.443491 250.102789 
L 138.668733 251.967322 
L 139.817397 249.641383 
L 141.00435 247.956952 
L 142.191303 248.305345 
L 143.378256 247.384137 
L 144.641787 247.054361 
L 145.867029 251.169756 
L 147.015693 259.06764 
L 148.240935 262.811588 
L 150.614842 272.57944 
L 151.878372 271.93528 
L 153.027037 266.463059 
L 154.175701 259.877086 
L 155.362654 255.139484 
L 156.549607 253.224585 
L 157.813138 252.550216 
L 159.000091 257.601901 
L 160.225333 260.427119 
L 161.412286 265.318036 
L 162.637528 267.928051 
L 163.824481 269.87189 
L 165.049723 264.398328 
L 166.236677 260.406104 
L 167.347052 259.909934 
L 169.759247 261.907434 
L 170.9462 267.225671 
L 172.133153 262.280585 
L 173.358395 259.653188 
L 174.545349 257.541228 
L 175.694013 257.378614 
L 176.919255 252.358115 
L 178.106208 252.05524 
L 179.293161 247.737197 
L 180.518403 248.100704 
L 182.854021 246.678077 
L 184.079263 243.648884 
L 185.304505 244.05572 
L 187.678411 241.028353 
L 188.941942 243.773651 
L 190.167184 245.900773 
L 191.315848 239.872744 
L 192.617667 241.873622 
L 193.804621 240.601483 
L 194.991574 240.959527 
L 196.140238 242.320714 
L 197.288902 240.346016 
L 198.475856 241.92757 
L 199.62452 243.225819 
L 200.849762 246.054125 
L 202.075004 242.278299 
L 203.261957 237.608086 
L 204.44891 235.063448 
L 206.822816 228.331636 
L 208.048058 221.069817 
L 209.235011 215.363781 
L 210.460253 206.619753 
L 211.608918 190.323807 
L 212.795871 169.008564 
L 214.021113 137.081608 
L 215.284644 116.544625 
L 217.581972 66.913458 
L 218.768925 54.604411 
L 219.994167 51.656443 
L 221.181121 61.606316 
L 222.368074 85.953034 
L 223.593316 105.690151 
L 224.74198 135.310728 
L 225.928933 160.411925 
L 227.154175 192.885941 
L 228.302839 205.441806 
L 229.489793 210.766463 
L 230.676746 220.652054 
L 231.863699 227.788092 
L 233.012363 236.873395 
L 234.275894 245.456523 
L 235.424558 243.867078 
L 236.6498 247.983983 
L 237.836753 250.243306 
L 239.023707 253.084886 
L 240.248948 249.132537 
L 241.397613 243.389263 
L 242.622855 242.355926 
L 243.809808 242.122164 
L 245.03505 241.360278 
L 246.183714 243.371814 
L 247.370667 247.555769 
L 248.557621 248.628965 
L 249.782862 250.887631 
L 250.969816 256.708671 
L 252.11848 254.709083 
L 253.343722 252.053064 
L 254.530675 247.018968 
L 255.755917 247.086173 
L 256.981159 246.64068 
L 258.129823 250.974789 
L 259.355065 253.87236 
L 260.580307 255.126933 
L 261.76726 257.82469 
L 262.954213 263.289942 
L 264.141167 259.976296 
L 265.366409 261.115462 
L 266.515073 260.573211 
L 267.702026 264.899428 
L 268.85069 265.003151 
L 270.037644 261.551536 
L 271.301174 259.338152 
L 272.449839 254.456271 
L 273.675081 252.590489 
L 274.862034 251.586287 
L 276.048987 253.336707 
L 277.197651 253.163574 
L 278.422893 252.302903 
L 279.609846 255.210986 
L 280.796799 253.710819 
L 281.983753 245.020849 
L 283.208995 239.181209 
L 284.395948 229.25325 
L 285.582901 224.84119 
L 286.769854 223.874042 
L 287.995096 223.63066 
L 289.14376 222.603357 
L 290.330713 225.014758 
L 291.555955 235.844053 
L 293.891573 247.449066 
L 295.155104 248.570052 
L 296.303768 246.880712 
L 297.52901 248.807442 
L 298.677674 250.113425 
L 299.864627 249.66491 
L 301.013292 244.357801 
L 302.200245 242.025999 
L 303.502064 241.798259 
L 304.727306 237.346827 
L 305.990837 234.424161 
L 307.17779 224.992003 
L 308.403032 222.442226 
L 309.628274 220.998866 
L 310.853516 228.278716 
L 312.002181 229.738846 
L 313.189134 226.817481 
L 314.376087 229.626385 
L 315.524751 228.313852 
L 316.711704 226.488844 
L 317.860369 226.582852 
L 319.123899 226.368726 
L 320.310853 228.194431 
L 321.497806 226.078845 
L 322.684759 237.831144 
L 323.910001 236.793822 
L 325.058665 242.120977 
L 326.20733 240.528122 
L 327.394283 242.353861 
L 328.619525 242.351544 
L 329.806478 241.532929 
L 331.03172 242.228514 
L 332.180384 238.583242 
L 333.405626 236.76302 
L 334.55429 242.177077 
L 335.779532 244.023243 
L 336.966485 249.737917 
L 338.11515 248.138505 
L 339.302103 250.438291 
L 340.527345 245.922166 
L 342.901251 238.769024 
L 344.049915 227.2188 
L 345.313446 222.713962 
L 346.462111 219.869521 
L 347.649064 230.013205 
L 348.874306 237.2698 
L 350.061259 240.830097 
L 351.248212 238.185083 
L 352.473454 235.757885 
L 354.809071 227.999203 
L 355.957736 225.559429 
L 357.221267 227.501625 
L 358.40822 227.933159 
L 359.595173 230.495094 
L 360.782126 233.829672 
L 361.93079 232.820239 
L 363.156032 218.394084 
L 364.266408 214.804047 
L 365.529939 211.72611 
L 366.716892 215.013994 
L 367.942134 220.847248 
L 369.052509 224.547019 
L 370.239462 225.00506 
L 371.464704 224.814947 
L 372.689946 226.397757 
L 373.800322 227.213958 
L 374.948986 220.14539 
L 376.250806 217.720099 
L 377.361181 212.048053 
L 378.586423 210.064296 
L 381.419795 217.290474 
L 382.645037 222.489413 
L 383.870279 225.173673 
L 385.018943 225.547625 
L 386.282474 233.462699 
L 387.507716 230.768676 
L 388.579803 224.38564 
L 389.881622 217.35655 
L 391.068576 214.527627 
L 392.255529 212.201946 
L 393.442482 209.551229 
L 394.591146 210.918128 
L 395.816388 213.192929 
L 396.965052 219.500214 
L 398.228583 229.33565 
L 399.377248 234.987918 
L 400.60249 241.686408 
L 401.751154 242.648899 
L 402.976396 244.704476 
L 404.201638 234.138671 
L 405.388591 229.109341 
L 406.537255 223.72631 
L 407.68592 224.558477 
L 409.026028 227.355676 
L 410.098115 236.036091 
L 411.323357 240.996179 
L 412.472021 243.762749 
L 413.620685 248.159781 
L 414.884216 250.346632 
L 416.071169 244.141686 
L 417.258122 248.368434 
L 418.445076 248.334599 
L 420.818982 252.776975 
L 422.044224 254.503483 
L 424.647863 247.526291 
L 425.71995 246.483993 
L 426.830325 240.810429 
L 428.055567 239.562454 
L 429.24252 245.680643 
L 430.429473 250.261778 
L 431.578138 256.225998 
L 432.765091 261.748517 
L 433.875466 259.991368 
L 435.177286 259.231829 
L 436.32595 253.729863 
L 437.512903 251.769213 
L 438.699857 244.444525 
L 439.848521 238.211279 
L 441.226918 235.451067 
L 442.299005 243.106157 
L 443.524247 253.609246 
L 444.672911 259.75902 
L 445.974731 265.162979 
L 446.97024 271.332767 
L 448.195482 273.151901 
L 449.420724 278.93904 
L 450.569388 277.152934 
L 451.871208 271.435591 
L 453.058161 269.197322 
L 454.283403 268.464349 
L 455.278912 267.242544 
L 456.810464 259.441929 
L 458.150573 259.119446 
L 459.452392 259.132271 
L 460.830789 260.312002 
L 461.826299 261.628726 
L 463.204696 264.554925 
L 464.276782 263.020925 
L 465.540313 266.954603 
L 466.650689 263.468759 
L 467.91422 262.419901 
L 468.909729 260.569145 
L 470.364703 261.351168 
L 471.283635 261.017554 
L 472.623743 259.834969 
L 473.772408 254.959195 
L 475.074227 254.993352 
L 476.108025 252.673105 
L 477.333267 252.046065 
L 478.558509 250.691819 
L 479.898617 255.507072 
L 480.970704 260.765692 
L 482.042791 262.910464 
L 483.191455 262.607009 
L 484.531564 261.895014 
L 485.680228 257.553551 
L 486.867181 258.764336 
L 488.092423 257.756421 
L 489.202799 258.014631 
L 490.504618 260.047486 
L 491.653282 264.399953 
L 492.878524 271.616999 
L 494.142055 282.243589 
L 494.142055 282.243589 
" clip-path="url(#pa3f9c64467)" style="fill: none; stroke: #000000; stroke-width: 2.5; stroke-linecap: square"/>
   </g>
   <g id="line2d_16">
    <path d="M 53.476128 273.043098 
L 53.476128 279.043314 
L 53.476128 278.183247 
L 53.935593 278.456442 
L 55.00768 280.52028 
L 56.807254 278.13434 
L 59.066294 278.632199 
L 61.287045 279.302039 
L 63.239775 279.245127 
L 64.886193 278.764897 
L 66.302879 276.23875 
L 67.528121 277.891851 
L 68.638497 277.827807 
L 69.748872 276.519433 
L 70.859248 277.518261 
L 71.969624 273.552765 
L 73.118288 280.798449 
L 74.305241 280.108958 
L 75.492194 280.924607 
L 76.679147 278.269261 
L 77.904389 274.970493 
L 79.129631 277.102196 
L 80.354873 278.503785 
L 81.694982 273.97425 
L 82.996801 274.779594 
L 84.298621 276.216044 
L 85.60044 277.39774 
L 86.825682 273.268519 
L 88.050924 274.25038 
L 89.237877 271.02702 
L 90.42483 270.806824 
L 91.611784 272.958745 
L 92.798737 272.894223 
L 93.98569 272.478424 
L 95.172643 279.012767 
L 96.397885 284.342065 
L 97.584838 281.89206 
L 99.958744 286.328937 
L 101.145698 281.345716 
L 103.443026 272.866112 
L 104.668268 267.727707 
L 105.89351 269.655897 
L 107.118752 269.790695 
L 108.305705 272.70332 
L 109.45437 269.132918 
L 110.679612 270.785231 
L 111.866565 271.389271 
L 113.053518 269.436273 
L 114.240471 264.65076 
L 115.427424 266.147098 
L 116.690955 263.157948 
L 117.877908 266.557652 
L 120.290103 256.42838 
L 121.477056 249.723459 
L 122.702298 248.612584 
L 123.889251 242.911899 
L 126.301447 233.840024 
L 127.4884 236.609637 
L 128.675353 234.648328 
L 131.087548 244.349513 
L 132.274501 247.692977 
L 134.648407 258.717473 
L 135.873649 260.283777 
L 137.060602 260.756333 
L 138.285844 258.188722 
L 139.472798 259.528157 
L 141.884993 256.5419 
L 143.071946 255.879566 
L 144.297188 250.083157 
L 145.484141 252.539084 
L 146.709383 253.354473 
L 147.896336 255.293877 
L 149.121578 255.815453 
L 151.495484 263.093105 
L 152.60586 264.077211 
L 153.792813 263.760459 
L 155.018055 265.370397 
L 156.205008 266.295056 
L 157.468539 269.690493 
L 159.919023 274.972582 
L 161.067687 272.872032 
L 162.292929 271.211344 
L 163.479882 261.096139 
L 164.666835 253.120585 
L 165.892077 246.691062 
L 167.07903 246.00895 
L 168.189406 250.219834 
L 169.414648 245.534383 
L 170.563312 249.111228 
L 171.750265 253.376856 
L 172.975507 253.477487 
L 174.085883 249.142134 
L 176.536367 246.262188 
L 177.761609 241.770873 
L 178.910273 241.769027 
L 180.097226 246.627864 
L 181.284179 242.503297 
L 182.509421 244.173825 
L 183.734663 243.505128 
L 184.921616 243.616175 
L 186.10857 245.52086 
L 187.333811 245.423423 
L 188.559053 243.465477 
L 189.822584 236.696927 
L 190.93296 234.995246 
L 192.158202 236.376296 
L 193.421732 240.173939 
L 194.608686 242.178613 
L 195.75735 241.388156 
L 196.944303 248.048871 
L 198.131256 248.245949 
L 200.505163 239.335523 
L 201.692116 233.765709 
L 202.879069 229.949926 
L 205.252975 233.340329 
L 206.516506 236.930624 
L 207.66517 239.678307 
L 208.890412 247.57135 
L 210.077365 244.211282 
L 211.22603 239.535894 
L 212.48956 236.375017 
L 213.638225 231.153715 
L 214.825178 227.259519 
L 216.05042 228.872489 
L 217.237373 226.063292 
L 218.386037 229.079647 
L 219.57299 229.890984 
L 220.759944 232.691331 
L 221.946897 231.714012 
L 223.172139 230.381517 
L 226.732998 246.138715 
L 227.919951 254.270297 
L 229.106904 257.670128 
L 230.293858 258.341557 
L 231.5191 254.937966 
L 232.706053 250.532175 
L 233.893006 246.62124 
L 235.079959 240.522412 
L 236.305201 241.525892 
L 238.679107 250.526173 
L 239.86606 258.416073 
L 241.053014 263.983779 
L 242.239967 262.875814 
L 243.42692 262.315688 
L 245.762537 249.683689 
L 246.987779 244.192956 
L 248.25131 245.843208 
L 249.438263 244.449828 
L 250.625216 246.887485 
L 251.850458 250.660885 
L 252.999123 255.118471 
L 254.186076 256.136669 
L 255.449607 255.333893 
L 256.598271 255.552107 
L 257.861802 252.226975 
L 259.010466 254.265276 
L 260.197419 253.361153 
L 261.384372 253.077034 
L 262.571325 257.836653 
L 263.796567 261.635153 
L 264.98352 267.52954 
L 266.170474 270.682634 
L 267.395716 266.272555 
L 268.506091 267.506509 
L 269.693044 261.242432 
L 270.918286 261.870521 
L 272.105239 257.64032 
L 273.292193 261.710732 
L 274.479146 264.677101 
L 275.704388 268.219212 
L 276.853052 269.160305 
L 278.040005 267.486058 
L 279.265247 264.599159 
L 280.4522 265.763782 
L 281.639153 259.753086 
L 282.864395 257.075506 
L 284.051348 254.7947 
L 285.200013 253.982347 
L 286.425255 251.299374 
L 287.650497 250.520442 
L 288.83745 246.687355 
L 289.986114 248.568964 
L 291.211356 246.794216 
L 292.398309 243.259518 
L 293.585262 237.441632 
L 294.772216 232.693021 
L 297.184411 228.032253 
L 298.294786 230.074279 
L 299.520028 230.387145 
L 300.74527 236.137666 
L 301.932223 237.937855 
L 303.157465 235.824837 
L 305.607949 230.517123 
L 306.833191 231.695085 
L 308.058433 230.153093 
L 309.245386 232.145163 
L 310.394051 232.518155 
L 311.619292 230.833577 
L 312.844534 230.842154 
L 313.993199 227.185403 
L 315.218441 225.888215 
L 316.405394 225.164409 
L 317.592347 229.391836 
L 318.741011 232.869986 
L 319.927964 231.243778 
L 321.191495 235.057253 
L 322.301871 233.965965 
L 323.527113 230.080016 
L 324.714066 233.085127 
L 325.86273 231.805788 
L 327.087972 225.304447 
L 328.198348 228.782042 
L 329.461878 229.909112 
L 330.610543 230.490063 
L 331.835785 230.851808 
L 332.984449 237.983467 
L 334.209691 239.651473 
L 335.358355 244.196642 
L 336.50702 251.897062 
L 337.77055 243.334997 
L 338.995792 228.574733 
L 340.182746 226.241835 
L 341.33141 219.191551 
L 342.480074 215.932024 
L 343.628739 211.443523 
L 344.892269 212.739557 
L 346.079222 212.652832 
L 347.304464 219.459435 
L 348.567995 223.533972 
L 349.640082 225.967654 
L 350.827035 225.949018 
L 352.090566 232.167981 
L 353.23923 239.01057 
L 354.54105 237.187194 
L 355.574848 225.620745 
L 356.723512 216.265449 
L 358.025332 213.992039 
L 359.173996 209.972498 
L 360.360949 208.398372 
L 361.586191 211.866453 
L 362.849722 216.851948 
L 363.998386 219.918147 
L 365.14705 223.9521 
L 367.597534 206.923646 
L 368.70791 207.226372 
L 369.933152 208.519274 
L 371.120105 208.951189 
L 373.455722 218.957389 
L 374.642676 221.365081 
L 375.79134 219.616404 
L 377.016582 215.510808 
L 378.280113 213.071798 
L 379.543643 213.036379 
L 380.998618 212.329863 
L 382.300438 208.748044 
L 383.449102 211.938454 
L 384.636055 216.057009 
L 385.861297 218.143557 
L 387.163117 217.250293 
L 388.311781 216.656984 
L 389.460446 216.328978 
L 390.647399 223.366435 
L 391.872641 227.439277 
L 393.136171 230.375692 
L 394.323125 232.443824 
L 395.318634 237.409561 
L 396.658742 243.294855 
L 397.883984 242.345201 
L 399.032648 238.72311 
L 400.219601 235.944379 
L 401.483132 236.026204 
L 402.670085 239.680244 
L 403.780461 239.271204 
L 405.005703 237.286153 
L 406.192656 233.081836 
L 408.528273 229.341957 
L 409.791804 228.008561 
L 411.017046 227.74555 
L 413.199508 243.757384 
L 414.539617 251.147763 
L 415.72657 251.031955 
L 416.913523 251.535661 
L 418.215343 243.653582 
L 419.287429 240.323427 
L 420.474383 236.141482 
L 421.584758 233.667317 
L 422.848289 232.234119 
L 424.11182 243.741225 
L 425.337062 247.127856 
L 426.409148 248.315337 
L 427.596101 250.364339 
L 429.051076 250.549791 
L 430.161452 249.635962 
L 431.271827 253.110466 
L 432.382203 248.520341 
L 433.607445 242.637603 
L 434.71782 241.432098 
L 435.943062 242.884457 
L 437.168304 241.471919 
L 438.27868 238.970216 
L 439.580499 239.571658 
L 440.84403 240.539791 
L 441.954406 247.365668 
L 443.064781 252.719603 
L 444.328312 254.689777 
L 445.438687 249.951056 
L 446.740507 249.900429 
L 447.850882 247.402934 
L 448.999547 249.87205 
L 450.1865 248.976639 
L 451.48832 245.967291 
L 452.636984 245.724538 
L 453.823937 249.047475 
L 454.819446 248.713526 
L 456.389287 251.789817 
L 457.959129 249.501179 
L 459.222659 253.447281 
L 460.294746 252.616667 
L 461.596566 252.796018 
L 462.821808 250.644331 
L 463.779028 245.083822 
L 465.157425 242.380624 
L 466.229512 239.002338 
L 467.416465 238.00516 
L 468.679996 242.924432 
L 469.905238 244.925418 
L 470.977324 244.379628 
L 472.240855 245.500256 
L 473.274653 247.100787 
L 474.614761 247.438405 
L 475.801715 245.239003 
L 476.988668 240.901459 
L 478.175621 241.085685 
L 479.400863 250.437551 
L 481.698192 258.090873 
L 482.961722 260.656259 
L 484.34012 266.155348 
L 485.220762 271.915203 
L 486.522582 273.830918 
L 487.747824 272.15543 
L 488.705044 269.270269 
L 490.006864 271.72009 
L 491.346972 273.887359 
L 492.648792 274.855888 
L 493.606012 273.709492 
L 494.601521 269.531982 
L 494.601521 269.531982 
" clip-path="url(#pa3f9c64467)" style="fill: none; stroke: #1f77b4; stroke-width: 2.5; stroke-linecap: square"/>
   </g>
   <g id="line2d_17">
    <path d="M 53.09324 282.709871 
L 53.09324 264.525062 
L 53.131528 280.885525 
L 53.476128 286.383193 
L 54.509926 284.103763 
L 56.347789 280.510878 
L 58.530251 277.344752 
L 60.789291 277.929191 
L 62.780309 277.402113 
L 64.426728 271.861789 
L 65.843414 268.08874 
L 67.068656 271.913284 
L 68.179031 276.224369 
L 69.289407 279.559054 
L 70.399782 279.592272 
L 71.510158 281.469242 
L 72.658822 284.365537 
L 73.845775 285.503439 
L 75.032728 282.546138 
L 76.25797 276.971361 
L 77.483212 276.503861 
L 78.670165 280.243738 
L 79.895407 279.706551 
L 81.158938 277.42754 
L 82.460758 280.620087 
L 83.800866 282.022823 
L 85.140975 276.957941 
L 86.366217 276.516877 
L 87.55317 277.44515 
L 88.740123 281.308631 
L 89.888787 283.656148 
L 91.07574 284.416283 
L 92.262693 283.054053 
L 93.487935 285.092329 
L 94.674889 283.573083 
L 95.861842 276.885513 
L 97.087084 271.143825 
L 98.312326 273.982801 
L 99.537568 278.372818 
L 100.76281 285.821874 
L 101.911474 287.401654 
L 104.361958 287.059115 
L 105.548911 287.633713 
L 106.697575 282.091195 
L 107.769662 277.863205 
L 108.956615 269.929684 
L 110.220146 270.359165 
L 111.445388 272.371804 
L 112.67063 272.215702 
L 113.857583 274.555454 
L 115.082825 269.755666 
L 116.308067 266.725755 
L 117.49502 264.378288 
L 118.643684 263.638024 
L 121.055879 252.231943 
L 122.281121 253.706373 
L 123.468075 260.710233 
L 124.731605 258.790534 
L 125.956847 262.352548 
L 127.1438 259.718212 
L 128.330754 260.878971 
L 129.479418 264.471597 
L 130.666371 267.106162 
L 131.853324 262.478479 
L 133.155144 260.255868 
L 134.380386 257.371343 
L 135.52905 259.636006 
L 136.677714 251.756771 
L 137.902956 249.533591 
L 139.051621 249.543176 
L 140.276863 251.778027 
L 142.689058 249.579509 
L 143.9143 249.028359 
L 145.101253 250.001567 
L 146.249917 249.932802 
L 147.475159 255.740269 
L 148.700401 255.647105 
L 149.887354 257.88181 
L 151.074307 260.621328 
L 152.299549 262.448677 
L 153.524791 259.564113 
L 154.673456 262.737907 
L 155.898698 259.315411 
L 157.085651 259.387157 
L 158.272604 257.878659 
L 159.459557 258.556703 
L 160.64651 257.161185 
L 161.833463 255.044307 
L 163.020416 252.603347 
L 164.245658 253.545396 
L 165.432612 255.048641 
L 166.657853 251.59944 
L 167.806518 245.332682 
L 169.03176 245.332822 
L 170.218713 238.043641 
L 171.405666 240.675999 
L 172.592619 241.461285 
L 173.779572 241.628313 
L 174.966525 236.103361 
L 176.11519 238.077171 
L 177.340432 235.243334 
L 178.527385 232.783852 
L 179.714338 230.721985 
L 180.901291 233.515754 
L 182.126533 228.228347 
L 183.313486 236.98278 
L 184.577017 238.3219 
L 185.76397 248.686297 
L 186.989212 249.832391 
L 188.176165 245.440562 
L 189.439696 237.630107 
L 190.626649 232.409243 
L 191.813602 226.614084 
L 192.962267 225.174581 
L 194.14922 223.185935 
L 195.336173 227.490491 
L 196.523126 229.168504 
L 197.710079 238.756188 
L 198.935321 237.908176 
L 200.122274 232.161814 
L 201.347516 234.147084 
L 202.496181 235.169322 
L 203.644845 231.24954 
L 204.908376 229.184656 
L 206.133618 239.147525 
L 207.320571 243.956107 
L 208.430946 238.449128 
L 209.694477 236.883511 
L 210.843142 234.689628 
L 212.106672 233.706354 
L 213.255337 239.330754 
L 214.44229 239.089305 
L 215.667532 231.650683 
L 216.854485 230.248814 
L 218.041438 229.43289 
L 219.190102 231.747185 
L 220.377056 228.165752 
L 221.564009 235.528052 
L 222.789251 241.878162 
L 224.014493 245.579024 
L 226.388399 261.10283 
L 228.762305 252.62314 
L 229.910969 247.582541 
L 231.097923 250.33895 
L 232.323165 250.660675 
L 233.510118 253.233763 
L 234.697071 257.289956 
L 235.884024 253.440004 
L 237.109266 255.373691 
L 238.25793 258.998367 
L 239.483172 257.805573 
L 241.857079 265.381453 
L 243.005743 260.053668 
L 244.230985 261.004758 
L 245.417938 254.121901 
L 246.566602 253.102471 
L 247.791844 241.510107 
L 250.204039 240.747184 
L 252.577946 254.306827 
L 253.764899 259.148088 
L 254.913563 260.376208 
L 256.138805 267.722134 
L 257.325758 267.591895 
L 258.512711 267.637451 
L 259.737953 257.363552 
L 260.924907 254.508692 
L 262.11186 250.285171 
L 263.298813 252.345511 
L 264.485766 250.81792 
L 265.672719 248.647741 
L 266.897961 244.40895 
L 268.046625 248.294574 
L 270.45882 260.09546 
L 271.684062 259.520422 
L 272.871016 261.917981 
L 273.981391 259.534078 
L 276.431875 261.78236 
L 278.805781 250.40959 
L 280.031023 258.451636 
L 281.217976 259.446349 
L 282.366641 267.107118 
L 283.630172 271.177245 
L 284.855413 266.552083 
L 286.004078 255.735747 
L 287.191031 248.400361 
L 288.339695 250.01604 
L 290.790179 241.6467 
L 291.977132 245.359579 
L 293.125797 242.882876 
L 294.389327 245.352983 
L 295.537992 243.891446 
L 296.686656 238.759494 
L 297.873609 230.044078 
L 299.098851 225.80012 
L 300.285804 232.891772 
L 301.472758 231.158442 
L 302.697999 234.326837 
L 303.884953 238.905392 
L 305.186772 244.441616 
L 306.450303 243.178393 
L 307.560678 243.635158 
L 308.824209 242.298747 
L 310.011162 242.258347 
L 311.198116 232.878269 
L 312.385069 233.380598 
L 313.572022 225.770771 
L 314.720686 231.267075 
L 315.945928 232.202703 
L 317.17117 236.633401 
L 318.319834 234.315372 
L 319.506788 234.944374 
L 320.770318 235.744457 
L 321.918983 241.453594 
L 323.067647 236.685132 
L 324.292889 236.847916 
L 325.479842 232.478481 
L 326.666795 232.27124 
L 327.777171 234.453558 
L 329.002413 234.121727 
L 330.189366 229.47706 
L 331.414608 234.522199 
L 332.63985 243.951122 
L 333.750225 246.188603 
L 334.937178 250.076961 
L 337.311085 231.845237 
L 338.536327 223.426568 
L 339.761569 216.29079 
L 340.910233 212.014371 
L 342.135475 210.875284 
L 344.54767 233.90933 
L 345.658046 238.651709 
L 346.80671 246.238916 
L 348.031952 242.172491 
L 349.218905 241.677467 
L 351.592811 230.059975 
L 352.818053 226.011681 
L 354.081584 217.267809 
L 355.230248 215.385715 
L 356.340624 222.292367 
L 357.604155 221.37648 
L 358.791108 223.604835 
L 359.978061 222.055057 
L 361.203303 221.188689 
L 362.428545 223.112747 
L 363.53892 222.34043 
L 364.764162 218.825434 
L 365.951115 211.012763 
L 367.09978 213.88683 
L 368.325022 220.020791 
L 369.473686 221.197676 
L 371.885881 215.933805 
L 374.259787 216.800449 
L 375.408452 211.735214 
L 376.671983 217.30058 
L 377.782358 220.10351 
L 379.084178 226.24976 
L 380.539153 228.056601 
L 381.879261 234.631767 
L 383.066214 235.395317 
L 384.329745 239.085706 
L 385.516698 245.823547 
L 386.74194 243.750273 
L 387.890604 242.270046 
L 389.077557 249.443469 
L 390.302799 247.937208 
L 392.600128 234.23747 
L 393.901948 233.403762 
L 395.088901 235.891231 
L 396.275854 232.405229 
L 398.573183 239.593818 
L 399.721847 237.316361 
L 401.023666 237.678778 
L 402.21062 240.314174 
L 403.397573 231.947884 
L 404.469659 231.215894 
L 405.771479 231.965392 
L 407.03501 241.969689 
L 408.107097 242.046243 
L 409.370627 245.406316 
L 410.519292 251.891157 
L 411.744534 247.997576 
L 412.893198 243.59858 
L 414.195018 243.421385 
L 415.305393 233.571693 
L 416.454057 237.633099 
L 417.755877 237.231992 
L 418.981119 241.421055 
L 420.168072 243.085406 
L 421.316736 246.428817 
L 422.427112 255.833504 
L 423.652354 255.470868 
L 424.915885 254.390654 
L 425.949683 249.632796 
L 427.32808 251.691601 
L 428.400166 252.186235 
L 429.510542 244.808672 
L 430.735784 240.399434 
L 431.999315 242.772595 
L 433.033113 244.970404 
L 434.373221 250.285419 
L 435.521885 253.221205 
L 436.708838 255.48789 
L 437.972369 257.088643 
L 439.082745 262.77619 
L 440.384564 260.809393 
L 441.49494 255.816309 
L 442.643604 254.678333 
L 443.868846 255.554245 
L 445.094088 257.135651 
L 446.281041 256.57499 
L 447.506283 259.777252 
L 448.540081 264.415417 
L 449.765323 267.172893 
L 451.028854 272.315534 
L 452.177518 268.619014 
L 453.40276 265.083756 
L 454.513136 265.258866 
L 455.853244 267.287096 
L 457.26993 261.584268 
L 458.724905 253.116806 
L 459.83528 253.696129 
L 461.098811 258.982099 
L 462.324053 256.761726 
L 463.549295 260.088325 
L 464.736248 255.192901 
L 465.846624 258.024161 
L 466.995288 260.228094 
L 468.182241 258.51491 
L 469.330906 252.817511 
L 470.517859 251.647911 
L 471.743101 257.393345 
L 473.04492 257.659728 
L 474.270162 254.938014 
L 475.265671 255.562036 
L 476.529202 250.468985 
L 477.792733 246.452259 
L 478.979686 243.768341 
L 480.090061 239.071824 
L 481.315303 243.019778 
L 482.540545 247.360175 
L 483.68921 253.38097 
L 485.029318 258.257547 
L 486.063116 264.924459 
L 487.364936 271.858703 
L 488.551889 272.682248 
L 489.547398 274.402991 
L 490.734351 274.293407 
L 492.227615 271.903866 
L 493.414568 266.784731 
L 494.29521 258.486371 
L 494.29521 258.486371 
" clip-path="url(#pa3f9c64467)" style="fill: none; stroke: #d62728; stroke-width: 2.5; stroke-linecap: square"/>
   </g>
   <g id="line2d_18">
    <path d="M 54.854525 266.234802 
L 54.816236 276.669209 
L 54.777947 271.421036 
L 54.931103 274.710298 
L 55.505435 279.969178 
L 56.807254 282.81291 
L 58.759984 283.618373 
L 60.980735 281.62087 
L 63.086619 283.459494 
L 64.962771 281.872616 
L 67.872721 275.1043 
L 69.021385 276.104709 
L 70.131761 274.909928 
L 71.242136 275.237857 
L 72.352512 271.141352 
L 73.501176 271.276366 
L 74.64984 272.732315 
L 75.836793 276.48429 
L 77.023747 273.470442 
L 78.248989 271.202614 
L 79.474231 274.225969 
L 80.737761 275.523949 
L 82.039581 274.274564 
L 83.417978 275.321101 
L 84.681509 272.398284 
L 85.94504 276.05963 
L 87.170282 277.597381 
L 88.357235 275.762362 
L 89.544188 272.339524 
L 90.731141 269.442609 
L 91.918094 269.81347 
L 93.143336 271.494509 
L 94.330289 274.335899 
L 95.478954 277.723505 
L 96.665907 275.869491 
L 99.039813 271.418066 
L 101.413719 265.543453 
L 102.638961 262.493198 
L 103.825914 263.81815 
L 105.089445 268.867757 
L 106.276398 269.506217 
L 107.463351 270.684009 
L 108.726882 270.425268 
L 109.837258 265.641787 
L 111.0625 267.769871 
L 112.249453 266.179518 
L 113.436406 264.212122 
L 114.623359 265.169859 
L 115.810312 270.601348 
L 116.958977 271.956157 
L 118.14593 269.194192 
L 119.332883 267.567503 
L 120.558125 265.656611 
L 121.745078 255.563909 
L 122.97032 250.698178 
L 124.195562 246.569634 
L 125.382515 240.765314 
L 126.607757 240.455542 
L 127.79471 241.349226 
L 128.981663 241.354364 
L 130.206905 245.22259 
L 131.432147 247.690242 
L 132.657389 250.647722 
L 133.882631 249.555608 
L 135.107873 248.908618 
L 136.294826 250.761108 
L 137.481779 249.990989 
L 138.668733 248.007601 
L 139.893974 249.106391 
L 141.080928 252.534203 
L 142.267881 253.074929 
L 143.493123 251.253884 
L 144.718365 252.317421 
L 145.905318 252.751901 
L 147.092271 254.002468 
L 148.317513 255.031634 
L 149.504466 255.744236 
L 150.729708 253.555879 
L 151.916661 257.499735 
L 153.065326 252.581416 
L 154.21399 248.572895 
L 155.400943 247.311484 
L 156.587896 245.843823 
L 157.813138 248.697778 
L 159.000091 250.645482 
L 160.148756 252.050176 
L 161.373998 252.201771 
L 162.560951 247.854201 
L 163.747904 246.780898 
L 164.934857 240.242008 
L 166.083521 241.02394 
L 167.347052 240.951859 
L 168.572294 240.098262 
L 169.759247 243.549518 
L 170.9462 244.059235 
L 172.171442 245.735927 
L 173.358395 246.776187 
L 174.583637 250.489084 
L 175.732302 250.621671 
L 176.957544 254.099943 
L 178.106208 253.055971 
L 179.33145 249.697894 
L 180.441825 248.884493 
L 181.667067 243.875194 
L 182.815732 233.528341 
L 184.040974 229.556519 
L 185.304505 229.017841 
L 186.453169 221.72777 
L 187.640122 209.969947 
L 188.903653 212.047192 
L 190.090606 208.23129 
L 191.315848 213.018463 
L 192.502801 215.265035 
L 193.689754 216.183501 
L 194.838418 216.555831 
L 196.101949 218.413277 
L 197.288902 213.793264 
L 198.514144 199.916663 
L 199.662809 196.277877 
L 200.849762 193.099655 
L 202.036715 192.931605 
L 203.261957 198.087099 
L 204.410621 206.083683 
L 205.597574 211.3492 
L 206.822816 220.085022 
L 208.00977 223.428039 
L 209.235011 230.43464 
L 210.383676 222.06415 
L 211.570629 222.744406 
L 212.795871 211.80675 
L 213.982824 198.789523 
L 215.169777 190.821571 
L 216.395019 192.344182 
L 217.581972 189.2858 
L 218.768925 195.691415 
L 219.994167 201.323384 
L 221.219409 214.727327 
L 222.406363 216.828819 
L 223.631604 228.481189 
L 224.780269 231.599927 
L 225.967222 231.890051 
L 227.192464 238.127902 
L 228.379417 245.126747 
L 229.56637 243.303323 
L 230.753323 240.988415 
L 231.901988 240.480773 
L 233.12723 242.204713 
L 234.352472 240.565903 
L 235.539425 235.371169 
L 236.6498 232.465195 
L 237.798465 234.4787 
L 240.248948 240.960139 
L 241.397613 243.141951 
L 242.622855 245.143947 
L 243.848097 247.719205 
L 245.03505 245.870464 
L 246.183714 246.130828 
L 247.370667 243.742218 
L 248.634198 242.823788 
L 249.744574 243.644768 
L 250.931527 244.368996 
L 253.343722 252.393267 
L 254.530675 254.615073 
L 255.717628 253.79575 
L 256.904581 250.593937 
L 258.129823 251.822924 
L 259.316776 246.727751 
L 260.50373 240.875088 
L 261.690683 237.577403 
L 262.877636 235.7402 
L 264.102878 240.713794 
L 265.213253 242.179229 
L 266.476784 247.909919 
L 267.663737 251.485359 
L 268.888979 251.366077 
L 270.114221 250.010966 
L 271.262886 245.816992 
L 272.41155 244.40075 
L 273.675081 247.039342 
L 276.010698 254.466885 
L 277.197651 255.476179 
L 278.422893 256.81016 
L 279.648135 254.12756 
L 280.835088 254.43446 
L 282.022041 256.310645 
L 283.170706 253.560762 
L 284.357659 241.580261 
L 285.544612 232.984896 
L 286.808143 229.016999 
L 287.918518 226.551078 
L 289.14376 221.398522 
L 290.292425 218.136669 
L 291.517667 215.726483 
L 292.742909 227.173984 
L 293.891573 234.695119 
L 295.078526 232.622333 
L 296.265479 227.875957 
L 297.490721 225.984387 
L 298.715963 225.49312 
L 299.78805 224.475072 
L 301.051581 222.315299 
L 302.200245 215.68366 
L 303.463776 211.650342 
L 304.765595 212.694974 
L 305.990837 215.894822 
L 307.139502 214.039217 
L 308.364744 215.275533 
L 309.513408 211.093735 
L 310.73865 203.175011 
L 311.963892 201.947948 
L 313.150845 206.797267 
L 314.299509 202.983259 
L 315.486462 201.938476 
L 316.673416 206.169139 
L 317.860369 211.164556 
L 320.272564 214.477274 
L 321.459517 213.213965 
L 322.723048 214.723708 
L 323.795134 215.588481 
L 325.058665 218.826942 
L 326.20733 217.403004 
L 327.394283 213.866101 
L 328.581236 211.692777 
L 329.768189 210.966174 
L 330.955142 212.047894 
L 332.142095 213.476889 
L 333.367337 215.546431 
L 334.55429 218.878836 
L 335.741243 215.728395 
L 336.889908 218.294964 
L 338.11515 217.989682 
L 339.340392 219.256495 
L 340.489056 222.633384 
L 341.714298 223.796641 
L 342.901251 226.015874 
L 344.049915 230.116402 
L 345.236869 227.106315 
L 346.538688 223.399843 
L 347.649064 220.577577 
L 348.797728 221.035308 
L 349.984681 217.729686 
L 351.286501 215.179059 
L 352.396876 214.054631 
L 353.622118 204.99762 
L 354.770783 205.518797 
L 355.957736 208.480327 
L 357.221267 200.810877 
L 358.40822 200.342321 
L 359.518595 198.255956 
L 360.705548 197.923597 
L 361.892501 202.469639 
L 363.156032 199.987817 
L 364.304697 206.170988 
L 365.49165 203.500676 
L 366.755181 206.730484 
L 367.903845 207.584951 
L 369.090798 204.670209 
L 370.239462 200.352912 
L 371.502993 193.507606 
L 372.613369 190.163995 
L 373.762033 197.186366 
L 375.025564 194.999564 
L 376.135939 193.484867 
L 377.39947 185.909452 
L 378.509846 183.510801 
L 380.003109 184.432986 
L 381.419795 188.963789 
L 382.721615 189.889263 
L 383.908568 196.635576 
L 385.172099 198.789365 
L 386.282474 207.129833 
L 387.546005 211.463864 
L 388.732958 207.832123 
L 389.843334 206.775362 
L 391.068576 211.97957 
L 392.293818 218.124401 
L 393.404193 219.379252 
L 394.591146 224.252532 
L 395.816388 219.186679 
L 397.04163 212.575176 
L 398.34345 208.598717 
L 399.338959 204.668568 
L 400.60249 203.749312 
L 401.827732 205.840567 
L 404.163349 222.261114 
L 405.273725 223.372982 
L 406.498966 223.215005 
L 407.647631 222.860601 
L 408.911162 222.129984 
L 410.021537 222.925868 
L 411.361645 222.980391 
L 412.433732 221.138829 
L 413.620685 219.684906 
L 414.922505 221.521322 
L 415.994592 225.496865 
L 417.258122 219.33605 
L 418.368498 216.089369 
L 419.670317 221.625254 
L 421.048715 222.606638 
L 422.082513 232.595394 
L 423.154599 239.203519 
L 424.41813 235.724911 
L 425.643372 235.178457 
L 426.715459 243.501327 
L 428.017278 242.145738 
L 429.280809 240.642448 
L 430.391185 239.558841 
L 431.50156 236.888658 
L 432.765091 238.711267 
L 433.913755 240.66228 
L 434.909264 244.175158 
L 436.364239 243.241104 
L 437.512903 240.639653 
L 438.661568 243.566051 
L 439.88681 239.741957 
L 442.14585 240.385973 
L 443.447669 240.042501 
L 444.634622 241.512381 
L 445.821576 239.424974 
L 446.97024 243.411737 
L 448.195482 248.77564 
L 450.49281 240.900945 
L 451.871208 240.560182 
L 452.943294 240.747926 
L 454.206825 241.67313 
L 455.240623 239.994213 
L 456.772175 238.072455 
L 458.112284 238.198738 
L 459.299237 243.04052 
L 460.677634 250.23646 
L 461.941165 251.303484 
L 463.281273 254.954217 
L 464.315071 258.299805 
L 465.425447 258.345357 
L 466.688978 257.198521 
L 467.799353 255.522817 
L 468.948017 252.828587 
L 470.096682 249.178554 
L 471.398501 249.392611 
L 472.623743 250.51322 
L 473.810696 251.060975 
L 474.959361 248.805445 
L 476.031448 243.433126 
L 477.333267 241.905341 
L 478.52022 245.211796 
L 479.668885 247.572936 
L 481.008993 251.852447 
L 482.272524 254.638318 
L 483.382899 261.701526 
L 484.608141 262.773506 
L 485.718517 258.164287 
L 486.675737 252.617872 
L 488.015845 251.930527 
L 489.279376 253.354431 
L 491.614994 257.132375 
L 492.68708 258.127597 
L 493.874033 257.621106 
L 493.874033 257.621106 
" clip-path="url(#pa3f9c64467)" style="fill: none; stroke: #ff7f0e; stroke-width: 2.5; stroke-linecap: square"/>
   </g>
   <g id="line2d_19">
    <path d="M 53.552705 262.242863 
L 53.476128 282.481908 
L 53.437839 282.535232 
L 53.476128 283.502585 
L 53.437839 285.916318 
L 53.552705 282.98404 
L 53.859016 281.450011 
L 54.816236 276.012556 
L 56.462655 276.500093 
L 58.721695 274.075226 
L 61.019024 275.37281 
L 63.048331 274.309382 
L 64.771327 275.153312 
L 66.149724 276.779876 
L 67.374966 278.774203 
L 68.485342 279.044475 
L 69.595717 280.756773 
L 70.706093 278.196209 
L 71.816468 279.68044 
L 73.003421 278.057037 
L 74.190375 278.379192 
L 75.415617 275.953352 
L 76.60257 270.874856 
L 77.8661 267.69533 
L 79.014765 268.262349 
L 80.201718 270.014354 
L 81.503538 277.32014 
L 82.767068 272.424745 
L 84.107177 274.507467 
L 85.370707 277.297657 
L 86.634238 278.534784 
L 87.85948 273.514201 
L 89.046433 271.970015 
L 90.271675 268.800618 
L 91.42034 266.228635 
L 92.645582 265.631715 
L 93.832535 268.558404 
L 95.096065 269.577093 
L 96.283019 273.778963 
L 97.469972 279.233109 
L 98.695214 283.068473 
L 99.882167 282.041845 
L 101.06912 287.624943 
L 102.217784 283.819882 
L 105.89351 266.555966 
L 107.118752 262.178751 
L 108.343994 255.986377 
L 109.530947 254.70179 
L 110.7179 255.012973 
L 111.866565 256.098208 
L 113.091807 261.283097 
L 114.240471 261.074108 
L 115.427424 262.342381 
L 116.652666 263.940086 
L 117.839619 268.945439 
L 119.026572 265.643173 
L 120.213526 260.674426 
L 121.438768 252.190706 
L 123.736096 246.346188 
L 124.999627 244.748972 
L 126.148291 242.216225 
L 127.373533 245.977021 
L 128.598775 252.040462 
L 129.785728 259.463944 
L 131.01097 261.498438 
L 132.236212 262.722812 
L 133.461454 263.727769 
L 134.724985 265.284133 
L 135.911938 268.564856 
L 137.13718 265.06447 
L 138.324133 263.940488 
L 140.736328 270.696583 
L 141.923281 269.783646 
L 143.110235 270.712279 
L 144.258899 272.022107 
L 145.445852 269.843346 
L 146.632805 266.437865 
L 147.858047 266.986179 
L 149.045 262.540167 
L 150.270242 261.853241 
L 151.457195 264.817769 
L 152.60586 266.169268 
L 153.831102 261.395746 
L 155.018055 261.21578 
L 156.205008 261.208639 
L 157.43025 257.523968 
L 158.578914 254.486438 
L 159.765867 257.110582 
L 160.991109 256.449259 
L 162.178063 254.279786 
L 163.365016 254.620302 
L 164.551969 250.790407 
L 165.777211 244.983095 
L 166.964164 245.677897 
L 168.151117 250.544105 
L 169.33807 253.330757 
L 170.601601 254.62306 
L 171.826843 254.616013 
L 173.013796 254.48004 
L 174.200749 255.915177 
L 175.387702 251.49469 
L 176.574656 243.743709 
L 177.761609 244.993493 
L 178.910273 245.896622 
L 180.097226 247.806567 
L 181.284179 250.390947 
L 182.471132 245.598397 
L 183.658086 238.820519 
L 184.80675 241.428079 
L 186.070281 235.896661 
L 187.295523 233.112067 
L 188.482476 229.934589 
L 189.669429 233.577511 
L 190.856382 231.901491 
L 192.081624 232.387817 
L 193.268577 234.797855 
L 194.493819 231.040438 
L 195.680772 235.53408 
L 196.829437 236.368412 
L 198.054679 226.781717 
L 199.241632 226.229426 
L 200.466874 220.940658 
L 201.653827 220.004826 
L 202.879069 215.178521 
L 204.066022 217.798939 
L 205.214686 221.139519 
L 206.439928 227.972807 
L 207.626881 235.897961 
L 208.813835 240.305806 
L 209.962499 235.792538 
L 211.149452 233.137022 
L 212.374694 229.058245 
L 213.523358 228.473648 
L 214.710311 217.679368 
L 215.973842 215.244736 
L 217.122507 215.448591 
L 218.30946 219.800582 
L 219.496413 221.567515 
L 220.721655 230.884827 
L 223.13385 238.848558 
L 225.507756 252.390577 
L 226.732998 248.860645 
L 227.881662 246.132488 
L 229.068616 246.153721 
L 230.332146 249.668778 
L 231.480811 247.643982 
L 232.706053 251.280629 
L 233.893006 251.427093 
L 235.079959 250.945514 
L 237.415576 253.918737 
L 238.60253 253.200646 
L 239.86606 254.193463 
L 241.014725 255.269044 
L 242.201678 262.968451 
L 243.388631 263.030564 
L 244.613873 264.616597 
L 245.762537 261.427337 
L 246.987779 259.581173 
L 248.174732 253.002655 
L 249.361686 249.41838 
L 250.548639 246.250388 
L 252.999123 246.289841 
L 254.186076 247.153746 
L 255.373029 249.134621 
L 256.521693 253.996181 
L 257.708646 253.399198 
L 258.933888 254.780372 
L 260.082553 249.907844 
L 261.307795 249.327426 
L 262.456459 249.010769 
L 264.868654 251.251091 
L 266.017318 251.791948 
L 267.204272 256.46054 
L 268.429513 259.05407 
L 269.578178 256.501508 
L 270.879997 261.087228 
L 272.028662 254.115447 
L 273.177326 251.254619 
L 274.32599 249.287494 
L 275.589521 243.149905 
L 276.738186 241.862742 
L 277.963427 241.71579 
L 279.188669 246.414165 
L 280.337334 242.373911 
L 282.672951 238.449425 
L 283.898193 226.548788 
L 285.161724 222.464655 
L 286.348677 221.409932 
L 287.497341 219.967061 
L 288.722583 224.64448 
L 291.09649 241.486334 
L 292.321732 241.229767 
L 293.470396 238.808098 
L 294.657349 226.930214 
L 295.882591 212.287495 
L 297.031255 205.505527 
L 298.256497 200.349175 
L 299.481739 192.801388 
L 300.630404 191.153487 
L 303.042599 195.883789 
L 304.30613 191.548333 
L 305.531371 186.874299 
L 306.794902 181.341675 
L 307.981855 183.298865 
L 309.168809 189.206521 
L 310.394051 192.491604 
L 311.619292 193.195518 
L 312.729668 197.439675 
L 315.103574 204.219959 
L 316.21395 200.084136 
L 317.477481 201.893026 
L 318.702723 206.572616 
L 319.889676 204.205657 
L 321.000051 206.912717 
L 322.263582 208.934152 
L 323.412246 208.764366 
L 324.599199 205.44746 
L 325.786153 205.794201 
L 326.973106 201.914229 
L 328.198348 204.61466 
L 329.385301 207.951242 
L 330.533965 208.540422 
L 331.759207 202.191228 
L 332.907871 202.628312 
L 334.094825 207.399367 
L 335.243489 207.224571 
L 336.583597 204.57597 
L 337.77055 204.576616 
L 338.880926 202.994856 
L 340.02959 205.080907 
L 341.33141 208.528797 
L 342.441785 205.075383 
L 343.59045 206.646807 
L 344.815692 205.137772 
L 346.002645 206.799505 
L 347.266176 205.172095 
L 348.41484 205.163857 
L 349.563504 202.002806 
L 350.865324 200.717786 
L 351.975699 197.677969 
L 353.162653 202.189907 
L 354.387895 200.121678 
L 355.574848 205.225179 
L 356.723512 203.723524 
L 357.910465 203.016823 
L 359.097418 199.611362 
L 360.284371 199.125856 
L 361.471325 190.008327 
L 362.658278 188.911618 
L 363.88352 185.547189 
L 365.032184 183.775721 
L 366.257426 180.989119 
L 367.482668 189.942495 
L 368.631332 189.586894 
L 369.779997 189.517591 
L 370.96695 190.528083 
L 372.192192 196.661426 
L 373.379145 198.031904 
L 374.566098 203.058268 
L 375.714762 199.661855 
L 376.978293 197.722727 
L 378.165246 200.06184 
L 379.505355 207.817239 
L 380.845463 210.323723 
L 382.185571 209.688855 
L 383.449102 218.882844 
L 384.597766 212.836719 
L 385.937875 206.789615 
L 387.086539 203.132231 
L 388.273492 202.555285 
L 389.460446 200.88355 
L 390.647399 203.02951 
L 393.059594 214.475517 
L 394.208258 220.531882 
L 395.318634 230.518054 
L 397.730829 221.61399 
L 398.956071 222.926868 
L 400.143024 228.585159 
L 401.291688 225.811878 
L 402.478641 215.943488 
L 403.742172 207.522734 
L 404.929125 202.859872 
L 406.039501 206.752971 
L 407.264743 212.415103 
L 408.528273 212.831077 
L 409.562071 217.251151 
L 410.863891 224.928991 
L 412.089133 234.34831 
L 413.352664 237.95807 
L 414.539617 240.863545 
L 415.611704 241.699927 
L 416.836945 239.583054 
L 418.023899 238.316515 
L 419.172563 233.184763 
L 420.397805 222.247688 
L 421.546469 221.774451 
L 422.733422 217.885397 
L 423.958664 220.898798 
L 425.37535 227.228285 
L 426.562304 241.771615 
L 427.596101 249.9076 
L 428.821343 246.943263 
L 429.931719 247.287231 
L 431.003806 245.321672 
L 432.267336 240.877462 
L 433.569156 234.116252 
L 434.679531 229.146807 
L 435.904773 230.307286 
L 437.053438 233.591943 
L 438.355257 236.907668 
L 439.54221 241.230131 
L 440.652586 242.184262 
L 443.026492 254.640145 
L 444.251734 254.052908 
L 445.285532 249.056506 
L 446.587352 253.545122 
L 447.697727 256.961163 
L 448.961258 255.638408 
L 450.1865 250.08676 
L 452.560406 257.073833 
L 453.632493 259.808472 
L 454.819446 260.131702 
L 456.236132 257.938894 
L 457.691107 257.297323 
L 458.954638 255.772436 
L 460.256457 249.752297 
L 461.328544 241.806658 
L 462.821808 233.927927 
L 464.04705 237.413927 
L 464.851115 242.026821 
L 465.999779 242.538117 
L 467.301599 241.155703 
L 468.565129 248.608406 
L 469.752082 252.427471 
L 470.939036 253.757048 
L 472.164278 252.578432 
L 473.38952 253.238752 
L 474.499895 253.587494 
L 475.686848 256.754946 
L 476.91209 257.647163 
L 478.137332 258.203454 
L 479.209419 260.918678 
L 480.587816 259.191669 
L 481.698192 257.153415 
L 482.961722 249.404884 
L 484.148675 248.784946 
L 485.29734 249.109629 
L 486.522582 251.530512 
L 487.671246 255.118347 
L 488.858199 254.673579 
L 490.083441 259.740964 
L 491.155528 261.202863 
L 492.38077 256.507723 
L 493.644301 243.10399 
L 494.486654 218.440112 
L 494.486654 218.440112 
" clip-path="url(#pa3f9c64467)" style="fill: none; stroke: #9467bd; stroke-width: 2.5; stroke-linecap: square"/>
   </g>
   <g id="line2d_20">
    <path d="M 54.586503 278.329135 
L 54.509926 275.147911 
L 54.509926 279.8703 
L 54.509926 279.20581 
L 54.548214 283.472289 
L 55.084258 282.095411 
L 56.232922 281.001745 
L 58.032496 281.236494 
L 60.253247 282.070493 
L 62.43571 282.478051 
L 64.35015 280.789942 
L 65.95828 276.127617 
L 67.336677 274.317018 
L 68.523631 272.157355 
L 69.634006 275.306371 
L 70.706093 276.423801 
L 73.003421 276.691078 
L 74.113797 275.074258 
L 75.339039 271.06048 
L 76.564281 270.205246 
L 77.751234 269.63466 
L 79.014765 270.886227 
L 80.240007 271.410994 
L 82.843646 276.305394 
L 84.183754 280.144318 
L 85.447285 279.232992 
L 87.897769 276.783815 
L 90.271675 277.560545 
L 92.645582 282.216746 
L 93.870823 285.058497 
L 95.057777 284.24271 
L 96.283019 289.908837 
L 97.469972 291.205218 
L 98.695214 289.47668 
L 99.882167 284.993984 
L 101.06912 283.120777 
L 103.443026 275.509453 
L 104.629979 274.429412 
L 105.816933 274.161386 
L 107.003886 271.483892 
L 108.229128 270.207244 
L 109.416081 270.580795 
L 110.603034 269.939873 
L 111.789987 271.253248 
L 112.97694 271.901433 
L 114.202182 269.277095 
L 115.427424 268.249569 
L 116.576089 273.893405 
L 117.763042 276.453499 
L 118.949995 273.608295 
L 120.136948 270.256402 
L 121.36219 271.576252 
L 122.510854 271.76499 
L 123.697807 265.898994 
L 124.884761 266.287809 
L 126.110002 262.484986 
L 127.335244 264.120092 
L 128.560486 267.460791 
L 129.74744 261.898175 
L 131.01097 258.428264 
L 132.236212 261.155949 
L 133.461454 260.531934 
L 134.648407 258.793548 
L 135.835361 254.754183 
L 137.022314 264.131476 
L 138.170978 263.356359 
L 139.434509 265.779633 
L 140.659751 264.277933 
L 141.846704 263.01907 
L 143.071946 266.358862 
L 144.258899 264.56996 
L 145.484141 261.324005 
L 146.709383 256.606492 
L 147.858047 253.242388 
L 150.270242 257.181912 
L 151.418907 253.203996 
L 152.644149 251.561936 
L 153.869391 255.887382 
L 155.056344 258.074242 
L 156.243297 259.096098 
L 157.391961 265.485682 
L 158.617203 267.917013 
L 159.804156 260.612941 
L 160.952821 255.387546 
L 162.139774 251.85133 
L 163.403305 249.236645 
L 164.590258 249.921316 
L 165.738922 250.852147 
L 166.925875 255.527572 
L 168.151117 260.81343 
L 169.33807 271.630353 
L 170.563312 268.483109 
L 171.711977 256.958095 
L 172.860641 255.201361 
L 174.085883 257.316305 
L 175.311125 252.762012 
L 176.498078 249.598122 
L 177.685031 238.309252 
L 178.833695 234.503036 
L 180.058937 233.995065 
L 181.245891 230.82503 
L 182.432844 221.062382 
L 183.658086 222.977147 
L 184.845039 228.071756 
L 185.993703 234.03881 
L 187.180656 226.160351 
L 188.405898 230.463876 
L 189.669429 222.903973 
L 190.856382 221.740572 
L 192.158202 224.567563 
L 194.493819 212.076597 
L 195.719061 212.056767 
L 196.906014 204.306777 
L 198.131256 206.169076 
L 199.279921 204.459823 
L 200.428585 205.812629 
L 201.615538 206.442117 
L 202.879069 215.669479 
L 204.027733 228.52923 
L 205.214686 236.540493 
L 206.439928 236.241751 
L 207.588593 236.563241 
L 208.813835 229.332011 
L 210.000788 225.160682 
L 211.22603 219.098437 
L 212.412983 212.522505 
L 213.561647 212.281306 
L 214.786889 222.582175 
L 215.973842 228.520928 
L 217.122507 229.226299 
L 218.347749 229.135185 
L 219.534702 231.627357 
L 220.759944 227.829691 
L 221.908608 230.571827 
L 223.13385 231.896614 
L 224.320803 236.184307 
L 225.546045 237.990305 
L 226.694709 244.489882 
L 229.106904 237.873031 
L 230.255569 239.842545 
L 231.480811 240.281109 
L 232.667764 241.994731 
L 233.854717 249.62402 
L 235.079959 252.097252 
L 236.266912 258.590016 
L 237.453865 256.335259 
L 238.60253 256.61966 
L 239.827772 259.571422 
L 241.014725 259.480354 
L 242.201678 258.607913 
L 243.388631 255.635724 
L 244.575584 256.464119 
L 245.800826 255.609279 
L 246.987779 259.297781 
L 248.174732 257.952612 
L 249.361686 262.204748 
L 250.548639 268.260046 
L 251.697303 266.344762 
L 252.922545 261.719914 
L 255.296451 254.320578 
L 257.670358 248.111974 
L 258.857311 252.331945 
L 260.005975 253.670436 
L 261.269506 264.482108 
L 262.456459 264.810793 
L 263.681701 258.216774 
L 264.792076 258.298048 
L 265.97903 261.561686 
L 267.204272 266.592377 
L 268.391225 264.956423 
L 269.578178 259.806586 
L 270.765131 262.182392 
L 271.913795 259.598586 
L 273.177326 258.517815 
L 274.364279 256.226288 
L 275.589521 252.446086 
L 276.738186 256.146983 
L 277.88685 260.274691 
L 279.112092 265.549781 
L 280.299045 261.127845 
L 281.485998 255.67054 
L 282.749529 260.411662 
L 283.936482 254.137015 
L 285.085146 250.924816 
L 286.233811 245.822452 
L 287.459053 241.981359 
L 288.607717 247.531742 
L 289.756381 246.43266 
L 290.905046 245.955272 
L 292.206865 241.223411 
L 293.35553 248.475951 
L 294.580772 247.511842 
L 295.729436 238.184954 
L 296.954678 238.996332 
L 298.17992 233.063044 
L 299.366873 237.012209 
L 301.779068 238.311001 
L 303.00431 238.534231 
L 304.267841 236.983297 
L 305.531371 237.096375 
L 306.756613 229.069346 
L 307.905278 215.592281 
L 308.939076 213.769094 
L 310.202606 203.386893 
L 311.351271 209.933671 
L 312.614802 207.648781 
L 313.801755 214.408559 
L 315.026997 223.509864 
L 317.439192 242.877095 
L 318.626145 249.877884 
L 319.851387 244.530902 
L 321.000051 249.116362 
L 322.225293 244.178856 
L 323.373957 244.474677 
L 324.560911 243.381156 
L 325.786153 238.746993 
L 327.011395 238.51819 
L 328.198348 237.302457 
L 329.385301 235.221864 
L 330.572254 234.970972 
L 331.682629 237.635399 
L 332.984449 237.155092 
L 334.094825 232.869008 
L 335.281778 232.468818 
L 336.468731 231.169779 
L 337.655684 227.105169 
L 338.880926 230.486214 
L 340.144457 227.903021 
L 341.254832 229.257012 
L 342.403497 236.547867 
L 343.743605 241.688917 
L 344.853981 234.972806 
L 346.117511 232.31501 
L 347.266176 228.123 
L 348.338262 221.615229 
L 349.640082 216.745093 
L 350.750457 213.227806 
L 351.975699 211.178293 
L 353.162653 216.389197 
L 354.311317 219.439609 
L 355.574848 220.3594 
L 356.761801 212.157715 
L 357.872176 214.640174 
L 359.097418 218.836114 
L 360.284371 224.263831 
L 361.471325 223.195391 
L 362.658278 222.775147 
L 363.921808 228.50475 
L 365.070473 236.713172 
L 366.257426 227.646796 
L 367.444379 215.976874 
L 368.669621 214.393679 
L 372.192192 228.975345 
L 373.417434 236.44796 
L 375.753051 232.011921 
L 377.054871 227.949339 
L 378.126957 215.505481 
L 379.581932 215.22831 
L 380.883752 222.51681 
L 382.22386 224.14076 
L 383.410813 223.536115 
L 384.597766 229.714859 
L 385.899586 239.381548 
L 388.273492 235.105818 
L 389.422157 237.043028 
L 390.60911 241.127209 
L 391.796063 243.594764 
L 393.021305 244.061914 
L 394.208258 242.56837 
L 395.356922 240.810041 
L 396.543876 242.753836 
L 397.845695 239.243614 
L 398.994359 234.65955 
L 400.181313 231.846584 
L 401.329977 233.289913 
L 403.742172 223.804862 
L 404.852548 229.765892 
L 406.154367 235.865778 
L 407.264743 237.53726 
L 408.566562 238.578304 
L 410.863891 245.288722 
L 412.089133 252.479141 
L 413.276086 255.229832 
L 414.463039 246.981153 
L 415.611704 243.228822 
L 416.875234 238.253109 
L 417.98561 236.710217 
L 419.325718 230.423143 
L 420.321227 232.823381 
L 421.584758 232.167884 
L 422.886578 236.953537 
L 423.958664 243.205864 
L 425.183906 243.145071 
L 426.638881 241.935327 
L 427.710968 238.198801 
L 428.859632 238.186743 
L 429.89343 244.074548 
L 431.080383 249.941781 
L 432.343914 250.820669 
L 433.569156 251.830739 
L 434.71782 251.582439 
L 435.789907 247.800447 
L 436.97686 242.261237 
L 438.240391 242.396103 
L 439.427344 238.426731 
L 440.690875 247.289009 
L 441.80125 249.848623 
L 442.988203 254.679805 
L 444.251734 252.023324 
L 445.476976 254.806738 
L 446.587352 251.127395 
L 447.736016 254.25877 
L 448.922969 250.694747 
L 450.148211 252.757104 
L 451.296876 259.433435 
L 452.522117 270.971187 
L 453.747359 266.064145 
L 454.819446 265.464317 
L 456.236132 260.348823 
L 457.691107 261.510521 
L 458.87806 260.753457 
L 460.17988 258.149307 
L 461.366833 251.947512 
L 462.553786 251.317936 
L 463.817317 257.56305 
L 465.195714 257.6798 
L 466.152934 249.951761 
L 467.26331 246.216574 
L 468.373685 248.356356 
L 469.675505 256.472901 
L 470.862458 258.457614 
L 472.0877 258.986029 
L 473.351231 262.102686 
L 474.499895 261.044424 
L 475.648559 262.663492 
L 476.797224 259.543472 
L 479.247708 247.908914 
L 480.434661 251.227885 
L 481.659903 255.765123 
L 482.885145 253.925295 
L 483.918943 254.093483 
L 485.335629 250.007905 
L 486.599159 245.998454 
L 487.824401 247.351377 
L 488.743333 249.190589 
L 489.853708 252.195995 
L 491.270394 257.380599 
L 492.495636 265.074156 
L 494.601521 289.307158 
L 494.601521 289.307158 
" clip-path="url(#pa3f9c64467)" style="fill: none; stroke: #2ca02c; stroke-width: 2.5; stroke-linecap: square"/>
   </g>
   <g id="patch_3">
    <path d="M 55.084258 303.182656 
L 55.084258 39.679004 
" style="fill: none; stroke: #000000; stroke-width: 1.5; stroke-linejoin: miter; stroke-linecap: square"/>
   </g>
   <g id="patch_4">
    <path d="M 55.084258 303.182656 
L 495.405586 303.182656 
" style="fill: none; stroke: #000000; stroke-width: 1.5; stroke-linejoin: miter; stroke-linecap: square"/>
   </g>
   <g id="text_18">
    <!-- 1421_wo_HF -->
    <g transform="translate(233.610234 18.441699) scale(0.14 -0.14)">
     <defs>
      <path id="ArialMT-42" d="M -97 -1272 
L -97 -866 
L 3631 -866 
L 3631 -1272 
L -97 -1272 
z
" transform="scale(0.015625)"/>
      <path id="ArialMT-5a" d="M 1034 0 
L 19 3319 
L 600 3319 
L 1128 1403 
L 1325 691 
Q 1338 744 1497 1375 
L 2025 3319 
L 2603 3319 
L 3100 1394 
L 3266 759 
L 3456 1400 
L 4025 3319 
L 4572 3319 
L 3534 0 
L 2950 0 
L 2422 1988 
L 2294 2553 
L 1622 0 
L 1034 0 
z
" transform="scale(0.015625)"/>
      <path id="ArialMT-2b" d="M 513 0 
L 513 4581 
L 1119 4581 
L 1119 2700 
L 3500 2700 
L 3500 4581 
L 4106 4581 
L 4106 0 
L 3500 0 
L 3500 2159 
L 1119 2159 
L 1119 0 
L 513 0 
z
" transform="scale(0.015625)"/>
      <path id="ArialMT-29" d="M 525 0 
L 525 4581 
L 3616 4581 
L 3616 4041 
L 1131 4041 
L 1131 2622 
L 3281 2622 
L 3281 2081 
L 1131 2081 
L 1131 0 
L 525 0 
z
" transform="scale(0.015625)"/>
     </defs>
     <use xlink:href="#ArialMT-14"/>
     <use xlink:href="#ArialMT-17" transform="translate(55.609375 0)"/>
     <use xlink:href="#ArialMT-15" transform="translate(111.21875 0)"/>
     <use xlink:href="#ArialMT-14" transform="translate(166.828125 0)"/>
     <use xlink:href="#ArialMT-42" transform="translate(222.4375 0)"/>
     <use xlink:href="#ArialMT-5a" transform="translate(278.046875 0)"/>
     <use xlink:href="#ArialMT-52" transform="translate(350.265625 0)"/>
     <use xlink:href="#ArialMT-42" transform="translate(405.875 0)"/>
     <use xlink:href="#ArialMT-2b" transform="translate(461.484375 0)"/>
     <use xlink:href="#ArialMT-29" transform="translate(533.703125 0)"/>
    </g>
    <!-- m/z 60 -->
    <g transform="translate(254.239453 33.679004) scale(0.14 -0.14)">
     <use xlink:href="#ArialMT-50"/>
     <use xlink:href="#ArialMT-12" transform="translate(83.296875 0)"/>
     <use xlink:href="#ArialMT-5d" transform="translate(111.078125 0)"/>
     <use xlink:href="#ArialMT-3" transform="translate(161.078125 0)"/>
     <use xlink:href="#ArialMT-19" transform="translate(188.859375 0)"/>
     <use xlink:href="#ArialMT-13" transform="translate(244.46875 0)"/>
    </g>
   </g>
   <g id="legend_1">
    <g id="line2d_21">
     <path d="M 513.212012 52.459277 
L 523.212012 52.459277 
L 533.212012 52.459277 
" style="fill: none; stroke: #000000; stroke-width: 2.5; stroke-linecap: square"/>
    </g>
    <g id="text_19">
     <!-- 0 h -->
     <g transform="translate(541.212012 55.959277) scale(0.1 -0.1)">
      <defs>
       <path id="ArialMT-4b" d="M 422 0 
L 422 4581 
L 984 4581 
L 984 2938 
Q 1378 3394 1978 3394 
Q 2347 3394 2619 3248 
Q 2891 3103 3008 2847 
Q 3125 2591 3125 2103 
L 3125 0 
L 2563 0 
L 2563 2103 
Q 2563 2525 2380 2717 
Q 2197 2909 1863 2909 
Q 1613 2909 1392 2779 
Q 1172 2650 1078 2428 
Q 984 2206 984 1816 
L 984 0 
L 422 0 
z
" transform="scale(0.015625)"/>
      </defs>
      <use xlink:href="#ArialMT-13"/>
      <use xlink:href="#ArialMT-3" transform="translate(55.609375 0)"/>
      <use xlink:href="#ArialMT-4b" transform="translate(83.390625 0)"/>
     </g>
    </g>
    <g id="line2d_22">
     <path d="M 513.212012 66.844043 
L 523.212012 66.844043 
L 533.212012 66.844043 
" style="fill: none; stroke: #1f77b4; stroke-width: 2.5; stroke-linecap: square"/>
    </g>
    <g id="text_20">
     <!-- 6 h -->
     <g transform="translate(541.212012 70.344043) scale(0.1 -0.1)">
      <use xlink:href="#ArialMT-19"/>
      <use xlink:href="#ArialMT-3" transform="translate(55.609375 0)"/>
      <use xlink:href="#ArialMT-4b" transform="translate(83.390625 0)"/>
     </g>
    </g>
    <g id="line2d_23">
     <path d="M 513.212012 81.228809 
L 523.212012 81.228809 
L 533.212012 81.228809 
" style="fill: none; stroke: #d62728; stroke-width: 2.5; stroke-linecap: square"/>
    </g>
    <g id="text_21">
     <!-- 24 h -->
     <g transform="translate(541.212012 84.728809) scale(0.1 -0.1)">
      <use xlink:href="#ArialMT-15"/>
      <use xlink:href="#ArialMT-17" transform="translate(55.609375 0)"/>
      <use xlink:href="#ArialMT-3" transform="translate(111.21875 0)"/>
      <use xlink:href="#ArialMT-4b" transform="translate(139 0)"/>
     </g>
    </g>
    <g id="line2d_24">
     <path d="M 513.212012 95.613574 
L 523.212012 95.613574 
L 533.212012 95.613574 
" style="fill: none; stroke: #ff7f0e; stroke-width: 2.5; stroke-linecap: square"/>
    </g>
    <g id="text_22">
     <!-- 7 d -->
     <g transform="translate(541.212012 99.113574) scale(0.1 -0.1)">
      <defs>
       <path id="ArialMT-47" d="M 2575 0 
L 2575 419 
Q 2259 -75 1647 -75 
Q 1250 -75 917 144 
Q 584 363 401 755 
Q 219 1147 219 1656 
Q 219 2153 384 2558 
Q 550 2963 881 3178 
Q 1213 3394 1622 3394 
Q 1922 3394 2156 3267 
Q 2391 3141 2538 2938 
L 2538 4581 
L 3097 4581 
L 3097 0 
L 2575 0 
z
M 797 1656 
Q 797 1019 1065 703 
Q 1334 388 1700 388 
Q 2069 388 2326 689 
Q 2584 991 2584 1609 
Q 2584 2291 2321 2609 
Q 2059 2928 1675 2928 
Q 1300 2928 1048 2622 
Q 797 2316 797 1656 
z
" transform="scale(0.015625)"/>
      </defs>
      <use xlink:href="#ArialMT-1a"/>
      <use xlink:href="#ArialMT-3" transform="translate(55.609375 0)"/>
      <use xlink:href="#ArialMT-47" transform="translate(83.390625 0)"/>
     </g>
    </g>
    <g id="line2d_25">
     <path d="M 513.212012 109.99834 
L 523.212012 109.99834 
L 533.212012 109.99834 
" style="fill: none; stroke: #9467bd; stroke-width: 2.5; stroke-linecap: square"/>
    </g>
    <g id="text_23">
     <!-- 14 d -->
     <g transform="translate(541.212012 113.49834) scale(0.1 -0.1)">
      <use xlink:href="#ArialMT-14"/>
      <use xlink:href="#ArialMT-17" transform="translate(55.609375 0)"/>
      <use xlink:href="#ArialMT-3" transform="translate(111.21875 0)"/>
      <use xlink:href="#ArialMT-47" transform="translate(139 0)"/>
     </g>
    </g>
    <g id="line2d_26">
     <path d="M 513.212012 124.383105 
L 523.212012 124.383105 
L 533.212012 124.383105 
" style="fill: none; stroke: #2ca02c; stroke-width: 2.5; stroke-linecap: square"/>
    </g>
    <g id="text_24">
     <!-- 28 d -->
     <g transform="translate(541.212012 127.883105) scale(0.1 -0.1)">
      <use xlink:href="#ArialMT-15"/>
      <use xlink:href="#ArialMT-1b" transform="translate(55.609375 0)"/>
      <use xlink:href="#ArialMT-3" transform="translate(111.21875 0)"/>
      <use xlink:href="#ArialMT-47" transform="translate(139 0)"/>
     </g>
    </g>
   </g>
  </g>
 </g>
 <defs>
  <clipPath id="pa3f9c64467">
   <rect x="55.084258" y="39.679004" width="440.321328" height="263.503652"/>
  </clipPath>
 </defs>
</svg>
