<?xml version="1.0" encoding="utf-8" standalone="no"?>
<!DOCTYPE svg PUBLIC "-//W3C//DTD SVG 1.1//EN"
  "http://www.w3.org/Graphics/SVG/1.1/DTD/svg11.dtd">
<svg xmlns:xlink="http://www.w3.org/1999/xlink" width="571.022837pt" height="344.160273pt" viewBox="0 0 571.022837 344.160273" xmlns="http://www.w3.org/2000/svg" version="1.1">
 <metadata>
  <rdf:RDF xmlns:dc="http://purl.org/dc/elements/1.1/" xmlns:cc="http://creativecommons.org/ns#" xmlns:rdf="http://www.w3.org/1999/02/22-rdf-syntax-ns#">
   <cc:Work>
    <dc:type rdf:resource="http://purl.org/dc/dcmitype/StillImage"/>
    <dc:date>2026-07-10T11:48:44.599348</dc:date>
    <dc:format>image/svg+xml</dc:format>
    <dc:creator>
     <cc:Agent>
      <dc:title>Matplotlib v3.11.0, https://matplotlib.org/</dc:title>
     </cc:Agent>
    </dc:creator>
   </cc:Work>
  </rdf:RDF>
 </metadata>
 <defs>
  <style type="text/css">*{stroke-linejoin: round; stroke-linecap: butt}</style>
 </defs>
 <g id="figure_1">
  <g id="patch_1">
   <path d="M 0 344.160273 
L 571.022837 344.160273 
L 571.022837 0 
L 0 0 
z
" style="fill: #ffffff"/>
  </g>
  <g id="axes_1">
   <g id="patch_2">
    <path d="M 60.598945 303.182656 
L 494.680273 303.182656 
L 494.680273 39.679004 
L 60.598945 39.679004 
z
" style="fill: #ffffff"/>
   </g>
   <g id="matplotlib.axis_1">
    <g id="xtick_1">
     <g id="line2d_1">
      <defs>
       <path id="m869a50dd7f" d="M 0 0 
L 0 -6 
" style="stroke: #000000; stroke-width: 0.8"/>
      </defs>
      <g>
       <use xlink:href="#m869a50dd7f" x="117.218249" y="303.182656" style="stroke: #000000; stroke-width: 0.8"/>
      </g>
     </g>
     <g id="text_1">
      <!-- 200 -->
      <g transform="translate(105.54028 316.875039) scale(0.14 -0.14)">
       <defs>
        <path id="ArialMT-15" d="M 3222 541 
L 3222 0 
L 194 0 
Q 188 203 259 391 
Q 375 700 629 1000 
Q 884 1300 1366 1694 
Q 2113 2306 2375 2664 
Q 2638 3022 2638 3341 
Q 2638 3675 2398 3904 
Q 2159 4134 1775 4134 
Q 1369 4134 1125 3890 
Q 881 3647 878 3216 
L 300 3275 
Q 359 3922 746 4261 
Q 1134 4600 1788 4600 
Q 2447 4600 2831 4234 
Q 3216 3869 3216 3328 
Q 3216 3053 3103 2787 
Q 2991 2522 2730 2228 
Q 2469 1934 1863 1422 
Q 1356 997 1212 845 
Q 1069 694 975 541 
L 3222 541 
z
" transform="scale(0.015625)"/>
        <path id="ArialMT-13" d="M 266 2259 
Q 266 3072 433 3567 
Q 600 4063 929 4331 
Q 1259 4600 1759 4600 
Q 2128 4600 2406 4451 
Q 2684 4303 2865 4023 
Q 3047 3744 3150 3342 
Q 3253 2941 3253 2259 
Q 3253 1453 3087 958 
Q 2922 463 2592 192 
Q 2263 -78 1759 -78 
Q 1097 -78 719 397 
Q 266 969 266 2259 
z
M 844 2259 
Q 844 1131 1108 757 
Q 1372 384 1759 384 
Q 2147 384 2411 759 
Q 2675 1134 2675 2259 
Q 2675 3391 2411 3762 
Q 2147 4134 1753 4134 
Q 1366 4134 1134 3806 
Q 844 3388 844 2259 
z
" transform="scale(0.015625)"/>
       </defs>
       <use xlink:href="#ArialMT-15"/>
       <use xlink:href="#ArialMT-13" transform="translate(55.609375 0)"/>
       <use xlink:href="#ArialMT-13" transform="translate(111.21875 0)"/>
      </g>
     </g>
    </g>
    <g id="xtick_2">
     <g id="line2d_2">
      <g>
       <use xlink:href="#m869a50dd7f" x="192.710654" y="303.182656" style="stroke: #000000; stroke-width: 0.8"/>
      </g>
     </g>
     <g id="text_2">
      <!-- 400 -->
      <g transform="translate(181.032685 316.875039) scale(0.14 -0.14)">
       <defs>
        <path id="ArialMT-17" d="M 2069 0 
L 2069 1097 
L 81 1097 
L 81 1613 
L 2172 4581 
L 2631 4581 
L 2631 1613 
L 3250 1613 
L 3250 1097 
L 2631 1097 
L 2631 0 
L 2069 0 
z
M 2069 1613 
L 2069 3678 
L 634 1613 
L 2069 1613 
z
" transform="scale(0.015625)"/>
       </defs>
       <use xlink:href="#ArialMT-17"/>
       <use xlink:href="#ArialMT-13" transform="translate(55.609375 0)"/>
       <use xlink:href="#ArialMT-13" transform="translate(111.21875 0)"/>
      </g>
     </g>
    </g>
    <g id="xtick_3">
     <g id="line2d_3">
      <g>
       <use xlink:href="#m869a50dd7f" x="268.203059" y="303.182656" style="stroke: #000000; stroke-width: 0.8"/>
      </g>
     </g>
     <g id="text_3">
      <!-- 600 -->
      <g transform="translate(256.52509 316.875039) scale(0.14 -0.14)">
       <defs>
        <path id="ArialMT-19" d="M 3184 3459 
L 2625 3416 
Q 2550 3747 2413 3897 
Q 2184 4138 1850 4138 
Q 1581 4138 1378 3988 
Q 1113 3794 959 3422 
Q 806 3050 800 2363 
Q 1003 2672 1297 2822 
Q 1591 2972 1913 2972 
Q 2475 2972 2870 2558 
Q 3266 2144 3266 1488 
Q 3266 1056 3080 686 
Q 2894 316 2569 119 
Q 2244 -78 1831 -78 
Q 1128 -78 684 439 
Q 241 956 241 2144 
Q 241 3472 731 4075 
Q 1159 4600 1884 4600 
Q 2425 4600 2770 4297 
Q 3116 3994 3184 3459 
z
M 888 1484 
Q 888 1194 1011 928 
Q 1134 663 1356 523 
Q 1578 384 1822 384 
Q 2178 384 2434 671 
Q 2691 959 2691 1453 
Q 2691 1928 2437 2201 
Q 2184 2475 1800 2475 
Q 1419 2475 1153 2201 
Q 888 1928 888 1484 
z
" transform="scale(0.015625)"/>
       </defs>
       <use xlink:href="#ArialMT-19"/>
       <use xlink:href="#ArialMT-13" transform="translate(55.609375 0)"/>
       <use xlink:href="#ArialMT-13" transform="translate(111.21875 0)"/>
      </g>
     </g>
    </g>
    <g id="xtick_4">
     <g id="line2d_4">
      <g>
       <use xlink:href="#m869a50dd7f" x="343.695464" y="303.182656" style="stroke: #000000; stroke-width: 0.8"/>
      </g>
     </g>
     <g id="text_4">
      <!-- 800 -->
      <g transform="translate(332.017495 316.875039) scale(0.14 -0.14)">
       <defs>
        <path id="ArialMT-1b" d="M 1131 2484 
Q 781 2613 612 2850 
Q 444 3088 444 3419 
Q 444 3919 803 4259 
Q 1163 4600 1759 4600 
Q 2359 4600 2725 4251 
Q 3091 3903 3091 3403 
Q 3091 3084 2923 2848 
Q 2756 2613 2416 2484 
Q 2838 2347 3058 2040 
Q 3278 1734 3278 1309 
Q 3278 722 2862 322 
Q 2447 -78 1769 -78 
Q 1091 -78 675 323 
Q 259 725 259 1325 
Q 259 1772 486 2073 
Q 713 2375 1131 2484 
z
M 1019 3438 
Q 1019 3113 1228 2906 
Q 1438 2700 1772 2700 
Q 2097 2700 2305 2904 
Q 2513 3109 2513 3406 
Q 2513 3716 2298 3927 
Q 2084 4138 1766 4138 
Q 1444 4138 1231 3931 
Q 1019 3725 1019 3438 
z
M 838 1322 
Q 838 1081 952 856 
Q 1066 631 1291 507 
Q 1516 384 1775 384 
Q 2178 384 2440 643 
Q 2703 903 2703 1303 
Q 2703 1709 2433 1975 
Q 2163 2241 1756 2241 
Q 1359 2241 1098 1978 
Q 838 1716 838 1322 
z
" transform="scale(0.015625)"/>
       </defs>
       <use xlink:href="#ArialMT-1b"/>
       <use xlink:href="#ArialMT-13" transform="translate(55.609375 0)"/>
       <use xlink:href="#ArialMT-13" transform="translate(111.21875 0)"/>
      </g>
     </g>
    </g>
    <g id="xtick_5">
     <g id="line2d_5">
      <g>
       <use xlink:href="#m869a50dd7f" x="419.187869" y="303.182656" style="stroke: #000000; stroke-width: 0.8"/>
      </g>
     </g>
     <g id="text_5">
      <!-- 1000 -->
      <g transform="translate(403.617244 316.875039) scale(0.14 -0.14)">
       <defs>
        <path id="ArialMT-14" d="M 2384 0 
L 1822 0 
L 1822 3584 
Q 1619 3391 1289 3197 
Q 959 3003 697 2906 
L 697 3450 
Q 1169 3672 1522 3987 
Q 1875 4303 2022 4600 
L 2384 4600 
L 2384 0 
z
" transform="scale(0.015625)"/>
       </defs>
       <use xlink:href="#ArialMT-14"/>
       <use xlink:href="#ArialMT-13" transform="translate(55.609375 0)"/>
       <use xlink:href="#ArialMT-13" transform="translate(111.21875 0)"/>
       <use xlink:href="#ArialMT-13" transform="translate(166.828125 0)"/>
      </g>
     </g>
    </g>
    <g id="xtick_6">
     <g id="line2d_6">
      <g>
       <use xlink:href="#m869a50dd7f" x="494.680273" y="303.182656" style="stroke: #000000; stroke-width: 0.8"/>
      </g>
     </g>
     <g id="text_6">
      <!-- 1200 -->
      <g transform="translate(479.109648 316.875039) scale(0.14 -0.14)">
       <use xlink:href="#ArialMT-14"/>
       <use xlink:href="#ArialMT-15" transform="translate(55.609375 0)"/>
       <use xlink:href="#ArialMT-13" transform="translate(111.21875 0)"/>
       <use xlink:href="#ArialMT-13" transform="translate(166.828125 0)"/>
      </g>
     </g>
    </g>
    <g id="xtick_7">
     <g id="line2d_7">
      <defs>
       <path id="m227d3c7cdc" d="M 0 0 
L 0 -3 
" style="stroke: #000000; stroke-width: 0.6"/>
      </defs>
      <g>
       <use xlink:href="#m227d3c7cdc" x="60.598945" y="303.182656" style="stroke: #000000; stroke-width: 0.6"/>
      </g>
     </g>
    </g>
    <g id="xtick_8">
     <g id="line2d_8">
      <g>
       <use xlink:href="#m227d3c7cdc" x="79.472047" y="303.182656" style="stroke: #000000; stroke-width: 0.6"/>
      </g>
     </g>
    </g>
    <g id="xtick_9">
     <g id="line2d_9">
      <g>
       <use xlink:href="#m227d3c7cdc" x="98.345148" y="303.182656" style="stroke: #000000; stroke-width: 0.6"/>
      </g>
     </g>
    </g>
    <g id="xtick_10">
     <g id="line2d_10">
      <g>
       <use xlink:href="#m227d3c7cdc" x="136.09135" y="303.182656" style="stroke: #000000; stroke-width: 0.6"/>
      </g>
     </g>
    </g>
    <g id="xtick_11">
     <g id="line2d_11">
      <g>
       <use xlink:href="#m227d3c7cdc" x="154.964451" y="303.182656" style="stroke: #000000; stroke-width: 0.6"/>
      </g>
     </g>
    </g>
    <g id="xtick_12">
     <g id="line2d_12">
      <g>
       <use xlink:href="#m227d3c7cdc" x="173.837553" y="303.182656" style="stroke: #000000; stroke-width: 0.6"/>
      </g>
     </g>
    </g>
    <g id="xtick_13">
     <g id="line2d_13">
      <g>
       <use xlink:href="#m227d3c7cdc" x="211.583755" y="303.182656" style="stroke: #000000; stroke-width: 0.6"/>
      </g>
     </g>
    </g>
    <g id="xtick_14">
     <g id="line2d_14">
      <g>
       <use xlink:href="#m227d3c7cdc" x="230.456856" y="303.182656" style="stroke: #000000; stroke-width: 0.6"/>
      </g>
     </g>
    </g>
    <g id="xtick_15">
     <g id="line2d_15">
      <g>
       <use xlink:href="#m227d3c7cdc" x="249.329958" y="303.182656" style="stroke: #000000; stroke-width: 0.6"/>
      </g>
     </g>
    </g>
    <g id="xtick_16">
     <g id="line2d_16">
      <g>
       <use xlink:href="#m227d3c7cdc" x="287.07616" y="303.182656" style="stroke: #000000; stroke-width: 0.6"/>
      </g>
     </g>
    </g>
    <g id="xtick_17">
     <g id="line2d_17">
      <g>
       <use xlink:href="#m227d3c7cdc" x="305.949261" y="303.182656" style="stroke: #000000; stroke-width: 0.6"/>
      </g>
     </g>
    </g>
    <g id="xtick_18">
     <g id="line2d_18">
      <g>
       <use xlink:href="#m227d3c7cdc" x="324.822362" y="303.182656" style="stroke: #000000; stroke-width: 0.6"/>
      </g>
     </g>
    </g>
    <g id="xtick_19">
     <g id="line2d_19">
      <g>
       <use xlink:href="#m227d3c7cdc" x="362.568565" y="303.182656" style="stroke: #000000; stroke-width: 0.6"/>
      </g>
     </g>
    </g>
    <g id="xtick_20">
     <g id="line2d_20">
      <g>
       <use xlink:href="#m227d3c7cdc" x="381.441666" y="303.182656" style="stroke: #000000; stroke-width: 0.6"/>
      </g>
     </g>
    </g>
    <g id="xtick_21">
     <g id="line2d_21">
      <g>
       <use xlink:href="#m227d3c7cdc" x="400.314767" y="303.182656" style="stroke: #000000; stroke-width: 0.6"/>
      </g>
     </g>
    </g>
    <g id="xtick_22">
     <g id="line2d_22">
      <g>
       <use xlink:href="#m227d3c7cdc" x="438.06097" y="303.182656" style="stroke: #000000; stroke-width: 0.6"/>
      </g>
     </g>
    </g>
    <g id="xtick_23">
     <g id="line2d_23">
      <g>
       <use xlink:href="#m227d3c7cdc" x="456.934071" y="303.182656" style="stroke: #000000; stroke-width: 0.6"/>
      </g>
     </g>
    </g>
    <g id="xtick_24">
     <g id="line2d_24">
      <g>
       <use xlink:href="#m227d3c7cdc" x="475.807172" y="303.182656" style="stroke: #000000; stroke-width: 0.6"/>
      </g>
     </g>
    </g>
    <g id="text_7">
     <!-- T1 Temperature (°C) -->
     <g transform="translate(213.900234 334.013711) scale(0.14 -0.14)">
      <defs>
       <path id="ArialMT-37" d="M 1659 0 
L 1659 4041 
L 150 4041 
L 150 4581 
L 3781 4581 
L 3781 4041 
L 2266 4041 
L 2266 0 
L 1659 0 
z
" transform="scale(0.015625)"/>
       <path id="ArialMT-3" transform="scale(0.015625)"/>
       <path id="ArialMT-48" d="M 2694 1069 
L 3275 997 
Q 3138 488 2766 206 
Q 2394 -75 1816 -75 
Q 1088 -75 661 373 
Q 234 822 234 1631 
Q 234 2469 665 2931 
Q 1097 3394 1784 3394 
Q 2450 3394 2872 2941 
Q 3294 2488 3294 1666 
Q 3294 1616 3291 1516 
L 816 1516 
Q 847 969 1125 678 
Q 1403 388 1819 388 
Q 2128 388 2347 550 
Q 2566 713 2694 1069 
z
M 847 1978 
L 2700 1978 
Q 2663 2397 2488 2606 
Q 2219 2931 1791 2931 
Q 1403 2931 1139 2672 
Q 875 2413 847 1978 
z
" transform="scale(0.015625)"/>
       <path id="ArialMT-50" d="M 422 0 
L 422 3319 
L 925 3319 
L 925 2853 
Q 1081 3097 1340 3245 
Q 1600 3394 1931 3394 
Q 2300 3394 2536 3241 
Q 2772 3088 2869 2813 
Q 3263 3394 3894 3394 
Q 4388 3394 4653 3120 
Q 4919 2847 4919 2278 
L 4919 0 
L 4359 0 
L 4359 2091 
Q 4359 2428 4304 2576 
Q 4250 2725 4106 2815 
Q 3963 2906 3769 2906 
Q 3419 2906 3187 2673 
Q 2956 2441 2956 1928 
L 2956 0 
L 2394 0 
L 2394 2156 
Q 2394 2531 2256 2718 
Q 2119 2906 1806 2906 
Q 1569 2906 1367 2781 
Q 1166 2656 1075 2415 
Q 984 2175 984 1722 
L 984 0 
L 422 0 
z
" transform="scale(0.015625)"/>
       <path id="ArialMT-53" d="M 422 -1272 
L 422 3319 
L 934 3319 
L 934 2888 
Q 1116 3141 1344 3267 
Q 1572 3394 1897 3394 
Q 2322 3394 2647 3175 
Q 2972 2956 3137 2557 
Q 3303 2159 3303 1684 
Q 3303 1175 3120 767 
Q 2938 359 2589 142 
Q 2241 -75 1856 -75 
Q 1575 -75 1351 44 
Q 1128 163 984 344 
L 984 -1272 
L 422 -1272 
z
M 931 1641 
Q 931 1000 1190 694 
Q 1450 388 1819 388 
Q 2194 388 2461 705 
Q 2728 1022 2728 1688 
Q 2728 2322 2467 2637 
Q 2206 2953 1844 2953 
Q 1484 2953 1207 2617 
Q 931 2281 931 1641 
z
" transform="scale(0.015625)"/>
       <path id="ArialMT-55" d="M 416 0 
L 416 3319 
L 922 3319 
L 922 2816 
Q 1116 3169 1280 3281 
Q 1444 3394 1641 3394 
Q 1925 3394 2219 3213 
L 2025 2691 
Q 1819 2813 1613 2813 
Q 1428 2813 1281 2702 
Q 1134 2591 1072 2394 
Q 978 2094 978 1738 
L 978 0 
L 416 0 
z
" transform="scale(0.015625)"/>
       <path id="ArialMT-44" d="M 2588 409 
Q 2275 144 1986 34 
Q 1697 -75 1366 -75 
Q 819 -75 525 192 
Q 231 459 231 875 
Q 231 1119 342 1320 
Q 453 1522 633 1644 
Q 813 1766 1038 1828 
Q 1203 1872 1538 1913 
Q 2219 1994 2541 2106 
Q 2544 2222 2544 2253 
Q 2544 2597 2384 2738 
Q 2169 2928 1744 2928 
Q 1347 2928 1158 2789 
Q 969 2650 878 2297 
L 328 2372 
Q 403 2725 575 2942 
Q 747 3159 1072 3276 
Q 1397 3394 1825 3394 
Q 2250 3394 2515 3294 
Q 2781 3194 2906 3042 
Q 3031 2891 3081 2659 
Q 3109 2516 3109 2141 
L 3109 1391 
Q 3109 606 3145 398 
Q 3181 191 3288 0 
L 2700 0 
Q 2613 175 2588 409 
z
M 2541 1666 
Q 2234 1541 1622 1453 
Q 1275 1403 1131 1340 
Q 988 1278 909 1158 
Q 831 1038 831 891 
Q 831 666 1001 516 
Q 1172 366 1500 366 
Q 1825 366 2078 508 
Q 2331 650 2450 897 
Q 2541 1088 2541 1459 
L 2541 1666 
z
" transform="scale(0.015625)"/>
       <path id="ArialMT-57" d="M 1650 503 
L 1731 6 
Q 1494 -44 1306 -44 
Q 1000 -44 831 53 
Q 663 150 594 308 
Q 525 466 525 972 
L 525 2881 
L 113 2881 
L 113 3319 
L 525 3319 
L 525 4141 
L 1084 4478 
L 1084 3319 
L 1650 3319 
L 1650 2881 
L 1084 2881 
L 1084 941 
Q 1084 700 1114 631 
Q 1144 563 1211 522 
Q 1278 481 1403 481 
Q 1497 481 1650 503 
z
" transform="scale(0.015625)"/>
       <path id="ArialMT-58" d="M 2597 0 
L 2597 488 
Q 2209 -75 1544 -75 
Q 1250 -75 995 37 
Q 741 150 617 320 
Q 494 491 444 738 
Q 409 903 409 1263 
L 409 3319 
L 972 3319 
L 972 1478 
Q 972 1038 1006 884 
Q 1059 663 1231 536 
Q 1403 409 1656 409 
Q 1909 409 2131 539 
Q 2353 669 2445 892 
Q 2538 1116 2538 1541 
L 2538 3319 
L 3100 3319 
L 3100 0 
L 2597 0 
z
" transform="scale(0.015625)"/>
       <path id="ArialMT-b" d="M 1497 -1347 
Q 1031 -759 709 28 
Q 388 816 388 1659 
Q 388 2403 628 3084 
Q 909 3875 1497 4659 
L 1900 4659 
Q 1522 4009 1400 3731 
Q 1209 3300 1100 2831 
Q 966 2247 966 1656 
Q 966 153 1900 -1347 
L 1497 -1347 
z
" transform="scale(0.015625)"/>
       <path id="ArialMT-83" d="M 400 3794 
Q 400 4153 654 4406 
Q 909 4659 1266 4659 
Q 1628 4659 1881 4406 
Q 2134 4153 2134 3794 
Q 2134 3434 1879 3179 
Q 1625 2925 1266 2925 
Q 909 2925 654 3178 
Q 400 3431 400 3794 
z
M 741 3794 
Q 741 3575 895 3420 
Q 1050 3266 1269 3266 
Q 1484 3266 1639 3420 
Q 1794 3575 1794 3794 
Q 1794 4013 1639 4167 
Q 1484 4322 1269 4322 
Q 1050 4322 895 4167 
Q 741 4013 741 3794 
z
" transform="scale(0.015625)"/>
       <path id="ArialMT-26" d="M 3763 1606 
L 4369 1453 
Q 4178 706 3683 314 
Q 3188 -78 2472 -78 
Q 1731 -78 1267 223 
Q 803 525 561 1097 
Q 319 1669 319 2325 
Q 319 3041 592 3573 
Q 866 4106 1370 4382 
Q 1875 4659 2481 4659 
Q 3169 4659 3637 4309 
Q 4106 3959 4291 3325 
L 3694 3184 
Q 3534 3684 3231 3912 
Q 2928 4141 2469 4141 
Q 1941 4141 1586 3887 
Q 1231 3634 1087 3207 
Q 944 2781 944 2328 
Q 944 1744 1114 1308 
Q 1284 872 1643 656 
Q 2003 441 2422 441 
Q 2931 441 3284 734 
Q 3638 1028 3763 1606 
z
" transform="scale(0.015625)"/>
       <path id="ArialMT-c" d="M 791 -1347 
L 388 -1347 
Q 1322 153 1322 1656 
Q 1322 2244 1188 2822 
Q 1081 3291 891 3722 
Q 769 4003 388 4659 
L 791 4659 
Q 1378 3875 1659 3084 
Q 1900 2403 1900 1659 
Q 1900 816 1576 28 
Q 1253 -759 791 -1347 
z
" transform="scale(0.015625)"/>
      </defs>
      <use xlink:href="#ArialMT-37"/>
      <use xlink:href="#ArialMT-14" transform="translate(61.078125 0)"/>
      <use xlink:href="#ArialMT-3" transform="translate(116.6875 0)"/>
      <use xlink:href="#ArialMT-37" transform="translate(142.65625 0)"/>
      <use xlink:href="#ArialMT-48" transform="translate(192.65625 0)"/>
      <use xlink:href="#ArialMT-50" transform="translate(248.265625 0)"/>
      <use xlink:href="#ArialMT-53" transform="translate(331.5625 0)"/>
      <use xlink:href="#ArialMT-48" transform="translate(387.171875 0)"/>
      <use xlink:href="#ArialMT-55" transform="translate(442.78125 0)"/>
      <use xlink:href="#ArialMT-44" transform="translate(476.078125 0)"/>
      <use xlink:href="#ArialMT-57" transform="translate(531.6875 0)"/>
      <use xlink:href="#ArialMT-58" transform="translate(559.46875 0)"/>
      <use xlink:href="#ArialMT-55" transform="translate(615.078125 0)"/>
      <use xlink:href="#ArialMT-48" transform="translate(648.375 0)"/>
      <use xlink:href="#ArialMT-3" transform="translate(703.984375 0)"/>
      <use xlink:href="#ArialMT-b" transform="translate(731.765625 0)"/>
      <use xlink:href="#ArialMT-83" transform="translate(765.0625 0)"/>
      <use xlink:href="#ArialMT-26" transform="translate(805.046875 0)"/>
      <use xlink:href="#ArialMT-c" transform="translate(877.265625 0)"/>
     </g>
    </g>
   </g>
   <g id="matplotlib.axis_2">
    <g id="ytick_1">
     <g id="line2d_25">
      <defs>
       <path id="mb9b05628d7" d="M 0 0 
L 6 0 
" style="stroke: #000000; stroke-width: 0.8"/>
      </defs>
      <g>
       <use xlink:href="#mb9b05628d7" x="60.598945" y="235.674132" style="stroke: #000000; stroke-width: 0.8"/>
      </g>
     </g>
     <g id="text_8">
      <!-- $\mathdefault{10^{-13}}$ -->
      <g transform="translate(24.338945 242.114132) scale(0.14 -0.14)">
       <defs>
        <path id="ArialMT-ed" d="M 3381 1997 
L 356 1997 
L 356 2522 
L 3381 2522 
L 3381 1997 
z
" transform="scale(0.015625)"/>
        <path id="ArialMT-16" d="M 269 1209 
L 831 1284 
Q 928 806 1161 595 
Q 1394 384 1728 384 
Q 2125 384 2398 659 
Q 2672 934 2672 1341 
Q 2672 1728 2419 1979 
Q 2166 2231 1775 2231 
Q 1616 2231 1378 2169 
L 1441 2663 
Q 1497 2656 1531 2656 
Q 1891 2656 2178 2843 
Q 2466 3031 2466 3422 
Q 2466 3731 2256 3934 
Q 2047 4138 1716 4138 
Q 1388 4138 1169 3931 
Q 950 3725 888 3313 
L 325 3413 
Q 428 3978 793 4289 
Q 1159 4600 1703 4600 
Q 2078 4600 2393 4439 
Q 2709 4278 2876 4000 
Q 3044 3722 3044 3409 
Q 3044 3113 2884 2869 
Q 2725 2625 2413 2481 
Q 2819 2388 3044 2092 
Q 3269 1797 3269 1353 
Q 3269 753 2831 336 
Q 2394 -81 1725 -81 
Q 1122 -81 723 278 
Q 325 638 269 1209 
z
" transform="scale(0.015625)"/>
       </defs>
       <use xlink:href="#ArialMT-14" transform="translate(0 0.3875)"/>
       <use xlink:href="#ArialMT-13" transform="translate(55.615234 0.3875)"/>
       <use xlink:href="#ArialMT-ed" transform="translate(112.1875 41.6875) scale(0.7)"/>
       <use xlink:href="#ArialMT-14" transform="translate(153.066406 41.6875) scale(0.7)"/>
       <use xlink:href="#ArialMT-16" transform="translate(191.99707 41.6875) scale(0.7)"/>
      </g>
     </g>
    </g>
    <g id="ytick_2">
     <g id="line2d_26">
      <g>
       <use xlink:href="#mb9b05628d7" x="60.598945" y="162.392876" style="stroke: #000000; stroke-width: 0.8"/>
      </g>
     </g>
     <g id="text_9">
      <!-- $\mathdefault{10^{-12}}$ -->
      <g transform="translate(24.338945 168.832876) scale(0.14 -0.14)">
       <use xlink:href="#ArialMT-14" transform="translate(0 0.3875)"/>
       <use xlink:href="#ArialMT-13" transform="translate(55.615234 0.3875)"/>
       <use xlink:href="#ArialMT-ed" transform="translate(112.1875 41.6875) scale(0.7)"/>
       <use xlink:href="#ArialMT-14" transform="translate(153.066406 41.6875) scale(0.7)"/>
       <use xlink:href="#ArialMT-15" transform="translate(191.99707 41.6875) scale(0.7)"/>
      </g>
     </g>
    </g>
    <g id="ytick_3">
     <g id="line2d_27">
      <g>
       <use xlink:href="#mb9b05628d7" x="60.598945" y="89.11162" style="stroke: #000000; stroke-width: 0.8"/>
      </g>
     </g>
     <g id="text_10">
      <!-- $\mathdefault{10^{-11}}$ -->
      <g transform="translate(25.038945 95.55162) scale(0.14 -0.14)">
       <use xlink:href="#ArialMT-14" transform="translate(0 0.3875)"/>
       <use xlink:href="#ArialMT-13" transform="translate(55.615234 0.3875)"/>
       <use xlink:href="#ArialMT-ed" transform="translate(112.1875 41.6875) scale(0.7)"/>
       <use xlink:href="#ArialMT-14" transform="translate(153.066406 41.6875) scale(0.7)"/>
       <use xlink:href="#ArialMT-14" transform="translate(187.09707 41.6875) scale(0.7)"/>
      </g>
     </g>
    </g>
    <g id="ytick_4">
     <g id="line2d_28">
      <defs>
       <path id="mb85ec3026b" d="M 0 0 
L 3 0 
" style="stroke: #000000; stroke-width: 0.6"/>
      </defs>
      <g>
       <use xlink:href="#mb85ec3026b" x="60.598945" y="286.895532" style="stroke: #000000; stroke-width: 0.6"/>
      </g>
     </g>
    </g>
    <g id="ytick_5">
     <g id="line2d_29">
      <g>
       <use xlink:href="#mb85ec3026b" x="60.598945" y="273.991343" style="stroke: #000000; stroke-width: 0.6"/>
      </g>
     </g>
    </g>
    <g id="ytick_6">
     <g id="line2d_30">
      <g>
       <use xlink:href="#mb85ec3026b" x="60.598945" y="264.835676" style="stroke: #000000; stroke-width: 0.6"/>
      </g>
     </g>
    </g>
    <g id="ytick_7">
     <g id="line2d_31">
      <g>
       <use xlink:href="#mb85ec3026b" x="60.598945" y="257.733988" style="stroke: #000000; stroke-width: 0.6"/>
      </g>
     </g>
    </g>
    <g id="ytick_8">
     <g id="line2d_32">
      <g>
       <use xlink:href="#mb85ec3026b" x="60.598945" y="251.931487" style="stroke: #000000; stroke-width: 0.6"/>
      </g>
     </g>
    </g>
    <g id="ytick_9">
     <g id="line2d_33">
      <g>
       <use xlink:href="#mb85ec3026b" x="60.598945" y="247.025542" style="stroke: #000000; stroke-width: 0.6"/>
      </g>
     </g>
    </g>
    <g id="ytick_10">
     <g id="line2d_34">
      <g>
       <use xlink:href="#mb85ec3026b" x="60.598945" y="242.775819" style="stroke: #000000; stroke-width: 0.6"/>
      </g>
     </g>
    </g>
    <g id="ytick_11">
     <g id="line2d_35">
      <g>
       <use xlink:href="#mb85ec3026b" x="60.598945" y="239.027298" style="stroke: #000000; stroke-width: 0.6"/>
      </g>
     </g>
    </g>
    <g id="ytick_12">
     <g id="line2d_36">
      <g>
       <use xlink:href="#mb85ec3026b" x="60.598945" y="213.614276" style="stroke: #000000; stroke-width: 0.6"/>
      </g>
     </g>
    </g>
    <g id="ytick_13">
     <g id="line2d_37">
      <g>
       <use xlink:href="#mb85ec3026b" x="60.598945" y="200.710087" style="stroke: #000000; stroke-width: 0.6"/>
      </g>
     </g>
    </g>
    <g id="ytick_14">
     <g id="line2d_38">
      <g>
       <use xlink:href="#mb85ec3026b" x="60.598945" y="191.554419" style="stroke: #000000; stroke-width: 0.6"/>
      </g>
     </g>
    </g>
    <g id="ytick_15">
     <g id="line2d_39">
      <g>
       <use xlink:href="#mb85ec3026b" x="60.598945" y="184.452732" style="stroke: #000000; stroke-width: 0.6"/>
      </g>
     </g>
    </g>
    <g id="ytick_16">
     <g id="line2d_40">
      <g>
       <use xlink:href="#mb85ec3026b" x="60.598945" y="178.650231" style="stroke: #000000; stroke-width: 0.6"/>
      </g>
     </g>
    </g>
    <g id="ytick_17">
     <g id="line2d_41">
      <g>
       <use xlink:href="#mb85ec3026b" x="60.598945" y="173.744286" style="stroke: #000000; stroke-width: 0.6"/>
      </g>
     </g>
    </g>
    <g id="ytick_18">
     <g id="line2d_42">
      <g>
       <use xlink:href="#mb85ec3026b" x="60.598945" y="169.494563" style="stroke: #000000; stroke-width: 0.6"/>
      </g>
     </g>
    </g>
    <g id="ytick_19">
     <g id="line2d_43">
      <g>
       <use xlink:href="#mb85ec3026b" x="60.598945" y="165.746042" style="stroke: #000000; stroke-width: 0.6"/>
      </g>
     </g>
    </g>
    <g id="ytick_20">
     <g id="line2d_44">
      <g>
       <use xlink:href="#mb85ec3026b" x="60.598945" y="140.333019" style="stroke: #000000; stroke-width: 0.6"/>
      </g>
     </g>
    </g>
    <g id="ytick_21">
     <g id="line2d_45">
      <g>
       <use xlink:href="#mb85ec3026b" x="60.598945" y="127.428831" style="stroke: #000000; stroke-width: 0.6"/>
      </g>
     </g>
    </g>
    <g id="ytick_22">
     <g id="line2d_46">
      <g>
       <use xlink:href="#mb85ec3026b" x="60.598945" y="118.273163" style="stroke: #000000; stroke-width: 0.6"/>
      </g>
     </g>
    </g>
    <g id="ytick_23">
     <g id="line2d_47">
      <g>
       <use xlink:href="#mb85ec3026b" x="60.598945" y="111.171476" style="stroke: #000000; stroke-width: 0.6"/>
      </g>
     </g>
    </g>
    <g id="ytick_24">
     <g id="line2d_48">
      <g>
       <use xlink:href="#mb85ec3026b" x="60.598945" y="105.368975" style="stroke: #000000; stroke-width: 0.6"/>
      </g>
     </g>
    </g>
    <g id="ytick_25">
     <g id="line2d_49">
      <g>
       <use xlink:href="#mb85ec3026b" x="60.598945" y="100.46303" style="stroke: #000000; stroke-width: 0.6"/>
      </g>
     </g>
    </g>
    <g id="ytick_26">
     <g id="line2d_50">
      <g>
       <use xlink:href="#mb85ec3026b" x="60.598945" y="96.213307" style="stroke: #000000; stroke-width: 0.6"/>
      </g>
     </g>
    </g>
    <g id="ytick_27">
     <g id="line2d_51">
      <g>
       <use xlink:href="#mb85ec3026b" x="60.598945" y="92.464786" style="stroke: #000000; stroke-width: 0.6"/>
      </g>
     </g>
    </g>
    <g id="ytick_28">
     <g id="line2d_52">
      <g>
       <use xlink:href="#mb85ec3026b" x="60.598945" y="67.051763" style="stroke: #000000; stroke-width: 0.6"/>
      </g>
     </g>
    </g>
    <g id="ytick_29">
     <g id="line2d_53">
      <g>
       <use xlink:href="#mb85ec3026b" x="60.598945" y="54.147575" style="stroke: #000000; stroke-width: 0.6"/>
      </g>
     </g>
    </g>
    <g id="ytick_30">
     <g id="line2d_54">
      <g>
       <use xlink:href="#mb85ec3026b" x="60.598945" y="44.991907" style="stroke: #000000; stroke-width: 0.6"/>
      </g>
     </g>
    </g>
    <g id="text_11">
     <!-- Ion Current (m/z 17) -->
     <g transform="translate(17.392383 234.056768) rotate(-90) scale(0.14 -0.14)">
      <defs>
       <path id="ArialMT-2c" d="M 597 0 
L 597 4581 
L 1203 4581 
L 1203 0 
L 597 0 
z
" transform="scale(0.015625)"/>
       <path id="ArialMT-52" d="M 213 1659 
Q 213 2581 725 3025 
Q 1153 3394 1769 3394 
Q 2453 3394 2887 2945 
Q 3322 2497 3322 1706 
Q 3322 1066 3130 698 
Q 2938 331 2570 128 
Q 2203 -75 1769 -75 
Q 1072 -75 642 372 
Q 213 819 213 1659 
z
M 791 1659 
Q 791 1022 1069 705 
Q 1347 388 1769 388 
Q 2188 388 2466 706 
Q 2744 1025 2744 1678 
Q 2744 2294 2464 2611 
Q 2184 2928 1769 2928 
Q 1347 2928 1069 2612 
Q 791 2297 791 1659 
z
" transform="scale(0.015625)"/>
       <path id="ArialMT-51" d="M 422 0 
L 422 3319 
L 928 3319 
L 928 2847 
Q 1294 3394 1984 3394 
Q 2284 3394 2536 3286 
Q 2788 3178 2913 3003 
Q 3038 2828 3088 2588 
Q 3119 2431 3119 2041 
L 3119 0 
L 2556 0 
L 2556 2019 
Q 2556 2363 2490 2533 
Q 2425 2703 2258 2804 
Q 2091 2906 1866 2906 
Q 1506 2906 1245 2678 
Q 984 2450 984 1813 
L 984 0 
L 422 0 
z
" transform="scale(0.015625)"/>
       <path id="ArialMT-12" d="M 0 -78 
L 1328 4659 
L 1778 4659 
L 453 -78 
L 0 -78 
z
" transform="scale(0.015625)"/>
       <path id="ArialMT-5d" d="M 125 0 
L 125 456 
L 2238 2881 
Q 1878 2863 1603 2863 
L 250 2863 
L 250 3319 
L 2963 3319 
L 2963 2947 
L 1166 841 
L 819 456 
Q 1197 484 1528 484 
L 3063 484 
L 3063 0 
L 125 0 
z
" transform="scale(0.015625)"/>
       <path id="ArialMT-1a" d="M 303 3981 
L 303 4522 
L 3269 4522 
L 3269 4084 
Q 2831 3619 2401 2847 
Q 1972 2075 1738 1259 
Q 1569 684 1522 0 
L 944 0 
Q 953 541 1156 1306 
Q 1359 2072 1739 2783 
Q 2119 3494 2547 3981 
L 303 3981 
z
" transform="scale(0.015625)"/>
      </defs>
      <use xlink:href="#ArialMT-2c"/>
      <use xlink:href="#ArialMT-52" transform="translate(27.78125 0)"/>
      <use xlink:href="#ArialMT-51" transform="translate(83.390625 0)"/>
      <use xlink:href="#ArialMT-3" transform="translate(139 0)"/>
      <use xlink:href="#ArialMT-26" transform="translate(166.78125 0)"/>
      <use xlink:href="#ArialMT-58" transform="translate(239 0)"/>
      <use xlink:href="#ArialMT-55" transform="translate(294.609375 0)"/>
      <use xlink:href="#ArialMT-55" transform="translate(327.90625 0)"/>
      <use xlink:href="#ArialMT-48" transform="translate(361.203125 0)"/>
      <use xlink:href="#ArialMT-51" transform="translate(416.8125 0)"/>
      <use xlink:href="#ArialMT-57" transform="translate(472.421875 0)"/>
      <use xlink:href="#ArialMT-3" transform="translate(500.203125 0)"/>
      <use xlink:href="#ArialMT-b" transform="translate(527.984375 0)"/>
      <use xlink:href="#ArialMT-50" transform="translate(561.28125 0)"/>
      <use xlink:href="#ArialMT-12" transform="translate(644.578125 0)"/>
      <use xlink:href="#ArialMT-5d" transform="translate(672.359375 0)"/>
      <use xlink:href="#ArialMT-3" transform="translate(722.359375 0)"/>
      <use xlink:href="#ArialMT-14" transform="translate(750.140625 0)"/>
      <use xlink:href="#ArialMT-1a" transform="translate(805.75 0)"/>
      <use xlink:href="#ArialMT-c" transform="translate(861.359375 0)"/>
     </g>
    </g>
   </g>
   <g id="line2d_55">
    <path d="M 59.617544 239.509388 
L 59.542052 257.690661 
L 59.542052 256.264632 
L 59.806275 260.236311 
L 62.108793 252.946029 
L 64.298073 257.391114 
L 66.600592 262.545257 
L 68.714379 265.714338 
L 70.48845 260.805111 
L 71.960552 257.812082 
L 73.243923 254.542976 
L 74.376309 250.258483 
L 75.470949 252.37685 
L 76.527843 252.413976 
L 77.660229 249.476448 
L 78.754869 250.864585 
L 79.887255 250.972822 
L 81.095133 250.464353 
L 82.303012 252.25065 
L 83.473144 252.972663 
L 84.681022 245.03534 
L 85.888901 241.433189 
L 87.210018 247.819507 
L 88.531135 251.726881 
L 89.77676 245.895939 
L 91.022384 243.985273 
L 92.230263 240.166481 
L 93.438141 238.496729 
L 94.608274 238.184752 
L 95.778406 236.239332 
L 96.948538 234.893046 
L 98.080924 232.737529 
L 99.326549 237.38624 
L 100.534428 238.729929 
L 101.70456 233.462359 
L 102.874692 230.252093 
L 104.044824 229.411965 
L 105.214957 225.416453 
L 106.422835 222.674163 
L 107.592967 220.818395 
L 108.725353 219.631964 
L 109.85774 216.16614 
L 110.990126 216.260712 
L 112.198004 212.606799 
L 114.576015 207.651372 
L 115.783893 206.038244 
L 118.124158 197.496373 
L 119.29429 193.383721 
L 120.464422 190.075338 
L 121.672301 187.514309 
L 122.842433 183.996667 
L 124.050312 179.944382 
L 125.295936 176.497884 
L 127.673947 170.704816 
L 128.844079 168.63739 
L 130.014212 165.564339 
L 132.354476 158.97825 
L 133.524608 156.574492 
L 137.072751 147.338391 
L 138.318376 144.663699 
L 139.526255 142.543647 
L 140.696387 140.936058 
L 141.791027 138.823996 
L 144.131291 135.41893 
L 145.301424 134.023447 
L 146.471556 132.441557 
L 150.095191 126.314931 
L 151.227577 124.789492 
L 152.435456 123.497805 
L 153.605588 121.997825 
L 154.77572 121.098371 
L 156.021345 119.921708 
L 157.153731 118.648422 
L 160.626382 114.254873 
L 163.042139 111.601141 
L 165.42015 110.011284 
L 166.628028 109.537541 
L 167.79816 108.949 
L 169.006039 107.847258 
L 170.176171 106.520021 
L 171.270811 105.619693 
L 172.440943 104.452982 
L 174.818954 102.478397 
L 177.196965 100.639632 
L 179.499483 98.467971 
L 180.707361 97.056967 
L 184.255505 91.837043 
L 186.558023 87.482621 
L 188.97378 83.166274 
L 192.559669 76.291505 
L 193.767548 73.960102 
L 194.899934 72.06852 
L 196.183304 70.473305 
L 197.353437 69.225801 
L 198.523569 68.642305 
L 199.655955 68.281402 
L 200.788341 68.150745 
L 204.298738 68.31418 
L 205.506617 68.873488 
L 206.676749 69.671515 
L 209.05476 71.748221 
L 210.187146 73.155827 
L 212.565156 75.852062 
L 213.773035 76.78828 
L 214.905421 77.999266 
L 216.075553 79.083972 
L 217.283432 80.561204 
L 219.699189 83.114518 
L 220.793828 84.330742 
L 223.171839 87.818112 
L 225.512104 91.52159 
L 227.852368 96.035667 
L 229.022501 98.211908 
L 230.230379 99.920627 
L 233.70303 103.95713 
L 234.873162 104.948497 
L 236.005548 106.368513 
L 237.251173 107.476391 
L 239.591437 109.880244 
L 240.76157 111.040382 
L 241.931702 111.331963 
L 243.13958 110.210068 
L 244.271966 108.738219 
L 245.479845 106.681939 
L 246.649977 105.464022 
L 247.857856 105.666984 
L 248.990242 106.432353 
L 250.160374 108.417286 
L 251.330506 111.27995 
L 253.708517 117.466601 
L 254.840903 118.225696 
L 256.048782 118.813869 
L 257.218914 118.344531 
L 258.426792 118.638241 
L 261.974935 120.342992 
L 263.182814 120.609149 
L 265.523078 121.396621 
L 266.693211 121.353762 
L 267.901089 121.893584 
L 270.203607 122.31381 
L 271.335994 122.869421 
L 272.506126 122.767801 
L 273.751751 122.852943 
L 274.884137 122.71603 
L 276.092015 123.251691 
L 278.43228 123.295658 
L 279.564666 123.477224 
L 280.772544 123.799428 
L 281.942676 123.619183 
L 283.112809 123.115008 
L 284.282941 122.028638 
L 285.490819 121.120921 
L 287.831084 117.334814 
L 289.001216 115.809016 
L 290.209095 115.070957 
L 291.341481 115.171944 
L 292.511613 115.860188 
L 293.719492 116.759516 
L 294.889624 118.141541 
L 297.267635 121.816628 
L 298.400021 122.616544 
L 299.607899 123.062443 
L 300.740285 123.871852 
L 304.212936 125.695122 
L 305.496307 126.095292 
L 306.704185 126.150201 
L 307.94981 126.593805 
L 309.119942 127.173454 
L 312.743578 128.148604 
L 313.875964 128.49452 
L 315.046096 128.718663 
L 316.216228 129.391492 
L 317.348614 129.544089 
L 318.518747 129.826396 
L 319.651133 130.764552 
L 320.896757 131.111622 
L 322.06689 131.815422 
L 323.237022 132.810787 
L 325.615033 134.632824 
L 326.747419 134.939803 
L 329.049937 136.734588 
L 330.257816 137.750832 
L 331.427948 138.336128 
L 332.635826 138.803399 
L 333.768212 140.050171 
L 336.108477 142.109602 
L 337.316355 142.700858 
L 338.486488 142.836568 
L 339.618874 143.390915 
L 340.789006 143.600712 
L 341.996885 143.519444 
L 343.167017 143.165873 
L 344.337149 143.134508 
L 345.469535 143.819884 
L 346.71516 144.328476 
L 349.017678 146.105737 
L 351.395689 148.713759 
L 352.565821 149.131465 
L 353.7737 150.000181 
L 354.906086 150.55682 
L 356.076218 150.363469 
L 360.794493 152.629269 
L 361.964626 153.677362 
L 363.097012 153.879832 
L 364.30489 153.757377 
L 365.39953 153.866692 
L 367.815287 152.663057 
L 369.023165 153.112264 
L 370.117805 154.031626 
L 371.287938 153.935124 
L 373.703695 155.534571 
L 374.798334 155.658055 
L 375.930721 155.391013 
L 377.214091 155.320944 
L 378.308731 154.97956 
L 379.51661 154.426136 
L 380.913219 154.581545 
L 382.309829 155.276986 
L 383.517707 155.312648 
L 384.725586 155.635654 
L 385.857972 155.445611 
L 387.103596 154.960131 
L 388.311475 154.327519 
L 389.368369 154.68673 
L 390.651739 154.400724 
L 391.821872 153.747326 
L 392.992004 154.056124 
L 394.162136 154.526479 
L 395.294522 155.118786 
L 400.012798 153.91273 
L 401.220676 154.101801 
L 404.768819 153.124093 
L 405.938951 152.434762 
L 408.203724 151.936963 
L 409.524841 152.362385 
L 410.581734 152.207362 
L 411.789613 152.367159 
L 415.30001 154.628212 
L 416.470142 155.066406 
L 417.640274 155.382039 
L 418.810407 155.477184 
L 421.150671 156.083674 
L 422.35855 156.057803 
L 423.415443 155.227704 
L 424.925291 154.801318 
L 425.982185 154.038167 
L 427.076825 154.002925 
L 428.284703 154.132053 
L 430.624968 154.740926 
L 431.757354 155.429201 
L 432.927486 156.40488 
L 434.022126 157.099287 
L 435.305497 156.259035 
L 436.437883 155.668203 
L 437.608015 154.463461 
L 438.778148 154.487485 
L 439.910534 154.335915 
L 441.269397 153.384666 
L 442.326291 152.818681 
L 443.534169 152.630323 
L 444.666555 152.043131 
L 445.949926 152.023529 
L 446.931327 151.260214 
L 448.139206 150.942691 
L 449.347084 150.168914 
L 450.47947 149.295595 
L 451.762841 147.967072 
L 452.932974 146.038935 
L 455.122253 143.305958 
L 456.632101 142.033798 
L 457.953218 141.483684 
L 459.236589 140.147799 
L 460.595453 139.302375 
L 461.576854 138.170622 
L 463.992611 136.240496 
L 465.238236 135.464417 
L 467.5785 132.536505 
L 468.559901 130.915505 
L 469.994257 129.488828 
L 470.900166 127.619308 
L 473.353669 124.815014 
L 475.656187 123.287245 
L 476.864066 122.573749 
L 479.393061 120.590028 
L 480.449955 119.543977 
L 481.506849 118.660443 
L 485.092738 116.347156 
L 486.26287 115.787569 
L 487.470749 115.02476 
L 489.84876 112.722236 
L 490.981146 111.165497 
L 492.189024 109.315003 
L 493.434649 107.17146 
L 493.434649 107.17146 
" clip-path="url(#pf1ebf0481d)" style="fill: none; stroke: #000000; stroke-width: 2.5; stroke-linecap: square"/>
   </g>
   <g id="line2d_56">
    <path d="M 59.013605 258.491187 
L 59.013605 260.754437 
L 58.938112 240.207364 
L 59.013605 241.157684 
L 59.466559 241.911036 
L 60.523453 244.535291 
L 62.297524 249.783825 
L 64.52455 256.753989 
L 66.71383 259.348094 
L 68.638886 262.114939 
L 70.261973 265.99479 
L 71.658583 263.622065 
L 72.866461 262.994596 
L 73.961101 261.423817 
L 75.055741 253.855972 
L 76.150381 248.864524 
L 77.245021 248.301916 
L 78.377407 247.272623 
L 79.547539 243.061258 
L 80.717671 244.960773 
L 81.887803 245.544112 
L 83.095682 246.766142 
L 84.30356 248.461212 
L 85.511439 248.401389 
L 86.832556 245.258842 
L 88.115927 242.963652 
L 89.399298 238.093059 
L 90.682669 234.90755 
L 91.890547 232.404827 
L 93.098426 234.06928 
L 94.268558 234.119953 
L 95.43869 238.134822 
L 96.608822 238.544666 
L 97.778955 238.817493 
L 98.949087 240.470887 
L 100.119219 238.810784 
L 101.327098 236.252795 
L 102.49723 238.087165 
L 103.667362 237.9571 
L 106.007627 235.251607 
L 107.140013 235.11309 
L 108.272399 233.809784 
L 109.480277 230.558599 
L 110.688156 229.93642 
L 111.896034 224.461243 
L 113.066167 222.527582 
L 114.198553 219.548472 
L 115.406431 212.874749 
L 117.746696 202.896212 
L 118.916828 199.435284 
L 121.332585 190.094179 
L 122.502717 186.910991 
L 123.67285 183.139575 
L 124.880728 180.702793 
L 126.05086 177.82799 
L 127.258739 175.190057 
L 129.599003 167.281954 
L 130.806882 164.029042 
L 131.977014 160.048291 
L 133.147146 156.497694 
L 144.999454 128.097408 
L 147.339719 123.680015 
L 149.717729 119.905981 
L 152.09574 116.879398 
L 153.303619 115.618238 
L 155.643883 112.615917 
L 156.738523 110.839179 
L 162.740169 103.788849 
L 165.080434 101.457244 
L 168.628577 99.650185 
L 172.101227 98.225005 
L 173.309106 97.202781 
L 174.441492 96.406047 
L 177.914143 93.198208 
L 180.329899 90.505735 
L 181.537778 88.771204 
L 182.670164 86.878232 
L 183.840296 85.148009 
L 185.010429 83.661044 
L 188.596318 78.289594 
L 189.76645 76.210977 
L 190.974329 74.413793 
L 194.522472 70.136593 
L 195.73035 69.179803 
L 196.975975 68.667864 
L 198.146107 67.913254 
L 199.278493 67.671151 
L 200.448625 67.607557 
L 201.618758 67.938728 
L 202.826636 68.65261 
L 203.959022 69.724133 
L 205.129154 71.095842 
L 207.469419 74.296639 
L 208.639551 75.853373 
L 209.885176 77.319093 
L 213.395573 81.961692 
L 214.527959 83.357266 
L 215.773584 84.595705 
L 216.90597 85.951252 
L 219.28398 88.006824 
L 220.454113 89.263906 
L 223.926763 93.746065 
L 226.304774 97.289202 
L 228.682785 99.542944 
L 229.815171 100.28444 
L 230.985303 101.507813 
L 232.155435 102.520948 
L 233.325568 103.309657 
L 236.873711 107.053208 
L 238.043843 108.562258 
L 239.251721 109.424761 
L 240.421854 109.960179 
L 241.591986 110.299867 
L 243.932251 111.265306 
L 245.102383 111.981036 
L 246.272515 112.966509 
L 247.442647 113.483821 
L 248.575033 114.314361 
L 249.782912 115.600021 
L 251.028537 115.895934 
L 252.198669 116.415935 
L 253.368801 117.1678 
L 254.57668 117.62819 
L 255.709066 118.305369 
L 256.879198 119.171394 
L 258.124823 119.578882 
L 259.257209 119.594517 
L 260.502833 119.845939 
L 261.63522 120.790362 
L 262.805352 120.903732 
L 263.975484 121.496146 
L 265.145616 122.50043 
L 266.353495 123.014032 
L 267.523627 123.804805 
L 268.693759 124.304037 
L 269.901638 124.498082 
L 272.16641 125.727009 
L 273.374288 126.175109 
L 274.544421 126.431646 
L 275.714553 126.393437 
L 276.884685 126.700383 
L 279.22495 126.969994 
L 280.395082 127.173144 
L 281.602961 127.246834 
L 282.773093 127.783238 
L 286.321236 128.578736 
L 287.453622 128.197584 
L 288.6615 128.289032 
L 291.039511 127.938166 
L 292.171897 127.929833 
L 293.379776 127.352804 
L 294.549908 126.993554 
L 295.72004 126.845082 
L 296.890173 127.042571 
L 300.362823 128.257138 
L 301.570702 128.200751 
L 306.364469 128.732699 
L 307.572348 129.479072 
L 308.780226 129.902704 
L 309.988105 130.113212 
L 311.158237 130.449477 
L 312.290623 130.312216 
L 313.498502 129.968237 
L 314.70638 129.941195 
L 315.838766 130.468259 
L 317.046645 131.461806 
L 319.386909 134.17373 
L 320.519295 134.951256 
L 322.935052 137.009413 
L 324.029692 137.548526 
L 326.407703 138.245344 
L 328.747967 139.540081 
L 329.842607 140.427559 
L 332.220618 141.946335 
L 333.428497 142.81481 
L 335.768761 144.048567 
L 336.901147 144.173464 
L 339.279158 145.347643 
L 341.657169 146.325784 
L 342.789555 147.419558 
L 343.921941 148.114699 
L 346.299952 149.12264 
L 347.470084 149.662833 
L 348.677962 149.799325 
L 349.923587 150.079902 
L 350.980481 149.853593 
L 352.150613 149.988294 
L 353.396238 150.26949 
L 354.528624 150.754172 
L 355.811995 150.982123 
L 356.831142 151.704396 
L 357.963528 152.790497 
L 359.246899 153.274396 
L 360.379285 153.979141 
L 362.757296 153.819768 
L 364.002921 154.238307 
L 365.135307 154.359318 
L 366.267693 153.807117 
L 369.77809 154.317836 
L 370.985968 153.891596 
L 373.288486 154.74417 
L 375.628751 155.2386 
L 376.761137 155.157445 
L 377.969015 154.519786 
L 379.21464 154.539463 
L 380.460265 153.915722 
L 381.894621 153.675654 
L 383.177991 153.167301 
L 384.310377 153.860233 
L 385.48051 154.13175 
L 386.688388 154.693162 
L 389.104145 154.573564 
L 390.236531 153.918009 
L 392.614542 153.057108 
L 393.860167 152.806647 
L 395.030299 152.980969 
L 396.0117 153.259109 
L 397.332817 153.400147 
L 398.540696 154.033255 
L 399.673082 154.087501 
L 400.843214 153.983341 
L 402.088839 154.089135 
L 403.258971 154.342606 
L 404.353611 154.326676 
L 405.561489 154.673447 
L 406.731622 155.158404 
L 407.901754 154.634862 
L 409.03414 155.165438 
L 410.279765 155.486507 
L 411.487643 155.4613 
L 412.544537 155.326697 
L 414.960294 155.753837 
L 416.130426 155.59662 
L 418.583929 156.563049 
L 419.640823 156.549891 
L 420.810955 156.978552 
L 421.905595 157.889145 
L 423.15122 158.410279 
L 424.396844 158.673452 
L 425.604723 159.10098 
L 426.661617 159.757288 
L 430.360744 161.536444 
L 431.455384 161.102772 
L 432.550024 160.897039 
L 434.852543 159.731658 
L 436.060421 159.610263 
L 438.362939 158.741065 
L 439.64631 158.872861 
L 440.891935 159.304546 
L 441.986575 158.762541 
L 443.081215 158.038253 
L 444.326839 157.766865 
L 445.421479 156.65328 
L 446.70485 156.290231 
L 448.931876 155.276151 
L 450.102008 154.845372 
L 452.517765 154.183248 
L 453.687898 153.057245 
L 454.669299 151.898941 
L 457.764487 149.606553 
L 460.067006 147.291718 
L 461.350377 147.26638 
L 462.558255 146.87654 
L 463.50191 146.740468 
L 464.860774 146.787867 
L 465.917667 146.522117 
L 468.333424 145.282331 
L 469.541303 144.072378 
L 470.598196 142.502741 
L 471.843821 141.059066 
L 472.862968 140.810838 
L 474.184086 139.896653 
L 475.354218 140.012402 
L 477.694482 139.757205 
L 478.902361 140.296183 
L 481.167133 140.68457 
L 482.412758 140.142981 
L 483.771621 139.945867 
L 484.639784 140.202172 
L 485.923154 139.624436 
L 487.131033 139.569075 
L 488.074688 138.582672 
L 489.358059 137.902302 
L 490.679176 137.026126 
L 491.962547 135.902107 
L 492.906202 134.491203 
L 493.887603 132.76982 
L 493.887603 132.76982 
" clip-path="url(#pf1ebf0481d)" style="fill: none; stroke: #1f77b4; stroke-width: 2.5; stroke-linecap: square"/>
   </g>
   <g id="line2d_57">
    <path d="M 58.636143 270.005523 
L 58.598397 253.664246 
L 58.673889 256.822021 
L 59.013605 258.867837 
L 60.032752 261.34409 
L 61.84457 261.43141 
L 63.996104 258.511171 
L 66.223129 269.619639 
L 68.185932 271.284235 
L 69.809019 268.139073 
L 71.205628 268.212054 
L 72.413507 260.916121 
L 73.508147 264.012835 
L 74.602786 263.449413 
L 75.697426 253.417974 
L 76.792066 247.227456 
L 77.924452 246.292689 
L 80.264717 249.946289 
L 81.472595 247.78617 
L 82.680474 249.83697 
L 83.850606 250.614013 
L 85.058484 254.926262 
L 86.304109 255.03418 
L 87.58748 248.166144 
L 88.908597 244.884224 
L 90.229714 248.585911 
L 91.437593 247.374445 
L 92.607725 248.151033 
L 93.777857 243.849739 
L 94.910243 246.343356 
L 97.250508 239.570493 
L 98.458386 238.851389 
L 99.628519 232.714909 
L 100.798651 233.729072 
L 102.006529 231.33557 
L 103.214408 226.420995 
L 104.422286 224.260847 
L 105.630165 222.58733 
L 106.762551 222.680619 
L 107.932683 219.125427 
L 109.178308 217.516675 
L 110.34844 217.235584 
L 111.480826 213.157119 
L 112.53772 213.219998 
L 113.707852 206.663918 
L 118.539366 189.152018 
L 119.747245 185.634124 
L 120.955123 180.720908 
L 122.125255 177.28479 
L 123.257641 173.049571 
L 124.46552 171.167908 
L 128.013663 159.307221 
L 129.259288 156.567978 
L 131.637298 150.557599 
L 132.807431 147.684357 
L 133.939817 146.217724 
L 135.109949 144.145647 
L 137.563452 140.470495 
L 142.243981 129.943256 
L 144.584246 126.055068 
L 145.792124 124.362395 
L 148.170135 121.874885 
L 149.340267 120.832613 
L 150.472653 119.238206 
L 152.88841 116.708487 
L 155.228675 113.034787 
L 156.436553 110.779209 
L 158.776818 107.806722 
L 161.154829 105.801598 
L 162.324961 105.039749 
L 164.665225 104.394981 
L 169.383501 100.497737 
L 172.931644 96.719561 
L 175.271908 93.85233 
L 177.612173 90.469789 
L 178.782305 88.968845 
L 179.914691 87.306602 
L 181.12257 85.785954 
L 182.292702 83.998222 
L 184.632967 80.987296 
L 185.840845 79.69144 
L 188.256602 76.180494 
L 190.634613 73.635068 
L 191.804745 72.59965 
L 194.220502 70.952899 
L 196.52302 70.693567 
L 197.693153 70.656382 
L 198.863285 70.786184 
L 200.033417 71.49704 
L 201.203549 72.513274 
L 203.58156 75.220191 
L 207.054211 79.177111 
L 209.507714 80.930203 
L 211.772486 83.430621 
L 213.018111 84.585561 
L 214.150497 85.851132 
L 220.076651 90.728743 
L 221.246783 91.907386 
L 222.379169 93.423805 
L 223.549301 94.198339 
L 224.719434 95.560127 
L 227.135191 97.732405 
L 228.267577 99.107353 
L 230.607841 101.397536 
L 234.118238 104.544328 
L 235.326116 105.01787 
L 237.666381 106.440433 
L 241.176778 107.735105 
L 242.384656 108.313507 
L 243.554789 108.685906 
L 244.724921 108.700448 
L 245.857307 109.567581 
L 247.065185 110.176095 
L 248.235318 110.977569 
L 249.367704 112.080062 
L 251.707968 113.033264 
L 252.953593 113.923801 
L 254.048233 114.520794 
L 255.293858 114.53524 
L 256.46399 114.729628 
L 257.596376 115.626356 
L 258.804254 115.849256 
L 259.974387 116.585752 
L 262.352397 118.360957 
L 263.52253 119.058434 
L 264.692662 119.894514 
L 265.862794 120.381459 
L 267.032926 120.450192 
L 268.203059 120.802179 
L 270.543323 121.144003 
L 271.788948 121.495654 
L 272.921334 121.946607 
L 275.299345 122.564301 
L 276.393985 123.213161 
L 278.809742 123.598296 
L 279.979874 123.589245 
L 281.150006 123.133017 
L 282.357885 123.320449 
L 284.660403 123.222139 
L 285.906028 123.122573 
L 289.416425 123.777728 
L 290.548811 124.203545 
L 292.964568 124.009789 
L 294.1347 124.168069 
L 295.267086 124.437862 
L 296.512711 124.18765 
L 297.645097 124.335971 
L 298.777483 124.086404 
L 299.947615 124.163186 
L 301.155493 124.41034 
L 302.325626 124.468287 
L 303.495758 124.64114 
L 304.703637 124.692495 
L 305.873769 125.161536 
L 307.15714 125.903786 
L 308.402764 125.954091 
L 309.497404 126.190862 
L 310.743029 126.323935 
L 311.913161 127.328764 
L 313.083293 127.743176 
L 314.253426 128.943776 
L 315.423558 130.445139 
L 316.555944 131.500141 
L 317.763823 133.266316 
L 318.971701 134.03668 
L 320.104087 134.422519 
L 321.274219 134.695692 
L 322.519844 135.454409 
L 323.65223 136.487604 
L 324.784616 136.674695 
L 325.992495 137.809732 
L 327.162627 138.746921 
L 329.427399 140.828462 
L 330.635278 141.227438 
L 333.013288 142.173474 
L 335.315807 142.915205 
L 336.485939 142.626972 
L 338.826204 144.041791 
L 340.034082 145.221173 
L 341.24196 146.099538 
L 343.582225 147.312351 
L 345.960236 148.172728 
L 347.054876 148.644234 
L 348.187262 148.80576 
L 351.773151 151.408833 
L 352.905537 152.334582 
L 354.113416 152.698433 
L 355.35904 152.920856 
L 356.491426 152.663834 
L 357.586066 153.505191 
L 358.831691 153.445768 
L 360.001823 153.096768 
L 362.379834 154.117613 
L 363.587712 154.317803 
L 364.682352 154.3358 
L 365.890231 154.204129 
L 367.060363 154.37407 
L 368.192749 154.653539 
L 369.400628 155.840221 
L 370.533014 155.754226 
L 371.6654 156.351503 
L 372.911024 157.135805 
L 375.251289 157.487812 
L 376.383675 156.512354 
L 377.6293 156.194034 
L 378.72394 156.262332 
L 380.00731 156.05176 
L 381.441666 156.590089 
L 382.762783 156.369592 
L 383.932915 157.003605 
L 385.17854 156.932251 
L 386.348672 157.024898 
L 387.556551 156.780757 
L 388.688937 156.0515 
L 391.066948 155.934518 
L 392.23708 156.112212 
L 393.33172 156.580224 
L 394.615091 156.987809 
L 396.955355 157.330228 
L 398.087741 157.379542 
L 400.352514 156.775785 
L 401.635884 157.644614 
L 402.806017 157.265996 
L 403.976149 157.438957 
L 405.033043 157.95726 
L 406.316414 158.019874 
L 408.618932 158.536558 
L 409.864557 159.108216 
L 410.996943 158.894642 
L 412.204821 159.145897 
L 413.337207 159.54387 
L 414.620578 158.143715 
L 415.715218 158.530137 
L 416.847604 158.196364 
L 418.130975 157.392178 
L 419.338853 157.989975 
L 420.508986 158.82564 
L 421.641372 159.933962 
L 422.736012 160.223342 
L 423.94389 161.138109 
L 426.208662 162.513968 
L 427.567525 163.516359 
L 428.624419 162.634873 
L 429.719059 161.994061 
L 430.926938 161.461075 
L 432.172562 161.145906 
L 433.19171 160.475279 
L 434.512827 159.857744 
L 435.645213 159.812213 
L 436.815345 160.322119 
L 438.06097 160.43273 
L 439.15561 159.822539 
L 440.438981 159.369986 
L 441.53362 158.741271 
L 442.666006 158.232494 
L 443.873885 158.160816 
L 445.081763 157.521582 
L 446.251896 156.739379 
L 447.459774 156.358388 
L 448.478922 156.46364 
L 452.064811 156.35288 
L 453.272689 155.89516 
L 454.367329 155.996715 
L 455.688446 155.830762 
L 457.085056 155.224329 
L 458.519411 154.294732 
L 459.614051 152.55269 
L 460.859676 151.268332 
L 462.067555 150.803155 
L 464.445565 148.851331 
L 465.540205 148.666603 
L 466.672591 148.052573 
L 467.842723 148.084403 
L 468.97511 147.56556 
L 470.145242 147.286634 
L 471.35312 146.295694 
L 472.636491 145.437283 
L 473.84437 145.138314 
L 474.825771 144.3907 
L 477.31702 143.706424 
L 478.487153 143.056684 
L 479.581792 143.581268 
L 480.789671 143.506059 
L 481.997549 144.514497 
L 483.129935 145.122471 
L 484.451053 145.215892 
L 486.753571 145.913615 
L 488.905104 145.494137 
L 490.075237 145.524536 
L 491.547339 146.020468 
L 492.717471 147.214591 
L 493.585634 149.414625 
L 493.585634 149.414625 
" clip-path="url(#pf1ebf0481d)" style="fill: none; stroke: #d62728; stroke-width: 2.5; stroke-linecap: square"/>
   </g>
   <g id="line2d_58">
    <path d="M 60.372468 291.205218 
L 60.334722 244.635791 
L 60.296976 254.97019 
L 60.447961 258.469339 
L 61.014154 268.66665 
L 62.297524 264.496827 
L 64.222581 268.209743 
L 66.41186 270.739071 
L 68.487902 270.764505 
L 70.337466 263.85768 
L 73.206177 261.064065 
L 74.338563 267.080329 
L 75.433203 259.228099 
L 76.527843 253.099516 
L 77.622483 243.501694 
L 78.754869 240.392527 
L 79.887255 238.816789 
L 81.057387 238.682437 
L 82.227519 237.729682 
L 83.435398 239.896439 
L 84.643276 241.792795 
L 85.888901 247.362525 
L 87.172272 249.112802 
L 88.531135 249.796291 
L 89.77676 247.000401 
L 91.022384 242.062307 
L 92.230263 238.030399 
L 93.400395 235.176685 
L 94.570528 228.919519 
L 95.74066 223.745718 
L 96.910792 222.173969 
L 98.118671 219.701073 
L 99.288803 221.598781 
L 100.421189 217.490714 
L 101.591321 217.938651 
L 102.723707 218.177891 
L 103.931586 216.133337 
L 105.101718 213.8184 
L 106.27185 212.518508 
L 107.479729 207.743043 
L 108.649861 205.663285 
L 109.895486 201.869863 
L 111.065618 198.826183 
L 112.23575 193.260507 
L 113.481375 192.284335 
L 114.576015 189.673689 
L 115.783893 185.461481 
L 116.954026 183.317227 
L 119.29429 178.277258 
L 120.464422 176.833892 
L 121.596808 173.655577 
L 122.766941 169.764663 
L 123.937073 166.948941 
L 125.144951 164.798858 
L 126.315084 161.495486 
L 127.522962 159.086242 
L 128.730841 157.117119 
L 129.900973 154.262262 
L 131.108851 152.131727 
L 132.278984 149.413273 
L 133.449116 146.03118 
L 134.656995 143.21879 
L 138.28063 137.097055 
L 140.658641 133.948996 
L 141.828773 132.20206 
L 142.998905 130.118462 
L 146.547048 124.93526 
L 150.132938 120.205995 
L 151.30307 118.269002 
L 152.510948 116.601428 
L 156.059091 111.043964 
L 160.664128 105.242689 
L 161.872006 103.714663 
L 163.042139 102.009554 
L 165.382403 99.338113 
L 166.552536 98.198979 
L 167.722668 96.536812 
L 168.8928 95.179726 
L 170.025186 94.106539 
L 171.270811 93.101805 
L 172.478689 91.937936 
L 174.818954 88.820356 
L 176.026832 87.654427 
L 178.404843 84.551135 
L 179.537229 82.570591 
L 180.745108 80.789583 
L 183.085372 77.621534 
L 191.276298 62.878672 
L 193.692055 59.495448 
L 197.240198 55.261117 
L 198.372584 53.99835 
L 200.788341 52.314452 
L 201.99622 51.75101 
L 203.128606 51.656443 
L 204.298738 52.215909 
L 205.46887 53.079914 
L 206.676749 54.4472 
L 210.187146 60.346725 
L 211.357278 62.485309 
L 212.565156 64.348327 
L 214.867675 68.394054 
L 216.075553 69.688729 
L 217.245685 70.525944 
L 218.415818 71.545366 
L 220.793828 74.091376 
L 223.171839 76.921129 
L 224.379718 78.589735 
L 225.54985 80.648625 
L 226.757728 82.532006 
L 229.060247 84.983459 
L 232.60839 88.929024 
L 233.778522 90.043714 
L 234.910908 91.335958 
L 236.118787 92.450663 
L 237.326665 93.199304 
L 238.496797 94.35608 
L 239.591437 95.279901 
L 240.723823 96.64336 
L 244.271966 98.954952 
L 246.687723 100.527387 
L 247.857856 100.994177 
L 248.990242 101.281305 
L 250.160374 102.175238 
L 251.405999 102.725563 
L 252.500639 103.631679 
L 254.878649 104.854652 
L 256.048782 105.575257 
L 258.389046 106.482968 
L 259.559178 106.548569 
L 260.767057 106.903381 
L 261.937189 107.476812 
L 263.107321 107.654376 
L 265.447586 109.351955 
L 266.655464 110.07522 
L 268.995729 110.622366 
L 270.165861 110.685995 
L 272.581618 110.496187 
L 273.714004 110.69453 
L 274.84639 110.615734 
L 277.224401 111.039167 
L 279.564666 111.858615 
L 281.980423 113.600675 
L 283.150555 114.229432 
L 285.453073 114.956325 
L 286.623206 114.820496 
L 290.133602 113.914247 
L 292.473867 114.617212 
L 293.681745 114.570506 
L 294.889624 115.208688 
L 296.02201 115.440285 
L 297.192142 115.506381 
L 298.362275 115.74642 
L 299.570153 115.86787 
L 300.778031 115.531908 
L 301.834925 115.716646 
L 303.08055 116.258406 
L 305.458561 116.106218 
L 306.741931 116.617018 
L 307.94981 116.703827 
L 309.082196 117.087591 
L 310.290074 117.72906 
L 311.422461 118.469031 
L 312.630339 118.850213 
L 315.00835 120.927391 
L 319.651133 123.990748 
L 324.4449 127.23941 
L 325.501794 127.998614 
L 326.747419 129.16492 
L 329.049937 130.727938 
L 330.220069 131.948672 
L 334.938345 135.078926 
L 336.108477 136.18014 
L 337.278609 136.942649 
L 338.410995 137.868805 
L 340.826752 138.832568 
L 341.959138 139.855662 
L 343.167017 140.257772 
L 344.337149 141.202544 
L 345.469535 141.609371 
L 347.923038 143.66907 
L 349.017678 144.737789 
L 350.150064 145.404722 
L 351.320197 145.890328 
L 352.603567 145.933305 
L 353.698207 146.591986 
L 354.906086 146.276083 
L 356.038472 146.184565 
L 357.208604 146.424333 
L 359.624361 147.569298 
L 360.719001 148.46185 
L 361.889133 149.64135 
L 364.30489 151.644113 
L 365.437276 152.793432 
L 367.853033 153.594675 
L 368.985419 154.595481 
L 370.155552 154.359246 
L 373.628202 154.9007 
L 374.760588 154.524368 
L 376.006213 154.598197 
L 377.100853 154.968302 
L 378.346477 155.710268 
L 379.441117 155.124177 
L 380.913219 154.868679 
L 382.309829 154.495338 
L 383.5932 154.754688 
L 384.763332 154.624976 
L 387.103596 154.037389 
L 388.349221 154.12928 
L 389.519353 154.494426 
L 390.613993 154.374659 
L 391.821872 154.050009 
L 393.02975 153.162981 
L 395.294522 154.412059 
L 398.99365 154.134989 
L 401.220676 154.233214 
L 402.428555 154.157665 
L 403.447702 154.468934 
L 404.731073 154.501684 
L 405.825713 156.441405 
L 407.033591 157.538642 
L 408.165977 157.778369 
L 409.411602 158.197904 
L 410.506242 158.423498 
L 412.884253 158.596022 
L 414.054385 158.500878 
L 415.337756 158.549943 
L 416.39465 159.53992 
L 417.640274 160.449238 
L 418.734914 160.759055 
L 420.018285 160.247795 
L 424.698814 160.803066 
L 425.906693 161.133853 
L 426.963586 161.73712 
L 428.246957 163.393816 
L 429.492582 164.312802 
L 430.587222 164.507336 
L 431.681862 163.608113 
L 432.927486 163.777614 
L 434.059872 163.630063 
L 435.041274 164.18503 
L 438.740401 164.154609 
L 439.94828 164.780196 
L 441.118412 163.620332 
L 443.458677 160.528872 
L 444.628809 159.918452 
L 448.139206 158.690035 
L 449.309338 157.516351 
L 450.403978 157.086991 
L 451.762841 155.832829 
L 452.819735 154.045041 
L 455.084507 152.432486 
L 456.594355 152.018867 
L 457.915472 151.228009 
L 459.085605 150.345101 
L 460.444468 150.166057 
L 461.690092 149.467135 
L 463.01121 149.398264 
L 464.030357 148.219934 
L 465.124997 147.76539 
L 467.465261 146.276385 
L 471.013405 142.748673 
L 473.391415 140.571807 
L 474.523801 139.958148 
L 478.034198 140.053416 
L 479.166584 140.672775 
L 481.733326 141.699241 
L 482.827966 142.785293 
L 484.035844 142.640877 
L 485.130484 142.793528 
L 486.074139 143.451996 
L 487.395256 143.46979 
L 488.640881 142.653113 
L 489.811013 141.50096 
L 490.943399 140.119771 
L 493.170425 137.048084 
L 493.170425 137.048084 
" clip-path="url(#pf1ebf0481d)" style="fill: none; stroke: #ff7f0e; stroke-width: 2.5; stroke-linecap: square"/>
   </g>
   <g id="line2d_59">
    <path d="M 59.089097 268.350521 
L 59.089097 242.989728 
L 59.013605 264.950185 
L 59.013605 279.561172 
L 59.089097 259.134949 
L 59.391067 257.241216 
L 60.334722 254.535245 
L 61.957809 247.262585 
L 64.184835 247.976191 
L 66.449607 251.013261 
L 68.450155 252.627028 
L 70.148735 257.198728 
L 71.507598 261.595387 
L 72.715476 266.845914 
L 73.810116 268.850981 
L 74.904756 276.03691 
L 75.999396 281.733422 
L 77.094036 271.795618 
L 78.264168 276.440121 
L 79.4343 272.904166 
L 80.642179 260.973854 
L 81.812311 250.820489 
L 83.057936 241.488871 
L 84.190322 240.385595 
L 85.360454 241.037308 
L 86.643825 236.816512 
L 87.88945 239.112301 
L 89.210567 236.608512 
L 90.456191 233.823936 
L 91.701816 229.618876 
L 92.909695 225.074255 
L 94.079827 222.096114 
L 95.287705 222.340834 
L 96.420091 222.899956 
L 98.798102 221.641475 
L 100.043727 219.726696 
L 101.213859 216.159639 
L 102.383991 213.550095 
L 103.59187 210.530521 
L 105.932134 203.971098 
L 107.064521 199.994547 
L 108.310145 194.677854 
L 109.480277 191.127957 
L 110.688156 189.685193 
L 111.896034 187.104833 
L 115.444177 181.025932 
L 116.576564 178.704297 
L 117.784442 174.541875 
L 118.916828 171.802362 
L 120.08696 168.273156 
L 121.294839 165.113713 
L 126.013114 154.679033 
L 127.107754 153.441658 
L 129.523511 147.965696 
L 133.071654 142.931276 
L 134.241786 140.780408 
L 135.449665 139.068201 
L 139.111046 132.911462 
L 140.281179 130.590581 
L 142.659189 126.962268 
L 145.0372 124.165851 
L 146.207332 122.218477 
L 147.377465 120.617791 
L 148.509851 119.287591 
L 150.850115 115.546349 
L 153.228126 112.378209 
L 159.116534 106.466158 
L 160.286666 105.495024 
L 163.797063 101.591461 
L 165.004941 100.069052 
L 166.175074 98.971673 
L 167.345206 97.469027 
L 170.893349 93.787623 
L 173.233613 90.444795 
L 175.687117 87.71209 
L 179.197513 83.096496 
L 181.537778 80.541676 
L 185.010429 75.335289 
L 186.180561 74.062052 
L 187.350693 72.967162 
L 188.483079 71.750503 
L 192.106715 68.730712 
L 193.276847 67.83774 
L 195.654858 65.594993 
L 196.82499 64.71981 
L 198.032868 64.47923 
L 200.335387 64.464371 
L 201.543265 65.072924 
L 202.713398 65.861876 
L 203.921276 67.113438 
L 205.091408 68.614779 
L 206.299287 69.704422 
L 207.469419 71.153822 
L 208.601805 72.815886 
L 209.809684 74.840017 
L 214.452466 80.380559 
L 216.792731 82.717569 
L 217.962863 83.469009 
L 219.208488 84.694046 
L 225.096896 91.417768 
L 226.267028 92.31496 
L 228.607292 94.451586 
L 229.815171 95.332244 
L 232.117689 97.227883 
L 234.4957 99.140227 
L 235.703578 100.429758 
L 239.176229 102.622153 
L 240.346361 103.456302 
L 241.516494 103.891218 
L 242.762118 104.717735 
L 243.894504 105.188914 
L 246.234769 106.610866 
L 248.575033 107.396253 
L 249.782912 108.017167 
L 250.953044 108.831895 
L 252.123177 109.446656 
L 253.293309 109.883895 
L 254.538933 110.93288 
L 256.879198 112.560285 
L 258.04933 113.446659 
L 259.181716 113.984609 
L 261.559727 116.165319 
L 262.692113 116.91447 
L 263.899992 117.424374 
L 265.032378 118.325282 
L 267.410389 119.621805 
L 268.542775 120.612285 
L 269.712907 121.365464 
L 272.053171 122.496887 
L 273.336542 122.766139 
L 274.468928 122.682879 
L 275.601314 123.009179 
L 276.733701 123.08154 
L 277.979325 122.736412 
L 279.111711 123.333012 
L 281.527468 123.711332 
L 283.867733 123.548651 
L 287.415876 125.143194 
L 289.718394 125.605895 
L 290.926273 126.250599 
L 292.134151 125.770623 
L 295.606802 125.606921 
L 296.776934 126.486418 
L 297.984812 126.511791 
L 299.117199 126.924833 
L 300.325077 127.032322 
L 301.532956 127.341865 
L 302.665342 127.761448 
L 305.043352 127.418938 
L 307.496856 128.423559 
L 308.74248 129.028333 
L 309.912612 129.301191 
L 311.082745 129.842436 
L 312.290623 130.208044 
L 313.498502 131.391122 
L 314.593142 132.747705 
L 315.725528 133.656901 
L 316.933406 134.219122 
L 318.028046 135.307818 
L 319.273671 136.364474 
L 320.481549 137.042 
L 321.651681 138.076984 
L 323.991946 139.13705 
L 325.124332 140.112828 
L 327.464597 141.269287 
L 328.634729 141.501531 
L 331.01274 142.868512 
L 334.48539 146.465478 
L 335.655523 147.34921 
L 336.787909 148.924815 
L 338.109026 149.67986 
L 339.279158 150.893896 
L 340.373798 151.486008 
L 341.506184 151.707292 
L 342.789555 151.469434 
L 343.884195 151.726482 
L 345.016581 151.326863 
L 346.224459 151.29276 
L 347.394591 151.86847 
L 348.640216 152.831103 
L 349.772602 153.495214 
L 350.904988 154.625854 
L 353.282999 156.419536 
L 354.453131 156.44445 
L 356.831142 158.311824 
L 357.963528 159.160394 
L 359.13366 159.569197 
L 360.303793 159.468827 
L 361.473925 159.205797 
L 362.644057 159.168013 
L 363.81419 158.720297 
L 365.022068 158.492248 
L 366.154454 157.85413 
L 367.362333 158.576528 
L 368.570211 158.420494 
L 369.702597 158.844623 
L 370.834983 158.766173 
L 372.005115 159.566059 
L 374.383126 160.39643 
L 375.553259 159.806909 
L 376.685645 159.628411 
L 379.101402 158.116601 
L 380.422519 157.51459 
L 383.064753 158.275146 
L 384.310377 158.964293 
L 385.442764 158.941667 
L 386.763881 158.284732 
L 387.896267 157.522626 
L 389.066399 157.83752 
L 390.236531 156.974721 
L 391.406664 157.092221 
L 392.463557 156.851072 
L 393.784674 157.497266 
L 396.0117 157.586952 
L 397.219579 158.31409 
L 398.389711 158.150506 
L 399.597589 159.078364 
L 400.767722 159.70697 
L 401.900108 158.668755 
L 403.07024 159.125041 
L 404.315865 159.410554 
L 405.485997 159.923768 
L 406.580637 159.186806 
L 407.788515 159.97192 
L 409.03414 160.948777 
L 410.053288 161.21452 
L 411.336658 162.441829 
L 412.544537 162.737974 
L 413.790162 162.236607 
L 414.960294 163.614851 
L 416.017188 163.915853 
L 417.225066 164.53465 
L 418.395198 163.685338 
L 419.527584 163.97289 
L 420.735463 164.106174 
L 421.867849 164.08184 
L 423.037981 163.895247 
L 424.24586 164.275587 
L 425.642469 164.576931 
L 426.812601 165.586982 
L 427.831749 165.784559 
L 429.039627 166.927373 
L 430.134267 167.019648 
L 432.436786 169.021148 
L 433.720156 169.007956 
L 434.814796 168.184666 
L 436.022675 168.627771 
L 437.155061 167.945198 
L 438.438432 166.379983 
L 439.608564 165.745713 
L 440.703204 163.462565 
L 441.797844 162.229919 
L 444.251347 159.719007 
L 445.270494 158.653766 
L 446.553865 157.047051 
L 447.648505 156.846298 
L 448.89413 155.687314 
L 450.102008 155.030129 
L 451.272141 155.158867 
L 452.442273 154.371162 
L 454.669299 154.613848 
L 456.065908 154.932023 
L 457.500264 155.553058 
L 458.745889 155.832486 
L 460.02926 157.205457 
L 461.086153 157.209005 
L 462.558255 157.468765 
L 463.766134 156.522135 
L 464.558804 155.207465 
L 465.69119 154.327622 
L 468.220186 151.651562 
L 469.390318 150.591575 
L 470.56045 150.308905 
L 471.768329 150.371817 
L 472.976207 149.772487 
L 474.070847 149.807867 
L 478.71363 148.773115 
L 480.072493 149.015065 
L 481.167133 149.570637 
L 485.923154 154.100621 
L 487.055541 154.833742 
L 488.225673 154.301321 
L 489.433551 153.437142 
L 492.943948 149.626142 
L 493.774365 148.318011 
L 493.774365 148.318011 
" clip-path="url(#pf1ebf0481d)" style="fill: none; stroke: #9467bd; stroke-width: 2.5; stroke-linecap: square"/>
   </g>
   <g id="line2d_60">
    <path d="M 60.108245 260.520271 
L 60.032752 235.480905 
L 60.032752 246.708001 
L 59.95726 247.084082 
L 60.070498 248.814089 
L 60.598945 249.907424 
L 61.731331 249.567286 
L 63.505403 248.689891 
L 65.694683 256.422175 
L 67.846216 261.215453 
L 69.733526 249.506537 
L 71.318867 247.911316 
L 72.67773 242.394106 
L 73.847862 233.139248 
L 74.942502 227.218077 
L 75.999396 229.181476 
L 77.131782 230.176868 
L 78.264168 233.285135 
L 79.358808 239.706163 
L 80.566686 241.370158 
L 81.774565 239.65919 
L 82.944697 241.965953 
L 84.190322 241.278055 
L 85.3982 234.825275 
L 86.681571 234.420671 
L 87.964942 238.463548 
L 89.286059 235.606592 
L 90.531684 233.336926 
L 91.777309 233.144414 
L 92.947441 229.056361 
L 94.155319 227.679116 
L 95.287705 227.822969 
L 96.457838 227.510396 
L 97.62797 223.271647 
L 98.835848 221.438169 
L 100.005981 221.743382 
L 101.213859 218.957904 
L 102.383991 216.540108 
L 103.59187 215.215296 
L 104.762002 209.980125 
L 105.932134 208.147105 
L 107.102267 205.715077 
L 108.272399 203.652868 
L 109.442531 199.362424 
L 110.612664 196.461316 
L 112.990674 191.5879 
L 114.160807 189.51475 
L 115.330939 186.338821 
L 116.501071 181.838386 
L 117.671203 178.664665 
L 118.879082 176.983811 
L 121.219346 168.166392 
L 122.389479 164.917175 
L 124.729743 157.696895 
L 125.937622 154.751048 
L 127.070008 151.052985 
L 128.24014 148.198314 
L 129.410272 145.746631 
L 130.618151 143.577483 
L 131.826029 140.369894 
L 133.033908 138.399547 
L 135.449665 133.724596 
L 139.035554 127.803477 
L 141.375819 123.621477 
L 143.753829 119.533147 
L 146.13184 116.087382 
L 147.339719 114.814175 
L 149.717729 111.896583 
L 152.057994 109.650376 
L 153.228126 108.589906 
L 154.436005 107.006084 
L 157.984148 103.267784 
L 159.15428 102.135337 
L 161.456798 99.301741 
L 162.664677 98.054864 
L 163.834809 97.162023 
L 164.967195 96.12111 
L 166.137327 94.869812 
L 167.382952 94.132813 
L 168.553084 92.611909 
L 169.68547 90.887481 
L 170.855603 89.492559 
L 172.063481 87.859256 
L 175.573878 82.17316 
L 177.914143 78.439621 
L 179.122021 76.83369 
L 181.462286 73.092932 
L 184.972682 67.200449 
L 186.142815 65.218654 
L 190.823344 58.310178 
L 193.276847 55.651115 
L 194.446979 54.418789 
L 196.900482 52.744076 
L 198.032868 52.542112 
L 199.240747 52.843513 
L 200.410879 53.385327 
L 201.618758 54.725055 
L 202.751144 56.338091 
L 205.053662 60.670911 
L 207.431673 65.382411 
L 210.94207 70.692298 
L 212.149948 71.961406 
L 213.32008 73.486143 
L 219.208488 79.503444 
L 220.340874 80.954551 
L 221.548753 82.256937 
L 222.718885 83.801886 
L 223.926763 85.19418 
L 225.059149 86.907131 
L 226.267028 88.442946 
L 228.645039 91.023784 
L 229.777425 92.373433 
L 230.947557 93.594399 
L 232.155435 95.015487 
L 233.287822 95.952099 
L 234.4957 96.7363 
L 236.835965 98.517273 
L 238.043843 99.209834 
L 239.213975 99.625234 
L 240.384108 100.232819 
L 243.894504 102.89072 
L 246.234769 103.76867 
L 247.404901 104.401668 
L 249.782912 105.162439 
L 252.123177 105.904934 
L 253.293309 106.65469 
L 254.425695 107.675707 
L 257.973838 108.998924 
L 259.14397 109.638522 
L 260.314102 109.92225 
L 261.484235 110.372926 
L 263.862245 110.718623 
L 267.334896 111.985965 
L 268.505028 112.190034 
L 269.712907 112.66739 
L 272.053171 113.405741 
L 273.223304 113.997224 
L 274.35569 114.051516 
L 275.601314 114.277119 
L 277.979325 115.045499 
L 279.111711 115.058917 
L 280.244097 115.405032 
L 282.622108 115.383118 
L 283.79224 115.774251 
L 285.037865 115.90695 
L 286.207997 115.905514 
L 287.340383 116.038518 
L 288.472769 116.3591 
L 289.680648 117.270304 
L 290.813034 117.523575 
L 291.94542 118.031609 
L 293.077806 118.007528 
L 294.361177 118.417008 
L 295.493563 118.97152 
L 296.701442 119.094702 
L 299.041706 119.104672 
L 300.249585 119.532901 
L 301.419717 120.076752 
L 302.589849 119.963356 
L 303.797728 120.284017 
L 309.83712 123.133449 
L 312.101892 124.885261 
L 313.234278 124.933676 
L 315.650035 126.860609 
L 318.028046 128.786516 
L 319.235924 129.358443 
L 320.406057 130.299345 
L 322.746321 133.011044 
L 323.9542 133.91085 
L 325.086586 134.604324 
L 326.256718 136.545995 
L 327.464597 137.164135 
L 328.672475 138.190305 
L 329.842607 139.013429 
L 331.01274 140.166114 
L 332.182872 140.556524 
L 333.277512 141.306832 
L 334.560883 141.789806 
L 335.655523 142.660451 
L 336.825655 142.960297 
L 339.165919 144.024816 
L 340.373798 145.522046 
L 341.619423 146.14505 
L 342.714062 147.59304 
L 343.846448 147.668257 
L 345.167566 147.9513 
L 347.50783 148.772698 
L 348.640216 148.327893 
L 349.69711 149.069938 
L 350.980481 149.481479 
L 352.075121 150.360176 
L 353.282999 150.131502 
L 355.585517 151.670998 
L 356.831142 152.047665 
L 358.001274 152.826884 
L 359.095914 153.124611 
L 360.303793 153.612605 
L 361.473925 154.238075 
L 362.644057 153.399624 
L 363.81419 153.272369 
L 365.059814 152.560592 
L 366.1922 152.973772 
L 367.362333 153.563143 
L 368.532465 153.601022 
L 369.740343 153.9339 
L 370.872729 153.2181 
L 372.005115 153.142487 
L 374.420872 153.14723 
L 375.553259 152.994783 
L 376.723391 153.691073 
L 380.498011 154.039715 
L 381.781382 153.781087 
L 383.102499 153.131237 
L 387.896267 152.343255 
L 389.066399 153.075861 
L 390.198785 152.323553 
L 393.746928 154.221777 
L 394.91706 155.034862 
L 396.049446 155.024234 
L 397.219579 155.386816 
L 398.50295 156.541421 
L 399.635336 157.240329 
L 400.805468 157.537481 
L 401.937854 157.551124 
L 403.107986 157.830805 
L 406.693876 157.429732 
L 407.788515 157.698433 
L 411.336658 160.523266 
L 412.544537 160.380126 
L 413.714669 160.576308 
L 414.884801 160.051675 
L 416.017188 159.883109 
L 417.262812 159.49004 
L 418.357452 159.467762 
L 420.65997 159.922748 
L 425.453738 162.324411 
L 426.888094 161.972273 
L 427.944988 162.342668 
L 430.096521 164.362068 
L 431.266653 163.99325 
L 432.512278 164.066654 
L 433.720156 163.841936 
L 434.852543 162.526306 
L 435.909436 162.487644 
L 437.079569 161.075164 
L 438.325193 158.915824 
L 439.495325 157.579486 
L 440.74095 157.180945 
L 445.459225 153.86166 
L 446.553865 152.753513 
L 447.686251 151.965603 
L 448.856384 151.8032 
L 450.064262 151.150904 
L 451.196648 150.942258 
L 453.612405 150.080401 
L 454.669299 150.368086 
L 456.065908 149.928108 
L 457.500264 149.884034 
L 458.670396 149.648915 
L 459.953767 149.260475 
L 461.123899 149.560053 
L 462.294032 149.3206 
L 463.539656 148.045167 
L 465.842175 145.102939 
L 466.936815 144.593909 
L 468.031455 143.546906 
L 469.314825 143.470224 
L 470.484958 144.05541 
L 471.692836 143.872752 
L 472.938461 144.466635 
L 474.070847 145.466908 
L 475.203233 145.830739 
L 476.335619 146.958816 
L 478.751376 150.683013 
L 479.921508 151.909509 
L 481.129387 152.692639 
L 482.337265 153.669467 
L 483.356413 153.116502 
L 484.753022 153.446591 
L 487.206525 152.875267 
L 490.603684 152.671975 
L 491.811562 152.086997 
L 492.717471 151.020979 
L 493.887603 149.399663 
L 493.887603 149.399663 
" clip-path="url(#pf1ebf0481d)" style="fill: none; stroke: #2ca02c; stroke-width: 2.5; stroke-linecap: square"/>
   </g>
   <g id="patch_3">
    <path d="M 60.598945 303.182656 
L 60.598945 39.679004 
" style="fill: none; stroke: #000000; stroke-width: 1.5; stroke-linejoin: miter; stroke-linecap: square"/>
   </g>
   <g id="patch_4">
    <path d="M 60.598945 303.182656 
L 494.680273 303.182656 
" style="fill: none; stroke: #000000; stroke-width: 1.5; stroke-linejoin: miter; stroke-linecap: square"/>
   </g>
   <g id="text_12">
    <!-- 1421_wo_HF -->
    <g transform="translate(236.004922 18.441699) scale(0.14 -0.14)">
     <defs>
      <path id="ArialMT-42" d="M -97 -1272 
L -97 -866 
L 3631 -866 
L 3631 -1272 
L -97 -1272 
z
" transform="scale(0.015625)"/>
      <path id="ArialMT-5a" d="M 1034 0 
L 19 3319 
L 600 3319 
L 1128 1403 
L 1325 691 
Q 1338 744 1497 1375 
L 2025 3319 
L 2603 3319 
L 3100 1394 
L 3266 759 
L 3456 1400 
L 4025 3319 
L 4572 3319 
L 3534 0 
L 2950 0 
L 2422 1988 
L 2294 2553 
L 1622 0 
L 1034 0 
z
" transform="scale(0.015625)"/>
      <path id="ArialMT-2b" d="M 513 0 
L 513 4581 
L 1119 4581 
L 1119 2700 
L 3500 2700 
L 3500 4581 
L 4106 4581 
L 4106 0 
L 3500 0 
L 3500 2159 
L 1119 2159 
L 1119 0 
L 513 0 
z
" transform="scale(0.015625)"/>
      <path id="ArialMT-29" d="M 525 0 
L 525 4581 
L 3616 4581 
L 3616 4041 
L 1131 4041 
L 1131 2622 
L 3281 2622 
L 3281 2081 
L 1131 2081 
L 1131 0 
L 525 0 
z
" transform="scale(0.015625)"/>
     </defs>
     <use xlink:href="#ArialMT-14"/>
     <use xlink:href="#ArialMT-17" transform="translate(55.609375 0)"/>
     <use xlink:href="#ArialMT-15" transform="translate(111.21875 0)"/>
     <use xlink:href="#ArialMT-14" transform="translate(166.828125 0)"/>
     <use xlink:href="#ArialMT-42" transform="translate(222.4375 0)"/>
     <use xlink:href="#ArialMT-5a" transform="translate(278.046875 0)"/>
     <use xlink:href="#ArialMT-52" transform="translate(350.265625 0)"/>
     <use xlink:href="#ArialMT-42" transform="translate(405.875 0)"/>
     <use xlink:href="#ArialMT-2b" transform="translate(461.484375 0)"/>
     <use xlink:href="#ArialMT-29" transform="translate(533.703125 0)"/>
    </g>
    <!-- m/z 17 -->
    <g transform="translate(256.634141 33.679004) scale(0.14 -0.14)">
     <use xlink:href="#ArialMT-50"/>
     <use xlink:href="#ArialMT-12" transform="translate(83.296875 0)"/>
     <use xlink:href="#ArialMT-5d" transform="translate(111.078125 0)"/>
     <use xlink:href="#ArialMT-3" transform="translate(161.078125 0)"/>
     <use xlink:href="#ArialMT-14" transform="translate(188.859375 0)"/>
     <use xlink:href="#ArialMT-1a" transform="translate(244.46875 0)"/>
    </g>
   </g>
   <g id="legend_1">
    <g id="line2d_61">
     <path d="M 512.3619 52.459277 
L 522.3619 52.459277 
L 532.3619 52.459277 
" style="fill: none; stroke: #000000; stroke-width: 2.5; stroke-linecap: square"/>
    </g>
    <g id="text_13">
     <!-- 0 h -->
     <g transform="translate(540.3619 55.959277) scale(0.1 -0.1)">
      <defs>
       <path id="ArialMT-4b" d="M 422 0 
L 422 4581 
L 984 4581 
L 984 2938 
Q 1378 3394 1978 3394 
Q 2347 3394 2619 3248 
Q 2891 3103 3008 2847 
Q 3125 2591 3125 2103 
L 3125 0 
L 2563 0 
L 2563 2103 
Q 2563 2525 2380 2717 
Q 2197 2909 1863 2909 
Q 1613 2909 1392 2779 
Q 1172 2650 1078 2428 
Q 984 2206 984 1816 
L 984 0 
L 422 0 
z
" transform="scale(0.015625)"/>
      </defs>
      <use xlink:href="#ArialMT-13"/>
      <use xlink:href="#ArialMT-3" transform="translate(55.609375 0)"/>
      <use xlink:href="#ArialMT-4b" transform="translate(83.390625 0)"/>
     </g>
    </g>
    <g id="line2d_62">
     <path d="M 512.3619 66.844043 
L 522.3619 66.844043 
L 532.3619 66.844043 
" style="fill: none; stroke: #1f77b4; stroke-width: 2.5; stroke-linecap: square"/>
    </g>
    <g id="text_14">
     <!-- 6 h -->
     <g transform="translate(540.3619 70.344043) scale(0.1 -0.1)">
      <use xlink:href="#ArialMT-19"/>
      <use xlink:href="#ArialMT-3" transform="translate(55.609375 0)"/>
      <use xlink:href="#ArialMT-4b" transform="translate(83.390625 0)"/>
     </g>
    </g>
    <g id="line2d_63">
     <path d="M 512.3619 81.228809 
L 522.3619 81.228809 
L 532.3619 81.228809 
" style="fill: none; stroke: #d62728; stroke-width: 2.5; stroke-linecap: square"/>
    </g>
    <g id="text_15">
     <!-- 24 h -->
     <g transform="translate(540.3619 84.728809) scale(0.1 -0.1)">
      <use xlink:href="#ArialMT-15"/>
      <use xlink:href="#ArialMT-17" transform="translate(55.609375 0)"/>
      <use xlink:href="#ArialMT-3" transform="translate(111.21875 0)"/>
      <use xlink:href="#ArialMT-4b" transform="translate(139 0)"/>
     </g>
    </g>
    <g id="line2d_64">
     <path d="M 512.3619 95.613574 
L 522.3619 95.613574 
L 532.3619 95.613574 
" style="fill: none; stroke: #ff7f0e; stroke-width: 2.5; stroke-linecap: square"/>
    </g>
    <g id="text_16">
     <!-- 7 d -->
     <g transform="translate(540.3619 99.113574) scale(0.1 -0.1)">
      <defs>
       <path id="ArialMT-47" d="M 2575 0 
L 2575 419 
Q 2259 -75 1647 -75 
Q 1250 -75 917 144 
Q 584 363 401 755 
Q 219 1147 219 1656 
Q 219 2153 384 2558 
Q 550 2963 881 3178 
Q 1213 3394 1622 3394 
Q 1922 3394 2156 3267 
Q 2391 3141 2538 2938 
L 2538 4581 
L 3097 4581 
L 3097 0 
L 2575 0 
z
M 797 1656 
Q 797 1019 1065 703 
Q 1334 388 1700 388 
Q 2069 388 2326 689 
Q 2584 991 2584 1609 
Q 2584 2291 2321 2609 
Q 2059 2928 1675 2928 
Q 1300 2928 1048 2622 
Q 797 2316 797 1656 
z
" transform="scale(0.015625)"/>
      </defs>
      <use xlink:href="#ArialMT-1a"/>
      <use xlink:href="#ArialMT-3" transform="translate(55.609375 0)"/>
      <use xlink:href="#ArialMT-47" transform="translate(83.390625 0)"/>
     </g>
    </g>
    <g id="line2d_65">
     <path d="M 512.3619 109.99834 
L 522.3619 109.99834 
L 532.3619 109.99834 
" style="fill: none; stroke: #9467bd; stroke-width: 2.5; stroke-linecap: square"/>
    </g>
    <g id="text_17">
     <!-- 14 d -->
     <g transform="translate(540.3619 113.49834) scale(0.1 -0.1)">
      <use xlink:href="#ArialMT-14"/>
      <use xlink:href="#ArialMT-17" transform="translate(55.609375 0)"/>
      <use xlink:href="#ArialMT-3" transform="translate(111.21875 0)"/>
      <use xlink:href="#ArialMT-47" transform="translate(139 0)"/>
     </g>
    </g>
    <g id="line2d_66">
     <path d="M 512.3619 124.383105 
L 522.3619 124.383105 
L 532.3619 124.383105 
" style="fill: none; stroke: #2ca02c; stroke-width: 2.5; stroke-linecap: square"/>
    </g>
    <g id="text_18">
     <!-- 28 d -->
     <g transform="translate(540.3619 127.883105) scale(0.1 -0.1)">
      <use xlink:href="#ArialMT-15"/>
      <use xlink:href="#ArialMT-1b" transform="translate(55.609375 0)"/>
      <use xlink:href="#ArialMT-3" transform="translate(111.21875 0)"/>
      <use xlink:href="#ArialMT-47" transform="translate(139 0)"/>
     </g>
    </g>
   </g>
  </g>
 </g>
 <defs>
  <clipPath id="pf1ebf0481d">
   <rect x="60.598945" y="39.679004" width="434.081328" height="263.503652"/>
  </clipPath>
 </defs>
</svg>
