<?xml version="1.0" encoding="utf-8" standalone="no"?>
<!DOCTYPE svg PUBLIC "-//W3C//DTD SVG 1.1//EN"
  "http://www.w3.org/Graphics/SVG/1.1/DTD/svg11.dtd">
<svg xmlns:xlink="http://www.w3.org/1999/xlink" width="571.022837pt" height="344.160273pt" viewBox="0 0 571.022837 344.160273" xmlns="http://www.w3.org/2000/svg" version="1.1">
 <metadata>
  <rdf:RDF xmlns:dc="http://purl.org/dc/elements/1.1/" xmlns:cc="http://creativecommons.org/ns#" xmlns:rdf="http://www.w3.org/1999/02/22-rdf-syntax-ns#">
   <cc:Work>
    <dc:type rdf:resource="http://purl.org/dc/dcmitype/StillImage"/>
    <dc:date>2026-07-10T11:48:41.712048</dc:date>
    <dc:format>image/svg+xml</dc:format>
    <dc:creator>
     <cc:Agent>
      <dc:title>Matplotlib v3.11.0, https://matplotlib.org/</dc:title>
     </cc:Agent>
    </dc:creator>
   </cc:Work>
  </rdf:RDF>
 </metadata>
 <defs>
  <style type="text/css">*{stroke-linejoin: round; stroke-linecap: butt}</style>
 </defs>
 <g id="figure_1">
  <g id="patch_1">
   <path d="M 0 344.160273 
L 571.022837 344.160273 
L 571.022837 0 
L 0 0 
z
" style="fill: #ffffff"/>
  </g>
  <g id="axes_1">
   <g id="patch_2">
    <path d="M 60.598945 303.182656 
L 494.680273 303.182656 
L 494.680273 39.679004 
L 60.598945 39.679004 
z
" style="fill: #ffffff"/>
   </g>
   <g id="matplotlib.axis_1">
    <g id="xtick_1">
     <g id="line2d_1">
      <defs>
       <path id="me723dee902" d="M 0 0 
L 0 -6 
" style="stroke: #000000; stroke-width: 0.8"/>
      </defs>
      <g>
       <use xlink:href="#me723dee902" x="117.218249" y="303.182656" style="stroke: #000000; stroke-width: 0.8"/>
      </g>
     </g>
     <g id="text_1">
      <!-- 200 -->
      <g transform="translate(105.54028 316.875039) scale(0.14 -0.14)">
       <defs>
        <path id="ArialMT-15" d="M 3222 541 
L 3222 0 
L 194 0 
Q 188 203 259 391 
Q 375 700 629 1000 
Q 884 1300 1366 1694 
Q 2113 2306 2375 2664 
Q 2638 3022 2638 3341 
Q 2638 3675 2398 3904 
Q 2159 4134 1775 4134 
Q 1369 4134 1125 3890 
Q 881 3647 878 3216 
L 300 3275 
Q 359 3922 746 4261 
Q 1134 4600 1788 4600 
Q 2447 4600 2831 4234 
Q 3216 3869 3216 3328 
Q 3216 3053 3103 2787 
Q 2991 2522 2730 2228 
Q 2469 1934 1863 1422 
Q 1356 997 1212 845 
Q 1069 694 975 541 
L 3222 541 
z
" transform="scale(0.015625)"/>
        <path id="ArialMT-13" d="M 266 2259 
Q 266 3072 433 3567 
Q 600 4063 929 4331 
Q 1259 4600 1759 4600 
Q 2128 4600 2406 4451 
Q 2684 4303 2865 4023 
Q 3047 3744 3150 3342 
Q 3253 2941 3253 2259 
Q 3253 1453 3087 958 
Q 2922 463 2592 192 
Q 2263 -78 1759 -78 
Q 1097 -78 719 397 
Q 266 969 266 2259 
z
M 844 2259 
Q 844 1131 1108 757 
Q 1372 384 1759 384 
Q 2147 384 2411 759 
Q 2675 1134 2675 2259 
Q 2675 3391 2411 3762 
Q 2147 4134 1753 4134 
Q 1366 4134 1134 3806 
Q 844 3388 844 2259 
z
" transform="scale(0.015625)"/>
       </defs>
       <use xlink:href="#ArialMT-15"/>
       <use xlink:href="#ArialMT-13" transform="translate(55.609375 0)"/>
       <use xlink:href="#ArialMT-13" transform="translate(111.21875 0)"/>
      </g>
     </g>
    </g>
    <g id="xtick_2">
     <g id="line2d_2">
      <g>
       <use xlink:href="#me723dee902" x="192.710654" y="303.182656" style="stroke: #000000; stroke-width: 0.8"/>
      </g>
     </g>
     <g id="text_2">
      <!-- 400 -->
      <g transform="translate(181.032685 316.875039) scale(0.14 -0.14)">
       <defs>
        <path id="ArialMT-17" d="M 2069 0 
L 2069 1097 
L 81 1097 
L 81 1613 
L 2172 4581 
L 2631 4581 
L 2631 1613 
L 3250 1613 
L 3250 1097 
L 2631 1097 
L 2631 0 
L 2069 0 
z
M 2069 1613 
L 2069 3678 
L 634 1613 
L 2069 1613 
z
" transform="scale(0.015625)"/>
       </defs>
       <use xlink:href="#ArialMT-17"/>
       <use xlink:href="#ArialMT-13" transform="translate(55.609375 0)"/>
       <use xlink:href="#ArialMT-13" transform="translate(111.21875 0)"/>
      </g>
     </g>
    </g>
    <g id="xtick_3">
     <g id="line2d_3">
      <g>
       <use xlink:href="#me723dee902" x="268.203059" y="303.182656" style="stroke: #000000; stroke-width: 0.8"/>
      </g>
     </g>
     <g id="text_3">
      <!-- 600 -->
      <g transform="translate(256.52509 316.875039) scale(0.14 -0.14)">
       <defs>
        <path id="ArialMT-19" d="M 3184 3459 
L 2625 3416 
Q 2550 3747 2413 3897 
Q 2184 4138 1850 4138 
Q 1581 4138 1378 3988 
Q 1113 3794 959 3422 
Q 806 3050 800 2363 
Q 1003 2672 1297 2822 
Q 1591 2972 1913 2972 
Q 2475 2972 2870 2558 
Q 3266 2144 3266 1488 
Q 3266 1056 3080 686 
Q 2894 316 2569 119 
Q 2244 -78 1831 -78 
Q 1128 -78 684 439 
Q 241 956 241 2144 
Q 241 3472 731 4075 
Q 1159 4600 1884 4600 
Q 2425 4600 2770 4297 
Q 3116 3994 3184 3459 
z
M 888 1484 
Q 888 1194 1011 928 
Q 1134 663 1356 523 
Q 1578 384 1822 384 
Q 2178 384 2434 671 
Q 2691 959 2691 1453 
Q 2691 1928 2437 2201 
Q 2184 2475 1800 2475 
Q 1419 2475 1153 2201 
Q 888 1928 888 1484 
z
" transform="scale(0.015625)"/>
       </defs>
       <use xlink:href="#ArialMT-19"/>
       <use xlink:href="#ArialMT-13" transform="translate(55.609375 0)"/>
       <use xlink:href="#ArialMT-13" transform="translate(111.21875 0)"/>
      </g>
     </g>
    </g>
    <g id="xtick_4">
     <g id="line2d_4">
      <g>
       <use xlink:href="#me723dee902" x="343.695464" y="303.182656" style="stroke: #000000; stroke-width: 0.8"/>
      </g>
     </g>
     <g id="text_4">
      <!-- 800 -->
      <g transform="translate(332.017495 316.875039) scale(0.14 -0.14)">
       <defs>
        <path id="ArialMT-1b" d="M 1131 2484 
Q 781 2613 612 2850 
Q 444 3088 444 3419 
Q 444 3919 803 4259 
Q 1163 4600 1759 4600 
Q 2359 4600 2725 4251 
Q 3091 3903 3091 3403 
Q 3091 3084 2923 2848 
Q 2756 2613 2416 2484 
Q 2838 2347 3058 2040 
Q 3278 1734 3278 1309 
Q 3278 722 2862 322 
Q 2447 -78 1769 -78 
Q 1091 -78 675 323 
Q 259 725 259 1325 
Q 259 1772 486 2073 
Q 713 2375 1131 2484 
z
M 1019 3438 
Q 1019 3113 1228 2906 
Q 1438 2700 1772 2700 
Q 2097 2700 2305 2904 
Q 2513 3109 2513 3406 
Q 2513 3716 2298 3927 
Q 2084 4138 1766 4138 
Q 1444 4138 1231 3931 
Q 1019 3725 1019 3438 
z
M 838 1322 
Q 838 1081 952 856 
Q 1066 631 1291 507 
Q 1516 384 1775 384 
Q 2178 384 2440 643 
Q 2703 903 2703 1303 
Q 2703 1709 2433 1975 
Q 2163 2241 1756 2241 
Q 1359 2241 1098 1978 
Q 838 1716 838 1322 
z
" transform="scale(0.015625)"/>
       </defs>
       <use xlink:href="#ArialMT-1b"/>
       <use xlink:href="#ArialMT-13" transform="translate(55.609375 0)"/>
       <use xlink:href="#ArialMT-13" transform="translate(111.21875 0)"/>
      </g>
     </g>
    </g>
    <g id="xtick_5">
     <g id="line2d_5">
      <g>
       <use xlink:href="#me723dee902" x="419.187869" y="303.182656" style="stroke: #000000; stroke-width: 0.8"/>
      </g>
     </g>
     <g id="text_5">
      <!-- 1000 -->
      <g transform="translate(403.617244 316.875039) scale(0.14 -0.14)">
       <defs>
        <path id="ArialMT-14" d="M 2384 0 
L 1822 0 
L 1822 3584 
Q 1619 3391 1289 3197 
Q 959 3003 697 2906 
L 697 3450 
Q 1169 3672 1522 3987 
Q 1875 4303 2022 4600 
L 2384 4600 
L 2384 0 
z
" transform="scale(0.015625)"/>
       </defs>
       <use xlink:href="#ArialMT-14"/>
       <use xlink:href="#ArialMT-13" transform="translate(55.609375 0)"/>
       <use xlink:href="#ArialMT-13" transform="translate(111.21875 0)"/>
       <use xlink:href="#ArialMT-13" transform="translate(166.828125 0)"/>
      </g>
     </g>
    </g>
    <g id="xtick_6">
     <g id="line2d_6">
      <g>
       <use xlink:href="#me723dee902" x="494.680273" y="303.182656" style="stroke: #000000; stroke-width: 0.8"/>
      </g>
     </g>
     <g id="text_6">
      <!-- 1200 -->
      <g transform="translate(479.109648 316.875039) scale(0.14 -0.14)">
       <use xlink:href="#ArialMT-14"/>
       <use xlink:href="#ArialMT-15" transform="translate(55.609375 0)"/>
       <use xlink:href="#ArialMT-13" transform="translate(111.21875 0)"/>
       <use xlink:href="#ArialMT-13" transform="translate(166.828125 0)"/>
      </g>
     </g>
    </g>
    <g id="xtick_7">
     <g id="line2d_7">
      <defs>
       <path id="m4ab126ccb6" d="M 0 0 
L 0 -3 
" style="stroke: #000000; stroke-width: 0.6"/>
      </defs>
      <g>
       <use xlink:href="#m4ab126ccb6" x="60.598945" y="303.182656" style="stroke: #000000; stroke-width: 0.6"/>
      </g>
     </g>
    </g>
    <g id="xtick_8">
     <g id="line2d_8">
      <g>
       <use xlink:href="#m4ab126ccb6" x="79.472047" y="303.182656" style="stroke: #000000; stroke-width: 0.6"/>
      </g>
     </g>
    </g>
    <g id="xtick_9">
     <g id="line2d_9">
      <g>
       <use xlink:href="#m4ab126ccb6" x="98.345148" y="303.182656" style="stroke: #000000; stroke-width: 0.6"/>
      </g>
     </g>
    </g>
    <g id="xtick_10">
     <g id="line2d_10">
      <g>
       <use xlink:href="#m4ab126ccb6" x="136.09135" y="303.182656" style="stroke: #000000; stroke-width: 0.6"/>
      </g>
     </g>
    </g>
    <g id="xtick_11">
     <g id="line2d_11">
      <g>
       <use xlink:href="#m4ab126ccb6" x="154.964451" y="303.182656" style="stroke: #000000; stroke-width: 0.6"/>
      </g>
     </g>
    </g>
    <g id="xtick_12">
     <g id="line2d_12">
      <g>
       <use xlink:href="#m4ab126ccb6" x="173.837553" y="303.182656" style="stroke: #000000; stroke-width: 0.6"/>
      </g>
     </g>
    </g>
    <g id="xtick_13">
     <g id="line2d_13">
      <g>
       <use xlink:href="#m4ab126ccb6" x="211.583755" y="303.182656" style="stroke: #000000; stroke-width: 0.6"/>
      </g>
     </g>
    </g>
    <g id="xtick_14">
     <g id="line2d_14">
      <g>
       <use xlink:href="#m4ab126ccb6" x="230.456856" y="303.182656" style="stroke: #000000; stroke-width: 0.6"/>
      </g>
     </g>
    </g>
    <g id="xtick_15">
     <g id="line2d_15">
      <g>
       <use xlink:href="#m4ab126ccb6" x="249.329958" y="303.182656" style="stroke: #000000; stroke-width: 0.6"/>
      </g>
     </g>
    </g>
    <g id="xtick_16">
     <g id="line2d_16">
      <g>
       <use xlink:href="#m4ab126ccb6" x="287.07616" y="303.182656" style="stroke: #000000; stroke-width: 0.6"/>
      </g>
     </g>
    </g>
    <g id="xtick_17">
     <g id="line2d_17">
      <g>
       <use xlink:href="#m4ab126ccb6" x="305.949261" y="303.182656" style="stroke: #000000; stroke-width: 0.6"/>
      </g>
     </g>
    </g>
    <g id="xtick_18">
     <g id="line2d_18">
      <g>
       <use xlink:href="#m4ab126ccb6" x="324.822362" y="303.182656" style="stroke: #000000; stroke-width: 0.6"/>
      </g>
     </g>
    </g>
    <g id="xtick_19">
     <g id="line2d_19">
      <g>
       <use xlink:href="#m4ab126ccb6" x="362.568565" y="303.182656" style="stroke: #000000; stroke-width: 0.6"/>
      </g>
     </g>
    </g>
    <g id="xtick_20">
     <g id="line2d_20">
      <g>
       <use xlink:href="#m4ab126ccb6" x="381.441666" y="303.182656" style="stroke: #000000; stroke-width: 0.6"/>
      </g>
     </g>
    </g>
    <g id="xtick_21">
     <g id="line2d_21">
      <g>
       <use xlink:href="#m4ab126ccb6" x="400.314767" y="303.182656" style="stroke: #000000; stroke-width: 0.6"/>
      </g>
     </g>
    </g>
    <g id="xtick_22">
     <g id="line2d_22">
      <g>
       <use xlink:href="#m4ab126ccb6" x="438.06097" y="303.182656" style="stroke: #000000; stroke-width: 0.6"/>
      </g>
     </g>
    </g>
    <g id="xtick_23">
     <g id="line2d_23">
      <g>
       <use xlink:href="#m4ab126ccb6" x="456.934071" y="303.182656" style="stroke: #000000; stroke-width: 0.6"/>
      </g>
     </g>
    </g>
    <g id="xtick_24">
     <g id="line2d_24">
      <g>
       <use xlink:href="#m4ab126ccb6" x="475.807172" y="303.182656" style="stroke: #000000; stroke-width: 0.6"/>
      </g>
     </g>
    </g>
    <g id="text_7">
     <!-- T1 Temperature (°C) -->
     <g transform="translate(213.900234 334.013711) scale(0.14 -0.14)">
      <defs>
       <path id="ArialMT-37" d="M 1659 0 
L 1659 4041 
L 150 4041 
L 150 4581 
L 3781 4581 
L 3781 4041 
L 2266 4041 
L 2266 0 
L 1659 0 
z
" transform="scale(0.015625)"/>
       <path id="ArialMT-3" transform="scale(0.015625)"/>
       <path id="ArialMT-48" d="M 2694 1069 
L 3275 997 
Q 3138 488 2766 206 
Q 2394 -75 1816 -75 
Q 1088 -75 661 373 
Q 234 822 234 1631 
Q 234 2469 665 2931 
Q 1097 3394 1784 3394 
Q 2450 3394 2872 2941 
Q 3294 2488 3294 1666 
Q 3294 1616 3291 1516 
L 816 1516 
Q 847 969 1125 678 
Q 1403 388 1819 388 
Q 2128 388 2347 550 
Q 2566 713 2694 1069 
z
M 847 1978 
L 2700 1978 
Q 2663 2397 2488 2606 
Q 2219 2931 1791 2931 
Q 1403 2931 1139 2672 
Q 875 2413 847 1978 
z
" transform="scale(0.015625)"/>
       <path id="ArialMT-50" d="M 422 0 
L 422 3319 
L 925 3319 
L 925 2853 
Q 1081 3097 1340 3245 
Q 1600 3394 1931 3394 
Q 2300 3394 2536 3241 
Q 2772 3088 2869 2813 
Q 3263 3394 3894 3394 
Q 4388 3394 4653 3120 
Q 4919 2847 4919 2278 
L 4919 0 
L 4359 0 
L 4359 2091 
Q 4359 2428 4304 2576 
Q 4250 2725 4106 2815 
Q 3963 2906 3769 2906 
Q 3419 2906 3187 2673 
Q 2956 2441 2956 1928 
L 2956 0 
L 2394 0 
L 2394 2156 
Q 2394 2531 2256 2718 
Q 2119 2906 1806 2906 
Q 1569 2906 1367 2781 
Q 1166 2656 1075 2415 
Q 984 2175 984 1722 
L 984 0 
L 422 0 
z
" transform="scale(0.015625)"/>
       <path id="ArialMT-53" d="M 422 -1272 
L 422 3319 
L 934 3319 
L 934 2888 
Q 1116 3141 1344 3267 
Q 1572 3394 1897 3394 
Q 2322 3394 2647 3175 
Q 2972 2956 3137 2557 
Q 3303 2159 3303 1684 
Q 3303 1175 3120 767 
Q 2938 359 2589 142 
Q 2241 -75 1856 -75 
Q 1575 -75 1351 44 
Q 1128 163 984 344 
L 984 -1272 
L 422 -1272 
z
M 931 1641 
Q 931 1000 1190 694 
Q 1450 388 1819 388 
Q 2194 388 2461 705 
Q 2728 1022 2728 1688 
Q 2728 2322 2467 2637 
Q 2206 2953 1844 2953 
Q 1484 2953 1207 2617 
Q 931 2281 931 1641 
z
" transform="scale(0.015625)"/>
       <path id="ArialMT-55" d="M 416 0 
L 416 3319 
L 922 3319 
L 922 2816 
Q 1116 3169 1280 3281 
Q 1444 3394 1641 3394 
Q 1925 3394 2219 3213 
L 2025 2691 
Q 1819 2813 1613 2813 
Q 1428 2813 1281 2702 
Q 1134 2591 1072 2394 
Q 978 2094 978 1738 
L 978 0 
L 416 0 
z
" transform="scale(0.015625)"/>
       <path id="ArialMT-44" d="M 2588 409 
Q 2275 144 1986 34 
Q 1697 -75 1366 -75 
Q 819 -75 525 192 
Q 231 459 231 875 
Q 231 1119 342 1320 
Q 453 1522 633 1644 
Q 813 1766 1038 1828 
Q 1203 1872 1538 1913 
Q 2219 1994 2541 2106 
Q 2544 2222 2544 2253 
Q 2544 2597 2384 2738 
Q 2169 2928 1744 2928 
Q 1347 2928 1158 2789 
Q 969 2650 878 2297 
L 328 2372 
Q 403 2725 575 2942 
Q 747 3159 1072 3276 
Q 1397 3394 1825 3394 
Q 2250 3394 2515 3294 
Q 2781 3194 2906 3042 
Q 3031 2891 3081 2659 
Q 3109 2516 3109 2141 
L 3109 1391 
Q 3109 606 3145 398 
Q 3181 191 3288 0 
L 2700 0 
Q 2613 175 2588 409 
z
M 2541 1666 
Q 2234 1541 1622 1453 
Q 1275 1403 1131 1340 
Q 988 1278 909 1158 
Q 831 1038 831 891 
Q 831 666 1001 516 
Q 1172 366 1500 366 
Q 1825 366 2078 508 
Q 2331 650 2450 897 
Q 2541 1088 2541 1459 
L 2541 1666 
z
" transform="scale(0.015625)"/>
       <path id="ArialMT-57" d="M 1650 503 
L 1731 6 
Q 1494 -44 1306 -44 
Q 1000 -44 831 53 
Q 663 150 594 308 
Q 525 466 525 972 
L 525 2881 
L 113 2881 
L 113 3319 
L 525 3319 
L 525 4141 
L 1084 4478 
L 1084 3319 
L 1650 3319 
L 1650 2881 
L 1084 2881 
L 1084 941 
Q 1084 700 1114 631 
Q 1144 563 1211 522 
Q 1278 481 1403 481 
Q 1497 481 1650 503 
z
" transform="scale(0.015625)"/>
       <path id="ArialMT-58" d="M 2597 0 
L 2597 488 
Q 2209 -75 1544 -75 
Q 1250 -75 995 37 
Q 741 150 617 320 
Q 494 491 444 738 
Q 409 903 409 1263 
L 409 3319 
L 972 3319 
L 972 1478 
Q 972 1038 1006 884 
Q 1059 663 1231 536 
Q 1403 409 1656 409 
Q 1909 409 2131 539 
Q 2353 669 2445 892 
Q 2538 1116 2538 1541 
L 2538 3319 
L 3100 3319 
L 3100 0 
L 2597 0 
z
" transform="scale(0.015625)"/>
       <path id="ArialMT-b" d="M 1497 -1347 
Q 1031 -759 709 28 
Q 388 816 388 1659 
Q 388 2403 628 3084 
Q 909 3875 1497 4659 
L 1900 4659 
Q 1522 4009 1400 3731 
Q 1209 3300 1100 2831 
Q 966 2247 966 1656 
Q 966 153 1900 -1347 
L 1497 -1347 
z
" transform="scale(0.015625)"/>
       <path id="ArialMT-83" d="M 400 3794 
Q 400 4153 654 4406 
Q 909 4659 1266 4659 
Q 1628 4659 1881 4406 
Q 2134 4153 2134 3794 
Q 2134 3434 1879 3179 
Q 1625 2925 1266 2925 
Q 909 2925 654 3178 
Q 400 3431 400 3794 
z
M 741 3794 
Q 741 3575 895 3420 
Q 1050 3266 1269 3266 
Q 1484 3266 1639 3420 
Q 1794 3575 1794 3794 
Q 1794 4013 1639 4167 
Q 1484 4322 1269 4322 
Q 1050 4322 895 4167 
Q 741 4013 741 3794 
z
" transform="scale(0.015625)"/>
       <path id="ArialMT-26" d="M 3763 1606 
L 4369 1453 
Q 4178 706 3683 314 
Q 3188 -78 2472 -78 
Q 1731 -78 1267 223 
Q 803 525 561 1097 
Q 319 1669 319 2325 
Q 319 3041 592 3573 
Q 866 4106 1370 4382 
Q 1875 4659 2481 4659 
Q 3169 4659 3637 4309 
Q 4106 3959 4291 3325 
L 3694 3184 
Q 3534 3684 3231 3912 
Q 2928 4141 2469 4141 
Q 1941 4141 1586 3887 
Q 1231 3634 1087 3207 
Q 944 2781 944 2328 
Q 944 1744 1114 1308 
Q 1284 872 1643 656 
Q 2003 441 2422 441 
Q 2931 441 3284 734 
Q 3638 1028 3763 1606 
z
" transform="scale(0.015625)"/>
       <path id="ArialMT-c" d="M 791 -1347 
L 388 -1347 
Q 1322 153 1322 1656 
Q 1322 2244 1188 2822 
Q 1081 3291 891 3722 
Q 769 4003 388 4659 
L 791 4659 
Q 1378 3875 1659 3084 
Q 1900 2403 1900 1659 
Q 1900 816 1576 28 
Q 1253 -759 791 -1347 
z
" transform="scale(0.015625)"/>
      </defs>
      <use xlink:href="#ArialMT-37"/>
      <use xlink:href="#ArialMT-14" transform="translate(61.078125 0)"/>
      <use xlink:href="#ArialMT-3" transform="translate(116.6875 0)"/>
      <use xlink:href="#ArialMT-37" transform="translate(142.65625 0)"/>
      <use xlink:href="#ArialMT-48" transform="translate(192.65625 0)"/>
      <use xlink:href="#ArialMT-50" transform="translate(248.265625 0)"/>
      <use xlink:href="#ArialMT-53" transform="translate(331.5625 0)"/>
      <use xlink:href="#ArialMT-48" transform="translate(387.171875 0)"/>
      <use xlink:href="#ArialMT-55" transform="translate(442.78125 0)"/>
      <use xlink:href="#ArialMT-44" transform="translate(476.078125 0)"/>
      <use xlink:href="#ArialMT-57" transform="translate(531.6875 0)"/>
      <use xlink:href="#ArialMT-58" transform="translate(559.46875 0)"/>
      <use xlink:href="#ArialMT-55" transform="translate(615.078125 0)"/>
      <use xlink:href="#ArialMT-48" transform="translate(648.375 0)"/>
      <use xlink:href="#ArialMT-3" transform="translate(703.984375 0)"/>
      <use xlink:href="#ArialMT-b" transform="translate(731.765625 0)"/>
      <use xlink:href="#ArialMT-83" transform="translate(765.0625 0)"/>
      <use xlink:href="#ArialMT-26" transform="translate(805.046875 0)"/>
      <use xlink:href="#ArialMT-c" transform="translate(877.265625 0)"/>
     </g>
    </g>
   </g>
   <g id="matplotlib.axis_2">
    <g id="ytick_1">
     <g id="line2d_25">
      <defs>
       <path id="me2c4039b6d" d="M 0 0 
L 6 0 
" style="stroke: #000000; stroke-width: 0.8"/>
      </defs>
      <g>
       <use xlink:href="#me2c4039b6d" x="60.598945" y="200.96176" style="stroke: #000000; stroke-width: 0.8"/>
      </g>
     </g>
     <g id="text_8">
      <!-- $\mathdefault{10^{-13}}$ -->
      <g transform="translate(24.338945 207.40176) scale(0.14 -0.14)">
       <defs>
        <path id="ArialMT-ed" d="M 3381 1997 
L 356 1997 
L 356 2522 
L 3381 2522 
L 3381 1997 
z
" transform="scale(0.015625)"/>
        <path id="ArialMT-16" d="M 269 1209 
L 831 1284 
Q 928 806 1161 595 
Q 1394 384 1728 384 
Q 2125 384 2398 659 
Q 2672 934 2672 1341 
Q 2672 1728 2419 1979 
Q 2166 2231 1775 2231 
Q 1616 2231 1378 2169 
L 1441 2663 
Q 1497 2656 1531 2656 
Q 1891 2656 2178 2843 
Q 2466 3031 2466 3422 
Q 2466 3731 2256 3934 
Q 2047 4138 1716 4138 
Q 1388 4138 1169 3931 
Q 950 3725 888 3313 
L 325 3413 
Q 428 3978 793 4289 
Q 1159 4600 1703 4600 
Q 2078 4600 2393 4439 
Q 2709 4278 2876 4000 
Q 3044 3722 3044 3409 
Q 3044 3113 2884 2869 
Q 2725 2625 2413 2481 
Q 2819 2388 3044 2092 
Q 3269 1797 3269 1353 
Q 3269 753 2831 336 
Q 2394 -81 1725 -81 
Q 1122 -81 723 278 
Q 325 638 269 1209 
z
" transform="scale(0.015625)"/>
       </defs>
       <use xlink:href="#ArialMT-14" transform="translate(0 0.3875)"/>
       <use xlink:href="#ArialMT-13" transform="translate(55.615234 0.3875)"/>
       <use xlink:href="#ArialMT-ed" transform="translate(112.1875 41.6875) scale(0.7)"/>
       <use xlink:href="#ArialMT-14" transform="translate(153.066406 41.6875) scale(0.7)"/>
       <use xlink:href="#ArialMT-16" transform="translate(191.99707 41.6875) scale(0.7)"/>
      </g>
     </g>
    </g>
    <g id="ytick_2">
     <g id="line2d_26">
      <g>
       <use xlink:href="#me2c4039b6d" x="60.598945" y="97.683014" style="stroke: #000000; stroke-width: 0.8"/>
      </g>
     </g>
     <g id="text_9">
      <!-- $\mathdefault{10^{-12}}$ -->
      <g transform="translate(24.338945 104.123014) scale(0.14 -0.14)">
       <use xlink:href="#ArialMT-14" transform="translate(0 0.3875)"/>
       <use xlink:href="#ArialMT-13" transform="translate(55.615234 0.3875)"/>
       <use xlink:href="#ArialMT-ed" transform="translate(112.1875 41.6875) scale(0.7)"/>
       <use xlink:href="#ArialMT-14" transform="translate(153.066406 41.6875) scale(0.7)"/>
       <use xlink:href="#ArialMT-15" transform="translate(191.99707 41.6875) scale(0.7)"/>
      </g>
     </g>
    </g>
    <g id="ytick_3">
     <g id="line2d_27">
      <defs>
       <path id="m13fbfaed4f" d="M 0 0 
L 3 0 
" style="stroke: #000000; stroke-width: 0.6"/>
      </defs>
      <g>
       <use xlink:href="#m13fbfaed4f" x="60.598945" y="273.150506" style="stroke: #000000; stroke-width: 0.6"/>
      </g>
     </g>
    </g>
    <g id="ytick_4">
     <g id="line2d_28">
      <g>
       <use xlink:href="#m13fbfaed4f" x="60.598945" y="254.964021" style="stroke: #000000; stroke-width: 0.6"/>
      </g>
     </g>
    </g>
    <g id="ytick_5">
     <g id="line2d_29">
      <g>
       <use xlink:href="#m13fbfaed4f" x="60.598945" y="242.060505" style="stroke: #000000; stroke-width: 0.6"/>
      </g>
     </g>
    </g>
    <g id="ytick_6">
     <g id="line2d_30">
      <g>
       <use xlink:href="#m13fbfaed4f" x="60.598945" y="232.051761" style="stroke: #000000; stroke-width: 0.6"/>
      </g>
     </g>
    </g>
    <g id="ytick_7">
     <g id="line2d_31">
      <g>
       <use xlink:href="#m13fbfaed4f" x="60.598945" y="223.874021" style="stroke: #000000; stroke-width: 0.6"/>
      </g>
     </g>
    </g>
    <g id="ytick_8">
     <g id="line2d_32">
      <g>
       <use xlink:href="#m13fbfaed4f" x="60.598945" y="216.95984" style="stroke: #000000; stroke-width: 0.6"/>
      </g>
     </g>
    </g>
    <g id="ytick_9">
     <g id="line2d_33">
      <g>
       <use xlink:href="#m13fbfaed4f" x="60.598945" y="210.970505" style="stroke: #000000; stroke-width: 0.6"/>
      </g>
     </g>
    </g>
    <g id="ytick_10">
     <g id="line2d_34">
      <g>
       <use xlink:href="#m13fbfaed4f" x="60.598945" y="205.687536" style="stroke: #000000; stroke-width: 0.6"/>
      </g>
     </g>
    </g>
    <g id="ytick_11">
     <g id="line2d_35">
      <g>
       <use xlink:href="#m13fbfaed4f" x="60.598945" y="169.87176" style="stroke: #000000; stroke-width: 0.6"/>
      </g>
     </g>
    </g>
    <g id="ytick_12">
     <g id="line2d_36">
      <g>
       <use xlink:href="#m13fbfaed4f" x="60.598945" y="151.685275" style="stroke: #000000; stroke-width: 0.6"/>
      </g>
     </g>
    </g>
    <g id="ytick_13">
     <g id="line2d_37">
      <g>
       <use xlink:href="#m13fbfaed4f" x="60.598945" y="138.781759" style="stroke: #000000; stroke-width: 0.6"/>
      </g>
     </g>
    </g>
    <g id="ytick_14">
     <g id="line2d_38">
      <g>
       <use xlink:href="#m13fbfaed4f" x="60.598945" y="128.773014" style="stroke: #000000; stroke-width: 0.6"/>
      </g>
     </g>
    </g>
    <g id="ytick_15">
     <g id="line2d_39">
      <g>
       <use xlink:href="#m13fbfaed4f" x="60.598945" y="120.595275" style="stroke: #000000; stroke-width: 0.6"/>
      </g>
     </g>
    </g>
    <g id="ytick_16">
     <g id="line2d_40">
      <g>
       <use xlink:href="#m13fbfaed4f" x="60.598945" y="113.681094" style="stroke: #000000; stroke-width: 0.6"/>
      </g>
     </g>
    </g>
    <g id="ytick_17">
     <g id="line2d_41">
      <g>
       <use xlink:href="#m13fbfaed4f" x="60.598945" y="107.691758" style="stroke: #000000; stroke-width: 0.6"/>
      </g>
     </g>
    </g>
    <g id="ytick_18">
     <g id="line2d_42">
      <g>
       <use xlink:href="#m13fbfaed4f" x="60.598945" y="102.40879" style="stroke: #000000; stroke-width: 0.6"/>
      </g>
     </g>
    </g>
    <g id="ytick_19">
     <g id="line2d_43">
      <g>
       <use xlink:href="#m13fbfaed4f" x="60.598945" y="66.593013" style="stroke: #000000; stroke-width: 0.6"/>
      </g>
     </g>
    </g>
    <g id="ytick_20">
     <g id="line2d_44">
      <g>
       <use xlink:href="#m13fbfaed4f" x="60.598945" y="48.406529" style="stroke: #000000; stroke-width: 0.6"/>
      </g>
     </g>
    </g>
    <g id="text_10">
     <!-- Ion Current (m/z 12) -->
     <g transform="translate(17.392383 234.056768) rotate(-90) scale(0.14 -0.14)">
      <defs>
       <path id="ArialMT-2c" d="M 597 0 
L 597 4581 
L 1203 4581 
L 1203 0 
L 597 0 
z
" transform="scale(0.015625)"/>
       <path id="ArialMT-52" d="M 213 1659 
Q 213 2581 725 3025 
Q 1153 3394 1769 3394 
Q 2453 3394 2887 2945 
Q 3322 2497 3322 1706 
Q 3322 1066 3130 698 
Q 2938 331 2570 128 
Q 2203 -75 1769 -75 
Q 1072 -75 642 372 
Q 213 819 213 1659 
z
M 791 1659 
Q 791 1022 1069 705 
Q 1347 388 1769 388 
Q 2188 388 2466 706 
Q 2744 1025 2744 1678 
Q 2744 2294 2464 2611 
Q 2184 2928 1769 2928 
Q 1347 2928 1069 2612 
Q 791 2297 791 1659 
z
" transform="scale(0.015625)"/>
       <path id="ArialMT-51" d="M 422 0 
L 422 3319 
L 928 3319 
L 928 2847 
Q 1294 3394 1984 3394 
Q 2284 3394 2536 3286 
Q 2788 3178 2913 3003 
Q 3038 2828 3088 2588 
Q 3119 2431 3119 2041 
L 3119 0 
L 2556 0 
L 2556 2019 
Q 2556 2363 2490 2533 
Q 2425 2703 2258 2804 
Q 2091 2906 1866 2906 
Q 1506 2906 1245 2678 
Q 984 2450 984 1813 
L 984 0 
L 422 0 
z
" transform="scale(0.015625)"/>
       <path id="ArialMT-12" d="M 0 -78 
L 1328 4659 
L 1778 4659 
L 453 -78 
L 0 -78 
z
" transform="scale(0.015625)"/>
       <path id="ArialMT-5d" d="M 125 0 
L 125 456 
L 2238 2881 
Q 1878 2863 1603 2863 
L 250 2863 
L 250 3319 
L 2963 3319 
L 2963 2947 
L 1166 841 
L 819 456 
Q 1197 484 1528 484 
L 3063 484 
L 3063 0 
L 125 0 
z
" transform="scale(0.015625)"/>
      </defs>
      <use xlink:href="#ArialMT-2c"/>
      <use xlink:href="#ArialMT-52" transform="translate(27.78125 0)"/>
      <use xlink:href="#ArialMT-51" transform="translate(83.390625 0)"/>
      <use xlink:href="#ArialMT-3" transform="translate(139 0)"/>
      <use xlink:href="#ArialMT-26" transform="translate(166.78125 0)"/>
      <use xlink:href="#ArialMT-58" transform="translate(239 0)"/>
      <use xlink:href="#ArialMT-55" transform="translate(294.609375 0)"/>
      <use xlink:href="#ArialMT-55" transform="translate(327.90625 0)"/>
      <use xlink:href="#ArialMT-48" transform="translate(361.203125 0)"/>
      <use xlink:href="#ArialMT-51" transform="translate(416.8125 0)"/>
      <use xlink:href="#ArialMT-57" transform="translate(472.421875 0)"/>
      <use xlink:href="#ArialMT-3" transform="translate(500.203125 0)"/>
      <use xlink:href="#ArialMT-b" transform="translate(527.984375 0)"/>
      <use xlink:href="#ArialMT-50" transform="translate(561.28125 0)"/>
      <use xlink:href="#ArialMT-12" transform="translate(644.578125 0)"/>
      <use xlink:href="#ArialMT-5d" transform="translate(672.359375 0)"/>
      <use xlink:href="#ArialMT-3" transform="translate(722.359375 0)"/>
      <use xlink:href="#ArialMT-14" transform="translate(750.140625 0)"/>
      <use xlink:href="#ArialMT-15" transform="translate(805.75 0)"/>
      <use xlink:href="#ArialMT-c" transform="translate(861.359375 0)"/>
     </g>
    </g>
   </g>
   <g id="line2d_45">
    <path d="M 59.617544 246.749341 
L 59.579798 268.527321 
L 59.542052 261.411525 
L 59.806275 276.946788 
L 60.598945 277.322779 
L 62.108793 269.02491 
L 64.298073 264.972979 
L 66.600592 265.228554 
L 68.714379 255.449964 
L 70.48845 255.522876 
L 71.960552 262.717612 
L 73.243923 260.024648 
L 74.376309 254.628383 
L 75.470949 257.75821 
L 76.527843 258.832392 
L 77.660229 262.448966 
L 78.754869 261.559996 
L 79.887255 266.000068 
L 81.095133 275.825188 
L 82.303012 282.189519 
L 83.473144 291.205218 
L 84.681022 277.861929 
L 85.888901 268.048002 
L 87.210018 264.744131 
L 88.531135 266.131669 
L 89.77676 262.950331 
L 91.022384 251.84578 
L 93.438141 261.861538 
L 94.608274 259.503012 
L 95.778406 262.541263 
L 96.948538 258.412841 
L 98.080924 259.284516 
L 100.534428 253.002665 
L 101.70456 247.572356 
L 102.874692 247.268885 
L 104.044824 252.828839 
L 105.214957 253.324047 
L 107.592967 270.843304 
L 108.725353 271.726858 
L 109.85774 274.774758 
L 110.990126 273.828284 
L 112.198004 270.266538 
L 114.576015 257.397005 
L 115.783893 254.075981 
L 116.991772 257.715641 
L 118.124158 265.304253 
L 119.29429 265.829128 
L 120.464422 267.22819 
L 121.672301 270.089069 
L 122.842433 272.308502 
L 124.050312 267.933964 
L 125.295936 261.878596 
L 126.503815 254.136312 
L 127.673947 262.665443 
L 128.844079 264.963361 
L 130.014212 256.14685 
L 131.184344 260.574086 
L 132.354476 252.025637 
L 133.524608 249.706575 
L 134.656995 249.861234 
L 135.864873 239.935295 
L 137.072751 235.241115 
L 138.318376 232.091955 
L 139.526255 236.499741 
L 140.696387 235.809328 
L 141.791027 236.853237 
L 142.998905 245.719475 
L 144.131291 241.582988 
L 145.301424 244.900608 
L 146.471556 243.396382 
L 147.641688 235.411749 
L 148.887313 235.363991 
L 150.095191 227.823235 
L 151.227577 224.150501 
L 152.435456 222.475427 
L 153.605588 221.496658 
L 154.77572 224.078586 
L 156.021345 221.723035 
L 157.153731 220.55106 
L 158.286117 219.201182 
L 159.45625 219.864215 
L 160.626382 219.169094 
L 161.872006 211.1338 
L 163.042139 208.597428 
L 164.250017 204.408787 
L 165.42015 201.293235 
L 166.628028 199.559323 
L 167.79816 190.772507 
L 169.006039 184.733456 
L 171.270811 174.303167 
L 172.440943 169.947155 
L 173.648822 168.129799 
L 174.818954 166.097781 
L 175.989086 163.688016 
L 177.196965 163.428513 
L 179.499483 157.61914 
L 180.707361 154.056391 
L 181.877494 150.975256 
L 183.047626 147.561134 
L 184.255505 145.711631 
L 185.387891 144.27792 
L 186.558023 141.326167 
L 187.765901 138.890538 
L 188.97378 138.431192 
L 192.559669 128.396934 
L 193.767548 124.014031 
L 197.353437 107.179266 
L 199.655955 99.898609 
L 201.958473 95.095987 
L 203.09086 93.081932 
L 205.506617 91.407571 
L 206.676749 90.980627 
L 207.846881 90.317563 
L 209.05476 91.45583 
L 210.187146 92.81069 
L 211.395024 93.184592 
L 212.565156 92.642063 
L 213.773035 89.96174 
L 217.283432 76.160497 
L 218.529056 70.386214 
L 220.793828 61.659741 
L 221.963961 58.032325 
L 223.171839 56.83191 
L 224.341972 56.186014 
L 225.512104 56.335287 
L 226.719982 58.11087 
L 227.852368 60.840245 
L 232.532897 74.243576 
L 233.70303 77.149078 
L 234.873162 81.068513 
L 236.005548 83.416174 
L 237.251173 88.256743 
L 238.383559 89.807555 
L 239.591437 89.786545 
L 240.76157 89.302473 
L 241.931702 87.922246 
L 243.13958 85.841521 
L 244.271966 85.491458 
L 245.479845 85.237549 
L 246.649977 86.673718 
L 247.857856 89.938444 
L 248.990242 96.524062 
L 250.160374 98.842359 
L 251.330506 103.692479 
L 253.708517 111.054454 
L 254.840903 112.274242 
L 256.048782 113.956483 
L 257.218914 113.710852 
L 258.426792 113.667739 
L 259.634671 113.446481 
L 260.767057 113.953175 
L 261.974935 113.287628 
L 263.182814 114.426336 
L 264.352946 115.366312 
L 266.693211 118.746503 
L 267.901089 118.807359 
L 269.033475 119.851673 
L 270.203607 119.940388 
L 271.335994 121.173756 
L 272.506126 120.950903 
L 273.751751 120.499605 
L 274.884137 120.564923 
L 276.092015 121.684121 
L 277.262147 121.760746 
L 278.43228 120.640039 
L 279.564666 119.150319 
L 280.772544 119.859708 
L 281.942676 119.194294 
L 283.112809 119.623915 
L 284.282941 119.16571 
L 285.490819 117.80717 
L 287.831084 114.032138 
L 289.001216 111.37196 
L 290.209095 109.478792 
L 291.341481 108.284437 
L 292.511613 106.85064 
L 293.719492 107.428034 
L 294.889624 107.088006 
L 297.267635 103.66758 
L 298.400021 101.64087 
L 299.607899 99.719863 
L 300.740285 99.137162 
L 301.910418 96.673927 
L 303.042804 93.870812 
L 304.212936 90.538188 
L 305.496307 88.312928 
L 306.704185 84.590654 
L 307.94981 82.315723 
L 309.119942 80.637133 
L 310.327821 80.0974 
L 311.535699 80.63576 
L 312.743578 82.915914 
L 313.875964 84.01404 
L 316.216228 88.568457 
L 317.348614 90.162772 
L 318.518747 92.442054 
L 319.651133 95.05321 
L 320.896757 95.771016 
L 322.06689 97.636236 
L 323.237022 99.047582 
L 324.407154 101.419131 
L 325.615033 102.362891 
L 326.747419 103.853149 
L 327.879805 104.833098 
L 329.049937 103.551074 
L 330.257816 103.734191 
L 332.635826 102.916636 
L 333.768212 102.960498 
L 334.976091 101.707955 
L 337.316355 101.53714 
L 339.618874 101.841904 
L 340.789006 101.607324 
L 341.996885 102.02998 
L 343.167017 102.805139 
L 344.337149 104.183094 
L 345.469535 106.064916 
L 346.71516 106.81685 
L 347.847546 108.09416 
L 349.017678 109.631425 
L 350.225557 110.592086 
L 351.395689 112.70044 
L 352.565821 113.626276 
L 353.7737 113.450569 
L 354.906086 113.937059 
L 356.076218 114.012613 
L 357.208604 115.647601 
L 358.454229 115.171814 
L 359.624361 115.501492 
L 360.794493 115.46311 
L 361.964626 115.2062 
L 363.097012 115.930701 
L 364.30489 114.53724 
L 366.645155 113.39437 
L 367.815287 112.410949 
L 369.023165 112.598391 
L 370.117805 111.322902 
L 371.287938 111.188191 
L 372.495816 109.168806 
L 373.703695 108.457441 
L 374.798334 108.928647 
L 375.930721 107.823249 
L 377.214091 106.279418 
L 378.308731 104.44844 
L 380.913219 101.686418 
L 384.725586 95.577716 
L 385.857972 94.526666 
L 387.103596 93.75432 
L 389.368369 90.101323 
L 390.651739 88.131522 
L 391.821872 87.493539 
L 392.992004 87.020686 
L 394.162136 86.267346 
L 398.880412 84.004621 
L 400.012798 83.051628 
L 402.353062 81.425807 
L 403.560941 81.474882 
L 404.768819 81.870884 
L 405.938951 81.351337 
L 407.071338 81.41423 
L 408.203724 81.221717 
L 409.524841 81.659168 
L 410.581734 81.16709 
L 414.054385 80.537592 
L 415.30001 80.434719 
L 416.470142 80.880675 
L 417.640274 81.103836 
L 420.093777 83.604437 
L 421.150671 85.425287 
L 422.35855 85.955613 
L 423.415443 87.39853 
L 424.925291 89.181229 
L 425.982185 89.65387 
L 428.284703 92.779266 
L 429.454836 93.858616 
L 430.624968 95.84122 
L 431.757354 96.871467 
L 432.927486 97.715382 
L 434.022126 99.197938 
L 435.305497 100.584725 
L 436.437883 101.9979 
L 437.608015 102.308289 
L 438.778148 104.017029 
L 439.910534 105.96369 
L 441.269397 105.50765 
L 442.326291 106.524909 
L 443.534169 106.1296 
L 444.666555 106.300213 
L 445.949926 107.713775 
L 446.931327 107.639899 
L 448.139206 107.394508 
L 449.347084 107.674925 
L 450.47947 108.872747 
L 451.762841 109.720324 
L 452.932974 108.631615 
L 455.122253 108.981737 
L 456.632101 109.14464 
L 457.953218 109.041132 
L 459.236589 107.38244 
L 460.595453 106.689299 
L 461.576854 105.059543 
L 462.935717 103.920349 
L 463.992611 102.063158 
L 466.332875 100.255961 
L 467.5785 99.976871 
L 468.559901 98.963551 
L 469.994257 97.094984 
L 470.900166 95.612403 
L 472.221283 93.836024 
L 473.353669 90.937403 
L 474.63704 88.764283 
L 475.656187 86.092697 
L 481.506849 74.957438 
L 485.092738 70.585947 
L 487.470749 65.377347 
L 488.565389 62.469522 
L 492.189024 54.324365 
L 493.434649 52.088914 
L 493.434649 52.088914 
" clip-path="url(#p893947d7ba)" style="fill: none; stroke: #000000; stroke-width: 2.5; stroke-linecap: square"/>
   </g>
   <g id="line2d_46">
    <path d="M 59.013605 257.043511 
L 59.013605 261.099569 
L 58.938112 250.018484 
L 59.013605 253.148894 
L 59.466559 248.704565 
L 60.523453 252.058995 
L 62.297524 263.661219 
L 64.52455 273.926251 
L 66.71383 273.311555 
L 68.638886 283.521603 
L 70.261973 281.669979 
L 71.658583 277.696207 
L 72.866461 269.377188 
L 73.961101 265.581821 
L 75.055741 255.422494 
L 76.150381 254.102659 
L 77.245021 260.087237 
L 78.377407 263.667108 
L 79.547539 263.414876 
L 80.717671 271.179917 
L 81.887803 270.110097 
L 83.095682 287.472124 
L 84.30356 283.945673 
L 85.511439 278.184762 
L 86.832556 268.162919 
L 88.115927 263.004545 
L 89.399298 263.016122 
L 91.890547 246.2545 
L 93.098426 248.55707 
L 94.268558 248.926251 
L 95.43869 254.700277 
L 96.608822 250.844612 
L 97.778955 252.679841 
L 98.949087 257.285464 
L 100.119219 257.802381 
L 101.327098 266.757043 
L 102.49723 274.193691 
L 103.667362 268.42748 
L 104.837495 272.758352 
L 106.007627 257.927008 
L 107.140013 254.551459 
L 108.272399 253.395945 
L 109.480277 249.695132 
L 110.688156 248.702097 
L 113.066167 267.661815 
L 114.198553 275.764503 
L 115.406431 271.56733 
L 116.576564 266.460102 
L 117.746696 259.289694 
L 118.916828 259.698855 
L 120.08696 262.3518 
L 121.332585 261.314729 
L 122.502717 258.65733 
L 123.67285 270.911768 
L 124.880728 260.350442 
L 126.05086 259.863161 
L 127.258739 248.621472 
L 128.428871 245.673036 
L 129.599003 247.824942 
L 130.806882 247.775348 
L 131.977014 242.671825 
L 134.317279 245.756067 
L 135.525157 251.343275 
L 136.695289 248.228899 
L 137.865422 248.282342 
L 139.035554 244.236752 
L 140.243432 245.81498 
L 141.413565 245.323845 
L 142.621443 244.342111 
L 143.791576 235.385953 
L 144.999454 233.975564 
L 146.169586 234.254664 
L 147.339719 228.802031 
L 148.547597 225.777337 
L 149.717729 226.454318 
L 152.09574 220.310288 
L 153.303619 213.942184 
L 154.473751 212.609904 
L 156.738523 206.95037 
L 157.908655 205.006991 
L 159.116534 203.853842 
L 160.286666 201.808928 
L 162.740169 196.501561 
L 163.948048 190.333559 
L 165.080434 181.880057 
L 166.288312 178.692111 
L 167.458444 174.656708 
L 168.628577 171.384016 
L 169.836455 170.460792 
L 171.006587 171.784622 
L 172.101227 171.250918 
L 173.309106 171.950156 
L 174.441492 172.343234 
L 175.611624 166.699039 
L 176.819503 163.518715 
L 181.537778 148.993092 
L 182.670164 147.006256 
L 183.840296 144.037725 
L 185.010429 141.860678 
L 186.218307 138.875764 
L 188.596318 133.636953 
L 189.76645 130.132485 
L 190.974329 127.959045 
L 192.182207 125.203741 
L 193.427832 120.516991 
L 195.73035 113.384956 
L 196.975975 110.200509 
L 198.146107 106.547715 
L 199.278493 105.229804 
L 200.448625 103.340625 
L 201.618758 102.610969 
L 202.826636 102.479501 
L 205.129154 104.216684 
L 207.469419 106.408135 
L 208.639551 106.216001 
L 209.885176 105.346677 
L 211.017562 104.811311 
L 212.225441 101.426562 
L 214.527959 96.550965 
L 215.773584 95.703163 
L 216.90597 94.341926 
L 218.076102 92.021987 
L 219.28398 91.232559 
L 220.454113 89.57103 
L 221.586499 89.034171 
L 222.756631 87.929011 
L 223.926763 87.257373 
L 225.096896 88.139033 
L 226.304774 88.787568 
L 227.512653 89.616842 
L 228.682785 90.743584 
L 229.815171 92.035113 
L 230.985303 93.802747 
L 232.155435 94.674618 
L 233.325568 95.298788 
L 234.533446 95.498727 
L 236.873711 97.853809 
L 238.043843 97.926079 
L 239.251721 98.135765 
L 240.421854 99.298053 
L 241.591986 101.036257 
L 242.762118 101.58844 
L 243.932251 101.586375 
L 245.102383 100.633592 
L 246.272515 100.536401 
L 247.442647 100.95879 
L 248.575033 102.357439 
L 249.782912 104.22585 
L 251.028537 105.775588 
L 252.198669 108.181757 
L 253.368801 110.971713 
L 254.57668 112.271989 
L 255.709066 113.91145 
L 256.879198 113.942997 
L 258.124823 114.937108 
L 259.257209 115.402789 
L 260.502833 116.256157 
L 262.805352 117.445923 
L 263.975484 117.226658 
L 265.145616 117.627213 
L 266.353495 117.647762 
L 267.523627 118.816393 
L 268.693759 119.458625 
L 269.901638 121.605213 
L 270.996278 121.931654 
L 272.16641 122.01253 
L 273.374288 121.221458 
L 274.544421 121.472551 
L 276.884685 118.685397 
L 278.092564 117.696465 
L 279.22495 117.435387 
L 280.395082 118.876274 
L 281.602961 118.962168 
L 282.773093 118.353118 
L 285.151104 117.759557 
L 286.321236 117.275926 
L 287.453622 114.890764 
L 288.6615 111.661794 
L 289.869379 110.104812 
L 291.039511 107.968107 
L 292.171897 106.694745 
L 294.549908 100.821266 
L 295.72004 96.330729 
L 299.268183 80.674993 
L 300.362823 77.209194 
L 301.570702 74.489999 
L 302.77858 72.916242 
L 303.948712 72.69538 
L 305.156591 73.374962 
L 311.158237 85.057482 
L 312.290623 87.893781 
L 315.838766 92.351103 
L 318.216777 97.132236 
L 319.386909 98.723808 
L 320.519295 99.710165 
L 321.689428 101.098707 
L 322.935052 102.803922 
L 324.029692 103.817954 
L 325.237571 104.325382 
L 326.407703 105.588785 
L 327.540089 107.677292 
L 328.747967 110.261696 
L 329.842607 109.997822 
L 331.088232 110.47632 
L 332.220618 110.098185 
L 333.428497 110.923379 
L 334.560883 110.801594 
L 335.768761 109.927082 
L 336.901147 109.314883 
L 338.033533 110.309187 
L 339.279158 111.574643 
L 340.487036 113.39697 
L 341.657169 114.25238 
L 342.789555 115.640754 
L 343.921941 116.208011 
L 345.054327 117.038315 
L 346.299952 115.719863 
L 347.470084 114.720496 
L 348.677962 112.688052 
L 349.923587 111.38823 
L 352.150613 111.504012 
L 353.396238 109.947939 
L 354.528624 108.921957 
L 355.811995 108.094619 
L 356.831142 107.645013 
L 357.963528 107.856645 
L 359.246899 107.125581 
L 360.379285 105.767364 
L 361.549417 104.673269 
L 362.757296 105.064841 
L 364.002921 104.270412 
L 365.135307 102.159874 
L 366.267693 101.482265 
L 368.68345 99.14265 
L 369.77809 99.265174 
L 370.985968 97.834058 
L 372.1561 96.718579 
L 373.288486 95.866735 
L 374.458619 95.547363 
L 375.628751 95.070813 
L 376.761137 94.032783 
L 377.969015 93.307454 
L 379.21464 91.455031 
L 380.460265 89.295895 
L 381.894621 88.700411 
L 383.177991 87.812947 
L 384.310377 86.323934 
L 385.48051 86.00219 
L 387.971759 84.631391 
L 389.104145 84.455144 
L 390.236531 84.058866 
L 391.406664 83.037975 
L 392.614542 82.3152 
L 393.860167 82.407841 
L 395.030299 82.074766 
L 396.0117 80.841544 
L 397.332817 80.491445 
L 399.673082 80.568036 
L 400.843214 80.268599 
L 402.088839 79.752294 
L 403.258971 79.093779 
L 404.353611 79.411289 
L 405.561489 79.454359 
L 406.731622 79.667972 
L 407.901754 79.55636 
L 409.03414 79.887293 
L 410.279765 81.724616 
L 411.487643 82.43646 
L 412.544537 82.095379 
L 413.639177 82.392794 
L 414.960294 83.026044 
L 416.130426 84.286896 
L 417.300558 84.785254 
L 418.583929 85.495782 
L 419.640823 86.984197 
L 420.810955 88.425424 
L 421.905595 90.231387 
L 424.396844 92.277754 
L 426.661617 93.892702 
L 427.831749 95.132891 
L 429.266105 96.059595 
L 430.360744 97.047362 
L 431.455384 99.563385 
L 432.550024 100.400025 
L 434.852543 104.225157 
L 436.060421 105.567549 
L 438.362939 106.086395 
L 439.64631 107.06476 
L 440.891935 107.839151 
L 443.081215 110.222408 
L 444.326839 110.45173 
L 445.421479 112.523555 
L 447.79949 113.210784 
L 450.102008 113.934546 
L 451.385379 114.429868 
L 452.517765 115.43491 
L 453.687898 115.783414 
L 454.669299 116.548088 
L 456.216893 117.358432 
L 457.764487 117.976104 
L 459.010112 117.391962 
L 460.067006 118.147798 
L 461.350377 118.451429 
L 462.558255 118.551963 
L 463.50191 118.923589 
L 464.860774 118.235186 
L 465.917667 116.399959 
L 467.087799 115.731728 
L 468.333424 113.771227 
L 469.541303 112.634381 
L 470.598196 110.471048 
L 471.843821 109.35764 
L 472.862968 107.746797 
L 474.184086 106.300841 
L 475.354218 105.73323 
L 477.694482 103.679313 
L 478.902361 102.801848 
L 480.261224 101.227782 
L 481.167133 101.14104 
L 482.412758 100.617191 
L 483.771621 100.548581 
L 484.639784 99.866633 
L 485.923154 99.318522 
L 487.131033 98.021485 
L 488.074688 96.304454 
L 489.358059 93.464822 
L 490.679176 90.067292 
L 491.962547 86.238534 
L 493.887603 77.745637 
L 493.887603 77.745637 
" clip-path="url(#p893947d7ba)" style="fill: none; stroke: #1f77b4; stroke-width: 2.5; stroke-linecap: square"/>
   </g>
   <g id="line2d_47">
    <path d="M 58.636143 239.70255 
L 58.598397 261.791133 
L 58.673889 236.558302 
L 59.013605 241.283604 
L 60.032752 237.51143 
L 63.996104 244.380059 
L 66.223129 246.189831 
L 68.185932 251.912822 
L 69.809019 253.91852 
L 71.205628 247.88015 
L 72.413507 244.135909 
L 73.508147 240.023772 
L 74.602786 239.857552 
L 75.697426 235.6254 
L 76.792066 234.171974 
L 77.924452 233.430413 
L 79.094585 239.062882 
L 80.264717 246.884888 
L 81.472595 250.438949 
L 82.680474 250.596506 
L 83.850606 248.58893 
L 86.304109 235.595582 
L 87.58748 236.438951 
L 88.908597 232.4705 
L 90.229714 227.927135 
L 91.437593 226.362193 
L 92.607725 230.412587 
L 93.777857 232.880169 
L 94.910243 234.093361 
L 97.250508 237.390516 
L 98.458386 243.028595 
L 100.798651 255.545535 
L 102.006529 241.883296 
L 103.214408 240.879415 
L 104.422286 240.6602 
L 105.630165 234.805182 
L 106.762551 233.379934 
L 107.932683 230.659665 
L 109.178308 230.364277 
L 110.34844 234.286609 
L 111.480826 235.395126 
L 112.53772 242.566326 
L 113.707852 242.888375 
L 114.953477 249.231703 
L 116.161355 254.231436 
L 117.369234 254.845891 
L 118.539366 262.376086 
L 119.747245 255.600896 
L 120.955123 252.189185 
L 122.125255 252.527916 
L 123.257641 251.113596 
L 124.46552 260.290708 
L 125.635652 261.075616 
L 126.843531 268.333984 
L 128.013663 274.67969 
L 129.259288 274.767174 
L 130.467166 267.028032 
L 131.637298 255.984877 
L 132.807431 248.363883 
L 133.939817 242.363966 
L 135.109949 234.195235 
L 136.280081 234.149305 
L 137.563452 230.588948 
L 138.771331 231.58738 
L 139.903717 233.003313 
L 141.036103 230.16811 
L 142.243981 221.793503 
L 143.376367 217.861325 
L 144.584246 218.138231 
L 145.792124 213.138635 
L 146.962257 205.619631 
L 148.170135 207.12888 
L 149.340267 203.931317 
L 150.472653 203.511736 
L 151.680532 204.357298 
L 152.88841 201.218073 
L 154.058543 199.864976 
L 155.228675 199.971222 
L 156.436553 195.583384 
L 157.644432 185.934764 
L 158.776818 181.139508 
L 159.984696 179.457175 
L 161.154829 176.235858 
L 162.324961 175.333659 
L 163.495093 174.930664 
L 164.665225 175.51276 
L 165.835358 174.362118 
L 167.00549 175.381432 
L 168.213368 171.389284 
L 169.383501 169.57776 
L 170.591379 169.172255 
L 171.723765 167.297969 
L 172.931644 161.703264 
L 174.101776 157.92419 
L 175.271908 154.551944 
L 176.442041 151.905851 
L 177.612173 148.562477 
L 178.782305 148.246394 
L 179.914691 145.811379 
L 181.12257 144.189257 
L 182.292702 141.487699 
L 184.632967 132.54681 
L 187.010977 126.223841 
L 188.256602 123.808778 
L 189.426734 121.140408 
L 190.634613 118.092574 
L 191.804745 113.78273 
L 194.220502 106.135828 
L 195.390634 102.544164 
L 196.52302 100.612664 
L 197.693153 100.050135 
L 198.863285 100.323888 
L 200.033417 101.20278 
L 201.203549 102.726526 
L 202.411428 103.299473 
L 203.58156 102.811497 
L 204.789439 102.585077 
L 205.921825 102.971305 
L 207.054211 102.974706 
L 208.299835 103.369345 
L 209.507714 104.743485 
L 210.677846 105.297704 
L 213.018111 104.959832 
L 214.150497 103.269835 
L 215.396122 101.006397 
L 217.69864 99.345135 
L 218.906518 98.830351 
L 220.076651 98.205592 
L 221.246783 98.154176 
L 222.379169 97.913039 
L 223.549301 98.258885 
L 224.719434 98.216393 
L 225.927312 98.323828 
L 227.135191 99.533144 
L 228.267577 101.348266 
L 229.475455 101.917618 
L 230.607841 103.382411 
L 231.81572 103.890352 
L 232.948106 104.612181 
L 234.118238 105.539753 
L 235.326116 106.102097 
L 236.496249 105.075506 
L 237.666381 104.88351 
L 238.836513 104.826677 
L 240.044392 104.978556 
L 241.176778 104.130186 
L 242.384656 104.037181 
L 243.554789 104.17001 
L 244.724921 105.239368 
L 245.857307 106.492193 
L 247.065185 106.848926 
L 248.235318 107.698908 
L 249.367704 109.034707 
L 250.575582 109.246811 
L 251.707968 109.841798 
L 252.953593 109.954997 
L 255.293858 111.795038 
L 256.46399 113.42713 
L 257.596376 113.742764 
L 258.804254 113.761979 
L 259.974387 114.303095 
L 261.144519 115.356247 
L 262.352397 114.116912 
L 263.52253 113.97745 
L 265.862794 117.289776 
L 267.032926 117.831469 
L 268.203059 119.348365 
L 269.410937 118.769513 
L 271.788948 117.041221 
L 272.921334 116.679889 
L 274.129213 115.111876 
L 275.299345 114.163825 
L 276.393985 113.72927 
L 277.677356 112.92915 
L 278.809742 112.458272 
L 279.979874 112.808684 
L 281.150006 112.036504 
L 282.357885 112.219262 
L 283.528017 112.554612 
L 284.660403 113.619588 
L 285.906028 112.644785 
L 287.113906 110.660201 
L 288.246292 106.864446 
L 289.416425 103.969473 
L 290.548811 101.958185 
L 291.794435 99.191927 
L 292.964568 95.483175 
L 296.512711 82.256117 
L 297.645097 77.228844 
L 298.777483 73.262146 
L 299.947615 70.845715 
L 301.155493 70.539122 
L 302.325626 71.246739 
L 303.495758 73.217613 
L 304.703637 75.729545 
L 307.15714 79.145727 
L 308.402764 78.90927 
L 309.497404 78.160578 
L 310.743029 78.232369 
L 311.913161 79.797267 
L 313.083293 80.891903 
L 314.253426 83.109363 
L 315.423558 86.287952 
L 316.555944 89.970612 
L 318.971701 96.661316 
L 320.104087 98.061186 
L 321.274219 99.781544 
L 323.65223 103.667274 
L 324.784616 104.022966 
L 325.992495 104.814896 
L 327.162627 104.106429 
L 328.332759 104.482964 
L 329.427399 104.626834 
L 330.635278 104.333237 
L 331.80541 103.467879 
L 333.013288 103.597483 
L 334.221167 104.71988 
L 335.315807 104.894679 
L 336.485939 106.956533 
L 337.656071 107.674894 
L 338.826204 108.762173 
L 340.034082 108.575922 
L 342.374347 108.868018 
L 343.582225 108.356711 
L 344.752357 107.635282 
L 345.960236 108.09616 
L 347.054876 106.767638 
L 348.187262 106.833236 
L 349.39514 106.399266 
L 350.565272 107.210565 
L 351.773151 106.985861 
L 352.905537 107.923845 
L 354.113416 108.348261 
L 355.35904 109.050529 
L 356.491426 109.829921 
L 357.586066 109.800384 
L 360.001823 106.863008 
L 361.171955 105.64164 
L 362.379834 105.111853 
L 363.587712 104.427053 
L 364.682352 103.510763 
L 367.060363 103.783334 
L 368.192749 104.584942 
L 369.400628 104.521918 
L 370.533014 104.03894 
L 371.6654 103.822121 
L 372.911024 102.516653 
L 374.118903 101.511611 
L 375.251289 100.817081 
L 376.383675 99.079172 
L 377.6293 98.631906 
L 380.00731 95.733158 
L 381.441666 94.548466 
L 382.762783 93.303511 
L 383.932915 92.523471 
L 385.17854 90.239532 
L 386.348672 89.444897 
L 387.556551 89.343892 
L 388.688937 88.341617 
L 389.859069 87.986729 
L 391.066948 87.092447 
L 392.23708 85.699875 
L 393.33172 85.146468 
L 394.615091 85.208173 
L 395.785223 85.496834 
L 396.955355 84.778311 
L 399.220127 84.653653 
L 400.352514 84.220908 
L 401.635884 83.914755 
L 402.806017 83.077992 
L 403.976149 82.415447 
L 405.033043 82.439996 
L 406.316414 83.238001 
L 407.562038 84.786818 
L 409.864557 85.318088 
L 410.996943 85.778856 
L 412.204821 85.106834 
L 413.337207 85.291022 
L 414.620578 84.773631 
L 415.715218 85.403967 
L 418.130975 88.368384 
L 419.338853 89.833721 
L 420.508986 90.591237 
L 421.641372 92.162836 
L 422.736012 92.726121 
L 423.94389 92.714032 
L 425.189515 94.693157 
L 426.208662 95.756793 
L 427.567525 98.275148 
L 428.624419 100.758348 
L 429.719059 101.884353 
L 430.926938 102.402284 
L 433.19171 104.883446 
L 434.512827 104.599277 
L 435.645213 104.587202 
L 436.815345 106.230786 
L 439.15561 106.433277 
L 440.438981 108.483779 
L 441.53362 109.009988 
L 442.666006 110.354104 
L 443.873885 112.476827 
L 446.251896 113.76724 
L 447.459774 114.782187 
L 448.478922 116.495037 
L 450.932425 116.966575 
L 452.064811 119.627032 
L 453.272689 119.117119 
L 454.367329 118.424036 
L 455.688446 118.508928 
L 457.085056 117.390465 
L 458.519411 118.486012 
L 459.614051 118.816575 
L 460.859676 119.95037 
L 462.067555 120.49882 
L 463.275433 121.310859 
L 464.445565 122.677607 
L 465.540205 122.617613 
L 466.672591 121.025977 
L 467.842723 120.666895 
L 468.97511 118.738023 
L 470.145242 119.709724 
L 471.35312 119.366018 
L 473.84437 118.979474 
L 476.071396 119.409265 
L 477.31702 117.971606 
L 478.487153 115.040073 
L 479.581792 112.767747 
L 480.789671 110.619572 
L 481.997549 109.756281 
L 483.129935 108.663534 
L 484.451053 108.759103 
L 486.753571 110.543393 
L 487.923703 111.163191 
L 488.905104 110.844639 
L 490.075237 109.608556 
L 491.547339 107.311464 
L 492.717471 103.907787 
L 493.585634 99.456154 
L 493.585634 99.456154 
" clip-path="url(#p893947d7ba)" style="fill: none; stroke: #d62728; stroke-width: 2.5; stroke-linecap: square"/>
   </g>
   <g id="line2d_48">
    <path d="M 60.372468 259.894626 
L 60.334722 229.247181 
L 60.296976 264.642726 
L 60.447961 256.718043 
L 61.014154 252.749284 
L 62.297524 251.218281 
L 64.222581 250.297392 
L 66.41186 238.351633 
L 70.337466 239.270382 
L 71.847314 244.789535 
L 73.206177 248.023752 
L 74.338563 250.180923 
L 75.433203 244.47344 
L 76.527843 253.176779 
L 77.622483 253.047982 
L 79.887255 243.787969 
L 81.057387 247.928364 
L 82.227519 249.781651 
L 83.435398 241.449313 
L 84.643276 236.787843 
L 85.888901 238.640364 
L 87.172272 233.772426 
L 88.531135 236.922397 
L 89.77676 233.569012 
L 91.022384 232.048859 
L 92.230263 234.92726 
L 93.400395 236.70855 
L 94.570528 240.558032 
L 95.74066 235.550269 
L 96.910792 236.264215 
L 98.118671 241.01821 
L 99.288803 233.152103 
L 100.421189 238.688886 
L 101.591321 236.417969 
L 102.723707 233.744764 
L 103.931586 228.990005 
L 105.101718 226.768618 
L 106.27185 227.902956 
L 107.479729 225.600786 
L 108.649861 226.241854 
L 109.895486 230.252421 
L 111.065618 232.162893 
L 112.23575 243.997066 
L 114.576015 256.964975 
L 115.783893 250.489258 
L 116.954026 246.991888 
L 118.124158 244.993766 
L 119.29429 236.938614 
L 120.464422 230.337792 
L 121.596808 232.151168 
L 122.766941 231.078905 
L 123.937073 231.873546 
L 125.144951 230.076879 
L 126.315084 230.12981 
L 127.522962 230.795271 
L 128.730841 234.173139 
L 129.900973 239.715359 
L 131.108851 238.61315 
L 132.278984 233.973638 
L 133.449116 233.716687 
L 134.656995 229.381354 
L 135.864873 220.904242 
L 137.072751 217.544595 
L 138.28063 215.651929 
L 139.488508 216.916744 
L 140.658641 218.475502 
L 141.828773 219.127942 
L 142.998905 217.319313 
L 144.206784 215.228476 
L 145.376916 216.221651 
L 147.754927 208.919943 
L 148.962805 209.033731 
L 150.132938 205.657454 
L 151.30307 205.526258 
L 152.510948 202.088126 
L 153.681081 200.560163 
L 154.888959 199.356177 
L 156.059091 197.350266 
L 157.191477 198.657554 
L 158.323863 191.159088 
L 159.493996 186.43447 
L 160.664128 178.192862 
L 161.872006 170.616976 
L 163.042139 165.480509 
L 164.174525 159.822469 
L 165.382403 156.396157 
L 166.552536 154.254415 
L 167.722668 153.579836 
L 168.8928 153.564602 
L 170.025186 151.433499 
L 171.270811 152.365085 
L 173.648822 145.918198 
L 174.818954 141.80479 
L 176.026832 136.583765 
L 177.196965 133.805015 
L 178.404843 131.311117 
L 179.537229 129.255706 
L 180.745108 127.647094 
L 181.877494 125.436689 
L 183.085372 123.531295 
L 184.180012 121.210897 
L 185.387891 119.683835 
L 186.520277 116.631412 
L 188.97378 111.925543 
L 190.106166 109.071409 
L 191.276298 105.434073 
L 192.521923 102.294333 
L 193.692055 98.358027 
L 194.899934 95.663108 
L 196.070066 93.850557 
L 197.240198 90.530538 
L 198.372584 86.146685 
L 199.618209 82.973691 
L 200.788341 79.216594 
L 203.128606 74.145417 
L 204.298738 73.296823 
L 205.46887 72.190355 
L 206.676749 72.483329 
L 207.809135 73.543199 
L 210.187146 74.189256 
L 211.357278 75.086079 
L 212.565156 75.769336 
L 214.867675 78.142045 
L 216.075553 77.484195 
L 217.245685 75.703097 
L 218.415818 74.926853 
L 219.623696 74.560344 
L 220.793828 73.798246 
L 223.171839 74.202869 
L 224.379718 75.254371 
L 225.54985 76.675787 
L 226.757728 77.640092 
L 227.890115 77.717225 
L 229.060247 79.607559 
L 230.268125 80.730859 
L 231.438258 81.218867 
L 232.60839 81.912395 
L 233.778522 83.881163 
L 234.910908 84.645225 
L 236.118787 86.046606 
L 237.326665 87.708356 
L 238.496797 88.842747 
L 239.591437 91.079062 
L 240.723823 93.052371 
L 241.931702 93.199126 
L 243.13958 92.895552 
L 244.271966 92.731581 
L 245.479845 93.511666 
L 246.687723 93.714802 
L 247.857856 95.084547 
L 248.990242 97.127242 
L 250.160374 98.751581 
L 251.405999 99.353689 
L 252.500639 99.355954 
L 253.670771 100.162168 
L 256.048782 99.408548 
L 257.218914 100.078341 
L 258.389046 99.913728 
L 259.559178 100.011634 
L 260.767057 100.944762 
L 261.937189 101.135462 
L 264.277454 100.020526 
L 266.655464 100.818796 
L 267.750104 102.244165 
L 268.995729 102.893427 
L 270.165861 102.026077 
L 271.37374 102.419521 
L 272.581618 102.977302 
L 273.714004 102.937257 
L 274.84639 103.259355 
L 276.092015 102.454761 
L 277.224401 102.55304 
L 278.394533 103.298382 
L 279.564666 104.274742 
L 280.772544 104.409645 
L 281.980423 103.319823 
L 283.150555 103.305072 
L 284.320687 102.583105 
L 285.453073 102.434592 
L 286.623206 101.677963 
L 287.793338 99.54902 
L 289.038963 99.151364 
L 292.473867 97.120666 
L 293.681745 94.118628 
L 296.02201 89.242094 
L 299.570153 77.578326 
L 300.778031 74.260035 
L 301.834925 70.739559 
L 303.08055 67.927149 
L 304.212936 65.930448 
L 305.458561 64.112406 
L 306.741931 64.510088 
L 307.94981 65.878676 
L 309.082196 67.547208 
L 310.290074 70.19393 
L 311.422461 73.142618 
L 312.630339 74.956455 
L 316.140736 78.909368 
L 317.310868 79.592868 
L 322.029143 89.872553 
L 323.199276 91.323457 
L 324.4449 91.931353 
L 325.501794 92.941543 
L 326.747419 93.340644 
L 329.049937 93.364164 
L 331.390202 94.354652 
L 332.560334 94.575483 
L 333.730466 95.635727 
L 334.938345 95.857525 
L 336.108477 96.769724 
L 337.278609 98.418765 
L 338.410995 98.203666 
L 339.618874 97.531472 
L 340.826752 97.712424 
L 341.959138 98.264921 
L 343.167017 97.918033 
L 344.337149 98.061367 
L 345.469535 97.933975 
L 346.639667 97.508895 
L 347.923038 98.425702 
L 349.017678 98.735847 
L 350.150064 98.062609 
L 351.320197 96.383392 
L 352.603567 96.97749 
L 353.698207 97.86241 
L 354.906086 98.109806 
L 356.038472 98.147762 
L 357.208604 97.679562 
L 359.624361 97.704042 
L 360.719001 95.576876 
L 361.889133 94.233967 
L 363.059266 91.883051 
L 365.437276 90.136941 
L 366.607409 90.44957 
L 367.853033 90.936722 
L 368.985419 91.65011 
L 370.155552 91.898416 
L 371.287938 91.775468 
L 372.533562 90.854933 
L 373.628202 90.791453 
L 374.760588 89.369976 
L 376.006213 88.478159 
L 377.100853 87.380475 
L 378.346477 87.02997 
L 379.441117 86.316197 
L 380.913219 84.342167 
L 382.309829 82.998956 
L 383.5932 81.365748 
L 386.008957 79.309761 
L 387.103596 78.058359 
L 388.349221 77.609046 
L 390.613993 76.180851 
L 391.821872 75.743404 
L 393.02975 74.970093 
L 394.12439 75.2295 
L 395.294522 75.230865 
L 396.502401 75.71317 
L 397.710279 75.077076 
L 398.99365 74.753046 
L 399.975052 74.625415 
L 401.220676 74.176469 
L 402.428555 73.5106 
L 403.447702 73.089608 
L 404.731073 72.307278 
L 405.825713 72.155259 
L 407.033591 73.054346 
L 408.165977 73.725059 
L 409.411602 73.860541 
L 410.506242 73.688543 
L 414.054385 74.741209 
L 415.337756 74.705735 
L 416.39465 75.124078 
L 417.640274 75.874682 
L 418.734914 77.193614 
L 420.018285 78.283712 
L 421.377148 79.033583 
L 422.396296 78.495747 
L 423.453189 80.005475 
L 424.698814 80.629457 
L 426.963586 81.96226 
L 428.246957 83.646518 
L 430.587222 85.942975 
L 431.681862 87.219227 
L 434.059872 89.033598 
L 435.041274 90.86701 
L 436.475629 91.549558 
L 437.608015 92.263174 
L 439.94828 94.784649 
L 441.118412 95.437048 
L 443.458677 97.199468 
L 444.628809 97.724487 
L 445.798941 98.030312 
L 446.931327 97.659968 
L 448.139206 98.370925 
L 449.309338 98.781086 
L 450.403978 99.659947 
L 451.762841 99.414685 
L 452.819735 98.490295 
L 454.06536 99.020123 
L 455.084507 100.134 
L 456.594355 100.258067 
L 457.915472 100.57901 
L 459.085605 101.110904 
L 460.444468 102.481862 
L 461.690092 102.895467 
L 463.01121 103.729862 
L 464.030357 103.116657 
L 465.124997 101.892977 
L 466.370622 102.037986 
L 467.465261 101.2835 
L 469.730034 98.033166 
L 471.013405 96.171238 
L 472.221283 94.671438 
L 473.391415 93.534856 
L 474.523801 93.565648 
L 475.580695 93.080514 
L 476.864066 92.732384 
L 479.166584 93.042902 
L 480.487701 92.538003 
L 481.733326 92.306772 
L 482.827966 90.798662 
L 484.035844 89.637765 
L 485.130484 89.243158 
L 486.074139 88.582324 
L 488.640881 83.841483 
L 489.811013 81.104699 
L 490.943399 78.010804 
L 493.170425 70.938435 
L 493.170425 70.938435 
" clip-path="url(#p893947d7ba)" style="fill: none; stroke: #ff7f0e; stroke-width: 2.5; stroke-linecap: square"/>
   </g>
   <g id="line2d_49">
    <path d="M 59.089097 238.5478 
L 59.089097 239.963914 
L 59.013605 234.13881 
L 58.975859 234.461097 
L 58.975859 239.848748 
L 59.089097 236.518727 
L 60.334722 240.402705 
L 61.957809 252.612775 
L 64.184835 256.755039 
L 66.449607 256.057158 
L 68.450155 256.363484 
L 70.148735 260.568126 
L 72.715476 269.373968 
L 73.810116 255.629487 
L 74.904756 249.792869 
L 75.999396 252.6232 
L 77.094036 252.503277 
L 78.264168 250.121084 
L 79.4343 248.812595 
L 80.642179 248.01852 
L 81.812311 246.783723 
L 84.190322 250.023032 
L 85.360454 245.642207 
L 87.88945 253.389906 
L 89.210567 249.662034 
L 90.456191 254.861263 
L 91.701816 265.422675 
L 92.909695 264.673069 
L 94.079827 260.924398 
L 95.287705 267.118657 
L 96.420091 259.807583 
L 97.62797 253.621665 
L 98.798102 248.536371 
L 100.043727 239.470109 
L 101.213859 245.386195 
L 102.383991 248.23517 
L 103.59187 247.585329 
L 104.762002 242.074523 
L 105.932134 253.490193 
L 107.064521 258.079723 
L 108.310145 254.360341 
L 109.480277 255.532742 
L 110.688156 242.90343 
L 111.896034 243.420637 
L 113.103913 249.211727 
L 114.274045 243.194254 
L 115.444177 238.619323 
L 116.576564 239.189237 
L 117.784442 248.853912 
L 118.916828 252.097491 
L 120.08696 254.024268 
L 121.294839 258.727791 
L 122.464971 248.030512 
L 123.635103 254.234606 
L 124.805236 253.93821 
L 126.013114 251.212068 
L 127.107754 240.016927 
L 128.277886 233.605668 
L 129.523511 237.292407 
L 130.655897 236.304765 
L 131.863776 237.679643 
L 133.071654 241.884162 
L 134.241786 237.981128 
L 135.449665 235.662494 
L 136.657543 238.135517 
L 137.865422 242.258116 
L 139.111046 229.215631 
L 140.281179 219.825565 
L 141.489057 218.660212 
L 142.659189 214.218655 
L 143.829322 218.530246 
L 145.0372 217.779926 
L 146.207332 216.117573 
L 147.377465 214.053217 
L 148.509851 218.319173 
L 149.679983 220.455405 
L 150.850115 219.101436 
L 153.228126 213.826278 
L 154.436005 210.578918 
L 155.606137 211.226963 
L 156.738523 202.183927 
L 157.946401 197.966047 
L 159.116534 192.17232 
L 162.626931 177.361546 
L 163.797063 173.805663 
L 165.004941 169.010639 
L 166.175074 167.571421 
L 167.345206 165.551953 
L 168.515338 161.640046 
L 169.723217 160.693339 
L 170.893349 158.333389 
L 174.479238 149.243476 
L 175.687117 146.971956 
L 176.857249 143.540719 
L 179.197513 138.137837 
L 181.537778 134.432133 
L 182.670164 133.163653 
L 183.840296 131.028838 
L 185.010429 130.393981 
L 186.180561 128.708341 
L 187.350693 128.243598 
L 188.483079 125.951889 
L 189.728704 124.669016 
L 190.936582 121.092729 
L 192.106715 118.431272 
L 195.654858 106.403399 
L 196.82499 103.788453 
L 198.032868 100.760131 
L 199.203001 99.837206 
L 200.335387 97.738155 
L 201.543265 97.361782 
L 202.713398 96.458174 
L 203.921276 97.504364 
L 205.091408 98.72213 
L 206.299287 99.204952 
L 207.469419 100.288427 
L 208.601805 100.8044 
L 210.979816 100.164088 
L 212.149948 98.25815 
L 213.282334 96.75468 
L 214.452466 95.842746 
L 216.792731 95.191851 
L 217.962863 93.637392 
L 219.208488 93.633887 
L 220.340874 92.333319 
L 221.511006 91.767322 
L 222.681139 90.68139 
L 223.889017 89.714093 
L 225.096896 89.634335 
L 227.43716 91.533184 
L 228.607292 92.868208 
L 229.815171 93.038539 
L 230.947557 94.925301 
L 232.117689 94.448704 
L 233.363314 95.814674 
L 234.4957 95.73864 
L 235.703578 96.532195 
L 236.873711 97.973609 
L 238.043843 97.973483 
L 239.176229 98.226332 
L 240.346361 98.290237 
L 241.516494 97.134436 
L 242.762118 97.37862 
L 243.894504 97.147182 
L 245.064637 98.554455 
L 246.234769 99.524475 
L 248.575033 103.104475 
L 249.782912 101.794364 
L 250.953044 101.274718 
L 254.538933 96.819924 
L 255.709066 96.181486 
L 256.879198 95.83127 
L 258.04933 96.740931 
L 259.181716 97.915978 
L 260.351849 99.510416 
L 261.559727 99.80348 
L 262.692113 100.910803 
L 265.032378 103.997411 
L 266.240256 103.889419 
L 268.542775 104.343804 
L 269.712907 103.994589 
L 270.920785 103.75322 
L 272.053171 103.660901 
L 273.336542 102.816792 
L 275.601314 102.441931 
L 276.733701 102.396436 
L 277.979325 101.888109 
L 279.111711 101.751194 
L 280.31959 102.062042 
L 281.527468 102.520785 
L 283.867733 102.681353 
L 284.962373 102.677311 
L 286.170251 101.714914 
L 287.415876 99.312153 
L 289.718394 96.616685 
L 290.926273 94.924278 
L 292.134151 92.690143 
L 293.266537 90.929675 
L 295.606802 82.12181 
L 296.776934 77.809199 
L 299.117199 70.845781 
L 300.325077 69.551611 
L 301.532956 69.457697 
L 302.665342 70.348397 
L 303.87322 72.219445 
L 305.043352 74.555845 
L 307.496856 76.61075 
L 308.74248 77.024093 
L 309.912612 77.709361 
L 311.082745 77.238068 
L 314.593142 78.866591 
L 315.725528 80.778447 
L 316.933406 82.302203 
L 319.273671 86.580289 
L 320.481549 89.482749 
L 322.746321 93.130107 
L 323.991946 94.751396 
L 326.294464 94.123805 
L 327.464597 95.772829 
L 328.634729 95.182244 
L 329.842607 95.793234 
L 331.01274 97.31718 
L 332.145126 99.126066 
L 333.353004 99.898477 
L 334.48539 102.011483 
L 335.655523 101.5425 
L 336.787909 100.915187 
L 338.109026 101.259743 
L 339.279158 101.183527 
L 340.373798 99.427242 
L 341.506184 99.16697 
L 342.789555 99.825138 
L 343.884195 100.045663 
L 345.016581 101.232376 
L 346.224459 101.702373 
L 347.394591 101.385417 
L 348.640216 102.09668 
L 349.772602 101.861621 
L 350.904988 100.952097 
L 352.188359 100.751695 
L 353.282999 98.78094 
L 355.66101 97.193014 
L 356.831142 96.859706 
L 357.963528 95.068982 
L 360.303793 92.331853 
L 362.644057 90.412536 
L 363.81419 90.773336 
L 365.022068 89.569325 
L 366.154454 89.447895 
L 368.570211 88.464675 
L 369.702597 87.691403 
L 370.834983 85.644569 
L 372.005115 84.854342 
L 373.212994 84.23944 
L 374.383126 83.021326 
L 376.685645 83.019103 
L 377.931269 82.344523 
L 379.101402 81.159866 
L 380.422519 80.470765 
L 381.743636 79.105175 
L 383.064753 77.159931 
L 384.310377 76.523704 
L 385.442764 75.396979 
L 386.763881 74.372409 
L 387.896267 73.834831 
L 389.066399 73.814114 
L 390.236531 72.720313 
L 392.463557 71.47426 
L 393.784674 70.791139 
L 394.91706 70.790117 
L 398.389711 71.438453 
L 399.597589 70.985466 
L 400.767722 70.312084 
L 401.900108 69.307488 
L 404.315865 69.206441 
L 405.485997 69.003705 
L 407.788515 70.692155 
L 410.053288 72.117546 
L 411.336658 72.638482 
L 412.544537 72.52267 
L 413.790162 72.242641 
L 414.960294 72.976579 
L 416.017188 73.823956 
L 417.225066 74.095421 
L 419.527584 76.180434 
L 420.735463 77.482366 
L 421.867849 79.363132 
L 424.24586 80.985011 
L 425.642469 81.100342 
L 426.812601 82.808794 
L 427.831749 83.99206 
L 429.039627 84.367976 
L 430.134267 85.41185 
L 431.191161 86.858215 
L 432.436786 89.189041 
L 433.720156 90.512785 
L 434.814796 91.023599 
L 436.022675 92.48371 
L 437.155061 93.014377 
L 438.438432 94.501432 
L 439.608564 94.849503 
L 440.703204 94.545197 
L 441.797844 95.695117 
L 443.043468 95.945048 
L 444.251347 97.320952 
L 445.270494 96.562191 
L 446.553865 96.746075 
L 448.89413 97.895661 
L 450.102008 97.625651 
L 451.272141 98.24635 
L 452.442273 98.544588 
L 453.499167 99.417358 
L 454.669299 99.769561 
L 456.065908 100.757536 
L 457.500264 101.32547 
L 458.745889 103.070936 
L 460.02926 104.389106 
L 461.086153 106.14553 
L 462.558255 106.579723 
L 463.766134 108.562718 
L 464.558804 108.620984 
L 465.69119 107.658136 
L 466.974561 106.171795 
L 468.220186 104.941878 
L 471.768329 102.264775 
L 472.976207 102.503542 
L 474.070847 104.034824 
L 475.240979 105.237383 
L 476.448858 104.739144 
L 477.656736 104.548822 
L 478.71363 103.985125 
L 480.072493 104.013754 
L 481.167133 103.711865 
L 482.412758 103.958691 
L 483.58289 103.404775 
L 484.715276 102.418667 
L 485.923154 103.060851 
L 487.055541 101.980538 
L 488.225673 99.147722 
L 491.698323 93.65231 
L 492.943948 92.12193 
L 493.774365 90.838033 
L 493.774365 90.838033 
" clip-path="url(#p893947d7ba)" style="fill: none; stroke: #9467bd; stroke-width: 2.5; stroke-linecap: square"/>
   </g>
   <g id="line2d_50">
    <path d="M 60.108245 241.773377 
L 60.032752 231.706183 
L 60.032752 248.580124 
L 59.95726 260.054533 
L 60.070498 250.174987 
L 60.598945 244.515098 
L 61.731331 236.042874 
L 63.505403 232.465411 
L 65.694683 229.728276 
L 67.846216 231.21398 
L 69.733526 228.260264 
L 71.318867 235.145347 
L 72.67773 245.735621 
L 73.847862 244.423064 
L 74.942502 237.72286 
L 75.999396 244.965221 
L 77.131782 244.333279 
L 78.264168 246.824677 
L 79.358808 246.056609 
L 80.566686 253.981676 
L 81.774565 255.969127 
L 82.944697 266.061453 
L 84.190322 270.35905 
L 85.3982 248.678749 
L 86.681571 243.568578 
L 87.964942 246.067958 
L 89.286059 244.7299 
L 90.531684 242.452912 
L 91.777309 247.046198 
L 92.947441 249.391 
L 94.155319 247.933244 
L 95.287705 249.550417 
L 96.457838 258.358334 
L 97.62797 257.348322 
L 98.835848 265.702911 
L 100.005981 272.015899 
L 101.213859 283.666344 
L 104.762002 238.934239 
L 105.932134 234.644755 
L 107.102267 235.007214 
L 108.272399 235.950706 
L 109.442531 233.191222 
L 110.612664 236.171088 
L 111.782796 245.772069 
L 112.990674 248.283877 
L 114.160807 247.21433 
L 115.330939 247.861151 
L 116.501071 247.304467 
L 117.671203 252.50257 
L 118.879082 253.073333 
L 120.08696 243.660032 
L 121.219346 239.570321 
L 122.389479 240.643976 
L 123.559611 236.635301 
L 124.729743 231.455645 
L 125.937622 228.692227 
L 127.070008 227.142526 
L 128.24014 220.451272 
L 130.618151 211.781936 
L 131.826029 210.546547 
L 133.033908 213.250731 
L 134.20404 213.242749 
L 135.449665 212.49326 
L 136.657543 218.614418 
L 137.865422 218.435915 
L 139.035554 223.274957 
L 140.205686 217.542265 
L 141.375819 213.070445 
L 142.508205 206.778171 
L 143.753829 208.007727 
L 146.13184 198.869566 
L 147.339719 199.324763 
L 148.509851 197.961739 
L 149.717729 195.038899 
L 150.925608 196.220458 
L 152.057994 189.394667 
L 153.228126 186.116309 
L 154.436005 181.687695 
L 155.568391 181.713779 
L 156.776269 177.562169 
L 157.984148 170.720623 
L 161.456798 160.636487 
L 162.664677 158.837436 
L 163.834809 153.071829 
L 164.967195 148.731123 
L 166.137327 146.844195 
L 167.382952 144.305157 
L 168.553084 140.827428 
L 169.68547 136.383172 
L 172.063481 133.232604 
L 174.441492 127.429536 
L 175.573878 122.931582 
L 176.706264 120.743288 
L 177.914143 119.903858 
L 179.122021 115.520538 
L 180.292153 112.675703 
L 181.462286 109.39176 
L 182.594672 105.616725 
L 183.80255 103.373283 
L 184.972682 100.643317 
L 186.142815 98.980598 
L 187.350693 97.043764 
L 188.520825 95.596652 
L 190.823344 88.665491 
L 193.276847 79.537803 
L 194.446979 75.239248 
L 195.73035 72.776508 
L 196.900482 69.933967 
L 199.240747 66.694525 
L 201.618758 65.987837 
L 203.88353 67.468335 
L 205.053662 69.254206 
L 207.431673 72.616058 
L 208.601805 73.263933 
L 209.809684 74.346015 
L 210.94207 73.927272 
L 212.149948 74.39744 
L 213.32008 73.915739 
L 214.527959 73.850342 
L 215.698091 74.18126 
L 216.830477 74.086136 
L 218.038356 73.710077 
L 219.208488 73.091159 
L 220.340874 73.212767 
L 221.548753 73.467393 
L 222.718885 73.522093 
L 223.926763 74.303368 
L 225.059149 75.589984 
L 227.43716 79.897213 
L 228.645039 80.84287 
L 229.777425 82.892936 
L 230.947557 83.931943 
L 232.155435 85.544093 
L 233.287822 85.842497 
L 234.4957 85.524493 
L 235.665832 86.220881 
L 236.835965 86.354332 
L 238.043843 87.012955 
L 240.384108 88.555807 
L 241.516494 90.226282 
L 242.724372 90.748236 
L 243.894504 91.658286 
L 245.064637 91.747256 
L 246.234769 91.192826 
L 247.404901 92.438511 
L 248.61278 91.25424 
L 249.782912 91.661914 
L 252.123177 95.423758 
L 253.293309 96.77381 
L 254.425695 96.871969 
L 255.633573 97.758361 
L 256.803706 96.854639 
L 257.973838 96.260853 
L 259.14397 96.628043 
L 260.314102 95.835245 
L 261.484235 95.57295 
L 262.616621 96.997429 
L 263.862245 97.608687 
L 265.032378 99.063822 
L 266.240256 99.491321 
L 267.334896 100.120786 
L 268.505028 99.701401 
L 269.712907 100.544188 
L 270.883039 101.118816 
L 272.053171 99.86542 
L 273.223304 98.393173 
L 274.35569 97.886885 
L 275.601314 96.998241 
L 276.771447 96.971659 
L 277.979325 96.04598 
L 279.111711 95.476735 
L 280.244097 95.441361 
L 281.451976 95.140572 
L 282.622108 94.568947 
L 283.79224 93.292456 
L 285.037865 92.314185 
L 286.207997 91.118163 
L 287.340383 89.414053 
L 288.472769 86.176838 
L 289.680648 83.247832 
L 291.94542 74.540006 
L 293.077806 67.512927 
L 294.361177 61.291382 
L 295.493563 56.387553 
L 296.701442 53.395719 
L 297.833828 51.862356 
L 299.041706 51.656443 
L 300.249585 53.286768 
L 301.419717 56.766432 
L 303.797728 65.161174 
L 305.005606 66.925032 
L 306.251231 69.252916 
L 309.83712 74.767449 
L 310.856268 76.047759 
L 312.101892 78.510963 
L 313.234278 81.102848 
L 314.479903 83.451981 
L 315.650035 85.272522 
L 316.857914 86.359157 
L 318.028046 87.979042 
L 319.235924 89.091777 
L 320.406057 89.561701 
L 321.613935 91.353004 
L 322.746321 91.536836 
L 323.9542 92.743962 
L 326.256718 94.626206 
L 327.464597 95.937926 
L 328.672475 96.228205 
L 329.842607 97.44322 
L 331.01274 99.283327 
L 332.182872 99.887464 
L 333.277512 101.663461 
L 334.560883 101.331872 
L 335.655523 102.632512 
L 336.825655 101.477264 
L 337.995787 100.789528 
L 339.165919 100.79782 
L 340.373798 100.268063 
L 341.619423 99.949818 
L 342.714062 100.94325 
L 343.846448 100.71473 
L 345.167566 101.187509 
L 346.262205 101.072344 
L 347.50783 101.513691 
L 348.640216 100.228154 
L 349.69711 99.990081 
L 350.980481 101.527285 
L 352.075121 100.861349 
L 353.282999 99.11249 
L 355.585517 99.505202 
L 356.831142 99.194596 
L 358.001274 97.01075 
L 359.095914 95.460002 
L 360.303793 95.180312 
L 361.473925 93.817319 
L 362.644057 94.252541 
L 363.81419 93.14473 
L 365.059814 92.740249 
L 366.1922 92.866524 
L 367.362333 93.352601 
L 368.532465 91.831218 
L 369.740343 89.014578 
L 370.872729 87.383406 
L 372.005115 86.544307 
L 373.212994 85.366739 
L 374.420872 85.468315 
L 376.723391 84.381018 
L 378.006762 83.305546 
L 381.781382 76.995956 
L 383.102499 76.029607 
L 384.272631 75.322813 
L 386.726134 75.843602 
L 387.896267 76.550337 
L 389.066399 76.921948 
L 390.198785 76.56433 
L 392.53905 74.264406 
L 393.746928 73.964679 
L 394.91706 72.878269 
L 396.049446 72.48227 
L 398.50295 74.593884 
L 399.635336 75.51915 
L 401.937854 75.963433 
L 403.107986 75.62348 
L 404.315865 75.864094 
L 405.410505 76.470091 
L 406.693876 76.186339 
L 407.788515 76.285543 
L 409.071886 77.469871 
L 410.204272 78.30907 
L 412.544537 79.413081 
L 413.714669 80.784421 
L 414.884801 81.520479 
L 416.017188 82.677374 
L 418.357452 84.029359 
L 419.678569 84.296011 
L 420.65997 85.722015 
L 423.188966 88.565808 
L 424.24586 90.341558 
L 425.453738 92.106987 
L 426.888094 93.601423 
L 429.077374 93.6837 
L 430.096521 93.870364 
L 431.266653 95.354527 
L 432.512278 97.610281 
L 433.720156 98.222218 
L 434.852543 99.44838 
L 437.079569 103.31383 
L 438.325193 104.596651 
L 439.495325 105.224594 
L 440.74095 104.796539 
L 441.83559 105.064894 
L 444.251347 107.54997 
L 445.459225 105.799153 
L 446.553865 105.999096 
L 447.686251 105.976056 
L 448.856384 106.344774 
L 450.064262 105.874266 
L 451.196648 107.091596 
L 452.404527 106.809598 
L 453.612405 107.869721 
L 456.065908 112.175307 
L 457.500264 113.047835 
L 458.670396 115.292034 
L 459.953767 116.848695 
L 462.294032 117.807117 
L 463.539656 117.620875 
L 464.89852 116.8165 
L 465.842175 115.837397 
L 466.936815 116.487402 
L 468.031455 115.415878 
L 469.314825 113.486167 
L 470.484958 112.448639 
L 471.692836 112.038215 
L 472.938461 111.249916 
L 474.070847 111.143826 
L 475.203233 110.581957 
L 476.335619 110.816216 
L 477.656736 113.077993 
L 478.751376 114.708436 
L 479.921508 115.003655 
L 481.129387 115.789913 
L 482.337265 116.129683 
L 483.356413 117.933559 
L 484.753022 117.496729 
L 485.998647 117.371701 
L 487.206525 117.420945 
L 488.112434 116.521185 
L 489.207074 116.561234 
L 490.603684 115.835892 
L 491.811562 113.947539 
L 492.717471 110.632951 
L 493.887603 105.82631 
L 493.887603 105.82631 
" clip-path="url(#p893947d7ba)" style="fill: none; stroke: #2ca02c; stroke-width: 2.5; stroke-linecap: square"/>
   </g>
   <g id="patch_3">
    <path d="M 60.598945 303.182656 
L 60.598945 39.679004 
" style="fill: none; stroke: #000000; stroke-width: 1.5; stroke-linejoin: miter; stroke-linecap: square"/>
   </g>
   <g id="patch_4">
    <path d="M 60.598945 303.182656 
L 494.680273 303.182656 
" style="fill: none; stroke: #000000; stroke-width: 1.5; stroke-linejoin: miter; stroke-linecap: square"/>
   </g>
   <g id="text_11">
    <!-- 1421_wo_HF -->
    <g transform="translate(236.004922 18.441699) scale(0.14 -0.14)">
     <defs>
      <path id="ArialMT-42" d="M -97 -1272 
L -97 -866 
L 3631 -866 
L 3631 -1272 
L -97 -1272 
z
" transform="scale(0.015625)"/>
      <path id="ArialMT-5a" d="M 1034 0 
L 19 3319 
L 600 3319 
L 1128 1403 
L 1325 691 
Q 1338 744 1497 1375 
L 2025 3319 
L 2603 3319 
L 3100 1394 
L 3266 759 
L 3456 1400 
L 4025 3319 
L 4572 3319 
L 3534 0 
L 2950 0 
L 2422 1988 
L 2294 2553 
L 1622 0 
L 1034 0 
z
" transform="scale(0.015625)"/>
      <path id="ArialMT-2b" d="M 513 0 
L 513 4581 
L 1119 4581 
L 1119 2700 
L 3500 2700 
L 3500 4581 
L 4106 4581 
L 4106 0 
L 3500 0 
L 3500 2159 
L 1119 2159 
L 1119 0 
L 513 0 
z
" transform="scale(0.015625)"/>
      <path id="ArialMT-29" d="M 525 0 
L 525 4581 
L 3616 4581 
L 3616 4041 
L 1131 4041 
L 1131 2622 
L 3281 2622 
L 3281 2081 
L 1131 2081 
L 1131 0 
L 525 0 
z
" transform="scale(0.015625)"/>
     </defs>
     <use xlink:href="#ArialMT-14"/>
     <use xlink:href="#ArialMT-17" transform="translate(55.609375 0)"/>
     <use xlink:href="#ArialMT-15" transform="translate(111.21875 0)"/>
     <use xlink:href="#ArialMT-14" transform="translate(166.828125 0)"/>
     <use xlink:href="#ArialMT-42" transform="translate(222.4375 0)"/>
     <use xlink:href="#ArialMT-5a" transform="translate(278.046875 0)"/>
     <use xlink:href="#ArialMT-52" transform="translate(350.265625 0)"/>
     <use xlink:href="#ArialMT-42" transform="translate(405.875 0)"/>
     <use xlink:href="#ArialMT-2b" transform="translate(461.484375 0)"/>
     <use xlink:href="#ArialMT-29" transform="translate(533.703125 0)"/>
    </g>
    <!-- m/z 12 -->
    <g transform="translate(256.634141 33.679004) scale(0.14 -0.14)">
     <use xlink:href="#ArialMT-50"/>
     <use xlink:href="#ArialMT-12" transform="translate(83.296875 0)"/>
     <use xlink:href="#ArialMT-5d" transform="translate(111.078125 0)"/>
     <use xlink:href="#ArialMT-3" transform="translate(161.078125 0)"/>
     <use xlink:href="#ArialMT-14" transform="translate(188.859375 0)"/>
     <use xlink:href="#ArialMT-15" transform="translate(244.46875 0)"/>
    </g>
   </g>
   <g id="legend_1">
    <g id="line2d_51">
     <path d="M 512.3619 52.459277 
L 522.3619 52.459277 
L 532.3619 52.459277 
" style="fill: none; stroke: #000000; stroke-width: 2.5; stroke-linecap: square"/>
    </g>
    <g id="text_12">
     <!-- 0 h -->
     <g transform="translate(540.3619 55.959277) scale(0.1 -0.1)">
      <defs>
       <path id="ArialMT-4b" d="M 422 0 
L 422 4581 
L 984 4581 
L 984 2938 
Q 1378 3394 1978 3394 
Q 2347 3394 2619 3248 
Q 2891 3103 3008 2847 
Q 3125 2591 3125 2103 
L 3125 0 
L 2563 0 
L 2563 2103 
Q 2563 2525 2380 2717 
Q 2197 2909 1863 2909 
Q 1613 2909 1392 2779 
Q 1172 2650 1078 2428 
Q 984 2206 984 1816 
L 984 0 
L 422 0 
z
" transform="scale(0.015625)"/>
      </defs>
      <use xlink:href="#ArialMT-13"/>
      <use xlink:href="#ArialMT-3" transform="translate(55.609375 0)"/>
      <use xlink:href="#ArialMT-4b" transform="translate(83.390625 0)"/>
     </g>
    </g>
    <g id="line2d_52">
     <path d="M 512.3619 66.844043 
L 522.3619 66.844043 
L 532.3619 66.844043 
" style="fill: none; stroke: #1f77b4; stroke-width: 2.5; stroke-linecap: square"/>
    </g>
    <g id="text_13">
     <!-- 6 h -->
     <g transform="translate(540.3619 70.344043) scale(0.1 -0.1)">
      <use xlink:href="#ArialMT-19"/>
      <use xlink:href="#ArialMT-3" transform="translate(55.609375 0)"/>
      <use xlink:href="#ArialMT-4b" transform="translate(83.390625 0)"/>
     </g>
    </g>
    <g id="line2d_53">
     <path d="M 512.3619 81.228809 
L 522.3619 81.228809 
L 532.3619 81.228809 
" style="fill: none; stroke: #d62728; stroke-width: 2.5; stroke-linecap: square"/>
    </g>
    <g id="text_14">
     <!-- 24 h -->
     <g transform="translate(540.3619 84.728809) scale(0.1 -0.1)">
      <use xlink:href="#ArialMT-15"/>
      <use xlink:href="#ArialMT-17" transform="translate(55.609375 0)"/>
      <use xlink:href="#ArialMT-3" transform="translate(111.21875 0)"/>
      <use xlink:href="#ArialMT-4b" transform="translate(139 0)"/>
     </g>
    </g>
    <g id="line2d_54">
     <path d="M 512.3619 95.613574 
L 522.3619 95.613574 
L 532.3619 95.613574 
" style="fill: none; stroke: #ff7f0e; stroke-width: 2.5; stroke-linecap: square"/>
    </g>
    <g id="text_15">
     <!-- 7 d -->
     <g transform="translate(540.3619 99.113574) scale(0.1 -0.1)">
      <defs>
       <path id="ArialMT-1a" d="M 303 3981 
L 303 4522 
L 3269 4522 
L 3269 4084 
Q 2831 3619 2401 2847 
Q 1972 2075 1738 1259 
Q 1569 684 1522 0 
L 944 0 
Q 953 541 1156 1306 
Q 1359 2072 1739 2783 
Q 2119 3494 2547 3981 
L 303 3981 
z
" transform="scale(0.015625)"/>
       <path id="ArialMT-47" d="M 2575 0 
L 2575 419 
Q 2259 -75 1647 -75 
Q 1250 -75 917 144 
Q 584 363 401 755 
Q 219 1147 219 1656 
Q 219 2153 384 2558 
Q 550 2963 881 3178 
Q 1213 3394 1622 3394 
Q 1922 3394 2156 3267 
Q 2391 3141 2538 2938 
L 2538 4581 
L 3097 4581 
L 3097 0 
L 2575 0 
z
M 797 1656 
Q 797 1019 1065 703 
Q 1334 388 1700 388 
Q 2069 388 2326 689 
Q 2584 991 2584 1609 
Q 2584 2291 2321 2609 
Q 2059 2928 1675 2928 
Q 1300 2928 1048 2622 
Q 797 2316 797 1656 
z
" transform="scale(0.015625)"/>
      </defs>
      <use xlink:href="#ArialMT-1a"/>
      <use xlink:href="#ArialMT-3" transform="translate(55.609375 0)"/>
      <use xlink:href="#ArialMT-47" transform="translate(83.390625 0)"/>
     </g>
    </g>
    <g id="line2d_55">
     <path d="M 512.3619 109.99834 
L 522.3619 109.99834 
L 532.3619 109.99834 
" style="fill: none; stroke: #9467bd; stroke-width: 2.5; stroke-linecap: square"/>
    </g>
    <g id="text_16">
     <!-- 14 d -->
     <g transform="translate(540.3619 113.49834) scale(0.1 -0.1)">
      <use xlink:href="#ArialMT-14"/>
      <use xlink:href="#ArialMT-17" transform="translate(55.609375 0)"/>
      <use xlink:href="#ArialMT-3" transform="translate(111.21875 0)"/>
      <use xlink:href="#ArialMT-47" transform="translate(139 0)"/>
     </g>
    </g>
    <g id="line2d_56">
     <path d="M 512.3619 124.383105 
L 522.3619 124.383105 
L 532.3619 124.383105 
" style="fill: none; stroke: #2ca02c; stroke-width: 2.5; stroke-linecap: square"/>
    </g>
    <g id="text_17">
     <!-- 28 d -->
     <g transform="translate(540.3619 127.883105) scale(0.1 -0.1)">
      <use xlink:href="#ArialMT-15"/>
      <use xlink:href="#ArialMT-1b" transform="translate(55.609375 0)"/>
      <use xlink:href="#ArialMT-3" transform="translate(111.21875 0)"/>
      <use xlink:href="#ArialMT-47" transform="translate(139 0)"/>
     </g>
    </g>
   </g>
  </g>
 </g>
 <defs>
  <clipPath id="p893947d7ba">
   <rect x="60.598945" y="39.679004" width="434.081328" height="263.503652"/>
  </clipPath>
 </defs>
</svg>
