<?xml version="1.0" encoding="utf-8" standalone="no"?>
<!DOCTYPE svg PUBLIC "-//W3C//DTD SVG 1.1//EN"
  "http://www.w3.org/Graphics/SVG/1.1/DTD/svg11.dtd">
<svg xmlns:xlink="http://www.w3.org/1999/xlink" width="571.022837pt" height="344.160273pt" viewBox="0 0 571.022837 344.160273" xmlns="http://www.w3.org/2000/svg" version="1.1">
 <metadata>
  <rdf:RDF xmlns:dc="http://purl.org/dc/elements/1.1/" xmlns:cc="http://creativecommons.org/ns#" xmlns:rdf="http://www.w3.org/1999/02/22-rdf-syntax-ns#">
   <cc:Work>
    <dc:type rdf:resource="http://purl.org/dc/dcmitype/StillImage"/>
    <dc:date>2026-07-10T11:48:43.146824</dc:date>
    <dc:format>image/svg+xml</dc:format>
    <dc:creator>
     <cc:Agent>
      <dc:title>Matplotlib v3.11.0, https://matplotlib.org/</dc:title>
     </cc:Agent>
    </dc:creator>
   </cc:Work>
  </rdf:RDF>
 </metadata>
 <defs>
  <style type="text/css">*{stroke-linejoin: round; stroke-linecap: butt}</style>
 </defs>
 <g id="figure_1">
  <g id="patch_1">
   <path d="M 0 344.160273 
L 571.022837 344.160273 
L 571.022837 0 
L 0 0 
z
" style="fill: #ffffff"/>
  </g>
  <g id="axes_1">
   <g id="patch_2">
    <path d="M 60.598945 303.182656 
L 494.680273 303.182656 
L 494.680273 39.679004 
L 60.598945 39.679004 
z
" style="fill: #ffffff"/>
   </g>
   <g id="matplotlib.axis_1">
    <g id="xtick_1">
     <g id="line2d_1">
      <defs>
       <path id="mf4ab9a3f9c" d="M 0 0 
L 0 -6 
" style="stroke: #000000; stroke-width: 0.8"/>
      </defs>
      <g>
       <use xlink:href="#mf4ab9a3f9c" x="117.218249" y="303.182656" style="stroke: #000000; stroke-width: 0.8"/>
      </g>
     </g>
     <g id="text_1">
      <!-- 200 -->
      <g transform="translate(105.54028 316.875039) scale(0.14 -0.14)">
       <defs>
        <path id="ArialMT-15" d="M 3222 541 
L 3222 0 
L 194 0 
Q 188 203 259 391 
Q 375 700 629 1000 
Q 884 1300 1366 1694 
Q 2113 2306 2375 2664 
Q 2638 3022 2638 3341 
Q 2638 3675 2398 3904 
Q 2159 4134 1775 4134 
Q 1369 4134 1125 3890 
Q 881 3647 878 3216 
L 300 3275 
Q 359 3922 746 4261 
Q 1134 4600 1788 4600 
Q 2447 4600 2831 4234 
Q 3216 3869 3216 3328 
Q 3216 3053 3103 2787 
Q 2991 2522 2730 2228 
Q 2469 1934 1863 1422 
Q 1356 997 1212 845 
Q 1069 694 975 541 
L 3222 541 
z
" transform="scale(0.015625)"/>
        <path id="ArialMT-13" d="M 266 2259 
Q 266 3072 433 3567 
Q 600 4063 929 4331 
Q 1259 4600 1759 4600 
Q 2128 4600 2406 4451 
Q 2684 4303 2865 4023 
Q 3047 3744 3150 3342 
Q 3253 2941 3253 2259 
Q 3253 1453 3087 958 
Q 2922 463 2592 192 
Q 2263 -78 1759 -78 
Q 1097 -78 719 397 
Q 266 969 266 2259 
z
M 844 2259 
Q 844 1131 1108 757 
Q 1372 384 1759 384 
Q 2147 384 2411 759 
Q 2675 1134 2675 2259 
Q 2675 3391 2411 3762 
Q 2147 4134 1753 4134 
Q 1366 4134 1134 3806 
Q 844 3388 844 2259 
z
" transform="scale(0.015625)"/>
       </defs>
       <use xlink:href="#ArialMT-15"/>
       <use xlink:href="#ArialMT-13" transform="translate(55.609375 0)"/>
       <use xlink:href="#ArialMT-13" transform="translate(111.21875 0)"/>
      </g>
     </g>
    </g>
    <g id="xtick_2">
     <g id="line2d_2">
      <g>
       <use xlink:href="#mf4ab9a3f9c" x="192.710654" y="303.182656" style="stroke: #000000; stroke-width: 0.8"/>
      </g>
     </g>
     <g id="text_2">
      <!-- 400 -->
      <g transform="translate(181.032685 316.875039) scale(0.14 -0.14)">
       <defs>
        <path id="ArialMT-17" d="M 2069 0 
L 2069 1097 
L 81 1097 
L 81 1613 
L 2172 4581 
L 2631 4581 
L 2631 1613 
L 3250 1613 
L 3250 1097 
L 2631 1097 
L 2631 0 
L 2069 0 
z
M 2069 1613 
L 2069 3678 
L 634 1613 
L 2069 1613 
z
" transform="scale(0.015625)"/>
       </defs>
       <use xlink:href="#ArialMT-17"/>
       <use xlink:href="#ArialMT-13" transform="translate(55.609375 0)"/>
       <use xlink:href="#ArialMT-13" transform="translate(111.21875 0)"/>
      </g>
     </g>
    </g>
    <g id="xtick_3">
     <g id="line2d_3">
      <g>
       <use xlink:href="#mf4ab9a3f9c" x="268.203059" y="303.182656" style="stroke: #000000; stroke-width: 0.8"/>
      </g>
     </g>
     <g id="text_3">
      <!-- 600 -->
      <g transform="translate(256.52509 316.875039) scale(0.14 -0.14)">
       <defs>
        <path id="ArialMT-19" d="M 3184 3459 
L 2625 3416 
Q 2550 3747 2413 3897 
Q 2184 4138 1850 4138 
Q 1581 4138 1378 3988 
Q 1113 3794 959 3422 
Q 806 3050 800 2363 
Q 1003 2672 1297 2822 
Q 1591 2972 1913 2972 
Q 2475 2972 2870 2558 
Q 3266 2144 3266 1488 
Q 3266 1056 3080 686 
Q 2894 316 2569 119 
Q 2244 -78 1831 -78 
Q 1128 -78 684 439 
Q 241 956 241 2144 
Q 241 3472 731 4075 
Q 1159 4600 1884 4600 
Q 2425 4600 2770 4297 
Q 3116 3994 3184 3459 
z
M 888 1484 
Q 888 1194 1011 928 
Q 1134 663 1356 523 
Q 1578 384 1822 384 
Q 2178 384 2434 671 
Q 2691 959 2691 1453 
Q 2691 1928 2437 2201 
Q 2184 2475 1800 2475 
Q 1419 2475 1153 2201 
Q 888 1928 888 1484 
z
" transform="scale(0.015625)"/>
       </defs>
       <use xlink:href="#ArialMT-19"/>
       <use xlink:href="#ArialMT-13" transform="translate(55.609375 0)"/>
       <use xlink:href="#ArialMT-13" transform="translate(111.21875 0)"/>
      </g>
     </g>
    </g>
    <g id="xtick_4">
     <g id="line2d_4">
      <g>
       <use xlink:href="#mf4ab9a3f9c" x="343.695464" y="303.182656" style="stroke: #000000; stroke-width: 0.8"/>
      </g>
     </g>
     <g id="text_4">
      <!-- 800 -->
      <g transform="translate(332.017495 316.875039) scale(0.14 -0.14)">
       <defs>
        <path id="ArialMT-1b" d="M 1131 2484 
Q 781 2613 612 2850 
Q 444 3088 444 3419 
Q 444 3919 803 4259 
Q 1163 4600 1759 4600 
Q 2359 4600 2725 4251 
Q 3091 3903 3091 3403 
Q 3091 3084 2923 2848 
Q 2756 2613 2416 2484 
Q 2838 2347 3058 2040 
Q 3278 1734 3278 1309 
Q 3278 722 2862 322 
Q 2447 -78 1769 -78 
Q 1091 -78 675 323 
Q 259 725 259 1325 
Q 259 1772 486 2073 
Q 713 2375 1131 2484 
z
M 1019 3438 
Q 1019 3113 1228 2906 
Q 1438 2700 1772 2700 
Q 2097 2700 2305 2904 
Q 2513 3109 2513 3406 
Q 2513 3716 2298 3927 
Q 2084 4138 1766 4138 
Q 1444 4138 1231 3931 
Q 1019 3725 1019 3438 
z
M 838 1322 
Q 838 1081 952 856 
Q 1066 631 1291 507 
Q 1516 384 1775 384 
Q 2178 384 2440 643 
Q 2703 903 2703 1303 
Q 2703 1709 2433 1975 
Q 2163 2241 1756 2241 
Q 1359 2241 1098 1978 
Q 838 1716 838 1322 
z
" transform="scale(0.015625)"/>
       </defs>
       <use xlink:href="#ArialMT-1b"/>
       <use xlink:href="#ArialMT-13" transform="translate(55.609375 0)"/>
       <use xlink:href="#ArialMT-13" transform="translate(111.21875 0)"/>
      </g>
     </g>
    </g>
    <g id="xtick_5">
     <g id="line2d_5">
      <g>
       <use xlink:href="#mf4ab9a3f9c" x="419.187869" y="303.182656" style="stroke: #000000; stroke-width: 0.8"/>
      </g>
     </g>
     <g id="text_5">
      <!-- 1000 -->
      <g transform="translate(403.617244 316.875039) scale(0.14 -0.14)">
       <defs>
        <path id="ArialMT-14" d="M 2384 0 
L 1822 0 
L 1822 3584 
Q 1619 3391 1289 3197 
Q 959 3003 697 2906 
L 697 3450 
Q 1169 3672 1522 3987 
Q 1875 4303 2022 4600 
L 2384 4600 
L 2384 0 
z
" transform="scale(0.015625)"/>
       </defs>
       <use xlink:href="#ArialMT-14"/>
       <use xlink:href="#ArialMT-13" transform="translate(55.609375 0)"/>
       <use xlink:href="#ArialMT-13" transform="translate(111.21875 0)"/>
       <use xlink:href="#ArialMT-13" transform="translate(166.828125 0)"/>
      </g>
     </g>
    </g>
    <g id="xtick_6">
     <g id="line2d_6">
      <g>
       <use xlink:href="#mf4ab9a3f9c" x="494.680273" y="303.182656" style="stroke: #000000; stroke-width: 0.8"/>
      </g>
     </g>
     <g id="text_6">
      <!-- 1200 -->
      <g transform="translate(479.109648 316.875039) scale(0.14 -0.14)">
       <use xlink:href="#ArialMT-14"/>
       <use xlink:href="#ArialMT-15" transform="translate(55.609375 0)"/>
       <use xlink:href="#ArialMT-13" transform="translate(111.21875 0)"/>
       <use xlink:href="#ArialMT-13" transform="translate(166.828125 0)"/>
      </g>
     </g>
    </g>
    <g id="xtick_7">
     <g id="line2d_7">
      <defs>
       <path id="mcc0a63979c" d="M 0 0 
L 0 -3 
" style="stroke: #000000; stroke-width: 0.6"/>
      </defs>
      <g>
       <use xlink:href="#mcc0a63979c" x="60.598945" y="303.182656" style="stroke: #000000; stroke-width: 0.6"/>
      </g>
     </g>
    </g>
    <g id="xtick_8">
     <g id="line2d_8">
      <g>
       <use xlink:href="#mcc0a63979c" x="79.472047" y="303.182656" style="stroke: #000000; stroke-width: 0.6"/>
      </g>
     </g>
    </g>
    <g id="xtick_9">
     <g id="line2d_9">
      <g>
       <use xlink:href="#mcc0a63979c" x="98.345148" y="303.182656" style="stroke: #000000; stroke-width: 0.6"/>
      </g>
     </g>
    </g>
    <g id="xtick_10">
     <g id="line2d_10">
      <g>
       <use xlink:href="#mcc0a63979c" x="136.09135" y="303.182656" style="stroke: #000000; stroke-width: 0.6"/>
      </g>
     </g>
    </g>
    <g id="xtick_11">
     <g id="line2d_11">
      <g>
       <use xlink:href="#mcc0a63979c" x="154.964451" y="303.182656" style="stroke: #000000; stroke-width: 0.6"/>
      </g>
     </g>
    </g>
    <g id="xtick_12">
     <g id="line2d_12">
      <g>
       <use xlink:href="#mcc0a63979c" x="173.837553" y="303.182656" style="stroke: #000000; stroke-width: 0.6"/>
      </g>
     </g>
    </g>
    <g id="xtick_13">
     <g id="line2d_13">
      <g>
       <use xlink:href="#mcc0a63979c" x="211.583755" y="303.182656" style="stroke: #000000; stroke-width: 0.6"/>
      </g>
     </g>
    </g>
    <g id="xtick_14">
     <g id="line2d_14">
      <g>
       <use xlink:href="#mcc0a63979c" x="230.456856" y="303.182656" style="stroke: #000000; stroke-width: 0.6"/>
      </g>
     </g>
    </g>
    <g id="xtick_15">
     <g id="line2d_15">
      <g>
       <use xlink:href="#mcc0a63979c" x="249.329958" y="303.182656" style="stroke: #000000; stroke-width: 0.6"/>
      </g>
     </g>
    </g>
    <g id="xtick_16">
     <g id="line2d_16">
      <g>
       <use xlink:href="#mcc0a63979c" x="287.07616" y="303.182656" style="stroke: #000000; stroke-width: 0.6"/>
      </g>
     </g>
    </g>
    <g id="xtick_17">
     <g id="line2d_17">
      <g>
       <use xlink:href="#mcc0a63979c" x="305.949261" y="303.182656" style="stroke: #000000; stroke-width: 0.6"/>
      </g>
     </g>
    </g>
    <g id="xtick_18">
     <g id="line2d_18">
      <g>
       <use xlink:href="#mcc0a63979c" x="324.822362" y="303.182656" style="stroke: #000000; stroke-width: 0.6"/>
      </g>
     </g>
    </g>
    <g id="xtick_19">
     <g id="line2d_19">
      <g>
       <use xlink:href="#mcc0a63979c" x="362.568565" y="303.182656" style="stroke: #000000; stroke-width: 0.6"/>
      </g>
     </g>
    </g>
    <g id="xtick_20">
     <g id="line2d_20">
      <g>
       <use xlink:href="#mcc0a63979c" x="381.441666" y="303.182656" style="stroke: #000000; stroke-width: 0.6"/>
      </g>
     </g>
    </g>
    <g id="xtick_21">
     <g id="line2d_21">
      <g>
       <use xlink:href="#mcc0a63979c" x="400.314767" y="303.182656" style="stroke: #000000; stroke-width: 0.6"/>
      </g>
     </g>
    </g>
    <g id="xtick_22">
     <g id="line2d_22">
      <g>
       <use xlink:href="#mcc0a63979c" x="438.06097" y="303.182656" style="stroke: #000000; stroke-width: 0.6"/>
      </g>
     </g>
    </g>
    <g id="xtick_23">
     <g id="line2d_23">
      <g>
       <use xlink:href="#mcc0a63979c" x="456.934071" y="303.182656" style="stroke: #000000; stroke-width: 0.6"/>
      </g>
     </g>
    </g>
    <g id="xtick_24">
     <g id="line2d_24">
      <g>
       <use xlink:href="#mcc0a63979c" x="475.807172" y="303.182656" style="stroke: #000000; stroke-width: 0.6"/>
      </g>
     </g>
    </g>
    <g id="text_7">
     <!-- T1 Temperature (°C) -->
     <g transform="translate(213.900234 334.013711) scale(0.14 -0.14)">
      <defs>
       <path id="ArialMT-37" d="M 1659 0 
L 1659 4041 
L 150 4041 
L 150 4581 
L 3781 4581 
L 3781 4041 
L 2266 4041 
L 2266 0 
L 1659 0 
z
" transform="scale(0.015625)"/>
       <path id="ArialMT-3" transform="scale(0.015625)"/>
       <path id="ArialMT-48" d="M 2694 1069 
L 3275 997 
Q 3138 488 2766 206 
Q 2394 -75 1816 -75 
Q 1088 -75 661 373 
Q 234 822 234 1631 
Q 234 2469 665 2931 
Q 1097 3394 1784 3394 
Q 2450 3394 2872 2941 
Q 3294 2488 3294 1666 
Q 3294 1616 3291 1516 
L 816 1516 
Q 847 969 1125 678 
Q 1403 388 1819 388 
Q 2128 388 2347 550 
Q 2566 713 2694 1069 
z
M 847 1978 
L 2700 1978 
Q 2663 2397 2488 2606 
Q 2219 2931 1791 2931 
Q 1403 2931 1139 2672 
Q 875 2413 847 1978 
z
" transform="scale(0.015625)"/>
       <path id="ArialMT-50" d="M 422 0 
L 422 3319 
L 925 3319 
L 925 2853 
Q 1081 3097 1340 3245 
Q 1600 3394 1931 3394 
Q 2300 3394 2536 3241 
Q 2772 3088 2869 2813 
Q 3263 3394 3894 3394 
Q 4388 3394 4653 3120 
Q 4919 2847 4919 2278 
L 4919 0 
L 4359 0 
L 4359 2091 
Q 4359 2428 4304 2576 
Q 4250 2725 4106 2815 
Q 3963 2906 3769 2906 
Q 3419 2906 3187 2673 
Q 2956 2441 2956 1928 
L 2956 0 
L 2394 0 
L 2394 2156 
Q 2394 2531 2256 2718 
Q 2119 2906 1806 2906 
Q 1569 2906 1367 2781 
Q 1166 2656 1075 2415 
Q 984 2175 984 1722 
L 984 0 
L 422 0 
z
" transform="scale(0.015625)"/>
       <path id="ArialMT-53" d="M 422 -1272 
L 422 3319 
L 934 3319 
L 934 2888 
Q 1116 3141 1344 3267 
Q 1572 3394 1897 3394 
Q 2322 3394 2647 3175 
Q 2972 2956 3137 2557 
Q 3303 2159 3303 1684 
Q 3303 1175 3120 767 
Q 2938 359 2589 142 
Q 2241 -75 1856 -75 
Q 1575 -75 1351 44 
Q 1128 163 984 344 
L 984 -1272 
L 422 -1272 
z
M 931 1641 
Q 931 1000 1190 694 
Q 1450 388 1819 388 
Q 2194 388 2461 705 
Q 2728 1022 2728 1688 
Q 2728 2322 2467 2637 
Q 2206 2953 1844 2953 
Q 1484 2953 1207 2617 
Q 931 2281 931 1641 
z
" transform="scale(0.015625)"/>
       <path id="ArialMT-55" d="M 416 0 
L 416 3319 
L 922 3319 
L 922 2816 
Q 1116 3169 1280 3281 
Q 1444 3394 1641 3394 
Q 1925 3394 2219 3213 
L 2025 2691 
Q 1819 2813 1613 2813 
Q 1428 2813 1281 2702 
Q 1134 2591 1072 2394 
Q 978 2094 978 1738 
L 978 0 
L 416 0 
z
" transform="scale(0.015625)"/>
       <path id="ArialMT-44" d="M 2588 409 
Q 2275 144 1986 34 
Q 1697 -75 1366 -75 
Q 819 -75 525 192 
Q 231 459 231 875 
Q 231 1119 342 1320 
Q 453 1522 633 1644 
Q 813 1766 1038 1828 
Q 1203 1872 1538 1913 
Q 2219 1994 2541 2106 
Q 2544 2222 2544 2253 
Q 2544 2597 2384 2738 
Q 2169 2928 1744 2928 
Q 1347 2928 1158 2789 
Q 969 2650 878 2297 
L 328 2372 
Q 403 2725 575 2942 
Q 747 3159 1072 3276 
Q 1397 3394 1825 3394 
Q 2250 3394 2515 3294 
Q 2781 3194 2906 3042 
Q 3031 2891 3081 2659 
Q 3109 2516 3109 2141 
L 3109 1391 
Q 3109 606 3145 398 
Q 3181 191 3288 0 
L 2700 0 
Q 2613 175 2588 409 
z
M 2541 1666 
Q 2234 1541 1622 1453 
Q 1275 1403 1131 1340 
Q 988 1278 909 1158 
Q 831 1038 831 891 
Q 831 666 1001 516 
Q 1172 366 1500 366 
Q 1825 366 2078 508 
Q 2331 650 2450 897 
Q 2541 1088 2541 1459 
L 2541 1666 
z
" transform="scale(0.015625)"/>
       <path id="ArialMT-57" d="M 1650 503 
L 1731 6 
Q 1494 -44 1306 -44 
Q 1000 -44 831 53 
Q 663 150 594 308 
Q 525 466 525 972 
L 525 2881 
L 113 2881 
L 113 3319 
L 525 3319 
L 525 4141 
L 1084 4478 
L 1084 3319 
L 1650 3319 
L 1650 2881 
L 1084 2881 
L 1084 941 
Q 1084 700 1114 631 
Q 1144 563 1211 522 
Q 1278 481 1403 481 
Q 1497 481 1650 503 
z
" transform="scale(0.015625)"/>
       <path id="ArialMT-58" d="M 2597 0 
L 2597 488 
Q 2209 -75 1544 -75 
Q 1250 -75 995 37 
Q 741 150 617 320 
Q 494 491 444 738 
Q 409 903 409 1263 
L 409 3319 
L 972 3319 
L 972 1478 
Q 972 1038 1006 884 
Q 1059 663 1231 536 
Q 1403 409 1656 409 
Q 1909 409 2131 539 
Q 2353 669 2445 892 
Q 2538 1116 2538 1541 
L 2538 3319 
L 3100 3319 
L 3100 0 
L 2597 0 
z
" transform="scale(0.015625)"/>
       <path id="ArialMT-b" d="M 1497 -1347 
Q 1031 -759 709 28 
Q 388 816 388 1659 
Q 388 2403 628 3084 
Q 909 3875 1497 4659 
L 1900 4659 
Q 1522 4009 1400 3731 
Q 1209 3300 1100 2831 
Q 966 2247 966 1656 
Q 966 153 1900 -1347 
L 1497 -1347 
z
" transform="scale(0.015625)"/>
       <path id="ArialMT-83" d="M 400 3794 
Q 400 4153 654 4406 
Q 909 4659 1266 4659 
Q 1628 4659 1881 4406 
Q 2134 4153 2134 3794 
Q 2134 3434 1879 3179 
Q 1625 2925 1266 2925 
Q 909 2925 654 3178 
Q 400 3431 400 3794 
z
M 741 3794 
Q 741 3575 895 3420 
Q 1050 3266 1269 3266 
Q 1484 3266 1639 3420 
Q 1794 3575 1794 3794 
Q 1794 4013 1639 4167 
Q 1484 4322 1269 4322 
Q 1050 4322 895 4167 
Q 741 4013 741 3794 
z
" transform="scale(0.015625)"/>
       <path id="ArialMT-26" d="M 3763 1606 
L 4369 1453 
Q 4178 706 3683 314 
Q 3188 -78 2472 -78 
Q 1731 -78 1267 223 
Q 803 525 561 1097 
Q 319 1669 319 2325 
Q 319 3041 592 3573 
Q 866 4106 1370 4382 
Q 1875 4659 2481 4659 
Q 3169 4659 3637 4309 
Q 4106 3959 4291 3325 
L 3694 3184 
Q 3534 3684 3231 3912 
Q 2928 4141 2469 4141 
Q 1941 4141 1586 3887 
Q 1231 3634 1087 3207 
Q 944 2781 944 2328 
Q 944 1744 1114 1308 
Q 1284 872 1643 656 
Q 2003 441 2422 441 
Q 2931 441 3284 734 
Q 3638 1028 3763 1606 
z
" transform="scale(0.015625)"/>
       <path id="ArialMT-c" d="M 791 -1347 
L 388 -1347 
Q 1322 153 1322 1656 
Q 1322 2244 1188 2822 
Q 1081 3291 891 3722 
Q 769 4003 388 4659 
L 791 4659 
Q 1378 3875 1659 3084 
Q 1900 2403 1900 1659 
Q 1900 816 1576 28 
Q 1253 -759 791 -1347 
z
" transform="scale(0.015625)"/>
      </defs>
      <use xlink:href="#ArialMT-37"/>
      <use xlink:href="#ArialMT-14" transform="translate(61.078125 0)"/>
      <use xlink:href="#ArialMT-3" transform="translate(116.6875 0)"/>
      <use xlink:href="#ArialMT-37" transform="translate(142.65625 0)"/>
      <use xlink:href="#ArialMT-48" transform="translate(192.65625 0)"/>
      <use xlink:href="#ArialMT-50" transform="translate(248.265625 0)"/>
      <use xlink:href="#ArialMT-53" transform="translate(331.5625 0)"/>
      <use xlink:href="#ArialMT-48" transform="translate(387.171875 0)"/>
      <use xlink:href="#ArialMT-55" transform="translate(442.78125 0)"/>
      <use xlink:href="#ArialMT-44" transform="translate(476.078125 0)"/>
      <use xlink:href="#ArialMT-57" transform="translate(531.6875 0)"/>
      <use xlink:href="#ArialMT-58" transform="translate(559.46875 0)"/>
      <use xlink:href="#ArialMT-55" transform="translate(615.078125 0)"/>
      <use xlink:href="#ArialMT-48" transform="translate(648.375 0)"/>
      <use xlink:href="#ArialMT-3" transform="translate(703.984375 0)"/>
      <use xlink:href="#ArialMT-b" transform="translate(731.765625 0)"/>
      <use xlink:href="#ArialMT-83" transform="translate(765.0625 0)"/>
      <use xlink:href="#ArialMT-26" transform="translate(805.046875 0)"/>
      <use xlink:href="#ArialMT-c" transform="translate(877.265625 0)"/>
     </g>
    </g>
   </g>
   <g id="matplotlib.axis_2">
    <g id="ytick_1">
     <g id="line2d_25">
      <defs>
       <path id="m3fe57e6f0e" d="M 0 0 
L 6 0 
" style="stroke: #000000; stroke-width: 0.8"/>
      </defs>
      <g>
       <use xlink:href="#m3fe57e6f0e" x="60.598945" y="249.564159" style="stroke: #000000; stroke-width: 0.8"/>
      </g>
     </g>
     <g id="text_8">
      <!-- $\mathdefault{10^{-13}}$ -->
      <g transform="translate(24.338945 256.004159) scale(0.14 -0.14)">
       <defs>
        <path id="ArialMT-ed" d="M 3381 1997 
L 356 1997 
L 356 2522 
L 3381 2522 
L 3381 1997 
z
" transform="scale(0.015625)"/>
        <path id="ArialMT-16" d="M 269 1209 
L 831 1284 
Q 928 806 1161 595 
Q 1394 384 1728 384 
Q 2125 384 2398 659 
Q 2672 934 2672 1341 
Q 2672 1728 2419 1979 
Q 2166 2231 1775 2231 
Q 1616 2231 1378 2169 
L 1441 2663 
Q 1497 2656 1531 2656 
Q 1891 2656 2178 2843 
Q 2466 3031 2466 3422 
Q 2466 3731 2256 3934 
Q 2047 4138 1716 4138 
Q 1388 4138 1169 3931 
Q 950 3725 888 3313 
L 325 3413 
Q 428 3978 793 4289 
Q 1159 4600 1703 4600 
Q 2078 4600 2393 4439 
Q 2709 4278 2876 4000 
Q 3044 3722 3044 3409 
Q 3044 3113 2884 2869 
Q 2725 2625 2413 2481 
Q 2819 2388 3044 2092 
Q 3269 1797 3269 1353 
Q 3269 753 2831 336 
Q 2394 -81 1725 -81 
Q 1122 -81 723 278 
Q 325 638 269 1209 
z
" transform="scale(0.015625)"/>
       </defs>
       <use xlink:href="#ArialMT-14" transform="translate(0 0.3875)"/>
       <use xlink:href="#ArialMT-13" transform="translate(55.615234 0.3875)"/>
       <use xlink:href="#ArialMT-ed" transform="translate(112.1875 41.6875) scale(0.7)"/>
       <use xlink:href="#ArialMT-14" transform="translate(153.066406 41.6875) scale(0.7)"/>
       <use xlink:href="#ArialMT-16" transform="translate(191.99707 41.6875) scale(0.7)"/>
      </g>
     </g>
    </g>
    <g id="ytick_2">
     <g id="line2d_26">
      <g>
       <use xlink:href="#m3fe57e6f0e" x="60.598945" y="174.475157" style="stroke: #000000; stroke-width: 0.8"/>
      </g>
     </g>
     <g id="text_9">
      <!-- $\mathdefault{10^{-12}}$ -->
      <g transform="translate(24.338945 180.915157) scale(0.14 -0.14)">
       <use xlink:href="#ArialMT-14" transform="translate(0 0.3875)"/>
       <use xlink:href="#ArialMT-13" transform="translate(55.615234 0.3875)"/>
       <use xlink:href="#ArialMT-ed" transform="translate(112.1875 41.6875) scale(0.7)"/>
       <use xlink:href="#ArialMT-14" transform="translate(153.066406 41.6875) scale(0.7)"/>
       <use xlink:href="#ArialMT-15" transform="translate(191.99707 41.6875) scale(0.7)"/>
      </g>
     </g>
    </g>
    <g id="ytick_3">
     <g id="line2d_27">
      <g>
       <use xlink:href="#m3fe57e6f0e" x="60.598945" y="99.386155" style="stroke: #000000; stroke-width: 0.8"/>
      </g>
     </g>
     <g id="text_10">
      <!-- $\mathdefault{10^{-11}}$ -->
      <g transform="translate(25.038945 105.826155) scale(0.14 -0.14)">
       <use xlink:href="#ArialMT-14" transform="translate(0 0.3875)"/>
       <use xlink:href="#ArialMT-13" transform="translate(55.615234 0.3875)"/>
       <use xlink:href="#ArialMT-ed" transform="translate(112.1875 41.6875) scale(0.7)"/>
       <use xlink:href="#ArialMT-14" transform="translate(153.066406 41.6875) scale(0.7)"/>
       <use xlink:href="#ArialMT-14" transform="translate(187.09707 41.6875) scale(0.7)"/>
      </g>
     </g>
    </g>
    <g id="ytick_4">
     <g id="line2d_28">
      <defs>
       <path id="m59bdff3759" d="M 0 0 
L 3 0 
" style="stroke: #000000; stroke-width: 0.6"/>
      </defs>
      <g>
       <use xlink:href="#m59bdff3759" x="60.598945" y="302.049119" style="stroke: #000000; stroke-width: 0.6"/>
      </g>
     </g>
    </g>
    <g id="ytick_5">
     <g id="line2d_29">
      <g>
       <use xlink:href="#m59bdff3759" x="60.598945" y="288.826602" style="stroke: #000000; stroke-width: 0.6"/>
      </g>
     </g>
    </g>
    <g id="ytick_6">
     <g id="line2d_30">
      <g>
       <use xlink:href="#m59bdff3759" x="60.598945" y="279.445077" style="stroke: #000000; stroke-width: 0.6"/>
      </g>
     </g>
    </g>
    <g id="ytick_7">
     <g id="line2d_31">
      <g>
       <use xlink:href="#m59bdff3759" x="60.598945" y="272.168201" style="stroke: #000000; stroke-width: 0.6"/>
      </g>
     </g>
    </g>
    <g id="ytick_8">
     <g id="line2d_32">
      <g>
       <use xlink:href="#m59bdff3759" x="60.598945" y="266.22256" style="stroke: #000000; stroke-width: 0.6"/>
      </g>
     </g>
    </g>
    <g id="ytick_9">
     <g id="line2d_33">
      <g>
       <use xlink:href="#m59bdff3759" x="60.598945" y="261.195593" style="stroke: #000000; stroke-width: 0.6"/>
      </g>
     </g>
    </g>
    <g id="ytick_10">
     <g id="line2d_34">
      <g>
       <use xlink:href="#m59bdff3759" x="60.598945" y="256.841035" style="stroke: #000000; stroke-width: 0.6"/>
      </g>
     </g>
    </g>
    <g id="ytick_11">
     <g id="line2d_35">
      <g>
       <use xlink:href="#m59bdff3759" x="60.598945" y="253.000043" style="stroke: #000000; stroke-width: 0.6"/>
      </g>
     </g>
    </g>
    <g id="ytick_12">
     <g id="line2d_36">
      <g>
       <use xlink:href="#m59bdff3759" x="60.598945" y="226.960117" style="stroke: #000000; stroke-width: 0.6"/>
      </g>
     </g>
    </g>
    <g id="ytick_13">
     <g id="line2d_37">
      <g>
       <use xlink:href="#m59bdff3759" x="60.598945" y="213.7376" style="stroke: #000000; stroke-width: 0.6"/>
      </g>
     </g>
    </g>
    <g id="ytick_14">
     <g id="line2d_38">
      <g>
       <use xlink:href="#m59bdff3759" x="60.598945" y="204.356075" style="stroke: #000000; stroke-width: 0.6"/>
      </g>
     </g>
    </g>
    <g id="ytick_15">
     <g id="line2d_39">
      <g>
       <use xlink:href="#m59bdff3759" x="60.598945" y="197.079199" style="stroke: #000000; stroke-width: 0.6"/>
      </g>
     </g>
    </g>
    <g id="ytick_16">
     <g id="line2d_40">
      <g>
       <use xlink:href="#m59bdff3759" x="60.598945" y="191.133558" style="stroke: #000000; stroke-width: 0.6"/>
      </g>
     </g>
    </g>
    <g id="ytick_17">
     <g id="line2d_41">
      <g>
       <use xlink:href="#m59bdff3759" x="60.598945" y="186.106591" style="stroke: #000000; stroke-width: 0.6"/>
      </g>
     </g>
    </g>
    <g id="ytick_18">
     <g id="line2d_42">
      <g>
       <use xlink:href="#m59bdff3759" x="60.598945" y="181.752033" style="stroke: #000000; stroke-width: 0.6"/>
      </g>
     </g>
    </g>
    <g id="ytick_19">
     <g id="line2d_43">
      <g>
       <use xlink:href="#m59bdff3759" x="60.598945" y="177.911041" style="stroke: #000000; stroke-width: 0.6"/>
      </g>
     </g>
    </g>
    <g id="ytick_20">
     <g id="line2d_44">
      <g>
       <use xlink:href="#m59bdff3759" x="60.598945" y="151.871115" style="stroke: #000000; stroke-width: 0.6"/>
      </g>
     </g>
    </g>
    <g id="ytick_21">
     <g id="line2d_45">
      <g>
       <use xlink:href="#m59bdff3759" x="60.598945" y="138.648598" style="stroke: #000000; stroke-width: 0.6"/>
      </g>
     </g>
    </g>
    <g id="ytick_22">
     <g id="line2d_46">
      <g>
       <use xlink:href="#m59bdff3759" x="60.598945" y="129.267073" style="stroke: #000000; stroke-width: 0.6"/>
      </g>
     </g>
    </g>
    <g id="ytick_23">
     <g id="line2d_47">
      <g>
       <use xlink:href="#m59bdff3759" x="60.598945" y="121.990197" style="stroke: #000000; stroke-width: 0.6"/>
      </g>
     </g>
    </g>
    <g id="ytick_24">
     <g id="line2d_48">
      <g>
       <use xlink:href="#m59bdff3759" x="60.598945" y="116.044556" style="stroke: #000000; stroke-width: 0.6"/>
      </g>
     </g>
    </g>
    <g id="ytick_25">
     <g id="line2d_49">
      <g>
       <use xlink:href="#m59bdff3759" x="60.598945" y="111.017589" style="stroke: #000000; stroke-width: 0.6"/>
      </g>
     </g>
    </g>
    <g id="ytick_26">
     <g id="line2d_50">
      <g>
       <use xlink:href="#m59bdff3759" x="60.598945" y="106.663031" style="stroke: #000000; stroke-width: 0.6"/>
      </g>
     </g>
    </g>
    <g id="ytick_27">
     <g id="line2d_51">
      <g>
       <use xlink:href="#m59bdff3759" x="60.598945" y="102.822039" style="stroke: #000000; stroke-width: 0.6"/>
      </g>
     </g>
    </g>
    <g id="ytick_28">
     <g id="line2d_52">
      <g>
       <use xlink:href="#m59bdff3759" x="60.598945" y="76.782113" style="stroke: #000000; stroke-width: 0.6"/>
      </g>
     </g>
    </g>
    <g id="ytick_29">
     <g id="line2d_53">
      <g>
       <use xlink:href="#m59bdff3759" x="60.598945" y="63.559596" style="stroke: #000000; stroke-width: 0.6"/>
      </g>
     </g>
    </g>
    <g id="ytick_30">
     <g id="line2d_54">
      <g>
       <use xlink:href="#m59bdff3759" x="60.598945" y="54.178071" style="stroke: #000000; stroke-width: 0.6"/>
      </g>
     </g>
    </g>
    <g id="ytick_31">
     <g id="line2d_55">
      <g>
       <use xlink:href="#m59bdff3759" x="60.598945" y="46.901195" style="stroke: #000000; stroke-width: 0.6"/>
      </g>
     </g>
    </g>
    <g id="ytick_32">
     <g id="line2d_56">
      <g>
       <use xlink:href="#m59bdff3759" x="60.598945" y="40.955554" style="stroke: #000000; stroke-width: 0.6"/>
      </g>
     </g>
    </g>
    <g id="text_11">
     <!-- Ion Current (m/z 16) -->
     <g transform="translate(17.392383 234.056768) rotate(-90) scale(0.14 -0.14)">
      <defs>
       <path id="ArialMT-2c" d="M 597 0 
L 597 4581 
L 1203 4581 
L 1203 0 
L 597 0 
z
" transform="scale(0.015625)"/>
       <path id="ArialMT-52" d="M 213 1659 
Q 213 2581 725 3025 
Q 1153 3394 1769 3394 
Q 2453 3394 2887 2945 
Q 3322 2497 3322 1706 
Q 3322 1066 3130 698 
Q 2938 331 2570 128 
Q 2203 -75 1769 -75 
Q 1072 -75 642 372 
Q 213 819 213 1659 
z
M 791 1659 
Q 791 1022 1069 705 
Q 1347 388 1769 388 
Q 2188 388 2466 706 
Q 2744 1025 2744 1678 
Q 2744 2294 2464 2611 
Q 2184 2928 1769 2928 
Q 1347 2928 1069 2612 
Q 791 2297 791 1659 
z
" transform="scale(0.015625)"/>
       <path id="ArialMT-51" d="M 422 0 
L 422 3319 
L 928 3319 
L 928 2847 
Q 1294 3394 1984 3394 
Q 2284 3394 2536 3286 
Q 2788 3178 2913 3003 
Q 3038 2828 3088 2588 
Q 3119 2431 3119 2041 
L 3119 0 
L 2556 0 
L 2556 2019 
Q 2556 2363 2490 2533 
Q 2425 2703 2258 2804 
Q 2091 2906 1866 2906 
Q 1506 2906 1245 2678 
Q 984 2450 984 1813 
L 984 0 
L 422 0 
z
" transform="scale(0.015625)"/>
       <path id="ArialMT-12" d="M 0 -78 
L 1328 4659 
L 1778 4659 
L 453 -78 
L 0 -78 
z
" transform="scale(0.015625)"/>
       <path id="ArialMT-5d" d="M 125 0 
L 125 456 
L 2238 2881 
Q 1878 2863 1603 2863 
L 250 2863 
L 250 3319 
L 2963 3319 
L 2963 2947 
L 1166 841 
L 819 456 
Q 1197 484 1528 484 
L 3063 484 
L 3063 0 
L 125 0 
z
" transform="scale(0.015625)"/>
      </defs>
      <use xlink:href="#ArialMT-2c"/>
      <use xlink:href="#ArialMT-52" transform="translate(27.78125 0)"/>
      <use xlink:href="#ArialMT-51" transform="translate(83.390625 0)"/>
      <use xlink:href="#ArialMT-3" transform="translate(139 0)"/>
      <use xlink:href="#ArialMT-26" transform="translate(166.78125 0)"/>
      <use xlink:href="#ArialMT-58" transform="translate(239 0)"/>
      <use xlink:href="#ArialMT-55" transform="translate(294.609375 0)"/>
      <use xlink:href="#ArialMT-55" transform="translate(327.90625 0)"/>
      <use xlink:href="#ArialMT-48" transform="translate(361.203125 0)"/>
      <use xlink:href="#ArialMT-51" transform="translate(416.8125 0)"/>
      <use xlink:href="#ArialMT-57" transform="translate(472.421875 0)"/>
      <use xlink:href="#ArialMT-3" transform="translate(500.203125 0)"/>
      <use xlink:href="#ArialMT-b" transform="translate(527.984375 0)"/>
      <use xlink:href="#ArialMT-50" transform="translate(561.28125 0)"/>
      <use xlink:href="#ArialMT-12" transform="translate(644.578125 0)"/>
      <use xlink:href="#ArialMT-5d" transform="translate(672.359375 0)"/>
      <use xlink:href="#ArialMT-3" transform="translate(722.359375 0)"/>
      <use xlink:href="#ArialMT-14" transform="translate(750.140625 0)"/>
      <use xlink:href="#ArialMT-19" transform="translate(805.75 0)"/>
      <use xlink:href="#ArialMT-c" transform="translate(861.359375 0)"/>
     </g>
    </g>
   </g>
   <g id="line2d_57">
    <path d="M 59.617544 248.849663 
L 59.617544 251.464276 
L 59.542052 236.904857 
L 59.542052 238.650354 
L 60.598945 241.449761 
L 62.108793 239.25686 
L 64.298073 243.958104 
L 66.600592 245.471762 
L 70.48845 251.214326 
L 71.960552 249.800231 
L 73.243923 250.306726 
L 74.376309 251.149783 
L 75.470949 246.211324 
L 76.527843 245.359967 
L 77.660229 240.122764 
L 78.754869 242.594031 
L 79.887255 239.478015 
L 81.095133 238.203382 
L 82.303012 238.981477 
L 84.681022 243.90726 
L 85.888901 244.479005 
L 87.210018 244.196574 
L 88.531135 243.217204 
L 89.77676 242.127013 
L 91.022384 242.667189 
L 92.230263 240.580831 
L 93.438141 239.29229 
L 94.608274 241.203817 
L 95.778406 243.755832 
L 96.948538 243.46368 
L 98.080924 245.320253 
L 99.326549 248.909942 
L 100.534428 248.378543 
L 101.70456 250.77098 
L 102.874692 250.587202 
L 104.044824 245.656045 
L 105.214957 243.555904 
L 106.422835 243.052918 
L 107.592967 241.086359 
L 108.725353 241.219873 
L 109.85774 243.840207 
L 110.990126 244.916452 
L 112.198004 244.954722 
L 113.368136 243.708482 
L 114.576015 241.190655 
L 115.783893 237.529229 
L 116.991772 239.155426 
L 118.124158 238.580664 
L 119.29429 238.192638 
L 120.464422 237.620884 
L 121.672301 236.012115 
L 122.842433 230.359213 
L 125.295936 223.144226 
L 126.503815 220.416287 
L 127.673947 218.980738 
L 128.844079 217.281712 
L 130.014212 216.120614 
L 131.184344 214.083484 
L 132.354476 210.950431 
L 133.524608 208.798624 
L 134.656995 205.628089 
L 135.864873 204.296674 
L 137.072751 202.494778 
L 138.318376 199.983453 
L 139.526255 199.177044 
L 140.696387 197.351529 
L 141.791027 196.725972 
L 142.998905 195.267282 
L 144.131291 193.310115 
L 146.471556 191.62308 
L 147.641688 190.420113 
L 150.095191 187.384244 
L 151.227577 187.553933 
L 152.435456 185.520672 
L 153.605588 184.588919 
L 156.021345 182.404698 
L 157.153731 182.044093 
L 158.286117 180.925839 
L 159.45625 178.947409 
L 161.872006 176.488194 
L 163.042139 175.928832 
L 164.250017 173.991418 
L 165.42015 173.185892 
L 166.628028 172.8898 
L 169.006039 171.001132 
L 171.270811 166.947991 
L 172.440943 165.169382 
L 173.648822 163.786988 
L 174.818954 163.37454 
L 178.367097 158.980014 
L 179.499483 156.697929 
L 180.707361 154.595796 
L 185.387891 143.200578 
L 188.97378 133.745561 
L 191.314044 125.648834 
L 193.767548 116.151097 
L 194.899934 112.628732 
L 196.183304 110.071514 
L 197.353437 108.473356 
L 198.523569 107.531555 
L 199.655955 107.726149 
L 200.788341 108.189188 
L 203.09086 109.778787 
L 204.298738 110.067696 
L 205.506617 110.510332 
L 207.846881 112.72978 
L 212.565156 118.135229 
L 213.773035 119.356593 
L 214.905421 120.06884 
L 216.075553 119.719172 
L 218.529056 118.674531 
L 219.699189 117.552256 
L 220.793828 116.930998 
L 221.963961 116.654259 
L 223.171839 116.768511 
L 224.341972 117.686191 
L 225.512104 119.187654 
L 227.852368 122.870776 
L 229.022501 125.098941 
L 230.230379 126.889555 
L 233.70303 131.078048 
L 234.873162 132.095554 
L 237.251173 135.783912 
L 238.383559 136.193136 
L 240.76157 135.313501 
L 244.271966 133.15915 
L 245.479845 132.98289 
L 246.649977 133.623497 
L 247.857856 135.147934 
L 248.990242 137.049894 
L 250.160374 137.177325 
L 251.330506 138.216022 
L 252.538385 139.528208 
L 253.708517 140.603322 
L 254.840903 140.825118 
L 256.048782 140.529348 
L 259.634671 139.252187 
L 260.767057 138.865653 
L 261.974935 138.131281 
L 264.352946 138.350748 
L 265.523078 137.899073 
L 266.693211 137.861332 
L 267.901089 137.595726 
L 269.033475 137.19377 
L 270.203607 136.377288 
L 271.335994 136.483939 
L 272.506126 136.413831 
L 273.751751 135.958068 
L 274.884137 135.762751 
L 277.262147 133.890624 
L 281.942676 131.178538 
L 284.282941 130.392768 
L 286.660952 128.212641 
L 287.831084 126.629864 
L 289.001216 125.481116 
L 290.209095 124.702639 
L 291.341481 124.609015 
L 294.889624 123.83391 
L 296.02201 123.385185 
L 298.400021 121.684016 
L 299.607899 120.385147 
L 301.910418 118.627422 
L 303.042804 117.3934 
L 304.212936 115.785087 
L 305.496307 114.226345 
L 306.704185 112.457641 
L 307.94981 111.157225 
L 309.119942 110.410121 
L 310.327821 109.91731 
L 311.535699 109.842546 
L 312.743578 110.448442 
L 316.216228 111.568709 
L 317.348614 111.800794 
L 318.518747 111.656498 
L 320.896757 112.505275 
L 322.06689 112.684673 
L 323.237022 113.159299 
L 327.879805 115.733739 
L 329.049937 115.992069 
L 330.257816 116.08489 
L 331.427948 116.444018 
L 332.635826 116.474936 
L 336.108477 116.033774 
L 337.316355 116.133097 
L 338.486488 115.804325 
L 339.618874 115.891928 
L 341.996885 115.830868 
L 343.167017 115.871636 
L 345.469535 116.659698 
L 346.71516 116.704623 
L 349.017678 116.276297 
L 351.395689 114.96159 
L 352.565821 114.518967 
L 353.7737 113.796657 
L 354.906086 113.350285 
L 356.076218 113.009079 
L 357.208604 112.186837 
L 359.624361 110.951971 
L 360.794493 110.144459 
L 363.097012 107.440692 
L 364.30489 106.221982 
L 365.39953 104.599403 
L 366.645155 103.266497 
L 367.815287 101.800824 
L 369.023165 100.105696 
L 371.287938 97.451422 
L 373.703695 94.109607 
L 380.913219 83.414766 
L 382.309829 81.55264 
L 387.103596 73.923125 
L 388.311475 72.431847 
L 389.368369 70.888289 
L 391.821872 68.048735 
L 392.992004 66.716058 
L 395.294522 64.56498 
L 397.634787 62.754522 
L 400.012798 61.451006 
L 401.220676 60.890616 
L 402.353062 60.509776 
L 404.768819 60.220641 
L 409.524841 60.83941 
L 412.921999 61.915693 
L 416.470142 63.553048 
L 418.810407 65.104838 
L 420.093777 66.015732 
L 422.35855 68.197259 
L 423.415443 69.550015 
L 424.925291 71.016567 
L 427.076825 73.958523 
L 429.454836 77.093064 
L 431.757354 80.384198 
L 432.927486 81.81121 
L 434.022126 83.573153 
L 437.608015 88.029533 
L 439.910534 89.870424 
L 441.269397 90.739212 
L 443.534169 92.560573 
L 446.931327 95.201217 
L 449.347084 96.479956 
L 450.47947 96.953324 
L 452.932974 97.43649 
L 455.122253 97.875955 
L 456.632101 98.16342 
L 457.953218 98.161798 
L 459.236589 97.815088 
L 460.595453 97.658428 
L 461.576854 97.252316 
L 462.935717 97.5267 
L 466.332875 96.282309 
L 467.5785 95.928611 
L 468.559901 95.138889 
L 469.994257 94.304406 
L 470.900166 92.959752 
L 472.221283 91.444058 
L 473.353669 89.894391 
L 474.63704 88.5392 
L 475.656187 86.508692 
L 478.071944 82.937308 
L 480.449955 78.960641 
L 482.639235 74.508616 
L 483.960352 72.207327 
L 487.470749 64.795775 
L 488.565389 62.206022 
L 489.84876 59.591132 
L 492.189024 54.327283 
L 493.434649 51.69585 
L 493.434649 51.69585 
" clip-path="url(#p4d64d5099a)" style="fill: none; stroke: #000000; stroke-width: 2.5; stroke-linecap: square"/>
   </g>
   <g id="line2d_58">
    <path d="M 59.013605 286.759024 
L 59.013605 258.914751 
L 59.013605 266.147205 
L 59.466559 263.034234 
L 60.523453 262.174229 
L 62.297524 263.312158 
L 64.52455 269.694053 
L 66.71383 273.690665 
L 68.638886 268.896915 
L 70.261973 272.016869 
L 71.658583 269.991668 
L 72.866461 269.277026 
L 73.961101 262.159428 
L 75.055741 258.876876 
L 76.150381 257.967182 
L 77.245021 260.026397 
L 78.377407 267.69972 
L 79.547539 267.734556 
L 80.717671 268.007312 
L 81.887803 269.365513 
L 83.095682 268.77637 
L 84.30356 267.104034 
L 85.511439 262.209796 
L 86.832556 258.856869 
L 89.399298 269.84344 
L 90.682669 272.404345 
L 91.890547 276.806707 
L 93.098426 273.04379 
L 94.268558 267.801076 
L 95.43869 263.390714 
L 96.608822 261.0331 
L 97.778955 259.344629 
L 98.949087 259.569443 
L 100.119219 261.172503 
L 101.327098 259.455084 
L 102.49723 254.442039 
L 103.667362 255.898306 
L 104.837495 253.030298 
L 106.007627 251.067119 
L 107.140013 251.906948 
L 108.272399 256.85857 
L 109.480277 258.39806 
L 110.688156 266.332762 
L 111.896034 268.309783 
L 113.066167 269.166291 
L 114.198553 272.551198 
L 115.406431 267.395924 
L 117.746696 255.118393 
L 118.916828 251.628692 
L 120.08696 248.884076 
L 121.332585 243.184005 
L 122.502717 243.047582 
L 123.67285 237.560486 
L 124.880728 234.892149 
L 126.05086 236.856649 
L 127.258739 234.160402 
L 128.428871 229.556602 
L 129.599003 226.411098 
L 130.806882 224.701955 
L 131.977014 222.81409 
L 133.147146 220.625027 
L 134.317279 217.695261 
L 135.525157 215.057974 
L 136.695289 211.431691 
L 137.865422 208.793092 
L 139.035554 205.625006 
L 140.243432 201.228391 
L 141.413565 199.444556 
L 142.621443 198.449625 
L 143.791576 196.23514 
L 144.999454 194.563103 
L 146.169586 193.409481 
L 147.339719 191.336843 
L 149.717729 186.250282 
L 150.925608 183.573128 
L 152.09574 181.416816 
L 153.303619 180.81794 
L 155.643883 178.717761 
L 156.738523 177.977367 
L 157.908655 176.874408 
L 159.116534 174.89193 
L 161.532291 172.741409 
L 162.740169 170.748616 
L 163.948048 168.174637 
L 165.080434 166.679419 
L 169.836455 162.140566 
L 172.101227 159.596604 
L 173.309106 158.921467 
L 175.611624 154.729783 
L 176.819503 153.308193 
L 179.122021 149.742722 
L 181.537778 145.841935 
L 182.670164 142.880705 
L 185.010429 138.171455 
L 186.218307 135.462626 
L 187.426186 133.174002 
L 189.76645 128.145492 
L 194.522472 119.544843 
L 195.73035 118.160193 
L 196.975975 116.384832 
L 198.146107 115.128451 
L 199.278493 114.403158 
L 200.448625 113.864666 
L 201.618758 113.852151 
L 202.826636 114.218823 
L 203.959022 114.715935 
L 205.129154 115.539876 
L 207.469419 117.847239 
L 208.639551 118.714811 
L 209.885176 119.914096 
L 211.017562 121.185067 
L 212.225441 122.107352 
L 213.395573 122.844412 
L 214.527959 123.298182 
L 215.773584 123.60561 
L 216.90597 123.707196 
L 218.076102 123.599364 
L 219.28398 123.642618 
L 221.586499 124.393779 
L 222.756631 125.118804 
L 226.304774 126.553034 
L 227.512653 127.258461 
L 229.815171 127.988703 
L 230.985303 127.99572 
L 232.155435 128.303749 
L 233.325568 128.246647 
L 234.533446 129.137952 
L 235.703578 129.407094 
L 240.421854 132.352752 
L 241.591986 132.985228 
L 242.762118 132.393012 
L 243.932251 132.246998 
L 245.102383 131.694093 
L 246.272515 131.55724 
L 247.442647 131.129943 
L 248.575033 131.06237 
L 249.782912 131.157478 
L 253.368801 132.01333 
L 254.57668 131.996125 
L 255.709066 132.399955 
L 256.879198 132.16529 
L 259.257209 131.895386 
L 266.353495 130.40656 
L 268.693759 130.049189 
L 269.901638 129.800787 
L 270.996278 129.715057 
L 272.16641 129.887942 
L 273.374288 129.594084 
L 275.714553 129.576557 
L 276.884685 129.085046 
L 279.22495 127.529501 
L 280.395082 126.877279 
L 281.602961 125.983923 
L 283.943225 124.70552 
L 285.151104 123.80202 
L 287.453622 122.934186 
L 291.039511 120.948484 
L 292.171897 120.407551 
L 293.379776 119.348816 
L 294.549908 118.007271 
L 295.72004 116.206996 
L 296.890173 114.066829 
L 300.362823 108.443965 
L 301.570702 107.119341 
L 302.77858 106.39135 
L 305.156591 105.972049 
L 311.158237 107.953377 
L 312.290623 108.114904 
L 313.498502 108.164042 
L 317.046645 108.945345 
L 321.689428 111.845928 
L 322.935052 112.635091 
L 325.237571 113.6348 
L 327.540089 114.414854 
L 331.088232 114.526779 
L 332.220618 114.484931 
L 333.428497 114.212585 
L 336.901147 112.93377 
L 338.033533 112.270153 
L 339.279158 112.080732 
L 340.487036 111.162634 
L 341.657169 110.473097 
L 343.921941 109.465193 
L 345.054327 108.805142 
L 346.299952 108.289944 
L 347.470084 107.670153 
L 350.980481 106.508091 
L 352.150613 105.717435 
L 353.396238 104.727347 
L 354.528624 103.680158 
L 355.811995 102.664802 
L 357.963528 100.091849 
L 359.246899 98.972802 
L 360.379285 97.723442 
L 361.549417 96.810732 
L 362.757296 95.700477 
L 364.002921 94.272935 
L 366.267693 91.204764 
L 370.985968 85.359795 
L 372.1561 83.678167 
L 373.288486 82.488672 
L 376.761137 77.629682 
L 379.21464 74.419842 
L 380.460265 72.803008 
L 381.894621 71.156665 
L 384.310377 67.687925 
L 386.688388 65.110114 
L 390.236531 62.410143 
L 392.614542 61.101342 
L 393.860167 60.694863 
L 395.030299 60.121803 
L 396.0117 59.958953 
L 397.332817 59.94093 
L 398.540696 59.809186 
L 400.843214 59.887335 
L 403.258971 60.525788 
L 406.731622 61.837882 
L 410.279765 63.790133 
L 412.544537 65.419055 
L 414.960294 67.73226 
L 417.300558 70.249275 
L 420.810955 74.620112 
L 421.905595 76.162837 
L 424.396844 79.413198 
L 425.604723 81.019355 
L 426.661617 82.894124 
L 430.360744 88.022075 
L 431.455384 89.281446 
L 432.550024 91.106826 
L 433.757903 92.664155 
L 434.852543 94.321516 
L 436.060421 95.752419 
L 437.2683 96.80799 
L 438.362939 98.027968 
L 439.64631 99.183628 
L 443.081215 101.949979 
L 445.421479 104.282882 
L 446.70485 105.816875 
L 447.79949 106.856034 
L 451.385379 109.524613 
L 452.517765 109.979416 
L 453.687898 110.645745 
L 454.669299 110.816331 
L 457.764487 111.043809 
L 460.067006 112.048492 
L 461.350377 112.317653 
L 462.558255 112.841678 
L 463.50191 113.471818 
L 464.860774 113.621527 
L 465.917667 113.850502 
L 468.333424 112.291216 
L 469.541303 111.067057 
L 470.598196 110.164121 
L 471.843821 108.926035 
L 472.862968 107.5842 
L 474.184086 106.628778 
L 475.354218 105.445836 
L 477.694482 102.385407 
L 478.902361 100.246667 
L 480.261224 98.178784 
L 481.167133 96.102 
L 482.412758 94.343098 
L 483.771621 91.771794 
L 484.639784 89.260854 
L 485.923154 86.576394 
L 487.131033 83.691848 
L 488.074688 80.882086 
L 490.679176 74.89696 
L 491.962547 72.116231 
L 492.906202 69.534741 
L 493.887603 67.17776 
L 493.887603 67.17776 
" clip-path="url(#p4d64d5099a)" style="fill: none; stroke: #1f77b4; stroke-width: 2.5; stroke-linecap: square"/>
   </g>
   <g id="line2d_59">
    <path d="M 58.636143 261.72312 
L 58.56065 255.351009 
L 58.598397 263.55772 
L 58.673889 258.723018 
L 59.013605 257.570948 
L 60.032752 265.270992 
L 61.84457 264.687694 
L 63.996104 269.130776 
L 66.223129 272.648841 
L 68.185932 268.666926 
L 69.809019 257.423392 
L 71.205628 258.631238 
L 72.413507 256.680679 
L 73.508147 254.462101 
L 74.602786 254.949971 
L 75.697426 261.68806 
L 76.792066 259.488206 
L 77.924452 257.980012 
L 79.094585 255.260934 
L 80.264717 249.898327 
L 81.472595 248.888242 
L 82.680474 250.296105 
L 83.850606 252.105706 
L 85.058484 253.088548 
L 86.304109 258.126351 
L 87.58748 260.630851 
L 88.908597 264.855497 
L 90.229714 268.641805 
L 91.437593 270.683264 
L 92.607725 265.645806 
L 93.777857 262.432502 
L 94.910243 257.441196 
L 96.080376 261.485443 
L 97.250508 258.475356 
L 98.458386 257.529534 
L 99.628519 258.109649 
L 100.798651 258.948749 
L 102.006529 259.14276 
L 103.214408 257.359564 
L 104.422286 252.986402 
L 105.630165 249.631552 
L 106.762551 248.310104 
L 107.932683 253.175206 
L 109.178308 251.78535 
L 110.34844 254.757572 
L 111.480826 260.032415 
L 112.53772 260.794955 
L 113.707852 261.502027 
L 114.953477 264.599421 
L 116.161355 266.89049 
L 117.369234 263.471596 
L 118.539366 258.994075 
L 119.747245 256.101137 
L 120.955123 252.195364 
L 122.125255 254.251305 
L 123.257641 254.70681 
L 124.46552 250.72784 
L 125.635652 243.799732 
L 126.843531 243.320654 
L 128.013663 241.827432 
L 130.467166 224.33831 
L 131.637298 217.998914 
L 133.939817 212.578114 
L 135.109949 212.938 
L 136.280081 210.12823 
L 137.563452 208.359712 
L 138.771331 210.216856 
L 139.903717 209.037032 
L 141.036103 207.142497 
L 142.243981 203.953044 
L 144.584246 198.669253 
L 145.792124 197.110003 
L 146.962257 195.787745 
L 148.170135 192.485968 
L 150.472653 188.092653 
L 151.680532 185.258698 
L 152.88841 183.953039 
L 154.058543 182.155252 
L 156.436553 177.661335 
L 157.644432 177.35146 
L 159.984696 173.555382 
L 161.154829 170.978955 
L 162.324961 168.841153 
L 164.665225 165.7462 
L 165.835358 164.538494 
L 167.00549 163.007934 
L 169.383501 160.503917 
L 171.723765 155.673526 
L 172.931644 153.644323 
L 174.101776 152.065476 
L 175.271908 150.157873 
L 177.612173 145.655125 
L 179.914691 142.060835 
L 181.12257 139.577883 
L 182.292702 136.86793 
L 183.462834 135.320725 
L 187.010977 127.837502 
L 188.256602 125.582466 
L 190.634613 122.365952 
L 193.05037 119.637919 
L 194.220502 118.706104 
L 195.390634 118.030649 
L 196.52302 116.940379 
L 197.693153 116.222092 
L 198.863285 115.707784 
L 200.033417 116.171302 
L 202.411428 117.778974 
L 203.58156 118.724279 
L 205.921825 120.239317 
L 208.299835 121.021008 
L 209.507714 121.038371 
L 210.677846 121.30953 
L 211.772486 121.840176 
L 213.018111 121.977335 
L 214.150497 122.500368 
L 215.396122 122.542184 
L 216.528508 122.816642 
L 217.69864 122.839427 
L 218.906518 122.976879 
L 220.076651 123.355773 
L 221.246783 123.531419 
L 224.719434 124.545087 
L 225.927312 125.382326 
L 227.135191 125.877817 
L 230.607841 128.109468 
L 231.81572 128.341448 
L 232.948106 128.434672 
L 235.326116 129.519296 
L 237.666381 130.415009 
L 238.836513 130.051331 
L 240.044392 129.913288 
L 241.176778 130.245784 
L 242.384656 130.133826 
L 243.554789 129.583633 
L 244.724921 129.286161 
L 245.857307 129.524939 
L 247.065185 129.394401 
L 249.367704 128.847594 
L 250.575582 128.280155 
L 251.707968 128.110123 
L 252.953593 128.484512 
L 254.048233 128.490565 
L 255.293858 128.792419 
L 256.46399 128.458349 
L 257.596376 128.860371 
L 258.804254 128.822021 
L 262.352397 126.868821 
L 263.52253 125.94589 
L 264.692662 125.883818 
L 265.862794 124.941204 
L 267.032926 124.678456 
L 268.203059 124.074629 
L 269.410937 123.847822 
L 270.543323 123.428196 
L 271.788948 122.597866 
L 274.129213 121.647457 
L 275.299345 120.907737 
L 276.393985 120.963765 
L 277.677356 120.159343 
L 279.979874 119.509537 
L 282.357885 118.44374 
L 283.528017 117.903714 
L 285.906028 117.152339 
L 287.113906 116.719915 
L 288.246292 116.025303 
L 289.416425 115.132457 
L 290.548811 113.69026 
L 291.794435 112.876371 
L 292.964568 111.943753 
L 295.267086 109.379523 
L 296.512711 108.285628 
L 299.947615 104.46238 
L 302.325626 103.365591 
L 303.495758 103.659345 
L 304.703637 103.832247 
L 305.873769 103.722301 
L 308.402764 103.842048 
L 309.497404 103.79179 
L 310.743029 103.953912 
L 311.913161 104.377057 
L 313.083293 105.729852 
L 314.253426 106.860967 
L 315.423558 108.248847 
L 316.555944 109.320383 
L 321.274219 112.790386 
L 323.65223 113.859057 
L 324.784616 114.766845 
L 327.162627 115.23103 
L 330.635278 115.217322 
L 331.80541 115.42628 
L 333.013288 115.433068 
L 334.221167 115.182958 
L 335.315807 115.178967 
L 337.656071 114.801505 
L 341.24196 113.798684 
L 342.374347 113.254176 
L 343.582225 112.993356 
L 344.752357 112.236397 
L 347.054876 111.55026 
L 348.187262 111.025685 
L 350.565272 110.78552 
L 352.905537 109.680105 
L 354.113416 108.984179 
L 355.35904 107.960538 
L 356.491426 106.600823 
L 357.586066 105.879498 
L 361.171955 102.503538 
L 362.379834 101.704474 
L 363.587712 100.412795 
L 369.400628 92.500167 
L 371.6654 89.853655 
L 374.118903 87.640779 
L 375.251289 86.276824 
L 376.383675 84.694604 
L 377.6293 83.240229 
L 378.72394 81.722569 
L 381.441666 78.640168 
L 382.762783 77.343091 
L 383.932915 75.920362 
L 386.348672 73.452016 
L 389.859069 70.413691 
L 391.066948 69.54877 
L 393.33172 68.764084 
L 395.785223 68.397009 
L 400.352514 68.614288 
L 401.635884 68.516742 
L 402.806017 68.941988 
L 403.976149 69.191407 
L 405.033043 69.542294 
L 407.562038 70.635176 
L 408.618932 71.468367 
L 409.864557 72.042863 
L 410.996943 72.698816 
L 414.620578 75.769256 
L 415.715218 76.629414 
L 419.338853 80.446087 
L 420.508986 82.006883 
L 421.641372 83.299838 
L 423.94389 87.059422 
L 425.189515 88.428542 
L 426.208662 90.144808 
L 428.624419 93.811469 
L 430.926938 97.131582 
L 433.19171 100.430512 
L 435.645213 103.050144 
L 438.06097 104.562924 
L 439.15561 105.525056 
L 440.438981 106.23014 
L 442.666006 108.265918 
L 443.873885 109.757085 
L 445.081763 110.629271 
L 447.459774 113.605075 
L 449.6868 115.84354 
L 454.367329 119.744432 
L 455.688446 120.469037 
L 457.085056 120.604211 
L 458.519411 121.398318 
L 459.614051 121.734277 
L 460.859676 121.82553 
L 462.067555 122.318293 
L 463.275433 123.028626 
L 464.445565 123.360013 
L 465.540205 123.87152 
L 466.672591 124.55803 
L 467.842723 124.593567 
L 470.145242 123.410302 
L 472.636491 121.652545 
L 473.84437 120.950278 
L 474.825771 120.674465 
L 476.071396 120.034197 
L 478.487153 117.603279 
L 481.997549 112.998179 
L 483.129935 111.384629 
L 484.451053 109.776311 
L 485.4702 107.904444 
L 486.753571 106.178199 
L 487.923703 103.93408 
L 488.905104 101.327748 
L 490.075237 98.735835 
L 491.547339 96.258005 
L 492.717471 93.965979 
L 493.585634 91.91178 
L 493.585634 91.91178 
" clip-path="url(#p4d64d5099a)" style="fill: none; stroke: #d62728; stroke-width: 2.5; stroke-linecap: square"/>
   </g>
   <g id="line2d_60">
    <path d="M 60.372468 265.044093 
L 60.334722 249.024041 
L 60.334722 273.789114 
L 60.259229 284.87749 
L 60.447961 269.854908 
L 61.014154 261.854541 
L 62.297524 259.486489 
L 64.222581 258.706842 
L 66.41186 261.116828 
L 68.487902 263.067977 
L 70.337466 263.671368 
L 71.847314 262.551525 
L 73.206177 259.470416 
L 74.338563 264.002743 
L 75.433203 260.93978 
L 76.527843 256.497486 
L 77.622483 253.395668 
L 78.754869 255.225524 
L 79.887255 258.477122 
L 81.057387 266.286156 
L 82.227519 265.457621 
L 83.435398 262.072071 
L 84.643276 264.737854 
L 85.888901 269.048586 
L 87.172272 269.128572 
L 89.77676 256.836375 
L 91.022384 258.347804 
L 92.230263 256.584116 
L 93.400395 259.303538 
L 94.570528 254.310526 
L 95.74066 254.553507 
L 98.118671 266.457323 
L 99.288803 275.006722 
L 100.421189 277.109076 
L 101.591321 279.773884 
L 102.723707 291.205218 
L 103.931586 281.842981 
L 105.101718 276.486519 
L 106.27185 264.14308 
L 107.479729 264.649459 
L 108.649861 262.607753 
L 109.895486 261.804183 
L 111.065618 257.473686 
L 112.23575 251.535182 
L 113.481375 248.472773 
L 114.576015 247.574564 
L 115.783893 244.17078 
L 116.954026 241.601999 
L 118.124158 238.064651 
L 119.29429 236.604041 
L 120.464422 233.898661 
L 121.596808 230.656599 
L 122.766941 228.578815 
L 123.937073 223.823132 
L 125.144951 222.057976 
L 126.315084 221.424929 
L 127.522962 221.732915 
L 128.730841 222.232342 
L 129.900973 221.298734 
L 131.108851 220.56414 
L 133.449116 216.280391 
L 134.656995 213.240183 
L 135.864873 209.218936 
L 138.28063 204.670596 
L 139.488508 201.945092 
L 140.658641 200.257662 
L 141.828773 199.993729 
L 142.998905 199.246634 
L 144.206784 197.352187 
L 146.547048 195.516882 
L 148.962805 192.181695 
L 150.132938 189.503111 
L 151.30307 187.474916 
L 152.510948 186.122822 
L 153.681081 184.612286 
L 154.888959 182.34448 
L 156.059091 179.11849 
L 158.323863 175.737157 
L 159.493996 173.028224 
L 160.664128 171.372453 
L 161.872006 168.603531 
L 163.042139 166.855993 
L 164.174525 164.30615 
L 165.382403 161.233032 
L 166.552536 158.857849 
L 167.722668 155.965363 
L 168.8928 154.483621 
L 171.270811 150.33943 
L 172.478689 148.772118 
L 173.648822 146.951455 
L 174.818954 145.55841 
L 176.026832 143.776601 
L 177.196965 141.470123 
L 178.404843 139.531998 
L 179.537229 136.767032 
L 180.745108 134.403983 
L 185.387891 124.396514 
L 187.728155 119.707021 
L 190.106166 113.586158 
L 191.276298 110.936467 
L 192.521923 108.396065 
L 194.899934 103.011982 
L 196.070066 100.81751 
L 200.788341 93.478739 
L 201.99622 92.605647 
L 203.128606 92.13244 
L 204.298738 91.932414 
L 205.46887 92.007409 
L 206.676749 92.747685 
L 208.979267 95.627395 
L 214.867675 103.188676 
L 218.415818 104.915342 
L 219.623696 105.36835 
L 220.793828 105.981915 
L 221.963961 106.83056 
L 223.171839 107.557572 
L 226.757728 110.621637 
L 227.890115 111.141889 
L 232.60839 114.031584 
L 233.778522 115.032012 
L 234.910908 115.758568 
L 237.326665 117.495328 
L 239.591437 118.672995 
L 243.13958 119.407432 
L 244.271966 119.184491 
L 245.479845 119.486264 
L 246.687723 119.357786 
L 247.857856 119.648235 
L 248.990242 119.776212 
L 251.405999 119.234919 
L 252.500639 119.056512 
L 253.670771 118.614294 
L 257.218914 117.886036 
L 258.389046 117.825718 
L 263.107321 115.555819 
L 264.277454 115.068038 
L 265.447586 114.375972 
L 266.655464 114.453495 
L 267.750104 114.064858 
L 268.995729 113.787498 
L 270.165861 113.730364 
L 271.37374 112.85673 
L 273.714004 112.234115 
L 274.84639 111.704991 
L 277.224401 111.103408 
L 278.394533 110.94493 
L 279.564666 110.115682 
L 280.772544 109.551592 
L 281.980423 108.742499 
L 283.150555 108.442899 
L 285.453073 107.269028 
L 287.793338 106.127792 
L 289.038963 105.655305 
L 291.341481 104.386382 
L 293.681745 103.420731 
L 294.889624 103.095169 
L 297.192142 101.246368 
L 299.570153 98.397034 
L 300.778031 96.986745 
L 301.834925 95.505046 
L 303.08055 94.364107 
L 304.212936 93.509185 
L 305.458561 92.989651 
L 306.741931 92.880433 
L 309.082196 93.496188 
L 311.422461 94.426675 
L 316.140736 95.705139 
L 317.310868 96.165795 
L 319.651133 97.604994 
L 320.859011 98.094401 
L 322.029143 98.835266 
L 323.199276 99.375844 
L 324.4449 99.713184 
L 325.501794 100.188668 
L 331.390202 102.175148 
L 332.560334 102.322097 
L 334.938345 102.091768 
L 336.108477 101.709416 
L 339.618874 101.496175 
L 343.167017 101.610946 
L 344.337149 101.202264 
L 345.469535 100.512977 
L 346.639667 100.222496 
L 350.150064 98.558387 
L 351.320197 98.113602 
L 352.603567 97.744767 
L 354.906086 96.792822 
L 357.208604 95.398148 
L 358.454229 94.641774 
L 359.624361 93.659757 
L 360.719001 92.555967 
L 364.30489 88.357051 
L 366.607409 85.402389 
L 371.287938 80.001546 
L 372.533562 78.886503 
L 373.628202 77.653793 
L 374.760588 76.205434 
L 376.006213 74.850607 
L 377.100853 73.413683 
L 378.346477 72.011473 
L 379.441117 70.482632 
L 384.763332 64.751876 
L 387.103596 62.343874 
L 390.613993 59.827843 
L 393.02975 58.856445 
L 394.12439 58.542656 
L 396.502401 58.322047 
L 401.220676 58.591454 
L 404.731073 59.405758 
L 407.033591 60.100551 
L 411.827359 62.296667 
L 414.054385 63.794628 
L 415.337756 64.532896 
L 421.377148 70.506494 
L 423.453189 73.664236 
L 425.906693 76.252236 
L 426.963586 77.660173 
L 431.681862 82.839581 
L 434.059872 85.750059 
L 435.041274 86.924919 
L 436.475629 87.808979 
L 437.608015 88.99904 
L 438.740401 89.894918 
L 441.118412 90.86985 
L 442.175306 91.654329 
L 445.798941 93.774183 
L 448.139206 94.55728 
L 449.309338 94.999888 
L 450.403978 95.294286 
L 452.819735 95.392187 
L 457.915472 95.880772 
L 461.690092 95.22984 
L 463.01121 95.057816 
L 465.124997 94.12854 
L 466.370622 93.368827 
L 468.597648 91.840157 
L 469.730034 90.727523 
L 473.391415 88.114422 
L 474.523801 87.048728 
L 475.580695 85.809612 
L 476.864066 84.084931 
L 478.034198 82.323974 
L 479.166584 80.339569 
L 481.733326 76.251606 
L 484.035844 72.477851 
L 485.130484 70.280964 
L 486.074139 67.890806 
L 487.395256 65.508457 
L 489.811013 60.105204 
L 493.170425 51.656443 
L 493.170425 51.656443 
" clip-path="url(#p4d64d5099a)" style="fill: none; stroke: #ff7f0e; stroke-width: 2.5; stroke-linecap: square"/>
   </g>
   <g id="line2d_61">
    <path d="M 59.089097 237.788757 
L 59.089097 233.024529 
L 59.013605 242.762436 
L 58.975859 241.044913 
L 59.013605 246.826513 
L 59.089097 242.364929 
L 59.391067 242.406527 
L 60.334722 237.688798 
L 61.957809 241.400221 
L 64.184835 244.852484 
L 66.449607 241.978986 
L 68.450155 242.342624 
L 70.148735 239.521073 
L 71.507598 243.042649 
L 72.715476 244.313981 
L 73.810116 248.27039 
L 74.904756 249.688087 
L 75.999396 249.541925 
L 77.094036 257.546777 
L 78.264168 254.407936 
L 79.4343 244.29468 
L 80.642179 241.74963 
L 81.812311 236.72817 
L 83.057936 236.821596 
L 84.190322 241.115497 
L 85.360454 241.67522 
L 86.643825 241.899001 
L 87.88945 242.306884 
L 89.210567 244.85147 
L 90.456191 246.82091 
L 91.701816 246.686181 
L 92.909695 246.218297 
L 94.079827 243.855428 
L 95.287705 243.601273 
L 96.420091 245.101517 
L 97.62797 237.541014 
L 98.798102 234.209993 
L 100.043727 232.213237 
L 101.213859 234.564747 
L 102.383991 236.111986 
L 103.59187 236.784967 
L 105.932134 240.669341 
L 107.064521 240.426798 
L 108.310145 235.5189 
L 109.480277 228.953778 
L 110.688156 226.607575 
L 111.896034 226.838066 
L 113.103913 225.14971 
L 114.274045 222.581126 
L 115.444177 222.283372 
L 117.784442 224.093109 
L 118.916828 224.330043 
L 121.294839 220.431165 
L 122.464971 217.43686 
L 123.635103 216.591407 
L 124.805236 214.073827 
L 126.013114 208.833876 
L 127.107754 207.06118 
L 128.277886 206.203391 
L 129.523511 204.78453 
L 130.655897 203.086284 
L 131.863776 201.047091 
L 133.071654 198.200956 
L 134.241786 196.473597 
L 135.449665 196.205795 
L 136.657543 195.288942 
L 137.865422 192.791156 
L 140.281179 193.383589 
L 142.659189 190.740566 
L 143.829322 188.155467 
L 145.0372 186.015524 
L 147.377465 183.045859 
L 148.509851 182.054952 
L 150.850115 180.86914 
L 152.057994 179.557082 
L 153.228126 178.831897 
L 154.436005 177.715984 
L 155.606137 175.441109 
L 156.738523 174.469316 
L 159.116534 171.0154 
L 160.286666 169.850489 
L 161.494544 168.130048 
L 163.797063 163.493903 
L 167.345206 157.718438 
L 168.515338 156.769849 
L 169.723217 154.788821 
L 172.063481 151.491722 
L 173.233613 149.520111 
L 174.479238 147.940508 
L 175.687117 146.196994 
L 176.857249 143.897812 
L 179.197513 140.05231 
L 182.670164 136.09938 
L 185.010429 131.612547 
L 187.350693 127.588391 
L 188.483079 125.248885 
L 189.728704 123.700649 
L 190.936582 121.775898 
L 193.276847 119.133524 
L 195.654858 115.145606 
L 198.032868 112.428814 
L 199.203001 111.666985 
L 200.335387 111.226308 
L 201.543265 111.4693 
L 202.713398 111.431864 
L 203.921276 111.576852 
L 206.299287 112.414615 
L 207.469419 113.176805 
L 208.601805 113.628363 
L 212.149948 115.961146 
L 213.282334 116.724653 
L 214.452466 116.802432 
L 215.660345 116.457162 
L 216.792731 116.577298 
L 219.208488 116.579427 
L 220.340874 116.060502 
L 221.511006 116.272561 
L 222.681139 116.161498 
L 223.889017 116.456894 
L 225.096896 116.921195 
L 226.267028 116.935215 
L 227.43716 117.13098 
L 228.607292 117.558207 
L 229.815171 117.722196 
L 232.117689 117.683648 
L 233.363314 117.835805 
L 234.4957 117.543524 
L 238.043843 118.171627 
L 239.176229 118.558102 
L 241.516494 118.953733 
L 242.762118 118.564394 
L 243.894504 118.756483 
L 245.064637 118.507758 
L 246.234769 117.841805 
L 247.442647 117.751186 
L 249.782912 116.92549 
L 250.953044 116.366953 
L 254.538933 115.052304 
L 256.879198 114.987307 
L 258.04933 114.824341 
L 259.181716 114.93807 
L 260.351849 114.893225 
L 261.559727 114.061225 
L 262.692113 113.923678 
L 266.240256 112.962832 
L 269.712907 110.992187 
L 270.920785 110.623616 
L 273.336542 108.741304 
L 274.468928 108.570683 
L 275.601314 107.721587 
L 277.979325 106.837598 
L 280.31959 105.58109 
L 281.527468 104.919404 
L 282.659854 104.517557 
L 286.170251 102.530764 
L 287.415876 101.501159 
L 288.586008 100.881297 
L 289.718394 100.416031 
L 292.134151 98.735733 
L 294.474416 96.836133 
L 295.606802 95.851046 
L 296.776934 94.62928 
L 299.117199 92.690022 
L 300.325077 92.140818 
L 303.87322 91.366713 
L 306.288977 90.94705 
L 309.912612 90.6658 
L 311.082745 90.700723 
L 313.498502 91.148707 
L 314.593142 91.526081 
L 316.933406 92.84299 
L 318.028046 93.740813 
L 321.651681 95.626786 
L 322.746321 95.9926 
L 325.124332 96.165147 
L 326.294464 96.377346 
L 329.842607 97.393839 
L 332.145126 97.911587 
L 334.48539 98.423066 
L 335.655523 98.393387 
L 338.109026 97.922464 
L 340.373798 96.810535 
L 341.506184 96.524701 
L 342.789555 96.032267 
L 343.884195 95.894278 
L 345.016581 95.626008 
L 347.394591 94.581256 
L 350.904988 91.965714 
L 355.66101 88.336456 
L 357.963528 85.722776 
L 360.303793 83.084781 
L 366.154454 76.538909 
L 367.362333 74.947448 
L 368.570211 73.548249 
L 370.834983 70.381844 
L 379.101402 60.402177 
L 381.743636 57.745951 
L 385.442764 54.46142 
L 387.896267 52.94286 
L 389.066399 52.405173 
L 390.236531 52.32225 
L 391.406664 52.11985 
L 392.463557 52.087849 
L 397.219579 52.692188 
L 398.389711 53.093178 
L 400.767722 54.158143 
L 405.485997 56.844037 
L 409.03414 59.36101 
L 410.053288 60.459488 
L 412.544537 62.725908 
L 413.790162 63.674644 
L 420.735463 71.616967 
L 424.24586 75.820601 
L 425.642469 77.183214 
L 426.812601 78.550168 
L 427.831749 79.979974 
L 431.191161 84.056966 
L 432.436786 85.712668 
L 433.720156 86.86098 
L 434.814796 88.138525 
L 436.022675 89.222852 
L 437.155061 90.004993 
L 438.438432 90.713328 
L 444.251347 94.743312 
L 447.648505 96.752022 
L 448.89413 97.356478 
L 450.102008 97.70873 
L 454.669299 100.542131 
L 456.065908 100.941187 
L 460.02926 101.41404 
L 461.086153 101.482381 
L 462.558255 101.387246 
L 464.558804 102.148131 
L 465.69119 102.248597 
L 466.974561 102.53091 
L 469.390318 101.545222 
L 470.56045 100.935873 
L 471.768329 100.538843 
L 475.240979 97.720333 
L 478.71363 95.106229 
L 482.412758 91.029547 
L 483.58289 89.608477 
L 485.923154 85.831043 
L 487.055541 84.198993 
L 490.490445 76.812107 
L 492.943948 70.990539 
L 493.774365 67.796962 
L 493.774365 67.796962 
" clip-path="url(#p4d64d5099a)" style="fill: none; stroke: #9467bd; stroke-width: 2.5; stroke-linecap: square"/>
   </g>
   <g id="line2d_62">
    <path d="M 60.108245 246.054872 
L 60.032752 269.28228 
L 60.032752 243.032908 
L 60.032752 248.699755 
L 59.95726 254.746096 
L 60.070498 254.841208 
L 60.598945 256.260686 
L 61.731331 260.716083 
L 63.505403 259.891414 
L 65.694683 251.646237 
L 67.846216 252.840068 
L 69.733526 251.946264 
L 71.318867 249.035719 
L 72.67773 253.096033 
L 73.847862 256.960472 
L 74.942502 254.000122 
L 75.999396 253.392956 
L 77.131782 256.787601 
L 78.264168 261.850236 
L 79.358808 261.570602 
L 80.566686 258.495112 
L 81.774565 254.197365 
L 82.944697 249.384395 
L 84.190322 244.875431 
L 85.3982 244.354331 
L 86.681571 239.729861 
L 87.964942 243.126658 
L 89.286059 243.806475 
L 91.777309 248.21383 
L 92.947441 244.489196 
L 94.155319 248.460424 
L 95.287705 247.375146 
L 96.457838 244.214167 
L 97.62797 246.567305 
L 98.835848 245.397373 
L 100.005981 250.226309 
L 101.213859 252.310258 
L 102.383991 252.336421 
L 103.59187 253.209107 
L 104.762002 251.465603 
L 105.932134 249.271891 
L 107.102267 245.630424 
L 108.272399 241.212821 
L 110.612664 236.008868 
L 111.782796 235.360356 
L 112.990674 235.378119 
L 114.160807 231.635295 
L 115.330939 227.235229 
L 116.501071 226.533234 
L 117.671203 221.294029 
L 121.219346 212.90607 
L 122.389479 211.926176 
L 123.559611 210.288626 
L 124.729743 209.227108 
L 125.937622 206.333994 
L 127.070008 202.448266 
L 128.24014 199.071939 
L 129.410272 194.960636 
L 130.618151 191.996759 
L 131.826029 190.388604 
L 133.033908 188.476086 
L 134.20404 187.791856 
L 135.449665 187.616939 
L 136.657543 186.04815 
L 139.035554 182.24322 
L 140.205686 180.082827 
L 141.375819 179.362114 
L 143.753829 176.267073 
L 146.13184 174.926376 
L 147.339719 173.735167 
L 148.509851 171.788001 
L 149.717729 170.733662 
L 152.057994 167.47584 
L 153.228126 166.570083 
L 154.436005 165.032819 
L 155.568391 164.295178 
L 156.776269 163.980214 
L 157.984148 162.99147 
L 159.15428 161.791702 
L 160.324412 160.988307 
L 162.664677 157.501573 
L 164.967195 153.695527 
L 167.382952 150.380257 
L 172.063481 141.482958 
L 173.233613 139.518642 
L 174.441492 138.221645 
L 176.706264 134.510904 
L 181.462286 126.487866 
L 189.653211 108.600577 
L 190.823344 106.208252 
L 194.446979 99.898224 
L 195.73035 98.254794 
L 196.900482 97.364096 
L 198.032868 97.038567 
L 199.240747 97.103185 
L 200.410879 97.638969 
L 201.618758 98.426536 
L 202.751144 99.456006 
L 203.88353 100.895546 
L 205.053662 102.065402 
L 206.299287 103.113304 
L 209.809684 106.756061 
L 210.94207 107.399335 
L 212.149948 107.804152 
L 214.527959 108.439704 
L 215.698091 108.893301 
L 216.830477 109.20962 
L 218.038356 109.207542 
L 220.340874 109.600488 
L 222.718885 110.480104 
L 225.059149 112.076074 
L 227.43716 113.909175 
L 228.645039 114.526022 
L 229.777425 114.772819 
L 230.947557 115.169878 
L 233.287822 115.413458 
L 234.4957 115.527334 
L 235.665832 115.972858 
L 236.835965 116.012575 
L 238.043843 116.431886 
L 239.213975 116.600513 
L 241.516494 117.10422 
L 246.234769 117.007375 
L 247.404901 117.036919 
L 248.61278 116.808435 
L 249.782912 117.003661 
L 252.123177 116.368978 
L 254.425695 115.093135 
L 255.633573 114.777561 
L 256.803706 114.601944 
L 257.973838 114.112396 
L 259.14397 113.813467 
L 260.314102 113.165766 
L 261.484235 112.800748 
L 263.862245 111.010107 
L 266.240256 109.564454 
L 269.712907 108.120916 
L 270.883039 107.868617 
L 272.053171 107.146263 
L 274.35569 106.08487 
L 275.601314 105.494251 
L 276.771447 104.614996 
L 279.111711 103.997725 
L 280.244097 103.452604 
L 281.451976 103.153216 
L 282.622108 102.554433 
L 283.79224 101.598207 
L 286.207997 100.321437 
L 288.472769 98.591949 
L 289.680648 97.99012 
L 290.813034 97.102641 
L 291.94542 95.908304 
L 294.361177 92.507261 
L 295.493563 90.676393 
L 296.701442 89.224477 
L 297.833828 88.218147 
L 299.041706 87.806078 
L 300.249585 87.9353 
L 301.419717 88.36627 
L 303.797728 90.175605 
L 306.251231 91.134989 
L 307.496856 91.271972 
L 308.704734 91.75049 
L 309.83712 92.363989 
L 312.101892 93.762723 
L 314.479903 95.354321 
L 315.650035 96.164107 
L 316.857914 96.444972 
L 318.028046 96.933054 
L 319.235924 97.569979 
L 320.406057 98.565934 
L 321.613935 99.308443 
L 322.746321 99.668399 
L 323.9542 100.201196 
L 325.086586 100.535054 
L 327.464597 101.649799 
L 332.182872 103.383175 
L 333.277512 103.462422 
L 334.560883 102.87995 
L 335.655523 102.643133 
L 337.995787 102.32 
L 339.165919 102.488144 
L 340.373798 102.129196 
L 341.619423 101.452752 
L 346.262205 99.998588 
L 347.50783 99.424156 
L 349.69711 98.180865 
L 350.980481 98.039464 
L 352.075121 96.761305 
L 354.453131 94.735714 
L 356.831142 92.852843 
L 358.001274 91.482668 
L 360.303793 88.39307 
L 361.473925 87.067771 
L 365.059814 81.870864 
L 367.362333 78.727492 
L 372.005115 72.809544 
L 374.420872 70.207191 
L 375.553259 69.226732 
L 376.723391 67.968128 
L 380.498011 64.8875 
L 385.442764 61.575404 
L 386.726134 61.044669 
L 389.066399 60.469597 
L 390.198785 60.54448 
L 392.53905 61.110956 
L 398.50295 63.106816 
L 403.107986 65.767544 
L 404.315865 66.641173 
L 406.693876 68.842297 
L 410.204272 72.345917 
L 414.884801 78.451174 
L 418.357452 83.643386 
L 419.678569 85.278347 
L 420.65997 86.704428 
L 423.188966 89.627805 
L 424.24586 91.336393 
L 426.888094 94.414474 
L 431.266653 100.840584 
L 432.512278 102.028027 
L 433.720156 103.0202 
L 435.909436 105.472217 
L 439.495325 109.294699 
L 441.83559 110.956204 
L 443.005722 111.528365 
L 445.459225 112.302554 
L 447.686251 113.471799 
L 448.856384 114.379969 
L 450.064262 115.067008 
L 452.404527 116.712372 
L 453.612405 117.055638 
L 454.669299 117.759343 
L 457.500264 118.906318 
L 458.670396 119.758768 
L 459.953767 120.476049 
L 461.123899 120.921586 
L 463.539656 121.028171 
L 464.89852 120.825299 
L 465.842175 120.092359 
L 468.031455 119.049244 
L 469.314825 119.122516 
L 470.484958 118.407977 
L 471.692836 118.049878 
L 472.938461 117.888793 
L 474.070847 117.27213 
L 475.203233 116.929809 
L 476.335619 116.24676 
L 477.656736 115.739632 
L 478.751376 115.08795 
L 479.921508 114.817567 
L 481.129387 113.949002 
L 484.753022 109.144749 
L 487.206525 104.678943 
L 489.207074 99.902413 
L 490.603684 97.237975 
L 491.811562 94.39202 
L 492.717471 91.376211 
L 493.887603 88.209536 
L 493.887603 88.209536 
" clip-path="url(#p4d64d5099a)" style="fill: none; stroke: #2ca02c; stroke-width: 2.5; stroke-linecap: square"/>
   </g>
   <g id="patch_3">
    <path d="M 60.598945 303.182656 
L 60.598945 39.679004 
" style="fill: none; stroke: #000000; stroke-width: 1.5; stroke-linejoin: miter; stroke-linecap: square"/>
   </g>
   <g id="patch_4">
    <path d="M 60.598945 303.182656 
L 494.680273 303.182656 
" style="fill: none; stroke: #000000; stroke-width: 1.5; stroke-linejoin: miter; stroke-linecap: square"/>
   </g>
   <g id="text_12">
    <!-- 1421_wo_HF -->
    <g transform="translate(236.004922 18.441699) scale(0.14 -0.14)">
     <defs>
      <path id="ArialMT-42" d="M -97 -1272 
L -97 -866 
L 3631 -866 
L 3631 -1272 
L -97 -1272 
z
" transform="scale(0.015625)"/>
      <path id="ArialMT-5a" d="M 1034 0 
L 19 3319 
L 600 3319 
L 1128 1403 
L 1325 691 
Q 1338 744 1497 1375 
L 2025 3319 
L 2603 3319 
L 3100 1394 
L 3266 759 
L 3456 1400 
L 4025 3319 
L 4572 3319 
L 3534 0 
L 2950 0 
L 2422 1988 
L 2294 2553 
L 1622 0 
L 1034 0 
z
" transform="scale(0.015625)"/>
      <path id="ArialMT-2b" d="M 513 0 
L 513 4581 
L 1119 4581 
L 1119 2700 
L 3500 2700 
L 3500 4581 
L 4106 4581 
L 4106 0 
L 3500 0 
L 3500 2159 
L 1119 2159 
L 1119 0 
L 513 0 
z
" transform="scale(0.015625)"/>
      <path id="ArialMT-29" d="M 525 0 
L 525 4581 
L 3616 4581 
L 3616 4041 
L 1131 4041 
L 1131 2622 
L 3281 2622 
L 3281 2081 
L 1131 2081 
L 1131 0 
L 525 0 
z
" transform="scale(0.015625)"/>
     </defs>
     <use xlink:href="#ArialMT-14"/>
     <use xlink:href="#ArialMT-17" transform="translate(55.609375 0)"/>
     <use xlink:href="#ArialMT-15" transform="translate(111.21875 0)"/>
     <use xlink:href="#ArialMT-14" transform="translate(166.828125 0)"/>
     <use xlink:href="#ArialMT-42" transform="translate(222.4375 0)"/>
     <use xlink:href="#ArialMT-5a" transform="translate(278.046875 0)"/>
     <use xlink:href="#ArialMT-52" transform="translate(350.265625 0)"/>
     <use xlink:href="#ArialMT-42" transform="translate(405.875 0)"/>
     <use xlink:href="#ArialMT-2b" transform="translate(461.484375 0)"/>
     <use xlink:href="#ArialMT-29" transform="translate(533.703125 0)"/>
    </g>
    <!-- m/z 16 -->
    <g transform="translate(256.634141 33.679004) scale(0.14 -0.14)">
     <use xlink:href="#ArialMT-50"/>
     <use xlink:href="#ArialMT-12" transform="translate(83.296875 0)"/>
     <use xlink:href="#ArialMT-5d" transform="translate(111.078125 0)"/>
     <use xlink:href="#ArialMT-3" transform="translate(161.078125 0)"/>
     <use xlink:href="#ArialMT-14" transform="translate(188.859375 0)"/>
     <use xlink:href="#ArialMT-19" transform="translate(244.46875 0)"/>
    </g>
   </g>
   <g id="legend_1">
    <g id="line2d_63">
     <path d="M 512.3619 52.459277 
L 522.3619 52.459277 
L 532.3619 52.459277 
" style="fill: none; stroke: #000000; stroke-width: 2.5; stroke-linecap: square"/>
    </g>
    <g id="text_13">
     <!-- 0 h -->
     <g transform="translate(540.3619 55.959277) scale(0.1 -0.1)">
      <defs>
       <path id="ArialMT-4b" d="M 422 0 
L 422 4581 
L 984 4581 
L 984 2938 
Q 1378 3394 1978 3394 
Q 2347 3394 2619 3248 
Q 2891 3103 3008 2847 
Q 3125 2591 3125 2103 
L 3125 0 
L 2563 0 
L 2563 2103 
Q 2563 2525 2380 2717 
Q 2197 2909 1863 2909 
Q 1613 2909 1392 2779 
Q 1172 2650 1078 2428 
Q 984 2206 984 1816 
L 984 0 
L 422 0 
z
" transform="scale(0.015625)"/>
      </defs>
      <use xlink:href="#ArialMT-13"/>
      <use xlink:href="#ArialMT-3" transform="translate(55.609375 0)"/>
      <use xlink:href="#ArialMT-4b" transform="translate(83.390625 0)"/>
     </g>
    </g>
    <g id="line2d_64">
     <path d="M 512.3619 66.844043 
L 522.3619 66.844043 
L 532.3619 66.844043 
" style="fill: none; stroke: #1f77b4; stroke-width: 2.5; stroke-linecap: square"/>
    </g>
    <g id="text_14">
     <!-- 6 h -->
     <g transform="translate(540.3619 70.344043) scale(0.1 -0.1)">
      <use xlink:href="#ArialMT-19"/>
      <use xlink:href="#ArialMT-3" transform="translate(55.609375 0)"/>
      <use xlink:href="#ArialMT-4b" transform="translate(83.390625 0)"/>
     </g>
    </g>
    <g id="line2d_65">
     <path d="M 512.3619 81.228809 
L 522.3619 81.228809 
L 532.3619 81.228809 
" style="fill: none; stroke: #d62728; stroke-width: 2.5; stroke-linecap: square"/>
    </g>
    <g id="text_15">
     <!-- 24 h -->
     <g transform="translate(540.3619 84.728809) scale(0.1 -0.1)">
      <use xlink:href="#ArialMT-15"/>
      <use xlink:href="#ArialMT-17" transform="translate(55.609375 0)"/>
      <use xlink:href="#ArialMT-3" transform="translate(111.21875 0)"/>
      <use xlink:href="#ArialMT-4b" transform="translate(139 0)"/>
     </g>
    </g>
    <g id="line2d_66">
     <path d="M 512.3619 95.613574 
L 522.3619 95.613574 
L 532.3619 95.613574 
" style="fill: none; stroke: #ff7f0e; stroke-width: 2.5; stroke-linecap: square"/>
    </g>
    <g id="text_16">
     <!-- 7 d -->
     <g transform="translate(540.3619 99.113574) scale(0.1 -0.1)">
      <defs>
       <path id="ArialMT-1a" d="M 303 3981 
L 303 4522 
L 3269 4522 
L 3269 4084 
Q 2831 3619 2401 2847 
Q 1972 2075 1738 1259 
Q 1569 684 1522 0 
L 944 0 
Q 953 541 1156 1306 
Q 1359 2072 1739 2783 
Q 2119 3494 2547 3981 
L 303 3981 
z
" transform="scale(0.015625)"/>
       <path id="ArialMT-47" d="M 2575 0 
L 2575 419 
Q 2259 -75 1647 -75 
Q 1250 -75 917 144 
Q 584 363 401 755 
Q 219 1147 219 1656 
Q 219 2153 384 2558 
Q 550 2963 881 3178 
Q 1213 3394 1622 3394 
Q 1922 3394 2156 3267 
Q 2391 3141 2538 2938 
L 2538 4581 
L 3097 4581 
L 3097 0 
L 2575 0 
z
M 797 1656 
Q 797 1019 1065 703 
Q 1334 388 1700 388 
Q 2069 388 2326 689 
Q 2584 991 2584 1609 
Q 2584 2291 2321 2609 
Q 2059 2928 1675 2928 
Q 1300 2928 1048 2622 
Q 797 2316 797 1656 
z
" transform="scale(0.015625)"/>
      </defs>
      <use xlink:href="#ArialMT-1a"/>
      <use xlink:href="#ArialMT-3" transform="translate(55.609375 0)"/>
      <use xlink:href="#ArialMT-47" transform="translate(83.390625 0)"/>
     </g>
    </g>
    <g id="line2d_67">
     <path d="M 512.3619 109.99834 
L 522.3619 109.99834 
L 532.3619 109.99834 
" style="fill: none; stroke: #9467bd; stroke-width: 2.5; stroke-linecap: square"/>
    </g>
    <g id="text_17">
     <!-- 14 d -->
     <g transform="translate(540.3619 113.49834) scale(0.1 -0.1)">
      <use xlink:href="#ArialMT-14"/>
      <use xlink:href="#ArialMT-17" transform="translate(55.609375 0)"/>
      <use xlink:href="#ArialMT-3" transform="translate(111.21875 0)"/>
      <use xlink:href="#ArialMT-47" transform="translate(139 0)"/>
     </g>
    </g>
    <g id="line2d_68">
     <path d="M 512.3619 124.383105 
L 522.3619 124.383105 
L 532.3619 124.383105 
" style="fill: none; stroke: #2ca02c; stroke-width: 2.5; stroke-linecap: square"/>
    </g>
    <g id="text_18">
     <!-- 28 d -->
     <g transform="translate(540.3619 127.883105) scale(0.1 -0.1)">
      <use xlink:href="#ArialMT-15"/>
      <use xlink:href="#ArialMT-1b" transform="translate(55.609375 0)"/>
      <use xlink:href="#ArialMT-3" transform="translate(111.21875 0)"/>
      <use xlink:href="#ArialMT-47" transform="translate(139 0)"/>
     </g>
    </g>
   </g>
  </g>
 </g>
 <defs>
  <clipPath id="p4d64d5099a">
   <rect x="60.598945" y="39.679004" width="434.081328" height="263.503652"/>
  </clipPath>
 </defs>
</svg>
