<?xml version="1.0" encoding="utf-8" standalone="no"?>
<!DOCTYPE svg PUBLIC "-//W3C//DTD SVG 1.1//EN"
  "http://www.w3.org/Graphics/SVG/1.1/DTD/svg11.dtd">
<svg xmlns:xlink="http://www.w3.org/1999/xlink" width="571.022837pt" height="344.160273pt" viewBox="0 0 571.022837 344.160273" xmlns="http://www.w3.org/2000/svg" version="1.1">
 <metadata>
  <rdf:RDF xmlns:dc="http://purl.org/dc/elements/1.1/" xmlns:cc="http://creativecommons.org/ns#" xmlns:rdf="http://www.w3.org/1999/02/22-rdf-syntax-ns#">
   <cc:Work>
    <dc:type rdf:resource="http://purl.org/dc/dcmitype/StillImage"/>
    <dc:date>2026-07-10T11:48:47.605453</dc:date>
    <dc:format>image/svg+xml</dc:format>
    <dc:creator>
     <cc:Agent>
      <dc:title>Matplotlib v3.11.0, https://matplotlib.org/</dc:title>
     </cc:Agent>
    </dc:creator>
   </cc:Work>
  </rdf:RDF>
 </metadata>
 <defs>
  <style type="text/css">*{stroke-linejoin: round; stroke-linecap: butt}</style>
 </defs>
 <g id="figure_1">
  <g id="patch_1">
   <path d="M 0 344.160273 
L 571.022837 344.160273 
L 571.022837 0 
L 0 0 
z
" style="fill: #ffffff"/>
  </g>
  <g id="axes_1">
   <g id="patch_2">
    <path d="M 60.598945 303.182656 
L 494.680273 303.182656 
L 494.680273 39.679004 
L 60.598945 39.679004 
z
" style="fill: #ffffff"/>
   </g>
   <g id="matplotlib.axis_1">
    <g id="xtick_1">
     <g id="line2d_1">
      <defs>
       <path id="m5b3c975159" d="M 0 0 
L 0 -6 
" style="stroke: #000000; stroke-width: 0.8"/>
      </defs>
      <g>
       <use xlink:href="#m5b3c975159" x="117.218249" y="303.182656" style="stroke: #000000; stroke-width: 0.8"/>
      </g>
     </g>
     <g id="text_1">
      <!-- 200 -->
      <g transform="translate(105.54028 316.875039) scale(0.14 -0.14)">
       <defs>
        <path id="ArialMT-15" d="M 3222 541 
L 3222 0 
L 194 0 
Q 188 203 259 391 
Q 375 700 629 1000 
Q 884 1300 1366 1694 
Q 2113 2306 2375 2664 
Q 2638 3022 2638 3341 
Q 2638 3675 2398 3904 
Q 2159 4134 1775 4134 
Q 1369 4134 1125 3890 
Q 881 3647 878 3216 
L 300 3275 
Q 359 3922 746 4261 
Q 1134 4600 1788 4600 
Q 2447 4600 2831 4234 
Q 3216 3869 3216 3328 
Q 3216 3053 3103 2787 
Q 2991 2522 2730 2228 
Q 2469 1934 1863 1422 
Q 1356 997 1212 845 
Q 1069 694 975 541 
L 3222 541 
z
" transform="scale(0.015625)"/>
        <path id="ArialMT-13" d="M 266 2259 
Q 266 3072 433 3567 
Q 600 4063 929 4331 
Q 1259 4600 1759 4600 
Q 2128 4600 2406 4451 
Q 2684 4303 2865 4023 
Q 3047 3744 3150 3342 
Q 3253 2941 3253 2259 
Q 3253 1453 3087 958 
Q 2922 463 2592 192 
Q 2263 -78 1759 -78 
Q 1097 -78 719 397 
Q 266 969 266 2259 
z
M 844 2259 
Q 844 1131 1108 757 
Q 1372 384 1759 384 
Q 2147 384 2411 759 
Q 2675 1134 2675 2259 
Q 2675 3391 2411 3762 
Q 2147 4134 1753 4134 
Q 1366 4134 1134 3806 
Q 844 3388 844 2259 
z
" transform="scale(0.015625)"/>
       </defs>
       <use xlink:href="#ArialMT-15"/>
       <use xlink:href="#ArialMT-13" transform="translate(55.609375 0)"/>
       <use xlink:href="#ArialMT-13" transform="translate(111.21875 0)"/>
      </g>
     </g>
    </g>
    <g id="xtick_2">
     <g id="line2d_2">
      <g>
       <use xlink:href="#m5b3c975159" x="192.710654" y="303.182656" style="stroke: #000000; stroke-width: 0.8"/>
      </g>
     </g>
     <g id="text_2">
      <!-- 400 -->
      <g transform="translate(181.032685 316.875039) scale(0.14 -0.14)">
       <defs>
        <path id="ArialMT-17" d="M 2069 0 
L 2069 1097 
L 81 1097 
L 81 1613 
L 2172 4581 
L 2631 4581 
L 2631 1613 
L 3250 1613 
L 3250 1097 
L 2631 1097 
L 2631 0 
L 2069 0 
z
M 2069 1613 
L 2069 3678 
L 634 1613 
L 2069 1613 
z
" transform="scale(0.015625)"/>
       </defs>
       <use xlink:href="#ArialMT-17"/>
       <use xlink:href="#ArialMT-13" transform="translate(55.609375 0)"/>
       <use xlink:href="#ArialMT-13" transform="translate(111.21875 0)"/>
      </g>
     </g>
    </g>
    <g id="xtick_3">
     <g id="line2d_3">
      <g>
       <use xlink:href="#m5b3c975159" x="268.203059" y="303.182656" style="stroke: #000000; stroke-width: 0.8"/>
      </g>
     </g>
     <g id="text_3">
      <!-- 600 -->
      <g transform="translate(256.52509 316.875039) scale(0.14 -0.14)">
       <defs>
        <path id="ArialMT-19" d="M 3184 3459 
L 2625 3416 
Q 2550 3747 2413 3897 
Q 2184 4138 1850 4138 
Q 1581 4138 1378 3988 
Q 1113 3794 959 3422 
Q 806 3050 800 2363 
Q 1003 2672 1297 2822 
Q 1591 2972 1913 2972 
Q 2475 2972 2870 2558 
Q 3266 2144 3266 1488 
Q 3266 1056 3080 686 
Q 2894 316 2569 119 
Q 2244 -78 1831 -78 
Q 1128 -78 684 439 
Q 241 956 241 2144 
Q 241 3472 731 4075 
Q 1159 4600 1884 4600 
Q 2425 4600 2770 4297 
Q 3116 3994 3184 3459 
z
M 888 1484 
Q 888 1194 1011 928 
Q 1134 663 1356 523 
Q 1578 384 1822 384 
Q 2178 384 2434 671 
Q 2691 959 2691 1453 
Q 2691 1928 2437 2201 
Q 2184 2475 1800 2475 
Q 1419 2475 1153 2201 
Q 888 1928 888 1484 
z
" transform="scale(0.015625)"/>
       </defs>
       <use xlink:href="#ArialMT-19"/>
       <use xlink:href="#ArialMT-13" transform="translate(55.609375 0)"/>
       <use xlink:href="#ArialMT-13" transform="translate(111.21875 0)"/>
      </g>
     </g>
    </g>
    <g id="xtick_4">
     <g id="line2d_4">
      <g>
       <use xlink:href="#m5b3c975159" x="343.695464" y="303.182656" style="stroke: #000000; stroke-width: 0.8"/>
      </g>
     </g>
     <g id="text_4">
      <!-- 800 -->
      <g transform="translate(332.017495 316.875039) scale(0.14 -0.14)">
       <defs>
        <path id="ArialMT-1b" d="M 1131 2484 
Q 781 2613 612 2850 
Q 444 3088 444 3419 
Q 444 3919 803 4259 
Q 1163 4600 1759 4600 
Q 2359 4600 2725 4251 
Q 3091 3903 3091 3403 
Q 3091 3084 2923 2848 
Q 2756 2613 2416 2484 
Q 2838 2347 3058 2040 
Q 3278 1734 3278 1309 
Q 3278 722 2862 322 
Q 2447 -78 1769 -78 
Q 1091 -78 675 323 
Q 259 725 259 1325 
Q 259 1772 486 2073 
Q 713 2375 1131 2484 
z
M 1019 3438 
Q 1019 3113 1228 2906 
Q 1438 2700 1772 2700 
Q 2097 2700 2305 2904 
Q 2513 3109 2513 3406 
Q 2513 3716 2298 3927 
Q 2084 4138 1766 4138 
Q 1444 4138 1231 3931 
Q 1019 3725 1019 3438 
z
M 838 1322 
Q 838 1081 952 856 
Q 1066 631 1291 507 
Q 1516 384 1775 384 
Q 2178 384 2440 643 
Q 2703 903 2703 1303 
Q 2703 1709 2433 1975 
Q 2163 2241 1756 2241 
Q 1359 2241 1098 1978 
Q 838 1716 838 1322 
z
" transform="scale(0.015625)"/>
       </defs>
       <use xlink:href="#ArialMT-1b"/>
       <use xlink:href="#ArialMT-13" transform="translate(55.609375 0)"/>
       <use xlink:href="#ArialMT-13" transform="translate(111.21875 0)"/>
      </g>
     </g>
    </g>
    <g id="xtick_5">
     <g id="line2d_5">
      <g>
       <use xlink:href="#m5b3c975159" x="419.187869" y="303.182656" style="stroke: #000000; stroke-width: 0.8"/>
      </g>
     </g>
     <g id="text_5">
      <!-- 1000 -->
      <g transform="translate(403.617244 316.875039) scale(0.14 -0.14)">
       <defs>
        <path id="ArialMT-14" d="M 2384 0 
L 1822 0 
L 1822 3584 
Q 1619 3391 1289 3197 
Q 959 3003 697 2906 
L 697 3450 
Q 1169 3672 1522 3987 
Q 1875 4303 2022 4600 
L 2384 4600 
L 2384 0 
z
" transform="scale(0.015625)"/>
       </defs>
       <use xlink:href="#ArialMT-14"/>
       <use xlink:href="#ArialMT-13" transform="translate(55.609375 0)"/>
       <use xlink:href="#ArialMT-13" transform="translate(111.21875 0)"/>
       <use xlink:href="#ArialMT-13" transform="translate(166.828125 0)"/>
      </g>
     </g>
    </g>
    <g id="xtick_6">
     <g id="line2d_6">
      <g>
       <use xlink:href="#m5b3c975159" x="494.680273" y="303.182656" style="stroke: #000000; stroke-width: 0.8"/>
      </g>
     </g>
     <g id="text_6">
      <!-- 1200 -->
      <g transform="translate(479.109648 316.875039) scale(0.14 -0.14)">
       <use xlink:href="#ArialMT-14"/>
       <use xlink:href="#ArialMT-15" transform="translate(55.609375 0)"/>
       <use xlink:href="#ArialMT-13" transform="translate(111.21875 0)"/>
       <use xlink:href="#ArialMT-13" transform="translate(166.828125 0)"/>
      </g>
     </g>
    </g>
    <g id="xtick_7">
     <g id="line2d_7">
      <defs>
       <path id="m71073f24fa" d="M 0 0 
L 0 -3 
" style="stroke: #000000; stroke-width: 0.6"/>
      </defs>
      <g>
       <use xlink:href="#m71073f24fa" x="60.598945" y="303.182656" style="stroke: #000000; stroke-width: 0.6"/>
      </g>
     </g>
    </g>
    <g id="xtick_8">
     <g id="line2d_8">
      <g>
       <use xlink:href="#m71073f24fa" x="79.472047" y="303.182656" style="stroke: #000000; stroke-width: 0.6"/>
      </g>
     </g>
    </g>
    <g id="xtick_9">
     <g id="line2d_9">
      <g>
       <use xlink:href="#m71073f24fa" x="98.345148" y="303.182656" style="stroke: #000000; stroke-width: 0.6"/>
      </g>
     </g>
    </g>
    <g id="xtick_10">
     <g id="line2d_10">
      <g>
       <use xlink:href="#m71073f24fa" x="136.09135" y="303.182656" style="stroke: #000000; stroke-width: 0.6"/>
      </g>
     </g>
    </g>
    <g id="xtick_11">
     <g id="line2d_11">
      <g>
       <use xlink:href="#m71073f24fa" x="154.964451" y="303.182656" style="stroke: #000000; stroke-width: 0.6"/>
      </g>
     </g>
    </g>
    <g id="xtick_12">
     <g id="line2d_12">
      <g>
       <use xlink:href="#m71073f24fa" x="173.837553" y="303.182656" style="stroke: #000000; stroke-width: 0.6"/>
      </g>
     </g>
    </g>
    <g id="xtick_13">
     <g id="line2d_13">
      <g>
       <use xlink:href="#m71073f24fa" x="211.583755" y="303.182656" style="stroke: #000000; stroke-width: 0.6"/>
      </g>
     </g>
    </g>
    <g id="xtick_14">
     <g id="line2d_14">
      <g>
       <use xlink:href="#m71073f24fa" x="230.456856" y="303.182656" style="stroke: #000000; stroke-width: 0.6"/>
      </g>
     </g>
    </g>
    <g id="xtick_15">
     <g id="line2d_15">
      <g>
       <use xlink:href="#m71073f24fa" x="249.329958" y="303.182656" style="stroke: #000000; stroke-width: 0.6"/>
      </g>
     </g>
    </g>
    <g id="xtick_16">
     <g id="line2d_16">
      <g>
       <use xlink:href="#m71073f24fa" x="287.07616" y="303.182656" style="stroke: #000000; stroke-width: 0.6"/>
      </g>
     </g>
    </g>
    <g id="xtick_17">
     <g id="line2d_17">
      <g>
       <use xlink:href="#m71073f24fa" x="305.949261" y="303.182656" style="stroke: #000000; stroke-width: 0.6"/>
      </g>
     </g>
    </g>
    <g id="xtick_18">
     <g id="line2d_18">
      <g>
       <use xlink:href="#m71073f24fa" x="324.822362" y="303.182656" style="stroke: #000000; stroke-width: 0.6"/>
      </g>
     </g>
    </g>
    <g id="xtick_19">
     <g id="line2d_19">
      <g>
       <use xlink:href="#m71073f24fa" x="362.568565" y="303.182656" style="stroke: #000000; stroke-width: 0.6"/>
      </g>
     </g>
    </g>
    <g id="xtick_20">
     <g id="line2d_20">
      <g>
       <use xlink:href="#m71073f24fa" x="381.441666" y="303.182656" style="stroke: #000000; stroke-width: 0.6"/>
      </g>
     </g>
    </g>
    <g id="xtick_21">
     <g id="line2d_21">
      <g>
       <use xlink:href="#m71073f24fa" x="400.314767" y="303.182656" style="stroke: #000000; stroke-width: 0.6"/>
      </g>
     </g>
    </g>
    <g id="xtick_22">
     <g id="line2d_22">
      <g>
       <use xlink:href="#m71073f24fa" x="438.06097" y="303.182656" style="stroke: #000000; stroke-width: 0.6"/>
      </g>
     </g>
    </g>
    <g id="xtick_23">
     <g id="line2d_23">
      <g>
       <use xlink:href="#m71073f24fa" x="456.934071" y="303.182656" style="stroke: #000000; stroke-width: 0.6"/>
      </g>
     </g>
    </g>
    <g id="xtick_24">
     <g id="line2d_24">
      <g>
       <use xlink:href="#m71073f24fa" x="475.807172" y="303.182656" style="stroke: #000000; stroke-width: 0.6"/>
      </g>
     </g>
    </g>
    <g id="text_7">
     <!-- T1 Temperature (°C) -->
     <g transform="translate(213.900234 334.013711) scale(0.14 -0.14)">
      <defs>
       <path id="ArialMT-37" d="M 1659 0 
L 1659 4041 
L 150 4041 
L 150 4581 
L 3781 4581 
L 3781 4041 
L 2266 4041 
L 2266 0 
L 1659 0 
z
" transform="scale(0.015625)"/>
       <path id="ArialMT-3" transform="scale(0.015625)"/>
       <path id="ArialMT-48" d="M 2694 1069 
L 3275 997 
Q 3138 488 2766 206 
Q 2394 -75 1816 -75 
Q 1088 -75 661 373 
Q 234 822 234 1631 
Q 234 2469 665 2931 
Q 1097 3394 1784 3394 
Q 2450 3394 2872 2941 
Q 3294 2488 3294 1666 
Q 3294 1616 3291 1516 
L 816 1516 
Q 847 969 1125 678 
Q 1403 388 1819 388 
Q 2128 388 2347 550 
Q 2566 713 2694 1069 
z
M 847 1978 
L 2700 1978 
Q 2663 2397 2488 2606 
Q 2219 2931 1791 2931 
Q 1403 2931 1139 2672 
Q 875 2413 847 1978 
z
" transform="scale(0.015625)"/>
       <path id="ArialMT-50" d="M 422 0 
L 422 3319 
L 925 3319 
L 925 2853 
Q 1081 3097 1340 3245 
Q 1600 3394 1931 3394 
Q 2300 3394 2536 3241 
Q 2772 3088 2869 2813 
Q 3263 3394 3894 3394 
Q 4388 3394 4653 3120 
Q 4919 2847 4919 2278 
L 4919 0 
L 4359 0 
L 4359 2091 
Q 4359 2428 4304 2576 
Q 4250 2725 4106 2815 
Q 3963 2906 3769 2906 
Q 3419 2906 3187 2673 
Q 2956 2441 2956 1928 
L 2956 0 
L 2394 0 
L 2394 2156 
Q 2394 2531 2256 2718 
Q 2119 2906 1806 2906 
Q 1569 2906 1367 2781 
Q 1166 2656 1075 2415 
Q 984 2175 984 1722 
L 984 0 
L 422 0 
z
" transform="scale(0.015625)"/>
       <path id="ArialMT-53" d="M 422 -1272 
L 422 3319 
L 934 3319 
L 934 2888 
Q 1116 3141 1344 3267 
Q 1572 3394 1897 3394 
Q 2322 3394 2647 3175 
Q 2972 2956 3137 2557 
Q 3303 2159 3303 1684 
Q 3303 1175 3120 767 
Q 2938 359 2589 142 
Q 2241 -75 1856 -75 
Q 1575 -75 1351 44 
Q 1128 163 984 344 
L 984 -1272 
L 422 -1272 
z
M 931 1641 
Q 931 1000 1190 694 
Q 1450 388 1819 388 
Q 2194 388 2461 705 
Q 2728 1022 2728 1688 
Q 2728 2322 2467 2637 
Q 2206 2953 1844 2953 
Q 1484 2953 1207 2617 
Q 931 2281 931 1641 
z
" transform="scale(0.015625)"/>
       <path id="ArialMT-55" d="M 416 0 
L 416 3319 
L 922 3319 
L 922 2816 
Q 1116 3169 1280 3281 
Q 1444 3394 1641 3394 
Q 1925 3394 2219 3213 
L 2025 2691 
Q 1819 2813 1613 2813 
Q 1428 2813 1281 2702 
Q 1134 2591 1072 2394 
Q 978 2094 978 1738 
L 978 0 
L 416 0 
z
" transform="scale(0.015625)"/>
       <path id="ArialMT-44" d="M 2588 409 
Q 2275 144 1986 34 
Q 1697 -75 1366 -75 
Q 819 -75 525 192 
Q 231 459 231 875 
Q 231 1119 342 1320 
Q 453 1522 633 1644 
Q 813 1766 1038 1828 
Q 1203 1872 1538 1913 
Q 2219 1994 2541 2106 
Q 2544 2222 2544 2253 
Q 2544 2597 2384 2738 
Q 2169 2928 1744 2928 
Q 1347 2928 1158 2789 
Q 969 2650 878 2297 
L 328 2372 
Q 403 2725 575 2942 
Q 747 3159 1072 3276 
Q 1397 3394 1825 3394 
Q 2250 3394 2515 3294 
Q 2781 3194 2906 3042 
Q 3031 2891 3081 2659 
Q 3109 2516 3109 2141 
L 3109 1391 
Q 3109 606 3145 398 
Q 3181 191 3288 0 
L 2700 0 
Q 2613 175 2588 409 
z
M 2541 1666 
Q 2234 1541 1622 1453 
Q 1275 1403 1131 1340 
Q 988 1278 909 1158 
Q 831 1038 831 891 
Q 831 666 1001 516 
Q 1172 366 1500 366 
Q 1825 366 2078 508 
Q 2331 650 2450 897 
Q 2541 1088 2541 1459 
L 2541 1666 
z
" transform="scale(0.015625)"/>
       <path id="ArialMT-57" d="M 1650 503 
L 1731 6 
Q 1494 -44 1306 -44 
Q 1000 -44 831 53 
Q 663 150 594 308 
Q 525 466 525 972 
L 525 2881 
L 113 2881 
L 113 3319 
L 525 3319 
L 525 4141 
L 1084 4478 
L 1084 3319 
L 1650 3319 
L 1650 2881 
L 1084 2881 
L 1084 941 
Q 1084 700 1114 631 
Q 1144 563 1211 522 
Q 1278 481 1403 481 
Q 1497 481 1650 503 
z
" transform="scale(0.015625)"/>
       <path id="ArialMT-58" d="M 2597 0 
L 2597 488 
Q 2209 -75 1544 -75 
Q 1250 -75 995 37 
Q 741 150 617 320 
Q 494 491 444 738 
Q 409 903 409 1263 
L 409 3319 
L 972 3319 
L 972 1478 
Q 972 1038 1006 884 
Q 1059 663 1231 536 
Q 1403 409 1656 409 
Q 1909 409 2131 539 
Q 2353 669 2445 892 
Q 2538 1116 2538 1541 
L 2538 3319 
L 3100 3319 
L 3100 0 
L 2597 0 
z
" transform="scale(0.015625)"/>
       <path id="ArialMT-b" d="M 1497 -1347 
Q 1031 -759 709 28 
Q 388 816 388 1659 
Q 388 2403 628 3084 
Q 909 3875 1497 4659 
L 1900 4659 
Q 1522 4009 1400 3731 
Q 1209 3300 1100 2831 
Q 966 2247 966 1656 
Q 966 153 1900 -1347 
L 1497 -1347 
z
" transform="scale(0.015625)"/>
       <path id="ArialMT-83" d="M 400 3794 
Q 400 4153 654 4406 
Q 909 4659 1266 4659 
Q 1628 4659 1881 4406 
Q 2134 4153 2134 3794 
Q 2134 3434 1879 3179 
Q 1625 2925 1266 2925 
Q 909 2925 654 3178 
Q 400 3431 400 3794 
z
M 741 3794 
Q 741 3575 895 3420 
Q 1050 3266 1269 3266 
Q 1484 3266 1639 3420 
Q 1794 3575 1794 3794 
Q 1794 4013 1639 4167 
Q 1484 4322 1269 4322 
Q 1050 4322 895 4167 
Q 741 4013 741 3794 
z
" transform="scale(0.015625)"/>
       <path id="ArialMT-26" d="M 3763 1606 
L 4369 1453 
Q 4178 706 3683 314 
Q 3188 -78 2472 -78 
Q 1731 -78 1267 223 
Q 803 525 561 1097 
Q 319 1669 319 2325 
Q 319 3041 592 3573 
Q 866 4106 1370 4382 
Q 1875 4659 2481 4659 
Q 3169 4659 3637 4309 
Q 4106 3959 4291 3325 
L 3694 3184 
Q 3534 3684 3231 3912 
Q 2928 4141 2469 4141 
Q 1941 4141 1586 3887 
Q 1231 3634 1087 3207 
Q 944 2781 944 2328 
Q 944 1744 1114 1308 
Q 1284 872 1643 656 
Q 2003 441 2422 441 
Q 2931 441 3284 734 
Q 3638 1028 3763 1606 
z
" transform="scale(0.015625)"/>
       <path id="ArialMT-c" d="M 791 -1347 
L 388 -1347 
Q 1322 153 1322 1656 
Q 1322 2244 1188 2822 
Q 1081 3291 891 3722 
Q 769 4003 388 4659 
L 791 4659 
Q 1378 3875 1659 3084 
Q 1900 2403 1900 1659 
Q 1900 816 1576 28 
Q 1253 -759 791 -1347 
z
" transform="scale(0.015625)"/>
      </defs>
      <use xlink:href="#ArialMT-37"/>
      <use xlink:href="#ArialMT-14" transform="translate(61.078125 0)"/>
      <use xlink:href="#ArialMT-3" transform="translate(116.6875 0)"/>
      <use xlink:href="#ArialMT-37" transform="translate(142.65625 0)"/>
      <use xlink:href="#ArialMT-48" transform="translate(192.65625 0)"/>
      <use xlink:href="#ArialMT-50" transform="translate(248.265625 0)"/>
      <use xlink:href="#ArialMT-53" transform="translate(331.5625 0)"/>
      <use xlink:href="#ArialMT-48" transform="translate(387.171875 0)"/>
      <use xlink:href="#ArialMT-55" transform="translate(442.78125 0)"/>
      <use xlink:href="#ArialMT-44" transform="translate(476.078125 0)"/>
      <use xlink:href="#ArialMT-57" transform="translate(531.6875 0)"/>
      <use xlink:href="#ArialMT-58" transform="translate(559.46875 0)"/>
      <use xlink:href="#ArialMT-55" transform="translate(615.078125 0)"/>
      <use xlink:href="#ArialMT-48" transform="translate(648.375 0)"/>
      <use xlink:href="#ArialMT-3" transform="translate(703.984375 0)"/>
      <use xlink:href="#ArialMT-b" transform="translate(731.765625 0)"/>
      <use xlink:href="#ArialMT-83" transform="translate(765.0625 0)"/>
      <use xlink:href="#ArialMT-26" transform="translate(805.046875 0)"/>
      <use xlink:href="#ArialMT-c" transform="translate(877.265625 0)"/>
     </g>
    </g>
   </g>
   <g id="matplotlib.axis_2">
    <g id="ytick_1">
     <g id="line2d_25">
      <defs>
       <path id="me1bec11be8" d="M 0 0 
L 6 0 
" style="stroke: #000000; stroke-width: 0.8"/>
      </defs>
      <g>
       <use xlink:href="#me1bec11be8" x="60.598945" y="262.89094" style="stroke: #000000; stroke-width: 0.8"/>
      </g>
     </g>
     <g id="text_8">
      <!-- $\mathdefault{10^{-13}}$ -->
      <g transform="translate(24.338945 269.33094) scale(0.14 -0.14)">
       <defs>
        <path id="ArialMT-ed" d="M 3381 1997 
L 356 1997 
L 356 2522 
L 3381 2522 
L 3381 1997 
z
" transform="scale(0.015625)"/>
        <path id="ArialMT-16" d="M 269 1209 
L 831 1284 
Q 928 806 1161 595 
Q 1394 384 1728 384 
Q 2125 384 2398 659 
Q 2672 934 2672 1341 
Q 2672 1728 2419 1979 
Q 2166 2231 1775 2231 
Q 1616 2231 1378 2169 
L 1441 2663 
Q 1497 2656 1531 2656 
Q 1891 2656 2178 2843 
Q 2466 3031 2466 3422 
Q 2466 3731 2256 3934 
Q 2047 4138 1716 4138 
Q 1388 4138 1169 3931 
Q 950 3725 888 3313 
L 325 3413 
Q 428 3978 793 4289 
Q 1159 4600 1703 4600 
Q 2078 4600 2393 4439 
Q 2709 4278 2876 4000 
Q 3044 3722 3044 3409 
Q 3044 3113 2884 2869 
Q 2725 2625 2413 2481 
Q 2819 2388 3044 2092 
Q 3269 1797 3269 1353 
Q 3269 753 2831 336 
Q 2394 -81 1725 -81 
Q 1122 -81 723 278 
Q 325 638 269 1209 
z
" transform="scale(0.015625)"/>
       </defs>
       <use xlink:href="#ArialMT-14" transform="translate(0 0.3875)"/>
       <use xlink:href="#ArialMT-13" transform="translate(55.615234 0.3875)"/>
       <use xlink:href="#ArialMT-ed" transform="translate(112.1875 41.6875) scale(0.7)"/>
       <use xlink:href="#ArialMT-14" transform="translate(153.066406 41.6875) scale(0.7)"/>
       <use xlink:href="#ArialMT-16" transform="translate(191.99707 41.6875) scale(0.7)"/>
      </g>
     </g>
    </g>
    <g id="ytick_2">
     <g id="line2d_26">
      <g>
       <use xlink:href="#me1bec11be8" x="60.598945" y="122.178703" style="stroke: #000000; stroke-width: 0.8"/>
      </g>
     </g>
     <g id="text_9">
      <!-- $\mathdefault{10^{-12}}$ -->
      <g transform="translate(24.338945 128.618703) scale(0.14 -0.14)">
       <use xlink:href="#ArialMT-14" transform="translate(0 0.3875)"/>
       <use xlink:href="#ArialMT-13" transform="translate(55.615234 0.3875)"/>
       <use xlink:href="#ArialMT-ed" transform="translate(112.1875 41.6875) scale(0.7)"/>
       <use xlink:href="#ArialMT-14" transform="translate(153.066406 41.6875) scale(0.7)"/>
       <use xlink:href="#ArialMT-15" transform="translate(191.99707 41.6875) scale(0.7)"/>
      </g>
     </g>
    </g>
    <g id="ytick_3">
     <g id="line2d_27">
      <defs>
       <path id="maf022dbf2d" d="M 0 0 
L 3 0 
" style="stroke: #000000; stroke-width: 0.6"/>
      </defs>
      <g>
       <use xlink:href="#maf022dbf2d" x="60.598945" y="294.107773" style="stroke: #000000; stroke-width: 0.6"/>
      </g>
     </g>
    </g>
    <g id="ytick_4">
     <g id="line2d_28">
      <g>
       <use xlink:href="#maf022dbf2d" x="60.598945" y="284.687541" style="stroke: #000000; stroke-width: 0.6"/>
      </g>
     </g>
    </g>
    <g id="ytick_5">
     <g id="line2d_29">
      <g>
       <use xlink:href="#maf022dbf2d" x="60.598945" y="276.527364" style="stroke: #000000; stroke-width: 0.6"/>
      </g>
     </g>
    </g>
    <g id="ytick_6">
     <g id="line2d_30">
      <g>
       <use xlink:href="#maf022dbf2d" x="60.598945" y="269.329579" style="stroke: #000000; stroke-width: 0.6"/>
      </g>
     </g>
    </g>
    <g id="ytick_7">
     <g id="line2d_31">
      <g>
       <use xlink:href="#maf022dbf2d" x="60.598945" y="220.532336" style="stroke: #000000; stroke-width: 0.6"/>
      </g>
     </g>
    </g>
    <g id="ytick_8">
     <g id="line2d_32">
      <g>
       <use xlink:href="#maf022dbf2d" x="60.598945" y="195.754141" style="stroke: #000000; stroke-width: 0.6"/>
      </g>
     </g>
    </g>
    <g id="ytick_9">
     <g id="line2d_33">
      <g>
       <use xlink:href="#maf022dbf2d" x="60.598945" y="178.173732" style="stroke: #000000; stroke-width: 0.6"/>
      </g>
     </g>
    </g>
    <g id="ytick_10">
     <g id="line2d_34">
      <g>
       <use xlink:href="#maf022dbf2d" x="60.598945" y="164.537307" style="stroke: #000000; stroke-width: 0.6"/>
      </g>
     </g>
    </g>
    <g id="ytick_11">
     <g id="line2d_35">
      <g>
       <use xlink:href="#maf022dbf2d" x="60.598945" y="153.395537" style="stroke: #000000; stroke-width: 0.6"/>
      </g>
     </g>
    </g>
    <g id="ytick_12">
     <g id="line2d_36">
      <g>
       <use xlink:href="#maf022dbf2d" x="60.598945" y="143.975305" style="stroke: #000000; stroke-width: 0.6"/>
      </g>
     </g>
    </g>
    <g id="ytick_13">
     <g id="line2d_37">
      <g>
       <use xlink:href="#maf022dbf2d" x="60.598945" y="135.815128" style="stroke: #000000; stroke-width: 0.6"/>
      </g>
     </g>
    </g>
    <g id="ytick_14">
     <g id="line2d_38">
      <g>
       <use xlink:href="#maf022dbf2d" x="60.598945" y="128.617342" style="stroke: #000000; stroke-width: 0.6"/>
      </g>
     </g>
    </g>
    <g id="ytick_15">
     <g id="line2d_39">
      <g>
       <use xlink:href="#maf022dbf2d" x="60.598945" y="79.8201" style="stroke: #000000; stroke-width: 0.6"/>
      </g>
     </g>
    </g>
    <g id="ytick_16">
     <g id="line2d_40">
      <g>
       <use xlink:href="#maf022dbf2d" x="60.598945" y="55.041905" style="stroke: #000000; stroke-width: 0.6"/>
      </g>
     </g>
    </g>
    <g id="text_10">
     <!-- Ion Current (m/z 19) -->
     <g transform="translate(17.392383 234.056768) rotate(-90) scale(0.14 -0.14)">
      <defs>
       <path id="ArialMT-2c" d="M 597 0 
L 597 4581 
L 1203 4581 
L 1203 0 
L 597 0 
z
" transform="scale(0.015625)"/>
       <path id="ArialMT-52" d="M 213 1659 
Q 213 2581 725 3025 
Q 1153 3394 1769 3394 
Q 2453 3394 2887 2945 
Q 3322 2497 3322 1706 
Q 3322 1066 3130 698 
Q 2938 331 2570 128 
Q 2203 -75 1769 -75 
Q 1072 -75 642 372 
Q 213 819 213 1659 
z
M 791 1659 
Q 791 1022 1069 705 
Q 1347 388 1769 388 
Q 2188 388 2466 706 
Q 2744 1025 2744 1678 
Q 2744 2294 2464 2611 
Q 2184 2928 1769 2928 
Q 1347 2928 1069 2612 
Q 791 2297 791 1659 
z
" transform="scale(0.015625)"/>
       <path id="ArialMT-51" d="M 422 0 
L 422 3319 
L 928 3319 
L 928 2847 
Q 1294 3394 1984 3394 
Q 2284 3394 2536 3286 
Q 2788 3178 2913 3003 
Q 3038 2828 3088 2588 
Q 3119 2431 3119 2041 
L 3119 0 
L 2556 0 
L 2556 2019 
Q 2556 2363 2490 2533 
Q 2425 2703 2258 2804 
Q 2091 2906 1866 2906 
Q 1506 2906 1245 2678 
Q 984 2450 984 1813 
L 984 0 
L 422 0 
z
" transform="scale(0.015625)"/>
       <path id="ArialMT-12" d="M 0 -78 
L 1328 4659 
L 1778 4659 
L 453 -78 
L 0 -78 
z
" transform="scale(0.015625)"/>
       <path id="ArialMT-5d" d="M 125 0 
L 125 456 
L 2238 2881 
Q 1878 2863 1603 2863 
L 250 2863 
L 250 3319 
L 2963 3319 
L 2963 2947 
L 1166 841 
L 819 456 
Q 1197 484 1528 484 
L 3063 484 
L 3063 0 
L 125 0 
z
" transform="scale(0.015625)"/>
       <path id="ArialMT-1c" d="M 350 1059 
L 891 1109 
Q 959 728 1153 556 
Q 1347 384 1650 384 
Q 1909 384 2104 503 
Q 2300 622 2425 820 
Q 2550 1019 2634 1356 
Q 2719 1694 2719 2044 
Q 2719 2081 2716 2156 
Q 2547 1888 2255 1720 
Q 1963 1553 1622 1553 
Q 1053 1553 659 1965 
Q 266 2378 266 3053 
Q 266 3750 677 4175 
Q 1088 4600 1706 4600 
Q 2153 4600 2523 4359 
Q 2894 4119 3086 3673 
Q 3278 3228 3278 2384 
Q 3278 1506 3087 986 
Q 2897 466 2520 194 
Q 2144 -78 1638 -78 
Q 1100 -78 759 220 
Q 419 519 350 1059 
z
M 2653 3081 
Q 2653 3566 2395 3850 
Q 2138 4134 1775 4134 
Q 1400 4134 1122 3828 
Q 844 3522 844 3034 
Q 844 2597 1108 2323 
Q 1372 2050 1759 2050 
Q 2150 2050 2401 2323 
Q 2653 2597 2653 3081 
z
" transform="scale(0.015625)"/>
      </defs>
      <use xlink:href="#ArialMT-2c"/>
      <use xlink:href="#ArialMT-52" transform="translate(27.78125 0)"/>
      <use xlink:href="#ArialMT-51" transform="translate(83.390625 0)"/>
      <use xlink:href="#ArialMT-3" transform="translate(139 0)"/>
      <use xlink:href="#ArialMT-26" transform="translate(166.78125 0)"/>
      <use xlink:href="#ArialMT-58" transform="translate(239 0)"/>
      <use xlink:href="#ArialMT-55" transform="translate(294.609375 0)"/>
      <use xlink:href="#ArialMT-55" transform="translate(327.90625 0)"/>
      <use xlink:href="#ArialMT-48" transform="translate(361.203125 0)"/>
      <use xlink:href="#ArialMT-51" transform="translate(416.8125 0)"/>
      <use xlink:href="#ArialMT-57" transform="translate(472.421875 0)"/>
      <use xlink:href="#ArialMT-3" transform="translate(500.203125 0)"/>
      <use xlink:href="#ArialMT-b" transform="translate(527.984375 0)"/>
      <use xlink:href="#ArialMT-50" transform="translate(561.28125 0)"/>
      <use xlink:href="#ArialMT-12" transform="translate(644.578125 0)"/>
      <use xlink:href="#ArialMT-5d" transform="translate(672.359375 0)"/>
      <use xlink:href="#ArialMT-3" transform="translate(722.359375 0)"/>
      <use xlink:href="#ArialMT-14" transform="translate(750.140625 0)"/>
      <use xlink:href="#ArialMT-1c" transform="translate(805.75 0)"/>
      <use xlink:href="#ArialMT-c" transform="translate(861.359375 0)"/>
     </g>
    </g>
   </g>
   <g id="line2d_41">
    <path d="M 59.617544 217.117553 
L 59.542052 274.728206 
L 59.542052 267.578377 
L 59.806275 267.542868 
L 60.598945 276.923191 
L 62.108793 253.915613 
L 64.298073 247.665131 
L 66.600592 245.187464 
L 68.714379 239.935688 
L 70.48845 240.706932 
L 71.960552 238.694022 
L 73.243923 234.71901 
L 74.376309 236.009031 
L 75.470949 238.454619 
L 76.527843 243.844083 
L 77.660229 231.741073 
L 78.754869 239.121589 
L 79.887255 239.779708 
L 81.095133 237.023256 
L 83.473144 250.196413 
L 84.681022 253.703707 
L 85.888901 259.916648 
L 87.210018 257.671784 
L 88.531135 251.379403 
L 89.77676 246.736137 
L 91.022384 246.568354 
L 92.230263 239.117709 
L 93.438141 233.121091 
L 94.608274 237.612301 
L 95.778406 251.467336 
L 96.948538 256.925842 
L 98.080924 264.267265 
L 99.326549 268.54368 
L 100.534428 273.186602 
L 101.70456 284.162809 
L 102.874692 274.772274 
L 104.044824 284.318886 
L 105.214957 270.879783 
L 106.422835 276.60504 
L 107.592967 291.205218 
L 108.725353 288.093911 
L 109.85774 286.585959 
L 110.990126 282.956113 
L 112.198004 277.847866 
L 113.368136 279.032889 
L 114.576015 273.21596 
L 115.783893 275.41117 
L 116.991772 253.802517 
L 118.124158 253.250001 
L 119.29429 248.238341 
L 120.464422 247.489095 
L 121.672301 244.103263 
L 122.842433 246.656134 
L 124.050312 247.270569 
L 125.295936 258.52277 
L 126.503815 263.781526 
L 127.673947 276.037595 
L 128.844079 269.707363 
L 130.014212 279.483903 
L 131.184344 278.02661 
L 132.354476 274.097216 
L 133.524608 260.189445 
L 134.656995 249.199123 
L 135.864873 239.626709 
L 137.072751 236.935379 
L 138.318376 232.565793 
L 139.526255 238.253611 
L 140.696387 234.284334 
L 141.791027 240.243516 
L 142.998905 238.840533 
L 144.131291 235.589312 
L 145.301424 233.443124 
L 146.471556 233.029745 
L 147.641688 228.487196 
L 148.887313 229.201166 
L 150.095191 232.145586 
L 151.227577 232.083422 
L 152.435456 231.287847 
L 153.605588 231.707444 
L 154.77572 225.362797 
L 156.021345 223.897115 
L 157.153731 223.649667 
L 158.286117 217.328625 
L 159.45625 218.100312 
L 160.626382 226.336942 
L 161.872006 223.343554 
L 163.042139 216.69933 
L 164.250017 216.632526 
L 165.42015 213.156083 
L 166.628028 210.053857 
L 167.79816 206.600428 
L 169.006039 200.15457 
L 170.176171 195.2729 
L 171.270811 199.051239 
L 172.440943 200.147194 
L 173.648822 193.901694 
L 174.818954 191.484179 
L 175.989086 186.952289 
L 177.196965 183.140827 
L 179.499483 181.077179 
L 180.707361 182.803131 
L 181.877494 184.079682 
L 183.047626 185.615368 
L 184.255505 182.003786 
L 185.387891 177.951338 
L 186.558023 174.593 
L 187.765901 166.379069 
L 188.97378 162.600718 
L 190.06842 160.860642 
L 191.314044 165.206341 
L 192.559669 170.131886 
L 193.767548 169.398448 
L 194.899934 169.577498 
L 196.183304 165.913757 
L 197.353437 162.970393 
L 198.523569 158.945017 
L 199.655955 154.233701 
L 200.788341 151.935486 
L 201.958473 149.855534 
L 203.09086 153.013755 
L 204.298738 152.039733 
L 205.506617 149.032775 
L 206.676749 146.576026 
L 207.846881 144.455594 
L 209.05476 141.435653 
L 210.187146 139.34306 
L 211.395024 138.426409 
L 212.565156 138.819175 
L 213.773035 136.987825 
L 214.905421 137.760718 
L 216.075553 134.452855 
L 217.283432 133.590571 
L 218.529056 132.496808 
L 219.699189 130.029896 
L 220.793828 128.06001 
L 223.171839 127.193793 
L 224.341972 127.100113 
L 226.719982 125.071862 
L 227.852368 124.728497 
L 229.022501 128.695394 
L 230.230379 130.61681 
L 231.362765 132.627464 
L 232.532897 135.906671 
L 234.873162 143.780939 
L 236.005548 147.030459 
L 237.251173 149.620303 
L 238.383559 144.503778 
L 239.591437 142.359529 
L 240.76157 141.591683 
L 241.931702 138.403449 
L 243.13958 138.26445 
L 244.271966 137.426084 
L 245.479845 139.066546 
L 246.649977 139.917725 
L 247.857856 142.156499 
L 248.990242 142.859156 
L 250.160374 139.614725 
L 251.330506 138.571559 
L 252.538385 139.68255 
L 253.708517 140.950894 
L 254.840903 144.008511 
L 256.048782 147.800736 
L 257.218914 151.06974 
L 258.426792 151.146621 
L 259.634671 150.43978 
L 260.767057 148.697446 
L 261.974935 143.836057 
L 263.182814 142.595307 
L 264.352946 142.399505 
L 265.523078 143.556912 
L 269.033475 153.149135 
L 270.203607 154.513303 
L 271.335994 154.356089 
L 272.506126 151.703107 
L 273.751751 146.53009 
L 274.884137 144.974945 
L 276.092015 142.121101 
L 277.262147 140.151333 
L 278.43228 141.303453 
L 279.564666 141.764614 
L 280.772544 143.019769 
L 281.942676 143.279657 
L 283.112809 144.733237 
L 285.490819 141.772866 
L 286.660952 140.751527 
L 287.831084 139.932103 
L 289.001216 139.363187 
L 290.209095 139.719584 
L 291.341481 139.3141 
L 296.02201 133.170049 
L 297.267635 133.344277 
L 298.400021 134.380453 
L 299.607899 133.763013 
L 300.740285 132.937015 
L 301.910418 133.073795 
L 303.042804 131.155054 
L 304.212936 128.936302 
L 305.496307 127.525023 
L 306.704185 126.792222 
L 307.94981 126.748019 
L 309.119942 129.072037 
L 310.327821 129.610785 
L 311.535699 129.491499 
L 312.743578 130.34201 
L 313.875964 132.418867 
L 315.046096 127.651499 
L 316.216228 125.953788 
L 317.348614 123.623058 
L 318.518747 122.427537 
L 319.651133 120.915208 
L 320.896757 120.121743 
L 322.06689 119.887729 
L 323.237022 121.538892 
L 325.615033 124.170528 
L 326.747419 122.954246 
L 327.879805 122.57215 
L 329.049937 121.490918 
L 330.257816 122.400007 
L 331.427948 123.109753 
L 332.635826 122.52673 
L 333.768212 123.774592 
L 334.976091 122.524565 
L 336.108477 122.565848 
L 337.316355 121.717015 
L 338.486488 121.21026 
L 339.618874 120.037183 
L 340.789006 120.786178 
L 341.996885 121.257554 
L 343.167017 121.582547 
L 344.337149 120.70826 
L 345.469535 118.951604 
L 346.71516 115.664376 
L 347.847546 114.841974 
L 349.017678 113.562163 
L 350.225557 113.80483 
L 351.395689 115.548441 
L 352.565821 117.640312 
L 353.7737 117.852675 
L 354.906086 117.478141 
L 356.076218 118.328324 
L 357.208604 116.151497 
L 358.454229 115.354092 
L 360.794493 112.19017 
L 361.964626 111.655018 
L 363.097012 112.4889 
L 364.30489 112.267067 
L 365.39953 111.9395 
L 366.645155 111.23303 
L 367.815287 113.163046 
L 369.023165 110.66104 
L 370.117805 109.408293 
L 371.287938 106.507729 
L 372.495816 104.38802 
L 373.703695 102.666591 
L 374.798334 101.967476 
L 375.930721 101.674077 
L 378.308731 103.667836 
L 379.51661 103.590085 
L 380.913219 103.356753 
L 382.309829 103.284621 
L 384.725586 100.880693 
L 385.857972 98.359802 
L 387.103596 98.054382 
L 388.311475 97.075959 
L 389.368369 97.867193 
L 390.651739 97.184109 
L 391.821872 96.901556 
L 392.992004 98.765277 
L 394.162136 99.437331 
L 395.294522 99.495619 
L 396.502401 99.706001 
L 397.634787 98.676525 
L 398.880412 98.812918 
L 400.012798 97.327788 
L 401.220676 99.318136 
L 402.353062 98.44978 
L 403.560941 99.034197 
L 404.768819 98.775446 
L 407.071338 99.97354 
L 408.203724 99.989024 
L 409.524841 99.051138 
L 410.581734 98.660904 
L 411.789613 97.569801 
L 412.921999 98.576121 
L 414.054385 98.616138 
L 415.30001 99.992535 
L 416.470142 100.977873 
L 417.640274 103.684345 
L 418.810407 104.415948 
L 420.093777 104.598984 
L 422.35855 103.653293 
L 423.415443 101.957179 
L 424.925291 100.880188 
L 425.982185 101.453545 
L 427.076825 100.256297 
L 428.284703 100.209183 
L 429.454836 101.173715 
L 430.624968 100.696933 
L 431.757354 102.392375 
L 432.927486 101.623517 
L 435.305497 102.358424 
L 436.437883 102.106626 
L 437.608015 102.29891 
L 438.778148 100.917194 
L 442.326291 99.967548 
L 443.534169 101.328417 
L 444.666555 99.739515 
L 445.949926 99.815849 
L 446.931327 99.620794 
L 448.139206 99.050182 
L 449.347084 99.457668 
L 450.47947 99.441033 
L 451.762841 98.954652 
L 452.932974 99.583469 
L 454.140852 98.820798 
L 455.122253 97.88749 
L 456.632101 96.88612 
L 459.236589 93.908176 
L 460.595453 93.097033 
L 461.576854 92.142297 
L 462.935717 91.103913 
L 463.992611 90.992447 
L 465.238236 92.086839 
L 466.332875 90.6237 
L 467.5785 89.501556 
L 468.559901 91.222177 
L 469.994257 90.040537 
L 470.900166 89.691327 
L 472.221283 88.766358 
L 473.353669 87.191543 
L 474.63704 86.423227 
L 475.656187 84.677454 
L 476.864066 83.517763 
L 478.071944 81.4026 
L 479.393061 79.941387 
L 480.449955 80.630525 
L 481.506849 78.803448 
L 482.639235 78.191211 
L 483.960352 77.100949 
L 486.26287 76.436582 
L 487.470749 75.197658 
L 488.565389 74.802939 
L 489.84876 74.736297 
L 490.981146 75.048169 
L 492.189024 75.796548 
L 493.434649 77.050938 
L 493.434649 77.050938 
" clip-path="url(#p12de5e4853)" style="fill: none; stroke: #000000; stroke-width: 2.5; stroke-linecap: square"/>
   </g>
   <g id="line2d_42">
    <path d="M 59.013605 224.876631 
L 58.975859 220.49545 
L 59.013605 237.57623 
L 59.466559 241.553959 
L 60.523453 238.212284 
L 62.297524 237.112541 
L 64.52455 238.630007 
L 66.71383 236.990054 
L 68.638886 239.24889 
L 70.261973 236.913306 
L 71.658583 241.998436 
L 72.866461 240.374051 
L 73.961101 240.078486 
L 75.055741 233.098645 
L 76.150381 234.432262 
L 77.245021 240.740643 
L 78.377407 246.513114 
L 79.547539 247.126707 
L 80.717671 246.443272 
L 81.887803 249.062281 
L 83.095682 255.655464 
L 84.30356 255.839805 
L 85.511439 244.471693 
L 86.832556 243.615399 
L 88.115927 249.149553 
L 89.399298 245.738052 
L 90.682669 245.693773 
L 91.890547 244.328568 
L 93.098426 247.775564 
L 94.268558 255.854573 
L 95.43869 261.169665 
L 96.608822 258.339381 
L 97.778955 251.165242 
L 100.119219 261.1749 
L 101.327098 262.34254 
L 102.49723 261.653751 
L 103.667362 268.485737 
L 104.837495 267.83434 
L 106.007627 254.231004 
L 107.140013 247.83701 
L 108.272399 237.814193 
L 109.480277 233.744714 
L 110.688156 241.509533 
L 111.896034 248.447362 
L 113.066167 253.639607 
L 114.198553 264.858472 
L 115.406431 271.916805 
L 116.576564 264.790028 
L 118.916828 253.651084 
L 120.08696 251.109403 
L 121.332585 246.155283 
L 122.502717 252.783555 
L 123.67285 258.026471 
L 124.880728 249.140726 
L 126.05086 254.04928 
L 127.258739 256.377161 
L 128.428871 261.813945 
L 129.599003 281.817998 
L 130.806882 271.451507 
L 131.977014 272.141 
L 133.147146 256.023204 
L 134.317279 252.260753 
L 135.525157 242.446149 
L 136.695289 227.691917 
L 137.865422 226.826768 
L 139.035554 227.38434 
L 140.243432 228.501287 
L 141.413565 235.060995 
L 142.621443 233.540323 
L 143.791576 238.721818 
L 144.999454 238.661948 
L 146.169586 239.763749 
L 147.339719 239.124553 
L 148.547597 235.712866 
L 150.925608 220.405285 
L 152.09574 219.235118 
L 153.303619 215.661493 
L 154.473751 211.325188 
L 155.643883 207.779589 
L 156.738523 207.209234 
L 157.908655 207.388939 
L 159.116534 205.920803 
L 160.286666 202.612747 
L 161.532291 199.855733 
L 162.740169 195.212841 
L 163.948048 196.582657 
L 165.080434 192.594493 
L 166.288312 190.949142 
L 167.458444 185.640092 
L 168.628577 181.269199 
L 169.836455 178.248292 
L 172.101227 168.535926 
L 173.309106 166.8135 
L 174.441492 163.722885 
L 175.611624 164.490993 
L 176.819503 164.184782 
L 177.914143 165.006065 
L 179.122021 166.720054 
L 180.329899 166.377172 
L 181.537778 166.631947 
L 182.670164 162.385999 
L 183.840296 158.991836 
L 185.010429 158.449944 
L 186.218307 155.678534 
L 187.426186 152.246611 
L 188.596318 147.746413 
L 190.974329 142.69493 
L 192.182207 140.016281 
L 193.427832 140.920996 
L 194.522472 138.91333 
L 195.73035 140.743995 
L 196.975975 140.728628 
L 199.278493 139.754901 
L 200.448625 138.346609 
L 201.618758 138.067187 
L 202.826636 134.552354 
L 203.959022 135.077809 
L 205.129154 137.183186 
L 206.299287 136.997015 
L 207.469419 137.775163 
L 208.639551 136.11417 
L 209.885176 135.461419 
L 211.017562 136.15416 
L 213.395573 134.439421 
L 214.527959 132.701159 
L 215.773584 132.162976 
L 216.90597 132.1757 
L 218.076102 131.067859 
L 219.28398 131.103808 
L 220.454113 129.245236 
L 221.586499 127.925645 
L 222.756631 130.062486 
L 223.926763 129.815068 
L 225.096896 132.728787 
L 226.304774 132.925007 
L 227.512653 133.394202 
L 228.682785 132.277686 
L 229.815171 131.697449 
L 230.985303 134.036529 
L 232.155435 132.697524 
L 233.325568 133.691402 
L 234.533446 136.01187 
L 235.703578 135.160159 
L 236.873711 138.706757 
L 238.043843 136.962045 
L 239.251721 138.716533 
L 240.421854 136.029613 
L 241.591986 137.484321 
L 242.762118 137.659499 
L 243.932251 134.625127 
L 245.102383 135.009264 
L 246.272515 135.237031 
L 247.442647 134.939492 
L 248.575033 136.563806 
L 249.782912 136.276587 
L 251.028537 137.785129 
L 252.198669 138.356656 
L 253.368801 139.319541 
L 254.57668 137.367078 
L 255.709066 137.527815 
L 256.879198 137.901159 
L 258.124823 138.687302 
L 259.257209 136.767341 
L 260.502833 136.783151 
L 261.63522 135.502708 
L 262.805352 135.061846 
L 265.145616 135.462384 
L 266.353495 134.726849 
L 267.523627 134.685199 
L 268.693759 133.174933 
L 269.901638 132.273713 
L 270.996278 130.759476 
L 272.16641 131.420662 
L 273.374288 131.584311 
L 274.544421 132.530939 
L 275.714553 135.371511 
L 276.884685 137.562445 
L 278.092564 136.034937 
L 279.22495 135.635233 
L 280.395082 134.577253 
L 282.773093 131.725246 
L 283.943225 129.639711 
L 285.151104 128.213792 
L 286.321236 129.105279 
L 287.453622 130.442558 
L 289.869379 132.646882 
L 291.039511 134.061297 
L 292.171897 133.278983 
L 293.379776 134.712247 
L 294.549908 134.538836 
L 295.72004 133.914335 
L 296.890173 133.762538 
L 298.060305 135.415416 
L 299.268183 134.237302 
L 301.570702 132.82449 
L 303.948712 126.233149 
L 305.156591 125.96652 
L 306.364469 123.472535 
L 307.572348 123.024142 
L 308.780226 124.134278 
L 309.988105 126.566376 
L 313.498502 130.202708 
L 314.70638 129.039035 
L 315.838766 130.497005 
L 317.046645 129.955494 
L 318.216777 127.572107 
L 319.386909 126.063818 
L 320.519295 125.454178 
L 321.689428 124.078882 
L 322.935052 123.12642 
L 324.029692 122.025545 
L 325.237571 121.867828 
L 326.407703 121.232626 
L 327.540089 121.424048 
L 328.747967 122.495078 
L 329.842607 122.405428 
L 331.088232 121.094347 
L 332.220618 120.661736 
L 333.428497 118.692852 
L 334.560883 120.447488 
L 335.768761 121.888828 
L 336.901147 121.932469 
L 338.033533 121.554506 
L 339.279158 119.70812 
L 340.487036 119.346999 
L 341.657169 116.939977 
L 343.921941 115.297872 
L 345.054327 114.32758 
L 346.299952 114.930095 
L 347.470084 115.104733 
L 348.677962 114.715939 
L 349.923587 115.495086 
L 350.980481 114.501111 
L 352.150613 113.771962 
L 353.396238 113.970139 
L 354.528624 112.206083 
L 355.811995 110.508255 
L 356.831142 108.334845 
L 357.963528 106.396422 
L 359.246899 105.110603 
L 360.379285 105.871369 
L 361.549417 107.716107 
L 365.135307 109.846224 
L 366.267693 108.512862 
L 367.437825 106.809753 
L 368.68345 104.559368 
L 369.77809 102.028538 
L 370.985968 101.084137 
L 372.1561 101.937474 
L 373.288486 104.048536 
L 374.458619 104.302193 
L 375.628751 103.628409 
L 377.969015 105.531637 
L 379.21464 104.824222 
L 380.460265 103.403176 
L 381.894621 103.517445 
L 383.177991 104.224549 
L 384.310377 104.650651 
L 385.48051 105.965959 
L 386.688388 104.615036 
L 387.971759 101.291798 
L 389.104145 101.645362 
L 390.236531 102.752589 
L 391.406664 103.72606 
L 392.614542 102.168063 
L 393.860167 102.520138 
L 395.030299 102.151649 
L 396.0117 102.015827 
L 397.332817 101.538608 
L 398.540696 100.614892 
L 399.673082 99.962213 
L 400.843214 101.159978 
L 402.088839 101.42181 
L 403.258971 102.453665 
L 404.353611 100.434625 
L 405.561489 99.358029 
L 406.731622 98.772949 
L 407.901754 99.338827 
L 409.03414 98.718425 
L 410.279765 99.286237 
L 411.487643 101.141 
L 412.544537 101.801688 
L 413.639177 100.879879 
L 414.960294 103.00539 
L 416.130426 102.532692 
L 417.300558 101.242069 
L 418.583929 101.415351 
L 419.640823 102.892751 
L 420.810955 102.937673 
L 423.15122 104.341003 
L 424.396844 104.374827 
L 425.604723 103.901936 
L 426.661617 105.199182 
L 427.831749 103.709391 
L 431.455384 102.318154 
L 432.550024 101.119149 
L 433.757903 100.193625 
L 434.852543 98.705467 
L 436.060421 98.504157 
L 437.2683 99.25717 
L 438.362939 99.653667 
L 439.64631 99.987655 
L 440.891935 102.404182 
L 441.986575 103.783818 
L 443.081215 104.735877 
L 444.326839 105.188747 
L 445.421479 105.324707 
L 446.70485 103.042527 
L 447.79949 104.091196 
L 448.931876 103.757391 
L 450.102008 101.942307 
L 451.385379 100.682139 
L 452.517765 99.122879 
L 453.687898 98.609708 
L 454.669299 97.300103 
L 456.216893 96.179639 
L 457.764487 95.213546 
L 459.010112 93.88384 
L 460.067006 95.284833 
L 461.350377 94.93992 
L 464.860774 93.04979 
L 465.917667 93.094052 
L 467.087799 92.840805 
L 468.333424 90.946599 
L 469.541303 89.432673 
L 471.843821 87.040311 
L 472.862968 86.307314 
L 474.184086 85.821671 
L 475.354218 85.559107 
L 476.52435 84.177588 
L 477.694482 83.514696 
L 478.902361 82.053775 
L 481.167133 79.596602 
L 483.771621 78.188596 
L 484.639784 78.775898 
L 485.923154 78.903217 
L 487.131033 79.396722 
L 488.074688 78.037805 
L 489.358059 77.368158 
L 490.679176 76.230246 
L 491.962547 74.463514 
L 492.906202 71.942614 
L 493.887603 68.589655 
L 493.887603 68.589655 
" clip-path="url(#p12de5e4853)" style="fill: none; stroke: #1f77b4; stroke-width: 2.5; stroke-linecap: square"/>
   </g>
   <g id="line2d_43">
    <path d="M 58.636143 201.467406 
L 58.598397 231.604318 
L 58.673889 225.846878 
L 59.013605 228.010682 
L 60.032752 231.209646 
L 61.84457 225.425935 
L 63.996104 228.68755 
L 66.223129 224.699822 
L 68.185932 225.778748 
L 69.809019 225.979258 
L 71.205628 231.652274 
L 73.508147 246.444891 
L 74.602786 245.915732 
L 75.697426 245.22378 
L 76.792066 246.787168 
L 77.924452 239.165683 
L 79.094585 234.126442 
L 80.264717 231.033505 
L 81.472595 231.872791 
L 82.680474 230.547334 
L 83.850606 222.838621 
L 85.058484 220.038196 
L 86.304109 226.352469 
L 87.58748 231.119844 
L 88.908597 233.558504 
L 90.229714 228.094766 
L 91.437593 230.166818 
L 92.607725 232.968246 
L 93.777857 237.960867 
L 94.910243 235.782289 
L 96.080376 230.285403 
L 97.250508 226.471248 
L 98.458386 229.7347 
L 99.628519 231.30968 
L 100.798651 228.884249 
L 102.006529 226.120559 
L 103.214408 232.194415 
L 104.422286 242.750742 
L 105.630165 250.358852 
L 106.762551 258.402818 
L 107.932683 260.517626 
L 109.178308 258.135767 
L 110.34844 252.813665 
L 111.480826 240.527333 
L 113.707852 231.948608 
L 114.953477 232.046504 
L 116.161355 240.776027 
L 117.369234 239.565325 
L 118.539366 239.629877 
L 119.747245 251.9021 
L 120.955123 243.98152 
L 122.125255 235.255034 
L 123.257641 231.383371 
L 124.46552 232.495582 
L 125.635652 235.377128 
L 126.843531 239.212946 
L 128.013663 249.105297 
L 129.259288 234.431882 
L 130.467166 241.136826 
L 131.637298 249.269982 
L 132.807431 245.352014 
L 133.939817 235.265079 
L 135.109949 231.85056 
L 136.280081 229.296757 
L 137.563452 230.460154 
L 138.771331 237.521913 
L 141.036103 220.537929 
L 142.243981 226.734491 
L 143.376367 225.704537 
L 144.584246 223.701527 
L 145.792124 222.790965 
L 146.962257 223.885596 
L 148.170135 218.005946 
L 149.340267 217.276067 
L 150.472653 220.034498 
L 151.680532 212.745525 
L 152.88841 210.69291 
L 154.058543 211.499725 
L 155.228675 215.804423 
L 156.436553 212.372677 
L 157.644432 211.505569 
L 158.776818 205.033086 
L 159.984696 201.912938 
L 161.154829 200.564013 
L 162.324961 200.700995 
L 164.665225 196.0719 
L 165.835358 203.295405 
L 167.00549 201.601943 
L 168.213368 195.248858 
L 169.383501 188.27823 
L 170.591379 184.421403 
L 171.723765 181.393124 
L 172.931644 178.867065 
L 174.101776 181.611955 
L 176.442041 185.231765 
L 177.612173 192.101296 
L 178.782305 188.110813 
L 179.914691 183.098154 
L 181.12257 176.942109 
L 182.292702 175.559109 
L 183.462834 168.576991 
L 184.632967 166.926103 
L 185.840845 162.195886 
L 187.010977 158.936543 
L 188.256602 158.661934 
L 189.426734 157.283899 
L 190.634613 153.27578 
L 191.804745 153.673634 
L 193.05037 155.893922 
L 194.220502 162.377212 
L 195.390634 163.128267 
L 196.52302 166.910443 
L 197.693153 167.544642 
L 198.863285 166.50219 
L 200.033417 163.00026 
L 201.203549 154.817651 
L 202.411428 150.174082 
L 203.58156 148.662629 
L 204.789439 143.423595 
L 205.921825 142.040403 
L 207.054211 141.676003 
L 208.299835 143.331752 
L 209.507714 142.857935 
L 210.677846 144.064372 
L 211.772486 146.559271 
L 213.018111 148.061431 
L 214.150497 152.36548 
L 215.396122 152.02791 
L 216.528508 148.473703 
L 217.69864 148.398756 
L 218.906518 149.67049 
L 221.246783 146.710621 
L 222.379169 149.515475 
L 223.549301 151.651895 
L 224.719434 148.987526 
L 227.135191 145.480759 
L 228.267577 142.62723 
L 229.475455 143.538895 
L 230.607841 145.789748 
L 232.948106 146.765399 
L 234.118238 146.710245 
L 235.326116 149.980889 
L 236.496249 146.168902 
L 237.666381 145.932359 
L 238.836513 146.404024 
L 240.044392 146.317895 
L 241.176778 148.624535 
L 242.384656 150.380119 
L 243.554789 151.010512 
L 244.724921 149.321952 
L 245.857307 150.958103 
L 247.065185 154.692041 
L 248.235318 150.50734 
L 249.367704 150.945844 
L 250.575582 150.62639 
L 251.707968 149.315649 
L 252.953593 150.516264 
L 254.048233 150.68459 
L 255.293858 152.019137 
L 256.46399 151.889557 
L 257.596376 151.154207 
L 258.804254 150.223624 
L 259.974387 149.609062 
L 261.144519 149.664626 
L 262.352397 150.397231 
L 263.52253 149.035564 
L 264.692662 152.258429 
L 265.862794 150.175286 
L 267.032926 153.321204 
L 268.203059 152.065874 
L 269.410937 149.065382 
L 270.543323 147.838749 
L 271.788948 151.082658 
L 272.921334 150.953386 
L 274.129213 151.205933 
L 275.299345 148.104274 
L 276.393985 147.397156 
L 277.677356 143.662167 
L 278.809742 143.827011 
L 279.979874 144.607052 
L 281.150006 142.139006 
L 282.357885 143.512608 
L 283.528017 146.942755 
L 284.660403 148.535051 
L 285.906028 148.521034 
L 287.113906 147.894492 
L 288.246292 148.662104 
L 289.416425 146.097916 
L 290.548811 144.802281 
L 291.794435 146.589219 
L 292.964568 142.210859 
L 294.1347 140.749638 
L 295.267086 142.383301 
L 296.512711 142.479787 
L 297.645097 141.843229 
L 298.777483 145.197675 
L 299.947615 147.132148 
L 301.155493 145.936268 
L 302.325626 146.309253 
L 303.495758 145.902432 
L 304.703637 143.107491 
L 305.873769 137.797536 
L 307.15714 139.204115 
L 308.402764 136.640874 
L 309.497404 134.9056 
L 310.743029 135.397194 
L 311.913161 134.189363 
L 313.083293 134.296888 
L 314.253426 135.42324 
L 315.423558 138.820758 
L 316.555944 140.315966 
L 317.763823 139.940977 
L 318.971701 142.546971 
L 320.104087 140.54966 
L 321.274219 138.998523 
L 322.519844 135.182793 
L 323.65223 130.093013 
L 327.162627 125.281935 
L 328.332759 124.085383 
L 331.80541 121.924707 
L 333.013288 123.369412 
L 334.221167 125.010799 
L 335.315807 124.89737 
L 336.485939 128.214504 
L 337.656071 128.370509 
L 338.826204 126.048249 
L 340.034082 125.614099 
L 342.374347 121.010475 
L 343.582225 119.613875 
L 344.752357 119.378095 
L 347.054876 116.803176 
L 348.187262 116.087367 
L 349.39514 114.475336 
L 350.565272 114.915512 
L 351.773151 114.931951 
L 352.905537 112.787267 
L 354.113416 111.761127 
L 355.35904 110.278146 
L 356.491426 111.183166 
L 357.586066 110.274405 
L 358.831691 110.288562 
L 360.001823 109.127091 
L 361.171955 110.26441 
L 362.379834 110.597139 
L 363.587712 109.134039 
L 364.682352 108.37657 
L 365.890231 106.129338 
L 367.060363 105.233566 
L 368.192749 106.186742 
L 369.400628 105.905477 
L 371.6654 107.641446 
L 372.911024 108.033068 
L 374.118903 105.498599 
L 375.251289 104.946727 
L 376.383675 106.558028 
L 377.6293 105.088532 
L 378.72394 105.873445 
L 380.00731 106.056354 
L 381.441666 106.85003 
L 382.762783 106.142239 
L 383.932915 104.202363 
L 385.17854 102.79 
L 386.348672 100.537194 
L 388.688937 100.865073 
L 389.859069 102.009117 
L 391.066948 102.330398 
L 392.23708 102.151155 
L 393.33172 103.353084 
L 394.615091 102.912376 
L 395.785223 101.362559 
L 396.955355 101.347056 
L 398.087741 100.774847 
L 399.220127 102.268677 
L 400.352514 101.678 
L 401.635884 104.239255 
L 403.976149 103.753047 
L 405.033043 104.609802 
L 406.316414 104.351233 
L 407.562038 103.178951 
L 408.618932 103.188395 
L 409.864557 101.573543 
L 410.996943 101.347296 
L 412.204821 100.461487 
L 413.337207 101.595037 
L 415.715218 101.971648 
L 416.847604 101.512181 
L 418.130975 102.840758 
L 419.338853 103.900771 
L 420.508986 103.76825 
L 421.641372 102.442726 
L 422.736012 100.902248 
L 423.94389 101.238735 
L 425.189515 101.244861 
L 426.208662 101.388863 
L 427.567525 102.3198 
L 428.624419 102.348207 
L 429.719059 105.002045 
L 430.926938 106.08066 
L 432.172562 104.343955 
L 434.512827 100.160249 
L 435.645213 100.14194 
L 436.815345 99.790053 
L 438.06097 100.23999 
L 439.15561 101.635339 
L 440.438981 101.215979 
L 441.53362 101.823065 
L 442.666006 102.852318 
L 443.873885 102.000675 
L 445.081763 101.616284 
L 446.251896 101.036895 
L 447.459774 102.118212 
L 448.478922 102.136059 
L 449.6868 103.430511 
L 450.932425 102.049804 
L 452.064811 98.990749 
L 455.688446 94.690777 
L 457.085056 93.524916 
L 458.519411 91.90899 
L 459.614051 92.872889 
L 460.859676 92.376705 
L 462.067555 92.754027 
L 463.275433 91.780166 
L 465.540205 90.856353 
L 466.672591 89.437415 
L 467.842723 88.528152 
L 470.145242 84.237236 
L 471.35312 82.833212 
L 472.636491 81.695707 
L 474.825771 78.848493 
L 476.071396 77.663615 
L 477.31702 77.268251 
L 478.487153 76.521394 
L 479.581792 76.989625 
L 480.789671 76.204794 
L 481.997549 76.514193 
L 483.129935 76.107851 
L 484.451053 76.738373 
L 486.753571 75.764739 
L 487.923703 74.31592 
L 490.075237 71.346221 
L 491.547339 69.712205 
L 492.717471 68.057763 
L 493.585634 66.435028 
L 493.585634 66.435028 
" clip-path="url(#p12de5e4853)" style="fill: none; stroke: #d62728; stroke-width: 2.5; stroke-linecap: square"/>
   </g>
   <g id="line2d_44">
    <path d="M 60.372468 216.488051 
L 60.334722 215.774827 
L 60.334722 217.594168 
L 60.296976 247.158269 
L 60.447961 243.732187 
L 61.014154 245.502361 
L 62.297524 252.586937 
L 64.222581 247.994891 
L 66.41186 237.103692 
L 70.337466 250.989614 
L 71.847314 245.151301 
L 73.206177 238.401099 
L 74.338563 234.817058 
L 75.433203 234.836702 
L 77.622483 234.532764 
L 79.887255 220.584017 
L 81.057387 226.712138 
L 82.227519 230.330011 
L 83.435398 230.085881 
L 84.643276 228.757613 
L 85.888901 236.323049 
L 87.172272 236.550378 
L 88.531135 234.7558 
L 89.77676 235.238927 
L 91.022384 231.800184 
L 92.230263 231.001615 
L 93.400395 235.604323 
L 94.570528 237.265325 
L 95.74066 237.449613 
L 96.910792 238.188464 
L 98.118671 233.264487 
L 99.288803 224.007553 
L 100.421189 225.837206 
L 101.591321 224.372561 
L 102.723707 220.449494 
L 103.931586 221.683936 
L 105.101718 222.589708 
L 106.27185 223.730778 
L 107.479729 230.539978 
L 108.649861 230.853407 
L 109.895486 225.819178 
L 111.065618 227.494138 
L 112.23575 231.05222 
L 113.481375 228.428857 
L 114.576015 232.466157 
L 115.783893 230.080709 
L 116.954026 232.017299 
L 118.124158 247.101494 
L 119.29429 265.14021 
L 120.464422 261.616975 
L 122.766941 272.955349 
L 123.937073 257.047575 
L 125.144951 242.778187 
L 126.315084 242.579091 
L 127.522962 229.865453 
L 128.730841 234.004504 
L 129.900973 233.174217 
L 131.108851 226.677663 
L 132.278984 226.324036 
L 133.449116 230.381792 
L 134.656995 239.79862 
L 135.864873 244.509633 
L 137.072751 233.30852 
L 138.28063 231.251496 
L 139.488508 235.879657 
L 140.658641 239.244943 
L 141.828773 234.09772 
L 142.998905 235.841121 
L 144.206784 247.450265 
L 145.376916 254.497093 
L 146.547048 259.603286 
L 147.754927 252.236749 
L 148.962805 225.187635 
L 150.132938 214.295372 
L 151.30307 216.662492 
L 152.510948 212.52709 
L 153.681081 213.585008 
L 156.059091 226.633779 
L 157.191477 229.549628 
L 158.323863 230.799042 
L 159.493996 226.450958 
L 161.872006 223.458759 
L 163.042139 230.479687 
L 164.174525 222.799134 
L 165.382403 224.507051 
L 166.552536 219.237583 
L 167.722668 209.875753 
L 168.8928 208.293343 
L 170.025186 199.644321 
L 171.270811 192.765935 
L 172.478689 190.370704 
L 173.648822 187.497717 
L 174.818954 186.458001 
L 176.026832 184.969794 
L 177.196965 191.751644 
L 178.404843 194.228938 
L 179.537229 194.035165 
L 180.745108 195.660757 
L 181.877494 189.94615 
L 183.085372 190.003889 
L 184.180012 186.787931 
L 186.520277 175.810214 
L 187.728155 173.606766 
L 188.97378 173.201825 
L 190.106166 175.529908 
L 191.276298 170.817134 
L 192.521923 170.942332 
L 193.692055 168.456813 
L 194.899934 168.517754 
L 196.070066 161.648387 
L 197.240198 155.504562 
L 199.618209 149.179074 
L 200.788341 147.804453 
L 201.99622 149.262956 
L 203.128606 147.466846 
L 204.298738 148.234457 
L 205.46887 145.596508 
L 206.676749 143.867907 
L 207.809135 141.538672 
L 208.979267 143.82174 
L 210.187146 144.449566 
L 211.357278 143.339982 
L 212.565156 143.905902 
L 213.697542 146.309208 
L 214.867675 144.974477 
L 216.075553 143.342737 
L 217.245685 141.060164 
L 218.415818 141.219731 
L 219.623696 142.734305 
L 220.793828 145.820607 
L 221.963961 145.29899 
L 223.171839 146.269185 
L 224.379718 145.335475 
L 225.54985 147.447485 
L 226.757728 147.778105 
L 227.890115 149.357072 
L 229.060247 148.649686 
L 230.268125 147.114252 
L 231.438258 146.268403 
L 232.60839 144.25669 
L 233.778522 143.991925 
L 234.910908 143.933499 
L 236.118787 142.631662 
L 237.326665 143.816343 
L 238.496797 145.381861 
L 239.591437 145.518294 
L 240.723823 145.326269 
L 241.931702 142.858324 
L 243.13958 142.944555 
L 244.271966 142.408199 
L 245.479845 142.92665 
L 246.687723 144.451706 
L 247.857856 147.221652 
L 248.990242 147.719252 
L 250.160374 149.996684 
L 251.405999 149.924464 
L 252.500639 151.152703 
L 253.670771 148.808958 
L 254.878649 148.566253 
L 256.048782 149.613922 
L 257.218914 147.672181 
L 258.389046 149.748156 
L 259.559178 149.619934 
L 260.767057 147.168714 
L 261.937189 145.677615 
L 263.107321 142.634949 
L 264.277454 140.961268 
L 265.447586 139.073661 
L 266.655464 138.183872 
L 267.750104 137.091318 
L 268.995729 135.561116 
L 270.165861 137.570479 
L 271.37374 137.823421 
L 272.581618 138.805553 
L 273.714004 140.913845 
L 274.84639 143.397833 
L 276.092015 144.202188 
L 277.224401 145.213592 
L 278.394533 144.581928 
L 279.564666 142.172135 
L 280.772544 140.94664 
L 281.980423 141.635305 
L 283.150555 140.482454 
L 284.320687 139.862851 
L 285.453073 141.704939 
L 286.623206 141.451442 
L 287.793338 139.532895 
L 289.038963 139.195823 
L 290.133602 138.739044 
L 292.473867 132.258509 
L 293.681745 131.70204 
L 294.889624 130.093845 
L 296.02201 130.942773 
L 297.192142 131.555166 
L 298.362275 131.143649 
L 299.570153 131.324003 
L 300.778031 132.079745 
L 301.834925 131.999364 
L 303.08055 128.630641 
L 304.212936 126.975024 
L 305.458561 126.852368 
L 306.741931 126.416006 
L 307.94981 127.09522 
L 309.082196 122.851028 
L 310.290074 121.542965 
L 311.422461 119.752738 
L 313.838218 116.788562 
L 315.00835 113.744115 
L 316.140736 113.315095 
L 317.310868 112.521741 
L 318.481 112.415933 
L 319.651133 112.716771 
L 320.859011 110.020834 
L 322.029143 108.033639 
L 324.4449 105.514508 
L 325.501794 103.794917 
L 326.747419 100.724208 
L 327.879805 99.125259 
L 329.049937 96.98653 
L 330.220069 96.562523 
L 331.390202 97.715896 
L 332.560334 97.255114 
L 333.730466 96.928876 
L 334.938345 97.801199 
L 336.108477 97.639613 
L 337.278609 98.179711 
L 338.410995 95.369614 
L 339.618874 93.065551 
L 340.826752 91.928035 
L 341.959138 91.3502 
L 343.167017 90.968178 
L 344.337149 89.765172 
L 345.469535 89.785572 
L 346.639667 90.562147 
L 349.017678 92.458845 
L 350.150064 91.018524 
L 351.320197 91.669304 
L 352.603567 91.116938 
L 353.698207 90.025723 
L 354.906086 89.064362 
L 356.038472 87.648815 
L 357.208604 88.216228 
L 358.454229 88.204865 
L 359.624361 89.163037 
L 360.719001 89.434896 
L 361.889133 90.752389 
L 363.059266 90.60756 
L 364.30489 89.949721 
L 365.437276 88.659638 
L 366.607409 87.65577 
L 367.853033 85.588532 
L 368.985419 84.685196 
L 370.155552 83.546644 
L 372.533562 84.895709 
L 373.628202 86.472828 
L 374.760588 86.825693 
L 376.006213 87.83275 
L 377.100853 87.507162 
L 378.346477 86.239166 
L 379.441117 86.766437 
L 380.913219 86.348151 
L 382.309829 86.828046 
L 383.5932 87.466351 
L 384.763332 88.466283 
L 386.008957 88.52918 
L 387.103596 88.364699 
L 388.349221 87.622051 
L 389.519353 87.610183 
L 390.613993 86.620898 
L 391.821872 87.992177 
L 393.02975 87.035818 
L 395.294522 87.271568 
L 396.502401 86.439055 
L 397.710279 85.443048 
L 399.975052 86.683209 
L 401.220676 87.032454 
L 402.428555 87.743814 
L 403.447702 87.515359 
L 405.825713 87.523511 
L 407.033591 88.657341 
L 408.165977 87.530288 
L 409.411602 88.315134 
L 410.506242 89.14967 
L 411.827359 88.19532 
L 412.884253 88.079453 
L 414.054385 87.2175 
L 415.337756 86.633464 
L 416.39465 87.382757 
L 417.640274 87.946615 
L 418.734914 89.245491 
L 421.377148 89.10271 
L 422.396296 88.300275 
L 423.453189 88.859142 
L 424.698814 90.25001 
L 425.906693 88.930827 
L 426.963586 89.895752 
L 428.246957 89.416452 
L 429.492582 89.309244 
L 430.587222 89.581394 
L 431.681862 88.163164 
L 432.927486 87.810397 
L 434.059872 87.069843 
L 435.041274 88.228551 
L 436.475629 89.590737 
L 437.608015 87.36681 
L 438.740401 87.493979 
L 439.94828 87.301099 
L 441.118412 88.363698 
L 442.175306 89.141283 
L 443.458677 87.545457 
L 444.628809 88.152866 
L 445.798941 87.179384 
L 446.931327 86.986249 
L 448.139206 86.37575 
L 449.309338 84.306313 
L 450.403978 84.505739 
L 451.762841 85.629215 
L 452.819735 85.789119 
L 455.084507 83.610337 
L 456.594355 83.596624 
L 457.915472 83.888738 
L 459.085605 83.213961 
L 460.444468 83.45212 
L 461.690092 84.431955 
L 463.01121 85.255039 
L 464.030357 86.118406 
L 465.124997 85.316086 
L 466.370622 82.648641 
L 467.465261 81.131594 
L 468.597648 78.869094 
L 469.730034 76.943954 
L 471.013405 74.499399 
L 473.391415 72.782588 
L 474.523801 73.318075 
L 475.580695 72.722133 
L 476.864066 73.330579 
L 478.034198 72.380019 
L 479.166584 72.062804 
L 480.487701 71.489261 
L 481.733326 69.550591 
L 482.827966 68.709839 
L 484.035844 68.20477 
L 485.130484 68.524972 
L 486.074139 68.286543 
L 487.395256 67.64396 
L 488.640881 67.954747 
L 489.811013 67.858713 
L 490.943399 66.99641 
L 492.000293 65.049582 
L 493.170425 61.786397 
L 493.170425 61.786397 
" clip-path="url(#p12de5e4853)" style="fill: none; stroke: #ff7f0e; stroke-width: 2.5; stroke-linecap: square"/>
   </g>
   <g id="line2d_45">
    <path d="M 59.089097 235.7451 
L 59.089097 206.27696 
L 59.013605 210.046349 
L 58.975859 208.106374 
L 58.975859 211.776564 
L 59.089097 210.491914 
L 59.391067 214.375699 
L 60.334722 213.000272 
L 61.957809 214.528866 
L 64.184835 207.561721 
L 66.449607 206.768996 
L 68.450155 206.323524 
L 70.148735 201.559119 
L 71.507598 200.23101 
L 72.715476 200.959602 
L 73.810116 207.681798 
L 74.904756 212.435433 
L 75.999396 215.548952 
L 77.094036 214.605747 
L 78.264168 219.815968 
L 79.4343 228.685244 
L 80.642179 224.64696 
L 81.812311 212.454768 
L 83.057936 208.260019 
L 84.190322 206.640657 
L 85.360454 211.987098 
L 86.643825 216.363507 
L 87.88945 223.240371 
L 89.210567 226.748104 
L 90.456191 242.740416 
L 91.701816 234.720982 
L 92.909695 213.831643 
L 94.079827 211.910266 
L 95.287705 206.75701 
L 96.420091 207.67664 
L 97.62797 207.809555 
L 98.798102 210.00666 
L 100.043727 210.785239 
L 101.213859 218.630922 
L 102.383991 222.020095 
L 103.59187 223.390095 
L 104.762002 218.262273 
L 105.932134 228.696192 
L 107.064521 225.227526 
L 108.310145 231.337318 
L 109.480277 223.106451 
L 110.688156 224.490221 
L 111.896034 228.153569 
L 113.103913 230.826289 
L 114.274045 226.603711 
L 115.444177 232.875085 
L 116.576564 224.13472 
L 117.784442 224.603338 
L 118.916828 216.445151 
L 120.08696 219.689523 
L 121.294839 212.993532 
L 122.464971 226.788891 
L 123.635103 236.334208 
L 124.805236 236.460448 
L 126.013114 232.474469 
L 127.107754 237.361249 
L 128.277886 225.840219 
L 130.655897 216.792135 
L 131.863776 212.524466 
L 133.071654 203.542799 
L 134.241786 208.793981 
L 135.449665 203.696927 
L 136.657543 199.515495 
L 137.865422 201.608411 
L 139.111046 206.187352 
L 140.281179 203.761373 
L 141.489057 208.595089 
L 142.659189 212.131908 
L 143.829322 203.99726 
L 145.0372 198.31977 
L 146.207332 198.564443 
L 147.377465 195.190133 
L 148.509851 197.667219 
L 150.850115 207.668705 
L 152.057994 210.336994 
L 153.228126 213.886089 
L 154.436005 205.237987 
L 155.606137 199.917898 
L 156.738523 196.637374 
L 157.946401 194.604091 
L 159.116534 195.85279 
L 160.286666 197.865168 
L 161.494544 196.886688 
L 162.626931 205.641393 
L 163.797063 207.667449 
L 166.175074 200.389213 
L 167.345206 194.341984 
L 168.515338 188.908392 
L 169.723217 185.382462 
L 170.893349 186.810962 
L 172.063481 185.05419 
L 173.233613 186.449017 
L 174.479238 195.644368 
L 176.857249 186.482231 
L 178.027381 188.847996 
L 179.197513 183.053457 
L 180.367646 182.844443 
L 181.537778 180.882462 
L 182.670164 185.393579 
L 183.840296 184.407544 
L 185.010429 185.241825 
L 186.180561 192.898614 
L 187.350693 184.26924 
L 188.483079 185.635661 
L 189.728704 183.995127 
L 190.936582 179.719785 
L 192.106715 175.064663 
L 193.276847 171.146604 
L 194.446979 170.767171 
L 195.654858 165.119922 
L 196.82499 163.661901 
L 198.032868 167.911113 
L 199.203001 164.030224 
L 200.335387 166.332845 
L 202.713398 160.063984 
L 203.921276 158.64874 
L 205.091408 155.830866 
L 206.299287 154.056632 
L 207.469419 152.627154 
L 208.601805 153.62669 
L 209.809684 155.691105 
L 210.979816 154.143649 
L 212.149948 155.00171 
L 213.282334 152.276755 
L 214.452466 150.528469 
L 215.660345 151.105813 
L 216.792731 149.991529 
L 217.962863 152.325867 
L 219.208488 153.323923 
L 220.340874 152.81794 
L 221.511006 151.630208 
L 222.681139 147.427217 
L 223.889017 147.798288 
L 225.096896 144.702474 
L 226.267028 145.822093 
L 228.607292 147.801041 
L 229.815171 149.883188 
L 230.947557 151.27163 
L 232.117689 151.885349 
L 233.363314 151.636235 
L 234.4957 149.530928 
L 235.703578 149.08564 
L 236.873711 147.35641 
L 238.043843 148.901566 
L 239.176229 146.723071 
L 240.346361 145.718793 
L 241.516494 146.479506 
L 243.894504 147.418145 
L 245.064637 148.485043 
L 246.234769 147.308922 
L 247.442647 146.532734 
L 248.575033 146.382101 
L 249.782912 145.449814 
L 250.953044 142.658292 
L 252.123177 143.63045 
L 253.293309 145.93508 
L 254.538933 144.706531 
L 255.709066 141.455334 
L 256.879198 140.303608 
L 258.04933 138.745659 
L 259.181716 137.652355 
L 260.351849 137.757106 
L 261.559727 137.979748 
L 262.692113 142.405768 
L 265.032378 155.293256 
L 266.240256 156.533898 
L 267.410389 150.545912 
L 268.542775 147.414101 
L 269.712907 141.418673 
L 270.920785 137.59417 
L 272.053171 136.305706 
L 273.336542 136.485447 
L 274.468928 139.631195 
L 275.601314 142.39168 
L 276.733701 144.651363 
L 277.979325 145.087769 
L 279.111711 142.73902 
L 280.31959 141.652296 
L 281.527468 138.88591 
L 282.659854 141.398125 
L 283.867733 139.764044 
L 284.962373 139.564085 
L 286.170251 134.677632 
L 287.415876 133.742474 
L 288.586008 132.58564 
L 289.718394 131.959751 
L 292.134151 133.654291 
L 293.266537 136.920006 
L 294.474416 138.549358 
L 295.606802 136.221405 
L 296.776934 135.251631 
L 297.984812 129.837724 
L 299.117199 131.78414 
L 300.325077 129.206269 
L 301.532956 128.677952 
L 303.87322 128.126327 
L 305.043352 129.839042 
L 306.288977 125.268928 
L 307.496856 123.743315 
L 309.912612 119.425679 
L 311.082745 119.601826 
L 312.290623 117.859745 
L 313.498502 118.975207 
L 314.593142 119.02136 
L 315.725528 120.372552 
L 316.933406 121.032878 
L 318.028046 119.780751 
L 319.273671 119.15172 
L 320.481549 116.641647 
L 321.651681 115.459301 
L 322.746321 112.495138 
L 326.294464 100.853299 
L 327.464597 99.801233 
L 328.634729 97.232417 
L 329.842607 97.406598 
L 331.01274 96.78265 
L 332.145126 95.897151 
L 333.353004 95.801138 
L 334.48539 94.306805 
L 335.655523 91.215623 
L 336.787909 91.349758 
L 338.109026 89.759872 
L 339.279158 90.031104 
L 340.373798 89.31991 
L 341.506184 90.321192 
L 343.884195 88.223299 
L 345.016581 87.521238 
L 346.224459 84.764132 
L 347.394591 83.084586 
L 348.640216 83.213665 
L 349.772602 82.053523 
L 350.904988 83.467765 
L 352.188359 83.182237 
L 353.282999 82.69 
L 354.453131 81.498019 
L 355.66101 81.688439 
L 356.831142 79.254478 
L 357.963528 77.860844 
L 359.13366 77.230147 
L 360.303793 76.158451 
L 361.473925 76.251678 
L 362.644057 77.405882 
L 363.81419 77.101398 
L 365.022068 77.135805 
L 366.154454 76.907289 
L 367.362333 78.271222 
L 368.570211 77.045462 
L 369.702597 78.311371 
L 370.834983 77.085695 
L 372.005115 76.609182 
L 373.212994 76.546981 
L 374.383126 76.873098 
L 375.553259 76.658719 
L 376.685645 75.740854 
L 377.931269 75.406895 
L 379.101402 76.166164 
L 380.422519 74.808429 
L 381.743636 75.069776 
L 383.064753 73.937445 
L 384.310377 74.557279 
L 385.442764 74.871772 
L 386.763881 75.951182 
L 387.896267 75.887447 
L 389.066399 74.412114 
L 390.236531 74.456222 
L 392.463557 72.897092 
L 393.784674 73.544432 
L 394.91706 73.75347 
L 396.0117 74.827587 
L 397.219579 76.227102 
L 398.389711 78.194423 
L 399.597589 78.866231 
L 400.767722 78.178345 
L 401.900108 78.73044 
L 403.07024 78.934519 
L 404.315865 79.329093 
L 406.580637 76.711448 
L 407.788515 75.846902 
L 409.03414 75.186253 
L 410.053288 76.799779 
L 411.336658 78.261941 
L 412.544537 78.083931 
L 413.790162 79.03946 
L 414.960294 79.791612 
L 416.017188 80.983504 
L 417.225066 80.277759 
L 418.395198 80.711537 
L 419.527584 80.799544 
L 421.867849 79.925167 
L 423.037981 80.17086 
L 424.24586 77.46656 
L 425.642469 76.220854 
L 426.812601 75.466337 
L 427.831749 77.942556 
L 429.039627 78.535263 
L 430.134267 79.857515 
L 431.191161 80.342835 
L 432.436786 80.235833 
L 433.720156 79.6353 
L 434.814796 81.550218 
L 436.022675 79.441391 
L 437.155061 79.640628 
L 438.438432 79.178469 
L 439.608564 80.249038 
L 440.703204 79.430587 
L 443.043468 80.003697 
L 444.251347 80.553636 
L 445.270494 81.167173 
L 446.553865 81.731435 
L 447.648505 80.978967 
L 448.89413 80.696027 
L 450.102008 79.452615 
L 451.272141 80.356628 
L 452.442273 79.596492 
L 453.499167 78.372986 
L 454.669299 78.586372 
L 456.065908 78.124081 
L 457.500264 77.419743 
L 458.745889 76.599729 
L 460.02926 74.161565 
L 461.086153 72.981654 
L 462.558255 73.486257 
L 463.766134 74.865021 
L 465.69119 74.245196 
L 466.974561 75.675309 
L 468.220186 75.630934 
L 469.390318 74.732892 
L 470.56045 73.344913 
L 471.768329 71.544916 
L 476.448858 69.462695 
L 477.656736 68.7946 
L 478.71363 68.758669 
L 480.072493 66.65652 
L 481.167133 65.877267 
L 482.412758 65.96177 
L 483.58289 66.580997 
L 485.923154 64.908581 
L 487.055541 64.502591 
L 488.225673 63.183196 
L 490.490445 59.803322 
L 491.698323 58.541582 
L 492.943948 57.867236 
L 493.774365 58.005718 
L 493.774365 58.005718 
" clip-path="url(#p12de5e4853)" style="fill: none; stroke: #9467bd; stroke-width: 2.5; stroke-linecap: square"/>
   </g>
   <g id="line2d_46">
    <path d="M 60.108245 170.98759 
L 60.070498 194.216384 
L 61.731331 189.017168 
L 63.505403 188.319992 
L 65.694683 187.728472 
L 67.846216 185.070464 
L 69.733526 183.428304 
L 71.318867 189.343372 
L 72.67773 192.502258 
L 73.847862 197.360339 
L 74.942502 196.812769 
L 75.999396 198.886579 
L 77.131782 194.19093 
L 78.264168 188.490252 
L 79.358808 180.377246 
L 80.566686 178.563585 
L 81.774565 179.779287 
L 82.944697 184.728022 
L 84.190322 185.570223 
L 85.3982 183.574054 
L 86.681571 184.046709 
L 87.964942 189.943744 
L 90.531684 186.533457 
L 91.777309 181.707272 
L 92.947441 188.121409 
L 94.155319 188.127631 
L 95.287705 191.796448 
L 96.457838 191.359651 
L 97.62797 188.235817 
L 98.835848 183.266984 
L 100.005981 191.042718 
L 101.213859 194.568851 
L 102.383991 196.214521 
L 103.59187 193.513946 
L 104.762002 198.58261 
L 105.932134 194.558379 
L 107.102267 187.784689 
L 108.272399 183.495803 
L 109.442531 180.083902 
L 110.612664 178.063694 
L 111.782796 186.332274 
L 112.990674 196.829354 
L 114.160807 197.191287 
L 115.330939 195.611271 
L 116.501071 200.876507 
L 117.671203 197.515533 
L 118.879082 189.675179 
L 121.219346 183.020116 
L 122.389479 186.482327 
L 123.559611 185.301086 
L 124.729743 191.643184 
L 125.937622 192.989724 
L 127.070008 202.115396 
L 128.24014 216.648445 
L 129.410272 217.097417 
L 130.618151 217.134187 
L 131.826029 218.223526 
L 133.033908 209.736416 
L 134.20404 206.89965 
L 135.449665 194.891453 
L 136.657543 190.468417 
L 137.865422 189.829694 
L 139.035554 187.29874 
L 140.205686 182.153397 
L 141.375819 177.667504 
L 142.508205 179.751578 
L 143.753829 183.203015 
L 144.961708 183.377875 
L 146.13184 183.923841 
L 147.339719 187.741594 
L 148.509851 190.867851 
L 149.717729 191.156579 
L 150.925608 190.077755 
L 152.057994 186.842804 
L 153.228126 188.811483 
L 154.436005 187.802437 
L 155.568391 184.147977 
L 156.776269 182.270565 
L 157.984148 174.15064 
L 159.15428 177.705457 
L 160.324412 179.718263 
L 161.456798 179.94312 
L 162.664677 178.458694 
L 163.834809 177.865167 
L 164.967195 179.874437 
L 166.137327 175.404757 
L 167.382952 171.688864 
L 168.553084 172.87566 
L 169.68547 171.383354 
L 170.855603 173.532592 
L 172.063481 174.1817 
L 174.441492 168.965228 
L 175.573878 165.348199 
L 176.706264 166.425251 
L 179.122021 160.144532 
L 180.292153 163.950948 
L 181.462286 164.316501 
L 182.594672 163.849904 
L 183.80255 164.478453 
L 186.142815 159.25187 
L 187.350693 155.283716 
L 188.520825 153.102252 
L 189.653211 147.612782 
L 190.823344 143.987584 
L 192.031222 144.090361 
L 193.276847 140.778842 
L 194.446979 139.607815 
L 195.73035 139.649493 
L 196.900482 136.534603 
L 199.240747 134.6136 
L 200.410879 134.301375 
L 201.618758 132.948894 
L 202.751144 132.814186 
L 203.88353 131.501229 
L 205.053662 129.882366 
L 206.299287 130.825176 
L 207.431673 132.886097 
L 208.601805 133.325777 
L 209.809684 134.716067 
L 210.94207 135.208836 
L 212.149948 136.599691 
L 214.527959 132.426318 
L 215.698091 131.843369 
L 216.830477 134.814187 
L 218.038356 136.248904 
L 219.208488 137.242467 
L 220.340874 137.598869 
L 221.548753 137.588775 
L 222.718885 136.127355 
L 223.926763 133.488197 
L 225.059149 129.605939 
L 226.267028 128.194243 
L 227.43716 129.731974 
L 228.645039 130.479722 
L 229.777425 129.828326 
L 230.947557 130.384211 
L 232.155435 130.518215 
L 233.287822 130.407758 
L 234.4957 131.076055 
L 235.665832 133.153756 
L 236.835965 134.017694 
L 238.043843 135.412984 
L 239.213975 138.148404 
L 240.384108 137.955416 
L 241.516494 139.893533 
L 242.724372 140.142379 
L 243.894504 139.096471 
L 245.064637 137.589537 
L 246.234769 137.160921 
L 247.404901 138.654291 
L 248.61278 134.646401 
L 249.782912 133.704069 
L 250.953044 134.702183 
L 252.123177 133.770132 
L 253.293309 134.175948 
L 254.425695 134.356337 
L 255.633573 134.346744 
L 256.803706 136.308959 
L 257.973838 135.809661 
L 259.14397 132.998187 
L 260.314102 130.994589 
L 261.484235 131.452921 
L 262.616621 131.703715 
L 263.862245 131.664042 
L 265.032378 131.17836 
L 266.240256 132.042331 
L 267.334896 132.602377 
L 268.505028 132.769217 
L 269.712907 131.772487 
L 270.883039 130.464347 
L 272.053171 131.554294 
L 273.223304 129.256053 
L 274.35569 130.288538 
L 275.601314 130.696087 
L 276.771447 129.30837 
L 277.979325 131.167425 
L 279.111711 130.66588 
L 280.244097 129.03792 
L 281.451976 129.614074 
L 282.622108 129.24087 
L 285.037865 127.627541 
L 286.207997 127.934526 
L 287.340383 128.949058 
L 288.472769 127.346794 
L 289.680648 128.17199 
L 290.813034 126.447622 
L 291.94542 124.37803 
L 293.077806 123.674347 
L 294.361177 121.294628 
L 295.493563 118.837138 
L 296.701442 119.79712 
L 297.833828 119.870661 
L 299.041706 120.796282 
L 300.249585 119.615621 
L 301.419717 119.184862 
L 302.589849 120.662695 
L 303.797728 119.620949 
L 305.005606 120.610218 
L 307.496856 115.872448 
L 308.704734 116.439896 
L 309.83712 116.614076 
L 310.856268 115.322296 
L 312.101892 114.482371 
L 313.234278 112.509738 
L 314.479903 111.472845 
L 315.650035 108.976073 
L 316.857914 108.077632 
L 318.028046 107.036016 
L 319.235924 105.205037 
L 320.406057 102.922502 
L 321.613935 100.889138 
L 322.746321 98.344539 
L 323.9542 97.158611 
L 325.086586 95.644349 
L 326.256718 94.683683 
L 327.464597 94.755594 
L 328.672475 95.487663 
L 329.842607 95.405135 
L 331.01274 94.166523 
L 332.182872 91.570817 
L 333.277512 89.831879 
L 334.560883 87.153928 
L 335.655523 87.83183 
L 336.825655 87.312641 
L 337.995787 87.8575 
L 339.165919 87.737487 
L 340.373798 88.08691 
L 341.619423 87.39044 
L 342.714062 86.022186 
L 343.846448 82.978733 
L 345.167566 82.116972 
L 346.262205 79.761155 
L 347.50783 80.441284 
L 348.640216 79.387996 
L 349.69711 80.128316 
L 350.980481 80.229168 
L 353.282999 82.607643 
L 354.453131 81.787831 
L 355.585517 79.021285 
L 356.831142 78.855346 
L 358.001274 76.892719 
L 359.095914 75.921091 
L 360.303793 75.518324 
L 362.644057 77.035827 
L 363.81419 77.430733 
L 365.059814 79.22431 
L 366.1922 79.450751 
L 368.532465 78.098489 
L 369.740343 76.128722 
L 370.872729 75.183995 
L 372.005115 74.652956 
L 374.420872 74.500976 
L 375.553259 73.982039 
L 376.723391 74.07127 
L 378.006762 74.805552 
L 379.063655 75.625298 
L 380.498011 75.20042 
L 381.781382 75.146797 
L 384.272631 74.593433 
L 385.442764 74.19847 
L 387.896267 72.223845 
L 389.066399 70.664763 
L 390.198785 71.859207 
L 392.53905 73.660422 
L 393.746928 74.171237 
L 394.91706 76.660573 
L 396.049446 77.406084 
L 397.219579 77.276886 
L 398.50295 76.514434 
L 399.635336 75.994326 
L 400.805468 74.306235 
L 401.937854 73.769403 
L 403.107986 74.091238 
L 404.315865 72.758918 
L 405.410505 72.572778 
L 406.693876 75.612512 
L 407.788515 75.681928 
L 409.071886 75.629249 
L 411.336658 77.491584 
L 412.544537 77.887468 
L 414.884801 79.972629 
L 416.017188 78.17916 
L 417.262812 77.895476 
L 418.357452 79.458883 
L 419.678569 79.004575 
L 420.65997 78.453391 
L 421.905595 77.385771 
L 423.188966 77.933567 
L 424.24586 78.145349 
L 425.453738 79.571671 
L 426.888094 78.431465 
L 427.944988 77.24868 
L 429.077374 76.493297 
L 430.096521 76.256373 
L 432.512278 75.880759 
L 433.720156 74.812578 
L 434.852543 76.390026 
L 435.909436 77.030724 
L 437.079569 79.444304 
L 438.325193 79.619292 
L 439.495325 79.260549 
L 440.74095 78.163484 
L 444.251347 73.33572 
L 445.459225 72.108818 
L 446.553865 72.229924 
L 447.686251 71.756622 
L 448.856384 73.899034 
L 450.064262 74.49621 
L 451.196648 74.243817 
L 452.404527 73.502138 
L 453.612405 73.141602 
L 454.669299 71.103644 
L 456.065908 70.61459 
L 457.500264 71.297085 
L 458.670396 72.248049 
L 459.953767 70.781951 
L 461.123899 72.14614 
L 462.294032 71.34823 
L 464.89852 68.695526 
L 465.842175 66.532383 
L 466.936815 65.134935 
L 468.031455 65.357408 
L 469.314825 65.466524 
L 470.484958 64.699202 
L 471.692836 62.342084 
L 472.938461 61.311616 
L 474.070847 60.210977 
L 475.203233 59.807871 
L 476.335619 59.802304 
L 477.656736 59.073245 
L 478.751376 60.966795 
L 479.921508 61.196694 
L 481.129387 62.231998 
L 482.337265 61.332462 
L 483.356413 59.672411 
L 484.753022 57.880727 
L 487.206525 56.538562 
L 488.112434 56.311345 
L 489.207074 56.377528 
L 490.603684 56.201275 
L 491.811562 55.513343 
L 492.717471 54.065771 
L 493.887603 51.656443 
L 493.887603 51.656443 
" clip-path="url(#p12de5e4853)" style="fill: none; stroke: #2ca02c; stroke-width: 2.5; stroke-linecap: square"/>
   </g>
   <g id="patch_3">
    <path d="M 60.598945 303.182656 
L 60.598945 39.679004 
" style="fill: none; stroke: #000000; stroke-width: 1.5; stroke-linejoin: miter; stroke-linecap: square"/>
   </g>
   <g id="patch_4">
    <path d="M 60.598945 303.182656 
L 494.680273 303.182656 
" style="fill: none; stroke: #000000; stroke-width: 1.5; stroke-linejoin: miter; stroke-linecap: square"/>
   </g>
   <g id="text_11">
    <!-- 1421_wo_HF -->
    <g transform="translate(236.004922 18.441699) scale(0.14 -0.14)">
     <defs>
      <path id="ArialMT-42" d="M -97 -1272 
L -97 -866 
L 3631 -866 
L 3631 -1272 
L -97 -1272 
z
" transform="scale(0.015625)"/>
      <path id="ArialMT-5a" d="M 1034 0 
L 19 3319 
L 600 3319 
L 1128 1403 
L 1325 691 
Q 1338 744 1497 1375 
L 2025 3319 
L 2603 3319 
L 3100 1394 
L 3266 759 
L 3456 1400 
L 4025 3319 
L 4572 3319 
L 3534 0 
L 2950 0 
L 2422 1988 
L 2294 2553 
L 1622 0 
L 1034 0 
z
" transform="scale(0.015625)"/>
      <path id="ArialMT-2b" d="M 513 0 
L 513 4581 
L 1119 4581 
L 1119 2700 
L 3500 2700 
L 3500 4581 
L 4106 4581 
L 4106 0 
L 3500 0 
L 3500 2159 
L 1119 2159 
L 1119 0 
L 513 0 
z
" transform="scale(0.015625)"/>
      <path id="ArialMT-29" d="M 525 0 
L 525 4581 
L 3616 4581 
L 3616 4041 
L 1131 4041 
L 1131 2622 
L 3281 2622 
L 3281 2081 
L 1131 2081 
L 1131 0 
L 525 0 
z
" transform="scale(0.015625)"/>
     </defs>
     <use xlink:href="#ArialMT-14"/>
     <use xlink:href="#ArialMT-17" transform="translate(55.609375 0)"/>
     <use xlink:href="#ArialMT-15" transform="translate(111.21875 0)"/>
     <use xlink:href="#ArialMT-14" transform="translate(166.828125 0)"/>
     <use xlink:href="#ArialMT-42" transform="translate(222.4375 0)"/>
     <use xlink:href="#ArialMT-5a" transform="translate(278.046875 0)"/>
     <use xlink:href="#ArialMT-52" transform="translate(350.265625 0)"/>
     <use xlink:href="#ArialMT-42" transform="translate(405.875 0)"/>
     <use xlink:href="#ArialMT-2b" transform="translate(461.484375 0)"/>
     <use xlink:href="#ArialMT-29" transform="translate(533.703125 0)"/>
    </g>
    <!-- m/z 19 -->
    <g transform="translate(256.634141 33.679004) scale(0.14 -0.14)">
     <use xlink:href="#ArialMT-50"/>
     <use xlink:href="#ArialMT-12" transform="translate(83.296875 0)"/>
     <use xlink:href="#ArialMT-5d" transform="translate(111.078125 0)"/>
     <use xlink:href="#ArialMT-3" transform="translate(161.078125 0)"/>
     <use xlink:href="#ArialMT-14" transform="translate(188.859375 0)"/>
     <use xlink:href="#ArialMT-1c" transform="translate(244.46875 0)"/>
    </g>
   </g>
   <g id="legend_1">
    <g id="line2d_47">
     <path d="M 512.3619 52.459277 
L 522.3619 52.459277 
L 532.3619 52.459277 
" style="fill: none; stroke: #000000; stroke-width: 2.5; stroke-linecap: square"/>
    </g>
    <g id="text_12">
     <!-- 0 h -->
     <g transform="translate(540.3619 55.959277) scale(0.1 -0.1)">
      <defs>
       <path id="ArialMT-4b" d="M 422 0 
L 422 4581 
L 984 4581 
L 984 2938 
Q 1378 3394 1978 3394 
Q 2347 3394 2619 3248 
Q 2891 3103 3008 2847 
Q 3125 2591 3125 2103 
L 3125 0 
L 2563 0 
L 2563 2103 
Q 2563 2525 2380 2717 
Q 2197 2909 1863 2909 
Q 1613 2909 1392 2779 
Q 1172 2650 1078 2428 
Q 984 2206 984 1816 
L 984 0 
L 422 0 
z
" transform="scale(0.015625)"/>
      </defs>
      <use xlink:href="#ArialMT-13"/>
      <use xlink:href="#ArialMT-3" transform="translate(55.609375 0)"/>
      <use xlink:href="#ArialMT-4b" transform="translate(83.390625 0)"/>
     </g>
    </g>
    <g id="line2d_48">
     <path d="M 512.3619 66.844043 
L 522.3619 66.844043 
L 532.3619 66.844043 
" style="fill: none; stroke: #1f77b4; stroke-width: 2.5; stroke-linecap: square"/>
    </g>
    <g id="text_13">
     <!-- 6 h -->
     <g transform="translate(540.3619 70.344043) scale(0.1 -0.1)">
      <use xlink:href="#ArialMT-19"/>
      <use xlink:href="#ArialMT-3" transform="translate(55.609375 0)"/>
      <use xlink:href="#ArialMT-4b" transform="translate(83.390625 0)"/>
     </g>
    </g>
    <g id="line2d_49">
     <path d="M 512.3619 81.228809 
L 522.3619 81.228809 
L 532.3619 81.228809 
" style="fill: none; stroke: #d62728; stroke-width: 2.5; stroke-linecap: square"/>
    </g>
    <g id="text_14">
     <!-- 24 h -->
     <g transform="translate(540.3619 84.728809) scale(0.1 -0.1)">
      <use xlink:href="#ArialMT-15"/>
      <use xlink:href="#ArialMT-17" transform="translate(55.609375 0)"/>
      <use xlink:href="#ArialMT-3" transform="translate(111.21875 0)"/>
      <use xlink:href="#ArialMT-4b" transform="translate(139 0)"/>
     </g>
    </g>
    <g id="line2d_50">
     <path d="M 512.3619 95.613574 
L 522.3619 95.613574 
L 532.3619 95.613574 
" style="fill: none; stroke: #ff7f0e; stroke-width: 2.5; stroke-linecap: square"/>
    </g>
    <g id="text_15">
     <!-- 7 d -->
     <g transform="translate(540.3619 99.113574) scale(0.1 -0.1)">
      <defs>
       <path id="ArialMT-1a" d="M 303 3981 
L 303 4522 
L 3269 4522 
L 3269 4084 
Q 2831 3619 2401 2847 
Q 1972 2075 1738 1259 
Q 1569 684 1522 0 
L 944 0 
Q 953 541 1156 1306 
Q 1359 2072 1739 2783 
Q 2119 3494 2547 3981 
L 303 3981 
z
" transform="scale(0.015625)"/>
       <path id="ArialMT-47" d="M 2575 0 
L 2575 419 
Q 2259 -75 1647 -75 
Q 1250 -75 917 144 
Q 584 363 401 755 
Q 219 1147 219 1656 
Q 219 2153 384 2558 
Q 550 2963 881 3178 
Q 1213 3394 1622 3394 
Q 1922 3394 2156 3267 
Q 2391 3141 2538 2938 
L 2538 4581 
L 3097 4581 
L 3097 0 
L 2575 0 
z
M 797 1656 
Q 797 1019 1065 703 
Q 1334 388 1700 388 
Q 2069 388 2326 689 
Q 2584 991 2584 1609 
Q 2584 2291 2321 2609 
Q 2059 2928 1675 2928 
Q 1300 2928 1048 2622 
Q 797 2316 797 1656 
z
" transform="scale(0.015625)"/>
      </defs>
      <use xlink:href="#ArialMT-1a"/>
      <use xlink:href="#ArialMT-3" transform="translate(55.609375 0)"/>
      <use xlink:href="#ArialMT-47" transform="translate(83.390625 0)"/>
     </g>
    </g>
    <g id="line2d_51">
     <path d="M 512.3619 109.99834 
L 522.3619 109.99834 
L 532.3619 109.99834 
" style="fill: none; stroke: #9467bd; stroke-width: 2.5; stroke-linecap: square"/>
    </g>
    <g id="text_16">
     <!-- 14 d -->
     <g transform="translate(540.3619 113.49834) scale(0.1 -0.1)">
      <use xlink:href="#ArialMT-14"/>
      <use xlink:href="#ArialMT-17" transform="translate(55.609375 0)"/>
      <use xlink:href="#ArialMT-3" transform="translate(111.21875 0)"/>
      <use xlink:href="#ArialMT-47" transform="translate(139 0)"/>
     </g>
    </g>
    <g id="line2d_52">
     <path d="M 512.3619 124.383105 
L 522.3619 124.383105 
L 532.3619 124.383105 
" style="fill: none; stroke: #2ca02c; stroke-width: 2.5; stroke-linecap: square"/>
    </g>
    <g id="text_17">
     <!-- 28 d -->
     <g transform="translate(540.3619 127.883105) scale(0.1 -0.1)">
      <use xlink:href="#ArialMT-15"/>
      <use xlink:href="#ArialMT-1b" transform="translate(55.609375 0)"/>
      <use xlink:href="#ArialMT-3" transform="translate(111.21875 0)"/>
      <use xlink:href="#ArialMT-47" transform="translate(139 0)"/>
     </g>
    </g>
   </g>
  </g>
 </g>
 <defs>
  <clipPath id="p12de5e4853">
   <rect x="60.598945" y="39.679004" width="434.081328" height="263.503652"/>
  </clipPath>
 </defs>
</svg>
