<?xml version="1.0" encoding="utf-8" standalone="no"?>
<!DOCTYPE svg PUBLIC "-//W3C//DTD SVG 1.1//EN"
  "http://www.w3.org/Graphics/SVG/1.1/DTD/svg11.dtd">
<svg xmlns:xlink="http://www.w3.org/1999/xlink" width="571.022837pt" height="344.160273pt" viewBox="0 0 571.022837 344.160273" xmlns="http://www.w3.org/2000/svg" version="1.1">
 <metadata>
  <rdf:RDF xmlns:dc="http://purl.org/dc/elements/1.1/" xmlns:cc="http://creativecommons.org/ns#" xmlns:rdf="http://www.w3.org/1999/02/22-rdf-syntax-ns#">
   <cc:Work>
    <dc:type rdf:resource="http://purl.org/dc/dcmitype/StillImage"/>
    <dc:date>2026-07-10T11:48:46.219387</dc:date>
    <dc:format>image/svg+xml</dc:format>
    <dc:creator>
     <cc:Agent>
      <dc:title>Matplotlib v3.11.0, https://matplotlib.org/</dc:title>
     </cc:Agent>
    </dc:creator>
   </cc:Work>
  </rdf:RDF>
 </metadata>
 <defs>
  <style type="text/css">*{stroke-linejoin: round; stroke-linecap: butt}</style>
 </defs>
 <g id="figure_1">
  <g id="patch_1">
   <path d="M 0 344.160273 
L 571.022837 344.160273 
L 571.022837 0 
L 0 0 
z
" style="fill: #ffffff"/>
  </g>
  <g id="axes_1">
   <g id="patch_2">
    <path d="M 60.598945 303.182656 
L 494.680273 303.182656 
L 494.680273 39.679004 
L 60.598945 39.679004 
z
" style="fill: #ffffff"/>
   </g>
   <g id="matplotlib.axis_1">
    <g id="xtick_1">
     <g id="line2d_1">
      <defs>
       <path id="m146ea57d33" d="M 0 0 
L 0 -6 
" style="stroke: #000000; stroke-width: 0.8"/>
      </defs>
      <g>
       <use xlink:href="#m146ea57d33" x="117.218249" y="303.182656" style="stroke: #000000; stroke-width: 0.8"/>
      </g>
     </g>
     <g id="text_1">
      <!-- 200 -->
      <g transform="translate(105.54028 316.875039) scale(0.14 -0.14)">
       <defs>
        <path id="ArialMT-15" d="M 3222 541 
L 3222 0 
L 194 0 
Q 188 203 259 391 
Q 375 700 629 1000 
Q 884 1300 1366 1694 
Q 2113 2306 2375 2664 
Q 2638 3022 2638 3341 
Q 2638 3675 2398 3904 
Q 2159 4134 1775 4134 
Q 1369 4134 1125 3890 
Q 881 3647 878 3216 
L 300 3275 
Q 359 3922 746 4261 
Q 1134 4600 1788 4600 
Q 2447 4600 2831 4234 
Q 3216 3869 3216 3328 
Q 3216 3053 3103 2787 
Q 2991 2522 2730 2228 
Q 2469 1934 1863 1422 
Q 1356 997 1212 845 
Q 1069 694 975 541 
L 3222 541 
z
" transform="scale(0.015625)"/>
        <path id="ArialMT-13" d="M 266 2259 
Q 266 3072 433 3567 
Q 600 4063 929 4331 
Q 1259 4600 1759 4600 
Q 2128 4600 2406 4451 
Q 2684 4303 2865 4023 
Q 3047 3744 3150 3342 
Q 3253 2941 3253 2259 
Q 3253 1453 3087 958 
Q 2922 463 2592 192 
Q 2263 -78 1759 -78 
Q 1097 -78 719 397 
Q 266 969 266 2259 
z
M 844 2259 
Q 844 1131 1108 757 
Q 1372 384 1759 384 
Q 2147 384 2411 759 
Q 2675 1134 2675 2259 
Q 2675 3391 2411 3762 
Q 2147 4134 1753 4134 
Q 1366 4134 1134 3806 
Q 844 3388 844 2259 
z
" transform="scale(0.015625)"/>
       </defs>
       <use xlink:href="#ArialMT-15"/>
       <use xlink:href="#ArialMT-13" transform="translate(55.609375 0)"/>
       <use xlink:href="#ArialMT-13" transform="translate(111.21875 0)"/>
      </g>
     </g>
    </g>
    <g id="xtick_2">
     <g id="line2d_2">
      <g>
       <use xlink:href="#m146ea57d33" x="192.710654" y="303.182656" style="stroke: #000000; stroke-width: 0.8"/>
      </g>
     </g>
     <g id="text_2">
      <!-- 400 -->
      <g transform="translate(181.032685 316.875039) scale(0.14 -0.14)">
       <defs>
        <path id="ArialMT-17" d="M 2069 0 
L 2069 1097 
L 81 1097 
L 81 1613 
L 2172 4581 
L 2631 4581 
L 2631 1613 
L 3250 1613 
L 3250 1097 
L 2631 1097 
L 2631 0 
L 2069 0 
z
M 2069 1613 
L 2069 3678 
L 634 1613 
L 2069 1613 
z
" transform="scale(0.015625)"/>
       </defs>
       <use xlink:href="#ArialMT-17"/>
       <use xlink:href="#ArialMT-13" transform="translate(55.609375 0)"/>
       <use xlink:href="#ArialMT-13" transform="translate(111.21875 0)"/>
      </g>
     </g>
    </g>
    <g id="xtick_3">
     <g id="line2d_3">
      <g>
       <use xlink:href="#m146ea57d33" x="268.203059" y="303.182656" style="stroke: #000000; stroke-width: 0.8"/>
      </g>
     </g>
     <g id="text_3">
      <!-- 600 -->
      <g transform="translate(256.52509 316.875039) scale(0.14 -0.14)">
       <defs>
        <path id="ArialMT-19" d="M 3184 3459 
L 2625 3416 
Q 2550 3747 2413 3897 
Q 2184 4138 1850 4138 
Q 1581 4138 1378 3988 
Q 1113 3794 959 3422 
Q 806 3050 800 2363 
Q 1003 2672 1297 2822 
Q 1591 2972 1913 2972 
Q 2475 2972 2870 2558 
Q 3266 2144 3266 1488 
Q 3266 1056 3080 686 
Q 2894 316 2569 119 
Q 2244 -78 1831 -78 
Q 1128 -78 684 439 
Q 241 956 241 2144 
Q 241 3472 731 4075 
Q 1159 4600 1884 4600 
Q 2425 4600 2770 4297 
Q 3116 3994 3184 3459 
z
M 888 1484 
Q 888 1194 1011 928 
Q 1134 663 1356 523 
Q 1578 384 1822 384 
Q 2178 384 2434 671 
Q 2691 959 2691 1453 
Q 2691 1928 2437 2201 
Q 2184 2475 1800 2475 
Q 1419 2475 1153 2201 
Q 888 1928 888 1484 
z
" transform="scale(0.015625)"/>
       </defs>
       <use xlink:href="#ArialMT-19"/>
       <use xlink:href="#ArialMT-13" transform="translate(55.609375 0)"/>
       <use xlink:href="#ArialMT-13" transform="translate(111.21875 0)"/>
      </g>
     </g>
    </g>
    <g id="xtick_4">
     <g id="line2d_4">
      <g>
       <use xlink:href="#m146ea57d33" x="343.695464" y="303.182656" style="stroke: #000000; stroke-width: 0.8"/>
      </g>
     </g>
     <g id="text_4">
      <!-- 800 -->
      <g transform="translate(332.017495 316.875039) scale(0.14 -0.14)">
       <defs>
        <path id="ArialMT-1b" d="M 1131 2484 
Q 781 2613 612 2850 
Q 444 3088 444 3419 
Q 444 3919 803 4259 
Q 1163 4600 1759 4600 
Q 2359 4600 2725 4251 
Q 3091 3903 3091 3403 
Q 3091 3084 2923 2848 
Q 2756 2613 2416 2484 
Q 2838 2347 3058 2040 
Q 3278 1734 3278 1309 
Q 3278 722 2862 322 
Q 2447 -78 1769 -78 
Q 1091 -78 675 323 
Q 259 725 259 1325 
Q 259 1772 486 2073 
Q 713 2375 1131 2484 
z
M 1019 3438 
Q 1019 3113 1228 2906 
Q 1438 2700 1772 2700 
Q 2097 2700 2305 2904 
Q 2513 3109 2513 3406 
Q 2513 3716 2298 3927 
Q 2084 4138 1766 4138 
Q 1444 4138 1231 3931 
Q 1019 3725 1019 3438 
z
M 838 1322 
Q 838 1081 952 856 
Q 1066 631 1291 507 
Q 1516 384 1775 384 
Q 2178 384 2440 643 
Q 2703 903 2703 1303 
Q 2703 1709 2433 1975 
Q 2163 2241 1756 2241 
Q 1359 2241 1098 1978 
Q 838 1716 838 1322 
z
" transform="scale(0.015625)"/>
       </defs>
       <use xlink:href="#ArialMT-1b"/>
       <use xlink:href="#ArialMT-13" transform="translate(55.609375 0)"/>
       <use xlink:href="#ArialMT-13" transform="translate(111.21875 0)"/>
      </g>
     </g>
    </g>
    <g id="xtick_5">
     <g id="line2d_5">
      <g>
       <use xlink:href="#m146ea57d33" x="419.187869" y="303.182656" style="stroke: #000000; stroke-width: 0.8"/>
      </g>
     </g>
     <g id="text_5">
      <!-- 1000 -->
      <g transform="translate(403.617244 316.875039) scale(0.14 -0.14)">
       <defs>
        <path id="ArialMT-14" d="M 2384 0 
L 1822 0 
L 1822 3584 
Q 1619 3391 1289 3197 
Q 959 3003 697 2906 
L 697 3450 
Q 1169 3672 1522 3987 
Q 1875 4303 2022 4600 
L 2384 4600 
L 2384 0 
z
" transform="scale(0.015625)"/>
       </defs>
       <use xlink:href="#ArialMT-14"/>
       <use xlink:href="#ArialMT-13" transform="translate(55.609375 0)"/>
       <use xlink:href="#ArialMT-13" transform="translate(111.21875 0)"/>
       <use xlink:href="#ArialMT-13" transform="translate(166.828125 0)"/>
      </g>
     </g>
    </g>
    <g id="xtick_6">
     <g id="line2d_6">
      <g>
       <use xlink:href="#m146ea57d33" x="494.680273" y="303.182656" style="stroke: #000000; stroke-width: 0.8"/>
      </g>
     </g>
     <g id="text_6">
      <!-- 1200 -->
      <g transform="translate(479.109648 316.875039) scale(0.14 -0.14)">
       <use xlink:href="#ArialMT-14"/>
       <use xlink:href="#ArialMT-15" transform="translate(55.609375 0)"/>
       <use xlink:href="#ArialMT-13" transform="translate(111.21875 0)"/>
       <use xlink:href="#ArialMT-13" transform="translate(166.828125 0)"/>
      </g>
     </g>
    </g>
    <g id="xtick_7">
     <g id="line2d_7">
      <defs>
       <path id="m528ad73f96" d="M 0 0 
L 0 -3 
" style="stroke: #000000; stroke-width: 0.6"/>
      </defs>
      <g>
       <use xlink:href="#m528ad73f96" x="60.598945" y="303.182656" style="stroke: #000000; stroke-width: 0.6"/>
      </g>
     </g>
    </g>
    <g id="xtick_8">
     <g id="line2d_8">
      <g>
       <use xlink:href="#m528ad73f96" x="79.472047" y="303.182656" style="stroke: #000000; stroke-width: 0.6"/>
      </g>
     </g>
    </g>
    <g id="xtick_9">
     <g id="line2d_9">
      <g>
       <use xlink:href="#m528ad73f96" x="98.345148" y="303.182656" style="stroke: #000000; stroke-width: 0.6"/>
      </g>
     </g>
    </g>
    <g id="xtick_10">
     <g id="line2d_10">
      <g>
       <use xlink:href="#m528ad73f96" x="136.09135" y="303.182656" style="stroke: #000000; stroke-width: 0.6"/>
      </g>
     </g>
    </g>
    <g id="xtick_11">
     <g id="line2d_11">
      <g>
       <use xlink:href="#m528ad73f96" x="154.964451" y="303.182656" style="stroke: #000000; stroke-width: 0.6"/>
      </g>
     </g>
    </g>
    <g id="xtick_12">
     <g id="line2d_12">
      <g>
       <use xlink:href="#m528ad73f96" x="173.837553" y="303.182656" style="stroke: #000000; stroke-width: 0.6"/>
      </g>
     </g>
    </g>
    <g id="xtick_13">
     <g id="line2d_13">
      <g>
       <use xlink:href="#m528ad73f96" x="211.583755" y="303.182656" style="stroke: #000000; stroke-width: 0.6"/>
      </g>
     </g>
    </g>
    <g id="xtick_14">
     <g id="line2d_14">
      <g>
       <use xlink:href="#m528ad73f96" x="230.456856" y="303.182656" style="stroke: #000000; stroke-width: 0.6"/>
      </g>
     </g>
    </g>
    <g id="xtick_15">
     <g id="line2d_15">
      <g>
       <use xlink:href="#m528ad73f96" x="249.329958" y="303.182656" style="stroke: #000000; stroke-width: 0.6"/>
      </g>
     </g>
    </g>
    <g id="xtick_16">
     <g id="line2d_16">
      <g>
       <use xlink:href="#m528ad73f96" x="287.07616" y="303.182656" style="stroke: #000000; stroke-width: 0.6"/>
      </g>
     </g>
    </g>
    <g id="xtick_17">
     <g id="line2d_17">
      <g>
       <use xlink:href="#m528ad73f96" x="305.949261" y="303.182656" style="stroke: #000000; stroke-width: 0.6"/>
      </g>
     </g>
    </g>
    <g id="xtick_18">
     <g id="line2d_18">
      <g>
       <use xlink:href="#m528ad73f96" x="324.822362" y="303.182656" style="stroke: #000000; stroke-width: 0.6"/>
      </g>
     </g>
    </g>
    <g id="xtick_19">
     <g id="line2d_19">
      <g>
       <use xlink:href="#m528ad73f96" x="362.568565" y="303.182656" style="stroke: #000000; stroke-width: 0.6"/>
      </g>
     </g>
    </g>
    <g id="xtick_20">
     <g id="line2d_20">
      <g>
       <use xlink:href="#m528ad73f96" x="381.441666" y="303.182656" style="stroke: #000000; stroke-width: 0.6"/>
      </g>
     </g>
    </g>
    <g id="xtick_21">
     <g id="line2d_21">
      <g>
       <use xlink:href="#m528ad73f96" x="400.314767" y="303.182656" style="stroke: #000000; stroke-width: 0.6"/>
      </g>
     </g>
    </g>
    <g id="xtick_22">
     <g id="line2d_22">
      <g>
       <use xlink:href="#m528ad73f96" x="438.06097" y="303.182656" style="stroke: #000000; stroke-width: 0.6"/>
      </g>
     </g>
    </g>
    <g id="xtick_23">
     <g id="line2d_23">
      <g>
       <use xlink:href="#m528ad73f96" x="456.934071" y="303.182656" style="stroke: #000000; stroke-width: 0.6"/>
      </g>
     </g>
    </g>
    <g id="xtick_24">
     <g id="line2d_24">
      <g>
       <use xlink:href="#m528ad73f96" x="475.807172" y="303.182656" style="stroke: #000000; stroke-width: 0.6"/>
      </g>
     </g>
    </g>
    <g id="text_7">
     <!-- T1 Temperature (°C) -->
     <g transform="translate(213.900234 334.013711) scale(0.14 -0.14)">
      <defs>
       <path id="ArialMT-37" d="M 1659 0 
L 1659 4041 
L 150 4041 
L 150 4581 
L 3781 4581 
L 3781 4041 
L 2266 4041 
L 2266 0 
L 1659 0 
z
" transform="scale(0.015625)"/>
       <path id="ArialMT-3" transform="scale(0.015625)"/>
       <path id="ArialMT-48" d="M 2694 1069 
L 3275 997 
Q 3138 488 2766 206 
Q 2394 -75 1816 -75 
Q 1088 -75 661 373 
Q 234 822 234 1631 
Q 234 2469 665 2931 
Q 1097 3394 1784 3394 
Q 2450 3394 2872 2941 
Q 3294 2488 3294 1666 
Q 3294 1616 3291 1516 
L 816 1516 
Q 847 969 1125 678 
Q 1403 388 1819 388 
Q 2128 388 2347 550 
Q 2566 713 2694 1069 
z
M 847 1978 
L 2700 1978 
Q 2663 2397 2488 2606 
Q 2219 2931 1791 2931 
Q 1403 2931 1139 2672 
Q 875 2413 847 1978 
z
" transform="scale(0.015625)"/>
       <path id="ArialMT-50" d="M 422 0 
L 422 3319 
L 925 3319 
L 925 2853 
Q 1081 3097 1340 3245 
Q 1600 3394 1931 3394 
Q 2300 3394 2536 3241 
Q 2772 3088 2869 2813 
Q 3263 3394 3894 3394 
Q 4388 3394 4653 3120 
Q 4919 2847 4919 2278 
L 4919 0 
L 4359 0 
L 4359 2091 
Q 4359 2428 4304 2576 
Q 4250 2725 4106 2815 
Q 3963 2906 3769 2906 
Q 3419 2906 3187 2673 
Q 2956 2441 2956 1928 
L 2956 0 
L 2394 0 
L 2394 2156 
Q 2394 2531 2256 2718 
Q 2119 2906 1806 2906 
Q 1569 2906 1367 2781 
Q 1166 2656 1075 2415 
Q 984 2175 984 1722 
L 984 0 
L 422 0 
z
" transform="scale(0.015625)"/>
       <path id="ArialMT-53" d="M 422 -1272 
L 422 3319 
L 934 3319 
L 934 2888 
Q 1116 3141 1344 3267 
Q 1572 3394 1897 3394 
Q 2322 3394 2647 3175 
Q 2972 2956 3137 2557 
Q 3303 2159 3303 1684 
Q 3303 1175 3120 767 
Q 2938 359 2589 142 
Q 2241 -75 1856 -75 
Q 1575 -75 1351 44 
Q 1128 163 984 344 
L 984 -1272 
L 422 -1272 
z
M 931 1641 
Q 931 1000 1190 694 
Q 1450 388 1819 388 
Q 2194 388 2461 705 
Q 2728 1022 2728 1688 
Q 2728 2322 2467 2637 
Q 2206 2953 1844 2953 
Q 1484 2953 1207 2617 
Q 931 2281 931 1641 
z
" transform="scale(0.015625)"/>
       <path id="ArialMT-55" d="M 416 0 
L 416 3319 
L 922 3319 
L 922 2816 
Q 1116 3169 1280 3281 
Q 1444 3394 1641 3394 
Q 1925 3394 2219 3213 
L 2025 2691 
Q 1819 2813 1613 2813 
Q 1428 2813 1281 2702 
Q 1134 2591 1072 2394 
Q 978 2094 978 1738 
L 978 0 
L 416 0 
z
" transform="scale(0.015625)"/>
       <path id="ArialMT-44" d="M 2588 409 
Q 2275 144 1986 34 
Q 1697 -75 1366 -75 
Q 819 -75 525 192 
Q 231 459 231 875 
Q 231 1119 342 1320 
Q 453 1522 633 1644 
Q 813 1766 1038 1828 
Q 1203 1872 1538 1913 
Q 2219 1994 2541 2106 
Q 2544 2222 2544 2253 
Q 2544 2597 2384 2738 
Q 2169 2928 1744 2928 
Q 1347 2928 1158 2789 
Q 969 2650 878 2297 
L 328 2372 
Q 403 2725 575 2942 
Q 747 3159 1072 3276 
Q 1397 3394 1825 3394 
Q 2250 3394 2515 3294 
Q 2781 3194 2906 3042 
Q 3031 2891 3081 2659 
Q 3109 2516 3109 2141 
L 3109 1391 
Q 3109 606 3145 398 
Q 3181 191 3288 0 
L 2700 0 
Q 2613 175 2588 409 
z
M 2541 1666 
Q 2234 1541 1622 1453 
Q 1275 1403 1131 1340 
Q 988 1278 909 1158 
Q 831 1038 831 891 
Q 831 666 1001 516 
Q 1172 366 1500 366 
Q 1825 366 2078 508 
Q 2331 650 2450 897 
Q 2541 1088 2541 1459 
L 2541 1666 
z
" transform="scale(0.015625)"/>
       <path id="ArialMT-57" d="M 1650 503 
L 1731 6 
Q 1494 -44 1306 -44 
Q 1000 -44 831 53 
Q 663 150 594 308 
Q 525 466 525 972 
L 525 2881 
L 113 2881 
L 113 3319 
L 525 3319 
L 525 4141 
L 1084 4478 
L 1084 3319 
L 1650 3319 
L 1650 2881 
L 1084 2881 
L 1084 941 
Q 1084 700 1114 631 
Q 1144 563 1211 522 
Q 1278 481 1403 481 
Q 1497 481 1650 503 
z
" transform="scale(0.015625)"/>
       <path id="ArialMT-58" d="M 2597 0 
L 2597 488 
Q 2209 -75 1544 -75 
Q 1250 -75 995 37 
Q 741 150 617 320 
Q 494 491 444 738 
Q 409 903 409 1263 
L 409 3319 
L 972 3319 
L 972 1478 
Q 972 1038 1006 884 
Q 1059 663 1231 536 
Q 1403 409 1656 409 
Q 1909 409 2131 539 
Q 2353 669 2445 892 
Q 2538 1116 2538 1541 
L 2538 3319 
L 3100 3319 
L 3100 0 
L 2597 0 
z
" transform="scale(0.015625)"/>
       <path id="ArialMT-b" d="M 1497 -1347 
Q 1031 -759 709 28 
Q 388 816 388 1659 
Q 388 2403 628 3084 
Q 909 3875 1497 4659 
L 1900 4659 
Q 1522 4009 1400 3731 
Q 1209 3300 1100 2831 
Q 966 2247 966 1656 
Q 966 153 1900 -1347 
L 1497 -1347 
z
" transform="scale(0.015625)"/>
       <path id="ArialMT-83" d="M 400 3794 
Q 400 4153 654 4406 
Q 909 4659 1266 4659 
Q 1628 4659 1881 4406 
Q 2134 4153 2134 3794 
Q 2134 3434 1879 3179 
Q 1625 2925 1266 2925 
Q 909 2925 654 3178 
Q 400 3431 400 3794 
z
M 741 3794 
Q 741 3575 895 3420 
Q 1050 3266 1269 3266 
Q 1484 3266 1639 3420 
Q 1794 3575 1794 3794 
Q 1794 4013 1639 4167 
Q 1484 4322 1269 4322 
Q 1050 4322 895 4167 
Q 741 4013 741 3794 
z
" transform="scale(0.015625)"/>
       <path id="ArialMT-26" d="M 3763 1606 
L 4369 1453 
Q 4178 706 3683 314 
Q 3188 -78 2472 -78 
Q 1731 -78 1267 223 
Q 803 525 561 1097 
Q 319 1669 319 2325 
Q 319 3041 592 3573 
Q 866 4106 1370 4382 
Q 1875 4659 2481 4659 
Q 3169 4659 3637 4309 
Q 4106 3959 4291 3325 
L 3694 3184 
Q 3534 3684 3231 3912 
Q 2928 4141 2469 4141 
Q 1941 4141 1586 3887 
Q 1231 3634 1087 3207 
Q 944 2781 944 2328 
Q 944 1744 1114 1308 
Q 1284 872 1643 656 
Q 2003 441 2422 441 
Q 2931 441 3284 734 
Q 3638 1028 3763 1606 
z
" transform="scale(0.015625)"/>
       <path id="ArialMT-c" d="M 791 -1347 
L 388 -1347 
Q 1322 153 1322 1656 
Q 1322 2244 1188 2822 
Q 1081 3291 891 3722 
Q 769 4003 388 4659 
L 791 4659 
Q 1378 3875 1659 3084 
Q 1900 2403 1900 1659 
Q 1900 816 1576 28 
Q 1253 -759 791 -1347 
z
" transform="scale(0.015625)"/>
      </defs>
      <use xlink:href="#ArialMT-37"/>
      <use xlink:href="#ArialMT-14" transform="translate(61.078125 0)"/>
      <use xlink:href="#ArialMT-3" transform="translate(116.6875 0)"/>
      <use xlink:href="#ArialMT-37" transform="translate(142.65625 0)"/>
      <use xlink:href="#ArialMT-48" transform="translate(192.65625 0)"/>
      <use xlink:href="#ArialMT-50" transform="translate(248.265625 0)"/>
      <use xlink:href="#ArialMT-53" transform="translate(331.5625 0)"/>
      <use xlink:href="#ArialMT-48" transform="translate(387.171875 0)"/>
      <use xlink:href="#ArialMT-55" transform="translate(442.78125 0)"/>
      <use xlink:href="#ArialMT-44" transform="translate(476.078125 0)"/>
      <use xlink:href="#ArialMT-57" transform="translate(531.6875 0)"/>
      <use xlink:href="#ArialMT-58" transform="translate(559.46875 0)"/>
      <use xlink:href="#ArialMT-55" transform="translate(615.078125 0)"/>
      <use xlink:href="#ArialMT-48" transform="translate(648.375 0)"/>
      <use xlink:href="#ArialMT-3" transform="translate(703.984375 0)"/>
      <use xlink:href="#ArialMT-b" transform="translate(731.765625 0)"/>
      <use xlink:href="#ArialMT-83" transform="translate(765.0625 0)"/>
      <use xlink:href="#ArialMT-26" transform="translate(805.046875 0)"/>
      <use xlink:href="#ArialMT-c" transform="translate(877.265625 0)"/>
     </g>
    </g>
   </g>
   <g id="matplotlib.axis_2">
    <g id="ytick_1">
     <g id="line2d_25">
      <defs>
       <path id="mfa0fa43f60" d="M 0 0 
L 6 0 
" style="stroke: #000000; stroke-width: 0.8"/>
      </defs>
      <g>
       <use xlink:href="#mfa0fa43f60" x="60.598945" y="293.998751" style="stroke: #000000; stroke-width: 0.8"/>
      </g>
     </g>
     <g id="text_8">
      <!-- $\mathdefault{10^{-14}}$ -->
      <g transform="translate(24.338945 300.438751) scale(0.14 -0.14)">
       <defs>
        <path id="ArialMT-ed" d="M 3381 1997 
L 356 1997 
L 356 2522 
L 3381 2522 
L 3381 1997 
z
" transform="scale(0.015625)"/>
       </defs>
       <use xlink:href="#ArialMT-14" transform="translate(0 0.3875)"/>
       <use xlink:href="#ArialMT-13" transform="translate(55.615234 0.3875)"/>
       <use xlink:href="#ArialMT-ed" transform="translate(112.1875 41.6875) scale(0.7)"/>
       <use xlink:href="#ArialMT-14" transform="translate(153.066406 41.6875) scale(0.7)"/>
       <use xlink:href="#ArialMT-17" transform="translate(191.99707 41.6875) scale(0.7)"/>
      </g>
     </g>
    </g>
    <g id="ytick_2">
     <g id="line2d_26">
      <g>
       <use xlink:href="#mfa0fa43f60" x="60.598945" y="231.434181" style="stroke: #000000; stroke-width: 0.8"/>
      </g>
     </g>
     <g id="text_9">
      <!-- $\mathdefault{10^{-13}}$ -->
      <g transform="translate(24.338945 237.874181) scale(0.14 -0.14)">
       <defs>
        <path id="ArialMT-16" d="M 269 1209 
L 831 1284 
Q 928 806 1161 595 
Q 1394 384 1728 384 
Q 2125 384 2398 659 
Q 2672 934 2672 1341 
Q 2672 1728 2419 1979 
Q 2166 2231 1775 2231 
Q 1616 2231 1378 2169 
L 1441 2663 
Q 1497 2656 1531 2656 
Q 1891 2656 2178 2843 
Q 2466 3031 2466 3422 
Q 2466 3731 2256 3934 
Q 2047 4138 1716 4138 
Q 1388 4138 1169 3931 
Q 950 3725 888 3313 
L 325 3413 
Q 428 3978 793 4289 
Q 1159 4600 1703 4600 
Q 2078 4600 2393 4439 
Q 2709 4278 2876 4000 
Q 3044 3722 3044 3409 
Q 3044 3113 2884 2869 
Q 2725 2625 2413 2481 
Q 2819 2388 3044 2092 
Q 3269 1797 3269 1353 
Q 3269 753 2831 336 
Q 2394 -81 1725 -81 
Q 1122 -81 723 278 
Q 325 638 269 1209 
z
" transform="scale(0.015625)"/>
       </defs>
       <use xlink:href="#ArialMT-14" transform="translate(0 0.3875)"/>
       <use xlink:href="#ArialMT-13" transform="translate(55.615234 0.3875)"/>
       <use xlink:href="#ArialMT-ed" transform="translate(112.1875 41.6875) scale(0.7)"/>
       <use xlink:href="#ArialMT-14" transform="translate(153.066406 41.6875) scale(0.7)"/>
       <use xlink:href="#ArialMT-16" transform="translate(191.99707 41.6875) scale(0.7)"/>
      </g>
     </g>
    </g>
    <g id="ytick_3">
     <g id="line2d_27">
      <g>
       <use xlink:href="#mfa0fa43f60" x="60.598945" y="168.869612" style="stroke: #000000; stroke-width: 0.8"/>
      </g>
     </g>
     <g id="text_10">
      <!-- $\mathdefault{10^{-12}}$ -->
      <g transform="translate(24.338945 175.309612) scale(0.14 -0.14)">
       <use xlink:href="#ArialMT-14" transform="translate(0 0.3875)"/>
       <use xlink:href="#ArialMT-13" transform="translate(55.615234 0.3875)"/>
       <use xlink:href="#ArialMT-ed" transform="translate(112.1875 41.6875) scale(0.7)"/>
       <use xlink:href="#ArialMT-14" transform="translate(153.066406 41.6875) scale(0.7)"/>
       <use xlink:href="#ArialMT-15" transform="translate(191.99707 41.6875) scale(0.7)"/>
      </g>
     </g>
    </g>
    <g id="ytick_4">
     <g id="line2d_28">
      <g>
       <use xlink:href="#mfa0fa43f60" x="60.598945" y="106.305043" style="stroke: #000000; stroke-width: 0.8"/>
      </g>
     </g>
     <g id="text_11">
      <!-- $\mathdefault{10^{-11}}$ -->
      <g transform="translate(25.038945 112.745043) scale(0.14 -0.14)">
       <use xlink:href="#ArialMT-14" transform="translate(0 0.3875)"/>
       <use xlink:href="#ArialMT-13" transform="translate(55.615234 0.3875)"/>
       <use xlink:href="#ArialMT-ed" transform="translate(112.1875 41.6875) scale(0.7)"/>
       <use xlink:href="#ArialMT-14" transform="translate(153.066406 41.6875) scale(0.7)"/>
       <use xlink:href="#ArialMT-14" transform="translate(187.09707 41.6875) scale(0.7)"/>
      </g>
     </g>
    </g>
    <g id="ytick_5">
     <g id="line2d_29">
      <g>
       <use xlink:href="#mfa0fa43f60" x="60.598945" y="43.740474" style="stroke: #000000; stroke-width: 0.8"/>
      </g>
     </g>
     <g id="text_12">
      <!-- $\mathdefault{10^{-10}}$ -->
      <g transform="translate(24.338945 50.180474) scale(0.14 -0.14)">
       <use xlink:href="#ArialMT-14" transform="translate(0 0.3875)"/>
       <use xlink:href="#ArialMT-13" transform="translate(55.615234 0.3875)"/>
       <use xlink:href="#ArialMT-ed" transform="translate(112.1875 41.6875) scale(0.7)"/>
       <use xlink:href="#ArialMT-14" transform="translate(153.066406 41.6875) scale(0.7)"/>
       <use xlink:href="#ArialMT-13" transform="translate(191.99707 41.6875) scale(0.7)"/>
      </g>
     </g>
    </g>
    <g id="ytick_6">
     <g id="line2d_30">
      <defs>
       <path id="m2b3852723a" d="M 0 0 
L 3 0 
" style="stroke: #000000; stroke-width: 0.6"/>
      </defs>
      <g>
       <use xlink:href="#m2b3852723a" x="60.598945" y="300.061884" style="stroke: #000000; stroke-width: 0.6"/>
      </g>
     </g>
    </g>
    <g id="ytick_7">
     <g id="line2d_31">
      <g>
       <use xlink:href="#m2b3852723a" x="60.598945" y="296.861548" style="stroke: #000000; stroke-width: 0.6"/>
      </g>
     </g>
    </g>
    <g id="ytick_8">
     <g id="line2d_32">
      <g>
       <use xlink:href="#m2b3852723a" x="60.598945" y="275.164939" style="stroke: #000000; stroke-width: 0.6"/>
      </g>
     </g>
    </g>
    <g id="ytick_9">
     <g id="line2d_33">
      <g>
       <use xlink:href="#m2b3852723a" x="60.598945" y="264.147865" style="stroke: #000000; stroke-width: 0.6"/>
      </g>
     </g>
    </g>
    <g id="ytick_10">
     <g id="line2d_34">
      <g>
       <use xlink:href="#m2b3852723a" x="60.598945" y="256.331127" style="stroke: #000000; stroke-width: 0.6"/>
      </g>
     </g>
    </g>
    <g id="ytick_11">
     <g id="line2d_35">
      <g>
       <use xlink:href="#m2b3852723a" x="60.598945" y="250.267993" style="stroke: #000000; stroke-width: 0.6"/>
      </g>
     </g>
    </g>
    <g id="ytick_12">
     <g id="line2d_36">
      <g>
       <use xlink:href="#m2b3852723a" x="60.598945" y="245.314053" style="stroke: #000000; stroke-width: 0.6"/>
      </g>
     </g>
    </g>
    <g id="ytick_13">
     <g id="line2d_37">
      <g>
       <use xlink:href="#m2b3852723a" x="60.598945" y="241.125556" style="stroke: #000000; stroke-width: 0.6"/>
      </g>
     </g>
    </g>
    <g id="ytick_14">
     <g id="line2d_38">
      <g>
       <use xlink:href="#m2b3852723a" x="60.598945" y="237.497315" style="stroke: #000000; stroke-width: 0.6"/>
      </g>
     </g>
    </g>
    <g id="ytick_15">
     <g id="line2d_39">
      <g>
       <use xlink:href="#m2b3852723a" x="60.598945" y="234.296979" style="stroke: #000000; stroke-width: 0.6"/>
      </g>
     </g>
    </g>
    <g id="ytick_16">
     <g id="line2d_40">
      <g>
       <use xlink:href="#m2b3852723a" x="60.598945" y="212.600369" style="stroke: #000000; stroke-width: 0.6"/>
      </g>
     </g>
    </g>
    <g id="ytick_17">
     <g id="line2d_41">
      <g>
       <use xlink:href="#m2b3852723a" x="60.598945" y="201.583296" style="stroke: #000000; stroke-width: 0.6"/>
      </g>
     </g>
    </g>
    <g id="ytick_18">
     <g id="line2d_42">
      <g>
       <use xlink:href="#m2b3852723a" x="60.598945" y="193.766557" style="stroke: #000000; stroke-width: 0.6"/>
      </g>
     </g>
    </g>
    <g id="ytick_19">
     <g id="line2d_43">
      <g>
       <use xlink:href="#m2b3852723a" x="60.598945" y="187.703424" style="stroke: #000000; stroke-width: 0.6"/>
      </g>
     </g>
    </g>
    <g id="ytick_20">
     <g id="line2d_44">
      <g>
       <use xlink:href="#m2b3852723a" x="60.598945" y="182.749484" style="stroke: #000000; stroke-width: 0.6"/>
      </g>
     </g>
    </g>
    <g id="ytick_21">
     <g id="line2d_45">
      <g>
       <use xlink:href="#m2b3852723a" x="60.598945" y="178.560986" style="stroke: #000000; stroke-width: 0.6"/>
      </g>
     </g>
    </g>
    <g id="ytick_22">
     <g id="line2d_46">
      <g>
       <use xlink:href="#m2b3852723a" x="60.598945" y="174.932745" style="stroke: #000000; stroke-width: 0.6"/>
      </g>
     </g>
    </g>
    <g id="ytick_23">
     <g id="line2d_47">
      <g>
       <use xlink:href="#m2b3852723a" x="60.598945" y="171.73241" style="stroke: #000000; stroke-width: 0.6"/>
      </g>
     </g>
    </g>
    <g id="ytick_24">
     <g id="line2d_48">
      <g>
       <use xlink:href="#m2b3852723a" x="60.598945" y="150.0358" style="stroke: #000000; stroke-width: 0.6"/>
      </g>
     </g>
    </g>
    <g id="ytick_25">
     <g id="line2d_49">
      <g>
       <use xlink:href="#m2b3852723a" x="60.598945" y="139.018726" style="stroke: #000000; stroke-width: 0.6"/>
      </g>
     </g>
    </g>
    <g id="ytick_26">
     <g id="line2d_50">
      <g>
       <use xlink:href="#m2b3852723a" x="60.598945" y="131.201988" style="stroke: #000000; stroke-width: 0.6"/>
      </g>
     </g>
    </g>
    <g id="ytick_27">
     <g id="line2d_51">
      <g>
       <use xlink:href="#m2b3852723a" x="60.598945" y="125.138855" style="stroke: #000000; stroke-width: 0.6"/>
      </g>
     </g>
    </g>
    <g id="ytick_28">
     <g id="line2d_52">
      <g>
       <use xlink:href="#m2b3852723a" x="60.598945" y="120.184914" style="stroke: #000000; stroke-width: 0.6"/>
      </g>
     </g>
    </g>
    <g id="ytick_29">
     <g id="line2d_53">
      <g>
       <use xlink:href="#m2b3852723a" x="60.598945" y="115.996417" style="stroke: #000000; stroke-width: 0.6"/>
      </g>
     </g>
    </g>
    <g id="ytick_30">
     <g id="line2d_54">
      <g>
       <use xlink:href="#m2b3852723a" x="60.598945" y="112.368176" style="stroke: #000000; stroke-width: 0.6"/>
      </g>
     </g>
    </g>
    <g id="ytick_31">
     <g id="line2d_55">
      <g>
       <use xlink:href="#m2b3852723a" x="60.598945" y="109.16784" style="stroke: #000000; stroke-width: 0.6"/>
      </g>
     </g>
    </g>
    <g id="ytick_32">
     <g id="line2d_56">
      <g>
       <use xlink:href="#m2b3852723a" x="60.598945" y="87.471231" style="stroke: #000000; stroke-width: 0.6"/>
      </g>
     </g>
    </g>
    <g id="ytick_33">
     <g id="line2d_57">
      <g>
       <use xlink:href="#m2b3852723a" x="60.598945" y="76.454157" style="stroke: #000000; stroke-width: 0.6"/>
      </g>
     </g>
    </g>
    <g id="ytick_34">
     <g id="line2d_58">
      <g>
       <use xlink:href="#m2b3852723a" x="60.598945" y="68.637419" style="stroke: #000000; stroke-width: 0.6"/>
      </g>
     </g>
    </g>
    <g id="ytick_35">
     <g id="line2d_59">
      <g>
       <use xlink:href="#m2b3852723a" x="60.598945" y="62.574286" style="stroke: #000000; stroke-width: 0.6"/>
      </g>
     </g>
    </g>
    <g id="ytick_36">
     <g id="line2d_60">
      <g>
       <use xlink:href="#m2b3852723a" x="60.598945" y="57.620345" style="stroke: #000000; stroke-width: 0.6"/>
      </g>
     </g>
    </g>
    <g id="ytick_37">
     <g id="line2d_61">
      <g>
       <use xlink:href="#m2b3852723a" x="60.598945" y="53.431848" style="stroke: #000000; stroke-width: 0.6"/>
      </g>
     </g>
    </g>
    <g id="ytick_38">
     <g id="line2d_62">
      <g>
       <use xlink:href="#m2b3852723a" x="60.598945" y="49.803607" style="stroke: #000000; stroke-width: 0.6"/>
      </g>
     </g>
    </g>
    <g id="ytick_39">
     <g id="line2d_63">
      <g>
       <use xlink:href="#m2b3852723a" x="60.598945" y="46.603271" style="stroke: #000000; stroke-width: 0.6"/>
      </g>
     </g>
    </g>
    <g id="text_13">
     <!-- Ion Current (m/z 18) -->
     <g transform="translate(17.392383 234.056768) rotate(-90) scale(0.14 -0.14)">
      <defs>
       <path id="ArialMT-2c" d="M 597 0 
L 597 4581 
L 1203 4581 
L 1203 0 
L 597 0 
z
" transform="scale(0.015625)"/>
       <path id="ArialMT-52" d="M 213 1659 
Q 213 2581 725 3025 
Q 1153 3394 1769 3394 
Q 2453 3394 2887 2945 
Q 3322 2497 3322 1706 
Q 3322 1066 3130 698 
Q 2938 331 2570 128 
Q 2203 -75 1769 -75 
Q 1072 -75 642 372 
Q 213 819 213 1659 
z
M 791 1659 
Q 791 1022 1069 705 
Q 1347 388 1769 388 
Q 2188 388 2466 706 
Q 2744 1025 2744 1678 
Q 2744 2294 2464 2611 
Q 2184 2928 1769 2928 
Q 1347 2928 1069 2612 
Q 791 2297 791 1659 
z
" transform="scale(0.015625)"/>
       <path id="ArialMT-51" d="M 422 0 
L 422 3319 
L 928 3319 
L 928 2847 
Q 1294 3394 1984 3394 
Q 2284 3394 2536 3286 
Q 2788 3178 2913 3003 
Q 3038 2828 3088 2588 
Q 3119 2431 3119 2041 
L 3119 0 
L 2556 0 
L 2556 2019 
Q 2556 2363 2490 2533 
Q 2425 2703 2258 2804 
Q 2091 2906 1866 2906 
Q 1506 2906 1245 2678 
Q 984 2450 984 1813 
L 984 0 
L 422 0 
z
" transform="scale(0.015625)"/>
       <path id="ArialMT-12" d="M 0 -78 
L 1328 4659 
L 1778 4659 
L 453 -78 
L 0 -78 
z
" transform="scale(0.015625)"/>
       <path id="ArialMT-5d" d="M 125 0 
L 125 456 
L 2238 2881 
Q 1878 2863 1603 2863 
L 250 2863 
L 250 3319 
L 2963 3319 
L 2963 2947 
L 1166 841 
L 819 456 
Q 1197 484 1528 484 
L 3063 484 
L 3063 0 
L 125 0 
z
" transform="scale(0.015625)"/>
      </defs>
      <use xlink:href="#ArialMT-2c"/>
      <use xlink:href="#ArialMT-52" transform="translate(27.78125 0)"/>
      <use xlink:href="#ArialMT-51" transform="translate(83.390625 0)"/>
      <use xlink:href="#ArialMT-3" transform="translate(139 0)"/>
      <use xlink:href="#ArialMT-26" transform="translate(166.78125 0)"/>
      <use xlink:href="#ArialMT-58" transform="translate(239 0)"/>
      <use xlink:href="#ArialMT-55" transform="translate(294.609375 0)"/>
      <use xlink:href="#ArialMT-55" transform="translate(327.90625 0)"/>
      <use xlink:href="#ArialMT-48" transform="translate(361.203125 0)"/>
      <use xlink:href="#ArialMT-51" transform="translate(416.8125 0)"/>
      <use xlink:href="#ArialMT-57" transform="translate(472.421875 0)"/>
      <use xlink:href="#ArialMT-3" transform="translate(500.203125 0)"/>
      <use xlink:href="#ArialMT-b" transform="translate(527.984375 0)"/>
      <use xlink:href="#ArialMT-50" transform="translate(561.28125 0)"/>
      <use xlink:href="#ArialMT-12" transform="translate(644.578125 0)"/>
      <use xlink:href="#ArialMT-5d" transform="translate(672.359375 0)"/>
      <use xlink:href="#ArialMT-3" transform="translate(722.359375 0)"/>
      <use xlink:href="#ArialMT-14" transform="translate(750.140625 0)"/>
      <use xlink:href="#ArialMT-1b" transform="translate(805.75 0)"/>
      <use xlink:href="#ArialMT-c" transform="translate(861.359375 0)"/>
     </g>
    </g>
   </g>
   <g id="line2d_64">
    <path d="M 59.617544 243.524069 
L 59.617544 224.579904 
L 59.542052 242.1971 
L 59.806275 243.052667 
L 60.598945 244.354114 
L 62.108793 244.105596 
L 64.298073 246.143406 
L 66.600592 243.892474 
L 68.714379 245.679414 
L 70.48845 240.684741 
L 71.960552 243.04251 
L 74.376309 241.515278 
L 75.470949 241.740181 
L 76.527843 246.538732 
L 77.660229 243.149504 
L 78.754869 242.622572 
L 79.887255 241.656738 
L 81.095133 239.001933 
L 82.303012 237.456894 
L 83.473144 237.942271 
L 84.681022 235.282634 
L 85.888901 238.627255 
L 87.210018 240.090734 
L 89.77676 232.334153 
L 91.022384 230.600562 
L 92.230263 230.846936 
L 93.438141 226.639839 
L 94.608274 225.757172 
L 95.778406 224.685006 
L 96.948538 225.563538 
L 98.080924 228.401134 
L 100.534428 219.853116 
L 101.70456 219.009302 
L 102.874692 214.659918 
L 104.044824 211.32079 
L 105.214957 207.611332 
L 107.592967 204.906035 
L 108.725353 202.681351 
L 109.85774 200.058185 
L 110.990126 196.428398 
L 113.368136 190.808083 
L 114.576015 187.166923 
L 115.783893 184.103292 
L 118.124158 180.342299 
L 120.464422 174.152561 
L 122.842433 167.067306 
L 124.050312 163.644826 
L 125.295936 160.722367 
L 127.673947 154.138377 
L 131.184344 146.32264 
L 132.354476 143.658111 
L 137.072751 135.39582 
L 138.318376 133.235721 
L 140.696387 128.589156 
L 141.791027 126.728026 
L 142.998905 125.001673 
L 144.131291 123.090935 
L 146.471556 120.107473 
L 147.641688 118.615333 
L 148.887313 117.381645 
L 150.095191 115.890283 
L 151.227577 114.018516 
L 153.605588 111.277656 
L 154.77572 109.738985 
L 157.153731 107.177883 
L 159.45625 105.282482 
L 160.626382 104.600074 
L 163.042139 102.537774 
L 164.250017 101.935398 
L 165.42015 100.951098 
L 167.79816 99.429276 
L 170.176171 97.958345 
L 172.440943 96.215261 
L 174.818954 94.048352 
L 180.707361 88.876249 
L 184.255505 85.337664 
L 185.387891 84.007215 
L 187.765901 81.537587 
L 191.314044 77.696513 
L 193.767548 75.491643 
L 199.655955 70.603921 
L 200.788341 69.785213 
L 201.958473 69.090205 
L 203.09086 68.738008 
L 204.298738 68.690747 
L 205.506617 68.979208 
L 207.846881 70.074595 
L 209.05476 70.703154 
L 216.075553 75.473637 
L 218.529056 76.903689 
L 219.699189 77.556451 
L 221.963961 79.181397 
L 223.171839 80.263433 
L 225.512104 83.042478 
L 227.852368 86.265091 
L 229.022501 87.990095 
L 231.362765 90.942629 
L 232.532897 92.168911 
L 236.005548 95.219153 
L 239.591437 97.961627 
L 240.76157 99.110038 
L 241.931702 99.396788 
L 243.13958 97.968155 
L 245.479845 94.098926 
L 246.649977 93.176227 
L 247.857856 93.09698 
L 248.990242 93.953884 
L 250.160374 95.809633 
L 251.330506 98.682974 
L 252.538385 102.22369 
L 253.708517 104.811229 
L 254.840903 105.486783 
L 256.048782 105.913739 
L 257.218914 105.843868 
L 258.426792 106.219478 
L 259.634671 106.374779 
L 263.182814 107.480928 
L 265.523078 107.975931 
L 266.693211 108.067681 
L 269.033475 108.688389 
L 270.203607 108.913267 
L 271.335994 108.961805 
L 272.506126 109.268697 
L 276.092015 109.643237 
L 277.262147 109.761752 
L 278.43228 109.625786 
L 279.564666 109.683274 
L 280.772544 109.989128 
L 281.942676 109.592629 
L 283.112809 109.475479 
L 284.282941 108.845729 
L 285.490819 107.733139 
L 287.831084 104.233643 
L 289.001216 102.940732 
L 290.209095 102.145201 
L 291.341481 102.12572 
L 292.511613 102.689242 
L 293.719492 103.572141 
L 297.267635 108.80439 
L 300.740285 111.390053 
L 301.910418 111.774892 
L 303.042804 112.003433 
L 304.212936 112.093945 
L 305.496307 112.312785 
L 306.704185 112.366694 
L 309.119942 112.742304 
L 310.327821 112.640374 
L 312.743578 113.617595 
L 313.875964 113.957947 
L 317.348614 115.620369 
L 318.518747 116.008057 
L 319.651133 116.639139 
L 320.896757 116.924044 
L 324.407154 118.995627 
L 326.747419 120.211775 
L 329.049937 121.109735 
L 334.976091 124.626079 
L 337.316355 125.624423 
L 340.789006 127.143423 
L 341.996885 128.109826 
L 343.167017 128.453675 
L 344.337149 129.355398 
L 346.71516 130.029638 
L 347.847546 130.328873 
L 349.017678 130.425997 
L 350.225557 130.740077 
L 356.076218 133.78373 
L 357.208604 133.886968 
L 358.454229 134.272958 
L 359.624361 134.819184 
L 361.964626 135.390697 
L 363.097012 135.902293 
L 364.30489 135.952736 
L 366.645155 136.356407 
L 367.815287 136.778414 
L 369.023165 136.722582 
L 371.287938 137.490285 
L 372.495816 137.898048 
L 373.703695 138.059661 
L 378.308731 139.484537 
L 379.51661 140.254347 
L 380.913219 140.075123 
L 382.309829 140.302409 
L 384.725586 140.456816 
L 385.857972 139.862541 
L 387.103596 140.062741 
L 390.651739 140.316841 
L 391.821872 140.77262 
L 392.992004 140.674518 
L 394.162136 141.276099 
L 395.294522 141.554201 
L 396.502401 141.548162 
L 397.634787 141.227455 
L 398.880412 141.41773 
L 401.220676 141.389805 
L 402.353062 141.704904 
L 403.560941 141.868965 
L 404.768819 141.892337 
L 405.938951 142.14455 
L 409.524841 142.228688 
L 410.581734 141.508935 
L 411.789613 141.057076 
L 412.921999 140.944596 
L 416.470142 140.154703 
L 418.810407 140.244589 
L 420.093777 140.67449 
L 421.150671 140.548684 
L 422.35855 140.051835 
L 423.415443 139.853936 
L 424.925291 139.712223 
L 425.982185 139.262972 
L 427.076825 139.007634 
L 428.284703 138.855633 
L 429.454836 138.873885 
L 430.624968 138.62173 
L 431.757354 138.786602 
L 432.927486 138.53281 
L 434.022126 138.580055 
L 435.305497 138.168394 
L 436.437883 137.97797 
L 437.608015 137.433753 
L 441.269397 136.743681 
L 443.534169 135.610834 
L 444.666555 134.766366 
L 445.949926 133.998064 
L 446.931327 132.732564 
L 448.139206 131.645013 
L 449.347084 130.362014 
L 450.47947 129.548791 
L 455.122253 124.996813 
L 457.953218 123.332342 
L 460.595453 121.284957 
L 461.576854 120.151679 
L 462.935717 119.004156 
L 463.992611 117.786286 
L 467.5785 114.723839 
L 468.559901 113.587622 
L 469.994257 112.350108 
L 470.900166 110.933802 
L 472.221283 109.492978 
L 473.353669 108.084139 
L 474.63704 106.779499 
L 475.656187 105.956459 
L 476.864066 105.519297 
L 479.393061 104.823796 
L 481.506849 104.130615 
L 482.639235 103.571454 
L 483.960352 102.676809 
L 488.565389 98.335001 
L 490.981146 96.523245 
L 492.189024 95.845044 
L 493.434649 95.362079 
L 493.434649 95.362079 
" clip-path="url(#pc5ac4bc39c)" style="fill: none; stroke: #000000; stroke-width: 2.5; stroke-linecap: square"/>
   </g>
   <g id="line2d_65">
    <path d="M 59.013605 231.020354 
L 59.013605 222.103448 
L 59.013605 235.597679 
L 60.523453 246.170711 
L 64.52455 239.918083 
L 66.71383 234.390875 
L 68.638886 230.302954 
L 70.261973 226.361412 
L 71.658583 225.160548 
L 72.866461 224.82204 
L 73.961101 225.60745 
L 78.377407 238.332904 
L 79.547539 241.396758 
L 80.717671 241.168093 
L 81.887803 241.47906 
L 83.095682 234.030238 
L 84.30356 233.758219 
L 85.511439 232.945375 
L 86.832556 233.588017 
L 88.115927 230.74232 
L 89.399298 232.220914 
L 90.682669 232.484297 
L 91.890547 233.526154 
L 93.098426 227.839392 
L 94.268558 225.923399 
L 95.43869 219.835913 
L 96.608822 216.096491 
L 97.778955 214.340007 
L 100.119219 209.981732 
L 101.327098 209.599332 
L 102.49723 209.056876 
L 103.667362 209.375945 
L 104.837495 208.61669 
L 106.007627 209.106855 
L 108.272399 205.353499 
L 109.480277 202.264286 
L 110.688156 198.26999 
L 111.896034 195.746842 
L 113.066167 192.079283 
L 114.198553 188.990973 
L 115.406431 186.731312 
L 116.576564 183.159724 
L 117.746696 180.723817 
L 118.916828 179.248511 
L 121.332585 173.40678 
L 127.258739 154.392562 
L 129.599003 148.221708 
L 137.865422 127.413113 
L 140.243432 122.489872 
L 142.621443 118.146073 
L 143.791576 116.286476 
L 144.999454 114.664978 
L 146.169586 113.489544 
L 149.717729 108.338734 
L 156.738523 99.274171 
L 160.286666 95.771348 
L 161.532291 94.77723 
L 168.628577 90.437324 
L 172.101227 88.575691 
L 175.611624 86.942279 
L 177.914143 85.397543 
L 180.329899 83.000213 
L 181.537778 81.599055 
L 182.670164 80.0495 
L 185.010429 77.319865 
L 190.974329 71.277912 
L 193.427832 69.157184 
L 194.522472 68.088414 
L 195.73035 67.232254 
L 196.975975 66.496404 
L 198.146107 65.992827 
L 199.278493 65.676255 
L 200.448625 65.731066 
L 201.618758 66.088855 
L 202.826636 66.819161 
L 203.959022 67.814849 
L 208.639551 72.516846 
L 212.225441 75.409884 
L 219.28398 82.189867 
L 220.454113 83.20812 
L 222.756631 85.456517 
L 225.096896 88.315401 
L 228.682785 91.673364 
L 229.815171 92.563174 
L 232.155435 93.885593 
L 234.533446 95.247917 
L 235.703578 96.323316 
L 236.873711 97.126605 
L 238.043843 97.632952 
L 240.421854 99.078698 
L 242.762118 100.060318 
L 245.102383 100.729808 
L 246.272515 101.366824 
L 247.442647 102.172114 
L 251.028537 103.220709 
L 252.198669 103.773582 
L 253.368801 104.53988 
L 255.709066 105.480785 
L 258.124823 106.572746 
L 259.257209 107.123527 
L 261.63522 107.993856 
L 262.805352 108.221917 
L 263.975484 108.734297 
L 265.145616 109.555247 
L 268.693759 110.326165 
L 270.996278 111.436675 
L 272.16641 112.206565 
L 274.544421 112.967827 
L 275.714553 113.25694 
L 276.884685 113.748441 
L 281.602961 113.673904 
L 283.943225 114.045281 
L 289.869379 114.305805 
L 293.379776 113.561583 
L 302.77858 113.329872 
L 303.948712 113.249026 
L 307.572348 113.84643 
L 308.780226 114.079026 
L 311.158237 114.74484 
L 312.290623 115.3523 
L 315.838766 116.15759 
L 318.216777 117.262511 
L 319.386909 118.096401 
L 320.519295 118.674395 
L 321.689428 119.399598 
L 322.935052 119.988561 
L 324.029692 120.807803 
L 325.237571 121.519458 
L 326.407703 122.373304 
L 327.540089 123.04883 
L 328.747967 124.017822 
L 329.842607 124.636194 
L 331.088232 125.498978 
L 333.428497 126.315842 
L 334.560883 126.45247 
L 335.768761 126.822716 
L 336.901147 127.375536 
L 339.279158 127.845871 
L 340.487036 128.479384 
L 341.657169 128.887837 
L 343.921941 130.399349 
L 346.299952 131.435728 
L 347.470084 131.856958 
L 349.923587 132.293226 
L 350.980481 132.767803 
L 352.150613 133.487578 
L 353.396238 133.73349 
L 354.528624 134.636841 
L 360.379285 135.968126 
L 361.549417 136.131161 
L 364.002921 137.247879 
L 365.135307 137.533728 
L 366.267693 138.379973 
L 367.437825 138.227408 
L 368.68345 138.41845 
L 369.77809 138.900383 
L 370.985968 139.641901 
L 372.1561 139.891854 
L 373.288486 139.599647 
L 375.628751 140.333495 
L 377.969015 140.798826 
L 379.21464 140.679249 
L 380.460265 140.988079 
L 383.177991 141.405041 
L 384.310377 140.941517 
L 385.48051 140.633988 
L 389.104145 141.558299 
L 390.236531 141.444227 
L 391.406664 141.462047 
L 392.614542 141.843592 
L 395.030299 142.17357 
L 396.0117 141.901081 
L 397.332817 141.658605 
L 398.540696 141.928138 
L 400.843214 141.622151 
L 404.353611 141.452619 
L 406.731622 142.322954 
L 407.901754 142.334997 
L 409.03414 142.133755 
L 410.279765 142.300349 
L 412.544537 141.881488 
L 413.639177 141.861463 
L 414.960294 141.693567 
L 417.300558 141.867849 
L 418.583929 142.162657 
L 419.640823 142.21859 
L 420.810955 142.109709 
L 423.15122 142.540068 
L 426.661617 142.667331 
L 427.831749 142.931271 
L 429.266105 142.587136 
L 430.360744 142.588064 
L 431.455384 142.793051 
L 432.550024 142.74734 
L 433.757903 142.525025 
L 434.852543 142.691408 
L 436.060421 142.603726 
L 437.2683 141.934607 
L 440.891935 139.495222 
L 441.986575 139.069569 
L 443.081215 138.817978 
L 444.326839 138.382984 
L 445.421479 137.817663 
L 446.70485 137.439365 
L 448.931876 135.511005 
L 450.102008 134.396445 
L 452.517765 132.590414 
L 453.687898 131.796607 
L 454.669299 130.775077 
L 456.216893 130.459616 
L 460.067006 128.701525 
L 463.50191 127.81116 
L 464.860774 127.468076 
L 467.087799 125.63908 
L 468.333424 124.849478 
L 469.541303 123.898034 
L 471.843821 122.916896 
L 472.862968 122.588337 
L 475.354218 122.419964 
L 477.694482 122.966856 
L 478.902361 123.151704 
L 481.167133 123.139328 
L 483.771621 123.018675 
L 487.131033 121.10521 
L 489.358059 120.175919 
L 490.679176 119.460364 
L 491.962547 118.578233 
L 493.887603 116.217937 
L 493.887603 116.217937 
" clip-path="url(#pc5ac4bc39c)" style="fill: none; stroke: #1f77b4; stroke-width: 2.5; stroke-linecap: square"/>
   </g>
   <g id="line2d_66">
    <path d="M 58.636143 219.535364 
L 58.636143 218.768633 
L 58.598397 231.829437 
L 58.673889 223.543655 
L 59.013605 223.894249 
L 61.84457 227.746165 
L 63.996104 233.819892 
L 66.223129 239.190752 
L 68.185932 237.168196 
L 69.809019 237.912418 
L 71.205628 236.071468 
L 72.413507 236.574228 
L 73.508147 234.88998 
L 74.602786 237.363481 
L 75.697426 231.072853 
L 76.792066 232.245724 
L 77.924452 229.415992 
L 79.094585 227.156649 
L 80.264717 224.449923 
L 81.472595 229.535413 
L 82.680474 230.491858 
L 85.058484 223.606332 
L 86.304109 222.344636 
L 87.58748 220.465204 
L 88.908597 219.245582 
L 90.229714 217.698493 
L 91.437593 215.385306 
L 92.607725 216.895478 
L 93.777857 217.84223 
L 94.910243 216.997971 
L 96.080376 213.146169 
L 97.250508 208.168664 
L 98.458386 207.802143 
L 99.628519 206.752475 
L 100.798651 204.487118 
L 102.006529 203.311047 
L 103.214408 201.190294 
L 104.422286 200.083548 
L 105.630165 198.648228 
L 106.762551 195.800676 
L 107.932683 191.184711 
L 109.178308 188.932309 
L 110.34844 187.593412 
L 112.53772 181.666161 
L 113.707852 179.10392 
L 114.953477 175.528481 
L 116.161355 172.988212 
L 117.369234 171.011904 
L 118.539366 168.549999 
L 119.747245 163.205551 
L 120.955123 158.909364 
L 123.257641 152.325705 
L 125.635652 146.861447 
L 126.843531 144.357402 
L 130.467166 137.926511 
L 131.637298 134.566763 
L 132.807431 131.839988 
L 136.280081 125.376994 
L 137.563452 123.823631 
L 142.243981 116.456809 
L 144.584246 113.284804 
L 145.792124 111.86923 
L 146.962257 109.990744 
L 148.170135 108.566679 
L 150.472653 106.139876 
L 151.680532 104.652984 
L 152.88841 103.631739 
L 155.228675 101.34638 
L 157.644432 99.005427 
L 158.776818 97.778811 
L 163.495093 94.622167 
L 168.213368 92.387638 
L 171.723765 89.936187 
L 176.442041 85.386757 
L 178.782305 82.783929 
L 182.292702 78.59401 
L 188.256602 73.130027 
L 190.634613 71.363223 
L 191.804745 70.550737 
L 194.220502 69.417463 
L 196.52302 68.864006 
L 197.693153 68.835386 
L 198.863285 69.245348 
L 200.033417 69.864524 
L 202.411428 71.855326 
L 207.054211 76.217939 
L 209.507714 77.922898 
L 211.772486 79.890496 
L 215.396122 83.019856 
L 217.69864 85.494196 
L 221.246783 88.511298 
L 227.135191 92.919976 
L 228.267577 93.993439 
L 231.81572 96.825919 
L 236.496249 100.150575 
L 242.384656 101.991722 
L 243.554789 102.008866 
L 247.065185 102.524552 
L 249.367704 103.126237 
L 250.575582 103.532874 
L 252.953593 104.953521 
L 255.293858 106.218903 
L 256.46399 106.556325 
L 257.596376 106.680807 
L 259.974387 107.429036 
L 261.144519 107.628396 
L 264.692662 108.632994 
L 265.862794 108.995978 
L 267.032926 109.503298 
L 268.203059 109.508314 
L 269.410937 109.799521 
L 270.543323 109.845542 
L 271.788948 110.204385 
L 272.921334 110.334818 
L 274.129213 110.736282 
L 277.677356 111.476429 
L 279.979874 111.783958 
L 281.150006 112.150079 
L 282.357885 112.139362 
L 283.528017 112.382148 
L 284.660403 112.209531 
L 287.113906 112.264289 
L 289.416425 111.990482 
L 290.548811 111.698605 
L 294.1347 111.620116 
L 295.267086 111.821692 
L 296.512711 111.661606 
L 298.777483 111.805219 
L 301.155493 112.197799 
L 302.325626 112.315109 
L 307.15714 113.690814 
L 309.497404 113.657236 
L 313.083293 115.052473 
L 314.253426 115.64477 
L 315.423558 116.543409 
L 317.763823 118.609639 
L 320.104087 120.300357 
L 321.274219 120.893069 
L 322.519844 121.851568 
L 323.65223 122.213512 
L 324.784616 123.019385 
L 327.162627 124.202932 
L 329.427399 126.160153 
L 330.635278 126.773217 
L 331.80541 127.734292 
L 334.221167 128.607104 
L 335.315807 128.873809 
L 337.656071 129.755537 
L 338.826204 129.848881 
L 340.034082 130.144569 
L 345.960236 133.592888 
L 348.187262 135.052104 
L 350.565272 135.913297 
L 351.773151 135.863761 
L 352.905537 136.065985 
L 355.35904 136.114577 
L 357.586066 137.13117 
L 358.831691 137.480282 
L 360.001823 137.929057 
L 362.379834 139.535249 
L 363.587712 140.075985 
L 364.682352 140.413471 
L 368.192749 141.041875 
L 369.400628 140.885166 
L 370.533014 140.544106 
L 371.6654 140.748251 
L 376.383675 142.968281 
L 377.6293 143.345675 
L 380.00731 143.788846 
L 381.441666 143.486226 
L 382.762783 143.685759 
L 385.17854 143.697987 
L 386.348672 143.396514 
L 387.556551 143.844475 
L 388.688937 144.121271 
L 389.859069 144.20049 
L 391.066948 143.896091 
L 392.23708 144.201078 
L 393.33172 144.306518 
L 394.615091 144.899408 
L 396.955355 144.903509 
L 398.087741 145.037064 
L 399.220127 145.393879 
L 401.635884 145.27996 
L 402.806017 145.049937 
L 405.033043 144.992851 
L 406.316414 145.046466 
L 407.562038 145.37669 
L 408.618932 145.20574 
L 409.864557 145.863091 
L 410.996943 145.644003 
L 412.204821 145.558146 
L 413.337207 144.919638 
L 418.130975 144.5131 
L 419.338853 145.13899 
L 420.508986 144.986971 
L 421.641372 145.645122 
L 422.736012 145.638208 
L 423.94389 145.509356 
L 426.208662 144.706981 
L 427.567525 144.509562 
L 429.719059 143.812485 
L 430.926938 143.585521 
L 432.172562 143.096318 
L 434.512827 143.383308 
L 435.645213 142.652877 
L 436.815345 142.266347 
L 438.06097 141.666491 
L 439.15561 141.625773 
L 440.438981 141.365873 
L 442.666006 140.564504 
L 443.873885 140.504066 
L 445.081763 140.280849 
L 446.251896 139.315508 
L 447.459774 137.939509 
L 448.478922 137.086823 
L 453.272689 133.857943 
L 454.367329 133.735147 
L 455.688446 133.399801 
L 457.085056 133.319712 
L 459.614051 132.563668 
L 460.859676 132.176703 
L 462.067555 131.555588 
L 465.540205 129.271206 
L 466.672591 129.049346 
L 467.842723 128.479797 
L 468.97511 128.467105 
L 470.145242 128.173302 
L 472.636491 126.510244 
L 474.825771 125.709806 
L 476.071396 125.021419 
L 477.31702 124.834914 
L 478.487153 125.011724 
L 479.581792 124.811928 
L 480.789671 124.994886 
L 481.997549 125.063963 
L 483.129935 124.96866 
L 484.451053 125.256463 
L 485.4702 125.860827 
L 487.923703 126.775583 
L 488.905104 127.453193 
L 490.075237 127.915052 
L 491.547339 127.975017 
L 492.717471 127.458971 
L 493.585634 126.234783 
L 493.585634 126.234783 
" clip-path="url(#pc5ac4bc39c)" style="fill: none; stroke: #d62728; stroke-width: 2.5; stroke-linecap: square"/>
   </g>
   <g id="line2d_67">
    <path d="M 60.372468 220.070465 
L 60.334722 221.384178 
L 60.296976 240.844704 
L 60.447961 244.975157 
L 61.014154 241.729587 
L 62.297524 237.302638 
L 64.222581 233.61245 
L 66.41186 229.743974 
L 68.487902 230.128145 
L 70.337466 230.040263 
L 75.433203 227.636024 
L 76.527843 223.773289 
L 77.622483 225.327887 
L 78.754869 223.061832 
L 79.887255 219.724494 
L 81.057387 220.399088 
L 82.227519 219.502521 
L 83.435398 215.949076 
L 84.643276 216.932811 
L 85.888901 216.775237 
L 87.172272 214.543025 
L 88.531135 214.861168 
L 89.77676 216.029821 
L 91.022384 212.674293 
L 92.230263 213.178043 
L 93.400395 214.746483 
L 94.570528 212.202673 
L 95.74066 208.114597 
L 96.910792 205.962143 
L 101.591321 191.116667 
L 102.723707 189.817682 
L 103.931586 188.975125 
L 105.101718 188.355094 
L 106.27185 186.364854 
L 107.479729 183.665313 
L 108.649861 180.382059 
L 111.065618 172.530539 
L 112.23575 169.690054 
L 113.481375 167.310519 
L 114.576015 165.712349 
L 115.783893 163.602591 
L 116.954026 162.289489 
L 118.124158 160.720043 
L 120.464422 155.361159 
L 123.937073 146.695168 
L 125.144951 143.944335 
L 127.522962 140.118314 
L 128.730841 138.410604 
L 131.108851 134.337209 
L 134.656995 127.993446 
L 135.864873 125.866031 
L 137.072751 123.436385 
L 138.28063 121.702077 
L 140.658641 117.80524 
L 141.828773 115.863796 
L 142.998905 114.14592 
L 144.206784 112.681993 
L 146.547048 110.228425 
L 148.962805 107.230229 
L 152.510948 102.910636 
L 154.888959 99.696427 
L 157.191477 97.17027 
L 159.493996 94.319398 
L 160.664128 93.066954 
L 161.872006 91.528324 
L 164.174525 89.295811 
L 166.552536 87.250002 
L 172.478689 83.202476 
L 176.026832 79.796605 
L 179.537229 75.751459 
L 180.745108 74.59375 
L 183.085372 71.509587 
L 191.276298 60.621114 
L 194.899934 57.080547 
L 198.372584 54.308183 
L 199.618209 53.659221 
L 200.788341 53.209153 
L 201.99622 53.102646 
L 203.128606 53.332978 
L 204.298738 54.006589 
L 205.46887 54.896496 
L 206.676749 56.141981 
L 210.187146 60.668064 
L 212.565156 63.787297 
L 213.697542 66.038847 
L 214.867675 66.85179 
L 216.075553 66.968124 
L 217.245685 66.89031 
L 218.415818 67.101933 
L 219.623696 67.573203 
L 220.793828 68.474695 
L 221.963961 69.846086 
L 223.171839 71.567527 
L 224.379718 73.907939 
L 225.54985 76.87208 
L 226.757728 77.641233 
L 229.060247 79.613357 
L 234.910908 84.954119 
L 237.326665 86.248513 
L 239.591437 87.925705 
L 240.723823 88.605923 
L 241.931702 89.594658 
L 243.13958 90.241654 
L 245.479845 91.648138 
L 247.857856 92.827697 
L 248.990242 93.188301 
L 250.160374 93.755158 
L 252.500639 94.576192 
L 253.670771 94.892962 
L 254.878649 94.825792 
L 258.389046 96.045855 
L 259.559178 96.690309 
L 260.767057 97.142186 
L 261.937189 97.909833 
L 263.107321 98.480151 
L 265.447586 98.810779 
L 266.655464 98.993913 
L 268.995729 99.51301 
L 270.165861 99.506768 
L 273.714004 101.015584 
L 279.564666 102.64224 
L 280.772544 102.85673 
L 281.980423 102.859437 
L 286.623206 103.96035 
L 287.793338 104.320228 
L 292.473867 104.858982 
L 293.681745 104.746484 
L 296.02201 104.682245 
L 297.192142 104.401731 
L 298.362275 104.671677 
L 300.778031 104.276569 
L 301.834925 104.339501 
L 303.08055 104.694886 
L 304.212936 104.791787 
L 309.082196 106.006395 
L 312.630339 107.518454 
L 313.838218 108.187921 
L 315.00835 109.020608 
L 316.140736 109.40459 
L 322.029143 112.93529 
L 323.199276 114.014453 
L 324.4449 114.575092 
L 326.747419 116.466989 
L 329.049937 117.615906 
L 330.220069 118.376481 
L 331.390202 118.998604 
L 333.730466 120.812377 
L 336.108477 122.667658 
L 337.278609 123.214603 
L 338.410995 123.984402 
L 339.618874 124.43495 
L 340.826752 125.005249 
L 345.469535 127.948398 
L 347.923038 129.388474 
L 349.017678 129.363325 
L 350.150064 130.089092 
L 352.603567 131.15092 
L 353.698207 131.927062 
L 354.906086 132.319534 
L 357.208604 134.146242 
L 358.454229 134.304135 
L 360.719001 135.370376 
L 361.889133 136.213416 
L 363.059266 136.406276 
L 364.30489 136.766575 
L 365.437276 137.371706 
L 366.607409 138.137314 
L 368.985419 139.99971 
L 370.155552 140.40971 
L 371.287938 141.275932 
L 373.628202 142.157825 
L 374.760588 141.805574 
L 376.006213 141.916062 
L 377.100853 141.835172 
L 378.346477 142.354862 
L 379.441117 142.381665 
L 380.913219 143.287844 
L 382.309829 143.859486 
L 383.5932 144.914023 
L 384.763332 145.299586 
L 386.008957 145.927979 
L 388.349221 146.17702 
L 389.519353 145.905855 
L 390.613993 145.812073 
L 391.821872 145.461515 
L 393.02975 145.770203 
L 395.294522 146.566126 
L 396.502401 147.006098 
L 397.710279 147.658696 
L 398.99365 148.076254 
L 399.975052 148.085497 
L 401.220676 147.535423 
L 402.428555 147.483828 
L 403.447702 147.094005 
L 404.731073 146.965211 
L 407.033591 146.469121 
L 408.165977 147.318715 
L 410.506242 147.831538 
L 411.827359 148.128471 
L 412.884253 148.044554 
L 414.054385 148.300597 
L 415.337756 148.416173 
L 416.39465 148.208724 
L 418.734914 147.421468 
L 420.018285 147.717634 
L 422.396296 147.622455 
L 423.453189 147.955691 
L 425.906693 148.11915 
L 426.963586 148.609628 
L 432.927486 147.823647 
L 434.059872 148.001194 
L 435.041274 147.759963 
L 437.608015 147.826701 
L 438.740401 148.224529 
L 439.94828 148.345162 
L 442.175306 146.822083 
L 443.458677 145.320992 
L 444.628809 144.288919 
L 445.798941 143.668863 
L 446.931327 142.080966 
L 448.139206 141.050557 
L 450.403978 139.380558 
L 451.762841 138.305594 
L 452.819735 136.839546 
L 454.06536 135.81231 
L 455.084507 134.794571 
L 456.594355 134.191148 
L 457.915472 133.857274 
L 459.085605 133.179559 
L 460.444468 132.637491 
L 464.030357 131.731723 
L 465.124997 130.891949 
L 466.370622 130.222503 
L 471.013405 125.54617 
L 472.221283 124.442895 
L 473.391415 123.752535 
L 474.523801 123.404267 
L 476.864066 123.612167 
L 480.487701 126.196977 
L 482.827966 128.400561 
L 484.035844 129.065008 
L 485.130484 129.427426 
L 486.074139 129.029341 
L 487.395256 128.813736 
L 488.640881 127.99189 
L 489.811013 126.915437 
L 490.943399 125.649415 
L 493.170425 122.783484 
L 493.170425 122.783484 
" clip-path="url(#pc5ac4bc39c)" style="fill: none; stroke: #ff7f0e; stroke-width: 2.5; stroke-linecap: square"/>
   </g>
   <g id="line2d_68">
    <path d="M 59.089097 291.205218 
L 59.089097 219.113892 
L 59.013605 232.95204 
L 58.975859 230.566737 
L 59.089097 232.60396 
L 59.391067 224.991269 
L 60.334722 221.291887 
L 61.957809 224.047974 
L 64.184835 223.077946 
L 66.449607 230.882887 
L 68.450155 229.949948 
L 70.148735 230.632087 
L 71.507598 238.630529 
L 72.715476 243.723748 
L 73.810116 243.470973 
L 74.904756 241.100402 
L 75.999396 232.775315 
L 77.094036 233.272344 
L 79.4343 225.195493 
L 80.642179 222.343096 
L 81.812311 220.339684 
L 83.057936 223.428585 
L 84.190322 224.114939 
L 85.360454 220.445096 
L 86.643825 222.561664 
L 87.88945 220.226488 
L 89.210567 220.835131 
L 90.456191 218.716143 
L 91.701816 216.281941 
L 92.909695 211.597473 
L 94.079827 209.547351 
L 95.287705 207.664451 
L 96.420091 205.367326 
L 97.62797 201.795862 
L 98.798102 199.758177 
L 100.043727 196.171807 
L 101.213859 193.593538 
L 102.383991 190.689127 
L 104.762002 186.959228 
L 105.932134 185.418825 
L 107.064521 182.236253 
L 110.688156 170.632273 
L 114.274045 163.197037 
L 116.576564 160.069658 
L 117.784442 157.343569 
L 120.08696 151.468866 
L 121.294839 149.007071 
L 122.464971 146.324853 
L 123.635103 144.288695 
L 126.013114 139.61023 
L 127.107754 138.002349 
L 130.655897 131.43382 
L 134.241786 125.871833 
L 137.865422 119.987565 
L 139.111046 118.496704 
L 141.489057 114.893305 
L 142.659189 113.111376 
L 145.0372 110.545046 
L 147.377465 108.044111 
L 153.228126 101.416238 
L 154.436005 99.894317 
L 156.738523 97.581796 
L 157.946401 96.564916 
L 161.494544 93.190294 
L 162.626931 92.19475 
L 165.004941 90.498635 
L 167.345206 88.531773 
L 169.723217 86.389233 
L 176.857249 78.758775 
L 178.027381 77.370186 
L 182.670164 72.821155 
L 185.010429 70.652931 
L 187.350693 68.53719 
L 188.483079 67.523748 
L 193.276847 64.259433 
L 196.82499 62.657375 
L 198.032868 62.330305 
L 199.203001 62.329997 
L 200.335387 62.55579 
L 201.543265 63.107652 
L 203.921276 64.742783 
L 205.091408 65.851002 
L 210.979816 72.183005 
L 214.452466 75.577245 
L 219.208488 79.351728 
L 221.511006 81.111601 
L 222.681139 81.994015 
L 223.889017 83.104149 
L 225.096896 84.049592 
L 227.43716 86.191615 
L 229.815171 88.15357 
L 236.873711 93.440951 
L 239.176229 94.927482 
L 241.516494 96.0061 
L 248.575033 98.752572 
L 250.953044 99.537418 
L 252.123177 100.163106 
L 253.293309 100.623592 
L 255.709066 101.986568 
L 256.879198 102.384704 
L 258.04933 102.95973 
L 259.181716 103.36209 
L 261.559727 104.476731 
L 262.692113 104.795715 
L 270.920785 108.334112 
L 272.053171 108.967026 
L 273.336542 109.525085 
L 274.468928 109.770578 
L 276.733701 110.559937 
L 277.979325 110.578941 
L 279.111711 110.239687 
L 281.527468 110.406407 
L 283.867733 110.754432 
L 284.962373 111.038478 
L 286.170251 111.198339 
L 288.586008 112.145525 
L 289.718394 112.259506 
L 290.926273 112.072808 
L 292.134151 112.300327 
L 297.984812 112.626057 
L 299.117199 113.025841 
L 302.665342 113.558886 
L 303.87322 114.047073 
L 305.043352 114.091081 
L 309.912612 115.057601 
L 312.290623 116.362589 
L 314.593142 117.729504 
L 315.725528 118.436983 
L 316.933406 118.890949 
L 318.028046 119.715587 
L 319.273671 120.176735 
L 321.651681 121.944062 
L 322.746321 123.248764 
L 325.124332 125.228163 
L 326.294464 125.973029 
L 328.634729 126.835152 
L 332.145126 129.298304 
L 334.48539 130.416241 
L 338.109026 132.460464 
L 339.279158 132.728943 
L 340.373798 133.737982 
L 341.506184 135.123878 
L 342.789555 136.319592 
L 345.016581 136.96755 
L 347.394591 138.262444 
L 348.640216 138.586721 
L 349.772602 139.1211 
L 350.904988 139.123477 
L 353.282999 139.836058 
L 354.453131 140.453105 
L 355.66101 140.725846 
L 356.831142 141.293887 
L 359.13366 142.719815 
L 361.473925 143.467217 
L 362.644057 143.970321 
L 363.81419 144.166024 
L 365.022068 144.713384 
L 366.154454 145.792877 
L 367.362333 146.658051 
L 368.570211 147.062476 
L 369.702597 147.319564 
L 370.834983 147.422543 
L 372.005115 147.171028 
L 373.212994 147.291018 
L 379.101402 149.672197 
L 380.422519 149.936238 
L 381.743636 150.46684 
L 384.310377 149.70071 
L 386.763881 149.358397 
L 387.896267 149.511569 
L 389.066399 149.001446 
L 390.236531 148.926303 
L 391.406664 149.093714 
L 392.463557 149.88407 
L 393.784674 150.053455 
L 394.91706 150.375795 
L 396.0117 150.866133 
L 397.219579 151.110895 
L 398.389711 151.465241 
L 399.597589 152.018122 
L 400.767722 152.111217 
L 401.900108 152.006329 
L 403.07024 151.776897 
L 404.315865 151.691804 
L 405.485997 151.239469 
L 406.580637 151.653984 
L 407.788515 151.634583 
L 409.03414 151.909519 
L 410.053288 152.537083 
L 412.544537 152.505482 
L 413.790162 152.235759 
L 414.960294 151.759786 
L 416.017188 151.200242 
L 418.395198 151.434258 
L 419.527584 150.718432 
L 420.735463 150.877265 
L 421.867849 150.883217 
L 423.037981 150.456688 
L 424.24586 150.519461 
L 425.642469 150.355824 
L 426.812601 150.005215 
L 427.831749 150.378832 
L 429.039627 150.376964 
L 430.134267 150.207669 
L 431.191161 149.382432 
L 433.720156 149.562739 
L 434.814796 149.957877 
L 436.022675 149.908732 
L 437.155061 149.297989 
L 438.438432 148.406968 
L 439.608564 146.949178 
L 443.043468 141.709776 
L 447.648505 138.52805 
L 448.89413 138.018667 
L 450.102008 137.660579 
L 451.272141 136.853254 
L 452.442273 136.659286 
L 453.499167 135.899474 
L 454.669299 135.404638 
L 457.500264 135.787254 
L 458.745889 135.357657 
L 461.086153 135.583861 
L 462.558255 136.072121 
L 463.766134 135.971558 
L 464.558804 135.624819 
L 465.69119 134.74757 
L 466.974561 134.13339 
L 468.220186 133.35543 
L 469.390318 132.38012 
L 470.56045 131.201729 
L 471.768329 130.913956 
L 472.976207 130.444088 
L 474.070847 130.723133 
L 475.240979 130.56218 
L 476.448858 130.666025 
L 477.656736 130.556137 
L 480.072493 131.452936 
L 481.167133 131.668184 
L 482.412758 132.812942 
L 483.58289 133.590137 
L 484.715276 133.926871 
L 485.923154 134.758872 
L 488.225673 134.666747 
L 489.433551 134.225271 
L 493.774365 131.982022 
L 493.774365 131.982022 
" clip-path="url(#pc5ac4bc39c)" style="fill: none; stroke: #9467bd; stroke-width: 2.5; stroke-linecap: square"/>
   </g>
   <g id="line2d_69">
    <path d="M 60.108245 251.52514 
L 60.032752 222.612699 
L 60.032752 234.991276 
L 59.95726 234.94326 
L 60.070498 238.511224 
L 60.598945 237.671851 
L 61.731331 235.352464 
L 63.505403 238.818583 
L 65.694683 236.185288 
L 67.846216 235.906313 
L 69.733526 230.086924 
L 71.318867 226.175958 
L 72.67773 219.356348 
L 73.847862 220.361551 
L 74.942502 220.00912 
L 75.999396 221.785161 
L 78.264168 230.044917 
L 79.358808 231.552156 
L 80.566686 239.195581 
L 81.774565 239.606377 
L 82.944697 232.996698 
L 84.190322 227.978576 
L 85.3982 222.523514 
L 86.681571 220.125419 
L 87.964942 222.258252 
L 90.531684 218.186276 
L 91.777309 219.004757 
L 92.947441 223.098094 
L 94.155319 218.725868 
L 95.287705 215.624579 
L 96.457838 214.959624 
L 97.62797 209.043073 
L 98.835848 206.956018 
L 100.005981 206.446767 
L 101.213859 202.583582 
L 103.59187 197.527944 
L 105.932134 191.56052 
L 107.102267 189.858264 
L 108.272399 187.251282 
L 109.442531 183.887353 
L 111.782796 178.735372 
L 112.990674 174.666708 
L 114.160807 171.356776 
L 116.501071 164.334448 
L 121.219346 153.240085 
L 122.389479 150.846879 
L 124.729743 144.783475 
L 125.937622 142.334697 
L 127.070008 139.282507 
L 130.618151 130.984101 
L 134.20404 124.240979 
L 140.205686 114.687734 
L 142.508205 110.731431 
L 143.753829 109.062959 
L 144.961708 107.195578 
L 146.13184 105.6101 
L 147.339719 104.282976 
L 149.717729 101.419151 
L 150.925608 100.375953 
L 153.228126 97.921013 
L 157.984148 93.130465 
L 159.15428 92.26162 
L 162.664677 89.221586 
L 168.553084 83.853484 
L 173.233613 78.824864 
L 179.122021 71.175324 
L 184.972682 63.149326 
L 188.520825 59.138935 
L 192.031222 55.353041 
L 194.446979 53.230762 
L 195.73035 52.346626 
L 196.900482 51.836233 
L 198.032868 51.656443 
L 199.240747 51.786066 
L 200.410879 52.306442 
L 201.618758 53.295373 
L 202.751144 54.520154 
L 206.299287 59.947605 
L 208.601805 63.748581 
L 210.94207 66.81663 
L 213.32008 69.282689 
L 215.698091 71.146473 
L 216.830477 71.814812 
L 218.038356 72.814602 
L 221.548753 75.401487 
L 222.718885 76.545897 
L 225.059149 79.252215 
L 229.777425 84.530002 
L 230.947557 85.380416 
L 233.287822 86.510946 
L 238.043843 88.636082 
L 239.213975 89.231271 
L 240.384108 90.251658 
L 241.516494 91.014378 
L 242.724372 91.988786 
L 245.064637 93.24184 
L 246.234769 93.649118 
L 249.782912 95.345274 
L 250.953044 95.686038 
L 254.425695 97.226124 
L 255.633573 97.391761 
L 257.973838 97.99352 
L 259.14397 98.490565 
L 262.616621 98.941908 
L 265.032378 99.778946 
L 266.240256 100.169202 
L 267.334896 100.652598 
L 269.712907 101.32353 
L 270.883039 101.92851 
L 273.223304 102.232203 
L 274.35569 102.075828 
L 276.771447 102.424116 
L 279.111711 102.874292 
L 280.244097 102.893709 
L 281.451976 103.266701 
L 282.622108 103.879311 
L 285.037865 104.38958 
L 286.207997 104.268139 
L 287.340383 104.477551 
L 288.472769 104.481731 
L 289.680648 104.644196 
L 291.94542 104.428074 
L 296.701442 105.876353 
L 301.419717 106.894298 
L 303.797728 107.707378 
L 305.005606 108.409566 
L 307.496856 109.233519 
L 308.704734 109.986548 
L 309.83712 110.312338 
L 313.234278 112.068046 
L 314.479903 113.364416 
L 315.650035 114.419179 
L 316.857914 115.220559 
L 318.028046 115.841552 
L 319.235924 116.641695 
L 320.406057 117.263768 
L 321.613935 117.6272 
L 322.746321 118.661896 
L 323.9542 119.027082 
L 329.842607 123.282907 
L 332.182872 124.789977 
L 333.277512 125.586735 
L 334.560883 126.663405 
L 335.655523 126.906166 
L 336.825655 127.434075 
L 337.995787 127.803388 
L 339.165919 128.439025 
L 340.373798 129.423172 
L 341.619423 130.01688 
L 342.714062 130.928259 
L 343.846448 132.112329 
L 345.167566 133.215593 
L 346.262205 133.973616 
L 348.640216 134.257145 
L 350.980481 134.84331 
L 352.075121 135.498595 
L 353.282999 135.691411 
L 354.453131 136.056803 
L 355.585517 136.895456 
L 356.831142 137.61402 
L 358.001274 137.614461 
L 359.095914 137.796297 
L 361.473925 138.905204 
L 362.644057 139.645989 
L 363.81419 139.769784 
L 365.059814 140.117589 
L 366.1922 140.730921 
L 367.362333 141.169958 
L 369.740343 141.215999 
L 373.212994 142.577653 
L 374.420872 143.175853 
L 375.553259 143.005745 
L 376.723391 143.467389 
L 378.006762 143.768357 
L 379.063655 143.452723 
L 381.781382 143.471823 
L 383.102499 144.043672 
L 386.726134 144.410971 
L 389.066399 145.040768 
L 390.198785 144.948805 
L 392.53905 145.629048 
L 393.746928 145.488752 
L 394.91706 145.909746 
L 396.049446 146.144473 
L 397.219579 146.150004 
L 400.805468 146.771028 
L 403.107986 146.398412 
L 404.315865 145.989913 
L 406.693876 145.695544 
L 407.788515 145.90132 
L 409.071886 145.948998 
L 411.336658 146.569558 
L 412.544537 147.186444 
L 413.714669 147.114476 
L 414.884801 146.737488 
L 417.262812 147.30251 
L 418.357452 146.975308 
L 419.678569 146.826479 
L 420.65997 146.853969 
L 421.905595 147.200075 
L 423.188966 147.32502 
L 425.453738 146.911638 
L 426.888094 146.837601 
L 427.944988 146.950634 
L 429.077374 146.768198 
L 431.266653 145.455487 
L 432.512278 145.113542 
L 434.852543 144.098248 
L 435.909436 143.339966 
L 438.325193 142.599931 
L 440.74095 140.941333 
L 443.005722 137.971254 
L 444.251347 137.302192 
L 445.459225 136.123283 
L 446.553865 135.318244 
L 447.686251 134.653896 
L 448.856384 134.299216 
L 450.064262 134.127197 
L 452.404527 134.169859 
L 453.612405 133.711073 
L 454.669299 133.753882 
L 456.065908 133.94497 
L 457.500264 133.703136 
L 458.670396 133.120779 
L 459.953767 132.905145 
L 464.89852 130.107788 
L 465.842175 128.915854 
L 468.031455 126.939845 
L 469.314825 126.617915 
L 470.484958 126.202793 
L 472.938461 127.836875 
L 475.203233 130.096782 
L 476.335619 131.836687 
L 478.751376 133.887991 
L 481.129387 135.322932 
L 482.337265 135.576349 
L 483.356413 136.322691 
L 484.753022 136.680386 
L 485.998647 136.507655 
L 487.206525 135.87341 
L 488.112434 135.849153 
L 490.603684 134.645961 
L 491.811562 133.817234 
L 492.717471 132.8598 
L 493.887603 131.791376 
L 493.887603 131.791376 
" clip-path="url(#pc5ac4bc39c)" style="fill: none; stroke: #2ca02c; stroke-width: 2.5; stroke-linecap: square"/>
   </g>
   <g id="patch_3">
    <path d="M 60.598945 303.182656 
L 60.598945 39.679004 
" style="fill: none; stroke: #000000; stroke-width: 1.5; stroke-linejoin: miter; stroke-linecap: square"/>
   </g>
   <g id="patch_4">
    <path d="M 60.598945 303.182656 
L 494.680273 303.182656 
" style="fill: none; stroke: #000000; stroke-width: 1.5; stroke-linejoin: miter; stroke-linecap: square"/>
   </g>
   <g id="text_14">
    <!-- 1421_wo_HF -->
    <g transform="translate(236.004922 18.441699) scale(0.14 -0.14)">
     <defs>
      <path id="ArialMT-42" d="M -97 -1272 
L -97 -866 
L 3631 -866 
L 3631 -1272 
L -97 -1272 
z
" transform="scale(0.015625)"/>
      <path id="ArialMT-5a" d="M 1034 0 
L 19 3319 
L 600 3319 
L 1128 1403 
L 1325 691 
Q 1338 744 1497 1375 
L 2025 3319 
L 2603 3319 
L 3100 1394 
L 3266 759 
L 3456 1400 
L 4025 3319 
L 4572 3319 
L 3534 0 
L 2950 0 
L 2422 1988 
L 2294 2553 
L 1622 0 
L 1034 0 
z
" transform="scale(0.015625)"/>
      <path id="ArialMT-2b" d="M 513 0 
L 513 4581 
L 1119 4581 
L 1119 2700 
L 3500 2700 
L 3500 4581 
L 4106 4581 
L 4106 0 
L 3500 0 
L 3500 2159 
L 1119 2159 
L 1119 0 
L 513 0 
z
" transform="scale(0.015625)"/>
      <path id="ArialMT-29" d="M 525 0 
L 525 4581 
L 3616 4581 
L 3616 4041 
L 1131 4041 
L 1131 2622 
L 3281 2622 
L 3281 2081 
L 1131 2081 
L 1131 0 
L 525 0 
z
" transform="scale(0.015625)"/>
     </defs>
     <use xlink:href="#ArialMT-14"/>
     <use xlink:href="#ArialMT-17" transform="translate(55.609375 0)"/>
     <use xlink:href="#ArialMT-15" transform="translate(111.21875 0)"/>
     <use xlink:href="#ArialMT-14" transform="translate(166.828125 0)"/>
     <use xlink:href="#ArialMT-42" transform="translate(222.4375 0)"/>
     <use xlink:href="#ArialMT-5a" transform="translate(278.046875 0)"/>
     <use xlink:href="#ArialMT-52" transform="translate(350.265625 0)"/>
     <use xlink:href="#ArialMT-42" transform="translate(405.875 0)"/>
     <use xlink:href="#ArialMT-2b" transform="translate(461.484375 0)"/>
     <use xlink:href="#ArialMT-29" transform="translate(533.703125 0)"/>
    </g>
    <!-- m/z 18 -->
    <g transform="translate(256.634141 33.679004) scale(0.14 -0.14)">
     <use xlink:href="#ArialMT-50"/>
     <use xlink:href="#ArialMT-12" transform="translate(83.296875 0)"/>
     <use xlink:href="#ArialMT-5d" transform="translate(111.078125 0)"/>
     <use xlink:href="#ArialMT-3" transform="translate(161.078125 0)"/>
     <use xlink:href="#ArialMT-14" transform="translate(188.859375 0)"/>
     <use xlink:href="#ArialMT-1b" transform="translate(244.46875 0)"/>
    </g>
   </g>
   <g id="legend_1">
    <g id="line2d_70">
     <path d="M 512.3619 52.459277 
L 522.3619 52.459277 
L 532.3619 52.459277 
" style="fill: none; stroke: #000000; stroke-width: 2.5; stroke-linecap: square"/>
    </g>
    <g id="text_15">
     <!-- 0 h -->
     <g transform="translate(540.3619 55.959277) scale(0.1 -0.1)">
      <defs>
       <path id="ArialMT-4b" d="M 422 0 
L 422 4581 
L 984 4581 
L 984 2938 
Q 1378 3394 1978 3394 
Q 2347 3394 2619 3248 
Q 2891 3103 3008 2847 
Q 3125 2591 3125 2103 
L 3125 0 
L 2563 0 
L 2563 2103 
Q 2563 2525 2380 2717 
Q 2197 2909 1863 2909 
Q 1613 2909 1392 2779 
Q 1172 2650 1078 2428 
Q 984 2206 984 1816 
L 984 0 
L 422 0 
z
" transform="scale(0.015625)"/>
      </defs>
      <use xlink:href="#ArialMT-13"/>
      <use xlink:href="#ArialMT-3" transform="translate(55.609375 0)"/>
      <use xlink:href="#ArialMT-4b" transform="translate(83.390625 0)"/>
     </g>
    </g>
    <g id="line2d_71">
     <path d="M 512.3619 66.844043 
L 522.3619 66.844043 
L 532.3619 66.844043 
" style="fill: none; stroke: #1f77b4; stroke-width: 2.5; stroke-linecap: square"/>
    </g>
    <g id="text_16">
     <!-- 6 h -->
     <g transform="translate(540.3619 70.344043) scale(0.1 -0.1)">
      <use xlink:href="#ArialMT-19"/>
      <use xlink:href="#ArialMT-3" transform="translate(55.609375 0)"/>
      <use xlink:href="#ArialMT-4b" transform="translate(83.390625 0)"/>
     </g>
    </g>
    <g id="line2d_72">
     <path d="M 512.3619 81.228809 
L 522.3619 81.228809 
L 532.3619 81.228809 
" style="fill: none; stroke: #d62728; stroke-width: 2.5; stroke-linecap: square"/>
    </g>
    <g id="text_17">
     <!-- 24 h -->
     <g transform="translate(540.3619 84.728809) scale(0.1 -0.1)">
      <use xlink:href="#ArialMT-15"/>
      <use xlink:href="#ArialMT-17" transform="translate(55.609375 0)"/>
      <use xlink:href="#ArialMT-3" transform="translate(111.21875 0)"/>
      <use xlink:href="#ArialMT-4b" transform="translate(139 0)"/>
     </g>
    </g>
    <g id="line2d_73">
     <path d="M 512.3619 95.613574 
L 522.3619 95.613574 
L 532.3619 95.613574 
" style="fill: none; stroke: #ff7f0e; stroke-width: 2.5; stroke-linecap: square"/>
    </g>
    <g id="text_18">
     <!-- 7 d -->
     <g transform="translate(540.3619 99.113574) scale(0.1 -0.1)">
      <defs>
       <path id="ArialMT-1a" d="M 303 3981 
L 303 4522 
L 3269 4522 
L 3269 4084 
Q 2831 3619 2401 2847 
Q 1972 2075 1738 1259 
Q 1569 684 1522 0 
L 944 0 
Q 953 541 1156 1306 
Q 1359 2072 1739 2783 
Q 2119 3494 2547 3981 
L 303 3981 
z
" transform="scale(0.015625)"/>
       <path id="ArialMT-47" d="M 2575 0 
L 2575 419 
Q 2259 -75 1647 -75 
Q 1250 -75 917 144 
Q 584 363 401 755 
Q 219 1147 219 1656 
Q 219 2153 384 2558 
Q 550 2963 881 3178 
Q 1213 3394 1622 3394 
Q 1922 3394 2156 3267 
Q 2391 3141 2538 2938 
L 2538 4581 
L 3097 4581 
L 3097 0 
L 2575 0 
z
M 797 1656 
Q 797 1019 1065 703 
Q 1334 388 1700 388 
Q 2069 388 2326 689 
Q 2584 991 2584 1609 
Q 2584 2291 2321 2609 
Q 2059 2928 1675 2928 
Q 1300 2928 1048 2622 
Q 797 2316 797 1656 
z
" transform="scale(0.015625)"/>
      </defs>
      <use xlink:href="#ArialMT-1a"/>
      <use xlink:href="#ArialMT-3" transform="translate(55.609375 0)"/>
      <use xlink:href="#ArialMT-47" transform="translate(83.390625 0)"/>
     </g>
    </g>
    <g id="line2d_74">
     <path d="M 512.3619 109.99834 
L 522.3619 109.99834 
L 532.3619 109.99834 
" style="fill: none; stroke: #9467bd; stroke-width: 2.5; stroke-linecap: square"/>
    </g>
    <g id="text_19">
     <!-- 14 d -->
     <g transform="translate(540.3619 113.49834) scale(0.1 -0.1)">
      <use xlink:href="#ArialMT-14"/>
      <use xlink:href="#ArialMT-17" transform="translate(55.609375 0)"/>
      <use xlink:href="#ArialMT-3" transform="translate(111.21875 0)"/>
      <use xlink:href="#ArialMT-47" transform="translate(139 0)"/>
     </g>
    </g>
    <g id="line2d_75">
     <path d="M 512.3619 124.383105 
L 522.3619 124.383105 
L 532.3619 124.383105 
" style="fill: none; stroke: #2ca02c; stroke-width: 2.5; stroke-linecap: square"/>
    </g>
    <g id="text_20">
     <!-- 28 d -->
     <g transform="translate(540.3619 127.883105) scale(0.1 -0.1)">
      <use xlink:href="#ArialMT-15"/>
      <use xlink:href="#ArialMT-1b" transform="translate(55.609375 0)"/>
      <use xlink:href="#ArialMT-3" transform="translate(111.21875 0)"/>
      <use xlink:href="#ArialMT-47" transform="translate(139 0)"/>
     </g>
    </g>
   </g>
  </g>
 </g>
 <defs>
  <clipPath id="pc5ac4bc39c">
   <rect x="60.598945" y="39.679004" width="434.081328" height="263.503652"/>
  </clipPath>
 </defs>
</svg>
