<?xml version="1.0" encoding="utf-8" standalone="no"?>
<!DOCTYPE svg PUBLIC "-//W3C//DTD SVG 1.1//EN"
  "http://www.w3.org/Graphics/SVG/1.1/DTD/svg11.dtd">
<svg xmlns:xlink="http://www.w3.org/1999/xlink" width="571.022837pt" height="344.160273pt" viewBox="0 0 571.022837 344.160273" xmlns="http://www.w3.org/2000/svg" version="1.1">
 <metadata>
  <rdf:RDF xmlns:dc="http://purl.org/dc/elements/1.1/" xmlns:cc="http://creativecommons.org/ns#" xmlns:rdf="http://www.w3.org/1999/02/22-rdf-syntax-ns#">
   <cc:Work>
    <dc:type rdf:resource="http://purl.org/dc/dcmitype/StillImage"/>
    <dc:date>2026-07-10T11:48:49.306782</dc:date>
    <dc:format>image/svg+xml</dc:format>
    <dc:creator>
     <cc:Agent>
      <dc:title>Matplotlib v3.11.0, https://matplotlib.org/</dc:title>
     </cc:Agent>
    </dc:creator>
   </cc:Work>
  </rdf:RDF>
 </metadata>
 <defs>
  <style type="text/css">*{stroke-linejoin: round; stroke-linecap: butt}</style>
 </defs>
 <g id="figure_1">
  <g id="patch_1">
   <path d="M 0 344.160273 
L 571.022837 344.160273 
L 571.022837 0 
L 0 0 
z
" style="fill: #ffffff"/>
  </g>
  <g id="axes_1">
   <g id="patch_2">
    <path d="M 60.598945 303.182656 
L 494.680273 303.182656 
L 494.680273 39.679004 
L 60.598945 39.679004 
z
" style="fill: #ffffff"/>
   </g>
   <g id="matplotlib.axis_1">
    <g id="xtick_1">
     <g id="line2d_1">
      <defs>
       <path id="mfbb272dddc" d="M 0 0 
L 0 -6 
" style="stroke: #000000; stroke-width: 0.8"/>
      </defs>
      <g>
       <use xlink:href="#mfbb272dddc" x="117.218249" y="303.182656" style="stroke: #000000; stroke-width: 0.8"/>
      </g>
     </g>
     <g id="text_1">
      <!-- 200 -->
      <g transform="translate(105.54028 316.875039) scale(0.14 -0.14)">
       <defs>
        <path id="ArialMT-15" d="M 3222 541 
L 3222 0 
L 194 0 
Q 188 203 259 391 
Q 375 700 629 1000 
Q 884 1300 1366 1694 
Q 2113 2306 2375 2664 
Q 2638 3022 2638 3341 
Q 2638 3675 2398 3904 
Q 2159 4134 1775 4134 
Q 1369 4134 1125 3890 
Q 881 3647 878 3216 
L 300 3275 
Q 359 3922 746 4261 
Q 1134 4600 1788 4600 
Q 2447 4600 2831 4234 
Q 3216 3869 3216 3328 
Q 3216 3053 3103 2787 
Q 2991 2522 2730 2228 
Q 2469 1934 1863 1422 
Q 1356 997 1212 845 
Q 1069 694 975 541 
L 3222 541 
z
" transform="scale(0.015625)"/>
        <path id="ArialMT-13" d="M 266 2259 
Q 266 3072 433 3567 
Q 600 4063 929 4331 
Q 1259 4600 1759 4600 
Q 2128 4600 2406 4451 
Q 2684 4303 2865 4023 
Q 3047 3744 3150 3342 
Q 3253 2941 3253 2259 
Q 3253 1453 3087 958 
Q 2922 463 2592 192 
Q 2263 -78 1759 -78 
Q 1097 -78 719 397 
Q 266 969 266 2259 
z
M 844 2259 
Q 844 1131 1108 757 
Q 1372 384 1759 384 
Q 2147 384 2411 759 
Q 2675 1134 2675 2259 
Q 2675 3391 2411 3762 
Q 2147 4134 1753 4134 
Q 1366 4134 1134 3806 
Q 844 3388 844 2259 
z
" transform="scale(0.015625)"/>
       </defs>
       <use xlink:href="#ArialMT-15"/>
       <use xlink:href="#ArialMT-13" transform="translate(55.609375 0)"/>
       <use xlink:href="#ArialMT-13" transform="translate(111.21875 0)"/>
      </g>
     </g>
    </g>
    <g id="xtick_2">
     <g id="line2d_2">
      <g>
       <use xlink:href="#mfbb272dddc" x="192.710654" y="303.182656" style="stroke: #000000; stroke-width: 0.8"/>
      </g>
     </g>
     <g id="text_2">
      <!-- 400 -->
      <g transform="translate(181.032685 316.875039) scale(0.14 -0.14)">
       <defs>
        <path id="ArialMT-17" d="M 2069 0 
L 2069 1097 
L 81 1097 
L 81 1613 
L 2172 4581 
L 2631 4581 
L 2631 1613 
L 3250 1613 
L 3250 1097 
L 2631 1097 
L 2631 0 
L 2069 0 
z
M 2069 1613 
L 2069 3678 
L 634 1613 
L 2069 1613 
z
" transform="scale(0.015625)"/>
       </defs>
       <use xlink:href="#ArialMT-17"/>
       <use xlink:href="#ArialMT-13" transform="translate(55.609375 0)"/>
       <use xlink:href="#ArialMT-13" transform="translate(111.21875 0)"/>
      </g>
     </g>
    </g>
    <g id="xtick_3">
     <g id="line2d_3">
      <g>
       <use xlink:href="#mfbb272dddc" x="268.203059" y="303.182656" style="stroke: #000000; stroke-width: 0.8"/>
      </g>
     </g>
     <g id="text_3">
      <!-- 600 -->
      <g transform="translate(256.52509 316.875039) scale(0.14 -0.14)">
       <defs>
        <path id="ArialMT-19" d="M 3184 3459 
L 2625 3416 
Q 2550 3747 2413 3897 
Q 2184 4138 1850 4138 
Q 1581 4138 1378 3988 
Q 1113 3794 959 3422 
Q 806 3050 800 2363 
Q 1003 2672 1297 2822 
Q 1591 2972 1913 2972 
Q 2475 2972 2870 2558 
Q 3266 2144 3266 1488 
Q 3266 1056 3080 686 
Q 2894 316 2569 119 
Q 2244 -78 1831 -78 
Q 1128 -78 684 439 
Q 241 956 241 2144 
Q 241 3472 731 4075 
Q 1159 4600 1884 4600 
Q 2425 4600 2770 4297 
Q 3116 3994 3184 3459 
z
M 888 1484 
Q 888 1194 1011 928 
Q 1134 663 1356 523 
Q 1578 384 1822 384 
Q 2178 384 2434 671 
Q 2691 959 2691 1453 
Q 2691 1928 2437 2201 
Q 2184 2475 1800 2475 
Q 1419 2475 1153 2201 
Q 888 1928 888 1484 
z
" transform="scale(0.015625)"/>
       </defs>
       <use xlink:href="#ArialMT-19"/>
       <use xlink:href="#ArialMT-13" transform="translate(55.609375 0)"/>
       <use xlink:href="#ArialMT-13" transform="translate(111.21875 0)"/>
      </g>
     </g>
    </g>
    <g id="xtick_4">
     <g id="line2d_4">
      <g>
       <use xlink:href="#mfbb272dddc" x="343.695464" y="303.182656" style="stroke: #000000; stroke-width: 0.8"/>
      </g>
     </g>
     <g id="text_4">
      <!-- 800 -->
      <g transform="translate(332.017495 316.875039) scale(0.14 -0.14)">
       <defs>
        <path id="ArialMT-1b" d="M 1131 2484 
Q 781 2613 612 2850 
Q 444 3088 444 3419 
Q 444 3919 803 4259 
Q 1163 4600 1759 4600 
Q 2359 4600 2725 4251 
Q 3091 3903 3091 3403 
Q 3091 3084 2923 2848 
Q 2756 2613 2416 2484 
Q 2838 2347 3058 2040 
Q 3278 1734 3278 1309 
Q 3278 722 2862 322 
Q 2447 -78 1769 -78 
Q 1091 -78 675 323 
Q 259 725 259 1325 
Q 259 1772 486 2073 
Q 713 2375 1131 2484 
z
M 1019 3438 
Q 1019 3113 1228 2906 
Q 1438 2700 1772 2700 
Q 2097 2700 2305 2904 
Q 2513 3109 2513 3406 
Q 2513 3716 2298 3927 
Q 2084 4138 1766 4138 
Q 1444 4138 1231 3931 
Q 1019 3725 1019 3438 
z
M 838 1322 
Q 838 1081 952 856 
Q 1066 631 1291 507 
Q 1516 384 1775 384 
Q 2178 384 2440 643 
Q 2703 903 2703 1303 
Q 2703 1709 2433 1975 
Q 2163 2241 1756 2241 
Q 1359 2241 1098 1978 
Q 838 1716 838 1322 
z
" transform="scale(0.015625)"/>
       </defs>
       <use xlink:href="#ArialMT-1b"/>
       <use xlink:href="#ArialMT-13" transform="translate(55.609375 0)"/>
       <use xlink:href="#ArialMT-13" transform="translate(111.21875 0)"/>
      </g>
     </g>
    </g>
    <g id="xtick_5">
     <g id="line2d_5">
      <g>
       <use xlink:href="#mfbb272dddc" x="419.187869" y="303.182656" style="stroke: #000000; stroke-width: 0.8"/>
      </g>
     </g>
     <g id="text_5">
      <!-- 1000 -->
      <g transform="translate(403.617244 316.875039) scale(0.14 -0.14)">
       <defs>
        <path id="ArialMT-14" d="M 2384 0 
L 1822 0 
L 1822 3584 
Q 1619 3391 1289 3197 
Q 959 3003 697 2906 
L 697 3450 
Q 1169 3672 1522 3987 
Q 1875 4303 2022 4600 
L 2384 4600 
L 2384 0 
z
" transform="scale(0.015625)"/>
       </defs>
       <use xlink:href="#ArialMT-14"/>
       <use xlink:href="#ArialMT-13" transform="translate(55.609375 0)"/>
       <use xlink:href="#ArialMT-13" transform="translate(111.21875 0)"/>
       <use xlink:href="#ArialMT-13" transform="translate(166.828125 0)"/>
      </g>
     </g>
    </g>
    <g id="xtick_6">
     <g id="line2d_6">
      <g>
       <use xlink:href="#mfbb272dddc" x="494.680273" y="303.182656" style="stroke: #000000; stroke-width: 0.8"/>
      </g>
     </g>
     <g id="text_6">
      <!-- 1200 -->
      <g transform="translate(479.109648 316.875039) scale(0.14 -0.14)">
       <use xlink:href="#ArialMT-14"/>
       <use xlink:href="#ArialMT-15" transform="translate(55.609375 0)"/>
       <use xlink:href="#ArialMT-13" transform="translate(111.21875 0)"/>
       <use xlink:href="#ArialMT-13" transform="translate(166.828125 0)"/>
      </g>
     </g>
    </g>
    <g id="xtick_7">
     <g id="line2d_7">
      <defs>
       <path id="m65697c8e5f" d="M 0 0 
L 0 -3 
" style="stroke: #000000; stroke-width: 0.6"/>
      </defs>
      <g>
       <use xlink:href="#m65697c8e5f" x="60.598945" y="303.182656" style="stroke: #000000; stroke-width: 0.6"/>
      </g>
     </g>
    </g>
    <g id="xtick_8">
     <g id="line2d_8">
      <g>
       <use xlink:href="#m65697c8e5f" x="79.472047" y="303.182656" style="stroke: #000000; stroke-width: 0.6"/>
      </g>
     </g>
    </g>
    <g id="xtick_9">
     <g id="line2d_9">
      <g>
       <use xlink:href="#m65697c8e5f" x="98.345148" y="303.182656" style="stroke: #000000; stroke-width: 0.6"/>
      </g>
     </g>
    </g>
    <g id="xtick_10">
     <g id="line2d_10">
      <g>
       <use xlink:href="#m65697c8e5f" x="136.09135" y="303.182656" style="stroke: #000000; stroke-width: 0.6"/>
      </g>
     </g>
    </g>
    <g id="xtick_11">
     <g id="line2d_11">
      <g>
       <use xlink:href="#m65697c8e5f" x="154.964451" y="303.182656" style="stroke: #000000; stroke-width: 0.6"/>
      </g>
     </g>
    </g>
    <g id="xtick_12">
     <g id="line2d_12">
      <g>
       <use xlink:href="#m65697c8e5f" x="173.837553" y="303.182656" style="stroke: #000000; stroke-width: 0.6"/>
      </g>
     </g>
    </g>
    <g id="xtick_13">
     <g id="line2d_13">
      <g>
       <use xlink:href="#m65697c8e5f" x="211.583755" y="303.182656" style="stroke: #000000; stroke-width: 0.6"/>
      </g>
     </g>
    </g>
    <g id="xtick_14">
     <g id="line2d_14">
      <g>
       <use xlink:href="#m65697c8e5f" x="230.456856" y="303.182656" style="stroke: #000000; stroke-width: 0.6"/>
      </g>
     </g>
    </g>
    <g id="xtick_15">
     <g id="line2d_15">
      <g>
       <use xlink:href="#m65697c8e5f" x="249.329958" y="303.182656" style="stroke: #000000; stroke-width: 0.6"/>
      </g>
     </g>
    </g>
    <g id="xtick_16">
     <g id="line2d_16">
      <g>
       <use xlink:href="#m65697c8e5f" x="287.07616" y="303.182656" style="stroke: #000000; stroke-width: 0.6"/>
      </g>
     </g>
    </g>
    <g id="xtick_17">
     <g id="line2d_17">
      <g>
       <use xlink:href="#m65697c8e5f" x="305.949261" y="303.182656" style="stroke: #000000; stroke-width: 0.6"/>
      </g>
     </g>
    </g>
    <g id="xtick_18">
     <g id="line2d_18">
      <g>
       <use xlink:href="#m65697c8e5f" x="324.822362" y="303.182656" style="stroke: #000000; stroke-width: 0.6"/>
      </g>
     </g>
    </g>
    <g id="xtick_19">
     <g id="line2d_19">
      <g>
       <use xlink:href="#m65697c8e5f" x="362.568565" y="303.182656" style="stroke: #000000; stroke-width: 0.6"/>
      </g>
     </g>
    </g>
    <g id="xtick_20">
     <g id="line2d_20">
      <g>
       <use xlink:href="#m65697c8e5f" x="381.441666" y="303.182656" style="stroke: #000000; stroke-width: 0.6"/>
      </g>
     </g>
    </g>
    <g id="xtick_21">
     <g id="line2d_21">
      <g>
       <use xlink:href="#m65697c8e5f" x="400.314767" y="303.182656" style="stroke: #000000; stroke-width: 0.6"/>
      </g>
     </g>
    </g>
    <g id="xtick_22">
     <g id="line2d_22">
      <g>
       <use xlink:href="#m65697c8e5f" x="438.06097" y="303.182656" style="stroke: #000000; stroke-width: 0.6"/>
      </g>
     </g>
    </g>
    <g id="xtick_23">
     <g id="line2d_23">
      <g>
       <use xlink:href="#m65697c8e5f" x="456.934071" y="303.182656" style="stroke: #000000; stroke-width: 0.6"/>
      </g>
     </g>
    </g>
    <g id="xtick_24">
     <g id="line2d_24">
      <g>
       <use xlink:href="#m65697c8e5f" x="475.807172" y="303.182656" style="stroke: #000000; stroke-width: 0.6"/>
      </g>
     </g>
    </g>
    <g id="text_7">
     <!-- T1 Temperature (°C) -->
     <g transform="translate(213.900234 334.013711) scale(0.14 -0.14)">
      <defs>
       <path id="ArialMT-37" d="M 1659 0 
L 1659 4041 
L 150 4041 
L 150 4581 
L 3781 4581 
L 3781 4041 
L 2266 4041 
L 2266 0 
L 1659 0 
z
" transform="scale(0.015625)"/>
       <path id="ArialMT-3" transform="scale(0.015625)"/>
       <path id="ArialMT-48" d="M 2694 1069 
L 3275 997 
Q 3138 488 2766 206 
Q 2394 -75 1816 -75 
Q 1088 -75 661 373 
Q 234 822 234 1631 
Q 234 2469 665 2931 
Q 1097 3394 1784 3394 
Q 2450 3394 2872 2941 
Q 3294 2488 3294 1666 
Q 3294 1616 3291 1516 
L 816 1516 
Q 847 969 1125 678 
Q 1403 388 1819 388 
Q 2128 388 2347 550 
Q 2566 713 2694 1069 
z
M 847 1978 
L 2700 1978 
Q 2663 2397 2488 2606 
Q 2219 2931 1791 2931 
Q 1403 2931 1139 2672 
Q 875 2413 847 1978 
z
" transform="scale(0.015625)"/>
       <path id="ArialMT-50" d="M 422 0 
L 422 3319 
L 925 3319 
L 925 2853 
Q 1081 3097 1340 3245 
Q 1600 3394 1931 3394 
Q 2300 3394 2536 3241 
Q 2772 3088 2869 2813 
Q 3263 3394 3894 3394 
Q 4388 3394 4653 3120 
Q 4919 2847 4919 2278 
L 4919 0 
L 4359 0 
L 4359 2091 
Q 4359 2428 4304 2576 
Q 4250 2725 4106 2815 
Q 3963 2906 3769 2906 
Q 3419 2906 3187 2673 
Q 2956 2441 2956 1928 
L 2956 0 
L 2394 0 
L 2394 2156 
Q 2394 2531 2256 2718 
Q 2119 2906 1806 2906 
Q 1569 2906 1367 2781 
Q 1166 2656 1075 2415 
Q 984 2175 984 1722 
L 984 0 
L 422 0 
z
" transform="scale(0.015625)"/>
       <path id="ArialMT-53" d="M 422 -1272 
L 422 3319 
L 934 3319 
L 934 2888 
Q 1116 3141 1344 3267 
Q 1572 3394 1897 3394 
Q 2322 3394 2647 3175 
Q 2972 2956 3137 2557 
Q 3303 2159 3303 1684 
Q 3303 1175 3120 767 
Q 2938 359 2589 142 
Q 2241 -75 1856 -75 
Q 1575 -75 1351 44 
Q 1128 163 984 344 
L 984 -1272 
L 422 -1272 
z
M 931 1641 
Q 931 1000 1190 694 
Q 1450 388 1819 388 
Q 2194 388 2461 705 
Q 2728 1022 2728 1688 
Q 2728 2322 2467 2637 
Q 2206 2953 1844 2953 
Q 1484 2953 1207 2617 
Q 931 2281 931 1641 
z
" transform="scale(0.015625)"/>
       <path id="ArialMT-55" d="M 416 0 
L 416 3319 
L 922 3319 
L 922 2816 
Q 1116 3169 1280 3281 
Q 1444 3394 1641 3394 
Q 1925 3394 2219 3213 
L 2025 2691 
Q 1819 2813 1613 2813 
Q 1428 2813 1281 2702 
Q 1134 2591 1072 2394 
Q 978 2094 978 1738 
L 978 0 
L 416 0 
z
" transform="scale(0.015625)"/>
       <path id="ArialMT-44" d="M 2588 409 
Q 2275 144 1986 34 
Q 1697 -75 1366 -75 
Q 819 -75 525 192 
Q 231 459 231 875 
Q 231 1119 342 1320 
Q 453 1522 633 1644 
Q 813 1766 1038 1828 
Q 1203 1872 1538 1913 
Q 2219 1994 2541 2106 
Q 2544 2222 2544 2253 
Q 2544 2597 2384 2738 
Q 2169 2928 1744 2928 
Q 1347 2928 1158 2789 
Q 969 2650 878 2297 
L 328 2372 
Q 403 2725 575 2942 
Q 747 3159 1072 3276 
Q 1397 3394 1825 3394 
Q 2250 3394 2515 3294 
Q 2781 3194 2906 3042 
Q 3031 2891 3081 2659 
Q 3109 2516 3109 2141 
L 3109 1391 
Q 3109 606 3145 398 
Q 3181 191 3288 0 
L 2700 0 
Q 2613 175 2588 409 
z
M 2541 1666 
Q 2234 1541 1622 1453 
Q 1275 1403 1131 1340 
Q 988 1278 909 1158 
Q 831 1038 831 891 
Q 831 666 1001 516 
Q 1172 366 1500 366 
Q 1825 366 2078 508 
Q 2331 650 2450 897 
Q 2541 1088 2541 1459 
L 2541 1666 
z
" transform="scale(0.015625)"/>
       <path id="ArialMT-57" d="M 1650 503 
L 1731 6 
Q 1494 -44 1306 -44 
Q 1000 -44 831 53 
Q 663 150 594 308 
Q 525 466 525 972 
L 525 2881 
L 113 2881 
L 113 3319 
L 525 3319 
L 525 4141 
L 1084 4478 
L 1084 3319 
L 1650 3319 
L 1650 2881 
L 1084 2881 
L 1084 941 
Q 1084 700 1114 631 
Q 1144 563 1211 522 
Q 1278 481 1403 481 
Q 1497 481 1650 503 
z
" transform="scale(0.015625)"/>
       <path id="ArialMT-58" d="M 2597 0 
L 2597 488 
Q 2209 -75 1544 -75 
Q 1250 -75 995 37 
Q 741 150 617 320 
Q 494 491 444 738 
Q 409 903 409 1263 
L 409 3319 
L 972 3319 
L 972 1478 
Q 972 1038 1006 884 
Q 1059 663 1231 536 
Q 1403 409 1656 409 
Q 1909 409 2131 539 
Q 2353 669 2445 892 
Q 2538 1116 2538 1541 
L 2538 3319 
L 3100 3319 
L 3100 0 
L 2597 0 
z
" transform="scale(0.015625)"/>
       <path id="ArialMT-b" d="M 1497 -1347 
Q 1031 -759 709 28 
Q 388 816 388 1659 
Q 388 2403 628 3084 
Q 909 3875 1497 4659 
L 1900 4659 
Q 1522 4009 1400 3731 
Q 1209 3300 1100 2831 
Q 966 2247 966 1656 
Q 966 153 1900 -1347 
L 1497 -1347 
z
" transform="scale(0.015625)"/>
       <path id="ArialMT-83" d="M 400 3794 
Q 400 4153 654 4406 
Q 909 4659 1266 4659 
Q 1628 4659 1881 4406 
Q 2134 4153 2134 3794 
Q 2134 3434 1879 3179 
Q 1625 2925 1266 2925 
Q 909 2925 654 3178 
Q 400 3431 400 3794 
z
M 741 3794 
Q 741 3575 895 3420 
Q 1050 3266 1269 3266 
Q 1484 3266 1639 3420 
Q 1794 3575 1794 3794 
Q 1794 4013 1639 4167 
Q 1484 4322 1269 4322 
Q 1050 4322 895 4167 
Q 741 4013 741 3794 
z
" transform="scale(0.015625)"/>
       <path id="ArialMT-26" d="M 3763 1606 
L 4369 1453 
Q 4178 706 3683 314 
Q 3188 -78 2472 -78 
Q 1731 -78 1267 223 
Q 803 525 561 1097 
Q 319 1669 319 2325 
Q 319 3041 592 3573 
Q 866 4106 1370 4382 
Q 1875 4659 2481 4659 
Q 3169 4659 3637 4309 
Q 4106 3959 4291 3325 
L 3694 3184 
Q 3534 3684 3231 3912 
Q 2928 4141 2469 4141 
Q 1941 4141 1586 3887 
Q 1231 3634 1087 3207 
Q 944 2781 944 2328 
Q 944 1744 1114 1308 
Q 1284 872 1643 656 
Q 2003 441 2422 441 
Q 2931 441 3284 734 
Q 3638 1028 3763 1606 
z
" transform="scale(0.015625)"/>
       <path id="ArialMT-c" d="M 791 -1347 
L 388 -1347 
Q 1322 153 1322 1656 
Q 1322 2244 1188 2822 
Q 1081 3291 891 3722 
Q 769 4003 388 4659 
L 791 4659 
Q 1378 3875 1659 3084 
Q 1900 2403 1900 1659 
Q 1900 816 1576 28 
Q 1253 -759 791 -1347 
z
" transform="scale(0.015625)"/>
      </defs>
      <use xlink:href="#ArialMT-37"/>
      <use xlink:href="#ArialMT-14" transform="translate(61.078125 0)"/>
      <use xlink:href="#ArialMT-3" transform="translate(116.6875 0)"/>
      <use xlink:href="#ArialMT-37" transform="translate(142.65625 0)"/>
      <use xlink:href="#ArialMT-48" transform="translate(192.65625 0)"/>
      <use xlink:href="#ArialMT-50" transform="translate(248.265625 0)"/>
      <use xlink:href="#ArialMT-53" transform="translate(331.5625 0)"/>
      <use xlink:href="#ArialMT-48" transform="translate(387.171875 0)"/>
      <use xlink:href="#ArialMT-55" transform="translate(442.78125 0)"/>
      <use xlink:href="#ArialMT-44" transform="translate(476.078125 0)"/>
      <use xlink:href="#ArialMT-57" transform="translate(531.6875 0)"/>
      <use xlink:href="#ArialMT-58" transform="translate(559.46875 0)"/>
      <use xlink:href="#ArialMT-55" transform="translate(615.078125 0)"/>
      <use xlink:href="#ArialMT-48" transform="translate(648.375 0)"/>
      <use xlink:href="#ArialMT-3" transform="translate(703.984375 0)"/>
      <use xlink:href="#ArialMT-b" transform="translate(731.765625 0)"/>
      <use xlink:href="#ArialMT-83" transform="translate(765.0625 0)"/>
      <use xlink:href="#ArialMT-26" transform="translate(805.046875 0)"/>
      <use xlink:href="#ArialMT-c" transform="translate(877.265625 0)"/>
     </g>
    </g>
   </g>
   <g id="matplotlib.axis_2">
    <g id="ytick_1">
     <g id="line2d_25">
      <defs>
       <path id="m2ce4a514f0" d="M 0 0 
L 6 0 
" style="stroke: #000000; stroke-width: 0.8"/>
      </defs>
      <g>
       <use xlink:href="#m2ce4a514f0" x="60.598945" y="291.205218" style="stroke: #000000; stroke-width: 0.8"/>
      </g>
     </g>
     <g id="text_8">
      <!-- $\mathdefault{10^{-20}}$ -->
      <g transform="translate(24.338945 297.645218) scale(0.14 -0.14)">
       <defs>
        <path id="ArialMT-ed" d="M 3381 1997 
L 356 1997 
L 356 2522 
L 3381 2522 
L 3381 1997 
z
" transform="scale(0.015625)"/>
       </defs>
       <use xlink:href="#ArialMT-14" transform="translate(0 0.3875)"/>
       <use xlink:href="#ArialMT-13" transform="translate(55.615234 0.3875)"/>
       <use xlink:href="#ArialMT-ed" transform="translate(112.1875 41.6875) scale(0.7)"/>
       <use xlink:href="#ArialMT-15" transform="translate(153.066406 41.6875) scale(0.7)"/>
       <use xlink:href="#ArialMT-13" transform="translate(191.99707 41.6875) scale(0.7)"/>
      </g>
     </g>
    </g>
    <g id="ytick_2">
     <g id="line2d_26">
      <g>
       <use xlink:href="#m2ce4a514f0" x="60.598945" y="258.359802" style="stroke: #000000; stroke-width: 0.8"/>
      </g>
     </g>
     <g id="text_9">
      <!-- $\mathdefault{10^{-19}}$ -->
      <g transform="translate(24.338945 264.799802) scale(0.14 -0.14)">
       <defs>
        <path id="ArialMT-1c" d="M 350 1059 
L 891 1109 
Q 959 728 1153 556 
Q 1347 384 1650 384 
Q 1909 384 2104 503 
Q 2300 622 2425 820 
Q 2550 1019 2634 1356 
Q 2719 1694 2719 2044 
Q 2719 2081 2716 2156 
Q 2547 1888 2255 1720 
Q 1963 1553 1622 1553 
Q 1053 1553 659 1965 
Q 266 2378 266 3053 
Q 266 3750 677 4175 
Q 1088 4600 1706 4600 
Q 2153 4600 2523 4359 
Q 2894 4119 3086 3673 
Q 3278 3228 3278 2384 
Q 3278 1506 3087 986 
Q 2897 466 2520 194 
Q 2144 -78 1638 -78 
Q 1100 -78 759 220 
Q 419 519 350 1059 
z
M 2653 3081 
Q 2653 3566 2395 3850 
Q 2138 4134 1775 4134 
Q 1400 4134 1122 3828 
Q 844 3522 844 3034 
Q 844 2597 1108 2323 
Q 1372 2050 1759 2050 
Q 2150 2050 2401 2323 
Q 2653 2597 2653 3081 
z
" transform="scale(0.015625)"/>
       </defs>
       <use xlink:href="#ArialMT-14" transform="translate(0 0.3875)"/>
       <use xlink:href="#ArialMT-13" transform="translate(55.615234 0.3875)"/>
       <use xlink:href="#ArialMT-ed" transform="translate(112.1875 41.6875) scale(0.7)"/>
       <use xlink:href="#ArialMT-14" transform="translate(153.066406 41.6875) scale(0.7)"/>
       <use xlink:href="#ArialMT-1c" transform="translate(191.99707 41.6875) scale(0.7)"/>
      </g>
     </g>
    </g>
    <g id="ytick_3">
     <g id="line2d_27">
      <g>
       <use xlink:href="#m2ce4a514f0" x="60.598945" y="225.514387" style="stroke: #000000; stroke-width: 0.8"/>
      </g>
     </g>
     <g id="text_10">
      <!-- $\mathdefault{10^{-18}}$ -->
      <g transform="translate(24.338945 231.954387) scale(0.14 -0.14)">
       <use xlink:href="#ArialMT-14" transform="translate(0 0.3875)"/>
       <use xlink:href="#ArialMT-13" transform="translate(55.615234 0.3875)"/>
       <use xlink:href="#ArialMT-ed" transform="translate(112.1875 41.6875) scale(0.7)"/>
       <use xlink:href="#ArialMT-14" transform="translate(153.066406 41.6875) scale(0.7)"/>
       <use xlink:href="#ArialMT-1b" transform="translate(191.99707 41.6875) scale(0.7)"/>
      </g>
     </g>
    </g>
    <g id="ytick_4">
     <g id="line2d_28">
      <g>
       <use xlink:href="#m2ce4a514f0" x="60.598945" y="192.668972" style="stroke: #000000; stroke-width: 0.8"/>
      </g>
     </g>
     <g id="text_11">
      <!-- $\mathdefault{10^{-17}}$ -->
      <g transform="translate(24.338945 199.108972) scale(0.14 -0.14)">
       <defs>
        <path id="ArialMT-1a" d="M 303 3981 
L 303 4522 
L 3269 4522 
L 3269 4084 
Q 2831 3619 2401 2847 
Q 1972 2075 1738 1259 
Q 1569 684 1522 0 
L 944 0 
Q 953 541 1156 1306 
Q 1359 2072 1739 2783 
Q 2119 3494 2547 3981 
L 303 3981 
z
" transform="scale(0.015625)"/>
       </defs>
       <use xlink:href="#ArialMT-14" transform="translate(0 0.3875)"/>
       <use xlink:href="#ArialMT-13" transform="translate(55.615234 0.3875)"/>
       <use xlink:href="#ArialMT-ed" transform="translate(112.1875 41.6875) scale(0.7)"/>
       <use xlink:href="#ArialMT-14" transform="translate(153.066406 41.6875) scale(0.7)"/>
       <use xlink:href="#ArialMT-1a" transform="translate(191.99707 41.6875) scale(0.7)"/>
      </g>
     </g>
    </g>
    <g id="ytick_5">
     <g id="line2d_29">
      <g>
       <use xlink:href="#m2ce4a514f0" x="60.598945" y="159.823557" style="stroke: #000000; stroke-width: 0.8"/>
      </g>
     </g>
     <g id="text_12">
      <!-- $\mathdefault{10^{-16}}$ -->
      <g transform="translate(24.338945 166.263557) scale(0.14 -0.14)">
       <use xlink:href="#ArialMT-14" transform="translate(0 0.3875)"/>
       <use xlink:href="#ArialMT-13" transform="translate(55.615234 0.3875)"/>
       <use xlink:href="#ArialMT-ed" transform="translate(112.1875 41.6875) scale(0.7)"/>
       <use xlink:href="#ArialMT-14" transform="translate(153.066406 41.6875) scale(0.7)"/>
       <use xlink:href="#ArialMT-19" transform="translate(191.99707 41.6875) scale(0.7)"/>
      </g>
     </g>
    </g>
    <g id="ytick_6">
     <g id="line2d_30">
      <g>
       <use xlink:href="#m2ce4a514f0" x="60.598945" y="126.978142" style="stroke: #000000; stroke-width: 0.8"/>
      </g>
     </g>
     <g id="text_13">
      <!-- $\mathdefault{10^{-15}}$ -->
      <g transform="translate(24.338945 133.418142) scale(0.14 -0.14)">
       <defs>
        <path id="ArialMT-18" d="M 266 1200 
L 856 1250 
Q 922 819 1161 601 
Q 1400 384 1738 384 
Q 2144 384 2425 690 
Q 2706 997 2706 1503 
Q 2706 1984 2436 2262 
Q 2166 2541 1728 2541 
Q 1456 2541 1237 2417 
Q 1019 2294 894 2097 
L 366 2166 
L 809 4519 
L 3088 4519 
L 3088 3981 
L 1259 3981 
L 1013 2750 
Q 1425 3038 1878 3038 
Q 2478 3038 2890 2622 
Q 3303 2206 3303 1553 
Q 3303 931 2941 478 
Q 2500 -78 1738 -78 
Q 1113 -78 717 272 
Q 322 622 266 1200 
z
" transform="scale(0.015625)"/>
       </defs>
       <use xlink:href="#ArialMT-14" transform="translate(0 0.3875)"/>
       <use xlink:href="#ArialMT-13" transform="translate(55.615234 0.3875)"/>
       <use xlink:href="#ArialMT-ed" transform="translate(112.1875 41.6875) scale(0.7)"/>
       <use xlink:href="#ArialMT-14" transform="translate(153.066406 41.6875) scale(0.7)"/>
       <use xlink:href="#ArialMT-18" transform="translate(191.99707 41.6875) scale(0.7)"/>
      </g>
     </g>
    </g>
    <g id="ytick_7">
     <g id="line2d_31">
      <g>
       <use xlink:href="#m2ce4a514f0" x="60.598945" y="94.132727" style="stroke: #000000; stroke-width: 0.8"/>
      </g>
     </g>
     <g id="text_14">
      <!-- $\mathdefault{10^{-14}}$ -->
      <g transform="translate(24.338945 100.572727) scale(0.14 -0.14)">
       <use xlink:href="#ArialMT-14" transform="translate(0 0.3875)"/>
       <use xlink:href="#ArialMT-13" transform="translate(55.615234 0.3875)"/>
       <use xlink:href="#ArialMT-ed" transform="translate(112.1875 41.6875) scale(0.7)"/>
       <use xlink:href="#ArialMT-14" transform="translate(153.066406 41.6875) scale(0.7)"/>
       <use xlink:href="#ArialMT-17" transform="translate(191.99707 41.6875) scale(0.7)"/>
      </g>
     </g>
    </g>
    <g id="ytick_8">
     <g id="line2d_32">
      <g>
       <use xlink:href="#m2ce4a514f0" x="60.598945" y="61.287311" style="stroke: #000000; stroke-width: 0.8"/>
      </g>
     </g>
     <g id="text_15">
      <!-- $\mathdefault{10^{-13}}$ -->
      <g transform="translate(24.338945 67.727311) scale(0.14 -0.14)">
       <defs>
        <path id="ArialMT-16" d="M 269 1209 
L 831 1284 
Q 928 806 1161 595 
Q 1394 384 1728 384 
Q 2125 384 2398 659 
Q 2672 934 2672 1341 
Q 2672 1728 2419 1979 
Q 2166 2231 1775 2231 
Q 1616 2231 1378 2169 
L 1441 2663 
Q 1497 2656 1531 2656 
Q 1891 2656 2178 2843 
Q 2466 3031 2466 3422 
Q 2466 3731 2256 3934 
Q 2047 4138 1716 4138 
Q 1388 4138 1169 3931 
Q 950 3725 888 3313 
L 325 3413 
Q 428 3978 793 4289 
Q 1159 4600 1703 4600 
Q 2078 4600 2393 4439 
Q 2709 4278 2876 4000 
Q 3044 3722 3044 3409 
Q 3044 3113 2884 2869 
Q 2725 2625 2413 2481 
Q 2819 2388 3044 2092 
Q 3269 1797 3269 1353 
Q 3269 753 2831 336 
Q 2394 -81 1725 -81 
Q 1122 -81 723 278 
Q 325 638 269 1209 
z
" transform="scale(0.015625)"/>
       </defs>
       <use xlink:href="#ArialMT-14" transform="translate(0 0.3875)"/>
       <use xlink:href="#ArialMT-13" transform="translate(55.615234 0.3875)"/>
       <use xlink:href="#ArialMT-ed" transform="translate(112.1875 41.6875) scale(0.7)"/>
       <use xlink:href="#ArialMT-14" transform="translate(153.066406 41.6875) scale(0.7)"/>
       <use xlink:href="#ArialMT-16" transform="translate(191.99707 41.6875) scale(0.7)"/>
      </g>
     </g>
    </g>
    <g id="ytick_9">
     <g id="line2d_33">
      <defs>
       <path id="m4e02f24c6c" d="M 0 0 
L 3 0 
" style="stroke: #000000; stroke-width: 0.6"/>
      </defs>
      <g>
       <use xlink:href="#m4e02f24c6c" x="60.598945" y="301.092673" style="stroke: #000000; stroke-width: 0.6"/>
      </g>
     </g>
    </g>
    <g id="ytick_10">
     <g id="line2d_34">
      <g>
       <use xlink:href="#m4e02f24c6c" x="60.598945" y="298.491932" style="stroke: #000000; stroke-width: 0.6"/>
      </g>
     </g>
    </g>
    <g id="ytick_11">
     <g id="line2d_35">
      <g>
       <use xlink:href="#m4e02f24c6c" x="60.598945" y="296.293037" style="stroke: #000000; stroke-width: 0.6"/>
      </g>
     </g>
    </g>
    <g id="ytick_12">
     <g id="line2d_36">
      <g>
       <use xlink:href="#m4e02f24c6c" x="60.598945" y="294.388267" style="stroke: #000000; stroke-width: 0.6"/>
      </g>
     </g>
    </g>
    <g id="ytick_13">
     <g id="line2d_37">
      <g>
       <use xlink:href="#m4e02f24c6c" x="60.598945" y="292.708141" style="stroke: #000000; stroke-width: 0.6"/>
      </g>
     </g>
    </g>
    <g id="ytick_14">
     <g id="line2d_38">
      <g>
       <use xlink:href="#m4e02f24c6c" x="60.598945" y="281.317762" style="stroke: #000000; stroke-width: 0.6"/>
      </g>
     </g>
    </g>
    <g id="ytick_15">
     <g id="line2d_39">
      <g>
       <use xlink:href="#m4e02f24c6c" x="60.598945" y="275.533972" style="stroke: #000000; stroke-width: 0.6"/>
      </g>
     </g>
    </g>
    <g id="ytick_16">
     <g id="line2d_40">
      <g>
       <use xlink:href="#m4e02f24c6c" x="60.598945" y="271.430307" style="stroke: #000000; stroke-width: 0.6"/>
      </g>
     </g>
    </g>
    <g id="ytick_17">
     <g id="line2d_41">
      <g>
       <use xlink:href="#m4e02f24c6c" x="60.598945" y="268.247258" style="stroke: #000000; stroke-width: 0.6"/>
      </g>
     </g>
    </g>
    <g id="ytick_18">
     <g id="line2d_42">
      <g>
       <use xlink:href="#m4e02f24c6c" x="60.598945" y="265.646517" style="stroke: #000000; stroke-width: 0.6"/>
      </g>
     </g>
    </g>
    <g id="ytick_19">
     <g id="line2d_43">
      <g>
       <use xlink:href="#m4e02f24c6c" x="60.598945" y="263.447622" style="stroke: #000000; stroke-width: 0.6"/>
      </g>
     </g>
    </g>
    <g id="ytick_20">
     <g id="line2d_44">
      <g>
       <use xlink:href="#m4e02f24c6c" x="60.598945" y="261.542852" style="stroke: #000000; stroke-width: 0.6"/>
      </g>
     </g>
    </g>
    <g id="ytick_21">
     <g id="line2d_45">
      <g>
       <use xlink:href="#m4e02f24c6c" x="60.598945" y="259.862726" style="stroke: #000000; stroke-width: 0.6"/>
      </g>
     </g>
    </g>
    <g id="ytick_22">
     <g id="line2d_46">
      <g>
       <use xlink:href="#m4e02f24c6c" x="60.598945" y="248.472347" style="stroke: #000000; stroke-width: 0.6"/>
      </g>
     </g>
    </g>
    <g id="ytick_23">
     <g id="line2d_47">
      <g>
       <use xlink:href="#m4e02f24c6c" x="60.598945" y="242.688557" style="stroke: #000000; stroke-width: 0.6"/>
      </g>
     </g>
    </g>
    <g id="ytick_24">
     <g id="line2d_48">
      <g>
       <use xlink:href="#m4e02f24c6c" x="60.598945" y="238.584892" style="stroke: #000000; stroke-width: 0.6"/>
      </g>
     </g>
    </g>
    <g id="ytick_25">
     <g id="line2d_49">
      <g>
       <use xlink:href="#m4e02f24c6c" x="60.598945" y="235.401842" style="stroke: #000000; stroke-width: 0.6"/>
      </g>
     </g>
    </g>
    <g id="ytick_26">
     <g id="line2d_50">
      <g>
       <use xlink:href="#m4e02f24c6c" x="60.598945" y="232.801101" style="stroke: #000000; stroke-width: 0.6"/>
      </g>
     </g>
    </g>
    <g id="ytick_27">
     <g id="line2d_51">
      <g>
       <use xlink:href="#m4e02f24c6c" x="60.598945" y="230.602206" style="stroke: #000000; stroke-width: 0.6"/>
      </g>
     </g>
    </g>
    <g id="ytick_28">
     <g id="line2d_52">
      <g>
       <use xlink:href="#m4e02f24c6c" x="60.598945" y="228.697437" style="stroke: #000000; stroke-width: 0.6"/>
      </g>
     </g>
    </g>
    <g id="ytick_29">
     <g id="line2d_53">
      <g>
       <use xlink:href="#m4e02f24c6c" x="60.598945" y="227.017311" style="stroke: #000000; stroke-width: 0.6"/>
      </g>
     </g>
    </g>
    <g id="ytick_30">
     <g id="line2d_54">
      <g>
       <use xlink:href="#m4e02f24c6c" x="60.598945" y="215.626932" style="stroke: #000000; stroke-width: 0.6"/>
      </g>
     </g>
    </g>
    <g id="ytick_31">
     <g id="line2d_55">
      <g>
       <use xlink:href="#m4e02f24c6c" x="60.598945" y="209.843142" style="stroke: #000000; stroke-width: 0.6"/>
      </g>
     </g>
    </g>
    <g id="ytick_32">
     <g id="line2d_56">
      <g>
       <use xlink:href="#m4e02f24c6c" x="60.598945" y="205.739477" style="stroke: #000000; stroke-width: 0.6"/>
      </g>
     </g>
    </g>
    <g id="ytick_33">
     <g id="line2d_57">
      <g>
       <use xlink:href="#m4e02f24c6c" x="60.598945" y="202.556427" style="stroke: #000000; stroke-width: 0.6"/>
      </g>
     </g>
    </g>
    <g id="ytick_34">
     <g id="line2d_58">
      <g>
       <use xlink:href="#m4e02f24c6c" x="60.598945" y="199.955686" style="stroke: #000000; stroke-width: 0.6"/>
      </g>
     </g>
    </g>
    <g id="ytick_35">
     <g id="line2d_59">
      <g>
       <use xlink:href="#m4e02f24c6c" x="60.598945" y="197.756791" style="stroke: #000000; stroke-width: 0.6"/>
      </g>
     </g>
    </g>
    <g id="ytick_36">
     <g id="line2d_60">
      <g>
       <use xlink:href="#m4e02f24c6c" x="60.598945" y="195.852022" style="stroke: #000000; stroke-width: 0.6"/>
      </g>
     </g>
    </g>
    <g id="ytick_37">
     <g id="line2d_61">
      <g>
       <use xlink:href="#m4e02f24c6c" x="60.598945" y="194.171896" style="stroke: #000000; stroke-width: 0.6"/>
      </g>
     </g>
    </g>
    <g id="ytick_38">
     <g id="line2d_62">
      <g>
       <use xlink:href="#m4e02f24c6c" x="60.598945" y="182.781517" style="stroke: #000000; stroke-width: 0.6"/>
      </g>
     </g>
    </g>
    <g id="ytick_39">
     <g id="line2d_63">
      <g>
       <use xlink:href="#m4e02f24c6c" x="60.598945" y="176.997726" style="stroke: #000000; stroke-width: 0.6"/>
      </g>
     </g>
    </g>
    <g id="ytick_40">
     <g id="line2d_64">
      <g>
       <use xlink:href="#m4e02f24c6c" x="60.598945" y="172.894062" style="stroke: #000000; stroke-width: 0.6"/>
      </g>
     </g>
    </g>
    <g id="ytick_41">
     <g id="line2d_65">
      <g>
       <use xlink:href="#m4e02f24c6c" x="60.598945" y="169.711012" style="stroke: #000000; stroke-width: 0.6"/>
      </g>
     </g>
    </g>
    <g id="ytick_42">
     <g id="line2d_66">
      <g>
       <use xlink:href="#m4e02f24c6c" x="60.598945" y="167.110271" style="stroke: #000000; stroke-width: 0.6"/>
      </g>
     </g>
    </g>
    <g id="ytick_43">
     <g id="line2d_67">
      <g>
       <use xlink:href="#m4e02f24c6c" x="60.598945" y="164.911376" style="stroke: #000000; stroke-width: 0.6"/>
      </g>
     </g>
    </g>
    <g id="ytick_44">
     <g id="line2d_68">
      <g>
       <use xlink:href="#m4e02f24c6c" x="60.598945" y="163.006607" style="stroke: #000000; stroke-width: 0.6"/>
      </g>
     </g>
    </g>
    <g id="ytick_45">
     <g id="line2d_69">
      <g>
       <use xlink:href="#m4e02f24c6c" x="60.598945" y="161.326481" style="stroke: #000000; stroke-width: 0.6"/>
      </g>
     </g>
    </g>
    <g id="ytick_46">
     <g id="line2d_70">
      <g>
       <use xlink:href="#m4e02f24c6c" x="60.598945" y="149.936102" style="stroke: #000000; stroke-width: 0.6"/>
      </g>
     </g>
    </g>
    <g id="ytick_47">
     <g id="line2d_71">
      <g>
       <use xlink:href="#m4e02f24c6c" x="60.598945" y="144.152311" style="stroke: #000000; stroke-width: 0.6"/>
      </g>
     </g>
    </g>
    <g id="ytick_48">
     <g id="line2d_72">
      <g>
       <use xlink:href="#m4e02f24c6c" x="60.598945" y="140.048647" style="stroke: #000000; stroke-width: 0.6"/>
      </g>
     </g>
    </g>
    <g id="ytick_49">
     <g id="line2d_73">
      <g>
       <use xlink:href="#m4e02f24c6c" x="60.598945" y="136.865597" style="stroke: #000000; stroke-width: 0.6"/>
      </g>
     </g>
    </g>
    <g id="ytick_50">
     <g id="line2d_74">
      <g>
       <use xlink:href="#m4e02f24c6c" x="60.598945" y="134.264856" style="stroke: #000000; stroke-width: 0.6"/>
      </g>
     </g>
    </g>
    <g id="ytick_51">
     <g id="line2d_75">
      <g>
       <use xlink:href="#m4e02f24c6c" x="60.598945" y="132.065961" style="stroke: #000000; stroke-width: 0.6"/>
      </g>
     </g>
    </g>
    <g id="ytick_52">
     <g id="line2d_76">
      <g>
       <use xlink:href="#m4e02f24c6c" x="60.598945" y="130.161191" style="stroke: #000000; stroke-width: 0.6"/>
      </g>
     </g>
    </g>
    <g id="ytick_53">
     <g id="line2d_77">
      <g>
       <use xlink:href="#m4e02f24c6c" x="60.598945" y="128.481066" style="stroke: #000000; stroke-width: 0.6"/>
      </g>
     </g>
    </g>
    <g id="ytick_54">
     <g id="line2d_78">
      <g>
       <use xlink:href="#m4e02f24c6c" x="60.598945" y="117.090687" style="stroke: #000000; stroke-width: 0.6"/>
      </g>
     </g>
    </g>
    <g id="ytick_55">
     <g id="line2d_79">
      <g>
       <use xlink:href="#m4e02f24c6c" x="60.598945" y="111.306896" style="stroke: #000000; stroke-width: 0.6"/>
      </g>
     </g>
    </g>
    <g id="ytick_56">
     <g id="line2d_80">
      <g>
       <use xlink:href="#m4e02f24c6c" x="60.598945" y="107.203231" style="stroke: #000000; stroke-width: 0.6"/>
      </g>
     </g>
    </g>
    <g id="ytick_57">
     <g id="line2d_81">
      <g>
       <use xlink:href="#m4e02f24c6c" x="60.598945" y="104.020182" style="stroke: #000000; stroke-width: 0.6"/>
      </g>
     </g>
    </g>
    <g id="ytick_58">
     <g id="line2d_82">
      <g>
       <use xlink:href="#m4e02f24c6c" x="60.598945" y="101.419441" style="stroke: #000000; stroke-width: 0.6"/>
      </g>
     </g>
    </g>
    <g id="ytick_59">
     <g id="line2d_83">
      <g>
       <use xlink:href="#m4e02f24c6c" x="60.598945" y="99.220546" style="stroke: #000000; stroke-width: 0.6"/>
      </g>
     </g>
    </g>
    <g id="ytick_60">
     <g id="line2d_84">
      <g>
       <use xlink:href="#m4e02f24c6c" x="60.598945" y="97.315776" style="stroke: #000000; stroke-width: 0.6"/>
      </g>
     </g>
    </g>
    <g id="ytick_61">
     <g id="line2d_85">
      <g>
       <use xlink:href="#m4e02f24c6c" x="60.598945" y="95.63565" style="stroke: #000000; stroke-width: 0.6"/>
      </g>
     </g>
    </g>
    <g id="ytick_62">
     <g id="line2d_86">
      <g>
       <use xlink:href="#m4e02f24c6c" x="60.598945" y="84.245271" style="stroke: #000000; stroke-width: 0.6"/>
      </g>
     </g>
    </g>
    <g id="ytick_63">
     <g id="line2d_87">
      <g>
       <use xlink:href="#m4e02f24c6c" x="60.598945" y="78.461481" style="stroke: #000000; stroke-width: 0.6"/>
      </g>
     </g>
    </g>
    <g id="ytick_64">
     <g id="line2d_88">
      <g>
       <use xlink:href="#m4e02f24c6c" x="60.598945" y="74.357816" style="stroke: #000000; stroke-width: 0.6"/>
      </g>
     </g>
    </g>
    <g id="ytick_65">
     <g id="line2d_89">
      <g>
       <use xlink:href="#m4e02f24c6c" x="60.598945" y="71.174767" style="stroke: #000000; stroke-width: 0.6"/>
      </g>
     </g>
    </g>
    <g id="ytick_66">
     <g id="line2d_90">
      <g>
       <use xlink:href="#m4e02f24c6c" x="60.598945" y="68.574026" style="stroke: #000000; stroke-width: 0.6"/>
      </g>
     </g>
    </g>
    <g id="ytick_67">
     <g id="line2d_91">
      <g>
       <use xlink:href="#m4e02f24c6c" x="60.598945" y="66.375131" style="stroke: #000000; stroke-width: 0.6"/>
      </g>
     </g>
    </g>
    <g id="ytick_68">
     <g id="line2d_92">
      <g>
       <use xlink:href="#m4e02f24c6c" x="60.598945" y="64.470361" style="stroke: #000000; stroke-width: 0.6"/>
      </g>
     </g>
    </g>
    <g id="ytick_69">
     <g id="line2d_93">
      <g>
       <use xlink:href="#m4e02f24c6c" x="60.598945" y="62.790235" style="stroke: #000000; stroke-width: 0.6"/>
      </g>
     </g>
    </g>
    <g id="ytick_70">
     <g id="line2d_94">
      <g>
       <use xlink:href="#m4e02f24c6c" x="60.598945" y="51.399856" style="stroke: #000000; stroke-width: 0.6"/>
      </g>
     </g>
    </g>
    <g id="ytick_71">
     <g id="line2d_95">
      <g>
       <use xlink:href="#m4e02f24c6c" x="60.598945" y="45.616066" style="stroke: #000000; stroke-width: 0.6"/>
      </g>
     </g>
    </g>
    <g id="ytick_72">
     <g id="line2d_96">
      <g>
       <use xlink:href="#m4e02f24c6c" x="60.598945" y="41.512401" style="stroke: #000000; stroke-width: 0.6"/>
      </g>
     </g>
    </g>
    <g id="text_16">
     <!-- Ion Current (m/z 20) -->
     <g transform="translate(17.392383 234.056768) rotate(-90) scale(0.14 -0.14)">
      <defs>
       <path id="ArialMT-2c" d="M 597 0 
L 597 4581 
L 1203 4581 
L 1203 0 
L 597 0 
z
" transform="scale(0.015625)"/>
       <path id="ArialMT-52" d="M 213 1659 
Q 213 2581 725 3025 
Q 1153 3394 1769 3394 
Q 2453 3394 2887 2945 
Q 3322 2497 3322 1706 
Q 3322 1066 3130 698 
Q 2938 331 2570 128 
Q 2203 -75 1769 -75 
Q 1072 -75 642 372 
Q 213 819 213 1659 
z
M 791 1659 
Q 791 1022 1069 705 
Q 1347 388 1769 388 
Q 2188 388 2466 706 
Q 2744 1025 2744 1678 
Q 2744 2294 2464 2611 
Q 2184 2928 1769 2928 
Q 1347 2928 1069 2612 
Q 791 2297 791 1659 
z
" transform="scale(0.015625)"/>
       <path id="ArialMT-51" d="M 422 0 
L 422 3319 
L 928 3319 
L 928 2847 
Q 1294 3394 1984 3394 
Q 2284 3394 2536 3286 
Q 2788 3178 2913 3003 
Q 3038 2828 3088 2588 
Q 3119 2431 3119 2041 
L 3119 0 
L 2556 0 
L 2556 2019 
Q 2556 2363 2490 2533 
Q 2425 2703 2258 2804 
Q 2091 2906 1866 2906 
Q 1506 2906 1245 2678 
Q 984 2450 984 1813 
L 984 0 
L 422 0 
z
" transform="scale(0.015625)"/>
       <path id="ArialMT-12" d="M 0 -78 
L 1328 4659 
L 1778 4659 
L 453 -78 
L 0 -78 
z
" transform="scale(0.015625)"/>
       <path id="ArialMT-5d" d="M 125 0 
L 125 456 
L 2238 2881 
Q 1878 2863 1603 2863 
L 250 2863 
L 250 3319 
L 2963 3319 
L 2963 2947 
L 1166 841 
L 819 456 
Q 1197 484 1528 484 
L 3063 484 
L 3063 0 
L 125 0 
z
" transform="scale(0.015625)"/>
      </defs>
      <use xlink:href="#ArialMT-2c"/>
      <use xlink:href="#ArialMT-52" transform="translate(27.78125 0)"/>
      <use xlink:href="#ArialMT-51" transform="translate(83.390625 0)"/>
      <use xlink:href="#ArialMT-3" transform="translate(139 0)"/>
      <use xlink:href="#ArialMT-26" transform="translate(166.78125 0)"/>
      <use xlink:href="#ArialMT-58" transform="translate(239 0)"/>
      <use xlink:href="#ArialMT-55" transform="translate(294.609375 0)"/>
      <use xlink:href="#ArialMT-55" transform="translate(327.90625 0)"/>
      <use xlink:href="#ArialMT-48" transform="translate(361.203125 0)"/>
      <use xlink:href="#ArialMT-51" transform="translate(416.8125 0)"/>
      <use xlink:href="#ArialMT-57" transform="translate(472.421875 0)"/>
      <use xlink:href="#ArialMT-3" transform="translate(500.203125 0)"/>
      <use xlink:href="#ArialMT-b" transform="translate(527.984375 0)"/>
      <use xlink:href="#ArialMT-50" transform="translate(561.28125 0)"/>
      <use xlink:href="#ArialMT-12" transform="translate(644.578125 0)"/>
      <use xlink:href="#ArialMT-5d" transform="translate(672.359375 0)"/>
      <use xlink:href="#ArialMT-3" transform="translate(722.359375 0)"/>
      <use xlink:href="#ArialMT-15" transform="translate(750.140625 0)"/>
      <use xlink:href="#ArialMT-13" transform="translate(805.75 0)"/>
      <use xlink:href="#ArialMT-c" transform="translate(861.359375 0)"/>
     </g>
    </g>
   </g>
   <g id="line2d_97">
    <path d="M 59.617544 291.205218 
L 59.542052 291.205218 
L 59.542052 113.798462 
L 59.542052 119.094271 
L 59.806275 115.423261 
L 60.598945 125.439126 
L 62.108793 291.205218 
L 68.714379 291.205218 
L 70.48845 133.66024 
L 71.960552 117.982924 
L 73.243923 110.579965 
L 74.376309 115.657736 
L 75.470949 122.633045 
L 76.527843 126.789536 
L 77.660229 116.358778 
L 78.754869 105.114338 
L 79.887255 101.466509 
L 82.303012 94.652526 
L 83.473144 92.915422 
L 85.888901 103.900395 
L 87.210018 113.583208 
L 88.531135 117.965055 
L 89.77676 130.02548 
L 91.022384 291.205218 
L 92.230263 133.55672 
L 93.438141 114.951119 
L 94.608274 112.034354 
L 95.778406 105.023888 
L 96.948538 117.350359 
L 98.080924 100.607765 
L 99.326549 99.626844 
L 100.534428 105.462169 
L 101.70456 291.205218 
L 102.874692 148.644572 
L 104.044824 291.205218 
L 106.422835 291.205218 
L 107.592967 194.791175 
L 108.725353 291.205218 
L 109.85774 122.617993 
L 110.990126 116.538637 
L 112.198004 116.960958 
L 113.368136 291.205218 
L 114.576015 129.41597 
L 115.783893 291.205218 
L 120.464422 291.205218 
L 121.672301 112.373834 
L 122.842433 99.150787 
L 124.050312 95.219241 
L 125.295936 91.680639 
L 126.503815 89.718362 
L 127.673947 88.500947 
L 128.844079 89.776073 
L 131.184344 92.550202 
L 132.354476 93.226403 
L 134.656995 95.675934 
L 135.864873 94.662799 
L 137.072751 90.096 
L 138.318376 90.405925 
L 141.791027 81.195015 
L 142.998905 79.437872 
L 144.131291 78.76906 
L 145.301424 79.682516 
L 146.471556 78.055937 
L 147.641688 78.372107 
L 148.887313 79.395662 
L 150.095191 80.596293 
L 151.227577 82.058455 
L 152.435456 80.812741 
L 153.605588 80.090892 
L 154.77572 82.544397 
L 156.021345 82.558307 
L 157.153731 81.49416 
L 158.286117 79.052734 
L 159.45625 80.423208 
L 160.626382 77.363626 
L 161.872006 75.54893 
L 163.042139 74.646662 
L 164.250017 71.585947 
L 165.42015 71.8374 
L 166.628028 71.500152 
L 167.79816 70.335033 
L 169.006039 69.522689 
L 170.176171 71.136166 
L 171.270811 71.04685 
L 172.440943 69.333925 
L 174.818954 68.790042 
L 175.989086 67.630647 
L 177.196965 68.061079 
L 178.367097 67.650781 
L 179.499483 68.096905 
L 180.707361 68.939412 
L 181.877494 70.564183 
L 183.047626 70.032939 
L 184.255505 69.200646 
L 185.387891 69.153997 
L 186.558023 68.591488 
L 187.765901 67.402116 
L 188.97378 65.904065 
L 190.06842 65.544862 
L 191.314044 64.557148 
L 192.559669 63.796377 
L 194.899934 64.026477 
L 196.183304 63.135796 
L 198.523569 61.949405 
L 199.655955 60.393779 
L 203.09086 59.303659 
L 204.298738 58.882652 
L 205.506617 59.126249 
L 206.676749 59.120557 
L 209.05476 59.403029 
L 210.187146 58.947263 
L 211.395024 58.86247 
L 212.565156 59.417389 
L 213.773035 58.962035 
L 214.905421 58.011653 
L 216.075553 55.992758 
L 217.283432 54.905592 
L 218.529056 53.945802 
L 220.793828 53.485912 
L 221.963961 53.216363 
L 223.171839 53.713031 
L 225.512104 53.454324 
L 226.719982 53.010706 
L 227.852368 52.822113 
L 229.022501 53.154687 
L 230.230379 53.749798 
L 232.532897 56.087514 
L 233.70303 57.801038 
L 236.005548 60.533154 
L 237.251173 61.441072 
L 238.383559 62.03155 
L 239.591437 63.11203 
L 240.76157 62.815844 
L 241.931702 63.45606 
L 243.13958 63.43178 
L 244.271966 64.013398 
L 245.479845 64.332194 
L 246.649977 64.133612 
L 247.857856 64.901014 
L 248.990242 64.981593 
L 250.160374 64.881396 
L 251.330506 65.985812 
L 252.538385 65.964622 
L 253.708517 67.41989 
L 254.840903 68.3157 
L 256.048782 69.973586 
L 257.218914 70.53097 
L 258.426792 71.792966 
L 259.634671 72.141473 
L 260.767057 70.794562 
L 261.974935 70.651499 
L 263.182814 71.184525 
L 264.352946 70.112565 
L 265.523078 71.589882 
L 266.693211 71.686668 
L 267.901089 71.369638 
L 269.033475 71.251828 
L 270.203607 72.199093 
L 271.335994 71.369674 
L 273.751751 71.837407 
L 274.884137 71.106327 
L 276.092015 69.779546 
L 277.262147 69.33345 
L 278.43228 68.261003 
L 279.564666 68.942499 
L 281.942676 69.088147 
L 283.112809 69.564084 
L 285.490819 69.251458 
L 286.660952 68.166003 
L 287.831084 66.145751 
L 289.001216 64.892971 
L 290.209095 64.834125 
L 291.341481 67.91646 
L 292.511613 67.876776 
L 293.719492 68.206234 
L 294.889624 68.224929 
L 296.02201 66.767935 
L 297.267635 67.989395 
L 298.400021 67.254967 
L 299.607899 66.714333 
L 300.740285 66.940155 
L 301.910418 67.417147 
L 303.042804 69.557117 
L 304.212936 68.40328 
L 305.496307 68.550694 
L 306.704185 68.190986 
L 307.94981 68.247053 
L 309.119942 69.922821 
L 310.327821 67.612229 
L 311.535699 66.67169 
L 312.743578 67.361237 
L 316.216228 65.229203 
L 317.348614 65.371884 
L 319.651133 66.451478 
L 320.896757 67.453876 
L 322.06689 65.687934 
L 323.237022 66.209466 
L 324.407154 68.928436 
L 326.747419 70.575349 
L 327.879805 72.035753 
L 329.049937 71.897964 
L 330.257816 72.162855 
L 331.427948 71.895913 
L 332.635826 72.611918 
L 333.768212 70.886564 
L 334.976091 70.87904 
L 336.108477 71.350538 
L 337.316355 71.561363 
L 338.486488 72.56055 
L 339.618874 73.141 
L 340.789006 71.61696 
L 341.996885 71.904049 
L 343.167017 70.840515 
L 344.337149 71.044077 
L 345.469535 70.29937 
L 346.71516 70.432987 
L 347.847546 70.72508 
L 349.017678 71.518858 
L 350.225557 71.615595 
L 351.395689 72.157686 
L 352.565821 71.280012 
L 353.7737 71.613495 
L 354.906086 70.378502 
L 356.076218 69.768451 
L 357.208604 71.230438 
L 358.454229 70.846841 
L 359.624361 69.903447 
L 360.794493 69.258619 
L 361.964626 68.089198 
L 363.097012 68.631776 
L 364.30489 67.405405 
L 365.39953 67.593729 
L 366.645155 66.919312 
L 367.815287 66.413089 
L 369.023165 68.177484 
L 370.117805 68.470963 
L 371.287938 70.423061 
L 372.495816 71.645959 
L 373.703695 72.183293 
L 374.798334 72.308355 
L 375.930721 70.826826 
L 377.214091 70.374276 
L 378.308731 67.5202 
L 379.51661 65.372007 
L 380.913219 64.230614 
L 382.309829 65.018174 
L 383.517707 66.125365 
L 387.103596 64.224162 
L 388.311475 63.949766 
L 389.368369 64.034672 
L 390.651739 63.712962 
L 391.821872 64.007029 
L 392.992004 65.208972 
L 394.162136 68.129647 
L 395.294522 68.663215 
L 396.502401 66.863323 
L 397.634787 65.386758 
L 398.880412 64.777748 
L 400.012798 64.019206 
L 401.220676 62.864799 
L 402.353062 62.125361 
L 403.560941 62.881411 
L 404.768819 65.658325 
L 405.938951 66.713378 
L 408.203724 62.361652 
L 409.524841 61.714716 
L 410.581734 62.484206 
L 411.789613 62.475102 
L 412.921999 62.025769 
L 414.054385 62.60763 
L 416.470142 67.422476 
L 417.640274 68.090832 
L 418.810407 66.360286 
L 420.093777 65.163782 
L 421.150671 65.966966 
L 422.35855 66.69009 
L 423.415443 66.026905 
L 424.925291 66.653677 
L 425.982185 66.824514 
L 427.076825 66.855321 
L 428.284703 66.453348 
L 429.454836 66.622943 
L 430.624968 65.503463 
L 431.757354 65.643285 
L 432.927486 67.517615 
L 434.022126 67.512672 
L 435.305497 67.377606 
L 436.437883 68.743629 
L 437.608015 68.787017 
L 438.778148 68.41847 
L 439.910534 69.434277 
L 442.326291 68.72784 
L 443.534169 67.787907 
L 444.666555 67.077545 
L 445.949926 65.92729 
L 446.931327 65.7012 
L 449.347084 67.75005 
L 450.47947 67.908491 
L 451.762841 68.732223 
L 452.932974 68.757045 
L 454.140852 69.645244 
L 455.122253 68.315222 
L 456.632101 67.040888 
L 457.953218 66.765205 
L 459.236589 67.911967 
L 460.595453 68.559688 
L 461.576854 68.285877 
L 462.935717 66.670147 
L 463.992611 65.907746 
L 465.238236 65.836668 
L 466.332875 66.53861 
L 467.5785 66.314071 
L 468.559901 66.328657 
L 469.994257 66.512374 
L 470.900166 66.754414 
L 472.221283 65.161508 
L 473.353669 64.645241 
L 474.63704 64.39953 
L 475.656187 64.860051 
L 476.864066 63.920871 
L 478.071944 64.195296 
L 481.506849 62.295419 
L 483.960352 60.389568 
L 485.092738 60.380622 
L 487.470749 62.126807 
L 488.565389 62.615398 
L 489.84876 62.899587 
L 490.981146 62.86804 
L 492.189024 62.427108 
L 493.434649 61.523153 
L 493.434649 61.523153 
" clip-path="url(#pe932e11fe4)" style="fill: none; stroke: #000000; stroke-width: 2.5; stroke-linecap: square"/>
   </g>
   <g id="line2d_98">
    <path d="M 59.013605 291.205218 
L 58.975859 291.205218 
L 58.975859 291.205218 
L 58.938112 101.200849 
L 59.013605 109.853251 
L 59.466559 291.205218 
L 71.658583 291.205218 
L 72.866461 123.826051 
L 73.961101 114.446913 
L 75.055741 103.681218 
L 76.150381 104.310901 
L 77.245021 99.163328 
L 78.377407 97.233161 
L 79.547539 95.921148 
L 80.717671 107.175225 
L 81.887803 100.679221 
L 83.095682 117.237045 
L 84.30356 115.141878 
L 85.511439 123.284477 
L 86.832556 107.093255 
L 88.115927 113.511291 
L 89.399298 110.148712 
L 90.682669 134.358185 
L 91.890547 291.205218 
L 101.327098 291.205218 
L 102.49723 133.749224 
L 103.667362 104.474728 
L 104.837495 107.250044 
L 106.007627 99.309924 
L 107.140013 102.495411 
L 108.272399 101.296736 
L 109.480277 112.09646 
L 110.688156 134.743891 
L 111.896034 144.344852 
L 113.066167 127.571585 
L 114.198553 291.205218 
L 115.406431 291.205218 
L 116.576564 128.302005 
L 117.746696 108.852305 
L 118.916828 108.078038 
L 120.08696 104.748519 
L 121.332585 105.333905 
L 122.502717 120.794689 
L 123.67285 127.405539 
L 124.880728 291.205218 
L 127.258739 291.205218 
L 128.428871 119.60354 
L 129.599003 102.006041 
L 130.806882 95.311547 
L 131.977014 91.5779 
L 133.147146 92.370827 
L 134.317279 92.648724 
L 135.525157 92.510501 
L 136.695289 93.866425 
L 137.865422 88.540198 
L 139.035554 88.409089 
L 141.413565 81.721884 
L 142.621443 79.151586 
L 143.791576 77.677472 
L 144.999454 77.965114 
L 146.169586 78.002232 
L 147.339719 77.629662 
L 148.547597 77.785256 
L 149.717729 75.889483 
L 150.925608 74.577496 
L 152.09574 71.134248 
L 153.303619 68.676511 
L 154.473751 67.420383 
L 155.643883 67.249349 
L 156.738523 67.91573 
L 157.908655 69.371241 
L 159.116534 69.380464 
L 160.286666 71.182145 
L 161.532291 72.027307 
L 162.740169 71.29789 
L 163.948048 70.415129 
L 165.080434 70.163509 
L 166.288312 70.541951 
L 167.458444 71.218115 
L 168.628577 69.932235 
L 169.836455 68.106924 
L 171.006587 66.009146 
L 172.101227 64.362255 
L 173.309106 63.137935 
L 174.441492 62.94961 
L 175.611624 63.342679 
L 176.819503 62.3783 
L 177.914143 62.585516 
L 179.122021 62.676542 
L 180.329899 62.140128 
L 183.840296 59.381201 
L 185.010429 59.453659 
L 186.218307 60.741376 
L 187.426186 61.421548 
L 188.596318 60.795847 
L 189.76645 61.017486 
L 190.974329 61.044664 
L 192.182207 60.040516 
L 193.427832 58.323364 
L 194.522472 57.498501 
L 195.73035 56.986475 
L 196.975975 56.590836 
L 198.146107 57.565505 
L 199.278493 57.356415 
L 201.618758 57.478866 
L 202.826636 58.221487 
L 203.959022 58.759931 
L 205.129154 58.853924 
L 206.299287 59.944568 
L 207.469419 60.38722 
L 208.639551 60.342494 
L 209.885176 60.793013 
L 211.017562 59.582201 
L 212.225441 59.451591 
L 213.395573 59.61841 
L 214.527959 60.847261 
L 215.773584 62.027216 
L 216.90597 61.005446 
L 218.076102 61.61749 
L 219.28398 61.626593 
L 220.454113 60.966278 
L 221.586499 60.722978 
L 222.756631 59.292694 
L 223.926763 58.86286 
L 225.096896 58.88792 
L 227.512653 61.532174 
L 228.682785 61.18579 
L 230.985303 63.746977 
L 232.155435 65.370005 
L 233.325568 66.086818 
L 234.533446 65.039864 
L 235.703578 63.845116 
L 236.873711 64.021578 
L 238.043843 64.577526 
L 239.251721 65.545514 
L 240.421854 65.228059 
L 241.591986 65.346492 
L 242.762118 66.505953 
L 243.932251 66.588171 
L 245.102383 68.736717 
L 246.272515 68.47961 
L 247.442647 67.404097 
L 248.575033 67.858659 
L 249.782912 66.850801 
L 251.028537 68.1826 
L 252.198669 67.381462 
L 253.368801 66.942389 
L 254.57668 66.354384 
L 255.709066 67.158345 
L 256.879198 69.306809 
L 258.124823 67.74518 
L 261.63522 68.2483 
L 262.805352 69.948602 
L 263.975484 68.579693 
L 265.145616 68.649921 
L 266.353495 69.138807 
L 267.523627 70.921834 
L 268.693759 70.312957 
L 269.901638 68.895193 
L 270.996278 69.035326 
L 272.16641 68.66749 
L 273.374288 68.830481 
L 275.714553 68.904206 
L 276.884685 69.586873 
L 278.092564 71.047511 
L 279.22495 70.586035 
L 280.395082 70.810537 
L 281.602961 69.336233 
L 282.773093 68.860061 
L 283.943225 68.770993 
L 285.151104 68.206853 
L 286.321236 68.347069 
L 287.453622 69.177873 
L 288.6615 69.172875 
L 289.869379 69.637867 
L 291.039511 68.880702 
L 292.171897 69.16843 
L 293.379776 68.208925 
L 294.549908 68.783054 
L 295.72004 67.856162 
L 296.890173 68.044816 
L 299.268183 66.254898 
L 300.362823 64.645619 
L 301.570702 63.920122 
L 303.948712 63.498637 
L 305.156591 63.894707 
L 306.364469 65.148719 
L 307.572348 66.767953 
L 308.780226 69.512623 
L 309.988105 70.153315 
L 311.158237 70.196732 
L 312.290623 69.408594 
L 313.498502 69.205962 
L 314.70638 68.383473 
L 315.838766 68.191051 
L 317.046645 67.845818 
L 318.216777 67.752831 
L 319.386909 69.487483 
L 320.519295 69.997862 
L 321.689428 69.431008 
L 322.935052 69.660249 
L 324.029692 71.269243 
L 325.237571 70.417209 
L 326.407703 70.112496 
L 327.540089 72.076846 
L 329.842607 69.488778 
L 331.088232 68.974743 
L 332.220618 67.7465 
L 333.428497 66.812469 
L 335.768761 69.416277 
L 336.901147 69.143082 
L 338.033533 71.717211 
L 339.279158 75.028211 
L 340.487036 74.792696 
L 341.657169 73.772297 
L 342.789555 72.009409 
L 343.921941 70.893232 
L 346.299952 69.033349 
L 348.677962 69.525566 
L 349.923587 71.31051 
L 350.980481 71.624098 
L 352.150613 72.574427 
L 353.396238 71.152629 
L 354.528624 71.981021 
L 355.811995 72.596375 
L 356.831142 71.372044 
L 357.963528 70.372571 
L 359.246899 71.177139 
L 360.379285 70.737652 
L 361.549417 68.788253 
L 362.757296 67.02888 
L 364.002921 66.726203 
L 365.135307 65.986153 
L 366.267693 67.318363 
L 367.437825 67.59494 
L 368.68345 67.498066 
L 369.77809 68.061846 
L 370.985968 69.482786 
L 372.1561 69.953653 
L 373.288486 69.070198 
L 375.628751 68.83691 
L 376.761137 68.57497 
L 377.969015 68.10663 
L 379.21464 65.557443 
L 380.460265 64.071182 
L 381.894621 64.277601 
L 383.177991 65.881051 
L 385.48051 66.883076 
L 386.688388 68.56756 
L 387.971759 68.527298 
L 389.104145 69.168757 
L 390.236531 68.45313 
L 391.406664 65.722928 
L 392.614542 65.667262 
L 393.860167 64.820464 
L 395.030299 65.365353 
L 396.0117 65.237581 
L 397.332817 66.131397 
L 398.540696 67.191708 
L 399.673082 66.248692 
L 400.843214 67.054292 
L 402.088839 66.765612 
L 403.258971 66.118309 
L 404.353611 66.014892 
L 405.561489 64.853597 
L 406.731622 64.974319 
L 407.901754 66.089865 
L 409.03414 67.897308 
L 410.279765 68.368855 
L 411.487643 68.953905 
L 412.544537 70.252763 
L 413.639177 69.79415 
L 414.960294 68.464125 
L 416.130426 68.542806 
L 417.300558 69.086976 
L 418.583929 68.833987 
L 419.640823 69.404563 
L 420.810955 69.589637 
L 423.15122 71.881076 
L 424.396844 72.075159 
L 425.604723 71.426693 
L 426.661617 70.168638 
L 427.831749 70.597807 
L 429.266105 70.808235 
L 430.360744 70.624402 
L 431.455384 69.303107 
L 432.550024 68.861742 
L 433.757903 70.311178 
L 434.852543 70.306654 
L 436.060421 70.073591 
L 437.2683 69.968966 
L 438.362939 68.478116 
L 439.64631 68.415426 
L 440.891935 68.899269 
L 441.986575 67.742325 
L 443.081215 68.267929 
L 444.326839 69.513399 
L 445.421479 69.820396 
L 446.70485 69.859066 
L 447.79949 69.596086 
L 448.931876 70.672077 
L 450.102008 70.869713 
L 451.385379 70.654346 
L 452.517765 70.118385 
L 453.687898 68.509296 
L 454.669299 69.004495 
L 456.216893 69.44276 
L 457.764487 68.086903 
L 459.010112 68.121523 
L 460.067006 68.674517 
L 461.350377 69.782544 
L 462.558255 69.179515 
L 463.50191 67.538066 
L 464.860774 66.550997 
L 465.917667 66.044659 
L 467.087799 64.988505 
L 468.333424 65.125913 
L 469.541303 65.528319 
L 471.843821 64.037664 
L 472.862968 64.31327 
L 474.184086 63.309234 
L 475.354218 63.889027 
L 476.52435 64.081655 
L 478.902361 63.851421 
L 480.261224 64.131494 
L 481.167133 64.594194 
L 482.412758 64.244278 
L 483.771621 64.180276 
L 484.639784 65.188433 
L 485.923154 63.885724 
L 487.131033 64.181804 
L 489.358059 63.247403 
L 490.679176 63.141224 
L 491.962547 63.807311 
L 492.906202 65.719464 
L 493.887603 69.966155 
L 493.887603 69.966155 
" clip-path="url(#pe932e11fe4)" style="fill: none; stroke: #1f77b4; stroke-width: 2.5; stroke-linecap: square"/>
   </g>
   <g id="line2d_99">
    <path d="M 58.636143 98.112531 
L 58.56065 291.205218 
L 58.673889 291.205218 
L 61.84457 291.205218 
L 63.996104 110.017717 
L 66.223129 120.05454 
L 68.185932 112.755352 
L 69.809019 95.230211 
L 71.205628 95.630464 
L 72.413507 92.965586 
L 73.508147 94.389477 
L 74.602786 93.588433 
L 75.697426 93.776239 
L 76.792066 99.15658 
L 77.924452 99.853452 
L 79.094585 111.239782 
L 80.264717 108.248916 
L 81.472595 111.391925 
L 82.680474 140.370303 
L 83.850606 143.134718 
L 85.058484 116.681044 
L 86.304109 105.461651 
L 87.58748 107.96846 
L 88.908597 111.915026 
L 90.229714 107.571149 
L 91.437593 110.019807 
L 92.607725 118.078043 
L 93.777857 291.205218 
L 99.628519 291.205218 
L 100.798651 105.021165 
L 102.006529 104.890967 
L 103.214408 98.778603 
L 104.422286 102.199552 
L 105.630165 108.817177 
L 106.762551 100.232917 
L 107.932683 93.13845 
L 109.178308 91.19494 
L 110.34844 89.781564 
L 111.480826 91.38579 
L 112.53772 83.82698 
L 113.707852 83.742346 
L 114.953477 82.493858 
L 116.161355 86.252782 
L 117.369234 89.398046 
L 119.747245 89.318908 
L 120.955123 93.642411 
L 122.125255 104.543117 
L 123.257641 117.265521 
L 124.46552 98.110162 
L 125.635652 104.278352 
L 126.843531 102.735497 
L 128.013663 98.521723 
L 130.467166 93.142351 
L 131.637298 89.271215 
L 132.807431 86.093006 
L 133.939817 87.550843 
L 135.109949 87.26746 
L 136.280081 85.200182 
L 137.563452 86.882682 
L 138.771331 85.136771 
L 139.903717 87.192008 
L 141.036103 90.471182 
L 142.243981 92.69037 
L 143.376367 95.754414 
L 144.584246 97.042381 
L 145.792124 93.600159 
L 146.962257 93.548679 
L 148.170135 86.672489 
L 149.340267 85.258981 
L 150.472653 79.013032 
L 151.680532 76.977111 
L 152.88841 75.940318 
L 155.228675 74.936976 
L 156.436553 73.099354 
L 157.644432 72.015835 
L 158.776818 72.769631 
L 159.984696 71.8427 
L 161.154829 74.275382 
L 162.324961 72.30637 
L 163.495093 72.740653 
L 164.665225 74.232007 
L 165.835358 73.560509 
L 167.00549 71.953464 
L 168.213368 70.05221 
L 169.383501 71.04675 
L 170.591379 69.779081 
L 171.723765 68.769708 
L 174.101776 68.560075 
L 175.271908 67.35409 
L 177.612173 66.19138 
L 178.782305 66.688059 
L 179.914691 67.895181 
L 181.12257 69.75641 
L 182.292702 69.089253 
L 183.462834 69.470553 
L 184.632967 67.891093 
L 185.840845 65.577548 
L 187.010977 62.790376 
L 188.256602 61.498227 
L 189.426734 61.341021 
L 191.804745 60.552372 
L 193.05037 61.297202 
L 194.220502 60.879349 
L 195.390634 61.218692 
L 196.52302 60.606266 
L 197.693153 59.188222 
L 198.863285 60.087133 
L 200.033417 61.338743 
L 201.203549 63.922901 
L 202.411428 63.36052 
L 203.58156 63.389488 
L 204.789439 64.384731 
L 205.921825 63.998417 
L 207.054211 63.065913 
L 208.299835 62.990313 
L 209.507714 62.5953 
L 210.677846 63.10402 
L 211.772486 63.868532 
L 213.018111 65.649583 
L 214.150497 64.785983 
L 215.396122 64.912213 
L 216.528508 64.140901 
L 217.69864 64.84744 
L 218.906518 65.274386 
L 220.076651 66.618672 
L 221.246783 66.492717 
L 222.379169 65.523151 
L 223.549301 65.029684 
L 224.719434 63.855372 
L 225.927312 62.806694 
L 227.135191 62.697412 
L 228.267577 62.123773 
L 229.475455 62.722347 
L 230.607841 64.985039 
L 231.81572 65.332891 
L 232.948106 65.830906 
L 234.118238 66.494623 
L 235.326116 68.180486 
L 236.496249 67.852927 
L 237.666381 68.028214 
L 238.836513 68.907108 
L 240.044392 67.679213 
L 241.176778 67.694036 
L 242.384656 70.503392 
L 243.554789 70.801738 
L 244.724921 70.528757 
L 245.857307 72.429096 
L 247.065185 74.115544 
L 249.367704 70.007194 
L 250.575582 69.333393 
L 251.707968 66.48393 
L 252.953593 67.103309 
L 254.048233 67.933283 
L 255.293858 67.176976 
L 256.46399 67.530488 
L 257.596376 69.465582 
L 259.974387 67.468625 
L 261.144519 67.638672 
L 262.352397 69.233038 
L 263.52253 70.988741 
L 264.692662 71.287397 
L 265.862794 70.577947 
L 267.032926 69.439743 
L 268.203059 69.584393 
L 269.410937 69.015651 
L 270.543323 66.738768 
L 271.788948 66.458569 
L 274.129213 71.927307 
L 275.299345 76.322106 
L 276.393985 73.392105 
L 277.677356 72.60459 
L 278.809742 71.62911 
L 279.979874 69.741618 
L 281.150006 68.448996 
L 282.357885 67.40528 
L 283.528017 67.941992 
L 284.660403 69.430553 
L 285.906028 69.241768 
L 287.113906 70.643105 
L 288.246292 69.128867 
L 289.416425 69.074156 
L 290.548811 68.013407 
L 291.794435 67.334177 
L 292.964568 67.330576 
L 294.1347 67.078333 
L 295.267086 68.503642 
L 296.512711 68.860905 
L 298.777483 70.341407 
L 301.155493 72.850039 
L 302.325626 70.583911 
L 303.495758 70.981286 
L 304.703637 71.893186 
L 305.873769 73.211945 
L 307.15714 75.670092 
L 308.402764 75.372515 
L 309.497404 75.52304 
L 310.743029 74.319384 
L 311.913161 74.235743 
L 314.253426 69.411923 
L 315.423558 69.238726 
L 316.555944 70.394947 
L 317.763823 71.277796 
L 318.971701 71.595622 
L 321.274219 73.536648 
L 322.519844 72.013622 
L 323.65223 72.130802 
L 325.992495 73.398529 
L 327.162627 73.738162 
L 328.332759 74.21197 
L 331.80541 73.427548 
L 333.013288 73.623484 
L 334.221167 72.844575 
L 335.315807 75.03395 
L 336.485939 77.735766 
L 337.656071 77.727413 
L 338.826204 76.174801 
L 340.034082 75.74765 
L 341.24196 75.007158 
L 343.582225 74.188993 
L 344.752357 73.109756 
L 345.960236 71.838959 
L 347.054876 72.353598 
L 348.187262 73.467427 
L 349.39514 72.351273 
L 350.565272 71.041685 
L 351.773151 71.703961 
L 352.905537 70.997618 
L 354.113416 71.279268 
L 355.35904 70.496978 
L 356.491426 70.710557 
L 357.586066 70.608746 
L 360.001823 73.019508 
L 361.171955 73.82376 
L 362.379834 73.527303 
L 363.587712 75.416363 
L 364.682352 74.567869 
L 365.890231 74.5466 
L 367.060363 72.752793 
L 368.192749 74.76624 
L 370.533014 70.574189 
L 371.6654 70.973877 
L 372.911024 71.249487 
L 374.118903 71.259694 
L 375.251289 71.589573 
L 377.6293 71.576847 
L 378.72394 71.307559 
L 380.00731 72.443551 
L 381.441666 71.277653 
L 382.762783 70.728907 
L 383.932915 71.25641 
L 385.17854 70.621816 
L 386.348672 69.364323 
L 387.556551 69.05844 
L 388.688937 69.194935 
L 389.859069 69.790045 
L 391.066948 69.631828 
L 392.23708 70.540555 
L 393.33172 69.842469 
L 394.615091 69.445784 
L 395.785223 68.467504 
L 396.955355 67.949307 
L 399.220127 66.509896 
L 400.352514 66.557993 
L 401.635884 67.53964 
L 402.806017 68.060464 
L 403.976149 70.269809 
L 405.033043 69.748014 
L 406.316414 70.670878 
L 407.562038 71.949138 
L 408.618932 71.942313 
L 409.864557 70.599264 
L 410.996943 68.903009 
L 412.204821 68.990825 
L 413.337207 69.986992 
L 414.620578 69.734269 
L 415.715218 71.21372 
L 416.847604 71.50264 
L 419.338853 75.713168 
L 420.508986 72.895352 
L 421.641372 71.206232 
L 422.736012 70.077967 
L 423.94389 68.430433 
L 425.189515 68.739377 
L 426.208662 67.117668 
L 428.624419 68.122434 
L 430.926938 71.634114 
L 432.172562 70.026186 
L 433.19171 69.91324 
L 434.512827 69.261952 
L 435.645213 67.978717 
L 436.815345 69.35632 
L 439.15561 67.527532 
L 440.438981 67.11107 
L 441.53362 69.909189 
L 442.666006 71.138542 
L 443.873885 72.022992 
L 445.081763 71.502276 
L 446.251896 72.375974 
L 447.459774 71.847099 
L 448.478922 72.373363 
L 449.6868 71.660934 
L 450.932425 69.85063 
L 452.064811 70.819639 
L 453.272689 72.07205 
L 454.367329 70.643231 
L 455.688446 72.390416 
L 457.085056 69.995293 
L 458.519411 70.073617 
L 459.614051 68.568559 
L 460.859676 68.455485 
L 462.067555 68.5807 
L 463.275433 68.136123 
L 464.445565 68.437089 
L 465.540205 67.059049 
L 466.672591 65.815376 
L 467.842723 66.492442 
L 468.97511 66.191837 
L 470.145242 67.095947 
L 471.35312 67.503519 
L 472.636491 68.812819 
L 473.84437 68.034199 
L 474.825771 68.941286 
L 476.071396 68.093405 
L 477.31702 67.395244 
L 478.487153 64.857334 
L 479.581792 65.13923 
L 480.789671 66.477443 
L 481.997549 66.399445 
L 483.129935 65.848534 
L 484.451053 65.820766 
L 485.4702 64.669012 
L 486.753571 64.275416 
L 488.905104 62.151874 
L 490.075237 61.760441 
L 491.547339 62.208191 
L 492.717471 63.929031 
L 493.585634 67.941867 
L 493.585634 67.941867 
" clip-path="url(#pe932e11fe4)" style="fill: none; stroke: #d62728; stroke-width: 2.5; stroke-linecap: square"/>
   </g>
   <g id="line2d_100">
    <path d="M 60.372468 112.927279 
L 60.334722 96.352784 
L 60.334722 138.151111 
L 60.334722 291.205218 
L 60.296976 126.161663 
L 60.447961 109.100263 
L 61.014154 109.51213 
L 62.297524 142.947121 
L 64.222581 136.341765 
L 66.41186 291.205218 
L 68.487902 146.611113 
L 70.337466 136.486101 
L 71.847314 109.68372 
L 73.206177 102.424553 
L 74.338563 98.443587 
L 75.433203 103.212 
L 76.527843 99.131466 
L 77.622483 98.125325 
L 78.754869 92.526299 
L 79.887255 94.923362 
L 81.057387 91.504793 
L 82.227519 91.755472 
L 83.435398 89.613918 
L 84.643276 89.788643 
L 87.172272 94.360014 
L 88.531135 87.861554 
L 89.77676 87.122982 
L 91.022384 88.457083 
L 92.230263 94.800733 
L 93.400395 97.325368 
L 94.570528 110.364804 
L 95.74066 291.205218 
L 96.910792 123.635783 
L 98.118671 113.683877 
L 99.288803 98.403745 
L 100.421189 88.984376 
L 101.591321 86.240824 
L 102.723707 86.871501 
L 103.931586 90.440595 
L 105.101718 95.595219 
L 106.27185 95.885057 
L 107.479729 99.144372 
L 108.649861 93.602989 
L 109.895486 95.239842 
L 111.065618 91.273685 
L 112.23575 88.759279 
L 113.481375 87.70695 
L 114.576015 87.004007 
L 115.783893 87.797364 
L 116.954026 88.876198 
L 118.124158 88.124209 
L 119.29429 92.009137 
L 120.464422 90.334183 
L 121.596808 98.092542 
L 122.766941 100.374872 
L 123.937073 103.597907 
L 125.144951 108.060592 
L 126.315084 99.671302 
L 127.522962 96.234784 
L 128.730841 94.264224 
L 129.900973 96.128963 
L 131.108851 93.59391 
L 132.278984 88.137289 
L 133.449116 89.211046 
L 134.656995 85.671839 
L 135.864873 84.429397 
L 137.072751 82.042657 
L 138.28063 79.400116 
L 139.488508 78.598246 
L 140.658641 77.002649 
L 142.998905 76.303911 
L 145.376916 78.22441 
L 146.547048 78.542481 
L 147.754927 78.689971 
L 148.962805 77.108052 
L 150.132938 78.451738 
L 151.30307 79.996484 
L 152.510948 80.528885 
L 153.681081 79.495035 
L 154.888959 79.633216 
L 156.059091 78.414032 
L 157.191477 75.560583 
L 158.323863 73.863226 
L 159.493996 71.705607 
L 160.664128 70.69407 
L 161.872006 70.182724 
L 163.042139 71.269769 
L 164.174525 72.902588 
L 165.382403 73.420445 
L 166.552536 73.273584 
L 167.722668 72.299397 
L 168.8928 71.596847 
L 170.025186 69.463026 
L 171.270811 66.288586 
L 172.478689 65.462562 
L 173.648822 63.657835 
L 176.026832 64.615402 
L 177.196965 64.63216 
L 178.404843 64.106739 
L 179.537229 63.198317 
L 180.745108 63.574559 
L 183.085372 60.799883 
L 184.180012 60.860813 
L 185.387891 59.899813 
L 186.520277 60.053197 
L 187.728155 60.046226 
L 188.97378 58.868341 
L 190.106166 58.79342 
L 191.276298 58.139547 
L 192.521923 57.841032 
L 194.899934 55.565526 
L 196.070066 55.097114 
L 197.240198 53.654856 
L 198.372584 52.853929 
L 200.788341 51.656443 
L 201.99622 52.313318 
L 203.128606 52.784117 
L 204.298738 53.102815 
L 205.46887 53.30041 
L 206.676749 54.099106 
L 207.809135 55.087787 
L 210.187146 57.420894 
L 211.357278 58.00338 
L 212.565156 58.068479 
L 213.697542 59.698309 
L 214.867675 59.858759 
L 216.075553 58.754916 
L 217.245685 57.46337 
L 218.415818 57.100654 
L 219.623696 56.870444 
L 220.793828 57.852582 
L 221.963961 57.942825 
L 223.171839 57.914495 
L 224.379718 57.468827 
L 225.54985 58.637787 
L 226.757728 58.304968 
L 227.890115 58.369956 
L 229.060247 58.727243 
L 230.268125 59.88234 
L 231.438258 60.339639 
L 233.778522 62.862328 
L 234.910908 63.369666 
L 236.118787 62.357128 
L 237.326665 62.570839 
L 238.496797 61.451968 
L 240.723823 62.237893 
L 243.13958 64.014811 
L 244.271966 64.447312 
L 245.479845 65.919545 
L 246.687723 66.544255 
L 247.857856 66.277803 
L 248.990242 65.842609 
L 250.160374 64.263731 
L 252.500639 64.673371 
L 253.670771 64.220066 
L 254.878649 65.146087 
L 256.048782 64.542297 
L 258.389046 67.433518 
L 259.559178 68.192908 
L 260.767057 67.950378 
L 261.937189 68.383 
L 263.107321 67.8968 
L 264.277454 68.333595 
L 265.447586 67.583154 
L 266.655464 67.910425 
L 267.750104 66.681037 
L 268.995729 67.117029 
L 270.165861 67.242153 
L 271.37374 67.099316 
L 272.581618 65.84128 
L 273.714004 64.01315 
L 274.84639 62.563533 
L 276.092015 62.106915 
L 277.224401 62.606745 
L 278.394533 63.886228 
L 279.564666 63.209906 
L 281.980423 65.537092 
L 283.150555 65.90227 
L 284.320687 65.020156 
L 285.453073 63.636054 
L 286.623206 63.306793 
L 289.038963 63.471547 
L 290.133602 64.411207 
L 291.341481 62.632013 
L 292.473867 62.947294 
L 293.681745 64.174636 
L 294.889624 63.28034 
L 297.192142 63.724173 
L 298.362275 63.300639 
L 299.570153 63.518432 
L 300.778031 63.274295 
L 301.834925 63.750037 
L 303.08055 63.486775 
L 304.212936 63.894456 
L 305.458561 65.454463 
L 306.741931 64.604984 
L 307.94981 65.914578 
L 309.082196 65.379078 
L 310.290074 64.430673 
L 311.422461 65.206848 
L 312.630339 65.86878 
L 313.838218 66.752627 
L 315.00835 67.799766 
L 316.140736 68.069673 
L 317.310868 69.11059 
L 318.481 69.044906 
L 319.651133 69.710899 
L 320.859011 67.51259 
L 322.029143 66.585701 
L 323.199276 66.294482 
L 325.501794 64.850786 
L 326.747419 65.420641 
L 327.879805 65.008333 
L 329.049937 65.69972 
L 331.390202 68.284661 
L 332.560334 68.853476 
L 333.730466 70.461524 
L 334.938345 71.435082 
L 336.108477 71.811187 
L 337.278609 70.674921 
L 338.410995 71.344088 
L 339.618874 69.396278 
L 340.826752 68.472129 
L 341.959138 69.074627 
L 343.167017 69.100764 
L 344.337149 68.929786 
L 345.469535 69.531486 
L 346.639667 69.796154 
L 347.923038 69.01629 
L 349.017678 68.038066 
L 350.150064 67.365581 
L 352.603567 65.385261 
L 353.698207 65.86646 
L 354.906086 64.98507 
L 356.038472 66.131568 
L 357.208604 66.812647 
L 358.454229 66.711914 
L 359.624361 67.022726 
L 360.719001 67.522183 
L 361.889133 67.184801 
L 363.059266 67.702784 
L 365.437276 65.811191 
L 366.607409 65.4691 
L 367.853033 67.691532 
L 368.985419 68.861089 
L 370.155552 69.855781 
L 371.287938 69.445731 
L 372.533562 67.942995 
L 373.628202 67.458515 
L 374.760588 67.47633 
L 376.006213 65.739505 
L 377.100853 65.616419 
L 378.346477 66.184058 
L 379.441117 67.179374 
L 380.913219 69.401274 
L 382.309829 70.096826 
L 383.5932 68.729424 
L 384.763332 68.349592 
L 386.008957 68.127282 
L 387.103596 67.301575 
L 388.349221 67.418773 
L 389.519353 67.205536 
L 390.613993 66.498311 
L 391.821872 66.75362 
L 393.02975 68.798685 
L 394.12439 69.913158 
L 395.294522 71.300541 
L 396.502401 70.897046 
L 397.710279 68.56142 
L 398.99365 68.573776 
L 399.975052 67.922557 
L 401.220676 65.941014 
L 402.428555 64.879667 
L 403.447702 65.323034 
L 404.731073 66.399594 
L 405.825713 65.940306 
L 407.033591 65.198338 
L 408.165977 64.157406 
L 409.411602 63.915973 
L 410.506242 65.534911 
L 411.827359 65.061143 
L 412.884253 65.469927 
L 414.054385 66.300598 
L 415.337756 67.393381 
L 416.39465 67.020396 
L 417.640274 66.089483 
L 418.734914 65.843281 
L 420.018285 66.119667 
L 421.377148 66.606983 
L 422.396296 67.828799 
L 423.453189 67.132981 
L 424.698814 68.458242 
L 425.906693 69.107403 
L 426.963586 68.861093 
L 428.246957 68.419105 
L 429.492582 69.951019 
L 430.587222 69.446376 
L 431.681862 71.018963 
L 432.927486 70.184089 
L 434.059872 70.389856 
L 435.041274 68.155007 
L 436.475629 67.331108 
L 437.608015 66.377753 
L 438.740401 65.887114 
L 439.94828 66.823317 
L 441.118412 69.319488 
L 442.175306 70.295502 
L 443.458677 74.08811 
L 448.139206 67.404913 
L 449.309338 66.7316 
L 450.403978 66.900231 
L 451.762841 67.480253 
L 452.819735 68.161723 
L 454.06536 67.745242 
L 455.084507 67.916599 
L 456.594355 67.33878 
L 457.915472 66.210472 
L 459.085605 66.351896 
L 460.444468 66.672438 
L 461.690092 68.590336 
L 463.01121 68.267512 
L 465.124997 67.143827 
L 467.465261 64.764219 
L 468.597648 64.733484 
L 469.730034 63.810067 
L 471.013405 62.456259 
L 472.221283 62.472427 
L 473.391415 63.305497 
L 474.523801 61.774751 
L 475.580695 62.623505 
L 476.864066 63.004205 
L 478.034198 62.437464 
L 479.166584 62.598056 
L 480.487701 64.802716 
L 481.733326 66.409912 
L 482.827966 65.446877 
L 484.035844 65.555363 
L 485.130484 65.988861 
L 486.074139 64.05965 
L 487.395256 64.019152 
L 488.640881 62.652586 
L 489.811013 61.983018 
L 490.943399 62.41012 
L 492.000293 64.613252 
L 493.170425 70.529366 
L 493.170425 70.529366 
" clip-path="url(#pe932e11fe4)" style="fill: none; stroke: #ff7f0e; stroke-width: 2.5; stroke-linecap: square"/>
   </g>
   <g id="line2d_101">
    <path d="M 59.089097 83.998007 
L 59.013605 94.839621 
L 58.975859 93.707994 
L 59.013605 95.63911 
L 59.089097 94.740012 
L 59.391067 94.383723 
L 60.334722 95.092542 
L 61.957809 96.462007 
L 64.184835 92.431619 
L 66.449607 94.756744 
L 68.450155 92.469814 
L 70.148735 90.911768 
L 71.507598 90.972332 
L 72.715476 88.542435 
L 73.810116 87.078225 
L 74.904756 90.064896 
L 75.999396 94.431613 
L 77.094036 106.931429 
L 78.264168 100.976362 
L 79.4343 104.907726 
L 80.642179 104.883127 
L 81.812311 99.057318 
L 83.057936 93.858455 
L 84.190322 92.824132 
L 85.360454 92.117904 
L 86.643825 100.429082 
L 87.88945 95.012675 
L 89.210567 98.128356 
L 90.456191 96.429792 
L 91.701816 100.936125 
L 92.909695 100.50354 
L 94.079827 93.325223 
L 95.287705 95.273161 
L 96.420091 96.846674 
L 97.62797 97.885822 
L 98.798102 96.116942 
L 100.043727 88.660119 
L 101.213859 90.624666 
L 102.383991 94.722097 
L 103.59187 95.995718 
L 105.932134 116.065713 
L 107.064521 291.205218 
L 108.310145 291.205218 
L 109.480277 120.073389 
L 110.688156 110.769331 
L 111.896034 157.539323 
L 113.103913 101.814298 
L 114.274045 92.097317 
L 115.444177 89.728405 
L 116.576564 92.417656 
L 117.784442 91.305386 
L 118.916828 93.832901 
L 120.08696 91.147552 
L 121.294839 93.014267 
L 123.635103 104.186676 
L 124.805236 90.360532 
L 126.013114 92.323869 
L 127.107754 97.183229 
L 129.523511 120.008263 
L 130.655897 148.186818 
L 131.863776 116.962889 
L 133.071654 107.654158 
L 134.241786 96.926083 
L 135.449665 88.715935 
L 136.657543 87.050576 
L 137.865422 88.894399 
L 139.111046 92.023904 
L 140.281179 89.521207 
L 141.489057 91.883155 
L 142.659189 92.071594 
L 143.829322 87.513614 
L 145.0372 83.753284 
L 147.377465 77.933977 
L 148.509851 77.683456 
L 149.679983 76.761568 
L 150.850115 76.313963 
L 152.057994 75.402273 
L 153.228126 77.981193 
L 154.436005 78.380344 
L 155.606137 77.228507 
L 156.738523 77.950606 
L 157.946401 77.300322 
L 159.116534 75.369415 
L 160.286666 73.762991 
L 161.494544 73.577758 
L 162.626931 73.119441 
L 163.797063 73.425794 
L 165.004941 73.165756 
L 166.175074 74.50757 
L 168.515338 75.664031 
L 172.063481 68.311026 
L 173.233613 68.196434 
L 174.479238 66.938767 
L 175.687117 65.360943 
L 176.857249 64.821949 
L 179.197513 65.60097 
L 180.367646 65.44694 
L 182.670164 64.593133 
L 183.840296 63.992912 
L 185.010429 64.143066 
L 187.350693 62.706392 
L 188.483079 62.682246 
L 189.728704 62.54334 
L 190.936582 62.72491 
L 192.106715 62.012163 
L 194.446979 59.709398 
L 195.654858 59.072944 
L 196.82499 58.217326 
L 198.032868 58.040037 
L 199.203001 57.738321 
L 200.335387 58.103837 
L 202.713398 59.737388 
L 203.921276 60.965739 
L 205.091408 60.665406 
L 206.299287 60.640584 
L 207.469419 61.282478 
L 208.601805 60.834815 
L 209.809684 61.707459 
L 210.979816 61.034407 
L 212.149948 60.905981 
L 213.282334 60.363961 
L 214.452466 61.775456 
L 215.660345 62.214036 
L 216.792731 61.502154 
L 219.208488 62.447665 
L 220.340874 61.81872 
L 221.511006 61.868476 
L 222.681139 61.12275 
L 223.889017 61.008278 
L 225.096896 61.570494 
L 226.267028 62.93112 
L 227.43716 62.709084 
L 228.607292 64.996917 
L 229.815171 65.975663 
L 230.947557 66.193712 
L 233.363314 66.090185 
L 234.4957 66.953652 
L 235.703578 66.012391 
L 238.043843 65.705792 
L 239.176229 66.487076 
L 240.346361 67.538206 
L 241.516494 67.250228 
L 242.762118 68.043436 
L 243.894504 69.628662 
L 245.064637 69.250115 
L 246.234769 68.728304 
L 247.442647 66.46606 
L 248.575033 66.710244 
L 249.782912 67.766273 
L 250.953044 67.633738 
L 252.123177 66.360704 
L 253.293309 67.16401 
L 255.709066 67.925289 
L 256.879198 66.766962 
L 258.04933 65.995259 
L 259.181716 65.911841 
L 260.351849 67.608852 
L 261.559727 67.967959 
L 262.692113 67.05203 
L 263.899992 66.878132 
L 265.032378 68.157266 
L 266.240256 69.301283 
L 267.410389 70.725703 
L 268.542775 69.538575 
L 269.712907 68.707033 
L 270.920785 68.127417 
L 272.053171 68.061818 
L 273.336542 67.331781 
L 274.468928 67.298065 
L 275.601314 68.643249 
L 276.733701 68.506834 
L 277.979325 69.613599 
L 279.111711 71.278939 
L 280.31959 68.296388 
L 281.527468 67.503176 
L 282.659854 67.269007 
L 283.867733 67.502705 
L 284.962373 68.368516 
L 286.170251 69.150036 
L 287.415876 70.220844 
L 288.586008 68.573346 
L 289.718394 68.646813 
L 292.134151 69.18511 
L 294.474416 68.726842 
L 296.776934 69.535009 
L 297.984812 69.828425 
L 299.117199 69.3731 
L 300.325077 67.036894 
L 301.532956 66.501085 
L 302.665342 67.219592 
L 303.87322 67.756216 
L 306.288977 67.814047 
L 307.496856 68.962604 
L 308.74248 69.747064 
L 311.082745 66.976624 
L 312.290623 66.864011 
L 313.498502 66.198671 
L 314.593142 66.998883 
L 315.725528 67.085337 
L 319.273671 72.09368 
L 320.481549 71.376778 
L 321.651681 71.074173 
L 322.746321 71.633392 
L 323.991946 72.068082 
L 325.124332 70.44827 
L 326.294464 70.154036 
L 327.464597 68.250546 
L 328.634729 68.070694 
L 329.842607 69.593676 
L 331.01274 68.843024 
L 332.145126 67.20812 
L 333.353004 68.315824 
L 334.48539 69.065904 
L 335.655523 68.754512 
L 336.787909 69.698957 
L 338.109026 67.719646 
L 339.279158 67.269259 
L 340.373798 69.675584 
L 341.506184 71.130522 
L 342.789555 70.698286 
L 343.884195 67.915175 
L 345.016581 67.880809 
L 348.640216 71.48612 
L 349.772602 70.532094 
L 352.188359 76.051075 
L 353.282999 73.590929 
L 354.453131 72.9848 
L 355.66101 69.887002 
L 356.831142 69.281799 
L 357.963528 69.960871 
L 359.13366 70.26394 
L 360.303793 69.03377 
L 361.473925 68.781214 
L 362.644057 69.663419 
L 363.81419 70.728683 
L 365.022068 70.010126 
L 366.154454 71.41124 
L 367.362333 70.665017 
L 369.702597 69.503667 
L 370.834983 68.241714 
L 372.005115 67.360901 
L 373.212994 67.130976 
L 374.383126 68.979901 
L 375.553259 70.484032 
L 376.685645 70.648748 
L 377.931269 70.664695 
L 379.101402 69.931519 
L 380.422519 70.139325 
L 381.743636 68.831665 
L 383.064753 68.286741 
L 384.310377 67.618195 
L 385.442764 67.234236 
L 386.763881 67.654087 
L 387.896267 67.120908 
L 389.066399 64.985069 
L 390.236531 65.122885 
L 391.406664 66.213023 
L 392.463557 68.098586 
L 393.784674 68.317319 
L 394.91706 69.346369 
L 396.0117 70.008904 
L 397.219579 71.387529 
L 398.389711 70.236604 
L 399.597589 68.55725 
L 400.767722 65.585716 
L 403.07024 66.691298 
L 404.315865 66.159512 
L 405.485997 66.175704 
L 406.580637 66.827777 
L 409.03414 71.297386 
L 410.053288 71.180993 
L 411.336658 70.634801 
L 412.544537 71.51306 
L 413.790162 73.041074 
L 414.960294 71.609086 
L 416.017188 68.702021 
L 417.225066 69.587487 
L 418.395198 69.396235 
L 419.527584 69.816474 
L 420.735463 70.062198 
L 421.867849 70.60691 
L 423.037981 71.432589 
L 424.24586 71.663988 
L 425.642469 72.436214 
L 427.831749 68.97248 
L 429.039627 68.964457 
L 430.134267 68.064376 
L 431.191161 68.10426 
L 432.436786 69.367914 
L 433.720156 71.949758 
L 434.814796 73.026681 
L 436.022675 72.600171 
L 437.155061 73.852451 
L 438.438432 73.705162 
L 439.608564 73.852336 
L 440.703204 72.852897 
L 441.797844 70.054353 
L 443.043468 68.822538 
L 444.251347 68.777854 
L 445.270494 68.565919 
L 446.553865 68.651922 
L 447.648505 69.564219 
L 448.89413 71.284693 
L 450.102008 72.700962 
L 451.272141 75.359483 
L 452.442273 75.133028 
L 453.499167 72.507202 
L 454.669299 72.413131 
L 456.065908 71.32773 
L 457.500264 69.213019 
L 458.745889 69.425695 
L 461.086153 67.639982 
L 462.558255 66.922532 
L 463.766134 68.366502 
L 464.558804 67.677792 
L 465.69119 68.328396 
L 466.974561 68.704232 
L 468.220186 68.10392 
L 469.390318 66.919038 
L 470.56045 66.012169 
L 471.768329 65.657122 
L 474.070847 63.443989 
L 475.240979 63.113113 
L 476.448858 63.312457 
L 477.656736 63.911795 
L 478.71363 63.832358 
L 480.072493 64.873245 
L 481.167133 65.374591 
L 482.412758 66.496986 
L 483.58289 68.431306 
L 484.715276 67.731647 
L 485.923154 66.384894 
L 487.055541 66.837194 
L 488.225673 67.639764 
L 490.490445 65.978536 
L 491.698323 65.443666 
L 492.943948 65.402563 
L 493.774365 66.108113 
L 493.774365 66.108113 
" clip-path="url(#pe932e11fe4)" style="fill: none; stroke: #9467bd; stroke-width: 2.5; stroke-linecap: square"/>
   </g>
   <g id="line2d_102">
    <path d="M 60.108245 101.405586 
L 60.070498 103.180982 
L 60.032752 102.153673 
L 60.070498 93.702473 
L 60.598945 101.371645 
L 61.731331 95.742291 
L 63.505403 95.256495 
L 65.694683 93.458637 
L 67.846216 90.600421 
L 69.733526 100.860684 
L 71.318867 99.049699 
L 72.67773 95.290152 
L 73.847862 90.534893 
L 74.942502 90.283957 
L 75.999396 89.00344 
L 77.131782 85.460558 
L 78.264168 86.155708 
L 79.358808 84.931364 
L 80.566686 86.415429 
L 81.774565 93.880187 
L 82.944697 91.83082 
L 84.190322 93.601983 
L 85.3982 91.308324 
L 86.681571 90.474057 
L 87.964942 86.886921 
L 89.286059 87.758038 
L 90.531684 91.975134 
L 91.777309 97.824442 
L 92.947441 105.446147 
L 94.155319 103.200336 
L 95.287705 106.250941 
L 96.457838 103.186796 
L 97.62797 103.757723 
L 98.835848 101.448026 
L 100.005981 97.069483 
L 101.213859 100.724445 
L 102.383991 117.210064 
L 103.59187 105.992201 
L 104.762002 107.387275 
L 105.932134 98.027189 
L 107.102267 99.071971 
L 108.272399 104.960471 
L 109.442531 141.36646 
L 110.612664 111.696465 
L 111.782796 107.950406 
L 112.990674 103.287625 
L 114.160807 103.287459 
L 115.330939 91.971778 
L 116.501071 91.294806 
L 117.671203 85.665178 
L 118.879082 83.371249 
L 120.08696 84.171265 
L 121.219346 84.600142 
L 122.389479 86.030244 
L 123.559611 87.194817 
L 124.729743 88.9324 
L 125.937622 93.117599 
L 127.070008 89.372004 
L 128.24014 88.979281 
L 129.410272 84.53436 
L 130.618151 81.402164 
L 131.826029 83.228786 
L 133.033908 84.672946 
L 134.20404 85.466291 
L 136.657543 85.759325 
L 137.865422 88.665863 
L 139.035554 83.32358 
L 140.205686 82.854087 
L 141.375819 78.480735 
L 143.753829 76.413018 
L 144.961708 74.05825 
L 146.13184 73.003287 
L 147.339719 74.302682 
L 148.509851 75.307629 
L 149.717729 78.460257 
L 150.925608 76.916448 
L 152.057994 79.629008 
L 153.228126 79.351132 
L 154.436005 78.892043 
L 155.568391 76.065836 
L 156.776269 74.901755 
L 157.984148 75.103414 
L 159.15428 74.826191 
L 160.324412 74.253862 
L 161.456798 73.916571 
L 162.664677 72.338867 
L 163.834809 71.520972 
L 164.967195 70.995404 
L 166.137327 71.187591 
L 167.382952 72.673025 
L 169.68547 73.4711 
L 170.855603 71.053152 
L 172.063481 69.306283 
L 173.233613 68.187276 
L 174.441492 64.962659 
L 175.573878 62.582633 
L 176.706264 61.815199 
L 177.914143 61.824946 
L 179.122021 61.704103 
L 180.292153 60.879803 
L 181.462286 60.876414 
L 182.594672 60.388781 
L 183.80255 60.794101 
L 184.972682 60.224714 
L 186.142815 58.052387 
L 187.350693 57.150331 
L 188.520825 55.74705 
L 189.653211 55.324482 
L 190.823344 54.577342 
L 193.276847 53.565555 
L 194.446979 53.799162 
L 195.73035 54.87259 
L 200.410879 54.781458 
L 201.618758 55.339859 
L 203.88353 55.207634 
L 208.601805 54.11623 
L 209.809684 54.178202 
L 210.94207 55.363793 
L 212.149948 55.960325 
L 213.32008 56.775075 
L 214.527959 57.842561 
L 215.698091 60.123623 
L 216.830477 60.436682 
L 218.038356 59.211325 
L 220.340874 58.020519 
L 221.548753 57.527284 
L 222.718885 57.756271 
L 223.926763 56.633176 
L 225.059149 57.286565 
L 226.267028 59.128132 
L 227.43716 61.433107 
L 228.645039 62.011718 
L 229.777425 63.89347 
L 230.947557 64.082495 
L 232.155435 64.059035 
L 233.287822 65.061027 
L 234.4957 64.147573 
L 235.665832 62.915631 
L 236.835965 62.567055 
L 238.043843 63.787325 
L 239.213975 63.33421 
L 240.384108 63.71864 
L 241.516494 63.658143 
L 242.724372 62.401316 
L 243.894504 63.853923 
L 245.064637 64.947623 
L 246.234769 64.646221 
L 247.404901 65.167228 
L 248.61278 65.873937 
L 249.782912 67.249217 
L 250.953044 67.846313 
L 252.123177 69.69489 
L 253.293309 69.199836 
L 254.425695 70.436226 
L 255.633573 70.755072 
L 256.803706 70.511177 
L 257.973838 69.786547 
L 259.14397 68.303425 
L 260.314102 66.478426 
L 261.484235 65.441374 
L 262.616621 65.595471 
L 263.862245 66.245109 
L 265.032378 66.514897 
L 266.240256 67.013509 
L 267.334896 65.429567 
L 268.505028 65.603283 
L 269.712907 63.818751 
L 270.883039 63.30316 
L 272.053171 61.995343 
L 273.223304 63.444138 
L 274.35569 64.231657 
L 275.601314 65.955382 
L 276.771447 67.355531 
L 277.979325 67.565423 
L 279.111711 67.129052 
L 280.244097 67.148306 
L 281.451976 65.182407 
L 282.622108 64.777627 
L 283.79224 63.307298 
L 285.037865 63.217219 
L 286.207997 62.154138 
L 287.340383 62.758772 
L 288.472769 61.634698 
L 289.680648 61.595798 
L 290.813034 62.515446 
L 291.94542 63.802046 
L 293.077806 64.260347 
L 294.361177 64.926187 
L 295.493563 66.004326 
L 296.701442 68.640389 
L 299.041706 69.817471 
L 300.249585 67.04295 
L 301.419717 66.112941 
L 302.589849 66.472204 
L 303.797728 64.542173 
L 306.251231 62.091453 
L 307.496856 62.307861 
L 308.704734 64.193496 
L 309.83712 63.956005 
L 310.856268 64.699439 
L 312.101892 65.810019 
L 313.234278 65.851868 
L 314.479903 67.662634 
L 315.650035 68.051683 
L 316.857914 68.919402 
L 318.028046 67.573998 
L 319.235924 67.414025 
L 321.613935 65.644245 
L 322.746321 65.186838 
L 323.9542 65.421688 
L 325.086586 64.538034 
L 326.256718 65.858998 
L 327.464597 66.687794 
L 328.672475 65.647582 
L 329.842607 65.192734 
L 332.182872 65.9479 
L 333.277512 66.981018 
L 334.560883 67.517492 
L 335.655523 67.129532 
L 339.165919 66.294482 
L 340.373798 64.757686 
L 341.619423 65.611995 
L 342.714062 66.762221 
L 343.846448 68.149752 
L 345.167566 68.600828 
L 346.262205 70.204056 
L 348.640216 68.737758 
L 349.69711 68.72132 
L 352.075121 69.290542 
L 354.453131 70.832488 
L 356.831142 68.535827 
L 358.001274 67.882966 
L 360.303793 66.365016 
L 361.473925 66.920614 
L 362.644057 67.646593 
L 363.81419 69.560008 
L 365.059814 68.823195 
L 366.1922 69.144528 
L 367.362333 67.546358 
L 368.532465 66.404725 
L 369.740343 66.183211 
L 370.872729 66.641239 
L 372.005115 66.596116 
L 373.212994 68.159914 
L 374.420872 68.693524 
L 375.553259 69.050931 
L 378.006762 67.339317 
L 379.063655 66.107868 
L 380.498011 65.28001 
L 381.781382 65.724645 
L 383.102499 65.067113 
L 384.272631 64.74106 
L 385.442764 65.561448 
L 386.726134 64.92384 
L 387.896267 64.544462 
L 389.066399 65.639583 
L 390.198785 64.558132 
L 391.368917 64.793243 
L 392.53905 64.093349 
L 393.746928 64.46398 
L 394.91706 64.641637 
L 396.049446 64.399914 
L 397.219579 63.738802 
L 398.50295 62.644739 
L 399.635336 62.260032 
L 400.805468 62.922093 
L 401.937854 62.477476 
L 403.107986 62.669241 
L 404.315865 63.283283 
L 405.410505 65.129201 
L 406.693876 67.0059 
L 407.788515 67.800051 
L 410.204272 71.038211 
L 411.336658 71.752613 
L 412.544537 71.4871 
L 413.714669 70.257099 
L 414.884801 67.625504 
L 416.017188 67.223341 
L 417.262812 66.019467 
L 418.357452 64.280913 
L 419.678569 63.703092 
L 420.65997 65.078831 
L 423.188966 66.788867 
L 424.24586 67.84976 
L 425.453738 70.918156 
L 426.888094 70.141972 
L 427.944988 69.35246 
L 430.096521 68.189311 
L 431.266653 67.961393 
L 432.512278 67.887971 
L 433.720156 67.344812 
L 434.852543 68.207538 
L 435.909436 67.857033 
L 437.079569 68.694784 
L 438.325193 66.872531 
L 439.495325 65.793889 
L 440.74095 66.507841 
L 441.83559 66.703089 
L 443.005722 66.338643 
L 444.251347 66.976207 
L 445.459225 66.897727 
L 446.553865 68.713135 
L 447.686251 68.675168 
L 448.856384 66.65845 
L 451.196648 65.91074 
L 452.404527 65.935179 
L 453.612405 66.76032 
L 454.669299 65.776707 
L 456.065908 65.580106 
L 457.500264 65.744116 
L 458.670396 67.830385 
L 459.953767 67.517484 
L 461.123899 65.647331 
L 462.294032 64.499933 
L 463.539656 63.797791 
L 464.89852 62.191917 
L 465.842175 61.67935 
L 466.936815 60.609466 
L 468.031455 60.167268 
L 469.314825 61.26599 
L 471.692836 62.919258 
L 472.938461 64.872131 
L 474.070847 66.938345 
L 475.203233 67.608814 
L 476.335619 65.924273 
L 477.656736 66.504307 
L 478.751376 65.741564 
L 479.921508 63.681432 
L 481.129387 63.176611 
L 482.337265 61.915373 
L 483.356413 61.608273 
L 484.753022 62.520244 
L 485.998647 63.501852 
L 487.206525 63.56566 
L 488.112434 64.45579 
L 489.207074 65.714008 
L 490.603684 66.608142 
L 491.811562 66.66442 
L 492.717471 65.508515 
L 493.887603 63.092529 
L 493.887603 63.092529 
" clip-path="url(#pe932e11fe4)" style="fill: none; stroke: #2ca02c; stroke-width: 2.5; stroke-linecap: square"/>
   </g>
   <g id="patch_3">
    <path d="M 60.598945 303.182656 
L 60.598945 39.679004 
" style="fill: none; stroke: #000000; stroke-width: 1.5; stroke-linejoin: miter; stroke-linecap: square"/>
   </g>
   <g id="patch_4">
    <path d="M 60.598945 303.182656 
L 494.680273 303.182656 
" style="fill: none; stroke: #000000; stroke-width: 1.5; stroke-linejoin: miter; stroke-linecap: square"/>
   </g>
   <g id="text_17">
    <!-- 1421_wo_HF -->
    <g transform="translate(236.004922 18.441699) scale(0.14 -0.14)">
     <defs>
      <path id="ArialMT-42" d="M -97 -1272 
L -97 -866 
L 3631 -866 
L 3631 -1272 
L -97 -1272 
z
" transform="scale(0.015625)"/>
      <path id="ArialMT-5a" d="M 1034 0 
L 19 3319 
L 600 3319 
L 1128 1403 
L 1325 691 
Q 1338 744 1497 1375 
L 2025 3319 
L 2603 3319 
L 3100 1394 
L 3266 759 
L 3456 1400 
L 4025 3319 
L 4572 3319 
L 3534 0 
L 2950 0 
L 2422 1988 
L 2294 2553 
L 1622 0 
L 1034 0 
z
" transform="scale(0.015625)"/>
      <path id="ArialMT-2b" d="M 513 0 
L 513 4581 
L 1119 4581 
L 1119 2700 
L 3500 2700 
L 3500 4581 
L 4106 4581 
L 4106 0 
L 3500 0 
L 3500 2159 
L 1119 2159 
L 1119 0 
L 513 0 
z
" transform="scale(0.015625)"/>
      <path id="ArialMT-29" d="M 525 0 
L 525 4581 
L 3616 4581 
L 3616 4041 
L 1131 4041 
L 1131 2622 
L 3281 2622 
L 3281 2081 
L 1131 2081 
L 1131 0 
L 525 0 
z
" transform="scale(0.015625)"/>
     </defs>
     <use xlink:href="#ArialMT-14"/>
     <use xlink:href="#ArialMT-17" transform="translate(55.609375 0)"/>
     <use xlink:href="#ArialMT-15" transform="translate(111.21875 0)"/>
     <use xlink:href="#ArialMT-14" transform="translate(166.828125 0)"/>
     <use xlink:href="#ArialMT-42" transform="translate(222.4375 0)"/>
     <use xlink:href="#ArialMT-5a" transform="translate(278.046875 0)"/>
     <use xlink:href="#ArialMT-52" transform="translate(350.265625 0)"/>
     <use xlink:href="#ArialMT-42" transform="translate(405.875 0)"/>
     <use xlink:href="#ArialMT-2b" transform="translate(461.484375 0)"/>
     <use xlink:href="#ArialMT-29" transform="translate(533.703125 0)"/>
    </g>
    <!-- m/z 20 -->
    <g transform="translate(256.634141 33.679004) scale(0.14 -0.14)">
     <use xlink:href="#ArialMT-50"/>
     <use xlink:href="#ArialMT-12" transform="translate(83.296875 0)"/>
     <use xlink:href="#ArialMT-5d" transform="translate(111.078125 0)"/>
     <use xlink:href="#ArialMT-3" transform="translate(161.078125 0)"/>
     <use xlink:href="#ArialMT-15" transform="translate(188.859375 0)"/>
     <use xlink:href="#ArialMT-13" transform="translate(244.46875 0)"/>
    </g>
   </g>
   <g id="legend_1">
    <g id="line2d_103">
     <path d="M 512.3619 52.459277 
L 522.3619 52.459277 
L 532.3619 52.459277 
" style="fill: none; stroke: #000000; stroke-width: 2.5; stroke-linecap: square"/>
    </g>
    <g id="text_18">
     <!-- 0 h -->
     <g transform="translate(540.3619 55.959277) scale(0.1 -0.1)">
      <defs>
       <path id="ArialMT-4b" d="M 422 0 
L 422 4581 
L 984 4581 
L 984 2938 
Q 1378 3394 1978 3394 
Q 2347 3394 2619 3248 
Q 2891 3103 3008 2847 
Q 3125 2591 3125 2103 
L 3125 0 
L 2563 0 
L 2563 2103 
Q 2563 2525 2380 2717 
Q 2197 2909 1863 2909 
Q 1613 2909 1392 2779 
Q 1172 2650 1078 2428 
Q 984 2206 984 1816 
L 984 0 
L 422 0 
z
" transform="scale(0.015625)"/>
      </defs>
      <use xlink:href="#ArialMT-13"/>
      <use xlink:href="#ArialMT-3" transform="translate(55.609375 0)"/>
      <use xlink:href="#ArialMT-4b" transform="translate(83.390625 0)"/>
     </g>
    </g>
    <g id="line2d_104">
     <path d="M 512.3619 66.844043 
L 522.3619 66.844043 
L 532.3619 66.844043 
" style="fill: none; stroke: #1f77b4; stroke-width: 2.5; stroke-linecap: square"/>
    </g>
    <g id="text_19">
     <!-- 6 h -->
     <g transform="translate(540.3619 70.344043) scale(0.1 -0.1)">
      <use xlink:href="#ArialMT-19"/>
      <use xlink:href="#ArialMT-3" transform="translate(55.609375 0)"/>
      <use xlink:href="#ArialMT-4b" transform="translate(83.390625 0)"/>
     </g>
    </g>
    <g id="line2d_105">
     <path d="M 512.3619 81.228809 
L 522.3619 81.228809 
L 532.3619 81.228809 
" style="fill: none; stroke: #d62728; stroke-width: 2.5; stroke-linecap: square"/>
    </g>
    <g id="text_20">
     <!-- 24 h -->
     <g transform="translate(540.3619 84.728809) scale(0.1 -0.1)">
      <use xlink:href="#ArialMT-15"/>
      <use xlink:href="#ArialMT-17" transform="translate(55.609375 0)"/>
      <use xlink:href="#ArialMT-3" transform="translate(111.21875 0)"/>
      <use xlink:href="#ArialMT-4b" transform="translate(139 0)"/>
     </g>
    </g>
    <g id="line2d_106">
     <path d="M 512.3619 95.613574 
L 522.3619 95.613574 
L 532.3619 95.613574 
" style="fill: none; stroke: #ff7f0e; stroke-width: 2.5; stroke-linecap: square"/>
    </g>
    <g id="text_21">
     <!-- 7 d -->
     <g transform="translate(540.3619 99.113574) scale(0.1 -0.1)">
      <defs>
       <path id="ArialMT-47" d="M 2575 0 
L 2575 419 
Q 2259 -75 1647 -75 
Q 1250 -75 917 144 
Q 584 363 401 755 
Q 219 1147 219 1656 
Q 219 2153 384 2558 
Q 550 2963 881 3178 
Q 1213 3394 1622 3394 
Q 1922 3394 2156 3267 
Q 2391 3141 2538 2938 
L 2538 4581 
L 3097 4581 
L 3097 0 
L 2575 0 
z
M 797 1656 
Q 797 1019 1065 703 
Q 1334 388 1700 388 
Q 2069 388 2326 689 
Q 2584 991 2584 1609 
Q 2584 2291 2321 2609 
Q 2059 2928 1675 2928 
Q 1300 2928 1048 2622 
Q 797 2316 797 1656 
z
" transform="scale(0.015625)"/>
      </defs>
      <use xlink:href="#ArialMT-1a"/>
      <use xlink:href="#ArialMT-3" transform="translate(55.609375 0)"/>
      <use xlink:href="#ArialMT-47" transform="translate(83.390625 0)"/>
     </g>
    </g>
    <g id="line2d_107">
     <path d="M 512.3619 109.99834 
L 522.3619 109.99834 
L 532.3619 109.99834 
" style="fill: none; stroke: #9467bd; stroke-width: 2.5; stroke-linecap: square"/>
    </g>
    <g id="text_22">
     <!-- 14 d -->
     <g transform="translate(540.3619 113.49834) scale(0.1 -0.1)">
      <use xlink:href="#ArialMT-14"/>
      <use xlink:href="#ArialMT-17" transform="translate(55.609375 0)"/>
      <use xlink:href="#ArialMT-3" transform="translate(111.21875 0)"/>
      <use xlink:href="#ArialMT-47" transform="translate(139 0)"/>
     </g>
    </g>
    <g id="line2d_108">
     <path d="M 512.3619 124.383105 
L 522.3619 124.383105 
L 532.3619 124.383105 
" style="fill: none; stroke: #2ca02c; stroke-width: 2.5; stroke-linecap: square"/>
    </g>
    <g id="text_23">
     <!-- 28 d -->
     <g transform="translate(540.3619 127.883105) scale(0.1 -0.1)">
      <use xlink:href="#ArialMT-15"/>
      <use xlink:href="#ArialMT-1b" transform="translate(55.609375 0)"/>
      <use xlink:href="#ArialMT-3" transform="translate(111.21875 0)"/>
      <use xlink:href="#ArialMT-47" transform="translate(139 0)"/>
     </g>
    </g>
   </g>
  </g>
 </g>
 <defs>
  <clipPath id="pe932e11fe4">
   <rect x="60.598945" y="39.679004" width="434.081328" height="263.503652"/>
  </clipPath>
 </defs>
</svg>
