<?xml version="1.0" encoding="utf-8" standalone="no"?>
<!DOCTYPE svg PUBLIC "-//W3C//DTD SVG 1.1//EN"
  "http://www.w3.org/Graphics/SVG/1.1/DTD/svg11.dtd">
<svg xmlns:xlink="http://www.w3.org/1999/xlink" width="571.022837pt" height="344.160273pt" viewBox="0 0 571.022837 344.160273" xmlns="http://www.w3.org/2000/svg" version="1.1">
 <metadata>
  <rdf:RDF xmlns:dc="http://purl.org/dc/elements/1.1/" xmlns:cc="http://creativecommons.org/ns#" xmlns:rdf="http://www.w3.org/1999/02/22-rdf-syntax-ns#">
   <cc:Work>
    <dc:type rdf:resource="http://purl.org/dc/dcmitype/StillImage"/>
    <dc:date>2026-07-10T11:48:40.190492</dc:date>
    <dc:format>image/svg+xml</dc:format>
    <dc:creator>
     <cc:Agent>
      <dc:title>Matplotlib v3.11.0, https://matplotlib.org/</dc:title>
     </cc:Agent>
    </dc:creator>
   </cc:Work>
  </rdf:RDF>
 </metadata>
 <defs>
  <style type="text/css">*{stroke-linejoin: round; stroke-linecap: butt}</style>
 </defs>
 <g id="figure_1">
  <g id="patch_1">
   <path d="M 0 344.160273 
L 571.022837 344.160273 
L 571.022837 0 
L 0 0 
z
" style="fill: #ffffff"/>
  </g>
  <g id="axes_1">
   <g id="patch_2">
    <path d="M 60.598945 303.182656 
L 494.680273 303.182656 
L 494.680273 39.679004 
L 60.598945 39.679004 
z
" style="fill: #ffffff"/>
   </g>
   <g id="matplotlib.axis_1">
    <g id="xtick_1">
     <g id="line2d_1">
      <defs>
       <path id="m7b235356f3" d="M 0 0 
L 0 -6 
" style="stroke: #000000; stroke-width: 0.8"/>
      </defs>
      <g>
       <use xlink:href="#m7b235356f3" x="117.218249" y="303.182656" style="stroke: #000000; stroke-width: 0.8"/>
      </g>
     </g>
     <g id="text_1">
      <!-- 200 -->
      <g transform="translate(105.54028 316.875039) scale(0.14 -0.14)">
       <defs>
        <path id="ArialMT-15" d="M 3222 541 
L 3222 0 
L 194 0 
Q 188 203 259 391 
Q 375 700 629 1000 
Q 884 1300 1366 1694 
Q 2113 2306 2375 2664 
Q 2638 3022 2638 3341 
Q 2638 3675 2398 3904 
Q 2159 4134 1775 4134 
Q 1369 4134 1125 3890 
Q 881 3647 878 3216 
L 300 3275 
Q 359 3922 746 4261 
Q 1134 4600 1788 4600 
Q 2447 4600 2831 4234 
Q 3216 3869 3216 3328 
Q 3216 3053 3103 2787 
Q 2991 2522 2730 2228 
Q 2469 1934 1863 1422 
Q 1356 997 1212 845 
Q 1069 694 975 541 
L 3222 541 
z
" transform="scale(0.015625)"/>
        <path id="ArialMT-13" d="M 266 2259 
Q 266 3072 433 3567 
Q 600 4063 929 4331 
Q 1259 4600 1759 4600 
Q 2128 4600 2406 4451 
Q 2684 4303 2865 4023 
Q 3047 3744 3150 3342 
Q 3253 2941 3253 2259 
Q 3253 1453 3087 958 
Q 2922 463 2592 192 
Q 2263 -78 1759 -78 
Q 1097 -78 719 397 
Q 266 969 266 2259 
z
M 844 2259 
Q 844 1131 1108 757 
Q 1372 384 1759 384 
Q 2147 384 2411 759 
Q 2675 1134 2675 2259 
Q 2675 3391 2411 3762 
Q 2147 4134 1753 4134 
Q 1366 4134 1134 3806 
Q 844 3388 844 2259 
z
" transform="scale(0.015625)"/>
       </defs>
       <use xlink:href="#ArialMT-15"/>
       <use xlink:href="#ArialMT-13" transform="translate(55.609375 0)"/>
       <use xlink:href="#ArialMT-13" transform="translate(111.21875 0)"/>
      </g>
     </g>
    </g>
    <g id="xtick_2">
     <g id="line2d_2">
      <g>
       <use xlink:href="#m7b235356f3" x="192.710654" y="303.182656" style="stroke: #000000; stroke-width: 0.8"/>
      </g>
     </g>
     <g id="text_2">
      <!-- 400 -->
      <g transform="translate(181.032685 316.875039) scale(0.14 -0.14)">
       <defs>
        <path id="ArialMT-17" d="M 2069 0 
L 2069 1097 
L 81 1097 
L 81 1613 
L 2172 4581 
L 2631 4581 
L 2631 1613 
L 3250 1613 
L 3250 1097 
L 2631 1097 
L 2631 0 
L 2069 0 
z
M 2069 1613 
L 2069 3678 
L 634 1613 
L 2069 1613 
z
" transform="scale(0.015625)"/>
       </defs>
       <use xlink:href="#ArialMT-17"/>
       <use xlink:href="#ArialMT-13" transform="translate(55.609375 0)"/>
       <use xlink:href="#ArialMT-13" transform="translate(111.21875 0)"/>
      </g>
     </g>
    </g>
    <g id="xtick_3">
     <g id="line2d_3">
      <g>
       <use xlink:href="#m7b235356f3" x="268.203059" y="303.182656" style="stroke: #000000; stroke-width: 0.8"/>
      </g>
     </g>
     <g id="text_3">
      <!-- 600 -->
      <g transform="translate(256.52509 316.875039) scale(0.14 -0.14)">
       <defs>
        <path id="ArialMT-19" d="M 3184 3459 
L 2625 3416 
Q 2550 3747 2413 3897 
Q 2184 4138 1850 4138 
Q 1581 4138 1378 3988 
Q 1113 3794 959 3422 
Q 806 3050 800 2363 
Q 1003 2672 1297 2822 
Q 1591 2972 1913 2972 
Q 2475 2972 2870 2558 
Q 3266 2144 3266 1488 
Q 3266 1056 3080 686 
Q 2894 316 2569 119 
Q 2244 -78 1831 -78 
Q 1128 -78 684 439 
Q 241 956 241 2144 
Q 241 3472 731 4075 
Q 1159 4600 1884 4600 
Q 2425 4600 2770 4297 
Q 3116 3994 3184 3459 
z
M 888 1484 
Q 888 1194 1011 928 
Q 1134 663 1356 523 
Q 1578 384 1822 384 
Q 2178 384 2434 671 
Q 2691 959 2691 1453 
Q 2691 1928 2437 2201 
Q 2184 2475 1800 2475 
Q 1419 2475 1153 2201 
Q 888 1928 888 1484 
z
" transform="scale(0.015625)"/>
       </defs>
       <use xlink:href="#ArialMT-19"/>
       <use xlink:href="#ArialMT-13" transform="translate(55.609375 0)"/>
       <use xlink:href="#ArialMT-13" transform="translate(111.21875 0)"/>
      </g>
     </g>
    </g>
    <g id="xtick_4">
     <g id="line2d_4">
      <g>
       <use xlink:href="#m7b235356f3" x="343.695464" y="303.182656" style="stroke: #000000; stroke-width: 0.8"/>
      </g>
     </g>
     <g id="text_4">
      <!-- 800 -->
      <g transform="translate(332.017495 316.875039) scale(0.14 -0.14)">
       <defs>
        <path id="ArialMT-1b" d="M 1131 2484 
Q 781 2613 612 2850 
Q 444 3088 444 3419 
Q 444 3919 803 4259 
Q 1163 4600 1759 4600 
Q 2359 4600 2725 4251 
Q 3091 3903 3091 3403 
Q 3091 3084 2923 2848 
Q 2756 2613 2416 2484 
Q 2838 2347 3058 2040 
Q 3278 1734 3278 1309 
Q 3278 722 2862 322 
Q 2447 -78 1769 -78 
Q 1091 -78 675 323 
Q 259 725 259 1325 
Q 259 1772 486 2073 
Q 713 2375 1131 2484 
z
M 1019 3438 
Q 1019 3113 1228 2906 
Q 1438 2700 1772 2700 
Q 2097 2700 2305 2904 
Q 2513 3109 2513 3406 
Q 2513 3716 2298 3927 
Q 2084 4138 1766 4138 
Q 1444 4138 1231 3931 
Q 1019 3725 1019 3438 
z
M 838 1322 
Q 838 1081 952 856 
Q 1066 631 1291 507 
Q 1516 384 1775 384 
Q 2178 384 2440 643 
Q 2703 903 2703 1303 
Q 2703 1709 2433 1975 
Q 2163 2241 1756 2241 
Q 1359 2241 1098 1978 
Q 838 1716 838 1322 
z
" transform="scale(0.015625)"/>
       </defs>
       <use xlink:href="#ArialMT-1b"/>
       <use xlink:href="#ArialMT-13" transform="translate(55.609375 0)"/>
       <use xlink:href="#ArialMT-13" transform="translate(111.21875 0)"/>
      </g>
     </g>
    </g>
    <g id="xtick_5">
     <g id="line2d_5">
      <g>
       <use xlink:href="#m7b235356f3" x="419.187869" y="303.182656" style="stroke: #000000; stroke-width: 0.8"/>
      </g>
     </g>
     <g id="text_5">
      <!-- 1000 -->
      <g transform="translate(403.617244 316.875039) scale(0.14 -0.14)">
       <defs>
        <path id="ArialMT-14" d="M 2384 0 
L 1822 0 
L 1822 3584 
Q 1619 3391 1289 3197 
Q 959 3003 697 2906 
L 697 3450 
Q 1169 3672 1522 3987 
Q 1875 4303 2022 4600 
L 2384 4600 
L 2384 0 
z
" transform="scale(0.015625)"/>
       </defs>
       <use xlink:href="#ArialMT-14"/>
       <use xlink:href="#ArialMT-13" transform="translate(55.609375 0)"/>
       <use xlink:href="#ArialMT-13" transform="translate(111.21875 0)"/>
       <use xlink:href="#ArialMT-13" transform="translate(166.828125 0)"/>
      </g>
     </g>
    </g>
    <g id="xtick_6">
     <g id="line2d_6">
      <g>
       <use xlink:href="#m7b235356f3" x="494.680273" y="303.182656" style="stroke: #000000; stroke-width: 0.8"/>
      </g>
     </g>
     <g id="text_6">
      <!-- 1200 -->
      <g transform="translate(479.109648 316.875039) scale(0.14 -0.14)">
       <use xlink:href="#ArialMT-14"/>
       <use xlink:href="#ArialMT-15" transform="translate(55.609375 0)"/>
       <use xlink:href="#ArialMT-13" transform="translate(111.21875 0)"/>
       <use xlink:href="#ArialMT-13" transform="translate(166.828125 0)"/>
      </g>
     </g>
    </g>
    <g id="xtick_7">
     <g id="line2d_7">
      <defs>
       <path id="m7043c3df01" d="M 0 0 
L 0 -3 
" style="stroke: #000000; stroke-width: 0.6"/>
      </defs>
      <g>
       <use xlink:href="#m7043c3df01" x="60.598945" y="303.182656" style="stroke: #000000; stroke-width: 0.6"/>
      </g>
     </g>
    </g>
    <g id="xtick_8">
     <g id="line2d_8">
      <g>
       <use xlink:href="#m7043c3df01" x="79.472047" y="303.182656" style="stroke: #000000; stroke-width: 0.6"/>
      </g>
     </g>
    </g>
    <g id="xtick_9">
     <g id="line2d_9">
      <g>
       <use xlink:href="#m7043c3df01" x="98.345148" y="303.182656" style="stroke: #000000; stroke-width: 0.6"/>
      </g>
     </g>
    </g>
    <g id="xtick_10">
     <g id="line2d_10">
      <g>
       <use xlink:href="#m7043c3df01" x="136.09135" y="303.182656" style="stroke: #000000; stroke-width: 0.6"/>
      </g>
     </g>
    </g>
    <g id="xtick_11">
     <g id="line2d_11">
      <g>
       <use xlink:href="#m7043c3df01" x="154.964451" y="303.182656" style="stroke: #000000; stroke-width: 0.6"/>
      </g>
     </g>
    </g>
    <g id="xtick_12">
     <g id="line2d_12">
      <g>
       <use xlink:href="#m7043c3df01" x="173.837553" y="303.182656" style="stroke: #000000; stroke-width: 0.6"/>
      </g>
     </g>
    </g>
    <g id="xtick_13">
     <g id="line2d_13">
      <g>
       <use xlink:href="#m7043c3df01" x="211.583755" y="303.182656" style="stroke: #000000; stroke-width: 0.6"/>
      </g>
     </g>
    </g>
    <g id="xtick_14">
     <g id="line2d_14">
      <g>
       <use xlink:href="#m7043c3df01" x="230.456856" y="303.182656" style="stroke: #000000; stroke-width: 0.6"/>
      </g>
     </g>
    </g>
    <g id="xtick_15">
     <g id="line2d_15">
      <g>
       <use xlink:href="#m7043c3df01" x="249.329958" y="303.182656" style="stroke: #000000; stroke-width: 0.6"/>
      </g>
     </g>
    </g>
    <g id="xtick_16">
     <g id="line2d_16">
      <g>
       <use xlink:href="#m7043c3df01" x="287.07616" y="303.182656" style="stroke: #000000; stroke-width: 0.6"/>
      </g>
     </g>
    </g>
    <g id="xtick_17">
     <g id="line2d_17">
      <g>
       <use xlink:href="#m7043c3df01" x="305.949261" y="303.182656" style="stroke: #000000; stroke-width: 0.6"/>
      </g>
     </g>
    </g>
    <g id="xtick_18">
     <g id="line2d_18">
      <g>
       <use xlink:href="#m7043c3df01" x="324.822362" y="303.182656" style="stroke: #000000; stroke-width: 0.6"/>
      </g>
     </g>
    </g>
    <g id="xtick_19">
     <g id="line2d_19">
      <g>
       <use xlink:href="#m7043c3df01" x="362.568565" y="303.182656" style="stroke: #000000; stroke-width: 0.6"/>
      </g>
     </g>
    </g>
    <g id="xtick_20">
     <g id="line2d_20">
      <g>
       <use xlink:href="#m7043c3df01" x="381.441666" y="303.182656" style="stroke: #000000; stroke-width: 0.6"/>
      </g>
     </g>
    </g>
    <g id="xtick_21">
     <g id="line2d_21">
      <g>
       <use xlink:href="#m7043c3df01" x="400.314767" y="303.182656" style="stroke: #000000; stroke-width: 0.6"/>
      </g>
     </g>
    </g>
    <g id="xtick_22">
     <g id="line2d_22">
      <g>
       <use xlink:href="#m7043c3df01" x="438.06097" y="303.182656" style="stroke: #000000; stroke-width: 0.6"/>
      </g>
     </g>
    </g>
    <g id="xtick_23">
     <g id="line2d_23">
      <g>
       <use xlink:href="#m7043c3df01" x="456.934071" y="303.182656" style="stroke: #000000; stroke-width: 0.6"/>
      </g>
     </g>
    </g>
    <g id="xtick_24">
     <g id="line2d_24">
      <g>
       <use xlink:href="#m7043c3df01" x="475.807172" y="303.182656" style="stroke: #000000; stroke-width: 0.6"/>
      </g>
     </g>
    </g>
    <g id="text_7">
     <!-- T1 Temperature (°C) -->
     <g transform="translate(213.900234 334.013711) scale(0.14 -0.14)">
      <defs>
       <path id="ArialMT-37" d="M 1659 0 
L 1659 4041 
L 150 4041 
L 150 4581 
L 3781 4581 
L 3781 4041 
L 2266 4041 
L 2266 0 
L 1659 0 
z
" transform="scale(0.015625)"/>
       <path id="ArialMT-3" transform="scale(0.015625)"/>
       <path id="ArialMT-48" d="M 2694 1069 
L 3275 997 
Q 3138 488 2766 206 
Q 2394 -75 1816 -75 
Q 1088 -75 661 373 
Q 234 822 234 1631 
Q 234 2469 665 2931 
Q 1097 3394 1784 3394 
Q 2450 3394 2872 2941 
Q 3294 2488 3294 1666 
Q 3294 1616 3291 1516 
L 816 1516 
Q 847 969 1125 678 
Q 1403 388 1819 388 
Q 2128 388 2347 550 
Q 2566 713 2694 1069 
z
M 847 1978 
L 2700 1978 
Q 2663 2397 2488 2606 
Q 2219 2931 1791 2931 
Q 1403 2931 1139 2672 
Q 875 2413 847 1978 
z
" transform="scale(0.015625)"/>
       <path id="ArialMT-50" d="M 422 0 
L 422 3319 
L 925 3319 
L 925 2853 
Q 1081 3097 1340 3245 
Q 1600 3394 1931 3394 
Q 2300 3394 2536 3241 
Q 2772 3088 2869 2813 
Q 3263 3394 3894 3394 
Q 4388 3394 4653 3120 
Q 4919 2847 4919 2278 
L 4919 0 
L 4359 0 
L 4359 2091 
Q 4359 2428 4304 2576 
Q 4250 2725 4106 2815 
Q 3963 2906 3769 2906 
Q 3419 2906 3187 2673 
Q 2956 2441 2956 1928 
L 2956 0 
L 2394 0 
L 2394 2156 
Q 2394 2531 2256 2718 
Q 2119 2906 1806 2906 
Q 1569 2906 1367 2781 
Q 1166 2656 1075 2415 
Q 984 2175 984 1722 
L 984 0 
L 422 0 
z
" transform="scale(0.015625)"/>
       <path id="ArialMT-53" d="M 422 -1272 
L 422 3319 
L 934 3319 
L 934 2888 
Q 1116 3141 1344 3267 
Q 1572 3394 1897 3394 
Q 2322 3394 2647 3175 
Q 2972 2956 3137 2557 
Q 3303 2159 3303 1684 
Q 3303 1175 3120 767 
Q 2938 359 2589 142 
Q 2241 -75 1856 -75 
Q 1575 -75 1351 44 
Q 1128 163 984 344 
L 984 -1272 
L 422 -1272 
z
M 931 1641 
Q 931 1000 1190 694 
Q 1450 388 1819 388 
Q 2194 388 2461 705 
Q 2728 1022 2728 1688 
Q 2728 2322 2467 2637 
Q 2206 2953 1844 2953 
Q 1484 2953 1207 2617 
Q 931 2281 931 1641 
z
" transform="scale(0.015625)"/>
       <path id="ArialMT-55" d="M 416 0 
L 416 3319 
L 922 3319 
L 922 2816 
Q 1116 3169 1280 3281 
Q 1444 3394 1641 3394 
Q 1925 3394 2219 3213 
L 2025 2691 
Q 1819 2813 1613 2813 
Q 1428 2813 1281 2702 
Q 1134 2591 1072 2394 
Q 978 2094 978 1738 
L 978 0 
L 416 0 
z
" transform="scale(0.015625)"/>
       <path id="ArialMT-44" d="M 2588 409 
Q 2275 144 1986 34 
Q 1697 -75 1366 -75 
Q 819 -75 525 192 
Q 231 459 231 875 
Q 231 1119 342 1320 
Q 453 1522 633 1644 
Q 813 1766 1038 1828 
Q 1203 1872 1538 1913 
Q 2219 1994 2541 2106 
Q 2544 2222 2544 2253 
Q 2544 2597 2384 2738 
Q 2169 2928 1744 2928 
Q 1347 2928 1158 2789 
Q 969 2650 878 2297 
L 328 2372 
Q 403 2725 575 2942 
Q 747 3159 1072 3276 
Q 1397 3394 1825 3394 
Q 2250 3394 2515 3294 
Q 2781 3194 2906 3042 
Q 3031 2891 3081 2659 
Q 3109 2516 3109 2141 
L 3109 1391 
Q 3109 606 3145 398 
Q 3181 191 3288 0 
L 2700 0 
Q 2613 175 2588 409 
z
M 2541 1666 
Q 2234 1541 1622 1453 
Q 1275 1403 1131 1340 
Q 988 1278 909 1158 
Q 831 1038 831 891 
Q 831 666 1001 516 
Q 1172 366 1500 366 
Q 1825 366 2078 508 
Q 2331 650 2450 897 
Q 2541 1088 2541 1459 
L 2541 1666 
z
" transform="scale(0.015625)"/>
       <path id="ArialMT-57" d="M 1650 503 
L 1731 6 
Q 1494 -44 1306 -44 
Q 1000 -44 831 53 
Q 663 150 594 308 
Q 525 466 525 972 
L 525 2881 
L 113 2881 
L 113 3319 
L 525 3319 
L 525 4141 
L 1084 4478 
L 1084 3319 
L 1650 3319 
L 1650 2881 
L 1084 2881 
L 1084 941 
Q 1084 700 1114 631 
Q 1144 563 1211 522 
Q 1278 481 1403 481 
Q 1497 481 1650 503 
z
" transform="scale(0.015625)"/>
       <path id="ArialMT-58" d="M 2597 0 
L 2597 488 
Q 2209 -75 1544 -75 
Q 1250 -75 995 37 
Q 741 150 617 320 
Q 494 491 444 738 
Q 409 903 409 1263 
L 409 3319 
L 972 3319 
L 972 1478 
Q 972 1038 1006 884 
Q 1059 663 1231 536 
Q 1403 409 1656 409 
Q 1909 409 2131 539 
Q 2353 669 2445 892 
Q 2538 1116 2538 1541 
L 2538 3319 
L 3100 3319 
L 3100 0 
L 2597 0 
z
" transform="scale(0.015625)"/>
       <path id="ArialMT-b" d="M 1497 -1347 
Q 1031 -759 709 28 
Q 388 816 388 1659 
Q 388 2403 628 3084 
Q 909 3875 1497 4659 
L 1900 4659 
Q 1522 4009 1400 3731 
Q 1209 3300 1100 2831 
Q 966 2247 966 1656 
Q 966 153 1900 -1347 
L 1497 -1347 
z
" transform="scale(0.015625)"/>
       <path id="ArialMT-83" d="M 400 3794 
Q 400 4153 654 4406 
Q 909 4659 1266 4659 
Q 1628 4659 1881 4406 
Q 2134 4153 2134 3794 
Q 2134 3434 1879 3179 
Q 1625 2925 1266 2925 
Q 909 2925 654 3178 
Q 400 3431 400 3794 
z
M 741 3794 
Q 741 3575 895 3420 
Q 1050 3266 1269 3266 
Q 1484 3266 1639 3420 
Q 1794 3575 1794 3794 
Q 1794 4013 1639 4167 
Q 1484 4322 1269 4322 
Q 1050 4322 895 4167 
Q 741 4013 741 3794 
z
" transform="scale(0.015625)"/>
       <path id="ArialMT-26" d="M 3763 1606 
L 4369 1453 
Q 4178 706 3683 314 
Q 3188 -78 2472 -78 
Q 1731 -78 1267 223 
Q 803 525 561 1097 
Q 319 1669 319 2325 
Q 319 3041 592 3573 
Q 866 4106 1370 4382 
Q 1875 4659 2481 4659 
Q 3169 4659 3637 4309 
Q 4106 3959 4291 3325 
L 3694 3184 
Q 3534 3684 3231 3912 
Q 2928 4141 2469 4141 
Q 1941 4141 1586 3887 
Q 1231 3634 1087 3207 
Q 944 2781 944 2328 
Q 944 1744 1114 1308 
Q 1284 872 1643 656 
Q 2003 441 2422 441 
Q 2931 441 3284 734 
Q 3638 1028 3763 1606 
z
" transform="scale(0.015625)"/>
       <path id="ArialMT-c" d="M 791 -1347 
L 388 -1347 
Q 1322 153 1322 1656 
Q 1322 2244 1188 2822 
Q 1081 3291 891 3722 
Q 769 4003 388 4659 
L 791 4659 
Q 1378 3875 1659 3084 
Q 1900 2403 1900 1659 
Q 1900 816 1576 28 
Q 1253 -759 791 -1347 
z
" transform="scale(0.015625)"/>
      </defs>
      <use xlink:href="#ArialMT-37"/>
      <use xlink:href="#ArialMT-14" transform="translate(61.078125 0)"/>
      <use xlink:href="#ArialMT-3" transform="translate(116.6875 0)"/>
      <use xlink:href="#ArialMT-37" transform="translate(142.65625 0)"/>
      <use xlink:href="#ArialMT-48" transform="translate(192.65625 0)"/>
      <use xlink:href="#ArialMT-50" transform="translate(248.265625 0)"/>
      <use xlink:href="#ArialMT-53" transform="translate(331.5625 0)"/>
      <use xlink:href="#ArialMT-48" transform="translate(387.171875 0)"/>
      <use xlink:href="#ArialMT-55" transform="translate(442.78125 0)"/>
      <use xlink:href="#ArialMT-44" transform="translate(476.078125 0)"/>
      <use xlink:href="#ArialMT-57" transform="translate(531.6875 0)"/>
      <use xlink:href="#ArialMT-58" transform="translate(559.46875 0)"/>
      <use xlink:href="#ArialMT-55" transform="translate(615.078125 0)"/>
      <use xlink:href="#ArialMT-48" transform="translate(648.375 0)"/>
      <use xlink:href="#ArialMT-3" transform="translate(703.984375 0)"/>
      <use xlink:href="#ArialMT-b" transform="translate(731.765625 0)"/>
      <use xlink:href="#ArialMT-83" transform="translate(765.0625 0)"/>
      <use xlink:href="#ArialMT-26" transform="translate(805.046875 0)"/>
      <use xlink:href="#ArialMT-c" transform="translate(877.265625 0)"/>
     </g>
    </g>
   </g>
   <g id="matplotlib.axis_2">
    <g id="ytick_1">
     <g id="line2d_25">
      <defs>
       <path id="m4bfa1214a6" d="M 0 0 
L 6 0 
" style="stroke: #000000; stroke-width: 0.8"/>
      </defs>
      <g>
       <use xlink:href="#m4bfa1214a6" x="60.598945" y="264.570716" style="stroke: #000000; stroke-width: 0.8"/>
      </g>
     </g>
     <g id="text_8">
      <!-- $\mathdefault{10^{-12}}$ -->
      <g transform="translate(24.338945 271.010716) scale(0.14 -0.14)">
       <defs>
        <path id="ArialMT-ed" d="M 3381 1997 
L 356 1997 
L 356 2522 
L 3381 2522 
L 3381 1997 
z
" transform="scale(0.015625)"/>
       </defs>
       <use xlink:href="#ArialMT-14" transform="translate(0 0.3875)"/>
       <use xlink:href="#ArialMT-13" transform="translate(55.615234 0.3875)"/>
       <use xlink:href="#ArialMT-ed" transform="translate(112.1875 41.6875) scale(0.7)"/>
       <use xlink:href="#ArialMT-14" transform="translate(153.066406 41.6875) scale(0.7)"/>
       <use xlink:href="#ArialMT-15" transform="translate(191.99707 41.6875) scale(0.7)"/>
      </g>
     </g>
    </g>
    <g id="ytick_2">
     <g id="line2d_26">
      <g>
       <use xlink:href="#m4bfa1214a6" x="60.598945" y="194.566712" style="stroke: #000000; stroke-width: 0.8"/>
      </g>
     </g>
     <g id="text_9">
      <!-- $\mathdefault{10^{-11}}$ -->
      <g transform="translate(25.038945 201.006712) scale(0.14 -0.14)">
       <use xlink:href="#ArialMT-14" transform="translate(0 0.3875)"/>
       <use xlink:href="#ArialMT-13" transform="translate(55.615234 0.3875)"/>
       <use xlink:href="#ArialMT-ed" transform="translate(112.1875 41.6875) scale(0.7)"/>
       <use xlink:href="#ArialMT-14" transform="translate(153.066406 41.6875) scale(0.7)"/>
       <use xlink:href="#ArialMT-14" transform="translate(187.09707 41.6875) scale(0.7)"/>
      </g>
     </g>
    </g>
    <g id="ytick_3">
     <g id="line2d_27">
      <g>
       <use xlink:href="#m4bfa1214a6" x="60.598945" y="124.562707" style="stroke: #000000; stroke-width: 0.8"/>
      </g>
     </g>
     <g id="text_10">
      <!-- $\mathdefault{10^{-10}}$ -->
      <g transform="translate(24.338945 131.002707) scale(0.14 -0.14)">
       <use xlink:href="#ArialMT-14" transform="translate(0 0.3875)"/>
       <use xlink:href="#ArialMT-13" transform="translate(55.615234 0.3875)"/>
       <use xlink:href="#ArialMT-ed" transform="translate(112.1875 41.6875) scale(0.7)"/>
       <use xlink:href="#ArialMT-14" transform="translate(153.066406 41.6875) scale(0.7)"/>
       <use xlink:href="#ArialMT-13" transform="translate(191.99707 41.6875) scale(0.7)"/>
      </g>
     </g>
    </g>
    <g id="ytick_4">
     <g id="line2d_28">
      <g>
       <use xlink:href="#m4bfa1214a6" x="60.598945" y="54.558703" style="stroke: #000000; stroke-width: 0.8"/>
      </g>
     </g>
     <g id="text_11">
      <!-- $\mathdefault{10^{-9}}$ -->
      <g transform="translate(29.798945 60.998703) scale(0.14 -0.14)">
       <defs>
        <path id="ArialMT-1c" d="M 350 1059 
L 891 1109 
Q 959 728 1153 556 
Q 1347 384 1650 384 
Q 1909 384 2104 503 
Q 2300 622 2425 820 
Q 2550 1019 2634 1356 
Q 2719 1694 2719 2044 
Q 2719 2081 2716 2156 
Q 2547 1888 2255 1720 
Q 1963 1553 1622 1553 
Q 1053 1553 659 1965 
Q 266 2378 266 3053 
Q 266 3750 677 4175 
Q 1088 4600 1706 4600 
Q 2153 4600 2523 4359 
Q 2894 4119 3086 3673 
Q 3278 3228 3278 2384 
Q 3278 1506 3087 986 
Q 2897 466 2520 194 
Q 2144 -78 1638 -78 
Q 1100 -78 759 220 
Q 419 519 350 1059 
z
M 2653 3081 
Q 2653 3566 2395 3850 
Q 2138 4134 1775 4134 
Q 1400 4134 1122 3828 
Q 844 3522 844 3034 
Q 844 2597 1108 2323 
Q 1372 2050 1759 2050 
Q 2150 2050 2401 2323 
Q 2653 2597 2653 3081 
z
" transform="scale(0.015625)"/>
       </defs>
       <use xlink:href="#ArialMT-14" transform="translate(0 0.3875)"/>
       <use xlink:href="#ArialMT-13" transform="translate(55.615234 0.3875)"/>
       <use xlink:href="#ArialMT-ed" transform="translate(112.1875 41.6875) scale(0.7)"/>
       <use xlink:href="#ArialMT-1c" transform="translate(153.066406 41.6875) scale(0.7)"/>
      </g>
     </g>
    </g>
    <g id="ytick_5">
     <g id="line2d_29">
      <defs>
       <path id="m171ffe477f" d="M 0 0 
L 3 0 
" style="stroke: #000000; stroke-width: 0.6"/>
      </defs>
      <g>
       <use xlink:href="#m171ffe477f" x="60.598945" y="301.174322" style="stroke: #000000; stroke-width: 0.6"/>
      </g>
     </g>
    </g>
    <g id="ytick_6">
     <g id="line2d_30">
      <g>
       <use xlink:href="#m171ffe477f" x="60.598945" y="292.42811" style="stroke: #000000; stroke-width: 0.6"/>
      </g>
     </g>
    </g>
    <g id="ytick_7">
     <g id="line2d_31">
      <g>
       <use xlink:href="#m171ffe477f" x="60.598945" y="285.644021" style="stroke: #000000; stroke-width: 0.6"/>
      </g>
     </g>
    </g>
    <g id="ytick_8">
     <g id="line2d_32">
      <g>
       <use xlink:href="#m171ffe477f" x="60.598945" y="280.101017" style="stroke: #000000; stroke-width: 0.6"/>
      </g>
     </g>
    </g>
    <g id="ytick_9">
     <g id="line2d_33">
      <g>
       <use xlink:href="#m171ffe477f" x="60.598945" y="275.414474" style="stroke: #000000; stroke-width: 0.6"/>
      </g>
     </g>
    </g>
    <g id="ytick_10">
     <g id="line2d_34">
      <g>
       <use xlink:href="#m171ffe477f" x="60.598945" y="271.354805" style="stroke: #000000; stroke-width: 0.6"/>
      </g>
     </g>
    </g>
    <g id="ytick_11">
     <g id="line2d_35">
      <g>
       <use xlink:href="#m171ffe477f" x="60.598945" y="267.773924" style="stroke: #000000; stroke-width: 0.6"/>
      </g>
     </g>
    </g>
    <g id="ytick_12">
     <g id="line2d_36">
      <g>
       <use xlink:href="#m171ffe477f" x="60.598945" y="243.497411" style="stroke: #000000; stroke-width: 0.6"/>
      </g>
     </g>
    </g>
    <g id="ytick_13">
     <g id="line2d_37">
      <g>
       <use xlink:href="#m171ffe477f" x="60.598945" y="231.170318" style="stroke: #000000; stroke-width: 0.6"/>
      </g>
     </g>
    </g>
    <g id="ytick_14">
     <g id="line2d_38">
      <g>
       <use xlink:href="#m171ffe477f" x="60.598945" y="222.424106" style="stroke: #000000; stroke-width: 0.6"/>
      </g>
     </g>
    </g>
    <g id="ytick_15">
     <g id="line2d_39">
      <g>
       <use xlink:href="#m171ffe477f" x="60.598945" y="215.640017" style="stroke: #000000; stroke-width: 0.6"/>
      </g>
     </g>
    </g>
    <g id="ytick_16">
     <g id="line2d_40">
      <g>
       <use xlink:href="#m171ffe477f" x="60.598945" y="210.097013" style="stroke: #000000; stroke-width: 0.6"/>
      </g>
     </g>
    </g>
    <g id="ytick_17">
     <g id="line2d_41">
      <g>
       <use xlink:href="#m171ffe477f" x="60.598945" y="205.410469" style="stroke: #000000; stroke-width: 0.6"/>
      </g>
     </g>
    </g>
    <g id="ytick_18">
     <g id="line2d_42">
      <g>
       <use xlink:href="#m171ffe477f" x="60.598945" y="201.350801" style="stroke: #000000; stroke-width: 0.6"/>
      </g>
     </g>
    </g>
    <g id="ytick_19">
     <g id="line2d_43">
      <g>
       <use xlink:href="#m171ffe477f" x="60.598945" y="197.769919" style="stroke: #000000; stroke-width: 0.6"/>
      </g>
     </g>
    </g>
    <g id="ytick_20">
     <g id="line2d_44">
      <g>
       <use xlink:href="#m171ffe477f" x="60.598945" y="173.493407" style="stroke: #000000; stroke-width: 0.6"/>
      </g>
     </g>
    </g>
    <g id="ytick_21">
     <g id="line2d_45">
      <g>
       <use xlink:href="#m171ffe477f" x="60.598945" y="161.166313" style="stroke: #000000; stroke-width: 0.6"/>
      </g>
     </g>
    </g>
    <g id="ytick_22">
     <g id="line2d_46">
      <g>
       <use xlink:href="#m171ffe477f" x="60.598945" y="152.420101" style="stroke: #000000; stroke-width: 0.6"/>
      </g>
     </g>
    </g>
    <g id="ytick_23">
     <g id="line2d_47">
      <g>
       <use xlink:href="#m171ffe477f" x="60.598945" y="145.636012" style="stroke: #000000; stroke-width: 0.6"/>
      </g>
     </g>
    </g>
    <g id="ytick_24">
     <g id="line2d_48">
      <g>
       <use xlink:href="#m171ffe477f" x="60.598945" y="140.093008" style="stroke: #000000; stroke-width: 0.6"/>
      </g>
     </g>
    </g>
    <g id="ytick_25">
     <g id="line2d_49">
      <g>
       <use xlink:href="#m171ffe477f" x="60.598945" y="135.406465" style="stroke: #000000; stroke-width: 0.6"/>
      </g>
     </g>
    </g>
    <g id="ytick_26">
     <g id="line2d_50">
      <g>
       <use xlink:href="#m171ffe477f" x="60.598945" y="131.346796" style="stroke: #000000; stroke-width: 0.6"/>
      </g>
     </g>
    </g>
    <g id="ytick_27">
     <g id="line2d_51">
      <g>
       <use xlink:href="#m171ffe477f" x="60.598945" y="127.765915" style="stroke: #000000; stroke-width: 0.6"/>
      </g>
     </g>
    </g>
    <g id="ytick_28">
     <g id="line2d_52">
      <g>
       <use xlink:href="#m171ffe477f" x="60.598945" y="103.489402" style="stroke: #000000; stroke-width: 0.6"/>
      </g>
     </g>
    </g>
    <g id="ytick_29">
     <g id="line2d_53">
      <g>
       <use xlink:href="#m171ffe477f" x="60.598945" y="91.162309" style="stroke: #000000; stroke-width: 0.6"/>
      </g>
     </g>
    </g>
    <g id="ytick_30">
     <g id="line2d_54">
      <g>
       <use xlink:href="#m171ffe477f" x="60.598945" y="82.416097" style="stroke: #000000; stroke-width: 0.6"/>
      </g>
     </g>
    </g>
    <g id="ytick_31">
     <g id="line2d_55">
      <g>
       <use xlink:href="#m171ffe477f" x="60.598945" y="75.632008" style="stroke: #000000; stroke-width: 0.6"/>
      </g>
     </g>
    </g>
    <g id="ytick_32">
     <g id="line2d_56">
      <g>
       <use xlink:href="#m171ffe477f" x="60.598945" y="70.089004" style="stroke: #000000; stroke-width: 0.6"/>
      </g>
     </g>
    </g>
    <g id="ytick_33">
     <g id="line2d_57">
      <g>
       <use xlink:href="#m171ffe477f" x="60.598945" y="65.40246" style="stroke: #000000; stroke-width: 0.6"/>
      </g>
     </g>
    </g>
    <g id="ytick_34">
     <g id="line2d_58">
      <g>
       <use xlink:href="#m171ffe477f" x="60.598945" y="61.342792" style="stroke: #000000; stroke-width: 0.6"/>
      </g>
     </g>
    </g>
    <g id="ytick_35">
     <g id="line2d_59">
      <g>
       <use xlink:href="#m171ffe477f" x="60.598945" y="57.761911" style="stroke: #000000; stroke-width: 0.6"/>
      </g>
     </g>
    </g>
    <g id="text_12">
     <!-- Ion Current (m/z 2) -->
     <g transform="translate(17.392383 230.164111) rotate(-90) scale(0.14 -0.14)">
      <defs>
       <path id="ArialMT-2c" d="M 597 0 
L 597 4581 
L 1203 4581 
L 1203 0 
L 597 0 
z
" transform="scale(0.015625)"/>
       <path id="ArialMT-52" d="M 213 1659 
Q 213 2581 725 3025 
Q 1153 3394 1769 3394 
Q 2453 3394 2887 2945 
Q 3322 2497 3322 1706 
Q 3322 1066 3130 698 
Q 2938 331 2570 128 
Q 2203 -75 1769 -75 
Q 1072 -75 642 372 
Q 213 819 213 1659 
z
M 791 1659 
Q 791 1022 1069 705 
Q 1347 388 1769 388 
Q 2188 388 2466 706 
Q 2744 1025 2744 1678 
Q 2744 2294 2464 2611 
Q 2184 2928 1769 2928 
Q 1347 2928 1069 2612 
Q 791 2297 791 1659 
z
" transform="scale(0.015625)"/>
       <path id="ArialMT-51" d="M 422 0 
L 422 3319 
L 928 3319 
L 928 2847 
Q 1294 3394 1984 3394 
Q 2284 3394 2536 3286 
Q 2788 3178 2913 3003 
Q 3038 2828 3088 2588 
Q 3119 2431 3119 2041 
L 3119 0 
L 2556 0 
L 2556 2019 
Q 2556 2363 2490 2533 
Q 2425 2703 2258 2804 
Q 2091 2906 1866 2906 
Q 1506 2906 1245 2678 
Q 984 2450 984 1813 
L 984 0 
L 422 0 
z
" transform="scale(0.015625)"/>
       <path id="ArialMT-12" d="M 0 -78 
L 1328 4659 
L 1778 4659 
L 453 -78 
L 0 -78 
z
" transform="scale(0.015625)"/>
       <path id="ArialMT-5d" d="M 125 0 
L 125 456 
L 2238 2881 
Q 1878 2863 1603 2863 
L 250 2863 
L 250 3319 
L 2963 3319 
L 2963 2947 
L 1166 841 
L 819 456 
Q 1197 484 1528 484 
L 3063 484 
L 3063 0 
L 125 0 
z
" transform="scale(0.015625)"/>
      </defs>
      <use xlink:href="#ArialMT-2c"/>
      <use xlink:href="#ArialMT-52" transform="translate(27.78125 0)"/>
      <use xlink:href="#ArialMT-51" transform="translate(83.390625 0)"/>
      <use xlink:href="#ArialMT-3" transform="translate(139 0)"/>
      <use xlink:href="#ArialMT-26" transform="translate(166.78125 0)"/>
      <use xlink:href="#ArialMT-58" transform="translate(239 0)"/>
      <use xlink:href="#ArialMT-55" transform="translate(294.609375 0)"/>
      <use xlink:href="#ArialMT-55" transform="translate(327.90625 0)"/>
      <use xlink:href="#ArialMT-48" transform="translate(361.203125 0)"/>
      <use xlink:href="#ArialMT-51" transform="translate(416.8125 0)"/>
      <use xlink:href="#ArialMT-57" transform="translate(472.421875 0)"/>
      <use xlink:href="#ArialMT-3" transform="translate(500.203125 0)"/>
      <use xlink:href="#ArialMT-b" transform="translate(527.984375 0)"/>
      <use xlink:href="#ArialMT-50" transform="translate(561.28125 0)"/>
      <use xlink:href="#ArialMT-12" transform="translate(644.578125 0)"/>
      <use xlink:href="#ArialMT-5d" transform="translate(672.359375 0)"/>
      <use xlink:href="#ArialMT-3" transform="translate(722.359375 0)"/>
      <use xlink:href="#ArialMT-15" transform="translate(750.140625 0)"/>
      <use xlink:href="#ArialMT-c" transform="translate(805.75 0)"/>
     </g>
    </g>
   </g>
   <g id="line2d_60">
    <path d="M 59.617544 272.155559 
L 59.542052 271.953466 
L 59.542052 283.948831 
L 59.806275 287.386087 
L 60.598945 283.954724 
L 62.108793 279.744176 
L 64.298073 274.661172 
L 66.600592 270.558654 
L 68.714379 273.73129 
L 70.48845 273.469778 
L 71.960552 272.903837 
L 73.243923 270.016373 
L 74.376309 275.350314 
L 75.470949 274.957936 
L 76.527843 271.554957 
L 77.660229 270.999382 
L 78.754869 270.23536 
L 79.887255 267.553238 
L 81.095133 275.319488 
L 82.303012 273.448441 
L 83.473144 274.480043 
L 84.681022 272.343426 
L 85.888901 269.683857 
L 87.210018 270.574907 
L 88.531135 267.388822 
L 89.77676 268.13375 
L 91.022384 271.76699 
L 92.230263 278.168084 
L 93.438141 285.428283 
L 94.608274 286.548599 
L 95.778406 285.955845 
L 96.948538 282.296208 
L 98.080924 279.316364 
L 99.326549 288.102271 
L 100.534428 279.132686 
L 101.70456 277.499101 
L 102.874692 274.967502 
L 105.214957 271.549226 
L 106.422835 270.470835 
L 107.592967 267.65557 
L 108.725353 272.751368 
L 109.85774 278.629266 
L 110.990126 287.7867 
L 113.368136 277.429817 
L 114.576015 271.617211 
L 115.783893 271.482889 
L 116.991772 272.154414 
L 118.124158 268.364566 
L 119.29429 267.54426 
L 120.464422 267.589421 
L 121.672301 265.715578 
L 122.842433 266.100928 
L 125.295936 261.167169 
L 126.503815 261.382649 
L 127.673947 266.39944 
L 128.844079 266.192257 
L 130.014212 267.133235 
L 131.184344 264.937159 
L 132.354476 258.487482 
L 133.524608 255.121909 
L 134.656995 253.473932 
L 135.864873 248.876924 
L 137.072751 248.777402 
L 138.318376 248.437534 
L 139.526255 250.438482 
L 140.696387 249.705023 
L 141.791027 250.682834 
L 142.998905 249.707849 
L 144.131291 246.746463 
L 145.301424 245.709009 
L 146.471556 245.154299 
L 147.641688 241.726186 
L 148.887313 240.91474 
L 150.095191 239.118386 
L 152.435456 237.300721 
L 153.605588 234.61273 
L 154.77572 232.938466 
L 156.021345 230.178831 
L 157.153731 228.681988 
L 158.286117 227.629506 
L 159.45625 225.520183 
L 160.626382 223.867617 
L 161.872006 223.399559 
L 163.042139 222.281262 
L 164.250017 221.679371 
L 165.42015 219.552381 
L 166.628028 218.160141 
L 167.79816 215.788082 
L 169.006039 214.908773 
L 172.440943 210.550553 
L 173.648822 209.73327 
L 174.818954 208.672389 
L 175.989086 207.855622 
L 179.499483 204.457621 
L 180.707361 203.573468 
L 181.877494 202.233637 
L 184.255505 198.919826 
L 185.387891 197.461709 
L 186.558023 196.46326 
L 187.765901 194.995802 
L 190.06842 192.656831 
L 192.559669 190.019573 
L 193.767548 189.007392 
L 194.899934 187.306436 
L 196.183304 185.982907 
L 197.353437 184.497741 
L 198.523569 183.323103 
L 199.655955 181.964298 
L 200.788341 180.898754 
L 201.958473 179.644441 
L 203.09086 178.176562 
L 204.298738 176.815715 
L 205.506617 175.643313 
L 209.05476 171.739326 
L 212.565156 168.28247 
L 213.773035 167.024056 
L 216.075553 164.083362 
L 219.699189 160.192907 
L 220.793828 159.215123 
L 221.963961 158.324171 
L 223.171839 157.698639 
L 224.341972 157.268051 
L 225.512104 157.304996 
L 226.719982 157.529432 
L 229.022501 158.524986 
L 230.230379 159.077638 
L 232.532897 160.512347 
L 237.251173 162.651149 
L 238.383559 163.155703 
L 239.591437 163.366968 
L 240.76157 163.397467 
L 243.13958 163.113726 
L 244.271966 163.101414 
L 246.649977 162.705848 
L 247.857856 162.675817 
L 248.990242 162.396527 
L 251.330506 162.004474 
L 252.538385 161.662546 
L 253.708517 161.169367 
L 254.840903 160.861836 
L 256.048782 160.680846 
L 257.218914 159.964574 
L 258.426792 159.574239 
L 259.634671 159.348984 
L 260.767057 158.773785 
L 264.352946 157.579685 
L 265.523078 157.017418 
L 267.901089 156.416016 
L 269.033475 155.922859 
L 271.335994 155.527462 
L 272.506126 155.071448 
L 274.884137 154.534929 
L 277.262147 153.630521 
L 280.772544 153.010001 
L 283.112809 152.658779 
L 284.282941 152.340989 
L 287.831084 151.769059 
L 290.209095 151.664643 
L 291.341481 151.497448 
L 294.889624 151.245384 
L 298.400021 151.056072 
L 299.607899 150.966796 
L 300.740285 151.015355 
L 303.042804 150.721083 
L 305.496307 150.481108 
L 306.704185 150.513684 
L 309.119942 150.223592 
L 311.535699 150.292974 
L 313.875964 150.597081 
L 317.348614 151.061468 
L 318.518747 151.320205 
L 322.06689 151.514215 
L 323.237022 151.546124 
L 324.407154 151.730139 
L 327.879805 152.596998 
L 332.635826 152.866178 
L 333.768212 152.802596 
L 334.976091 152.614172 
L 336.108477 152.623511 
L 337.316355 152.841609 
L 338.486488 152.932185 
L 340.789006 152.806556 
L 343.167017 152.955831 
L 345.469535 152.935804 
L 347.847546 152.710743 
L 356.076218 152.252096 
L 364.30489 151.021287 
L 366.645155 150.882012 
L 367.815287 150.714295 
L 371.287938 149.759261 
L 374.798334 148.756104 
L 378.308731 148.258332 
L 382.309829 146.428127 
L 387.103596 143.365757 
L 388.311475 142.894701 
L 390.651739 141.737337 
L 396.502401 137.561017 
L 397.634787 136.549792 
L 410.581734 126.998134 
L 416.470142 123.029347 
L 417.640274 122.147362 
L 420.093777 120.851173 
L 421.150671 120.312612 
L 423.415443 119.495371 
L 427.076825 118.715746 
L 428.284703 118.383601 
L 431.757354 117.873696 
L 436.437883 117.360086 
L 438.778148 116.96542 
L 442.326291 115.98006 
L 450.47947 113.256127 
L 452.932974 112.151653 
L 454.140852 111.534 
L 456.632101 110.066206 
L 457.953218 109.277183 
L 460.595453 107.285518 
L 461.576854 106.166405 
L 462.935717 105.101722 
L 463.992611 103.96559 
L 465.238236 102.828885 
L 467.5785 100.401072 
L 468.559901 99.025405 
L 469.994257 97.653331 
L 470.900166 96.008975 
L 472.221283 94.274053 
L 474.63704 90.555136 
L 475.656187 88.548171 
L 479.393061 82.053566 
L 481.506849 77.056183 
L 482.639235 74.364673 
L 483.960352 71.625543 
L 486.26287 66.325551 
L 488.565389 61.589856 
L 490.981146 57.985757 
L 492.189024 56.674612 
L 493.434649 55.726909 
L 493.434649 55.726909 
" clip-path="url(#p14009b7ea1)" style="fill: none; stroke: #000000; stroke-width: 2.5; stroke-linecap: square"/>
   </g>
   <g id="line2d_61">
    <path d="M 59.013605 269.820989 
L 58.975859 264.18853 
L 59.013605 268.793886 
L 59.466559 271.323654 
L 60.523453 274.315393 
L 62.297524 274.548016 
L 64.52455 270.150525 
L 66.71383 269.703814 
L 68.638886 269.978782 
L 70.261973 269.870483 
L 71.658583 269.956188 
L 72.866461 271.588413 
L 73.961101 272.679318 
L 75.055741 276.015793 
L 76.150381 270.511618 
L 77.245021 268.519922 
L 78.377407 265.122519 
L 79.547539 267.167185 
L 80.717671 267.657595 
L 81.887803 271.001096 
L 83.095682 272.768034 
L 84.30356 272.813854 
L 85.511439 277.832867 
L 86.832556 277.404573 
L 88.115927 274.117239 
L 89.399298 273.648047 
L 90.682669 273.489822 
L 91.890547 270.801318 
L 93.098426 269.106997 
L 94.268558 266.984223 
L 95.43869 262.455487 
L 96.608822 261.978589 
L 97.778955 263.448491 
L 98.949087 263.203466 
L 100.119219 263.660394 
L 101.327098 265.144745 
L 102.49723 263.040925 
L 103.667362 259.960983 
L 104.837495 258.75665 
L 106.007627 255.681532 
L 107.140013 255.734467 
L 108.272399 256.592002 
L 109.480277 257.102074 
L 110.688156 263.009265 
L 111.896034 267.822831 
L 113.066167 277.067185 
L 114.198553 275.778704 
L 115.406431 273.879546 
L 116.576564 274.370828 
L 117.746696 270.594963 
L 118.916828 273.363573 
L 120.08696 269.040498 
L 121.332585 264.959776 
L 122.502717 265.208151 
L 123.67285 260.449613 
L 124.880728 259.442195 
L 126.05086 255.071338 
L 127.258739 252.68481 
L 128.428871 253.078014 
L 129.599003 252.131313 
L 130.806882 255.696232 
L 131.977014 255.826417 
L 133.147146 255.670774 
L 134.317279 254.865768 
L 135.525157 251.888509 
L 136.695289 252.88524 
L 137.865422 250.420346 
L 139.035554 246.91592 
L 140.243432 244.591798 
L 141.413565 242.899613 
L 142.621443 244.336386 
L 143.791576 242.356943 
L 144.999454 240.569264 
L 146.169586 239.708631 
L 147.339719 239.29277 
L 148.547597 240.326218 
L 149.717729 239.81817 
L 150.925608 238.241885 
L 152.09574 237.183584 
L 154.473751 233.302227 
L 155.643883 229.563116 
L 156.738523 226.690133 
L 159.116534 224.947452 
L 160.286666 224.26317 
L 161.532291 223.726923 
L 163.948048 220.656351 
L 166.288312 217.843035 
L 168.628577 214.503563 
L 169.836455 213.37626 
L 171.006587 211.845578 
L 172.101227 210.192679 
L 175.611624 206.343707 
L 177.914143 204.951213 
L 179.122021 203.854204 
L 180.329899 201.896281 
L 181.537778 200.271357 
L 182.670164 199.259795 
L 183.840296 197.491016 
L 185.010429 196.094804 
L 186.218307 194.924703 
L 188.596318 192.36971 
L 189.76645 191.424808 
L 190.974329 190.018481 
L 192.182207 188.268671 
L 193.427832 186.913798 
L 194.522472 185.441346 
L 195.73035 183.589261 
L 196.975975 182.187558 
L 198.146107 181.126055 
L 199.278493 179.792132 
L 201.618758 178.054516 
L 203.959022 175.323309 
L 205.129154 174.098737 
L 211.017562 166.999535 
L 212.225441 166.018515 
L 214.527959 163.461458 
L 216.90597 161.763145 
L 219.28398 160.580227 
L 222.756631 159.748078 
L 223.926763 159.762614 
L 227.512653 160.364635 
L 229.815171 161.374675 
L 232.155435 161.958916 
L 236.873711 162.280323 
L 238.043843 162.0745 
L 239.251721 161.978319 
L 240.421854 162.053239 
L 241.591986 161.856484 
L 242.762118 161.415505 
L 253.368801 158.720011 
L 254.57668 158.151451 
L 255.709066 157.861061 
L 256.879198 157.698156 
L 258.124823 157.391283 
L 259.257209 157.379014 
L 262.805352 157.05486 
L 263.975484 157.021851 
L 267.523627 156.086883 
L 273.374288 155.146019 
L 276.884685 154.300072 
L 279.22495 154.219878 
L 281.602961 154.285415 
L 289.869379 153.885061 
L 291.039511 153.962762 
L 293.379776 153.659928 
L 295.72004 154.12245 
L 300.362823 154.092061 
L 301.570702 154.111279 
L 302.77858 153.937678 
L 303.948712 153.656545 
L 305.156591 153.620966 
L 306.364469 154.002891 
L 309.988105 154.046247 
L 312.290623 154.205943 
L 313.498502 154.110583 
L 315.838766 154.192354 
L 317.046645 154.366977 
L 318.216777 154.729278 
L 320.519295 155.035246 
L 321.689428 155.443422 
L 322.935052 155.656713 
L 324.029692 155.693952 
L 325.237571 155.957442 
L 328.747967 156.089703 
L 329.842607 155.868227 
L 333.428497 155.726756 
L 334.560883 155.385036 
L 336.901147 155.28814 
L 338.033533 154.914935 
L 339.279158 154.695148 
L 340.487036 154.600162 
L 341.657169 154.350868 
L 342.789555 154.316443 
L 350.980481 152.996777 
L 353.396238 152.705111 
L 356.831142 152.005238 
L 357.963528 151.904748 
L 368.68345 148.90747 
L 369.77809 148.684421 
L 377.969015 146.006881 
L 381.894621 143.722971 
L 385.48051 141.074288 
L 386.688388 140.05945 
L 390.236531 137.456875 
L 391.406664 136.506965 
L 392.614542 135.716723 
L 393.860167 134.724904 
L 403.258971 128.396269 
L 404.353611 127.471955 
L 406.731622 125.848965 
L 409.03414 124.598216 
L 411.487643 123.560051 
L 416.130426 121.462796 
L 418.583929 120.63751 
L 420.810955 120.102095 
L 429.266105 118.487966 
L 434.852543 117.918725 
L 437.2683 117.537288 
L 440.891935 116.709467 
L 443.081215 116.21007 
L 444.326839 115.854754 
L 445.421479 115.403161 
L 446.70485 115.026678 
L 448.931876 114.006596 
L 453.687898 111.608553 
L 454.669299 110.835975 
L 457.764487 109.139064 
L 459.010112 108.237718 
L 462.558255 105.266466 
L 463.50191 104.06779 
L 464.860774 102.849556 
L 469.541303 96.695456 
L 470.598196 95.001956 
L 471.843821 93.331953 
L 472.862968 91.599847 
L 474.184086 89.846769 
L 478.902361 82.49785 
L 480.261224 80.635073 
L 481.167133 78.83714 
L 483.771621 75.281946 
L 484.639784 73.502874 
L 487.131033 70.162589 
L 488.074688 68.667208 
L 489.358059 67.340187 
L 490.679176 66.271575 
L 491.962547 65.509037 
L 492.906202 65.102149 
L 493.887603 65.108324 
L 493.887603 65.108324 
" clip-path="url(#p14009b7ea1)" style="fill: none; stroke: #1f77b4; stroke-width: 2.5; stroke-linecap: square"/>
   </g>
   <g id="line2d_62">
    <path d="M 58.636143 279.823551 
L 58.598397 255.9574 
L 58.673889 271.353004 
L 59.013605 268.60071 
L 60.032752 270.621909 
L 61.84457 267.101522 
L 63.996104 267.363753 
L 66.223129 269.572608 
L 69.809019 263.963071 
L 72.413507 257.301979 
L 73.508147 260.737625 
L 74.602786 264.724279 
L 75.697426 264.958895 
L 76.792066 264.621374 
L 77.924452 266.761794 
L 79.094585 266.979026 
L 80.264717 267.598237 
L 81.472595 264.774617 
L 82.680474 258.290038 
L 83.850606 255.408622 
L 85.058484 261.689821 
L 86.304109 264.736126 
L 87.58748 264.474375 
L 88.908597 263.444719 
L 90.229714 262.962674 
L 91.437593 266.867913 
L 92.607725 269.941727 
L 93.777857 267.501879 
L 94.910243 260.310208 
L 96.080376 256.785463 
L 97.250508 258.919962 
L 98.458386 256.962589 
L 99.628519 258.536445 
L 100.798651 255.61095 
L 102.006529 256.090279 
L 103.214408 257.229387 
L 104.422286 258.782523 
L 105.630165 262.399936 
L 106.762551 261.36321 
L 107.932683 259.413953 
L 109.178308 262.401551 
L 110.34844 265.965228 
L 111.480826 267.589086 
L 112.53772 263.980195 
L 113.707852 260.951281 
L 114.953477 260.106351 
L 116.161355 263.497319 
L 117.369234 263.369628 
L 118.539366 261.793048 
L 119.747245 260.535565 
L 120.955123 264.920037 
L 122.125255 264.386131 
L 123.257641 262.927742 
L 124.46552 260.591052 
L 125.635652 258.738509 
L 126.843531 258.009392 
L 128.013663 255.347287 
L 129.259288 252.045924 
L 130.467166 249.562374 
L 131.637298 251.058524 
L 132.807431 249.089607 
L 133.939817 248.83363 
L 135.109949 247.414773 
L 136.280081 247.618449 
L 137.563452 244.17194 
L 138.771331 242.186036 
L 141.036103 236.92765 
L 142.243981 236.016682 
L 143.376367 237.284943 
L 144.584246 235.450351 
L 145.792124 236.348757 
L 146.962257 235.422647 
L 148.170135 235.787899 
L 150.472653 230.292532 
L 152.88841 225.753589 
L 154.058543 226.06779 
L 155.228675 225.508483 
L 156.436553 222.480154 
L 157.644432 220.385818 
L 158.776818 218.929656 
L 159.984696 217.95779 
L 161.154829 215.95481 
L 162.324961 214.272382 
L 164.665225 212.822843 
L 165.835358 212.286073 
L 168.213368 212.013857 
L 170.591379 211.278926 
L 171.723765 211.14783 
L 176.442041 203.981035 
L 177.612173 202.459741 
L 178.782305 202.009162 
L 179.914691 202.465367 
L 182.292702 200.598254 
L 183.462834 199.831368 
L 184.632967 197.857218 
L 185.840845 196.062359 
L 187.010977 194.948958 
L 189.426734 193.439287 
L 190.634613 192.240473 
L 191.804745 191.565954 
L 193.05037 190.053468 
L 195.390634 187.652778 
L 197.693153 184.835603 
L 200.033417 183.106463 
L 201.203549 182.406578 
L 203.58156 180.372095 
L 204.789439 179.498529 
L 205.921825 178.835875 
L 208.299835 177.034359 
L 209.507714 175.799403 
L 210.677846 175.217886 
L 211.772486 174.069616 
L 214.150497 172.148366 
L 216.528508 170.857781 
L 218.906518 170.266915 
L 221.246783 169.800532 
L 222.379169 170.243663 
L 223.549301 170.035019 
L 227.135191 170.52406 
L 228.267577 170.609488 
L 229.475455 171.05628 
L 230.607841 171.159833 
L 231.81572 171.091732 
L 234.118238 171.492047 
L 236.496249 171.416824 
L 238.836513 170.776138 
L 240.044392 170.9106 
L 242.384656 170.655491 
L 243.554789 170.211227 
L 244.724921 169.984367 
L 249.367704 168.266104 
L 251.707968 168.288443 
L 254.048233 167.466591 
L 255.293858 166.595245 
L 257.596376 165.488114 
L 258.804254 164.712316 
L 259.974387 164.132293 
L 261.144519 163.678279 
L 262.352397 163.638154 
L 265.862794 162.502182 
L 267.032926 162.024366 
L 269.410937 161.359493 
L 270.543323 160.588683 
L 272.921334 159.940588 
L 274.129213 159.90341 
L 275.299345 159.491077 
L 276.393985 159.311299 
L 279.979874 159.231541 
L 281.150006 159.25413 
L 282.357885 158.984863 
L 283.528017 159.00348 
L 285.906028 159.379453 
L 287.113906 159.151526 
L 289.416425 159.147304 
L 290.548811 159.347413 
L 291.794435 159.763905 
L 292.964568 159.949308 
L 294.1347 159.944354 
L 297.645097 160.357272 
L 298.777483 160.217204 
L 301.155493 160.289003 
L 302.325626 160.377131 
L 303.495758 160.597425 
L 304.703637 160.55583 
L 307.15714 160.931947 
L 309.497404 161.447452 
L 310.743029 161.699327 
L 315.423558 161.732862 
L 316.555944 161.682217 
L 317.763823 161.824112 
L 321.274219 162.477966 
L 322.519844 163.059068 
L 323.65223 163.221827 
L 325.992495 163.870088 
L 329.427399 163.54777 
L 330.635278 163.35298 
L 331.80541 163.280738 
L 333.013288 163.070784 
L 336.485939 163.053993 
L 351.773151 160.133469 
L 352.905537 160.127611 
L 358.831691 158.82878 
L 360.001823 158.627122 
L 361.171955 158.159132 
L 362.379834 157.86302 
L 364.682352 157.498764 
L 369.400628 156.261855 
L 370.533014 155.98316 
L 372.911024 155.159179 
L 374.118903 154.980112 
L 376.383675 154.146628 
L 377.6293 153.634026 
L 378.72394 152.750891 
L 382.762783 150.253845 
L 391.066948 144.035362 
L 395.785223 140.950806 
L 399.220127 138.355031 
L 405.033043 134.615994 
L 408.618932 132.899197 
L 412.204821 131.697625 
L 416.847604 129.892175 
L 419.338853 129.053169 
L 421.641372 128.588393 
L 422.736012 128.36647 
L 426.208662 128.000414 
L 429.719059 127.452108 
L 432.172562 126.968591 
L 433.19171 126.663133 
L 435.645213 126.378996 
L 436.815345 126.082426 
L 441.53362 125.666296 
L 443.873885 125.166314 
L 447.459774 124.356004 
L 448.478922 123.887209 
L 449.6868 123.513279 
L 453.272689 121.950416 
L 455.688446 120.590526 
L 458.519411 119.27185 
L 464.445565 114.645557 
L 465.540205 113.546815 
L 466.672591 112.210124 
L 467.842723 110.61463 
L 468.97511 108.875634 
L 472.636491 102.119684 
L 473.84437 99.574907 
L 474.825771 97.012737 
L 477.31702 91.844612 
L 480.789671 84.568157 
L 483.129935 80.333464 
L 485.4702 77.109742 
L 486.753571 76.044807 
L 487.923703 75.362385 
L 488.905104 74.972816 
L 490.075237 74.904179 
L 491.547339 75.169866 
L 492.717471 75.79468 
L 493.585634 76.817766 
L 493.585634 76.817766 
" clip-path="url(#p14009b7ea1)" style="fill: none; stroke: #d62728; stroke-width: 2.5; stroke-linecap: square"/>
   </g>
   <g id="line2d_63">
    <path d="M 60.372468 242.124774 
L 60.334722 254.45474 
L 60.296976 247.365823 
L 60.447961 249.020207 
L 61.014154 248.846477 
L 62.297524 250.327388 
L 64.222581 247.915655 
L 66.41186 247.209258 
L 68.487902 249.510167 
L 70.337466 249.965449 
L 71.847314 250.818496 
L 73.206177 250.714159 
L 74.338563 246.76796 
L 75.433203 251.256127 
L 76.527843 250.184368 
L 78.754869 248.381124 
L 79.887255 249.457451 
L 81.057387 254.476788 
L 82.227519 256.36739 
L 83.435398 256.782742 
L 84.643276 252.482095 
L 85.888901 247.192622 
L 87.172272 244.383347 
L 88.531135 244.679376 
L 91.022384 248.251263 
L 92.230263 249.685824 
L 93.400395 255.801083 
L 94.570528 258.865513 
L 95.74066 258.737996 
L 96.910792 255.874716 
L 98.118671 252.233861 
L 99.288803 251.149275 
L 100.421189 255.001617 
L 101.591321 256.448623 
L 102.723707 255.631158 
L 103.931586 253.748912 
L 105.101718 254.015218 
L 106.27185 255.5349 
L 107.479729 253.446071 
L 108.649861 250.621773 
L 109.895486 250.099358 
L 111.065618 249.409312 
L 113.481375 248.332358 
L 114.576015 249.371357 
L 115.783893 249.486689 
L 116.954026 249.049869 
L 118.124158 251.291295 
L 119.29429 250.968595 
L 120.464422 249.152448 
L 121.596808 249.818063 
L 122.766941 250.101195 
L 123.937073 248.720977 
L 125.144951 246.620545 
L 126.315084 248.501788 
L 127.522962 245.654349 
L 128.730841 243.223185 
L 129.900973 242.21882 
L 132.278984 242.131743 
L 133.449116 241.059044 
L 134.656995 240.455484 
L 135.864873 238.706087 
L 137.072751 237.774696 
L 138.28063 238.313015 
L 139.488508 236.006674 
L 141.828773 233.879379 
L 142.998905 235.013011 
L 144.206784 235.31918 
L 145.376916 234.06763 
L 146.547048 233.369159 
L 147.754927 231.212051 
L 148.962805 231.212507 
L 150.132938 230.054266 
L 151.30307 228.122215 
L 152.510948 227.499602 
L 154.888959 226.951088 
L 156.059091 226.361755 
L 157.191477 225.955373 
L 158.323863 224.488296 
L 159.493996 222.137255 
L 160.664128 220.921726 
L 161.872006 218.02728 
L 163.042139 216.115476 
L 164.174525 214.949694 
L 167.722668 212.282625 
L 168.8928 211.678883 
L 170.025186 210.847219 
L 171.270811 210.190645 
L 172.478689 208.864449 
L 173.648822 207.373107 
L 174.818954 206.502815 
L 177.196965 204.080661 
L 179.537229 201.284955 
L 181.877494 199.0225 
L 183.085372 197.810232 
L 185.387891 195.082468 
L 186.520277 193.550904 
L 187.728155 191.602408 
L 188.97378 189.936811 
L 191.276298 186.614696 
L 194.899934 183.120216 
L 197.240198 180.331372 
L 198.372584 179.156552 
L 200.788341 176.074268 
L 204.298738 172.152618 
L 205.46887 171.255296 
L 206.676749 169.982324 
L 207.809135 168.480598 
L 210.187146 166.349418 
L 211.357278 165.047017 
L 213.697542 162.828572 
L 214.867675 161.440159 
L 219.623696 156.919111 
L 221.963961 155.777493 
L 223.171839 155.455501 
L 225.54985 155.182913 
L 226.757728 155.12909 
L 229.060247 155.338648 
L 230.268125 155.677722 
L 231.438258 155.809153 
L 232.60839 156.327074 
L 237.326665 157.019746 
L 238.496797 157.046456 
L 239.591437 156.949895 
L 241.931702 156.954787 
L 243.13958 156.767777 
L 244.271966 156.72441 
L 245.479845 156.401185 
L 246.687723 156.281023 
L 247.857856 156.027641 
L 248.990242 155.948251 
L 250.160374 155.73015 
L 251.405999 155.631156 
L 256.048782 154.3091 
L 257.218914 153.693936 
L 258.389046 153.398364 
L 259.559178 152.82594 
L 260.767057 152.612845 
L 263.107321 151.751044 
L 265.447586 150.68686 
L 273.714004 148.127094 
L 276.092015 147.343972 
L 278.394533 146.880245 
L 280.772544 146.525274 
L 285.453073 145.505099 
L 289.038963 145.070321 
L 292.473867 145.169514 
L 294.889624 145.160774 
L 297.192142 145.34704 
L 299.570153 145.301167 
L 303.08055 145.908185 
L 304.212936 145.87146 
L 307.94981 146.206735 
L 309.082196 146.170839 
L 311.422461 146.302908 
L 317.310868 147.643875 
L 322.029143 148.786846 
L 323.199276 148.888307 
L 326.747419 149.624793 
L 333.730466 150.509064 
L 337.278609 150.70775 
L 345.469535 150.300967 
L 346.639667 149.954053 
L 347.923038 149.694718 
L 349.017678 149.32546 
L 351.320197 148.840959 
L 357.208604 148.35191 
L 358.454229 147.978766 
L 363.059266 147.191049 
L 366.607409 146.428507 
L 368.985419 145.740834 
L 371.287938 144.945132 
L 373.628202 144.291121 
L 374.760588 143.818846 
L 377.100853 142.486701 
L 383.5932 137.99447 
L 387.103596 135.056726 
L 395.294522 127.651497 
L 397.710279 125.805479 
L 398.99365 124.913062 
L 399.975052 123.905619 
L 402.428555 122.003644 
L 403.447702 121.057086 
L 408.165977 117.547241 
L 414.054385 114.141727 
L 418.734914 112.073505 
L 422.396296 111.097617 
L 423.453189 110.885533 
L 425.906693 110.599139 
L 428.246957 110.364117 
L 430.587222 110.039116 
L 436.475629 108.855773 
L 443.458677 106.441803 
L 449.309338 103.89784 
L 457.915472 98.891808 
L 464.030357 93.990441 
L 466.370622 91.882258 
L 468.597648 89.420388 
L 473.391415 83.223351 
L 478.034198 75.873765 
L 479.166584 73.904413 
L 481.733326 69.787036 
L 485.130484 63.393965 
L 486.074139 61.240194 
L 489.811013 55.384325 
L 492.000293 52.601045 
L 493.170425 51.656443 
L 493.170425 51.656443 
" clip-path="url(#p14009b7ea1)" style="fill: none; stroke: #ff7f0e; stroke-width: 2.5; stroke-linecap: square"/>
   </g>
   <g id="line2d_64">
    <path d="M 59.089097 265.505631 
L 59.089097 278.185776 
L 59.013605 272.827951 
L 58.975859 270.767016 
L 58.975859 275.170613 
L 59.089097 283.95115 
L 59.391067 285.59979 
L 60.334722 281.341049 
L 61.957809 277.673479 
L 64.184835 276.543196 
L 66.449607 274.026427 
L 70.148735 266.421908 
L 71.507598 269.051982 
L 72.715476 269.350322 
L 73.810116 271.589131 
L 74.904756 271.481624 
L 75.999396 266.690311 
L 77.094036 268.431002 
L 78.264168 271.495193 
L 79.4343 276.653592 
L 80.642179 273.166893 
L 81.812311 268.52512 
L 83.057936 264.700352 
L 84.190322 263.582599 
L 85.360454 260.111988 
L 86.643825 256.762593 
L 87.88945 257.250988 
L 89.210567 258.023085 
L 90.456191 257.760909 
L 92.909695 263.844009 
L 94.079827 266.28989 
L 95.287705 267.292086 
L 96.420091 270.823185 
L 97.62797 268.338394 
L 98.798102 266.587804 
L 100.043727 274.204322 
L 101.213859 267.973274 
L 102.383991 264.147202 
L 103.59187 266.923105 
L 104.762002 268.566318 
L 105.932134 264.89802 
L 107.064521 257.557451 
L 108.310145 254.421752 
L 109.480277 252.563415 
L 110.688156 253.261588 
L 111.896034 252.013835 
L 113.103913 252.941281 
L 114.274045 255.567246 
L 115.444177 262.038511 
L 116.576564 266.948441 
L 117.784442 262.729528 
L 118.916828 259.674411 
L 121.294839 254.237083 
L 122.464971 252.992617 
L 123.635103 248.947327 
L 124.805236 249.240263 
L 126.013114 249.682685 
L 127.107754 251.270653 
L 128.277886 253.985046 
L 129.523511 252.432263 
L 130.655897 255.197433 
L 131.863776 255.115326 
L 133.071654 255.411047 
L 134.241786 255.367964 
L 135.449665 253.390263 
L 136.657543 253.517968 
L 137.865422 252.660809 
L 139.111046 249.5572 
L 140.281179 249.238411 
L 141.489057 248.41805 
L 142.659189 251.458054 
L 143.829322 249.540287 
L 145.0372 249.946038 
L 146.207332 248.464288 
L 147.377465 245.557417 
L 148.509851 241.827218 
L 149.679983 237.499849 
L 150.850115 234.089879 
L 153.228126 229.31898 
L 155.606137 227.929057 
L 156.738523 228.315484 
L 157.946401 227.779589 
L 159.116534 225.84123 
L 160.286666 223.179607 
L 162.626931 219.910994 
L 163.797063 218.016787 
L 165.004941 215.314488 
L 166.175074 213.57163 
L 167.345206 213.10184 
L 168.515338 212.352517 
L 169.723217 211.196885 
L 172.063481 207.13369 
L 173.233613 206.196901 
L 174.479238 205.432445 
L 175.687117 204.42876 
L 178.027381 201.332202 
L 180.367646 198.637706 
L 181.537778 196.915911 
L 182.670164 194.944185 
L 183.840296 193.302368 
L 186.180561 190.674467 
L 188.483079 187.892585 
L 189.728704 186.218159 
L 190.936582 184.383099 
L 193.276847 181.730836 
L 194.446979 180.392398 
L 195.654858 178.642221 
L 196.82499 177.154714 
L 198.032868 176.082269 
L 200.335387 172.905663 
L 201.543265 171.381384 
L 203.921276 168.961651 
L 205.091408 167.390972 
L 206.299287 166.0585 
L 207.469419 164.474598 
L 209.809684 162.177063 
L 210.979816 160.691818 
L 213.282334 158.439895 
L 214.452466 157.755697 
L 216.792731 156.040938 
L 217.962863 155.41186 
L 222.681139 153.655562 
L 225.096896 153.517077 
L 229.815171 154.108137 
L 230.947557 154.394048 
L 239.176229 154.566147 
L 240.346361 154.42068 
L 242.762118 154.362533 
L 243.894504 154.214994 
L 246.234769 153.600593 
L 248.575033 153.002262 
L 250.953044 152.081133 
L 253.293309 151.180302 
L 255.709066 150.482357 
L 256.879198 150.211831 
L 261.559727 148.426695 
L 265.032378 147.246074 
L 266.240256 146.7332 
L 269.712907 145.661875 
L 279.111711 142.063712 
L 280.31959 141.804869 
L 281.527468 141.688114 
L 282.659854 141.308106 
L 287.415876 140.689548 
L 288.586008 140.792683 
L 290.926273 140.741254 
L 294.474416 141.628795 
L 296.776934 142.315389 
L 297.984812 142.723397 
L 301.532956 143.461031 
L 302.665342 143.630346 
L 314.593142 146.784439 
L 322.746321 148.545042 
L 325.124332 149.03857 
L 327.464597 149.442341 
L 328.634729 149.355244 
L 329.842607 149.131748 
L 332.145126 149.031474 
L 333.353004 149.065272 
L 335.655523 148.84565 
L 338.109026 148.797584 
L 339.279158 148.690249 
L 341.506184 148.131615 
L 342.789555 148.135647 
L 346.224459 147.789608 
L 349.772602 146.887619 
L 353.282999 145.661834 
L 354.453131 145.208425 
L 356.831142 144.593394 
L 359.13366 143.951558 
L 360.303793 143.597651 
L 363.81419 142.825652 
L 365.022068 142.387959 
L 366.154454 141.814675 
L 370.834983 139.984353 
L 373.212994 138.614684 
L 376.685645 136.432118 
L 381.743636 132.704164 
L 384.310377 130.421302 
L 385.442764 129.18825 
L 387.896267 127.161158 
L 392.463557 123.025817 
L 397.219579 118.661743 
L 404.315865 113.326923 
L 406.580637 111.883475 
L 412.544537 109.205968 
L 413.790162 108.901351 
L 416.017188 108.187782 
L 420.735463 107.318105 
L 423.037981 107.040444 
L 425.642469 106.956712 
L 427.831749 106.824493 
L 432.436786 106.942046 
L 434.814796 107.128111 
L 439.608564 107.036898 
L 443.043468 106.255149 
L 451.272141 104.605708 
L 452.442273 104.162074 
L 457.500264 101.56623 
L 460.02926 100.001199 
L 461.086153 99.104613 
L 462.558255 98.269159 
L 463.766134 97.38367 
L 464.558804 96.451549 
L 466.974561 94.529621 
L 468.220186 93.3214 
L 470.56045 90.400206 
L 471.768329 88.730196 
L 472.976207 86.852002 
L 480.072493 73.547646 
L 481.167133 71.007021 
L 483.58289 65.896723 
L 484.715276 63.392952 
L 487.055541 59.11895 
L 488.225673 57.49454 
L 489.433551 56.242211 
L 490.490445 55.408406 
L 491.698323 55.040879 
L 492.943948 55.203797 
L 493.774365 55.988783 
L 493.774365 55.988783 
" clip-path="url(#p14009b7ea1)" style="fill: none; stroke: #9467bd; stroke-width: 2.5; stroke-linecap: square"/>
   </g>
   <g id="line2d_65">
    <path d="M 60.108245 258.967105 
L 60.032752 287.239264 
L 60.032752 256.061834 
L 59.95726 259.989855 
L 60.070498 264.515464 
L 60.598945 268.28845 
L 61.731331 272.419908 
L 63.505403 274.6837 
L 65.694683 275.567462 
L 67.846216 279.557485 
L 69.733526 281.202762 
L 71.318867 277.898828 
L 72.67773 271.101114 
L 73.847862 268.14701 
L 74.942502 266.267712 
L 75.999396 261.684501 
L 77.131782 262.143338 
L 78.264168 263.65615 
L 79.358808 269.293015 
L 80.566686 272.592374 
L 81.774565 274.024588 
L 82.944697 275.199494 
L 84.190322 270.780347 
L 85.3982 271.768381 
L 86.681571 269.247404 
L 87.964942 268.677332 
L 89.286059 265.88423 
L 90.531684 262.916532 
L 91.777309 267.816113 
L 92.947441 271.527111 
L 94.155319 270.898222 
L 95.287705 271.573531 
L 96.457838 273.756655 
L 97.62797 282.374121 
L 98.835848 279.147231 
L 100.005981 281.667172 
L 101.213859 278.694211 
L 102.383991 278.955481 
L 103.59187 285.688703 
L 104.762002 291.205218 
L 105.932134 287.314606 
L 107.102267 285.720107 
L 108.272399 280.206177 
L 109.442531 282.132611 
L 110.612664 276.818635 
L 111.782796 275.885423 
L 112.990674 272.120476 
L 114.160807 271.564312 
L 115.330939 273.245054 
L 116.501071 281.977107 
L 117.671203 279.334144 
L 118.879082 273.638969 
L 120.08696 266.18072 
L 121.219346 266.315413 
L 122.389479 265.320036 
L 123.559611 261.474828 
L 124.729743 259.374216 
L 125.937622 260.371554 
L 127.070008 262.339009 
L 128.24014 266.477999 
L 129.410272 263.960355 
L 130.618151 260.191148 
L 131.826029 254.563424 
L 133.033908 253.754424 
L 134.20404 258.73032 
L 135.449665 256.356795 
L 136.657543 256.802205 
L 137.865422 255.664826 
L 139.035554 253.561206 
L 140.205686 251.852222 
L 141.375819 250.490254 
L 142.508205 245.487866 
L 144.961708 240.595529 
L 146.13184 244.462811 
L 147.339719 243.49203 
L 148.509851 242.957059 
L 149.717729 243.532929 
L 150.925608 242.521678 
L 153.228126 239.550599 
L 154.436005 234.760146 
L 155.568391 232.234482 
L 156.776269 228.301018 
L 157.984148 227.403826 
L 160.324412 223.820652 
L 161.456798 223.785184 
L 162.664677 223.635568 
L 163.834809 222.329911 
L 164.967195 219.358814 
L 166.137327 217.426303 
L 167.382952 216.407949 
L 168.553084 214.115829 
L 169.68547 212.919607 
L 170.855603 211.938888 
L 174.441492 208.07417 
L 175.573878 205.590381 
L 176.706264 202.679085 
L 179.122021 200.420086 
L 180.292153 198.902645 
L 181.462286 197.85534 
L 182.594672 196.148819 
L 183.80255 194.038764 
L 184.972682 192.729899 
L 187.350693 188.472227 
L 188.520825 186.864956 
L 193.276847 181.157678 
L 194.446979 179.477639 
L 196.900482 177.040278 
L 198.032868 175.20058 
L 199.240747 173.691902 
L 201.618758 171.409829 
L 202.751144 170.076076 
L 208.601805 165.422933 
L 210.94207 163.174234 
L 214.527959 160.847633 
L 216.830477 159.813331 
L 219.208488 159.336373 
L 220.340874 159.368624 
L 221.548753 159.002333 
L 222.718885 158.902088 
L 223.926763 159.081724 
L 225.059149 159.053242 
L 226.267028 158.855274 
L 228.645039 159.09841 
L 229.777425 159.374824 
L 232.155435 159.138698 
L 236.835965 158.884759 
L 238.043843 158.667824 
L 240.384108 158.817039 
L 241.516494 158.647846 
L 242.724372 158.334903 
L 243.894504 158.296143 
L 245.064637 158.029558 
L 246.234769 157.588185 
L 247.404901 157.286509 
L 249.782912 156.337208 
L 255.633573 155.433546 
L 259.14397 153.532835 
L 260.314102 152.814122 
L 262.616621 151.780928 
L 263.862245 151.368633 
L 268.505028 149.006378 
L 273.223304 146.216822 
L 274.35569 145.61114 
L 275.601314 145.155785 
L 276.771447 144.537087 
L 277.979325 144.183263 
L 282.622108 143.742316 
L 289.680648 144.099679 
L 290.813034 144.255083 
L 291.94542 144.276167 
L 295.493563 145.077124 
L 300.249585 146.132728 
L 301.419717 146.558959 
L 302.589849 146.856021 
L 303.797728 147.492272 
L 305.005606 148.379685 
L 306.251231 149.023506 
L 308.704734 149.99697 
L 310.856268 150.949004 
L 313.234278 151.085981 
L 314.479903 151.296753 
L 316.857914 152.10564 
L 320.406057 153.000455 
L 322.746321 153.889678 
L 323.9542 154.424299 
L 325.086586 154.753403 
L 326.256718 155.244311 
L 327.464597 155.496519 
L 328.672475 155.59783 
L 331.01274 155.588947 
L 332.182872 155.713302 
L 336.825655 157.097791 
L 337.995787 157.18977 
L 340.373798 157.058875 
L 341.619423 156.666565 
L 342.714062 156.487058 
L 345.167566 156.503124 
L 348.640216 155.846344 
L 349.69711 155.799496 
L 352.075121 155.17951 
L 358.001274 153.443677 
L 359.095914 152.93815 
L 360.303793 152.730958 
L 361.473925 152.239065 
L 362.644057 151.517178 
L 363.81419 150.956572 
L 365.059814 150.584519 
L 367.362333 149.120543 
L 369.740343 147.91828 
L 372.005115 146.500057 
L 378.006762 142.117806 
L 379.063655 141.104124 
L 380.498011 139.943579 
L 385.442764 135.133173 
L 391.368917 130.023279 
L 392.53905 128.897279 
L 393.746928 127.924372 
L 400.805468 123.240012 
L 403.107986 121.888632 
L 405.410505 120.669121 
L 406.693876 120.274014 
L 407.788515 119.801345 
L 411.336658 118.720209 
L 412.544537 118.450226 
L 418.357452 117.829835 
L 435.909436 116.856855 
L 439.495325 115.985514 
L 445.459225 114.218009 
L 448.856384 112.91629 
L 453.612405 110.812744 
L 454.669299 110.10571 
L 456.065908 109.374496 
L 457.500264 108.467578 
L 459.953767 106.523265 
L 464.89852 101.645121 
L 465.842175 100.273638 
L 472.938461 91.260443 
L 475.203233 87.539916 
L 476.335619 85.539043 
L 477.656736 83.552592 
L 479.921508 79.560353 
L 482.337265 76.358575 
L 483.356413 75.088234 
L 484.753022 74.047009 
L 485.998647 73.326376 
L 487.206525 72.925214 
L 488.112434 72.746466 
L 489.207074 72.840916 
L 490.603684 73.163577 
L 491.811562 73.707499 
L 493.887603 75.452739 
L 493.887603 75.452739 
" clip-path="url(#p14009b7ea1)" style="fill: none; stroke: #2ca02c; stroke-width: 2.5; stroke-linecap: square"/>
   </g>
   <g id="patch_3">
    <path d="M 60.598945 303.182656 
L 60.598945 39.679004 
" style="fill: none; stroke: #000000; stroke-width: 1.5; stroke-linejoin: miter; stroke-linecap: square"/>
   </g>
   <g id="patch_4">
    <path d="M 60.598945 303.182656 
L 494.680273 303.182656 
" style="fill: none; stroke: #000000; stroke-width: 1.5; stroke-linejoin: miter; stroke-linecap: square"/>
   </g>
   <g id="text_13">
    <!-- 1421_wo_HF -->
    <g transform="translate(236.004922 18.441699) scale(0.14 -0.14)">
     <defs>
      <path id="ArialMT-42" d="M -97 -1272 
L -97 -866 
L 3631 -866 
L 3631 -1272 
L -97 -1272 
z
" transform="scale(0.015625)"/>
      <path id="ArialMT-5a" d="M 1034 0 
L 19 3319 
L 600 3319 
L 1128 1403 
L 1325 691 
Q 1338 744 1497 1375 
L 2025 3319 
L 2603 3319 
L 3100 1394 
L 3266 759 
L 3456 1400 
L 4025 3319 
L 4572 3319 
L 3534 0 
L 2950 0 
L 2422 1988 
L 2294 2553 
L 1622 0 
L 1034 0 
z
" transform="scale(0.015625)"/>
      <path id="ArialMT-2b" d="M 513 0 
L 513 4581 
L 1119 4581 
L 1119 2700 
L 3500 2700 
L 3500 4581 
L 4106 4581 
L 4106 0 
L 3500 0 
L 3500 2159 
L 1119 2159 
L 1119 0 
L 513 0 
z
" transform="scale(0.015625)"/>
      <path id="ArialMT-29" d="M 525 0 
L 525 4581 
L 3616 4581 
L 3616 4041 
L 1131 4041 
L 1131 2622 
L 3281 2622 
L 3281 2081 
L 1131 2081 
L 1131 0 
L 525 0 
z
" transform="scale(0.015625)"/>
     </defs>
     <use xlink:href="#ArialMT-14"/>
     <use xlink:href="#ArialMT-17" transform="translate(55.609375 0)"/>
     <use xlink:href="#ArialMT-15" transform="translate(111.21875 0)"/>
     <use xlink:href="#ArialMT-14" transform="translate(166.828125 0)"/>
     <use xlink:href="#ArialMT-42" transform="translate(222.4375 0)"/>
     <use xlink:href="#ArialMT-5a" transform="translate(278.046875 0)"/>
     <use xlink:href="#ArialMT-52" transform="translate(350.265625 0)"/>
     <use xlink:href="#ArialMT-42" transform="translate(405.875 0)"/>
     <use xlink:href="#ArialMT-2b" transform="translate(461.484375 0)"/>
     <use xlink:href="#ArialMT-29" transform="translate(533.703125 0)"/>
    </g>
    <!-- m/z 2 -->
    <g transform="translate(260.526797 33.679004) scale(0.14 -0.14)">
     <use xlink:href="#ArialMT-50"/>
     <use xlink:href="#ArialMT-12" transform="translate(83.296875 0)"/>
     <use xlink:href="#ArialMT-5d" transform="translate(111.078125 0)"/>
     <use xlink:href="#ArialMT-3" transform="translate(161.078125 0)"/>
     <use xlink:href="#ArialMT-15" transform="translate(188.859375 0)"/>
    </g>
   </g>
   <g id="legend_1">
    <g id="line2d_66">
     <path d="M 512.3619 52.459277 
L 522.3619 52.459277 
L 532.3619 52.459277 
" style="fill: none; stroke: #000000; stroke-width: 2.5; stroke-linecap: square"/>
    </g>
    <g id="text_14">
     <!-- 0 h -->
     <g transform="translate(540.3619 55.959277) scale(0.1 -0.1)">
      <defs>
       <path id="ArialMT-4b" d="M 422 0 
L 422 4581 
L 984 4581 
L 984 2938 
Q 1378 3394 1978 3394 
Q 2347 3394 2619 3248 
Q 2891 3103 3008 2847 
Q 3125 2591 3125 2103 
L 3125 0 
L 2563 0 
L 2563 2103 
Q 2563 2525 2380 2717 
Q 2197 2909 1863 2909 
Q 1613 2909 1392 2779 
Q 1172 2650 1078 2428 
Q 984 2206 984 1816 
L 984 0 
L 422 0 
z
" transform="scale(0.015625)"/>
      </defs>
      <use xlink:href="#ArialMT-13"/>
      <use xlink:href="#ArialMT-3" transform="translate(55.609375 0)"/>
      <use xlink:href="#ArialMT-4b" transform="translate(83.390625 0)"/>
     </g>
    </g>
    <g id="line2d_67">
     <path d="M 512.3619 66.844043 
L 522.3619 66.844043 
L 532.3619 66.844043 
" style="fill: none; stroke: #1f77b4; stroke-width: 2.5; stroke-linecap: square"/>
    </g>
    <g id="text_15">
     <!-- 6 h -->
     <g transform="translate(540.3619 70.344043) scale(0.1 -0.1)">
      <use xlink:href="#ArialMT-19"/>
      <use xlink:href="#ArialMT-3" transform="translate(55.609375 0)"/>
      <use xlink:href="#ArialMT-4b" transform="translate(83.390625 0)"/>
     </g>
    </g>
    <g id="line2d_68">
     <path d="M 512.3619 81.228809 
L 522.3619 81.228809 
L 532.3619 81.228809 
" style="fill: none; stroke: #d62728; stroke-width: 2.5; stroke-linecap: square"/>
    </g>
    <g id="text_16">
     <!-- 24 h -->
     <g transform="translate(540.3619 84.728809) scale(0.1 -0.1)">
      <use xlink:href="#ArialMT-15"/>
      <use xlink:href="#ArialMT-17" transform="translate(55.609375 0)"/>
      <use xlink:href="#ArialMT-3" transform="translate(111.21875 0)"/>
      <use xlink:href="#ArialMT-4b" transform="translate(139 0)"/>
     </g>
    </g>
    <g id="line2d_69">
     <path d="M 512.3619 95.613574 
L 522.3619 95.613574 
L 532.3619 95.613574 
" style="fill: none; stroke: #ff7f0e; stroke-width: 2.5; stroke-linecap: square"/>
    </g>
    <g id="text_17">
     <!-- 7 d -->
     <g transform="translate(540.3619 99.113574) scale(0.1 -0.1)">
      <defs>
       <path id="ArialMT-1a" d="M 303 3981 
L 303 4522 
L 3269 4522 
L 3269 4084 
Q 2831 3619 2401 2847 
Q 1972 2075 1738 1259 
Q 1569 684 1522 0 
L 944 0 
Q 953 541 1156 1306 
Q 1359 2072 1739 2783 
Q 2119 3494 2547 3981 
L 303 3981 
z
" transform="scale(0.015625)"/>
       <path id="ArialMT-47" d="M 2575 0 
L 2575 419 
Q 2259 -75 1647 -75 
Q 1250 -75 917 144 
Q 584 363 401 755 
Q 219 1147 219 1656 
Q 219 2153 384 2558 
Q 550 2963 881 3178 
Q 1213 3394 1622 3394 
Q 1922 3394 2156 3267 
Q 2391 3141 2538 2938 
L 2538 4581 
L 3097 4581 
L 3097 0 
L 2575 0 
z
M 797 1656 
Q 797 1019 1065 703 
Q 1334 388 1700 388 
Q 2069 388 2326 689 
Q 2584 991 2584 1609 
Q 2584 2291 2321 2609 
Q 2059 2928 1675 2928 
Q 1300 2928 1048 2622 
Q 797 2316 797 1656 
z
" transform="scale(0.015625)"/>
      </defs>
      <use xlink:href="#ArialMT-1a"/>
      <use xlink:href="#ArialMT-3" transform="translate(55.609375 0)"/>
      <use xlink:href="#ArialMT-47" transform="translate(83.390625 0)"/>
     </g>
    </g>
    <g id="line2d_70">
     <path d="M 512.3619 109.99834 
L 522.3619 109.99834 
L 532.3619 109.99834 
" style="fill: none; stroke: #9467bd; stroke-width: 2.5; stroke-linecap: square"/>
    </g>
    <g id="text_18">
     <!-- 14 d -->
     <g transform="translate(540.3619 113.49834) scale(0.1 -0.1)">
      <use xlink:href="#ArialMT-14"/>
      <use xlink:href="#ArialMT-17" transform="translate(55.609375 0)"/>
      <use xlink:href="#ArialMT-3" transform="translate(111.21875 0)"/>
      <use xlink:href="#ArialMT-47" transform="translate(139 0)"/>
     </g>
    </g>
    <g id="line2d_71">
     <path d="M 512.3619 124.383105 
L 522.3619 124.383105 
L 532.3619 124.383105 
" style="fill: none; stroke: #2ca02c; stroke-width: 2.5; stroke-linecap: square"/>
    </g>
    <g id="text_19">
     <!-- 28 d -->
     <g transform="translate(540.3619 127.883105) scale(0.1 -0.1)">
      <use xlink:href="#ArialMT-15"/>
      <use xlink:href="#ArialMT-1b" transform="translate(55.609375 0)"/>
      <use xlink:href="#ArialMT-3" transform="translate(111.21875 0)"/>
      <use xlink:href="#ArialMT-47" transform="translate(139 0)"/>
     </g>
    </g>
   </g>
  </g>
 </g>
 <defs>
  <clipPath id="p14009b7ea1">
   <rect x="60.598945" y="39.679004" width="434.081328" height="263.503652"/>
  </clipPath>
 </defs>
</svg>
