<?xml version="1.0" encoding="utf-8" standalone="no"?>
<!DOCTYPE svg PUBLIC "-//W3C//DTD SVG 1.1//EN"
  "http://www.w3.org/Graphics/SVG/1.1/DTD/svg11.dtd">
<svg xmlns:xlink="http://www.w3.org/1999/xlink" width="571.022837pt" height="344.160273pt" viewBox="0 0 571.022837 344.160273" xmlns="http://www.w3.org/2000/svg" version="1.1">
 <metadata>
  <rdf:RDF xmlns:dc="http://purl.org/dc/elements/1.1/" xmlns:cc="http://creativecommons.org/ns#" xmlns:rdf="http://www.w3.org/1999/02/22-rdf-syntax-ns#">
   <cc:Work>
    <dc:type rdf:resource="http://purl.org/dc/dcmitype/StillImage"/>
    <dc:date>2026-07-10T11:48:50.841200</dc:date>
    <dc:format>image/svg+xml</dc:format>
    <dc:creator>
     <cc:Agent>
      <dc:title>Matplotlib v3.11.0, https://matplotlib.org/</dc:title>
     </cc:Agent>
    </dc:creator>
   </cc:Work>
  </rdf:RDF>
 </metadata>
 <defs>
  <style type="text/css">*{stroke-linejoin: round; stroke-linecap: butt}</style>
 </defs>
 <g id="figure_1">
  <g id="patch_1">
   <path d="M 0 344.160273 
L 571.022837 344.160273 
L 571.022837 0 
L 0 0 
z
" style="fill: #ffffff"/>
  </g>
  <g id="axes_1">
   <g id="patch_2">
    <path d="M 60.598945 303.182656 
L 494.680273 303.182656 
L 494.680273 39.679004 
L 60.598945 39.679004 
z
" style="fill: #ffffff"/>
   </g>
   <g id="matplotlib.axis_1">
    <g id="xtick_1">
     <g id="line2d_1">
      <defs>
       <path id="m0d0bd86ef6" d="M 0 0 
L 0 -6 
" style="stroke: #000000; stroke-width: 0.8"/>
      </defs>
      <g>
       <use xlink:href="#m0d0bd86ef6" x="117.218249" y="303.182656" style="stroke: #000000; stroke-width: 0.8"/>
      </g>
     </g>
     <g id="text_1">
      <!-- 200 -->
      <g transform="translate(105.54028 316.875039) scale(0.14 -0.14)">
       <defs>
        <path id="ArialMT-15" d="M 3222 541 
L 3222 0 
L 194 0 
Q 188 203 259 391 
Q 375 700 629 1000 
Q 884 1300 1366 1694 
Q 2113 2306 2375 2664 
Q 2638 3022 2638 3341 
Q 2638 3675 2398 3904 
Q 2159 4134 1775 4134 
Q 1369 4134 1125 3890 
Q 881 3647 878 3216 
L 300 3275 
Q 359 3922 746 4261 
Q 1134 4600 1788 4600 
Q 2447 4600 2831 4234 
Q 3216 3869 3216 3328 
Q 3216 3053 3103 2787 
Q 2991 2522 2730 2228 
Q 2469 1934 1863 1422 
Q 1356 997 1212 845 
Q 1069 694 975 541 
L 3222 541 
z
" transform="scale(0.015625)"/>
        <path id="ArialMT-13" d="M 266 2259 
Q 266 3072 433 3567 
Q 600 4063 929 4331 
Q 1259 4600 1759 4600 
Q 2128 4600 2406 4451 
Q 2684 4303 2865 4023 
Q 3047 3744 3150 3342 
Q 3253 2941 3253 2259 
Q 3253 1453 3087 958 
Q 2922 463 2592 192 
Q 2263 -78 1759 -78 
Q 1097 -78 719 397 
Q 266 969 266 2259 
z
M 844 2259 
Q 844 1131 1108 757 
Q 1372 384 1759 384 
Q 2147 384 2411 759 
Q 2675 1134 2675 2259 
Q 2675 3391 2411 3762 
Q 2147 4134 1753 4134 
Q 1366 4134 1134 3806 
Q 844 3388 844 2259 
z
" transform="scale(0.015625)"/>
       </defs>
       <use xlink:href="#ArialMT-15"/>
       <use xlink:href="#ArialMT-13" transform="translate(55.609375 0)"/>
       <use xlink:href="#ArialMT-13" transform="translate(111.21875 0)"/>
      </g>
     </g>
    </g>
    <g id="xtick_2">
     <g id="line2d_2">
      <g>
       <use xlink:href="#m0d0bd86ef6" x="192.710654" y="303.182656" style="stroke: #000000; stroke-width: 0.8"/>
      </g>
     </g>
     <g id="text_2">
      <!-- 400 -->
      <g transform="translate(181.032685 316.875039) scale(0.14 -0.14)">
       <defs>
        <path id="ArialMT-17" d="M 2069 0 
L 2069 1097 
L 81 1097 
L 81 1613 
L 2172 4581 
L 2631 4581 
L 2631 1613 
L 3250 1613 
L 3250 1097 
L 2631 1097 
L 2631 0 
L 2069 0 
z
M 2069 1613 
L 2069 3678 
L 634 1613 
L 2069 1613 
z
" transform="scale(0.015625)"/>
       </defs>
       <use xlink:href="#ArialMT-17"/>
       <use xlink:href="#ArialMT-13" transform="translate(55.609375 0)"/>
       <use xlink:href="#ArialMT-13" transform="translate(111.21875 0)"/>
      </g>
     </g>
    </g>
    <g id="xtick_3">
     <g id="line2d_3">
      <g>
       <use xlink:href="#m0d0bd86ef6" x="268.203059" y="303.182656" style="stroke: #000000; stroke-width: 0.8"/>
      </g>
     </g>
     <g id="text_3">
      <!-- 600 -->
      <g transform="translate(256.52509 316.875039) scale(0.14 -0.14)">
       <defs>
        <path id="ArialMT-19" d="M 3184 3459 
L 2625 3416 
Q 2550 3747 2413 3897 
Q 2184 4138 1850 4138 
Q 1581 4138 1378 3988 
Q 1113 3794 959 3422 
Q 806 3050 800 2363 
Q 1003 2672 1297 2822 
Q 1591 2972 1913 2972 
Q 2475 2972 2870 2558 
Q 3266 2144 3266 1488 
Q 3266 1056 3080 686 
Q 2894 316 2569 119 
Q 2244 -78 1831 -78 
Q 1128 -78 684 439 
Q 241 956 241 2144 
Q 241 3472 731 4075 
Q 1159 4600 1884 4600 
Q 2425 4600 2770 4297 
Q 3116 3994 3184 3459 
z
M 888 1484 
Q 888 1194 1011 928 
Q 1134 663 1356 523 
Q 1578 384 1822 384 
Q 2178 384 2434 671 
Q 2691 959 2691 1453 
Q 2691 1928 2437 2201 
Q 2184 2475 1800 2475 
Q 1419 2475 1153 2201 
Q 888 1928 888 1484 
z
" transform="scale(0.015625)"/>
       </defs>
       <use xlink:href="#ArialMT-19"/>
       <use xlink:href="#ArialMT-13" transform="translate(55.609375 0)"/>
       <use xlink:href="#ArialMT-13" transform="translate(111.21875 0)"/>
      </g>
     </g>
    </g>
    <g id="xtick_4">
     <g id="line2d_4">
      <g>
       <use xlink:href="#m0d0bd86ef6" x="343.695464" y="303.182656" style="stroke: #000000; stroke-width: 0.8"/>
      </g>
     </g>
     <g id="text_4">
      <!-- 800 -->
      <g transform="translate(332.017495 316.875039) scale(0.14 -0.14)">
       <defs>
        <path id="ArialMT-1b" d="M 1131 2484 
Q 781 2613 612 2850 
Q 444 3088 444 3419 
Q 444 3919 803 4259 
Q 1163 4600 1759 4600 
Q 2359 4600 2725 4251 
Q 3091 3903 3091 3403 
Q 3091 3084 2923 2848 
Q 2756 2613 2416 2484 
Q 2838 2347 3058 2040 
Q 3278 1734 3278 1309 
Q 3278 722 2862 322 
Q 2447 -78 1769 -78 
Q 1091 -78 675 323 
Q 259 725 259 1325 
Q 259 1772 486 2073 
Q 713 2375 1131 2484 
z
M 1019 3438 
Q 1019 3113 1228 2906 
Q 1438 2700 1772 2700 
Q 2097 2700 2305 2904 
Q 2513 3109 2513 3406 
Q 2513 3716 2298 3927 
Q 2084 4138 1766 4138 
Q 1444 4138 1231 3931 
Q 1019 3725 1019 3438 
z
M 838 1322 
Q 838 1081 952 856 
Q 1066 631 1291 507 
Q 1516 384 1775 384 
Q 2178 384 2440 643 
Q 2703 903 2703 1303 
Q 2703 1709 2433 1975 
Q 2163 2241 1756 2241 
Q 1359 2241 1098 1978 
Q 838 1716 838 1322 
z
" transform="scale(0.015625)"/>
       </defs>
       <use xlink:href="#ArialMT-1b"/>
       <use xlink:href="#ArialMT-13" transform="translate(55.609375 0)"/>
       <use xlink:href="#ArialMT-13" transform="translate(111.21875 0)"/>
      </g>
     </g>
    </g>
    <g id="xtick_5">
     <g id="line2d_5">
      <g>
       <use xlink:href="#m0d0bd86ef6" x="419.187869" y="303.182656" style="stroke: #000000; stroke-width: 0.8"/>
      </g>
     </g>
     <g id="text_5">
      <!-- 1000 -->
      <g transform="translate(403.617244 316.875039) scale(0.14 -0.14)">
       <defs>
        <path id="ArialMT-14" d="M 2384 0 
L 1822 0 
L 1822 3584 
Q 1619 3391 1289 3197 
Q 959 3003 697 2906 
L 697 3450 
Q 1169 3672 1522 3987 
Q 1875 4303 2022 4600 
L 2384 4600 
L 2384 0 
z
" transform="scale(0.015625)"/>
       </defs>
       <use xlink:href="#ArialMT-14"/>
       <use xlink:href="#ArialMT-13" transform="translate(55.609375 0)"/>
       <use xlink:href="#ArialMT-13" transform="translate(111.21875 0)"/>
       <use xlink:href="#ArialMT-13" transform="translate(166.828125 0)"/>
      </g>
     </g>
    </g>
    <g id="xtick_6">
     <g id="line2d_6">
      <g>
       <use xlink:href="#m0d0bd86ef6" x="494.680273" y="303.182656" style="stroke: #000000; stroke-width: 0.8"/>
      </g>
     </g>
     <g id="text_6">
      <!-- 1200 -->
      <g transform="translate(479.109648 316.875039) scale(0.14 -0.14)">
       <use xlink:href="#ArialMT-14"/>
       <use xlink:href="#ArialMT-15" transform="translate(55.609375 0)"/>
       <use xlink:href="#ArialMT-13" transform="translate(111.21875 0)"/>
       <use xlink:href="#ArialMT-13" transform="translate(166.828125 0)"/>
      </g>
     </g>
    </g>
    <g id="xtick_7">
     <g id="line2d_7">
      <defs>
       <path id="mbb9e888271" d="M 0 0 
L 0 -3 
" style="stroke: #000000; stroke-width: 0.6"/>
      </defs>
      <g>
       <use xlink:href="#mbb9e888271" x="60.598945" y="303.182656" style="stroke: #000000; stroke-width: 0.6"/>
      </g>
     </g>
    </g>
    <g id="xtick_8">
     <g id="line2d_8">
      <g>
       <use xlink:href="#mbb9e888271" x="79.472047" y="303.182656" style="stroke: #000000; stroke-width: 0.6"/>
      </g>
     </g>
    </g>
    <g id="xtick_9">
     <g id="line2d_9">
      <g>
       <use xlink:href="#mbb9e888271" x="98.345148" y="303.182656" style="stroke: #000000; stroke-width: 0.6"/>
      </g>
     </g>
    </g>
    <g id="xtick_10">
     <g id="line2d_10">
      <g>
       <use xlink:href="#mbb9e888271" x="136.09135" y="303.182656" style="stroke: #000000; stroke-width: 0.6"/>
      </g>
     </g>
    </g>
    <g id="xtick_11">
     <g id="line2d_11">
      <g>
       <use xlink:href="#mbb9e888271" x="154.964451" y="303.182656" style="stroke: #000000; stroke-width: 0.6"/>
      </g>
     </g>
    </g>
    <g id="xtick_12">
     <g id="line2d_12">
      <g>
       <use xlink:href="#mbb9e888271" x="173.837553" y="303.182656" style="stroke: #000000; stroke-width: 0.6"/>
      </g>
     </g>
    </g>
    <g id="xtick_13">
     <g id="line2d_13">
      <g>
       <use xlink:href="#mbb9e888271" x="211.583755" y="303.182656" style="stroke: #000000; stroke-width: 0.6"/>
      </g>
     </g>
    </g>
    <g id="xtick_14">
     <g id="line2d_14">
      <g>
       <use xlink:href="#mbb9e888271" x="230.456856" y="303.182656" style="stroke: #000000; stroke-width: 0.6"/>
      </g>
     </g>
    </g>
    <g id="xtick_15">
     <g id="line2d_15">
      <g>
       <use xlink:href="#mbb9e888271" x="249.329958" y="303.182656" style="stroke: #000000; stroke-width: 0.6"/>
      </g>
     </g>
    </g>
    <g id="xtick_16">
     <g id="line2d_16">
      <g>
       <use xlink:href="#mbb9e888271" x="287.07616" y="303.182656" style="stroke: #000000; stroke-width: 0.6"/>
      </g>
     </g>
    </g>
    <g id="xtick_17">
     <g id="line2d_17">
      <g>
       <use xlink:href="#mbb9e888271" x="305.949261" y="303.182656" style="stroke: #000000; stroke-width: 0.6"/>
      </g>
     </g>
    </g>
    <g id="xtick_18">
     <g id="line2d_18">
      <g>
       <use xlink:href="#mbb9e888271" x="324.822362" y="303.182656" style="stroke: #000000; stroke-width: 0.6"/>
      </g>
     </g>
    </g>
    <g id="xtick_19">
     <g id="line2d_19">
      <g>
       <use xlink:href="#mbb9e888271" x="362.568565" y="303.182656" style="stroke: #000000; stroke-width: 0.6"/>
      </g>
     </g>
    </g>
    <g id="xtick_20">
     <g id="line2d_20">
      <g>
       <use xlink:href="#mbb9e888271" x="381.441666" y="303.182656" style="stroke: #000000; stroke-width: 0.6"/>
      </g>
     </g>
    </g>
    <g id="xtick_21">
     <g id="line2d_21">
      <g>
       <use xlink:href="#mbb9e888271" x="400.314767" y="303.182656" style="stroke: #000000; stroke-width: 0.6"/>
      </g>
     </g>
    </g>
    <g id="xtick_22">
     <g id="line2d_22">
      <g>
       <use xlink:href="#mbb9e888271" x="438.06097" y="303.182656" style="stroke: #000000; stroke-width: 0.6"/>
      </g>
     </g>
    </g>
    <g id="xtick_23">
     <g id="line2d_23">
      <g>
       <use xlink:href="#mbb9e888271" x="456.934071" y="303.182656" style="stroke: #000000; stroke-width: 0.6"/>
      </g>
     </g>
    </g>
    <g id="xtick_24">
     <g id="line2d_24">
      <g>
       <use xlink:href="#mbb9e888271" x="475.807172" y="303.182656" style="stroke: #000000; stroke-width: 0.6"/>
      </g>
     </g>
    </g>
    <g id="text_7">
     <!-- T1 Temperature (°C) -->
     <g transform="translate(213.900234 334.013711) scale(0.14 -0.14)">
      <defs>
       <path id="ArialMT-37" d="M 1659 0 
L 1659 4041 
L 150 4041 
L 150 4581 
L 3781 4581 
L 3781 4041 
L 2266 4041 
L 2266 0 
L 1659 0 
z
" transform="scale(0.015625)"/>
       <path id="ArialMT-3" transform="scale(0.015625)"/>
       <path id="ArialMT-48" d="M 2694 1069 
L 3275 997 
Q 3138 488 2766 206 
Q 2394 -75 1816 -75 
Q 1088 -75 661 373 
Q 234 822 234 1631 
Q 234 2469 665 2931 
Q 1097 3394 1784 3394 
Q 2450 3394 2872 2941 
Q 3294 2488 3294 1666 
Q 3294 1616 3291 1516 
L 816 1516 
Q 847 969 1125 678 
Q 1403 388 1819 388 
Q 2128 388 2347 550 
Q 2566 713 2694 1069 
z
M 847 1978 
L 2700 1978 
Q 2663 2397 2488 2606 
Q 2219 2931 1791 2931 
Q 1403 2931 1139 2672 
Q 875 2413 847 1978 
z
" transform="scale(0.015625)"/>
       <path id="ArialMT-50" d="M 422 0 
L 422 3319 
L 925 3319 
L 925 2853 
Q 1081 3097 1340 3245 
Q 1600 3394 1931 3394 
Q 2300 3394 2536 3241 
Q 2772 3088 2869 2813 
Q 3263 3394 3894 3394 
Q 4388 3394 4653 3120 
Q 4919 2847 4919 2278 
L 4919 0 
L 4359 0 
L 4359 2091 
Q 4359 2428 4304 2576 
Q 4250 2725 4106 2815 
Q 3963 2906 3769 2906 
Q 3419 2906 3187 2673 
Q 2956 2441 2956 1928 
L 2956 0 
L 2394 0 
L 2394 2156 
Q 2394 2531 2256 2718 
Q 2119 2906 1806 2906 
Q 1569 2906 1367 2781 
Q 1166 2656 1075 2415 
Q 984 2175 984 1722 
L 984 0 
L 422 0 
z
" transform="scale(0.015625)"/>
       <path id="ArialMT-53" d="M 422 -1272 
L 422 3319 
L 934 3319 
L 934 2888 
Q 1116 3141 1344 3267 
Q 1572 3394 1897 3394 
Q 2322 3394 2647 3175 
Q 2972 2956 3137 2557 
Q 3303 2159 3303 1684 
Q 3303 1175 3120 767 
Q 2938 359 2589 142 
Q 2241 -75 1856 -75 
Q 1575 -75 1351 44 
Q 1128 163 984 344 
L 984 -1272 
L 422 -1272 
z
M 931 1641 
Q 931 1000 1190 694 
Q 1450 388 1819 388 
Q 2194 388 2461 705 
Q 2728 1022 2728 1688 
Q 2728 2322 2467 2637 
Q 2206 2953 1844 2953 
Q 1484 2953 1207 2617 
Q 931 2281 931 1641 
z
" transform="scale(0.015625)"/>
       <path id="ArialMT-55" d="M 416 0 
L 416 3319 
L 922 3319 
L 922 2816 
Q 1116 3169 1280 3281 
Q 1444 3394 1641 3394 
Q 1925 3394 2219 3213 
L 2025 2691 
Q 1819 2813 1613 2813 
Q 1428 2813 1281 2702 
Q 1134 2591 1072 2394 
Q 978 2094 978 1738 
L 978 0 
L 416 0 
z
" transform="scale(0.015625)"/>
       <path id="ArialMT-44" d="M 2588 409 
Q 2275 144 1986 34 
Q 1697 -75 1366 -75 
Q 819 -75 525 192 
Q 231 459 231 875 
Q 231 1119 342 1320 
Q 453 1522 633 1644 
Q 813 1766 1038 1828 
Q 1203 1872 1538 1913 
Q 2219 1994 2541 2106 
Q 2544 2222 2544 2253 
Q 2544 2597 2384 2738 
Q 2169 2928 1744 2928 
Q 1347 2928 1158 2789 
Q 969 2650 878 2297 
L 328 2372 
Q 403 2725 575 2942 
Q 747 3159 1072 3276 
Q 1397 3394 1825 3394 
Q 2250 3394 2515 3294 
Q 2781 3194 2906 3042 
Q 3031 2891 3081 2659 
Q 3109 2516 3109 2141 
L 3109 1391 
Q 3109 606 3145 398 
Q 3181 191 3288 0 
L 2700 0 
Q 2613 175 2588 409 
z
M 2541 1666 
Q 2234 1541 1622 1453 
Q 1275 1403 1131 1340 
Q 988 1278 909 1158 
Q 831 1038 831 891 
Q 831 666 1001 516 
Q 1172 366 1500 366 
Q 1825 366 2078 508 
Q 2331 650 2450 897 
Q 2541 1088 2541 1459 
L 2541 1666 
z
" transform="scale(0.015625)"/>
       <path id="ArialMT-57" d="M 1650 503 
L 1731 6 
Q 1494 -44 1306 -44 
Q 1000 -44 831 53 
Q 663 150 594 308 
Q 525 466 525 972 
L 525 2881 
L 113 2881 
L 113 3319 
L 525 3319 
L 525 4141 
L 1084 4478 
L 1084 3319 
L 1650 3319 
L 1650 2881 
L 1084 2881 
L 1084 941 
Q 1084 700 1114 631 
Q 1144 563 1211 522 
Q 1278 481 1403 481 
Q 1497 481 1650 503 
z
" transform="scale(0.015625)"/>
       <path id="ArialMT-58" d="M 2597 0 
L 2597 488 
Q 2209 -75 1544 -75 
Q 1250 -75 995 37 
Q 741 150 617 320 
Q 494 491 444 738 
Q 409 903 409 1263 
L 409 3319 
L 972 3319 
L 972 1478 
Q 972 1038 1006 884 
Q 1059 663 1231 536 
Q 1403 409 1656 409 
Q 1909 409 2131 539 
Q 2353 669 2445 892 
Q 2538 1116 2538 1541 
L 2538 3319 
L 3100 3319 
L 3100 0 
L 2597 0 
z
" transform="scale(0.015625)"/>
       <path id="ArialMT-b" d="M 1497 -1347 
Q 1031 -759 709 28 
Q 388 816 388 1659 
Q 388 2403 628 3084 
Q 909 3875 1497 4659 
L 1900 4659 
Q 1522 4009 1400 3731 
Q 1209 3300 1100 2831 
Q 966 2247 966 1656 
Q 966 153 1900 -1347 
L 1497 -1347 
z
" transform="scale(0.015625)"/>
       <path id="ArialMT-83" d="M 400 3794 
Q 400 4153 654 4406 
Q 909 4659 1266 4659 
Q 1628 4659 1881 4406 
Q 2134 4153 2134 3794 
Q 2134 3434 1879 3179 
Q 1625 2925 1266 2925 
Q 909 2925 654 3178 
Q 400 3431 400 3794 
z
M 741 3794 
Q 741 3575 895 3420 
Q 1050 3266 1269 3266 
Q 1484 3266 1639 3420 
Q 1794 3575 1794 3794 
Q 1794 4013 1639 4167 
Q 1484 4322 1269 4322 
Q 1050 4322 895 4167 
Q 741 4013 741 3794 
z
" transform="scale(0.015625)"/>
       <path id="ArialMT-26" d="M 3763 1606 
L 4369 1453 
Q 4178 706 3683 314 
Q 3188 -78 2472 -78 
Q 1731 -78 1267 223 
Q 803 525 561 1097 
Q 319 1669 319 2325 
Q 319 3041 592 3573 
Q 866 4106 1370 4382 
Q 1875 4659 2481 4659 
Q 3169 4659 3637 4309 
Q 4106 3959 4291 3325 
L 3694 3184 
Q 3534 3684 3231 3912 
Q 2928 4141 2469 4141 
Q 1941 4141 1586 3887 
Q 1231 3634 1087 3207 
Q 944 2781 944 2328 
Q 944 1744 1114 1308 
Q 1284 872 1643 656 
Q 2003 441 2422 441 
Q 2931 441 3284 734 
Q 3638 1028 3763 1606 
z
" transform="scale(0.015625)"/>
       <path id="ArialMT-c" d="M 791 -1347 
L 388 -1347 
Q 1322 153 1322 1656 
Q 1322 2244 1188 2822 
Q 1081 3291 891 3722 
Q 769 4003 388 4659 
L 791 4659 
Q 1378 3875 1659 3084 
Q 1900 2403 1900 1659 
Q 1900 816 1576 28 
Q 1253 -759 791 -1347 
z
" transform="scale(0.015625)"/>
      </defs>
      <use xlink:href="#ArialMT-37"/>
      <use xlink:href="#ArialMT-14" transform="translate(61.078125 0)"/>
      <use xlink:href="#ArialMT-3" transform="translate(116.6875 0)"/>
      <use xlink:href="#ArialMT-37" transform="translate(142.65625 0)"/>
      <use xlink:href="#ArialMT-48" transform="translate(192.65625 0)"/>
      <use xlink:href="#ArialMT-50" transform="translate(248.265625 0)"/>
      <use xlink:href="#ArialMT-53" transform="translate(331.5625 0)"/>
      <use xlink:href="#ArialMT-48" transform="translate(387.171875 0)"/>
      <use xlink:href="#ArialMT-55" transform="translate(442.78125 0)"/>
      <use xlink:href="#ArialMT-44" transform="translate(476.078125 0)"/>
      <use xlink:href="#ArialMT-57" transform="translate(531.6875 0)"/>
      <use xlink:href="#ArialMT-58" transform="translate(559.46875 0)"/>
      <use xlink:href="#ArialMT-55" transform="translate(615.078125 0)"/>
      <use xlink:href="#ArialMT-48" transform="translate(648.375 0)"/>
      <use xlink:href="#ArialMT-3" transform="translate(703.984375 0)"/>
      <use xlink:href="#ArialMT-b" transform="translate(731.765625 0)"/>
      <use xlink:href="#ArialMT-83" transform="translate(765.0625 0)"/>
      <use xlink:href="#ArialMT-26" transform="translate(805.046875 0)"/>
      <use xlink:href="#ArialMT-c" transform="translate(877.265625 0)"/>
     </g>
    </g>
   </g>
   <g id="matplotlib.axis_2">
    <g id="ytick_1">
     <g id="line2d_25">
      <defs>
       <path id="mb8c540cd8d" d="M 0 0 
L 6 0 
" style="stroke: #000000; stroke-width: 0.8"/>
      </defs>
      <g>
       <use xlink:href="#mb8c540cd8d" x="60.598945" y="242.517618" style="stroke: #000000; stroke-width: 0.8"/>
      </g>
     </g>
     <g id="text_8">
      <!-- $\mathdefault{10^{-13}}$ -->
      <g transform="translate(24.338945 248.957618) scale(0.14 -0.14)">
       <defs>
        <path id="ArialMT-ed" d="M 3381 1997 
L 356 1997 
L 356 2522 
L 3381 2522 
L 3381 1997 
z
" transform="scale(0.015625)"/>
        <path id="ArialMT-16" d="M 269 1209 
L 831 1284 
Q 928 806 1161 595 
Q 1394 384 1728 384 
Q 2125 384 2398 659 
Q 2672 934 2672 1341 
Q 2672 1728 2419 1979 
Q 2166 2231 1775 2231 
Q 1616 2231 1378 2169 
L 1441 2663 
Q 1497 2656 1531 2656 
Q 1891 2656 2178 2843 
Q 2466 3031 2466 3422 
Q 2466 3731 2256 3934 
Q 2047 4138 1716 4138 
Q 1388 4138 1169 3931 
Q 950 3725 888 3313 
L 325 3413 
Q 428 3978 793 4289 
Q 1159 4600 1703 4600 
Q 2078 4600 2393 4439 
Q 2709 4278 2876 4000 
Q 3044 3722 3044 3409 
Q 3044 3113 2884 2869 
Q 2725 2625 2413 2481 
Q 2819 2388 3044 2092 
Q 3269 1797 3269 1353 
Q 3269 753 2831 336 
Q 2394 -81 1725 -81 
Q 1122 -81 723 278 
Q 325 638 269 1209 
z
" transform="scale(0.015625)"/>
       </defs>
       <use xlink:href="#ArialMT-14" transform="translate(0 0.3875)"/>
       <use xlink:href="#ArialMT-13" transform="translate(55.615234 0.3875)"/>
       <use xlink:href="#ArialMT-ed" transform="translate(112.1875 41.6875) scale(0.7)"/>
       <use xlink:href="#ArialMT-14" transform="translate(153.066406 41.6875) scale(0.7)"/>
       <use xlink:href="#ArialMT-16" transform="translate(191.99707 41.6875) scale(0.7)"/>
      </g>
     </g>
    </g>
    <g id="ytick_2">
     <g id="line2d_26">
      <g>
       <use xlink:href="#mb8c540cd8d" x="60.598945" y="158.587842" style="stroke: #000000; stroke-width: 0.8"/>
      </g>
     </g>
     <g id="text_9">
      <!-- $\mathdefault{10^{-12}}$ -->
      <g transform="translate(24.338945 165.027842) scale(0.14 -0.14)">
       <use xlink:href="#ArialMT-14" transform="translate(0 0.3875)"/>
       <use xlink:href="#ArialMT-13" transform="translate(55.615234 0.3875)"/>
       <use xlink:href="#ArialMT-ed" transform="translate(112.1875 41.6875) scale(0.7)"/>
       <use xlink:href="#ArialMT-14" transform="translate(153.066406 41.6875) scale(0.7)"/>
       <use xlink:href="#ArialMT-15" transform="translate(191.99707 41.6875) scale(0.7)"/>
      </g>
     </g>
    </g>
    <g id="ytick_3">
     <g id="line2d_27">
      <g>
       <use xlink:href="#mb8c540cd8d" x="60.598945" y="74.658066" style="stroke: #000000; stroke-width: 0.8"/>
      </g>
     </g>
     <g id="text_10">
      <!-- $\mathdefault{10^{-11}}$ -->
      <g transform="translate(25.038945 81.098066) scale(0.14 -0.14)">
       <use xlink:href="#ArialMT-14" transform="translate(0 0.3875)"/>
       <use xlink:href="#ArialMT-13" transform="translate(55.615234 0.3875)"/>
       <use xlink:href="#ArialMT-ed" transform="translate(112.1875 41.6875) scale(0.7)"/>
       <use xlink:href="#ArialMT-14" transform="translate(153.066406 41.6875) scale(0.7)"/>
       <use xlink:href="#ArialMT-14" transform="translate(187.09707 41.6875) scale(0.7)"/>
      </g>
     </g>
    </g>
    <g id="ytick_4">
     <g id="line2d_28">
      <defs>
       <path id="mb1ce699133" d="M 0 0 
L 3 0 
" style="stroke: #000000; stroke-width: 0.6"/>
      </defs>
      <g>
       <use xlink:href="#mb1ce699133" x="60.598945" y="301.182014" style="stroke: #000000; stroke-width: 0.6"/>
      </g>
     </g>
    </g>
    <g id="ytick_5">
     <g id="line2d_29">
      <g>
       <use xlink:href="#mb1ce699133" x="60.598945" y="286.402714" style="stroke: #000000; stroke-width: 0.6"/>
      </g>
     </g>
    </g>
    <g id="ytick_6">
     <g id="line2d_30">
      <g>
       <use xlink:href="#mb1ce699133" x="60.598945" y="275.916634" style="stroke: #000000; stroke-width: 0.6"/>
      </g>
     </g>
    </g>
    <g id="ytick_7">
     <g id="line2d_31">
      <g>
       <use xlink:href="#mb1ce699133" x="60.598945" y="267.782998" style="stroke: #000000; stroke-width: 0.6"/>
      </g>
     </g>
    </g>
    <g id="ytick_8">
     <g id="line2d_32">
      <g>
       <use xlink:href="#mb1ce699133" x="60.598945" y="261.137334" style="stroke: #000000; stroke-width: 0.6"/>
      </g>
     </g>
    </g>
    <g id="ytick_9">
     <g id="line2d_33">
      <g>
       <use xlink:href="#mb1ce699133" x="60.598945" y="255.518505" style="stroke: #000000; stroke-width: 0.6"/>
      </g>
     </g>
    </g>
    <g id="ytick_10">
     <g id="line2d_34">
      <g>
       <use xlink:href="#mb1ce699133" x="60.598945" y="250.651254" style="stroke: #000000; stroke-width: 0.6"/>
      </g>
     </g>
    </g>
    <g id="ytick_11">
     <g id="line2d_35">
      <g>
       <use xlink:href="#mb1ce699133" x="60.598945" y="246.358034" style="stroke: #000000; stroke-width: 0.6"/>
      </g>
     </g>
    </g>
    <g id="ytick_12">
     <g id="line2d_36">
      <g>
       <use xlink:href="#mb1ce699133" x="60.598945" y="217.252238" style="stroke: #000000; stroke-width: 0.6"/>
      </g>
     </g>
    </g>
    <g id="ytick_13">
     <g id="line2d_37">
      <g>
       <use xlink:href="#mb1ce699133" x="60.598945" y="202.472938" style="stroke: #000000; stroke-width: 0.6"/>
      </g>
     </g>
    </g>
    <g id="ytick_14">
     <g id="line2d_38">
      <g>
       <use xlink:href="#mb1ce699133" x="60.598945" y="191.986858" style="stroke: #000000; stroke-width: 0.6"/>
      </g>
     </g>
    </g>
    <g id="ytick_15">
     <g id="line2d_39">
      <g>
       <use xlink:href="#mb1ce699133" x="60.598945" y="183.853222" style="stroke: #000000; stroke-width: 0.6"/>
      </g>
     </g>
    </g>
    <g id="ytick_16">
     <g id="line2d_40">
      <g>
       <use xlink:href="#mb1ce699133" x="60.598945" y="177.207558" style="stroke: #000000; stroke-width: 0.6"/>
      </g>
     </g>
    </g>
    <g id="ytick_17">
     <g id="line2d_41">
      <g>
       <use xlink:href="#mb1ce699133" x="60.598945" y="171.588729" style="stroke: #000000; stroke-width: 0.6"/>
      </g>
     </g>
    </g>
    <g id="ytick_18">
     <g id="line2d_42">
      <g>
       <use xlink:href="#mb1ce699133" x="60.598945" y="166.721478" style="stroke: #000000; stroke-width: 0.6"/>
      </g>
     </g>
    </g>
    <g id="ytick_19">
     <g id="line2d_43">
      <g>
       <use xlink:href="#mb1ce699133" x="60.598945" y="162.428258" style="stroke: #000000; stroke-width: 0.6"/>
      </g>
     </g>
    </g>
    <g id="ytick_20">
     <g id="line2d_44">
      <g>
       <use xlink:href="#mb1ce699133" x="60.598945" y="133.322462" style="stroke: #000000; stroke-width: 0.6"/>
      </g>
     </g>
    </g>
    <g id="ytick_21">
     <g id="line2d_45">
      <g>
       <use xlink:href="#mb1ce699133" x="60.598945" y="118.543162" style="stroke: #000000; stroke-width: 0.6"/>
      </g>
     </g>
    </g>
    <g id="ytick_22">
     <g id="line2d_46">
      <g>
       <use xlink:href="#mb1ce699133" x="60.598945" y="108.057082" style="stroke: #000000; stroke-width: 0.6"/>
      </g>
     </g>
    </g>
    <g id="ytick_23">
     <g id="line2d_47">
      <g>
       <use xlink:href="#mb1ce699133" x="60.598945" y="99.923446" style="stroke: #000000; stroke-width: 0.6"/>
      </g>
     </g>
    </g>
    <g id="ytick_24">
     <g id="line2d_48">
      <g>
       <use xlink:href="#mb1ce699133" x="60.598945" y="93.277782" style="stroke: #000000; stroke-width: 0.6"/>
      </g>
     </g>
    </g>
    <g id="ytick_25">
     <g id="line2d_49">
      <g>
       <use xlink:href="#mb1ce699133" x="60.598945" y="87.658953" style="stroke: #000000; stroke-width: 0.6"/>
      </g>
     </g>
    </g>
    <g id="ytick_26">
     <g id="line2d_50">
      <g>
       <use xlink:href="#mb1ce699133" x="60.598945" y="82.791702" style="stroke: #000000; stroke-width: 0.6"/>
      </g>
     </g>
    </g>
    <g id="ytick_27">
     <g id="line2d_51">
      <g>
       <use xlink:href="#mb1ce699133" x="60.598945" y="78.498482" style="stroke: #000000; stroke-width: 0.6"/>
      </g>
     </g>
    </g>
    <g id="ytick_28">
     <g id="line2d_52">
      <g>
       <use xlink:href="#mb1ce699133" x="60.598945" y="49.392686" style="stroke: #000000; stroke-width: 0.6"/>
      </g>
     </g>
    </g>
    <g id="text_11">
     <!-- Ion Current (m/z 28) -->
     <g transform="translate(17.392383 234.056768) rotate(-90) scale(0.14 -0.14)">
      <defs>
       <path id="ArialMT-2c" d="M 597 0 
L 597 4581 
L 1203 4581 
L 1203 0 
L 597 0 
z
" transform="scale(0.015625)"/>
       <path id="ArialMT-52" d="M 213 1659 
Q 213 2581 725 3025 
Q 1153 3394 1769 3394 
Q 2453 3394 2887 2945 
Q 3322 2497 3322 1706 
Q 3322 1066 3130 698 
Q 2938 331 2570 128 
Q 2203 -75 1769 -75 
Q 1072 -75 642 372 
Q 213 819 213 1659 
z
M 791 1659 
Q 791 1022 1069 705 
Q 1347 388 1769 388 
Q 2188 388 2466 706 
Q 2744 1025 2744 1678 
Q 2744 2294 2464 2611 
Q 2184 2928 1769 2928 
Q 1347 2928 1069 2612 
Q 791 2297 791 1659 
z
" transform="scale(0.015625)"/>
       <path id="ArialMT-51" d="M 422 0 
L 422 3319 
L 928 3319 
L 928 2847 
Q 1294 3394 1984 3394 
Q 2284 3394 2536 3286 
Q 2788 3178 2913 3003 
Q 3038 2828 3088 2588 
Q 3119 2431 3119 2041 
L 3119 0 
L 2556 0 
L 2556 2019 
Q 2556 2363 2490 2533 
Q 2425 2703 2258 2804 
Q 2091 2906 1866 2906 
Q 1506 2906 1245 2678 
Q 984 2450 984 1813 
L 984 0 
L 422 0 
z
" transform="scale(0.015625)"/>
       <path id="ArialMT-12" d="M 0 -78 
L 1328 4659 
L 1778 4659 
L 453 -78 
L 0 -78 
z
" transform="scale(0.015625)"/>
       <path id="ArialMT-5d" d="M 125 0 
L 125 456 
L 2238 2881 
Q 1878 2863 1603 2863 
L 250 2863 
L 250 3319 
L 2963 3319 
L 2963 2947 
L 1166 841 
L 819 456 
Q 1197 484 1528 484 
L 3063 484 
L 3063 0 
L 125 0 
z
" transform="scale(0.015625)"/>
      </defs>
      <use xlink:href="#ArialMT-2c"/>
      <use xlink:href="#ArialMT-52" transform="translate(27.78125 0)"/>
      <use xlink:href="#ArialMT-51" transform="translate(83.390625 0)"/>
      <use xlink:href="#ArialMT-3" transform="translate(139 0)"/>
      <use xlink:href="#ArialMT-26" transform="translate(166.78125 0)"/>
      <use xlink:href="#ArialMT-58" transform="translate(239 0)"/>
      <use xlink:href="#ArialMT-55" transform="translate(294.609375 0)"/>
      <use xlink:href="#ArialMT-55" transform="translate(327.90625 0)"/>
      <use xlink:href="#ArialMT-48" transform="translate(361.203125 0)"/>
      <use xlink:href="#ArialMT-51" transform="translate(416.8125 0)"/>
      <use xlink:href="#ArialMT-57" transform="translate(472.421875 0)"/>
      <use xlink:href="#ArialMT-3" transform="translate(500.203125 0)"/>
      <use xlink:href="#ArialMT-b" transform="translate(527.984375 0)"/>
      <use xlink:href="#ArialMT-50" transform="translate(561.28125 0)"/>
      <use xlink:href="#ArialMT-12" transform="translate(644.578125 0)"/>
      <use xlink:href="#ArialMT-5d" transform="translate(672.359375 0)"/>
      <use xlink:href="#ArialMT-3" transform="translate(722.359375 0)"/>
      <use xlink:href="#ArialMT-15" transform="translate(750.140625 0)"/>
      <use xlink:href="#ArialMT-1b" transform="translate(805.75 0)"/>
      <use xlink:href="#ArialMT-c" transform="translate(861.359375 0)"/>
     </g>
    </g>
   </g>
   <g id="line2d_53">
    <path d="M 59.617544 258.223659 
L 59.542052 236.679422 
L 59.542052 249.877585 
L 59.806275 255.879169 
L 60.598945 254.708488 
L 62.108793 255.827257 
L 64.298073 260.811536 
L 66.600592 256.895674 
L 68.714379 255.688626 
L 70.48845 260.534358 
L 71.960552 258.793046 
L 73.243923 253.294356 
L 74.376309 255.684293 
L 75.470949 251.756851 
L 76.527843 255.359313 
L 77.660229 256.522882 
L 78.754869 256.623096 
L 79.887255 257.694975 
L 81.095133 253.752254 
L 82.303012 253.10391 
L 83.473144 247.444897 
L 84.681022 243.856685 
L 87.210018 254.306479 
L 88.531135 264.56266 
L 89.77676 278.526393 
L 91.022384 291.205218 
L 92.230263 290.348885 
L 93.438141 273.595414 
L 94.608274 267.416673 
L 95.778406 260.533237 
L 96.948538 248.737759 
L 98.080924 243.793354 
L 99.326549 242.287217 
L 100.534428 244.383424 
L 101.70456 252.737475 
L 102.874692 256.386334 
L 104.044824 256.820671 
L 105.214957 254.935984 
L 106.422835 255.264148 
L 107.592967 251.761233 
L 108.725353 249.013808 
L 109.85774 242.878849 
L 110.990126 244.94159 
L 112.198004 246.638172 
L 113.368136 251.237251 
L 114.576015 251.818074 
L 115.783893 252.011438 
L 116.991772 248.838773 
L 118.124158 250.948076 
L 119.29429 250.206817 
L 120.464422 249.949466 
L 121.672301 247.146584 
L 122.842433 250.752487 
L 124.050312 243.303817 
L 125.295936 238.809474 
L 126.503815 236.351391 
L 127.673947 235.250874 
L 128.844079 237.638201 
L 130.014212 240.752343 
L 131.184344 240.983319 
L 132.354476 238.155716 
L 133.524608 237.208287 
L 134.656995 232.105133 
L 135.864873 228.353707 
L 137.072751 223.949804 
L 138.318376 220.545048 
L 139.526255 220.318364 
L 140.696387 217.815997 
L 141.791027 217.476342 
L 142.998905 215.888798 
L 144.131291 216.151388 
L 145.301424 213.869278 
L 147.641688 211.33133 
L 148.887313 206.142402 
L 150.095191 202.849198 
L 151.227577 202.188386 
L 152.435456 199.35895 
L 153.605588 198.322615 
L 154.77572 197.784671 
L 156.021345 195.868854 
L 157.153731 192.884986 
L 158.286117 190.491664 
L 159.45625 188.566153 
L 160.626382 187.580401 
L 161.872006 186.185463 
L 163.042139 184.357763 
L 164.250017 180.08353 
L 166.628028 172.900049 
L 167.79816 168.029107 
L 169.006039 164.17294 
L 170.176171 161.619627 
L 171.270811 160.249729 
L 172.440943 159.071544 
L 173.648822 156.968852 
L 174.818954 155.460223 
L 180.707361 143.130656 
L 181.877494 140.995567 
L 183.047626 139.208437 
L 184.255505 136.841037 
L 186.558023 133.140905 
L 188.97378 127.836519 
L 190.06842 125.009446 
L 193.767548 113.095379 
L 197.353437 100.120828 
L 198.523569 96.54767 
L 199.655955 93.454333 
L 200.788341 91.490394 
L 201.958473 90.011602 
L 203.09086 88.824089 
L 204.298738 88.456912 
L 206.676749 88.196096 
L 209.05476 87.663301 
L 210.187146 87.27226 
L 211.395024 86.110925 
L 212.565156 84.771332 
L 213.773035 82.023474 
L 214.905421 78.377463 
L 219.699189 59.542012 
L 220.793828 55.961549 
L 221.963961 53.531652 
L 223.171839 52.072403 
L 224.341972 51.656443 
L 225.512104 52.103972 
L 226.719982 53.478565 
L 227.852368 55.289392 
L 229.022501 57.461362 
L 234.873162 69.680127 
L 236.005548 71.791329 
L 237.251173 74.927564 
L 238.383559 76.369777 
L 239.591437 77.021691 
L 240.76157 77.097193 
L 241.931702 76.878973 
L 244.271966 75.266261 
L 245.479845 75.138114 
L 246.649977 75.965172 
L 247.857856 78.065064 
L 248.990242 81.369798 
L 250.160374 83.245256 
L 252.538385 88.152838 
L 253.708517 89.661864 
L 254.840903 90.782202 
L 256.048782 91.583643 
L 258.426792 92.757298 
L 259.634671 93.493474 
L 260.767057 93.972081 
L 263.182814 95.218782 
L 264.352946 95.499978 
L 265.523078 95.614658 
L 267.901089 96.714074 
L 272.506126 97.14305 
L 277.262147 96.949098 
L 278.43228 97.164587 
L 280.772544 97.126692 
L 284.282941 95.037993 
L 285.490819 93.057229 
L 286.660952 90.786562 
L 287.831084 89.054795 
L 289.001216 87.709466 
L 291.341481 86.062467 
L 292.511613 86.130141 
L 293.719492 85.949371 
L 294.889624 86.050884 
L 296.02201 85.779847 
L 299.607899 82.361055 
L 300.740285 81.034575 
L 301.910418 79.344677 
L 306.704185 73.856533 
L 307.94981 72.819822 
L 309.119942 72.158736 
L 310.327821 71.800819 
L 311.535699 71.579625 
L 312.743578 71.815232 
L 313.875964 72.484101 
L 316.216228 75.132795 
L 317.348614 76.910963 
L 318.518747 78.454003 
L 319.651133 80.350278 
L 324.407154 87.103917 
L 327.879805 91.568172 
L 329.049937 92.681286 
L 331.427948 93.697595 
L 333.768212 93.887611 
L 336.108477 93.651185 
L 337.316355 93.191603 
L 340.789006 93.803168 
L 341.996885 94.037747 
L 343.167017 93.833188 
L 345.469535 93.843203 
L 346.71516 94.005058 
L 347.847546 93.974772 
L 349.017678 93.381182 
L 350.225557 93.425224 
L 351.395689 93.251009 
L 352.565821 93.243714 
L 353.7737 92.768965 
L 354.906086 92.024141 
L 356.076218 91.904378 
L 359.624361 91.057767 
L 364.30489 89.710323 
L 369.023165 86.785493 
L 371.287938 85.735809 
L 373.703695 85.162681 
L 374.798334 85.093178 
L 375.930721 84.637889 
L 377.214091 83.917203 
L 378.308731 82.771977 
L 380.913219 80.913524 
L 382.309829 80.06392 
L 383.517707 79.031258 
L 385.857972 77.612903 
L 387.103596 77.158418 
L 388.311475 76.316442 
L 389.368369 75.417326 
L 391.821872 74.143423 
L 392.992004 73.144144 
L 394.162136 72.580645 
L 395.294522 71.884124 
L 397.634787 70.866696 
L 400.012798 70.016937 
L 405.938951 70.114351 
L 407.071338 69.828876 
L 408.203724 69.765447 
L 409.524841 69.434007 
L 410.581734 68.980326 
L 411.789613 68.839617 
L 416.470142 69.88104 
L 418.810407 70.526219 
L 421.150671 71.832652 
L 423.415443 72.663545 
L 424.925291 73.146638 
L 427.076825 74.213328 
L 430.624968 76.63172 
L 431.757354 77.64491 
L 434.022126 79.161177 
L 435.305497 79.681598 
L 436.437883 80.478741 
L 437.608015 81.067122 
L 439.910534 82.511161 
L 441.269397 82.604086 
L 444.666555 83.642709 
L 445.949926 83.662444 
L 446.931327 83.972078 
L 448.139206 84.538201 
L 449.347084 84.843512 
L 450.47947 85.330889 
L 451.762841 85.182604 
L 454.140852 84.115637 
L 455.122253 83.910743 
L 456.632101 83.442987 
L 457.953218 82.207516 
L 460.595453 80.982237 
L 461.576854 80.333279 
L 462.935717 79.712966 
L 463.992611 78.588835 
L 465.238236 77.572438 
L 466.332875 76.524387 
L 467.5785 75.64557 
L 468.559901 74.077914 
L 469.994257 72.491612 
L 470.900166 70.584056 
L 472.221283 68.913084 
L 473.353669 67.118827 
L 474.63704 65.608415 
L 475.656187 64.152038 
L 476.864066 63.048496 
L 478.071944 62.362252 
L 480.449955 61.739928 
L 481.506849 61.359297 
L 482.639235 60.499353 
L 483.960352 60.068593 
L 485.092738 59.29661 
L 486.26287 58.950688 
L 488.565389 58.119979 
L 489.84876 57.702282 
L 490.981146 57.13384 
L 492.189024 56.345222 
L 493.434649 55.276348 
L 493.434649 55.276348 
" clip-path="url(#p176eb4e1b0)" style="fill: none; stroke: #000000; stroke-width: 2.5; stroke-linecap: square"/>
   </g>
   <g id="line2d_54">
    <path d="M 59.013605 272.178572 
L 59.013605 229.450489 
L 59.013605 264.37063 
L 59.466559 256.028791 
L 60.523453 248.237595 
L 62.297524 247.684957 
L 64.52455 247.242558 
L 66.71383 243.424583 
L 68.638886 250.622328 
L 70.261973 246.972725 
L 71.658583 248.919976 
L 72.866461 251.591687 
L 73.961101 249.772636 
L 75.055741 244.007875 
L 76.150381 247.330308 
L 77.245021 246.670824 
L 78.377407 242.868165 
L 79.547539 243.828411 
L 80.717671 245.193806 
L 81.887803 238.488781 
L 83.095682 238.092087 
L 84.30356 239.463891 
L 85.511439 240.545238 
L 86.832556 240.66685 
L 88.115927 244.176676 
L 89.399298 243.839726 
L 90.682669 238.32816 
L 91.890547 239.140293 
L 93.098426 242.808356 
L 94.268558 240.646366 
L 95.43869 242.354852 
L 96.608822 248.430108 
L 97.778955 252.320794 
L 98.949087 254.197904 
L 100.119219 251.513483 
L 101.327098 247.329494 
L 102.49723 240.192039 
L 103.667362 241.245058 
L 104.837495 242.017437 
L 106.007627 238.322016 
L 107.140013 242.820892 
L 108.272399 243.002078 
L 109.480277 241.626127 
L 110.688156 241.616113 
L 111.896034 239.720289 
L 113.066167 241.502124 
L 114.198553 246.702653 
L 115.406431 246.694066 
L 116.576564 242.517172 
L 117.746696 240.595597 
L 118.916828 242.503708 
L 120.08696 237.012027 
L 121.332585 234.960005 
L 122.502717 232.562562 
L 123.67285 231.740456 
L 124.880728 233.039839 
L 126.05086 235.900364 
L 127.258739 233.863325 
L 128.428871 232.547819 
L 129.599003 231.80693 
L 130.806882 231.72209 
L 131.977014 227.93203 
L 133.147146 228.078477 
L 136.695289 218.508699 
L 137.865422 218.024568 
L 140.243432 212.005574 
L 141.413565 211.12192 
L 142.621443 209.181521 
L 143.791576 208.753177 
L 144.999454 205.540899 
L 146.169586 203.131052 
L 147.339719 199.814053 
L 148.547597 198.831621 
L 149.717729 197.381669 
L 150.925608 193.905432 
L 152.09574 191.283299 
L 153.303619 189.458685 
L 154.473751 187.017732 
L 155.643883 185.997692 
L 156.738523 182.834778 
L 159.116534 179.506213 
L 160.286666 178.626081 
L 161.532291 176.298156 
L 162.740169 175.281735 
L 163.948048 173.369432 
L 165.080434 171.08526 
L 166.288312 169.748045 
L 168.628577 167.977265 
L 169.836455 167.383151 
L 171.006587 166.056208 
L 172.101227 163.946503 
L 173.309106 162.08862 
L 174.441492 159.559516 
L 176.819503 152.483345 
L 177.914143 148.401359 
L 180.329899 143.714965 
L 181.537778 141.96205 
L 183.840296 138.131448 
L 185.010429 136.522278 
L 187.426186 130.699643 
L 189.76645 123.235597 
L 190.974329 120.507485 
L 192.182207 117.313219 
L 194.522472 112.400672 
L 198.146107 107.59976 
L 199.278493 107.062218 
L 200.448625 106.667814 
L 205.129154 106.717407 
L 206.299287 106.401194 
L 207.469419 105.762505 
L 208.639551 103.949436 
L 209.885176 102.422251 
L 211.017562 100.775781 
L 212.225441 98.68165 
L 213.395573 96.418215 
L 214.527959 93.639374 
L 216.90597 89.242228 
L 218.076102 87.333575 
L 220.454113 83.917898 
L 221.586499 82.804155 
L 223.926763 81.455728 
L 225.096896 81.044075 
L 226.304774 80.864419 
L 227.512653 81.064859 
L 229.815171 82.019002 
L 232.155435 83.384045 
L 235.703578 86.168781 
L 238.043843 88.282822 
L 239.251721 89.249775 
L 240.421854 89.966243 
L 241.591986 90.371287 
L 242.762118 90.966713 
L 243.932251 91.380158 
L 247.442647 93.447259 
L 248.575033 93.963594 
L 251.028537 95.544382 
L 252.198669 96.099192 
L 253.368801 96.475967 
L 254.57668 97.277549 
L 255.709066 97.762379 
L 256.879198 98.458539 
L 259.257209 98.876806 
L 260.502833 98.648712 
L 261.63522 98.894862 
L 262.805352 98.771873 
L 263.975484 98.938111 
L 265.145616 99.534238 
L 266.353495 100.317175 
L 267.523627 100.631559 
L 268.693759 101.119944 
L 269.901638 101.255657 
L 270.996278 101.571437 
L 272.16641 101.021013 
L 273.374288 100.938471 
L 275.714553 99.962694 
L 276.884685 99.943347 
L 279.22495 99.108434 
L 280.395082 98.760506 
L 282.773093 97.249199 
L 291.039511 88.391596 
L 292.171897 86.642678 
L 293.379776 85.05101 
L 294.549908 83.261968 
L 296.890173 78.721939 
L 298.060305 76.674267 
L 300.362823 73.224114 
L 301.570702 71.814504 
L 302.77858 70.649498 
L 303.948712 70.013781 
L 306.364469 69.743864 
L 307.572348 69.691237 
L 309.988105 70.722048 
L 311.158237 71.753138 
L 312.290623 72.944036 
L 314.70638 76.054609 
L 320.519295 85.870194 
L 322.935052 89.54359 
L 324.029692 91.626157 
L 325.237571 93.2127 
L 326.407703 93.873908 
L 327.540089 94.780165 
L 328.747967 95.306217 
L 329.842607 95.487446 
L 331.088232 95.103984 
L 332.220618 95.313226 
L 333.428497 94.704579 
L 335.768761 94.588218 
L 336.901147 94.583012 
L 338.033533 94.2035 
L 339.279158 94.08449 
L 340.487036 93.668503 
L 341.657169 93.091135 
L 342.789555 92.347537 
L 343.921941 92.358483 
L 345.054327 91.403805 
L 347.470084 91.017598 
L 348.677962 91.038629 
L 349.923587 90.808763 
L 350.980481 90.369804 
L 352.150613 90.096251 
L 356.831142 88.148495 
L 357.963528 87.592257 
L 360.379285 86.851932 
L 361.549417 86.621192 
L 362.757296 85.779694 
L 365.135307 85.060195 
L 366.267693 84.752263 
L 369.77809 83.088861 
L 370.985968 82.689823 
L 373.288486 81.735732 
L 374.458619 80.938767 
L 377.969015 79.154736 
L 379.21464 78.255491 
L 380.460265 77.707232 
L 381.894621 77.268767 
L 383.177991 76.408924 
L 384.310377 75.401982 
L 385.48051 74.766991 
L 391.406664 70.778852 
L 392.614542 70.643917 
L 393.860167 70.187891 
L 395.030299 70.068856 
L 396.0117 69.738684 
L 397.332817 69.534193 
L 398.540696 69.223157 
L 400.843214 68.327099 
L 403.258971 67.995307 
L 404.353611 67.975657 
L 405.561489 68.143264 
L 406.731622 68.608966 
L 410.279765 68.798947 
L 412.544537 69.518871 
L 413.639177 69.875957 
L 416.130426 70.335863 
L 417.300558 71.161791 
L 419.640823 72.322902 
L 420.810955 73.081281 
L 421.905595 73.533638 
L 423.15122 74.540669 
L 426.661617 76.269644 
L 430.360744 78.527757 
L 431.455384 79.196991 
L 432.550024 80.178215 
L 434.852543 81.516905 
L 437.2683 82.217083 
L 444.326839 84.862028 
L 445.421479 85.03961 
L 447.79949 84.401492 
L 448.931876 84.098154 
L 450.102008 83.612892 
L 451.385379 83.54898 
L 452.517765 83.634972 
L 456.216893 82.819425 
L 457.764487 82.372348 
L 459.010112 81.588146 
L 460.067006 81.240071 
L 462.558255 80.063453 
L 463.50191 80.031616 
L 464.860774 79.778882 
L 465.917667 79.417198 
L 467.087799 78.674951 
L 468.333424 77.739496 
L 472.862968 72.48563 
L 474.184086 71.949942 
L 475.354218 71.946562 
L 476.52435 72.40096 
L 480.261224 74.316319 
L 482.412758 76.195171 
L 483.771621 76.878807 
L 484.639784 77.93017 
L 488.074688 79.194024 
L 490.679176 78.461297 
L 491.962547 78.248565 
L 492.906202 78.374153 
L 493.887603 79.023852 
L 493.887603 79.023852 
" clip-path="url(#p176eb4e1b0)" style="fill: none; stroke: #1f77b4; stroke-width: 2.5; stroke-linecap: square"/>
   </g>
   <g id="line2d_55">
    <path d="M 58.636143 225.018789 
L 58.598397 261.847982 
L 58.673889 237.100142 
L 59.013605 234.959428 
L 60.032752 238.949355 
L 61.84457 243.975589 
L 63.996104 245.210336 
L 66.223129 247.16002 
L 69.809019 234.420817 
L 71.205628 233.030265 
L 72.413507 232.559107 
L 73.508147 235.165582 
L 74.602786 237.387629 
L 76.792066 242.28131 
L 77.924452 251.611851 
L 79.094585 253.365442 
L 80.264717 252.424292 
L 81.472595 252.061739 
L 83.850606 239.809365 
L 85.058484 234.366746 
L 86.304109 235.748939 
L 87.58748 230.452739 
L 88.908597 231.397543 
L 90.229714 231.534877 
L 91.437593 230.554095 
L 92.607725 236.544585 
L 93.777857 234.338845 
L 94.910243 230.809544 
L 96.080376 231.361014 
L 97.250508 233.099402 
L 98.458386 238.797746 
L 99.628519 241.545674 
L 100.798651 242.500791 
L 102.006529 240.536 
L 103.214408 244.222468 
L 104.422286 250.575465 
L 105.630165 241.279965 
L 106.762551 242.30918 
L 107.932683 240.5763 
L 109.178308 240.987023 
L 110.34844 242.463682 
L 111.480826 243.465252 
L 112.53772 239.707847 
L 113.707852 240.782903 
L 114.953477 239.283639 
L 116.161355 238.860922 
L 117.369234 233.548539 
L 118.539366 234.159692 
L 119.747245 232.116789 
L 120.955123 236.708186 
L 122.125255 235.615107 
L 123.257641 234.190532 
L 124.46552 233.699804 
L 125.635652 231.807471 
L 126.843531 230.676959 
L 128.013663 227.043992 
L 129.259288 224.816249 
L 130.467166 219.884462 
L 131.637298 217.595212 
L 132.807431 220.443698 
L 133.939817 216.244229 
L 135.109949 213.760105 
L 136.280081 213.927191 
L 137.563452 211.729208 
L 138.771331 212.827899 
L 139.903717 209.35288 
L 141.036103 208.277327 
L 142.243981 204.110643 
L 143.376367 202.467349 
L 144.584246 203.017613 
L 145.792124 201.339579 
L 146.962257 197.593444 
L 148.170135 197.625656 
L 149.340267 193.18143 
L 151.680532 189.237487 
L 152.88841 186.431412 
L 154.058543 181.776282 
L 155.228675 178.723852 
L 156.436553 175.163402 
L 157.644432 173.89939 
L 158.776818 170.777696 
L 159.984696 170.467435 
L 161.154829 167.800189 
L 162.324961 168.038607 
L 163.495093 169.724968 
L 164.665225 169.415638 
L 165.835358 167.651666 
L 167.00549 167.024297 
L 168.213368 165.621933 
L 169.383501 165.480941 
L 171.723765 162.522017 
L 172.931644 159.353921 
L 174.101776 157.432799 
L 175.271908 155.977589 
L 176.442041 152.958406 
L 177.612173 150.512409 
L 178.782305 149.099563 
L 182.292702 144.132128 
L 183.462834 140.601199 
L 184.632967 137.805183 
L 187.010977 130.790131 
L 191.804745 120.401901 
L 193.05037 118.053262 
L 195.390634 114.746047 
L 197.693153 113.259326 
L 198.863285 112.709605 
L 200.033417 112.85169 
L 202.411428 112.541369 
L 203.58156 112.198492 
L 204.789439 111.38541 
L 207.054211 109.631069 
L 208.299835 108.859063 
L 209.507714 108.357513 
L 210.677846 107.38018 
L 211.772486 106.793348 
L 213.018111 105.276771 
L 214.150497 103.577581 
L 215.396122 102.054792 
L 216.528508 100.289361 
L 217.69864 98.869185 
L 218.906518 97.835273 
L 220.076651 97.434181 
L 223.549301 96.951974 
L 225.927312 96.139442 
L 228.267577 96.166155 
L 229.475455 96.540514 
L 230.607841 96.622911 
L 231.81572 97.095964 
L 232.948106 97.283599 
L 234.118238 97.612508 
L 235.326116 98.284951 
L 236.496249 98.527883 
L 237.666381 98.196638 
L 240.044392 98.366838 
L 241.176778 98.619133 
L 242.384656 98.297581 
L 243.554789 98.556064 
L 244.724921 98.600546 
L 245.857307 99.239057 
L 247.065185 99.616887 
L 248.235318 99.317174 
L 250.575582 99.202621 
L 251.707968 99.456204 
L 254.048233 99.581474 
L 255.293858 99.814577 
L 256.46399 99.49507 
L 257.596376 99.517194 
L 258.804254 99.687832 
L 259.974387 100.173169 
L 261.144519 100.82014 
L 263.52253 101.324363 
L 264.692662 101.262752 
L 267.032926 100.454679 
L 268.203059 99.498913 
L 269.410937 98.773169 
L 270.543323 98.695449 
L 271.788948 98.354663 
L 272.921334 96.922453 
L 275.299345 92.550369 
L 276.393985 90.543977 
L 277.677356 89.376155 
L 278.809742 89.364554 
L 279.979874 89.65881 
L 281.150006 90.349765 
L 282.357885 91.739936 
L 283.528017 92.619578 
L 284.660403 92.627686 
L 285.906028 92.240899 
L 287.113906 91.08785 
L 288.246292 89.625721 
L 291.794435 83.755612 
L 294.1347 79.411967 
L 295.267086 77.282946 
L 297.645097 73.821572 
L 298.777483 72.603795 
L 301.155493 70.465884 
L 302.325626 69.93626 
L 303.495758 69.752539 
L 304.703637 69.810315 
L 307.15714 70.389587 
L 308.402764 71.102601 
L 309.497404 71.990271 
L 310.743029 73.751492 
L 311.913161 75.766864 
L 314.253426 80.64317 
L 316.555944 86.425679 
L 317.763823 88.983725 
L 320.104087 92.889296 
L 322.519844 95.614338 
L 324.784616 97.222305 
L 325.992495 96.905505 
L 327.162627 96.996426 
L 328.332759 96.95409 
L 329.427399 96.562672 
L 330.635278 96.368397 
L 331.80541 96.504857 
L 333.013288 96.170253 
L 335.315807 96.567925 
L 336.485939 96.665025 
L 341.24196 94.391 
L 343.582225 94.217845 
L 344.752357 93.591136 
L 345.960236 93.739188 
L 347.054876 94.124926 
L 349.39514 94.175602 
L 350.565272 93.789905 
L 351.773151 93.257498 
L 354.113416 92.558534 
L 357.586066 90.837147 
L 358.831691 90.413924 
L 360.001823 90.267667 
L 361.171955 90.265031 
L 362.379834 89.856678 
L 363.587712 89.728161 
L 367.060363 88.384721 
L 368.192749 88.185112 
L 370.533014 87.102628 
L 371.6654 87.167696 
L 372.911024 87.067822 
L 374.118903 86.185109 
L 375.251289 85.825525 
L 377.6293 84.289399 
L 378.72394 83.245461 
L 380.00731 82.796423 
L 381.441666 81.530858 
L 385.17854 79.002127 
L 386.348672 77.95286 
L 387.556551 77.548331 
L 388.688937 76.922459 
L 389.859069 76.510663 
L 391.066948 75.853516 
L 392.23708 75.487532 
L 393.33172 74.654982 
L 394.615091 74.191216 
L 395.785223 73.587288 
L 398.087741 73.757714 
L 399.220127 73.598696 
L 400.352514 73.201845 
L 401.635884 73.348257 
L 402.806017 72.386753 
L 403.976149 71.92944 
L 406.316414 71.325329 
L 407.562038 71.352561 
L 409.864557 72.371473 
L 410.996943 72.548848 
L 412.204821 72.887004 
L 413.337207 73.616077 
L 414.620578 73.452241 
L 416.847604 74.231241 
L 418.130975 74.584163 
L 419.338853 75.122873 
L 420.508986 75.488083 
L 425.189515 78.68213 
L 426.208662 79.436054 
L 429.719059 81.255295 
L 430.926938 81.616786 
L 432.172562 81.762355 
L 434.512827 82.600455 
L 436.815345 83.989346 
L 439.15561 85.01393 
L 440.438981 85.287669 
L 441.53362 85.744565 
L 442.666006 85.837565 
L 443.873885 85.74607 
L 446.251896 84.811679 
L 448.478922 85.199321 
L 449.6868 84.967249 
L 450.932425 85.020499 
L 452.064811 85.307364 
L 453.272689 85.257389 
L 454.367329 85.068752 
L 459.614051 83.54423 
L 464.445565 80.783098 
L 465.540205 79.875396 
L 466.672591 79.400499 
L 467.842723 79.045502 
L 470.145242 77.88209 
L 473.84437 75.132326 
L 474.825771 74.103132 
L 476.071396 73.511327 
L 477.31702 73.137398 
L 478.487153 73.276156 
L 479.581792 73.540899 
L 480.789671 73.596674 
L 481.997549 74.191286 
L 484.451053 75.852369 
L 485.4702 77.015094 
L 486.753571 77.893504 
L 488.905104 79.93587 
L 490.075237 80.659292 
L 491.547339 81.152508 
L 492.717471 81.35853 
L 493.585634 81.225238 
L 493.585634 81.225238 
" clip-path="url(#p176eb4e1b0)" style="fill: none; stroke: #d62728; stroke-width: 2.5; stroke-linecap: square"/>
   </g>
   <g id="line2d_56">
    <path d="M 60.372468 222.99851 
L 60.334722 248.627332 
L 60.296976 235.593177 
L 60.447961 241.376932 
L 61.014154 242.097922 
L 62.297524 242.165487 
L 64.222581 240.688184 
L 66.41186 240.217296 
L 68.487902 237.37023 
L 70.337466 238.756266 
L 71.847314 237.261618 
L 73.206177 241.043733 
L 74.338563 249.576715 
L 75.433203 249.297595 
L 76.527843 251.286862 
L 77.622483 254.169971 
L 78.754869 252.71885 
L 79.887255 248.116051 
L 81.057387 244.089819 
L 82.227519 244.944529 
L 83.435398 249.439584 
L 84.643276 247.46867 
L 85.888901 248.194827 
L 87.172272 244.829053 
L 88.531135 245.394116 
L 89.77676 243.505385 
L 91.022384 247.43461 
L 92.230263 244.434162 
L 93.400395 239.619478 
L 94.570528 238.159753 
L 95.74066 240.760708 
L 96.910792 238.068897 
L 98.118671 236.857684 
L 99.288803 237.156502 
L 100.421189 240.549701 
L 101.591321 247.649401 
L 102.723707 251.750201 
L 103.931586 245.462318 
L 105.101718 243.500619 
L 106.27185 243.611833 
L 107.479729 245.562759 
L 108.649861 242.03573 
L 109.895486 239.454098 
L 112.23575 240.485402 
L 113.481375 240.645294 
L 114.576015 235.553578 
L 115.783893 238.224365 
L 116.954026 236.015403 
L 118.124158 235.315113 
L 119.29429 237.089167 
L 120.464422 241.476255 
L 121.596808 236.295906 
L 122.766941 233.127488 
L 123.937073 230.554943 
L 125.144951 227.338343 
L 126.315084 222.870644 
L 127.522962 224.225423 
L 128.730841 218.554659 
L 129.900973 218.427026 
L 132.278984 224.482219 
L 134.656995 218.048246 
L 135.864873 219.146261 
L 137.072751 215.986209 
L 138.28063 210.861262 
L 139.488508 208.532226 
L 140.658641 205.576456 
L 141.828773 203.976809 
L 142.998905 205.574794 
L 144.206784 203.306285 
L 146.547048 199.658998 
L 147.754927 198.072484 
L 150.132938 194.206888 
L 151.30307 191.46095 
L 152.510948 189.790786 
L 153.681081 186.791208 
L 154.888959 184.781636 
L 156.059091 179.746616 
L 159.493996 168.744505 
L 160.664128 165.779114 
L 161.872006 163.087108 
L 163.042139 160.049852 
L 164.174525 158.747441 
L 165.382403 156.506671 
L 166.552536 154.660484 
L 167.722668 153.034578 
L 168.8928 152.147942 
L 171.270811 151.036703 
L 172.478689 149.832137 
L 173.648822 149.111721 
L 176.026832 145.554487 
L 177.196965 143.035273 
L 178.404843 139.028993 
L 180.745108 133.12807 
L 184.180012 127.033659 
L 185.387891 125.342635 
L 186.520277 123.275568 
L 187.728155 121.428289 
L 188.97378 119.26416 
L 190.106166 116.41098 
L 191.276298 114.226261 
L 193.692055 108.465942 
L 194.899934 104.850946 
L 196.070066 102.054126 
L 198.372584 96.052386 
L 199.618209 93.411099 
L 200.788341 91.300118 
L 201.99622 89.8205 
L 203.128606 88.787723 
L 204.298738 88.127324 
L 206.676749 87.869859 
L 207.809135 88.454003 
L 208.979267 88.464546 
L 210.187146 88.682805 
L 211.357278 88.493872 
L 212.565156 88.067137 
L 213.697542 90.75913 
L 216.075553 81.125746 
L 217.245685 77.720383 
L 218.415818 75.186768 
L 219.623696 73.49815 
L 220.793828 72.646757 
L 221.963961 73.029934 
L 223.171839 74.289289 
L 224.379718 76.501257 
L 225.54985 80.045514 
L 226.757728 78.055866 
L 227.890115 77.913711 
L 229.060247 78.619699 
L 230.268125 78.959221 
L 236.118787 83.234076 
L 237.326665 84.166707 
L 239.591437 85.321378 
L 240.723823 85.725179 
L 241.931702 85.947249 
L 243.13958 86.581429 
L 245.479845 87.290568 
L 246.687723 88.094897 
L 247.857856 88.503887 
L 252.500639 89.660783 
L 253.670771 90.041285 
L 254.878649 90.027047 
L 257.218914 90.842173 
L 258.389046 90.535803 
L 259.559178 90.050426 
L 260.767057 89.708488 
L 261.937189 89.960976 
L 263.107321 90.509855 
L 264.277454 90.41944 
L 266.655464 89.936835 
L 268.995729 90.055012 
L 272.581618 89.088706 
L 273.714004 89.161626 
L 274.84639 89.517464 
L 276.092015 88.941211 
L 277.224401 88.599944 
L 279.564666 88.206422 
L 280.772544 88.134542 
L 281.980423 88.345222 
L 283.150555 87.747257 
L 284.320687 87.328612 
L 285.453073 86.500957 
L 286.623206 86.086246 
L 287.793338 84.862093 
L 290.133602 83.109724 
L 291.341481 82.119804 
L 292.473867 81.046081 
L 293.681745 80.163525 
L 294.889624 78.857838 
L 296.02201 76.976712 
L 298.362275 72.706364 
L 299.570153 70.586539 
L 301.834925 67.228577 
L 304.212936 64.868689 
L 305.458561 64.458336 
L 306.741931 64.309717 
L 307.94981 64.398335 
L 309.082196 64.934925 
L 310.290074 65.654572 
L 311.422461 66.605742 
L 312.630339 68.111923 
L 313.838218 69.385769 
L 316.140736 72.417178 
L 317.310868 74.063416 
L 320.859011 79.876238 
L 322.029143 81.576581 
L 324.4449 84.383718 
L 329.049937 87.453533 
L 330.220069 87.889401 
L 332.560334 88.134481 
L 333.730466 87.998714 
L 334.938345 87.670324 
L 340.826752 88.084809 
L 341.959138 87.526977 
L 344.337149 87.365596 
L 345.469535 86.840058 
L 346.639667 86.587153 
L 347.923038 86.169527 
L 349.017678 85.412347 
L 350.150064 84.954143 
L 352.603567 84.251574 
L 353.698207 83.779596 
L 354.906086 83.655573 
L 356.038472 83.831833 
L 358.454229 83.072728 
L 359.624361 82.94547 
L 363.059266 83.049526 
L 368.985419 80.822957 
L 370.155552 80.546506 
L 371.287938 80.836683 
L 372.533562 80.814567 
L 374.760588 81.088737 
L 376.006213 80.401754 
L 377.100853 80.136971 
L 379.441117 78.750228 
L 380.913219 77.888226 
L 382.309829 76.938696 
L 383.5932 76.231537 
L 384.763332 75.338689 
L 386.008957 74.877814 
L 388.349221 73.641561 
L 389.519353 73.603594 
L 390.613993 73.108497 
L 393.02975 72.674638 
L 394.12439 72.187556 
L 395.294522 71.930872 
L 396.502401 71.535212 
L 397.710279 71.36064 
L 399.975052 70.727682 
L 402.428555 70.212254 
L 403.447702 70.388627 
L 404.731073 70.303654 
L 405.825713 70.023835 
L 407.033591 69.974704 
L 408.165977 69.732341 
L 409.411602 69.785734 
L 411.827359 69.197972 
L 412.884253 68.99124 
L 416.39465 69.207191 
L 417.640274 69.718203 
L 420.018285 70.463942 
L 421.377148 71.039466 
L 423.453189 72.250747 
L 424.698814 73.221997 
L 426.963586 74.543037 
L 428.246957 75.644855 
L 429.492582 76.422654 
L 430.587222 76.910927 
L 431.681862 77.627012 
L 432.927486 78.064278 
L 434.059872 78.742185 
L 436.475629 79.810628 
L 437.608015 79.851239 
L 438.740401 80.189092 
L 439.94828 80.734505 
L 441.118412 81.090188 
L 442.175306 81.560257 
L 443.458677 81.946983 
L 444.628809 82.420363 
L 445.798941 82.518945 
L 446.931327 82.331667 
L 448.139206 81.723754 
L 450.403978 80.134969 
L 451.762841 79.804865 
L 454.06536 78.781189 
L 455.084507 78.407147 
L 456.594355 78.151746 
L 461.690092 75.787102 
L 464.030357 74.606644 
L 466.370622 72.820276 
L 467.465261 71.819698 
L 469.730034 69.018923 
L 472.221283 66.592044 
L 474.523801 64.598943 
L 475.580695 64.492423 
L 476.864066 64.62608 
L 478.034198 65.239931 
L 480.487701 67.552321 
L 484.035844 71.799504 
L 485.130484 72.801601 
L 487.395256 74.18389 
L 488.640881 74.490099 
L 489.811013 74.559717 
L 490.943399 74.409816 
L 492.000293 74.061338 
L 493.170425 73.537908 
L 493.170425 73.537908 
" clip-path="url(#p176eb4e1b0)" style="fill: none; stroke: #ff7f0e; stroke-width: 2.5; stroke-linecap: square"/>
   </g>
   <g id="line2d_57">
    <path d="M 59.089097 249.805738 
L 59.089097 232.301576 
L 59.013605 239.674294 
L 58.975859 239.8466 
L 59.089097 247.084287 
L 60.334722 249.332607 
L 61.957809 256.915186 
L 64.184835 261.595611 
L 66.449607 272.502682 
L 68.450155 267.509688 
L 70.148735 259.440708 
L 71.507598 255.151637 
L 72.715476 247.946198 
L 73.810116 242.986903 
L 74.904756 234.250443 
L 75.999396 231.027657 
L 77.094036 232.826063 
L 78.264168 237.599677 
L 79.4343 244.161565 
L 80.642179 244.455996 
L 81.812311 244.895458 
L 83.057936 247.174288 
L 84.190322 245.666927 
L 85.360454 241.106939 
L 86.643825 237.724079 
L 87.88945 233.68933 
L 89.210567 236.29654 
L 90.456191 237.670882 
L 91.701816 242.286674 
L 92.909695 241.238135 
L 94.079827 235.708467 
L 95.287705 237.44206 
L 96.420091 240.470704 
L 97.62797 237.997788 
L 98.798102 242.128459 
L 100.043727 237.090581 
L 101.213859 235.303841 
L 102.383991 234.295723 
L 103.59187 236.607078 
L 104.762002 231.181927 
L 105.932134 229.871811 
L 107.064521 232.592077 
L 108.310145 234.550099 
L 109.480277 231.151451 
L 110.688156 235.967374 
L 111.896034 235.367503 
L 113.103913 237.289052 
L 114.274045 246.11563 
L 115.444177 245.861185 
L 116.576564 240.310059 
L 117.784442 237.213989 
L 118.916828 231.891819 
L 120.08696 228.048574 
L 121.294839 227.001583 
L 122.464971 228.813662 
L 123.635103 228.847417 
L 124.805236 231.202146 
L 126.013114 234.837106 
L 127.107754 234.067446 
L 128.277886 226.561225 
L 129.523511 221.352039 
L 130.655897 219.036014 
L 131.863776 220.841021 
L 133.071654 220.510109 
L 134.241786 216.954066 
L 135.449665 215.370118 
L 136.657543 214.67476 
L 137.865422 213.514545 
L 139.111046 211.35215 
L 140.281179 205.934059 
L 141.489057 205.086586 
L 142.659189 203.678113 
L 143.829322 199.83814 
L 145.0372 196.490397 
L 146.207332 195.002959 
L 148.509851 190.671606 
L 149.679983 185.460583 
L 150.850115 182.147797 
L 152.057994 180.699602 
L 153.228126 179.529938 
L 154.436005 178.02371 
L 155.606137 175.451752 
L 157.946401 172.810947 
L 159.116534 169.60485 
L 160.286666 166.797178 
L 161.494544 163.178009 
L 162.626931 160.980985 
L 163.797063 160.061243 
L 165.004941 158.947505 
L 167.345206 158.564405 
L 168.515338 156.810209 
L 169.723217 154.171548 
L 170.893349 150.788253 
L 172.063481 147.959119 
L 173.233613 144.55334 
L 174.479238 141.522924 
L 175.687117 139.354058 
L 176.857249 137.648416 
L 178.027381 136.219868 
L 180.367646 133.640144 
L 181.537778 132.836277 
L 182.670164 131.155156 
L 183.840296 129.671816 
L 185.010429 127.44248 
L 186.180561 125.795848 
L 190.936582 117.914012 
L 192.106715 116.669921 
L 193.276847 114.845548 
L 194.446979 112.433273 
L 196.82499 108.941876 
L 199.203001 107.000642 
L 200.335387 106.775856 
L 201.543265 106.96373 
L 202.713398 106.74522 
L 203.921276 106.872665 
L 205.091408 106.081436 
L 207.469419 103.812677 
L 210.979816 100.551745 
L 213.282334 99.060717 
L 215.660345 96.026908 
L 216.792731 94.466124 
L 217.962863 92.608449 
L 219.208488 91.027517 
L 221.511006 88.611368 
L 222.681139 87.777404 
L 223.889017 87.436112 
L 225.096896 87.333039 
L 226.267028 87.077666 
L 227.43716 87.238033 
L 228.607292 87.652121 
L 229.815171 88.253639 
L 230.947557 88.424807 
L 232.117689 88.888898 
L 233.363314 89.167448 
L 234.4957 89.544946 
L 235.703578 90.235426 
L 236.873711 90.504134 
L 238.043843 90.958132 
L 239.176229 91.52531 
L 241.516494 93.025412 
L 242.762118 92.928215 
L 243.894504 93.122277 
L 245.064637 93.176298 
L 246.234769 93.018255 
L 247.442647 93.033349 
L 248.575033 92.248131 
L 250.953044 91.971626 
L 252.123177 92.319301 
L 254.538933 92.086241 
L 255.709066 91.893518 
L 256.879198 92.194514 
L 258.04933 92.243512 
L 259.181716 92.41699 
L 260.351849 92.067208 
L 262.692113 91.830903 
L 265.032378 91.946648 
L 266.240256 92.034722 
L 267.410389 91.766813 
L 268.542775 91.820214 
L 269.712907 91.760996 
L 270.920785 91.822838 
L 273.336542 90.787101 
L 275.601314 89.000751 
L 277.979325 88.124273 
L 279.111711 87.154828 
L 281.527468 85.971542 
L 282.659854 85.852807 
L 283.867733 85.355565 
L 284.962373 85.02884 
L 286.170251 83.568017 
L 287.415876 82.583949 
L 288.586008 81.501444 
L 289.718394 80.021763 
L 290.926273 78.119807 
L 292.134151 76.447933 
L 293.266537 74.406895 
L 294.474416 72.863334 
L 295.606802 71.068388 
L 296.776934 69.470772 
L 297.984812 67.627022 
L 299.117199 66.687046 
L 300.325077 65.463319 
L 302.665342 64.522198 
L 305.043352 64.610778 
L 307.496856 65.605946 
L 308.74248 66.604037 
L 309.912612 67.757265 
L 312.290623 70.933865 
L 318.028046 81.2493 
L 319.273671 83.161617 
L 320.481549 85.329872 
L 321.651681 86.857206 
L 322.746321 88.523406 
L 323.991946 90.200914 
L 325.124332 91.368201 
L 326.294464 92.229512 
L 327.464597 92.822268 
L 328.634729 92.902412 
L 332.145126 92.136631 
L 333.353004 92.042297 
L 334.48539 92.28187 
L 335.655523 92.758263 
L 336.787909 93.057727 
L 338.109026 93.263372 
L 340.373798 93.157583 
L 342.789555 91.839529 
L 345.016581 91.89833 
L 346.224459 91.818825 
L 347.394591 91.463078 
L 348.640216 91.505349 
L 349.772602 91.260535 
L 350.904988 91.141021 
L 352.188359 90.757167 
L 353.282999 90.108664 
L 354.453131 89.581386 
L 355.66101 89.54635 
L 356.831142 89.078747 
L 359.13366 87.89182 
L 361.473925 87.132261 
L 362.644057 86.61122 
L 367.362333 85.675496 
L 368.570211 84.899135 
L 369.702597 84.370085 
L 370.834983 84.002656 
L 372.005115 83.323183 
L 373.212994 82.753991 
L 374.383126 81.902532 
L 375.553259 81.349673 
L 376.685645 80.668987 
L 377.931269 80.160495 
L 379.101402 79.28738 
L 383.064753 76.980735 
L 385.442764 75.316598 
L 387.896267 73.922359 
L 390.236531 73.586851 
L 392.463557 73.183238 
L 394.91706 71.887925 
L 396.0117 71.397621 
L 397.219579 70.724996 
L 401.900108 69.939938 
L 406.580637 70.11826 
L 407.788515 70.491615 
L 409.03414 70.745691 
L 410.053288 71.353354 
L 411.336658 71.672273 
L 412.544537 71.758219 
L 413.790162 72.01597 
L 414.960294 72.042555 
L 416.017188 72.370284 
L 417.225066 72.876328 
L 418.395198 73.148782 
L 420.735463 74.175702 
L 424.24586 75.979506 
L 425.642469 76.518327 
L 426.812601 76.823409 
L 427.831749 77.261554 
L 429.039627 78.098222 
L 430.134267 78.262972 
L 432.436786 79.338992 
L 436.022675 81.175125 
L 437.155061 81.66577 
L 439.608564 81.950291 
L 440.703204 81.831048 
L 441.797844 81.180868 
L 444.251347 79.937838 
L 445.270494 79.844411 
L 447.648505 78.964903 
L 450.102008 78.582233 
L 451.272141 78.782776 
L 452.442273 78.473998 
L 453.499167 78.507803 
L 456.065908 78.027234 
L 458.745889 77.329022 
L 461.086153 77.427238 
L 462.558255 77.513322 
L 463.766134 77.231763 
L 464.558804 76.614016 
L 465.69119 76.265795 
L 468.220186 74.196159 
L 469.390318 72.774767 
L 471.768329 70.977218 
L 472.976207 70.213776 
L 475.240979 69.510792 
L 476.448858 69.620197 
L 478.71363 71.003595 
L 482.412758 74.914743 
L 485.923154 78.76061 
L 488.225673 80.389848 
L 489.433551 80.965862 
L 490.490445 81.255142 
L 491.698323 81.203783 
L 492.943948 80.766767 
L 493.774365 79.912343 
L 493.774365 79.912343 
" clip-path="url(#p176eb4e1b0)" style="fill: none; stroke: #9467bd; stroke-width: 2.5; stroke-linecap: square"/>
   </g>
   <g id="line2d_58">
    <path d="M 60.108245 247.662101 
L 60.032752 233.167365 
L 60.032752 251.754525 
L 60.032752 247.869076 
L 59.95726 242.652773 
L 60.070498 235.055664 
L 60.598945 233.794455 
L 61.731331 231.576939 
L 63.505403 228.88966 
L 65.694683 233.296863 
L 67.846216 240.981451 
L 69.733526 245.430996 
L 71.318867 241.85901 
L 72.67773 236.102139 
L 73.847862 234.195891 
L 74.942502 230.204378 
L 75.999396 234.101275 
L 77.131782 236.725126 
L 78.264168 237.950159 
L 79.358808 242.610092 
L 80.566686 251.44575 
L 81.774565 253.022756 
L 82.944697 252.100063 
L 84.190322 247.645937 
L 85.3982 245.274237 
L 86.681571 244.643929 
L 87.964942 252.747743 
L 89.286059 250.005989 
L 90.531684 243.029569 
L 91.777309 235.393787 
L 92.947441 238.323238 
L 94.155319 239.418906 
L 95.287705 243.745421 
L 96.457838 240.437 
L 97.62797 239.694811 
L 98.835848 245.330878 
L 100.005981 246.474232 
L 101.213859 246.136941 
L 102.383991 245.199014 
L 103.59187 246.263077 
L 104.762002 250.542065 
L 105.932134 251.486291 
L 107.102267 245.54229 
L 108.272399 233.23807 
L 109.442531 226.564497 
L 110.612664 225.324768 
L 111.782796 225.071402 
L 112.990674 226.20923 
L 114.160807 229.950909 
L 116.501071 242.272626 
L 117.671203 243.363555 
L 118.879082 244.243557 
L 120.08696 245.659815 
L 121.219346 243.586303 
L 122.389479 242.875412 
L 123.559611 242.019428 
L 124.729743 234.692795 
L 125.937622 234.775248 
L 127.070008 233.705711 
L 128.24014 229.959392 
L 129.410272 225.449381 
L 131.826029 217.66169 
L 133.033908 213.247274 
L 134.20404 207.169383 
L 135.449665 205.685831 
L 136.657543 203.75535 
L 137.865422 204.101621 
L 139.035554 202.377267 
L 140.205686 203.587001 
L 141.375819 202.175239 
L 142.508205 198.887251 
L 143.753829 193.777865 
L 144.961708 192.166151 
L 146.13184 188.336622 
L 147.339719 186.499781 
L 148.509851 185.04113 
L 149.717729 184.199296 
L 152.057994 181.13346 
L 153.228126 177.64788 
L 154.436005 173.267757 
L 155.568391 170.294789 
L 156.776269 168.347342 
L 157.984148 164.860245 
L 159.15428 162.662184 
L 160.324412 159.856606 
L 162.664677 155.159328 
L 163.834809 153.415094 
L 164.967195 149.704293 
L 166.137327 147.271056 
L 167.382952 145.556849 
L 168.553084 143.028783 
L 169.68547 140.284586 
L 170.855603 138.057214 
L 172.063481 134.714471 
L 174.441492 129.582227 
L 175.573878 126.398766 
L 176.706264 122.766981 
L 177.914143 120.149773 
L 179.122021 117.869032 
L 180.292153 114.36368 
L 182.594672 108.692414 
L 184.972682 102.888513 
L 186.142815 100.835949 
L 193.276847 84.322073 
L 195.73035 79.049613 
L 198.032868 75.643472 
L 199.240747 74.557375 
L 200.410879 73.817624 
L 201.618758 73.773128 
L 202.751144 74.430694 
L 203.88353 75.60775 
L 205.053662 77.098938 
L 206.299287 78.427297 
L 207.431673 79.386922 
L 208.601805 80.175755 
L 209.809684 79.822849 
L 210.94207 79.289899 
L 212.149948 78.404568 
L 215.698091 74.778134 
L 218.038356 73.198101 
L 219.208488 72.941818 
L 220.340874 73.264211 
L 221.548753 73.375888 
L 225.059149 75.385304 
L 228.645039 77.928781 
L 229.777425 78.35711 
L 230.947557 79.05197 
L 232.155435 80.050063 
L 234.4957 81.314789 
L 235.665832 81.590249 
L 239.213975 84.165081 
L 243.894504 86.095981 
L 245.064637 86.628752 
L 247.404901 86.616882 
L 248.61278 86.798661 
L 249.782912 87.154649 
L 252.123177 87.286117 
L 253.293309 87.693477 
L 254.425695 87.936552 
L 255.633573 88.310832 
L 257.973838 88.183784 
L 261.484235 88.232898 
L 262.616621 87.469384 
L 263.862245 87.132015 
L 265.032378 87.23395 
L 269.712907 86.433605 
L 270.883039 86.358284 
L 272.053171 85.867966 
L 273.223304 85.664087 
L 274.35569 85.135746 
L 275.601314 84.692416 
L 276.771447 84.817595 
L 277.979325 84.69732 
L 279.111711 84.203755 
L 280.244097 84.058686 
L 281.451976 83.669504 
L 282.622108 83.147474 
L 283.79224 82.248052 
L 285.037865 81.476842 
L 286.207997 80.385006 
L 287.340383 79.051704 
L 288.472769 77.92226 
L 289.680648 76.399242 
L 295.493563 65.560968 
L 296.701442 63.97507 
L 297.833828 63.027329 
L 299.041706 62.83454 
L 300.249585 62.93215 
L 301.419717 63.608752 
L 302.589849 64.461413 
L 305.005606 66.620519 
L 306.251231 67.614478 
L 308.704734 70.100883 
L 309.83712 71.730534 
L 310.856268 73.681031 
L 313.234278 77.032576 
L 314.479903 78.449294 
L 315.650035 79.964084 
L 316.857914 81.224589 
L 318.028046 82.213343 
L 319.235924 83.445854 
L 321.613935 85.089094 
L 322.746321 86.454534 
L 323.9542 87.285885 
L 325.086586 87.33767 
L 326.256718 87.647345 
L 327.464597 87.615528 
L 328.672475 87.820728 
L 329.842607 87.730166 
L 331.01274 87.784264 
L 332.182872 87.645366 
L 333.277512 87.659988 
L 334.560883 88.150919 
L 339.165919 88.312273 
L 340.373798 88.421717 
L 342.714062 87.493979 
L 346.262205 86.14388 
L 347.50783 86.155775 
L 349.69711 86.745796 
L 350.980481 87.184364 
L 352.075121 87.084945 
L 354.453131 86.558906 
L 355.585517 86.093207 
L 358.001274 84.639727 
L 359.095914 84.353571 
L 360.303793 83.881215 
L 361.473925 83.261834 
L 362.644057 82.999122 
L 365.059814 81.499801 
L 366.1922 80.771888 
L 367.362333 80.619616 
L 368.532465 80.107948 
L 370.872729 78.959383 
L 373.212994 78.070299 
L 374.420872 77.693386 
L 375.553259 77.021164 
L 376.723391 76.009759 
L 381.781382 72.879833 
L 383.102499 72.507906 
L 384.272631 71.955585 
L 385.442764 71.662525 
L 386.726134 71.502078 
L 387.896267 71.119984 
L 389.066399 70.615226 
L 390.198785 70.305898 
L 392.53905 69.147385 
L 394.91706 68.477433 
L 396.049446 68.071221 
L 398.50295 68.427304 
L 399.635336 68.384859 
L 400.805468 68.693413 
L 403.107986 69.560796 
L 404.315865 69.787399 
L 405.410505 69.863326 
L 406.693876 69.706625 
L 407.788515 70.012278 
L 409.071886 70.596585 
L 410.204272 70.937009 
L 411.336658 71.12024 
L 416.017188 74.339971 
L 417.262812 74.661196 
L 419.678569 75.802283 
L 420.65997 76.140558 
L 424.24586 78.053407 
L 425.453738 78.802218 
L 426.888094 79.358724 
L 427.944988 80.164018 
L 429.077374 80.713023 
L 430.096521 81.74262 
L 431.266653 82.103788 
L 432.512278 82.689869 
L 433.720156 83.680322 
L 434.852543 84.096557 
L 435.909436 83.877906 
L 437.079569 83.751352 
L 438.325193 83.386179 
L 445.459225 82.173175 
L 446.553865 81.509428 
L 447.686251 81.118075 
L 448.856384 80.503487 
L 450.064262 80.161131 
L 451.196648 79.995144 
L 452.404527 80.039973 
L 454.669299 79.23075 
L 457.500264 77.994585 
L 458.670396 77.52472 
L 459.953767 77.43937 
L 461.123899 76.882311 
L 462.294032 76.190329 
L 463.539656 75.040756 
L 464.89852 74.042276 
L 465.842175 72.480538 
L 466.936815 71.100789 
L 468.031455 69.918533 
L 469.314825 69.280006 
L 470.484958 69.294451 
L 471.692836 69.690651 
L 472.938461 70.510259 
L 475.203233 73.121604 
L 476.335619 74.984103 
L 477.656736 76.720839 
L 478.751376 78.370007 
L 481.129387 81.40528 
L 485.998647 85.971101 
L 487.206525 86.825996 
L 488.112434 87.291134 
L 489.207074 87.450373 
L 493.887603 87.616966 
L 493.887603 87.616966 
" clip-path="url(#p176eb4e1b0)" style="fill: none; stroke: #2ca02c; stroke-width: 2.5; stroke-linecap: square"/>
   </g>
   <g id="patch_3">
    <path d="M 60.598945 303.182656 
L 60.598945 39.679004 
" style="fill: none; stroke: #000000; stroke-width: 1.5; stroke-linejoin: miter; stroke-linecap: square"/>
   </g>
   <g id="patch_4">
    <path d="M 60.598945 303.182656 
L 494.680273 303.182656 
" style="fill: none; stroke: #000000; stroke-width: 1.5; stroke-linejoin: miter; stroke-linecap: square"/>
   </g>
   <g id="text_12">
    <!-- 1421_wo_HF -->
    <g transform="translate(236.004922 18.441699) scale(0.14 -0.14)">
     <defs>
      <path id="ArialMT-42" d="M -97 -1272 
L -97 -866 
L 3631 -866 
L 3631 -1272 
L -97 -1272 
z
" transform="scale(0.015625)"/>
      <path id="ArialMT-5a" d="M 1034 0 
L 19 3319 
L 600 3319 
L 1128 1403 
L 1325 691 
Q 1338 744 1497 1375 
L 2025 3319 
L 2603 3319 
L 3100 1394 
L 3266 759 
L 3456 1400 
L 4025 3319 
L 4572 3319 
L 3534 0 
L 2950 0 
L 2422 1988 
L 2294 2553 
L 1622 0 
L 1034 0 
z
" transform="scale(0.015625)"/>
      <path id="ArialMT-2b" d="M 513 0 
L 513 4581 
L 1119 4581 
L 1119 2700 
L 3500 2700 
L 3500 4581 
L 4106 4581 
L 4106 0 
L 3500 0 
L 3500 2159 
L 1119 2159 
L 1119 0 
L 513 0 
z
" transform="scale(0.015625)"/>
      <path id="ArialMT-29" d="M 525 0 
L 525 4581 
L 3616 4581 
L 3616 4041 
L 1131 4041 
L 1131 2622 
L 3281 2622 
L 3281 2081 
L 1131 2081 
L 1131 0 
L 525 0 
z
" transform="scale(0.015625)"/>
     </defs>
     <use xlink:href="#ArialMT-14"/>
     <use xlink:href="#ArialMT-17" transform="translate(55.609375 0)"/>
     <use xlink:href="#ArialMT-15" transform="translate(111.21875 0)"/>
     <use xlink:href="#ArialMT-14" transform="translate(166.828125 0)"/>
     <use xlink:href="#ArialMT-42" transform="translate(222.4375 0)"/>
     <use xlink:href="#ArialMT-5a" transform="translate(278.046875 0)"/>
     <use xlink:href="#ArialMT-52" transform="translate(350.265625 0)"/>
     <use xlink:href="#ArialMT-42" transform="translate(405.875 0)"/>
     <use xlink:href="#ArialMT-2b" transform="translate(461.484375 0)"/>
     <use xlink:href="#ArialMT-29" transform="translate(533.703125 0)"/>
    </g>
    <!-- m/z 28 -->
    <g transform="translate(256.634141 33.679004) scale(0.14 -0.14)">
     <use xlink:href="#ArialMT-50"/>
     <use xlink:href="#ArialMT-12" transform="translate(83.296875 0)"/>
     <use xlink:href="#ArialMT-5d" transform="translate(111.078125 0)"/>
     <use xlink:href="#ArialMT-3" transform="translate(161.078125 0)"/>
     <use xlink:href="#ArialMT-15" transform="translate(188.859375 0)"/>
     <use xlink:href="#ArialMT-1b" transform="translate(244.46875 0)"/>
    </g>
   </g>
   <g id="legend_1">
    <g id="line2d_59">
     <path d="M 512.3619 52.459277 
L 522.3619 52.459277 
L 532.3619 52.459277 
" style="fill: none; stroke: #000000; stroke-width: 2.5; stroke-linecap: square"/>
    </g>
    <g id="text_13">
     <!-- 0 h -->
     <g transform="translate(540.3619 55.959277) scale(0.1 -0.1)">
      <defs>
       <path id="ArialMT-4b" d="M 422 0 
L 422 4581 
L 984 4581 
L 984 2938 
Q 1378 3394 1978 3394 
Q 2347 3394 2619 3248 
Q 2891 3103 3008 2847 
Q 3125 2591 3125 2103 
L 3125 0 
L 2563 0 
L 2563 2103 
Q 2563 2525 2380 2717 
Q 2197 2909 1863 2909 
Q 1613 2909 1392 2779 
Q 1172 2650 1078 2428 
Q 984 2206 984 1816 
L 984 0 
L 422 0 
z
" transform="scale(0.015625)"/>
      </defs>
      <use xlink:href="#ArialMT-13"/>
      <use xlink:href="#ArialMT-3" transform="translate(55.609375 0)"/>
      <use xlink:href="#ArialMT-4b" transform="translate(83.390625 0)"/>
     </g>
    </g>
    <g id="line2d_60">
     <path d="M 512.3619 66.844043 
L 522.3619 66.844043 
L 532.3619 66.844043 
" style="fill: none; stroke: #1f77b4; stroke-width: 2.5; stroke-linecap: square"/>
    </g>
    <g id="text_14">
     <!-- 6 h -->
     <g transform="translate(540.3619 70.344043) scale(0.1 -0.1)">
      <use xlink:href="#ArialMT-19"/>
      <use xlink:href="#ArialMT-3" transform="translate(55.609375 0)"/>
      <use xlink:href="#ArialMT-4b" transform="translate(83.390625 0)"/>
     </g>
    </g>
    <g id="line2d_61">
     <path d="M 512.3619 81.228809 
L 522.3619 81.228809 
L 532.3619 81.228809 
" style="fill: none; stroke: #d62728; stroke-width: 2.5; stroke-linecap: square"/>
    </g>
    <g id="text_15">
     <!-- 24 h -->
     <g transform="translate(540.3619 84.728809) scale(0.1 -0.1)">
      <use xlink:href="#ArialMT-15"/>
      <use xlink:href="#ArialMT-17" transform="translate(55.609375 0)"/>
      <use xlink:href="#ArialMT-3" transform="translate(111.21875 0)"/>
      <use xlink:href="#ArialMT-4b" transform="translate(139 0)"/>
     </g>
    </g>
    <g id="line2d_62">
     <path d="M 512.3619 95.613574 
L 522.3619 95.613574 
L 532.3619 95.613574 
" style="fill: none; stroke: #ff7f0e; stroke-width: 2.5; stroke-linecap: square"/>
    </g>
    <g id="text_16">
     <!-- 7 d -->
     <g transform="translate(540.3619 99.113574) scale(0.1 -0.1)">
      <defs>
       <path id="ArialMT-1a" d="M 303 3981 
L 303 4522 
L 3269 4522 
L 3269 4084 
Q 2831 3619 2401 2847 
Q 1972 2075 1738 1259 
Q 1569 684 1522 0 
L 944 0 
Q 953 541 1156 1306 
Q 1359 2072 1739 2783 
Q 2119 3494 2547 3981 
L 303 3981 
z
" transform="scale(0.015625)"/>
       <path id="ArialMT-47" d="M 2575 0 
L 2575 419 
Q 2259 -75 1647 -75 
Q 1250 -75 917 144 
Q 584 363 401 755 
Q 219 1147 219 1656 
Q 219 2153 384 2558 
Q 550 2963 881 3178 
Q 1213 3394 1622 3394 
Q 1922 3394 2156 3267 
Q 2391 3141 2538 2938 
L 2538 4581 
L 3097 4581 
L 3097 0 
L 2575 0 
z
M 797 1656 
Q 797 1019 1065 703 
Q 1334 388 1700 388 
Q 2069 388 2326 689 
Q 2584 991 2584 1609 
Q 2584 2291 2321 2609 
Q 2059 2928 1675 2928 
Q 1300 2928 1048 2622 
Q 797 2316 797 1656 
z
" transform="scale(0.015625)"/>
      </defs>
      <use xlink:href="#ArialMT-1a"/>
      <use xlink:href="#ArialMT-3" transform="translate(55.609375 0)"/>
      <use xlink:href="#ArialMT-47" transform="translate(83.390625 0)"/>
     </g>
    </g>
    <g id="line2d_63">
     <path d="M 512.3619 109.99834 
L 522.3619 109.99834 
L 532.3619 109.99834 
" style="fill: none; stroke: #9467bd; stroke-width: 2.5; stroke-linecap: square"/>
    </g>
    <g id="text_17">
     <!-- 14 d -->
     <g transform="translate(540.3619 113.49834) scale(0.1 -0.1)">
      <use xlink:href="#ArialMT-14"/>
      <use xlink:href="#ArialMT-17" transform="translate(55.609375 0)"/>
      <use xlink:href="#ArialMT-3" transform="translate(111.21875 0)"/>
      <use xlink:href="#ArialMT-47" transform="translate(139 0)"/>
     </g>
    </g>
    <g id="line2d_64">
     <path d="M 512.3619 124.383105 
L 522.3619 124.383105 
L 532.3619 124.383105 
" style="fill: none; stroke: #2ca02c; stroke-width: 2.5; stroke-linecap: square"/>
    </g>
    <g id="text_18">
     <!-- 28 d -->
     <g transform="translate(540.3619 127.883105) scale(0.1 -0.1)">
      <use xlink:href="#ArialMT-15"/>
      <use xlink:href="#ArialMT-1b" transform="translate(55.609375 0)"/>
      <use xlink:href="#ArialMT-3" transform="translate(111.21875 0)"/>
      <use xlink:href="#ArialMT-47" transform="translate(139 0)"/>
     </g>
    </g>
   </g>
  </g>
 </g>
 <defs>
  <clipPath id="p176eb4e1b0">
   <rect x="60.598945" y="39.679004" width="434.081328" height="263.503652"/>
  </clipPath>
 </defs>
</svg>
