<?xml version="1.0" encoding="utf-8" standalone="no"?>
<!DOCTYPE svg PUBLIC "-//W3C//DTD SVG 1.1//EN"
  "http://www.w3.org/Graphics/SVG/1.1/DTD/svg11.dtd">
<svg xmlns:xlink="http://www.w3.org/1999/xlink" width="571.022837pt" height="344.160273pt" viewBox="0 0 571.022837 344.160273" xmlns="http://www.w3.org/2000/svg" version="1.1">
 <metadata>
  <rdf:RDF xmlns:dc="http://purl.org/dc/elements/1.1/" xmlns:cc="http://creativecommons.org/ns#" xmlns:rdf="http://www.w3.org/1999/02/22-rdf-syntax-ns#">
   <cc:Work>
    <dc:type rdf:resource="http://purl.org/dc/dcmitype/StillImage"/>
    <dc:date>2026-07-10T11:48:52.589900</dc:date>
    <dc:format>image/svg+xml</dc:format>
    <dc:creator>
     <cc:Agent>
      <dc:title>Matplotlib v3.11.0, https://matplotlib.org/</dc:title>
     </cc:Agent>
    </dc:creator>
   </cc:Work>
  </rdf:RDF>
 </metadata>
 <defs>
  <style type="text/css">*{stroke-linejoin: round; stroke-linecap: butt}</style>
 </defs>
 <g id="figure_1">
  <g id="patch_1">
   <path d="M 0 344.160273 
L 571.022837 344.160273 
L 571.022837 0 
L 0 0 
z
" style="fill: #ffffff"/>
  </g>
  <g id="axes_1">
   <g id="patch_2">
    <path d="M 60.598945 303.182656 
L 494.680273 303.182656 
L 494.680273 39.679004 
L 60.598945 39.679004 
z
" style="fill: #ffffff"/>
   </g>
   <g id="matplotlib.axis_1">
    <g id="xtick_1">
     <g id="line2d_1">
      <defs>
       <path id="m3e505c25e6" d="M 0 0 
L 0 -6 
" style="stroke: #000000; stroke-width: 0.8"/>
      </defs>
      <g>
       <use xlink:href="#m3e505c25e6" x="117.218249" y="303.182656" style="stroke: #000000; stroke-width: 0.8"/>
      </g>
     </g>
     <g id="text_1">
      <!-- 200 -->
      <g transform="translate(105.54028 316.875039) scale(0.14 -0.14)">
       <defs>
        <path id="ArialMT-15" d="M 3222 541 
L 3222 0 
L 194 0 
Q 188 203 259 391 
Q 375 700 629 1000 
Q 884 1300 1366 1694 
Q 2113 2306 2375 2664 
Q 2638 3022 2638 3341 
Q 2638 3675 2398 3904 
Q 2159 4134 1775 4134 
Q 1369 4134 1125 3890 
Q 881 3647 878 3216 
L 300 3275 
Q 359 3922 746 4261 
Q 1134 4600 1788 4600 
Q 2447 4600 2831 4234 
Q 3216 3869 3216 3328 
Q 3216 3053 3103 2787 
Q 2991 2522 2730 2228 
Q 2469 1934 1863 1422 
Q 1356 997 1212 845 
Q 1069 694 975 541 
L 3222 541 
z
" transform="scale(0.015625)"/>
        <path id="ArialMT-13" d="M 266 2259 
Q 266 3072 433 3567 
Q 600 4063 929 4331 
Q 1259 4600 1759 4600 
Q 2128 4600 2406 4451 
Q 2684 4303 2865 4023 
Q 3047 3744 3150 3342 
Q 3253 2941 3253 2259 
Q 3253 1453 3087 958 
Q 2922 463 2592 192 
Q 2263 -78 1759 -78 
Q 1097 -78 719 397 
Q 266 969 266 2259 
z
M 844 2259 
Q 844 1131 1108 757 
Q 1372 384 1759 384 
Q 2147 384 2411 759 
Q 2675 1134 2675 2259 
Q 2675 3391 2411 3762 
Q 2147 4134 1753 4134 
Q 1366 4134 1134 3806 
Q 844 3388 844 2259 
z
" transform="scale(0.015625)"/>
       </defs>
       <use xlink:href="#ArialMT-15"/>
       <use xlink:href="#ArialMT-13" transform="translate(55.609375 0)"/>
       <use xlink:href="#ArialMT-13" transform="translate(111.21875 0)"/>
      </g>
     </g>
    </g>
    <g id="xtick_2">
     <g id="line2d_2">
      <g>
       <use xlink:href="#m3e505c25e6" x="192.710654" y="303.182656" style="stroke: #000000; stroke-width: 0.8"/>
      </g>
     </g>
     <g id="text_2">
      <!-- 400 -->
      <g transform="translate(181.032685 316.875039) scale(0.14 -0.14)">
       <defs>
        <path id="ArialMT-17" d="M 2069 0 
L 2069 1097 
L 81 1097 
L 81 1613 
L 2172 4581 
L 2631 4581 
L 2631 1613 
L 3250 1613 
L 3250 1097 
L 2631 1097 
L 2631 0 
L 2069 0 
z
M 2069 1613 
L 2069 3678 
L 634 1613 
L 2069 1613 
z
" transform="scale(0.015625)"/>
       </defs>
       <use xlink:href="#ArialMT-17"/>
       <use xlink:href="#ArialMT-13" transform="translate(55.609375 0)"/>
       <use xlink:href="#ArialMT-13" transform="translate(111.21875 0)"/>
      </g>
     </g>
    </g>
    <g id="xtick_3">
     <g id="line2d_3">
      <g>
       <use xlink:href="#m3e505c25e6" x="268.203059" y="303.182656" style="stroke: #000000; stroke-width: 0.8"/>
      </g>
     </g>
     <g id="text_3">
      <!-- 600 -->
      <g transform="translate(256.52509 316.875039) scale(0.14 -0.14)">
       <defs>
        <path id="ArialMT-19" d="M 3184 3459 
L 2625 3416 
Q 2550 3747 2413 3897 
Q 2184 4138 1850 4138 
Q 1581 4138 1378 3988 
Q 1113 3794 959 3422 
Q 806 3050 800 2363 
Q 1003 2672 1297 2822 
Q 1591 2972 1913 2972 
Q 2475 2972 2870 2558 
Q 3266 2144 3266 1488 
Q 3266 1056 3080 686 
Q 2894 316 2569 119 
Q 2244 -78 1831 -78 
Q 1128 -78 684 439 
Q 241 956 241 2144 
Q 241 3472 731 4075 
Q 1159 4600 1884 4600 
Q 2425 4600 2770 4297 
Q 3116 3994 3184 3459 
z
M 888 1484 
Q 888 1194 1011 928 
Q 1134 663 1356 523 
Q 1578 384 1822 384 
Q 2178 384 2434 671 
Q 2691 959 2691 1453 
Q 2691 1928 2437 2201 
Q 2184 2475 1800 2475 
Q 1419 2475 1153 2201 
Q 888 1928 888 1484 
z
" transform="scale(0.015625)"/>
       </defs>
       <use xlink:href="#ArialMT-19"/>
       <use xlink:href="#ArialMT-13" transform="translate(55.609375 0)"/>
       <use xlink:href="#ArialMT-13" transform="translate(111.21875 0)"/>
      </g>
     </g>
    </g>
    <g id="xtick_4">
     <g id="line2d_4">
      <g>
       <use xlink:href="#m3e505c25e6" x="343.695464" y="303.182656" style="stroke: #000000; stroke-width: 0.8"/>
      </g>
     </g>
     <g id="text_4">
      <!-- 800 -->
      <g transform="translate(332.017495 316.875039) scale(0.14 -0.14)">
       <defs>
        <path id="ArialMT-1b" d="M 1131 2484 
Q 781 2613 612 2850 
Q 444 3088 444 3419 
Q 444 3919 803 4259 
Q 1163 4600 1759 4600 
Q 2359 4600 2725 4251 
Q 3091 3903 3091 3403 
Q 3091 3084 2923 2848 
Q 2756 2613 2416 2484 
Q 2838 2347 3058 2040 
Q 3278 1734 3278 1309 
Q 3278 722 2862 322 
Q 2447 -78 1769 -78 
Q 1091 -78 675 323 
Q 259 725 259 1325 
Q 259 1772 486 2073 
Q 713 2375 1131 2484 
z
M 1019 3438 
Q 1019 3113 1228 2906 
Q 1438 2700 1772 2700 
Q 2097 2700 2305 2904 
Q 2513 3109 2513 3406 
Q 2513 3716 2298 3927 
Q 2084 4138 1766 4138 
Q 1444 4138 1231 3931 
Q 1019 3725 1019 3438 
z
M 838 1322 
Q 838 1081 952 856 
Q 1066 631 1291 507 
Q 1516 384 1775 384 
Q 2178 384 2440 643 
Q 2703 903 2703 1303 
Q 2703 1709 2433 1975 
Q 2163 2241 1756 2241 
Q 1359 2241 1098 1978 
Q 838 1716 838 1322 
z
" transform="scale(0.015625)"/>
       </defs>
       <use xlink:href="#ArialMT-1b"/>
       <use xlink:href="#ArialMT-13" transform="translate(55.609375 0)"/>
       <use xlink:href="#ArialMT-13" transform="translate(111.21875 0)"/>
      </g>
     </g>
    </g>
    <g id="xtick_5">
     <g id="line2d_5">
      <g>
       <use xlink:href="#m3e505c25e6" x="419.187869" y="303.182656" style="stroke: #000000; stroke-width: 0.8"/>
      </g>
     </g>
     <g id="text_5">
      <!-- 1000 -->
      <g transform="translate(403.617244 316.875039) scale(0.14 -0.14)">
       <defs>
        <path id="ArialMT-14" d="M 2384 0 
L 1822 0 
L 1822 3584 
Q 1619 3391 1289 3197 
Q 959 3003 697 2906 
L 697 3450 
Q 1169 3672 1522 3987 
Q 1875 4303 2022 4600 
L 2384 4600 
L 2384 0 
z
" transform="scale(0.015625)"/>
       </defs>
       <use xlink:href="#ArialMT-14"/>
       <use xlink:href="#ArialMT-13" transform="translate(55.609375 0)"/>
       <use xlink:href="#ArialMT-13" transform="translate(111.21875 0)"/>
       <use xlink:href="#ArialMT-13" transform="translate(166.828125 0)"/>
      </g>
     </g>
    </g>
    <g id="xtick_6">
     <g id="line2d_6">
      <g>
       <use xlink:href="#m3e505c25e6" x="494.680273" y="303.182656" style="stroke: #000000; stroke-width: 0.8"/>
      </g>
     </g>
     <g id="text_6">
      <!-- 1200 -->
      <g transform="translate(479.109648 316.875039) scale(0.14 -0.14)">
       <use xlink:href="#ArialMT-14"/>
       <use xlink:href="#ArialMT-15" transform="translate(55.609375 0)"/>
       <use xlink:href="#ArialMT-13" transform="translate(111.21875 0)"/>
       <use xlink:href="#ArialMT-13" transform="translate(166.828125 0)"/>
      </g>
     </g>
    </g>
    <g id="xtick_7">
     <g id="line2d_7">
      <defs>
       <path id="m6cbae05fea" d="M 0 0 
L 0 -3 
" style="stroke: #000000; stroke-width: 0.6"/>
      </defs>
      <g>
       <use xlink:href="#m6cbae05fea" x="60.598945" y="303.182656" style="stroke: #000000; stroke-width: 0.6"/>
      </g>
     </g>
    </g>
    <g id="xtick_8">
     <g id="line2d_8">
      <g>
       <use xlink:href="#m6cbae05fea" x="79.472047" y="303.182656" style="stroke: #000000; stroke-width: 0.6"/>
      </g>
     </g>
    </g>
    <g id="xtick_9">
     <g id="line2d_9">
      <g>
       <use xlink:href="#m6cbae05fea" x="98.345148" y="303.182656" style="stroke: #000000; stroke-width: 0.6"/>
      </g>
     </g>
    </g>
    <g id="xtick_10">
     <g id="line2d_10">
      <g>
       <use xlink:href="#m6cbae05fea" x="136.09135" y="303.182656" style="stroke: #000000; stroke-width: 0.6"/>
      </g>
     </g>
    </g>
    <g id="xtick_11">
     <g id="line2d_11">
      <g>
       <use xlink:href="#m6cbae05fea" x="154.964451" y="303.182656" style="stroke: #000000; stroke-width: 0.6"/>
      </g>
     </g>
    </g>
    <g id="xtick_12">
     <g id="line2d_12">
      <g>
       <use xlink:href="#m6cbae05fea" x="173.837553" y="303.182656" style="stroke: #000000; stroke-width: 0.6"/>
      </g>
     </g>
    </g>
    <g id="xtick_13">
     <g id="line2d_13">
      <g>
       <use xlink:href="#m6cbae05fea" x="211.583755" y="303.182656" style="stroke: #000000; stroke-width: 0.6"/>
      </g>
     </g>
    </g>
    <g id="xtick_14">
     <g id="line2d_14">
      <g>
       <use xlink:href="#m6cbae05fea" x="230.456856" y="303.182656" style="stroke: #000000; stroke-width: 0.6"/>
      </g>
     </g>
    </g>
    <g id="xtick_15">
     <g id="line2d_15">
      <g>
       <use xlink:href="#m6cbae05fea" x="249.329958" y="303.182656" style="stroke: #000000; stroke-width: 0.6"/>
      </g>
     </g>
    </g>
    <g id="xtick_16">
     <g id="line2d_16">
      <g>
       <use xlink:href="#m6cbae05fea" x="287.07616" y="303.182656" style="stroke: #000000; stroke-width: 0.6"/>
      </g>
     </g>
    </g>
    <g id="xtick_17">
     <g id="line2d_17">
      <g>
       <use xlink:href="#m6cbae05fea" x="305.949261" y="303.182656" style="stroke: #000000; stroke-width: 0.6"/>
      </g>
     </g>
    </g>
    <g id="xtick_18">
     <g id="line2d_18">
      <g>
       <use xlink:href="#m6cbae05fea" x="324.822362" y="303.182656" style="stroke: #000000; stroke-width: 0.6"/>
      </g>
     </g>
    </g>
    <g id="xtick_19">
     <g id="line2d_19">
      <g>
       <use xlink:href="#m6cbae05fea" x="362.568565" y="303.182656" style="stroke: #000000; stroke-width: 0.6"/>
      </g>
     </g>
    </g>
    <g id="xtick_20">
     <g id="line2d_20">
      <g>
       <use xlink:href="#m6cbae05fea" x="381.441666" y="303.182656" style="stroke: #000000; stroke-width: 0.6"/>
      </g>
     </g>
    </g>
    <g id="xtick_21">
     <g id="line2d_21">
      <g>
       <use xlink:href="#m6cbae05fea" x="400.314767" y="303.182656" style="stroke: #000000; stroke-width: 0.6"/>
      </g>
     </g>
    </g>
    <g id="xtick_22">
     <g id="line2d_22">
      <g>
       <use xlink:href="#m6cbae05fea" x="438.06097" y="303.182656" style="stroke: #000000; stroke-width: 0.6"/>
      </g>
     </g>
    </g>
    <g id="xtick_23">
     <g id="line2d_23">
      <g>
       <use xlink:href="#m6cbae05fea" x="456.934071" y="303.182656" style="stroke: #000000; stroke-width: 0.6"/>
      </g>
     </g>
    </g>
    <g id="xtick_24">
     <g id="line2d_24">
      <g>
       <use xlink:href="#m6cbae05fea" x="475.807172" y="303.182656" style="stroke: #000000; stroke-width: 0.6"/>
      </g>
     </g>
    </g>
    <g id="text_7">
     <!-- T1 Temperature (°C) -->
     <g transform="translate(213.900234 334.013711) scale(0.14 -0.14)">
      <defs>
       <path id="ArialMT-37" d="M 1659 0 
L 1659 4041 
L 150 4041 
L 150 4581 
L 3781 4581 
L 3781 4041 
L 2266 4041 
L 2266 0 
L 1659 0 
z
" transform="scale(0.015625)"/>
       <path id="ArialMT-3" transform="scale(0.015625)"/>
       <path id="ArialMT-48" d="M 2694 1069 
L 3275 997 
Q 3138 488 2766 206 
Q 2394 -75 1816 -75 
Q 1088 -75 661 373 
Q 234 822 234 1631 
Q 234 2469 665 2931 
Q 1097 3394 1784 3394 
Q 2450 3394 2872 2941 
Q 3294 2488 3294 1666 
Q 3294 1616 3291 1516 
L 816 1516 
Q 847 969 1125 678 
Q 1403 388 1819 388 
Q 2128 388 2347 550 
Q 2566 713 2694 1069 
z
M 847 1978 
L 2700 1978 
Q 2663 2397 2488 2606 
Q 2219 2931 1791 2931 
Q 1403 2931 1139 2672 
Q 875 2413 847 1978 
z
" transform="scale(0.015625)"/>
       <path id="ArialMT-50" d="M 422 0 
L 422 3319 
L 925 3319 
L 925 2853 
Q 1081 3097 1340 3245 
Q 1600 3394 1931 3394 
Q 2300 3394 2536 3241 
Q 2772 3088 2869 2813 
Q 3263 3394 3894 3394 
Q 4388 3394 4653 3120 
Q 4919 2847 4919 2278 
L 4919 0 
L 4359 0 
L 4359 2091 
Q 4359 2428 4304 2576 
Q 4250 2725 4106 2815 
Q 3963 2906 3769 2906 
Q 3419 2906 3187 2673 
Q 2956 2441 2956 1928 
L 2956 0 
L 2394 0 
L 2394 2156 
Q 2394 2531 2256 2718 
Q 2119 2906 1806 2906 
Q 1569 2906 1367 2781 
Q 1166 2656 1075 2415 
Q 984 2175 984 1722 
L 984 0 
L 422 0 
z
" transform="scale(0.015625)"/>
       <path id="ArialMT-53" d="M 422 -1272 
L 422 3319 
L 934 3319 
L 934 2888 
Q 1116 3141 1344 3267 
Q 1572 3394 1897 3394 
Q 2322 3394 2647 3175 
Q 2972 2956 3137 2557 
Q 3303 2159 3303 1684 
Q 3303 1175 3120 767 
Q 2938 359 2589 142 
Q 2241 -75 1856 -75 
Q 1575 -75 1351 44 
Q 1128 163 984 344 
L 984 -1272 
L 422 -1272 
z
M 931 1641 
Q 931 1000 1190 694 
Q 1450 388 1819 388 
Q 2194 388 2461 705 
Q 2728 1022 2728 1688 
Q 2728 2322 2467 2637 
Q 2206 2953 1844 2953 
Q 1484 2953 1207 2617 
Q 931 2281 931 1641 
z
" transform="scale(0.015625)"/>
       <path id="ArialMT-55" d="M 416 0 
L 416 3319 
L 922 3319 
L 922 2816 
Q 1116 3169 1280 3281 
Q 1444 3394 1641 3394 
Q 1925 3394 2219 3213 
L 2025 2691 
Q 1819 2813 1613 2813 
Q 1428 2813 1281 2702 
Q 1134 2591 1072 2394 
Q 978 2094 978 1738 
L 978 0 
L 416 0 
z
" transform="scale(0.015625)"/>
       <path id="ArialMT-44" d="M 2588 409 
Q 2275 144 1986 34 
Q 1697 -75 1366 -75 
Q 819 -75 525 192 
Q 231 459 231 875 
Q 231 1119 342 1320 
Q 453 1522 633 1644 
Q 813 1766 1038 1828 
Q 1203 1872 1538 1913 
Q 2219 1994 2541 2106 
Q 2544 2222 2544 2253 
Q 2544 2597 2384 2738 
Q 2169 2928 1744 2928 
Q 1347 2928 1158 2789 
Q 969 2650 878 2297 
L 328 2372 
Q 403 2725 575 2942 
Q 747 3159 1072 3276 
Q 1397 3394 1825 3394 
Q 2250 3394 2515 3294 
Q 2781 3194 2906 3042 
Q 3031 2891 3081 2659 
Q 3109 2516 3109 2141 
L 3109 1391 
Q 3109 606 3145 398 
Q 3181 191 3288 0 
L 2700 0 
Q 2613 175 2588 409 
z
M 2541 1666 
Q 2234 1541 1622 1453 
Q 1275 1403 1131 1340 
Q 988 1278 909 1158 
Q 831 1038 831 891 
Q 831 666 1001 516 
Q 1172 366 1500 366 
Q 1825 366 2078 508 
Q 2331 650 2450 897 
Q 2541 1088 2541 1459 
L 2541 1666 
z
" transform="scale(0.015625)"/>
       <path id="ArialMT-57" d="M 1650 503 
L 1731 6 
Q 1494 -44 1306 -44 
Q 1000 -44 831 53 
Q 663 150 594 308 
Q 525 466 525 972 
L 525 2881 
L 113 2881 
L 113 3319 
L 525 3319 
L 525 4141 
L 1084 4478 
L 1084 3319 
L 1650 3319 
L 1650 2881 
L 1084 2881 
L 1084 941 
Q 1084 700 1114 631 
Q 1144 563 1211 522 
Q 1278 481 1403 481 
Q 1497 481 1650 503 
z
" transform="scale(0.015625)"/>
       <path id="ArialMT-58" d="M 2597 0 
L 2597 488 
Q 2209 -75 1544 -75 
Q 1250 -75 995 37 
Q 741 150 617 320 
Q 494 491 444 738 
Q 409 903 409 1263 
L 409 3319 
L 972 3319 
L 972 1478 
Q 972 1038 1006 884 
Q 1059 663 1231 536 
Q 1403 409 1656 409 
Q 1909 409 2131 539 
Q 2353 669 2445 892 
Q 2538 1116 2538 1541 
L 2538 3319 
L 3100 3319 
L 3100 0 
L 2597 0 
z
" transform="scale(0.015625)"/>
       <path id="ArialMT-b" d="M 1497 -1347 
Q 1031 -759 709 28 
Q 388 816 388 1659 
Q 388 2403 628 3084 
Q 909 3875 1497 4659 
L 1900 4659 
Q 1522 4009 1400 3731 
Q 1209 3300 1100 2831 
Q 966 2247 966 1656 
Q 966 153 1900 -1347 
L 1497 -1347 
z
" transform="scale(0.015625)"/>
       <path id="ArialMT-83" d="M 400 3794 
Q 400 4153 654 4406 
Q 909 4659 1266 4659 
Q 1628 4659 1881 4406 
Q 2134 4153 2134 3794 
Q 2134 3434 1879 3179 
Q 1625 2925 1266 2925 
Q 909 2925 654 3178 
Q 400 3431 400 3794 
z
M 741 3794 
Q 741 3575 895 3420 
Q 1050 3266 1269 3266 
Q 1484 3266 1639 3420 
Q 1794 3575 1794 3794 
Q 1794 4013 1639 4167 
Q 1484 4322 1269 4322 
Q 1050 4322 895 4167 
Q 741 4013 741 3794 
z
" transform="scale(0.015625)"/>
       <path id="ArialMT-26" d="M 3763 1606 
L 4369 1453 
Q 4178 706 3683 314 
Q 3188 -78 2472 -78 
Q 1731 -78 1267 223 
Q 803 525 561 1097 
Q 319 1669 319 2325 
Q 319 3041 592 3573 
Q 866 4106 1370 4382 
Q 1875 4659 2481 4659 
Q 3169 4659 3637 4309 
Q 4106 3959 4291 3325 
L 3694 3184 
Q 3534 3684 3231 3912 
Q 2928 4141 2469 4141 
Q 1941 4141 1586 3887 
Q 1231 3634 1087 3207 
Q 944 2781 944 2328 
Q 944 1744 1114 1308 
Q 1284 872 1643 656 
Q 2003 441 2422 441 
Q 2931 441 3284 734 
Q 3638 1028 3763 1606 
z
" transform="scale(0.015625)"/>
       <path id="ArialMT-c" d="M 791 -1347 
L 388 -1347 
Q 1322 153 1322 1656 
Q 1322 2244 1188 2822 
Q 1081 3291 891 3722 
Q 769 4003 388 4659 
L 791 4659 
Q 1378 3875 1659 3084 
Q 1900 2403 1900 1659 
Q 1900 816 1576 28 
Q 1253 -759 791 -1347 
z
" transform="scale(0.015625)"/>
      </defs>
      <use xlink:href="#ArialMT-37"/>
      <use xlink:href="#ArialMT-14" transform="translate(61.078125 0)"/>
      <use xlink:href="#ArialMT-3" transform="translate(116.6875 0)"/>
      <use xlink:href="#ArialMT-37" transform="translate(142.65625 0)"/>
      <use xlink:href="#ArialMT-48" transform="translate(192.65625 0)"/>
      <use xlink:href="#ArialMT-50" transform="translate(248.265625 0)"/>
      <use xlink:href="#ArialMT-53" transform="translate(331.5625 0)"/>
      <use xlink:href="#ArialMT-48" transform="translate(387.171875 0)"/>
      <use xlink:href="#ArialMT-55" transform="translate(442.78125 0)"/>
      <use xlink:href="#ArialMT-44" transform="translate(476.078125 0)"/>
      <use xlink:href="#ArialMT-57" transform="translate(531.6875 0)"/>
      <use xlink:href="#ArialMT-58" transform="translate(559.46875 0)"/>
      <use xlink:href="#ArialMT-55" transform="translate(615.078125 0)"/>
      <use xlink:href="#ArialMT-48" transform="translate(648.375 0)"/>
      <use xlink:href="#ArialMT-3" transform="translate(703.984375 0)"/>
      <use xlink:href="#ArialMT-b" transform="translate(731.765625 0)"/>
      <use xlink:href="#ArialMT-83" transform="translate(765.0625 0)"/>
      <use xlink:href="#ArialMT-26" transform="translate(805.046875 0)"/>
      <use xlink:href="#ArialMT-c" transform="translate(877.265625 0)"/>
     </g>
    </g>
   </g>
   <g id="matplotlib.axis_2">
    <g id="ytick_1">
     <g id="line2d_25">
      <defs>
       <path id="md0c585eadf" d="M 0 0 
L 6 0 
" style="stroke: #000000; stroke-width: 0.8"/>
      </defs>
      <g>
       <use xlink:href="#md0c585eadf" x="60.598945" y="291.205218" style="stroke: #000000; stroke-width: 0.8"/>
      </g>
     </g>
     <g id="text_8">
      <!-- $\mathdefault{10^{-20}}$ -->
      <g transform="translate(24.338945 297.645218) scale(0.14 -0.14)">
       <defs>
        <path id="ArialMT-ed" d="M 3381 1997 
L 356 1997 
L 356 2522 
L 3381 2522 
L 3381 1997 
z
" transform="scale(0.015625)"/>
       </defs>
       <use xlink:href="#ArialMT-14" transform="translate(0 0.3875)"/>
       <use xlink:href="#ArialMT-13" transform="translate(55.615234 0.3875)"/>
       <use xlink:href="#ArialMT-ed" transform="translate(112.1875 41.6875) scale(0.7)"/>
       <use xlink:href="#ArialMT-15" transform="translate(153.066406 41.6875) scale(0.7)"/>
       <use xlink:href="#ArialMT-13" transform="translate(191.99707 41.6875) scale(0.7)"/>
      </g>
     </g>
    </g>
    <g id="ytick_2">
     <g id="line2d_26">
      <g>
       <use xlink:href="#md0c585eadf" x="60.598945" y="260.874197" style="stroke: #000000; stroke-width: 0.8"/>
      </g>
     </g>
     <g id="text_9">
      <!-- $\mathdefault{10^{-19}}$ -->
      <g transform="translate(24.338945 267.314197) scale(0.14 -0.14)">
       <defs>
        <path id="ArialMT-1c" d="M 350 1059 
L 891 1109 
Q 959 728 1153 556 
Q 1347 384 1650 384 
Q 1909 384 2104 503 
Q 2300 622 2425 820 
Q 2550 1019 2634 1356 
Q 2719 1694 2719 2044 
Q 2719 2081 2716 2156 
Q 2547 1888 2255 1720 
Q 1963 1553 1622 1553 
Q 1053 1553 659 1965 
Q 266 2378 266 3053 
Q 266 3750 677 4175 
Q 1088 4600 1706 4600 
Q 2153 4600 2523 4359 
Q 2894 4119 3086 3673 
Q 3278 3228 3278 2384 
Q 3278 1506 3087 986 
Q 2897 466 2520 194 
Q 2144 -78 1638 -78 
Q 1100 -78 759 220 
Q 419 519 350 1059 
z
M 2653 3081 
Q 2653 3566 2395 3850 
Q 2138 4134 1775 4134 
Q 1400 4134 1122 3828 
Q 844 3522 844 3034 
Q 844 2597 1108 2323 
Q 1372 2050 1759 2050 
Q 2150 2050 2401 2323 
Q 2653 2597 2653 3081 
z
" transform="scale(0.015625)"/>
       </defs>
       <use xlink:href="#ArialMT-14" transform="translate(0 0.3875)"/>
       <use xlink:href="#ArialMT-13" transform="translate(55.615234 0.3875)"/>
       <use xlink:href="#ArialMT-ed" transform="translate(112.1875 41.6875) scale(0.7)"/>
       <use xlink:href="#ArialMT-14" transform="translate(153.066406 41.6875) scale(0.7)"/>
       <use xlink:href="#ArialMT-1c" transform="translate(191.99707 41.6875) scale(0.7)"/>
      </g>
     </g>
    </g>
    <g id="ytick_3">
     <g id="line2d_27">
      <g>
       <use xlink:href="#md0c585eadf" x="60.598945" y="230.543177" style="stroke: #000000; stroke-width: 0.8"/>
      </g>
     </g>
     <g id="text_10">
      <!-- $\mathdefault{10^{-18}}$ -->
      <g transform="translate(24.338945 236.983177) scale(0.14 -0.14)">
       <use xlink:href="#ArialMT-14" transform="translate(0 0.3875)"/>
       <use xlink:href="#ArialMT-13" transform="translate(55.615234 0.3875)"/>
       <use xlink:href="#ArialMT-ed" transform="translate(112.1875 41.6875) scale(0.7)"/>
       <use xlink:href="#ArialMT-14" transform="translate(153.066406 41.6875) scale(0.7)"/>
       <use xlink:href="#ArialMT-1b" transform="translate(191.99707 41.6875) scale(0.7)"/>
      </g>
     </g>
    </g>
    <g id="ytick_4">
     <g id="line2d_28">
      <g>
       <use xlink:href="#md0c585eadf" x="60.598945" y="200.212157" style="stroke: #000000; stroke-width: 0.8"/>
      </g>
     </g>
     <g id="text_11">
      <!-- $\mathdefault{10^{-17}}$ -->
      <g transform="translate(24.338945 206.652157) scale(0.14 -0.14)">
       <defs>
        <path id="ArialMT-1a" d="M 303 3981 
L 303 4522 
L 3269 4522 
L 3269 4084 
Q 2831 3619 2401 2847 
Q 1972 2075 1738 1259 
Q 1569 684 1522 0 
L 944 0 
Q 953 541 1156 1306 
Q 1359 2072 1739 2783 
Q 2119 3494 2547 3981 
L 303 3981 
z
" transform="scale(0.015625)"/>
       </defs>
       <use xlink:href="#ArialMT-14" transform="translate(0 0.3875)"/>
       <use xlink:href="#ArialMT-13" transform="translate(55.615234 0.3875)"/>
       <use xlink:href="#ArialMT-ed" transform="translate(112.1875 41.6875) scale(0.7)"/>
       <use xlink:href="#ArialMT-14" transform="translate(153.066406 41.6875) scale(0.7)"/>
       <use xlink:href="#ArialMT-1a" transform="translate(191.99707 41.6875) scale(0.7)"/>
      </g>
     </g>
    </g>
    <g id="ytick_5">
     <g id="line2d_29">
      <g>
       <use xlink:href="#md0c585eadf" x="60.598945" y="169.881137" style="stroke: #000000; stroke-width: 0.8"/>
      </g>
     </g>
     <g id="text_12">
      <!-- $\mathdefault{10^{-16}}$ -->
      <g transform="translate(24.338945 176.321137) scale(0.14 -0.14)">
       <use xlink:href="#ArialMT-14" transform="translate(0 0.3875)"/>
       <use xlink:href="#ArialMT-13" transform="translate(55.615234 0.3875)"/>
       <use xlink:href="#ArialMT-ed" transform="translate(112.1875 41.6875) scale(0.7)"/>
       <use xlink:href="#ArialMT-14" transform="translate(153.066406 41.6875) scale(0.7)"/>
       <use xlink:href="#ArialMT-19" transform="translate(191.99707 41.6875) scale(0.7)"/>
      </g>
     </g>
    </g>
    <g id="ytick_6">
     <g id="line2d_30">
      <g>
       <use xlink:href="#md0c585eadf" x="60.598945" y="139.550116" style="stroke: #000000; stroke-width: 0.8"/>
      </g>
     </g>
     <g id="text_13">
      <!-- $\mathdefault{10^{-15}}$ -->
      <g transform="translate(24.338945 145.990116) scale(0.14 -0.14)">
       <defs>
        <path id="ArialMT-18" d="M 266 1200 
L 856 1250 
Q 922 819 1161 601 
Q 1400 384 1738 384 
Q 2144 384 2425 690 
Q 2706 997 2706 1503 
Q 2706 1984 2436 2262 
Q 2166 2541 1728 2541 
Q 1456 2541 1237 2417 
Q 1019 2294 894 2097 
L 366 2166 
L 809 4519 
L 3088 4519 
L 3088 3981 
L 1259 3981 
L 1013 2750 
Q 1425 3038 1878 3038 
Q 2478 3038 2890 2622 
Q 3303 2206 3303 1553 
Q 3303 931 2941 478 
Q 2500 -78 1738 -78 
Q 1113 -78 717 272 
Q 322 622 266 1200 
z
" transform="scale(0.015625)"/>
       </defs>
       <use xlink:href="#ArialMT-14" transform="translate(0 0.3875)"/>
       <use xlink:href="#ArialMT-13" transform="translate(55.615234 0.3875)"/>
       <use xlink:href="#ArialMT-ed" transform="translate(112.1875 41.6875) scale(0.7)"/>
       <use xlink:href="#ArialMT-14" transform="translate(153.066406 41.6875) scale(0.7)"/>
       <use xlink:href="#ArialMT-18" transform="translate(191.99707 41.6875) scale(0.7)"/>
      </g>
     </g>
    </g>
    <g id="ytick_7">
     <g id="line2d_31">
      <g>
       <use xlink:href="#md0c585eadf" x="60.598945" y="109.219096" style="stroke: #000000; stroke-width: 0.8"/>
      </g>
     </g>
     <g id="text_14">
      <!-- $\mathdefault{10^{-14}}$ -->
      <g transform="translate(24.338945 115.659096) scale(0.14 -0.14)">
       <use xlink:href="#ArialMT-14" transform="translate(0 0.3875)"/>
       <use xlink:href="#ArialMT-13" transform="translate(55.615234 0.3875)"/>
       <use xlink:href="#ArialMT-ed" transform="translate(112.1875 41.6875) scale(0.7)"/>
       <use xlink:href="#ArialMT-14" transform="translate(153.066406 41.6875) scale(0.7)"/>
       <use xlink:href="#ArialMT-17" transform="translate(191.99707 41.6875) scale(0.7)"/>
      </g>
     </g>
    </g>
    <g id="ytick_8">
     <g id="line2d_32">
      <g>
       <use xlink:href="#md0c585eadf" x="60.598945" y="78.888076" style="stroke: #000000; stroke-width: 0.8"/>
      </g>
     </g>
     <g id="text_15">
      <!-- $\mathdefault{10^{-13}}$ -->
      <g transform="translate(24.338945 85.328076) scale(0.14 -0.14)">
       <defs>
        <path id="ArialMT-16" d="M 269 1209 
L 831 1284 
Q 928 806 1161 595 
Q 1394 384 1728 384 
Q 2125 384 2398 659 
Q 2672 934 2672 1341 
Q 2672 1728 2419 1979 
Q 2166 2231 1775 2231 
Q 1616 2231 1378 2169 
L 1441 2663 
Q 1497 2656 1531 2656 
Q 1891 2656 2178 2843 
Q 2466 3031 2466 3422 
Q 2466 3731 2256 3934 
Q 2047 4138 1716 4138 
Q 1388 4138 1169 3931 
Q 950 3725 888 3313 
L 325 3413 
Q 428 3978 793 4289 
Q 1159 4600 1703 4600 
Q 2078 4600 2393 4439 
Q 2709 4278 2876 4000 
Q 3044 3722 3044 3409 
Q 3044 3113 2884 2869 
Q 2725 2625 2413 2481 
Q 2819 2388 3044 2092 
Q 3269 1797 3269 1353 
Q 3269 753 2831 336 
Q 2394 -81 1725 -81 
Q 1122 -81 723 278 
Q 325 638 269 1209 
z
" transform="scale(0.015625)"/>
       </defs>
       <use xlink:href="#ArialMT-14" transform="translate(0 0.3875)"/>
       <use xlink:href="#ArialMT-13" transform="translate(55.615234 0.3875)"/>
       <use xlink:href="#ArialMT-ed" transform="translate(112.1875 41.6875) scale(0.7)"/>
       <use xlink:href="#ArialMT-14" transform="translate(153.066406 41.6875) scale(0.7)"/>
       <use xlink:href="#ArialMT-16" transform="translate(191.99707 41.6875) scale(0.7)"/>
      </g>
     </g>
    </g>
    <g id="ytick_9">
     <g id="line2d_33">
      <g>
       <use xlink:href="#md0c585eadf" x="60.598945" y="48.557056" style="stroke: #000000; stroke-width: 0.8"/>
      </g>
     </g>
     <g id="text_16">
      <!-- $\mathdefault{10^{-12}}$ -->
      <g transform="translate(24.338945 54.997056) scale(0.14 -0.14)">
       <use xlink:href="#ArialMT-14" transform="translate(0 0.3875)"/>
       <use xlink:href="#ArialMT-13" transform="translate(55.615234 0.3875)"/>
       <use xlink:href="#ArialMT-ed" transform="translate(112.1875 41.6875) scale(0.7)"/>
       <use xlink:href="#ArialMT-14" transform="translate(153.066406 41.6875) scale(0.7)"/>
       <use xlink:href="#ArialMT-15" transform="translate(191.99707 41.6875) scale(0.7)"/>
      </g>
     </g>
    </g>
    <g id="ytick_10">
     <g id="line2d_34">
      <defs>
       <path id="m7a823205cc" d="M 0 0 
L 3 0 
" style="stroke: #000000; stroke-width: 0.6"/>
      </defs>
      <g>
       <use xlink:href="#m7a823205cc" x="60.598945" y="300.335764" style="stroke: #000000; stroke-width: 0.6"/>
      </g>
     </g>
    </g>
    <g id="ytick_11">
     <g id="line2d_35">
      <g>
       <use xlink:href="#m7a823205cc" x="60.598945" y="297.934116" style="stroke: #000000; stroke-width: 0.6"/>
      </g>
     </g>
    </g>
    <g id="ytick_12">
     <g id="line2d_36">
      <g>
       <use xlink:href="#m7a823205cc" x="60.598945" y="295.903552" style="stroke: #000000; stroke-width: 0.6"/>
      </g>
     </g>
    </g>
    <g id="ytick_13">
     <g id="line2d_37">
      <g>
       <use xlink:href="#m7a823205cc" x="60.598945" y="294.144597" style="stroke: #000000; stroke-width: 0.6"/>
      </g>
     </g>
    </g>
    <g id="ytick_14">
     <g id="line2d_38">
      <g>
       <use xlink:href="#m7a823205cc" x="60.598945" y="292.593089" style="stroke: #000000; stroke-width: 0.6"/>
      </g>
     </g>
    </g>
    <g id="ytick_15">
     <g id="line2d_39">
      <g>
       <use xlink:href="#m7a823205cc" x="60.598945" y="282.074671" style="stroke: #000000; stroke-width: 0.6"/>
      </g>
     </g>
    </g>
    <g id="ytick_16">
     <g id="line2d_40">
      <g>
       <use xlink:href="#m7a823205cc" x="60.598945" y="276.733643" style="stroke: #000000; stroke-width: 0.6"/>
      </g>
     </g>
    </g>
    <g id="ytick_17">
     <g id="line2d_41">
      <g>
       <use xlink:href="#m7a823205cc" x="60.598945" y="272.944124" style="stroke: #000000; stroke-width: 0.6"/>
      </g>
     </g>
    </g>
    <g id="ytick_18">
     <g id="line2d_42">
      <g>
       <use xlink:href="#m7a823205cc" x="60.598945" y="270.004744" style="stroke: #000000; stroke-width: 0.6"/>
      </g>
     </g>
    </g>
    <g id="ytick_19">
     <g id="line2d_43">
      <g>
       <use xlink:href="#m7a823205cc" x="60.598945" y="267.603096" style="stroke: #000000; stroke-width: 0.6"/>
      </g>
     </g>
    </g>
    <g id="ytick_20">
     <g id="line2d_44">
      <g>
       <use xlink:href="#m7a823205cc" x="60.598945" y="265.572532" style="stroke: #000000; stroke-width: 0.6"/>
      </g>
     </g>
    </g>
    <g id="ytick_21">
     <g id="line2d_45">
      <g>
       <use xlink:href="#m7a823205cc" x="60.598945" y="263.813577" style="stroke: #000000; stroke-width: 0.6"/>
      </g>
     </g>
    </g>
    <g id="ytick_22">
     <g id="line2d_46">
      <g>
       <use xlink:href="#m7a823205cc" x="60.598945" y="262.262069" style="stroke: #000000; stroke-width: 0.6"/>
      </g>
     </g>
    </g>
    <g id="ytick_23">
     <g id="line2d_47">
      <g>
       <use xlink:href="#m7a823205cc" x="60.598945" y="251.74365" style="stroke: #000000; stroke-width: 0.6"/>
      </g>
     </g>
    </g>
    <g id="ytick_24">
     <g id="line2d_48">
      <g>
       <use xlink:href="#m7a823205cc" x="60.598945" y="246.402623" style="stroke: #000000; stroke-width: 0.6"/>
      </g>
     </g>
    </g>
    <g id="ytick_25">
     <g id="line2d_49">
      <g>
       <use xlink:href="#m7a823205cc" x="60.598945" y="242.613104" style="stroke: #000000; stroke-width: 0.6"/>
      </g>
     </g>
    </g>
    <g id="ytick_26">
     <g id="line2d_50">
      <g>
       <use xlink:href="#m7a823205cc" x="60.598945" y="239.673724" style="stroke: #000000; stroke-width: 0.6"/>
      </g>
     </g>
    </g>
    <g id="ytick_27">
     <g id="line2d_51">
      <g>
       <use xlink:href="#m7a823205cc" x="60.598945" y="237.272076" style="stroke: #000000; stroke-width: 0.6"/>
      </g>
     </g>
    </g>
    <g id="ytick_28">
     <g id="line2d_52">
      <g>
       <use xlink:href="#m7a823205cc" x="60.598945" y="235.241512" style="stroke: #000000; stroke-width: 0.6"/>
      </g>
     </g>
    </g>
    <g id="ytick_29">
     <g id="line2d_53">
      <g>
       <use xlink:href="#m7a823205cc" x="60.598945" y="233.482557" style="stroke: #000000; stroke-width: 0.6"/>
      </g>
     </g>
    </g>
    <g id="ytick_30">
     <g id="line2d_54">
      <g>
       <use xlink:href="#m7a823205cc" x="60.598945" y="231.931048" style="stroke: #000000; stroke-width: 0.6"/>
      </g>
     </g>
    </g>
    <g id="ytick_31">
     <g id="line2d_55">
      <g>
       <use xlink:href="#m7a823205cc" x="60.598945" y="221.41263" style="stroke: #000000; stroke-width: 0.6"/>
      </g>
     </g>
    </g>
    <g id="ytick_32">
     <g id="line2d_56">
      <g>
       <use xlink:href="#m7a823205cc" x="60.598945" y="216.071603" style="stroke: #000000; stroke-width: 0.6"/>
      </g>
     </g>
    </g>
    <g id="ytick_33">
     <g id="line2d_57">
      <g>
       <use xlink:href="#m7a823205cc" x="60.598945" y="212.282083" style="stroke: #000000; stroke-width: 0.6"/>
      </g>
     </g>
    </g>
    <g id="ytick_34">
     <g id="line2d_58">
      <g>
       <use xlink:href="#m7a823205cc" x="60.598945" y="209.342704" style="stroke: #000000; stroke-width: 0.6"/>
      </g>
     </g>
    </g>
    <g id="ytick_35">
     <g id="line2d_59">
      <g>
       <use xlink:href="#m7a823205cc" x="60.598945" y="206.941056" style="stroke: #000000; stroke-width: 0.6"/>
      </g>
     </g>
    </g>
    <g id="ytick_36">
     <g id="line2d_60">
      <g>
       <use xlink:href="#m7a823205cc" x="60.598945" y="204.910491" style="stroke: #000000; stroke-width: 0.6"/>
      </g>
     </g>
    </g>
    <g id="ytick_37">
     <g id="line2d_61">
      <g>
       <use xlink:href="#m7a823205cc" x="60.598945" y="203.151536" style="stroke: #000000; stroke-width: 0.6"/>
      </g>
     </g>
    </g>
    <g id="ytick_38">
     <g id="line2d_62">
      <g>
       <use xlink:href="#m7a823205cc" x="60.598945" y="201.600028" style="stroke: #000000; stroke-width: 0.6"/>
      </g>
     </g>
    </g>
    <g id="ytick_39">
     <g id="line2d_63">
      <g>
       <use xlink:href="#m7a823205cc" x="60.598945" y="191.08161" style="stroke: #000000; stroke-width: 0.6"/>
      </g>
     </g>
    </g>
    <g id="ytick_40">
     <g id="line2d_64">
      <g>
       <use xlink:href="#m7a823205cc" x="60.598945" y="185.740582" style="stroke: #000000; stroke-width: 0.6"/>
      </g>
     </g>
    </g>
    <g id="ytick_41">
     <g id="line2d_65">
      <g>
       <use xlink:href="#m7a823205cc" x="60.598945" y="181.951063" style="stroke: #000000; stroke-width: 0.6"/>
      </g>
     </g>
    </g>
    <g id="ytick_42">
     <g id="line2d_66">
      <g>
       <use xlink:href="#m7a823205cc" x="60.598945" y="179.011684" style="stroke: #000000; stroke-width: 0.6"/>
      </g>
     </g>
    </g>
    <g id="ytick_43">
     <g id="line2d_67">
      <g>
       <use xlink:href="#m7a823205cc" x="60.598945" y="176.610036" style="stroke: #000000; stroke-width: 0.6"/>
      </g>
     </g>
    </g>
    <g id="ytick_44">
     <g id="line2d_68">
      <g>
       <use xlink:href="#m7a823205cc" x="60.598945" y="174.579471" style="stroke: #000000; stroke-width: 0.6"/>
      </g>
     </g>
    </g>
    <g id="ytick_45">
     <g id="line2d_69">
      <g>
       <use xlink:href="#m7a823205cc" x="60.598945" y="172.820516" style="stroke: #000000; stroke-width: 0.6"/>
      </g>
     </g>
    </g>
    <g id="ytick_46">
     <g id="line2d_70">
      <g>
       <use xlink:href="#m7a823205cc" x="60.598945" y="171.269008" style="stroke: #000000; stroke-width: 0.6"/>
      </g>
     </g>
    </g>
    <g id="ytick_47">
     <g id="line2d_71">
      <g>
       <use xlink:href="#m7a823205cc" x="60.598945" y="160.75059" style="stroke: #000000; stroke-width: 0.6"/>
      </g>
     </g>
    </g>
    <g id="ytick_48">
     <g id="line2d_72">
      <g>
       <use xlink:href="#m7a823205cc" x="60.598945" y="155.409562" style="stroke: #000000; stroke-width: 0.6"/>
      </g>
     </g>
    </g>
    <g id="ytick_49">
     <g id="line2d_73">
      <g>
       <use xlink:href="#m7a823205cc" x="60.598945" y="151.620043" style="stroke: #000000; stroke-width: 0.6"/>
      </g>
     </g>
    </g>
    <g id="ytick_50">
     <g id="line2d_74">
      <g>
       <use xlink:href="#m7a823205cc" x="60.598945" y="148.680663" style="stroke: #000000; stroke-width: 0.6"/>
      </g>
     </g>
    </g>
    <g id="ytick_51">
     <g id="line2d_75">
      <g>
       <use xlink:href="#m7a823205cc" x="60.598945" y="146.279015" style="stroke: #000000; stroke-width: 0.6"/>
      </g>
     </g>
    </g>
    <g id="ytick_52">
     <g id="line2d_76">
      <g>
       <use xlink:href="#m7a823205cc" x="60.598945" y="144.248451" style="stroke: #000000; stroke-width: 0.6"/>
      </g>
     </g>
    </g>
    <g id="ytick_53">
     <g id="line2d_77">
      <g>
       <use xlink:href="#m7a823205cc" x="60.598945" y="142.489496" style="stroke: #000000; stroke-width: 0.6"/>
      </g>
     </g>
    </g>
    <g id="ytick_54">
     <g id="line2d_78">
      <g>
       <use xlink:href="#m7a823205cc" x="60.598945" y="140.937988" style="stroke: #000000; stroke-width: 0.6"/>
      </g>
     </g>
    </g>
    <g id="ytick_55">
     <g id="line2d_79">
      <g>
       <use xlink:href="#m7a823205cc" x="60.598945" y="130.41957" style="stroke: #000000; stroke-width: 0.6"/>
      </g>
     </g>
    </g>
    <g id="ytick_56">
     <g id="line2d_80">
      <g>
       <use xlink:href="#m7a823205cc" x="60.598945" y="125.078542" style="stroke: #000000; stroke-width: 0.6"/>
      </g>
     </g>
    </g>
    <g id="ytick_57">
     <g id="line2d_81">
      <g>
       <use xlink:href="#m7a823205cc" x="60.598945" y="121.289023" style="stroke: #000000; stroke-width: 0.6"/>
      </g>
     </g>
    </g>
    <g id="ytick_58">
     <g id="line2d_82">
      <g>
       <use xlink:href="#m7a823205cc" x="60.598945" y="118.349643" style="stroke: #000000; stroke-width: 0.6"/>
      </g>
     </g>
    </g>
    <g id="ytick_59">
     <g id="line2d_83">
      <g>
       <use xlink:href="#m7a823205cc" x="60.598945" y="115.947995" style="stroke: #000000; stroke-width: 0.6"/>
      </g>
     </g>
    </g>
    <g id="ytick_60">
     <g id="line2d_84">
      <g>
       <use xlink:href="#m7a823205cc" x="60.598945" y="113.917431" style="stroke: #000000; stroke-width: 0.6"/>
      </g>
     </g>
    </g>
    <g id="ytick_61">
     <g id="line2d_85">
      <g>
       <use xlink:href="#m7a823205cc" x="60.598945" y="112.158476" style="stroke: #000000; stroke-width: 0.6"/>
      </g>
     </g>
    </g>
    <g id="ytick_62">
     <g id="line2d_86">
      <g>
       <use xlink:href="#m7a823205cc" x="60.598945" y="110.606968" style="stroke: #000000; stroke-width: 0.6"/>
      </g>
     </g>
    </g>
    <g id="ytick_63">
     <g id="line2d_87">
      <g>
       <use xlink:href="#m7a823205cc" x="60.598945" y="100.088549" style="stroke: #000000; stroke-width: 0.6"/>
      </g>
     </g>
    </g>
    <g id="ytick_64">
     <g id="line2d_88">
      <g>
       <use xlink:href="#m7a823205cc" x="60.598945" y="94.747522" style="stroke: #000000; stroke-width: 0.6"/>
      </g>
     </g>
    </g>
    <g id="ytick_65">
     <g id="line2d_89">
      <g>
       <use xlink:href="#m7a823205cc" x="60.598945" y="90.958002" style="stroke: #000000; stroke-width: 0.6"/>
      </g>
     </g>
    </g>
    <g id="ytick_66">
     <g id="line2d_90">
      <g>
       <use xlink:href="#m7a823205cc" x="60.598945" y="88.018623" style="stroke: #000000; stroke-width: 0.6"/>
      </g>
     </g>
    </g>
    <g id="ytick_67">
     <g id="line2d_91">
      <g>
       <use xlink:href="#m7a823205cc" x="60.598945" y="85.616975" style="stroke: #000000; stroke-width: 0.6"/>
      </g>
     </g>
    </g>
    <g id="ytick_68">
     <g id="line2d_92">
      <g>
       <use xlink:href="#m7a823205cc" x="60.598945" y="83.58641" style="stroke: #000000; stroke-width: 0.6"/>
      </g>
     </g>
    </g>
    <g id="ytick_69">
     <g id="line2d_93">
      <g>
       <use xlink:href="#m7a823205cc" x="60.598945" y="81.827456" style="stroke: #000000; stroke-width: 0.6"/>
      </g>
     </g>
    </g>
    <g id="ytick_70">
     <g id="line2d_94">
      <g>
       <use xlink:href="#m7a823205cc" x="60.598945" y="80.275947" style="stroke: #000000; stroke-width: 0.6"/>
      </g>
     </g>
    </g>
    <g id="ytick_71">
     <g id="line2d_95">
      <g>
       <use xlink:href="#m7a823205cc" x="60.598945" y="69.757529" style="stroke: #000000; stroke-width: 0.6"/>
      </g>
     </g>
    </g>
    <g id="ytick_72">
     <g id="line2d_96">
      <g>
       <use xlink:href="#m7a823205cc" x="60.598945" y="64.416502" style="stroke: #000000; stroke-width: 0.6"/>
      </g>
     </g>
    </g>
    <g id="ytick_73">
     <g id="line2d_97">
      <g>
       <use xlink:href="#m7a823205cc" x="60.598945" y="60.626982" style="stroke: #000000; stroke-width: 0.6"/>
      </g>
     </g>
    </g>
    <g id="ytick_74">
     <g id="line2d_98">
      <g>
       <use xlink:href="#m7a823205cc" x="60.598945" y="57.687603" style="stroke: #000000; stroke-width: 0.6"/>
      </g>
     </g>
    </g>
    <g id="ytick_75">
     <g id="line2d_99">
      <g>
       <use xlink:href="#m7a823205cc" x="60.598945" y="55.285955" style="stroke: #000000; stroke-width: 0.6"/>
      </g>
     </g>
    </g>
    <g id="ytick_76">
     <g id="line2d_100">
      <g>
       <use xlink:href="#m7a823205cc" x="60.598945" y="53.25539" style="stroke: #000000; stroke-width: 0.6"/>
      </g>
     </g>
    </g>
    <g id="ytick_77">
     <g id="line2d_101">
      <g>
       <use xlink:href="#m7a823205cc" x="60.598945" y="51.496435" style="stroke: #000000; stroke-width: 0.6"/>
      </g>
     </g>
    </g>
    <g id="ytick_78">
     <g id="line2d_102">
      <g>
       <use xlink:href="#m7a823205cc" x="60.598945" y="49.944927" style="stroke: #000000; stroke-width: 0.6"/>
      </g>
     </g>
    </g>
    <g id="text_17">
     <!-- Ion Current (m/z 32) -->
     <g transform="translate(17.392383 234.056768) rotate(-90) scale(0.14 -0.14)">
      <defs>
       <path id="ArialMT-2c" d="M 597 0 
L 597 4581 
L 1203 4581 
L 1203 0 
L 597 0 
z
" transform="scale(0.015625)"/>
       <path id="ArialMT-52" d="M 213 1659 
Q 213 2581 725 3025 
Q 1153 3394 1769 3394 
Q 2453 3394 2887 2945 
Q 3322 2497 3322 1706 
Q 3322 1066 3130 698 
Q 2938 331 2570 128 
Q 2203 -75 1769 -75 
Q 1072 -75 642 372 
Q 213 819 213 1659 
z
M 791 1659 
Q 791 1022 1069 705 
Q 1347 388 1769 388 
Q 2188 388 2466 706 
Q 2744 1025 2744 1678 
Q 2744 2294 2464 2611 
Q 2184 2928 1769 2928 
Q 1347 2928 1069 2612 
Q 791 2297 791 1659 
z
" transform="scale(0.015625)"/>
       <path id="ArialMT-51" d="M 422 0 
L 422 3319 
L 928 3319 
L 928 2847 
Q 1294 3394 1984 3394 
Q 2284 3394 2536 3286 
Q 2788 3178 2913 3003 
Q 3038 2828 3088 2588 
Q 3119 2431 3119 2041 
L 3119 0 
L 2556 0 
L 2556 2019 
Q 2556 2363 2490 2533 
Q 2425 2703 2258 2804 
Q 2091 2906 1866 2906 
Q 1506 2906 1245 2678 
Q 984 2450 984 1813 
L 984 0 
L 422 0 
z
" transform="scale(0.015625)"/>
       <path id="ArialMT-12" d="M 0 -78 
L 1328 4659 
L 1778 4659 
L 453 -78 
L 0 -78 
z
" transform="scale(0.015625)"/>
       <path id="ArialMT-5d" d="M 125 0 
L 125 456 
L 2238 2881 
Q 1878 2863 1603 2863 
L 250 2863 
L 250 3319 
L 2963 3319 
L 2963 2947 
L 1166 841 
L 819 456 
Q 1197 484 1528 484 
L 3063 484 
L 3063 0 
L 125 0 
z
" transform="scale(0.015625)"/>
      </defs>
      <use xlink:href="#ArialMT-2c"/>
      <use xlink:href="#ArialMT-52" transform="translate(27.78125 0)"/>
      <use xlink:href="#ArialMT-51" transform="translate(83.390625 0)"/>
      <use xlink:href="#ArialMT-3" transform="translate(139 0)"/>
      <use xlink:href="#ArialMT-26" transform="translate(166.78125 0)"/>
      <use xlink:href="#ArialMT-58" transform="translate(239 0)"/>
      <use xlink:href="#ArialMT-55" transform="translate(294.609375 0)"/>
      <use xlink:href="#ArialMT-55" transform="translate(327.90625 0)"/>
      <use xlink:href="#ArialMT-48" transform="translate(361.203125 0)"/>
      <use xlink:href="#ArialMT-51" transform="translate(416.8125 0)"/>
      <use xlink:href="#ArialMT-57" transform="translate(472.421875 0)"/>
      <use xlink:href="#ArialMT-3" transform="translate(500.203125 0)"/>
      <use xlink:href="#ArialMT-b" transform="translate(527.984375 0)"/>
      <use xlink:href="#ArialMT-50" transform="translate(561.28125 0)"/>
      <use xlink:href="#ArialMT-12" transform="translate(644.578125 0)"/>
      <use xlink:href="#ArialMT-5d" transform="translate(672.359375 0)"/>
      <use xlink:href="#ArialMT-3" transform="translate(722.359375 0)"/>
      <use xlink:href="#ArialMT-16" transform="translate(750.140625 0)"/>
      <use xlink:href="#ArialMT-15" transform="translate(805.75 0)"/>
      <use xlink:href="#ArialMT-c" transform="translate(861.359375 0)"/>
     </g>
    </g>
   </g>
   <g id="line2d_103">
    <path d="M 59.617544 100.24674 
L 59.542052 126.778087 
L 59.542052 112.825785 
L 59.806275 116.663128 
L 60.598945 124.40753 
L 62.108793 145.881096 
L 64.298073 291.205218 
L 66.600592 291.205218 
L 68.714379 146.801434 
L 70.48845 126.130383 
L 71.960552 119.144516 
L 73.243923 118.611598 
L 74.376309 114.194566 
L 75.470949 117.113011 
L 76.527843 115.844077 
L 77.660229 112.006435 
L 78.754869 113.636713 
L 79.887255 108.661543 
L 81.095133 108.586606 
L 83.473144 110.059473 
L 84.681022 112.609836 
L 87.210018 115.166758 
L 89.77676 108.223165 
L 91.022384 108.617655 
L 92.230263 110.21219 
L 93.438141 111.111823 
L 94.608274 114.890048 
L 95.778406 112.688402 
L 96.948538 116.006938 
L 98.080924 115.57304 
L 99.326549 114.834699 
L 100.534428 113.678312 
L 101.70456 107.487025 
L 102.874692 108.883882 
L 104.044824 106.658233 
L 105.214957 105.282648 
L 106.422835 106.368095 
L 107.592967 104.659115 
L 108.725353 106.286533 
L 109.85774 108.512889 
L 110.990126 112.83704 
L 112.198004 112.037458 
L 113.368136 113.588868 
L 114.576015 116.453881 
L 115.783893 112.249977 
L 116.991772 109.156845 
L 118.124158 109.888993 
L 119.29429 108.1415 
L 120.464422 107.238289 
L 121.672301 109.962095 
L 122.842433 112.277335 
L 124.050312 110.564158 
L 125.295936 117.200697 
L 126.503815 118.629173 
L 127.673947 117.123261 
L 128.844079 111.290912 
L 130.014212 111.976035 
L 131.184344 110.171278 
L 132.354476 109.775479 
L 133.524608 112.143413 
L 134.656995 111.150555 
L 135.864873 107.584703 
L 137.072751 111.728615 
L 138.318376 107.041645 
L 139.526255 106.683943 
L 140.696387 104.206447 
L 141.791027 103.958261 
L 142.998905 103.077229 
L 144.131291 102.814905 
L 145.301424 102.215663 
L 146.471556 100.949932 
L 147.641688 99.090695 
L 148.887313 99.685279 
L 150.095191 98.408805 
L 151.227577 99.893408 
L 152.435456 100.914981 
L 153.605588 102.700988 
L 154.77572 102.391532 
L 157.153731 106.065753 
L 158.286117 105.361565 
L 159.45625 102.57821 
L 160.626382 100.574374 
L 161.872006 100.43784 
L 163.042139 100.096048 
L 164.250017 97.433709 
L 165.42015 95.163184 
L 166.628028 93.882216 
L 167.79816 94.02835 
L 171.270811 88.989064 
L 172.440943 87.894705 
L 173.648822 87.537898 
L 174.818954 86.161771 
L 175.989086 82.696769 
L 178.367097 76.691151 
L 180.707361 71.26685 
L 181.877494 69.003501 
L 183.047626 67.385086 
L 184.255505 66.652896 
L 186.558023 66.684266 
L 187.765901 67.033849 
L 188.97378 67.829227 
L 190.06842 68.280792 
L 191.314044 68.546668 
L 192.559669 68.313272 
L 197.353437 68.635121 
L 200.788341 67.289695 
L 203.09086 65.50382 
L 204.298738 64.944486 
L 205.506617 64.669281 
L 206.676749 63.833597 
L 207.846881 62.700206 
L 209.05476 61.895081 
L 212.565156 58.65089 
L 217.283432 56.122984 
L 218.529056 54.890392 
L 220.793828 53.049794 
L 221.963961 52.122232 
L 223.171839 51.656443 
L 224.341972 51.673422 
L 225.512104 52.283436 
L 226.719982 53.07255 
L 229.022501 55.420414 
L 230.230379 55.992748 
L 232.532897 57.613875 
L 233.70303 57.953569 
L 236.005548 60.13368 
L 237.251173 61.699812 
L 238.383559 62.06502 
L 239.591437 62.783447 
L 240.76157 63.048934 
L 241.931702 62.960699 
L 243.13958 62.499848 
L 244.271966 61.921041 
L 245.479845 61.536549 
L 246.649977 62.163792 
L 247.857856 63.139131 
L 248.990242 64.66643 
L 250.160374 65.512037 
L 251.330506 67.481971 
L 252.538385 70.313987 
L 253.708517 72.246792 
L 254.840903 72.674117 
L 257.218914 72.119202 
L 258.426792 72.251712 
L 259.634671 73.223631 
L 260.767057 73.78795 
L 263.182814 73.889291 
L 264.352946 74.793162 
L 265.523078 74.775314 
L 266.693211 75.632026 
L 267.901089 75.987297 
L 269.033475 75.3617 
L 270.203607 75.162887 
L 271.335994 75.872836 
L 272.506126 75.855224 
L 273.751751 75.482822 
L 274.884137 74.783868 
L 276.092015 74.687279 
L 277.262147 74.965096 
L 278.43228 75.544175 
L 279.564666 76.332512 
L 280.772544 76.523316 
L 281.942676 75.809117 
L 283.112809 75.846506 
L 284.282941 75.467195 
L 286.660952 69.909458 
L 287.831084 68.289832 
L 289.001216 67.029831 
L 290.209095 66.613111 
L 291.341481 66.510491 
L 292.511613 66.994585 
L 293.719492 68.03037 
L 296.02201 71.92692 
L 298.400021 73.499537 
L 299.607899 75.351335 
L 301.910418 77.275237 
L 303.042804 77.157403 
L 304.212936 77.878748 
L 305.496307 78.515258 
L 306.704185 78.467467 
L 307.94981 78.211648 
L 309.119942 77.489024 
L 310.327821 76.607767 
L 311.535699 76.327736 
L 312.743578 75.244829 
L 313.875964 75.557746 
L 315.046096 75.653122 
L 316.216228 75.876914 
L 318.518747 76.872653 
L 319.651133 77.457775 
L 320.896757 77.929528 
L 322.06689 78.063626 
L 323.237022 78.97808 
L 324.407154 79.11616 
L 325.615033 81.099293 
L 326.747419 80.855398 
L 329.049937 79.991511 
L 330.257816 79.320615 
L 331.427948 77.889698 
L 332.635826 77.411031 
L 333.768212 77.403534 
L 334.976091 78.259559 
L 336.108477 78.414593 
L 337.316355 79.501415 
L 338.486488 80.244563 
L 339.618874 80.643755 
L 340.789006 80.381 
L 341.996885 79.958209 
L 343.167017 78.609045 
L 344.337149 78.678096 
L 346.71516 79.494862 
L 347.847546 79.779364 
L 349.017678 79.936921 
L 350.225557 80.236607 
L 351.395689 78.583491 
L 353.7737 77.907517 
L 354.906086 77.260736 
L 356.076218 78.410521 
L 357.208604 79.039714 
L 358.454229 79.248288 
L 359.624361 80.100351 
L 360.794493 80.511383 
L 361.964626 81.460673 
L 363.097012 79.706262 
L 364.30489 80.540475 
L 365.39953 80.646478 
L 366.645155 81.241253 
L 367.815287 81.956514 
L 369.023165 80.986525 
L 370.117805 80.59966 
L 371.287938 80.440602 
L 372.495816 81.259953 
L 373.703695 81.336451 
L 374.798334 79.76666 
L 375.930721 79.459025 
L 377.214091 79.898338 
L 378.308731 80.101944 
L 379.51661 78.980517 
L 380.913219 79.648488 
L 383.517707 79.661316 
L 384.725586 81.1095 
L 385.857972 81.017688 
L 387.103596 81.513689 
L 388.311475 82.283405 
L 389.368369 83.140719 
L 390.651739 83.33666 
L 391.821872 82.536896 
L 392.992004 83.030491 
L 394.162136 81.837892 
L 395.294522 81.098736 
L 396.502401 81.295243 
L 398.880412 81.965092 
L 401.220676 83.358727 
L 403.560941 85.184626 
L 404.768819 85.538678 
L 405.938951 85.569314 
L 407.071338 84.046589 
L 408.203724 83.636912 
L 409.524841 84.240214 
L 410.581734 84.026622 
L 411.789613 84.816217 
L 412.921999 86.006012 
L 414.054385 85.909607 
L 415.30001 87.731276 
L 416.470142 85.795374 
L 417.640274 85.925707 
L 418.810407 84.427722 
L 421.150671 84.302549 
L 422.35855 84.720067 
L 423.415443 85.657873 
L 424.925291 86.353913 
L 425.982185 87.411024 
L 427.076825 88.057782 
L 428.284703 87.405691 
L 429.454836 90.115928 
L 430.624968 91.200899 
L 431.757354 92.510243 
L 432.927486 92.973282 
L 434.022126 93.655244 
L 435.305497 92.566724 
L 436.437883 91.071 
L 437.608015 89.773121 
L 438.778148 88.174915 
L 439.910534 88.073224 
L 441.269397 88.535277 
L 442.326291 87.971152 
L 443.534169 88.405803 
L 444.666555 89.792018 
L 445.949926 90.477158 
L 446.931327 89.798701 
L 448.139206 90.650438 
L 449.347084 90.854114 
L 450.47947 91.700801 
L 451.762841 89.397253 
L 452.932974 87.043469 
L 454.140852 86.399911 
L 455.122253 85.378306 
L 456.632101 85.316214 
L 459.236589 84.411069 
L 461.576854 85.837881 
L 462.935717 85.78033 
L 463.992611 84.402089 
L 465.238236 84.112681 
L 466.332875 85.088918 
L 467.5785 84.27829 
L 468.559901 82.422527 
L 469.994257 82.380159 
L 470.900166 80.857423 
L 472.221283 79.705858 
L 475.656187 77.204675 
L 476.864066 76.118066 
L 478.071944 76.129075 
L 479.393061 75.902273 
L 480.449955 75.894261 
L 481.506849 77.195321 
L 482.639235 76.922737 
L 485.092738 78.555531 
L 486.26287 78.710394 
L 487.470749 78.165173 
L 488.565389 77.430214 
L 489.84876 76.816456 
L 490.981146 76.491283 
L 492.189024 76.617832 
L 493.434649 77.404512 
L 493.434649 77.404512 
" clip-path="url(#p322945e675)" style="fill: none; stroke: #000000; stroke-width: 2.5; stroke-linecap: square"/>
   </g>
   <g id="line2d_104">
    <path d="M 59.013605 103.759401 
L 58.938112 146.814284 
L 59.013605 119.629016 
L 59.466559 112.66967 
L 60.523453 107.672644 
L 62.297524 102.998276 
L 64.52455 103.604378 
L 66.71383 105.97876 
L 68.638886 105.24547 
L 70.261973 106.746286 
L 71.658583 107.72328 
L 72.866461 107.592634 
L 73.961101 110.948245 
L 75.055741 112.306626 
L 76.150381 108.518968 
L 77.245021 107.08424 
L 78.377407 107.292839 
L 79.547539 112.595275 
L 80.717671 109.750201 
L 81.887803 115.86712 
L 83.095682 114.809099 
L 84.30356 114.594575 
L 85.511439 118.414164 
L 86.832556 131.030162 
L 88.115927 122.434117 
L 89.399298 128.476751 
L 90.682669 142.057012 
L 91.890547 291.205218 
L 93.098426 115.227423 
L 94.268558 116.16234 
L 95.43869 109.616692 
L 96.608822 106.431591 
L 97.778955 106.593934 
L 98.949087 105.3358 
L 100.119219 107.491375 
L 101.327098 111.043612 
L 102.49723 113.179447 
L 103.667362 113.431633 
L 104.837495 110.837398 
L 106.007627 114.254318 
L 107.140013 114.56682 
L 108.272399 118.728016 
L 109.480277 118.664856 
L 110.688156 111.268397 
L 111.896034 116.373103 
L 113.066167 114.179146 
L 114.198553 107.091539 
L 115.406431 105.022574 
L 116.576564 106.882974 
L 117.746696 104.911371 
L 118.916828 105.061746 
L 120.08696 108.537643 
L 121.332585 107.399733 
L 122.502717 103.832521 
L 123.67285 104.553815 
L 124.880728 104.101709 
L 126.05086 103.858592 
L 127.258739 104.327387 
L 128.428871 108.429022 
L 129.599003 110.327585 
L 130.806882 119.110106 
L 131.977014 133.402933 
L 133.147146 116.044943 
L 134.317279 113.435835 
L 135.525157 104.768397 
L 136.695289 102.605291 
L 137.865422 98.907598 
L 139.035554 96.497445 
L 140.243432 96.75805 
L 141.413565 99.899903 
L 142.621443 102.749024 
L 143.791576 103.520727 
L 144.999454 102.675777 
L 146.169586 105.118575 
L 147.339719 104.316197 
L 149.717729 101.144133 
L 150.925608 101.810311 
L 152.09574 100.907335 
L 153.303619 102.847321 
L 154.473751 100.114837 
L 155.643883 99.957419 
L 156.738523 97.574827 
L 157.908655 99.687272 
L 159.116534 101.066933 
L 160.286666 98.204263 
L 161.532291 97.251086 
L 163.948048 94.820938 
L 165.080434 91.692755 
L 166.288312 90.63783 
L 167.458444 89.784166 
L 168.628577 89.295541 
L 169.836455 91.103571 
L 171.006587 89.760345 
L 172.101227 89.942968 
L 174.441492 84.617737 
L 177.914143 73.234751 
L 179.122021 70.725647 
L 180.329899 68.710312 
L 181.537778 67.60588 
L 182.670164 67.000589 
L 183.840296 66.68498 
L 185.010429 66.870983 
L 186.218307 67.757273 
L 188.596318 68.945856 
L 189.76645 69.207706 
L 190.974329 69.995834 
L 192.182207 69.412685 
L 193.427832 68.96672 
L 194.522472 68.318189 
L 195.73035 67.279892 
L 198.146107 66.012878 
L 199.278493 65.621831 
L 200.448625 65.812947 
L 202.826636 66.632901 
L 203.959022 66.324805 
L 206.299287 64.849724 
L 207.469419 64.125285 
L 209.885176 61.864345 
L 211.017562 61.587676 
L 212.225441 61.701731 
L 213.395573 61.58155 
L 214.527959 61.585446 
L 215.773584 61.286515 
L 216.90597 60.707821 
L 218.076102 60.454166 
L 219.28398 60.074549 
L 220.454113 60.016482 
L 221.586499 59.428321 
L 225.096896 60.547347 
L 227.512653 60.758588 
L 228.682785 61.056276 
L 229.815171 61.479298 
L 230.985303 61.764904 
L 232.155435 62.583987 
L 233.325568 63.051561 
L 236.873711 67.305937 
L 238.043843 67.897063 
L 239.251721 68.326575 
L 240.421854 69.279411 
L 241.591986 69.747819 
L 243.932251 71.129966 
L 245.102383 71.523194 
L 246.272515 72.979851 
L 247.442647 73.497488 
L 248.575033 74.184588 
L 249.782912 74.419093 
L 253.368801 73.912602 
L 254.57668 74.76736 
L 255.709066 74.809792 
L 256.879198 74.520829 
L 258.124823 75.587005 
L 259.257209 75.51195 
L 260.502833 76.41988 
L 261.63522 76.07498 
L 262.805352 76.059047 
L 263.975484 75.225042 
L 265.145616 75.285582 
L 266.353495 75.982386 
L 267.523627 76.034519 
L 268.693759 76.310935 
L 269.901638 76.713715 
L 270.996278 76.585912 
L 272.16641 76.205589 
L 273.374288 76.141328 
L 274.544421 76.363044 
L 275.714553 76.11602 
L 280.395082 78.47067 
L 281.602961 78.478602 
L 283.943225 79.41795 
L 285.151104 79.566418 
L 286.321236 79.48295 
L 287.453622 78.613073 
L 288.6615 79.054776 
L 289.869379 78.097054 
L 291.039511 78.991767 
L 293.379776 77.99514 
L 295.72004 77.93824 
L 296.890173 77.663309 
L 299.268183 76.813104 
L 301.570702 77.228245 
L 302.77858 77.199258 
L 303.948712 76.305018 
L 305.156591 75.581308 
L 306.364469 75.876889 
L 307.572348 75.992459 
L 308.780226 76.308184 
L 311.158237 75.652213 
L 312.290623 75.718665 
L 313.498502 75.612528 
L 314.70638 74.864335 
L 315.838766 75.735049 
L 318.216777 77.11137 
L 319.386909 77.408038 
L 320.519295 77.052457 
L 322.935052 77.239354 
L 325.237571 76.865955 
L 326.407703 77.641445 
L 327.540089 79.192306 
L 328.747967 78.872189 
L 329.842607 78.323447 
L 331.088232 77.990234 
L 332.220618 76.628042 
L 333.428497 77.234895 
L 334.560883 77.519579 
L 335.768761 77.173589 
L 336.901147 77.648317 
L 338.033533 78.279144 
L 339.279158 78.387171 
L 340.487036 77.469789 
L 341.657169 77.924831 
L 342.789555 77.420958 
L 343.921941 77.216504 
L 346.299952 77.671265 
L 347.470084 77.604514 
L 348.677962 76.867012 
L 349.923587 76.653626 
L 350.980481 76.657175 
L 352.150613 76.342249 
L 353.396238 76.815935 
L 354.528624 76.049291 
L 355.811995 76.696925 
L 356.831142 76.975524 
L 357.963528 77.870629 
L 359.246899 77.892022 
L 360.379285 76.607349 
L 361.549417 76.849604 
L 362.757296 77.635765 
L 364.002921 77.640282 
L 365.135307 78.000356 
L 366.267693 77.984068 
L 367.437825 79.807859 
L 369.77809 82.732288 
L 370.985968 82.198965 
L 372.1561 80.34121 
L 374.458619 79.734533 
L 376.761137 77.971983 
L 377.969015 78.136183 
L 379.21464 78.558371 
L 380.460265 79.156394 
L 381.894621 79.992097 
L 383.177991 79.258154 
L 384.310377 79.308754 
L 385.48051 78.826646 
L 387.971759 79.637186 
L 391.406664 82.318752 
L 393.860167 81.850699 
L 395.030299 80.662196 
L 396.0117 79.918406 
L 397.332817 79.105623 
L 398.540696 79.636883 
L 400.843214 82.532748 
L 402.088839 82.338659 
L 403.258971 83.012001 
L 404.353611 82.07308 
L 405.561489 81.800215 
L 406.731622 81.317344 
L 407.901754 81.493026 
L 409.03414 82.403732 
L 410.279765 83.224698 
L 411.487643 84.256661 
L 412.544537 83.434992 
L 413.639177 82.833243 
L 414.960294 82.914841 
L 416.130426 82.495864 
L 417.300558 82.575502 
L 418.583929 82.941374 
L 420.810955 84.768258 
L 421.905595 85.815068 
L 423.15122 86.255222 
L 424.396844 86.184746 
L 425.604723 86.343006 
L 426.661617 85.749149 
L 429.266105 85.982457 
L 430.360744 84.928664 
L 431.455384 85.806055 
L 432.550024 85.17124 
L 433.757903 85.228368 
L 434.852543 86.48097 
L 436.060421 86.87446 
L 437.2683 86.407892 
L 438.362939 84.755933 
L 439.64631 84.29375 
L 441.986575 84.568283 
L 443.081215 85.733788 
L 444.326839 85.266914 
L 445.421479 86.246865 
L 446.70485 86.787478 
L 447.79949 85.909314 
L 448.931876 84.489989 
L 450.102008 83.557832 
L 451.385379 82.803646 
L 452.517765 83.103058 
L 453.687898 82.761661 
L 454.669299 82.962966 
L 457.764487 83.100717 
L 459.010112 82.22785 
L 460.067006 82.97486 
L 461.350377 83.510332 
L 462.558255 84.663825 
L 463.50191 83.793539 
L 464.860774 84.414131 
L 465.917667 83.722383 
L 467.087799 83.697228 
L 468.333424 84.475557 
L 469.541303 82.937542 
L 470.598196 82.377249 
L 471.843821 81.165235 
L 472.862968 81.311979 
L 475.354218 80.249489 
L 476.52435 80.618165 
L 477.694482 80.136819 
L 478.902361 80.487099 
L 480.261224 81.687383 
L 481.167133 80.443989 
L 482.412758 80.645067 
L 483.771621 81.209536 
L 484.639784 82.68942 
L 485.923154 83.28788 
L 487.131033 83.441469 
L 489.358059 81.107533 
L 490.679176 80.01031 
L 491.962547 79.409333 
L 492.906202 79.540989 
L 493.887603 80.756543 
L 493.887603 80.756543 
" clip-path="url(#p322945e675)" style="fill: none; stroke: #1f77b4; stroke-width: 2.5; stroke-linecap: square"/>
   </g>
   <g id="line2d_105">
    <path d="M 58.636143 112.236192 
L 58.636143 116.53739 
L 58.598397 102.23777 
L 58.673889 104.735286 
L 59.013605 109.694174 
L 60.032752 102.562954 
L 61.84457 102.765446 
L 63.996104 107.353514 
L 66.223129 105.340638 
L 68.185932 112.169767 
L 69.809019 116.037584 
L 71.205628 121.777066 
L 72.413507 130.106432 
L 73.508147 291.205218 
L 74.602786 291.205218 
L 75.697426 121.651954 
L 76.792066 113.692684 
L 77.924452 110.745449 
L 79.094585 105.86345 
L 80.264717 106.3964 
L 81.472595 106.49177 
L 82.680474 105.033353 
L 83.850606 107.747198 
L 85.058484 108.534714 
L 87.58748 106.447244 
L 88.908597 104.778187 
L 90.229714 101.309125 
L 91.437593 101.646913 
L 92.607725 105.255921 
L 93.777857 110.272237 
L 94.910243 108.025697 
L 97.250508 111.228858 
L 98.458386 116.726502 
L 100.798651 119.72282 
L 102.006529 112.786861 
L 103.214408 126.743334 
L 104.422286 122.680788 
L 105.630165 117.95843 
L 106.762551 107.753571 
L 107.932683 109.374771 
L 109.178308 117.825777 
L 110.34844 116.467595 
L 111.480826 106.981626 
L 112.53772 105.075001 
L 113.707852 102.646049 
L 114.953477 102.525404 
L 116.161355 101.103566 
L 117.369234 100.835176 
L 118.539366 103.591631 
L 119.747245 109.668652 
L 120.955123 119.666475 
L 122.125255 112.707293 
L 123.257641 107.445231 
L 124.46552 105.813543 
L 125.635652 105.801804 
L 126.843531 105.154271 
L 128.013663 109.756272 
L 129.259288 106.959431 
L 130.467166 115.988962 
L 131.637298 112.698894 
L 132.807431 110.448112 
L 133.939817 105.666789 
L 135.109949 101.917121 
L 136.280081 100.626609 
L 137.563452 97.887117 
L 138.771331 97.241884 
L 139.903717 97.304366 
L 141.036103 96.18667 
L 142.243981 99.317565 
L 143.376367 100.582436 
L 144.584246 96.881798 
L 145.792124 96.969239 
L 146.962257 98.785019 
L 148.170135 99.127022 
L 149.340267 100.755456 
L 150.472653 105.327569 
L 151.680532 111.733779 
L 152.88841 110.216621 
L 154.058543 117.823215 
L 155.228675 112.047023 
L 156.436553 100.683666 
L 157.644432 96.408537 
L 158.776818 93.879464 
L 159.984696 92.214998 
L 161.154829 94.586244 
L 162.324961 93.785346 
L 163.495093 92.000167 
L 164.665225 91.29919 
L 165.835358 91.555805 
L 167.00549 89.638825 
L 168.213368 87.190375 
L 169.383501 82.631815 
L 170.591379 81.466159 
L 171.723765 81.931631 
L 175.271908 72.083926 
L 176.442041 70.446092 
L 177.612173 68.497928 
L 178.782305 67.743768 
L 179.914691 66.783667 
L 181.12257 66.250095 
L 182.292702 66.833665 
L 183.462834 68.30006 
L 184.632967 68.20456 
L 185.840845 68.298831 
L 187.010977 68.606763 
L 188.256602 69.147793 
L 189.426734 68.835047 
L 190.634613 69.25606 
L 191.804745 68.860835 
L 193.05037 68.719658 
L 194.220502 69.033772 
L 195.390634 69.061654 
L 197.693153 67.925692 
L 198.863285 68.584579 
L 200.033417 68.064143 
L 201.203549 67.372907 
L 204.789439 65.625521 
L 205.921825 65.41854 
L 207.054211 64.756974 
L 209.507714 65.130066 
L 211.772486 65.40681 
L 213.018111 65.560776 
L 214.150497 64.69187 
L 216.528508 64.154525 
L 217.69864 64.212253 
L 218.906518 64.432762 
L 220.076651 65.335393 
L 221.246783 65.064218 
L 222.379169 65.26636 
L 223.549301 66.120033 
L 225.927312 65.447098 
L 227.135191 65.776516 
L 229.475455 65.483969 
L 230.607841 65.730005 
L 231.81572 66.227979 
L 232.948106 65.924237 
L 234.118238 66.708469 
L 235.326116 67.26806 
L 236.496249 68.145478 
L 237.666381 69.393902 
L 241.176778 73.864882 
L 242.384656 75.210393 
L 243.554789 75.878502 
L 244.724921 76.24572 
L 245.857307 76.724847 
L 247.065185 76.686896 
L 248.235318 77.080146 
L 249.367704 76.464609 
L 250.575582 76.669445 
L 251.707968 77.547568 
L 255.293858 77.872103 
L 257.596376 79.608157 
L 258.804254 79.248694 
L 259.974387 79.791466 
L 261.144519 78.706867 
L 262.352397 76.807926 
L 263.52253 76.78233 
L 265.862794 77.155026 
L 267.032926 78.126499 
L 268.203059 79.326886 
L 269.410937 80.932807 
L 270.543323 80.42629 
L 271.788948 82.282449 
L 274.129213 80.55531 
L 275.299345 81.003197 
L 276.393985 81.703803 
L 277.677356 79.698026 
L 278.809742 78.834734 
L 281.150006 78.318648 
L 282.357885 77.541787 
L 284.660403 77.463482 
L 287.113906 78.755914 
L 288.246292 80.059603 
L 290.548811 81.127128 
L 291.794435 82.111735 
L 294.1347 82.822216 
L 295.267086 82.057512 
L 296.512711 81.019746 
L 297.645097 81.042286 
L 298.777483 80.281952 
L 299.947615 80.022722 
L 301.155493 80.981619 
L 302.325626 81.02757 
L 303.495758 81.830871 
L 304.703637 81.703995 
L 305.873769 80.305414 
L 307.15714 80.120537 
L 308.402764 78.428111 
L 309.497404 78.606967 
L 310.743029 77.204231 
L 311.913161 76.978159 
L 314.253426 77.86401 
L 315.423558 78.81914 
L 317.763823 78.093159 
L 320.104087 78.601045 
L 321.274219 78.853393 
L 324.784616 79.186596 
L 325.992495 79.508893 
L 327.162627 80.34726 
L 328.332759 79.987593 
L 329.427399 79.301829 
L 330.635278 78.307867 
L 331.80541 79.281795 
L 333.013288 78.802046 
L 334.221167 78.719108 
L 335.315807 77.73606 
L 338.826204 80.262121 
L 340.034082 79.797739 
L 341.24196 78.80384 
L 342.374347 78.983495 
L 343.582225 79.817229 
L 344.752357 79.375986 
L 347.054876 79.265259 
L 348.187262 80.004032 
L 349.39514 79.404282 
L 350.565272 78.529239 
L 351.773151 77.455432 
L 352.905537 77.107472 
L 354.113416 77.832043 
L 355.35904 77.432943 
L 356.491426 77.606729 
L 357.586066 78.239458 
L 358.831691 78.512911 
L 361.171955 78.493161 
L 362.379834 77.858412 
L 363.587712 78.167347 
L 364.682352 79.233499 
L 367.060363 79.44393 
L 368.192749 79.282067 
L 369.400628 79.867653 
L 370.533014 79.434954 
L 371.6654 79.969989 
L 372.911024 80.199558 
L 374.118903 80.255831 
L 376.383675 81.729108 
L 377.6293 81.36389 
L 378.72394 81.756803 
L 380.00731 81.079643 
L 382.762783 80.190235 
L 383.932915 80.621564 
L 385.17854 80.48481 
L 386.348672 81.845482 
L 387.556551 82.144931 
L 388.688937 83.728613 
L 389.859069 84.987707 
L 391.066948 85.528811 
L 392.23708 86.534238 
L 393.33172 86.754945 
L 394.615091 86.440407 
L 396.955355 86.69664 
L 399.220127 84.302283 
L 400.352514 84.539481 
L 401.635884 85.041504 
L 402.806017 84.29936 
L 405.033043 84.636086 
L 406.316414 83.817879 
L 408.618932 85.7861 
L 409.864557 85.900979 
L 410.996943 86.294268 
L 412.204821 88.648363 
L 413.337207 90.229504 
L 414.620578 89.887712 
L 415.715218 87.873988 
L 416.847604 86.286084 
L 418.130975 85.87101 
L 420.508986 84.774649 
L 421.641372 84.847078 
L 422.736012 86.063316 
L 423.94389 87.749843 
L 425.189515 89.120609 
L 426.208662 89.716728 
L 428.624419 86.450952 
L 429.719059 86.413439 
L 430.926938 85.046309 
L 432.172562 84.68755 
L 433.19171 85.291612 
L 434.512827 85.931716 
L 435.645213 85.987533 
L 436.815345 88.029088 
L 438.06097 88.341008 
L 439.15561 87.752971 
L 440.438981 87.574582 
L 441.53362 88.34968 
L 442.666006 87.884029 
L 443.873885 87.82364 
L 445.081763 88.729146 
L 446.251896 87.714246 
L 447.459774 88.306846 
L 448.478922 87.740214 
L 449.6868 87.208258 
L 450.932425 86.089564 
L 454.367329 84.618744 
L 455.688446 84.770013 
L 457.085056 86.476545 
L 458.519411 87.457595 
L 460.859676 86.581655 
L 462.067555 86.555074 
L 463.275433 84.615588 
L 464.445565 83.507519 
L 465.540205 83.565569 
L 466.672591 82.7182 
L 467.842723 83.695287 
L 468.97511 83.555958 
L 470.145242 83.907581 
L 471.35312 81.65311 
L 472.636491 81.339127 
L 473.84437 81.270998 
L 474.825771 80.593937 
L 476.071396 80.829217 
L 477.31702 80.216464 
L 478.487153 78.891682 
L 479.581792 80.082672 
L 480.789671 79.451655 
L 481.997549 80.480064 
L 483.129935 80.345228 
L 484.451053 82.167852 
L 486.753571 85.922719 
L 487.923703 87.243437 
L 488.905104 86.355179 
L 490.075237 85.146024 
L 491.547339 84.027041 
L 492.717471 83.293406 
L 493.585634 83.193289 
L 493.585634 83.193289 
" clip-path="url(#p322945e675)" style="fill: none; stroke: #d62728; stroke-width: 2.5; stroke-linecap: square"/>
   </g>
   <g id="line2d_106">
    <path d="M 60.372468 110.71296 
L 60.334722 106.35203 
L 60.296976 108.807952 
L 60.259229 112.266154 
L 60.296976 109.75009 
L 60.447961 110.828981 
L 61.014154 110.869272 
L 62.297524 108.996955 
L 64.222581 106.64232 
L 68.487902 101.924308 
L 70.337466 102.310022 
L 71.847314 102.851996 
L 73.206177 106.288428 
L 74.338563 103.771621 
L 75.433203 102.804114 
L 76.527843 102.29365 
L 77.622483 98.20614 
L 78.754869 95.639704 
L 79.887255 95.821991 
L 81.057387 96.655257 
L 82.227519 97.986826 
L 83.435398 100.574989 
L 84.643276 108.083015 
L 85.888901 113.059377 
L 87.172272 119.797235 
L 88.531135 119.998412 
L 89.77676 118.434253 
L 91.022384 114.478887 
L 92.230263 116.140329 
L 93.400395 109.192294 
L 94.570528 106.099227 
L 95.74066 105.167966 
L 96.910792 108.291024 
L 98.118671 108.963879 
L 99.288803 107.565256 
L 100.421189 109.706617 
L 101.591321 114.604981 
L 102.723707 114.195482 
L 103.931586 112.831777 
L 105.101718 109.499164 
L 106.27185 109.4714 
L 107.479729 107.538048 
L 108.649861 103.009798 
L 109.895486 99.238256 
L 111.065618 98.104422 
L 112.23575 100.885675 
L 113.481375 100.79768 
L 114.576015 101.824887 
L 115.783893 104.128341 
L 116.954026 107.268833 
L 118.124158 109.3645 
L 119.29429 107.557006 
L 121.596808 100.102362 
L 122.766941 100.21355 
L 123.937073 101.115151 
L 125.144951 99.660797 
L 126.315084 102.745236 
L 127.522962 106.557134 
L 128.730841 104.18452 
L 129.900973 106.132744 
L 131.108851 106.932681 
L 132.278984 107.047123 
L 133.449116 103.382526 
L 134.656995 104.390838 
L 135.864873 101.880228 
L 137.072751 101.860011 
L 138.28063 102.977772 
L 139.488508 103.927653 
L 140.658641 103.684804 
L 141.828773 111.935387 
L 142.998905 113.929752 
L 145.376916 105.530326 
L 146.547048 100.795313 
L 147.754927 97.623679 
L 150.132938 94.969115 
L 151.30307 97.503533 
L 152.510948 98.154988 
L 153.681081 100.30769 
L 154.888959 98.877508 
L 156.059091 98.009981 
L 157.191477 96.529624 
L 158.323863 95.242539 
L 159.493996 94.802091 
L 160.664128 93.006744 
L 161.872006 91.594211 
L 163.042139 91.803873 
L 164.174525 90.942703 
L 165.382403 89.281907 
L 166.552536 89.107779 
L 167.722668 88.724137 
L 168.8928 88.711077 
L 170.025186 87.348485 
L 171.270811 85.526814 
L 172.478689 85.0008 
L 173.648822 84.763126 
L 176.026832 77.679135 
L 177.196965 73.30384 
L 180.745108 63.311101 
L 181.877494 61.088918 
L 183.085372 59.619257 
L 184.180012 59.203815 
L 185.387891 59.188494 
L 186.520277 58.98811 
L 187.728155 59.502782 
L 188.97378 60.442829 
L 190.106166 61.666947 
L 191.276298 62.404276 
L 192.521923 62.452257 
L 193.692055 62.630889 
L 194.899934 62.332084 
L 196.070066 62.216162 
L 197.240198 61.815067 
L 199.618209 61.363438 
L 201.99622 62.074956 
L 203.128606 61.755019 
L 204.298738 61.271679 
L 205.46887 61.026721 
L 208.979267 60.838935 
L 210.187146 61.027729 
L 211.357278 60.538495 
L 212.565156 60.66533 
L 213.697542 61.310484 
L 216.075553 59.555507 
L 217.245685 58.949586 
L 218.415818 58.853911 
L 219.623696 58.554017 
L 223.171839 58.914304 
L 224.379718 59.771507 
L 225.54985 60.890379 
L 226.757728 60.790478 
L 229.060247 61.048107 
L 230.268125 61.839269 
L 231.438258 62.406929 
L 232.60839 63.68651 
L 233.778522 63.99168 
L 237.326665 65.869804 
L 239.591437 67.381557 
L 240.723823 68.11166 
L 244.271966 71.467087 
L 246.687723 71.154738 
L 247.857856 71.287819 
L 248.990242 71.040285 
L 250.160374 71.118187 
L 251.405999 70.791644 
L 253.670771 71.254761 
L 254.878649 71.92511 
L 256.048782 72.446849 
L 257.218914 72.502151 
L 258.389046 72.26412 
L 259.559178 72.210188 
L 260.767057 71.765366 
L 263.107321 71.723761 
L 265.447586 72.565945 
L 267.750104 73.825661 
L 268.995729 74.159785 
L 271.37374 73.02088 
L 272.581618 73.453497 
L 273.714004 74.224659 
L 274.84639 74.315623 
L 276.092015 74.751902 
L 277.224401 75.011971 
L 279.564666 76.246191 
L 280.772544 77.28298 
L 285.453073 79.025159 
L 286.623206 78.089359 
L 287.793338 78.175808 
L 289.038963 77.358079 
L 290.133602 76.483177 
L 291.341481 75.966597 
L 292.473867 75.979935 
L 293.681745 76.208266 
L 294.889624 76.145238 
L 296.02201 75.874784 
L 297.192142 76.320415 
L 298.362275 77.032758 
L 299.570153 78.237686 
L 301.834925 76.775369 
L 303.08055 76.740249 
L 304.212936 76.203948 
L 305.458561 75.388081 
L 307.94981 74.150328 
L 310.290074 74.245705 
L 311.422461 74.126189 
L 312.630339 73.704919 
L 313.838218 74.584884 
L 315.00835 75.064195 
L 317.310868 74.582753 
L 318.481 74.600332 
L 319.651133 74.094357 
L 320.859011 74.552791 
L 322.029143 73.955727 
L 323.199276 73.757803 
L 324.4449 73.387791 
L 325.501794 74.172464 
L 326.747419 74.110298 
L 327.879805 74.449143 
L 329.049937 74.271611 
L 330.220069 73.925187 
L 331.390202 73.823266 
L 332.560334 74.182078 
L 333.730466 73.929747 
L 334.938345 74.183381 
L 336.108477 74.008875 
L 337.278609 74.953766 
L 338.410995 75.517703 
L 339.618874 75.415342 
L 340.826752 75.493646 
L 341.959138 75.111185 
L 343.167017 75.825759 
L 346.639667 76.302076 
L 347.923038 76.17055 
L 349.017678 76.955882 
L 350.150064 76.669834 
L 351.320197 76.538991 
L 352.603567 77.377445 
L 353.698207 77.020962 
L 354.906086 77.785183 
L 356.038472 77.629761 
L 357.208604 77.757018 
L 358.454229 77.406577 
L 359.624361 77.556145 
L 360.719001 77.354452 
L 361.889133 76.395812 
L 363.059266 77.551997 
L 364.30489 77.911327 
L 365.437276 78.678551 
L 367.853033 78.622297 
L 368.985419 78.04046 
L 371.287938 77.659149 
L 372.533562 77.058044 
L 373.628202 77.263215 
L 374.760588 77.665315 
L 376.006213 77.949808 
L 377.100853 78.56565 
L 378.346477 78.256734 
L 379.441117 78.414997 
L 380.913219 77.633489 
L 382.309829 78.758663 
L 383.5932 79.543692 
L 384.763332 79.997869 
L 386.008957 80.226993 
L 387.103596 79.017082 
L 388.349221 78.744484 
L 389.519353 78.709856 
L 390.613993 78.335457 
L 391.821872 78.841467 
L 393.02975 78.924446 
L 394.12439 80.063603 
L 395.294522 81.825221 
L 396.502401 81.1983 
L 397.710279 81.157475 
L 399.975052 80.75261 
L 401.220676 80.875711 
L 402.428555 80.410122 
L 403.447702 80.897742 
L 404.731073 81.122448 
L 405.825713 81.770054 
L 407.033591 82.943675 
L 408.165977 82.185078 
L 409.411602 83.431174 
L 410.506242 83.405199 
L 411.827359 84.417132 
L 412.884253 84.862813 
L 415.337756 84.542767 
L 416.39465 85.471935 
L 417.640274 85.529707 
L 420.018285 86.044354 
L 421.377148 85.371983 
L 422.396296 83.957754 
L 423.453189 84.03881 
L 424.698814 83.055883 
L 425.906693 82.379114 
L 426.963586 82.659727 
L 428.246957 83.364899 
L 429.492582 84.886472 
L 430.587222 85.303279 
L 431.681862 85.924992 
L 432.927486 85.54785 
L 435.041274 86.195359 
L 436.475629 85.876793 
L 437.608015 86.706276 
L 438.740401 87.298841 
L 439.94828 87.780605 
L 441.118412 88.47727 
L 442.175306 86.468181 
L 444.628809 87.349142 
L 445.798941 87.525271 
L 446.931327 86.045447 
L 448.139206 84.173638 
L 449.309338 83.718811 
L 450.403978 82.868307 
L 451.762841 82.49282 
L 452.819735 81.932006 
L 454.06536 82.688053 
L 455.084507 83.461622 
L 456.594355 84.283093 
L 457.915472 85.55838 
L 459.085605 85.729789 
L 460.444468 85.748049 
L 461.690092 86.331293 
L 463.01121 86.219241 
L 465.124997 83.384492 
L 466.370622 81.919003 
L 467.465261 80.129379 
L 468.597648 79.61382 
L 469.730034 79.753065 
L 472.221283 79.172552 
L 473.391415 79.116262 
L 475.580695 78.122383 
L 478.034198 77.721394 
L 480.487701 79.307311 
L 481.733326 79.656171 
L 482.827966 79.615582 
L 484.035844 80.376303 
L 485.130484 80.449607 
L 486.074139 80.367129 
L 487.395256 80.033848 
L 488.640881 80.032146 
L 489.811013 80.278284 
L 490.943399 80.911174 
L 492.000293 82.126732 
L 493.170425 84.264205 
L 493.170425 84.264205 
" clip-path="url(#p322945e675)" style="fill: none; stroke: #ff7f0e; stroke-width: 2.5; stroke-linecap: square"/>
   </g>
   <g id="line2d_107">
    <path d="M 59.089097 96.214612 
L 59.089097 107.765654 
L 59.013605 103.895151 
L 58.975859 101.573894 
L 58.975859 108.339239 
L 59.089097 106.959793 
L 59.391067 104.985283 
L 60.334722 104.446054 
L 61.957809 108.369382 
L 64.184835 105.577197 
L 66.449607 108.819357 
L 68.450155 106.499284 
L 70.148735 103.122654 
L 71.507598 106.879013 
L 72.715476 106.373787 
L 73.810116 103.084316 
L 74.904756 99.049571 
L 75.999396 96.61868 
L 77.094036 95.305313 
L 78.264168 95.239758 
L 79.4343 98.493078 
L 80.642179 96.580926 
L 81.812311 96.615101 
L 83.057936 97.75691 
L 84.190322 100.141038 
L 85.360454 104.621756 
L 86.643825 106.99581 
L 87.88945 106.59207 
L 89.210567 110.813593 
L 90.456191 125.774903 
L 91.701816 291.205218 
L 92.909695 126.988233 
L 94.079827 113.574876 
L 95.287705 106.896904 
L 96.420091 105.845097 
L 97.62797 105.6371 
L 98.798102 102.619826 
L 100.043727 101.621432 
L 101.213859 102.104525 
L 102.383991 102.421192 
L 103.59187 101.607236 
L 104.762002 99.219996 
L 107.064521 99.301477 
L 108.310145 100.808804 
L 109.480277 103.563304 
L 110.688156 107.424359 
L 111.896034 111.818093 
L 113.103913 110.551386 
L 114.274045 107.958907 
L 115.444177 102.351339 
L 116.576564 99.621989 
L 117.784442 102.844653 
L 118.916828 98.367829 
L 120.08696 96.561997 
L 121.294839 98.305534 
L 122.464971 101.560929 
L 123.635103 103.017565 
L 124.805236 100.690298 
L 126.013114 101.210289 
L 127.107754 100.357166 
L 128.277886 103.254223 
L 129.523511 107.770543 
L 130.655897 102.773343 
L 131.863776 100.645665 
L 133.071654 100.393564 
L 134.241786 100.773423 
L 135.449665 101.608586 
L 136.657543 96.402798 
L 137.865422 95.709982 
L 139.111046 95.827381 
L 140.281179 96.18363 
L 141.489057 97.850053 
L 143.829322 98.775964 
L 145.0372 98.808231 
L 147.377465 100.852538 
L 148.509851 98.540671 
L 149.679983 99.620098 
L 150.850115 101.499066 
L 152.057994 106.108658 
L 153.228126 109.812004 
L 154.436005 120.465996 
L 155.606137 106.183658 
L 156.738523 97.205941 
L 157.946401 92.914588 
L 159.116534 90.678012 
L 160.286666 89.335433 
L 161.494544 87.75856 
L 162.626931 87.425798 
L 163.797063 89.120744 
L 165.004941 90.453422 
L 166.175074 90.657753 
L 167.345206 88.913027 
L 168.515338 88.156003 
L 169.723217 88.549138 
L 170.893349 86.5291 
L 172.063481 83.09331 
L 173.233613 80.131364 
L 175.687117 74.572382 
L 176.857249 71.562907 
L 178.027381 69.488793 
L 180.367646 66.567423 
L 181.537778 65.75937 
L 182.670164 65.13856 
L 185.010429 65.148931 
L 186.180561 65.778152 
L 188.483079 66.596201 
L 189.728704 67.354692 
L 190.936582 67.463665 
L 192.106715 68.189468 
L 193.276847 67.954938 
L 195.654858 68.647869 
L 196.82499 68.27122 
L 198.032868 68.352789 
L 199.203001 67.917909 
L 200.335387 67.316754 
L 201.543265 66.889501 
L 202.713398 66.604298 
L 203.921276 66.445339 
L 205.091408 65.535031 
L 206.299287 65.533964 
L 209.809684 64.91488 
L 210.979816 64.725314 
L 212.149948 64.806458 
L 213.282334 64.640026 
L 214.452466 64.312164 
L 215.660345 63.619174 
L 216.792731 63.45947 
L 217.962863 63.535396 
L 220.340874 64.104653 
L 221.511006 64.684366 
L 222.681139 64.795231 
L 223.889017 65.061757 
L 225.096896 64.595781 
L 226.267028 64.484746 
L 227.43716 63.863201 
L 229.815171 64.354917 
L 230.947557 64.504823 
L 233.363314 65.253065 
L 234.4957 65.965896 
L 235.703578 66.356034 
L 236.873711 67.054855 
L 238.043843 68.491429 
L 239.176229 69.065435 
L 240.346361 70.449326 
L 241.516494 71.487556 
L 242.762118 71.999663 
L 243.894504 73.664398 
L 246.234769 74.631208 
L 247.442647 73.924642 
L 249.782912 74.614478 
L 250.953044 74.241094 
L 252.123177 74.461584 
L 253.293309 75.355067 
L 254.538933 76.804792 
L 255.709066 79.440493 
L 256.879198 79.878114 
L 258.04933 79.27483 
L 259.181716 78.394797 
L 260.351849 77.955788 
L 261.559727 76.544578 
L 262.692113 75.590323 
L 263.899992 74.266991 
L 265.032378 74.29416 
L 266.240256 75.717814 
L 267.410389 77.578761 
L 268.542775 77.38472 
L 269.712907 77.816045 
L 270.920785 77.979756 
L 272.053171 78.303888 
L 273.336542 77.827558 
L 274.468928 78.169167 
L 275.601314 77.60859 
L 276.733701 78.660384 
L 277.979325 79.051764 
L 279.111711 80.081225 
L 280.31959 79.201364 
L 281.527468 79.087124 
L 282.659854 78.662269 
L 283.867733 77.631362 
L 284.962373 77.959746 
L 286.170251 77.516266 
L 287.415876 77.233212 
L 288.586008 77.108116 
L 289.718394 76.567884 
L 290.926273 76.644655 
L 292.134151 76.857673 
L 293.266537 76.840994 
L 294.474416 76.987693 
L 295.606802 76.455525 
L 296.776934 76.843738 
L 297.984812 76.058897 
L 300.325077 75.465902 
L 301.532956 76.008498 
L 302.665342 75.908925 
L 303.87322 76.654773 
L 305.043352 77.794809 
L 306.288977 77.641427 
L 307.496856 76.803145 
L 308.74248 76.276014 
L 309.912612 75.95517 
L 311.082745 76.135778 
L 312.290623 76.199121 
L 313.498502 76.759912 
L 314.593142 76.225615 
L 315.725528 77.076052 
L 316.933406 77.522913 
L 318.028046 77.241811 
L 319.273671 76.279085 
L 320.481549 75.777521 
L 321.651681 75.855608 
L 322.746321 75.421538 
L 323.991946 75.120305 
L 326.294464 74.072461 
L 327.464597 74.671573 
L 328.634729 74.125534 
L 329.842607 74.264682 
L 331.01274 73.981009 
L 334.48539 75.24619 
L 335.655523 76.464115 
L 336.787909 76.932742 
L 338.109026 77.766646 
L 339.279158 77.48561 
L 341.506184 76.770486 
L 342.789555 76.572095 
L 343.884195 76.270713 
L 345.016581 75.675944 
L 346.224459 76.17266 
L 347.394591 75.898552 
L 348.640216 76.329778 
L 349.772602 75.655721 
L 350.904988 74.783664 
L 353.282999 75.065604 
L 354.453131 75.722742 
L 355.66101 75.777815 
L 357.963528 76.938561 
L 359.13366 77.046087 
L 360.303793 77.813571 
L 361.473925 77.025959 
L 362.644057 77.967619 
L 363.81419 77.145771 
L 365.022068 76.438385 
L 367.362333 75.888016 
L 368.570211 75.915001 
L 369.702597 76.225598 
L 370.834983 76.787929 
L 372.005115 78.008593 
L 373.212994 78.696546 
L 374.383126 78.725353 
L 375.553259 77.798703 
L 377.931269 77.359693 
L 379.101402 78.145812 
L 381.743636 78.87237 
L 383.064753 80.084164 
L 384.310377 80.19388 
L 385.442764 79.605191 
L 386.763881 78.687924 
L 387.896267 79.008064 
L 389.066399 79.537648 
L 390.236531 79.228034 
L 391.406664 80.454961 
L 392.463557 81.170823 
L 393.784674 81.458003 
L 394.91706 82.107775 
L 396.0117 82.285185 
L 398.389711 82.370588 
L 399.597589 82.046369 
L 401.900108 83.099795 
L 403.07024 83.456815 
L 405.485997 86.360212 
L 406.580637 85.923284 
L 407.788515 86.53399 
L 409.03414 85.091767 
L 410.053288 84.922359 
L 411.336658 83.167987 
L 412.544537 82.815364 
L 413.790162 82.570379 
L 414.960294 82.185934 
L 416.017188 82.867839 
L 418.395198 83.3195 
L 419.527584 83.330827 
L 420.735463 82.573419 
L 421.867849 82.848935 
L 423.037981 82.356368 
L 424.24586 84.042605 
L 425.642469 84.05089 
L 427.831749 85.322113 
L 431.191161 86.415149 
L 432.436786 84.858625 
L 433.720156 84.48179 
L 434.814796 84.438634 
L 436.022675 85.518775 
L 437.155061 85.78292 
L 438.438432 87.044769 
L 439.608564 86.710838 
L 440.703204 85.012395 
L 443.043468 83.136053 
L 444.251347 82.434846 
L 445.270494 81.220561 
L 446.553865 80.485386 
L 447.648505 80.414585 
L 450.102008 82.808921 
L 451.272141 81.881807 
L 452.442273 80.599072 
L 454.669299 79.840277 
L 456.065908 80.927059 
L 457.500264 80.991512 
L 460.02926 81.377597 
L 461.086153 82.325484 
L 462.558255 82.223675 
L 463.766134 81.685554 
L 464.558804 80.888321 
L 465.69119 80.828288 
L 466.974561 79.33131 
L 469.390318 78.34856 
L 470.56045 77.409786 
L 471.768329 77.617857 
L 472.976207 77.463968 
L 475.240979 79.367339 
L 476.448858 79.976958 
L 477.656736 81.63568 
L 478.71363 81.011458 
L 480.072493 81.863527 
L 481.167133 80.824632 
L 484.715276 80.575665 
L 485.923154 81.823891 
L 488.225673 81.9979 
L 489.433551 83.343334 
L 490.490445 84.826543 
L 491.698323 86.163333 
L 492.943948 86.94907 
L 493.774365 86.743677 
L 493.774365 86.743677 
" clip-path="url(#p322945e675)" style="fill: none; stroke: #9467bd; stroke-width: 2.5; stroke-linecap: square"/>
   </g>
   <g id="line2d_108">
    <path d="M 60.108245 101.565194 
L 60.070498 120.814988 
L 60.032752 291.205218 
L 60.032752 95.879534 
L 59.95726 94.739413 
L 60.070498 94.831739 
L 60.598945 97.076242 
L 61.731331 97.641171 
L 65.694683 106.046206 
L 67.846216 107.717153 
L 69.733526 111.236998 
L 71.318867 108.47132 
L 72.67773 107.743641 
L 73.847862 106.563089 
L 74.942502 106.786647 
L 75.999396 112.012106 
L 77.131782 107.146218 
L 78.264168 104.178121 
L 79.358808 104.978981 
L 80.566686 102.85251 
L 81.774565 105.955818 
L 82.944697 102.757665 
L 84.190322 106.388683 
L 85.3982 112.325781 
L 86.681571 115.194106 
L 87.964942 128.549961 
L 89.286059 119.880949 
L 90.531684 122.313283 
L 92.947441 112.773975 
L 94.155319 118.198708 
L 95.287705 110.543095 
L 96.457838 119.131138 
L 97.62797 117.433099 
L 98.835848 108.471235 
L 100.005981 109.809891 
L 101.213859 107.108824 
L 102.383991 105.923019 
L 103.59187 100.193836 
L 104.762002 96.16633 
L 105.932134 96.427444 
L 107.102267 95.941803 
L 108.272399 97.999819 
L 109.442531 100.600055 
L 110.612664 101.375044 
L 111.782796 102.603266 
L 112.990674 100.795307 
L 114.160807 103.791312 
L 116.501071 98.623071 
L 117.671203 99.880836 
L 118.879082 100.778426 
L 120.08696 103.426382 
L 121.219346 110.246895 
L 122.389479 108.820984 
L 123.559611 105.252059 
L 124.729743 103.720809 
L 125.937622 109.781072 
L 127.070008 104.528866 
L 128.24014 103.903089 
L 129.410272 105.743287 
L 130.618151 110.658039 
L 131.826029 109.402885 
L 133.033908 113.197602 
L 134.20404 105.797189 
L 136.657543 97.521382 
L 137.865422 98.217994 
L 139.035554 95.373784 
L 140.205686 95.524484 
L 142.508205 95.382805 
L 143.753829 96.946941 
L 144.961708 99.955246 
L 146.13184 98.322077 
L 148.509851 94.650977 
L 149.717729 94.900433 
L 150.925608 93.050818 
L 152.057994 92.289197 
L 153.228126 90.843674 
L 154.436005 90.134667 
L 155.568391 92.520337 
L 156.776269 94.310633 
L 159.15428 91.838792 
L 160.324412 92.065874 
L 161.456798 91.347166 
L 162.664677 92.016363 
L 163.834809 91.08102 
L 164.967195 88.186604 
L 166.137327 85.92462 
L 167.382952 84.408117 
L 168.553084 83.552696 
L 169.68547 80.421035 
L 170.855603 79.483188 
L 172.063481 77.465439 
L 173.233613 74.449221 
L 174.441492 72.253745 
L 176.706264 66.073301 
L 177.914143 63.532835 
L 179.122021 61.792439 
L 180.292153 60.462237 
L 181.462286 60.147993 
L 182.594672 60.185082 
L 183.80255 60.682887 
L 184.972682 61.609836 
L 186.142815 63.083377 
L 187.350693 64.188087 
L 188.520825 64.961342 
L 189.653211 64.828217 
L 190.823344 63.976788 
L 192.031222 63.56837 
L 193.276847 63.460106 
L 194.446979 62.608406 
L 195.73035 62.424073 
L 198.032868 61.593347 
L 200.410879 61.076874 
L 202.751144 59.964309 
L 205.053662 60.13708 
L 206.299287 60.128512 
L 208.601805 60.58584 
L 209.809684 60.476876 
L 210.94207 60.719596 
L 212.149948 60.840812 
L 213.32008 60.755957 
L 214.527959 59.991399 
L 218.038356 58.82202 
L 219.208488 58.760662 
L 220.340874 59.232318 
L 221.548753 59.221711 
L 225.059149 61.274274 
L 226.267028 61.520334 
L 227.43716 62.442087 
L 228.645039 63.030683 
L 230.947557 65.097648 
L 232.155435 66.261503 
L 233.287822 66.923208 
L 234.4957 68.017869 
L 235.665832 68.745338 
L 236.835965 69.098382 
L 238.043843 69.93 
L 239.213975 70.382338 
L 240.384108 69.481457 
L 241.516494 69.593564 
L 246.234769 71.737591 
L 247.404901 71.513694 
L 248.61278 72.566161 
L 249.782912 73.265917 
L 250.953044 72.506306 
L 252.123177 71.195164 
L 253.293309 71.422321 
L 254.425695 71.78521 
L 256.803706 71.937358 
L 257.973838 71.619029 
L 259.14397 72.186654 
L 260.314102 73.267401 
L 261.484235 73.621644 
L 262.616621 74.37592 
L 263.862245 74.875222 
L 265.032378 75.157703 
L 267.334896 73.694541 
L 268.505028 73.712479 
L 269.712907 73.977059 
L 272.053171 75.417066 
L 273.223304 75.687162 
L 274.35569 76.350789 
L 275.601314 76.875635 
L 277.979325 75.501923 
L 279.111711 75.29333 
L 280.244097 76.017666 
L 281.451976 76.392479 
L 282.622108 76.927381 
L 283.79224 77.828958 
L 285.037865 77.508413 
L 286.207997 77.374891 
L 287.340383 76.722447 
L 288.472769 75.407618 
L 289.680648 74.367941 
L 291.94542 73.614344 
L 293.077806 72.907707 
L 294.361177 73.597744 
L 295.493563 73.427829 
L 296.701442 74.064341 
L 297.833828 73.760192 
L 300.249585 72.686318 
L 301.419717 71.696589 
L 302.589849 71.548346 
L 303.797728 71.719825 
L 305.005606 72.12957 
L 306.251231 72.755361 
L 307.496856 72.834486 
L 308.704734 73.775396 
L 310.856268 74.244087 
L 312.101892 74.323188 
L 313.234278 74.090452 
L 314.479903 74.74336 
L 315.650035 75.835354 
L 316.857914 76.691324 
L 318.028046 75.675412 
L 320.406057 73.267309 
L 321.613935 72.523832 
L 323.9542 72.004839 
L 325.086586 72.114488 
L 326.256718 72.652405 
L 327.464597 73.058789 
L 328.672475 73.884495 
L 329.842607 73.576758 
L 332.182872 71.825053 
L 333.277512 71.847804 
L 334.560883 72.164399 
L 335.655523 72.310151 
L 336.825655 72.739629 
L 339.165919 73.337969 
L 340.373798 74.090635 
L 341.619423 74.400838 
L 342.714062 73.691822 
L 343.846448 73.634892 
L 345.167566 74.13773 
L 346.262205 73.945477 
L 348.640216 73.80008 
L 350.980481 74.410998 
L 352.075121 75.103098 
L 353.282999 76.006519 
L 354.453131 76.463436 
L 355.585517 76.770728 
L 356.831142 76.848645 
L 359.095914 75.348573 
L 360.303793 74.843799 
L 361.473925 74.138442 
L 362.644057 74.436737 
L 363.81419 74.910425 
L 365.059814 75.595327 
L 366.1922 75.611705 
L 367.362333 76.543554 
L 369.740343 77.141762 
L 370.872729 77.311821 
L 372.005115 77.98871 
L 373.212994 77.254245 
L 374.420872 77.934915 
L 375.553259 78.431525 
L 376.723391 78.489094 
L 378.006762 79.594303 
L 379.063655 80.110735 
L 380.498011 79.579719 
L 381.781382 80.261366 
L 383.102499 79.228177 
L 384.272631 79.362641 
L 385.442764 77.265734 
L 387.896267 75.796288 
L 389.066399 76.124331 
L 390.198785 77.368821 
L 391.368917 78.027396 
L 392.53905 79.43253 
L 393.746928 80.370144 
L 394.91706 80.40928 
L 396.049446 80.947358 
L 398.50295 80.197888 
L 399.635336 80.260584 
L 400.805468 80.16426 
L 401.937854 81.239124 
L 403.107986 82.884545 
L 404.315865 83.890387 
L 406.693876 83.217546 
L 407.788515 81.565667 
L 409.071886 81.374843 
L 410.204272 81.352114 
L 411.336658 81.810976 
L 412.544537 81.914438 
L 413.714669 83.623708 
L 414.884801 86.488515 
L 416.017188 87.149319 
L 417.262812 86.417539 
L 418.357452 85.908932 
L 419.678569 84.521412 
L 420.65997 84.257949 
L 423.188966 84.68454 
L 424.24586 85.534305 
L 425.453738 86.245826 
L 426.888094 86.501724 
L 427.944988 84.221699 
L 429.077374 83.459896 
L 430.096521 83.469606 
L 431.266653 83.10524 
L 432.512278 84.036776 
L 433.720156 83.744018 
L 434.852543 84.153425 
L 435.909436 85.022246 
L 437.079569 85.306852 
L 438.325193 84.685649 
L 439.495325 82.604507 
L 440.74095 80.786287 
L 443.005722 79.280336 
L 444.251347 79.061383 
L 445.459225 78.312005 
L 446.553865 78.794005 
L 447.686251 79.834405 
L 448.856384 79.736713 
L 450.064262 79.125312 
L 452.404527 76.575383 
L 453.612405 76.636252 
L 454.669299 76.088861 
L 457.500264 76.391093 
L 459.953767 78.072432 
L 461.123899 78.286747 
L 462.294032 78.769076 
L 463.539656 78.880778 
L 464.89852 77.718126 
L 465.842175 77.667017 
L 466.936815 76.241483 
L 468.031455 75.508645 
L 469.314825 75.388388 
L 470.484958 75.7873 
L 471.692836 76.596312 
L 472.938461 78.23581 
L 474.070847 79.224558 
L 475.203233 79.524221 
L 476.335619 79.460168 
L 477.656736 80.335773 
L 478.751376 80.179722 
L 479.921508 81.26378 
L 481.129387 82.942614 
L 482.337265 83.837197 
L 483.356413 86.267502 
L 484.753022 89.171507 
L 487.206525 87.021201 
L 488.112434 86.673501 
L 489.207074 86.031339 
L 490.603684 85.038804 
L 491.811562 83.686989 
L 493.887603 80.064 
L 493.887603 80.064 
" clip-path="url(#p322945e675)" style="fill: none; stroke: #2ca02c; stroke-width: 2.5; stroke-linecap: square"/>
   </g>
   <g id="patch_3">
    <path d="M 60.598945 303.182656 
L 60.598945 39.679004 
" style="fill: none; stroke: #000000; stroke-width: 1.5; stroke-linejoin: miter; stroke-linecap: square"/>
   </g>
   <g id="patch_4">
    <path d="M 60.598945 303.182656 
L 494.680273 303.182656 
" style="fill: none; stroke: #000000; stroke-width: 1.5; stroke-linejoin: miter; stroke-linecap: square"/>
   </g>
   <g id="text_18">
    <!-- 1421_wo_HF -->
    <g transform="translate(236.004922 18.441699) scale(0.14 -0.14)">
     <defs>
      <path id="ArialMT-42" d="M -97 -1272 
L -97 -866 
L 3631 -866 
L 3631 -1272 
L -97 -1272 
z
" transform="scale(0.015625)"/>
      <path id="ArialMT-5a" d="M 1034 0 
L 19 3319 
L 600 3319 
L 1128 1403 
L 1325 691 
Q 1338 744 1497 1375 
L 2025 3319 
L 2603 3319 
L 3100 1394 
L 3266 759 
L 3456 1400 
L 4025 3319 
L 4572 3319 
L 3534 0 
L 2950 0 
L 2422 1988 
L 2294 2553 
L 1622 0 
L 1034 0 
z
" transform="scale(0.015625)"/>
      <path id="ArialMT-2b" d="M 513 0 
L 513 4581 
L 1119 4581 
L 1119 2700 
L 3500 2700 
L 3500 4581 
L 4106 4581 
L 4106 0 
L 3500 0 
L 3500 2159 
L 1119 2159 
L 1119 0 
L 513 0 
z
" transform="scale(0.015625)"/>
      <path id="ArialMT-29" d="M 525 0 
L 525 4581 
L 3616 4581 
L 3616 4041 
L 1131 4041 
L 1131 2622 
L 3281 2622 
L 3281 2081 
L 1131 2081 
L 1131 0 
L 525 0 
z
" transform="scale(0.015625)"/>
     </defs>
     <use xlink:href="#ArialMT-14"/>
     <use xlink:href="#ArialMT-17" transform="translate(55.609375 0)"/>
     <use xlink:href="#ArialMT-15" transform="translate(111.21875 0)"/>
     <use xlink:href="#ArialMT-14" transform="translate(166.828125 0)"/>
     <use xlink:href="#ArialMT-42" transform="translate(222.4375 0)"/>
     <use xlink:href="#ArialMT-5a" transform="translate(278.046875 0)"/>
     <use xlink:href="#ArialMT-52" transform="translate(350.265625 0)"/>
     <use xlink:href="#ArialMT-42" transform="translate(405.875 0)"/>
     <use xlink:href="#ArialMT-2b" transform="translate(461.484375 0)"/>
     <use xlink:href="#ArialMT-29" transform="translate(533.703125 0)"/>
    </g>
    <!-- m/z 32 -->
    <g transform="translate(256.634141 33.679004) scale(0.14 -0.14)">
     <use xlink:href="#ArialMT-50"/>
     <use xlink:href="#ArialMT-12" transform="translate(83.296875 0)"/>
     <use xlink:href="#ArialMT-5d" transform="translate(111.078125 0)"/>
     <use xlink:href="#ArialMT-3" transform="translate(161.078125 0)"/>
     <use xlink:href="#ArialMT-16" transform="translate(188.859375 0)"/>
     <use xlink:href="#ArialMT-15" transform="translate(244.46875 0)"/>
    </g>
   </g>
   <g id="legend_1">
    <g id="line2d_109">
     <path d="M 512.3619 52.459277 
L 522.3619 52.459277 
L 532.3619 52.459277 
" style="fill: none; stroke: #000000; stroke-width: 2.5; stroke-linecap: square"/>
    </g>
    <g id="text_19">
     <!-- 0 h -->
     <g transform="translate(540.3619 55.959277) scale(0.1 -0.1)">
      <defs>
       <path id="ArialMT-4b" d="M 422 0 
L 422 4581 
L 984 4581 
L 984 2938 
Q 1378 3394 1978 3394 
Q 2347 3394 2619 3248 
Q 2891 3103 3008 2847 
Q 3125 2591 3125 2103 
L 3125 0 
L 2563 0 
L 2563 2103 
Q 2563 2525 2380 2717 
Q 2197 2909 1863 2909 
Q 1613 2909 1392 2779 
Q 1172 2650 1078 2428 
Q 984 2206 984 1816 
L 984 0 
L 422 0 
z
" transform="scale(0.015625)"/>
      </defs>
      <use xlink:href="#ArialMT-13"/>
      <use xlink:href="#ArialMT-3" transform="translate(55.609375 0)"/>
      <use xlink:href="#ArialMT-4b" transform="translate(83.390625 0)"/>
     </g>
    </g>
    <g id="line2d_110">
     <path d="M 512.3619 66.844043 
L 522.3619 66.844043 
L 532.3619 66.844043 
" style="fill: none; stroke: #1f77b4; stroke-width: 2.5; stroke-linecap: square"/>
    </g>
    <g id="text_20">
     <!-- 6 h -->
     <g transform="translate(540.3619 70.344043) scale(0.1 -0.1)">
      <use xlink:href="#ArialMT-19"/>
      <use xlink:href="#ArialMT-3" transform="translate(55.609375 0)"/>
      <use xlink:href="#ArialMT-4b" transform="translate(83.390625 0)"/>
     </g>
    </g>
    <g id="line2d_111">
     <path d="M 512.3619 81.228809 
L 522.3619 81.228809 
L 532.3619 81.228809 
" style="fill: none; stroke: #d62728; stroke-width: 2.5; stroke-linecap: square"/>
    </g>
    <g id="text_21">
     <!-- 24 h -->
     <g transform="translate(540.3619 84.728809) scale(0.1 -0.1)">
      <use xlink:href="#ArialMT-15"/>
      <use xlink:href="#ArialMT-17" transform="translate(55.609375 0)"/>
      <use xlink:href="#ArialMT-3" transform="translate(111.21875 0)"/>
      <use xlink:href="#ArialMT-4b" transform="translate(139 0)"/>
     </g>
    </g>
    <g id="line2d_112">
     <path d="M 512.3619 95.613574 
L 522.3619 95.613574 
L 532.3619 95.613574 
" style="fill: none; stroke: #ff7f0e; stroke-width: 2.5; stroke-linecap: square"/>
    </g>
    <g id="text_22">
     <!-- 7 d -->
     <g transform="translate(540.3619 99.113574) scale(0.1 -0.1)">
      <defs>
       <path id="ArialMT-47" d="M 2575 0 
L 2575 419 
Q 2259 -75 1647 -75 
Q 1250 -75 917 144 
Q 584 363 401 755 
Q 219 1147 219 1656 
Q 219 2153 384 2558 
Q 550 2963 881 3178 
Q 1213 3394 1622 3394 
Q 1922 3394 2156 3267 
Q 2391 3141 2538 2938 
L 2538 4581 
L 3097 4581 
L 3097 0 
L 2575 0 
z
M 797 1656 
Q 797 1019 1065 703 
Q 1334 388 1700 388 
Q 2069 388 2326 689 
Q 2584 991 2584 1609 
Q 2584 2291 2321 2609 
Q 2059 2928 1675 2928 
Q 1300 2928 1048 2622 
Q 797 2316 797 1656 
z
" transform="scale(0.015625)"/>
      </defs>
      <use xlink:href="#ArialMT-1a"/>
      <use xlink:href="#ArialMT-3" transform="translate(55.609375 0)"/>
      <use xlink:href="#ArialMT-47" transform="translate(83.390625 0)"/>
     </g>
    </g>
    <g id="line2d_113">
     <path d="M 512.3619 109.99834 
L 522.3619 109.99834 
L 532.3619 109.99834 
" style="fill: none; stroke: #9467bd; stroke-width: 2.5; stroke-linecap: square"/>
    </g>
    <g id="text_23">
     <!-- 14 d -->
     <g transform="translate(540.3619 113.49834) scale(0.1 -0.1)">
      <use xlink:href="#ArialMT-14"/>
      <use xlink:href="#ArialMT-17" transform="translate(55.609375 0)"/>
      <use xlink:href="#ArialMT-3" transform="translate(111.21875 0)"/>
      <use xlink:href="#ArialMT-47" transform="translate(139 0)"/>
     </g>
    </g>
    <g id="line2d_114">
     <path d="M 512.3619 124.383105 
L 522.3619 124.383105 
L 532.3619 124.383105 
" style="fill: none; stroke: #2ca02c; stroke-width: 2.5; stroke-linecap: square"/>
    </g>
    <g id="text_24">
     <!-- 28 d -->
     <g transform="translate(540.3619 127.883105) scale(0.1 -0.1)">
      <use xlink:href="#ArialMT-15"/>
      <use xlink:href="#ArialMT-1b" transform="translate(55.609375 0)"/>
      <use xlink:href="#ArialMT-3" transform="translate(111.21875 0)"/>
      <use xlink:href="#ArialMT-47" transform="translate(139 0)"/>
     </g>
    </g>
   </g>
  </g>
 </g>
 <defs>
  <clipPath id="p322945e675">
   <rect x="60.598945" y="39.679004" width="434.081328" height="263.503652"/>
  </clipPath>
 </defs>
</svg>
