<?xml version="1.0" encoding="utf-8" standalone="no"?>
<!DOCTYPE svg PUBLIC "-//W3C//DTD SVG 1.1//EN"
  "http://www.w3.org/Graphics/SVG/1.1/DTD/svg11.dtd">
<svg xmlns:xlink="http://www.w3.org/1999/xlink" width="571.022837pt" height="344.160273pt" viewBox="0 0 571.022837 344.160273" xmlns="http://www.w3.org/2000/svg" version="1.1">
 <metadata>
  <rdf:RDF xmlns:dc="http://purl.org/dc/elements/1.1/" xmlns:cc="http://creativecommons.org/ns#" xmlns:rdf="http://www.w3.org/1999/02/22-rdf-syntax-ns#">
   <cc:Work>
    <dc:type rdf:resource="http://purl.org/dc/dcmitype/StillImage"/>
    <dc:date>2026-07-10T11:48:55.459739</dc:date>
    <dc:format>image/svg+xml</dc:format>
    <dc:creator>
     <cc:Agent>
      <dc:title>Matplotlib v3.11.0, https://matplotlib.org/</dc:title>
     </cc:Agent>
    </dc:creator>
   </cc:Work>
  </rdf:RDF>
 </metadata>
 <defs>
  <style type="text/css">*{stroke-linejoin: round; stroke-linecap: butt}</style>
 </defs>
 <g id="figure_1">
  <g id="patch_1">
   <path d="M 0 344.160273 
L 571.022837 344.160273 
L 571.022837 0 
L 0 0 
z
" style="fill: #ffffff"/>
  </g>
  <g id="axes_1">
   <g id="patch_2">
    <path d="M 60.598945 303.182656 
L 494.680273 303.182656 
L 494.680273 39.679004 
L 60.598945 39.679004 
z
" style="fill: #ffffff"/>
   </g>
   <g id="matplotlib.axis_1">
    <g id="xtick_1">
     <g id="line2d_1">
      <defs>
       <path id="m9014d515b3" d="M 0 0 
L 0 -6 
" style="stroke: #000000; stroke-width: 0.8"/>
      </defs>
      <g>
       <use xlink:href="#m9014d515b3" x="117.218249" y="303.182656" style="stroke: #000000; stroke-width: 0.8"/>
      </g>
     </g>
     <g id="text_1">
      <!-- 200 -->
      <g transform="translate(105.54028 316.875039) scale(0.14 -0.14)">
       <defs>
        <path id="ArialMT-15" d="M 3222 541 
L 3222 0 
L 194 0 
Q 188 203 259 391 
Q 375 700 629 1000 
Q 884 1300 1366 1694 
Q 2113 2306 2375 2664 
Q 2638 3022 2638 3341 
Q 2638 3675 2398 3904 
Q 2159 4134 1775 4134 
Q 1369 4134 1125 3890 
Q 881 3647 878 3216 
L 300 3275 
Q 359 3922 746 4261 
Q 1134 4600 1788 4600 
Q 2447 4600 2831 4234 
Q 3216 3869 3216 3328 
Q 3216 3053 3103 2787 
Q 2991 2522 2730 2228 
Q 2469 1934 1863 1422 
Q 1356 997 1212 845 
Q 1069 694 975 541 
L 3222 541 
z
" transform="scale(0.015625)"/>
        <path id="ArialMT-13" d="M 266 2259 
Q 266 3072 433 3567 
Q 600 4063 929 4331 
Q 1259 4600 1759 4600 
Q 2128 4600 2406 4451 
Q 2684 4303 2865 4023 
Q 3047 3744 3150 3342 
Q 3253 2941 3253 2259 
Q 3253 1453 3087 958 
Q 2922 463 2592 192 
Q 2263 -78 1759 -78 
Q 1097 -78 719 397 
Q 266 969 266 2259 
z
M 844 2259 
Q 844 1131 1108 757 
Q 1372 384 1759 384 
Q 2147 384 2411 759 
Q 2675 1134 2675 2259 
Q 2675 3391 2411 3762 
Q 2147 4134 1753 4134 
Q 1366 4134 1134 3806 
Q 844 3388 844 2259 
z
" transform="scale(0.015625)"/>
       </defs>
       <use xlink:href="#ArialMT-15"/>
       <use xlink:href="#ArialMT-13" transform="translate(55.609375 0)"/>
       <use xlink:href="#ArialMT-13" transform="translate(111.21875 0)"/>
      </g>
     </g>
    </g>
    <g id="xtick_2">
     <g id="line2d_2">
      <g>
       <use xlink:href="#m9014d515b3" x="192.710654" y="303.182656" style="stroke: #000000; stroke-width: 0.8"/>
      </g>
     </g>
     <g id="text_2">
      <!-- 400 -->
      <g transform="translate(181.032685 316.875039) scale(0.14 -0.14)">
       <defs>
        <path id="ArialMT-17" d="M 2069 0 
L 2069 1097 
L 81 1097 
L 81 1613 
L 2172 4581 
L 2631 4581 
L 2631 1613 
L 3250 1613 
L 3250 1097 
L 2631 1097 
L 2631 0 
L 2069 0 
z
M 2069 1613 
L 2069 3678 
L 634 1613 
L 2069 1613 
z
" transform="scale(0.015625)"/>
       </defs>
       <use xlink:href="#ArialMT-17"/>
       <use xlink:href="#ArialMT-13" transform="translate(55.609375 0)"/>
       <use xlink:href="#ArialMT-13" transform="translate(111.21875 0)"/>
      </g>
     </g>
    </g>
    <g id="xtick_3">
     <g id="line2d_3">
      <g>
       <use xlink:href="#m9014d515b3" x="268.203059" y="303.182656" style="stroke: #000000; stroke-width: 0.8"/>
      </g>
     </g>
     <g id="text_3">
      <!-- 600 -->
      <g transform="translate(256.52509 316.875039) scale(0.14 -0.14)">
       <defs>
        <path id="ArialMT-19" d="M 3184 3459 
L 2625 3416 
Q 2550 3747 2413 3897 
Q 2184 4138 1850 4138 
Q 1581 4138 1378 3988 
Q 1113 3794 959 3422 
Q 806 3050 800 2363 
Q 1003 2672 1297 2822 
Q 1591 2972 1913 2972 
Q 2475 2972 2870 2558 
Q 3266 2144 3266 1488 
Q 3266 1056 3080 686 
Q 2894 316 2569 119 
Q 2244 -78 1831 -78 
Q 1128 -78 684 439 
Q 241 956 241 2144 
Q 241 3472 731 4075 
Q 1159 4600 1884 4600 
Q 2425 4600 2770 4297 
Q 3116 3994 3184 3459 
z
M 888 1484 
Q 888 1194 1011 928 
Q 1134 663 1356 523 
Q 1578 384 1822 384 
Q 2178 384 2434 671 
Q 2691 959 2691 1453 
Q 2691 1928 2437 2201 
Q 2184 2475 1800 2475 
Q 1419 2475 1153 2201 
Q 888 1928 888 1484 
z
" transform="scale(0.015625)"/>
       </defs>
       <use xlink:href="#ArialMT-19"/>
       <use xlink:href="#ArialMT-13" transform="translate(55.609375 0)"/>
       <use xlink:href="#ArialMT-13" transform="translate(111.21875 0)"/>
      </g>
     </g>
    </g>
    <g id="xtick_4">
     <g id="line2d_4">
      <g>
       <use xlink:href="#m9014d515b3" x="343.695464" y="303.182656" style="stroke: #000000; stroke-width: 0.8"/>
      </g>
     </g>
     <g id="text_4">
      <!-- 800 -->
      <g transform="translate(332.017495 316.875039) scale(0.14 -0.14)">
       <defs>
        <path id="ArialMT-1b" d="M 1131 2484 
Q 781 2613 612 2850 
Q 444 3088 444 3419 
Q 444 3919 803 4259 
Q 1163 4600 1759 4600 
Q 2359 4600 2725 4251 
Q 3091 3903 3091 3403 
Q 3091 3084 2923 2848 
Q 2756 2613 2416 2484 
Q 2838 2347 3058 2040 
Q 3278 1734 3278 1309 
Q 3278 722 2862 322 
Q 2447 -78 1769 -78 
Q 1091 -78 675 323 
Q 259 725 259 1325 
Q 259 1772 486 2073 
Q 713 2375 1131 2484 
z
M 1019 3438 
Q 1019 3113 1228 2906 
Q 1438 2700 1772 2700 
Q 2097 2700 2305 2904 
Q 2513 3109 2513 3406 
Q 2513 3716 2298 3927 
Q 2084 4138 1766 4138 
Q 1444 4138 1231 3931 
Q 1019 3725 1019 3438 
z
M 838 1322 
Q 838 1081 952 856 
Q 1066 631 1291 507 
Q 1516 384 1775 384 
Q 2178 384 2440 643 
Q 2703 903 2703 1303 
Q 2703 1709 2433 1975 
Q 2163 2241 1756 2241 
Q 1359 2241 1098 1978 
Q 838 1716 838 1322 
z
" transform="scale(0.015625)"/>
       </defs>
       <use xlink:href="#ArialMT-1b"/>
       <use xlink:href="#ArialMT-13" transform="translate(55.609375 0)"/>
       <use xlink:href="#ArialMT-13" transform="translate(111.21875 0)"/>
      </g>
     </g>
    </g>
    <g id="xtick_5">
     <g id="line2d_5">
      <g>
       <use xlink:href="#m9014d515b3" x="419.187869" y="303.182656" style="stroke: #000000; stroke-width: 0.8"/>
      </g>
     </g>
     <g id="text_5">
      <!-- 1000 -->
      <g transform="translate(403.617244 316.875039) scale(0.14 -0.14)">
       <defs>
        <path id="ArialMT-14" d="M 2384 0 
L 1822 0 
L 1822 3584 
Q 1619 3391 1289 3197 
Q 959 3003 697 2906 
L 697 3450 
Q 1169 3672 1522 3987 
Q 1875 4303 2022 4600 
L 2384 4600 
L 2384 0 
z
" transform="scale(0.015625)"/>
       </defs>
       <use xlink:href="#ArialMT-14"/>
       <use xlink:href="#ArialMT-13" transform="translate(55.609375 0)"/>
       <use xlink:href="#ArialMT-13" transform="translate(111.21875 0)"/>
       <use xlink:href="#ArialMT-13" transform="translate(166.828125 0)"/>
      </g>
     </g>
    </g>
    <g id="xtick_6">
     <g id="line2d_6">
      <g>
       <use xlink:href="#m9014d515b3" x="494.680273" y="303.182656" style="stroke: #000000; stroke-width: 0.8"/>
      </g>
     </g>
     <g id="text_6">
      <!-- 1200 -->
      <g transform="translate(479.109648 316.875039) scale(0.14 -0.14)">
       <use xlink:href="#ArialMT-14"/>
       <use xlink:href="#ArialMT-15" transform="translate(55.609375 0)"/>
       <use xlink:href="#ArialMT-13" transform="translate(111.21875 0)"/>
       <use xlink:href="#ArialMT-13" transform="translate(166.828125 0)"/>
      </g>
     </g>
    </g>
    <g id="xtick_7">
     <g id="line2d_7">
      <defs>
       <path id="mdc48145efc" d="M 0 0 
L 0 -3 
" style="stroke: #000000; stroke-width: 0.6"/>
      </defs>
      <g>
       <use xlink:href="#mdc48145efc" x="60.598945" y="303.182656" style="stroke: #000000; stroke-width: 0.6"/>
      </g>
     </g>
    </g>
    <g id="xtick_8">
     <g id="line2d_8">
      <g>
       <use xlink:href="#mdc48145efc" x="79.472047" y="303.182656" style="stroke: #000000; stroke-width: 0.6"/>
      </g>
     </g>
    </g>
    <g id="xtick_9">
     <g id="line2d_9">
      <g>
       <use xlink:href="#mdc48145efc" x="98.345148" y="303.182656" style="stroke: #000000; stroke-width: 0.6"/>
      </g>
     </g>
    </g>
    <g id="xtick_10">
     <g id="line2d_10">
      <g>
       <use xlink:href="#mdc48145efc" x="136.09135" y="303.182656" style="stroke: #000000; stroke-width: 0.6"/>
      </g>
     </g>
    </g>
    <g id="xtick_11">
     <g id="line2d_11">
      <g>
       <use xlink:href="#mdc48145efc" x="154.964451" y="303.182656" style="stroke: #000000; stroke-width: 0.6"/>
      </g>
     </g>
    </g>
    <g id="xtick_12">
     <g id="line2d_12">
      <g>
       <use xlink:href="#mdc48145efc" x="173.837553" y="303.182656" style="stroke: #000000; stroke-width: 0.6"/>
      </g>
     </g>
    </g>
    <g id="xtick_13">
     <g id="line2d_13">
      <g>
       <use xlink:href="#mdc48145efc" x="211.583755" y="303.182656" style="stroke: #000000; stroke-width: 0.6"/>
      </g>
     </g>
    </g>
    <g id="xtick_14">
     <g id="line2d_14">
      <g>
       <use xlink:href="#mdc48145efc" x="230.456856" y="303.182656" style="stroke: #000000; stroke-width: 0.6"/>
      </g>
     </g>
    </g>
    <g id="xtick_15">
     <g id="line2d_15">
      <g>
       <use xlink:href="#mdc48145efc" x="249.329958" y="303.182656" style="stroke: #000000; stroke-width: 0.6"/>
      </g>
     </g>
    </g>
    <g id="xtick_16">
     <g id="line2d_16">
      <g>
       <use xlink:href="#mdc48145efc" x="287.07616" y="303.182656" style="stroke: #000000; stroke-width: 0.6"/>
      </g>
     </g>
    </g>
    <g id="xtick_17">
     <g id="line2d_17">
      <g>
       <use xlink:href="#mdc48145efc" x="305.949261" y="303.182656" style="stroke: #000000; stroke-width: 0.6"/>
      </g>
     </g>
    </g>
    <g id="xtick_18">
     <g id="line2d_18">
      <g>
       <use xlink:href="#mdc48145efc" x="324.822362" y="303.182656" style="stroke: #000000; stroke-width: 0.6"/>
      </g>
     </g>
    </g>
    <g id="xtick_19">
     <g id="line2d_19">
      <g>
       <use xlink:href="#mdc48145efc" x="362.568565" y="303.182656" style="stroke: #000000; stroke-width: 0.6"/>
      </g>
     </g>
    </g>
    <g id="xtick_20">
     <g id="line2d_20">
      <g>
       <use xlink:href="#mdc48145efc" x="381.441666" y="303.182656" style="stroke: #000000; stroke-width: 0.6"/>
      </g>
     </g>
    </g>
    <g id="xtick_21">
     <g id="line2d_21">
      <g>
       <use xlink:href="#mdc48145efc" x="400.314767" y="303.182656" style="stroke: #000000; stroke-width: 0.6"/>
      </g>
     </g>
    </g>
    <g id="xtick_22">
     <g id="line2d_22">
      <g>
       <use xlink:href="#mdc48145efc" x="438.06097" y="303.182656" style="stroke: #000000; stroke-width: 0.6"/>
      </g>
     </g>
    </g>
    <g id="xtick_23">
     <g id="line2d_23">
      <g>
       <use xlink:href="#mdc48145efc" x="456.934071" y="303.182656" style="stroke: #000000; stroke-width: 0.6"/>
      </g>
     </g>
    </g>
    <g id="xtick_24">
     <g id="line2d_24">
      <g>
       <use xlink:href="#mdc48145efc" x="475.807172" y="303.182656" style="stroke: #000000; stroke-width: 0.6"/>
      </g>
     </g>
    </g>
    <g id="text_7">
     <!-- T1 Temperature (°C) -->
     <g transform="translate(213.900234 334.013711) scale(0.14 -0.14)">
      <defs>
       <path id="ArialMT-37" d="M 1659 0 
L 1659 4041 
L 150 4041 
L 150 4581 
L 3781 4581 
L 3781 4041 
L 2266 4041 
L 2266 0 
L 1659 0 
z
" transform="scale(0.015625)"/>
       <path id="ArialMT-3" transform="scale(0.015625)"/>
       <path id="ArialMT-48" d="M 2694 1069 
L 3275 997 
Q 3138 488 2766 206 
Q 2394 -75 1816 -75 
Q 1088 -75 661 373 
Q 234 822 234 1631 
Q 234 2469 665 2931 
Q 1097 3394 1784 3394 
Q 2450 3394 2872 2941 
Q 3294 2488 3294 1666 
Q 3294 1616 3291 1516 
L 816 1516 
Q 847 969 1125 678 
Q 1403 388 1819 388 
Q 2128 388 2347 550 
Q 2566 713 2694 1069 
z
M 847 1978 
L 2700 1978 
Q 2663 2397 2488 2606 
Q 2219 2931 1791 2931 
Q 1403 2931 1139 2672 
Q 875 2413 847 1978 
z
" transform="scale(0.015625)"/>
       <path id="ArialMT-50" d="M 422 0 
L 422 3319 
L 925 3319 
L 925 2853 
Q 1081 3097 1340 3245 
Q 1600 3394 1931 3394 
Q 2300 3394 2536 3241 
Q 2772 3088 2869 2813 
Q 3263 3394 3894 3394 
Q 4388 3394 4653 3120 
Q 4919 2847 4919 2278 
L 4919 0 
L 4359 0 
L 4359 2091 
Q 4359 2428 4304 2576 
Q 4250 2725 4106 2815 
Q 3963 2906 3769 2906 
Q 3419 2906 3187 2673 
Q 2956 2441 2956 1928 
L 2956 0 
L 2394 0 
L 2394 2156 
Q 2394 2531 2256 2718 
Q 2119 2906 1806 2906 
Q 1569 2906 1367 2781 
Q 1166 2656 1075 2415 
Q 984 2175 984 1722 
L 984 0 
L 422 0 
z
" transform="scale(0.015625)"/>
       <path id="ArialMT-53" d="M 422 -1272 
L 422 3319 
L 934 3319 
L 934 2888 
Q 1116 3141 1344 3267 
Q 1572 3394 1897 3394 
Q 2322 3394 2647 3175 
Q 2972 2956 3137 2557 
Q 3303 2159 3303 1684 
Q 3303 1175 3120 767 
Q 2938 359 2589 142 
Q 2241 -75 1856 -75 
Q 1575 -75 1351 44 
Q 1128 163 984 344 
L 984 -1272 
L 422 -1272 
z
M 931 1641 
Q 931 1000 1190 694 
Q 1450 388 1819 388 
Q 2194 388 2461 705 
Q 2728 1022 2728 1688 
Q 2728 2322 2467 2637 
Q 2206 2953 1844 2953 
Q 1484 2953 1207 2617 
Q 931 2281 931 1641 
z
" transform="scale(0.015625)"/>
       <path id="ArialMT-55" d="M 416 0 
L 416 3319 
L 922 3319 
L 922 2816 
Q 1116 3169 1280 3281 
Q 1444 3394 1641 3394 
Q 1925 3394 2219 3213 
L 2025 2691 
Q 1819 2813 1613 2813 
Q 1428 2813 1281 2702 
Q 1134 2591 1072 2394 
Q 978 2094 978 1738 
L 978 0 
L 416 0 
z
" transform="scale(0.015625)"/>
       <path id="ArialMT-44" d="M 2588 409 
Q 2275 144 1986 34 
Q 1697 -75 1366 -75 
Q 819 -75 525 192 
Q 231 459 231 875 
Q 231 1119 342 1320 
Q 453 1522 633 1644 
Q 813 1766 1038 1828 
Q 1203 1872 1538 1913 
Q 2219 1994 2541 2106 
Q 2544 2222 2544 2253 
Q 2544 2597 2384 2738 
Q 2169 2928 1744 2928 
Q 1347 2928 1158 2789 
Q 969 2650 878 2297 
L 328 2372 
Q 403 2725 575 2942 
Q 747 3159 1072 3276 
Q 1397 3394 1825 3394 
Q 2250 3394 2515 3294 
Q 2781 3194 2906 3042 
Q 3031 2891 3081 2659 
Q 3109 2516 3109 2141 
L 3109 1391 
Q 3109 606 3145 398 
Q 3181 191 3288 0 
L 2700 0 
Q 2613 175 2588 409 
z
M 2541 1666 
Q 2234 1541 1622 1453 
Q 1275 1403 1131 1340 
Q 988 1278 909 1158 
Q 831 1038 831 891 
Q 831 666 1001 516 
Q 1172 366 1500 366 
Q 1825 366 2078 508 
Q 2331 650 2450 897 
Q 2541 1088 2541 1459 
L 2541 1666 
z
" transform="scale(0.015625)"/>
       <path id="ArialMT-57" d="M 1650 503 
L 1731 6 
Q 1494 -44 1306 -44 
Q 1000 -44 831 53 
Q 663 150 594 308 
Q 525 466 525 972 
L 525 2881 
L 113 2881 
L 113 3319 
L 525 3319 
L 525 4141 
L 1084 4478 
L 1084 3319 
L 1650 3319 
L 1650 2881 
L 1084 2881 
L 1084 941 
Q 1084 700 1114 631 
Q 1144 563 1211 522 
Q 1278 481 1403 481 
Q 1497 481 1650 503 
z
" transform="scale(0.015625)"/>
       <path id="ArialMT-58" d="M 2597 0 
L 2597 488 
Q 2209 -75 1544 -75 
Q 1250 -75 995 37 
Q 741 150 617 320 
Q 494 491 444 738 
Q 409 903 409 1263 
L 409 3319 
L 972 3319 
L 972 1478 
Q 972 1038 1006 884 
Q 1059 663 1231 536 
Q 1403 409 1656 409 
Q 1909 409 2131 539 
Q 2353 669 2445 892 
Q 2538 1116 2538 1541 
L 2538 3319 
L 3100 3319 
L 3100 0 
L 2597 0 
z
" transform="scale(0.015625)"/>
       <path id="ArialMT-b" d="M 1497 -1347 
Q 1031 -759 709 28 
Q 388 816 388 1659 
Q 388 2403 628 3084 
Q 909 3875 1497 4659 
L 1900 4659 
Q 1522 4009 1400 3731 
Q 1209 3300 1100 2831 
Q 966 2247 966 1656 
Q 966 153 1900 -1347 
L 1497 -1347 
z
" transform="scale(0.015625)"/>
       <path id="ArialMT-83" d="M 400 3794 
Q 400 4153 654 4406 
Q 909 4659 1266 4659 
Q 1628 4659 1881 4406 
Q 2134 4153 2134 3794 
Q 2134 3434 1879 3179 
Q 1625 2925 1266 2925 
Q 909 2925 654 3178 
Q 400 3431 400 3794 
z
M 741 3794 
Q 741 3575 895 3420 
Q 1050 3266 1269 3266 
Q 1484 3266 1639 3420 
Q 1794 3575 1794 3794 
Q 1794 4013 1639 4167 
Q 1484 4322 1269 4322 
Q 1050 4322 895 4167 
Q 741 4013 741 3794 
z
" transform="scale(0.015625)"/>
       <path id="ArialMT-26" d="M 3763 1606 
L 4369 1453 
Q 4178 706 3683 314 
Q 3188 -78 2472 -78 
Q 1731 -78 1267 223 
Q 803 525 561 1097 
Q 319 1669 319 2325 
Q 319 3041 592 3573 
Q 866 4106 1370 4382 
Q 1875 4659 2481 4659 
Q 3169 4659 3637 4309 
Q 4106 3959 4291 3325 
L 3694 3184 
Q 3534 3684 3231 3912 
Q 2928 4141 2469 4141 
Q 1941 4141 1586 3887 
Q 1231 3634 1087 3207 
Q 944 2781 944 2328 
Q 944 1744 1114 1308 
Q 1284 872 1643 656 
Q 2003 441 2422 441 
Q 2931 441 3284 734 
Q 3638 1028 3763 1606 
z
" transform="scale(0.015625)"/>
       <path id="ArialMT-c" d="M 791 -1347 
L 388 -1347 
Q 1322 153 1322 1656 
Q 1322 2244 1188 2822 
Q 1081 3291 891 3722 
Q 769 4003 388 4659 
L 791 4659 
Q 1378 3875 1659 3084 
Q 1900 2403 1900 1659 
Q 1900 816 1576 28 
Q 1253 -759 791 -1347 
z
" transform="scale(0.015625)"/>
      </defs>
      <use xlink:href="#ArialMT-37"/>
      <use xlink:href="#ArialMT-14" transform="translate(61.078125 0)"/>
      <use xlink:href="#ArialMT-3" transform="translate(116.6875 0)"/>
      <use xlink:href="#ArialMT-37" transform="translate(142.65625 0)"/>
      <use xlink:href="#ArialMT-48" transform="translate(192.65625 0)"/>
      <use xlink:href="#ArialMT-50" transform="translate(248.265625 0)"/>
      <use xlink:href="#ArialMT-53" transform="translate(331.5625 0)"/>
      <use xlink:href="#ArialMT-48" transform="translate(387.171875 0)"/>
      <use xlink:href="#ArialMT-55" transform="translate(442.78125 0)"/>
      <use xlink:href="#ArialMT-44" transform="translate(476.078125 0)"/>
      <use xlink:href="#ArialMT-57" transform="translate(531.6875 0)"/>
      <use xlink:href="#ArialMT-58" transform="translate(559.46875 0)"/>
      <use xlink:href="#ArialMT-55" transform="translate(615.078125 0)"/>
      <use xlink:href="#ArialMT-48" transform="translate(648.375 0)"/>
      <use xlink:href="#ArialMT-3" transform="translate(703.984375 0)"/>
      <use xlink:href="#ArialMT-b" transform="translate(731.765625 0)"/>
      <use xlink:href="#ArialMT-83" transform="translate(765.0625 0)"/>
      <use xlink:href="#ArialMT-26" transform="translate(805.046875 0)"/>
      <use xlink:href="#ArialMT-c" transform="translate(877.265625 0)"/>
     </g>
    </g>
   </g>
   <g id="matplotlib.axis_2">
    <g id="ytick_1">
     <g id="line2d_25">
      <defs>
       <path id="mc7e8626133" d="M 0 0 
L 6 0 
" style="stroke: #000000; stroke-width: 0.8"/>
      </defs>
      <g>
       <use xlink:href="#mc7e8626133" x="60.598945" y="241.933125" style="stroke: #000000; stroke-width: 0.8"/>
      </g>
     </g>
     <g id="text_8">
      <!-- $\mathdefault{10^{-13}}$ -->
      <g transform="translate(24.338945 248.373125) scale(0.14 -0.14)">
       <defs>
        <path id="ArialMT-ed" d="M 3381 1997 
L 356 1997 
L 356 2522 
L 3381 2522 
L 3381 1997 
z
" transform="scale(0.015625)"/>
        <path id="ArialMT-16" d="M 269 1209 
L 831 1284 
Q 928 806 1161 595 
Q 1394 384 1728 384 
Q 2125 384 2398 659 
Q 2672 934 2672 1341 
Q 2672 1728 2419 1979 
Q 2166 2231 1775 2231 
Q 1616 2231 1378 2169 
L 1441 2663 
Q 1497 2656 1531 2656 
Q 1891 2656 2178 2843 
Q 2466 3031 2466 3422 
Q 2466 3731 2256 3934 
Q 2047 4138 1716 4138 
Q 1388 4138 1169 3931 
Q 950 3725 888 3313 
L 325 3413 
Q 428 3978 793 4289 
Q 1159 4600 1703 4600 
Q 2078 4600 2393 4439 
Q 2709 4278 2876 4000 
Q 3044 3722 3044 3409 
Q 3044 3113 2884 2869 
Q 2725 2625 2413 2481 
Q 2819 2388 3044 2092 
Q 3269 1797 3269 1353 
Q 3269 753 2831 336 
Q 2394 -81 1725 -81 
Q 1122 -81 723 278 
Q 325 638 269 1209 
z
" transform="scale(0.015625)"/>
       </defs>
       <use xlink:href="#ArialMT-14" transform="translate(0 0.3875)"/>
       <use xlink:href="#ArialMT-13" transform="translate(55.615234 0.3875)"/>
       <use xlink:href="#ArialMT-ed" transform="translate(112.1875 41.6875) scale(0.7)"/>
       <use xlink:href="#ArialMT-14" transform="translate(153.066406 41.6875) scale(0.7)"/>
       <use xlink:href="#ArialMT-16" transform="translate(191.99707 41.6875) scale(0.7)"/>
      </g>
     </g>
    </g>
    <g id="ytick_2">
     <g id="line2d_26">
      <g>
       <use xlink:href="#mc7e8626133" x="60.598945" y="158.848701" style="stroke: #000000; stroke-width: 0.8"/>
      </g>
     </g>
     <g id="text_9">
      <!-- $\mathdefault{10^{-12}}$ -->
      <g transform="translate(24.338945 165.288701) scale(0.14 -0.14)">
       <use xlink:href="#ArialMT-14" transform="translate(0 0.3875)"/>
       <use xlink:href="#ArialMT-13" transform="translate(55.615234 0.3875)"/>
       <use xlink:href="#ArialMT-ed" transform="translate(112.1875 41.6875) scale(0.7)"/>
       <use xlink:href="#ArialMT-14" transform="translate(153.066406 41.6875) scale(0.7)"/>
       <use xlink:href="#ArialMT-15" transform="translate(191.99707 41.6875) scale(0.7)"/>
      </g>
     </g>
    </g>
    <g id="ytick_3">
     <g id="line2d_27">
      <g>
       <use xlink:href="#mc7e8626133" x="60.598945" y="75.764278" style="stroke: #000000; stroke-width: 0.8"/>
      </g>
     </g>
     <g id="text_10">
      <!-- $\mathdefault{10^{-11}}$ -->
      <g transform="translate(25.038945 82.204278) scale(0.14 -0.14)">
       <use xlink:href="#ArialMT-14" transform="translate(0 0.3875)"/>
       <use xlink:href="#ArialMT-13" transform="translate(55.615234 0.3875)"/>
       <use xlink:href="#ArialMT-ed" transform="translate(112.1875 41.6875) scale(0.7)"/>
       <use xlink:href="#ArialMT-14" transform="translate(153.066406 41.6875) scale(0.7)"/>
       <use xlink:href="#ArialMT-14" transform="translate(187.09707 41.6875) scale(0.7)"/>
      </g>
     </g>
    </g>
    <g id="ytick_4">
     <g id="line2d_28">
      <defs>
       <path id="m427e8e4408" d="M 0 0 
L 3 0 
" style="stroke: #000000; stroke-width: 0.6"/>
      </defs>
      <g>
       <use xlink:href="#m427e8e4408" x="60.598945" y="300.006645" style="stroke: #000000; stroke-width: 0.6"/>
      </g>
     </g>
    </g>
    <g id="ytick_5">
     <g id="line2d_29">
      <g>
       <use xlink:href="#m427e8e4408" x="60.598945" y="285.376204" style="stroke: #000000; stroke-width: 0.6"/>
      </g>
     </g>
    </g>
    <g id="ytick_6">
     <g id="line2d_30">
      <g>
       <use xlink:href="#m427e8e4408" x="60.598945" y="274.995741" style="stroke: #000000; stroke-width: 0.6"/>
      </g>
     </g>
    </g>
    <g id="ytick_7">
     <g id="line2d_31">
      <g>
       <use xlink:href="#m427e8e4408" x="60.598945" y="266.944029" style="stroke: #000000; stroke-width: 0.6"/>
      </g>
     </g>
    </g>
    <g id="ytick_8">
     <g id="line2d_32">
      <g>
       <use xlink:href="#m427e8e4408" x="60.598945" y="260.3653" style="stroke: #000000; stroke-width: 0.6"/>
      </g>
     </g>
    </g>
    <g id="ytick_9">
     <g id="line2d_33">
      <g>
       <use xlink:href="#m427e8e4408" x="60.598945" y="254.803065" style="stroke: #000000; stroke-width: 0.6"/>
      </g>
     </g>
    </g>
    <g id="ytick_10">
     <g id="line2d_34">
      <g>
       <use xlink:href="#m427e8e4408" x="60.598945" y="249.984837" style="stroke: #000000; stroke-width: 0.6"/>
      </g>
     </g>
    </g>
    <g id="ytick_11">
     <g id="line2d_35">
      <g>
       <use xlink:href="#m427e8e4408" x="60.598945" y="245.73486" style="stroke: #000000; stroke-width: 0.6"/>
      </g>
     </g>
    </g>
    <g id="ytick_12">
     <g id="line2d_36">
      <g>
       <use xlink:href="#m427e8e4408" x="60.598945" y="216.922221" style="stroke: #000000; stroke-width: 0.6"/>
      </g>
     </g>
    </g>
    <g id="ytick_13">
     <g id="line2d_37">
      <g>
       <use xlink:href="#m427e8e4408" x="60.598945" y="202.29178" style="stroke: #000000; stroke-width: 0.6"/>
      </g>
     </g>
    </g>
    <g id="ytick_14">
     <g id="line2d_38">
      <g>
       <use xlink:href="#m427e8e4408" x="60.598945" y="191.911318" style="stroke: #000000; stroke-width: 0.6"/>
      </g>
     </g>
    </g>
    <g id="ytick_15">
     <g id="line2d_39">
      <g>
       <use xlink:href="#m427e8e4408" x="60.598945" y="183.859605" style="stroke: #000000; stroke-width: 0.6"/>
      </g>
     </g>
    </g>
    <g id="ytick_16">
     <g id="line2d_40">
      <g>
       <use xlink:href="#m427e8e4408" x="60.598945" y="177.280877" style="stroke: #000000; stroke-width: 0.6"/>
      </g>
     </g>
    </g>
    <g id="ytick_17">
     <g id="line2d_41">
      <g>
       <use xlink:href="#m427e8e4408" x="60.598945" y="171.718641" style="stroke: #000000; stroke-width: 0.6"/>
      </g>
     </g>
    </g>
    <g id="ytick_18">
     <g id="line2d_42">
      <g>
       <use xlink:href="#m427e8e4408" x="60.598945" y="166.900414" style="stroke: #000000; stroke-width: 0.6"/>
      </g>
     </g>
    </g>
    <g id="ytick_19">
     <g id="line2d_43">
      <g>
       <use xlink:href="#m427e8e4408" x="60.598945" y="162.650436" style="stroke: #000000; stroke-width: 0.6"/>
      </g>
     </g>
    </g>
    <g id="ytick_20">
     <g id="line2d_44">
      <g>
       <use xlink:href="#m427e8e4408" x="60.598945" y="133.837798" style="stroke: #000000; stroke-width: 0.6"/>
      </g>
     </g>
    </g>
    <g id="ytick_21">
     <g id="line2d_45">
      <g>
       <use xlink:href="#m427e8e4408" x="60.598945" y="119.207357" style="stroke: #000000; stroke-width: 0.6"/>
      </g>
     </g>
    </g>
    <g id="ytick_22">
     <g id="line2d_46">
      <g>
       <use xlink:href="#m427e8e4408" x="60.598945" y="108.826894" style="stroke: #000000; stroke-width: 0.6"/>
      </g>
     </g>
    </g>
    <g id="ytick_23">
     <g id="line2d_47">
      <g>
       <use xlink:href="#m427e8e4408" x="60.598945" y="100.775181" style="stroke: #000000; stroke-width: 0.6"/>
      </g>
     </g>
    </g>
    <g id="ytick_24">
     <g id="line2d_48">
      <g>
       <use xlink:href="#m427e8e4408" x="60.598945" y="94.196453" style="stroke: #000000; stroke-width: 0.6"/>
      </g>
     </g>
    </g>
    <g id="ytick_25">
     <g id="line2d_49">
      <g>
       <use xlink:href="#m427e8e4408" x="60.598945" y="88.634218" style="stroke: #000000; stroke-width: 0.6"/>
      </g>
     </g>
    </g>
    <g id="ytick_26">
     <g id="line2d_50">
      <g>
       <use xlink:href="#m427e8e4408" x="60.598945" y="83.81599" style="stroke: #000000; stroke-width: 0.6"/>
      </g>
     </g>
    </g>
    <g id="ytick_27">
     <g id="line2d_51">
      <g>
       <use xlink:href="#m427e8e4408" x="60.598945" y="79.566012" style="stroke: #000000; stroke-width: 0.6"/>
      </g>
     </g>
    </g>
    <g id="ytick_28">
     <g id="line2d_52">
      <g>
       <use xlink:href="#m427e8e4408" x="60.598945" y="50.753374" style="stroke: #000000; stroke-width: 0.6"/>
      </g>
     </g>
    </g>
    <g id="text_11">
     <!-- Ion Current (m/z 44) -->
     <g transform="translate(17.392383 234.056768) rotate(-90) scale(0.14 -0.14)">
      <defs>
       <path id="ArialMT-2c" d="M 597 0 
L 597 4581 
L 1203 4581 
L 1203 0 
L 597 0 
z
" transform="scale(0.015625)"/>
       <path id="ArialMT-52" d="M 213 1659 
Q 213 2581 725 3025 
Q 1153 3394 1769 3394 
Q 2453 3394 2887 2945 
Q 3322 2497 3322 1706 
Q 3322 1066 3130 698 
Q 2938 331 2570 128 
Q 2203 -75 1769 -75 
Q 1072 -75 642 372 
Q 213 819 213 1659 
z
M 791 1659 
Q 791 1022 1069 705 
Q 1347 388 1769 388 
Q 2188 388 2466 706 
Q 2744 1025 2744 1678 
Q 2744 2294 2464 2611 
Q 2184 2928 1769 2928 
Q 1347 2928 1069 2612 
Q 791 2297 791 1659 
z
" transform="scale(0.015625)"/>
       <path id="ArialMT-51" d="M 422 0 
L 422 3319 
L 928 3319 
L 928 2847 
Q 1294 3394 1984 3394 
Q 2284 3394 2536 3286 
Q 2788 3178 2913 3003 
Q 3038 2828 3088 2588 
Q 3119 2431 3119 2041 
L 3119 0 
L 2556 0 
L 2556 2019 
Q 2556 2363 2490 2533 
Q 2425 2703 2258 2804 
Q 2091 2906 1866 2906 
Q 1506 2906 1245 2678 
Q 984 2450 984 1813 
L 984 0 
L 422 0 
z
" transform="scale(0.015625)"/>
       <path id="ArialMT-12" d="M 0 -78 
L 1328 4659 
L 1778 4659 
L 453 -78 
L 0 -78 
z
" transform="scale(0.015625)"/>
       <path id="ArialMT-5d" d="M 125 0 
L 125 456 
L 2238 2881 
Q 1878 2863 1603 2863 
L 250 2863 
L 250 3319 
L 2963 3319 
L 2963 2947 
L 1166 841 
L 819 456 
Q 1197 484 1528 484 
L 3063 484 
L 3063 0 
L 125 0 
z
" transform="scale(0.015625)"/>
      </defs>
      <use xlink:href="#ArialMT-2c"/>
      <use xlink:href="#ArialMT-52" transform="translate(27.78125 0)"/>
      <use xlink:href="#ArialMT-51" transform="translate(83.390625 0)"/>
      <use xlink:href="#ArialMT-3" transform="translate(139 0)"/>
      <use xlink:href="#ArialMT-26" transform="translate(166.78125 0)"/>
      <use xlink:href="#ArialMT-58" transform="translate(239 0)"/>
      <use xlink:href="#ArialMT-55" transform="translate(294.609375 0)"/>
      <use xlink:href="#ArialMT-55" transform="translate(327.90625 0)"/>
      <use xlink:href="#ArialMT-48" transform="translate(361.203125 0)"/>
      <use xlink:href="#ArialMT-51" transform="translate(416.8125 0)"/>
      <use xlink:href="#ArialMT-57" transform="translate(472.421875 0)"/>
      <use xlink:href="#ArialMT-3" transform="translate(500.203125 0)"/>
      <use xlink:href="#ArialMT-b" transform="translate(527.984375 0)"/>
      <use xlink:href="#ArialMT-50" transform="translate(561.28125 0)"/>
      <use xlink:href="#ArialMT-12" transform="translate(644.578125 0)"/>
      <use xlink:href="#ArialMT-5d" transform="translate(672.359375 0)"/>
      <use xlink:href="#ArialMT-3" transform="translate(722.359375 0)"/>
      <use xlink:href="#ArialMT-17" transform="translate(750.140625 0)"/>
      <use xlink:href="#ArialMT-17" transform="translate(805.75 0)"/>
      <use xlink:href="#ArialMT-c" transform="translate(861.359375 0)"/>
     </g>
    </g>
   </g>
   <g id="line2d_53">
    <path d="M 59.617544 256.928271 
L 59.579798 271.837399 
L 59.542052 267.434543 
L 59.806275 266.246497 
L 60.598945 266.446993 
L 62.108793 269.097152 
L 64.298073 269.946357 
L 66.600592 267.99716 
L 68.714379 264.812977 
L 70.48845 260.838262 
L 71.960552 258.239189 
L 73.243923 258.080836 
L 74.376309 259.284468 
L 75.470949 257.825871 
L 76.527843 264.941688 
L 77.660229 271.794874 
L 78.754869 273.020175 
L 79.887255 276.815157 
L 81.095133 274.822777 
L 82.303012 275.314602 
L 84.681022 270.45171 
L 85.888901 271.39654 
L 87.210018 270.51785 
L 88.531135 280.192006 
L 89.77676 282.110287 
L 91.022384 274.554205 
L 92.230263 277.608509 
L 93.438141 274.026911 
L 94.608274 277.74235 
L 95.778406 266.497958 
L 96.948538 269.125416 
L 98.080924 269.448685 
L 99.326549 269.158094 
L 100.534428 267.677439 
L 101.70456 265.797504 
L 102.874692 262.319156 
L 104.044824 261.096781 
L 105.214957 258.900548 
L 106.422835 257.829936 
L 107.592967 252.952741 
L 108.725353 254.503548 
L 109.85774 257.839738 
L 110.990126 259.08399 
L 112.198004 261.333557 
L 113.368136 266.108472 
L 114.576015 265.606929 
L 115.783893 260.314261 
L 116.991772 262.993588 
L 118.124158 256.038202 
L 119.29429 249.625783 
L 120.464422 246.475181 
L 121.672301 250.116379 
L 122.842433 244.621866 
L 124.050312 241.819468 
L 125.295936 240.005828 
L 127.673947 232.043952 
L 128.844079 233.741154 
L 130.014212 233.597142 
L 131.184344 231.708616 
L 132.354476 232.972174 
L 133.524608 233.358024 
L 134.656995 229.517148 
L 135.864873 227.747037 
L 137.072751 227.060589 
L 139.526255 221.882559 
L 140.696387 222.147444 
L 141.791027 220.940186 
L 142.998905 216.507313 
L 144.131291 215.959511 
L 145.301424 213.85803 
L 146.471556 210.236565 
L 147.641688 207.475037 
L 148.887313 205.935218 
L 150.095191 203.63653 
L 151.227577 202.068111 
L 152.435456 199.184467 
L 153.605588 197.369459 
L 154.77572 194.78958 
L 156.021345 193.460993 
L 157.153731 191.565035 
L 158.286117 187.665155 
L 159.45625 184.946784 
L 160.626382 181.896408 
L 161.872006 179.708328 
L 163.042139 177.063308 
L 165.42015 170.513089 
L 166.628028 167.425929 
L 169.006039 163.215 
L 171.270811 158.089977 
L 172.440943 156.70544 
L 173.648822 154.324822 
L 174.818954 151.619518 
L 175.989086 149.844489 
L 177.196965 147.281847 
L 179.499483 140.144182 
L 180.707361 135.724879 
L 181.877494 132.337679 
L 183.047626 128.217285 
L 185.387891 122.295083 
L 186.558023 120.577858 
L 188.97378 118.278338 
L 190.06842 116.680394 
L 191.314044 114.257589 
L 192.559669 111.159166 
L 193.767548 108.513001 
L 194.899934 104.556975 
L 198.523569 94.117748 
L 199.655955 91.28529 
L 200.788341 89.237069 
L 201.958473 87.702697 
L 203.09086 86.755669 
L 204.298738 86.597092 
L 205.506617 87.091341 
L 206.676749 87.756655 
L 207.846881 88.816321 
L 209.05476 90.303884 
L 211.395024 92.035407 
L 212.565156 92.436354 
L 213.773035 91.945276 
L 214.905421 91.002689 
L 216.075553 89.370743 
L 219.699189 81.500243 
L 220.793828 79.827584 
L 221.963961 78.714583 
L 223.171839 78.829289 
L 224.341972 79.645497 
L 225.512104 81.068001 
L 226.719982 83.22969 
L 229.022501 88.449701 
L 230.230379 90.692311 
L 231.362765 93.558747 
L 233.70303 98.77012 
L 234.873162 101.655952 
L 237.251173 106.647515 
L 238.383559 108.08741 
L 239.591437 109.055543 
L 240.76157 109.268857 
L 241.931702 107.51056 
L 243.13958 106.10519 
L 244.271966 104.25535 
L 245.479845 103.522611 
L 246.649977 104.35895 
L 247.857856 106.787044 
L 250.160374 114.637069 
L 252.538385 124.553002 
L 253.708517 126.698589 
L 254.840903 128.232978 
L 256.048782 128.408968 
L 257.218914 128.90322 
L 259.634671 131.063807 
L 260.767057 132.052095 
L 261.974935 132.579363 
L 263.182814 133.290737 
L 265.523078 133.811145 
L 267.901089 135.321901 
L 269.033475 136.016033 
L 270.203607 137.045766 
L 272.506126 138.431892 
L 273.751751 138.593492 
L 274.884137 138.368497 
L 276.092015 138.373153 
L 277.262147 138.805774 
L 279.564666 138.777521 
L 280.772544 138.390866 
L 281.942676 138.218593 
L 284.282941 136.609887 
L 286.660952 130.324732 
L 290.209095 125.060013 
L 291.341481 123.739997 
L 292.511613 123.310386 
L 293.719492 123.030571 
L 294.889624 122.604549 
L 296.02201 121.433064 
L 297.267635 118.376936 
L 298.400021 115.057918 
L 299.607899 111.07257 
L 301.910418 99.566571 
L 303.042804 93.590886 
L 304.212936 88.940403 
L 305.496307 84.801223 
L 306.704185 81.885776 
L 307.94981 80.538809 
L 309.119942 80.674497 
L 310.327821 82.267104 
L 311.535699 84.661797 
L 312.743578 87.54297 
L 315.046096 94.11606 
L 316.216228 97.379505 
L 317.348614 99.433305 
L 318.518747 101.203735 
L 320.896757 105.741341 
L 322.06689 108.261302 
L 323.237022 109.771921 
L 324.407154 111.00379 
L 325.615033 111.930284 
L 326.747419 112.556764 
L 327.879805 112.031457 
L 331.427948 107.526856 
L 332.635826 106.336109 
L 333.768212 104.902209 
L 334.976091 104.219367 
L 336.108477 103.784105 
L 337.316355 104.155536 
L 338.486488 105.000331 
L 339.618874 106.152125 
L 340.789006 107.654362 
L 341.996885 109.729077 
L 344.337149 115.153954 
L 345.469535 118.137978 
L 351.395689 137.713306 
L 352.565821 141.224489 
L 354.906086 146.961133 
L 356.076218 148.736875 
L 357.208604 150.093204 
L 358.454229 151.241646 
L 359.624361 152.14162 
L 361.964626 154.607356 
L 363.097012 155.456644 
L 364.30489 156.711228 
L 365.39953 156.755567 
L 366.645155 157.153331 
L 367.815287 157.233941 
L 369.023165 157.781306 
L 370.117805 158.120816 
L 371.287938 159.486087 
L 372.495816 159.792371 
L 373.703695 161.053612 
L 374.798334 161.466978 
L 377.214091 161.571046 
L 382.309829 163.168608 
L 383.517707 165.191004 
L 384.725586 165.206737 
L 385.857972 165.913013 
L 388.311475 164.475571 
L 390.651739 163.667626 
L 391.821872 163.362563 
L 392.992004 163.487359 
L 394.162136 163.985978 
L 395.294522 165.412163 
L 396.502401 166.261381 
L 397.634787 167.469926 
L 400.012798 168.990527 
L 401.220676 168.57152 
L 402.353062 168.583586 
L 403.560941 167.935795 
L 404.768819 167.634173 
L 405.938951 166.238069 
L 407.071338 165.790736 
L 408.203724 164.720691 
L 409.524841 164.303582 
L 410.581734 163.712731 
L 411.789613 161.844053 
L 412.921999 159.782334 
L 414.054385 157.979367 
L 415.30001 156.383335 
L 417.640274 155.039684 
L 418.810407 155.074877 
L 420.093777 155.284731 
L 421.150671 156.155047 
L 423.415443 157.31536 
L 424.925291 157.626048 
L 425.982185 157.43263 
L 427.076825 157.591792 
L 428.284703 157.945865 
L 429.454836 158.088423 
L 430.624968 158.772824 
L 431.757354 158.971504 
L 432.927486 158.23949 
L 435.305497 157.808754 
L 436.437883 156.392283 
L 437.608015 155.113109 
L 438.778148 153.367509 
L 441.269397 149.107388 
L 442.326291 147.58752 
L 443.534169 144.946112 
L 445.949926 138.708543 
L 448.139206 131.709657 
L 450.47947 124.4836 
L 452.932974 118.771772 
L 454.140852 116.390272 
L 455.122253 113.456582 
L 456.632101 110.254774 
L 459.236589 104.146689 
L 460.595453 101.351376 
L 461.576854 98.667626 
L 462.935717 95.756866 
L 463.992611 93.201082 
L 465.238236 90.500146 
L 467.5785 84.024331 
L 468.559901 79.874626 
L 469.994257 75.727912 
L 470.900166 71.955905 
L 473.353669 65.848773 
L 474.63704 63.754721 
L 475.656187 62.525508 
L 476.864066 62.164432 
L 478.071944 62.45352 
L 480.449955 63.735118 
L 482.639235 65.260198 
L 483.960352 65.891225 
L 485.092738 65.748194 
L 486.26287 65.75762 
L 489.84876 64.026533 
L 493.434649 61.688675 
L 493.434649 61.688675 
" clip-path="url(#pcb30ee695d)" style="fill: none; stroke: #000000; stroke-width: 2.5; stroke-linecap: square"/>
   </g>
   <g id="line2d_54">
    <path d="M 59.013605 256.100106 
L 59.013605 279.324065 
L 59.013605 263.520663 
L 59.466559 260.812793 
L 60.523453 259.098571 
L 62.297524 259.23899 
L 64.52455 261.698932 
L 66.71383 263.080888 
L 68.638886 271.559185 
L 70.261973 271.64417 
L 71.658583 271.247184 
L 72.866461 270.278113 
L 73.961101 276.47967 
L 75.055741 272.622795 
L 76.150381 270.12066 
L 77.245021 264.271319 
L 78.377407 264.848094 
L 79.547539 265.069912 
L 80.717671 271.540464 
L 81.887803 274.323446 
L 83.095682 274.226693 
L 84.30356 278.694661 
L 85.511439 280.858948 
L 86.832556 281.887856 
L 88.115927 275.480929 
L 89.399298 268.405387 
L 90.682669 268.628237 
L 91.890547 268.283265 
L 93.098426 272.157405 
L 94.268558 274.880286 
L 95.43869 278.324216 
L 96.608822 279.834976 
L 97.778955 283.470917 
L 98.949087 285.641665 
L 100.119219 275.197246 
L 102.49723 264.283398 
L 103.667362 264.116884 
L 104.837495 264.186874 
L 106.007627 263.348099 
L 107.140013 268.655728 
L 108.272399 268.114205 
L 109.480277 269.559666 
L 110.688156 266.979387 
L 111.896034 266.766168 
L 113.066167 266.950062 
L 114.198553 266.039899 
L 115.406431 262.351973 
L 116.576564 255.881194 
L 117.746696 255.587932 
L 118.916828 256.455802 
L 120.08696 254.739372 
L 121.332585 252.277666 
L 122.502717 252.025724 
L 123.67285 251.951712 
L 124.880728 250.377611 
L 126.05086 247.278834 
L 127.258739 239.92789 
L 128.428871 238.079205 
L 129.599003 238.485307 
L 130.806882 234.328976 
L 133.147146 232.523613 
L 134.317279 229.963494 
L 135.525157 230.117451 
L 136.695289 231.278437 
L 139.035554 221.588198 
L 140.243432 219.51178 
L 141.413565 216.96393 
L 142.621443 212.009741 
L 143.791576 209.143965 
L 144.999454 206.783654 
L 146.169586 205.387579 
L 147.339719 205.124636 
L 148.547597 204.360251 
L 149.717729 200.124926 
L 150.925608 196.330539 
L 152.09574 194.626423 
L 153.303619 190.884191 
L 154.473751 186.186631 
L 156.738523 178.683286 
L 157.908655 175.777258 
L 162.740169 161.600631 
L 163.948048 159.296985 
L 165.080434 155.974801 
L 166.288312 153.631561 
L 167.458444 151.11597 
L 169.836455 147.205794 
L 171.006587 145.712899 
L 172.101227 143.938609 
L 173.309106 141.22313 
L 175.611624 136.875822 
L 176.819503 133.834331 
L 177.914143 130.536733 
L 179.122021 126.400948 
L 180.329899 123.020201 
L 181.537778 120.525434 
L 182.670164 119.013946 
L 183.840296 117.773267 
L 185.010429 116.271855 
L 187.426186 113.590806 
L 188.596318 111.956723 
L 189.76645 109.920288 
L 192.182207 103.858735 
L 193.427832 101.490633 
L 196.975975 92.999333 
L 198.146107 90.544087 
L 199.278493 89.095842 
L 200.448625 88.163965 
L 201.618758 88.213829 
L 202.826636 88.77232 
L 203.959022 89.905568 
L 205.129154 91.382734 
L 207.469419 93.725482 
L 208.639551 94.599293 
L 209.885176 95.204937 
L 211.017562 95.930008 
L 212.225441 95.807255 
L 215.773584 96.066629 
L 216.90597 96.215536 
L 218.076102 96.067167 
L 221.586499 96.179898 
L 222.756631 96.428982 
L 223.926763 96.533598 
L 225.096896 96.937772 
L 226.304774 97.682663 
L 227.512653 98.922003 
L 228.682785 100.545887 
L 229.815171 101.649142 
L 232.155435 104.792629 
L 233.325568 106.38676 
L 234.533446 107.549495 
L 236.873711 110.748978 
L 238.043843 112.096007 
L 239.251721 113.226491 
L 240.421854 113.932331 
L 241.591986 114.858905 
L 242.762118 116.296907 
L 243.932251 117.495764 
L 245.102383 118.273353 
L 246.272515 118.590773 
L 247.442647 120.08514 
L 248.575033 121.272218 
L 251.028537 122.963139 
L 252.198669 123.397967 
L 253.368801 124.595458 
L 255.709066 127.813 
L 256.879198 129.046074 
L 258.124823 130.614305 
L 259.257209 132.346605 
L 260.502833 133.678812 
L 261.63522 134.079502 
L 262.805352 134.633169 
L 263.975484 135.699431 
L 265.145616 135.760741 
L 266.353495 136.22751 
L 267.523627 137.320729 
L 268.693759 137.75213 
L 269.901638 138.435433 
L 270.996278 138.351927 
L 272.16641 138.893986 
L 273.374288 138.637784 
L 275.714553 140.033929 
L 276.884685 139.584043 
L 278.092564 139.526781 
L 279.22495 139.169643 
L 280.395082 138.288367 
L 283.943225 135.075148 
L 285.151104 134.299573 
L 286.321236 133.192155 
L 288.6615 128.077051 
L 292.171897 114.63028 
L 293.379776 108.903507 
L 294.549908 102.634411 
L 296.890173 89.186454 
L 298.060305 82.788225 
L 299.268183 77.315515 
L 300.362823 73.033315 
L 301.570702 70.36239 
L 302.77858 69.790991 
L 303.948712 70.877699 
L 305.156591 73.477626 
L 306.364469 77.542494 
L 307.572348 82.6539 
L 308.780226 88.342087 
L 311.158237 98.000155 
L 313.498502 104.099198 
L 315.838766 108.921174 
L 317.046645 111.753134 
L 319.386909 117.729104 
L 321.689428 122.282045 
L 322.935052 124.640315 
L 324.029692 126.356135 
L 327.540089 133.979877 
L 329.842607 139.020982 
L 331.088232 140.642513 
L 332.220618 141.749841 
L 333.428497 143.792237 
L 335.768761 146.277765 
L 336.901147 148.130012 
L 338.033533 149.624736 
L 339.279158 150.327586 
L 340.487036 150.737819 
L 341.657169 150.78304 
L 342.789555 150.254035 
L 343.921941 150.604238 
L 345.054327 151.145951 
L 346.299952 151.241384 
L 347.470084 152.060527 
L 348.677962 152.197212 
L 349.923587 152.150861 
L 350.980481 152.293101 
L 352.150613 152.672433 
L 353.396238 152.555194 
L 354.528624 152.124306 
L 355.811995 152.813574 
L 356.831142 152.667607 
L 357.963528 152.898363 
L 359.246899 153.009389 
L 360.379285 152.578101 
L 362.757296 152.855109 
L 364.002921 153.97404 
L 365.135307 154.386571 
L 366.267693 155.133398 
L 367.437825 156.206111 
L 368.68345 156.708441 
L 372.1561 159.194244 
L 374.458619 160.389732 
L 376.761137 161.99253 
L 377.969015 162.226767 
L 379.21464 163.101068 
L 380.460265 162.988078 
L 381.894621 162.494269 
L 383.177991 163.210952 
L 385.48051 164.975263 
L 386.688388 164.983629 
L 387.971759 165.433319 
L 389.104145 165.508878 
L 390.236531 165.237626 
L 391.406664 165.408168 
L 393.860167 166.14597 
L 395.030299 168.031495 
L 396.0117 170.067617 
L 397.332817 171.173395 
L 398.540696 171.755051 
L 399.673082 173.671122 
L 400.843214 173.296204 
L 402.088839 173.541824 
L 403.258971 172.618314 
L 404.353611 173.128521 
L 405.561489 173.382284 
L 406.731622 173.838497 
L 407.901754 172.993472 
L 409.03414 173.273669 
L 410.279765 173.85155 
L 411.487643 174.08599 
L 412.544537 173.959037 
L 413.639177 173.523472 
L 414.960294 172.667432 
L 416.130426 172.915708 
L 419.640823 172.881057 
L 420.810955 174.649867 
L 421.905595 173.118081 
L 423.15122 172.69166 
L 424.396844 171.165881 
L 425.604723 169.183733 
L 426.661617 168.280834 
L 427.831749 166.345323 
L 429.266105 164.858384 
L 430.360744 162.772666 
L 431.455384 161.596115 
L 433.757903 156.50108 
L 434.852543 154.867191 
L 436.060421 152.387573 
L 438.362939 149.712443 
L 439.64631 147.325104 
L 440.891935 144.478273 
L 441.986575 141.501748 
L 443.081215 137.786918 
L 445.421479 128.688739 
L 446.70485 123.979706 
L 447.79949 118.889651 
L 450.102008 110.729425 
L 454.669299 98.284429 
L 456.216893 96.25758 
L 457.764487 94.551662 
L 460.067006 91.764958 
L 461.350377 91.174218 
L 462.558255 90.166074 
L 463.50191 89.153995 
L 464.860774 87.4141 
L 467.087799 81.700647 
L 469.541303 75.169382 
L 470.598196 72.858481 
L 471.843821 71.529544 
L 472.862968 71.271701 
L 474.184086 71.800146 
L 475.354218 73.12068 
L 477.694482 76.514275 
L 478.902361 78.347146 
L 480.261224 79.881544 
L 482.412758 84.37718 
L 483.771621 86.994512 
L 484.639784 89.747969 
L 485.923154 92.59546 
L 488.074688 96.589225 
L 489.358059 97.273716 
L 490.679176 97.391898 
L 491.962547 97.069221 
L 492.906202 96.446068 
L 493.887603 95.663734 
L 493.887603 95.663734 
" clip-path="url(#pcb30ee695d)" style="fill: none; stroke: #1f77b4; stroke-width: 2.5; stroke-linecap: square"/>
   </g>
   <g id="line2d_55">
    <path d="M 58.636143 252.849223 
L 58.636143 257.886277 
L 58.598397 248.117167 
L 58.673889 255.831557 
L 59.013605 261.141523 
L 61.84457 268.226065 
L 63.996104 268.017417 
L 66.223129 266.897342 
L 68.185932 272.038404 
L 69.809019 278.947585 
L 71.205628 283.63523 
L 72.413507 277.850375 
L 73.508147 273.322905 
L 74.602786 269.426692 
L 75.697426 267.164137 
L 76.792066 262.025736 
L 77.924452 261.564646 
L 79.094585 257.501963 
L 80.264717 258.722701 
L 81.472595 263.8401 
L 82.680474 272.275375 
L 83.850606 274.431833 
L 85.058484 284.245697 
L 86.304109 291.205218 
L 87.58748 283.5743 
L 88.908597 278.049774 
L 90.229714 274.084974 
L 91.437593 262.500341 
L 92.607725 253.513221 
L 93.777857 253.075656 
L 94.910243 258.042799 
L 96.080376 259.556732 
L 97.250508 268.583902 
L 98.458386 274.51249 
L 99.628519 274.17229 
L 100.798651 279.142304 
L 102.006529 265.979091 
L 103.214408 257.893187 
L 104.422286 253.296167 
L 105.630165 251.71463 
L 106.762551 251.623248 
L 107.932683 252.301942 
L 109.178308 252.173603 
L 110.34844 253.564554 
L 111.480826 256.396684 
L 112.53772 257.402622 
L 113.707852 257.662235 
L 114.953477 262.892335 
L 116.161355 263.647157 
L 117.369234 258.915637 
L 118.539366 253.372293 
L 119.747245 248.755642 
L 120.955123 241.339495 
L 122.125255 240.36067 
L 123.257641 239.173367 
L 124.46552 236.057304 
L 125.635652 235.727382 
L 126.843531 235.79023 
L 128.013663 233.310246 
L 129.259288 231.719155 
L 130.467166 226.980245 
L 131.637298 226.96481 
L 132.807431 224.174481 
L 133.939817 223.936453 
L 135.109949 220.846402 
L 136.280081 217.421291 
L 137.563452 215.66713 
L 138.771331 215.413791 
L 139.903717 214.881117 
L 141.036103 211.828004 
L 143.376367 207.788178 
L 144.584246 203.84519 
L 145.792124 200.847343 
L 149.340267 187.174872 
L 150.472653 184.609319 
L 151.680532 180.515454 
L 152.88841 175.17683 
L 154.058543 173.183181 
L 155.228675 169.335312 
L 158.776818 159.286438 
L 159.984696 156.61092 
L 161.154829 153.554629 
L 162.324961 151.35001 
L 163.495093 149.55501 
L 164.665225 147.149153 
L 165.835358 146.607077 
L 168.213368 142.399331 
L 169.383501 140.800152 
L 170.591379 138.930441 
L 172.931644 134.268343 
L 174.101776 131.508328 
L 175.271908 129.054013 
L 177.612173 122.476657 
L 179.914691 116.271501 
L 182.292702 111.860976 
L 183.462834 110.232287 
L 184.632967 108.268413 
L 188.256602 101.285218 
L 189.426734 98.861728 
L 190.634613 96.759699 
L 191.804745 94.335328 
L 193.05037 92.242573 
L 194.220502 90.041698 
L 195.390634 88.831435 
L 196.52302 87.488695 
L 197.693153 86.950215 
L 198.863285 87.020387 
L 200.033417 87.444625 
L 202.411428 89.672503 
L 203.58156 90.923028 
L 204.789439 91.945088 
L 205.921825 92.684131 
L 207.054211 93.834298 
L 208.299835 94.478937 
L 209.507714 95.45638 
L 210.677846 96.154807 
L 213.018111 97.270795 
L 214.150497 98.031692 
L 215.396122 99.050617 
L 216.528508 99.667584 
L 217.69864 100.524817 
L 218.906518 101.557523 
L 221.246783 104.022644 
L 222.379169 104.663103 
L 225.927312 107.467086 
L 227.135191 108.444912 
L 228.267577 109.054117 
L 229.475455 110.231319 
L 231.81572 112.982805 
L 234.118238 115.084933 
L 236.496249 116.545694 
L 237.666381 117.254238 
L 238.836513 118.362466 
L 240.044392 119.235412 
L 241.176778 119.811048 
L 242.384656 120.655211 
L 243.554789 121.269738 
L 244.724921 122.055325 
L 245.857307 123.106541 
L 247.065185 123.002703 
L 248.235318 124.09163 
L 249.367704 124.87148 
L 250.575582 125.961099 
L 251.707968 126.829561 
L 252.953593 126.986942 
L 254.048233 127.735974 
L 255.293858 128.331093 
L 256.46399 129.753692 
L 257.596376 130.431532 
L 258.804254 131.532449 
L 259.974387 132.859748 
L 262.352397 134.677793 
L 263.52253 135.491905 
L 264.692662 135.899742 
L 267.032926 137.013631 
L 268.203059 137.623842 
L 269.410937 137.676328 
L 270.543323 138.297485 
L 271.788948 138.552756 
L 272.921334 138.32033 
L 274.129213 137.467958 
L 275.299345 136.919796 
L 276.393985 135.916398 
L 279.979874 133.917844 
L 281.150006 133.761022 
L 283.528017 132.79251 
L 284.660403 131.085535 
L 285.906028 128.026094 
L 287.113906 124.695746 
L 288.246292 120.10255 
L 289.416425 116.407238 
L 291.794435 104.787038 
L 294.1347 91.419797 
L 295.267086 84.5401 
L 296.512711 78.648382 
L 297.645097 74.111788 
L 298.777483 71.080825 
L 299.947615 69.911462 
L 301.155493 70.362043 
L 302.325626 71.858665 
L 304.703637 76.081292 
L 305.873769 77.381719 
L 308.402764 78.268984 
L 309.497404 79.208636 
L 310.743029 81.246886 
L 311.913161 84.688982 
L 313.083293 89.414413 
L 316.555944 106.095282 
L 317.763823 109.785729 
L 318.971701 112.296563 
L 321.274219 114.680156 
L 322.519844 115.801114 
L 323.65223 116.554162 
L 324.784616 117.728365 
L 325.992495 117.388285 
L 327.162627 117.647792 
L 328.332759 117.364035 
L 329.427399 117.803532 
L 330.635278 117.945094 
L 331.80541 118.495219 
L 334.221167 120.454254 
L 335.315807 121.924656 
L 336.485939 123.235183 
L 337.656071 124.733148 
L 338.826204 126.450916 
L 340.034082 127.831317 
L 341.24196 128.838776 
L 342.374347 129.320206 
L 343.582225 130.229978 
L 344.752357 131.671063 
L 345.960236 133.726169 
L 348.187262 138.037412 
L 349.39514 141.223829 
L 351.773151 145.523621 
L 352.905537 147.009824 
L 354.113416 147.023849 
L 355.35904 147.172429 
L 356.491426 148.451845 
L 357.586066 150.290792 
L 358.831691 151.13556 
L 363.587712 151.508107 
L 364.682352 151.769454 
L 365.890231 151.711941 
L 369.400628 155.760712 
L 370.533014 156.188459 
L 371.6654 157.008325 
L 372.911024 157.175725 
L 374.118903 159.303737 
L 376.383675 162.585612 
L 377.6293 163.260087 
L 378.72394 164.770064 
L 380.00731 164.180861 
L 381.441666 164.240483 
L 382.762783 163.242519 
L 385.17854 162.991968 
L 386.348672 164.619682 
L 387.556551 165.641047 
L 388.688937 166.406006 
L 389.859069 166.639598 
L 391.066948 168.124753 
L 392.23708 168.129939 
L 393.33172 168.834475 
L 394.615091 168.979477 
L 395.785223 170.155949 
L 396.955355 170.579214 
L 398.087741 171.454326 
L 399.220127 172.830961 
L 400.352514 173.374605 
L 402.806017 174.895839 
L 403.976149 174.731439 
L 405.033043 174.707251 
L 407.562038 173.636209 
L 408.618932 173.046874 
L 409.864557 173.922365 
L 410.996943 174.283089 
L 412.204821 174.867971 
L 414.620578 173.754598 
L 415.715218 174.920381 
L 416.847604 175.704931 
L 418.130975 175.740045 
L 419.338853 174.603337 
L 420.508986 174.351152 
L 421.641372 175.127055 
L 422.736012 174.064663 
L 423.94389 172.37872 
L 425.189515 169.759008 
L 427.567525 167.291948 
L 428.624419 164.917539 
L 430.926938 160.845063 
L 432.172562 159.251775 
L 433.19171 158.292252 
L 434.512827 156.294012 
L 435.645213 154.308573 
L 436.815345 153.198502 
L 438.06097 151.297981 
L 440.438981 146.468975 
L 441.53362 143.686866 
L 442.666006 141.294024 
L 445.081763 135.411549 
L 446.251896 132.135674 
L 447.459774 129.230207 
L 448.478922 126.174159 
L 450.932425 121.031388 
L 452.064811 118.409976 
L 453.272689 116.034753 
L 454.367329 113.545987 
L 457.085056 108.322143 
L 458.519411 105.436563 
L 460.859676 100.070906 
L 464.445565 94.010709 
L 465.540205 92.512649 
L 467.842723 88.659223 
L 470.145242 83.057173 
L 472.636491 77.874092 
L 474.825771 74.86623 
L 476.071396 73.913907 
L 477.31702 73.869666 
L 478.487153 74.294873 
L 480.789671 76.374753 
L 481.997549 77.91745 
L 484.451053 82.450424 
L 485.4702 85.379141 
L 486.753571 87.947229 
L 487.923703 90.866546 
L 488.905104 93.879968 
L 490.075237 96.76977 
L 492.717471 101.218736 
L 493.585634 102.199609 
L 493.585634 102.199609 
" clip-path="url(#pcb30ee695d)" style="fill: none; stroke: #d62728; stroke-width: 2.5; stroke-linecap: square"/>
   </g>
   <g id="line2d_56">
    <path d="M 60.372468 250.120236 
L 60.334722 278.596752 
L 60.447961 255.362698 
L 61.014154 260.799427 
L 62.297524 260.670291 
L 64.222581 267.580209 
L 66.41186 270.561378 
L 68.487902 267.580556 
L 70.337466 268.381151 
L 71.847314 265.412648 
L 73.206177 260.630018 
L 74.338563 252.424572 
L 75.433203 253.064068 
L 76.527843 258.536531 
L 78.754869 261.963201 
L 81.057387 259.909457 
L 82.227519 258.977074 
L 83.435398 254.883578 
L 84.643276 249.80993 
L 85.888901 253.497948 
L 87.172272 259.267383 
L 88.531135 261.497824 
L 89.77676 259.116091 
L 91.022384 258.342773 
L 92.230263 261.672403 
L 93.400395 258.257962 
L 94.570528 256.299877 
L 95.74066 257.171868 
L 96.910792 257.301933 
L 98.118671 263.359204 
L 99.288803 270.25634 
L 100.421189 267.282471 
L 101.591321 265.462998 
L 102.723707 266.204187 
L 103.931586 263.257859 
L 105.101718 262.124955 
L 107.479729 267.025712 
L 108.649861 261.850822 
L 109.895486 259.169975 
L 111.065618 262.364583 
L 112.23575 256.743503 
L 113.481375 256.580923 
L 114.576015 256.907686 
L 115.783893 253.915228 
L 116.954026 260.146468 
L 118.124158 253.385295 
L 119.29429 249.76799 
L 120.464422 243.524831 
L 121.596808 239.899812 
L 122.766941 237.391143 
L 123.937073 233.860273 
L 125.144951 232.422831 
L 126.315084 232.493577 
L 127.522962 230.648955 
L 128.730841 231.872994 
L 129.900973 227.62699 
L 131.108851 227.273731 
L 132.278984 224.342188 
L 133.449116 222.036551 
L 135.864873 216.703192 
L 138.28063 213.476664 
L 139.488508 211.913174 
L 140.658641 212.724246 
L 141.828773 209.653193 
L 142.998905 209.013753 
L 144.206784 206.140768 
L 145.376916 202.970296 
L 148.962805 191.355328 
L 151.30307 181.7082 
L 152.510948 177.968568 
L 153.681081 172.275147 
L 154.888959 169.32833 
L 159.493996 153.03667 
L 160.664128 149.745083 
L 163.042139 141.965128 
L 166.552536 132.308326 
L 170.025186 123.911129 
L 174.818954 115.18396 
L 176.026832 113.381821 
L 177.196965 110.781852 
L 180.745108 101.759221 
L 181.877494 99.134756 
L 184.180012 95.582955 
L 187.728155 92.445104 
L 188.97378 90.828283 
L 190.106166 88.993448 
L 191.276298 86.760574 
L 192.521923 84.693332 
L 193.692055 82.096445 
L 199.618209 67.720418 
L 200.788341 65.442706 
L 201.99622 63.921432 
L 203.128606 63.05703 
L 204.298738 63.019611 
L 205.46887 63.641864 
L 206.676749 64.807679 
L 207.809135 66.130844 
L 211.357278 71.186018 
L 212.565156 72.647664 
L 213.697542 74.707029 
L 214.867675 75.152928 
L 216.075553 74.798482 
L 219.623696 74.392123 
L 220.793828 74.99833 
L 221.963961 76.109414 
L 223.171839 77.775798 
L 224.379718 80.047587 
L 225.54985 83.003961 
L 226.757728 83.91504 
L 227.890115 84.961484 
L 230.268125 87.622971 
L 232.60839 90.771642 
L 234.910908 93.916819 
L 238.496797 97.871331 
L 239.591437 99.315806 
L 240.723823 100.505024 
L 241.931702 102.088115 
L 244.271966 104.566435 
L 245.479845 105.491898 
L 252.500639 110.123431 
L 253.670771 111.317643 
L 257.218914 113.733838 
L 258.389046 114.566663 
L 259.559178 115.024218 
L 260.767057 115.713755 
L 261.937189 116.073329 
L 263.107321 116.787216 
L 264.277454 117.665312 
L 265.447586 118.786306 
L 266.655464 119.580811 
L 268.995729 121.558996 
L 270.165861 122.851927 
L 272.581618 123.817687 
L 273.714004 123.674852 
L 274.84639 123.688023 
L 276.092015 124.281759 
L 277.224401 123.957346 
L 278.394533 123.881714 
L 279.564666 124.329228 
L 283.150555 125.066714 
L 287.793338 121.781991 
L 289.038963 120.297114 
L 290.133602 118.674989 
L 291.341481 116.014533 
L 293.681745 108.90944 
L 294.889624 104.218714 
L 297.192142 91.518379 
L 298.362275 83.685482 
L 299.570153 77.339697 
L 300.778031 71.664067 
L 301.834925 67.611352 
L 303.08055 64.807495 
L 304.212936 63.939714 
L 305.458561 64.89931 
L 306.741931 67.356831 
L 307.94981 71.165646 
L 309.082196 75.926644 
L 310.290074 80.492331 
L 311.422461 85.647129 
L 313.838218 93.374328 
L 318.481 103.247421 
L 319.651133 106.106641 
L 323.199276 113.141472 
L 329.049937 121.241002 
L 330.220069 122.515782 
L 331.390202 124.249585 
L 332.560334 125.34628 
L 334.938345 128.101159 
L 336.108477 129.506089 
L 337.278609 130.723656 
L 338.410995 132.283162 
L 339.618874 132.952384 
L 340.826752 133.960875 
L 343.167017 135.348906 
L 344.337149 135.199386 
L 345.469535 135.449376 
L 349.017678 137.706222 
L 350.150064 138.739019 
L 351.320197 138.843375 
L 352.603567 139.972092 
L 354.906086 141.544867 
L 357.208604 142.510869 
L 358.454229 143.332894 
L 359.624361 144.537408 
L 360.719001 145.084008 
L 361.889133 145.449015 
L 364.30489 146.765118 
L 365.437276 147.263702 
L 366.607409 148.734875 
L 367.853033 149.683678 
L 368.985419 149.445105 
L 370.155552 150.132809 
L 371.287938 151.029955 
L 372.533562 151.571309 
L 373.628202 151.677584 
L 374.760588 152.472019 
L 377.100853 154.79789 
L 378.346477 157.30477 
L 379.441117 158.523726 
L 380.913219 158.676963 
L 383.5932 161.056811 
L 384.763332 161.369959 
L 386.008957 161.40226 
L 387.103596 161.31415 
L 388.349221 162.573644 
L 389.519353 163.369758 
L 390.613993 165.152305 
L 393.02975 165.156192 
L 394.12439 165.58474 
L 395.294522 165.650077 
L 396.502401 165.459073 
L 397.710279 165.917924 
L 398.99365 165.967204 
L 401.220676 167.94881 
L 402.428555 168.509272 
L 403.447702 168.684246 
L 404.731073 168.339129 
L 405.825713 168.295835 
L 408.165977 168.600841 
L 410.506242 170.149047 
L 411.827359 170.367327 
L 412.884253 170.681087 
L 414.054385 170.40703 
L 415.337756 170.842549 
L 416.39465 169.833055 
L 417.640274 169.632495 
L 418.734914 169.693647 
L 420.018285 169.908387 
L 421.377148 171.391283 
L 422.396296 172.741223 
L 423.453189 173.107168 
L 424.698814 173.042428 
L 425.906693 172.439837 
L 426.963586 171.650329 
L 428.246957 170.06326 
L 429.492582 169.235708 
L 430.587222 168.215855 
L 434.059872 167.448353 
L 435.041274 166.175175 
L 436.475629 164.779981 
L 437.608015 162.946114 
L 439.94828 157.51259 
L 441.118412 153.916645 
L 442.175306 149.207875 
L 443.458677 144.234925 
L 444.628809 138.54546 
L 445.798941 133.937732 
L 446.931327 128.213609 
L 450.403978 115.703471 
L 451.762841 112.238476 
L 452.819735 109.05205 
L 454.06536 105.755975 
L 455.084507 102.311226 
L 456.594355 99.614504 
L 457.915472 97.749634 
L 459.085605 95.35726 
L 463.01121 90.291526 
L 464.030357 88.536427 
L 465.124997 86.206515 
L 466.370622 82.998616 
L 467.465261 79.216593 
L 468.597648 75.866286 
L 469.730034 72.890493 
L 471.013405 69.896784 
L 472.221283 67.759304 
L 473.391415 66.516701 
L 474.523801 66.027422 
L 475.580695 66.428711 
L 476.864066 67.85179 
L 478.034198 70.127273 
L 479.166584 73.368999 
L 480.487701 77.765208 
L 481.733326 83.028764 
L 485.130484 99.755102 
L 486.074139 103.927139 
L 487.395256 106.750818 
L 488.640881 108.550798 
L 489.811013 109.198687 
L 490.943399 108.802594 
L 492.000293 107.56116 
L 493.170425 105.714801 
L 493.170425 105.714801 
" clip-path="url(#pcb30ee695d)" style="fill: none; stroke: #ff7f0e; stroke-width: 2.5; stroke-linecap: square"/>
   </g>
   <g id="line2d_57">
    <path d="M 59.089097 253.640169 
L 59.089097 251.973675 
L 59.013605 275.785748 
L 58.975859 272.333548 
L 59.089097 258.242974 
L 59.391067 254.132594 
L 60.334722 251.126734 
L 61.957809 259.927513 
L 64.184835 262.580591 
L 66.449607 263.72744 
L 68.450155 263.937899 
L 70.148735 258.718155 
L 71.507598 257.703642 
L 72.715476 259.404566 
L 73.810116 257.34591 
L 74.904756 259.013767 
L 75.999396 268.149364 
L 77.094036 280.022767 
L 78.264168 276.166094 
L 79.4343 270.402597 
L 80.642179 265.223706 
L 81.812311 261.282606 
L 83.057936 260.249597 
L 84.190322 261.549491 
L 85.360454 261.298905 
L 86.643825 265.195204 
L 87.88945 281.60744 
L 89.210567 278.626476 
L 90.456191 270.643834 
L 91.701816 267.518298 
L 92.909695 263.1782 
L 94.079827 264.320904 
L 95.287705 267.757451 
L 96.420091 268.454254 
L 97.62797 265.89694 
L 100.043727 281.360398 
L 102.383991 263.915432 
L 103.59187 267.952055 
L 104.762002 260.059584 
L 107.064521 257.606786 
L 108.310145 252.291108 
L 109.480277 250.813425 
L 110.688156 249.577705 
L 111.896034 243.869534 
L 113.103913 241.140026 
L 114.274045 242.072893 
L 115.444177 247.733998 
L 116.576564 245.391965 
L 117.784442 245.078141 
L 118.916828 245.226324 
L 120.08696 242.868312 
L 121.294839 243.197067 
L 122.464971 236.951015 
L 123.635103 233.158658 
L 124.805236 235.127562 
L 126.013114 236.017134 
L 127.107754 235.505181 
L 128.277886 232.271448 
L 129.523511 230.75029 
L 131.863776 230.543968 
L 133.071654 227.900828 
L 134.241786 223.071836 
L 135.449665 222.989268 
L 136.657543 219.394646 
L 137.865422 214.378632 
L 140.281179 210.116155 
L 141.489057 206.428101 
L 142.659189 205.962934 
L 143.829322 205.351358 
L 145.0372 201.047931 
L 146.207332 198.244118 
L 147.377465 195.985939 
L 148.509851 191.869137 
L 150.850115 187.014 
L 153.228126 179.05808 
L 154.436005 176.675272 
L 155.606137 172.877448 
L 156.738523 168.052897 
L 161.494544 153.850991 
L 162.626931 149.680557 
L 165.004941 142.955275 
L 166.175074 140.492338 
L 168.515338 134.724933 
L 169.723217 133.264469 
L 172.063481 129.246178 
L 173.233613 126.545099 
L 175.687117 121.954999 
L 176.857249 119.324106 
L 178.027381 117.852124 
L 179.197513 116.144557 
L 180.367646 115.194127 
L 181.537778 114.906148 
L 182.670164 114.905783 
L 183.840296 114.319207 
L 185.010429 112.763764 
L 186.180561 111.72531 
L 190.936582 102.967511 
L 194.446979 95.047917 
L 196.82499 89.481882 
L 199.203001 86.261078 
L 200.335387 85.931011 
L 201.543265 86.294029 
L 202.713398 87.156994 
L 203.921276 88.219596 
L 205.091408 89.402782 
L 207.469419 92.078197 
L 209.809684 93.938534 
L 210.979816 94.01327 
L 213.282334 95.133264 
L 214.452466 95.940804 
L 216.792731 96.616834 
L 217.962863 97.060453 
L 219.208488 97.07968 
L 220.340874 97.391985 
L 221.511006 97.986131 
L 222.681139 98.455212 
L 223.889017 99.534411 
L 226.267028 102.68004 
L 230.947557 106.558478 
L 232.117689 107.468722 
L 233.363314 108.813213 
L 234.4957 110.524015 
L 238.043843 114.296763 
L 239.176229 114.91652 
L 240.346361 115.711913 
L 241.516494 117.069801 
L 242.762118 117.957208 
L 243.894504 118.467432 
L 245.064637 119.849519 
L 246.234769 120.782764 
L 247.442647 121.350929 
L 248.575033 122.470309 
L 249.782912 123.447439 
L 250.953044 124.058742 
L 252.123177 125.231601 
L 253.293309 125.338496 
L 254.538933 125.831457 
L 258.04933 128.372533 
L 259.181716 129.395688 
L 262.692113 132.943522 
L 263.899992 134.036672 
L 265.032378 133.850765 
L 266.240256 134.700626 
L 267.410389 135.890073 
L 268.542775 135.813815 
L 270.920785 137.050878 
L 272.053171 137.080929 
L 273.336542 138.263157 
L 275.601314 138.173184 
L 276.733701 137.399326 
L 277.979325 136.77039 
L 280.31959 133.924888 
L 281.527468 133.273948 
L 283.867733 131.397292 
L 284.962373 130.785824 
L 286.170251 128.9615 
L 287.415876 126.84015 
L 288.586008 124.389837 
L 289.718394 119.970128 
L 290.926273 114.617142 
L 292.134151 108.411005 
L 293.266537 101.531366 
L 296.776934 82.845132 
L 297.984812 78.717168 
L 299.117199 76.494641 
L 300.325077 75.915256 
L 301.532956 76.570315 
L 302.665342 78.720775 
L 303.87322 81.538051 
L 306.288977 88.263638 
L 307.496856 90.436708 
L 308.74248 92.203448 
L 311.082745 94.854508 
L 312.290623 95.746233 
L 313.498502 97.034392 
L 314.593142 98.776368 
L 315.725528 100.295676 
L 316.933406 102.313481 
L 318.028046 104.69908 
L 319.273671 106.962749 
L 321.651681 112.182123 
L 322.746321 114.388834 
L 323.991946 116.288692 
L 325.124332 118.381887 
L 326.294464 120.044471 
L 328.634729 123.138938 
L 329.842607 124.209275 
L 331.01274 125.852019 
L 333.353004 128.729857 
L 334.48539 130.240005 
L 335.655523 131.4232 
L 336.787909 132.765528 
L 338.109026 133.843722 
L 339.279158 135.722678 
L 340.373798 136.710615 
L 342.789555 139.301694 
L 343.884195 140.16987 
L 346.224459 141.506112 
L 348.640216 142.0434 
L 349.772602 141.733327 
L 350.904988 143.166968 
L 353.282999 144.157617 
L 354.453131 144.619807 
L 356.831142 146.182672 
L 357.963528 147.542995 
L 359.13366 147.997169 
L 360.303793 148.787899 
L 361.473925 148.851981 
L 362.644057 150.206693 
L 363.81419 150.154732 
L 365.022068 150.26326 
L 366.154454 151.317451 
L 367.362333 151.761339 
L 369.702597 153.409506 
L 372.005115 154.368411 
L 373.212994 154.024669 
L 375.553259 155.166781 
L 376.685645 156.366187 
L 377.931269 157.036844 
L 379.101402 158.064585 
L 380.422519 159.5671 
L 381.743636 160.801339 
L 384.310377 161.572072 
L 385.442764 162.543023 
L 389.066399 166.61425 
L 390.236531 167.405524 
L 391.406664 169.95932 
L 392.463557 170.278472 
L 393.784674 171.211428 
L 394.91706 170.843162 
L 396.0117 170.180689 
L 397.219579 170.621293 
L 398.389711 170.052318 
L 399.597589 170.696172 
L 401.900108 170.746356 
L 403.07024 171.259786 
L 404.315865 171.468413 
L 405.485997 172.204534 
L 406.580637 171.235798 
L 407.788515 170.908309 
L 410.053288 170.519053 
L 411.336658 171.044385 
L 412.544537 170.671491 
L 413.790162 171.240861 
L 416.017188 171.490911 
L 417.225066 172.032178 
L 418.395198 171.961159 
L 420.735463 171.480728 
L 423.037981 170.315222 
L 424.24586 170.536233 
L 425.642469 171.315591 
L 426.812601 170.790057 
L 427.831749 169.508156 
L 429.039627 169.5708 
L 430.134267 167.916039 
L 431.191161 165.774786 
L 432.436786 164.688623 
L 433.720156 162.12533 
L 436.022675 154.623183 
L 437.155061 149.379866 
L 438.438432 142.507516 
L 440.703204 129.214174 
L 441.797844 123.504831 
L 443.043468 118.174177 
L 445.270494 110.105688 
L 446.553865 107.43647 
L 447.648505 105.620094 
L 450.102008 102.852306 
L 452.442273 100.949429 
L 453.499167 99.898308 
L 456.065908 98.135062 
L 457.500264 97.311801 
L 458.745889 95.804008 
L 460.02926 94.818749 
L 461.086153 94.18783 
L 462.558255 93.17563 
L 463.766134 91.80004 
L 464.558804 89.886213 
L 465.69119 87.450436 
L 466.974561 85.005232 
L 468.220186 82.358602 
L 469.390318 79.291232 
L 470.56045 76.589571 
L 471.768329 75.269286 
L 472.976207 74.61816 
L 474.070847 74.932107 
L 475.240979 76.501729 
L 476.448858 78.683639 
L 477.656736 81.673829 
L 478.71363 85.575803 
L 480.072493 90.025458 
L 484.715276 107.455654 
L 487.055541 114.909003 
L 488.225673 116.387425 
L 489.433551 117.645832 
L 490.490445 118.162682 
L 491.698323 118.014686 
L 492.943948 117.316849 
L 493.774365 116.203896 
L 493.774365 116.203896 
" clip-path="url(#pcb30ee695d)" style="fill: none; stroke: #9467bd; stroke-width: 2.5; stroke-linecap: square"/>
   </g>
   <g id="line2d_58">
    <path d="M 60.108245 245.525076 
L 60.032752 261.321323 
L 60.032752 256.476956 
L 59.95726 252.8541 
L 60.070498 251.63247 
L 60.598945 256.368996 
L 61.731331 250.715544 
L 63.505403 253.053682 
L 65.694683 252.798689 
L 67.846216 252.380125 
L 69.733526 257.197136 
L 71.318867 263.525037 
L 72.67773 264.592468 
L 73.847862 262.228747 
L 74.942502 261.596498 
L 75.999396 260.102182 
L 77.131782 253.198859 
L 78.264168 254.902403 
L 79.358808 254.183035 
L 80.566686 253.839536 
L 81.774565 255.069051 
L 82.944697 260.189013 
L 84.190322 259.288166 
L 85.3982 258.7774 
L 86.681571 258.968392 
L 87.964942 260.163004 
L 89.286059 256.709502 
L 90.531684 254.868667 
L 91.777309 255.436502 
L 94.155319 250.972457 
L 95.287705 254.8767 
L 96.457838 254.230401 
L 97.62797 251.920585 
L 98.835848 251.767761 
L 100.005981 253.533892 
L 101.213859 249.970042 
L 102.383991 251.941377 
L 103.59187 252.065904 
L 104.762002 251.325557 
L 105.932134 246.859712 
L 107.102267 249.608202 
L 108.272399 250.899867 
L 109.442531 248.094833 
L 110.612664 252.662212 
L 111.782796 252.38263 
L 112.990674 254.234679 
L 114.160807 254.698962 
L 115.330939 250.717274 
L 116.501071 244.525694 
L 117.671203 241.517848 
L 118.879082 236.188496 
L 120.08696 235.181082 
L 121.219346 233.110117 
L 122.389479 231.693895 
L 123.559611 229.533577 
L 124.729743 230.913975 
L 125.937622 229.738308 
L 127.070008 228.81275 
L 128.24014 226.69469 
L 129.410272 224.860332 
L 130.618151 219.335216 
L 131.826029 217.660467 
L 133.033908 216.759786 
L 134.20404 213.755231 
L 135.449665 211.829979 
L 136.657543 209.277279 
L 137.865422 205.715327 
L 140.205686 199.980432 
L 141.375819 198.188291 
L 142.508205 194.053079 
L 143.753829 190.295399 
L 144.961708 189.204501 
L 146.13184 185.597039 
L 147.339719 182.455315 
L 148.509851 176.652984 
L 149.717729 172.678961 
L 150.925608 168.264007 
L 153.228126 161.625803 
L 155.568391 152.411555 
L 156.776269 148.053118 
L 157.984148 144.882141 
L 160.324412 136.655775 
L 163.834809 127.066994 
L 166.137327 121.705612 
L 167.382952 119.350333 
L 168.553084 116.798492 
L 169.68547 114.661732 
L 176.706264 100.148949 
L 177.914143 97.758783 
L 179.122021 96.066396 
L 181.462286 92.323176 
L 182.594672 91.03153 
L 188.520825 79.843816 
L 193.276847 68.644577 
L 194.446979 66.239007 
L 195.73035 64.023813 
L 196.900482 62.29794 
L 198.032868 61.087337 
L 199.240747 60.718028 
L 200.410879 61.083204 
L 201.618758 62.140804 
L 202.751144 63.337813 
L 203.88353 65.242072 
L 205.053662 67.635088 
L 207.431673 71.76233 
L 208.601805 73.057944 
L 209.809684 73.946465 
L 210.94207 74.929888 
L 212.149948 75.471804 
L 213.32008 75.678839 
L 214.527959 75.469935 
L 215.698091 75.805663 
L 216.830477 76.352421 
L 218.038356 76.397316 
L 219.208488 76.827231 
L 220.340874 77.682408 
L 221.548753 78.759342 
L 226.267028 85.007982 
L 227.43716 86.842775 
L 228.645039 88.442215 
L 229.777425 89.463356 
L 230.947557 91.038058 
L 232.155435 92.353387 
L 233.287822 93.849697 
L 235.665832 96.074033 
L 236.835965 96.866034 
L 240.384108 99.770824 
L 241.516494 100.981855 
L 242.724372 102.454125 
L 243.894504 103.673071 
L 245.064637 105.07874 
L 246.234769 105.796343 
L 247.404901 106.326314 
L 248.61278 106.740974 
L 249.782912 107.37174 
L 250.953044 108.374403 
L 252.123177 109.08397 
L 253.293309 110.196454 
L 256.803706 111.281877 
L 257.973838 112.006208 
L 259.14397 112.529867 
L 260.314102 113.381801 
L 262.616621 115.945884 
L 265.032378 117.255967 
L 267.334896 117.214449 
L 268.505028 117.402815 
L 269.712907 118.037301 
L 270.883039 118.241476 
L 273.223304 119.352298 
L 275.601314 119.424395 
L 276.771447 119.631972 
L 277.979325 119.233957 
L 279.111711 118.07458 
L 280.244097 117.975167 
L 281.451976 116.702368 
L 282.622108 114.362572 
L 283.79224 111.658288 
L 285.037865 108.484473 
L 286.207997 105.837993 
L 287.340383 101.981198 
L 288.472769 96.759407 
L 289.680648 89.500341 
L 290.813034 81.486472 
L 293.077806 64.100871 
L 294.361177 57.631313 
L 295.493563 53.40014 
L 296.701442 51.656443 
L 297.833828 52.305658 
L 299.041706 54.75904 
L 300.249585 59.021123 
L 301.419717 64.452133 
L 302.589849 70.547885 
L 303.797728 75.170358 
L 305.005606 78.905465 
L 308.704734 86.758144 
L 312.101892 95.040385 
L 316.857914 106.025994 
L 318.028046 107.31241 
L 319.235924 109.377402 
L 320.406057 111.018526 
L 322.746321 115.147764 
L 323.9542 116.659775 
L 325.086586 118.56391 
L 328.672475 125.132375 
L 329.842607 125.463103 
L 331.01274 126.806974 
L 335.655523 133.568012 
L 337.995787 136.548841 
L 339.165919 137.232591 
L 340.373798 137.693373 
L 341.619423 137.407083 
L 342.714062 138.00841 
L 343.846448 137.97619 
L 345.167566 138.396277 
L 347.50783 138.134475 
L 348.640216 138.298698 
L 349.69711 139.325228 
L 350.980481 140.003112 
L 352.075121 141.055879 
L 354.453131 143.050457 
L 355.585517 143.180579 
L 356.831142 144.14715 
L 358.001274 143.881966 
L 359.095914 144.877384 
L 360.303793 145.735637 
L 361.473925 147.032475 
L 362.644057 148.573536 
L 363.81419 149.895379 
L 365.059814 150.474462 
L 366.1922 150.503508 
L 367.362333 150.844041 
L 369.740343 151.061422 
L 370.872729 152.198478 
L 372.005115 152.92065 
L 373.212994 154.077397 
L 374.420872 156.288886 
L 375.553259 157.483404 
L 376.723391 157.867911 
L 378.006762 158.00449 
L 379.063655 158.425239 
L 380.498011 157.925569 
L 381.781382 158.451832 
L 383.102499 160.118365 
L 384.272631 160.802198 
L 385.442764 161.132639 
L 386.726134 162.038015 
L 389.066399 163.249132 
L 390.198785 163.480649 
L 391.368917 165.091658 
L 392.53905 165.521234 
L 393.746928 166.471016 
L 394.91706 166.815452 
L 396.049446 166.698172 
L 397.219579 166.319699 
L 398.50295 166.690317 
L 399.635336 167.357957 
L 400.805468 167.211677 
L 401.937854 167.57293 
L 403.107986 169.296631 
L 404.315865 170.429221 
L 405.410505 170.289404 
L 406.693876 169.188623 
L 407.788515 169.629312 
L 409.071886 169.817223 
L 410.204272 169.729925 
L 411.336658 170.216545 
L 412.544537 170.181152 
L 414.884801 171.506868 
L 416.017188 173.486268 
L 417.262812 173.028556 
L 418.357452 172.190253 
L 419.678569 172.553446 
L 420.65997 170.854179 
L 421.905595 169.047597 
L 424.24586 167.855517 
L 425.453738 167.650321 
L 426.888094 166.330819 
L 427.944988 165.671446 
L 431.266653 160.774042 
L 432.512278 158.51081 
L 433.720156 155.70322 
L 434.852543 152.493164 
L 435.909436 148.366013 
L 437.079569 141.366571 
L 438.325193 134.673193 
L 439.495325 127.385954 
L 441.83559 116.259576 
L 443.005722 111.673635 
L 444.251347 108.082896 
L 446.553865 102.67266 
L 448.856384 98.796941 
L 450.064262 97.55105 
L 451.196648 96.015163 
L 452.404527 95.046035 
L 453.612405 94.493057 
L 454.669299 93.675627 
L 458.670396 92.305212 
L 459.953767 91.374914 
L 461.123899 89.612679 
L 462.294032 86.859949 
L 464.89852 79.289779 
L 465.842175 75.946905 
L 466.936815 73.050504 
L 468.031455 71.312817 
L 469.314825 70.741538 
L 470.484958 71.451364 
L 471.692836 73.548147 
L 472.938461 76.612319 
L 474.070847 80.708175 
L 475.203233 85.327466 
L 478.751376 101.952742 
L 479.921508 108.148138 
L 482.337265 120.160645 
L 483.356413 126.493794 
L 485.998647 135.751046 
L 487.206525 137.489863 
L 488.112434 138.193511 
L 491.811562 134.452932 
L 492.717471 134.292112 
L 493.887603 135.736887 
L 493.887603 135.736887 
" clip-path="url(#pcb30ee695d)" style="fill: none; stroke: #2ca02c; stroke-width: 2.5; stroke-linecap: square"/>
   </g>
   <g id="patch_3">
    <path d="M 60.598945 303.182656 
L 60.598945 39.679004 
" style="fill: none; stroke: #000000; stroke-width: 1.5; stroke-linejoin: miter; stroke-linecap: square"/>
   </g>
   <g id="patch_4">
    <path d="M 60.598945 303.182656 
L 494.680273 303.182656 
" style="fill: none; stroke: #000000; stroke-width: 1.5; stroke-linejoin: miter; stroke-linecap: square"/>
   </g>
   <g id="text_12">
    <!-- 1421_wo_HF -->
    <g transform="translate(236.004922 18.441699) scale(0.14 -0.14)">
     <defs>
      <path id="ArialMT-42" d="M -97 -1272 
L -97 -866 
L 3631 -866 
L 3631 -1272 
L -97 -1272 
z
" transform="scale(0.015625)"/>
      <path id="ArialMT-5a" d="M 1034 0 
L 19 3319 
L 600 3319 
L 1128 1403 
L 1325 691 
Q 1338 744 1497 1375 
L 2025 3319 
L 2603 3319 
L 3100 1394 
L 3266 759 
L 3456 1400 
L 4025 3319 
L 4572 3319 
L 3534 0 
L 2950 0 
L 2422 1988 
L 2294 2553 
L 1622 0 
L 1034 0 
z
" transform="scale(0.015625)"/>
      <path id="ArialMT-2b" d="M 513 0 
L 513 4581 
L 1119 4581 
L 1119 2700 
L 3500 2700 
L 3500 4581 
L 4106 4581 
L 4106 0 
L 3500 0 
L 3500 2159 
L 1119 2159 
L 1119 0 
L 513 0 
z
" transform="scale(0.015625)"/>
      <path id="ArialMT-29" d="M 525 0 
L 525 4581 
L 3616 4581 
L 3616 4041 
L 1131 4041 
L 1131 2622 
L 3281 2622 
L 3281 2081 
L 1131 2081 
L 1131 0 
L 525 0 
z
" transform="scale(0.015625)"/>
     </defs>
     <use xlink:href="#ArialMT-14"/>
     <use xlink:href="#ArialMT-17" transform="translate(55.609375 0)"/>
     <use xlink:href="#ArialMT-15" transform="translate(111.21875 0)"/>
     <use xlink:href="#ArialMT-14" transform="translate(166.828125 0)"/>
     <use xlink:href="#ArialMT-42" transform="translate(222.4375 0)"/>
     <use xlink:href="#ArialMT-5a" transform="translate(278.046875 0)"/>
     <use xlink:href="#ArialMT-52" transform="translate(350.265625 0)"/>
     <use xlink:href="#ArialMT-42" transform="translate(405.875 0)"/>
     <use xlink:href="#ArialMT-2b" transform="translate(461.484375 0)"/>
     <use xlink:href="#ArialMT-29" transform="translate(533.703125 0)"/>
    </g>
    <!-- m/z 44 -->
    <g transform="translate(256.634141 33.679004) scale(0.14 -0.14)">
     <use xlink:href="#ArialMT-50"/>
     <use xlink:href="#ArialMT-12" transform="translate(83.296875 0)"/>
     <use xlink:href="#ArialMT-5d" transform="translate(111.078125 0)"/>
     <use xlink:href="#ArialMT-3" transform="translate(161.078125 0)"/>
     <use xlink:href="#ArialMT-17" transform="translate(188.859375 0)"/>
     <use xlink:href="#ArialMT-17" transform="translate(244.46875 0)"/>
    </g>
   </g>
   <g id="legend_1">
    <g id="line2d_59">
     <path d="M 512.3619 52.459277 
L 522.3619 52.459277 
L 532.3619 52.459277 
" style="fill: none; stroke: #000000; stroke-width: 2.5; stroke-linecap: square"/>
    </g>
    <g id="text_13">
     <!-- 0 h -->
     <g transform="translate(540.3619 55.959277) scale(0.1 -0.1)">
      <defs>
       <path id="ArialMT-4b" d="M 422 0 
L 422 4581 
L 984 4581 
L 984 2938 
Q 1378 3394 1978 3394 
Q 2347 3394 2619 3248 
Q 2891 3103 3008 2847 
Q 3125 2591 3125 2103 
L 3125 0 
L 2563 0 
L 2563 2103 
Q 2563 2525 2380 2717 
Q 2197 2909 1863 2909 
Q 1613 2909 1392 2779 
Q 1172 2650 1078 2428 
Q 984 2206 984 1816 
L 984 0 
L 422 0 
z
" transform="scale(0.015625)"/>
      </defs>
      <use xlink:href="#ArialMT-13"/>
      <use xlink:href="#ArialMT-3" transform="translate(55.609375 0)"/>
      <use xlink:href="#ArialMT-4b" transform="translate(83.390625 0)"/>
     </g>
    </g>
    <g id="line2d_60">
     <path d="M 512.3619 66.844043 
L 522.3619 66.844043 
L 532.3619 66.844043 
" style="fill: none; stroke: #1f77b4; stroke-width: 2.5; stroke-linecap: square"/>
    </g>
    <g id="text_14">
     <!-- 6 h -->
     <g transform="translate(540.3619 70.344043) scale(0.1 -0.1)">
      <use xlink:href="#ArialMT-19"/>
      <use xlink:href="#ArialMT-3" transform="translate(55.609375 0)"/>
      <use xlink:href="#ArialMT-4b" transform="translate(83.390625 0)"/>
     </g>
    </g>
    <g id="line2d_61">
     <path d="M 512.3619 81.228809 
L 522.3619 81.228809 
L 532.3619 81.228809 
" style="fill: none; stroke: #d62728; stroke-width: 2.5; stroke-linecap: square"/>
    </g>
    <g id="text_15">
     <!-- 24 h -->
     <g transform="translate(540.3619 84.728809) scale(0.1 -0.1)">
      <use xlink:href="#ArialMT-15"/>
      <use xlink:href="#ArialMT-17" transform="translate(55.609375 0)"/>
      <use xlink:href="#ArialMT-3" transform="translate(111.21875 0)"/>
      <use xlink:href="#ArialMT-4b" transform="translate(139 0)"/>
     </g>
    </g>
    <g id="line2d_62">
     <path d="M 512.3619 95.613574 
L 522.3619 95.613574 
L 532.3619 95.613574 
" style="fill: none; stroke: #ff7f0e; stroke-width: 2.5; stroke-linecap: square"/>
    </g>
    <g id="text_16">
     <!-- 7 d -->
     <g transform="translate(540.3619 99.113574) scale(0.1 -0.1)">
      <defs>
       <path id="ArialMT-1a" d="M 303 3981 
L 303 4522 
L 3269 4522 
L 3269 4084 
Q 2831 3619 2401 2847 
Q 1972 2075 1738 1259 
Q 1569 684 1522 0 
L 944 0 
Q 953 541 1156 1306 
Q 1359 2072 1739 2783 
Q 2119 3494 2547 3981 
L 303 3981 
z
" transform="scale(0.015625)"/>
       <path id="ArialMT-47" d="M 2575 0 
L 2575 419 
Q 2259 -75 1647 -75 
Q 1250 -75 917 144 
Q 584 363 401 755 
Q 219 1147 219 1656 
Q 219 2153 384 2558 
Q 550 2963 881 3178 
Q 1213 3394 1622 3394 
Q 1922 3394 2156 3267 
Q 2391 3141 2538 2938 
L 2538 4581 
L 3097 4581 
L 3097 0 
L 2575 0 
z
M 797 1656 
Q 797 1019 1065 703 
Q 1334 388 1700 388 
Q 2069 388 2326 689 
Q 2584 991 2584 1609 
Q 2584 2291 2321 2609 
Q 2059 2928 1675 2928 
Q 1300 2928 1048 2622 
Q 797 2316 797 1656 
z
" transform="scale(0.015625)"/>
      </defs>
      <use xlink:href="#ArialMT-1a"/>
      <use xlink:href="#ArialMT-3" transform="translate(55.609375 0)"/>
      <use xlink:href="#ArialMT-47" transform="translate(83.390625 0)"/>
     </g>
    </g>
    <g id="line2d_63">
     <path d="M 512.3619 109.99834 
L 522.3619 109.99834 
L 532.3619 109.99834 
" style="fill: none; stroke: #9467bd; stroke-width: 2.5; stroke-linecap: square"/>
    </g>
    <g id="text_17">
     <!-- 14 d -->
     <g transform="translate(540.3619 113.49834) scale(0.1 -0.1)">
      <use xlink:href="#ArialMT-14"/>
      <use xlink:href="#ArialMT-17" transform="translate(55.609375 0)"/>
      <use xlink:href="#ArialMT-3" transform="translate(111.21875 0)"/>
      <use xlink:href="#ArialMT-47" transform="translate(139 0)"/>
     </g>
    </g>
    <g id="line2d_64">
     <path d="M 512.3619 124.383105 
L 522.3619 124.383105 
L 532.3619 124.383105 
" style="fill: none; stroke: #2ca02c; stroke-width: 2.5; stroke-linecap: square"/>
    </g>
    <g id="text_18">
     <!-- 28 d -->
     <g transform="translate(540.3619 127.883105) scale(0.1 -0.1)">
      <use xlink:href="#ArialMT-15"/>
      <use xlink:href="#ArialMT-1b" transform="translate(55.609375 0)"/>
      <use xlink:href="#ArialMT-3" transform="translate(111.21875 0)"/>
      <use xlink:href="#ArialMT-47" transform="translate(139 0)"/>
     </g>
    </g>
   </g>
  </g>
 </g>
 <defs>
  <clipPath id="pcb30ee695d">
   <rect x="60.598945" y="39.679004" width="434.081328" height="263.503652"/>
  </clipPath>
 </defs>
</svg>
