<?xml version="1.0" encoding="utf-8" standalone="no"?>
<!DOCTYPE svg PUBLIC "-//W3C//DTD SVG 1.1//EN"
  "http://www.w3.org/Graphics/SVG/1.1/DTD/svg11.dtd">
<svg xmlns:xlink="http://www.w3.org/1999/xlink" width="571.022837pt" height="344.160273pt" viewBox="0 0 571.022837 344.160273" xmlns="http://www.w3.org/2000/svg" version="1.1">
 <metadata>
  <rdf:RDF xmlns:dc="http://purl.org/dc/elements/1.1/" xmlns:cc="http://creativecommons.org/ns#" xmlns:rdf="http://www.w3.org/1999/02/22-rdf-syntax-ns#">
   <cc:Work>
    <dc:type rdf:resource="http://purl.org/dc/dcmitype/StillImage"/>
    <dc:date>2026-07-10T11:48:53.988215</dc:date>
    <dc:format>image/svg+xml</dc:format>
    <dc:creator>
     <cc:Agent>
      <dc:title>Matplotlib v3.11.0, https://matplotlib.org/</dc:title>
     </cc:Agent>
    </dc:creator>
   </cc:Work>
  </rdf:RDF>
 </metadata>
 <defs>
  <style type="text/css">*{stroke-linejoin: round; stroke-linecap: butt}</style>
 </defs>
 <g id="figure_1">
  <g id="patch_1">
   <path d="M 0 344.160273 
L 571.022837 344.160273 
L 571.022837 0 
L 0 0 
z
" style="fill: #ffffff"/>
  </g>
  <g id="axes_1">
   <g id="patch_2">
    <path d="M 60.598945 303.182656 
L 494.680273 303.182656 
L 494.680273 39.679004 
L 60.598945 39.679004 
z
" style="fill: #ffffff"/>
   </g>
   <g id="matplotlib.axis_1">
    <g id="xtick_1">
     <g id="line2d_1">
      <defs>
       <path id="meb84d50083" d="M 0 0 
L 0 -6 
" style="stroke: #000000; stroke-width: 0.8"/>
      </defs>
      <g>
       <use xlink:href="#meb84d50083" x="117.218249" y="303.182656" style="stroke: #000000; stroke-width: 0.8"/>
      </g>
     </g>
     <g id="text_1">
      <!-- 200 -->
      <g transform="translate(105.54028 316.875039) scale(0.14 -0.14)">
       <defs>
        <path id="ArialMT-15" d="M 3222 541 
L 3222 0 
L 194 0 
Q 188 203 259 391 
Q 375 700 629 1000 
Q 884 1300 1366 1694 
Q 2113 2306 2375 2664 
Q 2638 3022 2638 3341 
Q 2638 3675 2398 3904 
Q 2159 4134 1775 4134 
Q 1369 4134 1125 3890 
Q 881 3647 878 3216 
L 300 3275 
Q 359 3922 746 4261 
Q 1134 4600 1788 4600 
Q 2447 4600 2831 4234 
Q 3216 3869 3216 3328 
Q 3216 3053 3103 2787 
Q 2991 2522 2730 2228 
Q 2469 1934 1863 1422 
Q 1356 997 1212 845 
Q 1069 694 975 541 
L 3222 541 
z
" transform="scale(0.015625)"/>
        <path id="ArialMT-13" d="M 266 2259 
Q 266 3072 433 3567 
Q 600 4063 929 4331 
Q 1259 4600 1759 4600 
Q 2128 4600 2406 4451 
Q 2684 4303 2865 4023 
Q 3047 3744 3150 3342 
Q 3253 2941 3253 2259 
Q 3253 1453 3087 958 
Q 2922 463 2592 192 
Q 2263 -78 1759 -78 
Q 1097 -78 719 397 
Q 266 969 266 2259 
z
M 844 2259 
Q 844 1131 1108 757 
Q 1372 384 1759 384 
Q 2147 384 2411 759 
Q 2675 1134 2675 2259 
Q 2675 3391 2411 3762 
Q 2147 4134 1753 4134 
Q 1366 4134 1134 3806 
Q 844 3388 844 2259 
z
" transform="scale(0.015625)"/>
       </defs>
       <use xlink:href="#ArialMT-15"/>
       <use xlink:href="#ArialMT-13" transform="translate(55.609375 0)"/>
       <use xlink:href="#ArialMT-13" transform="translate(111.21875 0)"/>
      </g>
     </g>
    </g>
    <g id="xtick_2">
     <g id="line2d_2">
      <g>
       <use xlink:href="#meb84d50083" x="192.710654" y="303.182656" style="stroke: #000000; stroke-width: 0.8"/>
      </g>
     </g>
     <g id="text_2">
      <!-- 400 -->
      <g transform="translate(181.032685 316.875039) scale(0.14 -0.14)">
       <defs>
        <path id="ArialMT-17" d="M 2069 0 
L 2069 1097 
L 81 1097 
L 81 1613 
L 2172 4581 
L 2631 4581 
L 2631 1613 
L 3250 1613 
L 3250 1097 
L 2631 1097 
L 2631 0 
L 2069 0 
z
M 2069 1613 
L 2069 3678 
L 634 1613 
L 2069 1613 
z
" transform="scale(0.015625)"/>
       </defs>
       <use xlink:href="#ArialMT-17"/>
       <use xlink:href="#ArialMT-13" transform="translate(55.609375 0)"/>
       <use xlink:href="#ArialMT-13" transform="translate(111.21875 0)"/>
      </g>
     </g>
    </g>
    <g id="xtick_3">
     <g id="line2d_3">
      <g>
       <use xlink:href="#meb84d50083" x="268.203059" y="303.182656" style="stroke: #000000; stroke-width: 0.8"/>
      </g>
     </g>
     <g id="text_3">
      <!-- 600 -->
      <g transform="translate(256.52509 316.875039) scale(0.14 -0.14)">
       <defs>
        <path id="ArialMT-19" d="M 3184 3459 
L 2625 3416 
Q 2550 3747 2413 3897 
Q 2184 4138 1850 4138 
Q 1581 4138 1378 3988 
Q 1113 3794 959 3422 
Q 806 3050 800 2363 
Q 1003 2672 1297 2822 
Q 1591 2972 1913 2972 
Q 2475 2972 2870 2558 
Q 3266 2144 3266 1488 
Q 3266 1056 3080 686 
Q 2894 316 2569 119 
Q 2244 -78 1831 -78 
Q 1128 -78 684 439 
Q 241 956 241 2144 
Q 241 3472 731 4075 
Q 1159 4600 1884 4600 
Q 2425 4600 2770 4297 
Q 3116 3994 3184 3459 
z
M 888 1484 
Q 888 1194 1011 928 
Q 1134 663 1356 523 
Q 1578 384 1822 384 
Q 2178 384 2434 671 
Q 2691 959 2691 1453 
Q 2691 1928 2437 2201 
Q 2184 2475 1800 2475 
Q 1419 2475 1153 2201 
Q 888 1928 888 1484 
z
" transform="scale(0.015625)"/>
       </defs>
       <use xlink:href="#ArialMT-19"/>
       <use xlink:href="#ArialMT-13" transform="translate(55.609375 0)"/>
       <use xlink:href="#ArialMT-13" transform="translate(111.21875 0)"/>
      </g>
     </g>
    </g>
    <g id="xtick_4">
     <g id="line2d_4">
      <g>
       <use xlink:href="#meb84d50083" x="343.695464" y="303.182656" style="stroke: #000000; stroke-width: 0.8"/>
      </g>
     </g>
     <g id="text_4">
      <!-- 800 -->
      <g transform="translate(332.017495 316.875039) scale(0.14 -0.14)">
       <defs>
        <path id="ArialMT-1b" d="M 1131 2484 
Q 781 2613 612 2850 
Q 444 3088 444 3419 
Q 444 3919 803 4259 
Q 1163 4600 1759 4600 
Q 2359 4600 2725 4251 
Q 3091 3903 3091 3403 
Q 3091 3084 2923 2848 
Q 2756 2613 2416 2484 
Q 2838 2347 3058 2040 
Q 3278 1734 3278 1309 
Q 3278 722 2862 322 
Q 2447 -78 1769 -78 
Q 1091 -78 675 323 
Q 259 725 259 1325 
Q 259 1772 486 2073 
Q 713 2375 1131 2484 
z
M 1019 3438 
Q 1019 3113 1228 2906 
Q 1438 2700 1772 2700 
Q 2097 2700 2305 2904 
Q 2513 3109 2513 3406 
Q 2513 3716 2298 3927 
Q 2084 4138 1766 4138 
Q 1444 4138 1231 3931 
Q 1019 3725 1019 3438 
z
M 838 1322 
Q 838 1081 952 856 
Q 1066 631 1291 507 
Q 1516 384 1775 384 
Q 2178 384 2440 643 
Q 2703 903 2703 1303 
Q 2703 1709 2433 1975 
Q 2163 2241 1756 2241 
Q 1359 2241 1098 1978 
Q 838 1716 838 1322 
z
" transform="scale(0.015625)"/>
       </defs>
       <use xlink:href="#ArialMT-1b"/>
       <use xlink:href="#ArialMT-13" transform="translate(55.609375 0)"/>
       <use xlink:href="#ArialMT-13" transform="translate(111.21875 0)"/>
      </g>
     </g>
    </g>
    <g id="xtick_5">
     <g id="line2d_5">
      <g>
       <use xlink:href="#meb84d50083" x="419.187869" y="303.182656" style="stroke: #000000; stroke-width: 0.8"/>
      </g>
     </g>
     <g id="text_5">
      <!-- 1000 -->
      <g transform="translate(403.617244 316.875039) scale(0.14 -0.14)">
       <defs>
        <path id="ArialMT-14" d="M 2384 0 
L 1822 0 
L 1822 3584 
Q 1619 3391 1289 3197 
Q 959 3003 697 2906 
L 697 3450 
Q 1169 3672 1522 3987 
Q 1875 4303 2022 4600 
L 2384 4600 
L 2384 0 
z
" transform="scale(0.015625)"/>
       </defs>
       <use xlink:href="#ArialMT-14"/>
       <use xlink:href="#ArialMT-13" transform="translate(55.609375 0)"/>
       <use xlink:href="#ArialMT-13" transform="translate(111.21875 0)"/>
       <use xlink:href="#ArialMT-13" transform="translate(166.828125 0)"/>
      </g>
     </g>
    </g>
    <g id="xtick_6">
     <g id="line2d_6">
      <g>
       <use xlink:href="#meb84d50083" x="494.680273" y="303.182656" style="stroke: #000000; stroke-width: 0.8"/>
      </g>
     </g>
     <g id="text_6">
      <!-- 1200 -->
      <g transform="translate(479.109648 316.875039) scale(0.14 -0.14)">
       <use xlink:href="#ArialMT-14"/>
       <use xlink:href="#ArialMT-15" transform="translate(55.609375 0)"/>
       <use xlink:href="#ArialMT-13" transform="translate(111.21875 0)"/>
       <use xlink:href="#ArialMT-13" transform="translate(166.828125 0)"/>
      </g>
     </g>
    </g>
    <g id="xtick_7">
     <g id="line2d_7">
      <defs>
       <path id="md9c8c62729" d="M 0 0 
L 0 -3 
" style="stroke: #000000; stroke-width: 0.6"/>
      </defs>
      <g>
       <use xlink:href="#md9c8c62729" x="60.598945" y="303.182656" style="stroke: #000000; stroke-width: 0.6"/>
      </g>
     </g>
    </g>
    <g id="xtick_8">
     <g id="line2d_8">
      <g>
       <use xlink:href="#md9c8c62729" x="79.472047" y="303.182656" style="stroke: #000000; stroke-width: 0.6"/>
      </g>
     </g>
    </g>
    <g id="xtick_9">
     <g id="line2d_9">
      <g>
       <use xlink:href="#md9c8c62729" x="98.345148" y="303.182656" style="stroke: #000000; stroke-width: 0.6"/>
      </g>
     </g>
    </g>
    <g id="xtick_10">
     <g id="line2d_10">
      <g>
       <use xlink:href="#md9c8c62729" x="136.09135" y="303.182656" style="stroke: #000000; stroke-width: 0.6"/>
      </g>
     </g>
    </g>
    <g id="xtick_11">
     <g id="line2d_11">
      <g>
       <use xlink:href="#md9c8c62729" x="154.964451" y="303.182656" style="stroke: #000000; stroke-width: 0.6"/>
      </g>
     </g>
    </g>
    <g id="xtick_12">
     <g id="line2d_12">
      <g>
       <use xlink:href="#md9c8c62729" x="173.837553" y="303.182656" style="stroke: #000000; stroke-width: 0.6"/>
      </g>
     </g>
    </g>
    <g id="xtick_13">
     <g id="line2d_13">
      <g>
       <use xlink:href="#md9c8c62729" x="211.583755" y="303.182656" style="stroke: #000000; stroke-width: 0.6"/>
      </g>
     </g>
    </g>
    <g id="xtick_14">
     <g id="line2d_14">
      <g>
       <use xlink:href="#md9c8c62729" x="230.456856" y="303.182656" style="stroke: #000000; stroke-width: 0.6"/>
      </g>
     </g>
    </g>
    <g id="xtick_15">
     <g id="line2d_15">
      <g>
       <use xlink:href="#md9c8c62729" x="249.329958" y="303.182656" style="stroke: #000000; stroke-width: 0.6"/>
      </g>
     </g>
    </g>
    <g id="xtick_16">
     <g id="line2d_16">
      <g>
       <use xlink:href="#md9c8c62729" x="287.07616" y="303.182656" style="stroke: #000000; stroke-width: 0.6"/>
      </g>
     </g>
    </g>
    <g id="xtick_17">
     <g id="line2d_17">
      <g>
       <use xlink:href="#md9c8c62729" x="305.949261" y="303.182656" style="stroke: #000000; stroke-width: 0.6"/>
      </g>
     </g>
    </g>
    <g id="xtick_18">
     <g id="line2d_18">
      <g>
       <use xlink:href="#md9c8c62729" x="324.822362" y="303.182656" style="stroke: #000000; stroke-width: 0.6"/>
      </g>
     </g>
    </g>
    <g id="xtick_19">
     <g id="line2d_19">
      <g>
       <use xlink:href="#md9c8c62729" x="362.568565" y="303.182656" style="stroke: #000000; stroke-width: 0.6"/>
      </g>
     </g>
    </g>
    <g id="xtick_20">
     <g id="line2d_20">
      <g>
       <use xlink:href="#md9c8c62729" x="381.441666" y="303.182656" style="stroke: #000000; stroke-width: 0.6"/>
      </g>
     </g>
    </g>
    <g id="xtick_21">
     <g id="line2d_21">
      <g>
       <use xlink:href="#md9c8c62729" x="400.314767" y="303.182656" style="stroke: #000000; stroke-width: 0.6"/>
      </g>
     </g>
    </g>
    <g id="xtick_22">
     <g id="line2d_22">
      <g>
       <use xlink:href="#md9c8c62729" x="438.06097" y="303.182656" style="stroke: #000000; stroke-width: 0.6"/>
      </g>
     </g>
    </g>
    <g id="xtick_23">
     <g id="line2d_23">
      <g>
       <use xlink:href="#md9c8c62729" x="456.934071" y="303.182656" style="stroke: #000000; stroke-width: 0.6"/>
      </g>
     </g>
    </g>
    <g id="xtick_24">
     <g id="line2d_24">
      <g>
       <use xlink:href="#md9c8c62729" x="475.807172" y="303.182656" style="stroke: #000000; stroke-width: 0.6"/>
      </g>
     </g>
    </g>
    <g id="text_7">
     <!-- T1 Temperature (°C) -->
     <g transform="translate(213.900234 334.013711) scale(0.14 -0.14)">
      <defs>
       <path id="ArialMT-37" d="M 1659 0 
L 1659 4041 
L 150 4041 
L 150 4581 
L 3781 4581 
L 3781 4041 
L 2266 4041 
L 2266 0 
L 1659 0 
z
" transform="scale(0.015625)"/>
       <path id="ArialMT-3" transform="scale(0.015625)"/>
       <path id="ArialMT-48" d="M 2694 1069 
L 3275 997 
Q 3138 488 2766 206 
Q 2394 -75 1816 -75 
Q 1088 -75 661 373 
Q 234 822 234 1631 
Q 234 2469 665 2931 
Q 1097 3394 1784 3394 
Q 2450 3394 2872 2941 
Q 3294 2488 3294 1666 
Q 3294 1616 3291 1516 
L 816 1516 
Q 847 969 1125 678 
Q 1403 388 1819 388 
Q 2128 388 2347 550 
Q 2566 713 2694 1069 
z
M 847 1978 
L 2700 1978 
Q 2663 2397 2488 2606 
Q 2219 2931 1791 2931 
Q 1403 2931 1139 2672 
Q 875 2413 847 1978 
z
" transform="scale(0.015625)"/>
       <path id="ArialMT-50" d="M 422 0 
L 422 3319 
L 925 3319 
L 925 2853 
Q 1081 3097 1340 3245 
Q 1600 3394 1931 3394 
Q 2300 3394 2536 3241 
Q 2772 3088 2869 2813 
Q 3263 3394 3894 3394 
Q 4388 3394 4653 3120 
Q 4919 2847 4919 2278 
L 4919 0 
L 4359 0 
L 4359 2091 
Q 4359 2428 4304 2576 
Q 4250 2725 4106 2815 
Q 3963 2906 3769 2906 
Q 3419 2906 3187 2673 
Q 2956 2441 2956 1928 
L 2956 0 
L 2394 0 
L 2394 2156 
Q 2394 2531 2256 2718 
Q 2119 2906 1806 2906 
Q 1569 2906 1367 2781 
Q 1166 2656 1075 2415 
Q 984 2175 984 1722 
L 984 0 
L 422 0 
z
" transform="scale(0.015625)"/>
       <path id="ArialMT-53" d="M 422 -1272 
L 422 3319 
L 934 3319 
L 934 2888 
Q 1116 3141 1344 3267 
Q 1572 3394 1897 3394 
Q 2322 3394 2647 3175 
Q 2972 2956 3137 2557 
Q 3303 2159 3303 1684 
Q 3303 1175 3120 767 
Q 2938 359 2589 142 
Q 2241 -75 1856 -75 
Q 1575 -75 1351 44 
Q 1128 163 984 344 
L 984 -1272 
L 422 -1272 
z
M 931 1641 
Q 931 1000 1190 694 
Q 1450 388 1819 388 
Q 2194 388 2461 705 
Q 2728 1022 2728 1688 
Q 2728 2322 2467 2637 
Q 2206 2953 1844 2953 
Q 1484 2953 1207 2617 
Q 931 2281 931 1641 
z
" transform="scale(0.015625)"/>
       <path id="ArialMT-55" d="M 416 0 
L 416 3319 
L 922 3319 
L 922 2816 
Q 1116 3169 1280 3281 
Q 1444 3394 1641 3394 
Q 1925 3394 2219 3213 
L 2025 2691 
Q 1819 2813 1613 2813 
Q 1428 2813 1281 2702 
Q 1134 2591 1072 2394 
Q 978 2094 978 1738 
L 978 0 
L 416 0 
z
" transform="scale(0.015625)"/>
       <path id="ArialMT-44" d="M 2588 409 
Q 2275 144 1986 34 
Q 1697 -75 1366 -75 
Q 819 -75 525 192 
Q 231 459 231 875 
Q 231 1119 342 1320 
Q 453 1522 633 1644 
Q 813 1766 1038 1828 
Q 1203 1872 1538 1913 
Q 2219 1994 2541 2106 
Q 2544 2222 2544 2253 
Q 2544 2597 2384 2738 
Q 2169 2928 1744 2928 
Q 1347 2928 1158 2789 
Q 969 2650 878 2297 
L 328 2372 
Q 403 2725 575 2942 
Q 747 3159 1072 3276 
Q 1397 3394 1825 3394 
Q 2250 3394 2515 3294 
Q 2781 3194 2906 3042 
Q 3031 2891 3081 2659 
Q 3109 2516 3109 2141 
L 3109 1391 
Q 3109 606 3145 398 
Q 3181 191 3288 0 
L 2700 0 
Q 2613 175 2588 409 
z
M 2541 1666 
Q 2234 1541 1622 1453 
Q 1275 1403 1131 1340 
Q 988 1278 909 1158 
Q 831 1038 831 891 
Q 831 666 1001 516 
Q 1172 366 1500 366 
Q 1825 366 2078 508 
Q 2331 650 2450 897 
Q 2541 1088 2541 1459 
L 2541 1666 
z
" transform="scale(0.015625)"/>
       <path id="ArialMT-57" d="M 1650 503 
L 1731 6 
Q 1494 -44 1306 -44 
Q 1000 -44 831 53 
Q 663 150 594 308 
Q 525 466 525 972 
L 525 2881 
L 113 2881 
L 113 3319 
L 525 3319 
L 525 4141 
L 1084 4478 
L 1084 3319 
L 1650 3319 
L 1650 2881 
L 1084 2881 
L 1084 941 
Q 1084 700 1114 631 
Q 1144 563 1211 522 
Q 1278 481 1403 481 
Q 1497 481 1650 503 
z
" transform="scale(0.015625)"/>
       <path id="ArialMT-58" d="M 2597 0 
L 2597 488 
Q 2209 -75 1544 -75 
Q 1250 -75 995 37 
Q 741 150 617 320 
Q 494 491 444 738 
Q 409 903 409 1263 
L 409 3319 
L 972 3319 
L 972 1478 
Q 972 1038 1006 884 
Q 1059 663 1231 536 
Q 1403 409 1656 409 
Q 1909 409 2131 539 
Q 2353 669 2445 892 
Q 2538 1116 2538 1541 
L 2538 3319 
L 3100 3319 
L 3100 0 
L 2597 0 
z
" transform="scale(0.015625)"/>
       <path id="ArialMT-b" d="M 1497 -1347 
Q 1031 -759 709 28 
Q 388 816 388 1659 
Q 388 2403 628 3084 
Q 909 3875 1497 4659 
L 1900 4659 
Q 1522 4009 1400 3731 
Q 1209 3300 1100 2831 
Q 966 2247 966 1656 
Q 966 153 1900 -1347 
L 1497 -1347 
z
" transform="scale(0.015625)"/>
       <path id="ArialMT-83" d="M 400 3794 
Q 400 4153 654 4406 
Q 909 4659 1266 4659 
Q 1628 4659 1881 4406 
Q 2134 4153 2134 3794 
Q 2134 3434 1879 3179 
Q 1625 2925 1266 2925 
Q 909 2925 654 3178 
Q 400 3431 400 3794 
z
M 741 3794 
Q 741 3575 895 3420 
Q 1050 3266 1269 3266 
Q 1484 3266 1639 3420 
Q 1794 3575 1794 3794 
Q 1794 4013 1639 4167 
Q 1484 4322 1269 4322 
Q 1050 4322 895 4167 
Q 741 4013 741 3794 
z
" transform="scale(0.015625)"/>
       <path id="ArialMT-26" d="M 3763 1606 
L 4369 1453 
Q 4178 706 3683 314 
Q 3188 -78 2472 -78 
Q 1731 -78 1267 223 
Q 803 525 561 1097 
Q 319 1669 319 2325 
Q 319 3041 592 3573 
Q 866 4106 1370 4382 
Q 1875 4659 2481 4659 
Q 3169 4659 3637 4309 
Q 4106 3959 4291 3325 
L 3694 3184 
Q 3534 3684 3231 3912 
Q 2928 4141 2469 4141 
Q 1941 4141 1586 3887 
Q 1231 3634 1087 3207 
Q 944 2781 944 2328 
Q 944 1744 1114 1308 
Q 1284 872 1643 656 
Q 2003 441 2422 441 
Q 2931 441 3284 734 
Q 3638 1028 3763 1606 
z
" transform="scale(0.015625)"/>
       <path id="ArialMT-c" d="M 791 -1347 
L 388 -1347 
Q 1322 153 1322 1656 
Q 1322 2244 1188 2822 
Q 1081 3291 891 3722 
Q 769 4003 388 4659 
L 791 4659 
Q 1378 3875 1659 3084 
Q 1900 2403 1900 1659 
Q 1900 816 1576 28 
Q 1253 -759 791 -1347 
z
" transform="scale(0.015625)"/>
      </defs>
      <use xlink:href="#ArialMT-37"/>
      <use xlink:href="#ArialMT-14" transform="translate(61.078125 0)"/>
      <use xlink:href="#ArialMT-3" transform="translate(116.6875 0)"/>
      <use xlink:href="#ArialMT-37" transform="translate(142.65625 0)"/>
      <use xlink:href="#ArialMT-48" transform="translate(192.65625 0)"/>
      <use xlink:href="#ArialMT-50" transform="translate(248.265625 0)"/>
      <use xlink:href="#ArialMT-53" transform="translate(331.5625 0)"/>
      <use xlink:href="#ArialMT-48" transform="translate(387.171875 0)"/>
      <use xlink:href="#ArialMT-55" transform="translate(442.78125 0)"/>
      <use xlink:href="#ArialMT-44" transform="translate(476.078125 0)"/>
      <use xlink:href="#ArialMT-57" transform="translate(531.6875 0)"/>
      <use xlink:href="#ArialMT-58" transform="translate(559.46875 0)"/>
      <use xlink:href="#ArialMT-55" transform="translate(615.078125 0)"/>
      <use xlink:href="#ArialMT-48" transform="translate(648.375 0)"/>
      <use xlink:href="#ArialMT-3" transform="translate(703.984375 0)"/>
      <use xlink:href="#ArialMT-b" transform="translate(731.765625 0)"/>
      <use xlink:href="#ArialMT-83" transform="translate(765.0625 0)"/>
      <use xlink:href="#ArialMT-26" transform="translate(805.046875 0)"/>
      <use xlink:href="#ArialMT-c" transform="translate(877.265625 0)"/>
     </g>
    </g>
   </g>
   <g id="matplotlib.axis_2">
    <g id="ytick_1">
     <g id="line2d_25">
      <defs>
       <path id="mf9508d3c30" d="M 0 0 
L 6 0 
" style="stroke: #000000; stroke-width: 0.8"/>
      </defs>
      <g>
       <use xlink:href="#mf9508d3c30" x="60.598945" y="291.205218" style="stroke: #000000; stroke-width: 0.8"/>
      </g>
     </g>
     <g id="text_8">
      <!-- $\mathdefault{10^{-20}}$ -->
      <g transform="translate(24.338945 297.645218) scale(0.14 -0.14)">
       <defs>
        <path id="ArialMT-ed" d="M 3381 1997 
L 356 1997 
L 356 2522 
L 3381 2522 
L 3381 1997 
z
" transform="scale(0.015625)"/>
       </defs>
       <use xlink:href="#ArialMT-14" transform="translate(0 0.3875)"/>
       <use xlink:href="#ArialMT-13" transform="translate(55.615234 0.3875)"/>
       <use xlink:href="#ArialMT-ed" transform="translate(112.1875 41.6875) scale(0.7)"/>
       <use xlink:href="#ArialMT-15" transform="translate(153.066406 41.6875) scale(0.7)"/>
       <use xlink:href="#ArialMT-13" transform="translate(191.99707 41.6875) scale(0.7)"/>
      </g>
     </g>
    </g>
    <g id="ytick_2">
     <g id="line2d_26">
      <g>
       <use xlink:href="#mf9508d3c30" x="60.598945" y="237.749601" style="stroke: #000000; stroke-width: 0.8"/>
      </g>
     </g>
     <g id="text_9">
      <!-- $\mathdefault{10^{-18}}$ -->
      <g transform="translate(24.338945 244.189601) scale(0.14 -0.14)">
       <use xlink:href="#ArialMT-14" transform="translate(0 0.3875)"/>
       <use xlink:href="#ArialMT-13" transform="translate(55.615234 0.3875)"/>
       <use xlink:href="#ArialMT-ed" transform="translate(112.1875 41.6875) scale(0.7)"/>
       <use xlink:href="#ArialMT-14" transform="translate(153.066406 41.6875) scale(0.7)"/>
       <use xlink:href="#ArialMT-1b" transform="translate(191.99707 41.6875) scale(0.7)"/>
      </g>
     </g>
    </g>
    <g id="ytick_3">
     <g id="line2d_27">
      <g>
       <use xlink:href="#mf9508d3c30" x="60.598945" y="184.293985" style="stroke: #000000; stroke-width: 0.8"/>
      </g>
     </g>
     <g id="text_10">
      <!-- $\mathdefault{10^{-16}}$ -->
      <g transform="translate(24.338945 190.733985) scale(0.14 -0.14)">
       <use xlink:href="#ArialMT-14" transform="translate(0 0.3875)"/>
       <use xlink:href="#ArialMT-13" transform="translate(55.615234 0.3875)"/>
       <use xlink:href="#ArialMT-ed" transform="translate(112.1875 41.6875) scale(0.7)"/>
       <use xlink:href="#ArialMT-14" transform="translate(153.066406 41.6875) scale(0.7)"/>
       <use xlink:href="#ArialMT-19" transform="translate(191.99707 41.6875) scale(0.7)"/>
      </g>
     </g>
    </g>
    <g id="ytick_4">
     <g id="line2d_28">
      <g>
       <use xlink:href="#mf9508d3c30" x="60.598945" y="130.838368" style="stroke: #000000; stroke-width: 0.8"/>
      </g>
     </g>
     <g id="text_11">
      <!-- $\mathdefault{10^{-14}}$ -->
      <g transform="translate(24.338945 137.278368) scale(0.14 -0.14)">
       <use xlink:href="#ArialMT-14" transform="translate(0 0.3875)"/>
       <use xlink:href="#ArialMT-13" transform="translate(55.615234 0.3875)"/>
       <use xlink:href="#ArialMT-ed" transform="translate(112.1875 41.6875) scale(0.7)"/>
       <use xlink:href="#ArialMT-14" transform="translate(153.066406 41.6875) scale(0.7)"/>
       <use xlink:href="#ArialMT-17" transform="translate(191.99707 41.6875) scale(0.7)"/>
      </g>
     </g>
    </g>
    <g id="ytick_5">
     <g id="line2d_29">
      <g>
       <use xlink:href="#mf9508d3c30" x="60.598945" y="77.382752" style="stroke: #000000; stroke-width: 0.8"/>
      </g>
     </g>
     <g id="text_12">
      <!-- $\mathdefault{10^{-12}}$ -->
      <g transform="translate(24.338945 83.822752) scale(0.14 -0.14)">
       <use xlink:href="#ArialMT-14" transform="translate(0 0.3875)"/>
       <use xlink:href="#ArialMT-13" transform="translate(55.615234 0.3875)"/>
       <use xlink:href="#ArialMT-ed" transform="translate(112.1875 41.6875) scale(0.7)"/>
       <use xlink:href="#ArialMT-14" transform="translate(153.066406 41.6875) scale(0.7)"/>
       <use xlink:href="#ArialMT-15" transform="translate(191.99707 41.6875) scale(0.7)"/>
      </g>
     </g>
    </g>
    <g id="text_13">
     <!-- Ion Current (m/z 40) -->
     <g transform="translate(17.392383 234.056768) rotate(-90) scale(0.14 -0.14)">
      <defs>
       <path id="ArialMT-2c" d="M 597 0 
L 597 4581 
L 1203 4581 
L 1203 0 
L 597 0 
z
" transform="scale(0.015625)"/>
       <path id="ArialMT-52" d="M 213 1659 
Q 213 2581 725 3025 
Q 1153 3394 1769 3394 
Q 2453 3394 2887 2945 
Q 3322 2497 3322 1706 
Q 3322 1066 3130 698 
Q 2938 331 2570 128 
Q 2203 -75 1769 -75 
Q 1072 -75 642 372 
Q 213 819 213 1659 
z
M 791 1659 
Q 791 1022 1069 705 
Q 1347 388 1769 388 
Q 2188 388 2466 706 
Q 2744 1025 2744 1678 
Q 2744 2294 2464 2611 
Q 2184 2928 1769 2928 
Q 1347 2928 1069 2612 
Q 791 2297 791 1659 
z
" transform="scale(0.015625)"/>
       <path id="ArialMT-51" d="M 422 0 
L 422 3319 
L 928 3319 
L 928 2847 
Q 1294 3394 1984 3394 
Q 2284 3394 2536 3286 
Q 2788 3178 2913 3003 
Q 3038 2828 3088 2588 
Q 3119 2431 3119 2041 
L 3119 0 
L 2556 0 
L 2556 2019 
Q 2556 2363 2490 2533 
Q 2425 2703 2258 2804 
Q 2091 2906 1866 2906 
Q 1506 2906 1245 2678 
Q 984 2450 984 1813 
L 984 0 
L 422 0 
z
" transform="scale(0.015625)"/>
       <path id="ArialMT-12" d="M 0 -78 
L 1328 4659 
L 1778 4659 
L 453 -78 
L 0 -78 
z
" transform="scale(0.015625)"/>
       <path id="ArialMT-5d" d="M 125 0 
L 125 456 
L 2238 2881 
Q 1878 2863 1603 2863 
L 250 2863 
L 250 3319 
L 2963 3319 
L 2963 2947 
L 1166 841 
L 819 456 
Q 1197 484 1528 484 
L 3063 484 
L 3063 0 
L 125 0 
z
" transform="scale(0.015625)"/>
      </defs>
      <use xlink:href="#ArialMT-2c"/>
      <use xlink:href="#ArialMT-52" transform="translate(27.78125 0)"/>
      <use xlink:href="#ArialMT-51" transform="translate(83.390625 0)"/>
      <use xlink:href="#ArialMT-3" transform="translate(139 0)"/>
      <use xlink:href="#ArialMT-26" transform="translate(166.78125 0)"/>
      <use xlink:href="#ArialMT-58" transform="translate(239 0)"/>
      <use xlink:href="#ArialMT-55" transform="translate(294.609375 0)"/>
      <use xlink:href="#ArialMT-55" transform="translate(327.90625 0)"/>
      <use xlink:href="#ArialMT-48" transform="translate(361.203125 0)"/>
      <use xlink:href="#ArialMT-51" transform="translate(416.8125 0)"/>
      <use xlink:href="#ArialMT-57" transform="translate(472.421875 0)"/>
      <use xlink:href="#ArialMT-3" transform="translate(500.203125 0)"/>
      <use xlink:href="#ArialMT-b" transform="translate(527.984375 0)"/>
      <use xlink:href="#ArialMT-50" transform="translate(561.28125 0)"/>
      <use xlink:href="#ArialMT-12" transform="translate(644.578125 0)"/>
      <use xlink:href="#ArialMT-5d" transform="translate(672.359375 0)"/>
      <use xlink:href="#ArialMT-3" transform="translate(722.359375 0)"/>
      <use xlink:href="#ArialMT-17" transform="translate(750.140625 0)"/>
      <use xlink:href="#ArialMT-13" transform="translate(805.75 0)"/>
      <use xlink:href="#ArialMT-c" transform="translate(861.359375 0)"/>
     </g>
    </g>
   </g>
   <g id="line2d_30">
    <path d="M 59.617544 291.205218 
L 59.579798 291.205218 
L 59.542052 133.863607 
L 59.806275 134.428886 
L 60.598945 139.855125 
L 62.108793 139.289028 
L 64.298073 137.604703 
L 66.600592 145.386903 
L 68.714379 291.205218 
L 70.48845 166.381089 
L 71.960552 291.205218 
L 73.243923 156.09335 
L 74.376309 141.67713 
L 75.470949 136.190278 
L 76.527843 133.858052 
L 77.660229 130.742523 
L 78.754869 128.183796 
L 79.887255 129.335242 
L 81.095133 136.882225 
L 82.303012 134.815081 
L 83.473144 149.307337 
L 84.681022 152.40091 
L 85.888901 151.76358 
L 87.210018 162.519743 
L 88.531135 291.205218 
L 89.77676 291.205218 
L 91.022384 150.86816 
L 92.230263 149.455052 
L 93.438141 158.87908 
L 94.608274 141.766223 
L 95.778406 143.604963 
L 96.948538 139.546366 
L 98.080924 141.697578 
L 99.326549 152.186354 
L 100.534428 291.205218 
L 105.214957 291.205218 
L 106.422835 144.683388 
L 107.592967 140.62067 
L 108.725353 139.213682 
L 109.85774 146.589671 
L 110.990126 157.077542 
L 112.198004 157.882065 
L 113.368136 291.205218 
L 116.991772 291.205218 
L 118.124158 139.462989 
L 119.29429 138.219677 
L 121.672301 133.82046 
L 122.842433 129.981696 
L 124.050312 129.439751 
L 125.295936 132.18644 
L 126.503815 135.898359 
L 127.673947 140.772608 
L 128.844079 144.078801 
L 130.014212 139.339464 
L 131.184344 145.205516 
L 132.354476 149.96076 
L 133.524608 143.624595 
L 134.656995 136.614619 
L 135.864873 143.190991 
L 137.072751 146.192597 
L 138.318376 140.512369 
L 139.526255 133.458879 
L 140.696387 125.193298 
L 142.998905 122.149637 
L 145.301424 120.333164 
L 146.471556 118.812466 
L 147.641688 120.576662 
L 148.887313 120.176299 
L 150.095191 121.62129 
L 151.227577 120.26727 
L 152.435456 118.532651 
L 153.605588 118.715374 
L 154.77572 118.681917 
L 156.021345 117.756672 
L 157.153731 115.86323 
L 158.286117 113.288028 
L 159.45625 113.586705 
L 160.626382 111.887193 
L 161.872006 110.954008 
L 163.042139 107.438565 
L 165.42015 103.574841 
L 166.628028 102.098804 
L 167.79816 100.321385 
L 169.006039 98.98215 
L 170.176171 97.907745 
L 171.270811 97.577764 
L 172.440943 97.07598 
L 174.818954 96.551454 
L 175.989086 96.7362 
L 177.196965 96.65754 
L 178.367097 96.743316 
L 179.499483 96.636814 
L 180.707361 96.680761 
L 181.877494 96.343251 
L 183.047626 96.27737 
L 184.255505 95.845835 
L 185.387891 95.652148 
L 186.558023 95.65557 
L 187.765901 95.247143 
L 188.97378 95.091244 
L 190.06842 95.349752 
L 191.314044 95.075467 
L 192.559669 95.461446 
L 193.767548 94.733383 
L 194.899934 93.635195 
L 196.183304 92.59785 
L 197.353437 91.462755 
L 199.655955 88.765378 
L 203.09086 86.704267 
L 204.298738 86.18992 
L 206.676749 84.520994 
L 207.846881 83.982502 
L 209.05476 82.623898 
L 210.187146 80.932184 
L 211.395024 78.137715 
L 212.565156 74.903106 
L 214.905421 66.26065 
L 216.075553 62.541537 
L 217.283432 59.126729 
L 218.529056 56.378885 
L 219.699189 54.210224 
L 220.793828 52.766691 
L 221.963961 51.931601 
L 223.171839 51.656443 
L 224.341972 51.995 
L 225.512104 52.715125 
L 226.719982 53.98044 
L 229.022501 57.387661 
L 231.362765 61.466615 
L 233.70303 65.876843 
L 236.005548 70.260828 
L 237.251173 73.504909 
L 238.383559 74.318771 
L 239.591437 74.160062 
L 243.13958 74.271608 
L 244.271966 74.860146 
L 245.479845 75.90809 
L 246.649977 77.766598 
L 247.857856 80.870645 
L 248.990242 86.511796 
L 250.160374 85.37556 
L 251.330506 86.00977 
L 252.538385 87.262391 
L 253.708517 87.69275 
L 254.840903 87.829709 
L 256.048782 88.496315 
L 257.218914 88.816413 
L 259.634671 89.166037 
L 260.767057 88.995605 
L 261.974935 89.011155 
L 263.182814 89.40147 
L 264.352946 89.99556 
L 265.523078 89.898446 
L 267.901089 90.235713 
L 270.203607 90.142524 
L 272.506126 90.648546 
L 273.751751 90.720068 
L 274.884137 91.087762 
L 276.092015 91.600393 
L 277.262147 91.958791 
L 278.43228 91.995216 
L 279.564666 91.504444 
L 280.772544 91.200186 
L 285.490819 90.783524 
L 289.001216 91.450441 
L 290.209095 91.179658 
L 292.511613 91.092244 
L 293.719492 91.705305 
L 294.889624 91.29352 
L 296.02201 90.697923 
L 297.267635 90.295828 
L 298.400021 89.800996 
L 299.607899 89.848704 
L 300.740285 89.770326 
L 301.910418 89.502512 
L 303.042804 89.882027 
L 304.212936 90.52142 
L 305.496307 90.898636 
L 306.704185 90.720027 
L 309.119942 90.175171 
L 310.327821 90.019323 
L 312.743578 90.992261 
L 313.875964 90.847543 
L 315.046096 91.276394 
L 316.216228 91.515347 
L 317.348614 91.359172 
L 318.518747 91.609526 
L 319.651133 91.426329 
L 322.06689 92.103387 
L 323.237022 92.598481 
L 324.407154 92.647034 
L 325.615033 92.317439 
L 326.747419 92.163806 
L 329.049937 92.345939 
L 330.257816 92.945398 
L 331.427948 92.881119 
L 332.635826 93.718716 
L 333.768212 94.010049 
L 334.976091 94.06329 
L 336.108477 93.476104 
L 337.316355 93.691141 
L 338.486488 93.205313 
L 339.618874 93.363976 
L 340.789006 92.797458 
L 341.996885 93.013216 
L 343.167017 92.900334 
L 344.337149 93.040744 
L 347.847546 91.167587 
L 351.395689 90.786089 
L 352.565821 90.699978 
L 354.906086 91.632544 
L 360.794493 88.56249 
L 361.964626 88.54913 
L 363.097012 88.209503 
L 364.30489 88.194519 
L 365.39953 88.7444 
L 366.645155 88.54566 
L 369.023165 87.354798 
L 370.117805 86.21852 
L 371.287938 85.375936 
L 372.495816 84.711893 
L 373.703695 84.524365 
L 374.798334 84.090859 
L 375.930721 84.059429 
L 377.214091 84.304844 
L 378.308731 84.369207 
L 380.913219 84.100428 
L 383.517707 82.945721 
L 387.103596 81.782047 
L 389.368369 81.548231 
L 392.992004 81.786364 
L 394.162136 81.988101 
L 396.502401 81.968195 
L 400.012798 80.951776 
L 402.353062 80.565153 
L 403.560941 80.608787 
L 404.768819 80.948676 
L 405.938951 81.579153 
L 407.071338 81.896819 
L 408.203724 82.025453 
L 409.524841 81.748556 
L 410.581734 81.730976 
L 411.789613 81.888412 
L 414.054385 81.85492 
L 415.30001 82.219527 
L 417.640274 83.290983 
L 418.810407 83.655446 
L 420.093777 83.87391 
L 421.150671 84.261967 
L 422.35855 85.050009 
L 423.415443 85.895264 
L 424.925291 86.250693 
L 425.982185 86.710851 
L 427.076825 87.371386 
L 431.757354 88.948566 
L 436.437883 90.668107 
L 438.778148 92.007712 
L 439.910534 92.426451 
L 441.269397 92.799772 
L 442.326291 94.097536 
L 443.534169 94.877758 
L 445.949926 95.48897 
L 446.931327 95.335402 
L 448.139206 95.63736 
L 449.347084 96.243452 
L 450.47947 96.397809 
L 452.932974 97.408533 
L 454.140852 98.986007 
L 455.122253 99.78034 
L 456.632101 100.21215 
L 457.953218 100.310254 
L 459.236589 100.101305 
L 460.595453 99.653888 
L 461.576854 99.525299 
L 462.935717 98.922501 
L 463.992611 99.027184 
L 465.238236 99.026062 
L 466.332875 99.261925 
L 468.559901 98.482181 
L 469.994257 98.635328 
L 470.900166 98.512191 
L 473.353669 99.330452 
L 475.656187 99.778364 
L 476.864066 100.296427 
L 480.449955 98.449003 
L 482.639235 98.132219 
L 483.960352 98.693909 
L 485.092738 98.698662 
L 486.26287 99.291653 
L 488.565389 99.068649 
L 489.84876 98.764734 
L 492.189024 97.719064 
L 493.434649 97.006525 
L 493.434649 97.006525 
" clip-path="url(#p0b802c44ce)" style="fill: none; stroke: #000000; stroke-width: 2.5; stroke-linecap: square"/>
   </g>
   <g id="line2d_31">
    <path d="M 59.013605 147.466363 
L 58.938112 134.379869 
L 58.938112 291.205218 
L 59.013605 291.205218 
L 59.466559 148.026328 
L 60.523453 138.996605 
L 62.297524 136.808519 
L 64.52455 130.285279 
L 66.71383 127.869479 
L 68.638886 126.523431 
L 70.261973 127.285744 
L 71.658583 130.825639 
L 72.866461 132.637061 
L 73.961101 137.100281 
L 75.055741 140.651883 
L 76.150381 142.385695 
L 77.245021 151.120834 
L 79.547539 137.892711 
L 80.717671 142.370509 
L 81.887803 142.467068 
L 83.095682 163.117528 
L 84.30356 137.130044 
L 85.511439 136.866063 
L 86.832556 132.607966 
L 88.115927 128.859817 
L 89.399298 131.083967 
L 90.682669 128.782252 
L 91.890547 129.372867 
L 93.098426 140.670748 
L 94.268558 291.205218 
L 103.667362 291.205218 
L 104.837495 170.232544 
L 107.140013 138.980605 
L 108.272399 134.666069 
L 109.480277 135.099989 
L 110.688156 137.614415 
L 111.896034 145.98457 
L 113.066167 145.636371 
L 114.198553 291.205218 
L 117.746696 291.205218 
L 118.916828 201.654374 
L 120.08696 146.934903 
L 121.332585 146.205751 
L 122.502717 146.620614 
L 123.67285 142.121719 
L 124.880728 136.605572 
L 126.05086 140.398091 
L 127.258739 136.428984 
L 128.428871 136.045542 
L 129.599003 139.83993 
L 130.806882 135.557649 
L 131.977014 132.828006 
L 133.147146 132.880761 
L 134.317279 134.427192 
L 135.525157 136.248233 
L 136.695289 133.946853 
L 137.865422 136.798445 
L 139.035554 142.067825 
L 140.243432 159.166066 
L 141.413565 157.373755 
L 142.621443 149.93413 
L 143.791576 137.618518 
L 144.999454 141.622748 
L 147.339719 132.415143 
L 148.547597 127.262469 
L 149.717729 126.506852 
L 150.925608 126.251018 
L 152.09574 126.452816 
L 153.303619 125.850517 
L 154.473751 124.452363 
L 155.643883 119.454913 
L 156.738523 118.527579 
L 157.908655 115.556141 
L 159.116534 113.830284 
L 160.286666 112.807471 
L 161.532291 111.332128 
L 162.740169 111.431691 
L 163.948048 111.964858 
L 165.080434 113.560365 
L 166.288312 114.269793 
L 167.458444 112.847988 
L 168.628577 112.232376 
L 169.836455 112.987633 
L 172.101227 111.808846 
L 173.309106 109.32044 
L 174.441492 108.674432 
L 175.611624 108.229266 
L 177.914143 108.932328 
L 179.122021 109.356873 
L 180.329899 110.82454 
L 181.537778 113.175416 
L 183.840296 112.961738 
L 185.010429 109.86936 
L 186.218307 108.085939 
L 187.426186 106.574741 
L 188.596318 105.612919 
L 189.76645 104.27914 
L 190.974329 104.271804 
L 192.182207 103.823498 
L 193.427832 104.219257 
L 194.522472 103.771825 
L 195.73035 102.438716 
L 196.975975 100.591323 
L 198.146107 99.557611 
L 199.278493 98.119192 
L 203.959022 93.861927 
L 205.129154 93.342218 
L 206.299287 92.025216 
L 207.469419 90.402981 
L 208.639551 89.371638 
L 209.885176 87.411541 
L 212.225441 82.809179 
L 215.773584 76.412357 
L 216.90597 74.680134 
L 218.076102 73.19819 
L 219.28398 72.374188 
L 220.454113 71.814296 
L 221.586499 71.507746 
L 222.756631 71.465502 
L 223.926763 71.778149 
L 226.304774 73.276381 
L 228.682785 75.342536 
L 229.815171 76.602539 
L 230.985303 78.095193 
L 236.873711 83.152062 
L 238.043843 83.969792 
L 239.251721 84.95714 
L 240.421854 85.602193 
L 241.591986 86.463249 
L 243.932251 86.890091 
L 245.102383 87.09391 
L 246.272515 87.611795 
L 248.575033 87.988128 
L 249.782912 87.735622 
L 251.028537 87.821647 
L 253.368801 88.709519 
L 254.57668 88.895402 
L 255.709066 89.452224 
L 256.879198 90.173084 
L 258.124823 91.11629 
L 259.257209 91.51353 
L 260.502833 91.434413 
L 261.63522 90.952286 
L 262.805352 90.989063 
L 263.975484 90.831664 
L 265.145616 90.529118 
L 266.353495 90.688663 
L 269.901638 91.460555 
L 270.996278 91.667734 
L 272.16641 91.339059 
L 276.884685 91.173178 
L 278.092564 91.687845 
L 279.22495 91.799524 
L 280.395082 91.441875 
L 281.602961 91.567807 
L 282.773093 91.807831 
L 283.943225 91.62258 
L 285.151104 92.08476 
L 286.321236 92.299835 
L 288.6615 92.294894 
L 289.869379 92.479442 
L 291.039511 92.369298 
L 292.171897 91.607235 
L 293.379776 91.620724 
L 295.72004 90.961739 
L 296.890173 90.55966 
L 298.060305 90.362118 
L 300.362823 90.649494 
L 302.77858 89.999568 
L 303.948712 89.746454 
L 306.364469 90.222047 
L 308.780226 91.545656 
L 309.988105 92.313275 
L 311.158237 93.280382 
L 312.290623 93.67392 
L 314.70638 93.27019 
L 315.838766 93.099864 
L 317.046645 92.692341 
L 319.386909 93.167452 
L 322.935052 93.285221 
L 325.237571 93.173567 
L 326.407703 92.820911 
L 327.540089 92.61396 
L 328.747967 92.553522 
L 331.088232 92.697998 
L 333.428497 93.294417 
L 334.560883 93.111285 
L 335.768761 93.134587 
L 340.487036 92.441665 
L 341.657169 91.784796 
L 342.789555 92.105268 
L 343.921941 91.990236 
L 347.470084 90.397054 
L 349.923587 89.342042 
L 350.980481 89.284568 
L 352.150613 88.95764 
L 353.396238 88.841121 
L 354.528624 89.243214 
L 355.811995 89.392645 
L 357.963528 88.429265 
L 359.246899 88.372382 
L 360.379285 87.749789 
L 361.549417 87.389125 
L 362.757296 87.261163 
L 364.002921 86.815199 
L 365.135307 86.65032 
L 366.267693 86.020538 
L 367.437825 85.868155 
L 369.77809 84.870677 
L 370.985968 84.776749 
L 372.1561 84.438721 
L 374.458619 84.291296 
L 375.628751 84.256 
L 376.761137 84.424304 
L 377.969015 84.108193 
L 379.21464 84.257301 
L 381.894621 83.716954 
L 386.688388 82.034122 
L 387.971759 81.551474 
L 389.104145 81.560427 
L 393.860167 81.034921 
L 395.030299 80.873643 
L 396.0117 81.012286 
L 397.332817 81.043852 
L 398.540696 80.846755 
L 399.673082 81.018147 
L 402.088839 82.074428 
L 403.258971 82.308312 
L 404.353611 82.363288 
L 407.901754 82.17067 
L 412.544537 82.270117 
L 413.639177 82.735674 
L 416.130426 83.257433 
L 417.300558 83.71386 
L 418.583929 83.818438 
L 423.15122 85.70742 
L 424.396844 85.99774 
L 425.604723 86.939182 
L 429.266105 88.649679 
L 430.360744 88.759191 
L 431.455384 89.099382 
L 432.550024 89.586165 
L 433.757903 89.827616 
L 434.852543 90.266837 
L 436.060421 90.447356 
L 438.362939 91.372672 
L 439.64631 91.777278 
L 440.891935 92.361331 
L 441.986575 92.682811 
L 443.081215 93.269962 
L 444.326839 93.691337 
L 446.70485 94.174282 
L 447.79949 93.997012 
L 448.931876 94.771656 
L 451.385379 95.998819 
L 452.517765 97.242355 
L 453.687898 98.295161 
L 454.669299 98.816552 
L 457.764487 99.292673 
L 459.010112 98.472172 
L 460.067006 97.929425 
L 461.350377 98.297483 
L 462.558255 98.163752 
L 463.50191 98.381612 
L 464.860774 99.059199 
L 465.917667 99.339994 
L 467.087799 98.676358 
L 468.333424 98.956372 
L 469.541303 98.27959 
L 470.598196 98.241348 
L 471.843821 99.03692 
L 472.862968 99.473624 
L 474.184086 99.785464 
L 475.354218 99.451829 
L 477.694482 98.105389 
L 478.902361 98.057945 
L 480.261224 98.825688 
L 481.167133 99.534159 
L 482.412758 100.71549 
L 483.771621 102.309862 
L 484.639784 103.549151 
L 485.923154 104.228675 
L 488.074688 103.150732 
L 490.679176 104.276091 
L 491.962547 104.411856 
L 492.906202 103.899154 
L 493.887603 102.588738 
L 493.887603 102.588738 
" clip-path="url(#p0b802c44ce)" style="fill: none; stroke: #1f77b4; stroke-width: 2.5; stroke-linecap: square"/>
   </g>
   <g id="line2d_32">
    <path d="M 58.636143 139.187727 
L 58.636143 133.692908 
L 58.673889 291.205218 
L 59.013605 291.205218 
L 60.032752 145.071206 
L 61.84457 135.641957 
L 63.996104 138.855536 
L 66.223129 161.834935 
L 68.185932 143.960368 
L 69.809019 144.36295 
L 71.205628 135.59463 
L 72.413507 137.123692 
L 73.508147 139.004413 
L 74.602786 135.035272 
L 75.697426 136.295569 
L 76.792066 143.794532 
L 77.924452 159.56284 
L 79.094585 291.205218 
L 80.264717 156.922082 
L 81.472595 161.859687 
L 82.680474 134.205527 
L 83.850606 129.63094 
L 85.058484 128.988494 
L 86.304109 128.496747 
L 87.58748 131.124543 
L 88.908597 139.617198 
L 90.229714 140.237566 
L 91.437593 154.231049 
L 92.607725 159.718963 
L 93.777857 188.905362 
L 94.910243 151.246235 
L 96.080376 149.387677 
L 97.250508 149.471821 
L 98.458386 135.429567 
L 99.628519 135.020689 
L 100.798651 138.005196 
L 103.214408 134.838218 
L 104.422286 155.109253 
L 105.630165 169.141943 
L 106.762551 291.205218 
L 107.932683 291.205218 
L 109.178308 141.506929 
L 110.34844 133.466481 
L 111.480826 132.151412 
L 112.53772 137.141314 
L 113.707852 133.558222 
L 114.953477 132.960614 
L 116.161355 142.010974 
L 117.369234 134.025196 
L 119.747245 130.301621 
L 120.955123 128.624882 
L 122.125255 127.429239 
L 123.257641 127.861874 
L 124.46552 131.746409 
L 125.635652 133.688369 
L 126.843531 139.139969 
L 128.013663 138.613407 
L 129.259288 133.785307 
L 130.467166 134.277396 
L 131.637298 142.519121 
L 132.807431 134.16078 
L 133.939817 129.905966 
L 135.109949 129.966991 
L 136.280081 128.726709 
L 137.563452 132.307026 
L 138.771331 130.374763 
L 139.903717 130.635268 
L 141.036103 139.069595 
L 142.243981 144.955117 
L 143.376367 148.95016 
L 144.584246 137.815924 
L 145.792124 135.627857 
L 146.962257 128.831084 
L 148.170135 126.381261 
L 149.340267 126.465834 
L 150.472653 124.048844 
L 151.680532 123.694529 
L 152.88841 125.136539 
L 154.058543 125.109576 
L 155.228675 124.118025 
L 156.436553 123.6539 
L 157.644432 125.169565 
L 158.776818 120.873521 
L 159.984696 121.571387 
L 161.154829 121.591277 
L 162.324961 120.197348 
L 163.495093 117.835113 
L 164.665225 116.106088 
L 165.835358 115.959408 
L 167.00549 115.42548 
L 168.213368 116.421656 
L 169.383501 116.899265 
L 170.591379 114.822221 
L 171.723765 117.069594 
L 172.931644 117.70661 
L 174.101776 117.416605 
L 175.271908 116.174749 
L 176.442041 114.433496 
L 177.612173 115.65054 
L 178.782305 116.37927 
L 179.914691 117.950841 
L 181.12257 115.966204 
L 182.292702 114.794312 
L 183.462834 115.709582 
L 184.632967 114.240256 
L 185.840845 113.350966 
L 187.010977 111.706635 
L 188.256602 110.76823 
L 189.426734 110.027412 
L 190.634613 110.292613 
L 191.804745 108.802349 
L 193.05037 106.416933 
L 194.220502 105.31433 
L 196.52302 103.803345 
L 197.693153 103.574909 
L 198.863285 102.435759 
L 200.033417 101.78371 
L 201.203549 100.594101 
L 202.411428 99.944254 
L 203.58156 98.693865 
L 205.921825 95.327079 
L 207.054211 94.258627 
L 208.299835 92.360014 
L 210.677846 89.791367 
L 211.772486 88.246425 
L 213.018111 86.99402 
L 214.150497 85.614736 
L 215.396122 84.668889 
L 216.528508 83.619207 
L 218.906518 82.609435 
L 220.076651 82.122352 
L 221.246783 81.512898 
L 223.549301 81.06047 
L 224.719434 81.290964 
L 225.927312 81.262607 
L 227.135191 81.667561 
L 228.267577 82.357208 
L 231.81572 85.139375 
L 232.948106 85.181568 
L 234.118238 85.804701 
L 236.496249 86.76157 
L 237.666381 86.55499 
L 238.836513 86.778044 
L 242.384656 86.953808 
L 243.554789 87.268582 
L 244.724921 87.145635 
L 248.235318 87.63547 
L 249.367704 87.624701 
L 250.575582 87.947452 
L 251.707968 87.767328 
L 255.293858 88.314031 
L 256.46399 88.244574 
L 257.596376 88.665157 
L 258.804254 88.978969 
L 259.974387 89.12826 
L 261.144519 89.670603 
L 262.352397 89.902581 
L 263.52253 89.64917 
L 264.692662 89.562347 
L 265.862794 89.901122 
L 267.032926 89.655555 
L 268.203059 89.848053 
L 269.410937 90.163597 
L 270.543323 90.587304 
L 271.788948 90.295174 
L 272.921334 90.819145 
L 274.129213 90.414415 
L 276.393985 90.362412 
L 277.677356 90.82768 
L 278.809742 90.950081 
L 279.979874 91.5904 
L 282.357885 91.58792 
L 283.528017 90.930932 
L 284.660403 91.235815 
L 285.906028 90.70938 
L 287.113906 90.640575 
L 289.416425 90.971655 
L 290.548811 91.010084 
L 291.794435 91.670286 
L 294.1347 91.272334 
L 296.512711 91.410968 
L 298.777483 90.964119 
L 299.947615 91.289077 
L 301.155493 91.151231 
L 302.325626 91.359859 
L 303.495758 91.702869 
L 304.703637 91.511261 
L 305.873769 91.994363 
L 309.497404 92.731235 
L 310.743029 93.316217 
L 311.913161 93.62451 
L 313.083293 93.80084 
L 314.253426 93.790479 
L 315.423558 94.058577 
L 316.555944 94.050888 
L 317.763823 94.611396 
L 318.971701 94.830625 
L 320.104087 95.376682 
L 321.274219 95.359775 
L 322.519844 95.786026 
L 323.65223 95.000242 
L 324.784616 94.84255 
L 325.992495 94.550525 
L 327.162627 94.415609 
L 328.332759 94.026199 
L 329.427399 93.906599 
L 330.635278 93.937625 
L 331.80541 94.662596 
L 333.013288 94.606468 
L 334.221167 95.155239 
L 335.315807 95.135193 
L 336.485939 95.436931 
L 337.656071 95.39856 
L 341.24196 94.475012 
L 342.374347 94.009265 
L 343.582225 94.183921 
L 345.960236 93.376175 
L 347.054876 92.908645 
L 348.187262 92.594105 
L 349.39514 92.560224 
L 350.565272 92.760653 
L 351.773151 93.12832 
L 352.905537 93.203852 
L 354.113416 93.64202 
L 356.491426 93.479328 
L 360.001823 91.936298 
L 362.379834 91.308273 
L 363.587712 91.182664 
L 364.682352 90.848198 
L 365.890231 91.039826 
L 367.060363 90.457629 
L 368.192749 90.493619 
L 370.533014 89.275035 
L 371.6654 88.424734 
L 372.911024 88.265269 
L 374.118903 87.964083 
L 375.251289 87.976329 
L 376.383675 87.641136 
L 377.6293 87.506101 
L 378.72394 87.016573 
L 380.00731 86.895675 
L 381.441666 86.332736 
L 382.762783 85.957045 
L 383.932915 85.473186 
L 385.17854 85.264915 
L 386.348672 84.756822 
L 387.556551 84.421621 
L 388.688937 84.403469 
L 391.066948 83.669624 
L 392.23708 83.700138 
L 393.33172 83.403332 
L 394.615091 83.292052 
L 395.785223 83.366649 
L 396.955355 83.556379 
L 398.087741 83.5226 
L 399.220127 83.644237 
L 400.352514 83.568986 
L 401.635884 83.064125 
L 402.806017 83.07279 
L 403.976149 82.953248 
L 405.033043 82.67123 
L 406.316414 82.630933 
L 407.562038 82.994774 
L 408.618932 83.656875 
L 409.864557 83.745701 
L 410.996943 83.591214 
L 412.204821 83.231214 
L 414.620578 83.577126 
L 418.130975 83.680383 
L 420.508986 85.047233 
L 422.736012 85.356327 
L 423.94389 86.055086 
L 425.189515 86.256915 
L 426.208662 86.285109 
L 427.567525 86.140298 
L 428.624419 85.858802 
L 429.719059 85.904785 
L 432.172562 86.901345 
L 433.19171 87.656764 
L 434.512827 88.154792 
L 435.645213 89.318781 
L 436.815345 89.197548 
L 439.15561 89.739965 
L 440.438981 89.760338 
L 442.666006 91.313087 
L 445.081763 92.877834 
L 446.251896 93.018024 
L 447.459774 93.489717 
L 448.478922 93.059047 
L 449.6868 93.164097 
L 450.932425 93.429485 
L 452.064811 93.350508 
L 454.367329 94.116442 
L 455.688446 94.21378 
L 458.519411 95.376228 
L 459.614051 95.353003 
L 460.859676 95.684572 
L 462.067555 96.692802 
L 463.275433 97.169691 
L 465.540205 97.034062 
L 466.672591 98.156769 
L 467.842723 97.565256 
L 470.145242 98.009522 
L 471.35312 97.190578 
L 472.636491 97.136079 
L 473.84437 97.22661 
L 474.825771 96.567108 
L 476.071396 96.019572 
L 477.31702 96.270916 
L 478.487153 97.41601 
L 479.581792 97.950999 
L 480.789671 98.758712 
L 481.997549 99.280193 
L 483.129935 99.360201 
L 485.4702 99.784664 
L 486.753571 98.870909 
L 487.923703 99.268295 
L 488.905104 100.218301 
L 490.075237 101.033006 
L 491.547339 101.301962 
L 492.717471 100.633434 
L 493.585634 98.870278 
L 493.585634 98.870278 
" clip-path="url(#p0b802c44ce)" style="fill: none; stroke: #d62728; stroke-width: 2.5; stroke-linecap: square"/>
   </g>
   <g id="line2d_33">
    <path d="M 60.372468 137.274485 
L 60.334722 142.003206 
L 60.334722 291.205218 
L 60.296976 291.205218 
L 60.447961 291.205218 
L 61.014154 156.833722 
L 62.297524 155.945555 
L 64.222581 149.08725 
L 68.487902 137.208249 
L 70.337466 134.723669 
L 71.847314 139.464588 
L 73.206177 139.079632 
L 74.338563 158.42515 
L 75.433203 147.377532 
L 76.527843 160.77451 
L 77.622483 291.205218 
L 84.643276 291.205218 
L 85.888901 155.376333 
L 87.172272 139.882848 
L 88.531135 142.530606 
L 89.77676 140.133182 
L 91.022384 162.689594 
L 92.230263 291.205218 
L 96.910792 291.205218 
L 98.118671 155.937215 
L 99.288803 151.593325 
L 100.421189 134.622511 
L 101.591321 130.379539 
L 102.723707 129.136934 
L 103.931586 129.480462 
L 105.101718 130.35428 
L 106.27185 134.882011 
L 107.479729 135.293259 
L 108.649861 142.436998 
L 109.895486 144.991542 
L 111.065618 143.066877 
L 112.23575 136.570257 
L 113.481375 136.632329 
L 114.576015 132.652231 
L 115.783893 137.937797 
L 116.954026 138.507481 
L 118.124158 150.049724 
L 119.29429 150.566404 
L 120.464422 291.205218 
L 121.596808 164.587815 
L 122.766941 160.710192 
L 123.937073 291.205218 
L 125.144951 146.94464 
L 126.315084 135.350112 
L 127.522962 137.591241 
L 128.730841 134.293758 
L 129.900973 134.281975 
L 131.108851 133.70703 
L 132.278984 133.869395 
L 133.449116 133.685581 
L 134.656995 135.257735 
L 135.864873 140.912122 
L 137.072751 134.970773 
L 138.28063 134.433757 
L 139.488508 136.703371 
L 140.658641 134.778183 
L 141.828773 135.126312 
L 142.998905 140.207533 
L 144.206784 139.902517 
L 145.376916 138.327876 
L 146.547048 133.495587 
L 147.754927 130.341178 
L 148.962805 125.969346 
L 150.132938 125.40447 
L 151.30307 122.602298 
L 152.510948 120.645484 
L 153.681081 120.216186 
L 154.888959 120.377952 
L 156.059091 122.916294 
L 157.191477 123.776984 
L 158.323863 125.982271 
L 159.493996 126.790609 
L 160.664128 127.216011 
L 161.872006 128.308756 
L 164.174525 119.629366 
L 165.382403 117.85231 
L 166.552536 117.427638 
L 167.722668 117.492664 
L 168.8928 116.587248 
L 170.025186 117.975544 
L 171.270811 119.041155 
L 172.478689 117.505099 
L 173.648822 117.708471 
L 174.818954 115.923336 
L 176.026832 114.595444 
L 177.196965 113.86332 
L 178.404843 113.348764 
L 179.537229 114.252713 
L 180.745108 114.74445 
L 181.877494 116.161715 
L 183.085372 116.337054 
L 184.180012 114.730733 
L 185.387891 114.809248 
L 186.520277 112.498823 
L 187.728155 110.987667 
L 188.97378 110.031502 
L 190.106166 108.055875 
L 191.276298 108.441232 
L 192.521923 107.880491 
L 194.899934 104.173638 
L 196.070066 102.737137 
L 198.372584 97.930591 
L 199.618209 96.18308 
L 200.788341 95.563244 
L 201.99622 93.723308 
L 203.128606 92.635041 
L 204.298738 92.107285 
L 205.46887 91.117086 
L 206.676749 90.272198 
L 207.809135 89.821835 
L 211.357278 86.798921 
L 212.565156 85.263319 
L 216.075553 79.552171 
L 218.415818 76.48559 
L 219.623696 75.378286 
L 220.793828 74.772471 
L 221.963961 74.567285 
L 223.171839 74.60322 
L 224.379718 74.858793 
L 227.890115 76.842397 
L 229.060247 77.736289 
L 231.438258 79.220876 
L 233.778522 81.170604 
L 234.910908 81.994945 
L 237.326665 84.319198 
L 238.496797 85.169979 
L 239.591437 85.647516 
L 243.13958 86.183142 
L 244.271966 86.174624 
L 245.479845 85.946138 
L 248.990242 86.596026 
L 250.160374 86.889161 
L 252.500639 86.630409 
L 253.670771 86.773255 
L 254.878649 87.07905 
L 256.048782 87.208569 
L 257.218914 87.033001 
L 258.389046 87.375662 
L 259.559178 87.570931 
L 260.767057 87.621587 
L 261.937189 87.832044 
L 263.107321 87.800884 
L 264.277454 88.104114 
L 267.750104 88.327608 
L 268.995729 88.062588 
L 270.165861 88.117113 
L 272.581618 87.099343 
L 274.84639 86.961667 
L 276.092015 87.112716 
L 277.224401 87.106778 
L 279.564666 87.761121 
L 281.980423 88.008446 
L 283.150555 87.816753 
L 284.320687 88.234034 
L 286.623206 88.279943 
L 289.038963 88.182263 
L 290.133602 88.393363 
L 291.341481 88.172434 
L 292.473867 88.593833 
L 297.192142 88.844657 
L 298.362275 88.512038 
L 299.570153 88.500787 
L 301.834925 89.127679 
L 303.08055 88.820121 
L 304.212936 88.900101 
L 305.458561 88.681515 
L 306.741931 88.741345 
L 307.94981 88.515888 
L 309.082196 88.522803 
L 310.290074 88.690979 
L 311.422461 89.796203 
L 312.630339 90.270784 
L 313.838218 90.538791 
L 315.00835 90.601213 
L 318.481 91.456472 
L 319.651133 91.548397 
L 320.859011 91.761167 
L 323.199276 93.422774 
L 324.4449 92.984906 
L 325.501794 92.785444 
L 326.747419 92.679828 
L 327.879805 92.368313 
L 329.049937 91.668027 
L 330.220069 91.624236 
L 331.390202 91.398066 
L 332.560334 91.325127 
L 333.730466 91.885238 
L 334.938345 92.228174 
L 337.278609 91.908243 
L 338.410995 91.459381 
L 341.959138 91.153559 
L 343.167017 90.936604 
L 344.337149 91.477814 
L 345.469535 91.647638 
L 346.639667 92.036398 
L 347.923038 91.250954 
L 349.017678 90.815753 
L 350.150064 90.224102 
L 352.603567 89.779878 
L 353.698207 89.279448 
L 356.038472 88.865007 
L 357.208604 88.389013 
L 358.454229 88.504375 
L 359.624361 88.19521 
L 360.719001 88.286035 
L 361.889133 87.960433 
L 363.059266 87.859138 
L 364.30489 88.020183 
L 365.437276 87.815659 
L 367.853033 87.876243 
L 368.985419 87.629144 
L 371.287938 87.399251 
L 372.533562 87.139043 
L 373.628202 86.627201 
L 377.100853 86.733983 
L 378.346477 86.716352 
L 379.441117 86.102235 
L 380.913219 85.71688 
L 383.5932 84.43738 
L 384.763332 84.066157 
L 386.008957 83.840876 
L 387.103596 83.925386 
L 388.349221 84.393638 
L 389.519353 84.517173 
L 390.613993 84.801888 
L 391.821872 84.582101 
L 393.02975 84.761591 
L 395.294522 84.24335 
L 397.710279 83.671879 
L 398.99365 83.682214 
L 402.428555 84.419384 
L 403.447702 84.667976 
L 407.033591 84.940755 
L 408.165977 84.898535 
L 409.411602 84.740418 
L 410.506242 85.006248 
L 412.884253 84.90011 
L 415.337756 85.373333 
L 416.39465 85.334384 
L 417.640274 85.653879 
L 418.734914 86.196937 
L 420.018285 86.589998 
L 422.396296 87.689194 
L 423.453189 87.256109 
L 425.906693 87.096962 
L 426.963586 87.223646 
L 428.246957 87.097678 
L 429.492582 87.297449 
L 431.681862 88.479472 
L 432.927486 89.200759 
L 434.059872 89.456671 
L 436.475629 90.282018 
L 437.608015 90.446712 
L 438.740401 91.203112 
L 439.94828 91.148435 
L 442.175306 91.681252 
L 443.458677 91.921454 
L 444.628809 91.681646 
L 445.798941 91.88163 
L 448.139206 92.573821 
L 449.309338 93.430633 
L 450.403978 93.979237 
L 451.762841 94.486232 
L 452.819735 95.185112 
L 454.06536 94.981317 
L 455.084507 95.648139 
L 456.594355 95.51032 
L 457.915472 95.689629 
L 459.085605 96.278253 
L 461.690092 98.062691 
L 464.030357 98.475068 
L 465.124997 98.844324 
L 466.370622 98.380782 
L 467.465261 98.367487 
L 468.597648 97.603732 
L 469.730034 97.30641 
L 471.013405 97.367928 
L 472.221283 97.305142 
L 473.391415 96.869027 
L 474.523801 97.136417 
L 475.580695 97.529336 
L 476.864066 98.399568 
L 478.034198 98.656292 
L 479.166584 99.064233 
L 480.487701 99.231757 
L 481.733326 100.328295 
L 482.827966 100.690352 
L 484.035844 101.342314 
L 485.130484 101.261181 
L 486.074139 102.754379 
L 487.395256 103.950409 
L 488.640881 104.876225 
L 489.811013 105.37695 
L 490.943399 105.219451 
L 492.000293 104.268486 
L 493.170425 102.559078 
L 493.170425 102.559078 
" clip-path="url(#p0b802c44ce)" style="fill: none; stroke: #ff7f0e; stroke-width: 2.5; stroke-linecap: square"/>
   </g>
   <g id="line2d_34">
    <path d="M 59.089097 291.205218 
L 59.013605 137.850967 
L 59.089097 145.090133 
L 59.391067 158.932084 
L 60.334722 151.317778 
L 61.957809 143.341785 
L 64.184835 155.829244 
L 66.449607 151.250583 
L 68.450155 140.668077 
L 70.148735 135.507133 
L 71.507598 134.852464 
L 72.715476 138.829274 
L 73.810116 138.894421 
L 74.904756 142.172726 
L 75.999396 147.636408 
L 77.094036 149.351942 
L 78.264168 291.205218 
L 79.4343 291.205218 
L 80.642179 160.366011 
L 81.812311 153.326692 
L 83.057936 149.337502 
L 85.360454 145.90244 
L 86.643825 156.770461 
L 87.88945 176.817207 
L 89.210567 291.205218 
L 92.909695 291.205218 
L 94.079827 148.352275 
L 95.287705 143.622699 
L 97.62797 139.777679 
L 98.798102 136.767157 
L 100.043727 135.131661 
L 101.213859 135.979936 
L 102.383991 134.271352 
L 103.59187 133.963347 
L 104.762002 133.038877 
L 105.932134 135.934989 
L 107.064521 141.902071 
L 108.310145 149.785449 
L 109.480277 148.644173 
L 110.688156 158.333454 
L 111.896034 291.205218 
L 113.103913 151.046253 
L 114.274045 145.744504 
L 115.444177 141.419613 
L 116.576564 141.197402 
L 117.784442 133.230216 
L 118.916828 130.025512 
L 121.294839 126.926555 
L 122.464971 128.484917 
L 123.635103 127.76346 
L 124.805236 129.257444 
L 126.013114 134.032136 
L 127.107754 137.65934 
L 128.277886 148.147206 
L 129.523511 143.844411 
L 130.655897 149.453706 
L 131.863776 139.809166 
L 133.071654 135.848092 
L 134.241786 134.474644 
L 135.449665 130.087087 
L 136.657543 134.702643 
L 137.865422 135.582237 
L 139.111046 130.039698 
L 140.281179 130.53783 
L 141.489057 128.426611 
L 142.659189 128.80676 
L 143.829322 124.872928 
L 145.0372 124.23777 
L 146.207332 121.95316 
L 147.377465 121.293257 
L 148.509851 123.209826 
L 149.679983 123.450031 
L 152.057994 122.576605 
L 153.228126 122.925247 
L 154.436005 124.495944 
L 155.606137 123.67452 
L 156.738523 122.571235 
L 157.946401 122.441578 
L 159.116534 123.639505 
L 160.286666 120.657539 
L 161.494544 120.077142 
L 162.626931 118.026021 
L 163.797063 115.572869 
L 165.004941 115.363775 
L 167.345206 113.384094 
L 169.723217 113.270169 
L 172.063481 111.059425 
L 173.233613 111.577514 
L 174.479238 111.001396 
L 175.687117 111.212449 
L 176.857249 111.98118 
L 178.027381 112.011539 
L 179.197513 111.568864 
L 180.367646 111.933164 
L 182.670164 110.378875 
L 183.840296 110.789325 
L 185.010429 110.820438 
L 186.180561 108.859542 
L 187.350693 108.850715 
L 188.483079 108.408146 
L 189.728704 108.327489 
L 190.936582 107.872456 
L 192.106715 108.836223 
L 193.276847 107.72769 
L 194.446979 105.809015 
L 195.654858 104.662137 
L 196.82499 103.25728 
L 198.032868 100.974414 
L 199.203001 99.766701 
L 200.335387 97.685199 
L 201.543265 96.993362 
L 202.713398 96.639607 
L 203.921276 96.706182 
L 205.091408 95.873169 
L 207.469419 93.594878 
L 212.149948 85.716288 
L 213.282334 83.416535 
L 214.452466 81.810262 
L 217.962863 77.730762 
L 219.208488 76.765083 
L 220.340874 76.290203 
L 221.511006 76.070074 
L 222.681139 76.550363 
L 223.889017 77.353966 
L 225.096896 77.676759 
L 228.607292 80.611113 
L 229.815171 81.309859 
L 230.947557 82.098768 
L 232.117689 83.201644 
L 233.363314 84.136434 
L 234.4957 85.562756 
L 235.703578 86.203324 
L 238.043843 86.839024 
L 239.176229 87.258671 
L 240.346361 87.494077 
L 241.516494 87.496044 
L 242.762118 87.320851 
L 246.234769 87.302616 
L 248.575033 86.748277 
L 249.782912 86.158183 
L 250.953044 86.340555 
L 253.293309 86.466183 
L 254.538933 86.550282 
L 255.709066 86.904085 
L 256.879198 87.456126 
L 259.181716 88.834567 
L 260.351849 88.996678 
L 261.559727 88.539326 
L 262.692113 89.085648 
L 263.899992 89.376106 
L 265.032378 89.381866 
L 266.240256 89.020596 
L 268.542775 89.121701 
L 269.712907 88.866538 
L 272.053171 88.905848 
L 273.336542 88.476323 
L 275.601314 89.194667 
L 277.979325 89.304984 
L 279.111711 89.926622 
L 282.659854 89.681134 
L 283.867733 89.239529 
L 284.962373 89.203322 
L 287.415876 88.787331 
L 288.586008 88.707349 
L 289.718394 89.018246 
L 290.926273 89.486793 
L 292.134151 89.640116 
L 293.266537 89.668346 
L 294.474416 89.27158 
L 295.606802 89.199787 
L 296.776934 89.255472 
L 297.984812 89.052042 
L 300.325077 89.650353 
L 301.532956 89.740695 
L 305.043352 91.392832 
L 306.288977 91.702943 
L 307.496856 92.863127 
L 308.74248 93.072163 
L 311.082745 93.730701 
L 312.290623 93.500453 
L 313.498502 92.154523 
L 314.593142 91.827619 
L 315.725528 91.332874 
L 318.028046 91.351134 
L 319.273671 91.943151 
L 322.746321 93.160897 
L 323.991946 94.298676 
L 327.464597 94.321291 
L 328.634729 94.429859 
L 329.842607 94.426509 
L 331.01274 94.251955 
L 332.145126 94.380203 
L 333.353004 94.186112 
L 335.655523 94.331737 
L 336.787909 94.193575 
L 338.109026 93.889466 
L 339.279158 93.800926 
L 340.373798 93.321022 
L 341.506184 93.328753 
L 342.789555 93.03069 
L 343.884195 93.168504 
L 345.016581 92.86281 
L 346.224459 92.821451 
L 347.394591 92.330995 
L 348.640216 92.392932 
L 349.772602 91.894194 
L 352.188359 91.438407 
L 353.282999 91.526169 
L 356.831142 91.366476 
L 359.13366 90.426169 
L 360.303793 90.189566 
L 361.473925 89.154343 
L 362.644057 89.279527 
L 363.81419 88.933447 
L 366.154454 88.842368 
L 367.362333 88.406072 
L 369.702597 88.142338 
L 372.005115 87.381645 
L 373.212994 86.800449 
L 374.383126 86.719102 
L 375.553259 86.509546 
L 380.422519 86.665129 
L 381.743636 87.018835 
L 383.064753 86.853479 
L 385.442764 86.123252 
L 390.236531 85.645028 
L 391.406664 85.693988 
L 396.0117 84.412427 
L 398.389711 84.854543 
L 399.597589 84.640474 
L 400.767722 85.291939 
L 404.315865 85.937482 
L 406.580637 85.794141 
L 407.788515 85.973524 
L 409.03414 86.324672 
L 410.053288 86.46568 
L 411.336658 86.434847 
L 412.544537 86.899989 
L 414.960294 87.29462 
L 416.017188 87.847381 
L 417.225066 87.990278 
L 418.395198 87.735468 
L 424.24586 89.232444 
L 426.812601 90.555568 
L 429.039627 90.884188 
L 433.720156 93.099084 
L 434.814796 93.100954 
L 436.022675 92.8988 
L 440.703204 94.02509 
L 441.797844 94.695629 
L 444.251347 94.985404 
L 445.270494 95.105723 
L 446.553865 94.53088 
L 447.648505 94.746319 
L 448.89413 95.368931 
L 451.272141 97.215381 
L 452.442273 97.79491 
L 453.499167 98.002159 
L 454.669299 98.048964 
L 457.500264 98.455821 
L 458.745889 98.74664 
L 461.086153 99.726439 
L 462.558255 99.696818 
L 465.69119 98.051659 
L 466.974561 97.750286 
L 468.220186 97.618967 
L 470.56045 98.014938 
L 471.768329 98.600569 
L 472.976207 99.666296 
L 474.070847 99.994441 
L 475.240979 100.914741 
L 476.448858 102.250778 
L 477.656736 102.960406 
L 478.71363 103.717809 
L 482.412758 103.803244 
L 483.58289 104.602306 
L 484.715276 104.588152 
L 485.923154 105.416387 
L 487.055541 107.246819 
L 488.225673 107.432201 
L 489.433551 107.342896 
L 490.490445 106.961376 
L 492.943948 105.765719 
L 493.774365 105.146856 
L 493.774365 105.146856 
" clip-path="url(#p0b802c44ce)" style="fill: none; stroke: #9467bd; stroke-width: 2.5; stroke-linecap: square"/>
   </g>
   <g id="line2d_35">
    <path d="M 60.108245 291.205218 
L 60.032752 134.681595 
L 60.032752 291.205218 
L 59.95726 291.205218 
L 60.070498 186.033166 
L 60.598945 156.171102 
L 61.731331 147.340527 
L 63.505403 146.086955 
L 65.694683 136.323009 
L 67.846216 137.281814 
L 69.733526 142.316722 
L 71.318867 154.171753 
L 72.67773 144.993515 
L 73.847862 142.568242 
L 74.942502 147.149328 
L 75.999396 137.437624 
L 77.131782 132.130617 
L 78.264168 133.122019 
L 79.358808 130.978452 
L 80.566686 133.690557 
L 81.774565 143.286464 
L 82.944697 165.700372 
L 84.190322 141.349709 
L 85.3982 148.116008 
L 86.681571 138.14222 
L 87.964942 132.081498 
L 89.286059 131.186275 
L 90.531684 132.877035 
L 91.777309 134.060604 
L 92.947441 136.784292 
L 94.155319 145.177642 
L 95.287705 146.03658 
L 96.457838 140.527057 
L 97.62797 170.876654 
L 98.835848 145.30897 
L 100.005981 291.205218 
L 101.213859 164.734838 
L 102.383991 291.205218 
L 109.442531 291.205218 
L 110.612664 144.052894 
L 111.782796 155.881306 
L 112.990674 131.569921 
L 114.160807 131.402677 
L 115.330939 130.621218 
L 116.501071 134.687464 
L 117.671203 133.351926 
L 118.879082 130.753422 
L 120.08696 130.362012 
L 121.219346 132.914572 
L 122.389479 132.529478 
L 123.559611 133.159324 
L 124.729743 128.875793 
L 125.937622 135.134639 
L 127.070008 135.066996 
L 128.24014 137.274643 
L 129.410272 140.509637 
L 130.618151 145.079224 
L 131.826029 138.571453 
L 133.033908 136.86061 
L 134.20404 137.99518 
L 135.449665 140.925338 
L 136.657543 139.801458 
L 137.865422 150.663994 
L 139.035554 145.081951 
L 140.205686 140.711479 
L 141.375819 137.747939 
L 142.508205 135.489236 
L 143.753829 134.653592 
L 144.961708 135.302343 
L 146.13184 131.648241 
L 147.339719 141.014839 
L 148.509851 136.155029 
L 149.717729 133.349302 
L 152.057994 122.628857 
L 153.228126 119.65989 
L 154.436005 118.882961 
L 155.568391 116.780189 
L 156.776269 116.102505 
L 157.984148 113.560668 
L 159.15428 113.879153 
L 160.324412 112.158403 
L 161.456798 111.328866 
L 162.664677 110.63374 
L 163.834809 110.866685 
L 164.967195 111.412683 
L 166.137327 112.210855 
L 168.553084 112.100803 
L 169.68547 111.541507 
L 170.855603 110.402484 
L 172.063481 110.190728 
L 173.233613 110.166777 
L 174.441492 110.500013 
L 175.573878 110.288956 
L 176.706264 110.506506 
L 177.914143 111.757655 
L 179.122021 111.046398 
L 180.292153 109.912709 
L 181.462286 110.607023 
L 183.80255 110.274117 
L 184.972682 109.2715 
L 187.350693 106.076132 
L 188.520825 104.627134 
L 189.653211 103.778619 
L 190.823344 102.334139 
L 192.031222 101.764135 
L 193.276847 100.606661 
L 194.446979 98.708702 
L 196.900482 95.272147 
L 198.032868 93.527801 
L 199.240747 92.640057 
L 200.410879 91.193999 
L 202.751144 90.17489 
L 203.88353 89.990205 
L 205.053662 89.084083 
L 206.299287 88.439892 
L 207.431673 86.944551 
L 210.94207 80.394881 
L 212.149948 78.569931 
L 213.32008 77.11481 
L 214.527959 75.960293 
L 215.698091 75.035426 
L 216.830477 74.700032 
L 218.038356 74.503749 
L 220.340874 74.691609 
L 221.548753 75.077285 
L 222.718885 75.932336 
L 227.43716 80.540995 
L 228.645039 81.882129 
L 229.777425 82.418193 
L 230.947557 83.278768 
L 232.155435 83.667315 
L 233.287822 83.860041 
L 235.665832 85.270921 
L 236.835965 85.630727 
L 238.043843 86.484359 
L 239.213975 86.741902 
L 241.516494 86.707539 
L 243.894504 87.00483 
L 245.064637 86.720018 
L 247.404901 87.870267 
L 248.61278 88.046558 
L 249.782912 88.454388 
L 250.953044 88.592109 
L 252.123177 88.198043 
L 253.293309 88.408051 
L 255.633573 88.369547 
L 256.803706 88.462677 
L 257.973838 88.729758 
L 259.14397 88.705513 
L 261.484235 88.528951 
L 262.616621 88.443923 
L 263.862245 88.651309 
L 267.334896 88.259209 
L 268.505028 88.60712 
L 270.883039 88.048302 
L 272.053171 87.509933 
L 274.35569 87.372141 
L 275.601314 87.761024 
L 276.771447 87.236545 
L 279.111711 87.398188 
L 280.244097 87.830815 
L 281.451976 87.876662 
L 282.622108 88.073564 
L 283.79224 87.857132 
L 285.037865 88.05269 
L 286.207997 88.059722 
L 287.340383 87.826272 
L 288.472769 87.08479 
L 289.680648 87.002802 
L 290.813034 86.528007 
L 291.94542 86.529995 
L 294.361177 87.419606 
L 295.493563 88.070083 
L 296.701442 88.521627 
L 297.833828 89.259195 
L 299.041706 89.555518 
L 300.249585 89.494575 
L 301.419717 89.692935 
L 302.589849 89.327948 
L 303.797728 89.183316 
L 306.251231 89.546729 
L 307.496856 90.528312 
L 308.704734 90.77354 
L 309.83712 91.912668 
L 310.856268 92.556743 
L 312.101892 92.591108 
L 313.234278 93.071725 
L 314.479903 92.940174 
L 315.650035 92.414483 
L 316.857914 92.69722 
L 318.028046 92.816861 
L 319.235924 93.471474 
L 320.406057 93.23914 
L 321.613935 93.540888 
L 322.746321 93.129902 
L 323.9542 92.815204 
L 325.086586 92.948062 
L 326.256718 92.415068 
L 327.464597 92.271361 
L 328.672475 92.764291 
L 329.842607 92.814481 
L 332.182872 93.199902 
L 333.277512 93.049636 
L 334.560883 92.744016 
L 335.655523 92.627391 
L 336.825655 92.815919 
L 339.165919 92.602443 
L 340.373798 92.090414 
L 346.262205 90.919508 
L 348.640216 91.072777 
L 349.69711 90.947494 
L 353.282999 89.697736 
L 355.585517 89.187198 
L 356.831142 89.178962 
L 358.001274 88.842906 
L 359.095914 88.800362 
L 360.303793 88.591048 
L 361.473925 88.575363 
L 362.644057 88.445445 
L 363.81419 87.980037 
L 365.059814 87.120788 
L 366.1922 86.718694 
L 367.362333 86.168096 
L 369.740343 85.336238 
L 370.872729 85.527037 
L 373.212994 86.270703 
L 374.420872 86.19492 
L 375.553259 85.853783 
L 376.723391 84.955532 
L 378.006762 84.375787 
L 380.498011 83.48082 
L 381.781382 82.883661 
L 383.102499 82.987217 
L 384.272631 82.945783 
L 385.442764 83.025443 
L 389.066399 82.462837 
L 390.198785 82.613906 
L 391.368917 82.934037 
L 392.53905 82.850944 
L 393.746928 82.623643 
L 394.91706 82.844942 
L 396.049446 82.456733 
L 397.219579 82.267485 
L 399.635336 82.257103 
L 401.937854 82.778076 
L 403.107986 83.351873 
L 404.315865 83.819859 
L 405.410505 83.802467 
L 406.693876 84.211085 
L 407.788515 84.220497 
L 409.071886 84.439731 
L 410.204272 84.793482 
L 412.544537 84.936953 
L 413.714669 85.305789 
L 414.884801 86.310551 
L 416.017188 86.62377 
L 417.262812 86.504488 
L 418.357452 87.037801 
L 420.65997 87.33023 
L 421.905595 87.354229 
L 423.188966 87.62208 
L 424.24586 87.582025 
L 425.453738 88.134125 
L 426.888094 89.091309 
L 427.944988 89.136005 
L 429.077374 89.620009 
L 430.096521 89.884262 
L 432.512278 90.102879 
L 434.852543 90.899843 
L 435.909436 91.141074 
L 438.325193 92.628862 
L 439.495325 93.150611 
L 440.74095 94.040526 
L 443.005722 95.228173 
L 444.251347 95.621364 
L 446.553865 95.598249 
L 447.686251 95.822391 
L 448.856384 95.300496 
L 450.064262 95.624826 
L 451.196648 95.520653 
L 452.404527 95.700079 
L 453.612405 96.077676 
L 454.669299 96.549633 
L 456.065908 97.675621 
L 457.500264 98.409612 
L 458.670396 99.552022 
L 459.953767 99.938892 
L 461.123899 99.683392 
L 462.294032 100.48526 
L 463.539656 100.064537 
L 464.89852 99.237139 
L 465.842175 98.380812 
L 466.936815 98.528785 
L 468.031455 98.380475 
L 469.314825 98.072365 
L 471.692836 98.155188 
L 472.938461 98.854242 
L 474.070847 99.282494 
L 475.203233 100.317936 
L 476.335619 100.70836 
L 477.656736 101.906431 
L 478.751376 102.708029 
L 479.921508 102.982517 
L 481.129387 103.666778 
L 482.337265 104.59809 
L 483.356413 106.046636 
L 484.753022 107.334561 
L 485.998647 106.872007 
L 488.112434 107.073271 
L 489.207074 106.506439 
L 490.603684 106.047663 
L 491.811562 105.888002 
L 492.717471 106.223646 
L 493.887603 107.329254 
L 493.887603 107.329254 
" clip-path="url(#p0b802c44ce)" style="fill: none; stroke: #2ca02c; stroke-width: 2.5; stroke-linecap: square"/>
   </g>
   <g id="patch_3">
    <path d="M 60.598945 303.182656 
L 60.598945 39.679004 
" style="fill: none; stroke: #000000; stroke-width: 1.5; stroke-linejoin: miter; stroke-linecap: square"/>
   </g>
   <g id="patch_4">
    <path d="M 60.598945 303.182656 
L 494.680273 303.182656 
" style="fill: none; stroke: #000000; stroke-width: 1.5; stroke-linejoin: miter; stroke-linecap: square"/>
   </g>
   <g id="text_14">
    <!-- 1421_wo_HF -->
    <g transform="translate(236.004922 18.441699) scale(0.14 -0.14)">
     <defs>
      <path id="ArialMT-42" d="M -97 -1272 
L -97 -866 
L 3631 -866 
L 3631 -1272 
L -97 -1272 
z
" transform="scale(0.015625)"/>
      <path id="ArialMT-5a" d="M 1034 0 
L 19 3319 
L 600 3319 
L 1128 1403 
L 1325 691 
Q 1338 744 1497 1375 
L 2025 3319 
L 2603 3319 
L 3100 1394 
L 3266 759 
L 3456 1400 
L 4025 3319 
L 4572 3319 
L 3534 0 
L 2950 0 
L 2422 1988 
L 2294 2553 
L 1622 0 
L 1034 0 
z
" transform="scale(0.015625)"/>
      <path id="ArialMT-2b" d="M 513 0 
L 513 4581 
L 1119 4581 
L 1119 2700 
L 3500 2700 
L 3500 4581 
L 4106 4581 
L 4106 0 
L 3500 0 
L 3500 2159 
L 1119 2159 
L 1119 0 
L 513 0 
z
" transform="scale(0.015625)"/>
      <path id="ArialMT-29" d="M 525 0 
L 525 4581 
L 3616 4581 
L 3616 4041 
L 1131 4041 
L 1131 2622 
L 3281 2622 
L 3281 2081 
L 1131 2081 
L 1131 0 
L 525 0 
z
" transform="scale(0.015625)"/>
     </defs>
     <use xlink:href="#ArialMT-14"/>
     <use xlink:href="#ArialMT-17" transform="translate(55.609375 0)"/>
     <use xlink:href="#ArialMT-15" transform="translate(111.21875 0)"/>
     <use xlink:href="#ArialMT-14" transform="translate(166.828125 0)"/>
     <use xlink:href="#ArialMT-42" transform="translate(222.4375 0)"/>
     <use xlink:href="#ArialMT-5a" transform="translate(278.046875 0)"/>
     <use xlink:href="#ArialMT-52" transform="translate(350.265625 0)"/>
     <use xlink:href="#ArialMT-42" transform="translate(405.875 0)"/>
     <use xlink:href="#ArialMT-2b" transform="translate(461.484375 0)"/>
     <use xlink:href="#ArialMT-29" transform="translate(533.703125 0)"/>
    </g>
    <!-- m/z 40 -->
    <g transform="translate(256.634141 33.679004) scale(0.14 -0.14)">
     <use xlink:href="#ArialMT-50"/>
     <use xlink:href="#ArialMT-12" transform="translate(83.296875 0)"/>
     <use xlink:href="#ArialMT-5d" transform="translate(111.078125 0)"/>
     <use xlink:href="#ArialMT-3" transform="translate(161.078125 0)"/>
     <use xlink:href="#ArialMT-17" transform="translate(188.859375 0)"/>
     <use xlink:href="#ArialMT-13" transform="translate(244.46875 0)"/>
    </g>
   </g>
   <g id="legend_1">
    <g id="line2d_36">
     <path d="M 512.3619 52.459277 
L 522.3619 52.459277 
L 532.3619 52.459277 
" style="fill: none; stroke: #000000; stroke-width: 2.5; stroke-linecap: square"/>
    </g>
    <g id="text_15">
     <!-- 0 h -->
     <g transform="translate(540.3619 55.959277) scale(0.1 -0.1)">
      <defs>
       <path id="ArialMT-4b" d="M 422 0 
L 422 4581 
L 984 4581 
L 984 2938 
Q 1378 3394 1978 3394 
Q 2347 3394 2619 3248 
Q 2891 3103 3008 2847 
Q 3125 2591 3125 2103 
L 3125 0 
L 2563 0 
L 2563 2103 
Q 2563 2525 2380 2717 
Q 2197 2909 1863 2909 
Q 1613 2909 1392 2779 
Q 1172 2650 1078 2428 
Q 984 2206 984 1816 
L 984 0 
L 422 0 
z
" transform="scale(0.015625)"/>
      </defs>
      <use xlink:href="#ArialMT-13"/>
      <use xlink:href="#ArialMT-3" transform="translate(55.609375 0)"/>
      <use xlink:href="#ArialMT-4b" transform="translate(83.390625 0)"/>
     </g>
    </g>
    <g id="line2d_37">
     <path d="M 512.3619 66.844043 
L 522.3619 66.844043 
L 532.3619 66.844043 
" style="fill: none; stroke: #1f77b4; stroke-width: 2.5; stroke-linecap: square"/>
    </g>
    <g id="text_16">
     <!-- 6 h -->
     <g transform="translate(540.3619 70.344043) scale(0.1 -0.1)">
      <use xlink:href="#ArialMT-19"/>
      <use xlink:href="#ArialMT-3" transform="translate(55.609375 0)"/>
      <use xlink:href="#ArialMT-4b" transform="translate(83.390625 0)"/>
     </g>
    </g>
    <g id="line2d_38">
     <path d="M 512.3619 81.228809 
L 522.3619 81.228809 
L 532.3619 81.228809 
" style="fill: none; stroke: #d62728; stroke-width: 2.5; stroke-linecap: square"/>
    </g>
    <g id="text_17">
     <!-- 24 h -->
     <g transform="translate(540.3619 84.728809) scale(0.1 -0.1)">
      <use xlink:href="#ArialMT-15"/>
      <use xlink:href="#ArialMT-17" transform="translate(55.609375 0)"/>
      <use xlink:href="#ArialMT-3" transform="translate(111.21875 0)"/>
      <use xlink:href="#ArialMT-4b" transform="translate(139 0)"/>
     </g>
    </g>
    <g id="line2d_39">
     <path d="M 512.3619 95.613574 
L 522.3619 95.613574 
L 532.3619 95.613574 
" style="fill: none; stroke: #ff7f0e; stroke-width: 2.5; stroke-linecap: square"/>
    </g>
    <g id="text_18">
     <!-- 7 d -->
     <g transform="translate(540.3619 99.113574) scale(0.1 -0.1)">
      <defs>
       <path id="ArialMT-1a" d="M 303 3981 
L 303 4522 
L 3269 4522 
L 3269 4084 
Q 2831 3619 2401 2847 
Q 1972 2075 1738 1259 
Q 1569 684 1522 0 
L 944 0 
Q 953 541 1156 1306 
Q 1359 2072 1739 2783 
Q 2119 3494 2547 3981 
L 303 3981 
z
" transform="scale(0.015625)"/>
       <path id="ArialMT-47" d="M 2575 0 
L 2575 419 
Q 2259 -75 1647 -75 
Q 1250 -75 917 144 
Q 584 363 401 755 
Q 219 1147 219 1656 
Q 219 2153 384 2558 
Q 550 2963 881 3178 
Q 1213 3394 1622 3394 
Q 1922 3394 2156 3267 
Q 2391 3141 2538 2938 
L 2538 4581 
L 3097 4581 
L 3097 0 
L 2575 0 
z
M 797 1656 
Q 797 1019 1065 703 
Q 1334 388 1700 388 
Q 2069 388 2326 689 
Q 2584 991 2584 1609 
Q 2584 2291 2321 2609 
Q 2059 2928 1675 2928 
Q 1300 2928 1048 2622 
Q 797 2316 797 1656 
z
" transform="scale(0.015625)"/>
      </defs>
      <use xlink:href="#ArialMT-1a"/>
      <use xlink:href="#ArialMT-3" transform="translate(55.609375 0)"/>
      <use xlink:href="#ArialMT-47" transform="translate(83.390625 0)"/>
     </g>
    </g>
    <g id="line2d_40">
     <path d="M 512.3619 109.99834 
L 522.3619 109.99834 
L 532.3619 109.99834 
" style="fill: none; stroke: #9467bd; stroke-width: 2.5; stroke-linecap: square"/>
    </g>
    <g id="text_19">
     <!-- 14 d -->
     <g transform="translate(540.3619 113.49834) scale(0.1 -0.1)">
      <use xlink:href="#ArialMT-14"/>
      <use xlink:href="#ArialMT-17" transform="translate(55.609375 0)"/>
      <use xlink:href="#ArialMT-3" transform="translate(111.21875 0)"/>
      <use xlink:href="#ArialMT-47" transform="translate(139 0)"/>
     </g>
    </g>
    <g id="line2d_41">
     <path d="M 512.3619 124.383105 
L 522.3619 124.383105 
L 532.3619 124.383105 
" style="fill: none; stroke: #2ca02c; stroke-width: 2.5; stroke-linecap: square"/>
    </g>
    <g id="text_20">
     <!-- 28 d -->
     <g transform="translate(540.3619 127.883105) scale(0.1 -0.1)">
      <use xlink:href="#ArialMT-15"/>
      <use xlink:href="#ArialMT-1b" transform="translate(55.609375 0)"/>
      <use xlink:href="#ArialMT-3" transform="translate(111.21875 0)"/>
      <use xlink:href="#ArialMT-47" transform="translate(139 0)"/>
     </g>
    </g>
   </g>
  </g>
 </g>
 <defs>
  <clipPath id="p0b802c44ce">
   <rect x="60.598945" y="39.679004" width="434.081328" height="263.503652"/>
  </clipPath>
 </defs>
</svg>
