<?xml version="1.0" encoding="utf-8" standalone="no"?>
<!DOCTYPE svg PUBLIC "-//W3C//DTD SVG 1.1//EN"
  "http://www.w3.org/Graphics/SVG/1.1/DTD/svg11.dtd">
<svg xmlns:xlink="http://www.w3.org/1999/xlink" width="571.022837pt" height="344.160273pt" viewBox="0 0 571.022837 344.160273" xmlns="http://www.w3.org/2000/svg" version="1.1">
 <metadata>
  <rdf:RDF xmlns:dc="http://purl.org/dc/elements/1.1/" xmlns:cc="http://creativecommons.org/ns#" xmlns:rdf="http://www.w3.org/1999/02/22-rdf-syntax-ns#">
   <cc:Work>
    <dc:type rdf:resource="http://purl.org/dc/dcmitype/StillImage"/>
    <dc:date>2026-07-10T11:48:57.179397</dc:date>
    <dc:format>image/svg+xml</dc:format>
    <dc:creator>
     <cc:Agent>
      <dc:title>Matplotlib v3.11.0, https://matplotlib.org/</dc:title>
     </cc:Agent>
    </dc:creator>
   </cc:Work>
  </rdf:RDF>
 </metadata>
 <defs>
  <style type="text/css">*{stroke-linejoin: round; stroke-linecap: butt}</style>
 </defs>
 <g id="figure_1">
  <g id="patch_1">
   <path d="M 0 344.160273 
L 571.022837 344.160273 
L 571.022837 0 
L 0 0 
z
" style="fill: #ffffff"/>
  </g>
  <g id="axes_1">
   <g id="patch_2">
    <path d="M 60.598945 303.182656 
L 494.680273 303.182656 
L 494.680273 39.679004 
L 60.598945 39.679004 
z
" style="fill: #ffffff"/>
   </g>
   <g id="matplotlib.axis_1">
    <g id="xtick_1">
     <g id="line2d_1">
      <defs>
       <path id="mda388f33ff" d="M 0 0 
L 0 -6 
" style="stroke: #000000; stroke-width: 0.8"/>
      </defs>
      <g>
       <use xlink:href="#mda388f33ff" x="117.218249" y="303.182656" style="stroke: #000000; stroke-width: 0.8"/>
      </g>
     </g>
     <g id="text_1">
      <!-- 200 -->
      <g transform="translate(105.54028 316.875039) scale(0.14 -0.14)">
       <defs>
        <path id="ArialMT-15" d="M 3222 541 
L 3222 0 
L 194 0 
Q 188 203 259 391 
Q 375 700 629 1000 
Q 884 1300 1366 1694 
Q 2113 2306 2375 2664 
Q 2638 3022 2638 3341 
Q 2638 3675 2398 3904 
Q 2159 4134 1775 4134 
Q 1369 4134 1125 3890 
Q 881 3647 878 3216 
L 300 3275 
Q 359 3922 746 4261 
Q 1134 4600 1788 4600 
Q 2447 4600 2831 4234 
Q 3216 3869 3216 3328 
Q 3216 3053 3103 2787 
Q 2991 2522 2730 2228 
Q 2469 1934 1863 1422 
Q 1356 997 1212 845 
Q 1069 694 975 541 
L 3222 541 
z
" transform="scale(0.015625)"/>
        <path id="ArialMT-13" d="M 266 2259 
Q 266 3072 433 3567 
Q 600 4063 929 4331 
Q 1259 4600 1759 4600 
Q 2128 4600 2406 4451 
Q 2684 4303 2865 4023 
Q 3047 3744 3150 3342 
Q 3253 2941 3253 2259 
Q 3253 1453 3087 958 
Q 2922 463 2592 192 
Q 2263 -78 1759 -78 
Q 1097 -78 719 397 
Q 266 969 266 2259 
z
M 844 2259 
Q 844 1131 1108 757 
Q 1372 384 1759 384 
Q 2147 384 2411 759 
Q 2675 1134 2675 2259 
Q 2675 3391 2411 3762 
Q 2147 4134 1753 4134 
Q 1366 4134 1134 3806 
Q 844 3388 844 2259 
z
" transform="scale(0.015625)"/>
       </defs>
       <use xlink:href="#ArialMT-15"/>
       <use xlink:href="#ArialMT-13" transform="translate(55.609375 0)"/>
       <use xlink:href="#ArialMT-13" transform="translate(111.21875 0)"/>
      </g>
     </g>
    </g>
    <g id="xtick_2">
     <g id="line2d_2">
      <g>
       <use xlink:href="#mda388f33ff" x="192.710654" y="303.182656" style="stroke: #000000; stroke-width: 0.8"/>
      </g>
     </g>
     <g id="text_2">
      <!-- 400 -->
      <g transform="translate(181.032685 316.875039) scale(0.14 -0.14)">
       <defs>
        <path id="ArialMT-17" d="M 2069 0 
L 2069 1097 
L 81 1097 
L 81 1613 
L 2172 4581 
L 2631 4581 
L 2631 1613 
L 3250 1613 
L 3250 1097 
L 2631 1097 
L 2631 0 
L 2069 0 
z
M 2069 1613 
L 2069 3678 
L 634 1613 
L 2069 1613 
z
" transform="scale(0.015625)"/>
       </defs>
       <use xlink:href="#ArialMT-17"/>
       <use xlink:href="#ArialMT-13" transform="translate(55.609375 0)"/>
       <use xlink:href="#ArialMT-13" transform="translate(111.21875 0)"/>
      </g>
     </g>
    </g>
    <g id="xtick_3">
     <g id="line2d_3">
      <g>
       <use xlink:href="#mda388f33ff" x="268.203059" y="303.182656" style="stroke: #000000; stroke-width: 0.8"/>
      </g>
     </g>
     <g id="text_3">
      <!-- 600 -->
      <g transform="translate(256.52509 316.875039) scale(0.14 -0.14)">
       <defs>
        <path id="ArialMT-19" d="M 3184 3459 
L 2625 3416 
Q 2550 3747 2413 3897 
Q 2184 4138 1850 4138 
Q 1581 4138 1378 3988 
Q 1113 3794 959 3422 
Q 806 3050 800 2363 
Q 1003 2672 1297 2822 
Q 1591 2972 1913 2972 
Q 2475 2972 2870 2558 
Q 3266 2144 3266 1488 
Q 3266 1056 3080 686 
Q 2894 316 2569 119 
Q 2244 -78 1831 -78 
Q 1128 -78 684 439 
Q 241 956 241 2144 
Q 241 3472 731 4075 
Q 1159 4600 1884 4600 
Q 2425 4600 2770 4297 
Q 3116 3994 3184 3459 
z
M 888 1484 
Q 888 1194 1011 928 
Q 1134 663 1356 523 
Q 1578 384 1822 384 
Q 2178 384 2434 671 
Q 2691 959 2691 1453 
Q 2691 1928 2437 2201 
Q 2184 2475 1800 2475 
Q 1419 2475 1153 2201 
Q 888 1928 888 1484 
z
" transform="scale(0.015625)"/>
       </defs>
       <use xlink:href="#ArialMT-19"/>
       <use xlink:href="#ArialMT-13" transform="translate(55.609375 0)"/>
       <use xlink:href="#ArialMT-13" transform="translate(111.21875 0)"/>
      </g>
     </g>
    </g>
    <g id="xtick_4">
     <g id="line2d_4">
      <g>
       <use xlink:href="#mda388f33ff" x="343.695464" y="303.182656" style="stroke: #000000; stroke-width: 0.8"/>
      </g>
     </g>
     <g id="text_4">
      <!-- 800 -->
      <g transform="translate(332.017495 316.875039) scale(0.14 -0.14)">
       <defs>
        <path id="ArialMT-1b" d="M 1131 2484 
Q 781 2613 612 2850 
Q 444 3088 444 3419 
Q 444 3919 803 4259 
Q 1163 4600 1759 4600 
Q 2359 4600 2725 4251 
Q 3091 3903 3091 3403 
Q 3091 3084 2923 2848 
Q 2756 2613 2416 2484 
Q 2838 2347 3058 2040 
Q 3278 1734 3278 1309 
Q 3278 722 2862 322 
Q 2447 -78 1769 -78 
Q 1091 -78 675 323 
Q 259 725 259 1325 
Q 259 1772 486 2073 
Q 713 2375 1131 2484 
z
M 1019 3438 
Q 1019 3113 1228 2906 
Q 1438 2700 1772 2700 
Q 2097 2700 2305 2904 
Q 2513 3109 2513 3406 
Q 2513 3716 2298 3927 
Q 2084 4138 1766 4138 
Q 1444 4138 1231 3931 
Q 1019 3725 1019 3438 
z
M 838 1322 
Q 838 1081 952 856 
Q 1066 631 1291 507 
Q 1516 384 1775 384 
Q 2178 384 2440 643 
Q 2703 903 2703 1303 
Q 2703 1709 2433 1975 
Q 2163 2241 1756 2241 
Q 1359 2241 1098 1978 
Q 838 1716 838 1322 
z
" transform="scale(0.015625)"/>
       </defs>
       <use xlink:href="#ArialMT-1b"/>
       <use xlink:href="#ArialMT-13" transform="translate(55.609375 0)"/>
       <use xlink:href="#ArialMT-13" transform="translate(111.21875 0)"/>
      </g>
     </g>
    </g>
    <g id="xtick_5">
     <g id="line2d_5">
      <g>
       <use xlink:href="#mda388f33ff" x="419.187869" y="303.182656" style="stroke: #000000; stroke-width: 0.8"/>
      </g>
     </g>
     <g id="text_5">
      <!-- 1000 -->
      <g transform="translate(403.617244 316.875039) scale(0.14 -0.14)">
       <defs>
        <path id="ArialMT-14" d="M 2384 0 
L 1822 0 
L 1822 3584 
Q 1619 3391 1289 3197 
Q 959 3003 697 2906 
L 697 3450 
Q 1169 3672 1522 3987 
Q 1875 4303 2022 4600 
L 2384 4600 
L 2384 0 
z
" transform="scale(0.015625)"/>
       </defs>
       <use xlink:href="#ArialMT-14"/>
       <use xlink:href="#ArialMT-13" transform="translate(55.609375 0)"/>
       <use xlink:href="#ArialMT-13" transform="translate(111.21875 0)"/>
       <use xlink:href="#ArialMT-13" transform="translate(166.828125 0)"/>
      </g>
     </g>
    </g>
    <g id="xtick_6">
     <g id="line2d_6">
      <g>
       <use xlink:href="#mda388f33ff" x="494.680273" y="303.182656" style="stroke: #000000; stroke-width: 0.8"/>
      </g>
     </g>
     <g id="text_6">
      <!-- 1200 -->
      <g transform="translate(479.109648 316.875039) scale(0.14 -0.14)">
       <use xlink:href="#ArialMT-14"/>
       <use xlink:href="#ArialMT-15" transform="translate(55.609375 0)"/>
       <use xlink:href="#ArialMT-13" transform="translate(111.21875 0)"/>
       <use xlink:href="#ArialMT-13" transform="translate(166.828125 0)"/>
      </g>
     </g>
    </g>
    <g id="xtick_7">
     <g id="line2d_7">
      <defs>
       <path id="mb283ddadcb" d="M 0 0 
L 0 -3 
" style="stroke: #000000; stroke-width: 0.6"/>
      </defs>
      <g>
       <use xlink:href="#mb283ddadcb" x="60.598945" y="303.182656" style="stroke: #000000; stroke-width: 0.6"/>
      </g>
     </g>
    </g>
    <g id="xtick_8">
     <g id="line2d_8">
      <g>
       <use xlink:href="#mb283ddadcb" x="79.472047" y="303.182656" style="stroke: #000000; stroke-width: 0.6"/>
      </g>
     </g>
    </g>
    <g id="xtick_9">
     <g id="line2d_9">
      <g>
       <use xlink:href="#mb283ddadcb" x="98.345148" y="303.182656" style="stroke: #000000; stroke-width: 0.6"/>
      </g>
     </g>
    </g>
    <g id="xtick_10">
     <g id="line2d_10">
      <g>
       <use xlink:href="#mb283ddadcb" x="136.09135" y="303.182656" style="stroke: #000000; stroke-width: 0.6"/>
      </g>
     </g>
    </g>
    <g id="xtick_11">
     <g id="line2d_11">
      <g>
       <use xlink:href="#mb283ddadcb" x="154.964451" y="303.182656" style="stroke: #000000; stroke-width: 0.6"/>
      </g>
     </g>
    </g>
    <g id="xtick_12">
     <g id="line2d_12">
      <g>
       <use xlink:href="#mb283ddadcb" x="173.837553" y="303.182656" style="stroke: #000000; stroke-width: 0.6"/>
      </g>
     </g>
    </g>
    <g id="xtick_13">
     <g id="line2d_13">
      <g>
       <use xlink:href="#mb283ddadcb" x="211.583755" y="303.182656" style="stroke: #000000; stroke-width: 0.6"/>
      </g>
     </g>
    </g>
    <g id="xtick_14">
     <g id="line2d_14">
      <g>
       <use xlink:href="#mb283ddadcb" x="230.456856" y="303.182656" style="stroke: #000000; stroke-width: 0.6"/>
      </g>
     </g>
    </g>
    <g id="xtick_15">
     <g id="line2d_15">
      <g>
       <use xlink:href="#mb283ddadcb" x="249.329958" y="303.182656" style="stroke: #000000; stroke-width: 0.6"/>
      </g>
     </g>
    </g>
    <g id="xtick_16">
     <g id="line2d_16">
      <g>
       <use xlink:href="#mb283ddadcb" x="287.07616" y="303.182656" style="stroke: #000000; stroke-width: 0.6"/>
      </g>
     </g>
    </g>
    <g id="xtick_17">
     <g id="line2d_17">
      <g>
       <use xlink:href="#mb283ddadcb" x="305.949261" y="303.182656" style="stroke: #000000; stroke-width: 0.6"/>
      </g>
     </g>
    </g>
    <g id="xtick_18">
     <g id="line2d_18">
      <g>
       <use xlink:href="#mb283ddadcb" x="324.822362" y="303.182656" style="stroke: #000000; stroke-width: 0.6"/>
      </g>
     </g>
    </g>
    <g id="xtick_19">
     <g id="line2d_19">
      <g>
       <use xlink:href="#mb283ddadcb" x="362.568565" y="303.182656" style="stroke: #000000; stroke-width: 0.6"/>
      </g>
     </g>
    </g>
    <g id="xtick_20">
     <g id="line2d_20">
      <g>
       <use xlink:href="#mb283ddadcb" x="381.441666" y="303.182656" style="stroke: #000000; stroke-width: 0.6"/>
      </g>
     </g>
    </g>
    <g id="xtick_21">
     <g id="line2d_21">
      <g>
       <use xlink:href="#mb283ddadcb" x="400.314767" y="303.182656" style="stroke: #000000; stroke-width: 0.6"/>
      </g>
     </g>
    </g>
    <g id="xtick_22">
     <g id="line2d_22">
      <g>
       <use xlink:href="#mb283ddadcb" x="438.06097" y="303.182656" style="stroke: #000000; stroke-width: 0.6"/>
      </g>
     </g>
    </g>
    <g id="xtick_23">
     <g id="line2d_23">
      <g>
       <use xlink:href="#mb283ddadcb" x="456.934071" y="303.182656" style="stroke: #000000; stroke-width: 0.6"/>
      </g>
     </g>
    </g>
    <g id="xtick_24">
     <g id="line2d_24">
      <g>
       <use xlink:href="#mb283ddadcb" x="475.807172" y="303.182656" style="stroke: #000000; stroke-width: 0.6"/>
      </g>
     </g>
    </g>
    <g id="text_7">
     <!-- T1 Temperature (°C) -->
     <g transform="translate(213.900234 334.013711) scale(0.14 -0.14)">
      <defs>
       <path id="ArialMT-37" d="M 1659 0 
L 1659 4041 
L 150 4041 
L 150 4581 
L 3781 4581 
L 3781 4041 
L 2266 4041 
L 2266 0 
L 1659 0 
z
" transform="scale(0.015625)"/>
       <path id="ArialMT-3" transform="scale(0.015625)"/>
       <path id="ArialMT-48" d="M 2694 1069 
L 3275 997 
Q 3138 488 2766 206 
Q 2394 -75 1816 -75 
Q 1088 -75 661 373 
Q 234 822 234 1631 
Q 234 2469 665 2931 
Q 1097 3394 1784 3394 
Q 2450 3394 2872 2941 
Q 3294 2488 3294 1666 
Q 3294 1616 3291 1516 
L 816 1516 
Q 847 969 1125 678 
Q 1403 388 1819 388 
Q 2128 388 2347 550 
Q 2566 713 2694 1069 
z
M 847 1978 
L 2700 1978 
Q 2663 2397 2488 2606 
Q 2219 2931 1791 2931 
Q 1403 2931 1139 2672 
Q 875 2413 847 1978 
z
" transform="scale(0.015625)"/>
       <path id="ArialMT-50" d="M 422 0 
L 422 3319 
L 925 3319 
L 925 2853 
Q 1081 3097 1340 3245 
Q 1600 3394 1931 3394 
Q 2300 3394 2536 3241 
Q 2772 3088 2869 2813 
Q 3263 3394 3894 3394 
Q 4388 3394 4653 3120 
Q 4919 2847 4919 2278 
L 4919 0 
L 4359 0 
L 4359 2091 
Q 4359 2428 4304 2576 
Q 4250 2725 4106 2815 
Q 3963 2906 3769 2906 
Q 3419 2906 3187 2673 
Q 2956 2441 2956 1928 
L 2956 0 
L 2394 0 
L 2394 2156 
Q 2394 2531 2256 2718 
Q 2119 2906 1806 2906 
Q 1569 2906 1367 2781 
Q 1166 2656 1075 2415 
Q 984 2175 984 1722 
L 984 0 
L 422 0 
z
" transform="scale(0.015625)"/>
       <path id="ArialMT-53" d="M 422 -1272 
L 422 3319 
L 934 3319 
L 934 2888 
Q 1116 3141 1344 3267 
Q 1572 3394 1897 3394 
Q 2322 3394 2647 3175 
Q 2972 2956 3137 2557 
Q 3303 2159 3303 1684 
Q 3303 1175 3120 767 
Q 2938 359 2589 142 
Q 2241 -75 1856 -75 
Q 1575 -75 1351 44 
Q 1128 163 984 344 
L 984 -1272 
L 422 -1272 
z
M 931 1641 
Q 931 1000 1190 694 
Q 1450 388 1819 388 
Q 2194 388 2461 705 
Q 2728 1022 2728 1688 
Q 2728 2322 2467 2637 
Q 2206 2953 1844 2953 
Q 1484 2953 1207 2617 
Q 931 2281 931 1641 
z
" transform="scale(0.015625)"/>
       <path id="ArialMT-55" d="M 416 0 
L 416 3319 
L 922 3319 
L 922 2816 
Q 1116 3169 1280 3281 
Q 1444 3394 1641 3394 
Q 1925 3394 2219 3213 
L 2025 2691 
Q 1819 2813 1613 2813 
Q 1428 2813 1281 2702 
Q 1134 2591 1072 2394 
Q 978 2094 978 1738 
L 978 0 
L 416 0 
z
" transform="scale(0.015625)"/>
       <path id="ArialMT-44" d="M 2588 409 
Q 2275 144 1986 34 
Q 1697 -75 1366 -75 
Q 819 -75 525 192 
Q 231 459 231 875 
Q 231 1119 342 1320 
Q 453 1522 633 1644 
Q 813 1766 1038 1828 
Q 1203 1872 1538 1913 
Q 2219 1994 2541 2106 
Q 2544 2222 2544 2253 
Q 2544 2597 2384 2738 
Q 2169 2928 1744 2928 
Q 1347 2928 1158 2789 
Q 969 2650 878 2297 
L 328 2372 
Q 403 2725 575 2942 
Q 747 3159 1072 3276 
Q 1397 3394 1825 3394 
Q 2250 3394 2515 3294 
Q 2781 3194 2906 3042 
Q 3031 2891 3081 2659 
Q 3109 2516 3109 2141 
L 3109 1391 
Q 3109 606 3145 398 
Q 3181 191 3288 0 
L 2700 0 
Q 2613 175 2588 409 
z
M 2541 1666 
Q 2234 1541 1622 1453 
Q 1275 1403 1131 1340 
Q 988 1278 909 1158 
Q 831 1038 831 891 
Q 831 666 1001 516 
Q 1172 366 1500 366 
Q 1825 366 2078 508 
Q 2331 650 2450 897 
Q 2541 1088 2541 1459 
L 2541 1666 
z
" transform="scale(0.015625)"/>
       <path id="ArialMT-57" d="M 1650 503 
L 1731 6 
Q 1494 -44 1306 -44 
Q 1000 -44 831 53 
Q 663 150 594 308 
Q 525 466 525 972 
L 525 2881 
L 113 2881 
L 113 3319 
L 525 3319 
L 525 4141 
L 1084 4478 
L 1084 3319 
L 1650 3319 
L 1650 2881 
L 1084 2881 
L 1084 941 
Q 1084 700 1114 631 
Q 1144 563 1211 522 
Q 1278 481 1403 481 
Q 1497 481 1650 503 
z
" transform="scale(0.015625)"/>
       <path id="ArialMT-58" d="M 2597 0 
L 2597 488 
Q 2209 -75 1544 -75 
Q 1250 -75 995 37 
Q 741 150 617 320 
Q 494 491 444 738 
Q 409 903 409 1263 
L 409 3319 
L 972 3319 
L 972 1478 
Q 972 1038 1006 884 
Q 1059 663 1231 536 
Q 1403 409 1656 409 
Q 1909 409 2131 539 
Q 2353 669 2445 892 
Q 2538 1116 2538 1541 
L 2538 3319 
L 3100 3319 
L 3100 0 
L 2597 0 
z
" transform="scale(0.015625)"/>
       <path id="ArialMT-b" d="M 1497 -1347 
Q 1031 -759 709 28 
Q 388 816 388 1659 
Q 388 2403 628 3084 
Q 909 3875 1497 4659 
L 1900 4659 
Q 1522 4009 1400 3731 
Q 1209 3300 1100 2831 
Q 966 2247 966 1656 
Q 966 153 1900 -1347 
L 1497 -1347 
z
" transform="scale(0.015625)"/>
       <path id="ArialMT-83" d="M 400 3794 
Q 400 4153 654 4406 
Q 909 4659 1266 4659 
Q 1628 4659 1881 4406 
Q 2134 4153 2134 3794 
Q 2134 3434 1879 3179 
Q 1625 2925 1266 2925 
Q 909 2925 654 3178 
Q 400 3431 400 3794 
z
M 741 3794 
Q 741 3575 895 3420 
Q 1050 3266 1269 3266 
Q 1484 3266 1639 3420 
Q 1794 3575 1794 3794 
Q 1794 4013 1639 4167 
Q 1484 4322 1269 4322 
Q 1050 4322 895 4167 
Q 741 4013 741 3794 
z
" transform="scale(0.015625)"/>
       <path id="ArialMT-26" d="M 3763 1606 
L 4369 1453 
Q 4178 706 3683 314 
Q 3188 -78 2472 -78 
Q 1731 -78 1267 223 
Q 803 525 561 1097 
Q 319 1669 319 2325 
Q 319 3041 592 3573 
Q 866 4106 1370 4382 
Q 1875 4659 2481 4659 
Q 3169 4659 3637 4309 
Q 4106 3959 4291 3325 
L 3694 3184 
Q 3534 3684 3231 3912 
Q 2928 4141 2469 4141 
Q 1941 4141 1586 3887 
Q 1231 3634 1087 3207 
Q 944 2781 944 2328 
Q 944 1744 1114 1308 
Q 1284 872 1643 656 
Q 2003 441 2422 441 
Q 2931 441 3284 734 
Q 3638 1028 3763 1606 
z
" transform="scale(0.015625)"/>
       <path id="ArialMT-c" d="M 791 -1347 
L 388 -1347 
Q 1322 153 1322 1656 
Q 1322 2244 1188 2822 
Q 1081 3291 891 3722 
Q 769 4003 388 4659 
L 791 4659 
Q 1378 3875 1659 3084 
Q 1900 2403 1900 1659 
Q 1900 816 1576 28 
Q 1253 -759 791 -1347 
z
" transform="scale(0.015625)"/>
      </defs>
      <use xlink:href="#ArialMT-37"/>
      <use xlink:href="#ArialMT-14" transform="translate(61.078125 0)"/>
      <use xlink:href="#ArialMT-3" transform="translate(116.6875 0)"/>
      <use xlink:href="#ArialMT-37" transform="translate(142.65625 0)"/>
      <use xlink:href="#ArialMT-48" transform="translate(192.65625 0)"/>
      <use xlink:href="#ArialMT-50" transform="translate(248.265625 0)"/>
      <use xlink:href="#ArialMT-53" transform="translate(331.5625 0)"/>
      <use xlink:href="#ArialMT-48" transform="translate(387.171875 0)"/>
      <use xlink:href="#ArialMT-55" transform="translate(442.78125 0)"/>
      <use xlink:href="#ArialMT-44" transform="translate(476.078125 0)"/>
      <use xlink:href="#ArialMT-57" transform="translate(531.6875 0)"/>
      <use xlink:href="#ArialMT-58" transform="translate(559.46875 0)"/>
      <use xlink:href="#ArialMT-55" transform="translate(615.078125 0)"/>
      <use xlink:href="#ArialMT-48" transform="translate(648.375 0)"/>
      <use xlink:href="#ArialMT-3" transform="translate(703.984375 0)"/>
      <use xlink:href="#ArialMT-b" transform="translate(731.765625 0)"/>
      <use xlink:href="#ArialMT-83" transform="translate(765.0625 0)"/>
      <use xlink:href="#ArialMT-26" transform="translate(805.046875 0)"/>
      <use xlink:href="#ArialMT-c" transform="translate(877.265625 0)"/>
     </g>
    </g>
   </g>
   <g id="matplotlib.axis_2">
    <g id="ytick_1">
     <g id="line2d_25">
      <defs>
       <path id="mf450ca455d" d="M 0 0 
L 6 0 
" style="stroke: #000000; stroke-width: 0.8"/>
      </defs>
      <g>
       <use xlink:href="#mf450ca455d" x="60.598945" y="291.205218" style="stroke: #000000; stroke-width: 0.8"/>
      </g>
     </g>
     <g id="text_8">
      <!-- $\mathdefault{10^{-20}}$ -->
      <g transform="translate(24.338945 297.645218) scale(0.14 -0.14)">
       <defs>
        <path id="ArialMT-ed" d="M 3381 1997 
L 356 1997 
L 356 2522 
L 3381 2522 
L 3381 1997 
z
" transform="scale(0.015625)"/>
       </defs>
       <use xlink:href="#ArialMT-14" transform="translate(0 0.3875)"/>
       <use xlink:href="#ArialMT-13" transform="translate(55.615234 0.3875)"/>
       <use xlink:href="#ArialMT-ed" transform="translate(112.1875 41.6875) scale(0.7)"/>
       <use xlink:href="#ArialMT-15" transform="translate(153.066406 41.6875) scale(0.7)"/>
       <use xlink:href="#ArialMT-13" transform="translate(191.99707 41.6875) scale(0.7)"/>
      </g>
     </g>
    </g>
    <g id="ytick_2">
     <g id="line2d_26">
      <g>
       <use xlink:href="#mf450ca455d" x="60.598945" y="258.27429" style="stroke: #000000; stroke-width: 0.8"/>
      </g>
     </g>
     <g id="text_9">
      <!-- $\mathdefault{10^{-19}}$ -->
      <g transform="translate(24.338945 264.71429) scale(0.14 -0.14)">
       <defs>
        <path id="ArialMT-1c" d="M 350 1059 
L 891 1109 
Q 959 728 1153 556 
Q 1347 384 1650 384 
Q 1909 384 2104 503 
Q 2300 622 2425 820 
Q 2550 1019 2634 1356 
Q 2719 1694 2719 2044 
Q 2719 2081 2716 2156 
Q 2547 1888 2255 1720 
Q 1963 1553 1622 1553 
Q 1053 1553 659 1965 
Q 266 2378 266 3053 
Q 266 3750 677 4175 
Q 1088 4600 1706 4600 
Q 2153 4600 2523 4359 
Q 2894 4119 3086 3673 
Q 3278 3228 3278 2384 
Q 3278 1506 3087 986 
Q 2897 466 2520 194 
Q 2144 -78 1638 -78 
Q 1100 -78 759 220 
Q 419 519 350 1059 
z
M 2653 3081 
Q 2653 3566 2395 3850 
Q 2138 4134 1775 4134 
Q 1400 4134 1122 3828 
Q 844 3522 844 3034 
Q 844 2597 1108 2323 
Q 1372 2050 1759 2050 
Q 2150 2050 2401 2323 
Q 2653 2597 2653 3081 
z
" transform="scale(0.015625)"/>
       </defs>
       <use xlink:href="#ArialMT-14" transform="translate(0 0.3875)"/>
       <use xlink:href="#ArialMT-13" transform="translate(55.615234 0.3875)"/>
       <use xlink:href="#ArialMT-ed" transform="translate(112.1875 41.6875) scale(0.7)"/>
       <use xlink:href="#ArialMT-14" transform="translate(153.066406 41.6875) scale(0.7)"/>
       <use xlink:href="#ArialMT-1c" transform="translate(191.99707 41.6875) scale(0.7)"/>
      </g>
     </g>
    </g>
    <g id="ytick_3">
     <g id="line2d_27">
      <g>
       <use xlink:href="#mf450ca455d" x="60.598945" y="225.343362" style="stroke: #000000; stroke-width: 0.8"/>
      </g>
     </g>
     <g id="text_10">
      <!-- $\mathdefault{10^{-18}}$ -->
      <g transform="translate(24.338945 231.783362) scale(0.14 -0.14)">
       <use xlink:href="#ArialMT-14" transform="translate(0 0.3875)"/>
       <use xlink:href="#ArialMT-13" transform="translate(55.615234 0.3875)"/>
       <use xlink:href="#ArialMT-ed" transform="translate(112.1875 41.6875) scale(0.7)"/>
       <use xlink:href="#ArialMT-14" transform="translate(153.066406 41.6875) scale(0.7)"/>
       <use xlink:href="#ArialMT-1b" transform="translate(191.99707 41.6875) scale(0.7)"/>
      </g>
     </g>
    </g>
    <g id="ytick_4">
     <g id="line2d_28">
      <g>
       <use xlink:href="#mf450ca455d" x="60.598945" y="192.412434" style="stroke: #000000; stroke-width: 0.8"/>
      </g>
     </g>
     <g id="text_11">
      <!-- $\mathdefault{10^{-17}}$ -->
      <g transform="translate(24.338945 198.852434) scale(0.14 -0.14)">
       <defs>
        <path id="ArialMT-1a" d="M 303 3981 
L 303 4522 
L 3269 4522 
L 3269 4084 
Q 2831 3619 2401 2847 
Q 1972 2075 1738 1259 
Q 1569 684 1522 0 
L 944 0 
Q 953 541 1156 1306 
Q 1359 2072 1739 2783 
Q 2119 3494 2547 3981 
L 303 3981 
z
" transform="scale(0.015625)"/>
       </defs>
       <use xlink:href="#ArialMT-14" transform="translate(0 0.3875)"/>
       <use xlink:href="#ArialMT-13" transform="translate(55.615234 0.3875)"/>
       <use xlink:href="#ArialMT-ed" transform="translate(112.1875 41.6875) scale(0.7)"/>
       <use xlink:href="#ArialMT-14" transform="translate(153.066406 41.6875) scale(0.7)"/>
       <use xlink:href="#ArialMT-1a" transform="translate(191.99707 41.6875) scale(0.7)"/>
      </g>
     </g>
    </g>
    <g id="ytick_5">
     <g id="line2d_29">
      <g>
       <use xlink:href="#mf450ca455d" x="60.598945" y="159.481507" style="stroke: #000000; stroke-width: 0.8"/>
      </g>
     </g>
     <g id="text_12">
      <!-- $\mathdefault{10^{-16}}$ -->
      <g transform="translate(24.338945 165.921507) scale(0.14 -0.14)">
       <use xlink:href="#ArialMT-14" transform="translate(0 0.3875)"/>
       <use xlink:href="#ArialMT-13" transform="translate(55.615234 0.3875)"/>
       <use xlink:href="#ArialMT-ed" transform="translate(112.1875 41.6875) scale(0.7)"/>
       <use xlink:href="#ArialMT-14" transform="translate(153.066406 41.6875) scale(0.7)"/>
       <use xlink:href="#ArialMT-19" transform="translate(191.99707 41.6875) scale(0.7)"/>
      </g>
     </g>
    </g>
    <g id="ytick_6">
     <g id="line2d_30">
      <g>
       <use xlink:href="#mf450ca455d" x="60.598945" y="126.550579" style="stroke: #000000; stroke-width: 0.8"/>
      </g>
     </g>
     <g id="text_13">
      <!-- $\mathdefault{10^{-15}}$ -->
      <g transform="translate(24.338945 132.990579) scale(0.14 -0.14)">
       <defs>
        <path id="ArialMT-18" d="M 266 1200 
L 856 1250 
Q 922 819 1161 601 
Q 1400 384 1738 384 
Q 2144 384 2425 690 
Q 2706 997 2706 1503 
Q 2706 1984 2436 2262 
Q 2166 2541 1728 2541 
Q 1456 2541 1237 2417 
Q 1019 2294 894 2097 
L 366 2166 
L 809 4519 
L 3088 4519 
L 3088 3981 
L 1259 3981 
L 1013 2750 
Q 1425 3038 1878 3038 
Q 2478 3038 2890 2622 
Q 3303 2206 3303 1553 
Q 3303 931 2941 478 
Q 2500 -78 1738 -78 
Q 1113 -78 717 272 
Q 322 622 266 1200 
z
" transform="scale(0.015625)"/>
       </defs>
       <use xlink:href="#ArialMT-14" transform="translate(0 0.3875)"/>
       <use xlink:href="#ArialMT-13" transform="translate(55.615234 0.3875)"/>
       <use xlink:href="#ArialMT-ed" transform="translate(112.1875 41.6875) scale(0.7)"/>
       <use xlink:href="#ArialMT-14" transform="translate(153.066406 41.6875) scale(0.7)"/>
       <use xlink:href="#ArialMT-18" transform="translate(191.99707 41.6875) scale(0.7)"/>
      </g>
     </g>
    </g>
    <g id="ytick_7">
     <g id="line2d_31">
      <g>
       <use xlink:href="#mf450ca455d" x="60.598945" y="93.619651" style="stroke: #000000; stroke-width: 0.8"/>
      </g>
     </g>
     <g id="text_14">
      <!-- $\mathdefault{10^{-14}}$ -->
      <g transform="translate(24.338945 100.059651) scale(0.14 -0.14)">
       <use xlink:href="#ArialMT-14" transform="translate(0 0.3875)"/>
       <use xlink:href="#ArialMT-13" transform="translate(55.615234 0.3875)"/>
       <use xlink:href="#ArialMT-ed" transform="translate(112.1875 41.6875) scale(0.7)"/>
       <use xlink:href="#ArialMT-14" transform="translate(153.066406 41.6875) scale(0.7)"/>
       <use xlink:href="#ArialMT-17" transform="translate(191.99707 41.6875) scale(0.7)"/>
      </g>
     </g>
    </g>
    <g id="ytick_8">
     <g id="line2d_32">
      <g>
       <use xlink:href="#mf450ca455d" x="60.598945" y="60.688724" style="stroke: #000000; stroke-width: 0.8"/>
      </g>
     </g>
     <g id="text_15">
      <!-- $\mathdefault{10^{-13}}$ -->
      <g transform="translate(24.338945 67.128724) scale(0.14 -0.14)">
       <defs>
        <path id="ArialMT-16" d="M 269 1209 
L 831 1284 
Q 928 806 1161 595 
Q 1394 384 1728 384 
Q 2125 384 2398 659 
Q 2672 934 2672 1341 
Q 2672 1728 2419 1979 
Q 2166 2231 1775 2231 
Q 1616 2231 1378 2169 
L 1441 2663 
Q 1497 2656 1531 2656 
Q 1891 2656 2178 2843 
Q 2466 3031 2466 3422 
Q 2466 3731 2256 3934 
Q 2047 4138 1716 4138 
Q 1388 4138 1169 3931 
Q 950 3725 888 3313 
L 325 3413 
Q 428 3978 793 4289 
Q 1159 4600 1703 4600 
Q 2078 4600 2393 4439 
Q 2709 4278 2876 4000 
Q 3044 3722 3044 3409 
Q 3044 3113 2884 2869 
Q 2725 2625 2413 2481 
Q 2819 2388 3044 2092 
Q 3269 1797 3269 1353 
Q 3269 753 2831 336 
Q 2394 -81 1725 -81 
Q 1122 -81 723 278 
Q 325 638 269 1209 
z
" transform="scale(0.015625)"/>
       </defs>
       <use xlink:href="#ArialMT-14" transform="translate(0 0.3875)"/>
       <use xlink:href="#ArialMT-13" transform="translate(55.615234 0.3875)"/>
       <use xlink:href="#ArialMT-ed" transform="translate(112.1875 41.6875) scale(0.7)"/>
       <use xlink:href="#ArialMT-14" transform="translate(153.066406 41.6875) scale(0.7)"/>
       <use xlink:href="#ArialMT-16" transform="translate(191.99707 41.6875) scale(0.7)"/>
      </g>
     </g>
    </g>
    <g id="ytick_9">
     <g id="line2d_33">
      <defs>
       <path id="m57def6d955" d="M 0 0 
L 3 0 
" style="stroke: #000000; stroke-width: 0.6"/>
      </defs>
      <g>
       <use xlink:href="#m57def6d955" x="60.598945" y="301.118415" style="stroke: #000000; stroke-width: 0.6"/>
      </g>
     </g>
    </g>
    <g id="ytick_10">
     <g id="line2d_34">
      <g>
       <use xlink:href="#m57def6d955" x="60.598945" y="298.510903" style="stroke: #000000; stroke-width: 0.6"/>
      </g>
     </g>
    </g>
    <g id="ytick_11">
     <g id="line2d_35">
      <g>
       <use xlink:href="#m57def6d955" x="60.598945" y="296.306283" style="stroke: #000000; stroke-width: 0.6"/>
      </g>
     </g>
    </g>
    <g id="ytick_12">
     <g id="line2d_36">
      <g>
       <use xlink:href="#m57def6d955" x="60.598945" y="294.396554" style="stroke: #000000; stroke-width: 0.6"/>
      </g>
     </g>
    </g>
    <g id="ytick_13">
     <g id="line2d_37">
      <g>
       <use xlink:href="#m57def6d955" x="60.598945" y="292.712054" style="stroke: #000000; stroke-width: 0.6"/>
      </g>
     </g>
    </g>
    <g id="ytick_14">
     <g id="line2d_38">
      <g>
       <use xlink:href="#m57def6d955" x="60.598945" y="281.29202" style="stroke: #000000; stroke-width: 0.6"/>
      </g>
     </g>
    </g>
    <g id="ytick_15">
     <g id="line2d_39">
      <g>
       <use xlink:href="#m57def6d955" x="60.598945" y="275.493172" style="stroke: #000000; stroke-width: 0.6"/>
      </g>
     </g>
    </g>
    <g id="ytick_16">
     <g id="line2d_40">
      <g>
       <use xlink:href="#m57def6d955" x="60.598945" y="271.378823" style="stroke: #000000; stroke-width: 0.6"/>
      </g>
     </g>
    </g>
    <g id="ytick_17">
     <g id="line2d_41">
      <g>
       <use xlink:href="#m57def6d955" x="60.598945" y="268.187487" style="stroke: #000000; stroke-width: 0.6"/>
      </g>
     </g>
    </g>
    <g id="ytick_18">
     <g id="line2d_42">
      <g>
       <use xlink:href="#m57def6d955" x="60.598945" y="265.579975" style="stroke: #000000; stroke-width: 0.6"/>
      </g>
     </g>
    </g>
    <g id="ytick_19">
     <g id="line2d_43">
      <g>
       <use xlink:href="#m57def6d955" x="60.598945" y="263.375355" style="stroke: #000000; stroke-width: 0.6"/>
      </g>
     </g>
    </g>
    <g id="ytick_20">
     <g id="line2d_44">
      <g>
       <use xlink:href="#m57def6d955" x="60.598945" y="261.465626" style="stroke: #000000; stroke-width: 0.6"/>
      </g>
     </g>
    </g>
    <g id="ytick_21">
     <g id="line2d_45">
      <g>
       <use xlink:href="#m57def6d955" x="60.598945" y="259.781126" style="stroke: #000000; stroke-width: 0.6"/>
      </g>
     </g>
    </g>
    <g id="ytick_22">
     <g id="line2d_46">
      <g>
       <use xlink:href="#m57def6d955" x="60.598945" y="248.361093" style="stroke: #000000; stroke-width: 0.6"/>
      </g>
     </g>
    </g>
    <g id="ytick_23">
     <g id="line2d_47">
      <g>
       <use xlink:href="#m57def6d955" x="60.598945" y="242.562244" style="stroke: #000000; stroke-width: 0.6"/>
      </g>
     </g>
    </g>
    <g id="ytick_24">
     <g id="line2d_48">
      <g>
       <use xlink:href="#m57def6d955" x="60.598945" y="238.447896" style="stroke: #000000; stroke-width: 0.6"/>
      </g>
     </g>
    </g>
    <g id="ytick_25">
     <g id="line2d_49">
      <g>
       <use xlink:href="#m57def6d955" x="60.598945" y="235.256559" style="stroke: #000000; stroke-width: 0.6"/>
      </g>
     </g>
    </g>
    <g id="ytick_26">
     <g id="line2d_50">
      <g>
       <use xlink:href="#m57def6d955" x="60.598945" y="232.649047" style="stroke: #000000; stroke-width: 0.6"/>
      </g>
     </g>
    </g>
    <g id="ytick_27">
     <g id="line2d_51">
      <g>
       <use xlink:href="#m57def6d955" x="60.598945" y="230.444427" style="stroke: #000000; stroke-width: 0.6"/>
      </g>
     </g>
    </g>
    <g id="ytick_28">
     <g id="line2d_52">
      <g>
       <use xlink:href="#m57def6d955" x="60.598945" y="228.534699" style="stroke: #000000; stroke-width: 0.6"/>
      </g>
     </g>
    </g>
    <g id="ytick_29">
     <g id="line2d_53">
      <g>
       <use xlink:href="#m57def6d955" x="60.598945" y="226.850199" style="stroke: #000000; stroke-width: 0.6"/>
      </g>
     </g>
    </g>
    <g id="ytick_30">
     <g id="line2d_54">
      <g>
       <use xlink:href="#m57def6d955" x="60.598945" y="215.430165" style="stroke: #000000; stroke-width: 0.6"/>
      </g>
     </g>
    </g>
    <g id="ytick_31">
     <g id="line2d_55">
      <g>
       <use xlink:href="#m57def6d955" x="60.598945" y="209.631317" style="stroke: #000000; stroke-width: 0.6"/>
      </g>
     </g>
    </g>
    <g id="ytick_32">
     <g id="line2d_56">
      <g>
       <use xlink:href="#m57def6d955" x="60.598945" y="205.516968" style="stroke: #000000; stroke-width: 0.6"/>
      </g>
     </g>
    </g>
    <g id="ytick_33">
     <g id="line2d_57">
      <g>
       <use xlink:href="#m57def6d955" x="60.598945" y="202.325631" style="stroke: #000000; stroke-width: 0.6"/>
      </g>
     </g>
    </g>
    <g id="ytick_34">
     <g id="line2d_58">
      <g>
       <use xlink:href="#m57def6d955" x="60.598945" y="199.718119" style="stroke: #000000; stroke-width: 0.6"/>
      </g>
     </g>
    </g>
    <g id="ytick_35">
     <g id="line2d_59">
      <g>
       <use xlink:href="#m57def6d955" x="60.598945" y="197.5135" style="stroke: #000000; stroke-width: 0.6"/>
      </g>
     </g>
    </g>
    <g id="ytick_36">
     <g id="line2d_60">
      <g>
       <use xlink:href="#m57def6d955" x="60.598945" y="195.603771" style="stroke: #000000; stroke-width: 0.6"/>
      </g>
     </g>
    </g>
    <g id="ytick_37">
     <g id="line2d_61">
      <g>
       <use xlink:href="#m57def6d955" x="60.598945" y="193.919271" style="stroke: #000000; stroke-width: 0.6"/>
      </g>
     </g>
    </g>
    <g id="ytick_38">
     <g id="line2d_62">
      <g>
       <use xlink:href="#m57def6d955" x="60.598945" y="182.499237" style="stroke: #000000; stroke-width: 0.6"/>
      </g>
     </g>
    </g>
    <g id="ytick_39">
     <g id="line2d_63">
      <g>
       <use xlink:href="#m57def6d955" x="60.598945" y="176.700389" style="stroke: #000000; stroke-width: 0.6"/>
      </g>
     </g>
    </g>
    <g id="ytick_40">
     <g id="line2d_64">
      <g>
       <use xlink:href="#m57def6d955" x="60.598945" y="172.58604" style="stroke: #000000; stroke-width: 0.6"/>
      </g>
     </g>
    </g>
    <g id="ytick_41">
     <g id="line2d_65">
      <g>
       <use xlink:href="#m57def6d955" x="60.598945" y="169.394704" style="stroke: #000000; stroke-width: 0.6"/>
      </g>
     </g>
    </g>
    <g id="ytick_42">
     <g id="line2d_66">
      <g>
       <use xlink:href="#m57def6d955" x="60.598945" y="166.787192" style="stroke: #000000; stroke-width: 0.6"/>
      </g>
     </g>
    </g>
    <g id="ytick_43">
     <g id="line2d_67">
      <g>
       <use xlink:href="#m57def6d955" x="60.598945" y="164.582572" style="stroke: #000000; stroke-width: 0.6"/>
      </g>
     </g>
    </g>
    <g id="ytick_44">
     <g id="line2d_68">
      <g>
       <use xlink:href="#m57def6d955" x="60.598945" y="162.672843" style="stroke: #000000; stroke-width: 0.6"/>
      </g>
     </g>
    </g>
    <g id="ytick_45">
     <g id="line2d_69">
      <g>
       <use xlink:href="#m57def6d955" x="60.598945" y="160.988343" style="stroke: #000000; stroke-width: 0.6"/>
      </g>
     </g>
    </g>
    <g id="ytick_46">
     <g id="line2d_70">
      <g>
       <use xlink:href="#m57def6d955" x="60.598945" y="149.56831" style="stroke: #000000; stroke-width: 0.6"/>
      </g>
     </g>
    </g>
    <g id="ytick_47">
     <g id="line2d_71">
      <g>
       <use xlink:href="#m57def6d955" x="60.598945" y="143.769461" style="stroke: #000000; stroke-width: 0.6"/>
      </g>
     </g>
    </g>
    <g id="ytick_48">
     <g id="line2d_72">
      <g>
       <use xlink:href="#m57def6d955" x="60.598945" y="139.655113" style="stroke: #000000; stroke-width: 0.6"/>
      </g>
     </g>
    </g>
    <g id="ytick_49">
     <g id="line2d_73">
      <g>
       <use xlink:href="#m57def6d955" x="60.598945" y="136.463776" style="stroke: #000000; stroke-width: 0.6"/>
      </g>
     </g>
    </g>
    <g id="ytick_50">
     <g id="line2d_74">
      <g>
       <use xlink:href="#m57def6d955" x="60.598945" y="133.856264" style="stroke: #000000; stroke-width: 0.6"/>
      </g>
     </g>
    </g>
    <g id="ytick_51">
     <g id="line2d_75">
      <g>
       <use xlink:href="#m57def6d955" x="60.598945" y="131.651644" style="stroke: #000000; stroke-width: 0.6"/>
      </g>
     </g>
    </g>
    <g id="ytick_52">
     <g id="line2d_76">
      <g>
       <use xlink:href="#m57def6d955" x="60.598945" y="129.741916" style="stroke: #000000; stroke-width: 0.6"/>
      </g>
     </g>
    </g>
    <g id="ytick_53">
     <g id="line2d_77">
      <g>
       <use xlink:href="#m57def6d955" x="60.598945" y="128.057416" style="stroke: #000000; stroke-width: 0.6"/>
      </g>
     </g>
    </g>
    <g id="ytick_54">
     <g id="line2d_78">
      <g>
       <use xlink:href="#m57def6d955" x="60.598945" y="116.637382" style="stroke: #000000; stroke-width: 0.6"/>
      </g>
     </g>
    </g>
    <g id="ytick_55">
     <g id="line2d_79">
      <g>
       <use xlink:href="#m57def6d955" x="60.598945" y="110.838533" style="stroke: #000000; stroke-width: 0.6"/>
      </g>
     </g>
    </g>
    <g id="ytick_56">
     <g id="line2d_80">
      <g>
       <use xlink:href="#m57def6d955" x="60.598945" y="106.724185" style="stroke: #000000; stroke-width: 0.6"/>
      </g>
     </g>
    </g>
    <g id="ytick_57">
     <g id="line2d_81">
      <g>
       <use xlink:href="#m57def6d955" x="60.598945" y="103.532848" style="stroke: #000000; stroke-width: 0.6"/>
      </g>
     </g>
    </g>
    <g id="ytick_58">
     <g id="line2d_82">
      <g>
       <use xlink:href="#m57def6d955" x="60.598945" y="100.925336" style="stroke: #000000; stroke-width: 0.6"/>
      </g>
     </g>
    </g>
    <g id="ytick_59">
     <g id="line2d_83">
      <g>
       <use xlink:href="#m57def6d955" x="60.598945" y="98.720716" style="stroke: #000000; stroke-width: 0.6"/>
      </g>
     </g>
    </g>
    <g id="ytick_60">
     <g id="line2d_84">
      <g>
       <use xlink:href="#m57def6d955" x="60.598945" y="96.810988" style="stroke: #000000; stroke-width: 0.6"/>
      </g>
     </g>
    </g>
    <g id="ytick_61">
     <g id="line2d_85">
      <g>
       <use xlink:href="#m57def6d955" x="60.598945" y="95.126488" style="stroke: #000000; stroke-width: 0.6"/>
      </g>
     </g>
    </g>
    <g id="ytick_62">
     <g id="line2d_86">
      <g>
       <use xlink:href="#m57def6d955" x="60.598945" y="83.706454" style="stroke: #000000; stroke-width: 0.6"/>
      </g>
     </g>
    </g>
    <g id="ytick_63">
     <g id="line2d_87">
      <g>
       <use xlink:href="#m57def6d955" x="60.598945" y="77.907606" style="stroke: #000000; stroke-width: 0.6"/>
      </g>
     </g>
    </g>
    <g id="ytick_64">
     <g id="line2d_88">
      <g>
       <use xlink:href="#m57def6d955" x="60.598945" y="73.793257" style="stroke: #000000; stroke-width: 0.6"/>
      </g>
     </g>
    </g>
    <g id="ytick_65">
     <g id="line2d_89">
      <g>
       <use xlink:href="#m57def6d955" x="60.598945" y="70.601921" style="stroke: #000000; stroke-width: 0.6"/>
      </g>
     </g>
    </g>
    <g id="ytick_66">
     <g id="line2d_90">
      <g>
       <use xlink:href="#m57def6d955" x="60.598945" y="67.994409" style="stroke: #000000; stroke-width: 0.6"/>
      </g>
     </g>
    </g>
    <g id="ytick_67">
     <g id="line2d_91">
      <g>
       <use xlink:href="#m57def6d955" x="60.598945" y="65.789789" style="stroke: #000000; stroke-width: 0.6"/>
      </g>
     </g>
    </g>
    <g id="ytick_68">
     <g id="line2d_92">
      <g>
       <use xlink:href="#m57def6d955" x="60.598945" y="63.88006" style="stroke: #000000; stroke-width: 0.6"/>
      </g>
     </g>
    </g>
    <g id="ytick_69">
     <g id="line2d_93">
      <g>
       <use xlink:href="#m57def6d955" x="60.598945" y="62.19556" style="stroke: #000000; stroke-width: 0.6"/>
      </g>
     </g>
    </g>
    <g id="ytick_70">
     <g id="line2d_94">
      <g>
       <use xlink:href="#m57def6d955" x="60.598945" y="50.775526" style="stroke: #000000; stroke-width: 0.6"/>
      </g>
     </g>
    </g>
    <g id="ytick_71">
     <g id="line2d_95">
      <g>
       <use xlink:href="#m57def6d955" x="60.598945" y="44.976678" style="stroke: #000000; stroke-width: 0.6"/>
      </g>
     </g>
    </g>
    <g id="ytick_72">
     <g id="line2d_96">
      <g>
       <use xlink:href="#m57def6d955" x="60.598945" y="40.862329" style="stroke: #000000; stroke-width: 0.6"/>
      </g>
     </g>
    </g>
    <g id="text_16">
     <!-- Ion Current (m/z 60) -->
     <g transform="translate(17.392383 234.056768) rotate(-90) scale(0.14 -0.14)">
      <defs>
       <path id="ArialMT-2c" d="M 597 0 
L 597 4581 
L 1203 4581 
L 1203 0 
L 597 0 
z
" transform="scale(0.015625)"/>
       <path id="ArialMT-52" d="M 213 1659 
Q 213 2581 725 3025 
Q 1153 3394 1769 3394 
Q 2453 3394 2887 2945 
Q 3322 2497 3322 1706 
Q 3322 1066 3130 698 
Q 2938 331 2570 128 
Q 2203 -75 1769 -75 
Q 1072 -75 642 372 
Q 213 819 213 1659 
z
M 791 1659 
Q 791 1022 1069 705 
Q 1347 388 1769 388 
Q 2188 388 2466 706 
Q 2744 1025 2744 1678 
Q 2744 2294 2464 2611 
Q 2184 2928 1769 2928 
Q 1347 2928 1069 2612 
Q 791 2297 791 1659 
z
" transform="scale(0.015625)"/>
       <path id="ArialMT-51" d="M 422 0 
L 422 3319 
L 928 3319 
L 928 2847 
Q 1294 3394 1984 3394 
Q 2284 3394 2536 3286 
Q 2788 3178 2913 3003 
Q 3038 2828 3088 2588 
Q 3119 2431 3119 2041 
L 3119 0 
L 2556 0 
L 2556 2019 
Q 2556 2363 2490 2533 
Q 2425 2703 2258 2804 
Q 2091 2906 1866 2906 
Q 1506 2906 1245 2678 
Q 984 2450 984 1813 
L 984 0 
L 422 0 
z
" transform="scale(0.015625)"/>
       <path id="ArialMT-12" d="M 0 -78 
L 1328 4659 
L 1778 4659 
L 453 -78 
L 0 -78 
z
" transform="scale(0.015625)"/>
       <path id="ArialMT-5d" d="M 125 0 
L 125 456 
L 2238 2881 
Q 1878 2863 1603 2863 
L 250 2863 
L 250 3319 
L 2963 3319 
L 2963 2947 
L 1166 841 
L 819 456 
Q 1197 484 1528 484 
L 3063 484 
L 3063 0 
L 125 0 
z
" transform="scale(0.015625)"/>
      </defs>
      <use xlink:href="#ArialMT-2c"/>
      <use xlink:href="#ArialMT-52" transform="translate(27.78125 0)"/>
      <use xlink:href="#ArialMT-51" transform="translate(83.390625 0)"/>
      <use xlink:href="#ArialMT-3" transform="translate(139 0)"/>
      <use xlink:href="#ArialMT-26" transform="translate(166.78125 0)"/>
      <use xlink:href="#ArialMT-58" transform="translate(239 0)"/>
      <use xlink:href="#ArialMT-55" transform="translate(294.609375 0)"/>
      <use xlink:href="#ArialMT-55" transform="translate(327.90625 0)"/>
      <use xlink:href="#ArialMT-48" transform="translate(361.203125 0)"/>
      <use xlink:href="#ArialMT-51" transform="translate(416.8125 0)"/>
      <use xlink:href="#ArialMT-57" transform="translate(472.421875 0)"/>
      <use xlink:href="#ArialMT-3" transform="translate(500.203125 0)"/>
      <use xlink:href="#ArialMT-b" transform="translate(527.984375 0)"/>
      <use xlink:href="#ArialMT-50" transform="translate(561.28125 0)"/>
      <use xlink:href="#ArialMT-12" transform="translate(644.578125 0)"/>
      <use xlink:href="#ArialMT-5d" transform="translate(672.359375 0)"/>
      <use xlink:href="#ArialMT-3" transform="translate(722.359375 0)"/>
      <use xlink:href="#ArialMT-19" transform="translate(750.140625 0)"/>
      <use xlink:href="#ArialMT-13" transform="translate(805.75 0)"/>
      <use xlink:href="#ArialMT-c" transform="translate(861.359375 0)"/>
     </g>
    </g>
   </g>
   <g id="line2d_97">
    <path d="M 59.617544 89.585027 
L 59.617544 291.205218 
L 59.542052 99.908902 
L 59.806275 109.596866 
L 60.598945 291.205218 
L 62.108793 126.540262 
L 64.298073 153.669736 
L 66.600592 142.891845 
L 68.714379 291.205218 
L 70.48845 142.947773 
L 71.960552 139.778413 
L 73.243923 291.205218 
L 81.095133 291.205218 
L 82.303012 112.855116 
L 83.473144 291.205218 
L 84.681022 152.252767 
L 85.888901 114.567299 
L 87.210018 118.535179 
L 88.531135 110.708594 
L 89.77676 112.719265 
L 91.022384 110.757339 
L 92.230263 105.153524 
L 93.438141 108.896003 
L 94.608274 106.943032 
L 95.778406 291.205218 
L 96.948538 141.214153 
L 98.080924 291.205218 
L 99.326549 291.205218 
L 100.534428 182.508158 
L 101.70456 125.811354 
L 102.874692 291.205218 
L 104.044824 109.635578 
L 105.214957 114.183685 
L 106.422835 113.295228 
L 107.592967 291.205218 
L 113.368136 291.205218 
L 114.576015 240.649085 
L 115.783893 113.164247 
L 116.991772 118.320803 
L 118.124158 105.736868 
L 120.464422 105.479265 
L 121.672301 114.30113 
L 122.842433 110.044254 
L 124.050312 107.853723 
L 125.295936 96.875511 
L 127.673947 95.340737 
L 128.844079 97.693215 
L 130.014212 89.406058 
L 131.184344 87.803332 
L 132.354476 85.211339 
L 134.656995 82.282487 
L 135.864873 81.10049 
L 137.072751 79.204516 
L 138.318376 79.760168 
L 139.526255 80.792327 
L 140.696387 83.72009 
L 141.791027 81.572136 
L 142.998905 82.559376 
L 144.131291 81.337998 
L 145.301424 80.514377 
L 146.471556 80.68088 
L 147.641688 80.244762 
L 148.887313 80.091817 
L 150.095191 82.128711 
L 151.227577 87.102585 
L 152.435456 90.243345 
L 153.605588 95.782906 
L 154.77572 104.88376 
L 156.021345 103.293497 
L 157.153731 94.159259 
L 158.286117 87.725607 
L 159.45625 84.413467 
L 160.626382 83.265751 
L 161.872006 82.882535 
L 163.042139 86.039175 
L 164.250017 88.164999 
L 165.42015 92.812224 
L 167.79816 99.138908 
L 169.006039 91.81522 
L 170.176171 88.147961 
L 171.270811 87.751472 
L 173.648822 89.41933 
L 174.818954 95.132393 
L 175.989086 89.753673 
L 177.196965 87.550542 
L 178.367097 85.996815 
L 179.499483 85.8839 
L 180.707361 82.775225 
L 181.877494 82.607653 
L 183.047626 80.41034 
L 184.255505 80.582843 
L 186.558023 79.919276 
L 187.765901 78.601265 
L 188.97378 78.771376 
L 191.314044 77.551511 
L 192.559669 78.653219 
L 193.767548 79.569312 
L 194.899934 77.111993 
L 196.183304 77.881772 
L 197.353437 77.38758 
L 198.523569 77.524953 
L 199.655955 78.059591 
L 200.788341 77.290365 
L 203.09086 78.426488 
L 204.298738 79.63768 
L 205.506617 78.042627 
L 206.676749 76.287966 
L 207.846881 75.415402 
L 210.187146 73.334978 
L 211.395024 71.385473 
L 212.565156 70.020692 
L 213.773035 68.153356 
L 216.075553 62.104081 
L 217.283432 58.431481 
L 218.529056 56.486491 
L 219.699189 54.320749 
L 220.793828 52.654242 
L 221.963961 51.843889 
L 223.171839 51.656443 
L 224.341972 52.299207 
L 225.512104 54.005779 
L 226.719982 55.556257 
L 229.022501 61.01886 
L 230.230379 65.638492 
L 231.362765 67.919453 
L 232.532897 69.008603 
L 233.70303 71.281011 
L 234.873162 73.179493 
L 237.251173 79.373077 
L 238.383559 78.692247 
L 239.591437 80.527226 
L 240.76157 81.644209 
L 241.931702 83.185519 
L 243.13958 81.084154 
L 244.271966 78.493757 
L 245.479845 78.07369 
L 246.649977 77.98035 
L 247.857856 77.680292 
L 248.990242 78.48656 
L 250.160374 80.325014 
L 251.330506 80.8373 
L 252.538385 81.979423 
L 253.708517 85.427885 
L 254.840903 84.147359 
L 256.048782 82.606456 
L 257.218914 80.075499 
L 258.426792 80.1065 
L 259.634671 79.902242 
L 260.767057 82.025377 
L 261.974935 83.643785 
L 263.182814 84.405636 
L 264.352946 86.195802 
L 265.523078 90.699296 
L 266.693211 87.803869 
L 267.901089 88.734608 
L 269.033475 88.284009 
L 270.203607 92.3498 
L 271.335994 92.462995 
L 272.506126 89.107566 
L 273.751751 87.30779 
L 274.884137 83.993329 
L 276.092015 82.905134 
L 277.262147 82.352008 
L 278.43228 83.330474 
L 279.564666 83.230656 
L 280.772544 82.744531 
L 281.942676 84.458159 
L 283.112809 83.548573 
L 284.282941 79.183211 
L 285.490819 76.855296 
L 286.660952 73.602537 
L 287.831084 72.364733 
L 289.001216 72.107144 
L 290.209095 72.043046 
L 291.341481 71.775613 
L 292.511613 72.411456 
L 293.719492 75.677458 
L 294.889624 77.751744 
L 296.02201 80.275069 
L 297.267635 80.808698 
L 298.400021 80.011933 
L 299.607899 80.924304 
L 300.740285 81.577579 
L 301.910418 81.349844 
L 303.042804 78.899009 
L 304.212936 77.942128 
L 305.496307 77.852014 
L 306.704185 76.195887 
L 307.94981 75.204307 
L 309.119942 72.405322 
L 310.327821 71.734116 
L 311.535699 71.367678 
L 312.743578 73.319765 
L 313.875964 73.745553 
L 315.046096 72.90598 
L 316.216228 73.712304 
L 317.348614 73.329864 
L 318.518747 72.814544 
L 320.896757 72.781269 
L 322.06689 73.29557 
L 323.237022 72.701285 
L 324.407154 76.367053 
L 325.615033 76.002919 
L 326.747419 77.979877 
L 327.879805 77.359596 
L 329.049937 78.072863 
L 330.257816 78.071935 
L 331.427948 77.747738 
L 332.635826 78.02274 
L 333.768212 76.636986 
L 334.976091 75.992247 
L 336.108477 78.002222 
L 337.316355 78.757722 
L 338.486488 81.386667 
L 339.618874 80.600902 
L 340.789006 81.744824 
L 341.996885 79.57883 
L 344.337149 76.704456 
L 345.469535 73.018436 
L 346.71516 71.804167 
L 347.847546 71.087368 
L 349.017678 73.826993 
L 350.225557 76.168853 
L 351.395689 77.475141 
L 352.565821 76.49345 
L 353.7737 75.648294 
L 356.076218 73.239683 
L 357.208604 72.559076 
L 358.454229 73.098223 
L 359.624361 73.220826 
L 360.794493 73.971168 
L 361.964626 75.010762 
L 363.097012 74.688009 
L 364.30489 70.729243 
L 365.39953 69.893569 
L 366.645155 69.214033 
L 367.815287 69.941118 
L 369.023165 71.329724 
L 370.117805 72.285892 
L 371.287938 72.408842 
L 372.495816 72.357682 
L 373.703695 72.789304 
L 374.798334 73.017074 
L 375.930721 71.155335 
L 377.214091 70.568587 
L 378.308731 69.283618 
L 379.51661 68.860139 
L 382.309829 70.467113 
L 383.517707 71.746256 
L 384.725586 72.454369 
L 385.857972 72.555861 
L 387.103596 74.892583 
L 388.311475 74.053672 
L 389.368369 72.242824 
L 390.651739 70.482672 
L 391.821872 69.831205 
L 394.162136 68.752623 
L 395.294522 69.040874 
L 396.502401 69.533849 
L 397.634787 70.996883 
L 398.880412 73.626705 
L 400.012798 75.390299 
L 401.220676 77.807964 
L 402.353062 78.19154 
L 403.560941 79.0469 
L 404.768819 75.111034 
L 407.071338 72.068203 
L 408.203724 72.288955 
L 409.524841 73.056994 
L 410.581734 75.74267 
L 411.789613 77.53909 
L 412.921999 78.648672 
L 414.054385 80.611077 
L 415.30001 81.697439 
L 416.470142 78.807582 
L 417.640274 80.71124 
L 418.810407 80.69495 
L 422.35855 84.021968 
L 424.925291 80.311199 
L 425.982185 79.831089 
L 427.076825 77.467587 
L 428.284703 76.996243 
L 429.454836 79.471739 
L 430.624968 81.65371 
L 431.757354 85.108125 
L 432.927486 89.279279 
L 434.022126 87.815796 
L 435.305497 87.226784 
L 436.437883 83.559764 
L 437.608015 82.451185 
L 438.778148 78.935861 
L 439.910534 76.502849 
L 441.269397 75.544929 
L 442.326291 78.377437 
L 443.534169 83.489028 
L 445.949926 92.639189 
L 446.931327 101.950815 
L 448.139206 106.462613 
L 449.347084 291.205218 
L 450.47947 130.655631 
L 451.762841 102.171217 
L 452.932974 98.006229 
L 454.140852 96.869364 
L 455.122253 95.15469 
L 456.632101 87.387302 
L 457.953218 87.141657 
L 459.236589 87.151345 
L 460.595453 88.071915 
L 461.576854 89.174609 
L 462.935717 91.980143 
L 463.992611 90.441092 
L 465.238236 94.778862 
L 466.332875 90.873542 
L 467.5785 89.880532 
L 468.559901 88.280684 
L 469.994257 88.93499 
L 470.900166 88.652191 
L 472.221283 87.692511 
L 473.353669 84.301395 
L 474.63704 84.322561 
L 475.656187 82.951607 
L 476.864066 82.602607 
L 478.071944 81.876717 
L 479.393061 84.644726 
L 480.449955 88.442336 
L 481.506849 90.336407 
L 482.639235 90.0527 
L 483.960352 89.408335 
L 485.092738 86.005409 
L 486.26287 86.875951 
L 487.470749 86.147624 
L 488.565389 86.330704 
L 489.84876 87.860293 
L 490.981146 91.816922 
L 492.189024 102.568544 
L 493.434649 291.205218 
L 493.434649 291.205218 
" clip-path="url(#p931f6f114c)" style="fill: none; stroke: #000000; stroke-width: 2.5; stroke-linecap: square"/>
   </g>
   <g id="line2d_98">
    <path d="M 59.013605 106.14881 
L 59.013605 291.205218 
L 59.013605 291.205218 
L 70.261973 291.205218 
L 71.658583 120.658322 
L 72.866461 155.007663 
L 73.961101 150.307632 
L 75.055741 123.057119 
L 76.150381 138.065004 
L 77.245021 107.682078 
L 78.377407 291.205218 
L 81.887803 291.205218 
L 83.095682 113.088603 
L 84.30356 129.874246 
L 85.511439 291.205218 
L 86.832556 109.087358 
L 88.115927 112.230175 
L 89.399298 120.480785 
L 90.682669 135.175065 
L 91.890547 106.806779 
L 93.098426 110.089034 
L 94.268558 101.314824 
L 95.43869 100.873699 
L 96.608822 105.910177 
L 97.778955 105.730296 
L 98.949087 104.622387 
L 100.119219 291.205218 
L 106.007627 291.205218 
L 107.140013 130.962288 
L 108.272399 105.652627 
L 109.480277 95.811171 
L 110.688156 98.766377 
L 111.896034 98.997727 
L 113.066167 105.210953 
L 114.198553 97.902635 
L 115.406431 100.831164 
L 116.576564 102.07151 
L 117.746696 98.397277 
L 118.916828 92.08202 
L 120.08696 93.774704 
L 121.332585 90.572026 
L 122.502717 94.276428 
L 123.67285 88.983574 
L 126.05086 81.379367 
L 127.258739 80.829342 
L 128.428871 78.298167 
L 130.806882 75.01411 
L 131.977014 75.939222 
L 133.147146 75.277974 
L 134.317279 76.919632 
L 135.525157 78.895491 
L 136.695289 80.389496 
L 137.865422 83.402797 
L 139.035554 86.841253 
L 140.243432 88.049184 
L 141.413565 88.434597 
L 142.621443 86.455477 
L 143.791576 87.453706 
L 146.169586 85.316592 
L 147.339719 84.88295 
L 148.547597 81.562095 
L 149.717729 82.876294 
L 150.925608 83.340756 
L 152.09574 84.510145 
L 153.303619 84.841663 
L 154.473751 87.313707 
L 155.643883 90.509915 
L 156.738523 91.482864 
L 157.908655 91.162421 
L 159.116534 92.871133 
L 160.286666 93.953496 
L 162.740169 103.989833 
L 163.948048 113.098286 
L 165.080434 105.668947 
L 166.288312 101.694845 
L 167.458444 88.718305 
L 168.628577 83.205979 
L 169.836455 79.925196 
L 171.006587 79.617506 
L 172.101227 81.632144 
L 173.309106 79.407276 
L 174.441492 81.073621 
L 175.611624 83.353721 
L 176.819503 83.412156 
L 177.914143 81.0889 
L 180.329899 79.730966 
L 181.537778 77.841216 
L 182.670164 77.840489 
L 183.840296 79.896408 
L 185.010429 78.13285 
L 186.218307 78.821141 
L 187.426186 78.541636 
L 188.596318 78.587675 
L 189.76645 79.40133 
L 190.974329 79.358564 
L 192.182207 78.525233 
L 193.427832 75.969374 
L 194.522472 75.392732 
L 195.73035 75.858931 
L 196.975975 77.225253 
L 198.146107 78.002834 
L 199.278493 77.691161 
L 200.448625 80.558119 
L 201.618758 80.652356 
L 202.826636 78.522211 
L 203.959022 76.912179 
L 205.129154 74.990093 
L 206.299287 73.808169 
L 208.639551 74.853391 
L 211.017562 77.039351 
L 212.225441 80.332322 
L 213.395573 78.83696 
L 214.527959 76.986379 
L 215.773584 75.858492 
L 216.90597 74.1706 
L 218.076102 73.029896 
L 219.28398 73.491389 
L 220.454113 72.697006 
L 221.586499 73.551753 
L 222.756631 73.790656 
L 223.926763 74.647312 
L 226.304774 73.937056 
L 228.682785 77.398443 
L 229.815171 79.675534 
L 230.985303 83.88107 
L 232.155435 86.086958 
L 233.325568 86.56592 
L 234.533446 84.288256 
L 235.703578 81.793524 
L 236.873711 79.893394 
L 238.043843 77.35742 
L 239.251721 77.744983 
L 240.421854 79.599215 
L 241.591986 81.790406 
L 243.932251 91.387595 
L 245.102383 90.303725 
L 246.272515 89.785532 
L 247.442647 84.980585 
L 248.575033 81.359306 
L 249.782912 78.829219 
L 251.028537 79.543732 
L 252.198669 78.938118 
L 253.368801 80.015041 
L 254.57668 81.860559 
L 255.709066 84.400359 
L 256.879198 85.049722 
L 258.124823 84.535309 
L 259.257209 84.673318 
L 260.502833 82.702427 
L 261.63522 83.878051 
L 262.805352 83.344624 
L 263.975484 83.181022 
L 266.353495 89.180205 
L 267.523627 95.539379 
L 268.693759 100.630779 
L 269.901638 93.926161 
L 270.996278 95.508124 
L 272.16641 88.842201 
L 273.374288 89.386676 
L 274.544421 86.066062 
L 276.884685 92.11015 
L 278.092564 96.50846 
L 279.22495 97.946596 
L 280.395082 95.480427 
L 281.602961 92.027076 
L 282.773093 93.321639 
L 283.943225 87.628387 
L 285.151104 85.675778 
L 286.321236 84.199902 
L 287.453622 83.708976 
L 288.6615 82.197825 
L 289.869379 81.787429 
L 291.039511 79.923506 
L 292.171897 80.80817 
L 293.379776 79.972309 
L 294.549908 78.440331 
L 295.72004 76.229232 
L 296.890173 74.647845 
L 299.268183 73.249128 
L 300.362823 73.845186 
L 301.570702 73.938745 
L 302.77858 75.777283 
L 303.948712 76.405044 
L 305.156591 75.670949 
L 307.572348 73.977794 
L 308.780226 74.336636 
L 309.988105 73.868697 
L 311.158237 74.476156 
L 312.290623 74.59282 
L 313.498502 74.073314 
L 314.70638 74.075912 
L 315.838766 73.009044 
L 317.046645 72.648929 
L 318.216777 72.451864 
L 320.519295 74.703745 
L 321.689428 74.198088 
L 322.935052 75.413341 
L 324.029692 75.054903 
L 325.237571 73.846896 
L 326.407703 74.772001 
L 327.540089 74.370827 
L 328.747967 72.48978 
L 329.842607 73.465113 
L 331.088232 73.79604 
L 333.428497 74.078837 
L 334.560883 76.421313 
L 335.768761 77.029355 
L 336.901147 78.830776 
L 338.033533 82.520913 
L 339.279158 78.471387 
L 340.487036 73.405068 
L 341.657169 72.746202 
L 342.789555 70.921693 
L 343.921941 70.150913 
L 345.054327 69.153233 
L 346.299952 69.434233 
L 347.470084 69.415256 
L 348.677962 70.986926 
L 349.923587 72.017661 
L 350.980481 72.670723 
L 352.150613 72.665607 
L 353.396238 74.483266 
L 354.528624 76.792657 
L 355.811995 76.139916 
L 356.831142 72.57579 
L 357.963528 70.227877 
L 359.246899 69.711138 
L 360.379285 68.840843 
L 361.549417 68.513946 
L 362.757296 69.244325 
L 364.002921 70.364273 
L 365.135307 71.099324 
L 366.267693 72.127763 
L 368.68345 68.214326 
L 369.77809 68.275321 
L 370.985968 68.53879 
L 372.1561 68.6279 
L 374.458619 70.864915 
L 375.628751 71.459767 
L 376.761137 71.025289 
L 377.969015 70.054271 
L 379.21464 69.507165 
L 380.460265 69.499373 
L 381.894621 69.344807 
L 383.177991 68.585919 
L 384.310377 69.259891 
L 385.48051 70.179714 
L 386.688388 70.669314 
L 389.104145 70.318788 
L 390.236531 70.242589 
L 391.406664 71.973782 
L 392.614542 73.080596 
L 393.860167 73.935309 
L 395.030299 74.569495 
L 397.332817 78.454862 
L 398.540696 78.069395 
L 399.673082 76.687752 
L 400.843214 75.71149 
L 402.088839 75.739305 
L 403.258971 77.040073 
L 404.353611 76.888442 
L 405.561489 76.174588 
L 406.731622 74.770955 
L 409.03414 73.628556 
L 410.279765 73.242356 
L 411.487643 73.167395 
L 412.544537 75.685313 
L 414.960294 82.117017 
L 416.130426 82.055598 
L 417.300558 82.324681 
L 418.583929 78.603218 
L 420.810955 75.778585 
L 421.905595 74.958357 
L 423.15122 74.503893 
L 424.396844 78.639698 
L 425.604723 80.125761 
L 426.661617 80.685684 
L 427.831749 81.706581 
L 429.266105 81.80268 
L 430.360744 81.335269 
L 431.455384 83.200176 
L 433.757903 78.186978 
L 434.852543 77.70831 
L 436.060421 78.287004 
L 437.2683 77.723868 
L 438.362939 76.777884 
L 439.64631 76.999663 
L 440.891935 77.364043 
L 443.081215 82.977829 
L 444.326839 84.135538 
L 445.421479 81.494716 
L 446.70485 81.468977 
L 447.79949 80.253529 
L 448.931876 81.45457 
L 450.102008 81.007276 
L 451.385379 79.598927 
L 452.517765 79.491142 
L 453.687898 81.042156 
L 454.669299 80.878456 
L 456.216893 82.4624 
L 457.764487 81.267604 
L 459.010112 83.39459 
L 460.067006 82.919843 
L 461.350377 83.021028 
L 462.558255 81.85192 
L 463.50191 79.2105 
L 464.860774 78.083588 
L 465.917667 76.789642 
L 467.087799 76.429057 
L 468.333424 78.303268 
L 469.541303 79.141957 
L 470.598196 78.908275 
L 471.843821 79.392276 
L 472.862968 80.11325 
L 474.184086 80.270088 
L 475.354218 79.277968 
L 476.52435 77.502584 
L 477.694482 77.573672 
L 478.902361 81.744442 
L 480.261224 84.294034 
L 481.167133 86.385214 
L 482.412758 88.352106 
L 483.771621 93.784614 
L 484.639784 103.246666 
L 485.923154 108.593821 
L 487.131033 103.81734 
L 488.074688 98.124479 
L 489.358059 102.799356 
L 490.679176 108.786136 
L 491.962547 112.567099 
L 492.906202 108.188638 
L 493.887603 98.556955 
L 493.887603 98.556955 
" clip-path="url(#p931f6f114c)" style="fill: none; stroke: #1f77b4; stroke-width: 2.5; stroke-linecap: square"/>
   </g>
   <g id="line2d_99">
    <path d="M 58.636143 291.205218 
L 58.636143 91.948546 
L 58.673889 291.205218 
L 61.84457 291.205218 
L 63.996104 134.068555 
L 66.223129 158.687049 
L 68.185932 135.270318 
L 69.809019 103.122815 
L 71.205628 96.320022 
L 72.413507 103.242197 
L 73.508147 120.545618 
L 74.602786 291.205218 
L 80.264717 291.205218 
L 81.472595 128.036673 
L 82.680474 122.91295 
L 83.850606 291.205218 
L 85.058484 291.205218 
L 86.304109 135.837162 
L 87.58748 291.205218 
L 88.908597 291.205218 
L 90.229714 127.860886 
L 91.437593 123.03335 
L 92.607725 136.243331 
L 93.777857 291.205218 
L 99.628519 291.205218 
L 100.798651 126.947722 
L 102.006529 101.554465 
L 103.214408 109.117348 
L 104.422286 291.205218 
L 111.480826 291.205218 
L 112.53772 152.713106 
L 113.707852 99.240257 
L 114.953477 100.016773 
L 116.161355 104.3516 
L 117.369234 103.964168 
L 118.539366 111.283935 
L 119.747245 98.937248 
L 120.955123 94.487051 
L 122.125255 91.794251 
L 123.257641 91.040459 
L 124.46552 86.29309 
L 125.635652 82.705178 
L 126.843531 83.545961 
L 128.013663 88.396538 
L 129.259288 86.895386 
L 130.467166 89.819061 
L 131.637298 87.601164 
L 132.807431 88.536342 
L 133.939817 91.892148 
L 135.109949 94.975448 
L 136.280081 89.93421 
L 137.563452 88.026743 
L 138.771331 85.878871 
L 139.903717 87.537196 
L 141.036103 82.444418 
L 142.243981 81.283847 
L 143.376367 81.288654 
L 144.584246 82.455982 
L 146.962257 81.306889 
L 148.170135 81.032735 
L 149.340267 81.520442 
L 150.472653 81.48543 
L 151.680532 84.793399 
L 152.88841 84.733818 
L 154.058543 86.236237 
L 155.228675 88.323424 
L 156.436553 89.906876 
L 157.644432 87.481486 
L 158.776818 90.17439 
L 159.984696 87.290426 
L 161.154829 87.345282 
L 162.324961 86.234003 
L 163.495093 86.722851 
L 164.665225 85.734301 
L 167.00549 82.912357 
L 168.213368 83.451724 
L 169.383501 84.356887 
L 170.591379 82.359117 
L 171.723765 79.318851 
L 172.931644 79.318912 
L 174.101776 76.442805 
L 175.271908 77.416062 
L 176.442041 77.719712 
L 177.612173 77.785137 
L 178.782305 75.765583 
L 179.914691 76.454794 
L 181.12257 75.475367 
L 182.292702 74.67651 
L 183.462834 74.039558 
L 184.632967 74.909608 
L 185.840845 73.305301 
L 187.010977 76.068562 
L 188.256602 76.54261 
L 189.426734 80.865191 
L 190.634613 81.434459 
L 191.804745 79.366077 
L 193.05037 76.295754 
L 195.390634 72.84932 
L 196.52302 72.454615 
L 197.693153 71.926658 
L 198.863285 73.095073 
L 200.033417 73.577724 
L 201.203549 76.699784 
L 202.411428 76.394468 
L 203.58156 74.481344 
L 204.789439 75.113774 
L 205.921825 75.450665 
L 207.054211 74.199849 
L 208.299835 73.58245 
L 209.507714 76.842909 
L 210.677846 78.729537 
L 211.772486 76.588477 
L 213.018111 76.034039 
L 214.150497 75.291587 
L 215.396122 74.97094 
L 216.528508 76.910418 
L 217.69864 76.821525 
L 218.906518 74.322945 
L 220.076651 73.897303 
L 221.246783 73.655278 
L 222.379169 74.352717 
L 223.549301 73.287346 
L 225.927312 77.883566 
L 227.135191 79.42692 
L 228.267577 83.229693 
L 229.475455 88.723948 
L 230.607841 85.690245 
L 232.948106 80.337573 
L 234.118238 81.693474 
L 235.326116 81.86045 
L 236.496249 83.271038 
L 237.666381 85.822711 
L 238.836513 83.390362 
L 240.044392 84.56038 
L 241.176778 87.050505 
L 242.384656 86.182295 
L 243.554789 89.091149 
L 244.724921 92.883601 
L 245.857307 87.865203 
L 247.065185 88.641455 
L 248.235318 83.792122 
L 249.367704 83.195593 
L 250.575582 77.738805 
L 252.953593 77.443323 
L 254.048233 80.245014 
L 256.46399 87.163304 
L 257.596376 88.123757 
L 258.804254 95.803457 
L 259.974387 95.624344 
L 261.144519 95.686741 
L 262.352397 85.873486 
L 263.52253 84.025131 
L 264.692662 81.665752 
L 265.862794 82.768211 
L 267.032926 81.942774 
L 268.203059 80.846428 
L 269.410937 78.920732 
L 270.543323 80.675704 
L 271.788948 83.912741 
L 272.921334 87.898442 
L 274.129213 87.447736 
L 275.299345 89.428673 
L 276.393985 87.458277 
L 277.677356 88.353773 
L 278.809742 89.30899 
L 279.979874 84.988358 
L 281.150006 81.72997 
L 282.357885 86.645999 
L 283.528017 87.390698 
L 284.660403 94.976698 
L 285.906028 101.623777 
L 287.113906 94.269503 
L 288.246292 84.790502 
L 289.416425 80.726629 
L 290.548811 81.527822 
L 291.794435 79.483346 
L 292.964568 77.792358 
L 294.1347 79.330611 
L 295.267086 78.286361 
L 296.512711 79.327726 
L 297.645097 78.702444 
L 298.777483 76.700988 
L 299.947615 73.836187 
L 301.155493 72.624798 
L 302.325626 74.710642 
L 303.495758 74.172041 
L 304.703637 75.172442 
L 305.873769 76.754184 
L 307.15714 78.934624 
L 308.402764 78.407027 
L 309.497404 78.595561 
L 310.743029 78.050803 
L 311.913161 78.034653 
L 313.083293 74.706367 
L 314.253426 74.866276 
L 315.423558 72.616768 
L 316.555944 74.205208 
L 317.763823 74.494091 
L 318.971701 75.947424 
L 320.104087 75.168693 
L 322.519844 75.643754 
L 323.65223 77.716707 
L 324.784616 75.965296 
L 325.992495 76.02168 
L 327.162627 74.580366 
L 328.332759 74.515484 
L 329.427399 75.213946 
L 330.635278 75.105518 
L 331.80541 73.668275 
L 333.013288 75.236478 
L 334.221167 78.727447 
L 335.315807 79.697905 
L 336.485939 81.558928 
L 337.656071 77.418675 
L 338.826204 74.383031 
L 340.034082 71.989516 
L 341.24196 70.233744 
L 342.374347 69.276322 
L 343.582225 69.03175 
L 344.752357 71.553488 
L 345.960236 75.036545 
L 347.054876 76.661814 
L 348.187262 79.720502 
L 349.39514 78.000394 
L 350.565272 77.804448 
L 352.905537 73.840923 
L 354.113416 72.682817 
L 355.35904 70.461779 
L 356.491426 70.025696 
L 357.586066 71.695631 
L 358.831691 71.462643 
L 360.001823 72.036261 
L 361.171955 71.634897 
L 362.379834 71.415337 
L 363.587712 71.907595 
L 364.682352 71.707963 
L 365.890231 70.833018 
L 367.060363 69.061047 
L 368.192749 69.687671 
L 369.400628 71.124597 
L 370.533014 71.417597 
L 372.911024 70.151323 
L 375.251289 70.352244 
L 376.383675 69.215996 
L 377.6293 70.469491 
L 378.72394 71.144996 
L 380.00731 72.74839 
L 381.441666 73.256091 
L 382.762783 75.272518 
L 383.932915 75.526227 
L 385.17854 76.820205 
L 386.348672 79.535006 
L 387.556551 78.64347 
L 388.688937 78.039328 
L 389.859069 81.23873 
L 391.066948 80.504998 
L 392.23708 77.517662 
L 393.33172 75.143245 
L 394.615091 74.873694 
L 395.785223 75.693451 
L 396.955355 74.557399 
L 399.220127 77.007901 
L 400.352514 76.185188 
L 401.635884 76.312983 
L 402.806017 77.278294 
L 403.976149 74.414834 
L 405.033043 74.189572 
L 406.316414 74.420266 
L 407.562038 77.919794 
L 408.618932 77.950165 
L 409.864557 79.351068 
L 410.996943 82.517684 
L 413.337207 78.580371 
L 414.620578 78.507015 
L 415.715218 74.927581 
L 416.847604 76.296813 
L 418.130975 76.155601 
L 419.338853 77.703999 
L 420.508986 78.368949 
L 421.641372 79.806117 
L 422.736012 84.853276 
L 423.94389 84.621782 
L 425.189515 83.95362 
L 426.208662 81.333676 
L 427.567525 82.409023 
L 428.624419 82.679888 
L 429.719059 79.09165 
L 430.926938 77.310638 
L 432.172562 78.241591 
L 433.19171 79.16139 
L 434.512827 81.66588 
L 435.645213 83.263805 
L 436.815345 84.632565 
L 438.06097 85.684736 
L 439.15561 90.210176 
L 440.438981 88.478529 
L 441.53362 84.842214 
L 442.666006 84.128536 
L 443.873885 84.674676 
L 445.081763 85.716835 
L 446.251896 85.338606 
L 447.459774 87.647282 
L 448.478922 91.833125 
L 449.6868 95.062869 
L 450.932425 104.210729 
L 452.064811 97.101847 
L 453.272689 92.551582 
L 454.367329 92.745946 
L 455.688446 95.213733 
L 458.519411 83.203812 
L 459.614051 83.539946 
L 460.859676 87.038303 
L 462.067555 85.463473 
L 463.275433 87.892762 
L 464.445565 84.446842 
L 465.540205 86.337507 
L 466.672591 88.004445 
L 467.842723 86.692231 
L 468.97511 83.033202 
L 470.145242 82.385342 
L 471.35312 85.894091 
L 472.636491 86.079664 
L 473.84437 84.288286 
L 474.825771 84.679629 
L 476.071396 81.760728 
L 477.31702 79.816721 
L 478.487153 78.651004 
L 479.581792 76.815111 
L 480.789671 78.342135 
L 481.997549 80.233594 
L 483.129935 83.356105 
L 484.451053 86.505107 
L 485.4702 92.377035 
L 486.753571 103.115692 
L 487.923703 105.154767 
L 488.905104 110.674297 
L 490.075237 110.251635 
L 491.547339 103.220288 
L 492.717471 94.561685 
L 493.585634 86.67136 
L 493.585634 86.67136 
" clip-path="url(#p931f6f114c)" style="fill: none; stroke: #d62728; stroke-width: 2.5; stroke-linecap: square"/>
   </g>
   <g id="line2d_100">
    <path d="M 60.372468 93.880414 
L 60.334722 124.523411 
L 60.296976 102.139811 
L 60.447961 111.93089 
L 61.014154 291.205218 
L 71.847314 291.205218 
L 73.206177 113.722568 
L 74.338563 119.640763 
L 75.433203 112.810634 
L 76.527843 114.384678 
L 77.622483 101.54935 
L 78.754869 101.831346 
L 79.887255 105.288627 
L 81.057387 122.733805 
L 82.227519 107.423015 
L 83.435398 101.676616 
L 84.643276 109.997599 
L 85.888901 115.915392 
L 87.172272 110.180198 
L 88.531135 114.813424 
L 89.77676 104.418375 
L 91.022384 119.314201 
L 92.230263 140.339063 
L 93.400395 117.329422 
L 94.570528 104.27062 
L 95.74066 98.407793 
L 96.910792 99.037188 
L 98.118671 102.299056 
L 99.288803 110.414044 
L 100.421189 144.933005 
L 101.591321 118.013378 
L 102.723707 107.933439 
L 105.101718 96.704992 
L 106.27185 93.067571 
L 107.479729 89.94773 
L 108.649861 91.220253 
L 109.895486 97.483854 
L 111.065618 98.513794 
L 112.23575 100.633444 
L 113.481375 100.140124 
L 114.576015 93.180406 
L 115.783893 95.869673 
L 118.124158 91.621558 
L 119.29429 92.646823 
L 120.464422 100.473984 
L 121.596808 103.34236 
L 122.766941 98.001178 
L 125.144951 93.197493 
L 126.315084 84.68082 
L 127.522962 81.880041 
L 128.730841 79.869935 
L 129.900973 77.450274 
L 131.108851 77.331963 
L 132.278984 77.675985 
L 133.449116 77.677987 
L 134.656995 79.270816 
L 135.864873 80.388208 
L 137.072751 81.853689 
L 138.28063 81.294891 
L 139.488508 80.973861 
L 140.658641 81.912976 
L 141.828773 81.515051 
L 142.998905 80.538462 
L 144.206784 81.071232 
L 145.376916 82.873559 
L 146.547048 83.179817 
L 147.754927 82.173531 
L 148.962805 82.752595 
L 150.132938 82.996072 
L 152.510948 84.34632 
L 153.681081 84.795942 
L 154.888959 83.457842 
L 156.059091 85.967918 
L 157.191477 82.900039 
L 158.323863 80.810077 
L 160.664128 79.544005 
L 161.872006 80.870783 
L 163.042139 81.85252 
L 164.174525 82.604868 
L 165.382403 82.688479 
L 166.552536 80.465638 
L 167.722668 79.966217 
L 168.8928 77.250974 
L 170.025186 77.549807 
L 171.270811 77.521997 
L 172.478689 77.196711 
L 173.648822 78.560022 
L 174.818954 78.772855 
L 176.026832 79.496181 
L 177.196965 79.964063 
L 178.404843 81.771151 
L 179.537229 81.840102 
L 180.745108 83.779008 
L 181.877494 83.168968 
L 183.085372 81.366469 
L 184.180012 80.962029 
L 185.387891 78.695643 
L 186.520277 74.913651 
L 187.728155 73.691687 
L 188.97378 73.533717 
L 190.106166 71.551557 
L 191.276298 68.840307 
L 192.521923 69.283431 
L 193.692055 68.479683 
L 194.899934 69.495432 
L 196.070066 69.998183 
L 197.240198 70.208923 
L 198.372584 70.295246 
L 199.618209 70.733844 
L 200.788341 69.666833 
L 201.99622 66.870669 
L 204.298738 65.674424 
L 205.46887 65.646162 
L 206.676749 66.539669 
L 207.809135 68.046435 
L 208.979267 69.132996 
L 210.187146 71.140434 
L 211.357278 71.989901 
L 212.565156 73.953001 
L 213.697542 71.63722 
L 214.867675 71.812037 
L 217.245685 66.665845 
L 218.415818 65.29598 
L 219.623696 65.547809 
L 220.793828 65.046389 
L 223.171839 67.130483 
L 224.379718 69.876233 
L 225.54985 70.358869 
L 226.757728 73.378057 
L 227.890115 74.307312 
L 229.060247 74.396907 
L 230.268125 76.472954 
L 231.438258 79.22913 
L 232.60839 78.458347 
L 233.778522 77.536094 
L 234.910908 77.341563 
L 236.118787 78.013242 
L 237.326665 77.374001 
L 238.496797 75.518134 
L 239.591437 74.576198 
L 240.723823 75.222195 
L 243.13958 77.525189 
L 245.479845 79.236602 
L 246.687723 80.401855 
L 247.857856 79.555838 
L 248.990242 79.672 
L 250.160374 78.640112 
L 251.405999 78.262356 
L 253.670771 78.90376 
L 256.048782 82.794801 
L 257.218914 84.089888 
L 258.389046 83.598552 
L 259.559178 81.825652 
L 260.767057 82.480437 
L 263.107321 77.492436 
L 264.277454 76.277121 
L 265.447586 75.642315 
L 266.655464 77.430529 
L 267.750104 78.00308 
L 268.995729 80.492046 
L 270.165861 82.297581 
L 271.37374 82.233522 
L 272.581618 81.525234 
L 273.714004 79.532097 
L 274.84639 78.917247 
L 276.092015 80.08489 
L 277.224401 81.821436 
L 278.394533 83.999762 
L 279.564666 84.625146 
L 280.772544 85.496039 
L 281.980423 83.795504 
L 283.150555 83.980117 
L 284.320687 85.163687 
L 285.453073 83.460693 
L 286.623206 77.766285 
L 287.793338 74.740161 
L 289.038963 73.533471 
L 290.133602 72.831814 
L 291.341481 71.468206 
L 292.473867 70.66767 
L 293.681745 70.103673 
L 294.889624 73.005834 
L 296.02201 75.293398 
L 297.192142 74.625576 
L 298.362275 73.204513 
L 299.570153 72.675318 
L 300.778031 72.541023 
L 301.834925 72.266675 
L 303.08055 71.701513 
L 304.212936 70.09385 
L 305.458561 69.197706 
L 306.741931 69.424474 
L 307.94981 70.142351 
L 309.082196 69.721674 
L 310.290074 70.000574 
L 311.422461 69.07833 
L 312.630339 67.479826 
L 313.838218 67.247367 
L 315.00835 68.188939 
L 316.140736 67.44325 
L 317.310868 67.245587 
L 318.481 68.063426 
L 319.651133 69.093464 
L 322.029143 69.819874 
L 323.199276 69.538488 
L 325.501794 70.072043 
L 326.747419 70.833382 
L 327.879805 70.493622 
L 329.049937 69.683051 
L 330.220069 69.206848 
L 331.390202 69.051112 
L 333.730466 69.596596 
L 334.938345 70.062419 
L 336.108477 70.845918 
L 337.278609 70.104112 
L 338.410995 70.705502 
L 339.618874 70.63263 
L 340.826752 70.937481 
L 341.959138 71.783359 
L 343.167017 72.086728 
L 344.337149 72.683969 
L 345.469535 73.857746 
L 349.017678 71.262468 
L 350.150064 71.376815 
L 351.320197 70.57086 
L 352.603567 69.978614 
L 353.698207 69.725118 
L 354.906086 67.832236 
L 356.038472 67.934625 
L 357.208604 68.530783 
L 358.454229 67.035278 
L 359.624361 66.948789 
L 360.719001 66.569899 
L 361.889133 66.510458 
L 363.059266 67.345737 
L 364.30489 66.883698 
L 365.437276 68.063794 
L 366.607409 67.542161 
L 367.853033 68.175542 
L 368.985419 68.347908 
L 370.155552 67.768286 
L 371.287938 66.950738 
L 372.533562 65.743264 
L 373.628202 65.188578 
L 374.760588 66.379482 
L 377.100853 65.739418 
L 378.346477 64.512519 
L 379.441117 64.144998 
L 380.913219 64.28518 
L 382.309829 64.994604 
L 383.5932 65.143944 
L 384.763332 66.282406 
L 386.008957 66.665817 
L 387.103596 68.255842 
L 388.349221 69.157601 
L 389.519353 68.398158 
L 390.613993 68.184544 
L 391.821872 69.268787 
L 393.02975 70.664743 
L 394.12439 70.96737 
L 395.294522 72.207399 
L 396.502401 70.92051 
L 397.710279 69.398285 
L 398.99365 68.555139 
L 399.975052 67.767966 
L 401.220676 67.589936 
L 402.428555 67.998207 
L 404.731073 71.687617 
L 405.825713 71.975495 
L 408.165977 71.842112 
L 409.411602 71.654045 
L 410.506242 71.859033 
L 411.827359 71.873185 
L 412.884253 71.402803 
L 414.054385 71.042063 
L 415.337756 71.499237 
L 416.39465 72.542042 
L 417.640274 70.956844 
L 418.734914 70.187181 
L 420.018285 71.525553 
L 421.377148 71.776459 
L 422.396296 74.617099 
L 423.453189 76.863505 
L 424.698814 75.637149 
L 425.906693 75.453711 
L 426.963586 78.540063 
L 430.587222 76.994901 
L 431.681862 76.035827 
L 432.927486 76.683446 
L 434.059872 77.410814 
L 435.041274 78.821704 
L 436.475629 78.432765 
L 437.608015 77.402163 
L 438.740401 78.566876 
L 439.94828 77.06309 
L 442.175306 77.305526 
L 443.458677 77.175717 
L 444.628809 77.739695 
L 445.798941 76.945256 
L 446.931327 78.503031 
L 448.139206 80.908763 
L 450.403978 77.502386 
L 451.762841 77.371819 
L 452.819735 77.443607 
L 454.06536 77.802743 
L 455.084507 77.157561 
L 456.594355 76.453107 
L 457.915472 76.498348 
L 459.085605 78.350604 
L 460.444468 81.640689 
L 461.690092 82.200021 
L 463.01121 84.298313 
L 464.030357 86.535664 
L 465.124997 86.568677 
L 466.370622 85.759878 
L 467.465261 84.654716 
L 468.597648 83.039479 
L 469.730034 81.106926 
L 471.013405 81.213332 
L 472.221283 81.783678 
L 473.391415 82.070964 
L 474.523801 80.923328 
L 475.580695 78.511863 
L 476.864066 77.894314 
L 478.034198 79.266115 
L 479.166584 80.333066 
L 480.487701 82.496542 
L 481.733326 84.104077 
L 482.827966 89.238128 
L 484.035844 90.207664 
L 486.074139 82.92052 
L 487.395256 82.53922 
L 488.640881 83.340732 
L 490.943399 85.714596 
L 492.000293 86.411544 
L 493.170425 86.052609 
L 493.170425 86.052609 
" clip-path="url(#p931f6f114c)" style="fill: none; stroke: #ff7f0e; stroke-width: 2.5; stroke-linecap: square"/>
   </g>
   <g id="line2d_101">
    <path d="M 59.089097 89.719517 
L 59.089097 291.205218 
L 59.013605 291.205218 
L 58.975859 291.205218 
L 59.391067 291.205218 
L 60.334722 118.980961 
L 61.957809 122.878288 
L 64.184835 109.44557 
L 66.449607 115.086367 
L 68.450155 110.312475 
L 70.148735 113.962001 
L 71.507598 125.712412 
L 72.715476 291.205218 
L 79.4343 291.205218 
L 80.642179 118.57258 
L 81.812311 101.008542 
L 83.057936 95.76641 
L 84.190322 96.571312 
L 85.360454 99.390043 
L 86.643825 133.582334 
L 87.88945 104.485417 
L 89.210567 111.089239 
L 90.456191 133.152185 
L 91.701816 291.205218 
L 92.909695 107.560138 
L 94.079827 103.374885 
L 95.287705 97.379736 
L 96.420091 93.872955 
L 97.62797 93.168807 
L 98.798102 97.010291 
L 100.043727 98.63284 
L 101.213859 108.419049 
L 102.383991 291.205218 
L 107.064521 291.205218 
L 108.310145 146.160806 
L 109.480277 104.230094 
L 110.688156 94.274331 
L 113.103913 84.951998 
L 114.274045 84.142892 
L 115.444177 84.334733 
L 116.576564 85.02465 
L 117.784442 88.876832 
L 118.916828 88.699739 
L 120.08696 89.809805 
L 121.294839 91.343259 
L 122.464971 97.605276 
L 124.805236 88.367047 
L 126.013114 82.68236 
L 127.107754 81.154127 
L 128.277886 79.768801 
L 129.523511 79.065993 
L 130.655897 78.017835 
L 131.863776 79.603265 
L 133.071654 82.599527 
L 134.241786 87.404226 
L 135.449665 89.06163 
L 137.865422 91.129756 
L 139.111046 92.774211 
L 140.281179 97.020009 
L 141.489057 92.530336 
L 142.659189 91.343667 
L 143.829322 95.141567 
L 145.0372 100.657859 
L 146.207332 98.985537 
L 147.377465 100.688391 
L 148.509851 103.497817 
L 149.679983 99.089117 
L 150.850115 94.128213 
L 152.057994 94.819596 
L 153.228126 89.990956 
L 154.436005 89.371416 
L 155.606137 92.261311 
L 156.738523 93.801351 
L 157.946401 88.973205 
L 159.116534 88.819549 
L 160.286666 88.813486 
L 161.494544 85.984788 
L 162.626931 84.011622 
L 163.797063 85.699708 
L 165.004941 85.255142 
L 166.175074 83.886777 
L 167.345206 84.093079 
L 168.515338 81.928336 
L 169.723217 79.166876 
L 170.893349 79.470526 
L 172.063481 81.799724 
L 173.233613 83.327031 
L 174.479238 84.094762 
L 176.857249 84.00774 
L 178.027381 84.905934 
L 179.197513 82.302605 
L 180.367646 78.640734 
L 182.670164 79.567465 
L 183.840296 80.443099 
L 185.010429 81.720329 
L 186.180561 79.435454 
L 187.350693 76.723214 
L 188.483079 77.706741 
L 189.728704 75.695293 
L 192.106715 73.80361 
L 193.276847 74.929452 
L 194.446979 74.400451 
L 195.654858 74.551945 
L 196.82499 75.327324 
L 198.032868 74.136101 
L 199.203001 75.572822 
L 200.335387 75.856225 
L 201.543265 72.896001 
L 202.713398 72.742778 
L 203.921276 71.353095 
L 205.091408 71.120663 
L 206.299287 69.978492 
L 207.469419 70.587287 
L 208.601805 71.402976 
L 209.809684 73.232143 
L 210.979816 75.695734 
L 212.149948 77.275123 
L 213.282334 75.660015 
L 214.452466 74.788514 
L 215.660345 73.545505 
L 216.792731 73.375881 
L 217.962863 70.558936 
L 219.208488 69.99356 
L 220.340874 70.040052 
L 221.511006 71.070433 
L 222.681139 71.510927 
L 223.889017 74.088844 
L 226.267028 76.733438 
L 227.43716 79.54486 
L 228.607292 82.793302 
L 229.815171 80.950342 
L 230.947557 79.672743 
L 232.117689 79.682259 
L 233.363314 81.351792 
L 234.4957 80.366437 
L 235.703578 82.187809 
L 236.873711 82.266254 
L 238.043843 82.009926 
L 240.346361 83.671237 
L 241.516494 83.251971 
L 242.762118 83.834947 
L 243.894504 84.49455 
L 245.064637 90.391266 
L 246.234769 90.450264 
L 247.442647 92.04562 
L 248.575033 89.000349 
L 249.782912 87.494686 
L 250.953044 83.138501 
L 252.123177 81.226195 
L 253.293309 79.725659 
L 255.709066 79.743411 
L 256.879198 80.137738 
L 258.04933 81.085184 
L 259.181716 83.717197 
L 260.351849 83.366674 
L 261.559727 84.191095 
L 262.692113 81.472744 
L 263.899992 81.180845 
L 265.032378 81.024071 
L 267.410389 82.172041 
L 268.542775 82.46356 
L 269.712907 85.262611 
L 270.920785 87.092368 
L 272.053171 85.289767 
L 273.336542 88.710793 
L 274.468928 83.788266 
L 275.601314 82.173923 
L 276.733701 81.16098 
L 277.979325 78.395351 
L 279.111711 77.877472 
L 280.31959 77.819522 
L 281.527468 79.799493 
L 282.659854 78.080897 
L 284.962373 76.588584 
L 286.170251 72.831179 
L 287.415876 71.739885 
L 289.718394 71.111362 
L 290.926273 72.311965 
L 292.134151 74.750328 
L 293.266537 77.729505 
L 294.474416 77.629518 
L 295.606802 76.718687 
L 297.984812 69.335591 
L 299.117199 67.932009 
L 300.325077 66.95005 
L 301.532956 65.624301 
L 302.665342 65.3505 
L 305.043352 66.150959 
L 307.496856 64.663058 
L 308.74248 63.820587 
L 309.912612 64.112975 
L 311.082745 65.033622 
L 312.290623 65.572428 
L 313.498502 65.69057 
L 314.593142 66.42435 
L 316.933406 67.680808 
L 318.028046 66.901354 
L 319.273671 67.23705 
L 320.481549 68.143923 
L 321.651681 67.678038 
L 322.746321 68.212129 
L 323.991946 68.624374 
L 325.124332 68.589288 
L 326.294464 67.920567 
L 327.464597 67.989028 
L 328.634729 67.241032 
L 329.842607 67.757465 
L 331.01274 68.422438 
L 332.145126 68.543141 
L 333.353004 67.293156 
L 334.48539 67.375791 
L 335.655523 68.310294 
L 336.787909 68.274957 
L 338.109026 67.749932 
L 339.279158 67.750058 
L 340.373798 67.44546 
L 341.506184 67.848549 
L 342.789555 68.540749 
L 343.884195 67.847466 
L 345.016581 68.158774 
L 346.224459 67.859698 
L 347.394591 68.189388 
L 348.640216 67.866431 
L 349.772602 67.864815 
L 350.904988 67.257679 
L 352.188359 67.018053 
L 353.282999 66.466686 
L 354.453131 67.292907 
L 355.66101 66.908242 
L 356.831142 67.876851 
L 357.963528 67.584973 
L 359.13366 67.449646 
L 360.303793 66.814899 
L 361.473925 66.726657 
L 362.644057 65.16327 
L 363.81419 64.986231 
L 365.022068 64.456404 
L 366.154454 64.185129 
L 367.362333 63.768547 
L 368.570211 65.152581 
L 370.834983 65.083781 
L 372.005115 65.247945 
L 373.212994 66.286947 
L 374.383126 66.529801 
L 375.553259 67.457547 
L 376.685645 66.824108 
L 377.931269 66.474652 
L 379.101402 66.897265 
L 380.422519 68.395127 
L 381.743636 68.914812 
L 383.064753 68.781384 
L 384.310377 70.846886 
L 385.442764 69.455523 
L 386.763881 68.187404 
L 387.896267 67.471658 
L 389.066399 67.361951 
L 390.236531 67.04874 
L 391.406664 67.452064 
L 392.463557 68.436348 
L 393.784674 69.819479 
L 394.91706 71.251103 
L 396.0117 73.978074 
L 398.389711 71.522698 
L 399.597589 71.859293 
L 400.767722 73.408082 
L 401.900108 72.628016 
L 403.07024 70.153552 
L 404.315865 68.335287 
L 405.485997 67.419764 
L 406.580637 68.180052 
L 407.788515 69.363366 
L 409.03414 69.454286 
L 410.053288 70.45786 
L 411.336658 72.38835 
L 412.544537 75.179466 
L 414.960294 77.487997 
L 416.017188 77.813281 
L 417.225066 77.003899 
L 418.395198 76.540672 
L 419.527584 74.803722 
L 420.735463 71.684176 
L 421.867849 71.563414 
L 423.037981 70.607822 
L 424.24586 71.342617 
L 425.642469 73.021105 
L 426.812601 77.841509 
L 427.831749 81.47262 
L 429.039627 80.040657 
L 430.134267 80.199648 
L 431.191161 79.31404 
L 432.436786 77.49335 
L 433.720156 75.103736 
L 434.814796 73.571378 
L 436.022675 73.914806 
L 438.438432 76.042432 
L 439.608564 77.629659 
L 440.703204 78.005086 
L 441.797844 80.463046 
L 443.043468 84.105193 
L 444.251347 83.750956 
L 445.270494 81.046609 
L 447.648505 85.598048 
L 448.89413 84.728268 
L 450.102008 81.563937 
L 452.442273 85.674638 
L 453.499167 87.67173 
L 454.669299 87.927329 
L 456.065908 86.276761 
L 457.500264 85.827785 
L 458.745889 84.814029 
L 460.02926 81.393931 
L 461.086153 77.855328 
L 462.558255 75.04257 
L 463.766134 76.21948 
L 464.558804 77.942454 
L 465.69119 78.146863 
L 466.974561 77.600784 
L 468.220186 80.827312 
L 469.390318 82.813875 
L 470.56045 83.575755 
L 471.768329 82.898365 
L 472.976207 83.273913 
L 474.070847 83.476308 
L 475.240979 85.45892 
L 476.448858 86.070856 
L 477.656736 86.466086 
L 478.71363 88.569439 
L 480.072493 87.196305 
L 481.167133 85.728984 
L 482.412758 81.219457 
L 483.58289 80.913309 
L 484.715276 81.072832 
L 485.923154 82.321905 
L 487.055541 84.400282 
L 488.225673 84.125627 
L 489.433551 87.618918 
L 490.490445 88.808584 
L 491.698323 85.293891 
L 492.943948 78.376551 
L 493.774365 70.74028 
L 493.774365 70.74028 
" clip-path="url(#p931f6f114c)" style="fill: none; stroke: #9467bd; stroke-width: 2.5; stroke-linecap: square"/>
   </g>
   <g id="line2d_102">
    <path d="M 60.108245 291.205218 
L 60.032752 113.935415 
L 60.032752 291.205218 
L 59.95726 291.205218 
L 69.733526 291.205218 
L 71.318867 119.809619 
L 72.67773 110.34165 
L 73.847862 103.822008 
L 74.942502 114.736616 
L 75.999396 122.193868 
L 78.264168 124.750669 
L 80.566686 101.383062 
L 81.774565 99.733609 
L 82.944697 98.730267 
L 84.190322 101.031205 
L 85.3982 102.118184 
L 86.681571 109.055117 
L 87.964942 121.192537 
L 89.286059 291.205218 
L 90.531684 291.205218 
L 91.777309 173.206872 
L 92.947441 125.756609 
L 94.155319 130.921529 
L 95.287705 139.235236 
L 96.457838 291.205218 
L 107.102267 291.205218 
L 108.272399 115.83376 
L 109.442531 110.778101 
L 110.612664 109.75848 
L 111.782796 102.275935 
L 112.990674 99.737249 
L 114.160807 100.43461 
L 115.330939 99.258199 
L 116.501071 101.782665 
L 117.671203 103.214634 
L 118.879082 98.135595 
L 120.08696 96.552663 
L 122.389479 122.456405 
L 123.559611 107.859511 
L 124.729743 99.8271 
L 125.937622 102.478333 
L 127.070008 102.901062 
L 128.24014 93.479821 
L 129.410272 93.944686 
L 130.618151 89.940185 
L 131.826029 91.526802 
L 133.033908 95.446281 
L 134.20404 89.411132 
L 135.449665 86.628959 
L 136.657543 88.768828 
L 137.865422 88.250284 
L 139.035554 86.897623 
L 140.205686 84.175013 
L 141.375819 91.538489 
L 142.508205 90.763768 
L 143.753829 93.340092 
L 144.961708 91.689705 
L 146.13184 90.439328 
L 147.339719 94.031294 
L 148.509851 91.996079 
L 149.717729 88.911754 
L 150.925608 85.359595 
L 152.057994 83.276009 
L 154.436005 85.748494 
L 155.568391 83.253899 
L 156.776269 82.338858 
L 157.984148 84.887991 
L 159.15428 86.373306 
L 160.324412 87.124034 
L 161.456798 93.001693 
L 162.664677 96.075726 
L 163.834809 88.316546 
L 164.967195 84.569118 
L 166.137327 82.495932 
L 167.382952 81.135724 
L 168.553084 81.47959 
L 169.68547 81.960757 
L 170.855603 84.657734 
L 172.063481 88.481876 
L 173.233613 102.598233 
L 174.441492 96.897362 
L 175.573878 85.595968 
L 176.706264 84.452134 
L 177.914143 85.840868 
L 179.122021 83.001788 
L 180.292153 81.31624 
L 181.462286 76.538058 
L 182.594672 75.230184 
L 183.80255 75.064346 
L 184.972682 74.070726 
L 186.142815 71.383607 
L 187.350693 71.872342 
L 188.520825 73.260426 
L 189.653211 75.078552 
L 190.823344 72.723729 
L 192.031222 73.961784 
L 193.276847 71.853355 
L 194.446979 71.554808 
L 195.73035 72.291384 
L 198.032868 69.289803 
L 199.240747 69.285506 
L 200.410879 67.697634 
L 201.618758 68.063414 
L 202.751144 67.727344 
L 203.88353 67.992675 
L 205.053662 68.117838 
L 206.299287 70.090599 
L 207.431673 73.391922 
L 208.601805 75.915383 
L 209.809684 75.812838 
L 210.94207 75.923221 
L 212.149948 73.625637 
L 213.32008 72.450856 
L 215.698091 69.386786 
L 216.830477 69.334245 
L 218.038356 71.770151 
L 219.208488 73.389525 
L 220.340874 73.594641 
L 221.548753 73.56798 
L 222.718885 74.315758 
L 223.926763 73.191333 
L 225.059149 73.99426 
L 226.267028 74.39894 
L 227.43716 75.793204 
L 228.645039 76.423753 
L 229.777425 78.955174 
L 232.155435 76.381953 
L 233.287822 77.100686 
L 234.4957 77.26577 
L 235.665832 77.929722 
L 236.835965 81.329261 
L 238.043843 82.63078 
L 239.213975 86.747305 
L 240.384108 85.179885 
L 241.516494 85.368377 
L 242.724372 87.48714 
L 243.894504 87.416854 
L 245.064637 86.76046 
L 246.234769 84.726556 
L 247.404901 85.264981 
L 248.61278 84.709697 
L 249.782912 87.276978 
L 250.953044 86.286516 
L 252.123177 89.685088 
L 253.293309 96.56795 
L 254.425695 94.014066 
L 255.633573 89.254217 
L 256.803706 86.300681 
L 257.973838 83.911334 
L 259.14397 82.130537 
L 260.314102 80.588225 
L 261.484235 82.760668 
L 262.616621 83.524869 
L 263.862245 91.903219 
L 265.032378 92.253777 
L 266.240256 86.475685 
L 267.334896 86.534393 
L 268.505028 89.116364 
L 269.712907 94.319682 
L 270.883039 92.411889 
L 272.053171 87.670252 
L 273.223304 89.664932 
L 274.35569 87.508172 
L 275.601314 86.694358 
L 276.771447 85.108315 
L 277.979325 82.824266 
L 279.111711 85.056453 
L 280.244097 88.041874 
L 281.451976 93.074805 
L 283.79224 84.748782 
L 285.037865 88.152465 
L 286.207997 83.801157 
L 287.340383 81.999011 
L 288.472769 79.53452 
L 289.680648 77.92442 
L 290.813034 80.313753 
L 291.94542 79.807855 
L 293.077806 79.593571 
L 294.361177 77.62705 
L 295.493563 80.763129 
L 296.701442 80.304432 
L 297.833828 76.493403 
L 299.041706 76.787443 
L 300.249585 74.76498 
L 301.419717 76.078813 
L 305.005606 76.619239 
L 306.251231 76.068742 
L 307.496856 76.10817 
L 308.704734 73.548746 
L 309.83712 70.072913 
L 310.856268 69.661454 
L 312.101892 67.520351 
L 313.234278 68.832689 
L 314.479903 68.360867 
L 315.650035 69.804426 
L 316.857914 72.011339 
L 318.028046 74.849618 
L 320.406057 81.45753 
L 321.613935 78.972662 
L 322.746321 81.076159 
L 323.9542 78.823265 
L 325.086586 78.948697 
L 326.256718 78.490413 
L 327.464597 76.696438 
L 328.672475 76.613436 
L 329.842607 76.180308 
L 331.01274 75.468197 
L 332.182872 75.384673 
L 333.277512 76.297627 
L 334.560883 76.128687 
L 335.655523 74.703436 
L 336.825655 74.577334 
L 337.995787 74.175499 
L 339.165919 72.986505 
L 340.373798 73.968498 
L 341.619423 73.212229 
L 342.714062 73.60364 
L 343.846448 75.917923 
L 345.167566 77.808951 
L 346.262205 75.385281 
L 347.50783 74.529163 
L 348.640216 73.275096 
L 349.69711 71.523012 
L 350.980481 70.339326 
L 352.075121 69.541541 
L 353.282999 69.096402 
L 354.453131 70.256548 
L 355.585517 70.982088 
L 356.831142 71.208284 
L 358.001274 69.307397 
L 359.095914 69.856565 
L 360.303793 70.835597 
L 361.473925 72.210403 
L 362.644057 71.929123 
L 363.81419 71.819987 
L 365.059814 73.384855 
L 366.1922 75.974992 
L 368.532465 70.161241 
L 369.740343 69.801083 
L 372.005115 72.11109 
L 373.212994 73.521329 
L 374.420872 75.883542 
L 376.723391 74.43471 
L 378.006762 73.225443 
L 379.063655 70.053053 
L 380.498011 69.989821 
L 381.781382 71.753309 
L 383.102499 72.177719 
L 384.272631 72.018223 
L 385.442764 73.738455 
L 386.726134 76.929188 
L 389.066399 75.429503 
L 390.198785 76.089556 
L 391.368917 77.589744 
L 392.53905 78.578787 
L 393.746928 78.773982 
L 396.049446 77.467438 
L 397.219579 78.233989 
L 398.50295 76.878272 
L 399.635336 75.281671 
L 400.805468 74.383447 
L 401.937854 74.837276 
L 403.107986 73.382397 
L 404.315865 72.088895 
L 406.693876 75.68482 
L 407.788515 76.262946 
L 409.071886 76.635197 
L 411.336658 79.299651 
L 412.544537 82.842737 
L 413.714669 84.469962 
L 414.884801 80.058085 
L 417.262812 76.517871 
L 418.357452 75.97397 
L 419.678569 73.949549 
L 420.65997 74.689002 
L 421.905595 74.483236 
L 423.188966 76.058384 
L 424.24586 78.418296 
L 425.453738 78.39337 
L 426.888094 77.906182 
L 427.944988 76.498371 
L 429.077374 76.494045 
L 431.266653 81.489997 
L 433.720156 82.484698 
L 434.852543 82.349929 
L 435.909436 80.440206 
L 437.079569 78.035808 
L 438.325193 78.089795 
L 439.495325 76.580392 
L 440.74095 80.200475 
L 441.83559 81.442686 
L 443.005722 84.129436 
L 444.251347 82.590109 
L 445.459225 84.207304 
L 446.553865 82.106196 
L 447.686251 83.874141 
L 448.856384 81.878248 
L 450.064262 82.999013 
L 451.196648 87.380777 
L 452.404527 101.201678 
L 453.612405 93.675432 
L 454.669299 92.977407 
L 456.065908 88.101622 
L 457.500264 89.072071 
L 458.670396 88.43222 
L 459.953767 86.427133 
L 461.123899 82.548521 
L 462.294032 82.20775 
L 463.539656 86.012036 
L 464.89852 86.093745 
L 465.842175 81.495075 
L 466.936815 79.710463 
L 468.031455 80.705423 
L 469.314825 85.270799 
L 470.484958 86.65036 
L 471.692836 87.04125 
L 472.938461 89.593301 
L 474.070847 88.674763 
L 475.203233 90.105082 
L 476.335619 87.465532 
L 477.656736 83.207994 
L 478.751376 80.49157 
L 479.921508 82.159665 
L 481.129387 84.809336 
L 482.337265 83.675124 
L 483.356413 83.775152 
L 485.998647 79.612823 
L 487.206525 80.229495 
L 488.112434 81.112887 
L 489.207074 82.685284 
L 490.603684 85.885272 
L 491.811562 92.541002 
L 492.717471 116.388896 
L 493.887603 291.205218 
L 493.887603 291.205218 
" clip-path="url(#p931f6f114c)" style="fill: none; stroke: #2ca02c; stroke-width: 2.5; stroke-linecap: square"/>
   </g>
   <g id="patch_3">
    <path d="M 60.598945 303.182656 
L 60.598945 39.679004 
" style="fill: none; stroke: #000000; stroke-width: 1.5; stroke-linejoin: miter; stroke-linecap: square"/>
   </g>
   <g id="patch_4">
    <path d="M 60.598945 303.182656 
L 494.680273 303.182656 
" style="fill: none; stroke: #000000; stroke-width: 1.5; stroke-linejoin: miter; stroke-linecap: square"/>
   </g>
   <g id="text_17">
    <!-- 1421_wo_HF -->
    <g transform="translate(236.004922 18.441699) scale(0.14 -0.14)">
     <defs>
      <path id="ArialMT-42" d="M -97 -1272 
L -97 -866 
L 3631 -866 
L 3631 -1272 
L -97 -1272 
z
" transform="scale(0.015625)"/>
      <path id="ArialMT-5a" d="M 1034 0 
L 19 3319 
L 600 3319 
L 1128 1403 
L 1325 691 
Q 1338 744 1497 1375 
L 2025 3319 
L 2603 3319 
L 3100 1394 
L 3266 759 
L 3456 1400 
L 4025 3319 
L 4572 3319 
L 3534 0 
L 2950 0 
L 2422 1988 
L 2294 2553 
L 1622 0 
L 1034 0 
z
" transform="scale(0.015625)"/>
      <path id="ArialMT-2b" d="M 513 0 
L 513 4581 
L 1119 4581 
L 1119 2700 
L 3500 2700 
L 3500 4581 
L 4106 4581 
L 4106 0 
L 3500 0 
L 3500 2159 
L 1119 2159 
L 1119 0 
L 513 0 
z
" transform="scale(0.015625)"/>
      <path id="ArialMT-29" d="M 525 0 
L 525 4581 
L 3616 4581 
L 3616 4041 
L 1131 4041 
L 1131 2622 
L 3281 2622 
L 3281 2081 
L 1131 2081 
L 1131 0 
L 525 0 
z
" transform="scale(0.015625)"/>
     </defs>
     <use xlink:href="#ArialMT-14"/>
     <use xlink:href="#ArialMT-17" transform="translate(55.609375 0)"/>
     <use xlink:href="#ArialMT-15" transform="translate(111.21875 0)"/>
     <use xlink:href="#ArialMT-14" transform="translate(166.828125 0)"/>
     <use xlink:href="#ArialMT-42" transform="translate(222.4375 0)"/>
     <use xlink:href="#ArialMT-5a" transform="translate(278.046875 0)"/>
     <use xlink:href="#ArialMT-52" transform="translate(350.265625 0)"/>
     <use xlink:href="#ArialMT-42" transform="translate(405.875 0)"/>
     <use xlink:href="#ArialMT-2b" transform="translate(461.484375 0)"/>
     <use xlink:href="#ArialMT-29" transform="translate(533.703125 0)"/>
    </g>
    <!-- m/z 60 -->
    <g transform="translate(256.634141 33.679004) scale(0.14 -0.14)">
     <use xlink:href="#ArialMT-50"/>
     <use xlink:href="#ArialMT-12" transform="translate(83.296875 0)"/>
     <use xlink:href="#ArialMT-5d" transform="translate(111.078125 0)"/>
     <use xlink:href="#ArialMT-3" transform="translate(161.078125 0)"/>
     <use xlink:href="#ArialMT-19" transform="translate(188.859375 0)"/>
     <use xlink:href="#ArialMT-13" transform="translate(244.46875 0)"/>
    </g>
   </g>
   <g id="legend_1">
    <g id="line2d_103">
     <path d="M 512.3619 52.459277 
L 522.3619 52.459277 
L 532.3619 52.459277 
" style="fill: none; stroke: #000000; stroke-width: 2.5; stroke-linecap: square"/>
    </g>
    <g id="text_18">
     <!-- 0 h -->
     <g transform="translate(540.3619 55.959277) scale(0.1 -0.1)">
      <defs>
       <path id="ArialMT-4b" d="M 422 0 
L 422 4581 
L 984 4581 
L 984 2938 
Q 1378 3394 1978 3394 
Q 2347 3394 2619 3248 
Q 2891 3103 3008 2847 
Q 3125 2591 3125 2103 
L 3125 0 
L 2563 0 
L 2563 2103 
Q 2563 2525 2380 2717 
Q 2197 2909 1863 2909 
Q 1613 2909 1392 2779 
Q 1172 2650 1078 2428 
Q 984 2206 984 1816 
L 984 0 
L 422 0 
z
" transform="scale(0.015625)"/>
      </defs>
      <use xlink:href="#ArialMT-13"/>
      <use xlink:href="#ArialMT-3" transform="translate(55.609375 0)"/>
      <use xlink:href="#ArialMT-4b" transform="translate(83.390625 0)"/>
     </g>
    </g>
    <g id="line2d_104">
     <path d="M 512.3619 66.844043 
L 522.3619 66.844043 
L 532.3619 66.844043 
" style="fill: none; stroke: #1f77b4; stroke-width: 2.5; stroke-linecap: square"/>
    </g>
    <g id="text_19">
     <!-- 6 h -->
     <g transform="translate(540.3619 70.344043) scale(0.1 -0.1)">
      <use xlink:href="#ArialMT-19"/>
      <use xlink:href="#ArialMT-3" transform="translate(55.609375 0)"/>
      <use xlink:href="#ArialMT-4b" transform="translate(83.390625 0)"/>
     </g>
    </g>
    <g id="line2d_105">
     <path d="M 512.3619 81.228809 
L 522.3619 81.228809 
L 532.3619 81.228809 
" style="fill: none; stroke: #d62728; stroke-width: 2.5; stroke-linecap: square"/>
    </g>
    <g id="text_20">
     <!-- 24 h -->
     <g transform="translate(540.3619 84.728809) scale(0.1 -0.1)">
      <use xlink:href="#ArialMT-15"/>
      <use xlink:href="#ArialMT-17" transform="translate(55.609375 0)"/>
      <use xlink:href="#ArialMT-3" transform="translate(111.21875 0)"/>
      <use xlink:href="#ArialMT-4b" transform="translate(139 0)"/>
     </g>
    </g>
    <g id="line2d_106">
     <path d="M 512.3619 95.613574 
L 522.3619 95.613574 
L 532.3619 95.613574 
" style="fill: none; stroke: #ff7f0e; stroke-width: 2.5; stroke-linecap: square"/>
    </g>
    <g id="text_21">
     <!-- 7 d -->
     <g transform="translate(540.3619 99.113574) scale(0.1 -0.1)">
      <defs>
       <path id="ArialMT-47" d="M 2575 0 
L 2575 419 
Q 2259 -75 1647 -75 
Q 1250 -75 917 144 
Q 584 363 401 755 
Q 219 1147 219 1656 
Q 219 2153 384 2558 
Q 550 2963 881 3178 
Q 1213 3394 1622 3394 
Q 1922 3394 2156 3267 
Q 2391 3141 2538 2938 
L 2538 4581 
L 3097 4581 
L 3097 0 
L 2575 0 
z
M 797 1656 
Q 797 1019 1065 703 
Q 1334 388 1700 388 
Q 2069 388 2326 689 
Q 2584 991 2584 1609 
Q 2584 2291 2321 2609 
Q 2059 2928 1675 2928 
Q 1300 2928 1048 2622 
Q 797 2316 797 1656 
z
" transform="scale(0.015625)"/>
      </defs>
      <use xlink:href="#ArialMT-1a"/>
      <use xlink:href="#ArialMT-3" transform="translate(55.609375 0)"/>
      <use xlink:href="#ArialMT-47" transform="translate(83.390625 0)"/>
     </g>
    </g>
    <g id="line2d_107">
     <path d="M 512.3619 109.99834 
L 522.3619 109.99834 
L 532.3619 109.99834 
" style="fill: none; stroke: #9467bd; stroke-width: 2.5; stroke-linecap: square"/>
    </g>
    <g id="text_22">
     <!-- 14 d -->
     <g transform="translate(540.3619 113.49834) scale(0.1 -0.1)">
      <use xlink:href="#ArialMT-14"/>
      <use xlink:href="#ArialMT-17" transform="translate(55.609375 0)"/>
      <use xlink:href="#ArialMT-3" transform="translate(111.21875 0)"/>
      <use xlink:href="#ArialMT-47" transform="translate(139 0)"/>
     </g>
    </g>
    <g id="line2d_108">
     <path d="M 512.3619 124.383105 
L 522.3619 124.383105 
L 532.3619 124.383105 
" style="fill: none; stroke: #2ca02c; stroke-width: 2.5; stroke-linecap: square"/>
    </g>
    <g id="text_23">
     <!-- 28 d -->
     <g transform="translate(540.3619 127.883105) scale(0.1 -0.1)">
      <use xlink:href="#ArialMT-15"/>
      <use xlink:href="#ArialMT-1b" transform="translate(55.609375 0)"/>
      <use xlink:href="#ArialMT-3" transform="translate(111.21875 0)"/>
      <use xlink:href="#ArialMT-47" transform="translate(139 0)"/>
     </g>
    </g>
   </g>
  </g>
 </g>
 <defs>
  <clipPath id="p931f6f114c">
   <rect x="60.598945" y="39.679004" width="434.081328" height="263.503652"/>
  </clipPath>
 </defs>
</svg>
