<?xml version="1.0" encoding="utf-8" standalone="no"?>
<!DOCTYPE svg PUBLIC "-//W3C//DTD SVG 1.1//EN"
  "http://www.w3.org/Graphics/SVG/1.1/DTD/svg11.dtd">
<svg xmlns:xlink="http://www.w3.org/1999/xlink" width="448.650898pt" height="340.517639pt" viewBox="0 0 448.650898 340.517639" xmlns="http://www.w3.org/2000/svg" version="1.1">
 <metadata>
  <rdf:RDF xmlns:dc="http://purl.org/dc/elements/1.1/" xmlns:cc="http://creativecommons.org/ns#" xmlns:rdf="http://www.w3.org/1999/02/22-rdf-syntax-ns#">
   <cc:Work>
    <dc:type rdf:resource="http://purl.org/dc/dcmitype/StillImage"/>
    <dc:date>2026-07-09T17:08:28.918676</dc:date>
    <dc:format>image/svg+xml</dc:format>
    <dc:creator>
     <cc:Agent>
      <dc:title>Matplotlib v3.11.0, https://matplotlib.org/</dc:title>
     </cc:Agent>
    </dc:creator>
   </cc:Work>
  </rdf:RDF>
 </metadata>
 <defs>
  <style type="text/css">*{stroke-linejoin: round; stroke-linecap: butt}</style>
 </defs>
 <g id="figure_1">
  <g id="patch_1">
   <path d="M 0 340.517639 
L 448.650898 340.517639 
L 448.650898 0 
L 0 0 
z
" style="fill: #ffffff"/>
  </g>
  <g id="axes_1">
   <g id="patch_2">
    <path d="M 60.598945 299.540021 
L 425.880273 299.540021 
L 425.880273 8.52786 
L 60.598945 8.52786 
z
" style="fill: #ffffff"/>
   </g>
   <g id="matplotlib.axis_1">
    <g id="xtick_1">
     <g id="line2d_1">
      <defs>
       <path id="m786f34d242" d="M 0 0 
L 0 -6 
" style="stroke: #000000; stroke-width: 1.5"/>
      </defs>
      <g>
       <use xlink:href="#m786f34d242" x="60.598945" y="299.540021" style="stroke: #000000; stroke-width: 1.5"/>
      </g>
     </g>
     <g id="text_1">
      <!-- 0 -->
      <g transform="translate(56.706289 313.232404) scale(0.14 -0.14)">
       <defs>
        <path id="ArialMT-13" d="M 266 2259 
Q 266 3072 433 3567 
Q 600 4063 929 4331 
Q 1259 4600 1759 4600 
Q 2128 4600 2406 4451 
Q 2684 4303 2865 4023 
Q 3047 3744 3150 3342 
Q 3253 2941 3253 2259 
Q 3253 1453 3087 958 
Q 2922 463 2592 192 
Q 2263 -78 1759 -78 
Q 1097 -78 719 397 
Q 266 969 266 2259 
z
M 844 2259 
Q 844 1131 1108 757 
Q 1372 384 1759 384 
Q 2147 384 2411 759 
Q 2675 1134 2675 2259 
Q 2675 3391 2411 3762 
Q 2147 4134 1753 4134 
Q 1366 4134 1134 3806 
Q 844 3388 844 2259 
z
" transform="scale(0.015625)"/>
       </defs>
       <use xlink:href="#ArialMT-13"/>
      </g>
     </g>
    </g>
    <g id="xtick_2">
     <g id="line2d_2">
      <g>
       <use xlink:href="#m786f34d242" x="121.479167" y="299.540021" style="stroke: #000000; stroke-width: 1.5"/>
      </g>
     </g>
     <g id="text_2">
      <!-- 200 -->
      <g transform="translate(109.801198 313.232404) scale(0.14 -0.14)">
       <defs>
        <path id="ArialMT-15" d="M 3222 541 
L 3222 0 
L 194 0 
Q 188 203 259 391 
Q 375 700 629 1000 
Q 884 1300 1366 1694 
Q 2113 2306 2375 2664 
Q 2638 3022 2638 3341 
Q 2638 3675 2398 3904 
Q 2159 4134 1775 4134 
Q 1369 4134 1125 3890 
Q 881 3647 878 3216 
L 300 3275 
Q 359 3922 746 4261 
Q 1134 4600 1788 4600 
Q 2447 4600 2831 4234 
Q 3216 3869 3216 3328 
Q 3216 3053 3103 2787 
Q 2991 2522 2730 2228 
Q 2469 1934 1863 1422 
Q 1356 997 1212 845 
Q 1069 694 975 541 
L 3222 541 
z
" transform="scale(0.015625)"/>
       </defs>
       <use xlink:href="#ArialMT-15"/>
       <use xlink:href="#ArialMT-13" transform="translate(55.609375 0)"/>
       <use xlink:href="#ArialMT-13" transform="translate(111.21875 0)"/>
      </g>
     </g>
    </g>
    <g id="xtick_3">
     <g id="line2d_3">
      <g>
       <use xlink:href="#m786f34d242" x="182.359388" y="299.540021" style="stroke: #000000; stroke-width: 1.5"/>
      </g>
     </g>
     <g id="text_3">
      <!-- 400 -->
      <g transform="translate(170.681419 313.232404) scale(0.14 -0.14)">
       <defs>
        <path id="ArialMT-17" d="M 2069 0 
L 2069 1097 
L 81 1097 
L 81 1613 
L 2172 4581 
L 2631 4581 
L 2631 1613 
L 3250 1613 
L 3250 1097 
L 2631 1097 
L 2631 0 
L 2069 0 
z
M 2069 1613 
L 2069 3678 
L 634 1613 
L 2069 1613 
z
" transform="scale(0.015625)"/>
       </defs>
       <use xlink:href="#ArialMT-17"/>
       <use xlink:href="#ArialMT-13" transform="translate(55.609375 0)"/>
       <use xlink:href="#ArialMT-13" transform="translate(111.21875 0)"/>
      </g>
     </g>
    </g>
    <g id="xtick_4">
     <g id="line2d_4">
      <g>
       <use xlink:href="#m786f34d242" x="243.239609" y="299.540021" style="stroke: #000000; stroke-width: 1.5"/>
      </g>
     </g>
     <g id="text_4">
      <!-- 600 -->
      <g transform="translate(231.561641 313.232404) scale(0.14 -0.14)">
       <defs>
        <path id="ArialMT-19" d="M 3184 3459 
L 2625 3416 
Q 2550 3747 2413 3897 
Q 2184 4138 1850 4138 
Q 1581 4138 1378 3988 
Q 1113 3794 959 3422 
Q 806 3050 800 2363 
Q 1003 2672 1297 2822 
Q 1591 2972 1913 2972 
Q 2475 2972 2870 2558 
Q 3266 2144 3266 1488 
Q 3266 1056 3080 686 
Q 2894 316 2569 119 
Q 2244 -78 1831 -78 
Q 1128 -78 684 439 
Q 241 956 241 2144 
Q 241 3472 731 4075 
Q 1159 4600 1884 4600 
Q 2425 4600 2770 4297 
Q 3116 3994 3184 3459 
z
M 888 1484 
Q 888 1194 1011 928 
Q 1134 663 1356 523 
Q 1578 384 1822 384 
Q 2178 384 2434 671 
Q 2691 959 2691 1453 
Q 2691 1928 2437 2201 
Q 2184 2475 1800 2475 
Q 1419 2475 1153 2201 
Q 888 1928 888 1484 
z
" transform="scale(0.015625)"/>
       </defs>
       <use xlink:href="#ArialMT-19"/>
       <use xlink:href="#ArialMT-13" transform="translate(55.609375 0)"/>
       <use xlink:href="#ArialMT-13" transform="translate(111.21875 0)"/>
      </g>
     </g>
    </g>
    <g id="xtick_5">
     <g id="line2d_5">
      <g>
       <use xlink:href="#m786f34d242" x="304.119831" y="299.540021" style="stroke: #000000; stroke-width: 1.5"/>
      </g>
     </g>
     <g id="text_5">
      <!-- 800 -->
      <g transform="translate(292.441862 313.232404) scale(0.14 -0.14)">
       <defs>
        <path id="ArialMT-1b" d="M 1131 2484 
Q 781 2613 612 2850 
Q 444 3088 444 3419 
Q 444 3919 803 4259 
Q 1163 4600 1759 4600 
Q 2359 4600 2725 4251 
Q 3091 3903 3091 3403 
Q 3091 3084 2923 2848 
Q 2756 2613 2416 2484 
Q 2838 2347 3058 2040 
Q 3278 1734 3278 1309 
Q 3278 722 2862 322 
Q 2447 -78 1769 -78 
Q 1091 -78 675 323 
Q 259 725 259 1325 
Q 259 1772 486 2073 
Q 713 2375 1131 2484 
z
M 1019 3438 
Q 1019 3113 1228 2906 
Q 1438 2700 1772 2700 
Q 2097 2700 2305 2904 
Q 2513 3109 2513 3406 
Q 2513 3716 2298 3927 
Q 2084 4138 1766 4138 
Q 1444 4138 1231 3931 
Q 1019 3725 1019 3438 
z
M 838 1322 
Q 838 1081 952 856 
Q 1066 631 1291 507 
Q 1516 384 1775 384 
Q 2178 384 2440 643 
Q 2703 903 2703 1303 
Q 2703 1709 2433 1975 
Q 2163 2241 1756 2241 
Q 1359 2241 1098 1978 
Q 838 1716 838 1322 
z
" transform="scale(0.015625)"/>
       </defs>
       <use xlink:href="#ArialMT-1b"/>
       <use xlink:href="#ArialMT-13" transform="translate(55.609375 0)"/>
       <use xlink:href="#ArialMT-13" transform="translate(111.21875 0)"/>
      </g>
     </g>
    </g>
    <g id="xtick_6">
     <g id="line2d_6">
      <g>
       <use xlink:href="#m786f34d242" x="365.000052" y="299.540021" style="stroke: #000000; stroke-width: 1.5"/>
      </g>
     </g>
     <g id="text_6">
      <!-- 1000 -->
      <g transform="translate(349.429427 313.232404) scale(0.14 -0.14)">
       <defs>
        <path id="ArialMT-14" d="M 2384 0 
L 1822 0 
L 1822 3584 
Q 1619 3391 1289 3197 
Q 959 3003 697 2906 
L 697 3450 
Q 1169 3672 1522 3987 
Q 1875 4303 2022 4600 
L 2384 4600 
L 2384 0 
z
" transform="scale(0.015625)"/>
       </defs>
       <use xlink:href="#ArialMT-14"/>
       <use xlink:href="#ArialMT-13" transform="translate(55.609375 0)"/>
       <use xlink:href="#ArialMT-13" transform="translate(111.21875 0)"/>
       <use xlink:href="#ArialMT-13" transform="translate(166.828125 0)"/>
      </g>
     </g>
    </g>
    <g id="xtick_7">
     <g id="line2d_7">
      <g>
       <use xlink:href="#m786f34d242" x="425.880273" y="299.540021" style="stroke: #000000; stroke-width: 1.5"/>
      </g>
     </g>
     <g id="text_7">
      <!-- 1200 -->
      <g transform="translate(410.309648 313.232404) scale(0.14 -0.14)">
       <use xlink:href="#ArialMT-14"/>
       <use xlink:href="#ArialMT-15" transform="translate(55.609375 0)"/>
       <use xlink:href="#ArialMT-13" transform="translate(111.21875 0)"/>
       <use xlink:href="#ArialMT-13" transform="translate(166.828125 0)"/>
      </g>
     </g>
    </g>
    <g id="xtick_8">
     <g id="line2d_8">
      <defs>
       <path id="m3514eac43e" d="M 0 0 
L 0 -3 
" style="stroke: #000000"/>
      </defs>
      <g>
       <use xlink:href="#m3514eac43e" x="75.819001" y="299.540021" style="stroke: #000000"/>
      </g>
     </g>
    </g>
    <g id="xtick_9">
     <g id="line2d_9">
      <g>
       <use xlink:href="#m3514eac43e" x="91.039056" y="299.540021" style="stroke: #000000"/>
      </g>
     </g>
    </g>
    <g id="xtick_10">
     <g id="line2d_10">
      <g>
       <use xlink:href="#m3514eac43e" x="106.259111" y="299.540021" style="stroke: #000000"/>
      </g>
     </g>
    </g>
    <g id="xtick_11">
     <g id="line2d_11">
      <g>
       <use xlink:href="#m3514eac43e" x="136.699222" y="299.540021" style="stroke: #000000"/>
      </g>
     </g>
    </g>
    <g id="xtick_12">
     <g id="line2d_12">
      <g>
       <use xlink:href="#m3514eac43e" x="151.919277" y="299.540021" style="stroke: #000000"/>
      </g>
     </g>
    </g>
    <g id="xtick_13">
     <g id="line2d_13">
      <g>
       <use xlink:href="#m3514eac43e" x="167.139333" y="299.540021" style="stroke: #000000"/>
      </g>
     </g>
    </g>
    <g id="xtick_14">
     <g id="line2d_14">
      <g>
       <use xlink:href="#m3514eac43e" x="197.579443" y="299.540021" style="stroke: #000000"/>
      </g>
     </g>
    </g>
    <g id="xtick_15">
     <g id="line2d_15">
      <g>
       <use xlink:href="#m3514eac43e" x="212.799499" y="299.540021" style="stroke: #000000"/>
      </g>
     </g>
    </g>
    <g id="xtick_16">
     <g id="line2d_16">
      <g>
       <use xlink:href="#m3514eac43e" x="228.019554" y="299.540021" style="stroke: #000000"/>
      </g>
     </g>
    </g>
    <g id="xtick_17">
     <g id="line2d_17">
      <g>
       <use xlink:href="#m3514eac43e" x="258.459665" y="299.540021" style="stroke: #000000"/>
      </g>
     </g>
    </g>
    <g id="xtick_18">
     <g id="line2d_18">
      <g>
       <use xlink:href="#m3514eac43e" x="273.67972" y="299.540021" style="stroke: #000000"/>
      </g>
     </g>
    </g>
    <g id="xtick_19">
     <g id="line2d_19">
      <g>
       <use xlink:href="#m3514eac43e" x="288.899775" y="299.540021" style="stroke: #000000"/>
      </g>
     </g>
    </g>
    <g id="xtick_20">
     <g id="line2d_20">
      <g>
       <use xlink:href="#m3514eac43e" x="319.339886" y="299.540021" style="stroke: #000000"/>
      </g>
     </g>
    </g>
    <g id="xtick_21">
     <g id="line2d_21">
      <g>
       <use xlink:href="#m3514eac43e" x="334.559941" y="299.540021" style="stroke: #000000"/>
      </g>
     </g>
    </g>
    <g id="xtick_22">
     <g id="line2d_22">
      <g>
       <use xlink:href="#m3514eac43e" x="349.779997" y="299.540021" style="stroke: #000000"/>
      </g>
     </g>
    </g>
    <g id="xtick_23">
     <g id="line2d_23">
      <g>
       <use xlink:href="#m3514eac43e" x="380.220107" y="299.540021" style="stroke: #000000"/>
      </g>
     </g>
    </g>
    <g id="xtick_24">
     <g id="line2d_24">
      <g>
       <use xlink:href="#m3514eac43e" x="395.440163" y="299.540021" style="stroke: #000000"/>
      </g>
     </g>
    </g>
    <g id="xtick_25">
     <g id="line2d_25">
      <g>
       <use xlink:href="#m3514eac43e" x="410.660218" y="299.540021" style="stroke: #000000"/>
      </g>
     </g>
    </g>
    <g id="text_8">
     <!-- T1 Temperature (°C) -->
     <g transform="translate(179.500234 330.371076) scale(0.14 -0.14)">
      <defs>
       <path id="ArialMT-37" d="M 1659 0 
L 1659 4041 
L 150 4041 
L 150 4581 
L 3781 4581 
L 3781 4041 
L 2266 4041 
L 2266 0 
L 1659 0 
z
" transform="scale(0.015625)"/>
       <path id="ArialMT-3" transform="scale(0.015625)"/>
       <path id="ArialMT-48" d="M 2694 1069 
L 3275 997 
Q 3138 488 2766 206 
Q 2394 -75 1816 -75 
Q 1088 -75 661 373 
Q 234 822 234 1631 
Q 234 2469 665 2931 
Q 1097 3394 1784 3394 
Q 2450 3394 2872 2941 
Q 3294 2488 3294 1666 
Q 3294 1616 3291 1516 
L 816 1516 
Q 847 969 1125 678 
Q 1403 388 1819 388 
Q 2128 388 2347 550 
Q 2566 713 2694 1069 
z
M 847 1978 
L 2700 1978 
Q 2663 2397 2488 2606 
Q 2219 2931 1791 2931 
Q 1403 2931 1139 2672 
Q 875 2413 847 1978 
z
" transform="scale(0.015625)"/>
       <path id="ArialMT-50" d="M 422 0 
L 422 3319 
L 925 3319 
L 925 2853 
Q 1081 3097 1340 3245 
Q 1600 3394 1931 3394 
Q 2300 3394 2536 3241 
Q 2772 3088 2869 2813 
Q 3263 3394 3894 3394 
Q 4388 3394 4653 3120 
Q 4919 2847 4919 2278 
L 4919 0 
L 4359 0 
L 4359 2091 
Q 4359 2428 4304 2576 
Q 4250 2725 4106 2815 
Q 3963 2906 3769 2906 
Q 3419 2906 3187 2673 
Q 2956 2441 2956 1928 
L 2956 0 
L 2394 0 
L 2394 2156 
Q 2394 2531 2256 2718 
Q 2119 2906 1806 2906 
Q 1569 2906 1367 2781 
Q 1166 2656 1075 2415 
Q 984 2175 984 1722 
L 984 0 
L 422 0 
z
" transform="scale(0.015625)"/>
       <path id="ArialMT-53" d="M 422 -1272 
L 422 3319 
L 934 3319 
L 934 2888 
Q 1116 3141 1344 3267 
Q 1572 3394 1897 3394 
Q 2322 3394 2647 3175 
Q 2972 2956 3137 2557 
Q 3303 2159 3303 1684 
Q 3303 1175 3120 767 
Q 2938 359 2589 142 
Q 2241 -75 1856 -75 
Q 1575 -75 1351 44 
Q 1128 163 984 344 
L 984 -1272 
L 422 -1272 
z
M 931 1641 
Q 931 1000 1190 694 
Q 1450 388 1819 388 
Q 2194 388 2461 705 
Q 2728 1022 2728 1688 
Q 2728 2322 2467 2637 
Q 2206 2953 1844 2953 
Q 1484 2953 1207 2617 
Q 931 2281 931 1641 
z
" transform="scale(0.015625)"/>
       <path id="ArialMT-55" d="M 416 0 
L 416 3319 
L 922 3319 
L 922 2816 
Q 1116 3169 1280 3281 
Q 1444 3394 1641 3394 
Q 1925 3394 2219 3213 
L 2025 2691 
Q 1819 2813 1613 2813 
Q 1428 2813 1281 2702 
Q 1134 2591 1072 2394 
Q 978 2094 978 1738 
L 978 0 
L 416 0 
z
" transform="scale(0.015625)"/>
       <path id="ArialMT-44" d="M 2588 409 
Q 2275 144 1986 34 
Q 1697 -75 1366 -75 
Q 819 -75 525 192 
Q 231 459 231 875 
Q 231 1119 342 1320 
Q 453 1522 633 1644 
Q 813 1766 1038 1828 
Q 1203 1872 1538 1913 
Q 2219 1994 2541 2106 
Q 2544 2222 2544 2253 
Q 2544 2597 2384 2738 
Q 2169 2928 1744 2928 
Q 1347 2928 1158 2789 
Q 969 2650 878 2297 
L 328 2372 
Q 403 2725 575 2942 
Q 747 3159 1072 3276 
Q 1397 3394 1825 3394 
Q 2250 3394 2515 3294 
Q 2781 3194 2906 3042 
Q 3031 2891 3081 2659 
Q 3109 2516 3109 2141 
L 3109 1391 
Q 3109 606 3145 398 
Q 3181 191 3288 0 
L 2700 0 
Q 2613 175 2588 409 
z
M 2541 1666 
Q 2234 1541 1622 1453 
Q 1275 1403 1131 1340 
Q 988 1278 909 1158 
Q 831 1038 831 891 
Q 831 666 1001 516 
Q 1172 366 1500 366 
Q 1825 366 2078 508 
Q 2331 650 2450 897 
Q 2541 1088 2541 1459 
L 2541 1666 
z
" transform="scale(0.015625)"/>
       <path id="ArialMT-57" d="M 1650 503 
L 1731 6 
Q 1494 -44 1306 -44 
Q 1000 -44 831 53 
Q 663 150 594 308 
Q 525 466 525 972 
L 525 2881 
L 113 2881 
L 113 3319 
L 525 3319 
L 525 4141 
L 1084 4478 
L 1084 3319 
L 1650 3319 
L 1650 2881 
L 1084 2881 
L 1084 941 
Q 1084 700 1114 631 
Q 1144 563 1211 522 
Q 1278 481 1403 481 
Q 1497 481 1650 503 
z
" transform="scale(0.015625)"/>
       <path id="ArialMT-58" d="M 2597 0 
L 2597 488 
Q 2209 -75 1544 -75 
Q 1250 -75 995 37 
Q 741 150 617 320 
Q 494 491 444 738 
Q 409 903 409 1263 
L 409 3319 
L 972 3319 
L 972 1478 
Q 972 1038 1006 884 
Q 1059 663 1231 536 
Q 1403 409 1656 409 
Q 1909 409 2131 539 
Q 2353 669 2445 892 
Q 2538 1116 2538 1541 
L 2538 3319 
L 3100 3319 
L 3100 0 
L 2597 0 
z
" transform="scale(0.015625)"/>
       <path id="ArialMT-b" d="M 1497 -1347 
Q 1031 -759 709 28 
Q 388 816 388 1659 
Q 388 2403 628 3084 
Q 909 3875 1497 4659 
L 1900 4659 
Q 1522 4009 1400 3731 
Q 1209 3300 1100 2831 
Q 966 2247 966 1656 
Q 966 153 1900 -1347 
L 1497 -1347 
z
" transform="scale(0.015625)"/>
       <path id="ArialMT-83" d="M 400 3794 
Q 400 4153 654 4406 
Q 909 4659 1266 4659 
Q 1628 4659 1881 4406 
Q 2134 4153 2134 3794 
Q 2134 3434 1879 3179 
Q 1625 2925 1266 2925 
Q 909 2925 654 3178 
Q 400 3431 400 3794 
z
M 741 3794 
Q 741 3575 895 3420 
Q 1050 3266 1269 3266 
Q 1484 3266 1639 3420 
Q 1794 3575 1794 3794 
Q 1794 4013 1639 4167 
Q 1484 4322 1269 4322 
Q 1050 4322 895 4167 
Q 741 4013 741 3794 
z
" transform="scale(0.015625)"/>
       <path id="ArialMT-26" d="M 3763 1606 
L 4369 1453 
Q 4178 706 3683 314 
Q 3188 -78 2472 -78 
Q 1731 -78 1267 223 
Q 803 525 561 1097 
Q 319 1669 319 2325 
Q 319 3041 592 3573 
Q 866 4106 1370 4382 
Q 1875 4659 2481 4659 
Q 3169 4659 3637 4309 
Q 4106 3959 4291 3325 
L 3694 3184 
Q 3534 3684 3231 3912 
Q 2928 4141 2469 4141 
Q 1941 4141 1586 3887 
Q 1231 3634 1087 3207 
Q 944 2781 944 2328 
Q 944 1744 1114 1308 
Q 1284 872 1643 656 
Q 2003 441 2422 441 
Q 2931 441 3284 734 
Q 3638 1028 3763 1606 
z
" transform="scale(0.015625)"/>
       <path id="ArialMT-c" d="M 791 -1347 
L 388 -1347 
Q 1322 153 1322 1656 
Q 1322 2244 1188 2822 
Q 1081 3291 891 3722 
Q 769 4003 388 4659 
L 791 4659 
Q 1378 3875 1659 3084 
Q 1900 2403 1900 1659 
Q 1900 816 1576 28 
Q 1253 -759 791 -1347 
z
" transform="scale(0.015625)"/>
      </defs>
      <use xlink:href="#ArialMT-37"/>
      <use xlink:href="#ArialMT-14" transform="translate(61.078125 0)"/>
      <use xlink:href="#ArialMT-3" transform="translate(116.6875 0)"/>
      <use xlink:href="#ArialMT-37" transform="translate(142.65625 0)"/>
      <use xlink:href="#ArialMT-48" transform="translate(192.65625 0)"/>
      <use xlink:href="#ArialMT-50" transform="translate(248.265625 0)"/>
      <use xlink:href="#ArialMT-53" transform="translate(331.5625 0)"/>
      <use xlink:href="#ArialMT-48" transform="translate(387.171875 0)"/>
      <use xlink:href="#ArialMT-55" transform="translate(442.78125 0)"/>
      <use xlink:href="#ArialMT-44" transform="translate(476.078125 0)"/>
      <use xlink:href="#ArialMT-57" transform="translate(531.6875 0)"/>
      <use xlink:href="#ArialMT-58" transform="translate(559.46875 0)"/>
      <use xlink:href="#ArialMT-55" transform="translate(615.078125 0)"/>
      <use xlink:href="#ArialMT-48" transform="translate(648.375 0)"/>
      <use xlink:href="#ArialMT-3" transform="translate(703.984375 0)"/>
      <use xlink:href="#ArialMT-b" transform="translate(731.765625 0)"/>
      <use xlink:href="#ArialMT-83" transform="translate(765.0625 0)"/>
      <use xlink:href="#ArialMT-26" transform="translate(805.046875 0)"/>
      <use xlink:href="#ArialMT-c" transform="translate(877.265625 0)"/>
     </g>
    </g>
   </g>
   <g id="matplotlib.axis_2">
    <g id="ytick_1">
     <g id="line2d_26">
      <defs>
       <path id="m7e3c2d5cf1" d="M 0 0 
L 6 0 
" style="stroke: #000000; stroke-width: 1.5"/>
      </defs>
      <g>
       <use xlink:href="#m7e3c2d5cf1" x="60.598945" y="286.312196" style="stroke: #000000; stroke-width: 1.5"/>
      </g>
     </g>
     <g id="text_9">
      <!-- $\mathdefault{10^{-20}}$ -->
      <g transform="translate(24.338945 292.752196) scale(0.14 -0.14)">
       <defs>
        <path id="ArialMT-ed" d="M 3381 1997 
L 356 1997 
L 356 2522 
L 3381 2522 
L 3381 1997 
z
" transform="scale(0.015625)"/>
       </defs>
       <use xlink:href="#ArialMT-14" transform="translate(0 0.3875)"/>
       <use xlink:href="#ArialMT-13" transform="translate(55.615234 0.3875)"/>
       <use xlink:href="#ArialMT-ed" transform="translate(112.1875 41.6875) scale(0.7)"/>
       <use xlink:href="#ArialMT-15" transform="translate(153.066406 41.6875) scale(0.7)"/>
       <use xlink:href="#ArialMT-13" transform="translate(191.99707 41.6875) scale(0.7)"/>
      </g>
     </g>
    </g>
    <g id="ytick_2">
     <g id="line2d_27">
      <g>
       <use xlink:href="#m7e3c2d5cf1" x="60.598945" y="231.777757" style="stroke: #000000; stroke-width: 1.5"/>
      </g>
     </g>
     <g id="text_10">
      <!-- $\mathdefault{10^{-18}}$ -->
      <g transform="translate(24.338945 238.217757) scale(0.14 -0.14)">
       <use xlink:href="#ArialMT-14" transform="translate(0 0.3875)"/>
       <use xlink:href="#ArialMT-13" transform="translate(55.615234 0.3875)"/>
       <use xlink:href="#ArialMT-ed" transform="translate(112.1875 41.6875) scale(0.7)"/>
       <use xlink:href="#ArialMT-14" transform="translate(153.066406 41.6875) scale(0.7)"/>
       <use xlink:href="#ArialMT-1b" transform="translate(191.99707 41.6875) scale(0.7)"/>
      </g>
     </g>
    </g>
    <g id="ytick_3">
     <g id="line2d_28">
      <g>
       <use xlink:href="#m7e3c2d5cf1" x="60.598945" y="177.243318" style="stroke: #000000; stroke-width: 1.5"/>
      </g>
     </g>
     <g id="text_11">
      <!-- $\mathdefault{10^{-16}}$ -->
      <g transform="translate(24.338945 183.683318) scale(0.14 -0.14)">
       <use xlink:href="#ArialMT-14" transform="translate(0 0.3875)"/>
       <use xlink:href="#ArialMT-13" transform="translate(55.615234 0.3875)"/>
       <use xlink:href="#ArialMT-ed" transform="translate(112.1875 41.6875) scale(0.7)"/>
       <use xlink:href="#ArialMT-14" transform="translate(153.066406 41.6875) scale(0.7)"/>
       <use xlink:href="#ArialMT-19" transform="translate(191.99707 41.6875) scale(0.7)"/>
      </g>
     </g>
    </g>
    <g id="ytick_4">
     <g id="line2d_29">
      <g>
       <use xlink:href="#m7e3c2d5cf1" x="60.598945" y="122.708878" style="stroke: #000000; stroke-width: 1.5"/>
      </g>
     </g>
     <g id="text_12">
      <!-- $\mathdefault{10^{-14}}$ -->
      <g transform="translate(24.338945 129.148878) scale(0.14 -0.14)">
       <use xlink:href="#ArialMT-14" transform="translate(0 0.3875)"/>
       <use xlink:href="#ArialMT-13" transform="translate(55.615234 0.3875)"/>
       <use xlink:href="#ArialMT-ed" transform="translate(112.1875 41.6875) scale(0.7)"/>
       <use xlink:href="#ArialMT-14" transform="translate(153.066406 41.6875) scale(0.7)"/>
       <use xlink:href="#ArialMT-17" transform="translate(191.99707 41.6875) scale(0.7)"/>
      </g>
     </g>
    </g>
    <g id="ytick_5">
     <g id="line2d_30">
      <g>
       <use xlink:href="#m7e3c2d5cf1" x="60.598945" y="68.174439" style="stroke: #000000; stroke-width: 1.5"/>
      </g>
     </g>
     <g id="text_13">
      <!-- $\mathdefault{10^{-12}}$ -->
      <g transform="translate(24.338945 74.614439) scale(0.14 -0.14)">
       <use xlink:href="#ArialMT-14" transform="translate(0 0.3875)"/>
       <use xlink:href="#ArialMT-13" transform="translate(55.615234 0.3875)"/>
       <use xlink:href="#ArialMT-ed" transform="translate(112.1875 41.6875) scale(0.7)"/>
       <use xlink:href="#ArialMT-14" transform="translate(153.066406 41.6875) scale(0.7)"/>
       <use xlink:href="#ArialMT-15" transform="translate(191.99707 41.6875) scale(0.7)"/>
      </g>
     </g>
    </g>
    <g id="ytick_6">
     <g id="line2d_31">
      <g>
       <use xlink:href="#m7e3c2d5cf1" x="60.598945" y="13.64" style="stroke: #000000; stroke-width: 1.5"/>
      </g>
     </g>
     <g id="text_14">
      <!-- $\mathdefault{10^{-10}}$ -->
      <g transform="translate(24.338945 20.08) scale(0.14 -0.14)">
       <use xlink:href="#ArialMT-14" transform="translate(0 0.3875)"/>
       <use xlink:href="#ArialMT-13" transform="translate(55.615234 0.3875)"/>
       <use xlink:href="#ArialMT-ed" transform="translate(112.1875 41.6875) scale(0.7)"/>
       <use xlink:href="#ArialMT-14" transform="translate(153.066406 41.6875) scale(0.7)"/>
       <use xlink:href="#ArialMT-13" transform="translate(191.99707 41.6875) scale(0.7)"/>
      </g>
     </g>
    </g>
    <g id="text_15">
     <!-- Ion Current (m/z 15) -->
     <g transform="translate(17.392383 216.659878) rotate(-90) scale(0.14 -0.14)">
      <defs>
       <path id="ArialMT-2c" d="M 597 0 
L 597 4581 
L 1203 4581 
L 1203 0 
L 597 0 
z
" transform="scale(0.015625)"/>
       <path id="ArialMT-52" d="M 213 1659 
Q 213 2581 725 3025 
Q 1153 3394 1769 3394 
Q 2453 3394 2887 2945 
Q 3322 2497 3322 1706 
Q 3322 1066 3130 698 
Q 2938 331 2570 128 
Q 2203 -75 1769 -75 
Q 1072 -75 642 372 
Q 213 819 213 1659 
z
M 791 1659 
Q 791 1022 1069 705 
Q 1347 388 1769 388 
Q 2188 388 2466 706 
Q 2744 1025 2744 1678 
Q 2744 2294 2464 2611 
Q 2184 2928 1769 2928 
Q 1347 2928 1069 2612 
Q 791 2297 791 1659 
z
" transform="scale(0.015625)"/>
       <path id="ArialMT-51" d="M 422 0 
L 422 3319 
L 928 3319 
L 928 2847 
Q 1294 3394 1984 3394 
Q 2284 3394 2536 3286 
Q 2788 3178 2913 3003 
Q 3038 2828 3088 2588 
Q 3119 2431 3119 2041 
L 3119 0 
L 2556 0 
L 2556 2019 
Q 2556 2363 2490 2533 
Q 2425 2703 2258 2804 
Q 2091 2906 1866 2906 
Q 1506 2906 1245 2678 
Q 984 2450 984 1813 
L 984 0 
L 422 0 
z
" transform="scale(0.015625)"/>
       <path id="ArialMT-12" d="M 0 -78 
L 1328 4659 
L 1778 4659 
L 453 -78 
L 0 -78 
z
" transform="scale(0.015625)"/>
       <path id="ArialMT-5d" d="M 125 0 
L 125 456 
L 2238 2881 
Q 1878 2863 1603 2863 
L 250 2863 
L 250 3319 
L 2963 3319 
L 2963 2947 
L 1166 841 
L 819 456 
Q 1197 484 1528 484 
L 3063 484 
L 3063 0 
L 125 0 
z
" transform="scale(0.015625)"/>
       <path id="ArialMT-18" d="M 266 1200 
L 856 1250 
Q 922 819 1161 601 
Q 1400 384 1738 384 
Q 2144 384 2425 690 
Q 2706 997 2706 1503 
Q 2706 1984 2436 2262 
Q 2166 2541 1728 2541 
Q 1456 2541 1237 2417 
Q 1019 2294 894 2097 
L 366 2166 
L 809 4519 
L 3088 4519 
L 3088 3981 
L 1259 3981 
L 1013 2750 
Q 1425 3038 1878 3038 
Q 2478 3038 2890 2622 
Q 3303 2206 3303 1553 
Q 3303 931 2941 478 
Q 2500 -78 1738 -78 
Q 1113 -78 717 272 
Q 322 622 266 1200 
z
" transform="scale(0.015625)"/>
      </defs>
      <use xlink:href="#ArialMT-2c"/>
      <use xlink:href="#ArialMT-52" transform="translate(27.78125 0)"/>
      <use xlink:href="#ArialMT-51" transform="translate(83.390625 0)"/>
      <use xlink:href="#ArialMT-3" transform="translate(139 0)"/>
      <use xlink:href="#ArialMT-26" transform="translate(166.78125 0)"/>
      <use xlink:href="#ArialMT-58" transform="translate(239 0)"/>
      <use xlink:href="#ArialMT-55" transform="translate(294.609375 0)"/>
      <use xlink:href="#ArialMT-55" transform="translate(327.90625 0)"/>
      <use xlink:href="#ArialMT-48" transform="translate(361.203125 0)"/>
      <use xlink:href="#ArialMT-51" transform="translate(416.8125 0)"/>
      <use xlink:href="#ArialMT-57" transform="translate(472.421875 0)"/>
      <use xlink:href="#ArialMT-3" transform="translate(500.203125 0)"/>
      <use xlink:href="#ArialMT-b" transform="translate(527.984375 0)"/>
      <use xlink:href="#ArialMT-50" transform="translate(561.28125 0)"/>
      <use xlink:href="#ArialMT-12" transform="translate(644.578125 0)"/>
      <use xlink:href="#ArialMT-5d" transform="translate(672.359375 0)"/>
      <use xlink:href="#ArialMT-3" transform="translate(722.359375 0)"/>
      <use xlink:href="#ArialMT-14" transform="translate(750.140625 0)"/>
      <use xlink:href="#ArialMT-18" transform="translate(805.75 0)"/>
      <use xlink:href="#ArialMT-c" transform="translate(861.359375 0)"/>
     </g>
    </g>
   </g>
   <g id="line2d_32">
    <path d="M 78.802131 112.522761 
L 78.680371 103.751479 
L 78.680371 105.019094 
L 78.832572 106.22236 
L 79.502254 104.367277 
L 81.08514 105.922346 
L 83.276828 106.453949 
L 85.407636 107.901563 
L 87.203602 111.065111 
L 88.634287 110.056426 
L 89.821452 110.223407 
L 91.008616 108.626458 
L 92.07402 109.631811 
L 93.169864 116.822617 
L 94.357028 114.711744 
L 95.574632 109.672914 
L 96.792237 107.976862 
L 98.131602 105.775571 
L 99.440527 104.918005 
L 100.688571 106.924909 
L 101.936616 107.551431 
L 103.15422 104.404236 
L 104.280504 105.610712 
L 105.467668 110.675141 
L 106.654833 112.607378 
L 107.872437 109.038002 
L 108.998721 112.398966 
L 110.185886 109.577011 
L 111.37305 109.334445 
L 112.560214 115.934651 
L 113.747379 109.941392 
L 114.964983 108.142004 
L 116.182587 105.371666 
L 117.369752 103.055904 
L 118.587356 101.910532 
L 120.931245 100.504687 
L 122.118409 98.997797 
L 123.305573 100.327804 
L 124.492738 102.24725 
L 125.679902 103.106189 
L 126.867066 104.510624 
L 128.084671 105.424022 
L 129.241395 103.795667 
L 130.458999 104.195544 
L 131.646164 99.402252 
L 132.833328 96.730874 
L 134.020492 97.068254 
L 135.207657 97.652927 
L 136.425261 99.787691 
L 137.642865 101.162219 
L 138.86047 102.81159 
L 140.078074 108.805217 
L 141.234798 119.813324 
L 142.421963 286.312196 
L 144.765851 286.312196 
L 145.953016 121.983611 
L 147.17062 116.761782 
L 148.388225 113.705369 
L 149.575389 106.671736 
L 150.792993 103.569865 
L 151.919277 102.009725 
L 153.106442 108.014977 
L 154.263166 109.306976 
L 155.45033 111.483189 
L 156.607054 109.841258 
L 157.824659 105.790847 
L 159.011823 109.369099 
L 160.198987 106.838531 
L 161.416592 104.817479 
L 162.573316 106.075966 
L 163.790921 108.567209 
L 164.947645 109.659962 
L 166.165249 107.104298 
L 168.570018 103.925989 
L 169.787622 103.484357 
L 170.944347 103.23004 
L 172.161951 103.513636 
L 173.349115 109.417144 
L 174.505839 116.651321 
L 176.880168 109.61265 
L 178.036892 106.806234 
L 179.193617 107.480904 
L 180.380781 103.551007 
L 181.598385 102.599463 
L 182.84643 102.66606 
L 184.033594 104.044551 
L 185.251199 106.466159 
L 186.468803 102.751194 
L 187.686407 100.137608 
L 189.999856 101.137279 
L 191.21746 105.749236 
L 192.435065 106.860416 
L 193.561349 110.886054 
L 194.687633 110.221008 
L 195.905237 108.594783 
L 197.092402 110.099838 
L 198.279566 108.046027 
L 199.46673 106.28249 
L 201.780179 110.59711 
L 202.967343 122.340348 
L 204.184947 286.312196 
L 206.528836 286.312196 
L 207.716 141.73913 
L 208.903165 286.312196 
L 210.120769 128.804525 
L 211.277493 124.611015 
L 212.464657 123.820371 
L 213.682262 116.536202 
L 214.869426 132.819587 
L 216.056591 133.892177 
L 217.213315 111.399796 
L 218.430919 111.183016 
L 219.618083 107.937801 
L 220.774808 107.103445 
L 221.961972 105.924259 
L 223.149136 108.644932 
L 224.336301 106.332983 
L 225.462585 104.764897 
L 226.680189 104.199146 
L 227.836913 100.669951 
L 229.024078 99.202768 
L 230.272122 101.017471 
L 231.428846 102.052368 
L 232.616011 103.701832 
L 233.711855 106.455082 
L 234.838139 111.596345 
L 236.025303 109.068966 
L 237.242908 107.071378 
L 238.460512 107.296377 
L 239.647676 104.956372 
L 242.052445 109.26998 
L 243.178729 113.519273 
L 244.396334 113.366206 
L 245.583498 113.630729 
L 246.801102 109.657172 
L 247.957827 102.836283 
L 249.144991 100.88121 
L 250.362595 100.323133 
L 251.54976 101.612295 
L 252.706484 101.826378 
L 253.893648 103.889617 
L 255.080812 108.123635 
L 256.267977 109.868928 
L 257.485581 112.154876 
L 258.672745 108.544054 
L 259.82947 107.038712 
L 261.077514 104.299803 
L 262.234238 103.409531 
L 263.421403 105.367003 
L 264.578127 102.677954 
L 265.765291 104.507234 
L 267.013336 105.442937 
L 268.13962 108.757687 
L 269.326784 111.422869 
L 270.513949 110.031615 
L 271.670673 111.884193 
L 272.888277 107.974949 
L 274.136322 107.163229 
L 275.353926 103.762463 
L 277.697815 102.498018 
L 278.915419 100.962683 
L 280.072143 102.223452 
L 281.289748 104.082004 
L 282.507352 104.485283 
L 283.694516 104.747128 
L 284.881681 106.226077 
L 286.068845 106.13404 
L 287.225569 106.794584 
L 288.443174 108.498416 
L 289.599898 105.996907 
L 290.756622 106.244121 
L 291.943786 106.705421 
L 293.130951 110.618856 
L 294.287675 111.911429 
L 295.505279 110.088784 
L 296.722884 116.722484 
L 297.849168 113.740997 
L 299.066772 116.206803 
L 300.284377 111.619525 
L 301.410661 106.835529 
L 302.597825 106.40141 
L 303.78499 105.393681 
L 304.972154 102.313991 
L 306.159318 101.63465 
L 307.285602 100.172983 
L 308.503207 101.236174 
L 309.690371 100.020332 
L 310.847095 102.086028 
L 312.03426 103.893581 
L 313.221424 103.765242 
L 314.408588 107.026382 
L 315.595752 111.486049 
L 316.752477 106.167116 
L 317.909201 105.488727 
L 319.157245 103.146649 
L 320.34441 101.359212 
L 321.501134 101.325752 
L 322.627418 103.320843 
L 323.875463 103.617979 
L 325.032187 102.568973 
L 326.249791 103.788814 
L 327.406515 105.453544 
L 328.56324 105.366168 
L 329.750404 104.518093 
L 330.968008 103.928729 
L 332.094292 102.081314 
L 333.342337 100.970118 
L 334.833902 102.149085 
L 336.112387 100.690309 
L 337.299551 99.036649 
L 338.517156 98.932591 
L 343.235373 107.222724 
L 344.452977 108.164068 
L 345.548821 109.538973 
L 346.796866 108.299791 
L 347.92315 105.087623 
L 350.358359 101.242816 
L 351.484643 100.245997 
L 352.702247 100.993384 
L 353.950292 104.080565 
L 355.015696 102.746688 
L 356.20286 101.699126 
L 357.481345 102.247199 
L 359.825233 97.728521 
L 361.042838 96.505677 
L 362.260442 95.116426 
L 363.264966 93.074251 
L 364.51301 93.371911 
L 365.791495 93.550136 
L 366.856899 91.378754 
L 368.074503 91.734989 
L 369.444308 90.858839 
L 370.631473 92.054258 
L 371.757757 90.123506 
L 372.853601 90.404633 
L 374.040765 88.891006 
L 375.197489 86.700878 
L 376.415094 85.879708 
L 377.480497 83.817813 
L 378.667662 82.479154 
L 379.854826 80.722189 
L 381.04199 78.303493 
L 382.198715 77.289553 
L 383.446759 75.900376 
L 384.542603 75.367849 
L 385.760208 75.046487 
L 386.856052 74.371146 
L 388.225857 73.172872 
L 390.569745 70.516305 
L 391.726469 68.278292 
L 392.974514 66.255112 
L 393.979037 65.377585 
L 398.149333 60.905857 
L 399.275617 59.277916 
L 400.462781 57.957866 
L 403.963394 52.504034 
L 407.494447 47.764317 
L 410.020976 44.226944 
L 412.243104 41.184439 
L 413.369388 39.429207 
L 414.647873 37.833094 
L 415.743717 36.164722 
L 418.331126 32.920209 
L 419.30521 31.425492 
L 420.644574 29.810368 
L 421.679538 28.170537 
L 424.145187 24.853118 
L 425.119271 23.19506 
L 425.119271 23.19506 
" clip-path="url(#pfdda2c37af)" style="fill: none; stroke: #000000; stroke-width: 2.5; stroke-linecap: square"/>
   </g>
   <g id="line2d_33">
    <path d="M 71.100783 98.929055 
L 71.100783 107.045465 
L 71.252984 110.140497 
L 71.892226 110.18872 
L 73.566432 115.925702 
L 75.72768 110.470093 
L 77.828048 106.36841 
L 79.593574 101.471294 
L 81.0547 101.107979 
L 82.272304 100.117804 
L 83.368148 99.506654 
L 84.372672 101.152455 
L 85.559836 100.973209 
L 86.77744 103.147134 
L 87.873284 107.027944 
L 89.151769 107.176169 
L 90.369374 107.980951 
L 91.465218 107.267077 
L 92.774142 108.784872 
L 93.900426 108.575419 
L 95.148471 106.635029 
L 96.396515 103.154257 
L 97.64456 100.931687 
L 98.862164 101.318345 
L 101.449574 100.891226 
L 102.575858 99.693997 
L 103.823902 100.575575 
L 104.950187 103.815325 
L 106.167791 104.182324 
L 107.294075 104.078482 
L 108.57256 103.583369 
L 109.790164 102.142744 
L 110.946888 101.998553 
L 112.073172 103.72177 
L 113.290777 103.893621 
L 114.508381 102.053456 
L 115.695546 104.250001 
L 116.91315 107.816148 
L 117.978554 106.403634 
L 119.226598 104.49701 
L 120.413763 103.018328 
L 121.631367 101.116387 
L 122.879412 100.755904 
L 123.944816 102.664085 
L 125.19286 102.090586 
L 126.380024 103.911115 
L 127.628069 101.814497 
L 128.754353 100.574185 
L 129.971958 99.414266 
L 131.220002 99.289539 
L 133.53345 96.196769 
L 134.751055 95.969707 
L 135.846899 96.333742 
L 137.094943 95.665668 
L 138.342988 97.509978 
L 139.499712 94.147199 
L 140.747757 94.463692 
L 141.965361 94.957614 
L 143.122085 96.374086 
L 144.248369 94.496214 
L 145.405094 94.225372 
L 146.622698 94.377388 
L 147.809862 94.830983 
L 148.997027 94.896079 
L 150.153751 98.491878 
L 151.401795 98.479874 
L 152.6194 101.237506 
L 153.806564 101.274159 
L 154.932848 99.85597 
L 156.211333 97.663345 
L 158.463901 96.07754 
L 159.742386 95.920025 
L 160.89911 96.572569 
L 162.177595 98.54277 
L 163.303879 97.405624 
L 164.491043 97.167543 
L 165.678207 96.174121 
L 166.834932 93.515816 
L 169.27014 92.232978 
L 170.487745 93.19614 
L 171.644469 93.055864 
L 172.862073 93.82573 
L 173.988358 93.447965 
L 175.114642 92.20009 
L 176.362686 90.48241 
L 177.549851 89.428567 
L 178.706575 87.531494 
L 179.893739 86.130662 
L 181.080903 85.300229 
L 182.298508 84.076176 
L 183.546552 83.788998 
L 184.703277 83.865066 
L 185.860001 84.146383 
L 187.077605 83.96312 
L 188.203889 84.330337 
L 189.512814 84.238743 
L 190.639098 83.435928 
L 191.795822 82.259027 
L 192.982987 81.365152 
L 194.170151 80.322957 
L 195.357315 80.457448 
L 196.60536 80.059642 
L 197.762084 80.517323 
L 198.949248 80.420049 
L 200.105973 81.912048 
L 201.293137 81.417236 
L 202.510741 81.127497 
L 203.728346 80.449185 
L 204.85463 80.512381 
L 206.041794 81.184942 
L 207.228958 81.366009 
L 208.446563 81.164694 
L 209.664167 81.995372 
L 210.790451 82.463931 
L 212.008056 83.795991 
L 213.16478 83.644362 
L 214.351944 83.868799 
L 215.539109 83.433213 
L 216.726273 83.936887 
L 217.822117 84.261465 
L 219.131042 84.437619 
L 220.226886 84.206236 
L 221.44449 84.943024 
L 223.818819 84.656252 
L 226.162707 83.712745 
L 227.319431 82.749403 
L 228.506596 82.992386 
L 229.69376 82.585489 
L 232.098529 82.402008 
L 233.255253 82.540271 
L 234.442417 82.291427 
L 236.786306 81.392295 
L 238.03435 80.498096 
L 239.221515 79.918739 
L 240.347799 79.886692 
L 241.534963 78.732622 
L 243.878852 78.469949 
L 245.066016 79.118113 
L 246.22274 78.769624 
L 247.470785 78.658018 
L 248.657949 78.197403 
L 249.814673 77.348616 
L 252.189002 75.997293 
L 253.406606 76.023716 
L 255.750495 76.929905 
L 256.968099 76.553849 
L 258.124823 75.88763 
L 260.499152 75.250438 
L 262.873481 75.150345 
L 264.091085 75.739736 
L 265.27825 76.690045 
L 266.404534 77.22871 
L 267.652578 77.615244 
L 268.809302 77.526263 
L 269.966027 77.761687 
L 271.153191 77.449284 
L 272.340355 77.936248 
L 273.5884 79.380691 
L 274.866884 79.480324 
L 275.993168 80.28448 
L 277.210773 80.13028 
L 278.397937 80.842069 
L 279.615542 80.858605 
L 280.802706 81.199731 
L 281.98987 80.194247 
L 283.116154 80.467984 
L 284.303319 81.014144 
L 285.490483 83.547489 
L 286.708087 81.92048 
L 289.051976 83.069307 
L 290.23914 83.438161 
L 291.456745 82.883858 
L 292.613469 82.589286 
L 293.770193 82.870765 
L 294.987798 83.450778 
L 296.144522 83.705382 
L 297.301246 84.771285 
L 298.51885 83.63156 
L 299.736455 83.817408 
L 300.862739 83.84738 
L 302.080343 83.385735 
L 303.297948 82.461904 
L 304.424232 82.237666 
L 305.611396 82.470388 
L 306.79856 82.861854 
L 308.016165 83.767356 
L 309.142449 84.086778 
L 310.360053 83.579462 
L 312.703942 82.330287 
L 313.891106 81.330994 
L 315.04783 80.525032 
L 316.234995 80.296321 
L 317.391719 81.000553 
L 318.578883 82.163484 
L 319.766048 83.159784 
L 322.170816 83.400708 
L 323.357981 83.224151 
L 324.484265 82.622767 
L 325.671429 80.827915 
L 326.889034 80.653498 
L 328.106638 79.927265 
L 329.202482 79.762671 
L 332.763975 76.822921 
L 334.2251 76.383195 
L 335.534025 75.567746 
L 337.999674 75.376053 
L 339.186838 75.555287 
L 341.561167 76.075707 
L 342.717891 75.775378 
L 343.844175 75.942643 
L 345.09222 75.435315 
L 348.623273 75.276809 
L 349.840877 75.504613 
L 351.028041 74.619243 
L 352.215206 74.760817 
L 354.528654 74.569438 
L 355.685378 74.86875 
L 356.933423 74.81791 
L 358.120587 75.210523 
L 359.277311 75.319387 
L 360.525356 74.552992 
L 362.869244 73.578075 
L 364.117289 73.812084 
L 366.339417 73.234518 
L 368.713746 72.937838 
L 369.99223 73.10819 
L 371.179395 72.976627 
L 372.366559 72.636181 
L 373.492843 71.993581 
L 374.680007 71.761545 
L 375.806291 71.361295 
L 377.054336 71.081065 
L 378.11974 70.968664 
L 379.398224 70.515007 
L 381.681233 70.415955 
L 382.929277 69.965388 
L 384.116442 69.40986 
L 385.242726 68.387637 
L 386.42989 67.839134 
L 387.586614 67.428459 
L 388.834659 67.278985 
L 391.117667 65.39935 
L 392.365712 64.709337 
L 394.892241 62.40195 
L 396.292486 61.580397 
L 397.38833 60.350908 
L 398.758135 58.995407 
L 399.914859 57.500486 
L 402.289188 53.782272 
L 403.445912 51.803725 
L 406.946525 47.493886 
L 409.412174 44.870084 
L 410.386257 43.426582 
L 411.725622 41.987502 
L 414.160831 38.758818 
L 415.256675 36.999503 
L 417.661444 34.035825 
L 418.909488 32.543305 
L 422.2579 27.798432 
L 423.688585 26.093045 
L 424.784429 24.345935 
L 424.784429 24.345935 
" clip-path="url(#pfdda2c37af)" style="fill: none; stroke: #1f77b4; stroke-width: 2.5; stroke-linecap: square"/>
   </g>
   <g id="line2d_34">
    <path d="M 70.918143 101.118181 
L 70.918143 109.974264 
L 70.918143 100.773622 
L 70.918143 102.045627 
L 71.039903 102.318017 
L 71.618265 108.329606 
L 73.01851 111.395445 
L 75.179758 112.261414 
L 77.341006 104.018547 
L 79.258733 102.532063 
L 80.780739 99.584454 
L 82.028783 96.803169 
L 83.124627 95.817137 
L 84.220471 95.933741 
L 85.316315 97.344904 
L 88.847368 101.425753 
L 90.034532 102.197535 
L 91.221697 107.613947 
L 92.408861 106.263389 
L 93.596025 105.593679 
L 94.81363 104.545724 
L 96.000794 102.122612 
L 97.309719 100.358094 
L 98.649084 100.794452 
L 99.927568 101.410997 
L 101.145173 100.87013 
L 102.332337 102.857988 
L 103.519501 104.575824 
L 104.706666 103.733261 
L 105.89383 104.253873 
L 107.080994 103.966649 
L 108.298599 104.313559 
L 109.455323 105.57649 
L 110.672927 106.098217 
L 111.860092 103.527535 
L 113.047256 102.809469 
L 114.26486 101.729325 
L 115.452025 101.193988 
L 116.639189 101.545933 
L 117.826353 98.975502 
L 119.013518 99.323472 
L 120.200682 100.183842 
L 121.326966 99.130473 
L 122.575011 98.56363 
L 123.731735 100.716724 
L 124.888459 99.709812 
L 126.106063 100.216055 
L 127.323668 101.143397 
L 128.480392 102.671048 
L 129.667556 101.905258 
L 130.824281 107.119312 
L 131.981005 105.624305 
L 133.229049 104.250018 
L 134.385774 106.111101 
L 135.572938 107.072023 
L 136.790542 103.042746 
L 138.008147 102.046925 
L 139.347512 99.948251 
L 140.443356 98.54835 
L 141.63052 99.390811 
L 142.756804 98.743686 
L 144.004849 97.074015 
L 145.192013 95.780379 
L 146.409617 96.529894 
L 148.783946 97.545029 
L 149.94067 98.582559 
L 151.158275 96.999751 
L 152.284559 97.986747 
L 153.471723 99.653058 
L 154.780648 99.408888 
L 155.906932 102.085106 
L 157.094096 102.235102 
L 158.28126 104.468338 
L 159.529305 104.077089 
L 160.686029 101.235249 
L 162.999478 94.807872 
L 165.404246 93.131251 
L 166.621851 94.107416 
L 167.809015 96.251711 
L 168.996179 97.508031 
L 171.340068 95.706634 
L 172.527232 95.092603 
L 173.653516 94.685225 
L 174.871121 95.141855 
L 176.058285 94.203053 
L 177.215009 94.322811 
L 178.432614 93.969882 
L 179.650218 95.066283 
L 180.806942 93.140475 
L 181.963667 91.453114 
L 183.181271 90.456829 
L 184.459756 91.376433 
L 185.61648 91.296674 
L 186.894965 91.343029 
L 187.990808 91.026244 
L 189.177973 91.303356 
L 190.365137 89.335379 
L 191.552301 88.491958 
L 192.709026 86.97122 
L 193.92663 86.598954 
L 195.144235 85.742917 
L 196.300959 85.895164 
L 197.427243 84.185743 
L 198.614407 84.059859 
L 199.832012 83.252136 
L 201.019176 83.245646 
L 202.1759 82.129211 
L 203.393504 82.286213 
L 204.550229 82.929534 
L 205.767833 81.904528 
L 206.954997 81.456391 
L 208.111722 81.695189 
L 209.238006 81.156746 
L 210.45561 81.544667 
L 211.703655 81.802357 
L 212.860379 82.180383 
L 214.047543 82.407522 
L 215.265148 83.43289 
L 216.421872 83.446361 
L 217.609036 82.509902 
L 222.296813 83.648213 
L 223.544858 84.652589 
L 224.732022 84.346289 
L 225.888746 83.674074 
L 227.075911 83.848867 
L 228.263075 83.28981 
L 229.419799 83.136363 
L 230.637404 82.553531 
L 231.824568 82.397329 
L 233.011732 82.892581 
L 234.168456 82.941278 
L 235.355621 82.615016 
L 236.573225 83.109763 
L 237.729949 83.074206 
L 238.886674 84.340972 
L 240.104278 83.524968 
L 241.261002 83.371413 
L 242.387286 82.388155 
L 243.604891 82.464742 
L 244.883375 81.963081 
L 247.196824 80.001948 
L 250.758317 81.133032 
L 251.945481 82.003169 
L 253.102205 81.996293 
L 254.31981 81.855555 
L 255.537414 82.504348 
L 256.724578 82.449263 
L 257.850863 82.200638 
L 259.129347 82.515057 
L 260.225191 81.582386 
L 262.6604 81.752608 
L 263.817124 82.68093 
L 264.973848 81.460152 
L 267.409057 80.340176 
L 268.504901 80.512012 
L 269.722506 80.373926 
L 270.90967 80.408973 
L 272.096834 79.54436 
L 273.314439 80.291083 
L 274.562483 80.43098 
L 275.749648 80.712491 
L 278.123976 79.467491 
L 279.372021 80.343611 
L 280.528745 81.477949 
L 281.655029 82.366647 
L 284.029358 83.640138 
L 285.246962 84.497483 
L 286.464567 83.656614 
L 287.560411 83.879476 
L 288.778015 81.76143 
L 289.965179 80.438412 
L 291.152344 80.301685 
L 292.369948 79.671294 
L 293.435352 79.681613 
L 295.840121 78.9493 
L 297.057725 78.914394 
L 299.432054 81.530129 
L 300.680098 81.386174 
L 301.775942 81.758887 
L 302.963107 81.30085 
L 304.180711 81.586579 
L 306.524599 80.23798 
L 307.711764 78.78077 
L 310.025212 79.040582 
L 311.242817 78.367302 
L 313.617145 78.065561 
L 314.743429 76.461711 
L 315.930594 76.369164 
L 317.148198 75.542814 
L 318.365803 75.606164 
L 319.552967 75.013422 
L 320.679251 75.401248 
L 321.866415 75.480516 
L 323.05358 74.960907 
L 324.240744 75.558552 
L 325.427908 75.982774 
L 326.645513 75.52912 
L 329.019841 74.866831 
L 330.176565 75.034952 
L 331.36373 74.786431 
L 332.520454 74.918059 
L 335.229624 74.597861 
L 337.664833 75.250142 
L 343.661534 74.454133 
L 344.787819 74.729017 
L 346.005423 74.792386 
L 347.223027 75.750971 
L 348.379752 75.668192 
L 349.536476 76.296818 
L 350.6932 76.084822 
L 351.910804 76.494279 
L 353.067529 75.79568 
L 354.315573 75.344762 
L 355.472297 75.339615 
L 356.568141 74.862404 
L 357.846626 74.779561 
L 359.00335 75.592389 
L 360.190515 75.896655 
L 362.473523 76.810435 
L 363.752008 76.677284 
L 364.939172 77.113554 
L 366.095896 77.375242 
L 367.3135 77.257269 
L 368.470225 76.789161 
L 369.687829 77.176976 
L 370.844553 77.060621 
L 374.436486 77.116586 
L 375.623651 76.543426 
L 376.749935 76.610502 
L 377.906659 76.336658 
L 379.154704 75.612638 
L 380.341868 75.410304 
L 382.655316 73.451708 
L 383.872921 72.941385 
L 385.060085 71.974615 
L 386.216809 70.746043 
L 389.747862 68.040907 
L 390.874146 66.883425 
L 393.187595 63.733406 
L 395.927205 61.50184 
L 397.266569 60.237877 
L 400.828062 56.215002 
L 402.045667 54.602505 
L 404.328675 51.048206 
L 405.60716 49.659377 
L 406.794324 48.16373 
L 407.859728 46.578503 
L 409.138213 45.019921 
L 411.451661 41.689673 
L 412.730146 40.104204 
L 414.921834 36.834023 
L 416.230758 35.213745 
L 417.296162 33.56683 
L 419.761811 30.22005 
L 424.601789 23.582875 
L 425.423672 22.005759 
L 425.423672 22.005759 
" clip-path="url(#pfdda2c37af)" style="fill: none; stroke: #0033ff; stroke-width: 2.5; stroke-linecap: square"/>
   </g>
   <g id="line2d_35">
    <path d="M 69.091736 98.685518 
L 69.152616 112.644873 
L 69.152616 112.108714 
L 69.730979 107.135761 
L 71.192104 104.943967 
L 73.292471 101.508915 
L 75.5146 100.625355 
L 77.371446 100.070927 
L 78.954332 100.724376 
L 80.232817 100.982325 
L 81.328661 100.088142 
L 82.394065 100.361579 
L 83.550789 101.047754 
L 84.707513 101.274982 
L 85.894677 101.289799 
L 87.051401 102.348083 
L 88.269006 101.81965 
L 89.48661 101.775212 
L 90.673775 102.61091 
L 91.800059 102.06246 
L 92.987223 99.632337 
L 94.204828 98.837078 
L 95.361552 100.290044 
L 96.670476 103.405921 
L 97.948961 103.697316 
L 99.288326 104.964364 
L 100.50593 104.969807 
L 101.723535 103.765109 
L 102.941139 109.85521 
L 104.097863 110.757515 
L 105.285028 104.513954 
L 106.472192 103.25592 
L 107.689797 102.421529 
L 108.876961 103.780351 
L 110.094565 100.255874 
L 111.251289 99.324162 
L 113.625618 99.197854 
L 114.812782 99.530722 
L 116.030387 97.124142 
L 117.217551 95.398854 
L 118.374275 95.375844 
L 119.500559 95.544215 
L 120.779044 98.12784 
L 121.966208 98.20904 
L 124.279657 99.278644 
L 125.436381 98.485056 
L 126.714866 97.02984 
L 127.87159 96.680149 
L 129.089194 98.349714 
L 130.276359 98.403958 
L 131.433083 99.642056 
L 132.559367 100.655511 
L 133.807411 98.980147 
L 134.933696 97.086276 
L 136.12086 96.989057 
L 137.399345 94.807979 
L 138.647389 95.45901 
L 139.834553 95.426558 
L 141.052158 97.937931 
L 142.178442 97.359701 
L 143.365606 97.268206 
L 144.552771 98.434892 
L 145.770375 97.345456 
L 146.987979 97.184011 
L 148.175144 97.763927 
L 149.362308 96.214244 
L 150.549472 96.772671 
L 151.706197 95.705605 
L 152.862921 96.42167 
L 154.080525 94.715393 
L 155.206809 94.478847 
L 156.515734 92.702268 
L 157.702898 90.619484 
L 160.077227 89.374068 
L 161.233951 89.860223 
L 162.451556 90.01083 
L 163.63872 89.822944 
L 164.825884 90.743597 
L 165.952168 90.650169 
L 167.108893 90.373882 
L 168.356937 88.519468 
L 169.574542 88.439332 
L 170.731266 88.189039 
L 171.85755 87.084306 
L 173.075154 86.982516 
L 174.262319 86.204816 
L 175.479923 86.67947 
L 176.575767 86.278152 
L 177.823812 84.959075 
L 178.980536 83.919158 
L 180.19814 83.514571 
L 181.385304 83.361984 
L 182.542029 82.676042 
L 183.729193 81.841431 
L 184.977238 81.119348 
L 186.194842 80.888961 
L 187.351566 81.47327 
L 189.695455 81.344276 
L 190.913059 81.023174 
L 192.130664 80.208112 
L 193.226508 78.774675 
L 194.383232 77.843812 
L 196.818441 76.853912 
L 197.944725 76.608928 
L 199.223209 77.126057 
L 200.379934 77.876271 
L 201.627978 77.900265 
L 203.941426 76.350797 
L 205.098151 74.868323 
L 206.346195 74.089905 
L 207.53336 73.729835 
L 208.720524 73.75502 
L 209.907688 74.333398 
L 211.094853 76.003531 
L 212.251577 78.058134 
L 213.469181 79.323537 
L 214.656345 80.905311 
L 215.84351 82.072832 
L 217.000234 81.990323 
L 220.531287 80.328771 
L 221.718451 79.89312 
L 222.905615 80.229516 
L 224.09278 80.1295 
L 225.279944 79.491225 
L 226.436668 79.462926 
L 227.623833 79.923536 
L 228.810997 80.040793 
L 230.028601 80.444206 
L 231.215766 81.510894 
L 232.37249 81.857099 
L 233.559654 82.568951 
L 234.746818 83.077775 
L 235.933983 81.920312 
L 237.090707 81.178168 
L 238.277871 80.144734 
L 239.465036 79.491024 
L 240.62176 78.575823 
L 241.839364 78.881257 
L 243.026529 78.90353 
L 244.152813 78.643422 
L 245.370417 79.068787 
L 246.557581 78.683727 
L 247.775186 77.590314 
L 248.96235 77.425269 
L 250.119074 76.98533 
L 251.306239 76.18284 
L 252.493403 76.199461 
L 253.680567 76.924818 
L 256.054896 75.982383 
L 257.2725 75.265776 
L 258.429225 74.72991 
L 259.585949 73.970727 
L 260.803553 73.389093 
L 261.960277 72.129099 
L 263.147442 71.630312 
L 264.365046 70.948274 
L 265.582651 70.405851 
L 266.739375 69.703013 
L 267.896099 69.343698 
L 269.113703 69.516121 
L 270.300868 70.11978 
L 271.457592 70.980888 
L 272.675196 72.12011 
L 273.923241 73.079028 
L 275.110405 74.642005 
L 277.545614 75.710149 
L 278.671898 75.988965 
L 279.889503 75.964991 
L 281.076667 76.596954 
L 282.233391 76.04321 
L 283.420555 76.224264 
L 284.60772 76.666445 
L 286.951608 75.673816 
L 288.169213 76.078847 
L 291.730706 74.867053 
L 292.91787 75.016783 
L 295.231318 74.743782 
L 296.448923 74.852067 
L 297.666527 75.207258 
L 300.040856 76.452614 
L 301.16714 76.494179 
L 302.384744 76.379246 
L 303.541469 76.06319 
L 304.728633 76.361115 
L 307.072521 74.531565 
L 308.259686 74.580857 
L 309.44685 74.827556 
L 312.977903 74.886031 
L 315.382672 75.180029 
L 316.569836 74.268695 
L 317.72656 72.859454 
L 318.883284 72.162957 
L 321.288053 71.862414 
L 322.444777 72.251543 
L 323.571061 72.455776 
L 324.788666 73.414433 
L 325.91495 73.7688 
L 327.162995 73.311566 
L 328.350159 72.080376 
L 329.537323 71.345924 
L 330.663607 70.869853 
L 331.911652 70.718637 
L 333.129256 70.792026 
L 334.529501 71.187952 
L 335.838426 71.210535 
L 337.086471 71.917233 
L 340.678404 70.403146 
L 341.865568 70.253975 
L 344.239897 69.375217 
L 345.396621 69.393255 
L 346.522905 69.557813 
L 347.80139 69.432053 
L 348.927674 69.64566 
L 350.053958 69.457031 
L 351.271562 69.542515 
L 352.397846 69.982151 
L 353.645891 69.827348 
L 354.802615 69.364869 
L 355.989779 68.731425 
L 357.268264 68.352142 
L 358.394548 68.457749 
L 359.551272 67.892457 
L 360.768877 67.982067 
L 361.925601 67.76415 
L 364.239049 67.094272 
L 365.487094 66.829159 
L 366.704698 66.34458 
L 369.048587 65.806732 
L 371.362035 67.139338 
L 372.57964 68.125774 
L 374.893088 68.752962 
L 377.297857 70.024516 
L 378.454581 69.803392 
L 379.702626 70.217011 
L 380.85935 69.869437 
L 382.016074 69.913914 
L 383.264118 70.231452 
L 385.516687 69.4198 
L 386.795171 69.372464 
L 387.860575 68.819352 
L 389.10862 67.546233 
L 390.326224 66.797047 
L 391.422068 65.814599 
L 392.639673 63.82992 
L 393.796397 62.455361 
L 395.196642 61.427311 
L 400.18882 56.061294 
L 401.436865 54.604958 
L 402.593589 53.490241 
L 406.185522 49.058754 
L 407.220486 47.386928 
L 408.49897 45.925408 
L 410.934179 42.532748 
L 411.908263 40.853864 
L 413.156307 39.106184 
L 414.434792 37.553695 
L 415.469756 35.910382 
L 416.900441 34.371637 
L 417.904964 32.761563 
L 422.623182 26.239099 
L 424.99751 23.279029 
L 424.99751 23.279029 
" clip-path="url(#pfdda2c37af)" style="fill: none; stroke: #ff7f0e; stroke-width: 2.5; stroke-linecap: square"/>
   </g>
   <g id="line2d_36">
    <path d="M 78.832572 99.819753 
L 78.832572 105.372817 
L 78.771691 99.432863 
L 78.832572 100.720934 
L 79.410934 100.701841 
L 80.932939 102.660184 
L 83.094187 103.344938 
L 85.285875 101.842664 
L 87.203602 101.800865 
L 88.695167 100.994649 
L 89.912772 100.606149 
L 91.069496 101.062413 
L 92.10446 102.558627 
L 93.291624 101.292138 
L 94.387468 103.336177 
L 95.605073 104.900034 
L 96.883557 108.436349 
L 98.131602 108.748247 
L 99.410086 110.872567 
L 100.658131 112.127504 
L 101.875735 110.771622 
L 103.12378 108.667297 
L 104.250064 105.051264 
L 105.467668 102.073995 
L 106.624393 102.940919 
L 107.841997 104.784828 
L 109.059602 107.579395 
L 111.37305 108.314507 
L 112.560214 104.321679 
L 113.777819 101.849623 
L 115.025863 99.879872 
L 116.243468 98.824399 
L 117.339312 98.485424 
L 118.617796 99.641176 
L 119.804961 102.566163 
L 120.992125 102.570012 
L 122.179289 103.242409 
L 123.305573 101.822747 
L 124.492738 99.59467 
L 125.740782 99.618829 
L 126.897506 98.800342 
L 128.115111 99.06382 
L 129.271835 97.224645 
L 130.489439 98.155001 
L 131.646164 98.722306 
L 132.802888 99.13988 
L 135.207657 102.954115 
L 136.425261 100.968307 
L 137.673306 101.636642 
L 138.89091 99.739576 
L 140.108514 99.271581 
L 141.204358 95.849376 
L 142.421963 96.583805 
L 143.609127 95.04326 
L 144.796291 93.883415 
L 145.953016 93.06204 
L 147.17062 93.107622 
L 148.357784 92.709246 
L 149.544949 92.629961 
L 150.701673 91.477237 
L 151.888837 91.641523 
L 153.106442 91.06583 
L 154.324046 91.914963 
L 155.51121 91.244593 
L 156.698375 90.370657 
L 157.915979 88.949706 
L 159.072703 87.944584 
L 160.290308 87.6564 
L 161.477472 85.763321 
L 162.664636 85.086592 
L 163.851801 83.990483 
L 164.978085 83.250546 
L 166.195689 82.889543 
L 167.382854 82.114748 
L 168.600458 81.851279 
L 169.757182 81.75717 
L 170.944347 81.425187 
L 172.131511 80.932071 
L 173.318675 79.961481 
L 174.475399 80.506107 
L 175.693004 79.572829 
L 176.910608 78.008637 
L 179.284937 75.328414 
L 180.441661 74.839368 
L 181.628825 73.856295 
L 182.84643 73.29847 
L 184.064034 73.318244 
L 185.281639 72.710401 
L 186.407923 72.698943 
L 188.751811 69.97092 
L 189.999856 68.708139 
L 193.530909 66.635822 
L 194.718073 66.459746 
L 195.905237 66.03516 
L 197.061961 65.445382 
L 198.279566 65.476751 
L 200.623454 64.067868 
L 201.810619 63.219922 
L 202.997783 62.217336 
L 204.184947 60.719329 
L 206.589716 59.09732 
L 207.77688 57.89025 
L 210.120769 56.76594 
L 211.307933 56.306083 
L 212.495098 56.025118 
L 213.651822 55.943955 
L 214.869426 55.683327 
L 216.056591 55.656476 
L 217.243755 56.155633 
L 218.400479 56.359462 
L 219.587643 56.364711 
L 220.744368 56.795326 
L 221.961972 56.90573 
L 223.118696 57.329844 
L 224.336301 57.651601 
L 227.897794 57.882145 
L 230.241682 57.285818 
L 231.428846 56.697441 
L 232.585571 56.647575 
L 233.772735 56.212859 
L 234.990339 56.095732 
L 236.177504 55.836118 
L 237.303788 55.283904 
L 238.490952 55.139447 
L 239.738997 54.671543 
L 240.834841 54.457207 
L 242.052445 54.618761 
L 243.239609 54.293049 
L 244.426774 54.615814 
L 245.583498 54.685563 
L 246.740222 54.969682 
L 247.896946 54.975545 
L 249.084111 54.847657 
L 250.362595 54.867218 
L 251.519319 54.651979 
L 252.706484 54.731777 
L 253.863208 54.531581 
L 255.080812 54.0886 
L 257.546461 53.796009 
L 258.703186 53.896844 
L 259.89035 53.83478 
L 263.390963 54.570652 
L 264.608567 54.630292 
L 266.952456 54.531987 
L 272.918717 55.047272 
L 274.136322 55.003265 
L 275.384366 54.822973 
L 276.54109 54.462706 
L 278.915419 54.368219 
L 281.350628 54.597839 
L 282.476912 54.474549 
L 284.820801 53.964383 
L 287.195129 54.092196 
L 289.630338 53.815609 
L 291.943786 53.759794 
L 293.191831 53.403041 
L 295.53572 52.198448 
L 296.692444 52.150508 
L 299.066772 52.286288 
L 300.223497 52.591389 
L 301.441101 52.364089 
L 302.628265 52.373833 
L 303.78499 52.191893 
L 307.376923 50.890166 
L 308.533647 50.903241 
L 309.690371 50.689283 
L 310.847095 50.681483 
L 312.09514 50.936285 
L 314.439028 50.341756 
L 315.595752 50.051727 
L 316.752477 49.539904 
L 319.126805 49.063564 
L 320.37485 48.978689 
L 321.501134 48.607097 
L 322.718738 48.371385 
L 323.875463 48.309638 
L 325.062627 47.965646 
L 326.280231 47.356284 
L 327.436956 47.078644 
L 328.59368 46.655625 
L 329.780844 46.444186 
L 333.342337 45.226064 
L 334.833902 44.939509 
L 336.021067 44.961081 
L 337.329991 44.649454 
L 338.517156 44.213548 
L 339.70432 44.205537 
L 345.609702 43.228366 
L 347.98403 43.583332 
L 350.358359 43.484278 
L 353.889412 44.111929 
L 356.20286 44.841746 
L 357.450905 45.159167 
L 358.607629 45.775888 
L 361.012398 46.507026 
L 363.417166 47.380932 
L 365.700175 48.476134 
L 366.887339 49.106275 
L 369.413868 49.763172 
L 370.479272 50.127486 
L 372.823161 50.555431 
L 374.040765 50.664278 
L 376.354213 51.797696 
L 378.698102 53.39656 
L 379.854826 54.065302 
L 381.04199 54.450575 
L 382.229155 54.668817 
L 384.633923 54.72998 
L 385.760208 54.72499 
L 386.977812 54.905037 
L 389.352141 55.002922 
L 391.696029 54.530754 
L 392.974514 53.853357 
L 398.088452 52.435195 
L 400.371461 51.005382 
L 401.710826 50.136316 
L 405.089678 46.792877 
L 406.429043 45.450656 
L 415.865477 34.194374 
L 419.42697 29.864608 
L 424.206067 23.484717 
L 425.149711 21.755686 
L 425.149711 21.755686 
" clip-path="url(#pfdda2c37af)" style="fill: none; stroke: #ff0000; stroke-width: 2.5; stroke-linecap: square"/>
   </g>
   <g id="patch_3">
    <path d="M 60.598945 299.540021 
L 60.598945 8.52786 
" style="fill: none; stroke: #000000; stroke-width: 1.5; stroke-linejoin: miter; stroke-linecap: square"/>
   </g>
   <g id="patch_4">
    <path d="M 60.598945 299.540021 
L 425.880273 299.540021 
" style="fill: none; stroke: #000000; stroke-width: 1.5; stroke-linejoin: miter; stroke-linecap: square"/>
   </g>
   <g id="legend_1">
    <g id="line2d_37">
     <path d="M 71.398945 23.864188 
L 83.398945 23.864188 
L 95.398945 23.864188 
" style="fill: none; stroke: #000000; stroke-width: 2.5; stroke-linecap: square"/>
    </g>
    <g id="text_16">
     <!-- vacuum -->
     <g transform="translate(104.998945 28.064188) scale(0.12 -0.12)">
      <defs>
       <path id="ArialMT-59" d="M 1344 0 
L 81 3319 
L 675 3319 
L 1388 1331 
Q 1503 1009 1600 663 
Q 1675 925 1809 1294 
L 2547 3319 
L 3125 3319 
L 1869 0 
L 1344 0 
z
" transform="scale(0.015625)"/>
       <path id="ArialMT-46" d="M 2588 1216 
L 3141 1144 
Q 3050 572 2676 248 
Q 2303 -75 1759 -75 
Q 1078 -75 664 370 
Q 250 816 250 1647 
Q 250 2184 428 2587 
Q 606 2991 970 3192 
Q 1334 3394 1763 3394 
Q 2303 3394 2647 3120 
Q 2991 2847 3088 2344 
L 2541 2259 
Q 2463 2594 2264 2762 
Q 2066 2931 1784 2931 
Q 1359 2931 1093 2626 
Q 828 2322 828 1663 
Q 828 994 1084 691 
Q 1341 388 1753 388 
Q 2084 388 2306 591 
Q 2528 794 2588 1216 
z
" transform="scale(0.015625)"/>
      </defs>
      <use xlink:href="#ArialMT-59"/>
      <use xlink:href="#ArialMT-44" transform="translate(50 0)"/>
      <use xlink:href="#ArialMT-46" transform="translate(105.609375 0)"/>
      <use xlink:href="#ArialMT-58" transform="translate(155.609375 0)"/>
      <use xlink:href="#ArialMT-58" transform="translate(211.21875 0)"/>
      <use xlink:href="#ArialMT-50" transform="translate(266.828125 0)"/>
     </g>
    </g>
    <g id="line2d_38">
     <path d="M 71.398945 41.125907 
L 83.398945 41.125907 
L 95.398945 41.125907 
" style="fill: none; stroke: #1f77b4; stroke-width: 2.5; stroke-linecap: square"/>
    </g>
    <g id="text_17">
     <!-- 1h -->
     <g transform="translate(104.998945 45.325907) scale(0.12 -0.12)">
      <defs>
       <path id="ArialMT-4b" d="M 422 0 
L 422 4581 
L 984 4581 
L 984 2938 
Q 1378 3394 1978 3394 
Q 2347 3394 2619 3248 
Q 2891 3103 3008 2847 
Q 3125 2591 3125 2103 
L 3125 0 
L 2563 0 
L 2563 2103 
Q 2563 2525 2380 2717 
Q 2197 2909 1863 2909 
Q 1613 2909 1392 2779 
Q 1172 2650 1078 2428 
Q 984 2206 984 1816 
L 984 0 
L 422 0 
z
" transform="scale(0.015625)"/>
      </defs>
      <use xlink:href="#ArialMT-14"/>
      <use xlink:href="#ArialMT-4b" transform="translate(55.609375 0)"/>
     </g>
    </g>
    <g id="line2d_39">
     <path d="M 71.398945 58.387626 
L 83.398945 58.387626 
L 95.398945 58.387626 
" style="fill: none; stroke: #0033ff; stroke-width: 2.5; stroke-linecap: square"/>
    </g>
    <g id="text_18">
     <!-- 2h -->
     <g transform="translate(104.998945 62.587626) scale(0.12 -0.12)">
      <use xlink:href="#ArialMT-15"/>
      <use xlink:href="#ArialMT-4b" transform="translate(55.609375 0)"/>
     </g>
    </g>
    <g id="line2d_40">
     <path d="M 71.398945 75.649345 
L 83.398945 75.649345 
L 95.398945 75.649345 
" style="fill: none; stroke: #ff7f0e; stroke-width: 2.5; stroke-linecap: square"/>
    </g>
    <g id="text_19">
     <!-- 4h -->
     <g transform="translate(104.998945 79.849345) scale(0.12 -0.12)">
      <use xlink:href="#ArialMT-17"/>
      <use xlink:href="#ArialMT-4b" transform="translate(55.609375 0)"/>
     </g>
    </g>
    <g id="line2d_41">
     <path d="M 71.398945 92.911063 
L 83.398945 92.911063 
L 95.398945 92.911063 
" style="fill: none; stroke: #ff0000; stroke-width: 2.5; stroke-linecap: square"/>
    </g>
    <g id="text_20">
     <!-- first -->
     <g transform="translate(104.998945 97.111063) scale(0.12 -0.12)">
      <defs>
       <path id="ArialMT-49" d="M 556 0 
L 556 2881 
L 59 2881 
L 59 3319 
L 556 3319 
L 556 3672 
Q 556 4006 616 4169 
Q 697 4388 901 4523 
Q 1106 4659 1475 4659 
Q 1713 4659 2000 4603 
L 1916 4113 
Q 1741 4144 1584 4144 
Q 1328 4144 1222 4034 
Q 1116 3925 1116 3625 
L 1116 3319 
L 1763 3319 
L 1763 2881 
L 1116 2881 
L 1116 0 
L 556 0 
z
" transform="scale(0.015625)"/>
       <path id="ArialMT-4c" d="M 425 3934 
L 425 4581 
L 988 4581 
L 988 3934 
L 425 3934 
z
M 425 0 
L 425 3319 
L 988 3319 
L 988 0 
L 425 0 
z
" transform="scale(0.015625)"/>
       <path id="ArialMT-56" d="M 197 991 
L 753 1078 
Q 800 744 1014 566 
Q 1228 388 1613 388 
Q 2000 388 2187 545 
Q 2375 703 2375 916 
Q 2375 1106 2209 1216 
Q 2094 1291 1634 1406 
Q 1016 1563 777 1677 
Q 538 1791 414 1992 
Q 291 2194 291 2438 
Q 291 2659 392 2848 
Q 494 3038 669 3163 
Q 800 3259 1026 3326 
Q 1253 3394 1513 3394 
Q 1903 3394 2198 3281 
Q 2494 3169 2634 2976 
Q 2775 2784 2828 2463 
L 2278 2388 
Q 2241 2644 2061 2787 
Q 1881 2931 1553 2931 
Q 1166 2931 1000 2803 
Q 834 2675 834 2503 
Q 834 2394 903 2306 
Q 972 2216 1119 2156 
Q 1203 2125 1616 2013 
Q 2213 1853 2448 1751 
Q 2684 1650 2818 1456 
Q 2953 1263 2953 975 
Q 2953 694 2789 445 
Q 2625 197 2315 61 
Q 2006 -75 1616 -75 
Q 969 -75 630 194 
Q 291 463 197 991 
z
" transform="scale(0.015625)"/>
      </defs>
      <use xlink:href="#ArialMT-49"/>
      <use xlink:href="#ArialMT-4c" transform="translate(27.78125 0)"/>
      <use xlink:href="#ArialMT-55" transform="translate(50 0)"/>
      <use xlink:href="#ArialMT-56" transform="translate(83.296875 0)"/>
      <use xlink:href="#ArialMT-57" transform="translate(133.296875 0)"/>
     </g>
    </g>
   </g>
  </g>
 </g>
 <defs>
  <clipPath id="pfdda2c37af">
   <rect x="60.598945" y="8.52786" width="365.281328" height="291.012161"/>
  </clipPath>
 </defs>
</svg>
