<?xml version="1.0" encoding="utf-8" standalone="no"?>
<!DOCTYPE svg PUBLIC "-//W3C//DTD SVG 1.1//EN"
  "http://www.w3.org/Graphics/SVG/1.1/DTD/svg11.dtd">
<svg xmlns:xlink="http://www.w3.org/1999/xlink" width="448.650898pt" height="340.800273pt" viewBox="0 0 448.650898 340.800273" xmlns="http://www.w3.org/2000/svg" version="1.1">
 <metadata>
  <rdf:RDF xmlns:dc="http://purl.org/dc/elements/1.1/" xmlns:cc="http://creativecommons.org/ns#" xmlns:rdf="http://www.w3.org/1999/02/22-rdf-syntax-ns#">
   <cc:Work>
    <dc:type rdf:resource="http://purl.org/dc/dcmitype/StillImage"/>
    <dc:date>2026-07-09T17:08:32.366001</dc:date>
    <dc:format>image/svg+xml</dc:format>
    <dc:creator>
     <cc:Agent>
      <dc:title>Matplotlib v3.11.0, https://matplotlib.org/</dc:title>
     </cc:Agent>
    </dc:creator>
   </cc:Work>
  </rdf:RDF>
 </metadata>
 <defs>
  <style type="text/css">*{stroke-linejoin: round; stroke-linecap: butt}</style>
 </defs>
 <g id="figure_1">
  <g id="patch_1">
   <path d="M 0 340.800273 
L 448.650898 340.800273 
L 448.650898 0 
L 0 0 
z
" style="fill: #ffffff"/>
  </g>
  <g id="axes_1">
   <g id="patch_2">
    <path d="M 60.598945 299.822656 
L 425.880273 299.822656 
L 425.880273 7.2 
L 60.598945 7.2 
z
" style="fill: #ffffff"/>
   </g>
   <g id="matplotlib.axis_1">
    <g id="xtick_1">
     <g id="line2d_1">
      <defs>
       <path id="mecb72979ce" d="M 0 0 
L 0 -6 
" style="stroke: #000000; stroke-width: 1.5"/>
      </defs>
      <g>
       <use xlink:href="#mecb72979ce" x="60.598945" y="299.822656" style="stroke: #000000; stroke-width: 1.5"/>
      </g>
     </g>
     <g id="text_1">
      <!-- 0 -->
      <g transform="translate(56.706289 313.515039) scale(0.14 -0.14)">
       <defs>
        <path id="ArialMT-13" d="M 266 2259 
Q 266 3072 433 3567 
Q 600 4063 929 4331 
Q 1259 4600 1759 4600 
Q 2128 4600 2406 4451 
Q 2684 4303 2865 4023 
Q 3047 3744 3150 3342 
Q 3253 2941 3253 2259 
Q 3253 1453 3087 958 
Q 2922 463 2592 192 
Q 2263 -78 1759 -78 
Q 1097 -78 719 397 
Q 266 969 266 2259 
z
M 844 2259 
Q 844 1131 1108 757 
Q 1372 384 1759 384 
Q 2147 384 2411 759 
Q 2675 1134 2675 2259 
Q 2675 3391 2411 3762 
Q 2147 4134 1753 4134 
Q 1366 4134 1134 3806 
Q 844 3388 844 2259 
z
" transform="scale(0.015625)"/>
       </defs>
       <use xlink:href="#ArialMT-13"/>
      </g>
     </g>
    </g>
    <g id="xtick_2">
     <g id="line2d_2">
      <g>
       <use xlink:href="#mecb72979ce" x="121.479167" y="299.822656" style="stroke: #000000; stroke-width: 1.5"/>
      </g>
     </g>
     <g id="text_2">
      <!-- 200 -->
      <g transform="translate(109.801198 313.515039) scale(0.14 -0.14)">
       <defs>
        <path id="ArialMT-15" d="M 3222 541 
L 3222 0 
L 194 0 
Q 188 203 259 391 
Q 375 700 629 1000 
Q 884 1300 1366 1694 
Q 2113 2306 2375 2664 
Q 2638 3022 2638 3341 
Q 2638 3675 2398 3904 
Q 2159 4134 1775 4134 
Q 1369 4134 1125 3890 
Q 881 3647 878 3216 
L 300 3275 
Q 359 3922 746 4261 
Q 1134 4600 1788 4600 
Q 2447 4600 2831 4234 
Q 3216 3869 3216 3328 
Q 3216 3053 3103 2787 
Q 2991 2522 2730 2228 
Q 2469 1934 1863 1422 
Q 1356 997 1212 845 
Q 1069 694 975 541 
L 3222 541 
z
" transform="scale(0.015625)"/>
       </defs>
       <use xlink:href="#ArialMT-15"/>
       <use xlink:href="#ArialMT-13" transform="translate(55.609375 0)"/>
       <use xlink:href="#ArialMT-13" transform="translate(111.21875 0)"/>
      </g>
     </g>
    </g>
    <g id="xtick_3">
     <g id="line2d_3">
      <g>
       <use xlink:href="#mecb72979ce" x="182.359388" y="299.822656" style="stroke: #000000; stroke-width: 1.5"/>
      </g>
     </g>
     <g id="text_3">
      <!-- 400 -->
      <g transform="translate(170.681419 313.515039) scale(0.14 -0.14)">
       <defs>
        <path id="ArialMT-17" d="M 2069 0 
L 2069 1097 
L 81 1097 
L 81 1613 
L 2172 4581 
L 2631 4581 
L 2631 1613 
L 3250 1613 
L 3250 1097 
L 2631 1097 
L 2631 0 
L 2069 0 
z
M 2069 1613 
L 2069 3678 
L 634 1613 
L 2069 1613 
z
" transform="scale(0.015625)"/>
       </defs>
       <use xlink:href="#ArialMT-17"/>
       <use xlink:href="#ArialMT-13" transform="translate(55.609375 0)"/>
       <use xlink:href="#ArialMT-13" transform="translate(111.21875 0)"/>
      </g>
     </g>
    </g>
    <g id="xtick_4">
     <g id="line2d_4">
      <g>
       <use xlink:href="#mecb72979ce" x="243.239609" y="299.822656" style="stroke: #000000; stroke-width: 1.5"/>
      </g>
     </g>
     <g id="text_4">
      <!-- 600 -->
      <g transform="translate(231.561641 313.515039) scale(0.14 -0.14)">
       <defs>
        <path id="ArialMT-19" d="M 3184 3459 
L 2625 3416 
Q 2550 3747 2413 3897 
Q 2184 4138 1850 4138 
Q 1581 4138 1378 3988 
Q 1113 3794 959 3422 
Q 806 3050 800 2363 
Q 1003 2672 1297 2822 
Q 1591 2972 1913 2972 
Q 2475 2972 2870 2558 
Q 3266 2144 3266 1488 
Q 3266 1056 3080 686 
Q 2894 316 2569 119 
Q 2244 -78 1831 -78 
Q 1128 -78 684 439 
Q 241 956 241 2144 
Q 241 3472 731 4075 
Q 1159 4600 1884 4600 
Q 2425 4600 2770 4297 
Q 3116 3994 3184 3459 
z
M 888 1484 
Q 888 1194 1011 928 
Q 1134 663 1356 523 
Q 1578 384 1822 384 
Q 2178 384 2434 671 
Q 2691 959 2691 1453 
Q 2691 1928 2437 2201 
Q 2184 2475 1800 2475 
Q 1419 2475 1153 2201 
Q 888 1928 888 1484 
z
" transform="scale(0.015625)"/>
       </defs>
       <use xlink:href="#ArialMT-19"/>
       <use xlink:href="#ArialMT-13" transform="translate(55.609375 0)"/>
       <use xlink:href="#ArialMT-13" transform="translate(111.21875 0)"/>
      </g>
     </g>
    </g>
    <g id="xtick_5">
     <g id="line2d_5">
      <g>
       <use xlink:href="#mecb72979ce" x="304.119831" y="299.822656" style="stroke: #000000; stroke-width: 1.5"/>
      </g>
     </g>
     <g id="text_5">
      <!-- 800 -->
      <g transform="translate(292.441862 313.515039) scale(0.14 -0.14)">
       <defs>
        <path id="ArialMT-1b" d="M 1131 2484 
Q 781 2613 612 2850 
Q 444 3088 444 3419 
Q 444 3919 803 4259 
Q 1163 4600 1759 4600 
Q 2359 4600 2725 4251 
Q 3091 3903 3091 3403 
Q 3091 3084 2923 2848 
Q 2756 2613 2416 2484 
Q 2838 2347 3058 2040 
Q 3278 1734 3278 1309 
Q 3278 722 2862 322 
Q 2447 -78 1769 -78 
Q 1091 -78 675 323 
Q 259 725 259 1325 
Q 259 1772 486 2073 
Q 713 2375 1131 2484 
z
M 1019 3438 
Q 1019 3113 1228 2906 
Q 1438 2700 1772 2700 
Q 2097 2700 2305 2904 
Q 2513 3109 2513 3406 
Q 2513 3716 2298 3927 
Q 2084 4138 1766 4138 
Q 1444 4138 1231 3931 
Q 1019 3725 1019 3438 
z
M 838 1322 
Q 838 1081 952 856 
Q 1066 631 1291 507 
Q 1516 384 1775 384 
Q 2178 384 2440 643 
Q 2703 903 2703 1303 
Q 2703 1709 2433 1975 
Q 2163 2241 1756 2241 
Q 1359 2241 1098 1978 
Q 838 1716 838 1322 
z
" transform="scale(0.015625)"/>
       </defs>
       <use xlink:href="#ArialMT-1b"/>
       <use xlink:href="#ArialMT-13" transform="translate(55.609375 0)"/>
       <use xlink:href="#ArialMT-13" transform="translate(111.21875 0)"/>
      </g>
     </g>
    </g>
    <g id="xtick_6">
     <g id="line2d_6">
      <g>
       <use xlink:href="#mecb72979ce" x="365.000052" y="299.822656" style="stroke: #000000; stroke-width: 1.5"/>
      </g>
     </g>
     <g id="text_6">
      <!-- 1000 -->
      <g transform="translate(349.429427 313.515039) scale(0.14 -0.14)">
       <defs>
        <path id="ArialMT-14" d="M 2384 0 
L 1822 0 
L 1822 3584 
Q 1619 3391 1289 3197 
Q 959 3003 697 2906 
L 697 3450 
Q 1169 3672 1522 3987 
Q 1875 4303 2022 4600 
L 2384 4600 
L 2384 0 
z
" transform="scale(0.015625)"/>
       </defs>
       <use xlink:href="#ArialMT-14"/>
       <use xlink:href="#ArialMT-13" transform="translate(55.609375 0)"/>
       <use xlink:href="#ArialMT-13" transform="translate(111.21875 0)"/>
       <use xlink:href="#ArialMT-13" transform="translate(166.828125 0)"/>
      </g>
     </g>
    </g>
    <g id="xtick_7">
     <g id="line2d_7">
      <g>
       <use xlink:href="#mecb72979ce" x="425.880273" y="299.822656" style="stroke: #000000; stroke-width: 1.5"/>
      </g>
     </g>
     <g id="text_7">
      <!-- 1200 -->
      <g transform="translate(410.309648 313.515039) scale(0.14 -0.14)">
       <use xlink:href="#ArialMT-14"/>
       <use xlink:href="#ArialMT-15" transform="translate(55.609375 0)"/>
       <use xlink:href="#ArialMT-13" transform="translate(111.21875 0)"/>
       <use xlink:href="#ArialMT-13" transform="translate(166.828125 0)"/>
      </g>
     </g>
    </g>
    <g id="xtick_8">
     <g id="line2d_8">
      <defs>
       <path id="m9378ee3ce2" d="M 0 0 
L 0 -3 
" style="stroke: #000000"/>
      </defs>
      <g>
       <use xlink:href="#m9378ee3ce2" x="75.819001" y="299.822656" style="stroke: #000000"/>
      </g>
     </g>
    </g>
    <g id="xtick_9">
     <g id="line2d_9">
      <g>
       <use xlink:href="#m9378ee3ce2" x="91.039056" y="299.822656" style="stroke: #000000"/>
      </g>
     </g>
    </g>
    <g id="xtick_10">
     <g id="line2d_10">
      <g>
       <use xlink:href="#m9378ee3ce2" x="106.259111" y="299.822656" style="stroke: #000000"/>
      </g>
     </g>
    </g>
    <g id="xtick_11">
     <g id="line2d_11">
      <g>
       <use xlink:href="#m9378ee3ce2" x="136.699222" y="299.822656" style="stroke: #000000"/>
      </g>
     </g>
    </g>
    <g id="xtick_12">
     <g id="line2d_12">
      <g>
       <use xlink:href="#m9378ee3ce2" x="151.919277" y="299.822656" style="stroke: #000000"/>
      </g>
     </g>
    </g>
    <g id="xtick_13">
     <g id="line2d_13">
      <g>
       <use xlink:href="#m9378ee3ce2" x="167.139333" y="299.822656" style="stroke: #000000"/>
      </g>
     </g>
    </g>
    <g id="xtick_14">
     <g id="line2d_14">
      <g>
       <use xlink:href="#m9378ee3ce2" x="197.579443" y="299.822656" style="stroke: #000000"/>
      </g>
     </g>
    </g>
    <g id="xtick_15">
     <g id="line2d_15">
      <g>
       <use xlink:href="#m9378ee3ce2" x="212.799499" y="299.822656" style="stroke: #000000"/>
      </g>
     </g>
    </g>
    <g id="xtick_16">
     <g id="line2d_16">
      <g>
       <use xlink:href="#m9378ee3ce2" x="228.019554" y="299.822656" style="stroke: #000000"/>
      </g>
     </g>
    </g>
    <g id="xtick_17">
     <g id="line2d_17">
      <g>
       <use xlink:href="#m9378ee3ce2" x="258.459665" y="299.822656" style="stroke: #000000"/>
      </g>
     </g>
    </g>
    <g id="xtick_18">
     <g id="line2d_18">
      <g>
       <use xlink:href="#m9378ee3ce2" x="273.67972" y="299.822656" style="stroke: #000000"/>
      </g>
     </g>
    </g>
    <g id="xtick_19">
     <g id="line2d_19">
      <g>
       <use xlink:href="#m9378ee3ce2" x="288.899775" y="299.822656" style="stroke: #000000"/>
      </g>
     </g>
    </g>
    <g id="xtick_20">
     <g id="line2d_20">
      <g>
       <use xlink:href="#m9378ee3ce2" x="319.339886" y="299.822656" style="stroke: #000000"/>
      </g>
     </g>
    </g>
    <g id="xtick_21">
     <g id="line2d_21">
      <g>
       <use xlink:href="#m9378ee3ce2" x="334.559941" y="299.822656" style="stroke: #000000"/>
      </g>
     </g>
    </g>
    <g id="xtick_22">
     <g id="line2d_22">
      <g>
       <use xlink:href="#m9378ee3ce2" x="349.779997" y="299.822656" style="stroke: #000000"/>
      </g>
     </g>
    </g>
    <g id="xtick_23">
     <g id="line2d_23">
      <g>
       <use xlink:href="#m9378ee3ce2" x="380.220107" y="299.822656" style="stroke: #000000"/>
      </g>
     </g>
    </g>
    <g id="xtick_24">
     <g id="line2d_24">
      <g>
       <use xlink:href="#m9378ee3ce2" x="395.440163" y="299.822656" style="stroke: #000000"/>
      </g>
     </g>
    </g>
    <g id="xtick_25">
     <g id="line2d_25">
      <g>
       <use xlink:href="#m9378ee3ce2" x="410.660218" y="299.822656" style="stroke: #000000"/>
      </g>
     </g>
    </g>
    <g id="text_8">
     <!-- T1 Temperature (°C) -->
     <g transform="translate(179.500234 330.653711) scale(0.14 -0.14)">
      <defs>
       <path id="ArialMT-37" d="M 1659 0 
L 1659 4041 
L 150 4041 
L 150 4581 
L 3781 4581 
L 3781 4041 
L 2266 4041 
L 2266 0 
L 1659 0 
z
" transform="scale(0.015625)"/>
       <path id="ArialMT-3" transform="scale(0.015625)"/>
       <path id="ArialMT-48" d="M 2694 1069 
L 3275 997 
Q 3138 488 2766 206 
Q 2394 -75 1816 -75 
Q 1088 -75 661 373 
Q 234 822 234 1631 
Q 234 2469 665 2931 
Q 1097 3394 1784 3394 
Q 2450 3394 2872 2941 
Q 3294 2488 3294 1666 
Q 3294 1616 3291 1516 
L 816 1516 
Q 847 969 1125 678 
Q 1403 388 1819 388 
Q 2128 388 2347 550 
Q 2566 713 2694 1069 
z
M 847 1978 
L 2700 1978 
Q 2663 2397 2488 2606 
Q 2219 2931 1791 2931 
Q 1403 2931 1139 2672 
Q 875 2413 847 1978 
z
" transform="scale(0.015625)"/>
       <path id="ArialMT-50" d="M 422 0 
L 422 3319 
L 925 3319 
L 925 2853 
Q 1081 3097 1340 3245 
Q 1600 3394 1931 3394 
Q 2300 3394 2536 3241 
Q 2772 3088 2869 2813 
Q 3263 3394 3894 3394 
Q 4388 3394 4653 3120 
Q 4919 2847 4919 2278 
L 4919 0 
L 4359 0 
L 4359 2091 
Q 4359 2428 4304 2576 
Q 4250 2725 4106 2815 
Q 3963 2906 3769 2906 
Q 3419 2906 3187 2673 
Q 2956 2441 2956 1928 
L 2956 0 
L 2394 0 
L 2394 2156 
Q 2394 2531 2256 2718 
Q 2119 2906 1806 2906 
Q 1569 2906 1367 2781 
Q 1166 2656 1075 2415 
Q 984 2175 984 1722 
L 984 0 
L 422 0 
z
" transform="scale(0.015625)"/>
       <path id="ArialMT-53" d="M 422 -1272 
L 422 3319 
L 934 3319 
L 934 2888 
Q 1116 3141 1344 3267 
Q 1572 3394 1897 3394 
Q 2322 3394 2647 3175 
Q 2972 2956 3137 2557 
Q 3303 2159 3303 1684 
Q 3303 1175 3120 767 
Q 2938 359 2589 142 
Q 2241 -75 1856 -75 
Q 1575 -75 1351 44 
Q 1128 163 984 344 
L 984 -1272 
L 422 -1272 
z
M 931 1641 
Q 931 1000 1190 694 
Q 1450 388 1819 388 
Q 2194 388 2461 705 
Q 2728 1022 2728 1688 
Q 2728 2322 2467 2637 
Q 2206 2953 1844 2953 
Q 1484 2953 1207 2617 
Q 931 2281 931 1641 
z
" transform="scale(0.015625)"/>
       <path id="ArialMT-55" d="M 416 0 
L 416 3319 
L 922 3319 
L 922 2816 
Q 1116 3169 1280 3281 
Q 1444 3394 1641 3394 
Q 1925 3394 2219 3213 
L 2025 2691 
Q 1819 2813 1613 2813 
Q 1428 2813 1281 2702 
Q 1134 2591 1072 2394 
Q 978 2094 978 1738 
L 978 0 
L 416 0 
z
" transform="scale(0.015625)"/>
       <path id="ArialMT-44" d="M 2588 409 
Q 2275 144 1986 34 
Q 1697 -75 1366 -75 
Q 819 -75 525 192 
Q 231 459 231 875 
Q 231 1119 342 1320 
Q 453 1522 633 1644 
Q 813 1766 1038 1828 
Q 1203 1872 1538 1913 
Q 2219 1994 2541 2106 
Q 2544 2222 2544 2253 
Q 2544 2597 2384 2738 
Q 2169 2928 1744 2928 
Q 1347 2928 1158 2789 
Q 969 2650 878 2297 
L 328 2372 
Q 403 2725 575 2942 
Q 747 3159 1072 3276 
Q 1397 3394 1825 3394 
Q 2250 3394 2515 3294 
Q 2781 3194 2906 3042 
Q 3031 2891 3081 2659 
Q 3109 2516 3109 2141 
L 3109 1391 
Q 3109 606 3145 398 
Q 3181 191 3288 0 
L 2700 0 
Q 2613 175 2588 409 
z
M 2541 1666 
Q 2234 1541 1622 1453 
Q 1275 1403 1131 1340 
Q 988 1278 909 1158 
Q 831 1038 831 891 
Q 831 666 1001 516 
Q 1172 366 1500 366 
Q 1825 366 2078 508 
Q 2331 650 2450 897 
Q 2541 1088 2541 1459 
L 2541 1666 
z
" transform="scale(0.015625)"/>
       <path id="ArialMT-57" d="M 1650 503 
L 1731 6 
Q 1494 -44 1306 -44 
Q 1000 -44 831 53 
Q 663 150 594 308 
Q 525 466 525 972 
L 525 2881 
L 113 2881 
L 113 3319 
L 525 3319 
L 525 4141 
L 1084 4478 
L 1084 3319 
L 1650 3319 
L 1650 2881 
L 1084 2881 
L 1084 941 
Q 1084 700 1114 631 
Q 1144 563 1211 522 
Q 1278 481 1403 481 
Q 1497 481 1650 503 
z
" transform="scale(0.015625)"/>
       <path id="ArialMT-58" d="M 2597 0 
L 2597 488 
Q 2209 -75 1544 -75 
Q 1250 -75 995 37 
Q 741 150 617 320 
Q 494 491 444 738 
Q 409 903 409 1263 
L 409 3319 
L 972 3319 
L 972 1478 
Q 972 1038 1006 884 
Q 1059 663 1231 536 
Q 1403 409 1656 409 
Q 1909 409 2131 539 
Q 2353 669 2445 892 
Q 2538 1116 2538 1541 
L 2538 3319 
L 3100 3319 
L 3100 0 
L 2597 0 
z
" transform="scale(0.015625)"/>
       <path id="ArialMT-b" d="M 1497 -1347 
Q 1031 -759 709 28 
Q 388 816 388 1659 
Q 388 2403 628 3084 
Q 909 3875 1497 4659 
L 1900 4659 
Q 1522 4009 1400 3731 
Q 1209 3300 1100 2831 
Q 966 2247 966 1656 
Q 966 153 1900 -1347 
L 1497 -1347 
z
" transform="scale(0.015625)"/>
       <path id="ArialMT-83" d="M 400 3794 
Q 400 4153 654 4406 
Q 909 4659 1266 4659 
Q 1628 4659 1881 4406 
Q 2134 4153 2134 3794 
Q 2134 3434 1879 3179 
Q 1625 2925 1266 2925 
Q 909 2925 654 3178 
Q 400 3431 400 3794 
z
M 741 3794 
Q 741 3575 895 3420 
Q 1050 3266 1269 3266 
Q 1484 3266 1639 3420 
Q 1794 3575 1794 3794 
Q 1794 4013 1639 4167 
Q 1484 4322 1269 4322 
Q 1050 4322 895 4167 
Q 741 4013 741 3794 
z
" transform="scale(0.015625)"/>
       <path id="ArialMT-26" d="M 3763 1606 
L 4369 1453 
Q 4178 706 3683 314 
Q 3188 -78 2472 -78 
Q 1731 -78 1267 223 
Q 803 525 561 1097 
Q 319 1669 319 2325 
Q 319 3041 592 3573 
Q 866 4106 1370 4382 
Q 1875 4659 2481 4659 
Q 3169 4659 3637 4309 
Q 4106 3959 4291 3325 
L 3694 3184 
Q 3534 3684 3231 3912 
Q 2928 4141 2469 4141 
Q 1941 4141 1586 3887 
Q 1231 3634 1087 3207 
Q 944 2781 944 2328 
Q 944 1744 1114 1308 
Q 1284 872 1643 656 
Q 2003 441 2422 441 
Q 2931 441 3284 734 
Q 3638 1028 3763 1606 
z
" transform="scale(0.015625)"/>
       <path id="ArialMT-c" d="M 791 -1347 
L 388 -1347 
Q 1322 153 1322 1656 
Q 1322 2244 1188 2822 
Q 1081 3291 891 3722 
Q 769 4003 388 4659 
L 791 4659 
Q 1378 3875 1659 3084 
Q 1900 2403 1900 1659 
Q 1900 816 1576 28 
Q 1253 -759 791 -1347 
z
" transform="scale(0.015625)"/>
      </defs>
      <use xlink:href="#ArialMT-37"/>
      <use xlink:href="#ArialMT-14" transform="translate(61.078125 0)"/>
      <use xlink:href="#ArialMT-3" transform="translate(116.6875 0)"/>
      <use xlink:href="#ArialMT-37" transform="translate(142.65625 0)"/>
      <use xlink:href="#ArialMT-48" transform="translate(192.65625 0)"/>
      <use xlink:href="#ArialMT-50" transform="translate(248.265625 0)"/>
      <use xlink:href="#ArialMT-53" transform="translate(331.5625 0)"/>
      <use xlink:href="#ArialMT-48" transform="translate(387.171875 0)"/>
      <use xlink:href="#ArialMT-55" transform="translate(442.78125 0)"/>
      <use xlink:href="#ArialMT-44" transform="translate(476.078125 0)"/>
      <use xlink:href="#ArialMT-57" transform="translate(531.6875 0)"/>
      <use xlink:href="#ArialMT-58" transform="translate(559.46875 0)"/>
      <use xlink:href="#ArialMT-55" transform="translate(615.078125 0)"/>
      <use xlink:href="#ArialMT-48" transform="translate(648.375 0)"/>
      <use xlink:href="#ArialMT-3" transform="translate(703.984375 0)"/>
      <use xlink:href="#ArialMT-b" transform="translate(731.765625 0)"/>
      <use xlink:href="#ArialMT-83" transform="translate(765.0625 0)"/>
      <use xlink:href="#ArialMT-26" transform="translate(805.046875 0)"/>
      <use xlink:href="#ArialMT-c" transform="translate(877.265625 0)"/>
     </g>
    </g>
   </g>
   <g id="matplotlib.axis_2">
    <g id="ytick_1">
     <g id="line2d_26">
      <defs>
       <path id="m4945e0fa79" d="M 0 0 
L 6 0 
" style="stroke: #000000; stroke-width: 1.5"/>
      </defs>
      <g>
       <use xlink:href="#m4945e0fa79" x="60.598945" y="244.512997" style="stroke: #000000; stroke-width: 1.5"/>
      </g>
     </g>
     <g id="text_9">
      <!-- $\mathdefault{10^{-12}}$ -->
      <g transform="translate(24.338945 250.952997) scale(0.14 -0.14)">
       <defs>
        <path id="ArialMT-ed" d="M 3381 1997 
L 356 1997 
L 356 2522 
L 3381 2522 
L 3381 1997 
z
" transform="scale(0.015625)"/>
       </defs>
       <use xlink:href="#ArialMT-14" transform="translate(0 0.3875)"/>
       <use xlink:href="#ArialMT-13" transform="translate(55.615234 0.3875)"/>
       <use xlink:href="#ArialMT-ed" transform="translate(112.1875 41.6875) scale(0.7)"/>
       <use xlink:href="#ArialMT-14" transform="translate(153.066406 41.6875) scale(0.7)"/>
       <use xlink:href="#ArialMT-15" transform="translate(191.99707 41.6875) scale(0.7)"/>
      </g>
     </g>
    </g>
    <g id="ytick_2">
     <g id="line2d_27">
      <g>
       <use xlink:href="#m4945e0fa79" x="60.598945" y="108.815284" style="stroke: #000000; stroke-width: 1.5"/>
      </g>
     </g>
     <g id="text_10">
      <!-- $\mathdefault{10^{-11}}$ -->
      <g transform="translate(25.038945 115.255284) scale(0.14 -0.14)">
       <use xlink:href="#ArialMT-14" transform="translate(0 0.3875)"/>
       <use xlink:href="#ArialMT-13" transform="translate(55.615234 0.3875)"/>
       <use xlink:href="#ArialMT-ed" transform="translate(112.1875 41.6875) scale(0.7)"/>
       <use xlink:href="#ArialMT-14" transform="translate(153.066406 41.6875) scale(0.7)"/>
       <use xlink:href="#ArialMT-14" transform="translate(187.09707 41.6875) scale(0.7)"/>
      </g>
     </g>
    </g>
    <g id="ytick_3">
     <g id="line2d_28">
      <defs>
       <path id="med70b0ac0d" d="M 0 0 
L 3 0 
" style="stroke: #000000"/>
      </defs>
      <g>
       <use xlink:href="#med70b0ac0d" x="60.598945" y="298.512547" style="stroke: #000000"/>
      </g>
     </g>
    </g>
    <g id="ytick_4">
     <g id="line2d_29">
      <g>
       <use xlink:href="#med70b0ac0d" x="60.598945" y="285.362079" style="stroke: #000000"/>
      </g>
     </g>
    </g>
    <g id="ytick_5">
     <g id="line2d_30">
      <g>
       <use xlink:href="#med70b0ac0d" x="60.598945" y="274.617365" style="stroke: #000000"/>
      </g>
     </g>
    </g>
    <g id="ytick_6">
     <g id="line2d_31">
      <g>
       <use xlink:href="#med70b0ac0d" x="60.598945" y="265.532839" style="stroke: #000000"/>
      </g>
     </g>
    </g>
    <g id="ytick_7">
     <g id="line2d_32">
      <g>
       <use xlink:href="#med70b0ac0d" x="60.598945" y="257.663465" style="stroke: #000000"/>
      </g>
     </g>
    </g>
    <g id="ytick_8">
     <g id="line2d_33">
      <g>
       <use xlink:href="#med70b0ac0d" x="60.598945" y="250.722184" style="stroke: #000000"/>
      </g>
     </g>
    </g>
    <g id="ytick_9">
     <g id="line2d_34">
      <g>
       <use xlink:href="#med70b0ac0d" x="60.598945" y="203.663915" style="stroke: #000000"/>
      </g>
     </g>
    </g>
    <g id="ytick_10">
     <g id="line2d_35">
      <g>
       <use xlink:href="#med70b0ac0d" x="60.598945" y="179.768734" style="stroke: #000000"/>
      </g>
     </g>
    </g>
    <g id="ytick_11">
     <g id="line2d_36">
      <g>
       <use xlink:href="#med70b0ac0d" x="60.598945" y="162.814833" style="stroke: #000000"/>
      </g>
     </g>
    </g>
    <g id="ytick_12">
     <g id="line2d_37">
      <g>
       <use xlink:href="#med70b0ac0d" x="60.598945" y="149.664366" style="stroke: #000000"/>
      </g>
     </g>
    </g>
    <g id="ytick_13">
     <g id="line2d_38">
      <g>
       <use xlink:href="#med70b0ac0d" x="60.598945" y="138.919652" style="stroke: #000000"/>
      </g>
     </g>
    </g>
    <g id="ytick_14">
     <g id="line2d_39">
      <g>
       <use xlink:href="#med70b0ac0d" x="60.598945" y="129.835126" style="stroke: #000000"/>
      </g>
     </g>
    </g>
    <g id="ytick_15">
     <g id="line2d_40">
      <g>
       <use xlink:href="#med70b0ac0d" x="60.598945" y="121.965751" style="stroke: #000000"/>
      </g>
     </g>
    </g>
    <g id="ytick_16">
     <g id="line2d_41">
      <g>
       <use xlink:href="#med70b0ac0d" x="60.598945" y="115.024471" style="stroke: #000000"/>
      </g>
     </g>
    </g>
    <g id="ytick_17">
     <g id="line2d_42">
      <g>
       <use xlink:href="#med70b0ac0d" x="60.598945" y="67.966202" style="stroke: #000000"/>
      </g>
     </g>
    </g>
    <g id="ytick_18">
     <g id="line2d_43">
      <g>
       <use xlink:href="#med70b0ac0d" x="60.598945" y="44.071021" style="stroke: #000000"/>
      </g>
     </g>
    </g>
    <g id="ytick_19">
     <g id="line2d_44">
      <g>
       <use xlink:href="#med70b0ac0d" x="60.598945" y="27.11712" style="stroke: #000000"/>
      </g>
     </g>
    </g>
    <g id="ytick_20">
     <g id="line2d_45">
      <g>
       <use xlink:href="#med70b0ac0d" x="60.598945" y="13.966653" style="stroke: #000000"/>
      </g>
     </g>
    </g>
    <g id="text_11">
     <!-- Ion Current (m/z 18) -->
     <g transform="translate(17.392383 216.137266) rotate(-90) scale(0.14 -0.14)">
      <defs>
       <path id="ArialMT-2c" d="M 597 0 
L 597 4581 
L 1203 4581 
L 1203 0 
L 597 0 
z
" transform="scale(0.015625)"/>
       <path id="ArialMT-52" d="M 213 1659 
Q 213 2581 725 3025 
Q 1153 3394 1769 3394 
Q 2453 3394 2887 2945 
Q 3322 2497 3322 1706 
Q 3322 1066 3130 698 
Q 2938 331 2570 128 
Q 2203 -75 1769 -75 
Q 1072 -75 642 372 
Q 213 819 213 1659 
z
M 791 1659 
Q 791 1022 1069 705 
Q 1347 388 1769 388 
Q 2188 388 2466 706 
Q 2744 1025 2744 1678 
Q 2744 2294 2464 2611 
Q 2184 2928 1769 2928 
Q 1347 2928 1069 2612 
Q 791 2297 791 1659 
z
" transform="scale(0.015625)"/>
       <path id="ArialMT-51" d="M 422 0 
L 422 3319 
L 928 3319 
L 928 2847 
Q 1294 3394 1984 3394 
Q 2284 3394 2536 3286 
Q 2788 3178 2913 3003 
Q 3038 2828 3088 2588 
Q 3119 2431 3119 2041 
L 3119 0 
L 2556 0 
L 2556 2019 
Q 2556 2363 2490 2533 
Q 2425 2703 2258 2804 
Q 2091 2906 1866 2906 
Q 1506 2906 1245 2678 
Q 984 2450 984 1813 
L 984 0 
L 422 0 
z
" transform="scale(0.015625)"/>
       <path id="ArialMT-12" d="M 0 -78 
L 1328 4659 
L 1778 4659 
L 453 -78 
L 0 -78 
z
" transform="scale(0.015625)"/>
       <path id="ArialMT-5d" d="M 125 0 
L 125 456 
L 2238 2881 
Q 1878 2863 1603 2863 
L 250 2863 
L 250 3319 
L 2963 3319 
L 2963 2947 
L 1166 841 
L 819 456 
Q 1197 484 1528 484 
L 3063 484 
L 3063 0 
L 125 0 
z
" transform="scale(0.015625)"/>
      </defs>
      <use xlink:href="#ArialMT-2c"/>
      <use xlink:href="#ArialMT-52" transform="translate(27.78125 0)"/>
      <use xlink:href="#ArialMT-51" transform="translate(83.390625 0)"/>
      <use xlink:href="#ArialMT-3" transform="translate(139 0)"/>
      <use xlink:href="#ArialMT-26" transform="translate(166.78125 0)"/>
      <use xlink:href="#ArialMT-58" transform="translate(239 0)"/>
      <use xlink:href="#ArialMT-55" transform="translate(294.609375 0)"/>
      <use xlink:href="#ArialMT-55" transform="translate(327.90625 0)"/>
      <use xlink:href="#ArialMT-48" transform="translate(361.203125 0)"/>
      <use xlink:href="#ArialMT-51" transform="translate(416.8125 0)"/>
      <use xlink:href="#ArialMT-57" transform="translate(472.421875 0)"/>
      <use xlink:href="#ArialMT-3" transform="translate(500.203125 0)"/>
      <use xlink:href="#ArialMT-b" transform="translate(527.984375 0)"/>
      <use xlink:href="#ArialMT-50" transform="translate(561.28125 0)"/>
      <use xlink:href="#ArialMT-12" transform="translate(644.578125 0)"/>
      <use xlink:href="#ArialMT-5d" transform="translate(672.359375 0)"/>
      <use xlink:href="#ArialMT-3" transform="translate(722.359375 0)"/>
      <use xlink:href="#ArialMT-14" transform="translate(750.140625 0)"/>
      <use xlink:href="#ArialMT-1b" transform="translate(805.75 0)"/>
      <use xlink:href="#ArialMT-c" transform="translate(861.359375 0)"/>
     </g>
    </g>
   </g>
   <g id="line2d_46">
    <path d="M 78.802131 274.035637 
L 78.771691 273.89195 
L 78.741251 274.13879 
L 78.771691 275.359414 
L 78.680371 276.420563 
L 78.680371 274.365248 
L 78.832572 276.359409 
L 79.502254 278.789003 
L 81.08514 276.737148 
L 83.276828 279.262192 
L 85.407636 277.159776 
L 87.203602 276.595251 
L 88.634287 276.54807 
L 89.821452 278.077169 
L 91.008616 275.145735 
L 92.07402 273.139919 
L 93.169864 272.872465 
L 94.357028 271.542883 
L 95.574632 271.761348 
L 96.792237 272.376385 
L 98.131602 270.310444 
L 99.440527 275.095844 
L 100.688571 275.366447 
L 101.936616 276.310436 
L 104.280504 278.748806 
L 105.467668 284.219499 
L 106.654833 283.551602 
L 107.872437 286.521626 
L 108.998721 284.354514 
L 110.185886 280.88162 
L 111.37305 279.610853 
L 112.560214 273.839923 
L 113.747379 272.504851 
L 114.964983 270.823238 
L 116.182587 268.026605 
L 117.369752 271.269776 
L 118.587356 273.356097 
L 119.77452 277.219993 
L 120.931245 279.230829 
L 122.118409 279.735353 
L 123.305573 277.402673 
L 124.492738 276.048627 
L 125.679902 275.283148 
L 126.867066 273.18374 
L 128.084671 270.50888 
L 129.241395 272.016928 
L 130.458999 274.523555 
L 131.646164 276.150383 
L 132.833328 281.887827 
L 134.020492 281.937594 
L 135.207657 280.60946 
L 136.425261 277.018206 
L 137.642865 276.516025 
L 138.86047 274.103041 
L 140.078074 273.73773 
L 141.234798 274.87666 
L 142.421963 272.806918 
L 143.639567 271.670387 
L 144.765851 274.80203 
L 145.953016 271.589445 
L 147.17062 268.999103 
L 148.388225 268.535735 
L 149.575389 271.874318 
L 150.792993 272.133147 
L 151.919277 276.826571 
L 153.106442 279.637724 
L 154.263166 279.188398 
L 155.45033 280.485775 
L 156.607054 279.758673 
L 157.824659 276.443794 
L 159.011823 277.090553 
L 160.198987 278.850214 
L 161.416592 280.042279 
L 162.573316 280.244302 
L 163.790921 279.845227 
L 164.947645 280.020309 
L 167.352413 275.351685 
L 168.570018 271.740857 
L 169.787622 270.692774 
L 170.944347 273.185337 
L 172.161951 274.096796 
L 173.349115 276.926896 
L 174.505839 277.267421 
L 175.662564 276.943231 
L 176.880168 273.844272 
L 178.036892 269.792307 
L 179.193617 267.446739 
L 180.380781 268.198027 
L 181.598385 268.525089 
L 182.84643 270.104765 
L 184.033594 273.315952 
L 185.251199 275.716549 
L 186.468803 277.023989 
L 187.686407 276.574178 
L 188.843132 273.747752 
L 189.999856 274.228998 
L 191.21746 275.180801 
L 192.435065 277.978897 
L 193.561349 275.805432 
L 194.687633 274.555867 
L 195.905237 275.506754 
L 197.092402 274.148021 
L 198.279566 272.572912 
L 199.46673 270.226511 
L 200.653895 269.918822 
L 201.780179 271.911369 
L 202.967343 272.412992 
L 204.184947 275.114799 
L 205.372112 273.841016 
L 206.528836 275.871608 
L 207.716 276.559675 
L 208.903165 275.656172 
L 210.120769 274.466244 
L 211.277493 272.250667 
L 212.464657 270.593939 
L 214.869426 269.926988 
L 216.056591 270.335513 
L 217.213315 269.34633 
L 218.430919 270.654984 
L 219.618083 269.951276 
L 220.774808 271.024504 
L 221.961972 271.922646 
L 223.149136 271.363173 
L 225.462585 271.404755 
L 226.680189 272.756101 
L 227.836913 270.568312 
L 229.024078 270.125062 
L 230.272122 269.899736 
L 231.428846 269.868373 
L 232.616011 269.60128 
L 233.711855 270.426531 
L 234.838139 270.717879 
L 236.025303 270.098549 
L 237.242908 271.036159 
L 238.460512 270.966676 
L 239.647676 270.42038 
L 240.865281 270.686242 
L 242.052445 270.122778 
L 243.178729 266.978389 
L 244.396334 265.311421 
L 245.583498 267.006541 
L 246.801102 266.239357 
L 247.957827 266.540348 
L 249.144991 268.985795 
L 250.362595 265.936077 
L 251.54976 267.491976 
L 252.706484 270.251613 
L 253.893648 266.375472 
L 255.080812 263.23625 
L 256.267977 264.562414 
L 257.485581 267.000201 
L 258.672745 267.788613 
L 259.82947 269.313919 
L 261.077514 270.716818 
L 262.234238 269.399118 
L 263.421403 272.952115 
L 264.578127 274.984465 
L 265.765291 271.243096 
L 267.013336 269.817088 
L 268.13962 270.067127 
L 269.326784 270.06719 
L 270.513949 269.876699 
L 271.670673 268.3833 
L 272.888277 267.47275 
L 274.136322 267.436525 
L 275.353926 266.359211 
L 276.54109 266.014039 
L 277.697815 264.198268 
L 278.915419 260.712893 
L 280.072143 260.013429 
L 281.289748 260.505621 
L 282.507352 260.629821 
L 284.881681 259.247016 
L 286.068845 261.781861 
L 287.225569 263.595455 
L 288.443174 265.769577 
L 289.599898 265.873315 
L 290.756622 265.829049 
L 291.943786 269.484315 
L 293.130951 269.692702 
L 294.287675 268.982909 
L 296.722884 266.59478 
L 297.849168 264.946804 
L 299.066772 264.664746 
L 300.284377 263.534677 
L 301.410661 260.789118 
L 302.597825 259.3563 
L 303.78499 259.938265 
L 304.972154 260.786436 
L 306.159318 260.351 
L 307.285602 261.449224 
L 308.503207 261.865025 
L 309.690371 261.827611 
L 310.847095 262.932142 
L 312.03426 263.560949 
L 313.221424 261.017629 
L 314.408588 260.164654 
L 315.595752 262.379337 
L 316.752477 263.091528 
L 317.909201 260.661385 
L 319.157245 263.477758 
L 320.34441 263.948594 
L 321.501134 264.642347 
L 322.627418 263.834517 
L 323.875463 265.051081 
L 325.032187 262.351048 
L 326.249791 261.403057 
L 327.406515 261.659674 
L 328.56324 259.225351 
L 329.750404 260.043357 
L 330.968008 261.194715 
L 332.094292 260.110998 
L 333.342337 259.157926 
L 334.833902 261.384651 
L 336.112387 261.676893 
L 337.299551 259.4795 
L 338.517156 258.681131 
L 339.64344 256.491627 
L 340.800164 254.595862 
L 342.048209 256.056593 
L 343.235373 254.004634 
L 344.452977 252.571209 
L 346.796866 251.146835 
L 347.92315 248.328689 
L 349.201635 246.22628 
L 350.358359 244.78019 
L 351.484643 244.685952 
L 352.702247 245.241513 
L 353.950292 247.896962 
L 355.015696 247.967689 
L 356.20286 248.325866 
L 357.481345 247.31735 
L 358.607629 244.673531 
L 359.825233 243.742839 
L 361.042838 239.61458 
L 362.260442 237.389006 
L 363.264966 238.334981 
L 364.51301 238.16389 
L 365.791495 237.773884 
L 366.856899 236.50065 
L 368.074503 234.374122 
L 371.757757 233.186374 
L 372.853601 230.347357 
L 374.040765 227.825226 
L 375.197489 226.540686 
L 376.415094 224.366674 
L 377.480497 221.048674 
L 378.667662 217.874111 
L 379.854826 213.885991 
L 381.04199 214.80493 
L 382.198715 213.116981 
L 383.446759 212.275354 
L 384.542603 210.508392 
L 385.760208 207.22999 
L 386.856052 203.562201 
L 389.382581 199.479011 
L 390.569745 194.659161 
L 393.979037 183.515346 
L 395.622803 180.364288 
L 396.870848 176.39307 
L 398.149333 174.098492 
L 399.275617 170.706393 
L 400.462781 168.679347 
L 401.710826 165.670575 
L 402.776229 160.664518 
L 403.963394 156.954911 
L 405.059238 151.92197 
L 406.368162 146.865499 
L 407.494447 141.186638 
L 408.742491 136.830832 
L 410.020976 133.388268 
L 412.243104 123.14746 
L 413.369388 118.342389 
L 415.743717 111.603218 
L 417.083081 107.258266 
L 419.30521 98.043316 
L 420.644574 93.747231 
L 421.679538 89.277646 
L 424.145187 79.666951 
L 425.119271 74.502149 
L 425.119271 74.502149 
" clip-path="url(#p13d78654fd)" style="fill: none; stroke: #000000; stroke-width: 2.5; stroke-linecap: square"/>
   </g>
   <g id="line2d_47">
    <path d="M 71.100783 192.675178 
L 71.100783 199.727798 
L 71.100783 198.929414 
L 71.252984 198.190564 
L 71.892226 199.065048 
L 73.566432 198.886117 
L 75.72768 198.290645 
L 77.828048 198.982789 
L 79.593574 200.008154 
L 81.0547 200.324724 
L 82.272304 201.420636 
L 83.368148 201.070753 
L 84.372672 203.121515 
L 85.559836 203.840948 
L 86.77744 204.978067 
L 87.873284 204.510888 
L 89.151769 203.030078 
L 90.369374 202.825567 
L 91.465218 201.579353 
L 92.774142 202.143565 
L 93.900426 203.452675 
L 95.148471 202.371148 
L 96.396515 201.755286 
L 97.64456 201.289158 
L 98.862164 201.546658 
L 100.140649 202.40111 
L 101.449574 201.53335 
L 102.575858 201.709149 
L 103.823902 200.457565 
L 104.950187 199.575374 
L 106.167791 200.374722 
L 107.294075 198.037543 
L 109.790164 197.430118 
L 110.946888 196.378302 
L 112.073172 197.980896 
L 113.290777 197.954638 
L 114.508381 197.149133 
L 115.695546 196.13652 
L 116.91315 195.291837 
L 117.978554 195.425224 
L 119.226598 194.806277 
L 120.413763 194.584016 
L 121.631367 192.730425 
L 122.879412 190.203144 
L 123.944816 188.892145 
L 126.380024 183.07476 
L 127.628069 181.469399 
L 128.754353 181.559003 
L 129.971958 179.262043 
L 131.220002 177.641017 
L 132.285406 174.722366 
L 133.53345 173.066523 
L 134.751055 171.172013 
L 135.846899 169.171215 
L 137.094943 167.187514 
L 138.342988 165.590508 
L 139.499712 163.77892 
L 140.747757 162.60313 
L 141.965361 159.654459 
L 143.122085 158.178814 
L 144.248369 155.751794 
L 145.405094 153.63976 
L 146.622698 151.988669 
L 147.809862 148.614927 
L 148.997027 145.718987 
L 150.153751 141.740007 
L 151.401795 136.322475 
L 152.6194 131.808902 
L 153.806564 126.885324 
L 156.211333 121.079571 
L 158.463901 114.756475 
L 160.89911 107.737873 
L 162.177595 102.97025 
L 163.303879 97.724457 
L 165.678207 88.525808 
L 169.27014 77.21621 
L 171.644469 69.601096 
L 172.862073 66.725953 
L 176.362686 55.534391 
L 179.893739 45.924446 
L 182.298508 40.630986 
L 183.546552 38.724561 
L 184.703277 37.858909 
L 185.860001 36.618814 
L 188.203889 35.253969 
L 189.512814 35.006898 
L 190.639098 34.92986 
L 191.795822 35.283271 
L 192.982987 36.295286 
L 194.170151 37.500496 
L 195.357315 39.631894 
L 196.60536 42.464005 
L 197.762084 45.559564 
L 198.949248 49.324543 
L 201.293137 58.164638 
L 203.728346 67.524108 
L 207.228958 83.78006 
L 208.446563 89.153484 
L 213.16478 106.607923 
L 215.539109 113.075529 
L 217.822117 120.440062 
L 219.131042 122.860213 
L 220.226886 125.392412 
L 221.44449 126.385733 
L 222.601214 127.641531 
L 223.818819 130.050727 
L 225.005983 131.559315 
L 226.162707 131.975871 
L 227.319431 133.500521 
L 228.506596 134.831483 
L 229.69376 135.512827 
L 230.850484 135.667537 
L 232.098529 136.369312 
L 233.255253 137.665756 
L 234.442417 139.28442 
L 235.660022 142.023119 
L 236.786306 142.839214 
L 238.03435 143.968383 
L 240.347799 146.44575 
L 241.534963 146.00741 
L 242.691687 146.351082 
L 243.878852 146.500595 
L 245.066016 147.024164 
L 247.470785 149.327888 
L 248.657949 148.685517 
L 249.814673 149.938163 
L 251.032278 150.634325 
L 253.406606 151.128189 
L 254.593771 151.423501 
L 255.750495 151.883333 
L 256.968099 152.924272 
L 258.124823 154.570581 
L 260.499152 155.67758 
L 261.716757 156.845285 
L 262.873481 157.383857 
L 264.091085 157.32131 
L 265.27825 159.507862 
L 266.404534 160.728989 
L 267.652578 161.561736 
L 268.809302 162.870169 
L 271.153191 163.941347 
L 272.340355 164.983651 
L 273.5884 165.342733 
L 274.866884 165.897741 
L 277.210773 169.549981 
L 278.397937 170.386312 
L 279.615542 170.571875 
L 281.98987 169.882153 
L 283.116154 170.787752 
L 284.303319 170.879403 
L 285.490483 171.620755 
L 286.708087 172.847941 
L 287.864812 173.451429 
L 289.051976 172.039377 
L 290.23914 171.603331 
L 291.456745 171.306298 
L 292.613469 170.107961 
L 293.770193 170.057694 
L 296.144522 172.020508 
L 299.736455 175.528709 
L 300.862739 175.303765 
L 302.080343 176.927207 
L 303.297948 176.669378 
L 304.424232 177.071604 
L 305.611396 176.686911 
L 306.79856 177.865787 
L 308.016165 177.388797 
L 309.142449 176.293952 
L 310.360053 177.236084 
L 311.486338 177.798297 
L 312.703942 178.185994 
L 313.891106 177.661512 
L 315.04783 176.70067 
L 316.234995 177.525099 
L 317.391719 176.722293 
L 318.578883 178.436816 
L 319.766048 177.839459 
L 320.983652 178.124243 
L 324.484265 175.779351 
L 326.889034 174.132196 
L 328.106638 173.598239 
L 329.202482 173.563598 
L 330.450526 174.839986 
L 331.607251 174.519081 
L 332.763975 174.35471 
L 335.534025 170.046017 
L 336.751629 168.448574 
L 339.186838 164.848337 
L 340.313122 162.816296 
L 341.561167 161.866344 
L 342.717891 162.19897 
L 343.844175 162.945795 
L 345.09222 164.761229 
L 346.248944 165.984259 
L 348.623273 169.528249 
L 349.840877 169.313351 
L 351.028041 170.418096 
L 353.43281 170.185224 
L 354.528654 170.914321 
L 355.685378 170.484804 
L 356.933423 171.569703 
L 358.120587 172.759122 
L 359.277311 172.438963 
L 361.56032 170.608902 
L 362.869244 170.384808 
L 364.117289 170.772934 
L 365.213133 170.76904 
L 366.339417 170.45204 
L 367.526581 171.145152 
L 368.713746 171.528245 
L 369.99223 171.771094 
L 371.179395 170.366848 
L 372.366559 169.433454 
L 373.492843 169.31058 
L 374.680007 168.120696 
L 375.806291 166.809067 
L 378.11974 164.361815 
L 379.398224 164.237544 
L 380.585389 163.064016 
L 381.681233 162.33324 
L 382.929277 161.703946 
L 384.116442 159.189014 
L 385.242726 157.883735 
L 386.42989 155.226629 
L 387.586614 153.126341 
L 388.834659 151.853001 
L 391.117667 150.318054 
L 392.365712 149.098081 
L 393.583316 147.668837 
L 394.892241 145.714068 
L 397.38833 140.691751 
L 398.758135 137.463361 
L 399.914859 135.238978 
L 401.071583 132.429338 
L 402.289188 130.075469 
L 404.633076 124.679305 
L 408.255449 117.036939 
L 409.412174 113.885922 
L 410.386257 110.244599 
L 411.725622 107.312887 
L 412.912786 102.824676 
L 414.160831 98.62081 
L 416.382959 90.146502 
L 418.909488 82.177994 
L 419.974892 77.898304 
L 421.222937 73.530517 
L 422.2579 69.090406 
L 423.688585 64.593571 
L 424.784429 60.055031 
L 424.784429 60.055031 
" clip-path="url(#p13d78654fd)" style="fill: none; stroke: #1f77b4; stroke-width: 2.5; stroke-linecap: square"/>
   </g>
   <g id="line2d_48">
    <path d="M 70.918143 193.298544 
L 70.918143 201.191488 
L 70.918143 200.81414 
L 71.039903 200.266448 
L 71.618265 199.06852 
L 73.01851 198.824703 
L 75.179758 198.110621 
L 77.341006 198.463549 
L 79.258733 199.080978 
L 80.780739 200.337104 
L 82.028783 200.74743 
L 83.124627 200.261233 
L 84.220471 201.435842 
L 85.316315 202.097126 
L 86.442599 201.765477 
L 87.629764 200.809558 
L 90.034532 199.666376 
L 91.221697 200.01285 
L 92.408861 200.595679 
L 93.596025 200.457068 
L 94.81363 200.10732 
L 96.000794 201.024995 
L 97.309719 201.542218 
L 98.649084 201.366414 
L 99.927568 200.927033 
L 101.145173 201.706403 
L 102.332337 201.294962 
L 103.519501 201.096829 
L 104.706666 200.342363 
L 105.89383 197.815363 
L 107.080994 196.67454 
L 108.298599 196.332226 
L 109.455323 196.90036 
L 110.672927 197.181425 
L 111.860092 196.737167 
L 113.047256 196.485828 
L 114.26486 195.855927 
L 115.452025 195.405978 
L 116.639189 194.075394 
L 117.826353 190.970378 
L 119.013518 189.97667 
L 120.200682 187.889706 
L 121.326966 186.782519 
L 122.575011 186.393977 
L 123.731735 186.252573 
L 124.888459 185.878567 
L 126.106063 184.739405 
L 127.323668 183.310381 
L 128.480392 182.380414 
L 129.667556 180.096958 
L 130.824281 178.29684 
L 131.981005 175.435958 
L 133.229049 173.368897 
L 134.385774 171.773662 
L 135.572938 169.936377 
L 136.790542 167.8234 
L 140.443356 160.289548 
L 141.63052 158.729114 
L 146.409617 149.529103 
L 147.566342 148.127008 
L 148.783946 146.39489 
L 151.158275 142.426066 
L 152.284559 139.556654 
L 153.471723 137.879712 
L 154.780648 135.412338 
L 155.906932 131.484884 
L 157.094096 128.3115 
L 158.28126 124.488904 
L 160.686029 118.02196 
L 162.999478 111.485613 
L 166.621851 102.138367 
L 173.653516 81.295486 
L 177.215009 72.045095 
L 179.650218 67.003726 
L 180.806942 63.89639 
L 183.181271 59.260193 
L 184.459756 57.162782 
L 185.61648 54.946343 
L 186.894965 52.978638 
L 187.990808 51.931271 
L 189.177973 51.532537 
L 190.365137 51.58417 
L 191.552301 52.039195 
L 192.709026 53.067748 
L 193.92663 55.031799 
L 197.427243 63.003252 
L 203.393504 79.449994 
L 205.767833 89.050717 
L 209.238006 108.078347 
L 210.45561 114.311663 
L 212.860379 123.688469 
L 214.047543 126.149692 
L 215.265148 128.146562 
L 216.421872 130.388685 
L 217.609036 132.14313 
L 218.73532 135.120075 
L 219.952925 136.891021 
L 221.140089 138.928548 
L 222.296813 141.323021 
L 223.544858 144.179958 
L 224.732022 146.327477 
L 225.888746 149.421975 
L 227.075911 149.962645 
L 228.263075 151.334694 
L 229.419799 150.88539 
L 230.637404 150.742266 
L 231.824568 150.170783 
L 234.168456 151.259037 
L 235.355621 152.681845 
L 236.573225 155.000887 
L 237.729949 158.314758 
L 238.886674 159.444494 
L 240.104278 160.15555 
L 241.261002 159.502854 
L 242.387286 159.41899 
L 243.604891 159.719996 
L 244.883375 160.672302 
L 246.0401 161.087995 
L 247.196824 162.665996 
L 248.383988 165.102319 
L 249.540712 165.886562 
L 250.758317 166.160246 
L 251.945481 165.82969 
L 253.102205 166.182812 
L 255.537414 168.917636 
L 256.724578 169.357641 
L 257.850863 169.431407 
L 259.129347 171.221956 
L 260.225191 171.941788 
L 261.412355 171.997425 
L 262.6604 172.902304 
L 263.817124 172.699267 
L 264.973848 172.869082 
L 266.130573 174.426451 
L 267.409057 174.622289 
L 268.504901 173.641807 
L 269.722506 173.404527 
L 270.90967 173.67316 
L 272.096834 173.650929 
L 273.314439 173.92276 
L 274.562483 174.483338 
L 275.749648 174.616083 
L 276.997692 174.633392 
L 278.123976 176.978022 
L 279.372021 178.285129 
L 280.528745 179.944922 
L 281.655029 178.922387 
L 282.872633 178.073513 
L 284.029358 178.422617 
L 285.246962 177.933898 
L 288.778015 177.960711 
L 289.965179 180.574507 
L 291.152344 182.135957 
L 292.369948 183.097237 
L 293.435352 180.821195 
L 297.057725 181.746848 
L 299.432054 181.491942 
L 300.680098 182.633849 
L 301.775942 183.955471 
L 302.963107 184.478594 
L 304.180711 185.37566 
L 305.337435 185.642821 
L 306.524599 186.99773 
L 308.898928 186.438514 
L 310.025212 186.573426 
L 311.242817 185.899389 
L 312.429981 184.40455 
L 313.617145 183.241981 
L 314.743429 182.576169 
L 315.930594 182.805681 
L 317.148198 182.894042 
L 319.552967 182.645706 
L 320.679251 181.37288 
L 321.866415 180.854039 
L 325.427908 174.986748 
L 326.645513 173.931277 
L 327.771797 173.473983 
L 329.019841 172.832353 
L 330.176565 171.698978 
L 331.36373 172.058946 
L 332.520454 171.570706 
L 333.859819 171.498802 
L 335.229624 171.758584 
L 336.416788 172.502804 
L 338.912877 173.598107 
L 340.039161 175.614318 
L 341.287206 177.229812 
L 342.47437 177.69634 
L 343.661534 178.772191 
L 344.787819 178.814899 
L 346.005423 178.176733 
L 347.223027 178.345887 
L 348.379752 177.905884 
L 349.536476 178.060272 
L 350.6932 177.535713 
L 351.910804 178.933779 
L 353.067529 180.746172 
L 354.315573 181.176298 
L 355.472297 180.981947 
L 356.568141 181.331186 
L 357.846626 180.280306 
L 360.190515 179.024037 
L 361.408119 178.261794 
L 362.473523 176.400742 
L 363.752008 175.38735 
L 366.095896 174.995512 
L 367.3135 174.222951 
L 368.470225 174.491769 
L 369.687829 173.008796 
L 370.844553 174.302793 
L 372.001278 175.263059 
L 373.310202 175.06948 
L 376.749935 171.99275 
L 377.906659 171.591876 
L 379.154704 170.44674 
L 380.341868 169.037683 
L 381.559472 167.244338 
L 382.655316 167.336572 
L 385.060085 165.118462 
L 386.216809 163.600794 
L 387.251773 161.476592 
L 388.530258 159.547736 
L 389.747862 158.161709 
L 390.874146 155.933042 
L 392.091751 154.000939 
L 394.526959 151.242939 
L 395.927205 149.976649 
L 397.266569 148.536426 
L 399.701778 143.088213 
L 400.828062 139.024386 
L 402.045667 135.376431 
L 403.141511 132.695229 
L 405.60716 125.473493 
L 406.794324 122.662991 
L 407.859728 120.708084 
L 409.138213 117.940077 
L 411.451661 111.900272 
L 414.921834 101.277545 
L 416.230758 97.293158 
L 417.296162 93.631195 
L 419.761811 86.868284 
L 420.979416 83.009783 
L 424.601789 69.027857 
L 425.423672 63.570225 
L 425.423672 63.570225 
" clip-path="url(#p13d78654fd)" style="fill: none; stroke: #0033ff; stroke-width: 2.5; stroke-linecap: square"/>
   </g>
   <g id="line2d_49">
    <path d="M 69.091736 175.446233 
L 69.152616 179.622645 
L 69.243937 180.097546 
L 69.730979 179.756257 
L 71.192104 179.611419 
L 75.5146 182.392637 
L 77.371446 183.185383 
L 78.954332 183.726063 
L 80.232817 183.835298 
L 81.328661 184.694332 
L 82.394065 185.185693 
L 83.550789 185.555875 
L 84.707513 185.244429 
L 85.894677 186.018766 
L 87.051401 185.305226 
L 88.269006 184.090415 
L 89.48661 184.334782 
L 90.673775 183.091571 
L 91.800059 182.754679 
L 92.987223 182.769258 
L 94.204828 184.165001 
L 95.361552 185.720563 
L 96.670476 185.718586 
L 97.948961 184.860283 
L 99.288326 184.737445 
L 100.50593 185.14341 
L 101.723535 186.387267 
L 102.941139 185.706698 
L 104.097863 185.62855 
L 105.285028 184.445453 
L 106.472192 184.44359 
L 107.689797 183.63052 
L 108.876961 183.194233 
L 110.094565 183.113625 
L 111.251289 182.122208 
L 112.438454 181.972523 
L 113.625618 180.945885 
L 114.812782 178.886791 
L 116.030387 175.952957 
L 117.217551 173.771027 
L 118.374275 171.042902 
L 119.500559 169.058289 
L 120.779044 168.710874 
L 121.966208 167.948904 
L 123.092493 166.215497 
L 124.279657 165.657254 
L 125.436381 165.418229 
L 126.714866 162.815157 
L 127.87159 161.124765 
L 129.089194 160.233044 
L 130.276359 156.845287 
L 131.433083 153.882052 
L 134.933696 147.801188 
L 136.12086 146.512425 
L 137.399345 145.657303 
L 141.052158 141.029726 
L 142.178442 139.327356 
L 143.365606 136.643738 
L 144.552771 134.42352 
L 145.770375 132.546427 
L 146.987979 131.08282 
L 148.175144 129.926724 
L 149.362308 127.485691 
L 150.549472 125.888445 
L 152.862921 120.569755 
L 154.080525 118.180511 
L 155.206809 113.822869 
L 157.702898 106.556208 
L 158.859623 102.162837 
L 160.077227 98.040856 
L 161.233951 93.462314 
L 162.451556 89.990291 
L 169.574542 67.513639 
L 170.731266 62.826181 
L 171.85755 59.61734 
L 173.075154 55.481748 
L 175.479923 48.247675 
L 176.575767 44.851614 
L 181.385304 33.483338 
L 182.542029 30.553184 
L 183.729193 28.62452 
L 184.977238 26.085416 
L 186.194842 24.738266 
L 187.351566 22.837396 
L 188.50829 22.036994 
L 189.695455 21.540102 
L 193.226508 20.50103 
L 194.383232 20.98374 
L 196.818441 22.346485 
L 199.223209 25.194415 
L 200.379934 27.814495 
L 202.754262 31.757211 
L 203.941426 33.331825 
L 205.098151 35.893445 
L 206.346195 39.803276 
L 207.53336 44.21056 
L 208.720524 49.070748 
L 209.907688 55.181817 
L 212.251577 70.668344 
L 213.469181 76.78034 
L 214.656345 81.674622 
L 215.84351 84.539917 
L 218.126518 91.714515 
L 219.313682 95.411309 
L 220.531287 97.744796 
L 222.905615 103.507435 
L 224.09278 104.668448 
L 225.279944 106.342434 
L 228.810997 108.774765 
L 230.028601 110.340859 
L 231.215766 112.095118 
L 232.37249 112.742341 
L 234.746818 114.789224 
L 237.090707 116.383096 
L 238.277871 116.952677 
L 239.465036 118.246111 
L 240.62176 118.858267 
L 241.839364 120.087012 
L 243.026529 120.850195 
L 244.152813 121.280889 
L 245.370417 122.697022 
L 246.557581 123.583057 
L 247.775186 123.614307 
L 248.96235 124.271983 
L 250.119074 124.319164 
L 251.306239 125.144276 
L 252.493403 125.655756 
L 253.680567 125.691336 
L 256.054896 126.335477 
L 257.2725 126.835047 
L 258.429225 125.668551 
L 259.585949 125.044387 
L 260.803553 125.019885 
L 261.960277 124.194161 
L 263.147442 124.742471 
L 264.365046 124.128234 
L 265.582651 124.038142 
L 266.739375 124.727802 
L 267.896099 126.635126 
L 270.300868 130.053981 
L 271.457592 132.345744 
L 272.675196 134.02162 
L 275.110405 138.50406 
L 277.545614 139.432482 
L 278.671898 140.524981 
L 279.889503 142.591304 
L 281.076667 143.989835 
L 282.233391 145.793921 
L 283.420555 146.020916 
L 284.60772 145.709272 
L 285.764444 145.997583 
L 286.951608 145.895063 
L 288.169213 146.221321 
L 289.325937 146.109426 
L 290.543541 147.03746 
L 292.91787 149.828149 
L 294.105034 151.653239 
L 295.231318 152.45176 
L 296.448923 152.951527 
L 297.666527 153.189819 
L 298.792811 153.65924 
L 300.040856 154.44182 
L 301.16714 155.402062 
L 302.384744 156.871918 
L 303.541469 157.381092 
L 304.728633 158.872184 
L 305.885357 160.81104 
L 307.072521 161.303773 
L 308.259686 161.415852 
L 309.44685 161.6915 
L 310.664455 162.131363 
L 311.790739 162.341983 
L 312.977903 163.237977 
L 314.195507 162.467992 
L 315.382672 161.077919 
L 316.569836 161.25608 
L 318.883284 159.893706 
L 320.040009 159.007892 
L 321.288053 159.236143 
L 322.444777 160.060428 
L 323.571061 161.725998 
L 324.788666 162.458962 
L 325.91495 162.559377 
L 327.162995 163.530926 
L 328.350159 165.336585 
L 330.663607 164.752748 
L 331.911652 163.833982 
L 333.129256 163.951549 
L 334.529501 164.367033 
L 335.838426 164.194987 
L 337.086471 163.190081 
L 338.273635 163.472459 
L 340.678404 165.940866 
L 341.865568 165.086387 
L 344.239897 164.355611 
L 345.396621 164.653244 
L 346.522905 165.168617 
L 347.80139 164.611031 
L 348.927674 164.612735 
L 350.053958 164.882282 
L 351.271562 165.595038 
L 352.397846 165.299987 
L 353.645891 164.006586 
L 354.802615 163.705829 
L 358.394548 161.382051 
L 359.551272 159.872097 
L 360.768877 157.593334 
L 361.925601 154.957707 
L 365.487094 143.553966 
L 366.704698 141.57867 
L 367.830982 138.870447 
L 369.048587 137.588077 
L 370.266191 135.885614 
L 371.362035 135.59303 
L 373.858124 137.064741 
L 374.893088 138.504431 
L 377.297857 143.252993 
L 378.454581 147.194972 
L 379.702626 148.906705 
L 380.85935 150.251571 
L 382.016074 149.689465 
L 383.264118 149.583959 
L 384.359962 149.830359 
L 385.516687 148.954285 
L 386.795171 148.50716 
L 387.860575 148.309926 
L 389.10862 147.664055 
L 390.326224 147.306076 
L 391.422068 146.115227 
L 393.796397 142.881258 
L 398.910335 138.01705 
L 400.18882 137.010012 
L 401.436865 134.496691 
L 402.593589 133.15227 
L 403.811193 130.496042 
L 404.937477 127.370947 
L 406.185522 124.695607 
L 407.220486 121.908624 
L 408.49897 119.044747 
L 410.934179 112.893993 
L 413.156307 104.622689 
L 414.434792 101.12481 
L 415.469756 96.615049 
L 416.900441 92.838587 
L 417.904964 89.492965 
L 420.309733 82.658734 
L 421.436017 78.898811 
L 423.901666 69.514535 
L 424.99751 63.783029 
L 424.99751 63.783029 
" clip-path="url(#p13d78654fd)" style="fill: none; stroke: #ff7f0e; stroke-width: 2.5; stroke-linecap: square"/>
   </g>
   <g id="line2d_50">
    <path d="M 78.832572 211.559613 
L 78.771691 216.211002 
L 78.832572 214.769888 
L 79.410934 214.361092 
L 80.932939 214.241822 
L 83.094187 213.954195 
L 85.285875 212.059674 
L 87.203602 212.023243 
L 89.912772 212.816917 
L 91.069496 213.816267 
L 92.10446 214.321699 
L 93.291624 214.222382 
L 94.387468 214.720659 
L 95.605073 214.710019 
L 96.883557 212.622806 
L 98.131602 211.969616 
L 99.410086 212.366024 
L 100.658131 214.48509 
L 101.875735 217.353464 
L 103.12378 216.853347 
L 104.250064 218.288605 
L 105.467668 217.893831 
L 109.059602 210.270291 
L 110.246766 210.750926 
L 111.37305 208.115561 
L 112.560214 207.541259 
L 113.777819 207.257599 
L 115.025863 204.90468 
L 116.243468 205.395899 
L 117.339312 205.426518 
L 119.804961 205.112905 
L 120.992125 203.95111 
L 122.179289 201.277247 
L 123.305573 197.431122 
L 126.897506 186.467871 
L 128.115111 182.742306 
L 129.271835 179.867472 
L 130.489439 175.880534 
L 132.802888 165.454468 
L 134.020492 161.759445 
L 138.89091 143.747249 
L 143.609127 130.569971 
L 145.953016 125.502344 
L 148.357784 119.511785 
L 149.544949 116.05578 
L 150.701673 111.892404 
L 153.106442 106.147811 
L 156.698375 96.798072 
L 157.915979 94.547518 
L 159.072703 92.740393 
L 162.664636 84.455186 
L 164.978085 80.935342 
L 166.195689 78.718499 
L 167.382854 76.170377 
L 168.600458 72.15701 
L 169.757182 66.99708 
L 170.944347 62.837235 
L 172.131511 59.753287 
L 173.318675 57.327416 
L 174.475399 55.462172 
L 175.693004 53.971801 
L 176.910608 52.990164 
L 178.158653 51.337811 
L 179.284937 49.477498 
L 181.628825 42.791496 
L 182.84643 41.004642 
L 184.064034 39.762016 
L 186.407923 36.668047 
L 187.595087 35.033009 
L 189.999856 32.520281 
L 191.18702 31.817896 
L 192.404625 31.245435 
L 193.530909 31.46847 
L 194.718073 32.316183 
L 195.905237 33.608656 
L 197.061961 34.579978 
L 198.279566 36.011231 
L 199.46673 37.91893 
L 200.623454 40.328837 
L 201.810619 43.071064 
L 202.997783 46.129172 
L 205.372112 53.253067 
L 207.77688 60.660548 
L 210.120769 67.078309 
L 211.307933 70.726491 
L 216.056591 83.553857 
L 221.961972 97.762855 
L 223.118696 101.035531 
L 225.493025 105.757676 
L 226.710629 107.891407 
L 229.084958 111.417316 
L 230.241682 113.194639 
L 231.428846 114.020796 
L 232.585571 115.846266 
L 233.772735 117.485616 
L 234.990339 118.426909 
L 237.303788 120.750662 
L 240.834841 123.345475 
L 243.239609 125.010934 
L 245.583498 128.223378 
L 249.084111 130.68805 
L 250.362595 132.015205 
L 251.519319 134.295364 
L 252.706484 134.908742 
L 253.863208 136.042893 
L 256.267977 139.382781 
L 257.546461 141.91763 
L 258.703186 142.473724 
L 259.89035 141.674612 
L 261.077514 143.007346 
L 263.390963 146.467647 
L 264.608567 145.893595 
L 265.826171 146.967036 
L 266.952456 149.712472 
L 268.17006 152.314159 
L 269.387664 154.37187 
L 271.670673 154.756289 
L 272.918717 155.719392 
L 274.136322 155.128149 
L 275.384366 155.132848 
L 276.54109 154.047891 
L 277.758695 154.878311 
L 278.915419 156.062042 
L 280.133024 157.737362 
L 281.350628 158.53834 
L 282.476912 158.984075 
L 283.694516 161.366189 
L 284.820801 161.812727 
L 286.068845 161.058397 
L 287.195129 160.613483 
L 288.382294 159.714974 
L 289.630338 160.091779 
L 290.817502 160.275704 
L 291.943786 161.942133 
L 293.191831 162.101684 
L 294.378995 163.139199 
L 295.53572 166.278888 
L 296.692444 167.450143 
L 297.849168 167.657359 
L 299.066772 168.804964 
L 300.223497 168.779087 
L 301.441101 169.283203 
L 302.628265 169.252226 
L 303.78499 169.65628 
L 305.002594 169.217317 
L 306.159318 170.666503 
L 307.376923 171.855231 
L 308.533647 173.172993 
L 309.690371 174.039261 
L 310.847095 175.106716 
L 312.09514 173.472969 
L 313.221424 172.5554 
L 314.439028 171.808584 
L 315.595752 171.847423 
L 316.752477 171.277946 
L 317.939641 172.277636 
L 319.126805 172.809318 
L 320.37485 174.122632 
L 321.501134 175.952677 
L 322.718738 176.737292 
L 323.875463 176.067218 
L 325.062627 174.58983 
L 326.280231 174.049242 
L 327.436956 172.766063 
L 328.59368 172.352639 
L 329.780844 172.125165 
L 330.968008 171.348458 
L 332.094292 172.071166 
L 333.342337 172.532994 
L 334.833902 172.208691 
L 336.021067 171.731329 
L 337.329991 170.481895 
L 338.517156 169.715672 
L 339.70432 168.177384 
L 340.891484 167.546774 
L 343.204933 162.532202 
L 344.452977 161.781879 
L 345.609702 159.037995 
L 346.735986 155.99896 
L 347.98403 154.057237 
L 349.171195 150.876692 
L 350.358359 148.578729 
L 352.641367 145.074195 
L 353.889412 144.02294 
L 355.137456 143.760821 
L 356.20286 144.616969 
L 357.450905 145.026207 
L 358.607629 144.584202 
L 359.825233 146.534327 
L 361.012398 147.254421 
L 362.199562 148.72311 
L 363.417166 150.682715 
L 364.51301 152.223709 
L 365.700175 154.70517 
L 366.887339 156.207191 
L 369.413868 157.351934 
L 370.479272 156.994409 
L 371.605556 157.452186 
L 372.823161 157.165468 
L 375.227929 156.279369 
L 376.354213 156.507533 
L 378.698102 155.681184 
L 379.854826 154.836179 
L 382.229155 155.023133 
L 383.507639 154.710557 
L 384.633923 154.222187 
L 388.256297 152.259258 
L 389.352141 150.558813 
L 390.508865 150.066672 
L 391.696029 148.464185 
L 392.974514 145.877658 
L 394.131238 143.993228 
L 395.501043 142.094735 
L 396.840408 139.398707 
L 398.088452 137.674348 
L 399.275617 136.326224 
L 400.371461 134.288493 
L 401.710826 132.845283 
L 402.80667 131.209698 
L 405.089678 125.304146 
L 406.429043 123.291132 
L 407.616207 120.271738 
L 409.838335 113.949352 
L 411.08638 110.845605 
L 412.334424 107.118864 
L 413.491148 104.227147 
L 414.678313 100.839061 
L 415.865477 96.850085 
L 416.961321 93.922942 
L 418.300686 89.932956 
L 421.770858 77.526037 
L 422.897143 73.093058 
L 424.206067 68.527481 
L 425.149711 63.846167 
L 425.149711 63.846167 
" clip-path="url(#p13d78654fd)" style="fill: none; stroke: #ff0000; stroke-width: 2.5; stroke-linecap: square"/>
   </g>
   <g id="patch_3">
    <path d="M 60.598945 299.822656 
L 60.598945 7.2 
" style="fill: none; stroke: #000000; stroke-width: 1.5; stroke-linejoin: miter; stroke-linecap: square"/>
   </g>
   <g id="patch_4">
    <path d="M 60.598945 299.822656 
L 425.880273 299.822656 
" style="fill: none; stroke: #000000; stroke-width: 1.5; stroke-linejoin: miter; stroke-linecap: square"/>
   </g>
   <g id="legend_1">
    <g id="line2d_51">
     <path d="M 71.398945 22.536328 
L 83.398945 22.536328 
L 95.398945 22.536328 
" style="fill: none; stroke: #000000; stroke-width: 2.5; stroke-linecap: square"/>
    </g>
    <g id="text_12">
     <!-- vacuum -->
     <g transform="translate(104.998945 26.736328) scale(0.12 -0.12)">
      <defs>
       <path id="ArialMT-59" d="M 1344 0 
L 81 3319 
L 675 3319 
L 1388 1331 
Q 1503 1009 1600 663 
Q 1675 925 1809 1294 
L 2547 3319 
L 3125 3319 
L 1869 0 
L 1344 0 
z
" transform="scale(0.015625)"/>
       <path id="ArialMT-46" d="M 2588 1216 
L 3141 1144 
Q 3050 572 2676 248 
Q 2303 -75 1759 -75 
Q 1078 -75 664 370 
Q 250 816 250 1647 
Q 250 2184 428 2587 
Q 606 2991 970 3192 
Q 1334 3394 1763 3394 
Q 2303 3394 2647 3120 
Q 2991 2847 3088 2344 
L 2541 2259 
Q 2463 2594 2264 2762 
Q 2066 2931 1784 2931 
Q 1359 2931 1093 2626 
Q 828 2322 828 1663 
Q 828 994 1084 691 
Q 1341 388 1753 388 
Q 2084 388 2306 591 
Q 2528 794 2588 1216 
z
" transform="scale(0.015625)"/>
      </defs>
      <use xlink:href="#ArialMT-59"/>
      <use xlink:href="#ArialMT-44" transform="translate(50 0)"/>
      <use xlink:href="#ArialMT-46" transform="translate(105.609375 0)"/>
      <use xlink:href="#ArialMT-58" transform="translate(155.609375 0)"/>
      <use xlink:href="#ArialMT-58" transform="translate(211.21875 0)"/>
      <use xlink:href="#ArialMT-50" transform="translate(266.828125 0)"/>
     </g>
    </g>
    <g id="line2d_52">
     <path d="M 71.398945 39.798047 
L 83.398945 39.798047 
L 95.398945 39.798047 
" style="fill: none; stroke: #1f77b4; stroke-width: 2.5; stroke-linecap: square"/>
    </g>
    <g id="text_13">
     <!-- 1h -->
     <g transform="translate(104.998945 43.998047) scale(0.12 -0.12)">
      <defs>
       <path id="ArialMT-4b" d="M 422 0 
L 422 4581 
L 984 4581 
L 984 2938 
Q 1378 3394 1978 3394 
Q 2347 3394 2619 3248 
Q 2891 3103 3008 2847 
Q 3125 2591 3125 2103 
L 3125 0 
L 2563 0 
L 2563 2103 
Q 2563 2525 2380 2717 
Q 2197 2909 1863 2909 
Q 1613 2909 1392 2779 
Q 1172 2650 1078 2428 
Q 984 2206 984 1816 
L 984 0 
L 422 0 
z
" transform="scale(0.015625)"/>
      </defs>
      <use xlink:href="#ArialMT-14"/>
      <use xlink:href="#ArialMT-4b" transform="translate(55.609375 0)"/>
     </g>
    </g>
    <g id="line2d_53">
     <path d="M 71.398945 57.059766 
L 83.398945 57.059766 
L 95.398945 57.059766 
" style="fill: none; stroke: #0033ff; stroke-width: 2.5; stroke-linecap: square"/>
    </g>
    <g id="text_14">
     <!-- 2h -->
     <g transform="translate(104.998945 61.259766) scale(0.12 -0.12)">
      <use xlink:href="#ArialMT-15"/>
      <use xlink:href="#ArialMT-4b" transform="translate(55.609375 0)"/>
     </g>
    </g>
    <g id="line2d_54">
     <path d="M 71.398945 74.321484 
L 83.398945 74.321484 
L 95.398945 74.321484 
" style="fill: none; stroke: #ff7f0e; stroke-width: 2.5; stroke-linecap: square"/>
    </g>
    <g id="text_15">
     <!-- 4h -->
     <g transform="translate(104.998945 78.521484) scale(0.12 -0.12)">
      <use xlink:href="#ArialMT-17"/>
      <use xlink:href="#ArialMT-4b" transform="translate(55.609375 0)"/>
     </g>
    </g>
    <g id="line2d_55">
     <path d="M 71.398945 91.583203 
L 83.398945 91.583203 
L 95.398945 91.583203 
" style="fill: none; stroke: #ff0000; stroke-width: 2.5; stroke-linecap: square"/>
    </g>
    <g id="text_16">
     <!-- first -->
     <g transform="translate(104.998945 95.783203) scale(0.12 -0.12)">
      <defs>
       <path id="ArialMT-49" d="M 556 0 
L 556 2881 
L 59 2881 
L 59 3319 
L 556 3319 
L 556 3672 
Q 556 4006 616 4169 
Q 697 4388 901 4523 
Q 1106 4659 1475 4659 
Q 1713 4659 2000 4603 
L 1916 4113 
Q 1741 4144 1584 4144 
Q 1328 4144 1222 4034 
Q 1116 3925 1116 3625 
L 1116 3319 
L 1763 3319 
L 1763 2881 
L 1116 2881 
L 1116 0 
L 556 0 
z
" transform="scale(0.015625)"/>
       <path id="ArialMT-4c" d="M 425 3934 
L 425 4581 
L 988 4581 
L 988 3934 
L 425 3934 
z
M 425 0 
L 425 3319 
L 988 3319 
L 988 0 
L 425 0 
z
" transform="scale(0.015625)"/>
       <path id="ArialMT-56" d="M 197 991 
L 753 1078 
Q 800 744 1014 566 
Q 1228 388 1613 388 
Q 2000 388 2187 545 
Q 2375 703 2375 916 
Q 2375 1106 2209 1216 
Q 2094 1291 1634 1406 
Q 1016 1563 777 1677 
Q 538 1791 414 1992 
Q 291 2194 291 2438 
Q 291 2659 392 2848 
Q 494 3038 669 3163 
Q 800 3259 1026 3326 
Q 1253 3394 1513 3394 
Q 1903 3394 2198 3281 
Q 2494 3169 2634 2976 
Q 2775 2784 2828 2463 
L 2278 2388 
Q 2241 2644 2061 2787 
Q 1881 2931 1553 2931 
Q 1166 2931 1000 2803 
Q 834 2675 834 2503 
Q 834 2394 903 2306 
Q 972 2216 1119 2156 
Q 1203 2125 1616 2013 
Q 2213 1853 2448 1751 
Q 2684 1650 2818 1456 
Q 2953 1263 2953 975 
Q 2953 694 2789 445 
Q 2625 197 2315 61 
Q 2006 -75 1616 -75 
Q 969 -75 630 194 
Q 291 463 197 991 
z
" transform="scale(0.015625)"/>
      </defs>
      <use xlink:href="#ArialMT-49"/>
      <use xlink:href="#ArialMT-4c" transform="translate(27.78125 0)"/>
      <use xlink:href="#ArialMT-55" transform="translate(50 0)"/>
      <use xlink:href="#ArialMT-56" transform="translate(83.296875 0)"/>
      <use xlink:href="#ArialMT-57" transform="translate(133.296875 0)"/>
     </g>
    </g>
   </g>
  </g>
 </g>
 <defs>
  <clipPath id="p13d78654fd">
   <rect x="60.598945" y="7.2" width="365.281328" height="292.622656"/>
  </clipPath>
 </defs>
</svg>
