<?xml version="1.0" encoding="utf-8" standalone="no"?>
<!DOCTYPE svg PUBLIC "-//W3C//DTD SVG 1.1//EN"
  "http://www.w3.org/Graphics/SVG/1.1/DTD/svg11.dtd">
<svg xmlns:xlink="http://www.w3.org/1999/xlink" width="448.650898pt" height="340.800273pt" viewBox="0 0 448.650898 340.800273" xmlns="http://www.w3.org/2000/svg" version="1.1">
 <metadata>
  <rdf:RDF xmlns:dc="http://purl.org/dc/elements/1.1/" xmlns:cc="http://creativecommons.org/ns#" xmlns:rdf="http://www.w3.org/1999/02/22-rdf-syntax-ns#">
   <cc:Work>
    <dc:type rdf:resource="http://purl.org/dc/dcmitype/StillImage"/>
    <dc:date>2026-07-09T17:08:26.474719</dc:date>
    <dc:format>image/svg+xml</dc:format>
    <dc:creator>
     <cc:Agent>
      <dc:title>Matplotlib v3.11.0, https://matplotlib.org/</dc:title>
     </cc:Agent>
    </dc:creator>
   </cc:Work>
  </rdf:RDF>
 </metadata>
 <defs>
  <style type="text/css">*{stroke-linejoin: round; stroke-linecap: butt}</style>
 </defs>
 <g id="figure_1">
  <g id="patch_1">
   <path d="M 0 340.800273 
L 448.650898 340.800273 
L 448.650898 0 
L 0 0 
z
" style="fill: #ffffff"/>
  </g>
  <g id="axes_1">
   <g id="patch_2">
    <path d="M 60.598945 299.822656 
L 425.880273 299.822656 
L 425.880273 7.2 
L 60.598945 7.2 
z
" style="fill: #ffffff"/>
   </g>
   <g id="matplotlib.axis_1">
    <g id="xtick_1">
     <g id="line2d_1">
      <defs>
       <path id="m2dd5cb215c" d="M 0 0 
L 0 -6 
" style="stroke: #000000; stroke-width: 1.5"/>
      </defs>
      <g>
       <use xlink:href="#m2dd5cb215c" x="60.598945" y="299.822656" style="stroke: #000000; stroke-width: 1.5"/>
      </g>
     </g>
     <g id="text_1">
      <!-- 0 -->
      <g transform="translate(56.706289 313.515039) scale(0.14 -0.14)">
       <defs>
        <path id="ArialMT-13" d="M 266 2259 
Q 266 3072 433 3567 
Q 600 4063 929 4331 
Q 1259 4600 1759 4600 
Q 2128 4600 2406 4451 
Q 2684 4303 2865 4023 
Q 3047 3744 3150 3342 
Q 3253 2941 3253 2259 
Q 3253 1453 3087 958 
Q 2922 463 2592 192 
Q 2263 -78 1759 -78 
Q 1097 -78 719 397 
Q 266 969 266 2259 
z
M 844 2259 
Q 844 1131 1108 757 
Q 1372 384 1759 384 
Q 2147 384 2411 759 
Q 2675 1134 2675 2259 
Q 2675 3391 2411 3762 
Q 2147 4134 1753 4134 
Q 1366 4134 1134 3806 
Q 844 3388 844 2259 
z
" transform="scale(0.015625)"/>
       </defs>
       <use xlink:href="#ArialMT-13"/>
      </g>
     </g>
    </g>
    <g id="xtick_2">
     <g id="line2d_2">
      <g>
       <use xlink:href="#m2dd5cb215c" x="121.479167" y="299.822656" style="stroke: #000000; stroke-width: 1.5"/>
      </g>
     </g>
     <g id="text_2">
      <!-- 200 -->
      <g transform="translate(109.801198 313.515039) scale(0.14 -0.14)">
       <defs>
        <path id="ArialMT-15" d="M 3222 541 
L 3222 0 
L 194 0 
Q 188 203 259 391 
Q 375 700 629 1000 
Q 884 1300 1366 1694 
Q 2113 2306 2375 2664 
Q 2638 3022 2638 3341 
Q 2638 3675 2398 3904 
Q 2159 4134 1775 4134 
Q 1369 4134 1125 3890 
Q 881 3647 878 3216 
L 300 3275 
Q 359 3922 746 4261 
Q 1134 4600 1788 4600 
Q 2447 4600 2831 4234 
Q 3216 3869 3216 3328 
Q 3216 3053 3103 2787 
Q 2991 2522 2730 2228 
Q 2469 1934 1863 1422 
Q 1356 997 1212 845 
Q 1069 694 975 541 
L 3222 541 
z
" transform="scale(0.015625)"/>
       </defs>
       <use xlink:href="#ArialMT-15"/>
       <use xlink:href="#ArialMT-13" transform="translate(55.609375 0)"/>
       <use xlink:href="#ArialMT-13" transform="translate(111.21875 0)"/>
      </g>
     </g>
    </g>
    <g id="xtick_3">
     <g id="line2d_3">
      <g>
       <use xlink:href="#m2dd5cb215c" x="182.359388" y="299.822656" style="stroke: #000000; stroke-width: 1.5"/>
      </g>
     </g>
     <g id="text_3">
      <!-- 400 -->
      <g transform="translate(170.681419 313.515039) scale(0.14 -0.14)">
       <defs>
        <path id="ArialMT-17" d="M 2069 0 
L 2069 1097 
L 81 1097 
L 81 1613 
L 2172 4581 
L 2631 4581 
L 2631 1613 
L 3250 1613 
L 3250 1097 
L 2631 1097 
L 2631 0 
L 2069 0 
z
M 2069 1613 
L 2069 3678 
L 634 1613 
L 2069 1613 
z
" transform="scale(0.015625)"/>
       </defs>
       <use xlink:href="#ArialMT-17"/>
       <use xlink:href="#ArialMT-13" transform="translate(55.609375 0)"/>
       <use xlink:href="#ArialMT-13" transform="translate(111.21875 0)"/>
      </g>
     </g>
    </g>
    <g id="xtick_4">
     <g id="line2d_4">
      <g>
       <use xlink:href="#m2dd5cb215c" x="243.239609" y="299.822656" style="stroke: #000000; stroke-width: 1.5"/>
      </g>
     </g>
     <g id="text_4">
      <!-- 600 -->
      <g transform="translate(231.561641 313.515039) scale(0.14 -0.14)">
       <defs>
        <path id="ArialMT-19" d="M 3184 3459 
L 2625 3416 
Q 2550 3747 2413 3897 
Q 2184 4138 1850 4138 
Q 1581 4138 1378 3988 
Q 1113 3794 959 3422 
Q 806 3050 800 2363 
Q 1003 2672 1297 2822 
Q 1591 2972 1913 2972 
Q 2475 2972 2870 2558 
Q 3266 2144 3266 1488 
Q 3266 1056 3080 686 
Q 2894 316 2569 119 
Q 2244 -78 1831 -78 
Q 1128 -78 684 439 
Q 241 956 241 2144 
Q 241 3472 731 4075 
Q 1159 4600 1884 4600 
Q 2425 4600 2770 4297 
Q 3116 3994 3184 3459 
z
M 888 1484 
Q 888 1194 1011 928 
Q 1134 663 1356 523 
Q 1578 384 1822 384 
Q 2178 384 2434 671 
Q 2691 959 2691 1453 
Q 2691 1928 2437 2201 
Q 2184 2475 1800 2475 
Q 1419 2475 1153 2201 
Q 888 1928 888 1484 
z
" transform="scale(0.015625)"/>
       </defs>
       <use xlink:href="#ArialMT-19"/>
       <use xlink:href="#ArialMT-13" transform="translate(55.609375 0)"/>
       <use xlink:href="#ArialMT-13" transform="translate(111.21875 0)"/>
      </g>
     </g>
    </g>
    <g id="xtick_5">
     <g id="line2d_5">
      <g>
       <use xlink:href="#m2dd5cb215c" x="304.119831" y="299.822656" style="stroke: #000000; stroke-width: 1.5"/>
      </g>
     </g>
     <g id="text_5">
      <!-- 800 -->
      <g transform="translate(292.441862 313.515039) scale(0.14 -0.14)">
       <defs>
        <path id="ArialMT-1b" d="M 1131 2484 
Q 781 2613 612 2850 
Q 444 3088 444 3419 
Q 444 3919 803 4259 
Q 1163 4600 1759 4600 
Q 2359 4600 2725 4251 
Q 3091 3903 3091 3403 
Q 3091 3084 2923 2848 
Q 2756 2613 2416 2484 
Q 2838 2347 3058 2040 
Q 3278 1734 3278 1309 
Q 3278 722 2862 322 
Q 2447 -78 1769 -78 
Q 1091 -78 675 323 
Q 259 725 259 1325 
Q 259 1772 486 2073 
Q 713 2375 1131 2484 
z
M 1019 3438 
Q 1019 3113 1228 2906 
Q 1438 2700 1772 2700 
Q 2097 2700 2305 2904 
Q 2513 3109 2513 3406 
Q 2513 3716 2298 3927 
Q 2084 4138 1766 4138 
Q 1444 4138 1231 3931 
Q 1019 3725 1019 3438 
z
M 838 1322 
Q 838 1081 952 856 
Q 1066 631 1291 507 
Q 1516 384 1775 384 
Q 2178 384 2440 643 
Q 2703 903 2703 1303 
Q 2703 1709 2433 1975 
Q 2163 2241 1756 2241 
Q 1359 2241 1098 1978 
Q 838 1716 838 1322 
z
" transform="scale(0.015625)"/>
       </defs>
       <use xlink:href="#ArialMT-1b"/>
       <use xlink:href="#ArialMT-13" transform="translate(55.609375 0)"/>
       <use xlink:href="#ArialMT-13" transform="translate(111.21875 0)"/>
      </g>
     </g>
    </g>
    <g id="xtick_6">
     <g id="line2d_6">
      <g>
       <use xlink:href="#m2dd5cb215c" x="365.000052" y="299.822656" style="stroke: #000000; stroke-width: 1.5"/>
      </g>
     </g>
     <g id="text_6">
      <!-- 1000 -->
      <g transform="translate(349.429427 313.515039) scale(0.14 -0.14)">
       <defs>
        <path id="ArialMT-14" d="M 2384 0 
L 1822 0 
L 1822 3584 
Q 1619 3391 1289 3197 
Q 959 3003 697 2906 
L 697 3450 
Q 1169 3672 1522 3987 
Q 1875 4303 2022 4600 
L 2384 4600 
L 2384 0 
z
" transform="scale(0.015625)"/>
       </defs>
       <use xlink:href="#ArialMT-14"/>
       <use xlink:href="#ArialMT-13" transform="translate(55.609375 0)"/>
       <use xlink:href="#ArialMT-13" transform="translate(111.21875 0)"/>
       <use xlink:href="#ArialMT-13" transform="translate(166.828125 0)"/>
      </g>
     </g>
    </g>
    <g id="xtick_7">
     <g id="line2d_7">
      <g>
       <use xlink:href="#m2dd5cb215c" x="425.880273" y="299.822656" style="stroke: #000000; stroke-width: 1.5"/>
      </g>
     </g>
     <g id="text_7">
      <!-- 1200 -->
      <g transform="translate(410.309648 313.515039) scale(0.14 -0.14)">
       <use xlink:href="#ArialMT-14"/>
       <use xlink:href="#ArialMT-15" transform="translate(55.609375 0)"/>
       <use xlink:href="#ArialMT-13" transform="translate(111.21875 0)"/>
       <use xlink:href="#ArialMT-13" transform="translate(166.828125 0)"/>
      </g>
     </g>
    </g>
    <g id="xtick_8">
     <g id="line2d_8">
      <defs>
       <path id="m5a0d098f7f" d="M 0 0 
L 0 -3 
" style="stroke: #000000"/>
      </defs>
      <g>
       <use xlink:href="#m5a0d098f7f" x="75.819001" y="299.822656" style="stroke: #000000"/>
      </g>
     </g>
    </g>
    <g id="xtick_9">
     <g id="line2d_9">
      <g>
       <use xlink:href="#m5a0d098f7f" x="91.039056" y="299.822656" style="stroke: #000000"/>
      </g>
     </g>
    </g>
    <g id="xtick_10">
     <g id="line2d_10">
      <g>
       <use xlink:href="#m5a0d098f7f" x="106.259111" y="299.822656" style="stroke: #000000"/>
      </g>
     </g>
    </g>
    <g id="xtick_11">
     <g id="line2d_11">
      <g>
       <use xlink:href="#m5a0d098f7f" x="136.699222" y="299.822656" style="stroke: #000000"/>
      </g>
     </g>
    </g>
    <g id="xtick_12">
     <g id="line2d_12">
      <g>
       <use xlink:href="#m5a0d098f7f" x="151.919277" y="299.822656" style="stroke: #000000"/>
      </g>
     </g>
    </g>
    <g id="xtick_13">
     <g id="line2d_13">
      <g>
       <use xlink:href="#m5a0d098f7f" x="167.139333" y="299.822656" style="stroke: #000000"/>
      </g>
     </g>
    </g>
    <g id="xtick_14">
     <g id="line2d_14">
      <g>
       <use xlink:href="#m5a0d098f7f" x="197.579443" y="299.822656" style="stroke: #000000"/>
      </g>
     </g>
    </g>
    <g id="xtick_15">
     <g id="line2d_15">
      <g>
       <use xlink:href="#m5a0d098f7f" x="212.799499" y="299.822656" style="stroke: #000000"/>
      </g>
     </g>
    </g>
    <g id="xtick_16">
     <g id="line2d_16">
      <g>
       <use xlink:href="#m5a0d098f7f" x="228.019554" y="299.822656" style="stroke: #000000"/>
      </g>
     </g>
    </g>
    <g id="xtick_17">
     <g id="line2d_17">
      <g>
       <use xlink:href="#m5a0d098f7f" x="258.459665" y="299.822656" style="stroke: #000000"/>
      </g>
     </g>
    </g>
    <g id="xtick_18">
     <g id="line2d_18">
      <g>
       <use xlink:href="#m5a0d098f7f" x="273.67972" y="299.822656" style="stroke: #000000"/>
      </g>
     </g>
    </g>
    <g id="xtick_19">
     <g id="line2d_19">
      <g>
       <use xlink:href="#m5a0d098f7f" x="288.899775" y="299.822656" style="stroke: #000000"/>
      </g>
     </g>
    </g>
    <g id="xtick_20">
     <g id="line2d_20">
      <g>
       <use xlink:href="#m5a0d098f7f" x="319.339886" y="299.822656" style="stroke: #000000"/>
      </g>
     </g>
    </g>
    <g id="xtick_21">
     <g id="line2d_21">
      <g>
       <use xlink:href="#m5a0d098f7f" x="334.559941" y="299.822656" style="stroke: #000000"/>
      </g>
     </g>
    </g>
    <g id="xtick_22">
     <g id="line2d_22">
      <g>
       <use xlink:href="#m5a0d098f7f" x="349.779997" y="299.822656" style="stroke: #000000"/>
      </g>
     </g>
    </g>
    <g id="xtick_23">
     <g id="line2d_23">
      <g>
       <use xlink:href="#m5a0d098f7f" x="380.220107" y="299.822656" style="stroke: #000000"/>
      </g>
     </g>
    </g>
    <g id="xtick_24">
     <g id="line2d_24">
      <g>
       <use xlink:href="#m5a0d098f7f" x="395.440163" y="299.822656" style="stroke: #000000"/>
      </g>
     </g>
    </g>
    <g id="xtick_25">
     <g id="line2d_25">
      <g>
       <use xlink:href="#m5a0d098f7f" x="410.660218" y="299.822656" style="stroke: #000000"/>
      </g>
     </g>
    </g>
    <g id="text_8">
     <!-- T1 Temperature (°C) -->
     <g transform="translate(179.500234 330.653711) scale(0.14 -0.14)">
      <defs>
       <path id="ArialMT-37" d="M 1659 0 
L 1659 4041 
L 150 4041 
L 150 4581 
L 3781 4581 
L 3781 4041 
L 2266 4041 
L 2266 0 
L 1659 0 
z
" transform="scale(0.015625)"/>
       <path id="ArialMT-3" transform="scale(0.015625)"/>
       <path id="ArialMT-48" d="M 2694 1069 
L 3275 997 
Q 3138 488 2766 206 
Q 2394 -75 1816 -75 
Q 1088 -75 661 373 
Q 234 822 234 1631 
Q 234 2469 665 2931 
Q 1097 3394 1784 3394 
Q 2450 3394 2872 2941 
Q 3294 2488 3294 1666 
Q 3294 1616 3291 1516 
L 816 1516 
Q 847 969 1125 678 
Q 1403 388 1819 388 
Q 2128 388 2347 550 
Q 2566 713 2694 1069 
z
M 847 1978 
L 2700 1978 
Q 2663 2397 2488 2606 
Q 2219 2931 1791 2931 
Q 1403 2931 1139 2672 
Q 875 2413 847 1978 
z
" transform="scale(0.015625)"/>
       <path id="ArialMT-50" d="M 422 0 
L 422 3319 
L 925 3319 
L 925 2853 
Q 1081 3097 1340 3245 
Q 1600 3394 1931 3394 
Q 2300 3394 2536 3241 
Q 2772 3088 2869 2813 
Q 3263 3394 3894 3394 
Q 4388 3394 4653 3120 
Q 4919 2847 4919 2278 
L 4919 0 
L 4359 0 
L 4359 2091 
Q 4359 2428 4304 2576 
Q 4250 2725 4106 2815 
Q 3963 2906 3769 2906 
Q 3419 2906 3187 2673 
Q 2956 2441 2956 1928 
L 2956 0 
L 2394 0 
L 2394 2156 
Q 2394 2531 2256 2718 
Q 2119 2906 1806 2906 
Q 1569 2906 1367 2781 
Q 1166 2656 1075 2415 
Q 984 2175 984 1722 
L 984 0 
L 422 0 
z
" transform="scale(0.015625)"/>
       <path id="ArialMT-53" d="M 422 -1272 
L 422 3319 
L 934 3319 
L 934 2888 
Q 1116 3141 1344 3267 
Q 1572 3394 1897 3394 
Q 2322 3394 2647 3175 
Q 2972 2956 3137 2557 
Q 3303 2159 3303 1684 
Q 3303 1175 3120 767 
Q 2938 359 2589 142 
Q 2241 -75 1856 -75 
Q 1575 -75 1351 44 
Q 1128 163 984 344 
L 984 -1272 
L 422 -1272 
z
M 931 1641 
Q 931 1000 1190 694 
Q 1450 388 1819 388 
Q 2194 388 2461 705 
Q 2728 1022 2728 1688 
Q 2728 2322 2467 2637 
Q 2206 2953 1844 2953 
Q 1484 2953 1207 2617 
Q 931 2281 931 1641 
z
" transform="scale(0.015625)"/>
       <path id="ArialMT-55" d="M 416 0 
L 416 3319 
L 922 3319 
L 922 2816 
Q 1116 3169 1280 3281 
Q 1444 3394 1641 3394 
Q 1925 3394 2219 3213 
L 2025 2691 
Q 1819 2813 1613 2813 
Q 1428 2813 1281 2702 
Q 1134 2591 1072 2394 
Q 978 2094 978 1738 
L 978 0 
L 416 0 
z
" transform="scale(0.015625)"/>
       <path id="ArialMT-44" d="M 2588 409 
Q 2275 144 1986 34 
Q 1697 -75 1366 -75 
Q 819 -75 525 192 
Q 231 459 231 875 
Q 231 1119 342 1320 
Q 453 1522 633 1644 
Q 813 1766 1038 1828 
Q 1203 1872 1538 1913 
Q 2219 1994 2541 2106 
Q 2544 2222 2544 2253 
Q 2544 2597 2384 2738 
Q 2169 2928 1744 2928 
Q 1347 2928 1158 2789 
Q 969 2650 878 2297 
L 328 2372 
Q 403 2725 575 2942 
Q 747 3159 1072 3276 
Q 1397 3394 1825 3394 
Q 2250 3394 2515 3294 
Q 2781 3194 2906 3042 
Q 3031 2891 3081 2659 
Q 3109 2516 3109 2141 
L 3109 1391 
Q 3109 606 3145 398 
Q 3181 191 3288 0 
L 2700 0 
Q 2613 175 2588 409 
z
M 2541 1666 
Q 2234 1541 1622 1453 
Q 1275 1403 1131 1340 
Q 988 1278 909 1158 
Q 831 1038 831 891 
Q 831 666 1001 516 
Q 1172 366 1500 366 
Q 1825 366 2078 508 
Q 2331 650 2450 897 
Q 2541 1088 2541 1459 
L 2541 1666 
z
" transform="scale(0.015625)"/>
       <path id="ArialMT-57" d="M 1650 503 
L 1731 6 
Q 1494 -44 1306 -44 
Q 1000 -44 831 53 
Q 663 150 594 308 
Q 525 466 525 972 
L 525 2881 
L 113 2881 
L 113 3319 
L 525 3319 
L 525 4141 
L 1084 4478 
L 1084 3319 
L 1650 3319 
L 1650 2881 
L 1084 2881 
L 1084 941 
Q 1084 700 1114 631 
Q 1144 563 1211 522 
Q 1278 481 1403 481 
Q 1497 481 1650 503 
z
" transform="scale(0.015625)"/>
       <path id="ArialMT-58" d="M 2597 0 
L 2597 488 
Q 2209 -75 1544 -75 
Q 1250 -75 995 37 
Q 741 150 617 320 
Q 494 491 444 738 
Q 409 903 409 1263 
L 409 3319 
L 972 3319 
L 972 1478 
Q 972 1038 1006 884 
Q 1059 663 1231 536 
Q 1403 409 1656 409 
Q 1909 409 2131 539 
Q 2353 669 2445 892 
Q 2538 1116 2538 1541 
L 2538 3319 
L 3100 3319 
L 3100 0 
L 2597 0 
z
" transform="scale(0.015625)"/>
       <path id="ArialMT-b" d="M 1497 -1347 
Q 1031 -759 709 28 
Q 388 816 388 1659 
Q 388 2403 628 3084 
Q 909 3875 1497 4659 
L 1900 4659 
Q 1522 4009 1400 3731 
Q 1209 3300 1100 2831 
Q 966 2247 966 1656 
Q 966 153 1900 -1347 
L 1497 -1347 
z
" transform="scale(0.015625)"/>
       <path id="ArialMT-83" d="M 400 3794 
Q 400 4153 654 4406 
Q 909 4659 1266 4659 
Q 1628 4659 1881 4406 
Q 2134 4153 2134 3794 
Q 2134 3434 1879 3179 
Q 1625 2925 1266 2925 
Q 909 2925 654 3178 
Q 400 3431 400 3794 
z
M 741 3794 
Q 741 3575 895 3420 
Q 1050 3266 1269 3266 
Q 1484 3266 1639 3420 
Q 1794 3575 1794 3794 
Q 1794 4013 1639 4167 
Q 1484 4322 1269 4322 
Q 1050 4322 895 4167 
Q 741 4013 741 3794 
z
" transform="scale(0.015625)"/>
       <path id="ArialMT-26" d="M 3763 1606 
L 4369 1453 
Q 4178 706 3683 314 
Q 3188 -78 2472 -78 
Q 1731 -78 1267 223 
Q 803 525 561 1097 
Q 319 1669 319 2325 
Q 319 3041 592 3573 
Q 866 4106 1370 4382 
Q 1875 4659 2481 4659 
Q 3169 4659 3637 4309 
Q 4106 3959 4291 3325 
L 3694 3184 
Q 3534 3684 3231 3912 
Q 2928 4141 2469 4141 
Q 1941 4141 1586 3887 
Q 1231 3634 1087 3207 
Q 944 2781 944 2328 
Q 944 1744 1114 1308 
Q 1284 872 1643 656 
Q 2003 441 2422 441 
Q 2931 441 3284 734 
Q 3638 1028 3763 1606 
z
" transform="scale(0.015625)"/>
       <path id="ArialMT-c" d="M 791 -1347 
L 388 -1347 
Q 1322 153 1322 1656 
Q 1322 2244 1188 2822 
Q 1081 3291 891 3722 
Q 769 4003 388 4659 
L 791 4659 
Q 1378 3875 1659 3084 
Q 1900 2403 1900 1659 
Q 1900 816 1576 28 
Q 1253 -759 791 -1347 
z
" transform="scale(0.015625)"/>
      </defs>
      <use xlink:href="#ArialMT-37"/>
      <use xlink:href="#ArialMT-14" transform="translate(61.078125 0)"/>
      <use xlink:href="#ArialMT-3" transform="translate(116.6875 0)"/>
      <use xlink:href="#ArialMT-37" transform="translate(142.65625 0)"/>
      <use xlink:href="#ArialMT-48" transform="translate(192.65625 0)"/>
      <use xlink:href="#ArialMT-50" transform="translate(248.265625 0)"/>
      <use xlink:href="#ArialMT-53" transform="translate(331.5625 0)"/>
      <use xlink:href="#ArialMT-48" transform="translate(387.171875 0)"/>
      <use xlink:href="#ArialMT-55" transform="translate(442.78125 0)"/>
      <use xlink:href="#ArialMT-44" transform="translate(476.078125 0)"/>
      <use xlink:href="#ArialMT-57" transform="translate(531.6875 0)"/>
      <use xlink:href="#ArialMT-58" transform="translate(559.46875 0)"/>
      <use xlink:href="#ArialMT-55" transform="translate(615.078125 0)"/>
      <use xlink:href="#ArialMT-48" transform="translate(648.375 0)"/>
      <use xlink:href="#ArialMT-3" transform="translate(703.984375 0)"/>
      <use xlink:href="#ArialMT-b" transform="translate(731.765625 0)"/>
      <use xlink:href="#ArialMT-83" transform="translate(765.0625 0)"/>
      <use xlink:href="#ArialMT-26" transform="translate(805.046875 0)"/>
      <use xlink:href="#ArialMT-c" transform="translate(877.265625 0)"/>
     </g>
    </g>
   </g>
   <g id="matplotlib.axis_2">
    <g id="ytick_1">
     <g id="line2d_26">
      <defs>
       <path id="m6b4ab9cc7b" d="M 0 0 
L 6 0 
" style="stroke: #000000; stroke-width: 1.5"/>
      </defs>
      <g>
       <use xlink:href="#m6b4ab9cc7b" x="60.598945" y="292.136835" style="stroke: #000000; stroke-width: 1.5"/>
      </g>
     </g>
     <g id="text_9">
      <!-- $\mathdefault{10^{-14}}$ -->
      <g transform="translate(24.338945 298.576835) scale(0.14 -0.14)">
       <defs>
        <path id="ArialMT-ed" d="M 3381 1997 
L 356 1997 
L 356 2522 
L 3381 2522 
L 3381 1997 
z
" transform="scale(0.015625)"/>
       </defs>
       <use xlink:href="#ArialMT-14" transform="translate(0 0.3875)"/>
       <use xlink:href="#ArialMT-13" transform="translate(55.615234 0.3875)"/>
       <use xlink:href="#ArialMT-ed" transform="translate(112.1875 41.6875) scale(0.7)"/>
       <use xlink:href="#ArialMT-14" transform="translate(153.066406 41.6875) scale(0.7)"/>
       <use xlink:href="#ArialMT-17" transform="translate(191.99707 41.6875) scale(0.7)"/>
      </g>
     </g>
    </g>
    <g id="ytick_2">
     <g id="line2d_27">
      <g>
       <use xlink:href="#m6b4ab9cc7b" x="60.598945" y="189.842132" style="stroke: #000000; stroke-width: 1.5"/>
      </g>
     </g>
     <g id="text_10">
      <!-- $\mathdefault{10^{-13}}$ -->
      <g transform="translate(24.338945 196.282132) scale(0.14 -0.14)">
       <defs>
        <path id="ArialMT-16" d="M 269 1209 
L 831 1284 
Q 928 806 1161 595 
Q 1394 384 1728 384 
Q 2125 384 2398 659 
Q 2672 934 2672 1341 
Q 2672 1728 2419 1979 
Q 2166 2231 1775 2231 
Q 1616 2231 1378 2169 
L 1441 2663 
Q 1497 2656 1531 2656 
Q 1891 2656 2178 2843 
Q 2466 3031 2466 3422 
Q 2466 3731 2256 3934 
Q 2047 4138 1716 4138 
Q 1388 4138 1169 3931 
Q 950 3725 888 3313 
L 325 3413 
Q 428 3978 793 4289 
Q 1159 4600 1703 4600 
Q 2078 4600 2393 4439 
Q 2709 4278 2876 4000 
Q 3044 3722 3044 3409 
Q 3044 3113 2884 2869 
Q 2725 2625 2413 2481 
Q 2819 2388 3044 2092 
Q 3269 1797 3269 1353 
Q 3269 753 2831 336 
Q 2394 -81 1725 -81 
Q 1122 -81 723 278 
Q 325 638 269 1209 
z
" transform="scale(0.015625)"/>
       </defs>
       <use xlink:href="#ArialMT-14" transform="translate(0 0.3875)"/>
       <use xlink:href="#ArialMT-13" transform="translate(55.615234 0.3875)"/>
       <use xlink:href="#ArialMT-ed" transform="translate(112.1875 41.6875) scale(0.7)"/>
       <use xlink:href="#ArialMT-14" transform="translate(153.066406 41.6875) scale(0.7)"/>
       <use xlink:href="#ArialMT-16" transform="translate(191.99707 41.6875) scale(0.7)"/>
      </g>
     </g>
    </g>
    <g id="ytick_3">
     <g id="line2d_28">
      <g>
       <use xlink:href="#m6b4ab9cc7b" x="60.598945" y="87.547428" style="stroke: #000000; stroke-width: 1.5"/>
      </g>
     </g>
     <g id="text_11">
      <!-- $\mathdefault{10^{-12}}$ -->
      <g transform="translate(24.338945 93.987428) scale(0.14 -0.14)">
       <use xlink:href="#ArialMT-14" transform="translate(0 0.3875)"/>
       <use xlink:href="#ArialMT-13" transform="translate(55.615234 0.3875)"/>
       <use xlink:href="#ArialMT-ed" transform="translate(112.1875 41.6875) scale(0.7)"/>
       <use xlink:href="#ArialMT-14" transform="translate(153.066406 41.6875) scale(0.7)"/>
       <use xlink:href="#ArialMT-15" transform="translate(191.99707 41.6875) scale(0.7)"/>
      </g>
     </g>
    </g>
    <g id="ytick_4">
     <g id="line2d_29">
      <defs>
       <path id="mf58d3599ec" d="M 0 0 
L 3 0 
" style="stroke: #000000"/>
      </defs>
      <g>
       <use xlink:href="#mf58d3599ec" x="60.598945" y="296.817584" style="stroke: #000000"/>
      </g>
     </g>
    </g>
    <g id="ytick_5">
     <g id="line2d_30">
      <g>
       <use xlink:href="#mf58d3599ec" x="60.598945" y="261.343061" style="stroke: #000000"/>
      </g>
     </g>
    </g>
    <g id="ytick_6">
     <g id="line2d_31">
      <g>
       <use xlink:href="#mf58d3599ec" x="60.598945" y="243.329858" style="stroke: #000000"/>
      </g>
     </g>
    </g>
    <g id="ytick_7">
     <g id="line2d_32">
      <g>
       <use xlink:href="#mf58d3599ec" x="60.598945" y="230.549287" style="stroke: #000000"/>
      </g>
     </g>
    </g>
    <g id="ytick_8">
     <g id="line2d_33">
      <g>
       <use xlink:href="#mf58d3599ec" x="60.598945" y="220.635906" style="stroke: #000000"/>
      </g>
     </g>
    </g>
    <g id="ytick_9">
     <g id="line2d_34">
      <g>
       <use xlink:href="#mf58d3599ec" x="60.598945" y="212.536084" style="stroke: #000000"/>
      </g>
     </g>
    </g>
    <g id="ytick_10">
     <g id="line2d_35">
      <g>
       <use xlink:href="#mf58d3599ec" x="60.598945" y="205.687782" style="stroke: #000000"/>
      </g>
     </g>
    </g>
    <g id="ytick_11">
     <g id="line2d_36">
      <g>
       <use xlink:href="#mf58d3599ec" x="60.598945" y="199.755513" style="stroke: #000000"/>
      </g>
     </g>
    </g>
    <g id="ytick_12">
     <g id="line2d_37">
      <g>
       <use xlink:href="#mf58d3599ec" x="60.598945" y="194.522881" style="stroke: #000000"/>
      </g>
     </g>
    </g>
    <g id="ytick_13">
     <g id="line2d_38">
      <g>
       <use xlink:href="#mf58d3599ec" x="60.598945" y="159.048357" style="stroke: #000000"/>
      </g>
     </g>
    </g>
    <g id="ytick_14">
     <g id="line2d_39">
      <g>
       <use xlink:href="#mf58d3599ec" x="60.598945" y="141.035154" style="stroke: #000000"/>
      </g>
     </g>
    </g>
    <g id="ytick_15">
     <g id="line2d_40">
      <g>
       <use xlink:href="#mf58d3599ec" x="60.598945" y="128.254583" style="stroke: #000000"/>
      </g>
     </g>
    </g>
    <g id="ytick_16">
     <g id="line2d_41">
      <g>
       <use xlink:href="#mf58d3599ec" x="60.598945" y="118.341202" style="stroke: #000000"/>
      </g>
     </g>
    </g>
    <g id="ytick_17">
     <g id="line2d_42">
      <g>
       <use xlink:href="#mf58d3599ec" x="60.598945" y="110.24138" style="stroke: #000000"/>
      </g>
     </g>
    </g>
    <g id="ytick_18">
     <g id="line2d_43">
      <g>
       <use xlink:href="#mf58d3599ec" x="60.598945" y="103.393078" style="stroke: #000000"/>
      </g>
     </g>
    </g>
    <g id="ytick_19">
     <g id="line2d_44">
      <g>
       <use xlink:href="#mf58d3599ec" x="60.598945" y="97.460809" style="stroke: #000000"/>
      </g>
     </g>
    </g>
    <g id="ytick_20">
     <g id="line2d_45">
      <g>
       <use xlink:href="#mf58d3599ec" x="60.598945" y="92.228177" style="stroke: #000000"/>
      </g>
     </g>
    </g>
    <g id="ytick_21">
     <g id="line2d_46">
      <g>
       <use xlink:href="#mf58d3599ec" x="60.598945" y="56.753654" style="stroke: #000000"/>
      </g>
     </g>
    </g>
    <g id="ytick_22">
     <g id="line2d_47">
      <g>
       <use xlink:href="#mf58d3599ec" x="60.598945" y="38.74045" style="stroke: #000000"/>
      </g>
     </g>
    </g>
    <g id="ytick_23">
     <g id="line2d_48">
      <g>
       <use xlink:href="#mf58d3599ec" x="60.598945" y="25.959879" style="stroke: #000000"/>
      </g>
     </g>
    </g>
    <g id="ytick_24">
     <g id="line2d_49">
      <g>
       <use xlink:href="#mf58d3599ec" x="60.598945" y="16.046498" style="stroke: #000000"/>
      </g>
     </g>
    </g>
    <g id="ytick_25">
     <g id="line2d_50">
      <g>
       <use xlink:href="#mf58d3599ec" x="60.598945" y="7.946676" style="stroke: #000000"/>
      </g>
     </g>
    </g>
    <g id="text_12">
     <!-- Ion Current (m/z 12) -->
     <g transform="translate(17.392383 216.137266) rotate(-90) scale(0.14 -0.14)">
      <defs>
       <path id="ArialMT-2c" d="M 597 0 
L 597 4581 
L 1203 4581 
L 1203 0 
L 597 0 
z
" transform="scale(0.015625)"/>
       <path id="ArialMT-52" d="M 213 1659 
Q 213 2581 725 3025 
Q 1153 3394 1769 3394 
Q 2453 3394 2887 2945 
Q 3322 2497 3322 1706 
Q 3322 1066 3130 698 
Q 2938 331 2570 128 
Q 2203 -75 1769 -75 
Q 1072 -75 642 372 
Q 213 819 213 1659 
z
M 791 1659 
Q 791 1022 1069 705 
Q 1347 388 1769 388 
Q 2188 388 2466 706 
Q 2744 1025 2744 1678 
Q 2744 2294 2464 2611 
Q 2184 2928 1769 2928 
Q 1347 2928 1069 2612 
Q 791 2297 791 1659 
z
" transform="scale(0.015625)"/>
       <path id="ArialMT-51" d="M 422 0 
L 422 3319 
L 928 3319 
L 928 2847 
Q 1294 3394 1984 3394 
Q 2284 3394 2536 3286 
Q 2788 3178 2913 3003 
Q 3038 2828 3088 2588 
Q 3119 2431 3119 2041 
L 3119 0 
L 2556 0 
L 2556 2019 
Q 2556 2363 2490 2533 
Q 2425 2703 2258 2804 
Q 2091 2906 1866 2906 
Q 1506 2906 1245 2678 
Q 984 2450 984 1813 
L 984 0 
L 422 0 
z
" transform="scale(0.015625)"/>
       <path id="ArialMT-12" d="M 0 -78 
L 1328 4659 
L 1778 4659 
L 453 -78 
L 0 -78 
z
" transform="scale(0.015625)"/>
       <path id="ArialMT-5d" d="M 125 0 
L 125 456 
L 2238 2881 
Q 1878 2863 1603 2863 
L 250 2863 
L 250 3319 
L 2963 3319 
L 2963 2947 
L 1166 841 
L 819 456 
Q 1197 484 1528 484 
L 3063 484 
L 3063 0 
L 125 0 
z
" transform="scale(0.015625)"/>
      </defs>
      <use xlink:href="#ArialMT-2c"/>
      <use xlink:href="#ArialMT-52" transform="translate(27.78125 0)"/>
      <use xlink:href="#ArialMT-51" transform="translate(83.390625 0)"/>
      <use xlink:href="#ArialMT-3" transform="translate(139 0)"/>
      <use xlink:href="#ArialMT-26" transform="translate(166.78125 0)"/>
      <use xlink:href="#ArialMT-58" transform="translate(239 0)"/>
      <use xlink:href="#ArialMT-55" transform="translate(294.609375 0)"/>
      <use xlink:href="#ArialMT-55" transform="translate(327.90625 0)"/>
      <use xlink:href="#ArialMT-48" transform="translate(361.203125 0)"/>
      <use xlink:href="#ArialMT-51" transform="translate(416.8125 0)"/>
      <use xlink:href="#ArialMT-57" transform="translate(472.421875 0)"/>
      <use xlink:href="#ArialMT-3" transform="translate(500.203125 0)"/>
      <use xlink:href="#ArialMT-b" transform="translate(527.984375 0)"/>
      <use xlink:href="#ArialMT-50" transform="translate(561.28125 0)"/>
      <use xlink:href="#ArialMT-12" transform="translate(644.578125 0)"/>
      <use xlink:href="#ArialMT-5d" transform="translate(672.359375 0)"/>
      <use xlink:href="#ArialMT-3" transform="translate(722.359375 0)"/>
      <use xlink:href="#ArialMT-14" transform="translate(750.140625 0)"/>
      <use xlink:href="#ArialMT-15" transform="translate(805.75 0)"/>
      <use xlink:href="#ArialMT-c" transform="translate(861.359375 0)"/>
     </g>
    </g>
   </g>
   <g id="line2d_51">
    <path d="M 78.802131 213.683473 
L 78.802131 191.049819 
L 78.680371 205.661455 
L 78.680371 208.662401 
L 78.832572 220.168525 
L 79.502254 214.345923 
L 81.08514 213.66929 
L 83.276828 215.811478 
L 85.407636 212.252658 
L 87.203602 215.038463 
L 88.634287 206.34929 
L 89.821452 203.465799 
L 91.008616 205.185659 
L 92.07402 203.061336 
L 93.169864 206.903757 
L 94.357028 204.201826 
L 95.574632 202.46265 
L 96.792237 202.951048 
L 98.131602 202.771652 
L 99.440527 213.404095 
L 100.688571 208.080258 
L 101.936616 210.828021 
L 103.15422 211.826215 
L 104.280504 205.366842 
L 105.467668 205.375109 
L 106.654833 215.52321 
L 107.872437 220.676533 
L 108.998721 220.592548 
L 110.185886 220.989608 
L 111.37305 228.165857 
L 112.560214 223.109853 
L 113.747379 223.580293 
L 114.964983 215.08393 
L 116.182587 211.321562 
L 117.369752 212.453334 
L 118.587356 212.927595 
L 119.77452 211.592382 
L 122.118409 193.708761 
L 123.305573 188.208276 
L 124.492738 189.751861 
L 125.679902 187.984991 
L 126.867066 189.090631 
L 128.084671 189.104156 
L 129.241395 197.29977 
L 130.458999 201.651696 
L 131.646164 208.820158 
L 134.020492 197.420549 
L 135.207657 194.161768 
L 136.425261 203.98086 
L 138.86047 213.28336 
L 140.078074 219.269171 
L 141.234798 231.088073 
L 142.421963 230.726352 
L 143.639567 224.879388 
L 144.765851 213.898111 
L 145.953016 206.367238 
L 147.17062 200.875137 
L 148.388225 204.992557 
L 149.575389 205.16766 
L 150.792993 195.620565 
L 151.919277 194.092167 
L 153.106442 190.007058 
L 154.263166 194.58214 
L 155.45033 191.243923 
L 156.607054 192.842596 
L 157.824659 191.001026 
L 159.011823 193.734097 
L 160.198987 201.471152 
L 161.416592 207.079278 
L 162.573316 198.065438 
L 163.790921 197.017419 
L 164.947645 202.625098 
L 166.165249 201.818693 
L 167.352413 196.844742 
L 168.570018 195.320422 
L 169.787622 196.413338 
L 170.944347 193.864267 
L 172.161951 200.352425 
L 173.349115 203.170355 
L 174.505839 193.621686 
L 175.662564 197.57678 
L 176.880168 204.376112 
L 178.036892 202.704506 
L 179.193617 208.457553 
L 180.380781 207.950563 
L 181.598385 203.103682 
L 182.84643 196.331976 
L 184.033594 198.776341 
L 185.251199 197.781906 
L 186.468803 187.487643 
L 187.686407 187.279569 
L 188.843132 183.983572 
L 189.999856 184.896187 
L 191.21746 190.385992 
L 192.435065 194.00387 
L 193.561349 193.190567 
L 194.687633 198.637552 
L 195.905237 206.953056 
L 197.092402 201.495134 
L 198.279566 191.204813 
L 199.46673 184.126923 
L 200.653895 182.768982 
L 202.967343 190.768581 
L 204.184947 193.756804 
L 205.372112 190.410019 
L 206.528836 189.415984 
L 207.716 186.895344 
L 208.903165 184.812245 
L 210.120769 190.877934 
L 212.464657 204.999075 
L 213.682262 205.137054 
L 216.056591 208.680475 
L 217.213315 201.482194 
L 219.618083 200.508573 
L 220.774808 204.03685 
L 221.961972 215.300149 
L 223.149136 211.710379 
L 224.336301 204.220757 
L 225.462585 198.221382 
L 226.680189 204.064239 
L 227.836913 205.758025 
L 229.024078 204.559564 
L 230.272122 197.101017 
L 231.428846 196.332092 
L 232.616011 197.855997 
L 233.711855 210.240788 
L 234.838139 205.774377 
L 236.025303 218.850447 
L 237.242908 223.265531 
L 238.460512 229.277101 
L 239.647676 226.122935 
L 240.865281 218.814222 
L 242.052445 205.113038 
L 243.178729 197.3936 
L 244.396334 202.102709 
L 245.583498 202.657602 
L 246.801102 205.159804 
L 247.957827 207.162582 
L 249.144991 193.802125 
L 250.362595 188.14796 
L 251.54976 188.837816 
L 252.706484 190.629974 
L 253.893648 191.482392 
L 255.080812 189.896442 
L 256.267977 195.479227 
L 257.485581 204.913677 
L 258.672745 220.223117 
L 259.82947 218.630749 
L 261.077514 205.288627 
L 262.234238 205.613961 
L 263.421403 204.898373 
L 264.578127 200.728852 
L 265.765291 200.468713 
L 267.013336 203.439508 
L 268.13962 200.186544 
L 269.326784 204.567374 
L 270.513949 202.525556 
L 271.670673 200.07815 
L 272.888277 195.077659 
L 274.136322 190.860021 
L 275.353926 190.092789 
L 276.54109 193.670548 
L 277.697815 195.426116 
L 278.915419 197.736969 
L 280.072143 196.598833 
L 281.289748 201.936581 
L 282.507352 202.147211 
L 283.694516 199.851936 
L 284.881681 199.503302 
L 286.068845 199.681796 
L 287.225569 207.231445 
L 288.443174 208.885759 
L 289.599898 197.796792 
L 290.756622 196.915991 
L 291.943786 197.07108 
L 293.130951 199.632225 
L 294.287675 190.182853 
L 295.505279 191.070484 
L 296.722884 189.335456 
L 297.849168 192.293598 
L 299.066772 197.078644 
L 300.284377 194.247314 
L 301.410661 196.303436 
L 302.597825 197.404683 
L 303.78499 191.991079 
L 304.972154 196.210285 
L 306.159318 192.67058 
L 307.285602 191.96921 
L 308.503207 188.009558 
L 309.690371 183.55601 
L 310.847095 186.170538 
L 312.03426 188.513275 
L 313.221424 194.152413 
L 314.408588 196.563729 
L 315.595752 198.028949 
L 316.752477 206.563867 
L 317.909201 203.069437 
L 319.157245 201.572501 
L 320.34441 202.742741 
L 321.501134 197.541783 
L 322.627418 195.37533 
L 323.875463 188.322604 
L 325.032187 183.39155 
L 326.249791 187.880096 
L 327.406515 187.957983 
L 328.56324 189.291691 
L 329.750404 192.087287 
L 330.968008 201.585892 
L 332.094292 216.627416 
L 333.342337 221.667023 
L 334.833902 218.862726 
L 337.299551 191.636939 
L 338.517156 191.778257 
L 339.64344 188.495264 
L 340.800164 184.155744 
L 342.048209 185.113989 
L 343.235373 186.481093 
L 345.548821 192.363516 
L 346.796866 195.037098 
L 349.201635 184.425498 
L 350.358359 191.389665 
L 351.484643 192.205793 
L 352.702247 190.299954 
L 353.950292 193.565359 
L 355.015696 194.787107 
L 356.20286 198.285395 
L 357.481345 197.321525 
L 358.607629 185.552562 
L 359.825233 182.944401 
L 361.042838 184.803323 
L 362.260442 187.113254 
L 363.264966 187.922283 
L 364.51301 185.700253 
L 366.856899 198.132663 
L 368.074503 197.852858 
L 369.444308 186.152632 
L 370.631473 179.50477 
L 371.757757 180.549078 
L 372.853601 180.44068 
L 374.040765 177.528726 
L 375.197489 181.295289 
L 376.415094 180.228695 
L 377.480497 181.451838 
L 378.667662 176.031723 
L 379.854826 169.474796 
L 381.04199 161.962741 
L 382.198715 158.529975 
L 383.446759 155.808052 
L 384.542603 156.147668 
L 385.760208 155.216192 
L 386.856052 155.174422 
L 388.225857 150.865323 
L 389.382581 145.023608 
L 390.569745 144.219699 
L 391.726469 145.708965 
L 392.974514 142.120796 
L 393.979037 138.467698 
L 395.622803 137.157309 
L 396.870848 135.842242 
L 398.149333 127.270644 
L 400.462781 114.597563 
L 401.710826 109.877173 
L 402.776229 109.353546 
L 403.963394 107.473804 
L 405.059238 103.427257 
L 406.368162 101.627712 
L 408.742491 96.013291 
L 410.020976 89.90444 
L 411.14726 83.077542 
L 412.243104 78.229592 
L 413.369388 74.889706 
L 414.647873 71.520916 
L 415.743717 65.958027 
L 420.644574 46.47883 
L 421.679538 41.578187 
L 424.145187 32.238701 
L 425.119271 27.852614 
L 425.119271 27.852614 
" clip-path="url(#p0b5ddab532)" style="fill: none; stroke: #000000; stroke-width: 2.5; stroke-linecap: square"/>
   </g>
   <g id="line2d_52">
    <path d="M 71.100783 189.801806 
L 71.100783 190.722878 
L 71.100783 179.156935 
L 71.252984 176.876096 
L 71.892226 179.6162 
L 73.566432 188.630121 
L 75.72768 190.199258 
L 77.828048 192.154159 
L 79.593574 201.048513 
L 81.0547 198.455515 
L 82.272304 193.108991 
L 83.368148 190.296072 
L 84.372672 178.646771 
L 85.559836 178.645341 
L 86.77744 179.835808 
L 87.873284 188.847569 
L 89.151769 189.290398 
L 90.369374 196.157288 
L 91.465218 194.495071 
L 92.774142 194.190116 
L 93.900426 188.415194 
L 95.148471 189.711758 
L 96.396515 180.906522 
L 97.64456 182.848946 
L 98.862164 184.15137 
L 100.140649 190.571514 
L 101.449574 186.923739 
L 102.575858 191.785458 
L 103.823902 188.774411 
L 104.950187 192.459654 
L 106.167791 192.159439 
L 107.294075 193.281693 
L 108.57256 195.2872 
L 109.790164 203.347977 
L 110.946888 215.884738 
L 112.073172 225.088277 
L 113.290777 217.664026 
L 114.508381 226.127837 
L 115.695546 225.588326 
L 116.91315 238.295065 
L 117.978554 233.134998 
L 119.226598 211.785972 
L 120.413763 196.886989 
L 121.631367 185.463065 
L 122.879412 179.447502 
L 123.944816 179.202328 
L 125.19286 175.358599 
L 126.380024 176.795897 
L 127.628069 181.854013 
L 128.754353 195.903782 
L 129.971958 208.265366 
L 131.220002 201.605239 
L 132.285406 197.127392 
L 133.53345 190.868299 
L 134.751055 196.611786 
L 135.846899 195.8377 
L 137.094943 190.146497 
L 138.342988 183.226704 
L 139.499712 187.520964 
L 140.747757 192.982474 
L 141.965361 194.852416 
L 143.122085 188.834315 
L 144.248369 187.939972 
L 145.405094 185.909045 
L 146.622698 188.315227 
L 147.809862 182.153113 
L 148.997027 179.002694 
L 150.153751 178.380665 
L 152.6194 191.636988 
L 153.806564 193.619961 
L 154.932848 199.617545 
L 156.211333 201.186002 
L 158.463901 189.172785 
L 159.742386 188.752221 
L 160.89911 178.708253 
L 162.177595 174.406823 
L 163.303879 172.62256 
L 164.491043 175.703024 
L 165.678207 174.209796 
L 166.834932 175.416339 
L 169.27014 174.829771 
L 170.487745 173.059051 
L 171.644469 170.748542 
L 172.862073 163.804403 
L 173.988358 161.215661 
L 175.114642 157.465108 
L 176.362686 156.496563 
L 177.549851 157.442362 
L 179.893739 162.066503 
L 181.080903 164.580381 
L 182.298508 157.752066 
L 183.546552 153.68918 
L 184.703277 150.970798 
L 187.077605 142.299941 
L 188.203889 141.492271 
L 189.512814 139.515973 
L 190.639098 135.644358 
L 191.795822 133.203373 
L 192.982987 132.175431 
L 194.170151 128.664547 
L 195.357315 128.095148 
L 197.762084 131.489995 
L 198.949248 134.382937 
L 200.105973 140.102438 
L 201.293137 142.910851 
L 202.510741 142.436869 
L 203.728346 142.272356 
L 206.041794 145.096851 
L 207.228958 146.802939 
L 208.446563 148.205495 
L 209.664167 146.776398 
L 210.790451 147.574428 
L 212.008056 150.842468 
L 213.16478 151.94474 
L 214.351944 148.462877 
L 215.539109 147.120891 
L 216.726273 149.69938 
L 217.822117 154.680057 
L 219.131042 155.519852 
L 220.226886 156.713123 
L 221.44449 160.577897 
L 222.601214 160.517653 
L 223.818819 159.564299 
L 225.005983 160.339181 
L 226.162707 158.471532 
L 227.319431 160.502888 
L 228.506596 161.695556 
L 229.69376 167.931642 
L 230.850484 165.344381 
L 232.098529 167.153881 
L 233.255253 163.029847 
L 234.442417 159.852086 
L 235.660022 155.191285 
L 236.786306 155.046939 
L 238.03435 151.1808 
L 239.221515 145.975566 
L 240.347799 145.729404 
L 241.534963 147.266399 
L 243.878852 148.590402 
L 245.066016 148.452074 
L 246.22274 152.345333 
L 247.470785 152.041322 
L 248.657949 155.188022 
L 249.814673 151.698547 
L 251.032278 146.323931 
L 252.189002 148.2357 
L 253.406606 149.778348 
L 256.968099 157.132023 
L 258.124823 155.806341 
L 259.372868 152.216816 
L 260.499152 148.404182 
L 262.873481 140.935787 
L 264.091085 142.006655 
L 265.27825 147.339559 
L 266.404534 147.521287 
L 267.652578 151.247115 
L 268.809302 153.169281 
L 269.966027 153.441393 
L 271.153191 152.965581 
L 272.340355 153.498163 
L 273.5884 153.146244 
L 274.866884 149.772949 
L 275.993168 149.136912 
L 277.210773 151.618273 
L 278.397937 146.757921 
L 279.615542 144.495573 
L 280.802706 145.710978 
L 283.116154 151.228935 
L 284.303319 152.974604 
L 285.490483 153.571274 
L 286.708087 153.188122 
L 287.864812 153.069347 
L 289.051976 154.858697 
L 290.23914 149.933823 
L 291.456745 150.803023 
L 292.613469 153.710568 
L 293.770193 152.513851 
L 294.987798 149.508444 
L 296.144522 147.448157 
L 297.301246 146.367577 
L 298.51885 145.729206 
L 299.736455 143.72569 
L 300.862739 144.250093 
L 302.080343 145.483569 
L 303.297948 151.039799 
L 304.424232 153.533056 
L 305.611396 153.053917 
L 306.79856 156.660874 
L 308.016165 158.22227 
L 309.142449 155.823849 
L 310.360053 157.139466 
L 311.486338 151.898903 
L 312.703942 151.402485 
L 313.891106 152.537285 
L 315.04783 151.780341 
L 316.234995 150.283022 
L 317.391719 151.901495 
L 318.578883 156.188073 
L 319.766048 158.553086 
L 320.983652 155.740067 
L 322.170816 155.609396 
L 323.357981 151.009171 
L 324.484265 150.485532 
L 325.671429 147.592388 
L 326.889034 148.319357 
L 328.106638 149.435526 
L 329.202482 152.529413 
L 330.450526 153.289404 
L 331.607251 149.047833 
L 332.763975 142.163507 
L 334.2251 140.325261 
L 335.534025 140.090643 
L 336.751629 142.352488 
L 337.999674 139.787913 
L 339.186838 143.756992 
L 340.313122 143.190599 
L 341.561167 144.515086 
L 342.717891 141.848758 
L 343.844175 136.849992 
L 345.09222 136.261523 
L 346.248944 137.330621 
L 348.623273 139.924016 
L 349.840877 138.416253 
L 351.028041 139.099813 
L 352.215206 138.393668 
L 355.685378 131.845229 
L 356.933423 132.853174 
L 358.120587 133.623424 
L 359.277311 136.01655 
L 360.525356 136.919696 
L 361.56032 138.579007 
L 362.869244 139.89458 
L 364.117289 142.588038 
L 365.213133 138.968896 
L 366.339417 140.059512 
L 367.526581 139.271513 
L 368.713746 139.95622 
L 369.99223 138.538213 
L 371.179395 140.313112 
L 372.366559 137.284621 
L 373.492843 135.954417 
L 374.680007 136.848831 
L 377.054336 133.58562 
L 378.11974 136.359451 
L 379.398224 137.626521 
L 380.585389 137.543264 
L 381.681233 136.594354 
L 382.929277 140.140817 
L 384.116442 140.13076 
L 385.242726 142.605122 
L 386.42989 141.262673 
L 387.586614 136.755384 
L 388.834659 134.412101 
L 390.052263 131.222883 
L 391.117667 126.297979 
L 392.365712 123.339951 
L 393.583316 121.509753 
L 394.892241 120.620562 
L 396.292486 118.787194 
L 397.38833 120.35573 
L 398.758135 116.5591 
L 399.914859 114.238783 
L 401.071583 109.852774 
L 402.289188 107.097016 
L 403.445912 102.602102 
L 405.911561 94.892135 
L 408.255449 87.449344 
L 409.412174 84.655299 
L 410.386257 80.196198 
L 411.725622 76.610157 
L 412.912786 71.634429 
L 414.160831 68.425022 
L 416.382959 59.550431 
L 417.661444 55.838149 
L 418.909488 51.793868 
L 419.974892 47.773675 
L 422.2579 40.69299 
L 424.784429 35.2661 
L 424.784429 35.2661 
" clip-path="url(#p0b5ddab532)" style="fill: none; stroke: #1f77b4; stroke-width: 2.5; stroke-linecap: square"/>
   </g>
   <g id="line2d_53">
    <path d="M 70.918143 184.819945 
L 70.918143 173.747511 
L 70.918143 194.412405 
L 71.039903 191.210646 
L 71.618265 192.740874 
L 73.01851 182.275727 
L 75.179758 177.044875 
L 77.341006 183.091157 
L 79.258733 181.885147 
L 80.780739 187.379571 
L 82.028783 186.496815 
L 83.124627 198.466195 
L 84.220471 199.283292 
L 85.316315 191.456685 
L 87.629764 179.419171 
L 88.847368 180.562204 
L 90.034532 188.088708 
L 91.221697 189.801439 
L 92.408861 191.22513 
L 93.596025 188.592368 
L 94.81363 201.961942 
L 97.309719 214.187875 
L 98.649084 198.387184 
L 99.927568 202.318653 
L 101.145173 198.145054 
L 102.332337 190.038133 
L 103.519501 183.575892 
L 104.706666 180.902662 
L 105.89383 180.824271 
L 107.080994 185.251541 
L 108.298599 190.413778 
L 109.455323 196.146181 
L 110.672927 198.284002 
L 111.860092 207.284701 
L 113.047256 207.317429 
L 114.26486 207.188686 
L 115.452025 215.104461 
L 116.639189 209.253514 
L 117.826353 207.102322 
L 120.200682 192.710733 
L 121.326966 191.80876 
L 122.575011 189.621349 
L 123.731735 185.594959 
L 124.888459 190.530212 
L 126.106063 187.771044 
L 127.323668 188.162279 
L 128.480392 184.061819 
L 129.667556 185.072268 
L 130.824281 180.718961 
L 131.981005 181.996725 
L 133.229049 187.453704 
L 134.385774 189.299015 
L 135.572938 191.954417 
L 136.790542 195.095636 
L 138.008147 189.478836 
L 139.347512 198.207447 
L 140.443356 200.288468 
L 141.63052 193.948282 
L 144.004849 191.13681 
L 145.192013 189.061816 
L 146.409617 182.228856 
L 147.566342 176.751929 
L 148.783946 176.175199 
L 149.94067 175.793888 
L 151.158275 183.031274 
L 152.284559 187.926736 
L 153.471723 184.400974 
L 154.780648 187.829838 
L 155.906932 180.896532 
L 157.094096 184.051183 
L 158.28126 185.28477 
L 159.529305 189.049289 
L 160.686029 189.120662 
L 162.999478 180.372603 
L 164.247522 179.240312 
L 165.404246 173.414337 
L 166.621851 172.570184 
L 167.809015 169.93547 
L 168.996179 173.383135 
L 170.152904 178.212919 
L 171.340068 184.438976 
L 173.653516 176.349558 
L 174.871121 173.789694 
L 176.058285 170.975567 
L 177.215009 172.705234 
L 178.432614 170.86584 
L 179.650218 166.423212 
L 180.806942 167.774984 
L 181.963667 172.662306 
L 183.181271 177.017089 
L 184.459756 179.163857 
L 185.61648 173.673447 
L 186.894965 171.553183 
L 187.990808 171.913086 
L 189.177973 169.052797 
L 190.365137 161.731304 
L 191.552301 160.048459 
L 192.709026 165.460288 
L 193.92663 167.072852 
L 195.144235 168.372701 
L 196.300959 168.5812 
L 197.427243 161.112946 
L 198.614407 160.46362 
L 199.832012 165.03719 
L 201.019176 156.528497 
L 202.1759 158.71692 
L 203.393504 159.109858 
L 204.550229 157.152945 
L 205.767833 154.73198 
L 206.954997 153.865744 
L 208.111722 155.174696 
L 209.238006 157.908517 
L 210.45561 164.431113 
L 211.703655 167.144396 
L 212.860379 163.284037 
L 214.047543 166.11657 
L 215.265148 159.850462 
L 216.421872 154.6854 
L 217.609036 154.506127 
L 218.73532 156.108393 
L 219.952925 158.816066 
L 221.140089 162.161763 
L 222.296813 161.459981 
L 223.544858 159.484901 
L 224.732022 163.392075 
L 225.888746 161.047766 
L 228.263075 154.043561 
L 229.419799 155.454028 
L 230.637404 155.134335 
L 231.824568 153.59189 
L 233.011732 155.264204 
L 234.168456 154.058319 
L 235.355621 161.856267 
L 236.573225 163.083164 
L 237.729949 160.433477 
L 238.886674 160.135167 
L 240.104278 157.004114 
L 241.261002 158.449854 
L 242.387286 153.39462 
L 243.604891 153.954306 
L 244.883375 154.096572 
L 246.0401 156.834624 
L 247.196824 158.080779 
L 248.383988 150.861279 
L 249.540712 150.020967 
L 250.758317 150.865499 
L 251.945481 150.265335 
L 253.102205 152.412472 
L 254.31981 155.114172 
L 255.537414 155.378538 
L 256.724578 153.901274 
L 257.850863 157.239204 
L 259.129347 154.965487 
L 260.225191 151.568907 
L 261.412355 151.573776 
L 262.6604 149.217357 
L 263.817124 153.076616 
L 264.973848 152.153474 
L 266.130573 159.371827 
L 267.409057 155.742979 
L 268.504901 156.462109 
L 269.722506 154.398819 
L 270.90967 153.747828 
L 273.314439 142.735812 
L 274.562483 138.558357 
L 275.749648 138.299489 
L 276.997692 136.711568 
L 278.123976 141.873517 
L 279.372021 143.428007 
L 280.528745 146.314523 
L 282.872633 158.018305 
L 284.029358 158.221892 
L 285.246962 156.103442 
L 286.464567 160.798073 
L 287.560411 158.409595 
L 288.778015 154.966388 
L 289.965179 152.291604 
L 291.152344 148.459257 
L 292.369948 146.841265 
L 293.435352 148.760051 
L 294.683396 148.002535 
L 295.840121 146.927523 
L 297.057725 147.983811 
L 298.244889 150.619487 
L 299.432054 148.730291 
L 300.680098 145.913077 
L 301.775942 144.507173 
L 302.963107 144.572874 
L 304.180711 142.74963 
L 305.337435 143.329927 
L 306.524599 143.016072 
L 307.711764 143.446971 
L 308.898928 143.433102 
L 310.025212 142.05806 
L 311.242817 142.469473 
L 312.429981 138.727896 
L 313.617145 137.757106 
L 314.743429 136.200668 
L 315.930594 133.827852 
L 317.148198 136.0694 
L 318.365803 136.114046 
L 319.552967 134.422793 
L 320.679251 133.197931 
L 321.866415 132.706603 
L 323.05358 132.776339 
L 324.240744 130.819397 
L 325.427908 130.90184 
L 326.645513 132.700122 
L 327.771797 136.212056 
L 329.019841 138.545079 
L 330.176565 135.291434 
L 331.36373 133.492907 
L 332.520454 132.406839 
L 333.859819 129.822769 
L 335.229624 129.410328 
L 336.416788 125.675318 
L 337.664833 126.642477 
L 340.039161 134.35604 
L 341.287206 136.430533 
L 343.661534 143.47377 
L 344.787819 145.289167 
L 346.005423 144.006532 
L 347.223027 142.154811 
L 348.379752 138.241957 
L 349.536476 139.050966 
L 350.6932 140.839174 
L 351.910804 141.660358 
L 353.067529 144.464018 
L 354.315573 150.671899 
L 355.472297 147.382266 
L 356.568141 150.282223 
L 357.846626 148.440126 
L 359.00335 145.853114 
L 360.190515 146.443627 
L 361.408119 147.89503 
L 362.473523 151.106187 
L 363.752008 147.786972 
L 364.939172 146.487308 
L 366.095896 147.292822 
L 367.3135 143.629949 
L 368.470225 146.307813 
L 369.687829 148.122845 
L 370.844553 150.306218 
L 372.001278 154.23984 
L 373.310202 156.638164 
L 374.436486 150.689854 
L 375.623651 146.257397 
L 376.749935 145.785018 
L 377.906659 143.198447 
L 379.154704 143.329182 
L 380.341868 145.381524 
L 381.559472 149.479115 
L 382.655316 149.164831 
L 383.872921 146.781122 
L 385.060085 143.321679 
L 386.216809 137.576264 
L 387.251773 138.499572 
L 388.530258 139.403513 
L 389.747862 136.34645 
L 390.874146 136.163087 
L 392.091751 137.030812 
L 393.187595 138.137393 
L 394.526959 132.73674 
L 395.927205 128.334767 
L 397.266569 122.648868 
L 398.484174 119.127424 
L 399.701778 113.638943 
L 400.828062 109.623529 
L 403.141511 104.83881 
L 404.328675 104.464495 
L 405.60716 101.762671 
L 406.794324 97.027067 
L 407.859728 92.10762 
L 410.203616 82.735049 
L 411.451661 78.681742 
L 412.730146 75.906927 
L 413.85643 73.862913 
L 416.230758 67.279691 
L 418.574647 59.325617 
L 420.979416 50.107082 
L 424.601789 32.296796 
L 425.423672 25.44148 
L 425.423672 25.44148 
" clip-path="url(#p0b5ddab532)" style="fill: none; stroke: #0033ff; stroke-width: 2.5; stroke-linecap: square"/>
   </g>
   <g id="line2d_54">
    <path d="M 69.091736 255.431677 
L 69.152616 194.294831 
L 69.152616 195.177197 
L 69.243937 199.301579 
L 69.730979 202.466693 
L 71.192104 213.425143 
L 73.292471 225.236376 
L 75.5146 229.031673 
L 77.371446 234.810393 
L 78.954332 234.103803 
L 80.232817 243.098898 
L 82.394065 230.949016 
L 83.550789 225.559239 
L 84.707513 228.162744 
L 85.894677 227.032957 
L 87.051401 216.867087 
L 88.269006 216.01594 
L 89.48661 217.135816 
L 90.673775 223.699344 
L 91.800059 225.355929 
L 92.987223 231.472352 
L 94.204828 235.279251 
L 95.361552 229.769093 
L 96.670476 220.514008 
L 99.288326 200.828712 
L 100.50593 205.365329 
L 101.723535 209.41208 
L 102.941139 209.710649 
L 104.097863 209.117787 
L 106.472192 239.540842 
L 107.689797 221.431291 
L 108.876961 212.396123 
L 110.094565 205.098103 
L 111.251289 200.199566 
L 112.438454 208.750935 
L 113.625618 206.828924 
L 114.812782 209.731775 
L 116.030387 215.789983 
L 117.217551 237.463827 
L 118.374275 286.521626 
L 119.500559 277.742966 
L 120.779044 274.911789 
L 121.966208 237.05126 
L 123.092493 228.674582 
L 124.279657 230.906464 
L 125.436381 224.610547 
L 127.87159 214.966141 
L 129.089194 213.110281 
L 130.276359 225.854469 
L 131.433083 217.144487 
L 132.559367 209.641687 
L 133.807411 203.157451 
L 134.933696 209.265116 
L 136.12086 218.920761 
L 137.399345 221.596189 
L 138.647389 213.506737 
L 139.834553 219.815781 
L 141.052158 212.54158 
L 142.178442 212.618273 
L 143.365606 204.11514 
L 144.552771 204.902812 
L 145.770375 200.966468 
L 146.987979 209.410271 
L 148.175144 220.700888 
L 149.362308 225.361367 
L 150.549472 231.308608 
L 151.706197 245.703721 
L 152.862921 232.431942 
L 155.206809 202.357193 
L 156.515734 194.231139 
L 157.702898 192.17488 
L 158.859623 189.701157 
L 160.077227 194.310595 
L 161.233951 188.492362 
L 162.451556 189.665261 
L 163.63872 194.589909 
L 164.825884 191.854654 
L 165.952168 185.185645 
L 167.108893 180.460383 
L 168.356937 177.613366 
L 169.574542 179.275823 
L 170.731266 175.255246 
L 171.85755 178.076151 
L 173.075154 174.855108 
L 174.262319 179.78376 
L 175.479923 182.418409 
L 176.575767 186.05317 
L 177.823812 189.355103 
L 178.980536 184.314319 
L 180.19814 184.252455 
L 181.385304 177.996942 
L 182.542029 169.376188 
L 183.729193 165.987538 
L 184.977238 164.922645 
L 186.194842 161.269258 
L 187.351566 161.616132 
L 188.50829 162.743159 
L 192.130664 147.863745 
L 193.226508 140.393586 
L 194.383232 135.416423 
L 195.631276 126.745947 
L 196.818441 125.571187 
L 197.944725 119.070468 
L 199.223209 117.654494 
L 200.379934 118.043929 
L 201.627978 114.258266 
L 202.754262 114.126817 
L 203.941426 113.531133 
L 205.098151 114.221848 
L 206.346195 113.454202 
L 207.53336 113.158786 
L 208.720524 119.303952 
L 209.907688 122.569283 
L 211.094853 130.569035 
L 212.251577 142.031615 
L 213.469181 147.652201 
L 214.656345 156.379894 
L 215.84351 158.295024 
L 217.000234 157.985945 
L 218.126518 154.070266 
L 219.313682 159.405417 
L 221.718451 166.406329 
L 222.905615 167.621357 
L 224.09278 172.851439 
L 225.279944 178.952651 
L 226.436668 180.10162 
L 227.623833 177.891141 
L 228.810997 174.853722 
L 230.028601 173.973127 
L 232.37249 171.838221 
L 233.559654 173.185182 
L 234.746818 167.654072 
L 235.933983 160.981554 
L 238.277871 157.297474 
L 239.465036 153.242835 
L 240.62176 150.329085 
L 241.839364 148.553923 
L 243.026529 146.459089 
L 245.370417 154.306399 
L 246.557581 152.44009 
L 247.775186 151.749972 
L 248.96235 153.954299 
L 251.306239 150.190169 
L 252.493403 152.595843 
L 253.680567 151.654806 
L 254.867732 150.548395 
L 256.054896 149.200008 
L 257.2725 148.874127 
L 258.429225 143.376629 
L 259.585949 140.921072 
L 260.803553 140.184129 
L 261.960277 137.66799 
L 263.147442 138.271116 
L 264.365046 143.389624 
L 265.582651 147.672887 
L 266.739375 154.015788 
L 267.896099 155.85554 
L 269.113703 158.79869 
L 270.300868 158.011286 
L 271.457592 162.439854 
L 272.675196 163.11549 
L 273.923241 157.546595 
L 275.110405 158.488034 
L 276.29757 160.192588 
L 277.545614 159.318655 
L 278.671898 157.54581 
L 279.889503 155.210768 
L 281.076667 156.835888 
L 282.233391 159.893136 
L 283.420555 166.140452 
L 284.60772 160.358543 
L 285.764444 153.23163 
L 286.951608 157.204611 
L 288.169213 155.506579 
L 289.325937 156.308539 
L 290.543541 153.053571 
L 291.730706 154.353203 
L 292.91787 157.537921 
L 294.105034 156.45837 
L 295.231318 158.865544 
L 296.448923 155.655064 
L 297.666527 155.976231 
L 298.792811 157.53493 
L 300.040856 155.162516 
L 301.16714 156.121978 
L 302.384744 151.822675 
L 303.541469 151.779408 
L 304.728633 152.886024 
L 305.885357 151.206254 
L 307.072521 156.550184 
L 308.259686 163.814347 
L 309.44685 172.121268 
L 310.664455 171.773597 
L 311.790739 171.915709 
L 314.195507 164.06577 
L 315.382672 161.473397 
L 316.569836 164.761382 
L 317.72656 158.250275 
L 318.883284 158.961377 
L 320.040009 158.429859 
L 321.288053 158.598846 
L 322.444777 158.506717 
L 323.571061 155.618911 
L 324.788666 150.892803 
L 325.91495 153.313883 
L 327.162995 152.635306 
L 328.350159 157.655266 
L 329.537323 152.299346 
L 330.663607 154.080295 
L 331.911652 152.898373 
L 333.129256 154.041119 
L 334.529501 152.810552 
L 335.838426 150.332953 
L 337.086471 149.035111 
L 338.273635 152.048973 
L 339.491239 150.864335 
L 340.678404 149.463601 
L 341.865568 147.619249 
L 342.961412 149.258435 
L 344.239897 148.136851 
L 346.522905 151.107042 
L 347.80139 151.601086 
L 348.927674 154.671447 
L 350.053958 156.44499 
L 351.271562 156.467694 
L 352.397846 155.816156 
L 353.645891 158.187914 
L 354.802615 157.841917 
L 355.989779 156.530919 
L 357.268264 156.259411 
L 358.394548 154.038958 
L 359.551272 150.590144 
L 360.768877 152.4604 
L 361.925601 147.980822 
L 363.112765 147.859288 
L 364.239049 147.193336 
L 366.704698 142.899397 
L 367.830982 138.627371 
L 369.048587 134.693545 
L 370.266191 133.178704 
L 371.362035 134.366137 
L 372.57964 134.44485 
L 373.858124 134.364936 
L 374.893088 136.309549 
L 376.232453 136.337896 
L 377.297857 135.493863 
L 378.454581 136.530754 
L 379.702626 136.713357 
L 380.85935 137.465818 
L 382.016074 142.038203 
L 383.264118 145.354854 
L 384.359962 145.390167 
L 385.516687 147.396079 
L 386.795171 146.422611 
L 387.860575 141.829238 
L 389.10862 140.0897 
L 390.326224 141.142106 
L 392.639673 142.421445 
L 393.796397 144.583624 
L 395.196642 142.360496 
L 396.596887 140.953595 
L 397.723171 136.491411 
L 398.910335 130.949261 
L 400.18882 123.636805 
L 402.593589 118.134073 
L 403.811193 114.353228 
L 404.937477 109.329906 
L 406.185522 106.481758 
L 407.220486 100.255474 
L 408.49897 97.042263 
L 409.594814 90.896531 
L 410.934179 87.846089 
L 411.908263 83.167518 
L 413.156307 79.557189 
L 414.434792 77.56716 
L 415.469756 72.207023 
L 417.904964 63.133594 
L 421.436017 47.339542 
L 424.99751 32.289952 
L 424.99751 32.289952 
" clip-path="url(#p0b5ddab532)" style="fill: none; stroke: #ff7f0e; stroke-width: 2.5; stroke-linecap: square"/>
   </g>
   <g id="line2d_55">
    <path d="M 78.832572 213.212281 
L 78.832572 182.930945 
L 79.410934 182.614816 
L 80.932939 180.432115 
L 83.094187 180.524893 
L 85.285875 180.915445 
L 87.203602 180.60165 
L 88.695167 179.99165 
L 89.912772 183.667896 
L 91.069496 185.766809 
L 92.10446 183.82181 
L 93.291624 184.810025 
L 94.387468 180.916873 
L 95.605073 172.998635 
L 96.883557 170.91461 
L 98.131602 173.835021 
L 99.410086 171.119597 
L 100.658131 172.274986 
L 101.875735 177.838631 
L 103.12378 182.255864 
L 104.250064 188.576539 
L 105.467668 193.573824 
L 106.624393 185.365821 
L 107.841997 182.968317 
L 109.059602 188.189524 
L 110.246766 184.110805 
L 111.37305 183.786087 
L 112.560214 180.406304 
L 113.777819 182.279163 
L 116.243468 175.741697 
L 118.617796 172.772821 
L 119.804961 174.419638 
L 120.992125 179.53151 
L 122.179289 178.990012 
L 123.305573 188.168273 
L 124.492738 183.396629 
L 125.740782 180.93127 
L 128.115111 174.459923 
L 129.271835 177.659844 
L 130.489439 170.909573 
L 131.646164 169.336295 
L 132.802888 171.430854 
L 134.020492 172.319355 
L 135.207657 178.904687 
L 136.425261 177.91517 
L 137.673306 183.004294 
L 138.89091 186.630814 
L 140.108514 190.854207 
L 141.204358 193.002131 
L 142.421963 183.461195 
L 143.609127 185.937893 
L 144.796291 182.892653 
L 145.953016 178.655923 
L 147.17062 176.873 
L 148.357784 177.2798 
L 149.544949 176.220777 
L 150.701673 172.194572 
L 151.888837 171.513539 
L 153.106442 167.502312 
L 154.324046 165.356638 
L 155.51121 167.545295 
L 156.698375 164.672348 
L 157.915979 165.407194 
L 159.072703 165.521922 
L 160.290308 165.887987 
L 162.664636 162.392987 
L 163.851801 163.248393 
L 164.978085 162.437679 
L 166.195689 163.132101 
L 167.382854 162.169361 
L 168.600458 157.363569 
L 169.757182 150.905276 
L 170.944347 145.040372 
L 172.131511 140.53708 
L 173.318675 141.278679 
L 174.475399 135.138356 
L 175.693004 130.077396 
L 176.910608 125.704175 
L 178.158653 125.456234 
L 179.284937 124.885217 
L 180.441661 125.34679 
L 181.628825 125.216622 
L 182.84643 124.814049 
L 184.064034 126.17147 
L 185.281639 126.759077 
L 186.407923 123.285502 
L 187.595087 118.124814 
L 188.751811 113.768135 
L 189.999856 109.639719 
L 191.18702 104.690478 
L 192.404625 102.415229 
L 193.530909 100.860988 
L 194.718073 97.91872 
L 195.905237 97.714942 
L 197.061961 99.256831 
L 198.279566 101.630083 
L 199.46673 101.954448 
L 200.623454 102.140294 
L 201.810619 103.397251 
L 202.997783 101.090999 
L 204.184947 100.958483 
L 205.372112 99.605737 
L 206.589716 96.573067 
L 207.77688 94.570113 
L 208.933605 94.109171 
L 210.120769 92.568995 
L 211.307933 91.379495 
L 213.651822 90.274868 
L 216.056591 85.492089 
L 217.243755 85.021874 
L 218.400479 83.130815 
L 219.587643 82.034534 
L 220.744368 82.956435 
L 221.961972 84.302165 
L 223.118696 84.828841 
L 224.336301 86.036317 
L 225.493025 85.707353 
L 226.710629 87.133192 
L 227.897794 85.707131 
L 229.084958 85.114444 
L 230.241682 83.616848 
L 231.428846 84.050415 
L 232.585571 83.275788 
L 233.772735 83.177852 
L 234.990339 83.41303 
L 236.177504 85.615162 
L 237.303788 86.498565 
L 238.490952 88.553157 
L 239.738997 90.389121 
L 240.834841 90.51999 
L 242.052445 92.92345 
L 243.239609 93.593745 
L 244.426774 92.30061 
L 245.583498 92.836077 
L 247.896946 94.319149 
L 249.084111 92.631139 
L 250.362595 91.974781 
L 251.519319 93.072335 
L 252.706484 93.758996 
L 253.863208 94.630358 
L 255.080812 95.288762 
L 256.267977 94.098455 
L 257.546461 95.757943 
L 259.89035 96.136025 
L 261.077514 95.101582 
L 262.234238 95.731604 
L 263.390963 97.684246 
L 264.608567 100.215955 
L 265.826171 96.838206 
L 266.952456 94.803614 
L 268.17006 91.23916 
L 269.387664 89.37792 
L 271.670673 82.378127 
L 272.918717 81.161339 
L 274.136322 80.631655 
L 275.384366 80.643457 
L 277.758695 78.965334 
L 278.915419 80.237127 
L 281.350628 85.466758 
L 283.694516 87.919096 
L 284.820801 92.237643 
L 286.068845 93.745756 
L 287.195129 94.346582 
L 288.382294 94.692375 
L 289.630338 94.256704 
L 290.817502 93.468902 
L 291.943786 94.002427 
L 293.191831 93.628193 
L 294.378995 91.656288 
L 295.53572 93.11005 
L 296.692444 96.228621 
L 297.849168 97.320347 
L 299.066772 97.418207 
L 300.223497 99.647075 
L 302.628265 96.901651 
L 305.002594 93.248171 
L 306.159318 92.98888 
L 307.376923 95.306475 
L 308.533647 96.837045 
L 309.690371 96.833793 
L 310.847095 95.416692 
L 312.09514 98.352447 
L 313.221424 98.286218 
L 314.439028 95.810606 
L 315.595752 94.585437 
L 316.752477 93.831205 
L 319.126805 93.59303 
L 320.37485 93.789698 
L 321.501134 93.150561 
L 323.875463 96.743835 
L 325.062627 96.799306 
L 326.280231 96.3092 
L 327.436956 96.502735 
L 328.59368 94.322495 
L 329.780844 93.259112 
L 330.968008 91.118316 
L 332.094292 90.257164 
L 333.342337 89.814503 
L 334.833902 90.649271 
L 336.021067 88.874048 
L 337.329991 88.255635 
L 338.517156 88.978135 
L 339.70432 88.528004 
L 340.891484 88.811663 
L 343.204933 91.419901 
L 344.452977 92.195941 
L 345.609702 92.473867 
L 346.735986 91.627161 
L 347.98403 89.793967 
L 349.171195 89.678417 
L 350.358359 90.356023 
L 351.545523 89.569891 
L 352.641367 89.088362 
L 353.889412 88.378475 
L 355.137456 89.390641 
L 356.20286 88.998433 
L 357.450905 88.77389 
L 358.607629 89.610977 
L 359.825233 89.953844 
L 362.199562 95.440242 
L 363.417166 96.325703 
L 364.51301 97.53928 
L 366.887339 101.995307 
L 368.135383 102.818195 
L 369.413868 102.523021 
L 370.479272 103.422214 
L 371.605556 102.101689 
L 372.823161 102.49891 
L 374.040765 101.514656 
L 375.227929 100.050853 
L 377.602258 103.012253 
L 378.698102 102.866175 
L 379.854826 101.785226 
L 381.04199 102.846845 
L 382.229155 103.050971 
L 383.507639 104.52888 
L 384.633923 106.12941 
L 385.760208 105.573424 
L 386.977812 106.045623 
L 388.256297 106.108023 
L 391.696029 100.879602 
L 392.974514 99.865644 
L 394.131238 97.660123 
L 395.501043 99.743134 
L 396.840408 99.644606 
L 398.088452 98.513194 
L 399.275617 95.972285 
L 400.371461 92.207693 
L 403.963394 85.814776 
L 405.089678 81.644642 
L 407.616207 76.857958 
L 408.742491 74.888556 
L 409.838335 71.258201 
L 411.08638 66.570463 
L 412.334424 62.622078 
L 415.865477 52.470754 
L 416.961321 47.931181 
L 418.300686 43.223021 
L 419.42697 39.946982 
L 424.206067 24.625793 
L 425.149711 20.50103 
L 425.149711 20.50103 
" clip-path="url(#p0b5ddab532)" style="fill: none; stroke: #ff0000; stroke-width: 2.5; stroke-linecap: square"/>
   </g>
   <g id="patch_3">
    <path d="M 60.598945 299.822656 
L 60.598945 7.2 
" style="fill: none; stroke: #000000; stroke-width: 1.5; stroke-linejoin: miter; stroke-linecap: square"/>
   </g>
   <g id="patch_4">
    <path d="M 60.598945 299.822656 
L 425.880273 299.822656 
" style="fill: none; stroke: #000000; stroke-width: 1.5; stroke-linejoin: miter; stroke-linecap: square"/>
   </g>
   <g id="legend_1">
    <g id="line2d_56">
     <path d="M 71.398945 22.536328 
L 83.398945 22.536328 
L 95.398945 22.536328 
" style="fill: none; stroke: #000000; stroke-width: 2.5; stroke-linecap: square"/>
    </g>
    <g id="text_13">
     <!-- vacuum -->
     <g transform="translate(104.998945 26.736328) scale(0.12 -0.12)">
      <defs>
       <path id="ArialMT-59" d="M 1344 0 
L 81 3319 
L 675 3319 
L 1388 1331 
Q 1503 1009 1600 663 
Q 1675 925 1809 1294 
L 2547 3319 
L 3125 3319 
L 1869 0 
L 1344 0 
z
" transform="scale(0.015625)"/>
       <path id="ArialMT-46" d="M 2588 1216 
L 3141 1144 
Q 3050 572 2676 248 
Q 2303 -75 1759 -75 
Q 1078 -75 664 370 
Q 250 816 250 1647 
Q 250 2184 428 2587 
Q 606 2991 970 3192 
Q 1334 3394 1763 3394 
Q 2303 3394 2647 3120 
Q 2991 2847 3088 2344 
L 2541 2259 
Q 2463 2594 2264 2762 
Q 2066 2931 1784 2931 
Q 1359 2931 1093 2626 
Q 828 2322 828 1663 
Q 828 994 1084 691 
Q 1341 388 1753 388 
Q 2084 388 2306 591 
Q 2528 794 2588 1216 
z
" transform="scale(0.015625)"/>
      </defs>
      <use xlink:href="#ArialMT-59"/>
      <use xlink:href="#ArialMT-44" transform="translate(50 0)"/>
      <use xlink:href="#ArialMT-46" transform="translate(105.609375 0)"/>
      <use xlink:href="#ArialMT-58" transform="translate(155.609375 0)"/>
      <use xlink:href="#ArialMT-58" transform="translate(211.21875 0)"/>
      <use xlink:href="#ArialMT-50" transform="translate(266.828125 0)"/>
     </g>
    </g>
    <g id="line2d_57">
     <path d="M 71.398945 39.798047 
L 83.398945 39.798047 
L 95.398945 39.798047 
" style="fill: none; stroke: #1f77b4; stroke-width: 2.5; stroke-linecap: square"/>
    </g>
    <g id="text_14">
     <!-- 1h -->
     <g transform="translate(104.998945 43.998047) scale(0.12 -0.12)">
      <defs>
       <path id="ArialMT-4b" d="M 422 0 
L 422 4581 
L 984 4581 
L 984 2938 
Q 1378 3394 1978 3394 
Q 2347 3394 2619 3248 
Q 2891 3103 3008 2847 
Q 3125 2591 3125 2103 
L 3125 0 
L 2563 0 
L 2563 2103 
Q 2563 2525 2380 2717 
Q 2197 2909 1863 2909 
Q 1613 2909 1392 2779 
Q 1172 2650 1078 2428 
Q 984 2206 984 1816 
L 984 0 
L 422 0 
z
" transform="scale(0.015625)"/>
      </defs>
      <use xlink:href="#ArialMT-14"/>
      <use xlink:href="#ArialMT-4b" transform="translate(55.609375 0)"/>
     </g>
    </g>
    <g id="line2d_58">
     <path d="M 71.398945 57.059766 
L 83.398945 57.059766 
L 95.398945 57.059766 
" style="fill: none; stroke: #0033ff; stroke-width: 2.5; stroke-linecap: square"/>
    </g>
    <g id="text_15">
     <!-- 2h -->
     <g transform="translate(104.998945 61.259766) scale(0.12 -0.12)">
      <use xlink:href="#ArialMT-15"/>
      <use xlink:href="#ArialMT-4b" transform="translate(55.609375 0)"/>
     </g>
    </g>
    <g id="line2d_59">
     <path d="M 71.398945 74.321484 
L 83.398945 74.321484 
L 95.398945 74.321484 
" style="fill: none; stroke: #ff7f0e; stroke-width: 2.5; stroke-linecap: square"/>
    </g>
    <g id="text_16">
     <!-- 4h -->
     <g transform="translate(104.998945 78.521484) scale(0.12 -0.12)">
      <use xlink:href="#ArialMT-17"/>
      <use xlink:href="#ArialMT-4b" transform="translate(55.609375 0)"/>
     </g>
    </g>
    <g id="line2d_60">
     <path d="M 71.398945 91.583203 
L 83.398945 91.583203 
L 95.398945 91.583203 
" style="fill: none; stroke: #ff0000; stroke-width: 2.5; stroke-linecap: square"/>
    </g>
    <g id="text_17">
     <!-- first -->
     <g transform="translate(104.998945 95.783203) scale(0.12 -0.12)">
      <defs>
       <path id="ArialMT-49" d="M 556 0 
L 556 2881 
L 59 2881 
L 59 3319 
L 556 3319 
L 556 3672 
Q 556 4006 616 4169 
Q 697 4388 901 4523 
Q 1106 4659 1475 4659 
Q 1713 4659 2000 4603 
L 1916 4113 
Q 1741 4144 1584 4144 
Q 1328 4144 1222 4034 
Q 1116 3925 1116 3625 
L 1116 3319 
L 1763 3319 
L 1763 2881 
L 1116 2881 
L 1116 0 
L 556 0 
z
" transform="scale(0.015625)"/>
       <path id="ArialMT-4c" d="M 425 3934 
L 425 4581 
L 988 4581 
L 988 3934 
L 425 3934 
z
M 425 0 
L 425 3319 
L 988 3319 
L 988 0 
L 425 0 
z
" transform="scale(0.015625)"/>
       <path id="ArialMT-56" d="M 197 991 
L 753 1078 
Q 800 744 1014 566 
Q 1228 388 1613 388 
Q 2000 388 2187 545 
Q 2375 703 2375 916 
Q 2375 1106 2209 1216 
Q 2094 1291 1634 1406 
Q 1016 1563 777 1677 
Q 538 1791 414 1992 
Q 291 2194 291 2438 
Q 291 2659 392 2848 
Q 494 3038 669 3163 
Q 800 3259 1026 3326 
Q 1253 3394 1513 3394 
Q 1903 3394 2198 3281 
Q 2494 3169 2634 2976 
Q 2775 2784 2828 2463 
L 2278 2388 
Q 2241 2644 2061 2787 
Q 1881 2931 1553 2931 
Q 1166 2931 1000 2803 
Q 834 2675 834 2503 
Q 834 2394 903 2306 
Q 972 2216 1119 2156 
Q 1203 2125 1616 2013 
Q 2213 1853 2448 1751 
Q 2684 1650 2818 1456 
Q 2953 1263 2953 975 
Q 2953 694 2789 445 
Q 2625 197 2315 61 
Q 2006 -75 1616 -75 
Q 969 -75 630 194 
Q 291 463 197 991 
z
" transform="scale(0.015625)"/>
      </defs>
      <use xlink:href="#ArialMT-49"/>
      <use xlink:href="#ArialMT-4c" transform="translate(27.78125 0)"/>
      <use xlink:href="#ArialMT-55" transform="translate(50 0)"/>
      <use xlink:href="#ArialMT-56" transform="translate(83.296875 0)"/>
      <use xlink:href="#ArialMT-57" transform="translate(133.296875 0)"/>
     </g>
    </g>
   </g>
  </g>
 </g>
 <defs>
  <clipPath id="p0b5ddab532">
   <rect x="60.598945" y="7.2" width="365.281328" height="292.622656"/>
  </clipPath>
 </defs>
</svg>
