<?xml version="1.0" encoding="utf-8" standalone="no"?>
<!DOCTYPE svg PUBLIC "-//W3C//DTD SVG 1.1//EN"
  "http://www.w3.org/Graphics/SVG/1.1/DTD/svg11.dtd">
<svg xmlns:xlink="http://www.w3.org/1999/xlink" width="448.650898pt" height="340.800273pt" viewBox="0 0 448.650898 340.800273" xmlns="http://www.w3.org/2000/svg" version="1.1">
 <metadata>
  <rdf:RDF xmlns:dc="http://purl.org/dc/elements/1.1/" xmlns:cc="http://creativecommons.org/ns#" xmlns:rdf="http://www.w3.org/1999/02/22-rdf-syntax-ns#">
   <cc:Work>
    <dc:type rdf:resource="http://purl.org/dc/dcmitype/StillImage"/>
    <dc:date>2026-07-09T17:08:30.031174</dc:date>
    <dc:format>image/svg+xml</dc:format>
    <dc:creator>
     <cc:Agent>
      <dc:title>Matplotlib v3.11.0, https://matplotlib.org/</dc:title>
     </cc:Agent>
    </dc:creator>
   </cc:Work>
  </rdf:RDF>
 </metadata>
 <defs>
  <style type="text/css">*{stroke-linejoin: round; stroke-linecap: butt}</style>
 </defs>
 <g id="figure_1">
  <g id="patch_1">
   <path d="M 0 340.800273 
L 448.650898 340.800273 
L 448.650898 0 
L 0 0 
z
" style="fill: #ffffff"/>
  </g>
  <g id="axes_1">
   <g id="patch_2">
    <path d="M 60.598945 299.822656 
L 425.880273 299.822656 
L 425.880273 7.2 
L 60.598945 7.2 
z
" style="fill: #ffffff"/>
   </g>
   <g id="matplotlib.axis_1">
    <g id="xtick_1">
     <g id="line2d_1">
      <defs>
       <path id="m54c8cc5f2d" d="M 0 0 
L 0 -6 
" style="stroke: #000000; stroke-width: 1.5"/>
      </defs>
      <g>
       <use xlink:href="#m54c8cc5f2d" x="60.598945" y="299.822656" style="stroke: #000000; stroke-width: 1.5"/>
      </g>
     </g>
     <g id="text_1">
      <!-- 0 -->
      <g transform="translate(56.706289 313.515039) scale(0.14 -0.14)">
       <defs>
        <path id="ArialMT-13" d="M 266 2259 
Q 266 3072 433 3567 
Q 600 4063 929 4331 
Q 1259 4600 1759 4600 
Q 2128 4600 2406 4451 
Q 2684 4303 2865 4023 
Q 3047 3744 3150 3342 
Q 3253 2941 3253 2259 
Q 3253 1453 3087 958 
Q 2922 463 2592 192 
Q 2263 -78 1759 -78 
Q 1097 -78 719 397 
Q 266 969 266 2259 
z
M 844 2259 
Q 844 1131 1108 757 
Q 1372 384 1759 384 
Q 2147 384 2411 759 
Q 2675 1134 2675 2259 
Q 2675 3391 2411 3762 
Q 2147 4134 1753 4134 
Q 1366 4134 1134 3806 
Q 844 3388 844 2259 
z
" transform="scale(0.015625)"/>
       </defs>
       <use xlink:href="#ArialMT-13"/>
      </g>
     </g>
    </g>
    <g id="xtick_2">
     <g id="line2d_2">
      <g>
       <use xlink:href="#m54c8cc5f2d" x="121.479167" y="299.822656" style="stroke: #000000; stroke-width: 1.5"/>
      </g>
     </g>
     <g id="text_2">
      <!-- 200 -->
      <g transform="translate(109.801198 313.515039) scale(0.14 -0.14)">
       <defs>
        <path id="ArialMT-15" d="M 3222 541 
L 3222 0 
L 194 0 
Q 188 203 259 391 
Q 375 700 629 1000 
Q 884 1300 1366 1694 
Q 2113 2306 2375 2664 
Q 2638 3022 2638 3341 
Q 2638 3675 2398 3904 
Q 2159 4134 1775 4134 
Q 1369 4134 1125 3890 
Q 881 3647 878 3216 
L 300 3275 
Q 359 3922 746 4261 
Q 1134 4600 1788 4600 
Q 2447 4600 2831 4234 
Q 3216 3869 3216 3328 
Q 3216 3053 3103 2787 
Q 2991 2522 2730 2228 
Q 2469 1934 1863 1422 
Q 1356 997 1212 845 
Q 1069 694 975 541 
L 3222 541 
z
" transform="scale(0.015625)"/>
       </defs>
       <use xlink:href="#ArialMT-15"/>
       <use xlink:href="#ArialMT-13" transform="translate(55.609375 0)"/>
       <use xlink:href="#ArialMT-13" transform="translate(111.21875 0)"/>
      </g>
     </g>
    </g>
    <g id="xtick_3">
     <g id="line2d_3">
      <g>
       <use xlink:href="#m54c8cc5f2d" x="182.359388" y="299.822656" style="stroke: #000000; stroke-width: 1.5"/>
      </g>
     </g>
     <g id="text_3">
      <!-- 400 -->
      <g transform="translate(170.681419 313.515039) scale(0.14 -0.14)">
       <defs>
        <path id="ArialMT-17" d="M 2069 0 
L 2069 1097 
L 81 1097 
L 81 1613 
L 2172 4581 
L 2631 4581 
L 2631 1613 
L 3250 1613 
L 3250 1097 
L 2631 1097 
L 2631 0 
L 2069 0 
z
M 2069 1613 
L 2069 3678 
L 634 1613 
L 2069 1613 
z
" transform="scale(0.015625)"/>
       </defs>
       <use xlink:href="#ArialMT-17"/>
       <use xlink:href="#ArialMT-13" transform="translate(55.609375 0)"/>
       <use xlink:href="#ArialMT-13" transform="translate(111.21875 0)"/>
      </g>
     </g>
    </g>
    <g id="xtick_4">
     <g id="line2d_4">
      <g>
       <use xlink:href="#m54c8cc5f2d" x="243.239609" y="299.822656" style="stroke: #000000; stroke-width: 1.5"/>
      </g>
     </g>
     <g id="text_4">
      <!-- 600 -->
      <g transform="translate(231.561641 313.515039) scale(0.14 -0.14)">
       <defs>
        <path id="ArialMT-19" d="M 3184 3459 
L 2625 3416 
Q 2550 3747 2413 3897 
Q 2184 4138 1850 4138 
Q 1581 4138 1378 3988 
Q 1113 3794 959 3422 
Q 806 3050 800 2363 
Q 1003 2672 1297 2822 
Q 1591 2972 1913 2972 
Q 2475 2972 2870 2558 
Q 3266 2144 3266 1488 
Q 3266 1056 3080 686 
Q 2894 316 2569 119 
Q 2244 -78 1831 -78 
Q 1128 -78 684 439 
Q 241 956 241 2144 
Q 241 3472 731 4075 
Q 1159 4600 1884 4600 
Q 2425 4600 2770 4297 
Q 3116 3994 3184 3459 
z
M 888 1484 
Q 888 1194 1011 928 
Q 1134 663 1356 523 
Q 1578 384 1822 384 
Q 2178 384 2434 671 
Q 2691 959 2691 1453 
Q 2691 1928 2437 2201 
Q 2184 2475 1800 2475 
Q 1419 2475 1153 2201 
Q 888 1928 888 1484 
z
" transform="scale(0.015625)"/>
       </defs>
       <use xlink:href="#ArialMT-19"/>
       <use xlink:href="#ArialMT-13" transform="translate(55.609375 0)"/>
       <use xlink:href="#ArialMT-13" transform="translate(111.21875 0)"/>
      </g>
     </g>
    </g>
    <g id="xtick_5">
     <g id="line2d_5">
      <g>
       <use xlink:href="#m54c8cc5f2d" x="304.119831" y="299.822656" style="stroke: #000000; stroke-width: 1.5"/>
      </g>
     </g>
     <g id="text_5">
      <!-- 800 -->
      <g transform="translate(292.441862 313.515039) scale(0.14 -0.14)">
       <defs>
        <path id="ArialMT-1b" d="M 1131 2484 
Q 781 2613 612 2850 
Q 444 3088 444 3419 
Q 444 3919 803 4259 
Q 1163 4600 1759 4600 
Q 2359 4600 2725 4251 
Q 3091 3903 3091 3403 
Q 3091 3084 2923 2848 
Q 2756 2613 2416 2484 
Q 2838 2347 3058 2040 
Q 3278 1734 3278 1309 
Q 3278 722 2862 322 
Q 2447 -78 1769 -78 
Q 1091 -78 675 323 
Q 259 725 259 1325 
Q 259 1772 486 2073 
Q 713 2375 1131 2484 
z
M 1019 3438 
Q 1019 3113 1228 2906 
Q 1438 2700 1772 2700 
Q 2097 2700 2305 2904 
Q 2513 3109 2513 3406 
Q 2513 3716 2298 3927 
Q 2084 4138 1766 4138 
Q 1444 4138 1231 3931 
Q 1019 3725 1019 3438 
z
M 838 1322 
Q 838 1081 952 856 
Q 1066 631 1291 507 
Q 1516 384 1775 384 
Q 2178 384 2440 643 
Q 2703 903 2703 1303 
Q 2703 1709 2433 1975 
Q 2163 2241 1756 2241 
Q 1359 2241 1098 1978 
Q 838 1716 838 1322 
z
" transform="scale(0.015625)"/>
       </defs>
       <use xlink:href="#ArialMT-1b"/>
       <use xlink:href="#ArialMT-13" transform="translate(55.609375 0)"/>
       <use xlink:href="#ArialMT-13" transform="translate(111.21875 0)"/>
      </g>
     </g>
    </g>
    <g id="xtick_6">
     <g id="line2d_6">
      <g>
       <use xlink:href="#m54c8cc5f2d" x="365.000052" y="299.822656" style="stroke: #000000; stroke-width: 1.5"/>
      </g>
     </g>
     <g id="text_6">
      <!-- 1000 -->
      <g transform="translate(349.429427 313.515039) scale(0.14 -0.14)">
       <defs>
        <path id="ArialMT-14" d="M 2384 0 
L 1822 0 
L 1822 3584 
Q 1619 3391 1289 3197 
Q 959 3003 697 2906 
L 697 3450 
Q 1169 3672 1522 3987 
Q 1875 4303 2022 4600 
L 2384 4600 
L 2384 0 
z
" transform="scale(0.015625)"/>
       </defs>
       <use xlink:href="#ArialMT-14"/>
       <use xlink:href="#ArialMT-13" transform="translate(55.609375 0)"/>
       <use xlink:href="#ArialMT-13" transform="translate(111.21875 0)"/>
       <use xlink:href="#ArialMT-13" transform="translate(166.828125 0)"/>
      </g>
     </g>
    </g>
    <g id="xtick_7">
     <g id="line2d_7">
      <g>
       <use xlink:href="#m54c8cc5f2d" x="425.880273" y="299.822656" style="stroke: #000000; stroke-width: 1.5"/>
      </g>
     </g>
     <g id="text_7">
      <!-- 1200 -->
      <g transform="translate(410.309648 313.515039) scale(0.14 -0.14)">
       <use xlink:href="#ArialMT-14"/>
       <use xlink:href="#ArialMT-15" transform="translate(55.609375 0)"/>
       <use xlink:href="#ArialMT-13" transform="translate(111.21875 0)"/>
       <use xlink:href="#ArialMT-13" transform="translate(166.828125 0)"/>
      </g>
     </g>
    </g>
    <g id="xtick_8">
     <g id="line2d_8">
      <defs>
       <path id="m4ad1f08654" d="M 0 0 
L 0 -3 
" style="stroke: #000000"/>
      </defs>
      <g>
       <use xlink:href="#m4ad1f08654" x="75.819001" y="299.822656" style="stroke: #000000"/>
      </g>
     </g>
    </g>
    <g id="xtick_9">
     <g id="line2d_9">
      <g>
       <use xlink:href="#m4ad1f08654" x="91.039056" y="299.822656" style="stroke: #000000"/>
      </g>
     </g>
    </g>
    <g id="xtick_10">
     <g id="line2d_10">
      <g>
       <use xlink:href="#m4ad1f08654" x="106.259111" y="299.822656" style="stroke: #000000"/>
      </g>
     </g>
    </g>
    <g id="xtick_11">
     <g id="line2d_11">
      <g>
       <use xlink:href="#m4ad1f08654" x="136.699222" y="299.822656" style="stroke: #000000"/>
      </g>
     </g>
    </g>
    <g id="xtick_12">
     <g id="line2d_12">
      <g>
       <use xlink:href="#m4ad1f08654" x="151.919277" y="299.822656" style="stroke: #000000"/>
      </g>
     </g>
    </g>
    <g id="xtick_13">
     <g id="line2d_13">
      <g>
       <use xlink:href="#m4ad1f08654" x="167.139333" y="299.822656" style="stroke: #000000"/>
      </g>
     </g>
    </g>
    <g id="xtick_14">
     <g id="line2d_14">
      <g>
       <use xlink:href="#m4ad1f08654" x="197.579443" y="299.822656" style="stroke: #000000"/>
      </g>
     </g>
    </g>
    <g id="xtick_15">
     <g id="line2d_15">
      <g>
       <use xlink:href="#m4ad1f08654" x="212.799499" y="299.822656" style="stroke: #000000"/>
      </g>
     </g>
    </g>
    <g id="xtick_16">
     <g id="line2d_16">
      <g>
       <use xlink:href="#m4ad1f08654" x="228.019554" y="299.822656" style="stroke: #000000"/>
      </g>
     </g>
    </g>
    <g id="xtick_17">
     <g id="line2d_17">
      <g>
       <use xlink:href="#m4ad1f08654" x="258.459665" y="299.822656" style="stroke: #000000"/>
      </g>
     </g>
    </g>
    <g id="xtick_18">
     <g id="line2d_18">
      <g>
       <use xlink:href="#m4ad1f08654" x="273.67972" y="299.822656" style="stroke: #000000"/>
      </g>
     </g>
    </g>
    <g id="xtick_19">
     <g id="line2d_19">
      <g>
       <use xlink:href="#m4ad1f08654" x="288.899775" y="299.822656" style="stroke: #000000"/>
      </g>
     </g>
    </g>
    <g id="xtick_20">
     <g id="line2d_20">
      <g>
       <use xlink:href="#m4ad1f08654" x="319.339886" y="299.822656" style="stroke: #000000"/>
      </g>
     </g>
    </g>
    <g id="xtick_21">
     <g id="line2d_21">
      <g>
       <use xlink:href="#m4ad1f08654" x="334.559941" y="299.822656" style="stroke: #000000"/>
      </g>
     </g>
    </g>
    <g id="xtick_22">
     <g id="line2d_22">
      <g>
       <use xlink:href="#m4ad1f08654" x="349.779997" y="299.822656" style="stroke: #000000"/>
      </g>
     </g>
    </g>
    <g id="xtick_23">
     <g id="line2d_23">
      <g>
       <use xlink:href="#m4ad1f08654" x="380.220107" y="299.822656" style="stroke: #000000"/>
      </g>
     </g>
    </g>
    <g id="xtick_24">
     <g id="line2d_24">
      <g>
       <use xlink:href="#m4ad1f08654" x="395.440163" y="299.822656" style="stroke: #000000"/>
      </g>
     </g>
    </g>
    <g id="xtick_25">
     <g id="line2d_25">
      <g>
       <use xlink:href="#m4ad1f08654" x="410.660218" y="299.822656" style="stroke: #000000"/>
      </g>
     </g>
    </g>
    <g id="text_8">
     <!-- T1 Temperature (°C) -->
     <g transform="translate(179.500234 330.653711) scale(0.14 -0.14)">
      <defs>
       <path id="ArialMT-37" d="M 1659 0 
L 1659 4041 
L 150 4041 
L 150 4581 
L 3781 4581 
L 3781 4041 
L 2266 4041 
L 2266 0 
L 1659 0 
z
" transform="scale(0.015625)"/>
       <path id="ArialMT-3" transform="scale(0.015625)"/>
       <path id="ArialMT-48" d="M 2694 1069 
L 3275 997 
Q 3138 488 2766 206 
Q 2394 -75 1816 -75 
Q 1088 -75 661 373 
Q 234 822 234 1631 
Q 234 2469 665 2931 
Q 1097 3394 1784 3394 
Q 2450 3394 2872 2941 
Q 3294 2488 3294 1666 
Q 3294 1616 3291 1516 
L 816 1516 
Q 847 969 1125 678 
Q 1403 388 1819 388 
Q 2128 388 2347 550 
Q 2566 713 2694 1069 
z
M 847 1978 
L 2700 1978 
Q 2663 2397 2488 2606 
Q 2219 2931 1791 2931 
Q 1403 2931 1139 2672 
Q 875 2413 847 1978 
z
" transform="scale(0.015625)"/>
       <path id="ArialMT-50" d="M 422 0 
L 422 3319 
L 925 3319 
L 925 2853 
Q 1081 3097 1340 3245 
Q 1600 3394 1931 3394 
Q 2300 3394 2536 3241 
Q 2772 3088 2869 2813 
Q 3263 3394 3894 3394 
Q 4388 3394 4653 3120 
Q 4919 2847 4919 2278 
L 4919 0 
L 4359 0 
L 4359 2091 
Q 4359 2428 4304 2576 
Q 4250 2725 4106 2815 
Q 3963 2906 3769 2906 
Q 3419 2906 3187 2673 
Q 2956 2441 2956 1928 
L 2956 0 
L 2394 0 
L 2394 2156 
Q 2394 2531 2256 2718 
Q 2119 2906 1806 2906 
Q 1569 2906 1367 2781 
Q 1166 2656 1075 2415 
Q 984 2175 984 1722 
L 984 0 
L 422 0 
z
" transform="scale(0.015625)"/>
       <path id="ArialMT-53" d="M 422 -1272 
L 422 3319 
L 934 3319 
L 934 2888 
Q 1116 3141 1344 3267 
Q 1572 3394 1897 3394 
Q 2322 3394 2647 3175 
Q 2972 2956 3137 2557 
Q 3303 2159 3303 1684 
Q 3303 1175 3120 767 
Q 2938 359 2589 142 
Q 2241 -75 1856 -75 
Q 1575 -75 1351 44 
Q 1128 163 984 344 
L 984 -1272 
L 422 -1272 
z
M 931 1641 
Q 931 1000 1190 694 
Q 1450 388 1819 388 
Q 2194 388 2461 705 
Q 2728 1022 2728 1688 
Q 2728 2322 2467 2637 
Q 2206 2953 1844 2953 
Q 1484 2953 1207 2617 
Q 931 2281 931 1641 
z
" transform="scale(0.015625)"/>
       <path id="ArialMT-55" d="M 416 0 
L 416 3319 
L 922 3319 
L 922 2816 
Q 1116 3169 1280 3281 
Q 1444 3394 1641 3394 
Q 1925 3394 2219 3213 
L 2025 2691 
Q 1819 2813 1613 2813 
Q 1428 2813 1281 2702 
Q 1134 2591 1072 2394 
Q 978 2094 978 1738 
L 978 0 
L 416 0 
z
" transform="scale(0.015625)"/>
       <path id="ArialMT-44" d="M 2588 409 
Q 2275 144 1986 34 
Q 1697 -75 1366 -75 
Q 819 -75 525 192 
Q 231 459 231 875 
Q 231 1119 342 1320 
Q 453 1522 633 1644 
Q 813 1766 1038 1828 
Q 1203 1872 1538 1913 
Q 2219 1994 2541 2106 
Q 2544 2222 2544 2253 
Q 2544 2597 2384 2738 
Q 2169 2928 1744 2928 
Q 1347 2928 1158 2789 
Q 969 2650 878 2297 
L 328 2372 
Q 403 2725 575 2942 
Q 747 3159 1072 3276 
Q 1397 3394 1825 3394 
Q 2250 3394 2515 3294 
Q 2781 3194 2906 3042 
Q 3031 2891 3081 2659 
Q 3109 2516 3109 2141 
L 3109 1391 
Q 3109 606 3145 398 
Q 3181 191 3288 0 
L 2700 0 
Q 2613 175 2588 409 
z
M 2541 1666 
Q 2234 1541 1622 1453 
Q 1275 1403 1131 1340 
Q 988 1278 909 1158 
Q 831 1038 831 891 
Q 831 666 1001 516 
Q 1172 366 1500 366 
Q 1825 366 2078 508 
Q 2331 650 2450 897 
Q 2541 1088 2541 1459 
L 2541 1666 
z
" transform="scale(0.015625)"/>
       <path id="ArialMT-57" d="M 1650 503 
L 1731 6 
Q 1494 -44 1306 -44 
Q 1000 -44 831 53 
Q 663 150 594 308 
Q 525 466 525 972 
L 525 2881 
L 113 2881 
L 113 3319 
L 525 3319 
L 525 4141 
L 1084 4478 
L 1084 3319 
L 1650 3319 
L 1650 2881 
L 1084 2881 
L 1084 941 
Q 1084 700 1114 631 
Q 1144 563 1211 522 
Q 1278 481 1403 481 
Q 1497 481 1650 503 
z
" transform="scale(0.015625)"/>
       <path id="ArialMT-58" d="M 2597 0 
L 2597 488 
Q 2209 -75 1544 -75 
Q 1250 -75 995 37 
Q 741 150 617 320 
Q 494 491 444 738 
Q 409 903 409 1263 
L 409 3319 
L 972 3319 
L 972 1478 
Q 972 1038 1006 884 
Q 1059 663 1231 536 
Q 1403 409 1656 409 
Q 1909 409 2131 539 
Q 2353 669 2445 892 
Q 2538 1116 2538 1541 
L 2538 3319 
L 3100 3319 
L 3100 0 
L 2597 0 
z
" transform="scale(0.015625)"/>
       <path id="ArialMT-b" d="M 1497 -1347 
Q 1031 -759 709 28 
Q 388 816 388 1659 
Q 388 2403 628 3084 
Q 909 3875 1497 4659 
L 1900 4659 
Q 1522 4009 1400 3731 
Q 1209 3300 1100 2831 
Q 966 2247 966 1656 
Q 966 153 1900 -1347 
L 1497 -1347 
z
" transform="scale(0.015625)"/>
       <path id="ArialMT-83" d="M 400 3794 
Q 400 4153 654 4406 
Q 909 4659 1266 4659 
Q 1628 4659 1881 4406 
Q 2134 4153 2134 3794 
Q 2134 3434 1879 3179 
Q 1625 2925 1266 2925 
Q 909 2925 654 3178 
Q 400 3431 400 3794 
z
M 741 3794 
Q 741 3575 895 3420 
Q 1050 3266 1269 3266 
Q 1484 3266 1639 3420 
Q 1794 3575 1794 3794 
Q 1794 4013 1639 4167 
Q 1484 4322 1269 4322 
Q 1050 4322 895 4167 
Q 741 4013 741 3794 
z
" transform="scale(0.015625)"/>
       <path id="ArialMT-26" d="M 3763 1606 
L 4369 1453 
Q 4178 706 3683 314 
Q 3188 -78 2472 -78 
Q 1731 -78 1267 223 
Q 803 525 561 1097 
Q 319 1669 319 2325 
Q 319 3041 592 3573 
Q 866 4106 1370 4382 
Q 1875 4659 2481 4659 
Q 3169 4659 3637 4309 
Q 4106 3959 4291 3325 
L 3694 3184 
Q 3534 3684 3231 3912 
Q 2928 4141 2469 4141 
Q 1941 4141 1586 3887 
Q 1231 3634 1087 3207 
Q 944 2781 944 2328 
Q 944 1744 1114 1308 
Q 1284 872 1643 656 
Q 2003 441 2422 441 
Q 2931 441 3284 734 
Q 3638 1028 3763 1606 
z
" transform="scale(0.015625)"/>
       <path id="ArialMT-c" d="M 791 -1347 
L 388 -1347 
Q 1322 153 1322 1656 
Q 1322 2244 1188 2822 
Q 1081 3291 891 3722 
Q 769 4003 388 4659 
L 791 4659 
Q 1378 3875 1659 3084 
Q 1900 2403 1900 1659 
Q 1900 816 1576 28 
Q 1253 -759 791 -1347 
z
" transform="scale(0.015625)"/>
      </defs>
      <use xlink:href="#ArialMT-37"/>
      <use xlink:href="#ArialMT-14" transform="translate(61.078125 0)"/>
      <use xlink:href="#ArialMT-3" transform="translate(116.6875 0)"/>
      <use xlink:href="#ArialMT-37" transform="translate(142.65625 0)"/>
      <use xlink:href="#ArialMT-48" transform="translate(192.65625 0)"/>
      <use xlink:href="#ArialMT-50" transform="translate(248.265625 0)"/>
      <use xlink:href="#ArialMT-53" transform="translate(331.5625 0)"/>
      <use xlink:href="#ArialMT-48" transform="translate(387.171875 0)"/>
      <use xlink:href="#ArialMT-55" transform="translate(442.78125 0)"/>
      <use xlink:href="#ArialMT-44" transform="translate(476.078125 0)"/>
      <use xlink:href="#ArialMT-57" transform="translate(531.6875 0)"/>
      <use xlink:href="#ArialMT-58" transform="translate(559.46875 0)"/>
      <use xlink:href="#ArialMT-55" transform="translate(615.078125 0)"/>
      <use xlink:href="#ArialMT-48" transform="translate(648.375 0)"/>
      <use xlink:href="#ArialMT-3" transform="translate(703.984375 0)"/>
      <use xlink:href="#ArialMT-b" transform="translate(731.765625 0)"/>
      <use xlink:href="#ArialMT-83" transform="translate(765.0625 0)"/>
      <use xlink:href="#ArialMT-26" transform="translate(805.046875 0)"/>
      <use xlink:href="#ArialMT-c" transform="translate(877.265625 0)"/>
     </g>
    </g>
   </g>
   <g id="matplotlib.axis_2">
    <g id="ytick_1">
     <g id="line2d_26">
      <defs>
       <path id="mb85e8e2ae3" d="M 0 0 
L 6 0 
" style="stroke: #000000; stroke-width: 1.5"/>
      </defs>
      <g>
       <use xlink:href="#mb85e8e2ae3" x="60.598945" y="280.306825" style="stroke: #000000; stroke-width: 1.5"/>
      </g>
     </g>
     <g id="text_9">
      <!-- $\mathdefault{10^{-12}}$ -->
      <g transform="translate(24.338945 286.746825) scale(0.14 -0.14)">
       <defs>
        <path id="ArialMT-ed" d="M 3381 1997 
L 356 1997 
L 356 2522 
L 3381 2522 
L 3381 1997 
z
" transform="scale(0.015625)"/>
       </defs>
       <use xlink:href="#ArialMT-14" transform="translate(0 0.3875)"/>
       <use xlink:href="#ArialMT-13" transform="translate(55.615234 0.3875)"/>
       <use xlink:href="#ArialMT-ed" transform="translate(112.1875 41.6875) scale(0.7)"/>
       <use xlink:href="#ArialMT-14" transform="translate(153.066406 41.6875) scale(0.7)"/>
       <use xlink:href="#ArialMT-15" transform="translate(191.99707 41.6875) scale(0.7)"/>
      </g>
     </g>
    </g>
    <g id="ytick_2">
     <g id="line2d_27">
      <g>
       <use xlink:href="#mb85e8e2ae3" x="60.598945" y="137.91205" style="stroke: #000000; stroke-width: 1.5"/>
      </g>
     </g>
     <g id="text_10">
      <!-- $\mathdefault{10^{-11}}$ -->
      <g transform="translate(25.038945 144.35205) scale(0.14 -0.14)">
       <use xlink:href="#ArialMT-14" transform="translate(0 0.3875)"/>
       <use xlink:href="#ArialMT-13" transform="translate(55.615234 0.3875)"/>
       <use xlink:href="#ArialMT-ed" transform="translate(112.1875 41.6875) scale(0.7)"/>
       <use xlink:href="#ArialMT-14" transform="translate(153.066406 41.6875) scale(0.7)"/>
       <use xlink:href="#ArialMT-14" transform="translate(187.09707 41.6875) scale(0.7)"/>
      </g>
     </g>
    </g>
    <g id="ytick_3">
     <g id="line2d_28">
      <defs>
       <path id="m69d5222703" d="M 0 0 
L 3 0 
" style="stroke: #000000"/>
      </defs>
      <g>
       <use xlink:href="#m69d5222703" x="60.598945" y="294.106304" style="stroke: #000000"/>
      </g>
     </g>
    </g>
    <g id="ytick_4">
     <g id="line2d_29">
      <g>
       <use xlink:href="#m69d5222703" x="60.598945" y="286.822452" style="stroke: #000000"/>
      </g>
     </g>
    </g>
    <g id="ytick_5">
     <g id="line2d_30">
      <g>
       <use xlink:href="#m69d5222703" x="60.598945" y="237.441727" style="stroke: #000000"/>
      </g>
     </g>
    </g>
    <g id="ytick_6">
     <g id="line2d_31">
      <g>
       <use xlink:href="#m69d5222703" x="60.598945" y="212.367251" style="stroke: #000000"/>
      </g>
     </g>
    </g>
    <g id="ytick_7">
     <g id="line2d_32">
      <g>
       <use xlink:href="#m69d5222703" x="60.598945" y="194.576628" style="stroke: #000000"/>
      </g>
     </g>
    </g>
    <g id="ytick_8">
     <g id="line2d_33">
      <g>
       <use xlink:href="#m69d5222703" x="60.598945" y="180.777149" style="stroke: #000000"/>
      </g>
     </g>
    </g>
    <g id="ytick_9">
     <g id="line2d_34">
      <g>
       <use xlink:href="#m69d5222703" x="60.598945" y="169.502153" style="stroke: #000000"/>
      </g>
     </g>
    </g>
    <g id="ytick_10">
     <g id="line2d_35">
      <g>
       <use xlink:href="#m69d5222703" x="60.598945" y="159.96928" style="stroke: #000000"/>
      </g>
     </g>
    </g>
    <g id="ytick_11">
     <g id="line2d_36">
      <g>
       <use xlink:href="#m69d5222703" x="60.598945" y="151.71153" style="stroke: #000000"/>
      </g>
     </g>
    </g>
    <g id="ytick_12">
     <g id="line2d_37">
      <g>
       <use xlink:href="#m69d5222703" x="60.598945" y="144.427678" style="stroke: #000000"/>
      </g>
     </g>
    </g>
    <g id="ytick_13">
     <g id="line2d_38">
      <g>
       <use xlink:href="#m69d5222703" x="60.598945" y="95.046952" style="stroke: #000000"/>
      </g>
     </g>
    </g>
    <g id="ytick_14">
     <g id="line2d_39">
      <g>
       <use xlink:href="#m69d5222703" x="60.598945" y="69.972477" style="stroke: #000000"/>
      </g>
     </g>
    </g>
    <g id="ytick_15">
     <g id="line2d_40">
      <g>
       <use xlink:href="#m69d5222703" x="60.598945" y="52.181854" style="stroke: #000000"/>
      </g>
     </g>
    </g>
    <g id="ytick_16">
     <g id="line2d_41">
      <g>
       <use xlink:href="#m69d5222703" x="60.598945" y="38.382374" style="stroke: #000000"/>
      </g>
     </g>
    </g>
    <g id="ytick_17">
     <g id="line2d_42">
      <g>
       <use xlink:href="#m69d5222703" x="60.598945" y="27.107379" style="stroke: #000000"/>
      </g>
     </g>
    </g>
    <g id="ytick_18">
     <g id="line2d_43">
      <g>
       <use xlink:href="#m69d5222703" x="60.598945" y="17.574506" style="stroke: #000000"/>
      </g>
     </g>
    </g>
    <g id="ytick_19">
     <g id="line2d_44">
      <g>
       <use xlink:href="#m69d5222703" x="60.598945" y="9.316755" style="stroke: #000000"/>
      </g>
     </g>
    </g>
    <g id="text_11">
     <!-- Ion Current (m/z 16) -->
     <g transform="translate(17.392383 216.137266) rotate(-90) scale(0.14 -0.14)">
      <defs>
       <path id="ArialMT-2c" d="M 597 0 
L 597 4581 
L 1203 4581 
L 1203 0 
L 597 0 
z
" transform="scale(0.015625)"/>
       <path id="ArialMT-52" d="M 213 1659 
Q 213 2581 725 3025 
Q 1153 3394 1769 3394 
Q 2453 3394 2887 2945 
Q 3322 2497 3322 1706 
Q 3322 1066 3130 698 
Q 2938 331 2570 128 
Q 2203 -75 1769 -75 
Q 1072 -75 642 372 
Q 213 819 213 1659 
z
M 791 1659 
Q 791 1022 1069 705 
Q 1347 388 1769 388 
Q 2188 388 2466 706 
Q 2744 1025 2744 1678 
Q 2744 2294 2464 2611 
Q 2184 2928 1769 2928 
Q 1347 2928 1069 2612 
Q 791 2297 791 1659 
z
" transform="scale(0.015625)"/>
       <path id="ArialMT-51" d="M 422 0 
L 422 3319 
L 928 3319 
L 928 2847 
Q 1294 3394 1984 3394 
Q 2284 3394 2536 3286 
Q 2788 3178 2913 3003 
Q 3038 2828 3088 2588 
Q 3119 2431 3119 2041 
L 3119 0 
L 2556 0 
L 2556 2019 
Q 2556 2363 2490 2533 
Q 2425 2703 2258 2804 
Q 2091 2906 1866 2906 
Q 1506 2906 1245 2678 
Q 984 2450 984 1813 
L 984 0 
L 422 0 
z
" transform="scale(0.015625)"/>
       <path id="ArialMT-12" d="M 0 -78 
L 1328 4659 
L 1778 4659 
L 453 -78 
L 0 -78 
z
" transform="scale(0.015625)"/>
       <path id="ArialMT-5d" d="M 125 0 
L 125 456 
L 2238 2881 
Q 1878 2863 1603 2863 
L 250 2863 
L 250 3319 
L 2963 3319 
L 2963 2947 
L 1166 841 
L 819 456 
Q 1197 484 1528 484 
L 3063 484 
L 3063 0 
L 125 0 
z
" transform="scale(0.015625)"/>
      </defs>
      <use xlink:href="#ArialMT-2c"/>
      <use xlink:href="#ArialMT-52" transform="translate(27.78125 0)"/>
      <use xlink:href="#ArialMT-51" transform="translate(83.390625 0)"/>
      <use xlink:href="#ArialMT-3" transform="translate(139 0)"/>
      <use xlink:href="#ArialMT-26" transform="translate(166.78125 0)"/>
      <use xlink:href="#ArialMT-58" transform="translate(239 0)"/>
      <use xlink:href="#ArialMT-55" transform="translate(294.609375 0)"/>
      <use xlink:href="#ArialMT-55" transform="translate(327.90625 0)"/>
      <use xlink:href="#ArialMT-48" transform="translate(361.203125 0)"/>
      <use xlink:href="#ArialMT-51" transform="translate(416.8125 0)"/>
      <use xlink:href="#ArialMT-57" transform="translate(472.421875 0)"/>
      <use xlink:href="#ArialMT-3" transform="translate(500.203125 0)"/>
      <use xlink:href="#ArialMT-b" transform="translate(527.984375 0)"/>
      <use xlink:href="#ArialMT-50" transform="translate(561.28125 0)"/>
      <use xlink:href="#ArialMT-12" transform="translate(644.578125 0)"/>
      <use xlink:href="#ArialMT-5d" transform="translate(672.359375 0)"/>
      <use xlink:href="#ArialMT-3" transform="translate(722.359375 0)"/>
      <use xlink:href="#ArialMT-14" transform="translate(750.140625 0)"/>
      <use xlink:href="#ArialMT-19" transform="translate(805.75 0)"/>
      <use xlink:href="#ArialMT-c" transform="translate(861.359375 0)"/>
     </g>
    </g>
   </g>
   <g id="line2d_45">
    <path d="M 78.802131 261.975638 
L 78.771691 282.950697 
L 78.832572 277.70262 
L 79.502254 276.264788 
L 81.08514 275.633523 
L 83.276828 278.807233 
L 85.407636 276.74661 
L 87.203602 276.686665 
L 88.634287 278.058326 
L 89.821452 278.273705 
L 91.008616 279.874554 
L 92.07402 276.78792 
L 93.169864 274.275598 
L 94.357028 271.896532 
L 95.574632 271.346819 
L 96.792237 273.619295 
L 98.131602 272.05849 
L 99.440527 275.501494 
L 100.688571 276.086263 
L 101.936616 278.82865 
L 103.15422 280.762228 
L 104.280504 281.245675 
L 105.467668 280.689833 
L 106.654833 279.673282 
L 107.872437 278.438447 
L 108.998721 278.962605 
L 110.185886 275.688895 
L 111.37305 274.442477 
L 112.560214 270.884714 
L 113.747379 273.027788 
L 116.182587 275.547311 
L 117.369752 276.961395 
L 118.587356 279.62594 
L 119.77452 279.399396 
L 120.931245 280.545434 
L 122.118409 277.18895 
L 123.305573 278.232499 
L 125.679902 281.187226 
L 128.084671 280.872463 
L 129.241395 278.951708 
L 130.458999 278.779296 
L 131.646164 277.019484 
L 132.833328 277.429883 
L 134.020492 275.960967 
L 135.207657 275.991364 
L 136.425261 276.37269 
L 137.642865 275.208423 
L 138.86047 274.652034 
L 140.078074 276.465462 
L 141.234798 275.94347 
L 142.421963 277.812837 
L 143.639567 278.698953 
L 144.765851 280.109269 
L 145.953016 279.105537 
L 147.17062 280.645086 
L 148.388225 281.54392 
L 150.792993 282.150978 
L 151.919277 282.327601 
L 153.106442 282.288801 
L 154.263166 280.687621 
L 155.45033 279.85322 
L 156.607054 279.364756 
L 157.824659 279.980051 
L 159.011823 285.351011 
L 160.198987 283.425782 
L 161.416592 284.376816 
L 162.573316 284.68752 
L 163.790921 283.616551 
L 164.947645 283.926625 
L 166.165249 282.34521 
L 167.352413 282.537246 
L 168.570018 281.703384 
L 169.787622 283.145795 
L 170.944347 284.311191 
L 172.161951 281.649174 
L 173.349115 282.312099 
L 174.505839 280.092204 
L 175.662564 279.603629 
L 176.880168 281.785384 
L 179.193617 281.279044 
L 180.380781 282.384369 
L 181.598385 282.361067 
L 182.84643 284.686782 
L 184.033594 285.695641 
L 185.251199 283.744317 
L 186.468803 282.346605 
L 187.686407 283.122447 
L 188.843132 285.630237 
L 189.999856 281.629327 
L 191.21746 279.725447 
L 192.435065 278.862164 
L 193.561349 276.6379 
L 194.687633 276.809023 
L 195.905237 275.484782 
L 197.092402 273.944254 
L 198.279566 276.98228 
L 199.46673 278.832001 
L 200.653895 281.751734 
L 201.780179 280.371842 
L 202.967343 281.873343 
L 204.184947 282.546281 
L 205.372112 280.983159 
L 207.716 277.270158 
L 208.903165 277.216599 
L 210.120769 275.964709 
L 211.277493 273.358729 
L 212.464657 274.592989 
L 213.682262 274.921685 
L 214.869426 275.846502 
L 216.056591 277.30558 
L 217.213315 276.32245 
L 218.430919 277.968961 
L 219.618083 277.920382 
L 220.774808 278.80614 
L 223.149136 273.031197 
L 224.336301 273.589884 
L 225.462585 274.7908 
L 226.680189 274.871838 
L 227.836913 276.963866 
L 229.024078 278.413628 
L 230.272122 281.279701 
L 231.428846 283.250546 
L 232.616011 285.982002 
L 233.711855 286.521626 
L 234.838139 284.613881 
L 236.025303 281.987805 
L 237.242908 282.718458 
L 238.460512 281.137585 
L 239.647676 278.878264 
L 240.865281 277.519732 
L 242.052445 276.397094 
L 243.178729 276.071 
L 244.396334 277.120069 
L 245.583498 279.732475 
L 246.801102 280.689235 
L 247.957827 278.791722 
L 249.144991 281.618898 
L 250.362595 281.742738 
L 252.706484 282.810514 
L 253.893648 281.021433 
L 255.080812 278.468537 
L 256.267977 278.412275 
L 257.485581 279.588974 
L 258.672745 278.398715 
L 259.82947 276.637102 
L 261.077514 279.593034 
L 262.234238 280.896101 
L 263.421403 283.781705 
L 264.578127 283.940424 
L 265.765291 280.784149 
L 267.013336 278.070024 
L 268.13962 279.154092 
L 269.326784 278.869923 
L 270.513949 277.247998 
L 271.670673 275.882718 
L 274.136322 274.439789 
L 275.353926 274.963834 
L 276.54109 274.930551 
L 277.697815 272.433838 
L 278.915419 273.78333 
L 280.072143 277.763691 
L 281.289748 278.0902 
L 282.507352 278.725117 
L 283.694516 279.166085 
L 284.881681 278.055675 
L 286.068845 278.045138 
L 287.225569 278.884249 
L 288.443174 277.998057 
L 289.599898 277.343137 
L 290.756622 278.621554 
L 291.943786 278.656034 
L 293.130951 278.476721 
L 294.287675 279.099573 
L 295.505279 279.013331 
L 296.722884 279.182223 
L 297.849168 278.704 
L 299.066772 279.135116 
L 300.284377 277.433097 
L 301.410661 277.782397 
L 302.597825 279.298145 
L 303.78499 279.945792 
L 304.972154 282.184547 
L 306.159318 281.662556 
L 308.503207 284.237033 
L 309.690371 279.922265 
L 310.847095 279.026187 
L 312.03426 275.09904 
L 314.408588 274.223475 
L 315.595752 274.47864 
L 316.752477 274.855884 
L 317.909201 276.397322 
L 319.157245 280.566937 
L 320.34441 283.439839 
L 321.501134 283.595859 
L 322.627418 284.403204 
L 323.875463 282.492681 
L 325.032187 283.142525 
L 327.406515 278.618902 
L 328.56324 275.727896 
L 329.750404 276.706205 
L 332.094292 277.558493 
L 333.342337 278.985019 
L 334.833902 278.343643 
L 336.112387 279.309828 
L 337.299551 279.57647 
L 338.517156 281.656498 
L 339.64344 281.589406 
L 340.800164 282.44396 
L 342.048209 282.101623 
L 343.235373 283.043903 
L 344.452977 282.152725 
L 345.548821 281.542316 
L 346.796866 279.338497 
L 347.92315 276.003316 
L 349.201635 274.628604 
L 350.358359 276.49916 
L 351.484643 276.046271 
L 352.702247 278.879682 
L 353.950292 276.04329 
L 355.015696 277.263326 
L 356.20286 279.415286 
L 357.481345 278.9708 
L 358.607629 280.755258 
L 361.042838 278.529327 
L 363.264966 276.8896 
L 364.51301 275.489722 
L 365.791495 270.215855 
L 366.856899 270.131623 
L 368.074503 270.441052 
L 369.444308 268.747389 
L 370.631473 268.89265 
L 371.757757 268.224666 
L 372.853601 267.299496 
L 374.040765 265.87224 
L 375.197489 265.634337 
L 376.415094 263.57946 
L 377.480497 262.629777 
L 378.667662 263.493625 
L 379.854826 261.439979 
L 381.04199 258.511397 
L 382.198715 255.294405 
L 383.446759 252.962284 
L 385.760208 244.949955 
L 386.856052 244.023114 
L 389.382581 237.33997 
L 390.569745 234.924872 
L 391.726469 229.379561 
L 392.974514 224.739964 
L 393.979037 219.0233 
L 395.622803 213.259212 
L 396.870848 206.482375 
L 398.149333 201.288005 
L 399.275617 194.719973 
L 401.710826 182.497654 
L 408.742491 137.346037 
L 410.020976 129.905127 
L 413.369388 108.220877 
L 414.647873 100.767791 
L 415.743717 91.8106 
L 418.331126 75.291451 
L 419.30521 66.88409 
L 420.644574 58.849002 
L 421.679538 51.115834 
L 424.145187 36.60382 
L 425.119271 29.820213 
L 425.119271 29.820213 
" clip-path="url(#p980ab4f728)" style="fill: none; stroke: #000000; stroke-width: 2.5; stroke-linecap: square"/>
   </g>
   <g id="line2d_46">
    <path d="M 71.100783 243.793382 
L 71.100783 247.501126 
L 71.100783 246.285808 
L 71.252984 245.684021 
L 71.892226 245.001595 
L 73.566432 244.536889 
L 75.72768 244.526999 
L 77.828048 247.415219 
L 79.593574 247.647318 
L 81.0547 248.226603 
L 82.272304 248.381497 
L 83.368148 247.327982 
L 84.372672 247.84544 
L 85.559836 247.160956 
L 86.77744 244.591533 
L 87.873284 244.551931 
L 89.151769 245.249795 
L 90.369374 246.431471 
L 91.465218 244.43849 
L 92.774142 244.707971 
L 93.900426 245.248061 
L 95.148471 246.633714 
L 96.396515 248.898551 
L 97.64456 249.700028 
L 98.862164 248.720659 
L 101.449574 250.012973 
L 102.575858 249.328997 
L 103.823902 247.472065 
L 104.950187 245.426006 
L 106.167791 244.869158 
L 107.294075 244.058386 
L 109.790164 244.922599 
L 110.946888 244.304955 
L 112.073172 244.988989 
L 113.290777 246.003863 
L 114.508381 246.466905 
L 115.695546 246.193235 
L 116.91315 245.132592 
L 117.978554 244.549287 
L 119.226598 243.632521 
L 120.413763 243.630798 
L 121.631367 243.24524 
L 122.879412 242.162477 
L 125.19286 242.26981 
L 126.380024 242.248719 
L 127.628069 242.516625 
L 128.754353 242.130914 
L 131.220002 244.239829 
L 132.285406 243.3063 
L 133.53345 241.889532 
L 134.751055 240.872586 
L 135.846899 241.229356 
L 137.094943 241.78535 
L 138.342988 242.190258 
L 139.499712 243.927007 
L 140.747757 244.539942 
L 141.965361 246.752452 
L 143.122085 247.611166 
L 145.405094 242.770068 
L 146.622698 241.999894 
L 147.809862 241.548487 
L 148.997027 238.909894 
L 150.153751 236.836861 
L 151.401795 233.967202 
L 152.6194 232.708334 
L 153.806564 232.016746 
L 154.932848 231.890861 
L 156.211333 230.724057 
L 157.337617 229.915194 
L 158.463901 230.566529 
L 159.742386 230.395826 
L 160.89911 229.262088 
L 162.177595 227.440888 
L 163.303879 225.294902 
L 164.491043 224.803153 
L 165.678207 222.96812 
L 166.834932 222.34326 
L 168.052536 221.120167 
L 169.27014 219.708002 
L 170.487745 219.038823 
L 171.644469 215.823639 
L 172.862073 214.989258 
L 173.988358 211.242509 
L 175.114642 209.523146 
L 176.362686 208.660262 
L 177.549851 206.100737 
L 178.706575 204.61151 
L 181.080903 200.179581 
L 183.546552 191.388699 
L 185.860001 185.775408 
L 187.077605 184.240189 
L 188.203889 184.023075 
L 189.512814 182.250537 
L 192.982987 180.943946 
L 194.170151 180.200834 
L 195.357315 180.955166 
L 196.60536 181.000493 
L 197.762084 181.943549 
L 198.949248 183.532732 
L 201.293137 187.11283 
L 202.510741 189.701736 
L 203.728346 191.626954 
L 204.85463 194.462879 
L 206.041794 197.812415 
L 207.228958 200.236723 
L 208.446563 200.571213 
L 209.664167 201.811723 
L 210.790451 204.088485 
L 212.008056 204.569716 
L 213.16478 206.592922 
L 214.351944 207.084947 
L 215.539109 209.183825 
L 216.726273 212.054685 
L 217.822117 213.370105 
L 220.226886 213.693006 
L 221.44449 213.212956 
L 222.601214 214.067377 
L 223.818819 213.522345 
L 225.005983 214.04649 
L 226.162707 213.220515 
L 227.319431 216.847229 
L 228.506596 219.901883 
L 229.69376 221.657757 
L 230.850484 222.318423 
L 232.098529 224.295323 
L 233.255253 222.811869 
L 234.442417 223.480817 
L 235.660022 221.963664 
L 236.786306 221.420729 
L 238.03435 220.023847 
L 239.221515 221.58765 
L 240.347799 223.843841 
L 241.534963 224.286496 
L 242.691687 225.075753 
L 243.878852 226.926574 
L 245.066016 225.075798 
L 247.470785 222.727266 
L 248.657949 222.685557 
L 249.814673 221.621307 
L 251.032278 220.980889 
L 252.189002 221.978166 
L 253.406606 222.103975 
L 254.593771 222.493108 
L 255.750495 221.580549 
L 256.968099 220.43675 
L 258.124823 219.602535 
L 259.372868 221.479108 
L 260.499152 222.809191 
L 261.716757 222.634866 
L 262.873481 223.500631 
L 265.27825 224.678619 
L 266.404534 225.779549 
L 267.652578 225.822485 
L 268.809302 226.929661 
L 269.966027 228.359395 
L 271.153191 230.243159 
L 272.340355 230.325903 
L 273.5884 230.085408 
L 277.210773 227.604847 
L 278.397937 228.759141 
L 279.615542 228.462834 
L 280.802706 228.588817 
L 281.98987 230.137541 
L 283.116154 231.244475 
L 284.303319 232.066507 
L 285.490483 232.353248 
L 286.708087 233.943286 
L 287.864812 234.958631 
L 289.051976 234.351716 
L 290.23914 235.282412 
L 291.456745 234.521572 
L 292.613469 234.873234 
L 293.770193 235.857713 
L 294.987798 237.898005 
L 296.144522 238.409197 
L 297.301246 238.656477 
L 298.51885 241.796527 
L 299.736455 239.899034 
L 300.862739 241.668125 
L 302.080343 240.80243 
L 303.297948 240.348956 
L 304.424232 240.23843 
L 305.611396 238.512437 
L 306.79856 239.40538 
L 308.016165 238.921179 
L 309.142449 237.921151 
L 310.360053 237.865808 
L 311.486338 238.254711 
L 312.703942 240.657759 
L 313.891106 239.357657 
L 315.04783 240.582458 
L 316.234995 240.77784 
L 317.391719 239.960737 
L 318.578883 240.784597 
L 319.766048 240.910027 
L 320.983652 239.478963 
L 322.170816 238.660933 
L 323.357981 240.187614 
L 324.484265 239.280495 
L 325.671429 238.901948 
L 326.889034 239.581426 
L 328.106638 238.719295 
L 329.202482 238.669697 
L 330.450526 238.465882 
L 331.607251 236.049839 
L 332.763975 234.947112 
L 334.2251 232.586047 
L 335.534025 232.47362 
L 336.751629 231.309181 
L 337.999674 230.767047 
L 339.186838 229.828333 
L 340.313122 228.340785 
L 341.561167 228.261467 
L 342.717891 228.648269 
L 343.844175 229.843574 
L 345.09222 232.303645 
L 346.248944 233.39038 
L 347.496988 235.294081 
L 348.623273 235.178904 
L 349.840877 234.591843 
L 351.028041 235.104743 
L 352.215206 234.615214 
L 353.43281 234.613306 
L 354.528654 235.520329 
L 355.685378 236.6482 
L 356.933423 236.700025 
L 358.120587 236.438323 
L 359.277311 235.766498 
L 360.525356 234.185853 
L 361.56032 235.533286 
L 362.869244 236.467196 
L 364.117289 235.79816 
L 365.213133 235.413573 
L 366.339417 233.592193 
L 368.713746 232.534733 
L 369.99223 230.764162 
L 371.179395 230.754712 
L 372.366559 230.235152 
L 373.492843 231.769293 
L 374.680007 231.147227 
L 375.806291 231.138142 
L 377.054336 231.634106 
L 378.11974 231.309503 
L 379.398224 231.297647 
L 380.585389 230.346608 
L 382.929277 225.414941 
L 385.242726 221.361637 
L 386.42989 219.027911 
L 387.586614 217.282754 
L 390.052263 212.857974 
L 391.117667 209.967444 
L 394.892241 197.037716 
L 396.292486 193.482802 
L 397.38833 189.203788 
L 398.758135 184.455259 
L 403.445912 164.540778 
L 404.633076 157.800314 
L 405.911561 151.700797 
L 406.946525 144.889815 
L 408.255449 138.037121 
L 415.256675 96.352573 
L 416.382959 88.167992 
L 417.661444 80.404485 
L 418.909488 72.106454 
L 419.974892 64.087318 
L 421.222937 56.305495 
L 422.2579 48.804216 
L 423.688585 41.603982 
L 424.784429 34.710564 
L 424.784429 34.710564 
" clip-path="url(#p980ab4f728)" style="fill: none; stroke: #1f77b4; stroke-width: 2.5; stroke-linecap: square"/>
   </g>
   <g id="line2d_47">
    <path d="M 70.918143 238.751577 
L 70.918143 245.270139 
L 71.039903 245.409592 
L 71.618265 246.695634 
L 73.01851 245.577672 
L 75.179758 247.875067 
L 77.341006 246.921297 
L 79.258733 247.080658 
L 80.780739 244.950015 
L 82.028783 245.309593 
L 83.124627 246.177792 
L 84.220471 246.589112 
L 85.316315 247.263561 
L 86.442599 249.211627 
L 87.629764 249.515269 
L 88.847368 249.448088 
L 90.034532 248.261921 
L 93.596025 246.214809 
L 94.81363 246.342958 
L 96.000794 247.202929 
L 97.309719 247.358226 
L 98.649084 249.977328 
L 99.927568 249.188744 
L 102.332337 250.84087 
L 103.519501 250.253273 
L 104.706666 249.535248 
L 105.89383 248.228985 
L 107.080994 245.71875 
L 108.298599 245.784259 
L 109.455323 245.302606 
L 111.860092 245.774626 
L 113.047256 245.938245 
L 114.26486 245.475801 
L 115.452025 245.748564 
L 116.639189 245.63913 
L 117.826353 247.885947 
L 119.013518 246.531283 
L 121.326966 249.93951 
L 122.575011 250.571477 
L 123.731735 250.534552 
L 124.888459 248.394718 
L 126.106063 246.804562 
L 127.323668 244.24342 
L 128.480392 243.633673 
L 129.667556 244.088356 
L 130.824281 241.156531 
L 131.981005 240.537267 
L 133.229049 242.358194 
L 134.385774 241.674361 
L 135.572938 239.790555 
L 136.790542 239.7546 
L 138.008147 239.154445 
L 139.347512 239.146075 
L 140.443356 240.385162 
L 141.63052 238.895187 
L 142.756804 236.742576 
L 144.004849 234.821787 
L 145.192013 234.376896 
L 146.409617 232.620641 
L 147.566342 232.160061 
L 148.783946 232.663841 
L 149.94067 233.853433 
L 151.158275 234.155226 
L 152.284559 234.843118 
L 153.471723 234.560374 
L 154.780648 233.74246 
L 155.906932 232.624781 
L 157.094096 232.082865 
L 158.28126 231.085203 
L 159.529305 232.780272 
L 160.686029 233.308858 
L 161.873194 233.165129 
L 162.999478 232.10191 
L 164.247522 232.036148 
L 165.404246 232.988969 
L 166.621851 233.407593 
L 167.809015 233.013355 
L 168.996179 232.407398 
L 170.152904 231.221516 
L 171.340068 230.663752 
L 172.527232 228.17964 
L 173.653516 224.066615 
L 174.871121 222.301545 
L 176.058285 219.463057 
L 177.215009 218.530952 
L 178.432614 218.881216 
L 179.650218 217.541094 
L 180.806942 217.03321 
L 181.963667 214.362262 
L 183.181271 212.335229 
L 184.459756 209.275507 
L 185.61648 206.871752 
L 186.894965 207.056211 
L 187.990808 205.8087 
L 189.177973 204.936521 
L 190.365137 205.386761 
L 191.552301 204.259118 
L 192.709026 204.345603 
L 193.92663 204.229693 
L 196.300959 205.647703 
L 197.427243 207.488888 
L 198.614407 210.449706 
L 199.832012 211.7296 
L 201.019176 212.039322 
L 202.1759 212.576862 
L 203.393504 212.312178 
L 204.550229 212.952571 
L 206.954997 216.188355 
L 208.111722 218.841005 
L 209.238006 220.209499 
L 210.45561 222.085773 
L 211.703655 223.632157 
L 212.860379 226.074285 
L 214.047543 226.515699 
L 216.421872 224.037018 
L 217.609036 225.008809 
L 218.73532 226.5223 
L 219.952925 227.199174 
L 221.140089 225.205087 
L 222.296813 225.026473 
L 223.544858 225.090365 
L 224.732022 227.18003 
L 225.888746 227.887303 
L 227.075911 226.915957 
L 228.263075 228.588256 
L 229.419799 232.260603 
L 231.824568 235.230896 
L 233.011732 234.005114 
L 234.168456 234.97639 
L 235.355621 234.890137 
L 236.573225 235.191015 
L 237.729949 234.41887 
L 238.886674 232.654819 
L 240.104278 234.337729 
L 242.387286 231.970139 
L 244.883375 231.230124 
L 246.0401 233.160325 
L 247.196824 233.278936 
L 248.383988 233.737779 
L 249.540712 233.885327 
L 250.758317 234.379642 
L 251.945481 235.98588 
L 253.102205 234.882884 
L 254.31981 235.028641 
L 255.537414 234.388711 
L 257.850863 238.402645 
L 259.129347 238.371914 
L 260.225191 239.180941 
L 261.412355 238.91475 
L 262.6604 238.402893 
L 263.817124 237.013846 
L 266.130573 234.915124 
L 267.409057 233.387862 
L 268.504901 234.084061 
L 269.722506 234.122768 
L 270.90967 233.579413 
L 272.096834 233.726389 
L 273.314439 233.400431 
L 274.562483 234.454382 
L 275.749648 235.228065 
L 276.997692 236.233985 
L 278.123976 234.244145 
L 279.372021 232.433962 
L 280.528745 232.21712 
L 281.655029 230.958107 
L 282.872633 230.665895 
L 285.246962 232.020017 
L 286.464567 235.166893 
L 287.560411 237.634804 
L 288.778015 238.986657 
L 289.965179 237.399087 
L 291.152344 237.429085 
L 292.369948 237.625444 
L 293.435352 236.730202 
L 294.683396 237.645129 
L 295.840121 237.35106 
L 297.057725 237.758171 
L 298.244889 238.609488 
L 299.432054 239.929613 
L 300.680098 240.936644 
L 301.775942 239.495125 
L 302.963107 239.467951 
L 304.180711 239.855789 
L 305.337435 239.057801 
L 306.524599 237.334011 
L 307.711764 235.30604 
L 308.898928 235.981811 
L 310.025212 235.990409 
L 311.242817 237.675874 
L 312.429981 236.845503 
L 313.617145 238.165074 
L 314.743429 239.761115 
L 315.930594 241.065916 
L 317.148198 240.566066 
L 318.365803 239.830608 
L 319.552967 238.412621 
L 320.679251 238.539674 
L 321.866415 236.362829 
L 323.05358 235.213431 
L 324.240744 233.140302 
L 325.427908 234.49438 
L 326.645513 234.153628 
L 329.019841 233.948451 
L 330.176565 235.132376 
L 331.36373 233.832873 
L 332.520454 233.736092 
L 333.859819 232.704872 
L 335.229624 232.372891 
L 336.416788 233.535959 
L 340.039161 235.796883 
L 342.47437 236.840513 
L 343.661534 234.841551 
L 344.787819 235.710905 
L 346.005423 235.89992 
L 347.223027 236.271787 
L 348.379752 238.266651 
L 349.536476 239.697549 
L 350.6932 242.077954 
L 353.067529 243.397656 
L 354.315573 243.103789 
L 355.472297 240.637966 
L 356.568141 240.706404 
L 357.846626 239.457898 
L 359.00335 238.167299 
L 360.190515 238.699875 
L 362.473523 236.585669 
L 363.752008 237.542098 
L 364.939172 237.033646 
L 366.095896 238.707343 
L 367.3135 237.473127 
L 369.687829 238.966108 
L 370.844553 238.132746 
L 372.001278 238.316457 
L 373.310202 235.507989 
L 374.436486 234.167919 
L 375.623651 235.47168 
L 376.749935 232.504846 
L 377.906659 233.299703 
L 379.154704 231.235243 
L 380.341868 229.915282 
L 381.559472 228.951711 
L 383.872921 225.54563 
L 385.060085 224.419235 
L 386.216809 222.914155 
L 387.251773 220.945767 
L 392.091751 207.211362 
L 393.187595 204.795898 
L 395.927205 197.371873 
L 397.266569 194.614738 
L 399.701778 185.650303 
L 400.828062 179.095408 
L 403.141511 164.187227 
L 404.328675 157.127683 
L 406.794324 144.649561 
L 407.859728 138.05896 
L 409.138213 133.140095 
L 410.203616 127.450731 
L 413.85643 103.781437 
L 414.921834 95.504581 
L 416.230758 88.395172 
L 417.296162 80.16611 
L 418.574647 72.506311 
L 424.601789 31.972262 
L 425.423672 23.367789 
L 425.423672 23.367789 
" clip-path="url(#p980ab4f728)" style="fill: none; stroke: #0033ff; stroke-width: 2.5; stroke-linecap: square"/>
   </g>
   <g id="line2d_48">
    <path d="M 69.091736 219.620753 
L 69.122176 223.932545 
L 69.152616 220.448939 
L 69.243937 220.716055 
L 69.730979 221.542847 
L 71.192104 223.64952 
L 73.292471 225.744491 
L 75.5146 225.734902 
L 78.954332 228.2122 
L 80.232817 228.126019 
L 81.328661 227.656082 
L 83.550789 226.153464 
L 84.707513 225.283494 
L 85.894677 226.426397 
L 88.269006 225.543363 
L 89.48661 224.846029 
L 90.673775 225.339725 
L 91.800059 225.997523 
L 92.987223 226.396903 
L 94.204828 228.58539 
L 95.361552 228.056333 
L 96.670476 228.969128 
L 97.948961 230.172372 
L 99.288326 229.475168 
L 100.50593 229.101238 
L 101.723535 228.972555 
L 102.941139 229.637787 
L 105.285028 231.491022 
L 106.472192 232.109149 
L 107.689797 231.07624 
L 108.876961 231.449389 
L 110.094565 232.107711 
L 111.251289 231.120151 
L 112.438454 232.382052 
L 113.625618 233.215792 
L 114.812782 231.81062 
L 116.030387 232.416367 
L 117.217551 231.101777 
L 118.374275 228.280584 
L 119.500559 227.770919 
L 120.779044 227.83694 
L 121.966208 228.465636 
L 123.092493 227.520991 
L 124.279657 228.761783 
L 125.436381 229.132782 
L 126.714866 229.138332 
L 127.87159 230.042922 
L 129.089194 229.079442 
L 130.276359 227.903321 
L 132.559367 227.215976 
L 133.807411 227.740299 
L 134.933696 227.217952 
L 137.399345 224.729248 
L 138.647389 224.128252 
L 139.834553 223.087944 
L 141.052158 220.959035 
L 142.178442 219.297338 
L 143.365606 218.759056 
L 144.552771 218.734034 
L 146.987979 221.148981 
L 148.175144 221.290586 
L 149.362308 219.610936 
L 150.549472 221.319228 
L 151.706197 221.380654 
L 152.862921 219.540121 
L 155.206809 217.088108 
L 157.702898 214.904273 
L 158.859623 215.049146 
L 160.077227 214.307847 
L 161.233951 213.992732 
L 162.451556 214.323485 
L 163.63872 212.810885 
L 164.825884 210.423401 
L 165.952168 207.833163 
L 167.108893 205.874305 
L 168.356937 201.999623 
L 171.85755 196.433917 
L 174.262319 191.541912 
L 178.980536 183.269347 
L 180.19814 182.023531 
L 181.385304 180.432748 
L 182.542029 178.587122 
L 183.729193 177.577813 
L 184.977238 175.213437 
L 186.194842 173.939559 
L 187.351566 173.161442 
L 188.50829 171.584917 
L 189.695455 169.397166 
L 190.913059 166.68226 
L 192.130664 166.111931 
L 193.226508 164.082616 
L 194.383232 163.91818 
L 195.631276 163.467751 
L 196.818441 163.590009 
L 197.944725 164.148202 
L 200.379934 166.17968 
L 202.754262 166.891177 
L 203.941426 168.343731 
L 205.098151 169.294157 
L 206.346195 171.08902 
L 207.53336 171.778154 
L 208.720524 173.967888 
L 209.907688 175.354238 
L 211.094853 177.54041 
L 212.251577 180.722346 
L 213.469181 182.952254 
L 215.84351 188.577111 
L 217.000234 189.317166 
L 218.126518 190.67011 
L 219.313682 190.517084 
L 221.718451 191.718454 
L 222.905615 192.858632 
L 224.09278 193.314286 
L 225.279944 193.35879 
L 226.436668 195.039874 
L 227.623833 197.033427 
L 228.810997 197.08349 
L 230.028601 198.565848 
L 231.215766 198.472374 
L 232.37249 199.413851 
L 233.559654 201.208695 
L 234.746818 202.12672 
L 237.090707 201.663569 
L 238.277871 202.707818 
L 239.465036 203.271315 
L 240.62176 203.656175 
L 241.839364 203.785924 
L 243.026529 202.826281 
L 244.152813 202.467347 
L 245.370417 203.610638 
L 246.557581 203.734168 
L 247.775186 205.19696 
L 250.119074 204.472355 
L 251.306239 204.213811 
L 252.493403 202.813381 
L 253.680567 202.079926 
L 254.867732 202.345262 
L 256.054896 202.231238 
L 258.429225 205.021219 
L 259.585949 204.004736 
L 261.960277 200.96061 
L 263.147442 202.025011 
L 264.365046 196.545046 
L 265.582651 193.717756 
L 266.739375 192.780298 
L 267.896099 192.366313 
L 269.113703 194.587064 
L 271.457592 197.728079 
L 272.675196 200.345201 
L 273.923241 204.304652 
L 275.110405 209.123166 
L 276.29757 206.058767 
L 277.545614 207.164781 
L 278.671898 208.541671 
L 279.889503 209.735603 
L 281.076667 211.841936 
L 282.233391 211.918521 
L 283.420555 213.712892 
L 284.60772 213.743287 
L 285.764444 215.840361 
L 286.951608 216.055896 
L 288.169213 214.435597 
L 289.325937 214.153453 
L 290.543541 213.550169 
L 291.730706 212.684038 
L 292.91787 213.084301 
L 294.105034 212.454885 
L 295.231318 213.735589 
L 296.448923 214.754259 
L 297.666527 214.033525 
L 298.792811 213.91045 
L 300.040856 212.737508 
L 301.16714 213.600108 
L 302.384744 213.736841 
L 303.541469 214.107537 
L 304.728633 216.308915 
L 305.885357 217.478441 
L 307.072521 220.588688 
L 308.259686 221.330529 
L 309.44685 218.862217 
L 310.664455 219.083584 
L 311.790739 217.693058 
L 312.977903 216.701711 
L 314.195507 215.273506 
L 315.382672 214.398188 
L 316.569836 215.613176 
L 317.72656 216.224672 
L 318.883284 219.201669 
L 320.040009 219.819909 
L 321.288053 220.797172 
L 322.444777 222.067201 
L 323.571061 222.103623 
L 324.788666 221.701233 
L 325.91495 223.360781 
L 327.162995 222.289092 
L 328.350159 222.037162 
L 329.537323 221.013683 
L 330.663607 222.181624 
L 331.911652 222.503221 
L 333.129256 222.452551 
L 334.529501 221.38883 
L 335.838426 221.402669 
L 337.086471 221.820546 
L 338.273635 223.082509 
L 339.491239 221.872134 
L 340.678404 222.329663 
L 341.865568 222.012215 
L 342.961412 222.949363 
L 344.239897 223.119889 
L 345.396621 222.572862 
L 346.522905 221.507636 
L 347.80139 221.537597 
L 348.927674 220.413638 
L 351.271562 220.259006 
L 352.397846 220.525832 
L 353.645891 219.692993 
L 354.802615 220.538009 
L 355.989779 220.596397 
L 357.268264 221.06052 
L 359.551272 220.81684 
L 360.768877 218.905312 
L 361.925601 218.184332 
L 363.112765 215.825331 
L 365.487094 210.190968 
L 367.830982 204.958621 
L 369.048587 203.594681 
L 370.266191 202.476772 
L 371.362035 202.277219 
L 372.57964 203.322456 
L 373.858124 204.858133 
L 376.232453 209.017231 
L 377.297857 211.785613 
L 378.454581 213.118278 
L 380.85935 216.873611 
L 382.016074 216.420994 
L 383.264118 215.359269 
L 384.359962 214.151013 
L 385.516687 211.825689 
L 389.10862 206.012786 
L 391.422068 201.399584 
L 392.639673 198.901231 
L 393.796397 196.161018 
L 396.596887 188.892978 
L 398.910335 179.054467 
L 400.18882 174.856833 
L 403.811193 159.160136 
L 406.185522 146.443046 
L 407.220486 139.570229 
L 408.49897 133.407989 
L 409.594814 125.672643 
L 410.934179 118.112125 
L 411.908263 110.946769 
L 413.156307 102.907605 
L 414.434792 95.977606 
L 415.469756 88.540194 
L 416.900441 80.972147 
L 417.904964 73.39029 
L 419.183449 66.034027 
L 423.901666 34.07658 
L 424.99751 25.471482 
L 424.99751 25.471482 
" clip-path="url(#p980ab4f728)" style="fill: none; stroke: #ff7f0e; stroke-width: 2.5; stroke-linecap: square"/>
   </g>
   <g id="line2d_49">
    <path d="M 78.832572 250.917515 
L 78.771691 246.135591 
L 78.832572 252.819471 
L 79.410934 251.844943 
L 80.932939 250.58443 
L 85.285875 251.334406 
L 87.203602 251.056293 
L 88.695167 249.724554 
L 89.912772 250.670576 
L 91.069496 250.780576 
L 92.10446 251.619732 
L 93.291624 252.265978 
L 94.387468 251.957577 
L 95.605073 251.4628 
L 96.883557 252.000107 
L 98.131602 253.109819 
L 99.410086 251.702367 
L 100.658131 252.842203 
L 101.875735 255.935085 
L 103.12378 256.789228 
L 104.250064 256.861621 
L 105.467668 256.418977 
L 106.624393 256.150133 
L 107.841997 257.090372 
L 109.059602 256.651136 
L 110.246766 257.499389 
L 111.37305 255.955874 
L 112.560214 256.822676 
L 113.777819 256.900045 
L 115.025863 255.13941 
L 116.243468 252.897856 
L 117.339312 252.416773 
L 118.617796 251.623992 
L 119.804961 252.302205 
L 120.992125 251.612721 
L 122.179289 252.271454 
L 123.305573 253.307872 
L 124.492738 254.784599 
L 125.740782 254.416253 
L 128.115111 250.688299 
L 129.271835 248.877832 
L 130.489439 245.456462 
L 131.646164 244.214805 
L 132.802888 244.067773 
L 134.020492 242.509365 
L 135.207657 242.239372 
L 136.425261 241.647938 
L 137.673306 240.454412 
L 138.89091 238.334878 
L 140.108514 238.654886 
L 141.204358 236.472819 
L 142.421963 234.901866 
L 143.609127 234.69108 
L 144.796291 232.95477 
L 145.953016 230.696365 
L 147.17062 229.195302 
L 148.357784 227.152933 
L 149.544949 223.735962 
L 150.701673 221.500609 
L 151.888837 221.467746 
L 153.106442 219.564811 
L 155.51121 215.019774 
L 156.698375 211.583989 
L 157.915979 209.153747 
L 161.477472 198.362688 
L 163.851801 196.689927 
L 164.978085 196.31478 
L 166.195689 195.78597 
L 167.382854 196.174412 
L 168.600458 195.328037 
L 170.944347 189.65535 
L 172.131511 186.177644 
L 175.693004 176.832133 
L 176.910608 174.062226 
L 178.158653 171.975406 
L 179.284937 169.763974 
L 180.441661 168.047398 
L 181.628825 165.640827 
L 182.84643 163.792091 
L 185.281639 161.208456 
L 186.407923 160.480221 
L 187.595087 159.889081 
L 189.999856 157.239591 
L 191.18702 156.093666 
L 192.404625 155.591169 
L 193.530909 154.80342 
L 194.718073 154.375169 
L 197.061961 155.516878 
L 198.279566 156.591374 
L 199.46673 158.717343 
L 200.623454 160.451572 
L 205.372112 166.639295 
L 206.589716 167.773205 
L 207.77688 168.553652 
L 208.933605 170.009983 
L 210.120769 170.713482 
L 212.495098 174.576341 
L 214.869426 176.532086 
L 217.243755 177.937245 
L 218.400479 178.242538 
L 219.587643 179.390231 
L 220.744368 181.049858 
L 221.961972 182.21161 
L 223.118696 183.027163 
L 224.336301 184.231496 
L 226.710629 185.436185 
L 227.897794 186.848655 
L 229.084958 188.623049 
L 230.241682 189.144094 
L 231.428846 190.55111 
L 232.585571 191.368395 
L 233.772735 191.411724 
L 234.990339 190.352231 
L 236.177504 189.712792 
L 237.303788 188.355851 
L 238.490952 188.266746 
L 240.834841 189.000421 
L 242.052445 189.490569 
L 243.239609 190.850498 
L 244.426774 190.95513 
L 245.583498 189.674193 
L 247.896946 189.001626 
L 249.084111 188.030598 
L 250.362595 188.163041 
L 251.519319 186.454398 
L 252.706484 186.133039 
L 253.863208 187.037256 
L 255.080812 187.463575 
L 256.267977 187.36917 
L 257.546461 186.132869 
L 262.234238 186.407429 
L 263.390963 186.252812 
L 264.608567 186.350244 
L 265.826171 187.430254 
L 266.952456 187.801513 
L 268.17006 187.688545 
L 269.387664 186.510959 
L 270.483508 185.943104 
L 271.670673 184.824223 
L 272.918717 184.480726 
L 274.136322 183.141787 
L 275.384366 183.576249 
L 276.54109 183.549793 
L 277.758695 183.964728 
L 278.915419 185.175155 
L 281.350628 186.816519 
L 282.476912 187.175464 
L 283.694516 186.499869 
L 284.820801 186.158626 
L 286.068845 186.187711 
L 287.195129 186.784565 
L 288.382294 186.858591 
L 289.630338 186.666478 
L 290.817502 187.651824 
L 291.943786 187.430336 
L 293.191831 188.854737 
L 294.378995 188.773964 
L 295.53572 188.341341 
L 297.849168 188.502074 
L 299.066772 187.470093 
L 300.223497 186.848512 
L 302.628265 184.895773 
L 303.78499 183.287124 
L 305.002594 182.849378 
L 306.159318 181.16509 
L 308.533647 181.096818 
L 309.690371 180.577424 
L 310.847095 179.705918 
L 312.09514 179.314408 
L 313.221424 178.287045 
L 315.595752 176.907226 
L 316.752477 175.646942 
L 319.126805 173.379161 
L 320.37485 171.556345 
L 321.501134 170.360479 
L 322.718738 168.026513 
L 325.062627 164.214108 
L 326.280231 162.647392 
L 327.436956 161.539762 
L 328.59368 160.09148 
L 329.780844 158.941669 
L 330.968008 156.491206 
L 332.094292 155.633224 
L 333.342337 155.266993 
L 334.833902 153.764197 
L 336.021067 152.195262 
L 337.329991 150.918147 
L 338.517156 148.835553 
L 340.891484 146.567449 
L 342.109089 146.242876 
L 343.204933 145.65022 
L 344.452977 146.887288 
L 345.609702 146.201489 
L 347.98403 145.18631 
L 350.358359 143.434741 
L 351.545523 143.382014 
L 352.641367 143.536118 
L 353.889412 144.465296 
L 355.137456 146.281413 
L 356.20286 148.751325 
L 357.450905 149.862295 
L 359.825233 153.549661 
L 361.012398 154.605558 
L 362.199562 156.90738 
L 363.417166 158.476605 
L 364.51301 160.397174 
L 365.700175 162.994404 
L 366.887339 165.890773 
L 368.135383 169.506146 
L 369.413868 170.852902 
L 371.605556 175.182587 
L 372.823161 176.768441 
L 374.040765 178.743781 
L 375.227929 179.132751 
L 377.602258 182.302755 
L 378.698102 182.850059 
L 379.854826 183.92539 
L 381.04199 182.653662 
L 382.229155 183.399502 
L 383.507639 184.422545 
L 384.633923 185.501302 
L 385.760208 186.149012 
L 386.977812 186.508527 
L 388.256297 187.105929 
L 390.508865 185.679565 
L 391.696029 184.083344 
L 392.974514 181.951917 
L 394.131238 178.954608 
L 395.501043 176.975389 
L 398.088452 171.067664 
L 401.710826 156.604556 
L 403.963394 147.848194 
L 405.089678 142.707852 
L 406.429043 137.332457 
L 407.616207 131.531812 
L 415.865477 83.55101 
L 416.961321 76.347291 
L 418.300686 68.458818 
L 422.897143 36.178812 
L 424.206067 28.258793 
L 425.149711 20.50103 
L 425.149711 20.50103 
" clip-path="url(#p980ab4f728)" style="fill: none; stroke: #ff0000; stroke-width: 2.5; stroke-linecap: square"/>
   </g>
   <g id="patch_3">
    <path d="M 60.598945 299.822656 
L 60.598945 7.2 
" style="fill: none; stroke: #000000; stroke-width: 1.5; stroke-linejoin: miter; stroke-linecap: square"/>
   </g>
   <g id="patch_4">
    <path d="M 60.598945 299.822656 
L 425.880273 299.822656 
" style="fill: none; stroke: #000000; stroke-width: 1.5; stroke-linejoin: miter; stroke-linecap: square"/>
   </g>
   <g id="legend_1">
    <g id="line2d_50">
     <path d="M 71.398945 22.536328 
L 83.398945 22.536328 
L 95.398945 22.536328 
" style="fill: none; stroke: #000000; stroke-width: 2.5; stroke-linecap: square"/>
    </g>
    <g id="text_12">
     <!-- vacuum -->
     <g transform="translate(104.998945 26.736328) scale(0.12 -0.12)">
      <defs>
       <path id="ArialMT-59" d="M 1344 0 
L 81 3319 
L 675 3319 
L 1388 1331 
Q 1503 1009 1600 663 
Q 1675 925 1809 1294 
L 2547 3319 
L 3125 3319 
L 1869 0 
L 1344 0 
z
" transform="scale(0.015625)"/>
       <path id="ArialMT-46" d="M 2588 1216 
L 3141 1144 
Q 3050 572 2676 248 
Q 2303 -75 1759 -75 
Q 1078 -75 664 370 
Q 250 816 250 1647 
Q 250 2184 428 2587 
Q 606 2991 970 3192 
Q 1334 3394 1763 3394 
Q 2303 3394 2647 3120 
Q 2991 2847 3088 2344 
L 2541 2259 
Q 2463 2594 2264 2762 
Q 2066 2931 1784 2931 
Q 1359 2931 1093 2626 
Q 828 2322 828 1663 
Q 828 994 1084 691 
Q 1341 388 1753 388 
Q 2084 388 2306 591 
Q 2528 794 2588 1216 
z
" transform="scale(0.015625)"/>
      </defs>
      <use xlink:href="#ArialMT-59"/>
      <use xlink:href="#ArialMT-44" transform="translate(50 0)"/>
      <use xlink:href="#ArialMT-46" transform="translate(105.609375 0)"/>
      <use xlink:href="#ArialMT-58" transform="translate(155.609375 0)"/>
      <use xlink:href="#ArialMT-58" transform="translate(211.21875 0)"/>
      <use xlink:href="#ArialMT-50" transform="translate(266.828125 0)"/>
     </g>
    </g>
    <g id="line2d_51">
     <path d="M 71.398945 39.798047 
L 83.398945 39.798047 
L 95.398945 39.798047 
" style="fill: none; stroke: #1f77b4; stroke-width: 2.5; stroke-linecap: square"/>
    </g>
    <g id="text_13">
     <!-- 1h -->
     <g transform="translate(104.998945 43.998047) scale(0.12 -0.12)">
      <defs>
       <path id="ArialMT-4b" d="M 422 0 
L 422 4581 
L 984 4581 
L 984 2938 
Q 1378 3394 1978 3394 
Q 2347 3394 2619 3248 
Q 2891 3103 3008 2847 
Q 3125 2591 3125 2103 
L 3125 0 
L 2563 0 
L 2563 2103 
Q 2563 2525 2380 2717 
Q 2197 2909 1863 2909 
Q 1613 2909 1392 2779 
Q 1172 2650 1078 2428 
Q 984 2206 984 1816 
L 984 0 
L 422 0 
z
" transform="scale(0.015625)"/>
      </defs>
      <use xlink:href="#ArialMT-14"/>
      <use xlink:href="#ArialMT-4b" transform="translate(55.609375 0)"/>
     </g>
    </g>
    <g id="line2d_52">
     <path d="M 71.398945 57.059766 
L 83.398945 57.059766 
L 95.398945 57.059766 
" style="fill: none; stroke: #0033ff; stroke-width: 2.5; stroke-linecap: square"/>
    </g>
    <g id="text_14">
     <!-- 2h -->
     <g transform="translate(104.998945 61.259766) scale(0.12 -0.12)">
      <use xlink:href="#ArialMT-15"/>
      <use xlink:href="#ArialMT-4b" transform="translate(55.609375 0)"/>
     </g>
    </g>
    <g id="line2d_53">
     <path d="M 71.398945 74.321484 
L 83.398945 74.321484 
L 95.398945 74.321484 
" style="fill: none; stroke: #ff7f0e; stroke-width: 2.5; stroke-linecap: square"/>
    </g>
    <g id="text_15">
     <!-- 4h -->
     <g transform="translate(104.998945 78.521484) scale(0.12 -0.12)">
      <use xlink:href="#ArialMT-17"/>
      <use xlink:href="#ArialMT-4b" transform="translate(55.609375 0)"/>
     </g>
    </g>
    <g id="line2d_54">
     <path d="M 71.398945 91.583203 
L 83.398945 91.583203 
L 95.398945 91.583203 
" style="fill: none; stroke: #ff0000; stroke-width: 2.5; stroke-linecap: square"/>
    </g>
    <g id="text_16">
     <!-- first -->
     <g transform="translate(104.998945 95.783203) scale(0.12 -0.12)">
      <defs>
       <path id="ArialMT-49" d="M 556 0 
L 556 2881 
L 59 2881 
L 59 3319 
L 556 3319 
L 556 3672 
Q 556 4006 616 4169 
Q 697 4388 901 4523 
Q 1106 4659 1475 4659 
Q 1713 4659 2000 4603 
L 1916 4113 
Q 1741 4144 1584 4144 
Q 1328 4144 1222 4034 
Q 1116 3925 1116 3625 
L 1116 3319 
L 1763 3319 
L 1763 2881 
L 1116 2881 
L 1116 0 
L 556 0 
z
" transform="scale(0.015625)"/>
       <path id="ArialMT-4c" d="M 425 3934 
L 425 4581 
L 988 4581 
L 988 3934 
L 425 3934 
z
M 425 0 
L 425 3319 
L 988 3319 
L 988 0 
L 425 0 
z
" transform="scale(0.015625)"/>
       <path id="ArialMT-56" d="M 197 991 
L 753 1078 
Q 800 744 1014 566 
Q 1228 388 1613 388 
Q 2000 388 2187 545 
Q 2375 703 2375 916 
Q 2375 1106 2209 1216 
Q 2094 1291 1634 1406 
Q 1016 1563 777 1677 
Q 538 1791 414 1992 
Q 291 2194 291 2438 
Q 291 2659 392 2848 
Q 494 3038 669 3163 
Q 800 3259 1026 3326 
Q 1253 3394 1513 3394 
Q 1903 3394 2198 3281 
Q 2494 3169 2634 2976 
Q 2775 2784 2828 2463 
L 2278 2388 
Q 2241 2644 2061 2787 
Q 1881 2931 1553 2931 
Q 1166 2931 1000 2803 
Q 834 2675 834 2503 
Q 834 2394 903 2306 
Q 972 2216 1119 2156 
Q 1203 2125 1616 2013 
Q 2213 1853 2448 1751 
Q 2684 1650 2818 1456 
Q 2953 1263 2953 975 
Q 2953 694 2789 445 
Q 2625 197 2315 61 
Q 2006 -75 1616 -75 
Q 969 -75 630 194 
Q 291 463 197 991 
z
" transform="scale(0.015625)"/>
      </defs>
      <use xlink:href="#ArialMT-49"/>
      <use xlink:href="#ArialMT-4c" transform="translate(27.78125 0)"/>
      <use xlink:href="#ArialMT-55" transform="translate(50 0)"/>
      <use xlink:href="#ArialMT-56" transform="translate(83.296875 0)"/>
      <use xlink:href="#ArialMT-57" transform="translate(133.296875 0)"/>
     </g>
    </g>
   </g>
  </g>
 </g>
 <defs>
  <clipPath id="p980ab4f728">
   <rect x="60.598945" y="7.2" width="365.281328" height="292.622656"/>
  </clipPath>
 </defs>
</svg>
