<?xml version="1.0" encoding="utf-8" standalone="no"?>
<!DOCTYPE svg PUBLIC "-//W3C//DTD SVG 1.1//EN"
  "http://www.w3.org/Graphics/SVG/1.1/DTD/svg11.dtd">
<svg xmlns:xlink="http://www.w3.org/1999/xlink" width="448.650898pt" height="340.800273pt" viewBox="0 0 448.650898 340.800273" xmlns="http://www.w3.org/2000/svg" version="1.1">
 <metadata>
  <rdf:RDF xmlns:dc="http://purl.org/dc/elements/1.1/" xmlns:cc="http://creativecommons.org/ns#" xmlns:rdf="http://www.w3.org/1999/02/22-rdf-syntax-ns#">
   <cc:Work>
    <dc:type rdf:resource="http://purl.org/dc/dcmitype/StillImage"/>
    <dc:date>2026-07-09T17:08:27.637119</dc:date>
    <dc:format>image/svg+xml</dc:format>
    <dc:creator>
     <cc:Agent>
      <dc:title>Matplotlib v3.11.0, https://matplotlib.org/</dc:title>
     </cc:Agent>
    </dc:creator>
   </cc:Work>
  </rdf:RDF>
 </metadata>
 <defs>
  <style type="text/css">*{stroke-linejoin: round; stroke-linecap: butt}</style>
 </defs>
 <g id="figure_1">
  <g id="patch_1">
   <path d="M 0 340.800273 
L 448.650898 340.800273 
L 448.650898 0 
L 0 0 
z
" style="fill: #ffffff"/>
  </g>
  <g id="axes_1">
   <g id="patch_2">
    <path d="M 60.598945 299.822656 
L 425.880273 299.822656 
L 425.880273 7.2 
L 60.598945 7.2 
z
" style="fill: #ffffff"/>
   </g>
   <g id="matplotlib.axis_1">
    <g id="xtick_1">
     <g id="line2d_1">
      <defs>
       <path id="me90e27ca4c" d="M 0 0 
L 0 -6 
" style="stroke: #000000; stroke-width: 1.5"/>
      </defs>
      <g>
       <use xlink:href="#me90e27ca4c" x="60.598945" y="299.822656" style="stroke: #000000; stroke-width: 1.5"/>
      </g>
     </g>
     <g id="text_1">
      <!-- 0 -->
      <g transform="translate(56.706289 313.515039) scale(0.14 -0.14)">
       <defs>
        <path id="ArialMT-13" d="M 266 2259 
Q 266 3072 433 3567 
Q 600 4063 929 4331 
Q 1259 4600 1759 4600 
Q 2128 4600 2406 4451 
Q 2684 4303 2865 4023 
Q 3047 3744 3150 3342 
Q 3253 2941 3253 2259 
Q 3253 1453 3087 958 
Q 2922 463 2592 192 
Q 2263 -78 1759 -78 
Q 1097 -78 719 397 
Q 266 969 266 2259 
z
M 844 2259 
Q 844 1131 1108 757 
Q 1372 384 1759 384 
Q 2147 384 2411 759 
Q 2675 1134 2675 2259 
Q 2675 3391 2411 3762 
Q 2147 4134 1753 4134 
Q 1366 4134 1134 3806 
Q 844 3388 844 2259 
z
" transform="scale(0.015625)"/>
       </defs>
       <use xlink:href="#ArialMT-13"/>
      </g>
     </g>
    </g>
    <g id="xtick_2">
     <g id="line2d_2">
      <g>
       <use xlink:href="#me90e27ca4c" x="121.479167" y="299.822656" style="stroke: #000000; stroke-width: 1.5"/>
      </g>
     </g>
     <g id="text_2">
      <!-- 200 -->
      <g transform="translate(109.801198 313.515039) scale(0.14 -0.14)">
       <defs>
        <path id="ArialMT-15" d="M 3222 541 
L 3222 0 
L 194 0 
Q 188 203 259 391 
Q 375 700 629 1000 
Q 884 1300 1366 1694 
Q 2113 2306 2375 2664 
Q 2638 3022 2638 3341 
Q 2638 3675 2398 3904 
Q 2159 4134 1775 4134 
Q 1369 4134 1125 3890 
Q 881 3647 878 3216 
L 300 3275 
Q 359 3922 746 4261 
Q 1134 4600 1788 4600 
Q 2447 4600 2831 4234 
Q 3216 3869 3216 3328 
Q 3216 3053 3103 2787 
Q 2991 2522 2730 2228 
Q 2469 1934 1863 1422 
Q 1356 997 1212 845 
Q 1069 694 975 541 
L 3222 541 
z
" transform="scale(0.015625)"/>
       </defs>
       <use xlink:href="#ArialMT-15"/>
       <use xlink:href="#ArialMT-13" transform="translate(55.609375 0)"/>
       <use xlink:href="#ArialMT-13" transform="translate(111.21875 0)"/>
      </g>
     </g>
    </g>
    <g id="xtick_3">
     <g id="line2d_3">
      <g>
       <use xlink:href="#me90e27ca4c" x="182.359388" y="299.822656" style="stroke: #000000; stroke-width: 1.5"/>
      </g>
     </g>
     <g id="text_3">
      <!-- 400 -->
      <g transform="translate(170.681419 313.515039) scale(0.14 -0.14)">
       <defs>
        <path id="ArialMT-17" d="M 2069 0 
L 2069 1097 
L 81 1097 
L 81 1613 
L 2172 4581 
L 2631 4581 
L 2631 1613 
L 3250 1613 
L 3250 1097 
L 2631 1097 
L 2631 0 
L 2069 0 
z
M 2069 1613 
L 2069 3678 
L 634 1613 
L 2069 1613 
z
" transform="scale(0.015625)"/>
       </defs>
       <use xlink:href="#ArialMT-17"/>
       <use xlink:href="#ArialMT-13" transform="translate(55.609375 0)"/>
       <use xlink:href="#ArialMT-13" transform="translate(111.21875 0)"/>
      </g>
     </g>
    </g>
    <g id="xtick_4">
     <g id="line2d_4">
      <g>
       <use xlink:href="#me90e27ca4c" x="243.239609" y="299.822656" style="stroke: #000000; stroke-width: 1.5"/>
      </g>
     </g>
     <g id="text_4">
      <!-- 600 -->
      <g transform="translate(231.561641 313.515039) scale(0.14 -0.14)">
       <defs>
        <path id="ArialMT-19" d="M 3184 3459 
L 2625 3416 
Q 2550 3747 2413 3897 
Q 2184 4138 1850 4138 
Q 1581 4138 1378 3988 
Q 1113 3794 959 3422 
Q 806 3050 800 2363 
Q 1003 2672 1297 2822 
Q 1591 2972 1913 2972 
Q 2475 2972 2870 2558 
Q 3266 2144 3266 1488 
Q 3266 1056 3080 686 
Q 2894 316 2569 119 
Q 2244 -78 1831 -78 
Q 1128 -78 684 439 
Q 241 956 241 2144 
Q 241 3472 731 4075 
Q 1159 4600 1884 4600 
Q 2425 4600 2770 4297 
Q 3116 3994 3184 3459 
z
M 888 1484 
Q 888 1194 1011 928 
Q 1134 663 1356 523 
Q 1578 384 1822 384 
Q 2178 384 2434 671 
Q 2691 959 2691 1453 
Q 2691 1928 2437 2201 
Q 2184 2475 1800 2475 
Q 1419 2475 1153 2201 
Q 888 1928 888 1484 
z
" transform="scale(0.015625)"/>
       </defs>
       <use xlink:href="#ArialMT-19"/>
       <use xlink:href="#ArialMT-13" transform="translate(55.609375 0)"/>
       <use xlink:href="#ArialMT-13" transform="translate(111.21875 0)"/>
      </g>
     </g>
    </g>
    <g id="xtick_5">
     <g id="line2d_5">
      <g>
       <use xlink:href="#me90e27ca4c" x="304.119831" y="299.822656" style="stroke: #000000; stroke-width: 1.5"/>
      </g>
     </g>
     <g id="text_5">
      <!-- 800 -->
      <g transform="translate(292.441862 313.515039) scale(0.14 -0.14)">
       <defs>
        <path id="ArialMT-1b" d="M 1131 2484 
Q 781 2613 612 2850 
Q 444 3088 444 3419 
Q 444 3919 803 4259 
Q 1163 4600 1759 4600 
Q 2359 4600 2725 4251 
Q 3091 3903 3091 3403 
Q 3091 3084 2923 2848 
Q 2756 2613 2416 2484 
Q 2838 2347 3058 2040 
Q 3278 1734 3278 1309 
Q 3278 722 2862 322 
Q 2447 -78 1769 -78 
Q 1091 -78 675 323 
Q 259 725 259 1325 
Q 259 1772 486 2073 
Q 713 2375 1131 2484 
z
M 1019 3438 
Q 1019 3113 1228 2906 
Q 1438 2700 1772 2700 
Q 2097 2700 2305 2904 
Q 2513 3109 2513 3406 
Q 2513 3716 2298 3927 
Q 2084 4138 1766 4138 
Q 1444 4138 1231 3931 
Q 1019 3725 1019 3438 
z
M 838 1322 
Q 838 1081 952 856 
Q 1066 631 1291 507 
Q 1516 384 1775 384 
Q 2178 384 2440 643 
Q 2703 903 2703 1303 
Q 2703 1709 2433 1975 
Q 2163 2241 1756 2241 
Q 1359 2241 1098 1978 
Q 838 1716 838 1322 
z
" transform="scale(0.015625)"/>
       </defs>
       <use xlink:href="#ArialMT-1b"/>
       <use xlink:href="#ArialMT-13" transform="translate(55.609375 0)"/>
       <use xlink:href="#ArialMT-13" transform="translate(111.21875 0)"/>
      </g>
     </g>
    </g>
    <g id="xtick_6">
     <g id="line2d_6">
      <g>
       <use xlink:href="#me90e27ca4c" x="365.000052" y="299.822656" style="stroke: #000000; stroke-width: 1.5"/>
      </g>
     </g>
     <g id="text_6">
      <!-- 1000 -->
      <g transform="translate(349.429427 313.515039) scale(0.14 -0.14)">
       <defs>
        <path id="ArialMT-14" d="M 2384 0 
L 1822 0 
L 1822 3584 
Q 1619 3391 1289 3197 
Q 959 3003 697 2906 
L 697 3450 
Q 1169 3672 1522 3987 
Q 1875 4303 2022 4600 
L 2384 4600 
L 2384 0 
z
" transform="scale(0.015625)"/>
       </defs>
       <use xlink:href="#ArialMT-14"/>
       <use xlink:href="#ArialMT-13" transform="translate(55.609375 0)"/>
       <use xlink:href="#ArialMT-13" transform="translate(111.21875 0)"/>
       <use xlink:href="#ArialMT-13" transform="translate(166.828125 0)"/>
      </g>
     </g>
    </g>
    <g id="xtick_7">
     <g id="line2d_7">
      <g>
       <use xlink:href="#me90e27ca4c" x="425.880273" y="299.822656" style="stroke: #000000; stroke-width: 1.5"/>
      </g>
     </g>
     <g id="text_7">
      <!-- 1200 -->
      <g transform="translate(410.309648 313.515039) scale(0.14 -0.14)">
       <use xlink:href="#ArialMT-14"/>
       <use xlink:href="#ArialMT-15" transform="translate(55.609375 0)"/>
       <use xlink:href="#ArialMT-13" transform="translate(111.21875 0)"/>
       <use xlink:href="#ArialMT-13" transform="translate(166.828125 0)"/>
      </g>
     </g>
    </g>
    <g id="xtick_8">
     <g id="line2d_8">
      <defs>
       <path id="m59bffa68f3" d="M 0 0 
L 0 -3 
" style="stroke: #000000"/>
      </defs>
      <g>
       <use xlink:href="#m59bffa68f3" x="75.819001" y="299.822656" style="stroke: #000000"/>
      </g>
     </g>
    </g>
    <g id="xtick_9">
     <g id="line2d_9">
      <g>
       <use xlink:href="#m59bffa68f3" x="91.039056" y="299.822656" style="stroke: #000000"/>
      </g>
     </g>
    </g>
    <g id="xtick_10">
     <g id="line2d_10">
      <g>
       <use xlink:href="#m59bffa68f3" x="106.259111" y="299.822656" style="stroke: #000000"/>
      </g>
     </g>
    </g>
    <g id="xtick_11">
     <g id="line2d_11">
      <g>
       <use xlink:href="#m59bffa68f3" x="136.699222" y="299.822656" style="stroke: #000000"/>
      </g>
     </g>
    </g>
    <g id="xtick_12">
     <g id="line2d_12">
      <g>
       <use xlink:href="#m59bffa68f3" x="151.919277" y="299.822656" style="stroke: #000000"/>
      </g>
     </g>
    </g>
    <g id="xtick_13">
     <g id="line2d_13">
      <g>
       <use xlink:href="#m59bffa68f3" x="167.139333" y="299.822656" style="stroke: #000000"/>
      </g>
     </g>
    </g>
    <g id="xtick_14">
     <g id="line2d_14">
      <g>
       <use xlink:href="#m59bffa68f3" x="197.579443" y="299.822656" style="stroke: #000000"/>
      </g>
     </g>
    </g>
    <g id="xtick_15">
     <g id="line2d_15">
      <g>
       <use xlink:href="#m59bffa68f3" x="212.799499" y="299.822656" style="stroke: #000000"/>
      </g>
     </g>
    </g>
    <g id="xtick_16">
     <g id="line2d_16">
      <g>
       <use xlink:href="#m59bffa68f3" x="228.019554" y="299.822656" style="stroke: #000000"/>
      </g>
     </g>
    </g>
    <g id="xtick_17">
     <g id="line2d_17">
      <g>
       <use xlink:href="#m59bffa68f3" x="258.459665" y="299.822656" style="stroke: #000000"/>
      </g>
     </g>
    </g>
    <g id="xtick_18">
     <g id="line2d_18">
      <g>
       <use xlink:href="#m59bffa68f3" x="273.67972" y="299.822656" style="stroke: #000000"/>
      </g>
     </g>
    </g>
    <g id="xtick_19">
     <g id="line2d_19">
      <g>
       <use xlink:href="#m59bffa68f3" x="288.899775" y="299.822656" style="stroke: #000000"/>
      </g>
     </g>
    </g>
    <g id="xtick_20">
     <g id="line2d_20">
      <g>
       <use xlink:href="#m59bffa68f3" x="319.339886" y="299.822656" style="stroke: #000000"/>
      </g>
     </g>
    </g>
    <g id="xtick_21">
     <g id="line2d_21">
      <g>
       <use xlink:href="#m59bffa68f3" x="334.559941" y="299.822656" style="stroke: #000000"/>
      </g>
     </g>
    </g>
    <g id="xtick_22">
     <g id="line2d_22">
      <g>
       <use xlink:href="#m59bffa68f3" x="349.779997" y="299.822656" style="stroke: #000000"/>
      </g>
     </g>
    </g>
    <g id="xtick_23">
     <g id="line2d_23">
      <g>
       <use xlink:href="#m59bffa68f3" x="380.220107" y="299.822656" style="stroke: #000000"/>
      </g>
     </g>
    </g>
    <g id="xtick_24">
     <g id="line2d_24">
      <g>
       <use xlink:href="#m59bffa68f3" x="395.440163" y="299.822656" style="stroke: #000000"/>
      </g>
     </g>
    </g>
    <g id="xtick_25">
     <g id="line2d_25">
      <g>
       <use xlink:href="#m59bffa68f3" x="410.660218" y="299.822656" style="stroke: #000000"/>
      </g>
     </g>
    </g>
    <g id="text_8">
     <!-- T1 Temperature (°C) -->
     <g transform="translate(179.500234 330.653711) scale(0.14 -0.14)">
      <defs>
       <path id="ArialMT-37" d="M 1659 0 
L 1659 4041 
L 150 4041 
L 150 4581 
L 3781 4581 
L 3781 4041 
L 2266 4041 
L 2266 0 
L 1659 0 
z
" transform="scale(0.015625)"/>
       <path id="ArialMT-3" transform="scale(0.015625)"/>
       <path id="ArialMT-48" d="M 2694 1069 
L 3275 997 
Q 3138 488 2766 206 
Q 2394 -75 1816 -75 
Q 1088 -75 661 373 
Q 234 822 234 1631 
Q 234 2469 665 2931 
Q 1097 3394 1784 3394 
Q 2450 3394 2872 2941 
Q 3294 2488 3294 1666 
Q 3294 1616 3291 1516 
L 816 1516 
Q 847 969 1125 678 
Q 1403 388 1819 388 
Q 2128 388 2347 550 
Q 2566 713 2694 1069 
z
M 847 1978 
L 2700 1978 
Q 2663 2397 2488 2606 
Q 2219 2931 1791 2931 
Q 1403 2931 1139 2672 
Q 875 2413 847 1978 
z
" transform="scale(0.015625)"/>
       <path id="ArialMT-50" d="M 422 0 
L 422 3319 
L 925 3319 
L 925 2853 
Q 1081 3097 1340 3245 
Q 1600 3394 1931 3394 
Q 2300 3394 2536 3241 
Q 2772 3088 2869 2813 
Q 3263 3394 3894 3394 
Q 4388 3394 4653 3120 
Q 4919 2847 4919 2278 
L 4919 0 
L 4359 0 
L 4359 2091 
Q 4359 2428 4304 2576 
Q 4250 2725 4106 2815 
Q 3963 2906 3769 2906 
Q 3419 2906 3187 2673 
Q 2956 2441 2956 1928 
L 2956 0 
L 2394 0 
L 2394 2156 
Q 2394 2531 2256 2718 
Q 2119 2906 1806 2906 
Q 1569 2906 1367 2781 
Q 1166 2656 1075 2415 
Q 984 2175 984 1722 
L 984 0 
L 422 0 
z
" transform="scale(0.015625)"/>
       <path id="ArialMT-53" d="M 422 -1272 
L 422 3319 
L 934 3319 
L 934 2888 
Q 1116 3141 1344 3267 
Q 1572 3394 1897 3394 
Q 2322 3394 2647 3175 
Q 2972 2956 3137 2557 
Q 3303 2159 3303 1684 
Q 3303 1175 3120 767 
Q 2938 359 2589 142 
Q 2241 -75 1856 -75 
Q 1575 -75 1351 44 
Q 1128 163 984 344 
L 984 -1272 
L 422 -1272 
z
M 931 1641 
Q 931 1000 1190 694 
Q 1450 388 1819 388 
Q 2194 388 2461 705 
Q 2728 1022 2728 1688 
Q 2728 2322 2467 2637 
Q 2206 2953 1844 2953 
Q 1484 2953 1207 2617 
Q 931 2281 931 1641 
z
" transform="scale(0.015625)"/>
       <path id="ArialMT-55" d="M 416 0 
L 416 3319 
L 922 3319 
L 922 2816 
Q 1116 3169 1280 3281 
Q 1444 3394 1641 3394 
Q 1925 3394 2219 3213 
L 2025 2691 
Q 1819 2813 1613 2813 
Q 1428 2813 1281 2702 
Q 1134 2591 1072 2394 
Q 978 2094 978 1738 
L 978 0 
L 416 0 
z
" transform="scale(0.015625)"/>
       <path id="ArialMT-44" d="M 2588 409 
Q 2275 144 1986 34 
Q 1697 -75 1366 -75 
Q 819 -75 525 192 
Q 231 459 231 875 
Q 231 1119 342 1320 
Q 453 1522 633 1644 
Q 813 1766 1038 1828 
Q 1203 1872 1538 1913 
Q 2219 1994 2541 2106 
Q 2544 2222 2544 2253 
Q 2544 2597 2384 2738 
Q 2169 2928 1744 2928 
Q 1347 2928 1158 2789 
Q 969 2650 878 2297 
L 328 2372 
Q 403 2725 575 2942 
Q 747 3159 1072 3276 
Q 1397 3394 1825 3394 
Q 2250 3394 2515 3294 
Q 2781 3194 2906 3042 
Q 3031 2891 3081 2659 
Q 3109 2516 3109 2141 
L 3109 1391 
Q 3109 606 3145 398 
Q 3181 191 3288 0 
L 2700 0 
Q 2613 175 2588 409 
z
M 2541 1666 
Q 2234 1541 1622 1453 
Q 1275 1403 1131 1340 
Q 988 1278 909 1158 
Q 831 1038 831 891 
Q 831 666 1001 516 
Q 1172 366 1500 366 
Q 1825 366 2078 508 
Q 2331 650 2450 897 
Q 2541 1088 2541 1459 
L 2541 1666 
z
" transform="scale(0.015625)"/>
       <path id="ArialMT-57" d="M 1650 503 
L 1731 6 
Q 1494 -44 1306 -44 
Q 1000 -44 831 53 
Q 663 150 594 308 
Q 525 466 525 972 
L 525 2881 
L 113 2881 
L 113 3319 
L 525 3319 
L 525 4141 
L 1084 4478 
L 1084 3319 
L 1650 3319 
L 1650 2881 
L 1084 2881 
L 1084 941 
Q 1084 700 1114 631 
Q 1144 563 1211 522 
Q 1278 481 1403 481 
Q 1497 481 1650 503 
z
" transform="scale(0.015625)"/>
       <path id="ArialMT-58" d="M 2597 0 
L 2597 488 
Q 2209 -75 1544 -75 
Q 1250 -75 995 37 
Q 741 150 617 320 
Q 494 491 444 738 
Q 409 903 409 1263 
L 409 3319 
L 972 3319 
L 972 1478 
Q 972 1038 1006 884 
Q 1059 663 1231 536 
Q 1403 409 1656 409 
Q 1909 409 2131 539 
Q 2353 669 2445 892 
Q 2538 1116 2538 1541 
L 2538 3319 
L 3100 3319 
L 3100 0 
L 2597 0 
z
" transform="scale(0.015625)"/>
       <path id="ArialMT-b" d="M 1497 -1347 
Q 1031 -759 709 28 
Q 388 816 388 1659 
Q 388 2403 628 3084 
Q 909 3875 1497 4659 
L 1900 4659 
Q 1522 4009 1400 3731 
Q 1209 3300 1100 2831 
Q 966 2247 966 1656 
Q 966 153 1900 -1347 
L 1497 -1347 
z
" transform="scale(0.015625)"/>
       <path id="ArialMT-83" d="M 400 3794 
Q 400 4153 654 4406 
Q 909 4659 1266 4659 
Q 1628 4659 1881 4406 
Q 2134 4153 2134 3794 
Q 2134 3434 1879 3179 
Q 1625 2925 1266 2925 
Q 909 2925 654 3178 
Q 400 3431 400 3794 
z
M 741 3794 
Q 741 3575 895 3420 
Q 1050 3266 1269 3266 
Q 1484 3266 1639 3420 
Q 1794 3575 1794 3794 
Q 1794 4013 1639 4167 
Q 1484 4322 1269 4322 
Q 1050 4322 895 4167 
Q 741 4013 741 3794 
z
" transform="scale(0.015625)"/>
       <path id="ArialMT-26" d="M 3763 1606 
L 4369 1453 
Q 4178 706 3683 314 
Q 3188 -78 2472 -78 
Q 1731 -78 1267 223 
Q 803 525 561 1097 
Q 319 1669 319 2325 
Q 319 3041 592 3573 
Q 866 4106 1370 4382 
Q 1875 4659 2481 4659 
Q 3169 4659 3637 4309 
Q 4106 3959 4291 3325 
L 3694 3184 
Q 3534 3684 3231 3912 
Q 2928 4141 2469 4141 
Q 1941 4141 1586 3887 
Q 1231 3634 1087 3207 
Q 944 2781 944 2328 
Q 944 1744 1114 1308 
Q 1284 872 1643 656 
Q 2003 441 2422 441 
Q 2931 441 3284 734 
Q 3638 1028 3763 1606 
z
" transform="scale(0.015625)"/>
       <path id="ArialMT-c" d="M 791 -1347 
L 388 -1347 
Q 1322 153 1322 1656 
Q 1322 2244 1188 2822 
Q 1081 3291 891 3722 
Q 769 4003 388 4659 
L 791 4659 
Q 1378 3875 1659 3084 
Q 1900 2403 1900 1659 
Q 1900 816 1576 28 
Q 1253 -759 791 -1347 
z
" transform="scale(0.015625)"/>
      </defs>
      <use xlink:href="#ArialMT-37"/>
      <use xlink:href="#ArialMT-14" transform="translate(61.078125 0)"/>
      <use xlink:href="#ArialMT-3" transform="translate(116.6875 0)"/>
      <use xlink:href="#ArialMT-37" transform="translate(142.65625 0)"/>
      <use xlink:href="#ArialMT-48" transform="translate(192.65625 0)"/>
      <use xlink:href="#ArialMT-50" transform="translate(248.265625 0)"/>
      <use xlink:href="#ArialMT-53" transform="translate(331.5625 0)"/>
      <use xlink:href="#ArialMT-48" transform="translate(387.171875 0)"/>
      <use xlink:href="#ArialMT-55" transform="translate(442.78125 0)"/>
      <use xlink:href="#ArialMT-44" transform="translate(476.078125 0)"/>
      <use xlink:href="#ArialMT-57" transform="translate(531.6875 0)"/>
      <use xlink:href="#ArialMT-58" transform="translate(559.46875 0)"/>
      <use xlink:href="#ArialMT-55" transform="translate(615.078125 0)"/>
      <use xlink:href="#ArialMT-48" transform="translate(648.375 0)"/>
      <use xlink:href="#ArialMT-3" transform="translate(703.984375 0)"/>
      <use xlink:href="#ArialMT-b" transform="translate(731.765625 0)"/>
      <use xlink:href="#ArialMT-83" transform="translate(765.0625 0)"/>
      <use xlink:href="#ArialMT-26" transform="translate(805.046875 0)"/>
      <use xlink:href="#ArialMT-c" transform="translate(877.265625 0)"/>
     </g>
    </g>
   </g>
   <g id="matplotlib.axis_2">
    <g id="ytick_1">
     <g id="line2d_26">
      <defs>
       <path id="mbdeb2d149a" d="M 0 0 
L 6 0 
" style="stroke: #000000; stroke-width: 1.5"/>
      </defs>
      <g>
       <use xlink:href="#mbdeb2d149a" x="60.598945" y="286.521626" style="stroke: #000000; stroke-width: 1.5"/>
      </g>
     </g>
     <g id="text_9">
      <!-- $\mathdefault{10^{-20}}$ -->
      <g transform="translate(24.338945 292.961626) scale(0.14 -0.14)">
       <defs>
        <path id="ArialMT-ed" d="M 3381 1997 
L 356 1997 
L 356 2522 
L 3381 2522 
L 3381 1997 
z
" transform="scale(0.015625)"/>
       </defs>
       <use xlink:href="#ArialMT-14" transform="translate(0 0.3875)"/>
       <use xlink:href="#ArialMT-13" transform="translate(55.615234 0.3875)"/>
       <use xlink:href="#ArialMT-ed" transform="translate(112.1875 41.6875) scale(0.7)"/>
       <use xlink:href="#ArialMT-15" transform="translate(153.066406 41.6875) scale(0.7)"/>
       <use xlink:href="#ArialMT-13" transform="translate(191.99707 41.6875) scale(0.7)"/>
      </g>
     </g>
    </g>
    <g id="ytick_2">
     <g id="line2d_27">
      <g>
       <use xlink:href="#mbdeb2d149a" x="60.598945" y="227.198414" style="stroke: #000000; stroke-width: 1.5"/>
      </g>
     </g>
     <g id="text_10">
      <!-- $\mathdefault{10^{-18}}$ -->
      <g transform="translate(24.338945 233.638414) scale(0.14 -0.14)">
       <use xlink:href="#ArialMT-14" transform="translate(0 0.3875)"/>
       <use xlink:href="#ArialMT-13" transform="translate(55.615234 0.3875)"/>
       <use xlink:href="#ArialMT-ed" transform="translate(112.1875 41.6875) scale(0.7)"/>
       <use xlink:href="#ArialMT-14" transform="translate(153.066406 41.6875) scale(0.7)"/>
       <use xlink:href="#ArialMT-1b" transform="translate(191.99707 41.6875) scale(0.7)"/>
      </g>
     </g>
    </g>
    <g id="ytick_3">
     <g id="line2d_28">
      <g>
       <use xlink:href="#mbdeb2d149a" x="60.598945" y="167.875202" style="stroke: #000000; stroke-width: 1.5"/>
      </g>
     </g>
     <g id="text_11">
      <!-- $\mathdefault{10^{-16}}$ -->
      <g transform="translate(24.338945 174.315202) scale(0.14 -0.14)">
       <use xlink:href="#ArialMT-14" transform="translate(0 0.3875)"/>
       <use xlink:href="#ArialMT-13" transform="translate(55.615234 0.3875)"/>
       <use xlink:href="#ArialMT-ed" transform="translate(112.1875 41.6875) scale(0.7)"/>
       <use xlink:href="#ArialMT-14" transform="translate(153.066406 41.6875) scale(0.7)"/>
       <use xlink:href="#ArialMT-19" transform="translate(191.99707 41.6875) scale(0.7)"/>
      </g>
     </g>
    </g>
    <g id="ytick_4">
     <g id="line2d_29">
      <g>
       <use xlink:href="#mbdeb2d149a" x="60.598945" y="108.55199" style="stroke: #000000; stroke-width: 1.5"/>
      </g>
     </g>
     <g id="text_12">
      <!-- $\mathdefault{10^{-14}}$ -->
      <g transform="translate(24.338945 114.99199) scale(0.14 -0.14)">
       <use xlink:href="#ArialMT-14" transform="translate(0 0.3875)"/>
       <use xlink:href="#ArialMT-13" transform="translate(55.615234 0.3875)"/>
       <use xlink:href="#ArialMT-ed" transform="translate(112.1875 41.6875) scale(0.7)"/>
       <use xlink:href="#ArialMT-14" transform="translate(153.066406 41.6875) scale(0.7)"/>
       <use xlink:href="#ArialMT-17" transform="translate(191.99707 41.6875) scale(0.7)"/>
      </g>
     </g>
    </g>
    <g id="ytick_5">
     <g id="line2d_30">
      <g>
       <use xlink:href="#mbdeb2d149a" x="60.598945" y="49.228778" style="stroke: #000000; stroke-width: 1.5"/>
      </g>
     </g>
     <g id="text_13">
      <!-- $\mathdefault{10^{-12}}$ -->
      <g transform="translate(24.338945 55.668778) scale(0.14 -0.14)">
       <use xlink:href="#ArialMT-14" transform="translate(0 0.3875)"/>
       <use xlink:href="#ArialMT-13" transform="translate(55.615234 0.3875)"/>
       <use xlink:href="#ArialMT-ed" transform="translate(112.1875 41.6875) scale(0.7)"/>
       <use xlink:href="#ArialMT-14" transform="translate(153.066406 41.6875) scale(0.7)"/>
       <use xlink:href="#ArialMT-15" transform="translate(191.99707 41.6875) scale(0.7)"/>
      </g>
     </g>
    </g>
    <g id="text_14">
     <!-- Ion Current (m/z 14) -->
     <g transform="translate(17.392383 216.137266) rotate(-90) scale(0.14 -0.14)">
      <defs>
       <path id="ArialMT-2c" d="M 597 0 
L 597 4581 
L 1203 4581 
L 1203 0 
L 597 0 
z
" transform="scale(0.015625)"/>
       <path id="ArialMT-52" d="M 213 1659 
Q 213 2581 725 3025 
Q 1153 3394 1769 3394 
Q 2453 3394 2887 2945 
Q 3322 2497 3322 1706 
Q 3322 1066 3130 698 
Q 2938 331 2570 128 
Q 2203 -75 1769 -75 
Q 1072 -75 642 372 
Q 213 819 213 1659 
z
M 791 1659 
Q 791 1022 1069 705 
Q 1347 388 1769 388 
Q 2188 388 2466 706 
Q 2744 1025 2744 1678 
Q 2744 2294 2464 2611 
Q 2184 2928 1769 2928 
Q 1347 2928 1069 2612 
Q 791 2297 791 1659 
z
" transform="scale(0.015625)"/>
       <path id="ArialMT-51" d="M 422 0 
L 422 3319 
L 928 3319 
L 928 2847 
Q 1294 3394 1984 3394 
Q 2284 3394 2536 3286 
Q 2788 3178 2913 3003 
Q 3038 2828 3088 2588 
Q 3119 2431 3119 2041 
L 3119 0 
L 2556 0 
L 2556 2019 
Q 2556 2363 2490 2533 
Q 2425 2703 2258 2804 
Q 2091 2906 1866 2906 
Q 1506 2906 1245 2678 
Q 984 2450 984 1813 
L 984 0 
L 422 0 
z
" transform="scale(0.015625)"/>
       <path id="ArialMT-12" d="M 0 -78 
L 1328 4659 
L 1778 4659 
L 453 -78 
L 0 -78 
z
" transform="scale(0.015625)"/>
       <path id="ArialMT-5d" d="M 125 0 
L 125 456 
L 2238 2881 
Q 1878 2863 1603 2863 
L 250 2863 
L 250 3319 
L 2963 3319 
L 2963 2947 
L 1166 841 
L 819 456 
Q 1197 484 1528 484 
L 3063 484 
L 3063 0 
L 125 0 
z
" transform="scale(0.015625)"/>
      </defs>
      <use xlink:href="#ArialMT-2c"/>
      <use xlink:href="#ArialMT-52" transform="translate(27.78125 0)"/>
      <use xlink:href="#ArialMT-51" transform="translate(83.390625 0)"/>
      <use xlink:href="#ArialMT-3" transform="translate(139 0)"/>
      <use xlink:href="#ArialMT-26" transform="translate(166.78125 0)"/>
      <use xlink:href="#ArialMT-58" transform="translate(239 0)"/>
      <use xlink:href="#ArialMT-55" transform="translate(294.609375 0)"/>
      <use xlink:href="#ArialMT-55" transform="translate(327.90625 0)"/>
      <use xlink:href="#ArialMT-48" transform="translate(361.203125 0)"/>
      <use xlink:href="#ArialMT-51" transform="translate(416.8125 0)"/>
      <use xlink:href="#ArialMT-57" transform="translate(472.421875 0)"/>
      <use xlink:href="#ArialMT-3" transform="translate(500.203125 0)"/>
      <use xlink:href="#ArialMT-b" transform="translate(527.984375 0)"/>
      <use xlink:href="#ArialMT-50" transform="translate(561.28125 0)"/>
      <use xlink:href="#ArialMT-12" transform="translate(644.578125 0)"/>
      <use xlink:href="#ArialMT-5d" transform="translate(672.359375 0)"/>
      <use xlink:href="#ArialMT-3" transform="translate(722.359375 0)"/>
      <use xlink:href="#ArialMT-14" transform="translate(750.140625 0)"/>
      <use xlink:href="#ArialMT-17" transform="translate(805.75 0)"/>
      <use xlink:href="#ArialMT-c" transform="translate(861.359375 0)"/>
     </g>
    </g>
   </g>
   <g id="line2d_31">
    <path d="M 78.802131 84.127378 
L 78.771691 82.257852 
L 78.771691 86.188214 
L 78.680371 97.622434 
L 78.680371 96.630847 
L 78.832572 94.487129 
L 79.502254 95.943737 
L 81.08514 95.341922 
L 83.276828 95.107285 
L 85.407636 92.24465 
L 87.203602 91.289325 
L 88.634287 89.56421 
L 89.821452 87.736024 
L 91.008616 88.448184 
L 92.07402 85.087117 
L 93.169864 85.065307 
L 94.357028 88.818117 
L 95.574632 93.463684 
L 96.792237 91.402677 
L 98.131602 92.027952 
L 99.440527 91.467203 
L 100.688571 92.661131 
L 101.936616 91.400541 
L 103.15422 92.30332 
L 104.280504 88.841559 
L 105.467668 89.373411 
L 106.654833 89.463565 
L 107.872437 88.574516 
L 108.998721 89.27741 
L 110.185886 89.748663 
L 112.560214 91.76417 
L 113.747379 92.024264 
L 114.964983 89.715506 
L 116.182587 88.56844 
L 117.369752 86.089418 
L 118.587356 86.091403 
L 119.77452 85.530074 
L 120.931245 89.198108 
L 122.118409 90.668678 
L 123.305573 90.784673 
L 124.492738 88.490229 
L 125.679902 92.574578 
L 126.867066 93.126412 
L 128.084671 93.557066 
L 129.241395 88.599964 
L 130.458999 91.397024 
L 131.646164 89.834377 
L 132.833328 96.623873 
L 135.207657 86.222054 
L 136.425261 84.569185 
L 137.642865 90.548663 
L 138.86047 89.864527 
L 140.078074 91.402501 
L 141.234798 88.701575 
L 142.421963 90.495099 
L 143.639567 87.68265 
L 144.765851 90.593383 
L 145.953016 87.892595 
L 148.388225 85.670162 
L 149.575389 88.232079 
L 150.792993 86.684105 
L 151.919277 89.430265 
L 153.106442 88.881104 
L 155.45033 89.057699 
L 156.607054 87.86557 
L 157.824659 86.865235 
L 159.011823 85.523075 
L 160.198987 83.975167 
L 161.416592 84.912694 
L 162.573316 84.12043 
L 163.790921 84.666874 
L 164.947645 86.110566 
L 166.165249 87.098362 
L 167.352413 89.598088 
L 168.570018 87.483067 
L 169.787622 87.171137 
L 170.944347 88.705088 
L 172.161951 89.111497 
L 173.349115 93.309746 
L 174.505839 92.416881 
L 175.662564 91.060506 
L 178.036892 89.777517 
L 179.193617 87.280844 
L 180.380781 82.788962 
L 181.598385 81.191299 
L 182.84643 82.779204 
L 184.033594 83.79403 
L 185.251199 85.587738 
L 186.468803 89.397464 
L 187.686407 91.674401 
L 188.843132 100.943538 
L 189.999856 97.125953 
L 191.21746 88.724674 
L 192.435065 85.721254 
L 193.561349 86.018637 
L 194.687633 86.032679 
L 195.905237 88.094654 
L 197.092402 87.193887 
L 198.279566 88.617723 
L 199.46673 88.991988 
L 200.653895 91.285522 
L 201.780179 87.045282 
L 202.967343 85.759085 
L 204.184947 86.064532 
L 205.372112 86.118654 
L 206.528836 85.985117 
L 207.716 88.078417 
L 208.903165 88.120048 
L 210.120769 87.265299 
L 211.277493 84.487319 
L 212.464657 83.766447 
L 213.682262 85.290472 
L 214.869426 84.905318 
L 216.056591 83.237482 
L 218.430919 80.372983 
L 219.618083 79.565178 
L 221.961972 78.520324 
L 223.149136 77.080655 
L 224.336301 78.804253 
L 225.462585 82.481461 
L 226.680189 83.256156 
L 227.836913 85.374721 
L 229.024078 88.390975 
L 230.272122 88.860987 
L 231.428846 90.821071 
L 232.616011 93.342477 
L 233.711855 90.443419 
L 234.838139 90.277124 
L 236.025303 88.468323 
L 237.242908 89.452968 
L 238.460512 85.576144 
L 239.647676 84.719526 
L 240.865281 84.198309 
L 242.052445 84.198493 
L 243.178729 86.393506 
L 244.396334 88.029183 
L 245.583498 84.154835 
L 246.801102 83.600388 
L 247.957827 83.503953 
L 249.144991 82.79554 
L 250.362595 82.494871 
L 251.54976 80.688301 
L 252.706484 81.033217 
L 253.893648 85.778938 
L 255.080812 88.96938 
L 256.267977 90.235435 
L 257.485581 87.84083 
L 258.672745 85.757008 
L 259.82947 86.663031 
L 261.077514 87.992359 
L 262.234238 88.086656 
L 263.421403 87.155615 
L 264.578127 88.365697 
L 265.765291 91.826182 
L 267.013336 88.537494 
L 268.13962 85.122521 
L 269.326784 84.212206 
L 270.513949 82.357112 
L 271.670673 83.802582 
L 272.888277 87.404731 
L 274.136322 90.6232 
L 275.353926 119.433836 
L 276.54109 122.674617 
L 277.697815 286.521626 
L 278.915419 286.521626 
L 280.072143 111.716534 
L 281.289748 105.736873 
L 282.507352 94.745041 
L 283.694516 92.121222 
L 284.881681 90.789142 
L 286.068845 91.727422 
L 287.225569 91.569514 
L 288.443174 85.312861 
L 289.599898 85.345651 
L 290.756622 84.735388 
L 293.130951 83.866952 
L 294.287675 84.653846 
L 295.505279 84.577318 
L 296.722884 85.065745 
L 297.849168 86.506024 
L 299.066772 83.490593 
L 300.284377 82.801374 
L 301.410661 84.017339 
L 302.597825 83.827587 
L 303.78499 85.141744 
L 304.972154 87.210872 
L 307.285602 86.256114 
L 308.503207 84.74924 
L 309.690371 88.667375 
L 310.847095 86.939872 
L 312.03426 89.720777 
L 313.221424 93.236934 
L 314.408588 93.626266 
L 315.595752 91.721144 
L 316.752477 91.706765 
L 317.909201 89.696831 
L 319.157245 87.759319 
L 320.34441 85.393846 
L 321.501134 85.096119 
L 322.627418 86.372095 
L 323.875463 89.682044 
L 325.032187 94.509624 
L 326.249791 93.449954 
L 327.406515 89.428029 
L 328.56324 89.499169 
L 329.750404 91.75327 
L 330.968008 88.745122 
L 332.094292 90.897196 
L 333.342337 89.298707 
L 334.833902 91.292144 
L 336.112387 99.202526 
L 337.299551 112.985177 
L 338.517156 106.018255 
L 339.64344 96.425157 
L 340.800164 90.461819 
L 342.048209 87.396559 
L 343.235373 85.358526 
L 344.452977 84.670995 
L 345.548821 82.553467 
L 346.796866 81.292169 
L 347.92315 84.203316 
L 349.201635 86.643531 
L 350.358359 88.271361 
L 351.484643 87.959531 
L 352.702247 86.525626 
L 353.950292 84.157167 
L 355.015696 82.905141 
L 356.20286 83.282543 
L 357.481345 82.385418 
L 358.607629 85.116972 
L 359.825233 87.142532 
L 361.042838 89.431106 
L 362.260442 89.633404 
L 363.264966 88.870537 
L 364.51301 85.710094 
L 365.791495 80.973726 
L 366.856899 78.614565 
L 368.074503 78.841662 
L 369.444308 78.669629 
L 370.631473 80.760165 
L 371.757757 80.35457 
L 372.853601 81.954634 
L 374.040765 80.761265 
L 375.197489 80.190007 
L 377.480497 77.315661 
L 378.667662 76.314221 
L 379.854826 77.041477 
L 381.04199 77.021447 
L 382.198715 76.59459 
L 383.446759 76.370294 
L 384.542603 76.387269 
L 385.760208 74.235908 
L 386.856052 72.879178 
L 388.225857 72.499822 
L 390.569745 67.794766 
L 391.726469 67.025942 
L 392.974514 65.703273 
L 393.979037 64.436295 
L 395.622803 63.290014 
L 396.870848 62.232315 
L 398.149333 60.504086 
L 399.275617 59.238237 
L 400.462781 58.168837 
L 402.776229 54.152132 
L 403.963394 52.933429 
L 407.494447 48.259426 
L 408.742491 46.790259 
L 411.14726 42.947877 
L 413.369388 39.779936 
L 415.743717 36.104929 
L 420.644574 30.020974 
L 421.679538 28.397941 
L 424.145187 24.917377 
L 425.119271 23.088051 
L 425.119271 23.088051 
" clip-path="url(#p8070489939)" style="fill: none; stroke: #000000; stroke-width: 2.5; stroke-linecap: square"/>
   </g>
   <g id="line2d_32">
    <path d="M 71.100783 80.081872 
L 71.100783 96.191537 
L 71.100783 94.994161 
L 71.252984 89.619183 
L 71.892226 86.095469 
L 73.566432 84.932213 
L 77.828048 78.991104 
L 79.593574 78.554886 
L 81.0547 82.182869 
L 82.272304 84.540987 
L 83.368148 86.388239 
L 84.372672 89.484114 
L 85.559836 89.792543 
L 86.77744 90.564001 
L 87.873284 93.284565 
L 89.151769 88.218003 
L 90.369374 89.129637 
L 91.465218 88.028793 
L 92.774142 90.870723 
L 93.900426 85.109926 
L 96.396515 83.576371 
L 97.64456 82.453696 
L 98.862164 84.683557 
L 100.140649 85.321944 
L 101.449574 83.973131 
L 102.575858 83.904492 
L 103.823902 81.956936 
L 104.950187 82.146245 
L 106.167791 84.537195 
L 107.294075 87.546215 
L 108.57256 89.734066 
L 109.790164 91.238082 
L 110.946888 97.327615 
L 112.073172 94.218084 
L 113.290777 91.56536 
L 114.508381 88.588629 
L 115.695546 87.992873 
L 116.91315 85.680889 
L 117.978554 86.706778 
L 119.226598 85.87459 
L 120.413763 86.163323 
L 121.631367 85.8054 
L 122.879412 85.122571 
L 123.944816 82.291781 
L 125.19286 81.832163 
L 126.380024 83.050016 
L 127.628069 85.047849 
L 128.754353 82.957896 
L 129.971958 84.343424 
L 131.220002 86.454 
L 132.285406 86.151137 
L 133.53345 89.571972 
L 134.751055 86.273472 
L 135.846899 84.327725 
L 137.094943 83.937029 
L 139.499712 81.42762 
L 140.747757 83.01484 
L 141.965361 84.163943 
L 143.122085 83.274195 
L 144.248369 82.052122 
L 145.405094 81.797237 
L 146.622698 80.599976 
L 148.997027 77.401523 
L 150.153751 76.282254 
L 151.401795 78.04063 
L 152.6194 82.004185 
L 153.806564 80.924892 
L 154.932848 82.718823 
L 156.211333 83.307987 
L 157.337617 81.727101 
L 158.463901 82.320901 
L 159.742386 82.3843 
L 160.89911 82.107172 
L 162.177595 83.543924 
L 163.303879 86.1257 
L 164.491043 87.216266 
L 165.678207 82.7713 
L 166.834932 83.063817 
L 168.052536 81.343674 
L 169.27014 77.812755 
L 170.487745 76.772186 
L 171.644469 77.206939 
L 172.862073 76.732105 
L 173.988358 76.973446 
L 175.114642 79.089058 
L 176.362686 78.921891 
L 177.549851 77.999464 
L 178.706575 76.697046 
L 179.893739 74.262096 
L 181.080903 72.928988 
L 182.298508 72.666504 
L 184.703277 71.681973 
L 185.860001 71.203706 
L 187.077605 71.993748 
L 188.203889 71.843282 
L 189.512814 70.802229 
L 190.639098 69.19384 
L 191.795822 67.280142 
L 192.982987 66.889167 
L 194.170151 67.133809 
L 195.357315 65.193197 
L 196.60536 64.826791 
L 197.762084 65.075607 
L 198.949248 65.928704 
L 200.105973 66.89816 
L 201.293137 67.348535 
L 202.510741 67.533277 
L 203.728346 67.309777 
L 204.85463 67.435202 
L 206.041794 67.706884 
L 207.228958 65.801579 
L 208.446563 66.397345 
L 209.664167 66.238558 
L 210.790451 66.719946 
L 212.008056 66.72656 
L 213.16478 67.200566 
L 214.351944 67.505748 
L 215.539109 68.643019 
L 216.726273 67.858751 
L 219.131042 66.978702 
L 220.226886 66.64301 
L 221.44449 65.75708 
L 222.601214 65.36502 
L 223.818819 65.454048 
L 226.162707 66.479754 
L 227.319431 67.867636 
L 228.506596 67.936602 
L 229.69376 68.518139 
L 230.850484 69.81664 
L 232.098529 70.031257 
L 233.255253 69.357638 
L 234.442417 69.004284 
L 235.660022 68.497688 
L 236.786306 67.883418 
L 238.03435 67.015983 
L 239.221515 66.674372 
L 241.534963 65.754525 
L 245.066016 65.404218 
L 246.22274 66.625389 
L 247.470785 66.953955 
L 249.814673 66.992617 
L 251.032278 66.341312 
L 253.406606 65.352115 
L 254.593771 65.4228 
L 255.750495 65.292793 
L 256.968099 65.918377 
L 258.124823 68.925272 
L 259.372868 69.236359 
L 260.499152 68.258024 
L 261.716757 67.375969 
L 262.873481 66.918045 
L 264.091085 66.05684 
L 265.27825 65.980312 
L 266.404534 65.511725 
L 267.652578 64.426926 
L 268.809302 65.17669 
L 269.966027 66.628594 
L 271.153191 66.673865 
L 272.340355 67.516109 
L 273.5884 69.472936 
L 274.866884 72.130755 
L 275.993168 71.663456 
L 277.210773 71.744585 
L 278.397937 69.41326 
L 279.615542 68.220053 
L 280.802706 67.50359 
L 281.98987 66.049784 
L 283.116154 65.030178 
L 284.303319 65.525473 
L 285.490483 66.191659 
L 286.708087 66.157941 
L 287.864812 66.486335 
L 290.23914 68.604274 
L 291.456745 70.653103 
L 292.613469 71.441607 
L 293.770193 70.766368 
L 294.987798 70.449842 
L 296.144522 70.735986 
L 297.301246 68.41078 
L 298.51885 67.219734 
L 299.736455 66.737879 
L 302.080343 66.403714 
L 304.424232 67.328715 
L 306.79856 70.042399 
L 308.016165 70.282139 
L 309.142449 68.558174 
L 310.360053 67.84394 
L 311.486338 66.625326 
L 312.703942 66.433908 
L 313.891106 65.25903 
L 315.04783 65.879927 
L 316.234995 66.047251 
L 317.391719 66.363077 
L 318.578883 65.027587 
L 319.766048 64.607056 
L 320.983652 63.700321 
L 322.170816 64.146714 
L 324.484265 63.809242 
L 325.671429 63.295814 
L 326.889034 62.929735 
L 328.106638 63.084811 
L 329.202482 62.659586 
L 330.450526 61.803664 
L 332.763975 61.460486 
L 334.2251 62.747294 
L 335.534025 61.270153 
L 336.751629 60.143361 
L 337.999674 58.176982 
L 339.186838 56.700617 
L 340.313122 56.334738 
L 341.561167 56.337332 
L 342.717891 56.739101 
L 345.09222 59.399027 
L 346.248944 61.588983 
L 347.496988 62.321097 
L 348.623273 63.434174 
L 349.840877 62.275882 
L 351.028041 62.144971 
L 352.215206 62.231761 
L 353.43281 62.628045 
L 355.685378 62.437527 
L 358.120587 61.631796 
L 359.277311 60.954691 
L 360.525356 59.870478 
L 361.56032 59.463002 
L 362.869244 59.971996 
L 364.117289 60.204392 
L 365.213133 60.183904 
L 366.339417 59.813442 
L 367.526581 60.119732 
L 368.713746 60.642698 
L 369.99223 60.421697 
L 372.366559 60.393685 
L 373.492843 61.407635 
L 374.680007 61.213793 
L 378.11974 59.913999 
L 379.398224 60.168698 
L 381.681233 61.446097 
L 382.929277 63.23111 
L 385.242726 64.429944 
L 386.42989 63.77941 
L 387.586614 63.341652 
L 388.834659 62.516768 
L 390.052263 62.250684 
L 391.117667 61.742557 
L 392.365712 61.385481 
L 393.583316 60.624001 
L 394.892241 60.142758 
L 396.292486 59.286182 
L 398.758135 56.893265 
L 399.914859 55.378508 
L 401.071583 54.055329 
L 402.289188 53.077454 
L 404.633076 50.738247 
L 406.946525 47.587779 
L 409.412174 45.027591 
L 410.386257 43.699243 
L 411.725622 42.509323 
L 412.912786 40.741743 
L 415.256675 38.009171 
L 419.974892 31.075209 
L 421.222937 29.457295 
L 422.2579 27.920053 
L 423.688585 26.465359 
L 424.784429 25.092195 
L 424.784429 25.092195 
" clip-path="url(#p8070489939)" style="fill: none; stroke: #1f77b4; stroke-width: 2.5; stroke-linecap: square"/>
   </g>
   <g id="line2d_33">
    <path d="M 70.918143 81.396266 
L 70.918143 95.331517 
L 70.918143 81.947913 
L 71.039903 80.650801 
L 71.618265 82.831026 
L 73.01851 86.123795 
L 75.179758 88.125819 
L 77.341006 89.428642 
L 79.258733 85.581212 
L 80.780739 83.087661 
L 82.028783 81.298686 
L 84.220471 85.638361 
L 85.316315 85.157801 
L 86.442599 91.999748 
L 87.629764 103.995064 
L 88.847368 103.628187 
L 90.034532 98.52109 
L 91.221697 87.773266 
L 92.408861 87.691964 
L 93.596025 87.869465 
L 94.81363 85.587061 
L 96.000794 82.947934 
L 97.309719 81.062584 
L 98.649084 80.948435 
L 99.927568 82.690594 
L 101.145173 80.79688 
L 102.332337 79.92949 
L 103.519501 81.951674 
L 104.706666 86.601171 
L 105.89383 86.594849 
L 107.080994 86.050825 
L 108.298599 87.088169 
L 109.455323 84.889815 
L 110.672927 83.133483 
L 111.860092 82.504085 
L 113.047256 80.760688 
L 114.26486 80.185336 
L 115.452025 81.217605 
L 116.639189 81.728105 
L 117.826353 83.523849 
L 119.013518 87.603047 
L 120.200682 89.956399 
L 121.326966 87.713957 
L 122.575011 88.425404 
L 123.731735 85.741618 
L 126.106063 79.370359 
L 127.323668 78.915741 
L 128.480392 79.274182 
L 129.667556 83.226476 
L 130.824281 84.434284 
L 131.981005 88.871618 
L 133.229049 92.47497 
L 134.385774 96.813175 
L 135.572938 92.857201 
L 136.790542 85.845985 
L 138.008147 84.98586 
L 139.347512 83.353365 
L 140.443356 79.277399 
L 141.63052 78.651664 
L 142.756804 77.314146 
L 144.004849 78.858189 
L 145.192013 79.024833 
L 146.409617 78.457208 
L 148.783946 76.593731 
L 151.158275 80.339691 
L 152.284559 80.34493 
L 153.471723 80.658775 
L 154.780648 81.736665 
L 155.906932 83.673161 
L 157.094096 83.140869 
L 159.529305 78.500213 
L 160.686029 76.974709 
L 161.873194 78.863966 
L 162.999478 81.18877 
L 164.247522 82.060846 
L 165.404246 80.755417 
L 166.621851 79.973657 
L 167.809015 80.96155 
L 168.996179 81.517662 
L 170.152904 83.445336 
L 171.340068 84.238467 
L 172.527232 86.182232 
L 173.653516 85.611746 
L 174.871121 82.830791 
L 176.058285 80.877328 
L 177.215009 77.32989 
L 178.432614 74.956288 
L 179.650218 75.063934 
L 180.806942 76.133742 
L 181.963667 78.583645 
L 183.181271 81.577673 
L 184.459756 83.523177 
L 185.61648 82.71367 
L 186.894965 83.006149 
L 187.990808 82.466585 
L 189.177973 79.536297 
L 190.365137 77.598942 
L 191.552301 76.883763 
L 192.709026 74.766745 
L 193.92663 73.98491 
L 195.144235 72.949639 
L 196.300959 71.618786 
L 198.614407 72.799001 
L 199.832012 73.395633 
L 201.019176 72.50581 
L 202.1759 72.338597 
L 203.393504 72.562347 
L 206.954997 69.074732 
L 208.111722 68.877596 
L 210.45561 70.142447 
L 211.703655 70.463063 
L 212.860379 70.070882 
L 214.047543 71.644489 
L 215.265148 71.016261 
L 216.421872 70.007866 
L 217.609036 67.9693 
L 218.73532 67.525517 
L 219.952925 67.906852 
L 221.140089 68.037736 
L 222.296813 68.851853 
L 223.544858 69.458622 
L 224.732022 69.521255 
L 225.888746 71.383175 
L 227.075911 69.097358 
L 228.263075 68.483448 
L 229.419799 67.041676 
L 230.637404 67.39972 
L 231.824568 68.342679 
L 234.168456 65.962155 
L 235.355621 66.549739 
L 236.573225 66.359905 
L 237.729949 66.949694 
L 238.886674 65.815176 
L 240.104278 66.547586 
L 241.261002 66.400806 
L 242.387286 68.209607 
L 243.604891 68.545378 
L 244.883375 66.337121 
L 246.0401 65.422653 
L 247.196824 65.816582 
L 248.383988 65.288476 
L 250.758317 63.921881 
L 251.945481 63.493725 
L 253.102205 63.665943 
L 254.31981 64.608585 
L 255.537414 64.50937 
L 256.724578 64.693642 
L 257.850863 65.402625 
L 259.129347 65.808957 
L 261.412355 66.995697 
L 262.6604 66.782588 
L 263.817124 65.959066 
L 264.973848 66.618145 
L 266.130573 66.001534 
L 267.409057 65.737062 
L 269.722506 64.828982 
L 270.90967 64.591103 
L 272.096834 64.925361 
L 273.314439 65.131965 
L 274.562483 65.039898 
L 275.749648 65.62847 
L 276.997692 66.812994 
L 278.123976 67.280462 
L 279.372021 68.121697 
L 281.655029 68.706034 
L 284.029358 69.753346 
L 285.246962 69.206393 
L 287.560411 68.743665 
L 288.778015 68.360354 
L 289.965179 67.733399 
L 291.152344 67.482276 
L 293.435352 67.259158 
L 294.683396 67.012742 
L 295.840121 67.306932 
L 297.057725 66.888734 
L 298.244889 66.307589 
L 299.432054 65.412086 
L 300.680098 64.121382 
L 301.775942 64.162797 
L 302.963107 64.407834 
L 304.180711 63.449086 
L 305.337435 63.081265 
L 306.524599 62.940181 
L 307.711764 62.9598 
L 310.025212 63.320197 
L 311.242817 63.010318 
L 312.429981 61.782987 
L 314.743429 61.511901 
L 315.930594 60.20557 
L 318.365803 60.306355 
L 319.552967 60.180173 
L 321.866415 58.05192 
L 325.427908 55.894834 
L 326.645513 56.113039 
L 327.771797 55.970913 
L 330.176565 56.62507 
L 331.36373 56.467205 
L 332.520454 56.062187 
L 333.859819 55.888524 
L 335.229624 55.948942 
L 337.664833 56.726422 
L 338.912877 57.535647 
L 342.47437 59.238738 
L 343.661534 59.527593 
L 344.787819 59.973731 
L 346.005423 60.606777 
L 347.223027 60.661772 
L 348.379752 61.206336 
L 349.536476 61.495425 
L 350.6932 61.953469 
L 351.910804 62.901327 
L 353.067529 62.99997 
L 355.472297 64.228511 
L 356.568141 64.155635 
L 357.846626 64.633355 
L 359.00335 64.079321 
L 361.408119 61.749972 
L 362.473523 61.62947 
L 363.752008 61.746962 
L 364.939172 61.250166 
L 367.3135 62.178594 
L 369.687829 63.836865 
L 370.844553 65.102038 
L 372.001278 65.55863 
L 373.310202 65.800925 
L 374.436486 66.381041 
L 375.623651 67.49245 
L 376.749935 68.023189 
L 377.906659 67.316188 
L 379.154704 67.478554 
L 380.341868 68.011977 
L 381.559472 67.543202 
L 382.655316 68.006703 
L 385.060085 66.520544 
L 386.216809 66.1255 
L 387.251773 66.295169 
L 388.530258 64.78784 
L 389.747862 62.902465 
L 390.874146 62.466804 
L 392.091751 61.647613 
L 393.187595 60.620107 
L 394.526959 59.741063 
L 395.927205 59.332245 
L 397.266569 59.200649 
L 399.701778 57.919493 
L 400.828062 57.055188 
L 403.141511 54.657378 
L 404.328675 52.990064 
L 405.60716 50.851079 
L 406.794324 49.271039 
L 407.859728 48.07581 
L 409.138213 46.381809 
L 410.203616 44.153456 
L 411.451661 42.471675 
L 412.730146 40.946108 
L 413.85643 39.204745 
L 414.921834 37.146126 
L 419.761811 30.594026 
L 423.323304 25.493288 
L 424.601789 23.915245 
L 425.423672 22.411442 
L 425.423672 22.411442 
" clip-path="url(#p8070489939)" style="fill: none; stroke: #0033ff; stroke-width: 2.5; stroke-linecap: square"/>
   </g>
   <g id="line2d_34">
    <path d="M 69.091736 81.076852 
L 69.122176 90.888319 
L 69.152616 82.803001 
L 69.243937 83.896056 
L 69.730979 83.884932 
L 71.192104 83.318689 
L 73.292471 87.174538 
L 75.5146 86.15348 
L 77.371446 87.392514 
L 78.954332 90.449545 
L 80.232817 87.119312 
L 81.328661 85.621826 
L 82.394065 86.595938 
L 83.550789 89.750645 
L 84.707513 97.824917 
L 85.894677 94.628536 
L 87.051401 96.26116 
L 88.269006 94.275767 
L 89.48661 95.450007 
L 91.800059 86.167984 
L 92.987223 84.474311 
L 94.204828 86.554836 
L 95.361552 88.302997 
L 96.670476 94.815063 
L 97.948961 92.014274 
L 99.288326 97.857934 
L 100.50593 105.782837 
L 101.723535 106.088417 
L 102.941139 97.10068 
L 104.097863 90.318134 
L 105.285028 89.712206 
L 106.472192 87.951794 
L 107.689797 87.247367 
L 108.876961 88.657046 
L 110.094565 90.305937 
L 111.251289 93.290976 
L 112.438454 94.673805 
L 113.625618 93.102987 
L 114.812782 93.630088 
L 116.030387 88.88955 
L 117.217551 89.558129 
L 118.374275 87.12633 
L 119.500559 88.262296 
L 120.779044 88.063791 
L 121.966208 87.564811 
L 124.279657 88.576202 
L 125.436381 89.615106 
L 126.714866 89.704512 
L 127.87159 87.234637 
L 129.089194 85.70033 
L 130.276359 85.000468 
L 131.433083 86.159101 
L 132.559367 84.439781 
L 133.807411 81.45409 
L 134.933696 81.043628 
L 136.12086 80.320301 
L 137.399345 80.466533 
L 138.647389 80.9269 
L 139.834553 82.446 
L 141.052158 83.151104 
L 142.178442 86.568968 
L 144.552771 85.318456 
L 145.770375 86.062184 
L 146.987979 87.643199 
L 148.175144 85.544977 
L 149.362308 85.947612 
L 150.549472 86.7855 
L 151.706197 88.218194 
L 154.080525 86.171816 
L 155.206809 83.515672 
L 156.515734 83.681619 
L 157.702898 84.574945 
L 158.859623 84.581011 
L 160.077227 82.90844 
L 161.233951 82.579789 
L 162.451556 83.020329 
L 163.63872 83.310369 
L 164.825884 84.889739 
L 165.952168 84.935602 
L 167.108893 86.203816 
L 168.356937 84.753021 
L 170.731266 81.675978 
L 171.85755 79.46294 
L 173.075154 77.877668 
L 174.262319 75.708537 
L 175.479923 73.808594 
L 176.575767 74.897026 
L 177.823812 73.80732 
L 178.980536 75.305333 
L 180.19814 73.851169 
L 181.385304 74.941576 
L 182.542029 74.228569 
L 183.729193 74.081289 
L 184.977238 73.7255 
L 186.194842 72.123471 
L 187.351566 70.245195 
L 188.50829 70.107277 
L 189.695455 68.179548 
L 190.913059 67.571734 
L 192.130664 66.66018 
L 193.226508 66.634394 
L 194.383232 65.264172 
L 195.631276 65.691951 
L 196.818441 65.868722 
L 199.223209 64.299444 
L 200.379934 64.394253 
L 201.627978 63.517041 
L 202.754262 63.915717 
L 203.941426 63.15987 
L 205.098151 61.780709 
L 206.346195 60.625088 
L 207.53336 60.241726 
L 209.907688 59.712405 
L 213.469181 63.594254 
L 214.656345 66.072616 
L 215.84351 66.591466 
L 217.000234 67.964314 
L 218.126518 68.244311 
L 219.313682 67.66054 
L 220.531287 67.454975 
L 221.718451 66.629176 
L 222.905615 66.512925 
L 224.09278 65.163949 
L 225.279944 64.567212 
L 226.436668 65.267767 
L 227.623833 66.669232 
L 228.810997 68.417536 
L 231.215766 67.130831 
L 232.37249 66.740193 
L 233.559654 65.899748 
L 234.746818 64.870456 
L 235.933983 64.373776 
L 237.090707 63.629073 
L 238.277871 64.425443 
L 239.465036 65.461525 
L 240.62176 65.414022 
L 241.839364 63.573812 
L 243.026529 62.908893 
L 244.152813 63.262126 
L 245.370417 64.538206 
L 247.775186 63.845712 
L 248.96235 63.198362 
L 250.119074 63.871194 
L 251.306239 64.389568 
L 252.493403 63.736975 
L 253.680567 62.106706 
L 254.867732 61.932346 
L 256.054896 62.218247 
L 257.2725 62.028014 
L 259.585949 61.058919 
L 260.803553 60.474917 
L 261.960277 60.979041 
L 263.147442 61.884018 
L 264.365046 61.853547 
L 265.582651 62.209421 
L 266.739375 63.869451 
L 269.113703 64.030222 
L 270.300868 65.164572 
L 271.457592 65.578195 
L 272.675196 65.114835 
L 273.923241 65.769516 
L 275.110405 65.574651 
L 276.29757 64.160267 
L 278.671898 65.438966 
L 279.889503 64.771493 
L 281.076667 64.721175 
L 282.233391 65.030174 
L 283.420555 64.900879 
L 285.764444 65.59023 
L 286.951608 64.730382 
L 288.169213 64.58256 
L 289.325937 64.935782 
L 290.543541 64.63518 
L 291.730706 65.312072 
L 292.91787 66.418813 
L 294.105034 66.240713 
L 295.231318 65.768598 
L 297.666527 66.880136 
L 298.792811 66.824964 
L 300.040856 67.980995 
L 301.16714 66.877852 
L 302.384744 66.323811 
L 303.541469 66.108889 
L 304.728633 65.680243 
L 305.885357 64.588797 
L 308.259686 62.625476 
L 309.44685 62.401998 
L 310.664455 62.570492 
L 311.790739 62.275574 
L 312.977903 61.838027 
L 315.382672 63.25887 
L 316.569836 64.304561 
L 317.72656 65.098077 
L 320.040009 65.382201 
L 321.288053 65.285611 
L 322.444777 64.939481 
L 323.571061 63.495411 
L 324.788666 63.109975 
L 328.350159 62.676418 
L 329.537323 62.001469 
L 330.663607 61.147477 
L 331.911652 60.695068 
L 333.129256 59.875034 
L 334.529501 59.419734 
L 335.838426 58.730697 
L 338.273635 58.852132 
L 339.491239 59.320881 
L 340.678404 59.983468 
L 341.865568 60.070325 
L 342.961412 60.697247 
L 344.239897 60.283494 
L 345.396621 60.316537 
L 346.522905 59.663412 
L 347.80139 59.580992 
L 348.927674 59.653003 
L 350.053958 59.148598 
L 352.397846 59.481827 
L 353.645891 58.980242 
L 354.802615 59.422409 
L 355.989779 58.766439 
L 357.268264 58.480881 
L 359.551272 56.847759 
L 360.768877 56.512841 
L 361.925601 55.863819 
L 364.239049 53.995002 
L 369.048587 51.646365 
L 370.266191 51.695185 
L 371.362035 51.946593 
L 373.858124 54.017313 
L 374.893088 54.729208 
L 376.232453 55.918373 
L 377.297857 57.331219 
L 378.454581 58.134564 
L 379.702626 59.902283 
L 380.85935 60.580474 
L 382.016074 61.694371 
L 384.359962 62.588135 
L 385.516687 63.178871 
L 386.795171 62.777656 
L 387.860575 62.563878 
L 391.422068 62.190919 
L 392.639673 62.998167 
L 393.796397 62.464556 
L 395.196642 60.703729 
L 396.596887 59.803289 
L 398.910335 56.792338 
L 400.18882 55.460893 
L 401.436865 53.787201 
L 402.593589 53.069938 
L 403.811193 51.61511 
L 404.937477 51.451716 
L 406.185522 50.139109 
L 407.220486 48.340118 
L 408.49897 46.760336 
L 409.594814 44.846982 
L 410.934179 43.256767 
L 411.908263 41.667201 
L 413.156307 39.923182 
L 414.434792 38.623139 
L 415.469756 36.883122 
L 416.900441 35.417533 
L 417.904964 33.812881 
L 419.183449 32.112808 
L 422.623182 27.132089 
L 423.901666 25.545021 
L 424.99751 24.003992 
L 424.99751 24.003992 
" clip-path="url(#p8070489939)" style="fill: none; stroke: #ff7f0e; stroke-width: 2.5; stroke-linecap: square"/>
   </g>
   <g id="line2d_35">
    <path d="M 78.832572 83.42638 
L 78.771691 87.304469 
L 78.832572 86.278405 
L 79.410934 85.47313 
L 80.932939 82.885348 
L 83.094187 81.946565 
L 85.285875 81.172508 
L 87.203602 80.910433 
L 88.695167 81.541026 
L 89.912772 83.238609 
L 92.10446 86.884012 
L 93.291624 90.297574 
L 94.387468 88.847188 
L 95.605073 89.201019 
L 96.883557 87.980627 
L 98.131602 86.052175 
L 99.410086 85.052743 
L 100.658131 86.947876 
L 101.875735 86.921009 
L 103.12378 86.542447 
L 104.250064 86.617764 
L 106.624393 83.664351 
L 107.841997 83.247415 
L 109.059602 81.355571 
L 110.246766 83.012496 
L 111.37305 81.403853 
L 112.560214 82.000964 
L 113.777819 81.90291 
L 115.025863 84.197907 
L 116.243468 83.051134 
L 117.339312 83.695084 
L 119.804961 84.197449 
L 120.992125 86.852216 
L 122.179289 90.342944 
L 123.305573 84.183483 
L 125.740782 84.432317 
L 126.897506 86.136736 
L 128.115111 84.62788 
L 130.489439 89.898357 
L 131.646164 85.920703 
L 132.802888 85.567368 
L 134.020492 82.59274 
L 135.207657 80.058252 
L 136.425261 84.204966 
L 137.673306 81.961835 
L 138.89091 81.1571 
L 140.108514 79.681724 
L 141.204358 80.85979 
L 142.421963 82.38087 
L 143.609127 80.476151 
L 144.796291 81.670783 
L 145.953016 79.317817 
L 147.17062 78.600751 
L 148.357784 78.431532 
L 149.544949 74.321145 
L 150.701673 73.18928 
L 151.888837 72.184832 
L 153.106442 73.483953 
L 154.324046 73.785913 
L 155.51121 73.883182 
L 157.915979 76.550564 
L 160.290308 78.078908 
L 161.477472 77.342711 
L 162.664636 75.437757 
L 163.851801 74.07952 
L 164.978085 72.308002 
L 166.195689 69.873043 
L 167.382854 68.5734 
L 168.600458 67.513942 
L 169.757182 68.262915 
L 170.944347 68.299335 
L 172.131511 69.364481 
L 173.318675 69.41825 
L 174.475399 70.181083 
L 175.693004 69.85096 
L 178.158653 68.067858 
L 179.284937 65.902706 
L 180.441661 63.272331 
L 181.628825 60.874701 
L 184.064034 59.201039 
L 185.281639 59.031576 
L 186.407923 58.723695 
L 187.595087 57.978365 
L 188.751811 58.295969 
L 189.999856 58.343656 
L 191.18702 57.586959 
L 192.404625 57.146025 
L 193.530909 56.536576 
L 194.718073 56.077101 
L 195.905237 55.094981 
L 197.061961 54.34167 
L 198.279566 53.257282 
L 199.46673 52.404709 
L 200.623454 51.917388 
L 202.997783 50.601256 
L 205.372112 49.641918 
L 207.77688 48.005424 
L 210.120769 47.098072 
L 213.651822 44.744217 
L 214.869426 44.569177 
L 216.056591 43.735167 
L 219.587643 42.310318 
L 220.744368 42.386799 
L 221.961972 42.297086 
L 224.336301 41.361382 
L 225.493025 41.619694 
L 226.710629 41.693998 
L 227.897794 41.598995 
L 229.084958 41.746879 
L 230.241682 41.613469 
L 231.428846 41.937694 
L 233.772735 41.698917 
L 236.177504 40.497221 
L 237.303788 40.423396 
L 238.490952 39.926662 
L 239.738997 39.828609 
L 240.834841 39.530209 
L 243.239609 39.464727 
L 244.426774 39.193557 
L 246.740222 39.258119 
L 250.362595 40.067836 
L 251.519319 40.029501 
L 252.706484 40.246337 
L 253.863208 40.571648 
L 255.080812 40.662953 
L 256.267977 40.591575 
L 257.546461 40.730581 
L 258.703186 41.060397 
L 263.390963 42.968071 
L 264.608567 43.713652 
L 265.826171 43.872192 
L 266.952456 44.359516 
L 268.17006 44.05064 
L 269.387664 44.094244 
L 271.670673 43.411398 
L 272.918717 43.150528 
L 274.136322 43.189221 
L 276.54109 43.816926 
L 277.758695 43.851778 
L 280.133024 44.073517 
L 281.350628 44.217674 
L 283.694516 43.273012 
L 284.820801 43.018779 
L 287.195129 43.103244 
L 288.382294 43.378035 
L 290.817502 42.858901 
L 291.943786 43.054807 
L 293.191831 42.909955 
L 294.378995 42.330049 
L 295.53572 41.987734 
L 299.066772 41.876264 
L 300.223497 42.073153 
L 302.628265 42.007606 
L 303.78499 42.437105 
L 306.159318 42.584607 
L 307.376923 42.342729 
L 308.533647 42.276251 
L 309.690371 41.87947 
L 310.847095 41.891393 
L 312.09514 41.591208 
L 313.221424 41.159749 
L 314.439028 41.005405 
L 315.595752 41.110636 
L 317.939641 41.585985 
L 319.126805 41.197076 
L 322.718738 40.740924 
L 323.875463 40.229144 
L 327.436956 39.099654 
L 328.59368 39.042639 
L 330.968008 38.245956 
L 333.342337 38.271298 
L 334.833902 37.833116 
L 337.329991 37.715622 
L 338.517156 36.940319 
L 340.891484 36.541907 
L 342.109089 35.85231 
L 343.204933 35.469294 
L 344.452977 35.513289 
L 345.609702 35.339804 
L 346.735986 35.315054 
L 347.98403 35.698263 
L 350.358359 35.629845 
L 352.641367 36.250725 
L 355.137456 36.06342 
L 356.20286 36.567853 
L 357.450905 36.817709 
L 359.825233 38.482607 
L 361.012398 38.85849 
L 364.51301 40.383634 
L 365.700175 40.507828 
L 366.887339 40.431573 
L 368.135383 40.853783 
L 369.413868 41.161942 
L 370.479272 41.677853 
L 371.605556 42.395514 
L 372.823161 42.921118 
L 374.040765 43.936342 
L 375.227929 44.622773 
L 376.354213 44.613472 
L 378.698102 45.009532 
L 379.854826 45.514128 
L 381.04199 45.694416 
L 382.229155 45.393563 
L 383.507639 45.582153 
L 384.633923 45.934857 
L 385.760208 46.651189 
L 386.977812 46.499003 
L 388.256297 46.668585 
L 389.352141 46.938821 
L 390.508865 47.381549 
L 391.696029 47.984321 
L 392.974514 47.85964 
L 394.131238 47.610877 
L 395.501043 47.509229 
L 396.840408 47.24652 
L 398.088452 47.549786 
L 399.275617 46.674278 
L 400.371461 46.167637 
L 401.710826 45.313685 
L 403.963394 44.100151 
L 405.089678 43.423432 
L 406.429043 42.988443 
L 407.616207 42.358192 
L 408.742491 41.145103 
L 409.838335 40.164061 
L 411.08638 38.686732 
L 412.334424 37.559614 
L 416.961321 31.520095 
L 418.300686 30.380124 
L 421.770858 25.732946 
L 422.897143 24.035189 
L 424.206067 22.285371 
L 425.149711 20.50103 
L 425.149711 20.50103 
" clip-path="url(#p8070489939)" style="fill: none; stroke: #ff0000; stroke-width: 2.5; stroke-linecap: square"/>
   </g>
   <g id="patch_3">
    <path d="M 60.598945 299.822656 
L 60.598945 7.2 
" style="fill: none; stroke: #000000; stroke-width: 1.5; stroke-linejoin: miter; stroke-linecap: square"/>
   </g>
   <g id="patch_4">
    <path d="M 60.598945 299.822656 
L 425.880273 299.822656 
" style="fill: none; stroke: #000000; stroke-width: 1.5; stroke-linejoin: miter; stroke-linecap: square"/>
   </g>
   <g id="legend_1">
    <g id="line2d_36">
     <path d="M 71.398945 22.536328 
L 83.398945 22.536328 
L 95.398945 22.536328 
" style="fill: none; stroke: #000000; stroke-width: 2.5; stroke-linecap: square"/>
    </g>
    <g id="text_15">
     <!-- vacuum -->
     <g transform="translate(104.998945 26.736328) scale(0.12 -0.12)">
      <defs>
       <path id="ArialMT-59" d="M 1344 0 
L 81 3319 
L 675 3319 
L 1388 1331 
Q 1503 1009 1600 663 
Q 1675 925 1809 1294 
L 2547 3319 
L 3125 3319 
L 1869 0 
L 1344 0 
z
" transform="scale(0.015625)"/>
       <path id="ArialMT-46" d="M 2588 1216 
L 3141 1144 
Q 3050 572 2676 248 
Q 2303 -75 1759 -75 
Q 1078 -75 664 370 
Q 250 816 250 1647 
Q 250 2184 428 2587 
Q 606 2991 970 3192 
Q 1334 3394 1763 3394 
Q 2303 3394 2647 3120 
Q 2991 2847 3088 2344 
L 2541 2259 
Q 2463 2594 2264 2762 
Q 2066 2931 1784 2931 
Q 1359 2931 1093 2626 
Q 828 2322 828 1663 
Q 828 994 1084 691 
Q 1341 388 1753 388 
Q 2084 388 2306 591 
Q 2528 794 2588 1216 
z
" transform="scale(0.015625)"/>
      </defs>
      <use xlink:href="#ArialMT-59"/>
      <use xlink:href="#ArialMT-44" transform="translate(50 0)"/>
      <use xlink:href="#ArialMT-46" transform="translate(105.609375 0)"/>
      <use xlink:href="#ArialMT-58" transform="translate(155.609375 0)"/>
      <use xlink:href="#ArialMT-58" transform="translate(211.21875 0)"/>
      <use xlink:href="#ArialMT-50" transform="translate(266.828125 0)"/>
     </g>
    </g>
    <g id="line2d_37">
     <path d="M 71.398945 39.798047 
L 83.398945 39.798047 
L 95.398945 39.798047 
" style="fill: none; stroke: #1f77b4; stroke-width: 2.5; stroke-linecap: square"/>
    </g>
    <g id="text_16">
     <!-- 1h -->
     <g transform="translate(104.998945 43.998047) scale(0.12 -0.12)">
      <defs>
       <path id="ArialMT-4b" d="M 422 0 
L 422 4581 
L 984 4581 
L 984 2938 
Q 1378 3394 1978 3394 
Q 2347 3394 2619 3248 
Q 2891 3103 3008 2847 
Q 3125 2591 3125 2103 
L 3125 0 
L 2563 0 
L 2563 2103 
Q 2563 2525 2380 2717 
Q 2197 2909 1863 2909 
Q 1613 2909 1392 2779 
Q 1172 2650 1078 2428 
Q 984 2206 984 1816 
L 984 0 
L 422 0 
z
" transform="scale(0.015625)"/>
      </defs>
      <use xlink:href="#ArialMT-14"/>
      <use xlink:href="#ArialMT-4b" transform="translate(55.609375 0)"/>
     </g>
    </g>
    <g id="line2d_38">
     <path d="M 71.398945 57.059766 
L 83.398945 57.059766 
L 95.398945 57.059766 
" style="fill: none; stroke: #0033ff; stroke-width: 2.5; stroke-linecap: square"/>
    </g>
    <g id="text_17">
     <!-- 2h -->
     <g transform="translate(104.998945 61.259766) scale(0.12 -0.12)">
      <use xlink:href="#ArialMT-15"/>
      <use xlink:href="#ArialMT-4b" transform="translate(55.609375 0)"/>
     </g>
    </g>
    <g id="line2d_39">
     <path d="M 71.398945 74.321484 
L 83.398945 74.321484 
L 95.398945 74.321484 
" style="fill: none; stroke: #ff7f0e; stroke-width: 2.5; stroke-linecap: square"/>
    </g>
    <g id="text_18">
     <!-- 4h -->
     <g transform="translate(104.998945 78.521484) scale(0.12 -0.12)">
      <use xlink:href="#ArialMT-17"/>
      <use xlink:href="#ArialMT-4b" transform="translate(55.609375 0)"/>
     </g>
    </g>
    <g id="line2d_40">
     <path d="M 71.398945 91.583203 
L 83.398945 91.583203 
L 95.398945 91.583203 
" style="fill: none; stroke: #ff0000; stroke-width: 2.5; stroke-linecap: square"/>
    </g>
    <g id="text_19">
     <!-- first -->
     <g transform="translate(104.998945 95.783203) scale(0.12 -0.12)">
      <defs>
       <path id="ArialMT-49" d="M 556 0 
L 556 2881 
L 59 2881 
L 59 3319 
L 556 3319 
L 556 3672 
Q 556 4006 616 4169 
Q 697 4388 901 4523 
Q 1106 4659 1475 4659 
Q 1713 4659 2000 4603 
L 1916 4113 
Q 1741 4144 1584 4144 
Q 1328 4144 1222 4034 
Q 1116 3925 1116 3625 
L 1116 3319 
L 1763 3319 
L 1763 2881 
L 1116 2881 
L 1116 0 
L 556 0 
z
" transform="scale(0.015625)"/>
       <path id="ArialMT-4c" d="M 425 3934 
L 425 4581 
L 988 4581 
L 988 3934 
L 425 3934 
z
M 425 0 
L 425 3319 
L 988 3319 
L 988 0 
L 425 0 
z
" transform="scale(0.015625)"/>
       <path id="ArialMT-56" d="M 197 991 
L 753 1078 
Q 800 744 1014 566 
Q 1228 388 1613 388 
Q 2000 388 2187 545 
Q 2375 703 2375 916 
Q 2375 1106 2209 1216 
Q 2094 1291 1634 1406 
Q 1016 1563 777 1677 
Q 538 1791 414 1992 
Q 291 2194 291 2438 
Q 291 2659 392 2848 
Q 494 3038 669 3163 
Q 800 3259 1026 3326 
Q 1253 3394 1513 3394 
Q 1903 3394 2198 3281 
Q 2494 3169 2634 2976 
Q 2775 2784 2828 2463 
L 2278 2388 
Q 2241 2644 2061 2787 
Q 1881 2931 1553 2931 
Q 1166 2931 1000 2803 
Q 834 2675 834 2503 
Q 834 2394 903 2306 
Q 972 2216 1119 2156 
Q 1203 2125 1616 2013 
Q 2213 1853 2448 1751 
Q 2684 1650 2818 1456 
Q 2953 1263 2953 975 
Q 2953 694 2789 445 
Q 2625 197 2315 61 
Q 2006 -75 1616 -75 
Q 969 -75 630 194 
Q 291 463 197 991 
z
" transform="scale(0.015625)"/>
      </defs>
      <use xlink:href="#ArialMT-49"/>
      <use xlink:href="#ArialMT-4c" transform="translate(27.78125 0)"/>
      <use xlink:href="#ArialMT-55" transform="translate(50 0)"/>
      <use xlink:href="#ArialMT-56" transform="translate(83.296875 0)"/>
      <use xlink:href="#ArialMT-57" transform="translate(133.296875 0)"/>
     </g>
    </g>
   </g>
  </g>
 </g>
 <defs>
  <clipPath id="p8070489939">
   <rect x="60.598945" y="7.2" width="365.281328" height="292.622656"/>
  </clipPath>
 </defs>
</svg>
