<?xml version="1.0" encoding="utf-8" standalone="no"?>
<!DOCTYPE svg PUBLIC "-//W3C//DTD SVG 1.1//EN"
  "http://www.w3.org/Graphics/SVG/1.1/DTD/svg11.dtd">
<svg xmlns:xlink="http://www.w3.org/1999/xlink" width="448.950898pt" height="340.800273pt" viewBox="0 0 448.950898 340.800273" xmlns="http://www.w3.org/2000/svg" version="1.1">
 <metadata>
  <rdf:RDF xmlns:dc="http://purl.org/dc/elements/1.1/" xmlns:cc="http://creativecommons.org/ns#" xmlns:rdf="http://www.w3.org/1999/02/22-rdf-syntax-ns#">
   <cc:Work>
    <dc:type rdf:resource="http://purl.org/dc/dcmitype/StillImage"/>
    <dc:date>2026-07-09T17:08:33.607074</dc:date>
    <dc:format>image/svg+xml</dc:format>
    <dc:creator>
     <cc:Agent>
      <dc:title>Matplotlib v3.11.0, https://matplotlib.org/</dc:title>
     </cc:Agent>
    </dc:creator>
   </cc:Work>
  </rdf:RDF>
 </metadata>
 <defs>
  <style type="text/css">*{stroke-linejoin: round; stroke-linecap: butt}</style>
 </defs>
 <g id="figure_1">
  <g id="patch_1">
   <path d="M 0 340.800273 
L 448.950898 340.800273 
L 448.950898 0 
L 0 0 
z
" style="fill: #ffffff"/>
  </g>
  <g id="axes_1">
   <g id="patch_2">
    <path d="M 81.918945 299.822656 
L 426.180273 299.822656 
L 426.180273 7.2 
L 81.918945 7.2 
z
" style="fill: #ffffff"/>
   </g>
   <g id="matplotlib.axis_1">
    <g id="xtick_1">
     <g id="line2d_1">
      <defs>
       <path id="md26b17046d" d="M 0 0 
L 0 -6 
" style="stroke: #000000; stroke-width: 1.5"/>
      </defs>
      <g>
       <use xlink:href="#md26b17046d" x="81.918945" y="299.822656" style="stroke: #000000; stroke-width: 1.5"/>
      </g>
     </g>
     <g id="text_1">
      <!-- 0 -->
      <g transform="translate(78.026289 313.515039) scale(0.14 -0.14)">
       <defs>
        <path id="ArialMT-13" d="M 266 2259 
Q 266 3072 433 3567 
Q 600 4063 929 4331 
Q 1259 4600 1759 4600 
Q 2128 4600 2406 4451 
Q 2684 4303 2865 4023 
Q 3047 3744 3150 3342 
Q 3253 2941 3253 2259 
Q 3253 1453 3087 958 
Q 2922 463 2592 192 
Q 2263 -78 1759 -78 
Q 1097 -78 719 397 
Q 266 969 266 2259 
z
M 844 2259 
Q 844 1131 1108 757 
Q 1372 384 1759 384 
Q 2147 384 2411 759 
Q 2675 1134 2675 2259 
Q 2675 3391 2411 3762 
Q 2147 4134 1753 4134 
Q 1366 4134 1134 3806 
Q 844 3388 844 2259 
z
" transform="scale(0.015625)"/>
       </defs>
       <use xlink:href="#ArialMT-13"/>
      </g>
     </g>
    </g>
    <g id="xtick_2">
     <g id="line2d_2">
      <g>
       <use xlink:href="#md26b17046d" x="139.295833" y="299.822656" style="stroke: #000000; stroke-width: 1.5"/>
      </g>
     </g>
     <g id="text_2">
      <!-- 200 -->
      <g transform="translate(127.617865 313.515039) scale(0.14 -0.14)">
       <defs>
        <path id="ArialMT-15" d="M 3222 541 
L 3222 0 
L 194 0 
Q 188 203 259 391 
Q 375 700 629 1000 
Q 884 1300 1366 1694 
Q 2113 2306 2375 2664 
Q 2638 3022 2638 3341 
Q 2638 3675 2398 3904 
Q 2159 4134 1775 4134 
Q 1369 4134 1125 3890 
Q 881 3647 878 3216 
L 300 3275 
Q 359 3922 746 4261 
Q 1134 4600 1788 4600 
Q 2447 4600 2831 4234 
Q 3216 3869 3216 3328 
Q 3216 3053 3103 2787 
Q 2991 2522 2730 2228 
Q 2469 1934 1863 1422 
Q 1356 997 1212 845 
Q 1069 694 975 541 
L 3222 541 
z
" transform="scale(0.015625)"/>
       </defs>
       <use xlink:href="#ArialMT-15"/>
       <use xlink:href="#ArialMT-13" transform="translate(55.609375 0)"/>
       <use xlink:href="#ArialMT-13" transform="translate(111.21875 0)"/>
      </g>
     </g>
    </g>
    <g id="xtick_3">
     <g id="line2d_3">
      <g>
       <use xlink:href="#md26b17046d" x="196.672721" y="299.822656" style="stroke: #000000; stroke-width: 1.5"/>
      </g>
     </g>
     <g id="text_3">
      <!-- 400 -->
      <g transform="translate(184.994753 313.515039) scale(0.14 -0.14)">
       <defs>
        <path id="ArialMT-17" d="M 2069 0 
L 2069 1097 
L 81 1097 
L 81 1613 
L 2172 4581 
L 2631 4581 
L 2631 1613 
L 3250 1613 
L 3250 1097 
L 2631 1097 
L 2631 0 
L 2069 0 
z
M 2069 1613 
L 2069 3678 
L 634 1613 
L 2069 1613 
z
" transform="scale(0.015625)"/>
       </defs>
       <use xlink:href="#ArialMT-17"/>
       <use xlink:href="#ArialMT-13" transform="translate(55.609375 0)"/>
       <use xlink:href="#ArialMT-13" transform="translate(111.21875 0)"/>
      </g>
     </g>
    </g>
    <g id="xtick_4">
     <g id="line2d_4">
      <g>
       <use xlink:href="#md26b17046d" x="254.049609" y="299.822656" style="stroke: #000000; stroke-width: 1.5"/>
      </g>
     </g>
     <g id="text_4">
      <!-- 600 -->
      <g transform="translate(242.371641 313.515039) scale(0.14 -0.14)">
       <defs>
        <path id="ArialMT-19" d="M 3184 3459 
L 2625 3416 
Q 2550 3747 2413 3897 
Q 2184 4138 1850 4138 
Q 1581 4138 1378 3988 
Q 1113 3794 959 3422 
Q 806 3050 800 2363 
Q 1003 2672 1297 2822 
Q 1591 2972 1913 2972 
Q 2475 2972 2870 2558 
Q 3266 2144 3266 1488 
Q 3266 1056 3080 686 
Q 2894 316 2569 119 
Q 2244 -78 1831 -78 
Q 1128 -78 684 439 
Q 241 956 241 2144 
Q 241 3472 731 4075 
Q 1159 4600 1884 4600 
Q 2425 4600 2770 4297 
Q 3116 3994 3184 3459 
z
M 888 1484 
Q 888 1194 1011 928 
Q 1134 663 1356 523 
Q 1578 384 1822 384 
Q 2178 384 2434 671 
Q 2691 959 2691 1453 
Q 2691 1928 2437 2201 
Q 2184 2475 1800 2475 
Q 1419 2475 1153 2201 
Q 888 1928 888 1484 
z
" transform="scale(0.015625)"/>
       </defs>
       <use xlink:href="#ArialMT-19"/>
       <use xlink:href="#ArialMT-13" transform="translate(55.609375 0)"/>
       <use xlink:href="#ArialMT-13" transform="translate(111.21875 0)"/>
      </g>
     </g>
    </g>
    <g id="xtick_5">
     <g id="line2d_5">
      <g>
       <use xlink:href="#md26b17046d" x="311.426497" y="299.822656" style="stroke: #000000; stroke-width: 1.5"/>
      </g>
     </g>
     <g id="text_5">
      <!-- 800 -->
      <g transform="translate(299.748529 313.515039) scale(0.14 -0.14)">
       <defs>
        <path id="ArialMT-1b" d="M 1131 2484 
Q 781 2613 612 2850 
Q 444 3088 444 3419 
Q 444 3919 803 4259 
Q 1163 4600 1759 4600 
Q 2359 4600 2725 4251 
Q 3091 3903 3091 3403 
Q 3091 3084 2923 2848 
Q 2756 2613 2416 2484 
Q 2838 2347 3058 2040 
Q 3278 1734 3278 1309 
Q 3278 722 2862 322 
Q 2447 -78 1769 -78 
Q 1091 -78 675 323 
Q 259 725 259 1325 
Q 259 1772 486 2073 
Q 713 2375 1131 2484 
z
M 1019 3438 
Q 1019 3113 1228 2906 
Q 1438 2700 1772 2700 
Q 2097 2700 2305 2904 
Q 2513 3109 2513 3406 
Q 2513 3716 2298 3927 
Q 2084 4138 1766 4138 
Q 1444 4138 1231 3931 
Q 1019 3725 1019 3438 
z
M 838 1322 
Q 838 1081 952 856 
Q 1066 631 1291 507 
Q 1516 384 1775 384 
Q 2178 384 2440 643 
Q 2703 903 2703 1303 
Q 2703 1709 2433 1975 
Q 2163 2241 1756 2241 
Q 1359 2241 1098 1978 
Q 838 1716 838 1322 
z
" transform="scale(0.015625)"/>
       </defs>
       <use xlink:href="#ArialMT-1b"/>
       <use xlink:href="#ArialMT-13" transform="translate(55.609375 0)"/>
       <use xlink:href="#ArialMT-13" transform="translate(111.21875 0)"/>
      </g>
     </g>
    </g>
    <g id="xtick_6">
     <g id="line2d_6">
      <g>
       <use xlink:href="#md26b17046d" x="368.803385" y="299.822656" style="stroke: #000000; stroke-width: 1.5"/>
      </g>
     </g>
     <g id="text_6">
      <!-- 1000 -->
      <g transform="translate(353.23276 313.515039) scale(0.14 -0.14)">
       <defs>
        <path id="ArialMT-14" d="M 2384 0 
L 1822 0 
L 1822 3584 
Q 1619 3391 1289 3197 
Q 959 3003 697 2906 
L 697 3450 
Q 1169 3672 1522 3987 
Q 1875 4303 2022 4600 
L 2384 4600 
L 2384 0 
z
" transform="scale(0.015625)"/>
       </defs>
       <use xlink:href="#ArialMT-14"/>
       <use xlink:href="#ArialMT-13" transform="translate(55.609375 0)"/>
       <use xlink:href="#ArialMT-13" transform="translate(111.21875 0)"/>
       <use xlink:href="#ArialMT-13" transform="translate(166.828125 0)"/>
      </g>
     </g>
    </g>
    <g id="xtick_7">
     <g id="line2d_7">
      <g>
       <use xlink:href="#md26b17046d" x="426.180273" y="299.822656" style="stroke: #000000; stroke-width: 1.5"/>
      </g>
     </g>
     <g id="text_7">
      <!-- 1200 -->
      <g transform="translate(410.609648 313.515039) scale(0.14 -0.14)">
       <use xlink:href="#ArialMT-14"/>
       <use xlink:href="#ArialMT-15" transform="translate(55.609375 0)"/>
       <use xlink:href="#ArialMT-13" transform="translate(111.21875 0)"/>
       <use xlink:href="#ArialMT-13" transform="translate(166.828125 0)"/>
      </g>
     </g>
    </g>
    <g id="xtick_8">
     <g id="line2d_8">
      <defs>
       <path id="me8854d05f5" d="M 0 0 
L 0 -3 
" style="stroke: #000000"/>
      </defs>
      <g>
       <use xlink:href="#me8854d05f5" x="96.263167" y="299.822656" style="stroke: #000000"/>
      </g>
     </g>
    </g>
    <g id="xtick_9">
     <g id="line2d_9">
      <g>
       <use xlink:href="#me8854d05f5" x="110.607389" y="299.822656" style="stroke: #000000"/>
      </g>
     </g>
    </g>
    <g id="xtick_10">
     <g id="line2d_10">
      <g>
       <use xlink:href="#me8854d05f5" x="124.951611" y="299.822656" style="stroke: #000000"/>
      </g>
     </g>
    </g>
    <g id="xtick_11">
     <g id="line2d_11">
      <g>
       <use xlink:href="#me8854d05f5" x="153.640055" y="299.822656" style="stroke: #000000"/>
      </g>
     </g>
    </g>
    <g id="xtick_12">
     <g id="line2d_12">
      <g>
       <use xlink:href="#me8854d05f5" x="167.984277" y="299.822656" style="stroke: #000000"/>
      </g>
     </g>
    </g>
    <g id="xtick_13">
     <g id="line2d_13">
      <g>
       <use xlink:href="#me8854d05f5" x="182.328499" y="299.822656" style="stroke: #000000"/>
      </g>
     </g>
    </g>
    <g id="xtick_14">
     <g id="line2d_14">
      <g>
       <use xlink:href="#me8854d05f5" x="211.016943" y="299.822656" style="stroke: #000000"/>
      </g>
     </g>
    </g>
    <g id="xtick_15">
     <g id="line2d_15">
      <g>
       <use xlink:href="#me8854d05f5" x="225.361165" y="299.822656" style="stroke: #000000"/>
      </g>
     </g>
    </g>
    <g id="xtick_16">
     <g id="line2d_16">
      <g>
       <use xlink:href="#me8854d05f5" x="239.705387" y="299.822656" style="stroke: #000000"/>
      </g>
     </g>
    </g>
    <g id="xtick_17">
     <g id="line2d_17">
      <g>
       <use xlink:href="#me8854d05f5" x="268.393831" y="299.822656" style="stroke: #000000"/>
      </g>
     </g>
    </g>
    <g id="xtick_18">
     <g id="line2d_18">
      <g>
       <use xlink:href="#me8854d05f5" x="282.738053" y="299.822656" style="stroke: #000000"/>
      </g>
     </g>
    </g>
    <g id="xtick_19">
     <g id="line2d_19">
      <g>
       <use xlink:href="#me8854d05f5" x="297.082275" y="299.822656" style="stroke: #000000"/>
      </g>
     </g>
    </g>
    <g id="xtick_20">
     <g id="line2d_20">
      <g>
       <use xlink:href="#me8854d05f5" x="325.770719" y="299.822656" style="stroke: #000000"/>
      </g>
     </g>
    </g>
    <g id="xtick_21">
     <g id="line2d_21">
      <g>
       <use xlink:href="#me8854d05f5" x="340.114941" y="299.822656" style="stroke: #000000"/>
      </g>
     </g>
    </g>
    <g id="xtick_22">
     <g id="line2d_22">
      <g>
       <use xlink:href="#me8854d05f5" x="354.459163" y="299.822656" style="stroke: #000000"/>
      </g>
     </g>
    </g>
    <g id="xtick_23">
     <g id="line2d_23">
      <g>
       <use xlink:href="#me8854d05f5" x="383.147607" y="299.822656" style="stroke: #000000"/>
      </g>
     </g>
    </g>
    <g id="xtick_24">
     <g id="line2d_24">
      <g>
       <use xlink:href="#me8854d05f5" x="397.491829" y="299.822656" style="stroke: #000000"/>
      </g>
     </g>
    </g>
    <g id="xtick_25">
     <g id="line2d_25">
      <g>
       <use xlink:href="#me8854d05f5" x="411.836051" y="299.822656" style="stroke: #000000"/>
      </g>
     </g>
    </g>
    <g id="text_8">
     <!-- T1 Temperature (°C) -->
     <g transform="translate(190.310234 330.653711) scale(0.14 -0.14)">
      <defs>
       <path id="ArialMT-37" d="M 1659 0 
L 1659 4041 
L 150 4041 
L 150 4581 
L 3781 4581 
L 3781 4041 
L 2266 4041 
L 2266 0 
L 1659 0 
z
" transform="scale(0.015625)"/>
       <path id="ArialMT-3" transform="scale(0.015625)"/>
       <path id="ArialMT-48" d="M 2694 1069 
L 3275 997 
Q 3138 488 2766 206 
Q 2394 -75 1816 -75 
Q 1088 -75 661 373 
Q 234 822 234 1631 
Q 234 2469 665 2931 
Q 1097 3394 1784 3394 
Q 2450 3394 2872 2941 
Q 3294 2488 3294 1666 
Q 3294 1616 3291 1516 
L 816 1516 
Q 847 969 1125 678 
Q 1403 388 1819 388 
Q 2128 388 2347 550 
Q 2566 713 2694 1069 
z
M 847 1978 
L 2700 1978 
Q 2663 2397 2488 2606 
Q 2219 2931 1791 2931 
Q 1403 2931 1139 2672 
Q 875 2413 847 1978 
z
" transform="scale(0.015625)"/>
       <path id="ArialMT-50" d="M 422 0 
L 422 3319 
L 925 3319 
L 925 2853 
Q 1081 3097 1340 3245 
Q 1600 3394 1931 3394 
Q 2300 3394 2536 3241 
Q 2772 3088 2869 2813 
Q 3263 3394 3894 3394 
Q 4388 3394 4653 3120 
Q 4919 2847 4919 2278 
L 4919 0 
L 4359 0 
L 4359 2091 
Q 4359 2428 4304 2576 
Q 4250 2725 4106 2815 
Q 3963 2906 3769 2906 
Q 3419 2906 3187 2673 
Q 2956 2441 2956 1928 
L 2956 0 
L 2394 0 
L 2394 2156 
Q 2394 2531 2256 2718 
Q 2119 2906 1806 2906 
Q 1569 2906 1367 2781 
Q 1166 2656 1075 2415 
Q 984 2175 984 1722 
L 984 0 
L 422 0 
z
" transform="scale(0.015625)"/>
       <path id="ArialMT-53" d="M 422 -1272 
L 422 3319 
L 934 3319 
L 934 2888 
Q 1116 3141 1344 3267 
Q 1572 3394 1897 3394 
Q 2322 3394 2647 3175 
Q 2972 2956 3137 2557 
Q 3303 2159 3303 1684 
Q 3303 1175 3120 767 
Q 2938 359 2589 142 
Q 2241 -75 1856 -75 
Q 1575 -75 1351 44 
Q 1128 163 984 344 
L 984 -1272 
L 422 -1272 
z
M 931 1641 
Q 931 1000 1190 694 
Q 1450 388 1819 388 
Q 2194 388 2461 705 
Q 2728 1022 2728 1688 
Q 2728 2322 2467 2637 
Q 2206 2953 1844 2953 
Q 1484 2953 1207 2617 
Q 931 2281 931 1641 
z
" transform="scale(0.015625)"/>
       <path id="ArialMT-55" d="M 416 0 
L 416 3319 
L 922 3319 
L 922 2816 
Q 1116 3169 1280 3281 
Q 1444 3394 1641 3394 
Q 1925 3394 2219 3213 
L 2025 2691 
Q 1819 2813 1613 2813 
Q 1428 2813 1281 2702 
Q 1134 2591 1072 2394 
Q 978 2094 978 1738 
L 978 0 
L 416 0 
z
" transform="scale(0.015625)"/>
       <path id="ArialMT-44" d="M 2588 409 
Q 2275 144 1986 34 
Q 1697 -75 1366 -75 
Q 819 -75 525 192 
Q 231 459 231 875 
Q 231 1119 342 1320 
Q 453 1522 633 1644 
Q 813 1766 1038 1828 
Q 1203 1872 1538 1913 
Q 2219 1994 2541 2106 
Q 2544 2222 2544 2253 
Q 2544 2597 2384 2738 
Q 2169 2928 1744 2928 
Q 1347 2928 1158 2789 
Q 969 2650 878 2297 
L 328 2372 
Q 403 2725 575 2942 
Q 747 3159 1072 3276 
Q 1397 3394 1825 3394 
Q 2250 3394 2515 3294 
Q 2781 3194 2906 3042 
Q 3031 2891 3081 2659 
Q 3109 2516 3109 2141 
L 3109 1391 
Q 3109 606 3145 398 
Q 3181 191 3288 0 
L 2700 0 
Q 2613 175 2588 409 
z
M 2541 1666 
Q 2234 1541 1622 1453 
Q 1275 1403 1131 1340 
Q 988 1278 909 1158 
Q 831 1038 831 891 
Q 831 666 1001 516 
Q 1172 366 1500 366 
Q 1825 366 2078 508 
Q 2331 650 2450 897 
Q 2541 1088 2541 1459 
L 2541 1666 
z
" transform="scale(0.015625)"/>
       <path id="ArialMT-57" d="M 1650 503 
L 1731 6 
Q 1494 -44 1306 -44 
Q 1000 -44 831 53 
Q 663 150 594 308 
Q 525 466 525 972 
L 525 2881 
L 113 2881 
L 113 3319 
L 525 3319 
L 525 4141 
L 1084 4478 
L 1084 3319 
L 1650 3319 
L 1650 2881 
L 1084 2881 
L 1084 941 
Q 1084 700 1114 631 
Q 1144 563 1211 522 
Q 1278 481 1403 481 
Q 1497 481 1650 503 
z
" transform="scale(0.015625)"/>
       <path id="ArialMT-58" d="M 2597 0 
L 2597 488 
Q 2209 -75 1544 -75 
Q 1250 -75 995 37 
Q 741 150 617 320 
Q 494 491 444 738 
Q 409 903 409 1263 
L 409 3319 
L 972 3319 
L 972 1478 
Q 972 1038 1006 884 
Q 1059 663 1231 536 
Q 1403 409 1656 409 
Q 1909 409 2131 539 
Q 2353 669 2445 892 
Q 2538 1116 2538 1541 
L 2538 3319 
L 3100 3319 
L 3100 0 
L 2597 0 
z
" transform="scale(0.015625)"/>
       <path id="ArialMT-b" d="M 1497 -1347 
Q 1031 -759 709 28 
Q 388 816 388 1659 
Q 388 2403 628 3084 
Q 909 3875 1497 4659 
L 1900 4659 
Q 1522 4009 1400 3731 
Q 1209 3300 1100 2831 
Q 966 2247 966 1656 
Q 966 153 1900 -1347 
L 1497 -1347 
z
" transform="scale(0.015625)"/>
       <path id="ArialMT-83" d="M 400 3794 
Q 400 4153 654 4406 
Q 909 4659 1266 4659 
Q 1628 4659 1881 4406 
Q 2134 4153 2134 3794 
Q 2134 3434 1879 3179 
Q 1625 2925 1266 2925 
Q 909 2925 654 3178 
Q 400 3431 400 3794 
z
M 741 3794 
Q 741 3575 895 3420 
Q 1050 3266 1269 3266 
Q 1484 3266 1639 3420 
Q 1794 3575 1794 3794 
Q 1794 4013 1639 4167 
Q 1484 4322 1269 4322 
Q 1050 4322 895 4167 
Q 741 4013 741 3794 
z
" transform="scale(0.015625)"/>
       <path id="ArialMT-26" d="M 3763 1606 
L 4369 1453 
Q 4178 706 3683 314 
Q 3188 -78 2472 -78 
Q 1731 -78 1267 223 
Q 803 525 561 1097 
Q 319 1669 319 2325 
Q 319 3041 592 3573 
Q 866 4106 1370 4382 
Q 1875 4659 2481 4659 
Q 3169 4659 3637 4309 
Q 4106 3959 4291 3325 
L 3694 3184 
Q 3534 3684 3231 3912 
Q 2928 4141 2469 4141 
Q 1941 4141 1586 3887 
Q 1231 3634 1087 3207 
Q 944 2781 944 2328 
Q 944 1744 1114 1308 
Q 1284 872 1643 656 
Q 2003 441 2422 441 
Q 2931 441 3284 734 
Q 3638 1028 3763 1606 
z
" transform="scale(0.015625)"/>
       <path id="ArialMT-c" d="M 791 -1347 
L 388 -1347 
Q 1322 153 1322 1656 
Q 1322 2244 1188 2822 
Q 1081 3291 891 3722 
Q 769 4003 388 4659 
L 791 4659 
Q 1378 3875 1659 3084 
Q 1900 2403 1900 1659 
Q 1900 816 1576 28 
Q 1253 -759 791 -1347 
z
" transform="scale(0.015625)"/>
      </defs>
      <use xlink:href="#ArialMT-37"/>
      <use xlink:href="#ArialMT-14" transform="translate(61.078125 0)"/>
      <use xlink:href="#ArialMT-3" transform="translate(116.6875 0)"/>
      <use xlink:href="#ArialMT-37" transform="translate(142.65625 0)"/>
      <use xlink:href="#ArialMT-48" transform="translate(192.65625 0)"/>
      <use xlink:href="#ArialMT-50" transform="translate(248.265625 0)"/>
      <use xlink:href="#ArialMT-53" transform="translate(331.5625 0)"/>
      <use xlink:href="#ArialMT-48" transform="translate(387.171875 0)"/>
      <use xlink:href="#ArialMT-55" transform="translate(442.78125 0)"/>
      <use xlink:href="#ArialMT-44" transform="translate(476.078125 0)"/>
      <use xlink:href="#ArialMT-57" transform="translate(531.6875 0)"/>
      <use xlink:href="#ArialMT-58" transform="translate(559.46875 0)"/>
      <use xlink:href="#ArialMT-55" transform="translate(615.078125 0)"/>
      <use xlink:href="#ArialMT-48" transform="translate(648.375 0)"/>
      <use xlink:href="#ArialMT-3" transform="translate(703.984375 0)"/>
      <use xlink:href="#ArialMT-b" transform="translate(731.765625 0)"/>
      <use xlink:href="#ArialMT-83" transform="translate(765.0625 0)"/>
      <use xlink:href="#ArialMT-26" transform="translate(805.046875 0)"/>
      <use xlink:href="#ArialMT-c" transform="translate(877.265625 0)"/>
     </g>
    </g>
   </g>
   <g id="matplotlib.axis_2">
    <g id="ytick_1">
     <g id="line2d_26">
      <defs>
       <path id="m6f9192b29b" d="M 0 0 
L 6 0 
" style="stroke: #000000; stroke-width: 1.5"/>
      </defs>
      <g>
       <use xlink:href="#m6f9192b29b" x="81.918945" y="110.057687" style="stroke: #000000; stroke-width: 1.5"/>
      </g>
     </g>
     <g id="text_9">
      <!-- $\mathdefault{10^{-11}}$ -->
      <g transform="translate(46.358945 116.497687) scale(0.14 -0.14)">
       <defs>
        <path id="ArialMT-ed" d="M 3381 1997 
L 356 1997 
L 356 2522 
L 3381 2522 
L 3381 1997 
z
" transform="scale(0.015625)"/>
       </defs>
       <use xlink:href="#ArialMT-14" transform="translate(0 0.3875)"/>
       <use xlink:href="#ArialMT-13" transform="translate(55.615234 0.3875)"/>
       <use xlink:href="#ArialMT-ed" transform="translate(112.1875 41.6875) scale(0.7)"/>
       <use xlink:href="#ArialMT-14" transform="translate(153.066406 41.6875) scale(0.7)"/>
       <use xlink:href="#ArialMT-14" transform="translate(187.09707 41.6875) scale(0.7)"/>
      </g>
     </g>
    </g>
    <g id="ytick_2">
     <g id="line2d_27">
      <defs>
       <path id="m5409fddfb0" d="M 0 0 
L 3 0 
" style="stroke: #000000"/>
      </defs>
      <g>
       <use xlink:href="#m5409fddfb0" x="81.918945" y="267.304566" style="stroke: #000000"/>
      </g>
     </g>
     <g id="text_10">
      <!-- $\mathdefault{2\times10^{-12}}$ -->
      <g transform="translate(24.338945 273.744566) scale(0.14 -0.14)">
       <defs>
        <path id="ArialMT-ee" d="M 503 1278 
L 1488 2263 
L 506 3244 
L 888 3625 
L 1869 2644 
L 2847 3622 
L 3222 3244 
L 2247 2266 
L 3228 1284 
L 2847 903 
L 1866 1884 
L 881 900 
L 503 1278 
z
" transform="scale(0.015625)"/>
       </defs>
       <use xlink:href="#ArialMT-15" transform="translate(0 0.3875)"/>
       <use xlink:href="#ArialMT-ee" transform="translate(75.097656 0.3875)"/>
       <use xlink:href="#ArialMT-14" transform="translate(152.978516 0.3875)"/>
       <use xlink:href="#ArialMT-13" transform="translate(208.59375 0.3875)"/>
       <use xlink:href="#ArialMT-ed" transform="translate(265.166016 41.6875) scale(0.7)"/>
       <use xlink:href="#ArialMT-14" transform="translate(306.044922 41.6875) scale(0.7)"/>
       <use xlink:href="#ArialMT-15" transform="translate(344.975586 41.6875) scale(0.7)"/>
      </g>
     </g>
    </g>
    <g id="ytick_3">
     <g id="line2d_28">
      <g>
       <use xlink:href="#m5409fddfb0" x="81.918945" y="227.689417" style="stroke: #000000"/>
      </g>
     </g>
     <g id="text_11">
      <!-- $\mathdefault{3\times10^{-12}}$ -->
      <g transform="translate(24.338945 234.129417) scale(0.14 -0.14)">
       <defs>
        <path id="ArialMT-16" d="M 269 1209 
L 831 1284 
Q 928 806 1161 595 
Q 1394 384 1728 384 
Q 2125 384 2398 659 
Q 2672 934 2672 1341 
Q 2672 1728 2419 1979 
Q 2166 2231 1775 2231 
Q 1616 2231 1378 2169 
L 1441 2663 
Q 1497 2656 1531 2656 
Q 1891 2656 2178 2843 
Q 2466 3031 2466 3422 
Q 2466 3731 2256 3934 
Q 2047 4138 1716 4138 
Q 1388 4138 1169 3931 
Q 950 3725 888 3313 
L 325 3413 
Q 428 3978 793 4289 
Q 1159 4600 1703 4600 
Q 2078 4600 2393 4439 
Q 2709 4278 2876 4000 
Q 3044 3722 3044 3409 
Q 3044 3113 2884 2869 
Q 2725 2625 2413 2481 
Q 2819 2388 3044 2092 
Q 3269 1797 3269 1353 
Q 3269 753 2831 336 
Q 2394 -81 1725 -81 
Q 1122 -81 723 278 
Q 325 638 269 1209 
z
" transform="scale(0.015625)"/>
       </defs>
       <use xlink:href="#ArialMT-16" transform="translate(0 0.3875)"/>
       <use xlink:href="#ArialMT-ee" transform="translate(75.097656 0.3875)"/>
       <use xlink:href="#ArialMT-14" transform="translate(152.978516 0.3875)"/>
       <use xlink:href="#ArialMT-13" transform="translate(208.59375 0.3875)"/>
       <use xlink:href="#ArialMT-ed" transform="translate(265.166016 41.6875) scale(0.7)"/>
       <use xlink:href="#ArialMT-14" transform="translate(306.044922 41.6875) scale(0.7)"/>
       <use xlink:href="#ArialMT-15" transform="translate(344.975586 41.6875) scale(0.7)"/>
      </g>
     </g>
    </g>
    <g id="ytick_4">
     <g id="line2d_29">
      <g>
       <use xlink:href="#m5409fddfb0" x="81.918945" y="199.582022" style="stroke: #000000"/>
      </g>
     </g>
     <g id="text_12">
      <!-- $\mathdefault{4\times10^{-12}}$ -->
      <g transform="translate(24.338945 206.022022) scale(0.14 -0.14)">
       <use xlink:href="#ArialMT-17" transform="translate(0 0.3875)"/>
       <use xlink:href="#ArialMT-ee" transform="translate(75.097656 0.3875)"/>
       <use xlink:href="#ArialMT-14" transform="translate(152.978516 0.3875)"/>
       <use xlink:href="#ArialMT-13" transform="translate(208.59375 0.3875)"/>
       <use xlink:href="#ArialMT-ed" transform="translate(265.166016 41.6875) scale(0.7)"/>
       <use xlink:href="#ArialMT-14" transform="translate(306.044922 41.6875) scale(0.7)"/>
       <use xlink:href="#ArialMT-15" transform="translate(344.975586 41.6875) scale(0.7)"/>
      </g>
     </g>
    </g>
    <g id="ytick_5">
     <g id="line2d_30">
      <g>
       <use xlink:href="#m5409fddfb0" x="81.918945" y="177.780232" style="stroke: #000000"/>
      </g>
     </g>
    </g>
    <g id="ytick_6">
     <g id="line2d_31">
      <g>
       <use xlink:href="#m5409fddfb0" x="81.918945" y="159.966873" style="stroke: #000000"/>
      </g>
     </g>
     <g id="text_13">
      <!-- $\mathdefault{6\times10^{-12}}$ -->
      <g transform="translate(24.338945 166.406873) scale(0.14 -0.14)">
       <use xlink:href="#ArialMT-19" transform="translate(0 0.3875)"/>
       <use xlink:href="#ArialMT-ee" transform="translate(75.097656 0.3875)"/>
       <use xlink:href="#ArialMT-14" transform="translate(152.978516 0.3875)"/>
       <use xlink:href="#ArialMT-13" transform="translate(208.59375 0.3875)"/>
       <use xlink:href="#ArialMT-ed" transform="translate(265.166016 41.6875) scale(0.7)"/>
       <use xlink:href="#ArialMT-14" transform="translate(306.044922 41.6875) scale(0.7)"/>
       <use xlink:href="#ArialMT-15" transform="translate(344.975586 41.6875) scale(0.7)"/>
      </g>
     </g>
    </g>
    <g id="ytick_7">
     <g id="line2d_32">
      <g>
       <use xlink:href="#m5409fddfb0" x="81.918945" y="144.905892" style="stroke: #000000"/>
      </g>
     </g>
    </g>
    <g id="ytick_8">
     <g id="line2d_33">
      <g>
       <use xlink:href="#m5409fddfb0" x="81.918945" y="131.859477" style="stroke: #000000"/>
      </g>
     </g>
    </g>
    <g id="ytick_9">
     <g id="line2d_34">
      <g>
       <use xlink:href="#m5409fddfb0" x="81.918945" y="120.351723" style="stroke: #000000"/>
      </g>
     </g>
    </g>
    <g id="ytick_10">
     <g id="line2d_35">
      <g>
       <use xlink:href="#m5409fddfb0" x="81.918945" y="42.335142" style="stroke: #000000"/>
      </g>
     </g>
     <g id="text_14">
      <!-- $\mathdefault{2\times10^{-11}}$ -->
      <g transform="translate(25.038945 48.775142) scale(0.14 -0.14)">
       <use xlink:href="#ArialMT-15" transform="translate(0 0.3875)"/>
       <use xlink:href="#ArialMT-ee" transform="translate(75.097656 0.3875)"/>
       <use xlink:href="#ArialMT-14" transform="translate(152.978516 0.3875)"/>
       <use xlink:href="#ArialMT-13" transform="translate(208.59375 0.3875)"/>
       <use xlink:href="#ArialMT-ed" transform="translate(265.166016 41.6875) scale(0.7)"/>
       <use xlink:href="#ArialMT-14" transform="translate(306.044922 41.6875) scale(0.7)"/>
       <use xlink:href="#ArialMT-14" transform="translate(340.075586 41.6875) scale(0.7)"/>
      </g>
     </g>
    </g>
    <g id="text_15">
     <!-- Ion Current (m/z 19) -->
     <g transform="translate(17.392383 216.137266) rotate(-90) scale(0.14 -0.14)">
      <defs>
       <path id="ArialMT-2c" d="M 597 0 
L 597 4581 
L 1203 4581 
L 1203 0 
L 597 0 
z
" transform="scale(0.015625)"/>
       <path id="ArialMT-52" d="M 213 1659 
Q 213 2581 725 3025 
Q 1153 3394 1769 3394 
Q 2453 3394 2887 2945 
Q 3322 2497 3322 1706 
Q 3322 1066 3130 698 
Q 2938 331 2570 128 
Q 2203 -75 1769 -75 
Q 1072 -75 642 372 
Q 213 819 213 1659 
z
M 791 1659 
Q 791 1022 1069 705 
Q 1347 388 1769 388 
Q 2188 388 2466 706 
Q 2744 1025 2744 1678 
Q 2744 2294 2464 2611 
Q 2184 2928 1769 2928 
Q 1347 2928 1069 2612 
Q 791 2297 791 1659 
z
" transform="scale(0.015625)"/>
       <path id="ArialMT-51" d="M 422 0 
L 422 3319 
L 928 3319 
L 928 2847 
Q 1294 3394 1984 3394 
Q 2284 3394 2536 3286 
Q 2788 3178 2913 3003 
Q 3038 2828 3088 2588 
Q 3119 2431 3119 2041 
L 3119 0 
L 2556 0 
L 2556 2019 
Q 2556 2363 2490 2533 
Q 2425 2703 2258 2804 
Q 2091 2906 1866 2906 
Q 1506 2906 1245 2678 
Q 984 2450 984 1813 
L 984 0 
L 422 0 
z
" transform="scale(0.015625)"/>
       <path id="ArialMT-12" d="M 0 -78 
L 1328 4659 
L 1778 4659 
L 453 -78 
L 0 -78 
z
" transform="scale(0.015625)"/>
       <path id="ArialMT-5d" d="M 125 0 
L 125 456 
L 2238 2881 
Q 1878 2863 1603 2863 
L 250 2863 
L 250 3319 
L 2963 3319 
L 2963 2947 
L 1166 841 
L 819 456 
Q 1197 484 1528 484 
L 3063 484 
L 3063 0 
L 125 0 
z
" transform="scale(0.015625)"/>
       <path id="ArialMT-1c" d="M 350 1059 
L 891 1109 
Q 959 728 1153 556 
Q 1347 384 1650 384 
Q 1909 384 2104 503 
Q 2300 622 2425 820 
Q 2550 1019 2634 1356 
Q 2719 1694 2719 2044 
Q 2719 2081 2716 2156 
Q 2547 1888 2255 1720 
Q 1963 1553 1622 1553 
Q 1053 1553 659 1965 
Q 266 2378 266 3053 
Q 266 3750 677 4175 
Q 1088 4600 1706 4600 
Q 2153 4600 2523 4359 
Q 2894 4119 3086 3673 
Q 3278 3228 3278 2384 
Q 3278 1506 3087 986 
Q 2897 466 2520 194 
Q 2144 -78 1638 -78 
Q 1100 -78 759 220 
Q 419 519 350 1059 
z
M 2653 3081 
Q 2653 3566 2395 3850 
Q 2138 4134 1775 4134 
Q 1400 4134 1122 3828 
Q 844 3522 844 3034 
Q 844 2597 1108 2323 
Q 1372 2050 1759 2050 
Q 2150 2050 2401 2323 
Q 2653 2597 2653 3081 
z
" transform="scale(0.015625)"/>
      </defs>
      <use xlink:href="#ArialMT-2c"/>
      <use xlink:href="#ArialMT-52" transform="translate(27.78125 0)"/>
      <use xlink:href="#ArialMT-51" transform="translate(83.390625 0)"/>
      <use xlink:href="#ArialMT-3" transform="translate(139 0)"/>
      <use xlink:href="#ArialMT-26" transform="translate(166.78125 0)"/>
      <use xlink:href="#ArialMT-58" transform="translate(239 0)"/>
      <use xlink:href="#ArialMT-55" transform="translate(294.609375 0)"/>
      <use xlink:href="#ArialMT-55" transform="translate(327.90625 0)"/>
      <use xlink:href="#ArialMT-48" transform="translate(361.203125 0)"/>
      <use xlink:href="#ArialMT-51" transform="translate(416.8125 0)"/>
      <use xlink:href="#ArialMT-57" transform="translate(472.421875 0)"/>
      <use xlink:href="#ArialMT-3" transform="translate(500.203125 0)"/>
      <use xlink:href="#ArialMT-b" transform="translate(527.984375 0)"/>
      <use xlink:href="#ArialMT-50" transform="translate(561.28125 0)"/>
      <use xlink:href="#ArialMT-12" transform="translate(644.578125 0)"/>
      <use xlink:href="#ArialMT-5d" transform="translate(672.359375 0)"/>
      <use xlink:href="#ArialMT-3" transform="translate(722.359375 0)"/>
      <use xlink:href="#ArialMT-14" transform="translate(750.140625 0)"/>
      <use xlink:href="#ArialMT-1c" transform="translate(805.75 0)"/>
      <use xlink:href="#ArialMT-c" transform="translate(861.359375 0)"/>
     </g>
    </g>
   </g>
   <g id="line2d_36">
    <path d="M 99.074635 99.312786 
L 99.074635 102.653272 
L 99.103323 100.715017 
L 99.734469 101.856531 
L 101.226268 103.225024 
L 103.291836 104.778526 
L 105.300027 106.432087 
L 106.992645 107.329235 
L 108.341002 107.542874 
L 109.459852 107.175323 
L 110.578701 105.68086 
L 111.582796 106.21658 
L 113.73443 104.54481 
L 114.881967 104.299287 
L 117.291797 103.575464 
L 118.5254 102.61241 
L 120.877852 101.608601 
L 122.02539 101.838605 
L 123.086862 101.720798 
L 124.205712 101.332151 
L 125.324561 101.841329 
L 126.472099 103.182377 
L 127.533571 103.785256 
L 128.652421 105.276318 
L 130.890119 105.064231 
L 132.008969 105.5333 
L 133.156506 106.829659 
L 134.304044 106.267393 
L 135.422893 105.935674 
L 136.570431 105.777928 
L 137.68928 106.087079 
L 138.779441 105.613725 
L 139.898291 106.366886 
L 141.01714 104.905869 
L 142.135989 104.029277 
L 143.254839 104.608358 
L 144.373688 104.500816 
L 145.521226 105.075078 
L 146.611387 105.971678 
L 147.758924 106.260843 
L 148.877774 105.802409 
L 149.996623 105.743962 
L 151.115472 106.093104 
L 152.234322 106.184041 
L 153.381859 105.800707 
L 156.824473 108.687212 
L 157.914633 109.013659 
L 159.033483 109.610832 
L 160.181021 108.108449 
L 161.242493 108.290371 
L 162.361342 107.770966 
L 163.50888 107.763443 
L 164.656418 107.015157 
L 165.775267 107.109414 
L 166.922805 106.902146 
L 167.984277 107.193028 
L 169.103127 105.519967 
L 170.193288 106.112514 
L 171.312137 104.654802 
L 172.402298 105.148803 
L 173.549835 105.987181 
L 174.668685 106.552219 
L 175.787534 106.789133 
L 176.935072 107.739372 
L 178.025233 108.118944 
L 179.172771 109.439097 
L 180.262931 107.773654 
L 181.410469 108.729426 
L 182.529318 109.099868 
L 183.676856 110.495494 
L 184.824394 110.559904 
L 185.914555 110.886262 
L 187.062093 109.776462 
L 189.271103 109.472443 
L 190.361264 109.792361 
L 191.508801 108.276684 
L 192.598962 109.096353 
L 193.689123 109.271172 
L 194.807972 109.732749 
L 195.95551 110.591945 
L 198.250586 108.670709 
L 200.545661 108.648228 
L 202.78336 109.39922 
L 203.873521 110.473538 
L 205.021059 110.499292 
L 206.168596 110.645563 
L 207.230069 111.540996 
L 208.291541 109.815431 
L 209.439079 109.830742 
L 211.676778 108.843337 
L 212.795627 108.669605 
L 216.094798 106.376724 
L 218.361185 105.698375 
L 219.451346 106.599634 
L 220.570195 106.984556 
L 221.689045 107.899784 
L 222.836582 108.623451 
L 223.926743 109.178658 
L 225.045592 108.889766 
L 226.19313 109.819229 
L 227.31198 109.491362 
L 228.430829 109.71135 
L 229.52099 109.657238 
L 230.668528 110.736768 
L 231.787377 109.615884 
L 232.877538 108.825552 
L 233.996387 108.340375 
L 235.115236 106.534849 
L 237.295558 104.44641 
L 238.443096 104.617581 
L 239.533257 105.990142 
L 240.652106 107.902355 
L 241.828332 108.260022 
L 242.918493 108.298198 
L 244.037342 108.984582 
L 245.070126 109.821689 
L 246.131599 109.486145 
L 247.250448 110.050005 
L 248.397986 109.841281 
L 249.545524 110.731139 
L 250.664373 111.912142 
L 251.811911 111.460161 
L 253.992232 110.023128 
L 255.13977 109.930931 
L 257.406157 111.890753 
L 258.496318 111.622979 
L 260.762705 113.09582 
L 261.881555 112.723425 
L 262.971715 110.696247 
L 264.090565 110.576953 
L 265.209414 109.316373 
L 266.328263 108.526075 
L 267.475801 108.331521 
L 268.59465 107.985423 
L 269.684811 107.337113 
L 270.861038 108.646506 
L 271.951198 109.66612 
L 273.070048 108.542367 
L 274.160209 108.73639 
L 275.279058 110.708864 
L 276.455284 111.714495 
L 277.516757 111.846093 
L 278.635606 113.419968 
L 279.754455 113.952757 
L 280.844616 113.691875 
L 281.992154 113.134053 
L 283.16838 112.360202 
L 284.315918 111.062968 
L 285.434767 111.307881 
L 286.524928 111.881861 
L 287.672466 111.46027 
L 288.762627 111.241613 
L 289.910164 112.02242 
L 291.057702 112.348726 
L 292.176551 111.386539 
L 293.295401 110.849748 
L 294.41425 111.369648 
L 295.504411 110.233629 
L 296.651949 109.826697 
L 297.74211 110.527984 
L 298.83227 109.695959 
L 299.95112 110.383561 
L 301.069969 109.271005 
L 302.16013 109.668031 
L 304.455206 109.993696 
L 305.516678 111.510125 
L 306.664216 110.57851 
L 307.811753 110.643786 
L 309.992075 111.337669 
L 311.110925 112.003803 
L 312.229774 109.731658 
L 313.348623 108.908027 
L 314.410096 107.611639 
L 315.557633 107.163069 
L 316.676483 107.74037 
L 317.766644 107.357988 
L 318.885493 107.189588 
L 320.004342 107.815741 
L 321.123191 108.970812 
L 322.242041 109.427458 
L 323.332202 108.033197 
L 324.422363 108.906872 
L 325.598589 108.518137 
L 326.717438 109.139106 
L 327.807599 108.288926 
L 328.869071 108.052773 
L 330.045298 108.330319 
L 331.135458 108.115871 
L 332.282996 108.131234 
L 333.373157 109.356535 
L 334.463318 108.825091 
L 335.582167 109.401214 
L 336.729705 108.817232 
L 337.791177 109.345209 
L 338.967404 108.493168 
L 340.373137 107.985563 
L 341.578052 108.254552 
L 342.696901 107.706767 
L 344.905912 109.37011 
L 345.996072 108.220011 
L 347.172299 107.784787 
L 348.291148 107.762785 
L 349.438686 107.897279 
L 350.47147 106.45225 
L 352.709168 105.702414 
L 353.914083 105.696099 
L 355.004244 105.227781 
L 357.213254 103.669808 
L 358.38948 103.981339 
L 359.393576 103.091172 
L 360.512425 103.082583 
L 361.71734 103.988182 
L 362.778812 105.17464 
L 363.92635 104.969097 
L 365.073888 106.340455 
L 366.221425 105.828447 
L 367.168144 104.73313 
L 368.34437 104.625807 
L 369.549285 104.288278 
L 370.553381 103.800518 
L 371.700918 104.292629 
L 372.991898 103.943406 
L 374.110748 102.565801 
L 375.17222 100.812616 
L 376.205004 100.104934 
L 377.323853 98.341502 
L 378.414014 97.50135 
L 379.561552 97.986885 
L 380.565647 98.075945 
L 381.684497 99.67939 
L 382.803346 98.692398 
L 383.922195 96.975173 
L 385.012356 94.541329 
L 387.221366 92.158579 
L 388.368904 89.79328 
L 389.401688 90.069588 
L 390.692668 89.033081 
L 391.782829 89.187803 
L 392.901678 88.933246 
L 393.991839 87.385899 
L 395.168065 87.136171 
L 396.114784 85.894587 
L 397.66396 86.052722 
L 398.840186 84.534034 
L 400.045101 82.659995 
L 401.106573 82.700448 
L 402.225423 81.23487 
L 403.401649 81.534939 
L 404.405744 80.010437 
L 405.524594 79.487919 
L 406.557378 79.352984 
L 407.790981 78.001669 
L 408.852453 76.144398 
L 410.028679 73.491445 
L 411.233594 71.683485 
L 412.295067 69.545964 
L 413.327851 66.854178 
L 414.389323 65.287435 
L 415.594238 64.010997 
L 416.627022 61.965341 
L 417.889313 61.087165 
L 419.065539 59.347724 
L 419.98357 57.516932 
L 421.245861 56.027029 
L 424.545032 50.541338 
L 425.463062 48.116788 
L 425.463062 48.116788 
" clip-path="url(#pcf1d777560)" style="fill: none; stroke: #000000; stroke-width: 2.5; stroke-linecap: square"/>
   </g>
   <g id="line2d_37">
    <path d="M 91.816458 173.314848 
L 91.816458 170.021677 
L 91.816458 171.431887 
L 91.959901 173.439553 
L 92.562358 172.68766 
L 94.140222 172.583648 
L 96.177102 172.225288 
L 98.156605 171.663387 
L 99.820534 170.712076 
L 101.19758 169.292577 
L 102.345117 168.738072 
L 103.377901 169.235682 
L 104.32462 169.492064 
L 105.443469 169.02183 
L 106.591007 169.80621 
L 107.623791 170.278613 
L 109.976244 169.808112 
L 111.009028 170.046763 
L 112.242631 168.777225 
L 113.304103 170.048667 
L 114.480329 171.731101 
L 115.656555 172.418175 
L 116.832782 173.389905 
L 117.980319 175.987726 
L 119.185234 175.589828 
L 120.418837 176.229221 
L 121.48031 177.019799 
L 122.656536 177.454111 
L 123.718008 176.089546 
L 124.865546 176.739958 
L 125.927018 176.742001 
L 127.131933 176.347033 
L 128.279471 176.896443 
L 129.369632 176.400716 
L 130.431104 175.201817 
L 132.72618 174.797963 
L 133.845029 176.005316 
L 134.992567 176.118647 
L 135.996662 175.661743 
L 137.172888 173.48132 
L 138.291738 173.292213 
L 139.439276 173.288642 
L 140.615502 173.673307 
L 141.619597 173.613241 
L 142.795824 174.181499 
L 143.914673 176.156377 
L 146.152371 181.815352 
L 147.299909 179.752471 
L 148.476135 177.8976 
L 149.480231 177.631184 
L 150.656457 176.821718 
L 151.803995 176.611638 
L 152.836779 173.822458 
L 154.013005 174.44959 
L 155.189231 174.259576 
L 156.279392 174.272284 
L 157.455618 173.548382 
L 158.603156 171.460804 
L 159.693317 172.498445 
L 160.754789 173.671716 
L 162.992488 173.203515 
L 164.111337 174.106541 
L 165.230187 176.553368 
L 166.320348 175.355626 
L 167.496574 176.014787 
L 168.644112 174.918173 
L 169.762961 175.510164 
L 170.824433 177.374665 
L 172.029348 177.999776 
L 173.09082 176.75038 
L 174.152293 175.859769 
L 175.357207 177.043633 
L 176.447368 176.738662 
L 177.652283 175.063385 
L 178.713755 174.844844 
L 179.832605 172.9242 
L 180.951454 174.502941 
L 182.041615 174.121097 
L 183.189153 172.722712 
L 184.33669 171.063195 
L 185.484228 169.943981 
L 186.574389 170.497805 
L 187.721927 170.069818 
L 188.783399 170.349116 
L 189.844872 171.545535 
L 191.021098 171.942511 
L 192.139947 174.786617 
L 193.230108 173.26672 
L 194.348957 172.868855 
L 195.467807 169.909637 
L 196.615344 168.489031 
L 197.791571 167.608327 
L 198.881732 166.388787 
L 201.11943 168.489088 
L 202.180903 167.68811 
L 205.566139 168.192802 
L 206.684988 166.895066 
L 207.803838 167.758591 
L 208.922687 169.365906 
L 211.189074 170.078354 
L 212.307923 170.062438 
L 213.398084 167.875872 
L 214.516934 167.348361 
L 215.664471 168.650182 
L 216.812009 167.923906 
L 217.873481 167.995328 
L 218.992331 168.542427 
L 220.11118 168.493548 
L 221.258718 168.288423 
L 222.406256 166.565037 
L 223.467728 166.424012 
L 224.615266 165.307219 
L 225.705427 166.551909 
L 226.824276 168.814022 
L 229.061975 170.616621 
L 230.094759 170.650958 
L 231.328362 170.030394 
L 232.361146 169.231639 
L 233.508683 168.182225 
L 234.598844 168.579419 
L 235.746382 168.641336 
L 236.865231 169.470963 
L 239.045553 172.73331 
L 240.164402 172.842986 
L 241.283252 171.066011 
L 242.373413 171.646656 
L 243.549639 170.090005 
L 244.6398 169.996227 
L 245.758649 169.477811 
L 246.906187 169.917738 
L 249.143885 171.89866 
L 250.262735 172.521915 
L 251.324207 171.113345 
L 252.443057 168.880327 
L 253.533217 168.694346 
L 254.652067 165.701253 
L 255.770916 165.095038 
L 256.861077 165.719451 
L 258.037303 167.308265 
L 259.156152 169.682511 
L 261.393851 172.657719 
L 262.484012 172.712131 
L 263.63155 172.094572 
L 264.750399 172.035525 
L 265.84056 171.170764 
L 266.988098 171.58697 
L 268.078258 171.836239 
L 269.254485 171.310484 
L 270.315957 173.582563 
L 272.553656 172.884032 
L 273.701194 170.633779 
L 274.820043 171.071375 
L 275.881515 172.150075 
L 278.147902 171.034652 
L 279.238063 170.258892 
L 280.356913 170.515133 
L 281.475762 171.820351 
L 282.651988 170.317964 
L 283.856903 169.827709 
L 284.918375 169.951 
L 286.065913 171.746651 
L 287.184762 171.9961 
L 288.3323 171.371406 
L 289.451149 170.469092 
L 290.569999 168.929075 
L 291.631471 169.592915 
L 292.75032 169.738541 
L 293.86917 169.435066 
L 295.016707 170.461456 
L 296.106868 171.648753 
L 297.225718 170.264602 
L 298.344567 166.60174 
L 299.492105 164.656762 
L 301.672426 162.533684 
L 302.819964 164.434604 
L 303.910125 165.521501 
L 305.000286 167.004695 
L 306.147824 169.572891 
L 307.295361 170.708853 
L 308.356834 170.414651 
L 309.504372 168.543401 
L 310.651909 167.188914 
L 311.713382 166.842369 
L 312.832231 165.192826 
L 313.95108 165.133766 
L 315.098618 166.377482 
L 316.160091 166.90439 
L 317.307628 168.613036 
L 318.369101 168.372272 
L 320.635488 168.973035 
L 321.725649 167.626468 
L 322.844498 167.008353 
L 323.934659 165.905053 
L 325.053508 165.94499 
L 326.172358 166.529525 
L 327.319895 166.169984 
L 328.438745 166.704436 
L 329.557594 164.427559 
L 330.619066 163.337794 
L 331.737916 163.069487 
L 332.885454 161.034174 
L 334.032991 160.28626 
L 335.065775 160.183382 
L 336.242001 161.266359 
L 337.332162 160.900686 
L 338.422323 162.477902 
L 339.799369 163.955303 
L 341.032972 166.09573 
L 342.180509 166.515528 
L 343.356736 166.492932 
L 344.475585 165.177986 
L 347.803444 163.050226 
L 348.864917 160.254031 
L 350.041143 158.83962 
L 351.131304 158.137122 
L 354.51654 154.067214 
L 355.63539 154.844827 
L 358.934561 158.848796 
L 360.024722 159.275779 
L 361.200948 158.555126 
L 362.319797 157.679438 
L 363.409958 156.247891 
L 364.586184 156.165576 
L 365.561591 153.998336 
L 369.004205 152.294051 
L 370.065677 153.344837 
L 372.303376 153.941496 
L 373.50829 153.905936 
L 374.62714 154.179892 
L 375.745989 155.309546 
L 376.807461 153.095889 
L 377.926311 152.326946 
L 378.987783 149.682593 
L 380.164009 148.764422 
L 381.168105 148.166929 
L 382.373019 146.420031 
L 383.491869 145.868218 
L 384.524653 144.405652 
L 385.700879 144.424985 
L 386.819728 144.176269 
L 387.881201 142.71049 
L 389.00005 143.580989 
L 390.090211 141.671339 
L 391.266437 141.168311 
L 392.413975 139.103314 
L 393.41807 138.149467 
L 394.594297 138.934714 
L 395.741834 139.103067 
L 396.975437 138.465548 
L 398.295106 134.755386 
L 399.32789 132.348536 
L 400.61887 130.560168 
L 403.946729 123.971372 
L 405.03689 123.061747 
L 407.360654 121.875401 
L 408.336061 120.754583 
L 409.569664 118.993742 
L 411.577855 117.274147 
L 412.840147 114.93066 
L 413.958996 112.060301 
L 415.135222 110.516767 
L 417.229479 104.741508 
L 418.434394 102.806805 
L 420.614715 99.78494 
L 421.790942 97.8472 
L 424.114705 91.134151 
L 425.147489 85.889295 
L 425.147489 85.889295 
" clip-path="url(#pcf1d777560)" style="fill: none; stroke: #1f77b4; stroke-width: 2.5; stroke-linecap: square"/>
   </g>
   <g id="line2d_38">
    <path d="M 91.644328 152.870387 
L 91.644328 158.609622 
L 91.644328 151.345824 
L 91.759082 149.783703 
L 92.304162 150.182571 
L 93.62383 152.997695 
L 95.66071 155.099032 
L 97.69759 155.991193 
L 99.504961 158.12656 
L 100.939384 157.505331 
L 104.181178 154.93888 
L 106.275434 151.8189 
L 107.394284 153.472085 
L 108.541821 154.665164 
L 109.660671 155.099454 
L 110.77952 155.790144 
L 111.898369 155.904915 
L 113.017219 155.815289 
L 114.164756 155.95785 
L 115.283606 157.094821 
L 116.517209 157.124515 
L 117.7795 154.562081 
L 118.984415 154.19771 
L 120.131953 152.230812 
L 121.250802 151.92535 
L 124.60735 153.736694 
L 125.726199 155.196264 
L 127.963898 157.431295 
L 129.111436 155.550277 
L 130.230285 155.614673 
L 131.349134 155.440063 
L 133.615521 158.505322 
L 134.734371 158.688855 
L 135.85322 159.803886 
L 136.972069 158.538588 
L 138.090919 157.454052 
L 139.152391 156.155442 
L 140.328617 153.978149 
L 141.418778 153.585126 
L 142.508939 152.364863 
L 143.656477 153.731963 
L 144.804015 152.918147 
L 147.013025 152.820239 
L 148.103186 151.176106 
L 149.193347 151.91972 
L 150.369573 153.267136 
L 151.459734 152.292283 
L 152.578583 153.778302 
L 153.726121 154.454961 
L 154.873658 156.053922 
L 156.13595 156.241121 
L 157.168734 157.595035 
L 158.287583 158.139687 
L 159.349056 156.888229 
L 160.525282 157.71035 
L 161.644131 157.708656 
L 162.791669 156.214597 
L 163.88183 155.815776 
L 165.029368 154.753689 
L 166.119528 153.249332 
L 167.267066 153.795266 
L 168.328539 155.451191 
L 169.447388 156.802102 
L 170.680991 156.926217 
L 171.742464 160.355536 
L 172.861313 160.156433 
L 175.156388 161.666991 
L 176.246549 161.12997 
L 177.365399 158.819328 
L 178.426871 157.979826 
L 179.603097 158.323313 
L 180.693258 156.839132 
L 181.840796 155.478154 
L 182.959645 158.024302 
L 184.078494 156.728188 
L 185.168655 157.858244 
L 186.287505 159.385887 
L 187.406354 157.565181 
L 188.467826 157.240084 
L 189.615364 157.864051 
L 190.734213 158.136173 
L 191.824374 157.762076 
L 192.971912 157.753715 
L 194.11945 159.659037 
L 195.209611 159.511752 
L 196.299772 159.785197 
L 197.447309 159.241815 
L 198.652224 157.937848 
L 199.742385 158.185616 
L 200.9473 157.641429 
L 201.980083 155.953389 
L 203.098933 155.141462 
L 204.217782 153.921451 
L 205.336631 153.17342 
L 206.426792 152.193523 
L 207.57433 151.683642 
L 208.721868 151.865815 
L 209.812029 152.503624 
L 210.873501 152.890095 
L 211.99235 152.420323 
L 213.139888 152.508289 
L 214.258738 151.766266 
L 215.348898 152.059579 
L 217.586597 154.841788 
L 218.734135 155.549706 
L 219.852984 156.641889 
L 220.943145 157.889976 
L 223.152155 156.754286 
L 224.328381 156.711095 
L 225.418542 155.764401 
L 226.537392 156.701848 
L 227.684929 157.457559 
L 228.77509 157.259261 
L 230.955412 155.484913 
L 232.10295 154.58167 
L 233.221799 152.784752 
L 234.31196 152.201684 
L 235.488186 153.579385 
L 236.607035 155.426523 
L 237.697196 154.842826 
L 238.816046 154.876481 
L 239.934895 154.410145 
L 241.025056 155.257658 
L 242.172594 152.953512 
L 244.410292 149.607239 
L 245.500453 150.042774 
L 246.619302 152.962326 
L 247.76684 154.591775 
L 248.857001 154.938291 
L 249.947162 156.363702 
L 251.0947 156.603515 
L 252.184861 157.936483 
L 253.246333 155.329731 
L 254.393871 154.223311 
L 255.598785 151.91628 
L 256.688946 151.743313 
L 257.779107 152.575886 
L 258.897956 151.44685 
L 261.135655 151.864855 
L 262.254504 152.878679 
L 263.344665 155.211988 
L 264.492203 156.475371 
L 265.639741 159.704195 
L 266.75859 160.174302 
L 267.820063 160.76286 
L 269.024977 160.830246 
L 270.057761 158.625164 
L 271.17661 157.261862 
L 272.352837 156.055169 
L 273.442998 155.624869 
L 274.533158 155.493013 
L 275.623319 155.119946 
L 276.828234 155.814015 
L 277.861018 154.739485 
L 279.008556 155.02757 
L 280.127405 155.687463 
L 281.246254 155.856252 
L 282.393792 156.296583 
L 283.570018 156.993201 
L 284.688868 157.174662 
L 285.865094 156.75774 
L 286.926566 155.8254 
L 288.102792 154.984675 
L 289.192953 154.353861 
L 290.254426 154.392074 
L 291.401963 155.330157 
L 292.492124 155.871529 
L 293.639662 156.132169 
L 294.7872 155.641978 
L 295.819984 155.357839 
L 296.967522 156.002255 
L 298.086371 157.169509 
L 299.20522 155.265676 
L 301.356854 155.212617 
L 302.53308 155.96278 
L 303.623241 155.762555 
L 304.770778 154.809062 
L 305.889628 154.345696 
L 307.008477 154.93036 
L 308.184703 155.853266 
L 309.217487 155.703257 
L 310.336337 153.898699 
L 311.483874 153.969175 
L 312.574035 153.66304 
L 313.692884 153.046255 
L 314.811734 152.290354 
L 315.930583 151.90869 
L 316.992056 151.8102 
L 318.139593 152.037367 
L 319.258443 152.573081 
L 320.377292 152.123738 
L 321.438764 152.155146 
L 322.557614 152.377321 
L 323.705151 153.068435 
L 324.852689 152.30145 
L 325.971539 152.352786 
L 327.033011 153.215064 
L 328.15186 154.856417 
L 330.389559 152.78182 
L 331.508408 150.421009 
L 332.655946 149.933649 
L 333.717418 148.653972 
L 334.893645 148.831516 
L 335.983805 147.660757 
L 338.192816 149.908633 
L 339.455107 150.070679 
L 340.746087 148.964492 
L 341.864936 148.528676 
L 343.041163 147.511315 
L 344.217389 148.349256 
L 345.278861 147.887259 
L 346.455088 148.189887 
L 348.692786 149.459514 
L 349.754259 148.851877 
L 350.901796 147.827713 
L 352.049334 148.156162 
L 354.229656 148.399408 
L 355.319817 148.148656 
L 356.467354 148.18967 
L 357.557515 147.023426 
L 358.733742 147.421255 
L 359.823902 147.492344 
L 360.856686 147.817989 
L 363.151762 145.596611 
L 364.270611 145.239487 
L 365.418149 145.096335 
L 366.422245 143.631603 
L 367.627159 142.324018 
L 368.746009 141.736764 
L 370.983707 142.940371 
L 372.073868 142.369762 
L 373.221406 141.121581 
L 374.311567 139.686555 
L 375.401728 139.979497 
L 376.635331 139.787109 
L 377.696803 138.241752 
L 378.815652 136.991536 
L 379.877125 137.553906 
L 380.967286 138.627402 
L 382.143512 138.820197 
L 383.262361 138.34181 
L 384.409899 138.646585 
L 385.442683 138.314381 
L 386.590221 138.280173 
L 387.70907 135.364569 
L 388.799231 133.381243 
L 389.774638 131.362867 
L 390.979553 130.814961 
L 392.12709 132.06947 
L 393.188563 130.369725 
L 395.368885 128.382418 
L 396.631176 127.17768 
L 397.950845 125.6023 
L 399.213136 123.104514 
L 401.508212 121.486327 
L 402.569684 121.645075 
L 403.717222 121.49749 
L 404.750006 119.890191 
L 405.868855 118.539346 
L 407.07377 116.640653 
L 408.192619 115.436499 
L 409.196715 113.405334 
L 410.401629 110.594169 
L 411.405725 108.590768 
L 412.581951 107.890721 
L 414.848338 103.505479 
L 415.852434 103.08436 
L 417.086037 100.878551 
L 418.090132 98.137786 
L 419.295047 95.94203 
L 421.561434 90.79317 
L 423.770444 85.407409 
L 424.975359 82.645406 
L 425.749947 79.84304 
L 425.749947 79.84304 
" clip-path="url(#pcf1d777560)" style="fill: none; stroke: #0033ff; stroke-width: 2.5; stroke-linecap: square"/>
   </g>
   <g id="line2d_39">
    <path d="M 89.923021 283.713655 
L 89.980398 277.259408 
L 89.980398 281.644995 
L 90.066463 280.162718 
L 90.525479 277.629251 
L 91.902524 278.02679 
L 93.882026 277.202022 
L 97.726278 276.039165 
L 99.218077 276.293869 
L 100.422992 272.707969 
L 101.455776 270.271953 
L 102.459871 273.279809 
L 103.550032 274.910177 
L 104.640193 276.317272 
L 105.759042 280.091189 
L 106.849203 280.712846 
L 107.996741 280.037346 
L 109.144279 278.599955 
L 110.263128 278.210334 
L 111.3246 276.565038 
L 112.44345 276.496858 
L 113.590988 279.104296 
L 114.681148 277.712042 
L 115.914751 278.880472 
L 117.119666 281.387844 
L 118.381958 279.100415 
L 120.677033 277.772626 
L 121.824571 280.288604 
L 122.914732 280.656303 
L 124.033581 280.691467 
L 125.15243 281.536101 
L 126.299968 279.672846 
L 127.418818 279.25283 
L 128.566355 281.857264 
L 129.656516 282.147551 
L 130.775365 283.139153 
L 131.894215 284.982362 
L 133.013064 285.72625 
L 134.160602 286.227344 
L 135.279451 286.521626 
L 136.369612 286.170782 
L 137.431084 283.279718 
L 138.635999 283.017109 
L 140.816321 277.926324 
L 141.93517 278.251088 
L 143.025331 277.042706 
L 144.230246 276.445817 
L 145.320407 279.86221 
L 146.467944 281.034403 
L 148.676955 284.065753 
L 149.738427 284.335838 
L 150.914653 281.434181 
L 151.976126 281.176952 
L 153.094975 284.793578 
L 155.476116 280.636297 
L 156.594965 283.35611 
L 157.742503 280.974577 
L 158.803975 282.334642 
L 159.922825 283.038963 
L 161.041674 283.295504 
L 162.189212 281.433839 
L 163.336749 281.065213 
L 164.455599 282.833442 
L 165.574448 278.028149 
L 166.693297 273.839142 
L 167.783458 274.232382 
L 168.873619 273.017322 
L 170.021157 274.554219 
L 171.082629 276.193939 
L 172.316232 279.61016 
L 173.435082 280.697122 
L 174.525243 283.902606 
L 175.67278 285.193164 
L 176.762941 281.536597 
L 177.910479 281.417954 
L 179.029328 280.675337 
L 180.148178 281.212072 
L 181.20965 280.819208 
L 182.299811 280.282205 
L 184.623575 277.731337 
L 185.713736 278.16009 
L 186.775208 276.72828 
L 187.922746 276.42802 
L 189.041595 277.935623 
L 190.189133 277.493692 
L 191.221917 280.159371 
L 192.398143 279.458903 
L 193.488304 277.678242 
L 194.635842 275.13158 
L 195.754691 274.47202 
L 196.844852 274.69565 
L 197.963701 273.078688 
L 199.139928 270.927836 
L 200.287465 272.717558 
L 201.377626 270.00703 
L 202.467787 271.774097 
L 203.586636 270.095463 
L 204.734174 269.839279 
L 205.881712 270.934033 
L 206.914496 272.465657 
L 208.004657 272.282007 
L 209.180883 269.436132 
L 210.299732 268.561515 
L 211.361205 267.323026 
L 212.566119 262.768808 
L 213.65628 264.042279 
L 214.832506 264.830272 
L 215.893979 266.229398 
L 217.012828 268.756324 
L 218.102989 269.130514 
L 219.279215 267.264475 
L 220.398065 265.848222 
L 221.516914 266.495402 
L 222.635763 265.220375 
L 223.754613 266.555167 
L 224.844773 270.346058 
L 225.992311 269.763323 
L 227.11116 269.753339 
L 228.23001 268.314388 
L 229.320171 265.465213 
L 230.381643 261.135264 
L 231.500492 262.47624 
L 232.64803 262.661259 
L 233.766879 264.727324 
L 234.885729 267.538603 
L 236.004578 270.024437 
L 237.123427 268.288992 
L 238.213588 270.139121 
L 240.451287 269.138534 
L 241.598825 269.318746 
L 242.717674 270.501912 
L 243.807835 269.504737 
L 244.926684 269.508401 
L 246.045533 267.228987 
L 247.164383 266.377341 
L 248.254544 263.541445 
L 249.373393 264.322446 
L 250.492242 264.921473 
L 251.582403 266.474598 
L 252.729941 270.43678 
L 253.84879 271.412672 
L 254.910263 273.704996 
L 256.0578 272.340545 
L 257.17665 271.201649 
L 258.324188 270.97569 
L 259.443037 269.851798 
L 260.533198 269.408434 
L 261.652047 269.819864 
L 262.770896 271.899393 
L 263.889746 273.22065 
L 266.127444 271.289494 
L 267.274982 268.561212 
L 268.365143 267.388571 
L 269.455304 265.43412 
L 270.602842 266.467331 
L 273.95939 263.185922 
L 275.106927 262.734624 
L 276.197088 261.928033 
L 277.287249 260.932383 
L 278.434787 262.458888 
L 279.553636 262.237553 
L 280.643797 265.271299 
L 281.791335 265.847362 
L 282.967561 267.712809 
L 284.08641 265.376709 
L 285.20526 261.670121 
L 286.381486 260.79624 
L 287.442958 260.178166 
L 288.590496 261.064941 
L 289.709345 263.013373 
L 290.799506 264.604311 
L 291.918355 268.310767 
L 293.037205 268.936168 
L 294.127366 271.521749 
L 295.246215 266.627416 
L 296.393753 263.704562 
L 297.483914 262.24545 
L 298.631451 261.207308 
L 299.750301 262.312743 
L 300.86915 264.175595 
L 301.987999 264.125562 
L 303.049472 264.675775 
L 304.19701 265.447956 
L 305.344547 266.850524 
L 306.40602 265.121133 
L 307.582246 264.771967 
L 308.643718 264.674896 
L 309.791256 262.381947 
L 310.881417 261.25062 
L 312.000266 262.367648 
L 313.090427 257.381163 
L 314.209276 256.390973 
L 315.328126 255.225969 
L 316.446975 257.467034 
L 317.594513 260.245062 
L 318.655985 259.026706 
L 319.774835 260.153154 
L 322.041222 257.209254 
L 323.160071 257.496264 
L 324.250232 257.348918 
L 325.340393 256.934341 
L 326.430554 255.622359 
L 327.60678 257.307615 
L 328.696941 259.676588 
L 329.758413 258.44272 
L 330.905951 259.943086 
L 331.967423 260.042138 
L 333.14365 258.28391 
L 334.262499 257.729782 
L 335.381348 257.386524 
L 336.442821 252.820383 
L 337.619047 252.157717 
L 338.766585 250.292842 
L 340.086253 250.702346 
L 341.319856 252.878281 
L 342.496082 253.246755 
L 343.614932 253.90383 
L 344.762469 253.028854 
L 345.881319 252.77325 
L 347.000168 248.778982 
L 348.032952 247.857665 
L 349.237867 246.334513 
L 351.3895 242.996085 
L 352.594415 243.491886 
L 353.655887 243.370538 
L 354.717359 242.795679 
L 355.864897 241.51601 
L 356.92637 242.274332 
L 358.102596 239.262918 
L 360.311606 236.906009 
L 361.516521 236.547814 
L 362.577993 234.64148 
L 363.668154 235.800547 
L 364.815692 236.268544 
L 365.905853 235.681137 
L 367.024702 235.824959 
L 368.086174 234.22836 
L 369.262401 230.23334 
L 371.471411 225.892648 
L 372.618948 221.251082 
L 373.766486 218.73702 
L 374.79927 218.532263 
L 375.946808 217.872706 
L 377.151723 219.104089 
L 378.12713 217.9761 
L 379.389421 218.12069 
L 380.393517 219.312301 
L 381.483678 217.23043 
L 382.659904 215.619572 
L 383.750065 213.768586 
L 384.840226 211.372914 
L 386.016452 211.146694 
L 387.049236 210.301387 
L 388.139397 205.96902 
L 389.344311 202.78496 
L 390.348407 202.852629 
L 391.524633 201.581121 
L 392.672171 201.400654 
L 393.704955 201.88807 
L 394.852493 200.311584 
L 395.942653 196.677436 
L 397.262322 193.262724 
L 398.58199 190.495149 
L 399.643463 184.97445 
L 401.967227 180.880575 
L 403.143453 179.064647 
L 404.233614 178.421801 
L 405.381152 175.934776 
L 406.442624 173.918489 
L 407.61885 170.873934 
L 408.594257 167.748511 
L 410.831956 163.276293 
L 412.094247 160.476294 
L 413.012278 156.184198 
L 414.188504 151.714258 
L 416.368826 145.174343 
L 417.717182 140.200961 
L 418.663901 135.861594 
L 419.868816 134.38938 
L 420.930288 131.949736 
L 421.991761 128.861163 
L 423.11061 124.751628 
L 424.315525 119.338291 
L 425.348309 112.452695 
L 425.348309 112.452695 
" clip-path="url(#pcf1d777560)" style="fill: none; stroke: #ff7f0e; stroke-width: 2.5; stroke-linecap: square"/>
   </g>
   <g id="line2d_40">
    <path d="M 99.103323 67.635901 
L 99.103323 75.160194 
L 99.103323 70.704108 
L 99.648404 70.106709 
L 101.082826 70.432225 
L 103.119705 69.595846 
L 105.185273 69.57711 
L 106.992645 68.887075 
L 108.398379 70.026993 
L 109.545917 71.731144 
L 110.636078 72.286726 
L 111.611485 72.402911 
L 112.730334 73.522733 
L 113.763118 73.392006 
L 114.910656 73.917502 
L 116.115571 72.640111 
L 117.291797 72.164353 
L 119.672938 73.881023 
L 120.820475 74.604429 
L 121.996702 74.794856 
L 123.058174 74.687567 
L 124.205712 75.321999 
L 125.295873 73.739742 
L 126.44341 74.066289 
L 127.590948 73.103997 
L 128.709797 72.995658 
L 129.77127 73.798966 
L 130.890119 73.316552 
L 132.037657 73.886202 
L 133.213883 74.762537 
L 134.361421 75.356285 
L 135.394205 76.034555 
L 136.59912 75.885497 
L 137.717969 76.209474 
L 138.836818 75.210435 
L 139.955668 75.546044 
L 142.135989 75.55236 
L 143.312215 75.575664 
L 144.402376 76.096937 
L 146.640075 76.085683 
L 148.877774 74.714699 
L 149.967935 75.501323 
L 151.115472 75.626156 
L 152.234322 74.961345 
L 154.558086 75.142584 
L 155.705623 75.472235 
L 156.853161 76.532627 
L 157.885945 76.831867 
L 159.033483 76.572898 
L 160.152332 77.40456 
L 161.271181 78.628738 
L 162.361342 78.136735 
L 163.50888 77.261484 
L 164.627729 77.40252 
L 165.746579 76.206296 
L 167.955589 77.33733 
L 170.250664 78.918291 
L 171.369514 79.046033 
L 172.488363 79.325084 
L 173.635901 78.527003 
L 174.726062 77.042258 
L 175.873599 76.777321 
L 176.992449 75.07279 
L 178.111298 75.179763 
L 179.230147 74.584343 
L 180.29162 75.834568 
L 181.439158 76.024368 
L 182.558007 76.061557 
L 183.705545 76.41482 
L 184.795706 75.23869 
L 185.914555 73.661232 
L 187.033404 73.691832 
L 188.152253 72.714768 
L 189.242414 72.762076 
L 190.389952 72.599497 
L 192.713716 74.920375 
L 194.865349 78.002464 
L 195.984199 76.946207 
L 197.131736 77.066114 
L 200.488284 73.313366 
L 201.607134 72.473945 
L 202.697295 72.550837 
L 203.873521 72.990426 
L 204.99237 72.917498 
L 206.139908 73.997297 
L 207.20138 73.465616 
L 208.32023 74.404574 
L 209.439079 72.285458 
L 210.52924 72.835225 
L 212.795627 70.879808 
L 213.885788 70.524192 
L 215.004637 71.19874 
L 216.123486 69.703184 
L 217.242336 69.700202 
L 218.361185 70.586318 
L 219.508723 70.855238 
L 220.627572 70.687824 
L 221.717733 71.590811 
L 222.836582 70.743525 
L 223.955432 69.110396 
L 225.074281 69.6671 
L 226.164442 69.651098 
L 227.31198 68.229585 
L 228.430829 68.323464 
L 229.549678 69.047096 
L 230.639839 69.058017 
L 232.848849 69.380589 
L 233.996387 69.347924 
L 235.086548 68.700114 
L 236.234086 69.403281 
L 237.324247 68.934626 
L 238.471784 69.301048 
L 239.590634 68.52315 
L 240.709483 67.277051 
L 241.799644 67.878813 
L 242.918493 68.670465 
L 244.008654 68.938377 
L 245.127503 68.356518 
L 247.39389 67.48307 
L 248.455363 66.698254 
L 249.574212 66.491825 
L 250.750438 64.629711 
L 251.783222 63.394052 
L 252.93076 64.135932 
L 254.049609 65.642077 
L 255.168459 66.041629 
L 256.25862 66.261028 
L 257.34878 67.454074 
L 258.438941 68.190192 
L 259.557791 68.724955 
L 260.762705 69.458959 
L 261.852866 68.333022 
L 262.971715 68.314732 
L 264.061876 67.61399 
L 265.209414 67.393104 
L 266.328263 66.630877 
L 268.623339 64.772536 
L 269.742188 64.281128 
L 270.861038 64.23787 
L 271.951198 63.685579 
L 273.041359 63.624655 
L 274.188897 64.462517 
L 275.336435 63.545498 
L 276.397907 63.75782 
L 278.692983 63.536829 
L 279.725767 62.825245 
L 280.844616 62.948934 
L 282.020842 62.60828 
L 283.16838 61.168231 
L 284.344606 61.279915 
L 285.434767 60.837965 
L 286.582305 60.115527 
L 287.672466 60.018159 
L 288.820004 60.227747 
L 289.967541 60.781603 
L 291.029014 61.47256 
L 292.176551 62.086136 
L 293.238024 62.183904 
L 295.475723 61.865449 
L 296.594572 60.853787 
L 297.770798 60.552717 
L 298.889647 59.750853 
L 299.95112 59.912282 
L 301.127346 59.961985 
L 302.246195 60.900203 
L 303.336356 60.933748 
L 304.426517 61.72578 
L 305.516678 61.902665 
L 307.754377 60.253585 
L 311.110925 59.383658 
L 312.258462 60.588291 
L 313.348623 60.857178 
L 314.496161 60.827606 
L 315.586322 61.362549 
L 316.676483 61.548536 
L 317.766644 60.499721 
L 318.94287 61.184035 
L 320.004342 61.604549 
L 322.242041 61.421733 
L 323.332202 62.238081 
L 325.5699 61.409519 
L 326.746126 60.40823 
L 327.807599 60.575927 
L 328.955137 59.478059 
L 330.045298 59.568851 
L 331.164147 59.297194 
L 332.311685 58.669871 
L 333.401846 58.732462 
L 334.492006 58.662008 
L 336.729705 59.583404 
L 337.791177 59.453608 
L 338.967404 59.954891 
L 341.491987 59.388312 
L 342.72559 60.24975 
L 343.844439 60.497392 
L 344.963288 60.531796 
L 346.082138 60.443193 
L 347.229676 60.475376 
L 348.26246 60.625048 
L 350.528847 59.193774 
L 351.590319 58.026669 
L 352.766545 57.848787 
L 353.885395 57.810866 
L 355.004244 57.256858 
L 356.123093 57.763757 
L 358.332103 57.440657 
L 359.50833 57.382806 
L 360.512425 57.508424 
L 361.688651 57.319105 
L 362.778812 55.951271 
L 363.92635 55.915994 
L 365.045199 55.038078 
L 366.164049 53.772156 
L 367.311586 54.208666 
L 368.34437 53.770012 
L 369.46322 54.085543 
L 370.582069 55.697228 
L 371.758295 55.355095 
L 372.96321 54.723117 
L 373.967305 54.474025 
L 375.028778 54.7235 
L 376.176316 54.427907 
L 377.323853 53.824931 
L 378.442703 54.316159 
L 379.504175 54.006775 
L 380.680401 54.282487 
L 381.713185 54.237847 
L 382.803346 51.762957 
L 385.041045 51.366183 
L 386.245959 50.444937 
L 387.307432 50.210904 
L 388.368904 49.694496 
L 389.516442 49.910862 
L 390.721357 49.942737 
L 391.754141 50.43914 
L 392.844301 49.753929 
L 395.168065 48.685364 
L 396.258226 48.139067 
L 397.549206 45.97579 
L 398.811498 44.211021 
L 399.987724 43.639805 
L 401.106573 42.917112 
L 402.139357 42.876804 
L 403.401649 41.951581 
L 404.434433 41.381756 
L 405.524594 41.014677 
L 406.586066 40.22697 
L 407.848358 39.978751 
L 410.028679 37.418337 
L 411.061463 37.61583 
L 412.23769 35.995882 
L 413.413916 34.806963 
L 414.504077 32.270315 
L 416.741775 30.303392 
L 417.774559 28.567123 
L 419.036851 28.609348 
L 420.098323 27.939517 
L 421.159796 27.632184 
L 422.307333 26.969698 
L 423.368806 25.704801 
L 424.602409 23.611554 
L 425.491751 20.50103 
L 425.491751 20.50103 
" clip-path="url(#pcf1d777560)" style="fill: none; stroke: #ff0000; stroke-width: 2.5; stroke-linecap: square"/>
   </g>
   <g id="patch_3">
    <path d="M 81.918945 299.822656 
L 81.918945 7.2 
" style="fill: none; stroke: #000000; stroke-width: 1.5; stroke-linejoin: miter; stroke-linecap: square"/>
   </g>
   <g id="patch_4">
    <path d="M 81.918945 299.822656 
L 426.180273 299.822656 
" style="fill: none; stroke: #000000; stroke-width: 1.5; stroke-linejoin: miter; stroke-linecap: square"/>
   </g>
   <g id="legend_1">
    <g id="line2d_41">
     <path d="M 92.718945 22.536328 
L 104.718945 22.536328 
L 116.718945 22.536328 
" style="fill: none; stroke: #000000; stroke-width: 2.5; stroke-linecap: square"/>
    </g>
    <g id="text_16">
     <!-- vacuum -->
     <g transform="translate(126.318945 26.736328) scale(0.12 -0.12)">
      <defs>
       <path id="ArialMT-59" d="M 1344 0 
L 81 3319 
L 675 3319 
L 1388 1331 
Q 1503 1009 1600 663 
Q 1675 925 1809 1294 
L 2547 3319 
L 3125 3319 
L 1869 0 
L 1344 0 
z
" transform="scale(0.015625)"/>
       <path id="ArialMT-46" d="M 2588 1216 
L 3141 1144 
Q 3050 572 2676 248 
Q 2303 -75 1759 -75 
Q 1078 -75 664 370 
Q 250 816 250 1647 
Q 250 2184 428 2587 
Q 606 2991 970 3192 
Q 1334 3394 1763 3394 
Q 2303 3394 2647 3120 
Q 2991 2847 3088 2344 
L 2541 2259 
Q 2463 2594 2264 2762 
Q 2066 2931 1784 2931 
Q 1359 2931 1093 2626 
Q 828 2322 828 1663 
Q 828 994 1084 691 
Q 1341 388 1753 388 
Q 2084 388 2306 591 
Q 2528 794 2588 1216 
z
" transform="scale(0.015625)"/>
      </defs>
      <use xlink:href="#ArialMT-59"/>
      <use xlink:href="#ArialMT-44" transform="translate(50 0)"/>
      <use xlink:href="#ArialMT-46" transform="translate(105.609375 0)"/>
      <use xlink:href="#ArialMT-58" transform="translate(155.609375 0)"/>
      <use xlink:href="#ArialMT-58" transform="translate(211.21875 0)"/>
      <use xlink:href="#ArialMT-50" transform="translate(266.828125 0)"/>
     </g>
    </g>
    <g id="line2d_42">
     <path d="M 92.718945 39.798047 
L 104.718945 39.798047 
L 116.718945 39.798047 
" style="fill: none; stroke: #1f77b4; stroke-width: 2.5; stroke-linecap: square"/>
    </g>
    <g id="text_17">
     <!-- 1h -->
     <g transform="translate(126.318945 43.998047) scale(0.12 -0.12)">
      <defs>
       <path id="ArialMT-4b" d="M 422 0 
L 422 4581 
L 984 4581 
L 984 2938 
Q 1378 3394 1978 3394 
Q 2347 3394 2619 3248 
Q 2891 3103 3008 2847 
Q 3125 2591 3125 2103 
L 3125 0 
L 2563 0 
L 2563 2103 
Q 2563 2525 2380 2717 
Q 2197 2909 1863 2909 
Q 1613 2909 1392 2779 
Q 1172 2650 1078 2428 
Q 984 2206 984 1816 
L 984 0 
L 422 0 
z
" transform="scale(0.015625)"/>
      </defs>
      <use xlink:href="#ArialMT-14"/>
      <use xlink:href="#ArialMT-4b" transform="translate(55.609375 0)"/>
     </g>
    </g>
    <g id="line2d_43">
     <path d="M 92.718945 57.059766 
L 104.718945 57.059766 
L 116.718945 57.059766 
" style="fill: none; stroke: #0033ff; stroke-width: 2.5; stroke-linecap: square"/>
    </g>
    <g id="text_18">
     <!-- 2h -->
     <g transform="translate(126.318945 61.259766) scale(0.12 -0.12)">
      <use xlink:href="#ArialMT-15"/>
      <use xlink:href="#ArialMT-4b" transform="translate(55.609375 0)"/>
     </g>
    </g>
    <g id="line2d_44">
     <path d="M 92.718945 74.321484 
L 104.718945 74.321484 
L 116.718945 74.321484 
" style="fill: none; stroke: #ff7f0e; stroke-width: 2.5; stroke-linecap: square"/>
    </g>
    <g id="text_19">
     <!-- 4h -->
     <g transform="translate(126.318945 78.521484) scale(0.12 -0.12)">
      <use xlink:href="#ArialMT-17"/>
      <use xlink:href="#ArialMT-4b" transform="translate(55.609375 0)"/>
     </g>
    </g>
    <g id="line2d_45">
     <path d="M 92.718945 91.583203 
L 104.718945 91.583203 
L 116.718945 91.583203 
" style="fill: none; stroke: #ff0000; stroke-width: 2.5; stroke-linecap: square"/>
    </g>
    <g id="text_20">
     <!-- first -->
     <g transform="translate(126.318945 95.783203) scale(0.12 -0.12)">
      <defs>
       <path id="ArialMT-49" d="M 556 0 
L 556 2881 
L 59 2881 
L 59 3319 
L 556 3319 
L 556 3672 
Q 556 4006 616 4169 
Q 697 4388 901 4523 
Q 1106 4659 1475 4659 
Q 1713 4659 2000 4603 
L 1916 4113 
Q 1741 4144 1584 4144 
Q 1328 4144 1222 4034 
Q 1116 3925 1116 3625 
L 1116 3319 
L 1763 3319 
L 1763 2881 
L 1116 2881 
L 1116 0 
L 556 0 
z
" transform="scale(0.015625)"/>
       <path id="ArialMT-4c" d="M 425 3934 
L 425 4581 
L 988 4581 
L 988 3934 
L 425 3934 
z
M 425 0 
L 425 3319 
L 988 3319 
L 988 0 
L 425 0 
z
" transform="scale(0.015625)"/>
       <path id="ArialMT-56" d="M 197 991 
L 753 1078 
Q 800 744 1014 566 
Q 1228 388 1613 388 
Q 2000 388 2187 545 
Q 2375 703 2375 916 
Q 2375 1106 2209 1216 
Q 2094 1291 1634 1406 
Q 1016 1563 777 1677 
Q 538 1791 414 1992 
Q 291 2194 291 2438 
Q 291 2659 392 2848 
Q 494 3038 669 3163 
Q 800 3259 1026 3326 
Q 1253 3394 1513 3394 
Q 1903 3394 2198 3281 
Q 2494 3169 2634 2976 
Q 2775 2784 2828 2463 
L 2278 2388 
Q 2241 2644 2061 2787 
Q 1881 2931 1553 2931 
Q 1166 2931 1000 2803 
Q 834 2675 834 2503 
Q 834 2394 903 2306 
Q 972 2216 1119 2156 
Q 1203 2125 1616 2013 
Q 2213 1853 2448 1751 
Q 2684 1650 2818 1456 
Q 2953 1263 2953 975 
Q 2953 694 2789 445 
Q 2625 197 2315 61 
Q 2006 -75 1616 -75 
Q 969 -75 630 194 
Q 291 463 197 991 
z
" transform="scale(0.015625)"/>
      </defs>
      <use xlink:href="#ArialMT-49"/>
      <use xlink:href="#ArialMT-4c" transform="translate(27.78125 0)"/>
      <use xlink:href="#ArialMT-55" transform="translate(50 0)"/>
      <use xlink:href="#ArialMT-56" transform="translate(83.296875 0)"/>
      <use xlink:href="#ArialMT-57" transform="translate(133.296875 0)"/>
     </g>
    </g>
   </g>
  </g>
 </g>
 <defs>
  <clipPath id="pcf1d777560">
   <rect x="81.918945" y="7.2" width="344.261328" height="292.622656"/>
  </clipPath>
 </defs>
</svg>
