<?xml version="1.0" encoding="utf-8" standalone="no"?>
<!DOCTYPE svg PUBLIC "-//W3C//DTD SVG 1.1//EN"
  "http://www.w3.org/Graphics/SVG/1.1/DTD/svg11.dtd">
<svg xmlns:xlink="http://www.w3.org/1999/xlink" width="448.650898pt" height="340.800273pt" viewBox="0 0 448.650898 340.800273" xmlns="http://www.w3.org/2000/svg" version="1.1">
 <metadata>
  <rdf:RDF xmlns:dc="http://purl.org/dc/elements/1.1/" xmlns:cc="http://creativecommons.org/ns#" xmlns:rdf="http://www.w3.org/1999/02/22-rdf-syntax-ns#">
   <cc:Work>
    <dc:type rdf:resource="http://purl.org/dc/dcmitype/StillImage"/>
    <dc:date>2026-07-09T17:08:31.160597</dc:date>
    <dc:format>image/svg+xml</dc:format>
    <dc:creator>
     <cc:Agent>
      <dc:title>Matplotlib v3.11.0, https://matplotlib.org/</dc:title>
     </cc:Agent>
    </dc:creator>
   </cc:Work>
  </rdf:RDF>
 </metadata>
 <defs>
  <style type="text/css">*{stroke-linejoin: round; stroke-linecap: butt}</style>
 </defs>
 <g id="figure_1">
  <g id="patch_1">
   <path d="M 0 340.800273 
L 448.650898 340.800273 
L 448.650898 0 
L 0 0 
z
" style="fill: #ffffff"/>
  </g>
  <g id="axes_1">
   <g id="patch_2">
    <path d="M 60.598945 299.822656 
L 425.880273 299.822656 
L 425.880273 7.2 
L 60.598945 7.2 
z
" style="fill: #ffffff"/>
   </g>
   <g id="matplotlib.axis_1">
    <g id="xtick_1">
     <g id="line2d_1">
      <defs>
       <path id="mc928206b6f" d="M 0 0 
L 0 -6 
" style="stroke: #000000; stroke-width: 1.5"/>
      </defs>
      <g>
       <use xlink:href="#mc928206b6f" x="60.598945" y="299.822656" style="stroke: #000000; stroke-width: 1.5"/>
      </g>
     </g>
     <g id="text_1">
      <!-- 0 -->
      <g transform="translate(56.706289 313.515039) scale(0.14 -0.14)">
       <defs>
        <path id="ArialMT-13" d="M 266 2259 
Q 266 3072 433 3567 
Q 600 4063 929 4331 
Q 1259 4600 1759 4600 
Q 2128 4600 2406 4451 
Q 2684 4303 2865 4023 
Q 3047 3744 3150 3342 
Q 3253 2941 3253 2259 
Q 3253 1453 3087 958 
Q 2922 463 2592 192 
Q 2263 -78 1759 -78 
Q 1097 -78 719 397 
Q 266 969 266 2259 
z
M 844 2259 
Q 844 1131 1108 757 
Q 1372 384 1759 384 
Q 2147 384 2411 759 
Q 2675 1134 2675 2259 
Q 2675 3391 2411 3762 
Q 2147 4134 1753 4134 
Q 1366 4134 1134 3806 
Q 844 3388 844 2259 
z
" transform="scale(0.015625)"/>
       </defs>
       <use xlink:href="#ArialMT-13"/>
      </g>
     </g>
    </g>
    <g id="xtick_2">
     <g id="line2d_2">
      <g>
       <use xlink:href="#mc928206b6f" x="121.479167" y="299.822656" style="stroke: #000000; stroke-width: 1.5"/>
      </g>
     </g>
     <g id="text_2">
      <!-- 200 -->
      <g transform="translate(109.801198 313.515039) scale(0.14 -0.14)">
       <defs>
        <path id="ArialMT-15" d="M 3222 541 
L 3222 0 
L 194 0 
Q 188 203 259 391 
Q 375 700 629 1000 
Q 884 1300 1366 1694 
Q 2113 2306 2375 2664 
Q 2638 3022 2638 3341 
Q 2638 3675 2398 3904 
Q 2159 4134 1775 4134 
Q 1369 4134 1125 3890 
Q 881 3647 878 3216 
L 300 3275 
Q 359 3922 746 4261 
Q 1134 4600 1788 4600 
Q 2447 4600 2831 4234 
Q 3216 3869 3216 3328 
Q 3216 3053 3103 2787 
Q 2991 2522 2730 2228 
Q 2469 1934 1863 1422 
Q 1356 997 1212 845 
Q 1069 694 975 541 
L 3222 541 
z
" transform="scale(0.015625)"/>
       </defs>
       <use xlink:href="#ArialMT-15"/>
       <use xlink:href="#ArialMT-13" transform="translate(55.609375 0)"/>
       <use xlink:href="#ArialMT-13" transform="translate(111.21875 0)"/>
      </g>
     </g>
    </g>
    <g id="xtick_3">
     <g id="line2d_3">
      <g>
       <use xlink:href="#mc928206b6f" x="182.359388" y="299.822656" style="stroke: #000000; stroke-width: 1.5"/>
      </g>
     </g>
     <g id="text_3">
      <!-- 400 -->
      <g transform="translate(170.681419 313.515039) scale(0.14 -0.14)">
       <defs>
        <path id="ArialMT-17" d="M 2069 0 
L 2069 1097 
L 81 1097 
L 81 1613 
L 2172 4581 
L 2631 4581 
L 2631 1613 
L 3250 1613 
L 3250 1097 
L 2631 1097 
L 2631 0 
L 2069 0 
z
M 2069 1613 
L 2069 3678 
L 634 1613 
L 2069 1613 
z
" transform="scale(0.015625)"/>
       </defs>
       <use xlink:href="#ArialMT-17"/>
       <use xlink:href="#ArialMT-13" transform="translate(55.609375 0)"/>
       <use xlink:href="#ArialMT-13" transform="translate(111.21875 0)"/>
      </g>
     </g>
    </g>
    <g id="xtick_4">
     <g id="line2d_4">
      <g>
       <use xlink:href="#mc928206b6f" x="243.239609" y="299.822656" style="stroke: #000000; stroke-width: 1.5"/>
      </g>
     </g>
     <g id="text_4">
      <!-- 600 -->
      <g transform="translate(231.561641 313.515039) scale(0.14 -0.14)">
       <defs>
        <path id="ArialMT-19" d="M 3184 3459 
L 2625 3416 
Q 2550 3747 2413 3897 
Q 2184 4138 1850 4138 
Q 1581 4138 1378 3988 
Q 1113 3794 959 3422 
Q 806 3050 800 2363 
Q 1003 2672 1297 2822 
Q 1591 2972 1913 2972 
Q 2475 2972 2870 2558 
Q 3266 2144 3266 1488 
Q 3266 1056 3080 686 
Q 2894 316 2569 119 
Q 2244 -78 1831 -78 
Q 1128 -78 684 439 
Q 241 956 241 2144 
Q 241 3472 731 4075 
Q 1159 4600 1884 4600 
Q 2425 4600 2770 4297 
Q 3116 3994 3184 3459 
z
M 888 1484 
Q 888 1194 1011 928 
Q 1134 663 1356 523 
Q 1578 384 1822 384 
Q 2178 384 2434 671 
Q 2691 959 2691 1453 
Q 2691 1928 2437 2201 
Q 2184 2475 1800 2475 
Q 1419 2475 1153 2201 
Q 888 1928 888 1484 
z
" transform="scale(0.015625)"/>
       </defs>
       <use xlink:href="#ArialMT-19"/>
       <use xlink:href="#ArialMT-13" transform="translate(55.609375 0)"/>
       <use xlink:href="#ArialMT-13" transform="translate(111.21875 0)"/>
      </g>
     </g>
    </g>
    <g id="xtick_5">
     <g id="line2d_5">
      <g>
       <use xlink:href="#mc928206b6f" x="304.119831" y="299.822656" style="stroke: #000000; stroke-width: 1.5"/>
      </g>
     </g>
     <g id="text_5">
      <!-- 800 -->
      <g transform="translate(292.441862 313.515039) scale(0.14 -0.14)">
       <defs>
        <path id="ArialMT-1b" d="M 1131 2484 
Q 781 2613 612 2850 
Q 444 3088 444 3419 
Q 444 3919 803 4259 
Q 1163 4600 1759 4600 
Q 2359 4600 2725 4251 
Q 3091 3903 3091 3403 
Q 3091 3084 2923 2848 
Q 2756 2613 2416 2484 
Q 2838 2347 3058 2040 
Q 3278 1734 3278 1309 
Q 3278 722 2862 322 
Q 2447 -78 1769 -78 
Q 1091 -78 675 323 
Q 259 725 259 1325 
Q 259 1772 486 2073 
Q 713 2375 1131 2484 
z
M 1019 3438 
Q 1019 3113 1228 2906 
Q 1438 2700 1772 2700 
Q 2097 2700 2305 2904 
Q 2513 3109 2513 3406 
Q 2513 3716 2298 3927 
Q 2084 4138 1766 4138 
Q 1444 4138 1231 3931 
Q 1019 3725 1019 3438 
z
M 838 1322 
Q 838 1081 952 856 
Q 1066 631 1291 507 
Q 1516 384 1775 384 
Q 2178 384 2440 643 
Q 2703 903 2703 1303 
Q 2703 1709 2433 1975 
Q 2163 2241 1756 2241 
Q 1359 2241 1098 1978 
Q 838 1716 838 1322 
z
" transform="scale(0.015625)"/>
       </defs>
       <use xlink:href="#ArialMT-1b"/>
       <use xlink:href="#ArialMT-13" transform="translate(55.609375 0)"/>
       <use xlink:href="#ArialMT-13" transform="translate(111.21875 0)"/>
      </g>
     </g>
    </g>
    <g id="xtick_6">
     <g id="line2d_6">
      <g>
       <use xlink:href="#mc928206b6f" x="365.000052" y="299.822656" style="stroke: #000000; stroke-width: 1.5"/>
      </g>
     </g>
     <g id="text_6">
      <!-- 1000 -->
      <g transform="translate(349.429427 313.515039) scale(0.14 -0.14)">
       <defs>
        <path id="ArialMT-14" d="M 2384 0 
L 1822 0 
L 1822 3584 
Q 1619 3391 1289 3197 
Q 959 3003 697 2906 
L 697 3450 
Q 1169 3672 1522 3987 
Q 1875 4303 2022 4600 
L 2384 4600 
L 2384 0 
z
" transform="scale(0.015625)"/>
       </defs>
       <use xlink:href="#ArialMT-14"/>
       <use xlink:href="#ArialMT-13" transform="translate(55.609375 0)"/>
       <use xlink:href="#ArialMT-13" transform="translate(111.21875 0)"/>
       <use xlink:href="#ArialMT-13" transform="translate(166.828125 0)"/>
      </g>
     </g>
    </g>
    <g id="xtick_7">
     <g id="line2d_7">
      <g>
       <use xlink:href="#mc928206b6f" x="425.880273" y="299.822656" style="stroke: #000000; stroke-width: 1.5"/>
      </g>
     </g>
     <g id="text_7">
      <!-- 1200 -->
      <g transform="translate(410.309648 313.515039) scale(0.14 -0.14)">
       <use xlink:href="#ArialMT-14"/>
       <use xlink:href="#ArialMT-15" transform="translate(55.609375 0)"/>
       <use xlink:href="#ArialMT-13" transform="translate(111.21875 0)"/>
       <use xlink:href="#ArialMT-13" transform="translate(166.828125 0)"/>
      </g>
     </g>
    </g>
    <g id="xtick_8">
     <g id="line2d_8">
      <defs>
       <path id="mdf6709340f" d="M 0 0 
L 0 -3 
" style="stroke: #000000"/>
      </defs>
      <g>
       <use xlink:href="#mdf6709340f" x="75.819001" y="299.822656" style="stroke: #000000"/>
      </g>
     </g>
    </g>
    <g id="xtick_9">
     <g id="line2d_9">
      <g>
       <use xlink:href="#mdf6709340f" x="91.039056" y="299.822656" style="stroke: #000000"/>
      </g>
     </g>
    </g>
    <g id="xtick_10">
     <g id="line2d_10">
      <g>
       <use xlink:href="#mdf6709340f" x="106.259111" y="299.822656" style="stroke: #000000"/>
      </g>
     </g>
    </g>
    <g id="xtick_11">
     <g id="line2d_11">
      <g>
       <use xlink:href="#mdf6709340f" x="136.699222" y="299.822656" style="stroke: #000000"/>
      </g>
     </g>
    </g>
    <g id="xtick_12">
     <g id="line2d_12">
      <g>
       <use xlink:href="#mdf6709340f" x="151.919277" y="299.822656" style="stroke: #000000"/>
      </g>
     </g>
    </g>
    <g id="xtick_13">
     <g id="line2d_13">
      <g>
       <use xlink:href="#mdf6709340f" x="167.139333" y="299.822656" style="stroke: #000000"/>
      </g>
     </g>
    </g>
    <g id="xtick_14">
     <g id="line2d_14">
      <g>
       <use xlink:href="#mdf6709340f" x="197.579443" y="299.822656" style="stroke: #000000"/>
      </g>
     </g>
    </g>
    <g id="xtick_15">
     <g id="line2d_15">
      <g>
       <use xlink:href="#mdf6709340f" x="212.799499" y="299.822656" style="stroke: #000000"/>
      </g>
     </g>
    </g>
    <g id="xtick_16">
     <g id="line2d_16">
      <g>
       <use xlink:href="#mdf6709340f" x="228.019554" y="299.822656" style="stroke: #000000"/>
      </g>
     </g>
    </g>
    <g id="xtick_17">
     <g id="line2d_17">
      <g>
       <use xlink:href="#mdf6709340f" x="258.459665" y="299.822656" style="stroke: #000000"/>
      </g>
     </g>
    </g>
    <g id="xtick_18">
     <g id="line2d_18">
      <g>
       <use xlink:href="#mdf6709340f" x="273.67972" y="299.822656" style="stroke: #000000"/>
      </g>
     </g>
    </g>
    <g id="xtick_19">
     <g id="line2d_19">
      <g>
       <use xlink:href="#mdf6709340f" x="288.899775" y="299.822656" style="stroke: #000000"/>
      </g>
     </g>
    </g>
    <g id="xtick_20">
     <g id="line2d_20">
      <g>
       <use xlink:href="#mdf6709340f" x="319.339886" y="299.822656" style="stroke: #000000"/>
      </g>
     </g>
    </g>
    <g id="xtick_21">
     <g id="line2d_21">
      <g>
       <use xlink:href="#mdf6709340f" x="334.559941" y="299.822656" style="stroke: #000000"/>
      </g>
     </g>
    </g>
    <g id="xtick_22">
     <g id="line2d_22">
      <g>
       <use xlink:href="#mdf6709340f" x="349.779997" y="299.822656" style="stroke: #000000"/>
      </g>
     </g>
    </g>
    <g id="xtick_23">
     <g id="line2d_23">
      <g>
       <use xlink:href="#mdf6709340f" x="380.220107" y="299.822656" style="stroke: #000000"/>
      </g>
     </g>
    </g>
    <g id="xtick_24">
     <g id="line2d_24">
      <g>
       <use xlink:href="#mdf6709340f" x="395.440163" y="299.822656" style="stroke: #000000"/>
      </g>
     </g>
    </g>
    <g id="xtick_25">
     <g id="line2d_25">
      <g>
       <use xlink:href="#mdf6709340f" x="410.660218" y="299.822656" style="stroke: #000000"/>
      </g>
     </g>
    </g>
    <g id="text_8">
     <!-- T1 Temperature (°C) -->
     <g transform="translate(179.500234 330.653711) scale(0.14 -0.14)">
      <defs>
       <path id="ArialMT-37" d="M 1659 0 
L 1659 4041 
L 150 4041 
L 150 4581 
L 3781 4581 
L 3781 4041 
L 2266 4041 
L 2266 0 
L 1659 0 
z
" transform="scale(0.015625)"/>
       <path id="ArialMT-3" transform="scale(0.015625)"/>
       <path id="ArialMT-48" d="M 2694 1069 
L 3275 997 
Q 3138 488 2766 206 
Q 2394 -75 1816 -75 
Q 1088 -75 661 373 
Q 234 822 234 1631 
Q 234 2469 665 2931 
Q 1097 3394 1784 3394 
Q 2450 3394 2872 2941 
Q 3294 2488 3294 1666 
Q 3294 1616 3291 1516 
L 816 1516 
Q 847 969 1125 678 
Q 1403 388 1819 388 
Q 2128 388 2347 550 
Q 2566 713 2694 1069 
z
M 847 1978 
L 2700 1978 
Q 2663 2397 2488 2606 
Q 2219 2931 1791 2931 
Q 1403 2931 1139 2672 
Q 875 2413 847 1978 
z
" transform="scale(0.015625)"/>
       <path id="ArialMT-50" d="M 422 0 
L 422 3319 
L 925 3319 
L 925 2853 
Q 1081 3097 1340 3245 
Q 1600 3394 1931 3394 
Q 2300 3394 2536 3241 
Q 2772 3088 2869 2813 
Q 3263 3394 3894 3394 
Q 4388 3394 4653 3120 
Q 4919 2847 4919 2278 
L 4919 0 
L 4359 0 
L 4359 2091 
Q 4359 2428 4304 2576 
Q 4250 2725 4106 2815 
Q 3963 2906 3769 2906 
Q 3419 2906 3187 2673 
Q 2956 2441 2956 1928 
L 2956 0 
L 2394 0 
L 2394 2156 
Q 2394 2531 2256 2718 
Q 2119 2906 1806 2906 
Q 1569 2906 1367 2781 
Q 1166 2656 1075 2415 
Q 984 2175 984 1722 
L 984 0 
L 422 0 
z
" transform="scale(0.015625)"/>
       <path id="ArialMT-53" d="M 422 -1272 
L 422 3319 
L 934 3319 
L 934 2888 
Q 1116 3141 1344 3267 
Q 1572 3394 1897 3394 
Q 2322 3394 2647 3175 
Q 2972 2956 3137 2557 
Q 3303 2159 3303 1684 
Q 3303 1175 3120 767 
Q 2938 359 2589 142 
Q 2241 -75 1856 -75 
Q 1575 -75 1351 44 
Q 1128 163 984 344 
L 984 -1272 
L 422 -1272 
z
M 931 1641 
Q 931 1000 1190 694 
Q 1450 388 1819 388 
Q 2194 388 2461 705 
Q 2728 1022 2728 1688 
Q 2728 2322 2467 2637 
Q 2206 2953 1844 2953 
Q 1484 2953 1207 2617 
Q 931 2281 931 1641 
z
" transform="scale(0.015625)"/>
       <path id="ArialMT-55" d="M 416 0 
L 416 3319 
L 922 3319 
L 922 2816 
Q 1116 3169 1280 3281 
Q 1444 3394 1641 3394 
Q 1925 3394 2219 3213 
L 2025 2691 
Q 1819 2813 1613 2813 
Q 1428 2813 1281 2702 
Q 1134 2591 1072 2394 
Q 978 2094 978 1738 
L 978 0 
L 416 0 
z
" transform="scale(0.015625)"/>
       <path id="ArialMT-44" d="M 2588 409 
Q 2275 144 1986 34 
Q 1697 -75 1366 -75 
Q 819 -75 525 192 
Q 231 459 231 875 
Q 231 1119 342 1320 
Q 453 1522 633 1644 
Q 813 1766 1038 1828 
Q 1203 1872 1538 1913 
Q 2219 1994 2541 2106 
Q 2544 2222 2544 2253 
Q 2544 2597 2384 2738 
Q 2169 2928 1744 2928 
Q 1347 2928 1158 2789 
Q 969 2650 878 2297 
L 328 2372 
Q 403 2725 575 2942 
Q 747 3159 1072 3276 
Q 1397 3394 1825 3394 
Q 2250 3394 2515 3294 
Q 2781 3194 2906 3042 
Q 3031 2891 3081 2659 
Q 3109 2516 3109 2141 
L 3109 1391 
Q 3109 606 3145 398 
Q 3181 191 3288 0 
L 2700 0 
Q 2613 175 2588 409 
z
M 2541 1666 
Q 2234 1541 1622 1453 
Q 1275 1403 1131 1340 
Q 988 1278 909 1158 
Q 831 1038 831 891 
Q 831 666 1001 516 
Q 1172 366 1500 366 
Q 1825 366 2078 508 
Q 2331 650 2450 897 
Q 2541 1088 2541 1459 
L 2541 1666 
z
" transform="scale(0.015625)"/>
       <path id="ArialMT-57" d="M 1650 503 
L 1731 6 
Q 1494 -44 1306 -44 
Q 1000 -44 831 53 
Q 663 150 594 308 
Q 525 466 525 972 
L 525 2881 
L 113 2881 
L 113 3319 
L 525 3319 
L 525 4141 
L 1084 4478 
L 1084 3319 
L 1650 3319 
L 1650 2881 
L 1084 2881 
L 1084 941 
Q 1084 700 1114 631 
Q 1144 563 1211 522 
Q 1278 481 1403 481 
Q 1497 481 1650 503 
z
" transform="scale(0.015625)"/>
       <path id="ArialMT-58" d="M 2597 0 
L 2597 488 
Q 2209 -75 1544 -75 
Q 1250 -75 995 37 
Q 741 150 617 320 
Q 494 491 444 738 
Q 409 903 409 1263 
L 409 3319 
L 972 3319 
L 972 1478 
Q 972 1038 1006 884 
Q 1059 663 1231 536 
Q 1403 409 1656 409 
Q 1909 409 2131 539 
Q 2353 669 2445 892 
Q 2538 1116 2538 1541 
L 2538 3319 
L 3100 3319 
L 3100 0 
L 2597 0 
z
" transform="scale(0.015625)"/>
       <path id="ArialMT-b" d="M 1497 -1347 
Q 1031 -759 709 28 
Q 388 816 388 1659 
Q 388 2403 628 3084 
Q 909 3875 1497 4659 
L 1900 4659 
Q 1522 4009 1400 3731 
Q 1209 3300 1100 2831 
Q 966 2247 966 1656 
Q 966 153 1900 -1347 
L 1497 -1347 
z
" transform="scale(0.015625)"/>
       <path id="ArialMT-83" d="M 400 3794 
Q 400 4153 654 4406 
Q 909 4659 1266 4659 
Q 1628 4659 1881 4406 
Q 2134 4153 2134 3794 
Q 2134 3434 1879 3179 
Q 1625 2925 1266 2925 
Q 909 2925 654 3178 
Q 400 3431 400 3794 
z
M 741 3794 
Q 741 3575 895 3420 
Q 1050 3266 1269 3266 
Q 1484 3266 1639 3420 
Q 1794 3575 1794 3794 
Q 1794 4013 1639 4167 
Q 1484 4322 1269 4322 
Q 1050 4322 895 4167 
Q 741 4013 741 3794 
z
" transform="scale(0.015625)"/>
       <path id="ArialMT-26" d="M 3763 1606 
L 4369 1453 
Q 4178 706 3683 314 
Q 3188 -78 2472 -78 
Q 1731 -78 1267 223 
Q 803 525 561 1097 
Q 319 1669 319 2325 
Q 319 3041 592 3573 
Q 866 4106 1370 4382 
Q 1875 4659 2481 4659 
Q 3169 4659 3637 4309 
Q 4106 3959 4291 3325 
L 3694 3184 
Q 3534 3684 3231 3912 
Q 2928 4141 2469 4141 
Q 1941 4141 1586 3887 
Q 1231 3634 1087 3207 
Q 944 2781 944 2328 
Q 944 1744 1114 1308 
Q 1284 872 1643 656 
Q 2003 441 2422 441 
Q 2931 441 3284 734 
Q 3638 1028 3763 1606 
z
" transform="scale(0.015625)"/>
       <path id="ArialMT-c" d="M 791 -1347 
L 388 -1347 
Q 1322 153 1322 1656 
Q 1322 2244 1188 2822 
Q 1081 3291 891 3722 
Q 769 4003 388 4659 
L 791 4659 
Q 1378 3875 1659 3084 
Q 1900 2403 1900 1659 
Q 1900 816 1576 28 
Q 1253 -759 791 -1347 
z
" transform="scale(0.015625)"/>
      </defs>
      <use xlink:href="#ArialMT-37"/>
      <use xlink:href="#ArialMT-14" transform="translate(61.078125 0)"/>
      <use xlink:href="#ArialMT-3" transform="translate(116.6875 0)"/>
      <use xlink:href="#ArialMT-37" transform="translate(142.65625 0)"/>
      <use xlink:href="#ArialMT-48" transform="translate(192.65625 0)"/>
      <use xlink:href="#ArialMT-50" transform="translate(248.265625 0)"/>
      <use xlink:href="#ArialMT-53" transform="translate(331.5625 0)"/>
      <use xlink:href="#ArialMT-48" transform="translate(387.171875 0)"/>
      <use xlink:href="#ArialMT-55" transform="translate(442.78125 0)"/>
      <use xlink:href="#ArialMT-44" transform="translate(476.078125 0)"/>
      <use xlink:href="#ArialMT-57" transform="translate(531.6875 0)"/>
      <use xlink:href="#ArialMT-58" transform="translate(559.46875 0)"/>
      <use xlink:href="#ArialMT-55" transform="translate(615.078125 0)"/>
      <use xlink:href="#ArialMT-48" transform="translate(648.375 0)"/>
      <use xlink:href="#ArialMT-3" transform="translate(703.984375 0)"/>
      <use xlink:href="#ArialMT-b" transform="translate(731.765625 0)"/>
      <use xlink:href="#ArialMT-83" transform="translate(765.0625 0)"/>
      <use xlink:href="#ArialMT-26" transform="translate(805.046875 0)"/>
      <use xlink:href="#ArialMT-c" transform="translate(877.265625 0)"/>
     </g>
    </g>
   </g>
   <g id="matplotlib.axis_2">
    <g id="ytick_1">
     <g id="line2d_26">
      <defs>
       <path id="m79bff17984" d="M 0 0 
L 6 0 
" style="stroke: #000000; stroke-width: 1.5"/>
      </defs>
      <g>
       <use xlink:href="#m79bff17984" x="60.598945" y="200.816249" style="stroke: #000000; stroke-width: 1.5"/>
      </g>
     </g>
     <g id="text_9">
      <!-- $\mathdefault{10^{-12}}$ -->
      <g transform="translate(24.338945 207.256249) scale(0.14 -0.14)">
       <defs>
        <path id="ArialMT-ed" d="M 3381 1997 
L 356 1997 
L 356 2522 
L 3381 2522 
L 3381 1997 
z
" transform="scale(0.015625)"/>
       </defs>
       <use xlink:href="#ArialMT-14" transform="translate(0 0.3875)"/>
       <use xlink:href="#ArialMT-13" transform="translate(55.615234 0.3875)"/>
       <use xlink:href="#ArialMT-ed" transform="translate(112.1875 41.6875) scale(0.7)"/>
       <use xlink:href="#ArialMT-14" transform="translate(153.066406 41.6875) scale(0.7)"/>
       <use xlink:href="#ArialMT-15" transform="translate(191.99707 41.6875) scale(0.7)"/>
      </g>
     </g>
    </g>
    <g id="ytick_2">
     <g id="line2d_27">
      <g>
       <use xlink:href="#m79bff17984" x="60.598945" y="70.748893" style="stroke: #000000; stroke-width: 1.5"/>
      </g>
     </g>
     <g id="text_10">
      <!-- $\mathdefault{10^{-11}}$ -->
      <g transform="translate(25.038945 77.188893) scale(0.14 -0.14)">
       <use xlink:href="#ArialMT-14" transform="translate(0 0.3875)"/>
       <use xlink:href="#ArialMT-13" transform="translate(55.615234 0.3875)"/>
       <use xlink:href="#ArialMT-ed" transform="translate(112.1875 41.6875) scale(0.7)"/>
       <use xlink:href="#ArialMT-14" transform="translate(153.066406 41.6875) scale(0.7)"/>
       <use xlink:href="#ArialMT-14" transform="translate(187.09707 41.6875) scale(0.7)"/>
      </g>
     </g>
    </g>
    <g id="ytick_3">
     <g id="line2d_28">
      <defs>
       <path id="m90914e4f11" d="M 0 0 
L 3 0 
" style="stroke: #000000"/>
      </defs>
      <g>
       <use xlink:href="#m90914e4f11" x="60.598945" y="291.72943" style="stroke: #000000"/>
      </g>
     </g>
    </g>
    <g id="ytick_4">
     <g id="line2d_29">
      <g>
       <use xlink:href="#m90914e4f11" x="60.598945" y="268.825705" style="stroke: #000000"/>
      </g>
     </g>
    </g>
    <g id="ytick_5">
     <g id="line2d_30">
      <g>
       <use xlink:href="#m90914e4f11" x="60.598945" y="252.575254" style="stroke: #000000"/>
      </g>
     </g>
    </g>
    <g id="ytick_6">
     <g id="line2d_31">
      <g>
       <use xlink:href="#m90914e4f11" x="60.598945" y="239.970425" style="stroke: #000000"/>
      </g>
     </g>
    </g>
    <g id="ytick_7">
     <g id="line2d_32">
      <g>
       <use xlink:href="#m90914e4f11" x="60.598945" y="229.67153" style="stroke: #000000"/>
      </g>
     </g>
    </g>
    <g id="ytick_8">
     <g id="line2d_33">
      <g>
       <use xlink:href="#m90914e4f11" x="60.598945" y="220.963938" style="stroke: #000000"/>
      </g>
     </g>
    </g>
    <g id="ytick_9">
     <g id="line2d_34">
      <g>
       <use xlink:href="#m90914e4f11" x="60.598945" y="213.421078" style="stroke: #000000"/>
      </g>
     </g>
    </g>
    <g id="ytick_10">
     <g id="line2d_35">
      <g>
       <use xlink:href="#m90914e4f11" x="60.598945" y="206.767805" style="stroke: #000000"/>
      </g>
     </g>
    </g>
    <g id="ytick_11">
     <g id="line2d_36">
      <g>
       <use xlink:href="#m90914e4f11" x="60.598945" y="161.662074" style="stroke: #000000"/>
      </g>
     </g>
    </g>
    <g id="ytick_12">
     <g id="line2d_37">
      <g>
       <use xlink:href="#m90914e4f11" x="60.598945" y="138.758349" style="stroke: #000000"/>
      </g>
     </g>
    </g>
    <g id="ytick_13">
     <g id="line2d_38">
      <g>
       <use xlink:href="#m90914e4f11" x="60.598945" y="122.507898" style="stroke: #000000"/>
      </g>
     </g>
    </g>
    <g id="ytick_14">
     <g id="line2d_39">
      <g>
       <use xlink:href="#m90914e4f11" x="60.598945" y="109.903069" style="stroke: #000000"/>
      </g>
     </g>
    </g>
    <g id="ytick_15">
     <g id="line2d_40">
      <g>
       <use xlink:href="#m90914e4f11" x="60.598945" y="99.604173" style="stroke: #000000"/>
      </g>
     </g>
    </g>
    <g id="ytick_16">
     <g id="line2d_41">
      <g>
       <use xlink:href="#m90914e4f11" x="60.598945" y="90.896581" style="stroke: #000000"/>
      </g>
     </g>
    </g>
    <g id="ytick_17">
     <g id="line2d_42">
      <g>
       <use xlink:href="#m90914e4f11" x="60.598945" y="83.353722" style="stroke: #000000"/>
      </g>
     </g>
    </g>
    <g id="ytick_18">
     <g id="line2d_43">
      <g>
       <use xlink:href="#m90914e4f11" x="60.598945" y="76.700449" style="stroke: #000000"/>
      </g>
     </g>
    </g>
    <g id="ytick_19">
     <g id="line2d_44">
      <g>
       <use xlink:href="#m90914e4f11" x="60.598945" y="31.594717" style="stroke: #000000"/>
      </g>
     </g>
    </g>
    <g id="ytick_20">
     <g id="line2d_45">
      <g>
       <use xlink:href="#m90914e4f11" x="60.598945" y="8.690992" style="stroke: #000000"/>
      </g>
     </g>
    </g>
    <g id="text_11">
     <!-- Ion Current (m/z 17) -->
     <g transform="translate(17.392383 216.137266) rotate(-90) scale(0.14 -0.14)">
      <defs>
       <path id="ArialMT-2c" d="M 597 0 
L 597 4581 
L 1203 4581 
L 1203 0 
L 597 0 
z
" transform="scale(0.015625)"/>
       <path id="ArialMT-52" d="M 213 1659 
Q 213 2581 725 3025 
Q 1153 3394 1769 3394 
Q 2453 3394 2887 2945 
Q 3322 2497 3322 1706 
Q 3322 1066 3130 698 
Q 2938 331 2570 128 
Q 2203 -75 1769 -75 
Q 1072 -75 642 372 
Q 213 819 213 1659 
z
M 791 1659 
Q 791 1022 1069 705 
Q 1347 388 1769 388 
Q 2188 388 2466 706 
Q 2744 1025 2744 1678 
Q 2744 2294 2464 2611 
Q 2184 2928 1769 2928 
Q 1347 2928 1069 2612 
Q 791 2297 791 1659 
z
" transform="scale(0.015625)"/>
       <path id="ArialMT-51" d="M 422 0 
L 422 3319 
L 928 3319 
L 928 2847 
Q 1294 3394 1984 3394 
Q 2284 3394 2536 3286 
Q 2788 3178 2913 3003 
Q 3038 2828 3088 2588 
Q 3119 2431 3119 2041 
L 3119 0 
L 2556 0 
L 2556 2019 
Q 2556 2363 2490 2533 
Q 2425 2703 2258 2804 
Q 2091 2906 1866 2906 
Q 1506 2906 1245 2678 
Q 984 2450 984 1813 
L 984 0 
L 422 0 
z
" transform="scale(0.015625)"/>
       <path id="ArialMT-12" d="M 0 -78 
L 1328 4659 
L 1778 4659 
L 453 -78 
L 0 -78 
z
" transform="scale(0.015625)"/>
       <path id="ArialMT-5d" d="M 125 0 
L 125 456 
L 2238 2881 
Q 1878 2863 1603 2863 
L 250 2863 
L 250 3319 
L 2963 3319 
L 2963 2947 
L 1166 841 
L 819 456 
Q 1197 484 1528 484 
L 3063 484 
L 3063 0 
L 125 0 
z
" transform="scale(0.015625)"/>
       <path id="ArialMT-1a" d="M 303 3981 
L 303 4522 
L 3269 4522 
L 3269 4084 
Q 2831 3619 2401 2847 
Q 1972 2075 1738 1259 
Q 1569 684 1522 0 
L 944 0 
Q 953 541 1156 1306 
Q 1359 2072 1739 2783 
Q 2119 3494 2547 3981 
L 303 3981 
z
" transform="scale(0.015625)"/>
      </defs>
      <use xlink:href="#ArialMT-2c"/>
      <use xlink:href="#ArialMT-52" transform="translate(27.78125 0)"/>
      <use xlink:href="#ArialMT-51" transform="translate(83.390625 0)"/>
      <use xlink:href="#ArialMT-3" transform="translate(139 0)"/>
      <use xlink:href="#ArialMT-26" transform="translate(166.78125 0)"/>
      <use xlink:href="#ArialMT-58" transform="translate(239 0)"/>
      <use xlink:href="#ArialMT-55" transform="translate(294.609375 0)"/>
      <use xlink:href="#ArialMT-55" transform="translate(327.90625 0)"/>
      <use xlink:href="#ArialMT-48" transform="translate(361.203125 0)"/>
      <use xlink:href="#ArialMT-51" transform="translate(416.8125 0)"/>
      <use xlink:href="#ArialMT-57" transform="translate(472.421875 0)"/>
      <use xlink:href="#ArialMT-3" transform="translate(500.203125 0)"/>
      <use xlink:href="#ArialMT-b" transform="translate(527.984375 0)"/>
      <use xlink:href="#ArialMT-50" transform="translate(561.28125 0)"/>
      <use xlink:href="#ArialMT-12" transform="translate(644.578125 0)"/>
      <use xlink:href="#ArialMT-5d" transform="translate(672.359375 0)"/>
      <use xlink:href="#ArialMT-3" transform="translate(722.359375 0)"/>
      <use xlink:href="#ArialMT-14" transform="translate(750.140625 0)"/>
      <use xlink:href="#ArialMT-1a" transform="translate(805.75 0)"/>
      <use xlink:href="#ArialMT-c" transform="translate(861.359375 0)"/>
     </g>
    </g>
   </g>
   <g id="line2d_46">
    <path d="M 78.802131 263.23955 
L 78.832572 276.045927 
L 79.502254 278.010666 
L 81.08514 275.597305 
L 83.276828 269.993338 
L 85.407636 273.816943 
L 87.203602 270.384439 
L 88.634287 268.66558 
L 89.821452 270.408806 
L 91.008616 273.787865 
L 93.169864 281.803539 
L 94.357028 281.750394 
L 95.574632 280.000683 
L 96.792237 281.837122 
L 98.131602 286.521626 
L 99.440527 283.17722 
L 100.688571 285.029077 
L 101.936616 285.964005 
L 103.15422 285.683344 
L 104.280504 284.247548 
L 106.654833 276.067465 
L 107.872437 275.862531 
L 108.998721 273.586539 
L 110.185886 270.727225 
L 111.37305 269.175047 
L 112.560214 271.337112 
L 113.747379 272.473095 
L 114.964983 273.479605 
L 116.182587 274.337682 
L 118.587356 280.510659 
L 119.77452 281.189213 
L 120.931245 279.149078 
L 122.118409 276.383169 
L 123.305573 274.759599 
L 124.492738 275.262692 
L 125.679902 272.571937 
L 126.867066 271.109418 
L 128.084671 272.032609 
L 129.241395 275.495214 
L 130.458999 276.439021 
L 131.646164 278.148296 
L 132.833328 273.738203 
L 135.207657 270.748402 
L 136.425261 270.440436 
L 137.642865 265.850011 
L 138.86047 270.282132 
L 140.078074 267.476619 
L 141.234798 268.824319 
L 142.421963 269.445032 
L 143.639567 270.811312 
L 144.765851 268.178205 
L 145.953016 271.062674 
L 147.17062 270.748005 
L 148.388225 271.44716 
L 149.575389 271.618979 
L 150.792993 279.073447 
L 151.919277 275.696824 
L 153.106442 279.887656 
L 154.263166 278.638101 
L 155.45033 273.577289 
L 156.607054 267.989703 
L 159.011823 267.360233 
L 160.198987 270.171393 
L 161.416592 276.558196 
L 162.573316 279.104584 
L 163.790921 281.45546 
L 164.947645 282.861381 
L 166.165249 282.348507 
L 167.352413 274.194185 
L 168.570018 268.275325 
L 169.787622 263.128033 
L 170.944347 263.005325 
L 172.161951 265.692909 
L 173.349115 265.866414 
L 174.505839 266.756355 
L 175.662564 272.424724 
L 178.036892 282.609873 
L 179.193617 282.370624 
L 180.380781 281.965001 
L 181.598385 273.73855 
L 182.84643 270.315743 
L 184.033594 268.994257 
L 185.251199 266.83696 
L 187.686407 276.934755 
L 188.843132 277.502554 
L 189.999856 276.255027 
L 191.21746 277.437311 
L 192.435065 278.415968 
L 193.561349 274.91533 
L 194.687633 269.218336 
L 195.905237 265.898034 
L 197.092402 265.320054 
L 198.279566 266.524376 
L 199.46673 265.420134 
L 200.653895 265.202464 
L 201.780179 266.880349 
L 202.967343 269.758554 
L 204.184947 277.750123 
L 205.372112 280.03934 
L 206.528836 272.494563 
L 207.716 268.445117 
L 208.903165 268.137571 
L 210.120769 265.045446 
L 211.277493 265.369819 
L 212.464657 266.488089 
L 213.682262 266.37723 
L 214.869426 269.70163 
L 216.056591 274.850924 
L 217.213315 275.582397 
L 218.430919 271.072448 
L 219.618083 272.622856 
L 220.774808 271.677693 
L 221.961972 273.005534 
L 223.149136 278.181385 
L 224.336301 282.29779 
L 225.462585 281.994493 
L 226.680189 280.945499 
L 227.836913 280.477937 
L 229.024078 280.678218 
L 230.272122 276.723791 
L 231.428846 271.364534 
L 232.616011 271.147839 
L 233.711855 275.551601 
L 234.838139 278.566848 
L 236.025303 278.384245 
L 237.242908 274.089837 
L 238.460512 272.259577 
L 239.647676 273.083102 
L 240.865281 272.14828 
L 242.052445 267.615583 
L 243.178729 268.302384 
L 244.396334 271.558107 
L 245.583498 272.934675 
L 246.801102 269.595637 
L 247.957827 268.516725 
L 249.144991 265.441442 
L 250.362595 268.747761 
L 251.54976 271.598148 
L 252.706484 268.984514 
L 253.893648 266.877433 
L 255.080812 271.556945 
L 257.485581 265.896254 
L 258.672745 260.798176 
L 259.82947 258.871142 
L 261.077514 254.551985 
L 262.234238 259.008569 
L 263.421403 262.813304 
L 264.578127 260.730773 
L 265.765291 263.039121 
L 267.013336 265.01879 
L 268.13962 263.426677 
L 270.513949 261.177574 
L 271.670673 260.673722 
L 272.888277 262.364124 
L 274.136322 267.745595 
L 275.353926 270.232156 
L 276.54109 270.215127 
L 278.915419 267.809039 
L 280.072143 268.321119 
L 281.289748 269.531784 
L 282.507352 267.279643 
L 283.694516 267.654206 
L 284.881681 269.249379 
L 286.068845 267.672364 
L 287.225569 272.912672 
L 288.443174 269.436713 
L 289.599898 266.611793 
L 290.756622 266.898589 
L 291.943786 266.732129 
L 293.130951 269.182351 
L 294.287675 265.269091 
L 295.505279 267.287536 
L 296.722884 267.9001 
L 297.849168 272.596603 
L 299.066772 276.80257 
L 300.284377 275.211981 
L 301.410661 275.990257 
L 302.597825 271.633528 
L 303.78499 270.78971 
L 304.972154 272.265675 
L 306.159318 271.33645 
L 307.285602 275.188988 
L 308.503207 274.90646 
L 309.690371 279.870951 
L 310.847095 270.748608 
L 312.03426 272.715618 
L 313.221424 267.058597 
L 315.595752 260.984624 
L 316.752477 257.105531 
L 317.909201 256.691412 
L 319.157245 255.122149 
L 321.501134 255.315829 
L 322.627418 252.831283 
L 323.875463 255.957156 
L 325.032187 258.437969 
L 326.249791 262.5028 
L 327.406515 263.170179 
L 328.56324 264.853691 
L 329.750404 267.796959 
L 330.968008 267.844533 
L 332.094292 268.157699 
L 333.342337 265.111331 
L 334.833902 261.792774 
L 336.112387 260.146286 
L 337.299551 259.641539 
L 338.517156 261.089797 
L 339.64344 261.353544 
L 340.800164 264.252156 
L 343.235373 266.698721 
L 344.452977 267.165996 
L 345.548821 266.28757 
L 346.796866 269.786197 
L 347.92315 265.518309 
L 349.201635 261.311782 
L 350.358359 261.071368 
L 351.484643 256.892997 
L 352.702247 255.352167 
L 353.950292 250.285491 
L 355.015696 252.968931 
L 356.20286 249.633321 
L 357.481345 248.949585 
L 358.607629 251.380071 
L 359.825233 249.958957 
L 361.042838 253.121891 
L 362.260442 253.474294 
L 363.264966 251.511783 
L 364.51301 247.901769 
L 366.856899 242.397383 
L 368.074503 237.423133 
L 369.444308 233.88086 
L 370.631473 235.288493 
L 371.757757 233.376064 
L 372.853601 232.520523 
L 374.040765 230.490125 
L 375.197489 226.992351 
L 376.415094 224.724226 
L 377.480497 225.386034 
L 378.667662 223.718354 
L 379.854826 224.830428 
L 381.04199 220.121967 
L 382.198715 221.308122 
L 383.446759 219.09802 
L 384.542603 213.607379 
L 385.760208 212.343138 
L 386.856052 207.789984 
L 389.382581 205.093219 
L 391.726469 197.844811 
L 392.974514 195.400582 
L 395.622803 193.805897 
L 396.870848 190.800879 
L 398.149333 187.208825 
L 399.275617 183.075369 
L 400.462781 177.691228 
L 401.710826 172.672796 
L 402.776229 167.822141 
L 405.059238 163.130842 
L 406.368162 159.051636 
L 407.494447 156.623532 
L 408.742491 154.347849 
L 410.020976 148.597674 
L 411.14726 145.744976 
L 412.243104 140.327911 
L 413.369388 135.463668 
L 415.743717 126.743761 
L 417.083081 122.7968 
L 419.30521 113.471259 
L 420.644574 109.179027 
L 421.679538 104.91489 
L 424.145187 96.457844 
L 425.119271 92.262562 
L 425.119271 92.262562 
" clip-path="url(#pd318cc2ad6)" style="fill: none; stroke: #000000; stroke-width: 2.5; stroke-linecap: square"/>
   </g>
   <g id="line2d_47">
    <path d="M 71.100783 195.191378 
L 71.100783 198.866766 
L 71.252984 198.122663 
L 71.892226 198.437608 
L 73.566432 198.599208 
L 77.828048 197.690149 
L 79.593574 196.312375 
L 81.0547 194.22301 
L 82.272304 194.894913 
L 83.368148 195.993216 
L 84.372672 195.593054 
L 85.559836 197.587056 
L 86.77744 201.976828 
L 87.873284 203.226334 
L 89.151769 202.788084 
L 90.369374 203.650754 
L 92.774142 201.103454 
L 93.900426 199.099497 
L 96.396515 196.25609 
L 97.64456 198.312028 
L 98.862164 199.304309 
L 100.140649 199.681101 
L 101.449574 200.654645 
L 102.575858 202.901671 
L 106.167791 197.903069 
L 108.57256 196.359432 
L 109.790164 197.596679 
L 110.946888 197.714384 
L 112.073172 197.947519 
L 114.508381 200.461282 
L 115.695546 199.306902 
L 116.91315 197.068648 
L 117.978554 194.611616 
L 119.226598 191.374374 
L 120.413763 189.340731 
L 121.631367 188.551114 
L 123.944816 184.75382 
L 125.19286 183.721488 
L 126.380024 183.014988 
L 127.628069 181.030684 
L 128.754353 178.747043 
L 129.971958 177.769002 
L 132.285406 173.657153 
L 133.53345 171.797159 
L 134.751055 168.913069 
L 135.846899 167.434665 
L 137.094943 165.470764 
L 138.342988 163.877415 
L 140.747757 158.667519 
L 141.965361 157.787692 
L 143.122085 155.916843 
L 144.248369 152.71608 
L 145.405094 150.491001 
L 146.622698 147.769448 
L 147.809862 146.748621 
L 148.997027 143.572593 
L 150.153751 140.029415 
L 151.401795 137.136205 
L 152.6194 135.34814 
L 154.932848 128.859346 
L 156.211333 124.103446 
L 157.337617 120.471524 
L 158.463901 117.792698 
L 164.491043 101.850082 
L 166.834932 92.516934 
L 168.052536 87.862587 
L 169.27014 83.939452 
L 170.487745 80.744781 
L 171.644469 77.321724 
L 175.114642 70.795074 
L 176.362686 67.904772 
L 178.706575 61.397135 
L 181.080903 55.100435 
L 183.546552 48.942774 
L 184.703277 46.753653 
L 185.860001 45.493007 
L 187.077605 43.700421 
L 188.203889 42.410199 
L 189.512814 41.546064 
L 190.639098 41.482589 
L 191.795822 41.884561 
L 192.982987 42.635709 
L 194.170151 44.006989 
L 195.357315 46.044175 
L 196.60536 48.805383 
L 198.949248 55.362033 
L 200.105973 58.828944 
L 202.510741 67.073063 
L 206.041794 81.318862 
L 207.228958 86.267221 
L 210.790451 99.491601 
L 212.008056 102.951628 
L 213.16478 107.120966 
L 215.539109 114.282089 
L 216.726273 116.238398 
L 217.822117 119.578117 
L 219.131042 122.232078 
L 220.226886 124.1117 
L 223.818819 131.162858 
L 225.005983 132.284524 
L 226.162707 133.765833 
L 227.319431 135.545564 
L 228.506596 135.562308 
L 229.69376 136.14229 
L 230.850484 137.140058 
L 232.098529 137.471466 
L 233.255253 137.966507 
L 234.442417 137.383775 
L 235.660022 137.300585 
L 236.786306 137.345102 
L 238.03435 140.163673 
L 239.221515 142.208273 
L 240.347799 142.696101 
L 241.534963 144.297196 
L 242.691687 146.357912 
L 243.878852 147.253076 
L 245.066016 147.429967 
L 246.22274 148.600213 
L 247.470785 149.624895 
L 248.657949 150.130236 
L 249.814673 152.589907 
L 251.032278 152.032563 
L 252.189002 153.31864 
L 253.406606 153.421475 
L 254.593771 152.618471 
L 255.750495 153.135415 
L 256.968099 153.332801 
L 258.124823 155.711936 
L 260.499152 154.992023 
L 261.716757 155.312355 
L 264.091085 157.124458 
L 266.404534 160.274798 
L 267.652578 164.172218 
L 268.809302 165.594247 
L 269.966027 167.550121 
L 272.340355 165.67181 
L 273.5884 164.41463 
L 274.866884 163.424682 
L 275.993168 162.82369 
L 277.210773 163.869718 
L 278.397937 164.223101 
L 279.615542 165.284723 
L 280.802706 165.248151 
L 281.98987 166.144512 
L 283.116154 166.703841 
L 284.303319 166.713106 
L 285.490483 166.086584 
L 286.708087 165.706926 
L 287.864812 166.676082 
L 289.051976 168.312371 
L 290.23914 169.271716 
L 291.456745 170.0792 
L 292.613469 171.719422 
L 293.770193 171.477134 
L 294.987798 170.933374 
L 296.144522 170.865701 
L 297.301246 171.206359 
L 298.51885 171.891423 
L 299.736455 173.06943 
L 300.862739 177.034315 
L 302.080343 178.775971 
L 303.297948 179.462337 
L 304.424232 178.910469 
L 306.79856 175.141482 
L 308.016165 173.67972 
L 309.142449 173.649613 
L 310.360053 174.033249 
L 311.486338 175.567309 
L 312.703942 179.642438 
L 313.891106 179.616738 
L 315.04783 180.060644 
L 316.234995 180.147304 
L 317.391719 180.511771 
L 318.578883 179.610425 
L 319.766048 176.503756 
L 320.983652 176.722363 
L 322.170816 177.259669 
L 323.357981 176.157588 
L 324.484265 178.103698 
L 325.671429 177.103542 
L 326.889034 177.59077 
L 328.106638 179.597556 
L 329.202482 180.722032 
L 330.450526 180.891426 
L 331.607251 178.845984 
L 332.763975 177.178388 
L 334.2251 173.83023 
L 335.534025 169.76755 
L 336.751629 169.177328 
L 337.999674 165.765753 
L 339.186838 164.982846 
L 341.561167 164.993633 
L 342.717891 165.941039 
L 343.844175 167.220517 
L 345.09222 169.332184 
L 346.248944 170.157154 
L 347.496988 173.47606 
L 348.623273 174.971796 
L 349.840877 174.669793 
L 351.028041 174.810993 
L 352.215206 174.618411 
L 353.43281 174.07915 
L 354.528654 172.027985 
L 355.685378 173.343466 
L 356.933423 172.77205 
L 358.120587 172.077123 
L 359.277311 173.493003 
L 360.525356 172.861295 
L 361.56032 173.773007 
L 362.869244 175.612889 
L 364.117289 177.872275 
L 365.213133 179.578799 
L 366.339417 180.404988 
L 367.526581 182.648689 
L 368.713746 180.335852 
L 369.99223 178.583715 
L 371.179395 177.620284 
L 372.366559 176.219601 
L 373.492843 175.631163 
L 374.680007 175.670558 
L 375.806291 172.825949 
L 377.054336 171.63593 
L 378.11974 172.613899 
L 379.398224 171.404858 
L 380.585389 171.03095 
L 381.681233 167.940906 
L 382.929277 166.437135 
L 385.242726 165.356486 
L 386.42989 164.703794 
L 387.586614 162.954166 
L 388.834659 161.89139 
L 390.052263 164.092032 
L 391.117667 161.99372 
L 392.365712 161.285938 
L 393.583316 157.808389 
L 394.892241 155.434804 
L 396.292486 152.372212 
L 397.38833 150.457915 
L 398.758135 149.258711 
L 399.914859 148.065609 
L 401.071583 146.274003 
L 402.289188 145.467752 
L 405.911561 136.759151 
L 406.946525 133.561668 
L 408.255449 129.902922 
L 409.412174 126.03723 
L 410.386257 123.276351 
L 411.725622 120.455955 
L 412.912786 116.777844 
L 414.160831 113.750628 
L 415.256675 110.515898 
L 416.382959 106.551699 
L 417.661444 103.856087 
L 418.909488 99.752216 
L 419.974892 95.552392 
L 421.222937 91.339999 
L 422.2579 87.211693 
L 423.688585 83.238919 
L 424.784429 79.473609 
L 424.784429 79.473609 
" clip-path="url(#pd318cc2ad6)" style="fill: none; stroke: #1f77b4; stroke-width: 2.5; stroke-linecap: square"/>
   </g>
   <g id="line2d_48">
    <path d="M 70.918143 189.894477 
L 70.918143 194.018438 
L 70.918143 192.573956 
L 71.039903 194.281657 
L 71.618265 194.947114 
L 73.01851 195.854573 
L 79.258733 195.991698 
L 80.780739 195.762217 
L 82.028783 196.531569 
L 83.124627 196.894647 
L 84.220471 197.454361 
L 85.316315 197.138765 
L 86.442599 197.861224 
L 88.847368 196.858519 
L 90.034532 195.286984 
L 91.221697 194.707662 
L 92.408861 195.922393 
L 93.596025 196.051242 
L 94.81363 196.3346 
L 97.309719 203.249177 
L 98.649084 203.804215 
L 99.927568 202.825417 
L 101.145173 203.010722 
L 102.332337 201.430308 
L 103.519501 198.934147 
L 104.706666 198.022743 
L 105.89383 196.175172 
L 107.080994 195.519117 
L 108.298599 196.619692 
L 109.455323 196.71188 
L 110.672927 195.714519 
L 111.860092 192.811729 
L 113.047256 191.719634 
L 114.26486 189.997725 
L 115.452025 188.691716 
L 116.639189 189.423163 
L 117.826353 188.753518 
L 119.013518 188.372389 
L 120.200682 188.377061 
L 121.326966 187.414753 
L 122.575011 186.66093 
L 126.106063 177.964163 
L 127.323668 176.31798 
L 128.480392 175.34014 
L 129.667556 173.472465 
L 130.824281 172.274952 
L 131.981005 171.290409 
L 133.229049 169.824358 
L 134.385774 168.767922 
L 135.572938 165.994634 
L 136.790542 162.67405 
L 138.008147 160.007983 
L 140.443356 157.35518 
L 142.756804 153.229521 
L 144.004849 151.899838 
L 145.192013 148.834249 
L 146.409617 147.378211 
L 147.566342 145.392624 
L 148.783946 144.351215 
L 149.94067 142.947286 
L 151.158275 142.666013 
L 152.284559 141.652523 
L 153.471723 139.476187 
L 154.780648 137.479317 
L 155.906932 135.25474 
L 160.686029 122.812334 
L 165.404246 110.197061 
L 166.621851 108.439036 
L 167.809015 105.89081 
L 168.996179 103.852229 
L 171.340068 96.956763 
L 173.653516 91.728376 
L 174.871121 88.44411 
L 176.058285 85.732048 
L 178.432614 81.059144 
L 179.650218 77.269199 
L 183.181271 69.573098 
L 184.459756 67.746368 
L 185.61648 65.61758 
L 186.894965 63.643338 
L 187.990808 62.234801 
L 190.365137 60.515889 
L 191.552301 60.066975 
L 192.709026 60.719947 
L 193.92663 61.71121 
L 195.144235 63.482521 
L 196.300959 65.429132 
L 197.427243 67.918229 
L 199.832012 74.185637 
L 202.1759 82.892343 
L 204.550229 92.328399 
L 206.954997 100.127252 
L 208.111722 104.377258 
L 209.238006 109.05961 
L 210.45561 113.518338 
L 211.703655 117.100934 
L 212.860379 121.347462 
L 216.421872 131.9908 
L 217.609036 133.035043 
L 218.73532 134.820768 
L 219.952925 137.165718 
L 222.296813 142.4548 
L 223.544858 144.455576 
L 224.732022 147.532534 
L 225.888746 151.551374 
L 227.075911 152.892413 
L 228.263075 154.652309 
L 231.824568 153.983643 
L 233.011732 154.219735 
L 234.168456 153.889249 
L 235.355621 153.914418 
L 236.573225 156.013818 
L 237.729949 157.661435 
L 238.886674 156.950904 
L 241.261002 160.154353 
L 242.387286 159.909664 
L 243.604891 162.385936 
L 244.883375 162.047553 
L 246.0401 162.636411 
L 247.196824 164.077245 
L 248.383988 165.168666 
L 249.540712 165.551453 
L 250.758317 164.974247 
L 251.945481 166.794056 
L 253.102205 167.2295 
L 254.31981 168.87015 
L 255.537414 171.445341 
L 256.724578 170.964115 
L 257.850863 173.714669 
L 259.129347 174.640252 
L 260.225191 175.054634 
L 261.412355 174.683567 
L 262.6604 172.863444 
L 263.817124 173.595651 
L 264.973848 171.453257 
L 266.130573 171.164285 
L 267.409057 172.956538 
L 270.90967 177.041354 
L 272.096834 177.756468 
L 273.314439 177.671993 
L 274.562483 177.154202 
L 275.749648 178.29247 
L 276.997692 177.65052 
L 278.123976 177.738969 
L 279.372021 179.618555 
L 280.528745 179.514265 
L 281.655029 178.374621 
L 282.872633 178.319804 
L 284.029358 176.475333 
L 285.246962 176.545393 
L 286.464567 176.420157 
L 288.778015 180.266886 
L 289.965179 181.965533 
L 291.152344 183.39519 
L 292.369948 184.214387 
L 293.435352 184.237929 
L 294.683396 184.140624 
L 295.840121 184.527043 
L 297.057725 185.362328 
L 298.244889 185.130144 
L 299.432054 185.078611 
L 300.680098 185.413407 
L 301.775942 186.145549 
L 302.963107 184.351676 
L 304.180711 183.021136 
L 305.337435 182.222959 
L 306.524599 182.103865 
L 307.711764 182.585911 
L 308.898928 183.371252 
L 310.025212 182.250014 
L 311.242817 180.848634 
L 312.429981 182.522964 
L 313.617145 183.670724 
L 314.743429 183.092183 
L 315.930594 182.682607 
L 317.148198 181.977129 
L 318.365803 183.212357 
L 319.552967 182.856639 
L 320.679251 183.179395 
L 321.866415 180.95665 
L 323.05358 180.263305 
L 324.240744 179.067094 
L 325.427908 178.034569 
L 326.645513 174.880087 
L 327.771797 173.078098 
L 329.019841 172.593413 
L 330.176565 173.123665 
L 331.36373 174.278914 
L 332.520454 175.911567 
L 335.229624 177.50222 
L 336.416788 175.857001 
L 337.664833 176.722164 
L 338.912877 176.120637 
L 340.039161 175.736659 
L 341.287206 176.609637 
L 342.47437 177.143038 
L 343.661534 179.269451 
L 344.787819 178.086723 
L 346.005423 177.560219 
L 347.223027 178.167304 
L 348.379752 176.034365 
L 349.536476 176.051793 
L 350.6932 176.943946 
L 351.910804 177.540461 
L 353.067529 178.990694 
L 355.472297 184.141486 
L 356.568141 183.955075 
L 357.846626 186.953506 
L 359.00335 186.453739 
L 360.190515 182.821895 
L 361.408119 180.565504 
L 362.473523 181.010081 
L 363.752008 180.557637 
L 364.939172 180.811898 
L 366.095896 182.657275 
L 367.3135 183.860063 
L 368.470225 183.722794 
L 369.687829 185.897727 
L 370.844553 186.075918 
L 372.001278 184.850662 
L 373.310202 182.163112 
L 374.436486 181.300688 
L 375.623651 179.941756 
L 376.749935 180.689204 
L 377.906659 180.890621 
L 379.154704 180.562259 
L 380.341868 178.18694 
L 381.559472 177.937483 
L 382.655316 179.077112 
L 387.251773 169.038904 
L 388.530258 167.03861 
L 389.747862 164.546842 
L 390.874146 162.989261 
L 393.187595 159.512609 
L 394.526959 159.938277 
L 395.927205 159.655345 
L 397.266569 157.941976 
L 398.484174 156.625037 
L 399.701778 155.580364 
L 400.828062 154.015655 
L 403.141511 148.630442 
L 404.328675 146.672493 
L 406.794324 140.551445 
L 407.859728 138.896096 
L 410.203616 130.959792 
L 411.451661 127.819533 
L 412.730146 123.777772 
L 414.921834 114.977567 
L 416.230758 112.235707 
L 417.296162 109.264281 
L 419.761811 103.558876 
L 420.979416 99.724718 
L 423.323304 90.396898 
L 424.601789 84.986544 
L 425.423672 79.167645 
L 425.423672 79.167645 
" clip-path="url(#pd318cc2ad6)" style="fill: none; stroke: #0033ff; stroke-width: 2.5; stroke-linecap: square"/>
   </g>
   <g id="line2d_49">
    <path d="M 69.091736 165.485975 
L 69.152616 167.612087 
L 69.152616 167.006304 
L 69.243937 167.588529 
L 69.730979 168.808549 
L 71.192104 170.268774 
L 75.5146 175.024752 
L 77.371446 174.548102 
L 78.954332 172.682293 
L 80.232817 171.79359 
L 81.328661 169.696673 
L 83.550789 170.619533 
L 84.707513 171.720727 
L 85.894677 173.425193 
L 87.051401 174.001554 
L 88.269006 173.138435 
L 89.48661 170.631496 
L 90.673775 170.053957 
L 91.800059 170.551673 
L 92.987223 169.586595 
L 94.204828 169.906815 
L 95.361552 169.875887 
L 96.670476 172.022506 
L 97.948961 173.042398 
L 99.288326 173.349352 
L 100.50593 174.527178 
L 101.723535 174.084778 
L 102.941139 175.304274 
L 104.097863 175.18132 
L 105.285028 172.910692 
L 106.472192 171.423781 
L 108.876961 172.870837 
L 110.094565 170.425896 
L 111.251289 167.735237 
L 112.438454 167.71191 
L 113.625618 165.514479 
L 114.812782 165.83963 
L 116.030387 164.726186 
L 117.217551 163.009035 
L 118.374275 162.121548 
L 119.500559 162.611032 
L 120.779044 161.596511 
L 121.966208 158.946023 
L 123.092493 157.747866 
L 125.436381 153.706849 
L 126.714866 152.826129 
L 127.87159 148.694083 
L 129.089194 146.098362 
L 130.276359 144.706765 
L 131.433083 144.401316 
L 132.559367 143.503058 
L 134.933696 142.113159 
L 138.647389 135.390319 
L 139.834553 132.032152 
L 141.052158 129.532875 
L 142.178442 127.637942 
L 143.365606 125.950555 
L 144.552771 125.835392 
L 145.770375 124.494003 
L 146.987979 123.72614 
L 148.175144 123.416435 
L 149.362308 122.606681 
L 150.549472 120.572043 
L 151.706197 118.292476 
L 152.862921 115.28877 
L 155.206809 108.390941 
L 156.515734 105.490673 
L 157.702898 101.50733 
L 161.233951 92.073859 
L 163.63872 84.259612 
L 164.825884 80.841576 
L 165.952168 77.113855 
L 167.108893 73.671938 
L 169.574542 67.835157 
L 171.85755 60.059047 
L 174.262319 51.745207 
L 177.823812 41.820151 
L 178.980536 39.077563 
L 181.385304 34.795432 
L 183.729193 29.4607 
L 184.977238 27.218571 
L 186.194842 25.913746 
L 187.351566 24.349499 
L 188.50829 23.456567 
L 190.913059 22.048568 
L 193.226508 21.006176 
L 194.383232 20.50103 
L 195.631276 20.933257 
L 196.818441 21.828334 
L 197.944725 23.518903 
L 199.223209 25.009276 
L 200.379934 27.884469 
L 202.754262 31.419519 
L 203.941426 32.710679 
L 205.098151 34.19045 
L 206.346195 36.639392 
L 207.53336 40.354383 
L 208.720524 44.875359 
L 211.094853 57.538723 
L 212.251577 65.331097 
L 214.656345 77.115317 
L 215.84351 80.437874 
L 217.000234 83.031454 
L 218.126518 86.073882 
L 219.313682 88.627011 
L 220.531287 90.683699 
L 221.718451 93.40919 
L 222.905615 94.848931 
L 224.09278 97.880233 
L 225.279944 99.430688 
L 226.436668 99.913798 
L 227.623833 100.876861 
L 228.810997 100.823086 
L 230.028601 102.035215 
L 232.37249 103.026593 
L 233.559654 104.952557 
L 234.746818 106.117967 
L 235.933983 108.702773 
L 237.090707 110.312014 
L 238.277871 111.704443 
L 239.465036 113.778723 
L 240.62176 113.817217 
L 241.839364 114.87949 
L 243.026529 115.074203 
L 244.152813 115.537258 
L 245.370417 115.808888 
L 246.557581 116.309321 
L 247.775186 115.706105 
L 248.96235 116.460722 
L 250.119074 116.375255 
L 251.306239 117.107968 
L 252.493403 117.508846 
L 253.680567 118.709828 
L 254.867732 119.716322 
L 256.054896 120.132396 
L 257.2725 120.708979 
L 258.429225 120.598036 
L 259.585949 119.120802 
L 260.803553 119.548922 
L 261.960277 118.756396 
L 263.147442 119.962088 
L 264.365046 119.382019 
L 266.739375 119.239176 
L 267.896099 119.737474 
L 270.300868 122.990895 
L 271.457592 124.778364 
L 272.675196 127.02115 
L 273.923241 128.009705 
L 275.110405 130.994384 
L 276.29757 130.648493 
L 277.545614 130.637369 
L 278.671898 131.106597 
L 279.889503 131.76397 
L 281.076667 132.840077 
L 282.233391 132.993852 
L 283.420555 133.425384 
L 284.60772 133.496736 
L 285.764444 132.808821 
L 286.951608 133.625866 
L 288.169213 134.756903 
L 289.325937 135.358197 
L 290.543541 136.410477 
L 292.91787 138.732698 
L 294.105034 139.089288 
L 295.231318 141.006908 
L 296.448923 143.523253 
L 297.666527 144.869766 
L 298.792811 146.39971 
L 300.040856 148.422266 
L 301.16714 148.77677 
L 302.384744 147.044099 
L 303.541469 146.373167 
L 304.728633 146.305388 
L 305.885357 147.019754 
L 307.072521 148.437164 
L 308.259686 151.007958 
L 309.44685 151.380571 
L 310.664455 153.558351 
L 312.977903 154.948651 
L 314.195507 153.385673 
L 315.382672 153.994859 
L 316.569836 155.052866 
L 318.883284 154.065979 
L 320.040009 155.481517 
L 321.288053 156.781318 
L 322.444777 157.476651 
L 323.571061 157.708662 
L 325.91495 161.401184 
L 327.162995 163.506334 
L 328.350159 163.102003 
L 329.537323 161.930764 
L 330.663607 160.520177 
L 331.911652 160.443483 
L 333.129256 161.571286 
L 334.529501 160.536845 
L 335.838426 160.564137 
L 337.086471 162.07376 
L 338.273635 162.748594 
L 340.678404 160.666289 
L 341.865568 160.47356 
L 342.961412 161.18358 
L 344.239897 162.263371 
L 345.396621 163.592011 
L 347.80139 162.061591 
L 350.053958 162.14694 
L 351.271562 159.920278 
L 352.397846 159.780041 
L 353.645891 160.29684 
L 354.802615 161.469199 
L 355.989779 160.703376 
L 357.268264 158.342662 
L 358.394548 155.728003 
L 359.551272 153.90676 
L 360.768877 153.145779 
L 361.925601 151.371245 
L 364.239049 146.969072 
L 367.830982 138.953619 
L 369.048587 136.953721 
L 370.266191 135.391082 
L 371.362035 135.623917 
L 372.57964 136.459244 
L 373.858124 137.550774 
L 374.893088 141.108248 
L 377.297857 145.261935 
L 378.454581 148.205052 
L 379.702626 150.558302 
L 380.85935 151.198621 
L 382.016074 150.206359 
L 383.264118 150.163899 
L 384.359962 149.564865 
L 385.516687 150.377866 
L 386.795171 151.696134 
L 387.860575 152.503723 
L 389.10862 151.911754 
L 390.326224 152.878671 
L 391.422068 152.777359 
L 392.639673 150.955729 
L 393.796397 149.951817 
L 395.196642 149.561339 
L 396.596887 147.898216 
L 398.910335 143.678707 
L 400.18882 141.550555 
L 401.436865 138.124504 
L 402.593589 136.399062 
L 403.811193 134.25643 
L 404.937477 130.710896 
L 406.185522 129.564551 
L 407.220486 127.406955 
L 408.49897 123.806895 
L 409.594814 121.498645 
L 410.934179 119.904009 
L 411.908263 117.758891 
L 413.156307 114.363451 
L 414.434792 110.074494 
L 415.469756 105.572511 
L 417.904964 98.064732 
L 420.309733 90.468696 
L 422.623182 83.732949 
L 423.901666 80.198978 
L 424.99751 76.475017 
L 424.99751 76.475017 
" clip-path="url(#pd318cc2ad6)" style="fill: none; stroke: #ff7f0e; stroke-width: 2.5; stroke-linecap: square"/>
   </g>
   <g id="line2d_50">
    <path d="M 78.832572 211.15829 
L 78.771691 218.603696 
L 78.771691 207.137079 
L 78.832572 209.619957 
L 79.410934 211.651259 
L 80.932939 214.135869 
L 83.094187 214.510265 
L 85.285875 216.931129 
L 87.203602 217.537547 
L 88.695167 218.7347 
L 89.912772 216.54509 
L 91.069496 217.163706 
L 92.10446 218.916219 
L 93.291624 216.38984 
L 94.387468 214.653894 
L 95.605073 215.079209 
L 96.883557 216.621086 
L 98.131602 217.057655 
L 99.410086 214.959108 
L 100.658131 212.634518 
L 101.875735 212.06287 
L 103.12378 211.140178 
L 104.250064 211.300357 
L 105.467668 209.778843 
L 106.624393 206.817977 
L 107.841997 207.010685 
L 109.059602 208.131583 
L 110.246766 208.328857 
L 111.37305 207.515445 
L 112.560214 206.961605 
L 113.777819 207.41022 
L 115.025863 204.698922 
L 116.243468 204.860999 
L 117.339312 204.838074 
L 118.617796 201.775498 
L 119.804961 200.259549 
L 120.992125 199.454107 
L 122.179289 197.972877 
L 123.305573 195.157859 
L 124.492738 191.695303 
L 125.740782 187.429569 
L 126.897506 184.75402 
L 129.271835 178.32054 
L 131.646164 171.082188 
L 132.802888 168.791563 
L 134.020492 163.982924 
L 138.89091 149.001281 
L 141.204358 138.834481 
L 145.953016 124.564818 
L 147.17062 121.451307 
L 148.357784 119.227654 
L 149.544949 117.428722 
L 154.324046 104.457229 
L 156.698375 96.632275 
L 157.915979 93.891248 
L 159.072703 90.06268 
L 162.664636 83.449873 
L 163.851801 81.239559 
L 164.978085 79.489711 
L 166.195689 77.815844 
L 167.382854 75.310307 
L 169.757182 67.987547 
L 170.944347 63.883625 
L 174.475399 56.227422 
L 175.693004 53.960521 
L 176.910608 52.48317 
L 178.158653 50.462054 
L 179.284937 48.063539 
L 181.628825 42.487198 
L 182.84643 40.623229 
L 185.281639 38.656146 
L 186.407923 37.695723 
L 191.18702 32.347001 
L 192.404625 31.34999 
L 193.530909 31.240765 
L 194.718073 32.160691 
L 195.905237 33.633769 
L 198.279566 38.243821 
L 199.46673 40.621788 
L 206.589716 57.722206 
L 207.77688 59.812191 
L 208.933605 62.579297 
L 211.307933 68.95234 
L 214.869426 79.483787 
L 217.243755 85.666703 
L 218.400479 89.423188 
L 219.587643 91.44674 
L 220.744368 94.328784 
L 223.118696 99.563427 
L 226.710629 104.140237 
L 227.897794 105.218894 
L 230.241682 109.731993 
L 232.585571 112.274719 
L 234.990339 116.702754 
L 236.177504 117.527535 
L 237.303788 118.717166 
L 238.490952 119.654074 
L 239.738997 119.473723 
L 240.834841 121.390411 
L 242.052445 121.879325 
L 243.239609 121.68038 
L 244.426774 121.893984 
L 247.896946 125.86388 
L 249.084111 127.649298 
L 250.362595 129.066954 
L 251.519319 130.897102 
L 252.706484 133.791468 
L 253.863208 134.175356 
L 255.080812 136.163227 
L 257.546461 136.664816 
L 258.703186 137.711277 
L 259.89035 138.143043 
L 262.234238 139.446389 
L 264.608567 142.334145 
L 265.826171 144.696759 
L 266.952456 148.049778 
L 269.387664 149.782228 
L 270.483508 151.23861 
L 271.670673 150.015437 
L 272.918717 149.929708 
L 274.136322 149.235583 
L 275.384366 148.734672 
L 276.54109 149.281529 
L 277.758695 150.93515 
L 278.915419 153.066683 
L 280.133024 154.571336 
L 281.350628 155.111273 
L 282.476912 156.211225 
L 283.694516 155.213668 
L 284.820801 155.607023 
L 286.068845 155.838025 
L 287.195129 157.534979 
L 288.382294 159.778991 
L 289.630338 161.236628 
L 290.817502 163.229574 
L 291.943786 163.342092 
L 293.191831 163.713984 
L 294.378995 165.074376 
L 295.53572 164.217856 
L 296.692444 164.193356 
L 297.849168 164.519284 
L 299.066772 164.65897 
L 300.223497 164.242237 
L 302.628265 165.102385 
L 303.78499 164.702253 
L 305.002594 165.039247 
L 307.376923 168.212843 
L 309.690371 169.974201 
L 310.847095 168.857013 
L 312.09514 168.003991 
L 313.221424 169.318495 
L 314.439028 169.3854 
L 315.595752 167.356183 
L 316.752477 167.129547 
L 317.939641 168.694387 
L 319.126805 169.927619 
L 320.37485 169.5483 
L 321.501134 170.455091 
L 322.718738 170.005682 
L 323.875463 168.790513 
L 325.062627 170.969189 
L 326.280231 170.723273 
L 327.436956 168.600558 
L 328.59368 168.922533 
L 329.780844 170.759567 
L 330.968008 170.457848 
L 332.094292 169.526073 
L 333.342337 169.704346 
L 334.833902 170.275049 
L 336.021067 170.082364 
L 337.329991 171.133378 
L 339.70432 166.429907 
L 342.109089 165.72863 
L 344.452977 161.607608 
L 345.609702 158.996511 
L 346.735986 158.469763 
L 347.98403 157.409528 
L 349.171195 154.957296 
L 350.358359 151.985653 
L 351.545523 149.931171 
L 352.641367 148.653379 
L 353.889412 147.856574 
L 355.137456 146.817732 
L 356.20286 146.820741 
L 357.450905 147.471083 
L 358.607629 150.522296 
L 359.825233 153.180785 
L 361.012398 154.515426 
L 362.199562 156.41094 
L 363.417166 156.206172 
L 365.700175 160.280182 
L 368.135383 161.425251 
L 369.413868 161.437285 
L 370.479272 161.772653 
L 371.605556 161.489232 
L 372.823161 159.99955 
L 374.040765 159.95922 
L 375.227929 160.224643 
L 377.602258 162.942159 
L 378.698102 164.027572 
L 379.854826 163.347319 
L 381.04199 162.315434 
L 382.229155 162.884014 
L 384.633923 158.500493 
L 385.760208 156.954423 
L 386.977812 155.642961 
L 388.256297 153.585989 
L 390.508865 153.052401 
L 391.696029 153.999581 
L 392.974514 153.725681 
L 394.131238 155.037298 
L 396.840408 155.231538 
L 398.088452 153.209741 
L 399.275617 150.47533 
L 400.371461 147.307295 
L 401.710826 145.446794 
L 402.80667 142.336764 
L 403.963394 139.996784 
L 405.089678 136.462823 
L 406.429043 132.973797 
L 407.616207 130.52993 
L 408.742491 127.277018 
L 409.838335 124.46954 
L 413.491148 118.271987 
L 415.865477 113.20049 
L 416.961321 108.229449 
L 420.553254 96.576742 
L 421.770858 92.289018 
L 424.206067 82.867339 
L 425.149711 77.739454 
L 425.149711 77.739454 
" clip-path="url(#pd318cc2ad6)" style="fill: none; stroke: #ff0000; stroke-width: 2.5; stroke-linecap: square"/>
   </g>
   <g id="patch_3">
    <path d="M 60.598945 299.822656 
L 60.598945 7.2 
" style="fill: none; stroke: #000000; stroke-width: 1.5; stroke-linejoin: miter; stroke-linecap: square"/>
   </g>
   <g id="patch_4">
    <path d="M 60.598945 299.822656 
L 425.880273 299.822656 
" style="fill: none; stroke: #000000; stroke-width: 1.5; stroke-linejoin: miter; stroke-linecap: square"/>
   </g>
   <g id="legend_1">
    <g id="line2d_51">
     <path d="M 71.398945 22.536328 
L 83.398945 22.536328 
L 95.398945 22.536328 
" style="fill: none; stroke: #000000; stroke-width: 2.5; stroke-linecap: square"/>
    </g>
    <g id="text_12">
     <!-- vacuum -->
     <g transform="translate(104.998945 26.736328) scale(0.12 -0.12)">
      <defs>
       <path id="ArialMT-59" d="M 1344 0 
L 81 3319 
L 675 3319 
L 1388 1331 
Q 1503 1009 1600 663 
Q 1675 925 1809 1294 
L 2547 3319 
L 3125 3319 
L 1869 0 
L 1344 0 
z
" transform="scale(0.015625)"/>
       <path id="ArialMT-46" d="M 2588 1216 
L 3141 1144 
Q 3050 572 2676 248 
Q 2303 -75 1759 -75 
Q 1078 -75 664 370 
Q 250 816 250 1647 
Q 250 2184 428 2587 
Q 606 2991 970 3192 
Q 1334 3394 1763 3394 
Q 2303 3394 2647 3120 
Q 2991 2847 3088 2344 
L 2541 2259 
Q 2463 2594 2264 2762 
Q 2066 2931 1784 2931 
Q 1359 2931 1093 2626 
Q 828 2322 828 1663 
Q 828 994 1084 691 
Q 1341 388 1753 388 
Q 2084 388 2306 591 
Q 2528 794 2588 1216 
z
" transform="scale(0.015625)"/>
      </defs>
      <use xlink:href="#ArialMT-59"/>
      <use xlink:href="#ArialMT-44" transform="translate(50 0)"/>
      <use xlink:href="#ArialMT-46" transform="translate(105.609375 0)"/>
      <use xlink:href="#ArialMT-58" transform="translate(155.609375 0)"/>
      <use xlink:href="#ArialMT-58" transform="translate(211.21875 0)"/>
      <use xlink:href="#ArialMT-50" transform="translate(266.828125 0)"/>
     </g>
    </g>
    <g id="line2d_52">
     <path d="M 71.398945 39.798047 
L 83.398945 39.798047 
L 95.398945 39.798047 
" style="fill: none; stroke: #1f77b4; stroke-width: 2.5; stroke-linecap: square"/>
    </g>
    <g id="text_13">
     <!-- 1h -->
     <g transform="translate(104.998945 43.998047) scale(0.12 -0.12)">
      <defs>
       <path id="ArialMT-4b" d="M 422 0 
L 422 4581 
L 984 4581 
L 984 2938 
Q 1378 3394 1978 3394 
Q 2347 3394 2619 3248 
Q 2891 3103 3008 2847 
Q 3125 2591 3125 2103 
L 3125 0 
L 2563 0 
L 2563 2103 
Q 2563 2525 2380 2717 
Q 2197 2909 1863 2909 
Q 1613 2909 1392 2779 
Q 1172 2650 1078 2428 
Q 984 2206 984 1816 
L 984 0 
L 422 0 
z
" transform="scale(0.015625)"/>
      </defs>
      <use xlink:href="#ArialMT-14"/>
      <use xlink:href="#ArialMT-4b" transform="translate(55.609375 0)"/>
     </g>
    </g>
    <g id="line2d_53">
     <path d="M 71.398945 57.059766 
L 83.398945 57.059766 
L 95.398945 57.059766 
" style="fill: none; stroke: #0033ff; stroke-width: 2.5; stroke-linecap: square"/>
    </g>
    <g id="text_14">
     <!-- 2h -->
     <g transform="translate(104.998945 61.259766) scale(0.12 -0.12)">
      <use xlink:href="#ArialMT-15"/>
      <use xlink:href="#ArialMT-4b" transform="translate(55.609375 0)"/>
     </g>
    </g>
    <g id="line2d_54">
     <path d="M 71.398945 74.321484 
L 83.398945 74.321484 
L 95.398945 74.321484 
" style="fill: none; stroke: #ff7f0e; stroke-width: 2.5; stroke-linecap: square"/>
    </g>
    <g id="text_15">
     <!-- 4h -->
     <g transform="translate(104.998945 78.521484) scale(0.12 -0.12)">
      <use xlink:href="#ArialMT-17"/>
      <use xlink:href="#ArialMT-4b" transform="translate(55.609375 0)"/>
     </g>
    </g>
    <g id="line2d_55">
     <path d="M 71.398945 91.583203 
L 83.398945 91.583203 
L 95.398945 91.583203 
" style="fill: none; stroke: #ff0000; stroke-width: 2.5; stroke-linecap: square"/>
    </g>
    <g id="text_16">
     <!-- first -->
     <g transform="translate(104.998945 95.783203) scale(0.12 -0.12)">
      <defs>
       <path id="ArialMT-49" d="M 556 0 
L 556 2881 
L 59 2881 
L 59 3319 
L 556 3319 
L 556 3672 
Q 556 4006 616 4169 
Q 697 4388 901 4523 
Q 1106 4659 1475 4659 
Q 1713 4659 2000 4603 
L 1916 4113 
Q 1741 4144 1584 4144 
Q 1328 4144 1222 4034 
Q 1116 3925 1116 3625 
L 1116 3319 
L 1763 3319 
L 1763 2881 
L 1116 2881 
L 1116 0 
L 556 0 
z
" transform="scale(0.015625)"/>
       <path id="ArialMT-4c" d="M 425 3934 
L 425 4581 
L 988 4581 
L 988 3934 
L 425 3934 
z
M 425 0 
L 425 3319 
L 988 3319 
L 988 0 
L 425 0 
z
" transform="scale(0.015625)"/>
       <path id="ArialMT-56" d="M 197 991 
L 753 1078 
Q 800 744 1014 566 
Q 1228 388 1613 388 
Q 2000 388 2187 545 
Q 2375 703 2375 916 
Q 2375 1106 2209 1216 
Q 2094 1291 1634 1406 
Q 1016 1563 777 1677 
Q 538 1791 414 1992 
Q 291 2194 291 2438 
Q 291 2659 392 2848 
Q 494 3038 669 3163 
Q 800 3259 1026 3326 
Q 1253 3394 1513 3394 
Q 1903 3394 2198 3281 
Q 2494 3169 2634 2976 
Q 2775 2784 2828 2463 
L 2278 2388 
Q 2241 2644 2061 2787 
Q 1881 2931 1553 2931 
Q 1166 2931 1000 2803 
Q 834 2675 834 2503 
Q 834 2394 903 2306 
Q 972 2216 1119 2156 
Q 1203 2125 1616 2013 
Q 2213 1853 2448 1751 
Q 2684 1650 2818 1456 
Q 2953 1263 2953 975 
Q 2953 694 2789 445 
Q 2625 197 2315 61 
Q 2006 -75 1616 -75 
Q 969 -75 630 194 
Q 291 463 197 991 
z
" transform="scale(0.015625)"/>
      </defs>
      <use xlink:href="#ArialMT-49"/>
      <use xlink:href="#ArialMT-4c" transform="translate(27.78125 0)"/>
      <use xlink:href="#ArialMT-55" transform="translate(50 0)"/>
      <use xlink:href="#ArialMT-56" transform="translate(83.296875 0)"/>
      <use xlink:href="#ArialMT-57" transform="translate(133.296875 0)"/>
     </g>
    </g>
   </g>
  </g>
 </g>
 <defs>
  <clipPath id="pd318cc2ad6">
   <rect x="60.598945" y="7.2" width="365.281328" height="292.622656"/>
  </clipPath>
 </defs>
</svg>
