<?xml version="1.0" encoding="utf-8" standalone="no"?>
<!DOCTYPE svg PUBLIC "-//W3C//DTD SVG 1.1//EN"
  "http://www.w3.org/Graphics/SVG/1.1/DTD/svg11.dtd">
<svg xmlns:xlink="http://www.w3.org/1999/xlink" width="448.650898pt" height="340.800273pt" viewBox="0 0 448.650898 340.800273" xmlns="http://www.w3.org/2000/svg" version="1.1">
 <metadata>
  <rdf:RDF xmlns:dc="http://purl.org/dc/elements/1.1/" xmlns:cc="http://creativecommons.org/ns#" xmlns:rdf="http://www.w3.org/1999/02/22-rdf-syntax-ns#">
   <cc:Work>
    <dc:type rdf:resource="http://purl.org/dc/dcmitype/StillImage"/>
    <dc:date>2026-07-09T17:08:34.720852</dc:date>
    <dc:format>image/svg+xml</dc:format>
    <dc:creator>
     <cc:Agent>
      <dc:title>Matplotlib v3.11.0, https://matplotlib.org/</dc:title>
     </cc:Agent>
    </dc:creator>
   </cc:Work>
  </rdf:RDF>
 </metadata>
 <defs>
  <style type="text/css">*{stroke-linejoin: round; stroke-linecap: butt}</style>
 </defs>
 <g id="figure_1">
  <g id="patch_1">
   <path d="M 0 340.800273 
L 448.650898 340.800273 
L 448.650898 0 
L 0 0 
z
" style="fill: #ffffff"/>
  </g>
  <g id="axes_1">
   <g id="patch_2">
    <path d="M 60.598945 299.822656 
L 425.880273 299.822656 
L 425.880273 7.2 
L 60.598945 7.2 
z
" style="fill: #ffffff"/>
   </g>
   <g id="matplotlib.axis_1">
    <g id="xtick_1">
     <g id="line2d_1">
      <defs>
       <path id="m22fb5a9373" d="M 0 0 
L 0 -6 
" style="stroke: #000000; stroke-width: 1.5"/>
      </defs>
      <g>
       <use xlink:href="#m22fb5a9373" x="60.598945" y="299.822656" style="stroke: #000000; stroke-width: 1.5"/>
      </g>
     </g>
     <g id="text_1">
      <!-- 0 -->
      <g transform="translate(56.706289 313.515039) scale(0.14 -0.14)">
       <defs>
        <path id="ArialMT-13" d="M 266 2259 
Q 266 3072 433 3567 
Q 600 4063 929 4331 
Q 1259 4600 1759 4600 
Q 2128 4600 2406 4451 
Q 2684 4303 2865 4023 
Q 3047 3744 3150 3342 
Q 3253 2941 3253 2259 
Q 3253 1453 3087 958 
Q 2922 463 2592 192 
Q 2263 -78 1759 -78 
Q 1097 -78 719 397 
Q 266 969 266 2259 
z
M 844 2259 
Q 844 1131 1108 757 
Q 1372 384 1759 384 
Q 2147 384 2411 759 
Q 2675 1134 2675 2259 
Q 2675 3391 2411 3762 
Q 2147 4134 1753 4134 
Q 1366 4134 1134 3806 
Q 844 3388 844 2259 
z
" transform="scale(0.015625)"/>
       </defs>
       <use xlink:href="#ArialMT-13"/>
      </g>
     </g>
    </g>
    <g id="xtick_2">
     <g id="line2d_2">
      <g>
       <use xlink:href="#m22fb5a9373" x="121.479167" y="299.822656" style="stroke: #000000; stroke-width: 1.5"/>
      </g>
     </g>
     <g id="text_2">
      <!-- 200 -->
      <g transform="translate(109.801198 313.515039) scale(0.14 -0.14)">
       <defs>
        <path id="ArialMT-15" d="M 3222 541 
L 3222 0 
L 194 0 
Q 188 203 259 391 
Q 375 700 629 1000 
Q 884 1300 1366 1694 
Q 2113 2306 2375 2664 
Q 2638 3022 2638 3341 
Q 2638 3675 2398 3904 
Q 2159 4134 1775 4134 
Q 1369 4134 1125 3890 
Q 881 3647 878 3216 
L 300 3275 
Q 359 3922 746 4261 
Q 1134 4600 1788 4600 
Q 2447 4600 2831 4234 
Q 3216 3869 3216 3328 
Q 3216 3053 3103 2787 
Q 2991 2522 2730 2228 
Q 2469 1934 1863 1422 
Q 1356 997 1212 845 
Q 1069 694 975 541 
L 3222 541 
z
" transform="scale(0.015625)"/>
       </defs>
       <use xlink:href="#ArialMT-15"/>
       <use xlink:href="#ArialMT-13" transform="translate(55.609375 0)"/>
       <use xlink:href="#ArialMT-13" transform="translate(111.21875 0)"/>
      </g>
     </g>
    </g>
    <g id="xtick_3">
     <g id="line2d_3">
      <g>
       <use xlink:href="#m22fb5a9373" x="182.359388" y="299.822656" style="stroke: #000000; stroke-width: 1.5"/>
      </g>
     </g>
     <g id="text_3">
      <!-- 400 -->
      <g transform="translate(170.681419 313.515039) scale(0.14 -0.14)">
       <defs>
        <path id="ArialMT-17" d="M 2069 0 
L 2069 1097 
L 81 1097 
L 81 1613 
L 2172 4581 
L 2631 4581 
L 2631 1613 
L 3250 1613 
L 3250 1097 
L 2631 1097 
L 2631 0 
L 2069 0 
z
M 2069 1613 
L 2069 3678 
L 634 1613 
L 2069 1613 
z
" transform="scale(0.015625)"/>
       </defs>
       <use xlink:href="#ArialMT-17"/>
       <use xlink:href="#ArialMT-13" transform="translate(55.609375 0)"/>
       <use xlink:href="#ArialMT-13" transform="translate(111.21875 0)"/>
      </g>
     </g>
    </g>
    <g id="xtick_4">
     <g id="line2d_4">
      <g>
       <use xlink:href="#m22fb5a9373" x="243.239609" y="299.822656" style="stroke: #000000; stroke-width: 1.5"/>
      </g>
     </g>
     <g id="text_4">
      <!-- 600 -->
      <g transform="translate(231.561641 313.515039) scale(0.14 -0.14)">
       <defs>
        <path id="ArialMT-19" d="M 3184 3459 
L 2625 3416 
Q 2550 3747 2413 3897 
Q 2184 4138 1850 4138 
Q 1581 4138 1378 3988 
Q 1113 3794 959 3422 
Q 806 3050 800 2363 
Q 1003 2672 1297 2822 
Q 1591 2972 1913 2972 
Q 2475 2972 2870 2558 
Q 3266 2144 3266 1488 
Q 3266 1056 3080 686 
Q 2894 316 2569 119 
Q 2244 -78 1831 -78 
Q 1128 -78 684 439 
Q 241 956 241 2144 
Q 241 3472 731 4075 
Q 1159 4600 1884 4600 
Q 2425 4600 2770 4297 
Q 3116 3994 3184 3459 
z
M 888 1484 
Q 888 1194 1011 928 
Q 1134 663 1356 523 
Q 1578 384 1822 384 
Q 2178 384 2434 671 
Q 2691 959 2691 1453 
Q 2691 1928 2437 2201 
Q 2184 2475 1800 2475 
Q 1419 2475 1153 2201 
Q 888 1928 888 1484 
z
" transform="scale(0.015625)"/>
       </defs>
       <use xlink:href="#ArialMT-19"/>
       <use xlink:href="#ArialMT-13" transform="translate(55.609375 0)"/>
       <use xlink:href="#ArialMT-13" transform="translate(111.21875 0)"/>
      </g>
     </g>
    </g>
    <g id="xtick_5">
     <g id="line2d_5">
      <g>
       <use xlink:href="#m22fb5a9373" x="304.119831" y="299.822656" style="stroke: #000000; stroke-width: 1.5"/>
      </g>
     </g>
     <g id="text_5">
      <!-- 800 -->
      <g transform="translate(292.441862 313.515039) scale(0.14 -0.14)">
       <defs>
        <path id="ArialMT-1b" d="M 1131 2484 
Q 781 2613 612 2850 
Q 444 3088 444 3419 
Q 444 3919 803 4259 
Q 1163 4600 1759 4600 
Q 2359 4600 2725 4251 
Q 3091 3903 3091 3403 
Q 3091 3084 2923 2848 
Q 2756 2613 2416 2484 
Q 2838 2347 3058 2040 
Q 3278 1734 3278 1309 
Q 3278 722 2862 322 
Q 2447 -78 1769 -78 
Q 1091 -78 675 323 
Q 259 725 259 1325 
Q 259 1772 486 2073 
Q 713 2375 1131 2484 
z
M 1019 3438 
Q 1019 3113 1228 2906 
Q 1438 2700 1772 2700 
Q 2097 2700 2305 2904 
Q 2513 3109 2513 3406 
Q 2513 3716 2298 3927 
Q 2084 4138 1766 4138 
Q 1444 4138 1231 3931 
Q 1019 3725 1019 3438 
z
M 838 1322 
Q 838 1081 952 856 
Q 1066 631 1291 507 
Q 1516 384 1775 384 
Q 2178 384 2440 643 
Q 2703 903 2703 1303 
Q 2703 1709 2433 1975 
Q 2163 2241 1756 2241 
Q 1359 2241 1098 1978 
Q 838 1716 838 1322 
z
" transform="scale(0.015625)"/>
       </defs>
       <use xlink:href="#ArialMT-1b"/>
       <use xlink:href="#ArialMT-13" transform="translate(55.609375 0)"/>
       <use xlink:href="#ArialMT-13" transform="translate(111.21875 0)"/>
      </g>
     </g>
    </g>
    <g id="xtick_6">
     <g id="line2d_6">
      <g>
       <use xlink:href="#m22fb5a9373" x="365.000052" y="299.822656" style="stroke: #000000; stroke-width: 1.5"/>
      </g>
     </g>
     <g id="text_6">
      <!-- 1000 -->
      <g transform="translate(349.429427 313.515039) scale(0.14 -0.14)">
       <defs>
        <path id="ArialMT-14" d="M 2384 0 
L 1822 0 
L 1822 3584 
Q 1619 3391 1289 3197 
Q 959 3003 697 2906 
L 697 3450 
Q 1169 3672 1522 3987 
Q 1875 4303 2022 4600 
L 2384 4600 
L 2384 0 
z
" transform="scale(0.015625)"/>
       </defs>
       <use xlink:href="#ArialMT-14"/>
       <use xlink:href="#ArialMT-13" transform="translate(55.609375 0)"/>
       <use xlink:href="#ArialMT-13" transform="translate(111.21875 0)"/>
       <use xlink:href="#ArialMT-13" transform="translate(166.828125 0)"/>
      </g>
     </g>
    </g>
    <g id="xtick_7">
     <g id="line2d_7">
      <g>
       <use xlink:href="#m22fb5a9373" x="425.880273" y="299.822656" style="stroke: #000000; stroke-width: 1.5"/>
      </g>
     </g>
     <g id="text_7">
      <!-- 1200 -->
      <g transform="translate(410.309648 313.515039) scale(0.14 -0.14)">
       <use xlink:href="#ArialMT-14"/>
       <use xlink:href="#ArialMT-15" transform="translate(55.609375 0)"/>
       <use xlink:href="#ArialMT-13" transform="translate(111.21875 0)"/>
       <use xlink:href="#ArialMT-13" transform="translate(166.828125 0)"/>
      </g>
     </g>
    </g>
    <g id="xtick_8">
     <g id="line2d_8">
      <defs>
       <path id="m08c4c3768c" d="M 0 0 
L 0 -3 
" style="stroke: #000000"/>
      </defs>
      <g>
       <use xlink:href="#m08c4c3768c" x="75.819001" y="299.822656" style="stroke: #000000"/>
      </g>
     </g>
    </g>
    <g id="xtick_9">
     <g id="line2d_9">
      <g>
       <use xlink:href="#m08c4c3768c" x="91.039056" y="299.822656" style="stroke: #000000"/>
      </g>
     </g>
    </g>
    <g id="xtick_10">
     <g id="line2d_10">
      <g>
       <use xlink:href="#m08c4c3768c" x="106.259111" y="299.822656" style="stroke: #000000"/>
      </g>
     </g>
    </g>
    <g id="xtick_11">
     <g id="line2d_11">
      <g>
       <use xlink:href="#m08c4c3768c" x="136.699222" y="299.822656" style="stroke: #000000"/>
      </g>
     </g>
    </g>
    <g id="xtick_12">
     <g id="line2d_12">
      <g>
       <use xlink:href="#m08c4c3768c" x="151.919277" y="299.822656" style="stroke: #000000"/>
      </g>
     </g>
    </g>
    <g id="xtick_13">
     <g id="line2d_13">
      <g>
       <use xlink:href="#m08c4c3768c" x="167.139333" y="299.822656" style="stroke: #000000"/>
      </g>
     </g>
    </g>
    <g id="xtick_14">
     <g id="line2d_14">
      <g>
       <use xlink:href="#m08c4c3768c" x="197.579443" y="299.822656" style="stroke: #000000"/>
      </g>
     </g>
    </g>
    <g id="xtick_15">
     <g id="line2d_15">
      <g>
       <use xlink:href="#m08c4c3768c" x="212.799499" y="299.822656" style="stroke: #000000"/>
      </g>
     </g>
    </g>
    <g id="xtick_16">
     <g id="line2d_16">
      <g>
       <use xlink:href="#m08c4c3768c" x="228.019554" y="299.822656" style="stroke: #000000"/>
      </g>
     </g>
    </g>
    <g id="xtick_17">
     <g id="line2d_17">
      <g>
       <use xlink:href="#m08c4c3768c" x="258.459665" y="299.822656" style="stroke: #000000"/>
      </g>
     </g>
    </g>
    <g id="xtick_18">
     <g id="line2d_18">
      <g>
       <use xlink:href="#m08c4c3768c" x="273.67972" y="299.822656" style="stroke: #000000"/>
      </g>
     </g>
    </g>
    <g id="xtick_19">
     <g id="line2d_19">
      <g>
       <use xlink:href="#m08c4c3768c" x="288.899775" y="299.822656" style="stroke: #000000"/>
      </g>
     </g>
    </g>
    <g id="xtick_20">
     <g id="line2d_20">
      <g>
       <use xlink:href="#m08c4c3768c" x="319.339886" y="299.822656" style="stroke: #000000"/>
      </g>
     </g>
    </g>
    <g id="xtick_21">
     <g id="line2d_21">
      <g>
       <use xlink:href="#m08c4c3768c" x="334.559941" y="299.822656" style="stroke: #000000"/>
      </g>
     </g>
    </g>
    <g id="xtick_22">
     <g id="line2d_22">
      <g>
       <use xlink:href="#m08c4c3768c" x="349.779997" y="299.822656" style="stroke: #000000"/>
      </g>
     </g>
    </g>
    <g id="xtick_23">
     <g id="line2d_23">
      <g>
       <use xlink:href="#m08c4c3768c" x="380.220107" y="299.822656" style="stroke: #000000"/>
      </g>
     </g>
    </g>
    <g id="xtick_24">
     <g id="line2d_24">
      <g>
       <use xlink:href="#m08c4c3768c" x="395.440163" y="299.822656" style="stroke: #000000"/>
      </g>
     </g>
    </g>
    <g id="xtick_25">
     <g id="line2d_25">
      <g>
       <use xlink:href="#m08c4c3768c" x="410.660218" y="299.822656" style="stroke: #000000"/>
      </g>
     </g>
    </g>
    <g id="text_8">
     <!-- T1 Temperature (°C) -->
     <g transform="translate(179.500234 330.653711) scale(0.14 -0.14)">
      <defs>
       <path id="ArialMT-37" d="M 1659 0 
L 1659 4041 
L 150 4041 
L 150 4581 
L 3781 4581 
L 3781 4041 
L 2266 4041 
L 2266 0 
L 1659 0 
z
" transform="scale(0.015625)"/>
       <path id="ArialMT-3" transform="scale(0.015625)"/>
       <path id="ArialMT-48" d="M 2694 1069 
L 3275 997 
Q 3138 488 2766 206 
Q 2394 -75 1816 -75 
Q 1088 -75 661 373 
Q 234 822 234 1631 
Q 234 2469 665 2931 
Q 1097 3394 1784 3394 
Q 2450 3394 2872 2941 
Q 3294 2488 3294 1666 
Q 3294 1616 3291 1516 
L 816 1516 
Q 847 969 1125 678 
Q 1403 388 1819 388 
Q 2128 388 2347 550 
Q 2566 713 2694 1069 
z
M 847 1978 
L 2700 1978 
Q 2663 2397 2488 2606 
Q 2219 2931 1791 2931 
Q 1403 2931 1139 2672 
Q 875 2413 847 1978 
z
" transform="scale(0.015625)"/>
       <path id="ArialMT-50" d="M 422 0 
L 422 3319 
L 925 3319 
L 925 2853 
Q 1081 3097 1340 3245 
Q 1600 3394 1931 3394 
Q 2300 3394 2536 3241 
Q 2772 3088 2869 2813 
Q 3263 3394 3894 3394 
Q 4388 3394 4653 3120 
Q 4919 2847 4919 2278 
L 4919 0 
L 4359 0 
L 4359 2091 
Q 4359 2428 4304 2576 
Q 4250 2725 4106 2815 
Q 3963 2906 3769 2906 
Q 3419 2906 3187 2673 
Q 2956 2441 2956 1928 
L 2956 0 
L 2394 0 
L 2394 2156 
Q 2394 2531 2256 2718 
Q 2119 2906 1806 2906 
Q 1569 2906 1367 2781 
Q 1166 2656 1075 2415 
Q 984 2175 984 1722 
L 984 0 
L 422 0 
z
" transform="scale(0.015625)"/>
       <path id="ArialMT-53" d="M 422 -1272 
L 422 3319 
L 934 3319 
L 934 2888 
Q 1116 3141 1344 3267 
Q 1572 3394 1897 3394 
Q 2322 3394 2647 3175 
Q 2972 2956 3137 2557 
Q 3303 2159 3303 1684 
Q 3303 1175 3120 767 
Q 2938 359 2589 142 
Q 2241 -75 1856 -75 
Q 1575 -75 1351 44 
Q 1128 163 984 344 
L 984 -1272 
L 422 -1272 
z
M 931 1641 
Q 931 1000 1190 694 
Q 1450 388 1819 388 
Q 2194 388 2461 705 
Q 2728 1022 2728 1688 
Q 2728 2322 2467 2637 
Q 2206 2953 1844 2953 
Q 1484 2953 1207 2617 
Q 931 2281 931 1641 
z
" transform="scale(0.015625)"/>
       <path id="ArialMT-55" d="M 416 0 
L 416 3319 
L 922 3319 
L 922 2816 
Q 1116 3169 1280 3281 
Q 1444 3394 1641 3394 
Q 1925 3394 2219 3213 
L 2025 2691 
Q 1819 2813 1613 2813 
Q 1428 2813 1281 2702 
Q 1134 2591 1072 2394 
Q 978 2094 978 1738 
L 978 0 
L 416 0 
z
" transform="scale(0.015625)"/>
       <path id="ArialMT-44" d="M 2588 409 
Q 2275 144 1986 34 
Q 1697 -75 1366 -75 
Q 819 -75 525 192 
Q 231 459 231 875 
Q 231 1119 342 1320 
Q 453 1522 633 1644 
Q 813 1766 1038 1828 
Q 1203 1872 1538 1913 
Q 2219 1994 2541 2106 
Q 2544 2222 2544 2253 
Q 2544 2597 2384 2738 
Q 2169 2928 1744 2928 
Q 1347 2928 1158 2789 
Q 969 2650 878 2297 
L 328 2372 
Q 403 2725 575 2942 
Q 747 3159 1072 3276 
Q 1397 3394 1825 3394 
Q 2250 3394 2515 3294 
Q 2781 3194 2906 3042 
Q 3031 2891 3081 2659 
Q 3109 2516 3109 2141 
L 3109 1391 
Q 3109 606 3145 398 
Q 3181 191 3288 0 
L 2700 0 
Q 2613 175 2588 409 
z
M 2541 1666 
Q 2234 1541 1622 1453 
Q 1275 1403 1131 1340 
Q 988 1278 909 1158 
Q 831 1038 831 891 
Q 831 666 1001 516 
Q 1172 366 1500 366 
Q 1825 366 2078 508 
Q 2331 650 2450 897 
Q 2541 1088 2541 1459 
L 2541 1666 
z
" transform="scale(0.015625)"/>
       <path id="ArialMT-57" d="M 1650 503 
L 1731 6 
Q 1494 -44 1306 -44 
Q 1000 -44 831 53 
Q 663 150 594 308 
Q 525 466 525 972 
L 525 2881 
L 113 2881 
L 113 3319 
L 525 3319 
L 525 4141 
L 1084 4478 
L 1084 3319 
L 1650 3319 
L 1650 2881 
L 1084 2881 
L 1084 941 
Q 1084 700 1114 631 
Q 1144 563 1211 522 
Q 1278 481 1403 481 
Q 1497 481 1650 503 
z
" transform="scale(0.015625)"/>
       <path id="ArialMT-58" d="M 2597 0 
L 2597 488 
Q 2209 -75 1544 -75 
Q 1250 -75 995 37 
Q 741 150 617 320 
Q 494 491 444 738 
Q 409 903 409 1263 
L 409 3319 
L 972 3319 
L 972 1478 
Q 972 1038 1006 884 
Q 1059 663 1231 536 
Q 1403 409 1656 409 
Q 1909 409 2131 539 
Q 2353 669 2445 892 
Q 2538 1116 2538 1541 
L 2538 3319 
L 3100 3319 
L 3100 0 
L 2597 0 
z
" transform="scale(0.015625)"/>
       <path id="ArialMT-b" d="M 1497 -1347 
Q 1031 -759 709 28 
Q 388 816 388 1659 
Q 388 2403 628 3084 
Q 909 3875 1497 4659 
L 1900 4659 
Q 1522 4009 1400 3731 
Q 1209 3300 1100 2831 
Q 966 2247 966 1656 
Q 966 153 1900 -1347 
L 1497 -1347 
z
" transform="scale(0.015625)"/>
       <path id="ArialMT-83" d="M 400 3794 
Q 400 4153 654 4406 
Q 909 4659 1266 4659 
Q 1628 4659 1881 4406 
Q 2134 4153 2134 3794 
Q 2134 3434 1879 3179 
Q 1625 2925 1266 2925 
Q 909 2925 654 3178 
Q 400 3431 400 3794 
z
M 741 3794 
Q 741 3575 895 3420 
Q 1050 3266 1269 3266 
Q 1484 3266 1639 3420 
Q 1794 3575 1794 3794 
Q 1794 4013 1639 4167 
Q 1484 4322 1269 4322 
Q 1050 4322 895 4167 
Q 741 4013 741 3794 
z
" transform="scale(0.015625)"/>
       <path id="ArialMT-26" d="M 3763 1606 
L 4369 1453 
Q 4178 706 3683 314 
Q 3188 -78 2472 -78 
Q 1731 -78 1267 223 
Q 803 525 561 1097 
Q 319 1669 319 2325 
Q 319 3041 592 3573 
Q 866 4106 1370 4382 
Q 1875 4659 2481 4659 
Q 3169 4659 3637 4309 
Q 4106 3959 4291 3325 
L 3694 3184 
Q 3534 3684 3231 3912 
Q 2928 4141 2469 4141 
Q 1941 4141 1586 3887 
Q 1231 3634 1087 3207 
Q 944 2781 944 2328 
Q 944 1744 1114 1308 
Q 1284 872 1643 656 
Q 2003 441 2422 441 
Q 2931 441 3284 734 
Q 3638 1028 3763 1606 
z
" transform="scale(0.015625)"/>
       <path id="ArialMT-c" d="M 791 -1347 
L 388 -1347 
Q 1322 153 1322 1656 
Q 1322 2244 1188 2822 
Q 1081 3291 891 3722 
Q 769 4003 388 4659 
L 791 4659 
Q 1378 3875 1659 3084 
Q 1900 2403 1900 1659 
Q 1900 816 1576 28 
Q 1253 -759 791 -1347 
z
" transform="scale(0.015625)"/>
      </defs>
      <use xlink:href="#ArialMT-37"/>
      <use xlink:href="#ArialMT-14" transform="translate(61.078125 0)"/>
      <use xlink:href="#ArialMT-3" transform="translate(116.6875 0)"/>
      <use xlink:href="#ArialMT-37" transform="translate(142.65625 0)"/>
      <use xlink:href="#ArialMT-48" transform="translate(192.65625 0)"/>
      <use xlink:href="#ArialMT-50" transform="translate(248.265625 0)"/>
      <use xlink:href="#ArialMT-53" transform="translate(331.5625 0)"/>
      <use xlink:href="#ArialMT-48" transform="translate(387.171875 0)"/>
      <use xlink:href="#ArialMT-55" transform="translate(442.78125 0)"/>
      <use xlink:href="#ArialMT-44" transform="translate(476.078125 0)"/>
      <use xlink:href="#ArialMT-57" transform="translate(531.6875 0)"/>
      <use xlink:href="#ArialMT-58" transform="translate(559.46875 0)"/>
      <use xlink:href="#ArialMT-55" transform="translate(615.078125 0)"/>
      <use xlink:href="#ArialMT-48" transform="translate(648.375 0)"/>
      <use xlink:href="#ArialMT-3" transform="translate(703.984375 0)"/>
      <use xlink:href="#ArialMT-b" transform="translate(731.765625 0)"/>
      <use xlink:href="#ArialMT-83" transform="translate(765.0625 0)"/>
      <use xlink:href="#ArialMT-26" transform="translate(805.046875 0)"/>
      <use xlink:href="#ArialMT-c" transform="translate(877.265625 0)"/>
     </g>
    </g>
   </g>
   <g id="matplotlib.axis_2">
    <g id="ytick_1">
     <g id="line2d_26">
      <defs>
       <path id="m4785165b05" d="M 0 0 
L 6 0 
" style="stroke: #000000; stroke-width: 1.5"/>
      </defs>
      <g>
       <use xlink:href="#m4785165b05" x="60.598945" y="229.049481" style="stroke: #000000; stroke-width: 1.5"/>
      </g>
     </g>
     <g id="text_9">
      <!-- $\mathdefault{10^{-10}}$ -->
      <g transform="translate(24.338945 235.489481) scale(0.14 -0.14)">
       <defs>
        <path id="ArialMT-ed" d="M 3381 1997 
L 356 1997 
L 356 2522 
L 3381 2522 
L 3381 1997 
z
" transform="scale(0.015625)"/>
       </defs>
       <use xlink:href="#ArialMT-14" transform="translate(0 0.3875)"/>
       <use xlink:href="#ArialMT-13" transform="translate(55.615234 0.3875)"/>
       <use xlink:href="#ArialMT-ed" transform="translate(112.1875 41.6875) scale(0.7)"/>
       <use xlink:href="#ArialMT-14" transform="translate(153.066406 41.6875) scale(0.7)"/>
       <use xlink:href="#ArialMT-13" transform="translate(191.99707 41.6875) scale(0.7)"/>
      </g>
     </g>
    </g>
    <g id="ytick_2">
     <g id="line2d_27">
      <g>
       <use xlink:href="#m4785165b05" x="60.598945" y="42.687161" style="stroke: #000000; stroke-width: 1.5"/>
      </g>
     </g>
     <g id="text_10">
      <!-- $\mathdefault{10^{-9}}$ -->
      <g transform="translate(29.798945 49.127161) scale(0.14 -0.14)">
       <defs>
        <path id="ArialMT-1c" d="M 350 1059 
L 891 1109 
Q 959 728 1153 556 
Q 1347 384 1650 384 
Q 1909 384 2104 503 
Q 2300 622 2425 820 
Q 2550 1019 2634 1356 
Q 2719 1694 2719 2044 
Q 2719 2081 2716 2156 
Q 2547 1888 2255 1720 
Q 1963 1553 1622 1553 
Q 1053 1553 659 1965 
Q 266 2378 266 3053 
Q 266 3750 677 4175 
Q 1088 4600 1706 4600 
Q 2153 4600 2523 4359 
Q 2894 4119 3086 3673 
Q 3278 3228 3278 2384 
Q 3278 1506 3087 986 
Q 2897 466 2520 194 
Q 2144 -78 1638 -78 
Q 1100 -78 759 220 
Q 419 519 350 1059 
z
M 2653 3081 
Q 2653 3566 2395 3850 
Q 2138 4134 1775 4134 
Q 1400 4134 1122 3828 
Q 844 3522 844 3034 
Q 844 2597 1108 2323 
Q 1372 2050 1759 2050 
Q 2150 2050 2401 2323 
Q 2653 2597 2653 3081 
z
" transform="scale(0.015625)"/>
       </defs>
       <use xlink:href="#ArialMT-14" transform="translate(0 0.3875)"/>
       <use xlink:href="#ArialMT-13" transform="translate(55.615234 0.3875)"/>
       <use xlink:href="#ArialMT-ed" transform="translate(112.1875 41.6875) scale(0.7)"/>
       <use xlink:href="#ArialMT-1c" transform="translate(153.066406 41.6875) scale(0.7)"/>
      </g>
     </g>
    </g>
    <g id="ytick_3">
     <g id="line2d_28">
      <defs>
       <path id="mcaef14f01b" d="M 0 0 
L 3 0 
" style="stroke: #000000"/>
      </defs>
      <g>
       <use xlink:href="#mcaef14f01b" x="60.598945" y="285.150129" style="stroke: #000000"/>
      </g>
     </g>
    </g>
    <g id="ytick_4">
     <g id="line2d_29">
      <g>
       <use xlink:href="#mcaef14f01b" x="60.598945" y="270.393728" style="stroke: #000000"/>
      </g>
     </g>
    </g>
    <g id="ytick_5">
     <g id="line2d_30">
      <g>
       <use xlink:href="#mcaef14f01b" x="60.598945" y="257.917369" style="stroke: #000000"/>
      </g>
     </g>
    </g>
    <g id="ytick_6">
     <g id="line2d_31">
      <g>
       <use xlink:href="#mcaef14f01b" x="60.598945" y="247.109855" style="stroke: #000000"/>
      </g>
     </g>
    </g>
    <g id="ytick_7">
     <g id="line2d_32">
      <g>
       <use xlink:href="#mcaef14f01b" x="60.598945" y="237.576953" style="stroke: #000000"/>
      </g>
     </g>
    </g>
    <g id="ytick_8">
     <g id="line2d_33">
      <g>
       <use xlink:href="#mcaef14f01b" x="60.598945" y="172.948832" style="stroke: #000000"/>
      </g>
     </g>
    </g>
    <g id="ytick_9">
     <g id="line2d_34">
      <g>
       <use xlink:href="#mcaef14f01b" x="60.598945" y="140.132057" style="stroke: #000000"/>
      </g>
     </g>
    </g>
    <g id="ytick_10">
     <g id="line2d_35">
      <g>
       <use xlink:href="#mcaef14f01b" x="60.598945" y="116.848184" style="stroke: #000000"/>
      </g>
     </g>
    </g>
    <g id="ytick_11">
     <g id="line2d_36">
      <g>
       <use xlink:href="#mcaef14f01b" x="60.598945" y="98.787809" style="stroke: #000000"/>
      </g>
     </g>
    </g>
    <g id="ytick_12">
     <g id="line2d_37">
      <g>
       <use xlink:href="#mcaef14f01b" x="60.598945" y="84.031409" style="stroke: #000000"/>
      </g>
     </g>
    </g>
    <g id="ytick_13">
     <g id="line2d_38">
      <g>
       <use xlink:href="#mcaef14f01b" x="60.598945" y="71.55505" style="stroke: #000000"/>
      </g>
     </g>
    </g>
    <g id="ytick_14">
     <g id="line2d_39">
      <g>
       <use xlink:href="#mcaef14f01b" x="60.598945" y="60.747536" style="stroke: #000000"/>
      </g>
     </g>
    </g>
    <g id="ytick_15">
     <g id="line2d_40">
      <g>
       <use xlink:href="#mcaef14f01b" x="60.598945" y="51.214633" style="stroke: #000000"/>
      </g>
     </g>
    </g>
    <g id="text_11">
     <!-- Ion Current (m/z 2) -->
     <g transform="translate(17.392383 212.244609) rotate(-90) scale(0.14 -0.14)">
      <defs>
       <path id="ArialMT-2c" d="M 597 0 
L 597 4581 
L 1203 4581 
L 1203 0 
L 597 0 
z
" transform="scale(0.015625)"/>
       <path id="ArialMT-52" d="M 213 1659 
Q 213 2581 725 3025 
Q 1153 3394 1769 3394 
Q 2453 3394 2887 2945 
Q 3322 2497 3322 1706 
Q 3322 1066 3130 698 
Q 2938 331 2570 128 
Q 2203 -75 1769 -75 
Q 1072 -75 642 372 
Q 213 819 213 1659 
z
M 791 1659 
Q 791 1022 1069 705 
Q 1347 388 1769 388 
Q 2188 388 2466 706 
Q 2744 1025 2744 1678 
Q 2744 2294 2464 2611 
Q 2184 2928 1769 2928 
Q 1347 2928 1069 2612 
Q 791 2297 791 1659 
z
" transform="scale(0.015625)"/>
       <path id="ArialMT-51" d="M 422 0 
L 422 3319 
L 928 3319 
L 928 2847 
Q 1294 3394 1984 3394 
Q 2284 3394 2536 3286 
Q 2788 3178 2913 3003 
Q 3038 2828 3088 2588 
Q 3119 2431 3119 2041 
L 3119 0 
L 2556 0 
L 2556 2019 
Q 2556 2363 2490 2533 
Q 2425 2703 2258 2804 
Q 2091 2906 1866 2906 
Q 1506 2906 1245 2678 
Q 984 2450 984 1813 
L 984 0 
L 422 0 
z
" transform="scale(0.015625)"/>
       <path id="ArialMT-12" d="M 0 -78 
L 1328 4659 
L 1778 4659 
L 453 -78 
L 0 -78 
z
" transform="scale(0.015625)"/>
       <path id="ArialMT-5d" d="M 125 0 
L 125 456 
L 2238 2881 
Q 1878 2863 1603 2863 
L 250 2863 
L 250 3319 
L 2963 3319 
L 2963 2947 
L 1166 841 
L 819 456 
Q 1197 484 1528 484 
L 3063 484 
L 3063 0 
L 125 0 
z
" transform="scale(0.015625)"/>
      </defs>
      <use xlink:href="#ArialMT-2c"/>
      <use xlink:href="#ArialMT-52" transform="translate(27.78125 0)"/>
      <use xlink:href="#ArialMT-51" transform="translate(83.390625 0)"/>
      <use xlink:href="#ArialMT-3" transform="translate(139 0)"/>
      <use xlink:href="#ArialMT-26" transform="translate(166.78125 0)"/>
      <use xlink:href="#ArialMT-58" transform="translate(239 0)"/>
      <use xlink:href="#ArialMT-55" transform="translate(294.609375 0)"/>
      <use xlink:href="#ArialMT-55" transform="translate(327.90625 0)"/>
      <use xlink:href="#ArialMT-48" transform="translate(361.203125 0)"/>
      <use xlink:href="#ArialMT-51" transform="translate(416.8125 0)"/>
      <use xlink:href="#ArialMT-57" transform="translate(472.421875 0)"/>
      <use xlink:href="#ArialMT-3" transform="translate(500.203125 0)"/>
      <use xlink:href="#ArialMT-b" transform="translate(527.984375 0)"/>
      <use xlink:href="#ArialMT-50" transform="translate(561.28125 0)"/>
      <use xlink:href="#ArialMT-12" transform="translate(644.578125 0)"/>
      <use xlink:href="#ArialMT-5d" transform="translate(672.359375 0)"/>
      <use xlink:href="#ArialMT-3" transform="translate(722.359375 0)"/>
      <use xlink:href="#ArialMT-15" transform="translate(750.140625 0)"/>
      <use xlink:href="#ArialMT-c" transform="translate(805.75 0)"/>
     </g>
    </g>
   </g>
   <g id="line2d_41">
    <path d="M 78.802131 273.146975 
L 78.771691 276.940244 
L 78.832572 275.002964 
L 79.502254 274.449235 
L 83.276828 275.269634 
L 87.203602 276.344774 
L 88.634287 276.921299 
L 89.821452 276.611499 
L 91.008616 276.513399 
L 92.07402 276.155351 
L 93.169864 276.400462 
L 94.357028 276.015692 
L 95.574632 276.017567 
L 96.792237 275.67287 
L 98.131602 275.806723 
L 99.440527 275.740117 
L 100.688571 275.849723 
L 101.936616 275.762861 
L 103.15422 276.24438 
L 104.280504 275.709771 
L 105.467668 276.333397 
L 106.654833 275.77992 
L 107.872437 275.776177 
L 108.998721 275.123682 
L 111.37305 274.808438 
L 112.560214 274.928073 
L 114.964983 274.61561 
L 116.182587 274.748955 
L 117.369752 275.17826 
L 118.587356 274.84309 
L 119.77452 275.020633 
L 120.931245 274.332125 
L 122.118409 273.785849 
L 123.305573 273.91279 
L 124.492738 273.310645 
L 125.679902 273.014866 
L 126.867066 272.839966 
L 128.084671 273.815395 
L 129.241395 273.933428 
L 130.458999 274.218303 
L 131.646164 274.91058 
L 134.020492 275.127954 
L 135.207657 275.596606 
L 136.425261 275.103043 
L 137.642865 275.17617 
L 138.86047 274.944768 
L 140.078074 275.25097 
L 141.234798 274.877636 
L 142.421963 275.083767 
L 143.639567 275.469815 
L 144.765851 275.296018 
L 145.953016 274.725078 
L 147.17062 274.276293 
L 148.388225 274.816771 
L 150.792993 275.368426 
L 151.919277 275.866844 
L 153.106442 276.527687 
L 154.263166 276.470107 
L 155.45033 276.105002 
L 159.011823 274.097698 
L 160.198987 274.510111 
L 161.416592 274.510913 
L 162.573316 274.729641 
L 163.790921 275.263077 
L 164.947645 275.301454 
L 166.165249 274.590498 
L 167.352413 274.068771 
L 170.944347 274.925881 
L 172.161951 274.733414 
L 173.349115 275.335145 
L 174.505839 275.178197 
L 175.662564 275.656757 
L 176.880168 275.011909 
L 178.036892 274.78613 
L 179.193617 274.868084 
L 180.380781 275.635743 
L 181.598385 275.958817 
L 182.84643 275.799902 
L 184.033594 275.217064 
L 185.251199 275.569145 
L 186.468803 274.440249 
L 187.686407 274.37389 
L 188.843132 273.867058 
L 189.999856 273.19619 
L 191.21746 273.415509 
L 192.435065 274.029246 
L 194.687633 274.67922 
L 195.905237 275.310842 
L 197.092402 275.608667 
L 198.279566 275.39091 
L 199.46673 275.869811 
L 200.653895 275.586858 
L 201.780179 274.790152 
L 202.967343 274.679794 
L 204.184947 274.875953 
L 205.372112 274.603088 
L 206.528836 274.56199 
L 207.716 274.336687 
L 210.120769 274.889059 
L 211.277493 274.759593 
L 212.464657 274.479268 
L 213.682262 274.404628 
L 214.869426 274.199326 
L 216.056591 274.772428 
L 217.213315 274.910751 
L 220.774808 274.726509 
L 221.961972 274.809733 
L 223.149136 274.324463 
L 224.336301 274.060487 
L 225.462585 274.320216 
L 226.680189 273.704887 
L 229.024078 273.511279 
L 230.272122 273.00384 
L 232.616011 271.05569 
L 233.711855 271.023234 
L 234.838139 270.074116 
L 236.025303 269.419431 
L 237.242908 269.592667 
L 238.460512 269.047861 
L 239.647676 269.243915 
L 240.865281 269.312944 
L 242.052445 269.026786 
L 244.396334 267.502131 
L 245.583498 267.187649 
L 246.801102 266.073539 
L 249.144991 264.68287 
L 251.54976 264.267839 
L 252.706484 264.078674 
L 253.893648 264.52361 
L 255.080812 264.61891 
L 256.267977 264.582125 
L 257.485581 265.157983 
L 258.672745 265.516096 
L 259.82947 266.041308 
L 261.077514 266.312693 
L 263.421403 267.446792 
L 265.765291 269.372027 
L 267.013336 268.92097 
L 268.13962 269.175709 
L 269.326784 269.133853 
L 271.670673 269.882974 
L 272.888277 270.023682 
L 274.136322 269.762166 
L 275.353926 269.744035 
L 276.54109 270.119375 
L 277.697815 269.898524 
L 278.915419 269.273405 
L 280.072143 270.447123 
L 281.289748 270.524647 
L 282.507352 270.296546 
L 283.694516 271.196076 
L 284.881681 271.551995 
L 287.225569 271.828629 
L 288.443174 272.390567 
L 289.599898 271.845372 
L 290.756622 271.813967 
L 291.943786 272.734087 
L 293.130951 272.250323 
L 294.287675 271.512693 
L 295.505279 272.045479 
L 296.722884 272.212154 
L 297.849168 273.021008 
L 299.066772 273.614782 
L 300.284377 272.941736 
L 301.410661 271.937357 
L 302.597825 272.099493 
L 303.78499 272.622207 
L 304.972154 272.916852 
L 306.159318 273.067848 
L 307.285602 272.982034 
L 309.690371 274.378737 
L 310.847095 274.300208 
L 312.03426 272.895826 
L 313.221424 272.419208 
L 315.595752 271.967232 
L 316.752477 272.114576 
L 317.909201 271.483646 
L 319.157245 271.449386 
L 320.34441 271.641337 
L 321.501134 271.964565 
L 322.627418 272.147299 
L 327.406515 271.801727 
L 329.750404 270.699199 
L 330.968008 270.989358 
L 332.094292 270.471722 
L 333.342337 271.22944 
L 334.833902 271.31655 
L 336.112387 272.059938 
L 337.299551 272.155512 
L 338.517156 272.884122 
L 339.64344 272.677312 
L 340.800164 271.959655 
L 342.048209 271.569274 
L 343.235373 271.36475 
L 344.452977 270.952394 
L 345.548821 270.728014 
L 347.92315 269.841881 
L 349.201635 269.199908 
L 350.358359 269.14953 
L 351.484643 268.094989 
L 352.702247 267.929461 
L 355.015696 268.209513 
L 356.20286 268.733981 
L 357.481345 268.934093 
L 362.260442 268.208495 
L 363.264966 267.254821 
L 364.51301 266.806717 
L 365.791495 265.744213 
L 369.444308 264.496774 
L 371.757757 263.016957 
L 372.853601 262.528392 
L 374.040765 262.218295 
L 375.197489 261.457091 
L 376.415094 260.945323 
L 377.480497 260.057988 
L 378.667662 259.823851 
L 381.04199 257.94933 
L 382.198715 257.159675 
L 383.446759 255.657876 
L 385.760208 251.967911 
L 386.856052 249.480648 
L 388.225857 247.455051 
L 392.974514 237.066814 
L 393.979037 233.964249 
L 395.622803 230.603048 
L 396.870848 225.696228 
L 398.149333 221.450172 
L 400.462781 211.157628 
L 401.710826 205.709927 
L 403.963394 193.887272 
L 405.059238 187.275078 
L 406.368162 180.093501 
L 408.742491 164.944781 
L 410.020976 157.307047 
L 414.647873 123.304599 
L 415.743717 114.24465 
L 418.331126 95.339407 
L 419.30521 85.740567 
L 420.644574 75.960571 
L 421.679538 65.969275 
L 424.145187 45.537895 
L 425.119271 35.210218 
L 425.119271 35.210218 
" clip-path="url(#pe215504f3e)" style="fill: none; stroke: #000000; stroke-width: 2.5; stroke-linecap: square"/>
   </g>
   <g id="line2d_42">
    <path d="M 71.100783 275.073595 
L 71.100783 274.086078 
L 71.100783 274.745772 
L 71.252984 275.212542 
L 73.566432 275.144786 
L 75.72768 275.5888 
L 77.828048 275.55141 
L 79.593574 275.692807 
L 81.0547 275.421005 
L 82.272304 274.878861 
L 83.368148 274.751728 
L 84.372672 274.424886 
L 85.559836 274.376195 
L 86.77744 274.190237 
L 87.873284 273.638636 
L 89.151769 273.962277 
L 91.465218 275.251018 
L 92.774142 275.604446 
L 97.64456 275.673496 
L 100.140649 274.516025 
L 101.449574 274.739336 
L 102.575858 274.579356 
L 103.823902 273.842338 
L 104.950187 273.777583 
L 106.167791 273.477838 
L 107.294075 273.619992 
L 109.790164 274.604678 
L 110.946888 274.693275 
L 112.073172 275.682386 
L 113.290777 276.010041 
L 114.508381 275.993372 
L 117.978554 274.552565 
L 119.226598 273.621441 
L 121.631367 272.557386 
L 122.879412 271.310373 
L 123.944816 271.874395 
L 125.19286 272.160145 
L 126.380024 273.004261 
L 127.628069 273.70014 
L 128.754353 273.800711 
L 129.971958 274.173474 
L 131.220002 273.758434 
L 132.285406 273.953781 
L 133.53345 273.468001 
L 134.751055 272.117003 
L 135.846899 272.832966 
L 138.342988 272.517075 
L 139.499712 272.99372 
L 141.965361 272.319074 
L 143.122085 272.22679 
L 144.248369 272.356242 
L 145.405094 271.363736 
L 146.622698 270.127009 
L 147.809862 269.833276 
L 148.997027 269.095669 
L 150.153751 268.909075 
L 151.401795 269.116555 
L 152.6194 268.169913 
L 153.806564 267.742363 
L 154.932848 266.6709 
L 156.211333 265.948033 
L 158.463901 262.165317 
L 160.89911 258.85667 
L 162.177595 257.532228 
L 163.303879 255.767239 
L 164.491043 253.620276 
L 165.678207 252.228353 
L 169.27014 243.8789 
L 171.644469 237.761251 
L 172.862073 235.324254 
L 175.114642 230.137933 
L 178.706575 223.47573 
L 183.546552 212.639087 
L 184.703277 209.854925 
L 187.077605 202.691933 
L 192.982987 187.315649 
L 194.170151 183.265422 
L 196.60536 173.257004 
L 198.949248 162.045688 
L 200.105973 156.59228 
L 201.293137 151.613623 
L 202.510741 147.44199 
L 203.728346 144.091991 
L 204.85463 142.154242 
L 206.041794 141.015226 
L 207.228958 140.904897 
L 208.446563 142.367871 
L 209.664167 145.062267 
L 212.008056 153.711174 
L 214.351944 164.539504 
L 216.726273 175.291427 
L 217.822117 179.588362 
L 220.226886 186.131086 
L 221.44449 188.543005 
L 222.601214 190.20284 
L 223.818819 191.313655 
L 225.005983 191.607474 
L 226.162707 190.858666 
L 227.319431 189.925302 
L 228.506596 189.322444 
L 229.69376 188.551566 
L 233.255253 184.70298 
L 234.442417 182.844645 
L 235.660022 181.257465 
L 238.03435 176.735404 
L 239.221515 174.467363 
L 242.691687 169.265784 
L 243.878852 167.536415 
L 249.814673 159.994946 
L 251.032278 158.833927 
L 252.189002 158.075317 
L 253.406606 157.551512 
L 255.750495 157.252204 
L 256.968099 157.554794 
L 258.124823 158.156025 
L 259.372868 159.178624 
L 260.499152 159.921064 
L 264.091085 163.808051 
L 266.404534 166.400505 
L 267.652578 167.412145 
L 268.809302 168.504012 
L 269.966027 169.825419 
L 271.153191 170.916102 
L 272.340355 171.714643 
L 273.5884 172.875397 
L 275.993168 174.54356 
L 277.210773 175.639086 
L 278.397937 176.891733 
L 283.116154 183.557738 
L 285.490483 187.358794 
L 287.864812 190.472187 
L 289.051976 192.201335 
L 290.23914 193.556744 
L 291.456745 195.351548 
L 294.987798 199.390087 
L 296.144522 200.839826 
L 297.301246 201.840534 
L 299.736455 204.42133 
L 300.862739 205.319495 
L 302.080343 205.975219 
L 303.297948 207.217556 
L 304.424232 207.934596 
L 305.611396 208.938685 
L 306.79856 209.606385 
L 308.016165 210.513654 
L 309.142449 211.015281 
L 310.360053 211.819726 
L 311.486338 212.319954 
L 313.891106 213.002155 
L 315.04783 213.49006 
L 319.766048 214.97077 
L 320.983652 215.023196 
L 324.484265 214.127023 
L 325.671429 213.679754 
L 326.889034 212.779661 
L 328.106638 212.302251 
L 329.202482 211.363654 
L 330.450526 210.745398 
L 335.534025 205.991867 
L 336.751629 204.639714 
L 337.999674 203.547683 
L 339.186838 202.820471 
L 340.313122 203.022404 
L 341.561167 203.380936 
L 342.717891 204.580959 
L 343.844175 206.291399 
L 345.09222 207.844765 
L 346.248944 209.549781 
L 347.496988 210.727248 
L 348.623273 211.221146 
L 349.840877 211.286002 
L 351.028041 210.94573 
L 352.215206 210.410357 
L 354.528654 208.889432 
L 355.685378 208.701139 
L 356.933423 208.271522 
L 358.120587 208.126003 
L 360.525356 206.426423 
L 362.869244 203.435587 
L 364.117289 201.538375 
L 366.339417 196.264487 
L 367.526581 193.854893 
L 369.99223 187.74936 
L 371.179395 184.996948 
L 373.492843 180.729516 
L 374.680007 179.213605 
L 375.806291 178.276948 
L 377.054336 177.683222 
L 378.11974 177.709308 
L 379.398224 178.34445 
L 384.116442 181.632582 
L 385.242726 181.917619 
L 387.586614 181.932915 
L 388.834659 181.447802 
L 390.052263 180.838176 
L 392.365712 179.336468 
L 394.892241 176.514608 
L 396.292486 174.808685 
L 397.38833 172.762402 
L 398.758135 170.792565 
L 399.914859 168.175762 
L 402.289188 161.891976 
L 405.911561 150.149559 
L 406.946525 145.633188 
L 408.255449 140.712787 
L 409.412174 135.369054 
L 410.386257 129.795921 
L 411.725622 123.5032 
L 414.160831 109.330993 
L 416.382959 94.443476 
L 418.909488 78.627956 
L 419.974892 70.37728 
L 421.222937 61.832036 
L 422.2579 53.019862 
L 423.688585 43.984388 
L 424.784429 34.777847 
L 424.784429 34.777847 
" clip-path="url(#pe215504f3e)" style="fill: none; stroke: #1f77b4; stroke-width: 2.5; stroke-linecap: square"/>
   </g>
   <g id="line2d_43">
    <path d="M 70.918143 273.561441 
L 70.918143 272.097279 
L 70.918143 273.003965 
L 71.618265 272.785674 
L 73.01851 272.402087 
L 77.341006 271.719 
L 80.780739 271.925453 
L 82.028783 272.305972 
L 83.124627 273.053228 
L 85.316315 272.416762 
L 86.442599 271.700589 
L 88.847368 271.261555 
L 90.034532 271.52951 
L 91.221697 272.094596 
L 92.408861 272.298955 
L 93.596025 272.384678 
L 94.81363 273.029174 
L 96.000794 272.329176 
L 97.309719 272.374261 
L 98.649084 271.901283 
L 99.927568 272.000477 
L 101.145173 271.752488 
L 102.332337 272.429295 
L 103.519501 272.932136 
L 105.89383 273.105762 
L 107.080994 272.941762 
L 108.298599 271.851492 
L 109.455323 271.956571 
L 110.672927 271.949426 
L 111.860092 272.078088 
L 113.047256 271.14143 
L 114.26486 271.754297 
L 116.639189 272.422094 
L 117.826353 272.494421 
L 120.200682 273.257618 
L 121.326966 273.837998 
L 122.575011 274.22347 
L 123.731735 274.094555 
L 124.888459 273.251208 
L 126.106063 273.454898 
L 127.323668 273.225557 
L 128.480392 272.790901 
L 129.667556 272.602476 
L 131.981005 273.168059 
L 133.229049 273.006498 
L 136.790542 270.893463 
L 138.008147 270.046317 
L 139.347512 268.827377 
L 140.443356 268.899327 
L 141.63052 268.513545 
L 142.756804 268.392764 
L 144.004849 269.065152 
L 145.192013 268.981466 
L 146.409617 269.078716 
L 148.783946 267.266673 
L 149.94067 266.068218 
L 152.284559 264.2801 
L 153.471723 262.97492 
L 155.906932 261.347037 
L 158.28126 259.182498 
L 159.529305 257.260618 
L 160.686029 256.085373 
L 164.247522 251.791239 
L 165.404246 250.173923 
L 166.621851 248.052636 
L 168.996179 243.301173 
L 171.340068 238.207073 
L 172.527232 236.469025 
L 173.653516 234.34574 
L 176.058285 230.867008 
L 178.432614 226.522589 
L 179.650218 224.520139 
L 180.806942 221.98953 
L 186.894965 205.553677 
L 191.552301 191.024369 
L 193.92663 179.715734 
L 195.144235 173.349302 
L 201.019176 136.98017 
L 202.1759 131.117624 
L 203.393504 126.68462 
L 204.550229 123.494469 
L 205.767833 122.098384 
L 206.954997 122.468959 
L 208.111722 124.288121 
L 209.238006 127.431716 
L 210.45561 131.98667 
L 211.703655 137.658151 
L 217.609036 167.939449 
L 218.73532 172.350868 
L 219.952925 175.637293 
L 221.140089 177.881977 
L 222.296813 179.648189 
L 223.544858 180.218946 
L 224.732022 180.078613 
L 225.888746 179.579051 
L 227.075911 178.70567 
L 228.263075 177.472372 
L 229.419799 175.786632 
L 231.824568 172.652525 
L 235.355621 166.712816 
L 238.886674 160.07404 
L 242.387286 152.880865 
L 243.604891 150.454335 
L 247.196824 144.409848 
L 248.383988 142.868313 
L 249.540712 141.758048 
L 250.758317 140.918575 
L 251.945481 140.263461 
L 253.102205 140.005245 
L 254.31981 140.108348 
L 255.537414 140.491642 
L 257.850863 142.908288 
L 259.129347 144.716417 
L 261.412355 149.166952 
L 263.817124 153.995647 
L 264.973848 156.043777 
L 267.409057 159.558514 
L 268.504901 161.589543 
L 270.90967 164.902169 
L 272.096834 166.371127 
L 273.314439 168.222988 
L 275.749648 171.258399 
L 276.997692 172.405284 
L 278.123976 173.674758 
L 279.372021 175.602924 
L 280.528745 177.166343 
L 284.029358 181.235127 
L 285.246962 183.055985 
L 287.560411 186.058581 
L 288.778015 187.197169 
L 289.965179 188.722824 
L 291.152344 190.020057 
L 292.369948 190.851983 
L 293.435352 191.74088 
L 295.840121 193.054783 
L 297.057725 194.231246 
L 298.244889 195.01746 
L 300.680098 195.916047 
L 301.775942 196.556829 
L 302.963107 196.904491 
L 304.180711 197.089852 
L 307.711764 196.896369 
L 308.898928 196.98142 
L 311.242817 196.422016 
L 312.429981 196.610175 
L 317.148198 195.206537 
L 318.365803 194.766826 
L 320.679251 194.434223 
L 321.866415 193.994117 
L 324.240744 193.936866 
L 325.427908 193.580471 
L 330.176565 195.590601 
L 332.520454 198.113575 
L 335.229624 200.007812 
L 338.912877 201.522904 
L 340.039161 201.558712 
L 341.287206 202.125723 
L 346.005423 203.640159 
L 347.223027 203.696595 
L 348.379752 203.167945 
L 350.6932 203.13217 
L 351.910804 202.738627 
L 354.315573 202.2356 
L 355.472297 201.503812 
L 356.568141 200.975079 
L 357.846626 200.576857 
L 359.00335 199.587313 
L 360.190515 198.052897 
L 361.408119 197.087994 
L 362.473523 195.98334 
L 363.752008 194.462782 
L 364.939172 192.673121 
L 366.095896 191.140711 
L 367.3135 188.954777 
L 368.470225 186.580816 
L 369.687829 183.530448 
L 372.001278 176.782833 
L 373.310202 174.041365 
L 374.436486 172.05337 
L 375.623651 170.878062 
L 376.749935 170.343776 
L 377.906659 170.956145 
L 379.154704 172.04377 
L 380.341868 173.824402 
L 383.872921 177.966161 
L 385.060085 178.718433 
L 386.216809 179.123091 
L 387.251773 179.212581 
L 388.530258 178.894025 
L 392.091751 176.677498 
L 393.187595 175.475183 
L 394.526959 174.523057 
L 395.927205 172.729109 
L 397.266569 170.44798 
L 398.484174 167.870274 
L 400.828062 161.637357 
L 402.045667 157.703593 
L 406.794324 139.628968 
L 407.859728 134.2674 
L 409.138213 128.575162 
L 411.451661 116.276467 
L 412.730146 109.787076 
L 413.85643 102.78965 
L 414.921834 95.419065 
L 416.230758 87.926891 
L 417.296162 80.184919 
L 419.761811 64.240252 
L 420.979416 55.91894 
L 423.323304 38.55552 
L 424.601789 29.590858 
L 425.423672 20.50103 
L 425.423672 20.50103 
" clip-path="url(#pe215504f3e)" style="fill: none; stroke: #0033ff; stroke-width: 2.5; stroke-linecap: square"/>
   </g>
   <g id="line2d_44">
    <path d="M 69.091736 285.981376 
L 69.122176 282.508272 
L 69.152616 283.390191 
L 69.243937 283.78204 
L 69.730979 284.028374 
L 71.192104 284.186482 
L 73.292471 284.681065 
L 75.5146 284.920682 
L 78.954332 284.94422 
L 80.232817 285.078283 
L 81.328661 284.465112 
L 82.394065 284.107769 
L 83.550789 284.214737 
L 84.707513 284.191977 
L 87.051401 284.473321 
L 88.269006 284.197195 
L 89.48661 283.44655 
L 90.673775 283.295107 
L 91.800059 283.605754 
L 92.987223 283.451341 
L 94.204828 283.642774 
L 95.361552 283.033919 
L 97.948961 282.878732 
L 99.288326 282.485463 
L 101.723535 282.692549 
L 105.285028 283.996857 
L 106.472192 284.266384 
L 107.689797 283.886332 
L 110.094565 283.973475 
L 111.251289 284.377466 
L 112.438454 284.337666 
L 113.625618 285.210244 
L 114.812782 285.096041 
L 116.030387 284.338884 
L 118.374275 283.722048 
L 119.500559 283.347237 
L 123.092493 283.564921 
L 124.279657 283.678001 
L 125.436381 284.883811 
L 126.714866 285.305935 
L 127.87159 284.818459 
L 129.089194 285.132001 
L 130.276359 285.613774 
L 132.559367 286.091239 
L 133.807411 285.734168 
L 136.12086 284.397829 
L 137.399345 283.749935 
L 139.834553 281.95167 
L 141.052158 281.95696 
L 142.178442 282.388815 
L 143.365606 282.007076 
L 144.552771 281.936246 
L 145.770375 281.393726 
L 146.987979 281.084189 
L 148.175144 280.957879 
L 149.362308 280.250609 
L 150.549472 279.946311 
L 151.706197 279.497157 
L 152.862921 279.256145 
L 154.080525 278.818995 
L 156.515734 276.982488 
L 158.859623 274.046398 
L 160.077227 272.359359 
L 161.233951 270.296939 
L 162.451556 268.77811 
L 163.63872 266.181156 
L 168.356937 257.152714 
L 170.731266 251.656192 
L 171.85755 248.670587 
L 174.262319 242.794599 
L 175.479923 239.559976 
L 176.575767 236.325862 
L 177.823812 233.113454 
L 178.980536 229.409082 
L 186.194842 211.849749 
L 190.913059 197.394795 
L 192.130664 194.706042 
L 196.818441 181.77702 
L 202.754262 160.831018 
L 203.941426 157.863199 
L 205.098151 155.476489 
L 206.346195 154.086012 
L 207.53336 153.960497 
L 208.720524 154.860156 
L 209.907688 156.891156 
L 211.094853 159.690476 
L 212.251577 163.093292 
L 214.656345 171.457707 
L 215.84351 175.840439 
L 218.126518 182.896744 
L 219.313682 185.84076 
L 220.531287 188.118051 
L 221.718451 189.97048 
L 222.905615 190.599485 
L 224.09278 191.039566 
L 225.279944 191.301006 
L 226.436668 191.292863 
L 227.623833 191.020083 
L 232.37249 186.867301 
L 233.559654 185.586342 
L 234.746818 183.449291 
L 237.090707 180.010991 
L 238.277871 178.169187 
L 239.465036 176.740695 
L 240.62176 174.803701 
L 243.026529 171.453207 
L 246.557581 166.216599 
L 248.96235 163.525232 
L 250.119074 162.390553 
L 251.306239 161.622475 
L 252.493403 161.06747 
L 254.867732 160.412758 
L 257.2725 159.775951 
L 258.429225 159.715319 
L 259.585949 159.905102 
L 260.803553 160.242217 
L 263.147442 161.533692 
L 264.365046 163.103841 
L 265.582651 164.345372 
L 266.739375 165.713642 
L 267.896099 166.820895 
L 270.300868 168.550289 
L 271.457592 169.72083 
L 273.923241 171.703314 
L 275.110405 172.899422 
L 276.29757 174.777921 
L 278.671898 178.0514 
L 281.076667 181.481308 
L 286.951608 190.98211 
L 289.325937 195.22683 
L 290.543541 196.596312 
L 291.730706 198.210204 
L 294.105034 201.844305 
L 296.448923 204.777516 
L 300.040856 208.9578 
L 301.16714 210.140532 
L 302.384744 210.953621 
L 303.541469 212.101804 
L 304.728633 213.841175 
L 305.885357 215.046815 
L 308.259686 217.228958 
L 311.790739 219.627942 
L 314.195507 220.753826 
L 316.569836 222.54329 
L 318.883284 223.430165 
L 320.040009 224.334467 
L 322.444777 225.738869 
L 323.571061 226.087814 
L 324.788666 226.829013 
L 325.91495 227.225493 
L 327.162995 227.908759 
L 329.537323 228.075277 
L 330.663607 228.478141 
L 331.911652 229.069216 
L 333.129256 229.180511 
L 334.529501 228.817619 
L 337.086471 228.485991 
L 339.491239 228.0528 
L 340.678404 227.358306 
L 342.961412 226.548443 
L 345.396621 225.674797 
L 346.522905 225.031181 
L 348.927674 224.91889 
L 351.271562 224.142029 
L 353.645891 222.618347 
L 354.802615 221.399096 
L 357.268264 219.294984 
L 358.394548 217.816808 
L 359.551272 215.925307 
L 360.768877 213.523494 
L 361.925601 210.430942 
L 363.112765 206.924214 
L 365.487094 199.190997 
L 367.830982 191.643667 
L 369.048587 188.4537 
L 371.362035 183.591622 
L 372.57964 182.027011 
L 373.858124 181.090535 
L 374.893088 180.584711 
L 377.297857 180.119305 
L 379.702626 179.150351 
L 382.016074 179.128979 
L 383.264118 179.188566 
L 385.516687 179.669679 
L 386.795171 180.172746 
L 387.860575 180.314501 
L 389.10862 180.253469 
L 392.639673 179.009619 
L 393.796397 177.916607 
L 395.196642 176.184854 
L 396.596887 174.272428 
L 397.723171 172.32401 
L 400.18882 167.482176 
L 401.436865 164.53487 
L 403.811193 157.927204 
L 406.185522 149.365012 
L 407.220486 144.645606 
L 408.49897 139.469079 
L 410.934179 127.816539 
L 411.908263 121.521691 
L 414.434792 107.519938 
L 415.469756 99.79181 
L 416.900441 92.118907 
L 417.904964 84.015222 
L 419.183449 75.812286 
L 424.99751 31.361326 
L 424.99751 31.361326 
" clip-path="url(#pe215504f3e)" style="fill: none; stroke: #ff7f0e; stroke-width: 2.5; stroke-linecap: square"/>
   </g>
   <g id="line2d_45">
    <path d="M 78.832572 283.791585 
L 78.832572 285.966064 
L 78.832572 285.529364 
L 79.410934 285.522319 
L 80.932939 286.115622 
L 83.094187 285.554934 
L 85.285875 285.762433 
L 87.203602 286.387953 
L 88.695167 286.521626 
L 89.912772 286.015092 
L 91.069496 286.048783 
L 92.10446 285.545448 
L 93.291624 285.998031 
L 94.387468 285.653117 
L 95.605073 285.797845 
L 96.883557 285.330837 
L 98.131602 285.594847 
L 99.410086 285.371002 
L 100.658131 284.998103 
L 101.875735 284.246425 
L 103.12378 284.144419 
L 104.250064 283.630335 
L 105.467668 283.248915 
L 107.841997 282.932331 
L 109.059602 283.400182 
L 110.246766 283.641716 
L 111.37305 284.174821 
L 112.560214 284.916145 
L 113.777819 284.93635 
L 116.243468 285.389061 
L 117.339312 285.40695 
L 118.617796 285.010432 
L 119.804961 283.765187 
L 120.992125 283.327544 
L 122.179289 282.435889 
L 123.305573 282.17453 
L 125.740782 282.150927 
L 126.897506 282.344078 
L 128.115111 283.029748 
L 129.271835 283.809053 
L 130.489439 283.166742 
L 132.802888 282.46069 
L 134.020492 281.80771 
L 135.207657 281.707789 
L 136.425261 281.443916 
L 137.673306 281.307884 
L 140.108514 280.67257 
L 141.204358 280.188609 
L 142.421963 278.696948 
L 143.609127 277.554204 
L 144.796291 276.71119 
L 145.953016 276.42722 
L 147.17062 275.871262 
L 149.544949 273.526284 
L 150.701673 272.926862 
L 151.888837 271.293685 
L 153.106442 269.940635 
L 155.51121 266.913758 
L 157.915979 265.554782 
L 160.290308 262.883393 
L 161.477472 260.892978 
L 162.664636 259.449839 
L 164.978085 255.141656 
L 167.382854 249.981395 
L 168.600458 247.778326 
L 169.757182 245.991925 
L 170.944347 243.686921 
L 173.318675 239.48521 
L 175.693004 234.447864 
L 176.910608 231.595025 
L 180.441661 222.396822 
L 181.628825 219.976503 
L 182.84643 216.611227 
L 184.064034 213.603322 
L 185.281639 210.295892 
L 186.407923 206.404559 
L 187.595087 202.709843 
L 191.18702 190.226539 
L 192.404625 184.947306 
L 193.530909 179.480639 
L 194.718073 172.609152 
L 195.905237 164.940423 
L 198.279566 147.066121 
L 202.997783 108.306428 
L 204.184947 100.259502 
L 205.372112 93.888486 
L 206.589716 88.708464 
L 207.77688 85.096689 
L 208.933605 82.984175 
L 210.120769 82.441269 
L 211.307933 82.965067 
L 212.495098 84.631587 
L 213.651822 87.15248 
L 214.869426 90.5615 
L 216.056591 94.478392 
L 218.400479 103.105745 
L 220.744368 110.271385 
L 221.961972 112.820958 
L 223.118696 114.522819 
L 224.336301 115.385846 
L 225.493025 115.53775 
L 226.710629 115.165743 
L 227.897794 114.374322 
L 229.084958 113.153078 
L 230.241682 111.481601 
L 231.428846 109.404681 
L 232.585571 107.106055 
L 236.177504 98.166288 
L 238.490952 91.437538 
L 239.738997 88.048127 
L 242.052445 81.122066 
L 249.084111 62.203649 
L 251.519319 57.902636 
L 252.706484 56.400799 
L 253.863208 55.6079 
L 255.080812 55.499193 
L 256.267977 55.910082 
L 257.546461 56.892957 
L 258.703186 58.325231 
L 259.89035 60.451672 
L 261.077514 62.922273 
L 263.390963 68.707751 
L 265.826171 75.308734 
L 266.952456 78.609206 
L 271.670673 89.859091 
L 272.918717 92.055701 
L 276.54109 97.32126 
L 280.133024 101.965956 
L 283.694516 106.971676 
L 284.820801 108.605545 
L 291.943786 116.590414 
L 293.191831 117.865178 
L 297.849168 121.874972 
L 301.441101 124.249514 
L 305.002594 125.674982 
L 307.376923 125.688514 
L 308.533647 126.1118 
L 312.09514 126.53717 
L 314.439028 127.073736 
L 320.37485 127.432898 
L 322.718738 127.142425 
L 325.062627 127.294687 
L 329.780844 127.293867 
L 332.094292 127.265073 
L 333.342337 127.082409 
L 334.833902 126.732252 
L 338.517156 125.25944 
L 339.70432 124.859416 
L 340.891484 124.316857 
L 342.109089 123.980825 
L 344.452977 123.648788 
L 345.609702 123.128915 
L 347.98403 121.632429 
L 350.358359 120.690586 
L 351.545523 120.301508 
L 352.641367 120.257206 
L 356.20286 122.214021 
L 359.825233 124.621271 
L 361.012398 125.457555 
L 362.199562 126.566197 
L 363.417166 127.20191 
L 364.51301 128.340144 
L 365.700175 129.329203 
L 366.887339 129.860493 
L 369.413868 131.25896 
L 370.479272 131.578435 
L 372.823161 132.698195 
L 374.040765 133.472462 
L 375.227929 133.858354 
L 377.602258 135.174109 
L 379.854826 136.28836 
L 381.04199 136.58136 
L 382.229155 136.492777 
L 383.507639 136.663572 
L 384.633923 136.614941 
L 390.508865 135.502075 
L 391.696029 135.169602 
L 394.131238 133.925667 
L 395.501043 133.025952 
L 396.840408 131.820415 
L 398.088452 130.536652 
L 401.710826 126.435532 
L 403.963394 122.923688 
L 405.089678 120.728137 
L 406.429043 118.580174 
L 407.616207 115.604905 
L 409.838335 108.495237 
L 412.334424 99.952144 
L 414.678313 89.066258 
L 415.865477 82.972891 
L 416.961321 76.227861 
L 418.300686 69.372257 
L 421.770858 46.515621 
L 422.897143 38.33589 
L 424.206067 29.96206 
L 425.149711 21.44855 
L 425.149711 21.44855 
" clip-path="url(#pe215504f3e)" style="fill: none; stroke: #ff0000; stroke-width: 2.5; stroke-linecap: square"/>
   </g>
   <g id="patch_3">
    <path d="M 60.598945 299.822656 
L 60.598945 7.2 
" style="fill: none; stroke: #000000; stroke-width: 1.5; stroke-linejoin: miter; stroke-linecap: square"/>
   </g>
   <g id="patch_4">
    <path d="M 60.598945 299.822656 
L 425.880273 299.822656 
" style="fill: none; stroke: #000000; stroke-width: 1.5; stroke-linejoin: miter; stroke-linecap: square"/>
   </g>
   <g id="legend_1">
    <g id="line2d_46">
     <path d="M 71.398945 22.536328 
L 83.398945 22.536328 
L 95.398945 22.536328 
" style="fill: none; stroke: #000000; stroke-width: 2.5; stroke-linecap: square"/>
    </g>
    <g id="text_12">
     <!-- vacuum -->
     <g transform="translate(104.998945 26.736328) scale(0.12 -0.12)">
      <defs>
       <path id="ArialMT-59" d="M 1344 0 
L 81 3319 
L 675 3319 
L 1388 1331 
Q 1503 1009 1600 663 
Q 1675 925 1809 1294 
L 2547 3319 
L 3125 3319 
L 1869 0 
L 1344 0 
z
" transform="scale(0.015625)"/>
       <path id="ArialMT-46" d="M 2588 1216 
L 3141 1144 
Q 3050 572 2676 248 
Q 2303 -75 1759 -75 
Q 1078 -75 664 370 
Q 250 816 250 1647 
Q 250 2184 428 2587 
Q 606 2991 970 3192 
Q 1334 3394 1763 3394 
Q 2303 3394 2647 3120 
Q 2991 2847 3088 2344 
L 2541 2259 
Q 2463 2594 2264 2762 
Q 2066 2931 1784 2931 
Q 1359 2931 1093 2626 
Q 828 2322 828 1663 
Q 828 994 1084 691 
Q 1341 388 1753 388 
Q 2084 388 2306 591 
Q 2528 794 2588 1216 
z
" transform="scale(0.015625)"/>
      </defs>
      <use xlink:href="#ArialMT-59"/>
      <use xlink:href="#ArialMT-44" transform="translate(50 0)"/>
      <use xlink:href="#ArialMT-46" transform="translate(105.609375 0)"/>
      <use xlink:href="#ArialMT-58" transform="translate(155.609375 0)"/>
      <use xlink:href="#ArialMT-58" transform="translate(211.21875 0)"/>
      <use xlink:href="#ArialMT-50" transform="translate(266.828125 0)"/>
     </g>
    </g>
    <g id="line2d_47">
     <path d="M 71.398945 39.798047 
L 83.398945 39.798047 
L 95.398945 39.798047 
" style="fill: none; stroke: #1f77b4; stroke-width: 2.5; stroke-linecap: square"/>
    </g>
    <g id="text_13">
     <!-- 1h -->
     <g transform="translate(104.998945 43.998047) scale(0.12 -0.12)">
      <defs>
       <path id="ArialMT-4b" d="M 422 0 
L 422 4581 
L 984 4581 
L 984 2938 
Q 1378 3394 1978 3394 
Q 2347 3394 2619 3248 
Q 2891 3103 3008 2847 
Q 3125 2591 3125 2103 
L 3125 0 
L 2563 0 
L 2563 2103 
Q 2563 2525 2380 2717 
Q 2197 2909 1863 2909 
Q 1613 2909 1392 2779 
Q 1172 2650 1078 2428 
Q 984 2206 984 1816 
L 984 0 
L 422 0 
z
" transform="scale(0.015625)"/>
      </defs>
      <use xlink:href="#ArialMT-14"/>
      <use xlink:href="#ArialMT-4b" transform="translate(55.609375 0)"/>
     </g>
    </g>
    <g id="line2d_48">
     <path d="M 71.398945 57.059766 
L 83.398945 57.059766 
L 95.398945 57.059766 
" style="fill: none; stroke: #0033ff; stroke-width: 2.5; stroke-linecap: square"/>
    </g>
    <g id="text_14">
     <!-- 2h -->
     <g transform="translate(104.998945 61.259766) scale(0.12 -0.12)">
      <use xlink:href="#ArialMT-15"/>
      <use xlink:href="#ArialMT-4b" transform="translate(55.609375 0)"/>
     </g>
    </g>
    <g id="line2d_49">
     <path d="M 71.398945 74.321484 
L 83.398945 74.321484 
L 95.398945 74.321484 
" style="fill: none; stroke: #ff7f0e; stroke-width: 2.5; stroke-linecap: square"/>
    </g>
    <g id="text_15">
     <!-- 4h -->
     <g transform="translate(104.998945 78.521484) scale(0.12 -0.12)">
      <use xlink:href="#ArialMT-17"/>
      <use xlink:href="#ArialMT-4b" transform="translate(55.609375 0)"/>
     </g>
    </g>
    <g id="line2d_50">
     <path d="M 71.398945 91.583203 
L 83.398945 91.583203 
L 95.398945 91.583203 
" style="fill: none; stroke: #ff0000; stroke-width: 2.5; stroke-linecap: square"/>
    </g>
    <g id="text_16">
     <!-- first -->
     <g transform="translate(104.998945 95.783203) scale(0.12 -0.12)">
      <defs>
       <path id="ArialMT-49" d="M 556 0 
L 556 2881 
L 59 2881 
L 59 3319 
L 556 3319 
L 556 3672 
Q 556 4006 616 4169 
Q 697 4388 901 4523 
Q 1106 4659 1475 4659 
Q 1713 4659 2000 4603 
L 1916 4113 
Q 1741 4144 1584 4144 
Q 1328 4144 1222 4034 
Q 1116 3925 1116 3625 
L 1116 3319 
L 1763 3319 
L 1763 2881 
L 1116 2881 
L 1116 0 
L 556 0 
z
" transform="scale(0.015625)"/>
       <path id="ArialMT-4c" d="M 425 3934 
L 425 4581 
L 988 4581 
L 988 3934 
L 425 3934 
z
M 425 0 
L 425 3319 
L 988 3319 
L 988 0 
L 425 0 
z
" transform="scale(0.015625)"/>
       <path id="ArialMT-56" d="M 197 991 
L 753 1078 
Q 800 744 1014 566 
Q 1228 388 1613 388 
Q 2000 388 2187 545 
Q 2375 703 2375 916 
Q 2375 1106 2209 1216 
Q 2094 1291 1634 1406 
Q 1016 1563 777 1677 
Q 538 1791 414 1992 
Q 291 2194 291 2438 
Q 291 2659 392 2848 
Q 494 3038 669 3163 
Q 800 3259 1026 3326 
Q 1253 3394 1513 3394 
Q 1903 3394 2198 3281 
Q 2494 3169 2634 2976 
Q 2775 2784 2828 2463 
L 2278 2388 
Q 2241 2644 2061 2787 
Q 1881 2931 1553 2931 
Q 1166 2931 1000 2803 
Q 834 2675 834 2503 
Q 834 2394 903 2306 
Q 972 2216 1119 2156 
Q 1203 2125 1616 2013 
Q 2213 1853 2448 1751 
Q 2684 1650 2818 1456 
Q 2953 1263 2953 975 
Q 2953 694 2789 445 
Q 2625 197 2315 61 
Q 2006 -75 1616 -75 
Q 969 -75 630 194 
Q 291 463 197 991 
z
" transform="scale(0.015625)"/>
      </defs>
      <use xlink:href="#ArialMT-49"/>
      <use xlink:href="#ArialMT-4c" transform="translate(27.78125 0)"/>
      <use xlink:href="#ArialMT-55" transform="translate(50 0)"/>
      <use xlink:href="#ArialMT-56" transform="translate(83.296875 0)"/>
      <use xlink:href="#ArialMT-57" transform="translate(133.296875 0)"/>
     </g>
    </g>
   </g>
  </g>
 </g>
 <defs>
  <clipPath id="pe215504f3e">
   <rect x="60.598945" y="7.2" width="365.281328" height="292.622656"/>
  </clipPath>
 </defs>
</svg>
