<?xml version="1.0" encoding="utf-8" standalone="no"?>
<!DOCTYPE svg PUBLIC "-//W3C//DTD SVG 1.1//EN"
  "http://www.w3.org/Graphics/SVG/1.1/DTD/svg11.dtd">
<svg xmlns:xlink="http://www.w3.org/1999/xlink" width="448.650898pt" height="340.800273pt" viewBox="0 0 448.650898 340.800273" xmlns="http://www.w3.org/2000/svg" version="1.1">
 <metadata>
  <rdf:RDF xmlns:dc="http://purl.org/dc/elements/1.1/" xmlns:cc="http://creativecommons.org/ns#" xmlns:rdf="http://www.w3.org/1999/02/22-rdf-syntax-ns#">
   <cc:Work>
    <dc:type rdf:resource="http://purl.org/dc/dcmitype/StillImage"/>
    <dc:date>2026-07-09T17:08:37.470059</dc:date>
    <dc:format>image/svg+xml</dc:format>
    <dc:creator>
     <cc:Agent>
      <dc:title>Matplotlib v3.11.0, https://matplotlib.org/</dc:title>
     </cc:Agent>
    </dc:creator>
   </cc:Work>
  </rdf:RDF>
 </metadata>
 <defs>
  <style type="text/css">*{stroke-linejoin: round; stroke-linecap: butt}</style>
 </defs>
 <g id="figure_1">
  <g id="patch_1">
   <path d="M 0 340.800273 
L 448.650898 340.800273 
L 448.650898 0 
L 0 0 
z
" style="fill: #ffffff"/>
  </g>
  <g id="axes_1">
   <g id="patch_2">
    <path d="M 60.598945 299.822656 
L 425.880273 299.822656 
L 425.880273 7.2 
L 60.598945 7.2 
z
" style="fill: #ffffff"/>
   </g>
   <g id="matplotlib.axis_1">
    <g id="xtick_1">
     <g id="line2d_1">
      <defs>
       <path id="mdc8b5ff84f" d="M 0 0 
L 0 -6 
" style="stroke: #000000; stroke-width: 1.5"/>
      </defs>
      <g>
       <use xlink:href="#mdc8b5ff84f" x="60.598945" y="299.822656" style="stroke: #000000; stroke-width: 1.5"/>
      </g>
     </g>
     <g id="text_1">
      <!-- 0 -->
      <g transform="translate(56.706289 313.515039) scale(0.14 -0.14)">
       <defs>
        <path id="ArialMT-13" d="M 266 2259 
Q 266 3072 433 3567 
Q 600 4063 929 4331 
Q 1259 4600 1759 4600 
Q 2128 4600 2406 4451 
Q 2684 4303 2865 4023 
Q 3047 3744 3150 3342 
Q 3253 2941 3253 2259 
Q 3253 1453 3087 958 
Q 2922 463 2592 192 
Q 2263 -78 1759 -78 
Q 1097 -78 719 397 
Q 266 969 266 2259 
z
M 844 2259 
Q 844 1131 1108 757 
Q 1372 384 1759 384 
Q 2147 384 2411 759 
Q 2675 1134 2675 2259 
Q 2675 3391 2411 3762 
Q 2147 4134 1753 4134 
Q 1366 4134 1134 3806 
Q 844 3388 844 2259 
z
" transform="scale(0.015625)"/>
       </defs>
       <use xlink:href="#ArialMT-13"/>
      </g>
     </g>
    </g>
    <g id="xtick_2">
     <g id="line2d_2">
      <g>
       <use xlink:href="#mdc8b5ff84f" x="121.479167" y="299.822656" style="stroke: #000000; stroke-width: 1.5"/>
      </g>
     </g>
     <g id="text_2">
      <!-- 200 -->
      <g transform="translate(109.801198 313.515039) scale(0.14 -0.14)">
       <defs>
        <path id="ArialMT-15" d="M 3222 541 
L 3222 0 
L 194 0 
Q 188 203 259 391 
Q 375 700 629 1000 
Q 884 1300 1366 1694 
Q 2113 2306 2375 2664 
Q 2638 3022 2638 3341 
Q 2638 3675 2398 3904 
Q 2159 4134 1775 4134 
Q 1369 4134 1125 3890 
Q 881 3647 878 3216 
L 300 3275 
Q 359 3922 746 4261 
Q 1134 4600 1788 4600 
Q 2447 4600 2831 4234 
Q 3216 3869 3216 3328 
Q 3216 3053 3103 2787 
Q 2991 2522 2730 2228 
Q 2469 1934 1863 1422 
Q 1356 997 1212 845 
Q 1069 694 975 541 
L 3222 541 
z
" transform="scale(0.015625)"/>
       </defs>
       <use xlink:href="#ArialMT-15"/>
       <use xlink:href="#ArialMT-13" transform="translate(55.609375 0)"/>
       <use xlink:href="#ArialMT-13" transform="translate(111.21875 0)"/>
      </g>
     </g>
    </g>
    <g id="xtick_3">
     <g id="line2d_3">
      <g>
       <use xlink:href="#mdc8b5ff84f" x="182.359388" y="299.822656" style="stroke: #000000; stroke-width: 1.5"/>
      </g>
     </g>
     <g id="text_3">
      <!-- 400 -->
      <g transform="translate(170.681419 313.515039) scale(0.14 -0.14)">
       <defs>
        <path id="ArialMT-17" d="M 2069 0 
L 2069 1097 
L 81 1097 
L 81 1613 
L 2172 4581 
L 2631 4581 
L 2631 1613 
L 3250 1613 
L 3250 1097 
L 2631 1097 
L 2631 0 
L 2069 0 
z
M 2069 1613 
L 2069 3678 
L 634 1613 
L 2069 1613 
z
" transform="scale(0.015625)"/>
       </defs>
       <use xlink:href="#ArialMT-17"/>
       <use xlink:href="#ArialMT-13" transform="translate(55.609375 0)"/>
       <use xlink:href="#ArialMT-13" transform="translate(111.21875 0)"/>
      </g>
     </g>
    </g>
    <g id="xtick_4">
     <g id="line2d_4">
      <g>
       <use xlink:href="#mdc8b5ff84f" x="243.239609" y="299.822656" style="stroke: #000000; stroke-width: 1.5"/>
      </g>
     </g>
     <g id="text_4">
      <!-- 600 -->
      <g transform="translate(231.561641 313.515039) scale(0.14 -0.14)">
       <defs>
        <path id="ArialMT-19" d="M 3184 3459 
L 2625 3416 
Q 2550 3747 2413 3897 
Q 2184 4138 1850 4138 
Q 1581 4138 1378 3988 
Q 1113 3794 959 3422 
Q 806 3050 800 2363 
Q 1003 2672 1297 2822 
Q 1591 2972 1913 2972 
Q 2475 2972 2870 2558 
Q 3266 2144 3266 1488 
Q 3266 1056 3080 686 
Q 2894 316 2569 119 
Q 2244 -78 1831 -78 
Q 1128 -78 684 439 
Q 241 956 241 2144 
Q 241 3472 731 4075 
Q 1159 4600 1884 4600 
Q 2425 4600 2770 4297 
Q 3116 3994 3184 3459 
z
M 888 1484 
Q 888 1194 1011 928 
Q 1134 663 1356 523 
Q 1578 384 1822 384 
Q 2178 384 2434 671 
Q 2691 959 2691 1453 
Q 2691 1928 2437 2201 
Q 2184 2475 1800 2475 
Q 1419 2475 1153 2201 
Q 888 1928 888 1484 
z
" transform="scale(0.015625)"/>
       </defs>
       <use xlink:href="#ArialMT-19"/>
       <use xlink:href="#ArialMT-13" transform="translate(55.609375 0)"/>
       <use xlink:href="#ArialMT-13" transform="translate(111.21875 0)"/>
      </g>
     </g>
    </g>
    <g id="xtick_5">
     <g id="line2d_5">
      <g>
       <use xlink:href="#mdc8b5ff84f" x="304.119831" y="299.822656" style="stroke: #000000; stroke-width: 1.5"/>
      </g>
     </g>
     <g id="text_5">
      <!-- 800 -->
      <g transform="translate(292.441862 313.515039) scale(0.14 -0.14)">
       <defs>
        <path id="ArialMT-1b" d="M 1131 2484 
Q 781 2613 612 2850 
Q 444 3088 444 3419 
Q 444 3919 803 4259 
Q 1163 4600 1759 4600 
Q 2359 4600 2725 4251 
Q 3091 3903 3091 3403 
Q 3091 3084 2923 2848 
Q 2756 2613 2416 2484 
Q 2838 2347 3058 2040 
Q 3278 1734 3278 1309 
Q 3278 722 2862 322 
Q 2447 -78 1769 -78 
Q 1091 -78 675 323 
Q 259 725 259 1325 
Q 259 1772 486 2073 
Q 713 2375 1131 2484 
z
M 1019 3438 
Q 1019 3113 1228 2906 
Q 1438 2700 1772 2700 
Q 2097 2700 2305 2904 
Q 2513 3109 2513 3406 
Q 2513 3716 2298 3927 
Q 2084 4138 1766 4138 
Q 1444 4138 1231 3931 
Q 1019 3725 1019 3438 
z
M 838 1322 
Q 838 1081 952 856 
Q 1066 631 1291 507 
Q 1516 384 1775 384 
Q 2178 384 2440 643 
Q 2703 903 2703 1303 
Q 2703 1709 2433 1975 
Q 2163 2241 1756 2241 
Q 1359 2241 1098 1978 
Q 838 1716 838 1322 
z
" transform="scale(0.015625)"/>
       </defs>
       <use xlink:href="#ArialMT-1b"/>
       <use xlink:href="#ArialMT-13" transform="translate(55.609375 0)"/>
       <use xlink:href="#ArialMT-13" transform="translate(111.21875 0)"/>
      </g>
     </g>
    </g>
    <g id="xtick_6">
     <g id="line2d_6">
      <g>
       <use xlink:href="#mdc8b5ff84f" x="365.000052" y="299.822656" style="stroke: #000000; stroke-width: 1.5"/>
      </g>
     </g>
     <g id="text_6">
      <!-- 1000 -->
      <g transform="translate(349.429427 313.515039) scale(0.14 -0.14)">
       <defs>
        <path id="ArialMT-14" d="M 2384 0 
L 1822 0 
L 1822 3584 
Q 1619 3391 1289 3197 
Q 959 3003 697 2906 
L 697 3450 
Q 1169 3672 1522 3987 
Q 1875 4303 2022 4600 
L 2384 4600 
L 2384 0 
z
" transform="scale(0.015625)"/>
       </defs>
       <use xlink:href="#ArialMT-14"/>
       <use xlink:href="#ArialMT-13" transform="translate(55.609375 0)"/>
       <use xlink:href="#ArialMT-13" transform="translate(111.21875 0)"/>
       <use xlink:href="#ArialMT-13" transform="translate(166.828125 0)"/>
      </g>
     </g>
    </g>
    <g id="xtick_7">
     <g id="line2d_7">
      <g>
       <use xlink:href="#mdc8b5ff84f" x="425.880273" y="299.822656" style="stroke: #000000; stroke-width: 1.5"/>
      </g>
     </g>
     <g id="text_7">
      <!-- 1200 -->
      <g transform="translate(410.309648 313.515039) scale(0.14 -0.14)">
       <use xlink:href="#ArialMT-14"/>
       <use xlink:href="#ArialMT-15" transform="translate(55.609375 0)"/>
       <use xlink:href="#ArialMT-13" transform="translate(111.21875 0)"/>
       <use xlink:href="#ArialMT-13" transform="translate(166.828125 0)"/>
      </g>
     </g>
    </g>
    <g id="xtick_8">
     <g id="line2d_8">
      <defs>
       <path id="mb6d290718a" d="M 0 0 
L 0 -3 
" style="stroke: #000000"/>
      </defs>
      <g>
       <use xlink:href="#mb6d290718a" x="75.819001" y="299.822656" style="stroke: #000000"/>
      </g>
     </g>
    </g>
    <g id="xtick_9">
     <g id="line2d_9">
      <g>
       <use xlink:href="#mb6d290718a" x="91.039056" y="299.822656" style="stroke: #000000"/>
      </g>
     </g>
    </g>
    <g id="xtick_10">
     <g id="line2d_10">
      <g>
       <use xlink:href="#mb6d290718a" x="106.259111" y="299.822656" style="stroke: #000000"/>
      </g>
     </g>
    </g>
    <g id="xtick_11">
     <g id="line2d_11">
      <g>
       <use xlink:href="#mb6d290718a" x="136.699222" y="299.822656" style="stroke: #000000"/>
      </g>
     </g>
    </g>
    <g id="xtick_12">
     <g id="line2d_12">
      <g>
       <use xlink:href="#mb6d290718a" x="151.919277" y="299.822656" style="stroke: #000000"/>
      </g>
     </g>
    </g>
    <g id="xtick_13">
     <g id="line2d_13">
      <g>
       <use xlink:href="#mb6d290718a" x="167.139333" y="299.822656" style="stroke: #000000"/>
      </g>
     </g>
    </g>
    <g id="xtick_14">
     <g id="line2d_14">
      <g>
       <use xlink:href="#mb6d290718a" x="197.579443" y="299.822656" style="stroke: #000000"/>
      </g>
     </g>
    </g>
    <g id="xtick_15">
     <g id="line2d_15">
      <g>
       <use xlink:href="#mb6d290718a" x="212.799499" y="299.822656" style="stroke: #000000"/>
      </g>
     </g>
    </g>
    <g id="xtick_16">
     <g id="line2d_16">
      <g>
       <use xlink:href="#mb6d290718a" x="228.019554" y="299.822656" style="stroke: #000000"/>
      </g>
     </g>
    </g>
    <g id="xtick_17">
     <g id="line2d_17">
      <g>
       <use xlink:href="#mb6d290718a" x="258.459665" y="299.822656" style="stroke: #000000"/>
      </g>
     </g>
    </g>
    <g id="xtick_18">
     <g id="line2d_18">
      <g>
       <use xlink:href="#mb6d290718a" x="273.67972" y="299.822656" style="stroke: #000000"/>
      </g>
     </g>
    </g>
    <g id="xtick_19">
     <g id="line2d_19">
      <g>
       <use xlink:href="#mb6d290718a" x="288.899775" y="299.822656" style="stroke: #000000"/>
      </g>
     </g>
    </g>
    <g id="xtick_20">
     <g id="line2d_20">
      <g>
       <use xlink:href="#mb6d290718a" x="319.339886" y="299.822656" style="stroke: #000000"/>
      </g>
     </g>
    </g>
    <g id="xtick_21">
     <g id="line2d_21">
      <g>
       <use xlink:href="#mb6d290718a" x="334.559941" y="299.822656" style="stroke: #000000"/>
      </g>
     </g>
    </g>
    <g id="xtick_22">
     <g id="line2d_22">
      <g>
       <use xlink:href="#mb6d290718a" x="349.779997" y="299.822656" style="stroke: #000000"/>
      </g>
     </g>
    </g>
    <g id="xtick_23">
     <g id="line2d_23">
      <g>
       <use xlink:href="#mb6d290718a" x="380.220107" y="299.822656" style="stroke: #000000"/>
      </g>
     </g>
    </g>
    <g id="xtick_24">
     <g id="line2d_24">
      <g>
       <use xlink:href="#mb6d290718a" x="395.440163" y="299.822656" style="stroke: #000000"/>
      </g>
     </g>
    </g>
    <g id="xtick_25">
     <g id="line2d_25">
      <g>
       <use xlink:href="#mb6d290718a" x="410.660218" y="299.822656" style="stroke: #000000"/>
      </g>
     </g>
    </g>
    <g id="text_8">
     <!-- T1 Temperature (°C) -->
     <g transform="translate(179.500234 330.653711) scale(0.14 -0.14)">
      <defs>
       <path id="ArialMT-37" d="M 1659 0 
L 1659 4041 
L 150 4041 
L 150 4581 
L 3781 4581 
L 3781 4041 
L 2266 4041 
L 2266 0 
L 1659 0 
z
" transform="scale(0.015625)"/>
       <path id="ArialMT-3" transform="scale(0.015625)"/>
       <path id="ArialMT-48" d="M 2694 1069 
L 3275 997 
Q 3138 488 2766 206 
Q 2394 -75 1816 -75 
Q 1088 -75 661 373 
Q 234 822 234 1631 
Q 234 2469 665 2931 
Q 1097 3394 1784 3394 
Q 2450 3394 2872 2941 
Q 3294 2488 3294 1666 
Q 3294 1616 3291 1516 
L 816 1516 
Q 847 969 1125 678 
Q 1403 388 1819 388 
Q 2128 388 2347 550 
Q 2566 713 2694 1069 
z
M 847 1978 
L 2700 1978 
Q 2663 2397 2488 2606 
Q 2219 2931 1791 2931 
Q 1403 2931 1139 2672 
Q 875 2413 847 1978 
z
" transform="scale(0.015625)"/>
       <path id="ArialMT-50" d="M 422 0 
L 422 3319 
L 925 3319 
L 925 2853 
Q 1081 3097 1340 3245 
Q 1600 3394 1931 3394 
Q 2300 3394 2536 3241 
Q 2772 3088 2869 2813 
Q 3263 3394 3894 3394 
Q 4388 3394 4653 3120 
Q 4919 2847 4919 2278 
L 4919 0 
L 4359 0 
L 4359 2091 
Q 4359 2428 4304 2576 
Q 4250 2725 4106 2815 
Q 3963 2906 3769 2906 
Q 3419 2906 3187 2673 
Q 2956 2441 2956 1928 
L 2956 0 
L 2394 0 
L 2394 2156 
Q 2394 2531 2256 2718 
Q 2119 2906 1806 2906 
Q 1569 2906 1367 2781 
Q 1166 2656 1075 2415 
Q 984 2175 984 1722 
L 984 0 
L 422 0 
z
" transform="scale(0.015625)"/>
       <path id="ArialMT-53" d="M 422 -1272 
L 422 3319 
L 934 3319 
L 934 2888 
Q 1116 3141 1344 3267 
Q 1572 3394 1897 3394 
Q 2322 3394 2647 3175 
Q 2972 2956 3137 2557 
Q 3303 2159 3303 1684 
Q 3303 1175 3120 767 
Q 2938 359 2589 142 
Q 2241 -75 1856 -75 
Q 1575 -75 1351 44 
Q 1128 163 984 344 
L 984 -1272 
L 422 -1272 
z
M 931 1641 
Q 931 1000 1190 694 
Q 1450 388 1819 388 
Q 2194 388 2461 705 
Q 2728 1022 2728 1688 
Q 2728 2322 2467 2637 
Q 2206 2953 1844 2953 
Q 1484 2953 1207 2617 
Q 931 2281 931 1641 
z
" transform="scale(0.015625)"/>
       <path id="ArialMT-55" d="M 416 0 
L 416 3319 
L 922 3319 
L 922 2816 
Q 1116 3169 1280 3281 
Q 1444 3394 1641 3394 
Q 1925 3394 2219 3213 
L 2025 2691 
Q 1819 2813 1613 2813 
Q 1428 2813 1281 2702 
Q 1134 2591 1072 2394 
Q 978 2094 978 1738 
L 978 0 
L 416 0 
z
" transform="scale(0.015625)"/>
       <path id="ArialMT-44" d="M 2588 409 
Q 2275 144 1986 34 
Q 1697 -75 1366 -75 
Q 819 -75 525 192 
Q 231 459 231 875 
Q 231 1119 342 1320 
Q 453 1522 633 1644 
Q 813 1766 1038 1828 
Q 1203 1872 1538 1913 
Q 2219 1994 2541 2106 
Q 2544 2222 2544 2253 
Q 2544 2597 2384 2738 
Q 2169 2928 1744 2928 
Q 1347 2928 1158 2789 
Q 969 2650 878 2297 
L 328 2372 
Q 403 2725 575 2942 
Q 747 3159 1072 3276 
Q 1397 3394 1825 3394 
Q 2250 3394 2515 3294 
Q 2781 3194 2906 3042 
Q 3031 2891 3081 2659 
Q 3109 2516 3109 2141 
L 3109 1391 
Q 3109 606 3145 398 
Q 3181 191 3288 0 
L 2700 0 
Q 2613 175 2588 409 
z
M 2541 1666 
Q 2234 1541 1622 1453 
Q 1275 1403 1131 1340 
Q 988 1278 909 1158 
Q 831 1038 831 891 
Q 831 666 1001 516 
Q 1172 366 1500 366 
Q 1825 366 2078 508 
Q 2331 650 2450 897 
Q 2541 1088 2541 1459 
L 2541 1666 
z
" transform="scale(0.015625)"/>
       <path id="ArialMT-57" d="M 1650 503 
L 1731 6 
Q 1494 -44 1306 -44 
Q 1000 -44 831 53 
Q 663 150 594 308 
Q 525 466 525 972 
L 525 2881 
L 113 2881 
L 113 3319 
L 525 3319 
L 525 4141 
L 1084 4478 
L 1084 3319 
L 1650 3319 
L 1650 2881 
L 1084 2881 
L 1084 941 
Q 1084 700 1114 631 
Q 1144 563 1211 522 
Q 1278 481 1403 481 
Q 1497 481 1650 503 
z
" transform="scale(0.015625)"/>
       <path id="ArialMT-58" d="M 2597 0 
L 2597 488 
Q 2209 -75 1544 -75 
Q 1250 -75 995 37 
Q 741 150 617 320 
Q 494 491 444 738 
Q 409 903 409 1263 
L 409 3319 
L 972 3319 
L 972 1478 
Q 972 1038 1006 884 
Q 1059 663 1231 536 
Q 1403 409 1656 409 
Q 1909 409 2131 539 
Q 2353 669 2445 892 
Q 2538 1116 2538 1541 
L 2538 3319 
L 3100 3319 
L 3100 0 
L 2597 0 
z
" transform="scale(0.015625)"/>
       <path id="ArialMT-b" d="M 1497 -1347 
Q 1031 -759 709 28 
Q 388 816 388 1659 
Q 388 2403 628 3084 
Q 909 3875 1497 4659 
L 1900 4659 
Q 1522 4009 1400 3731 
Q 1209 3300 1100 2831 
Q 966 2247 966 1656 
Q 966 153 1900 -1347 
L 1497 -1347 
z
" transform="scale(0.015625)"/>
       <path id="ArialMT-83" d="M 400 3794 
Q 400 4153 654 4406 
Q 909 4659 1266 4659 
Q 1628 4659 1881 4406 
Q 2134 4153 2134 3794 
Q 2134 3434 1879 3179 
Q 1625 2925 1266 2925 
Q 909 2925 654 3178 
Q 400 3431 400 3794 
z
M 741 3794 
Q 741 3575 895 3420 
Q 1050 3266 1269 3266 
Q 1484 3266 1639 3420 
Q 1794 3575 1794 3794 
Q 1794 4013 1639 4167 
Q 1484 4322 1269 4322 
Q 1050 4322 895 4167 
Q 741 4013 741 3794 
z
" transform="scale(0.015625)"/>
       <path id="ArialMT-26" d="M 3763 1606 
L 4369 1453 
Q 4178 706 3683 314 
Q 3188 -78 2472 -78 
Q 1731 -78 1267 223 
Q 803 525 561 1097 
Q 319 1669 319 2325 
Q 319 3041 592 3573 
Q 866 4106 1370 4382 
Q 1875 4659 2481 4659 
Q 3169 4659 3637 4309 
Q 4106 3959 4291 3325 
L 3694 3184 
Q 3534 3684 3231 3912 
Q 2928 4141 2469 4141 
Q 1941 4141 1586 3887 
Q 1231 3634 1087 3207 
Q 944 2781 944 2328 
Q 944 1744 1114 1308 
Q 1284 872 1643 656 
Q 2003 441 2422 441 
Q 2931 441 3284 734 
Q 3638 1028 3763 1606 
z
" transform="scale(0.015625)"/>
       <path id="ArialMT-c" d="M 791 -1347 
L 388 -1347 
Q 1322 153 1322 1656 
Q 1322 2244 1188 2822 
Q 1081 3291 891 3722 
Q 769 4003 388 4659 
L 791 4659 
Q 1378 3875 1659 3084 
Q 1900 2403 1900 1659 
Q 1900 816 1576 28 
Q 1253 -759 791 -1347 
z
" transform="scale(0.015625)"/>
      </defs>
      <use xlink:href="#ArialMT-37"/>
      <use xlink:href="#ArialMT-14" transform="translate(61.078125 0)"/>
      <use xlink:href="#ArialMT-3" transform="translate(116.6875 0)"/>
      <use xlink:href="#ArialMT-37" transform="translate(142.65625 0)"/>
      <use xlink:href="#ArialMT-48" transform="translate(192.65625 0)"/>
      <use xlink:href="#ArialMT-50" transform="translate(248.265625 0)"/>
      <use xlink:href="#ArialMT-53" transform="translate(331.5625 0)"/>
      <use xlink:href="#ArialMT-48" transform="translate(387.171875 0)"/>
      <use xlink:href="#ArialMT-55" transform="translate(442.78125 0)"/>
      <use xlink:href="#ArialMT-44" transform="translate(476.078125 0)"/>
      <use xlink:href="#ArialMT-57" transform="translate(531.6875 0)"/>
      <use xlink:href="#ArialMT-58" transform="translate(559.46875 0)"/>
      <use xlink:href="#ArialMT-55" transform="translate(615.078125 0)"/>
      <use xlink:href="#ArialMT-48" transform="translate(648.375 0)"/>
      <use xlink:href="#ArialMT-3" transform="translate(703.984375 0)"/>
      <use xlink:href="#ArialMT-b" transform="translate(731.765625 0)"/>
      <use xlink:href="#ArialMT-83" transform="translate(765.0625 0)"/>
      <use xlink:href="#ArialMT-26" transform="translate(805.046875 0)"/>
      <use xlink:href="#ArialMT-c" transform="translate(877.265625 0)"/>
     </g>
    </g>
   </g>
   <g id="matplotlib.axis_2">
    <g id="ytick_1">
     <g id="line2d_26">
      <defs>
       <path id="mb0600126ac" d="M 0 0 
L 6 0 
" style="stroke: #000000; stroke-width: 1.5"/>
      </defs>
      <g>
       <use xlink:href="#mb0600126ac" x="60.598945" y="268.053951" style="stroke: #000000; stroke-width: 1.5"/>
      </g>
     </g>
     <g id="text_9">
      <!-- $\mathdefault{10^{-12}}$ -->
      <g transform="translate(24.338945 274.493951) scale(0.14 -0.14)">
       <defs>
        <path id="ArialMT-ed" d="M 3381 1997 
L 356 1997 
L 356 2522 
L 3381 2522 
L 3381 1997 
z
" transform="scale(0.015625)"/>
       </defs>
       <use xlink:href="#ArialMT-14" transform="translate(0 0.3875)"/>
       <use xlink:href="#ArialMT-13" transform="translate(55.615234 0.3875)"/>
       <use xlink:href="#ArialMT-ed" transform="translate(112.1875 41.6875) scale(0.7)"/>
       <use xlink:href="#ArialMT-14" transform="translate(153.066406 41.6875) scale(0.7)"/>
       <use xlink:href="#ArialMT-15" transform="translate(191.99707 41.6875) scale(0.7)"/>
      </g>
     </g>
    </g>
    <g id="ytick_2">
     <g id="line2d_27">
      <g>
       <use xlink:href="#mb0600126ac" x="60.598945" y="95.814045" style="stroke: #000000; stroke-width: 1.5"/>
      </g>
     </g>
     <g id="text_10">
      <!-- $\mathdefault{10^{-11}}$ -->
      <g transform="translate(25.038945 102.254045) scale(0.14 -0.14)">
       <use xlink:href="#ArialMT-14" transform="translate(0 0.3875)"/>
       <use xlink:href="#ArialMT-13" transform="translate(55.615234 0.3875)"/>
       <use xlink:href="#ArialMT-ed" transform="translate(112.1875 41.6875) scale(0.7)"/>
       <use xlink:href="#ArialMT-14" transform="translate(153.066406 41.6875) scale(0.7)"/>
       <use xlink:href="#ArialMT-14" transform="translate(187.09707 41.6875) scale(0.7)"/>
      </g>
     </g>
    </g>
    <g id="ytick_3">
     <g id="line2d_28">
      <defs>
       <path id="m5447c20092" d="M 0 0 
L 3 0 
" style="stroke: #000000"/>
      </defs>
      <g>
       <use xlink:href="#m5447c20092" x="60.598945" y="294.73425" style="stroke: #000000"/>
      </g>
     </g>
    </g>
    <g id="ytick_4">
     <g id="line2d_29">
      <g>
       <use xlink:href="#m5447c20092" x="60.598945" y="284.745723" style="stroke: #000000"/>
      </g>
     </g>
    </g>
    <g id="ytick_5">
     <g id="line2d_30">
      <g>
       <use xlink:href="#m5447c20092" x="60.598945" y="275.935217" style="stroke: #000000"/>
      </g>
     </g>
    </g>
    <g id="ytick_6">
     <g id="line2d_31">
      <g>
       <use xlink:href="#m5447c20092" x="60.598945" y="216.204573" style="stroke: #000000"/>
      </g>
     </g>
    </g>
    <g id="ytick_7">
     <g id="line2d_32">
      <g>
       <use xlink:href="#m5447c20092" x="60.598945" y="185.874631" style="stroke: #000000"/>
      </g>
     </g>
    </g>
    <g id="ytick_8">
     <g id="line2d_33">
      <g>
       <use xlink:href="#m5447c20092" x="60.598945" y="164.355195" style="stroke: #000000"/>
      </g>
     </g>
    </g>
    <g id="ytick_9">
     <g id="line2d_34">
      <g>
       <use xlink:href="#m5447c20092" x="60.598945" y="147.663423" style="stroke: #000000"/>
      </g>
     </g>
    </g>
    <g id="ytick_10">
     <g id="line2d_35">
      <g>
       <use xlink:href="#m5447c20092" x="60.598945" y="134.025253" style="stroke: #000000"/>
      </g>
     </g>
    </g>
    <g id="ytick_11">
     <g id="line2d_36">
      <g>
       <use xlink:href="#m5447c20092" x="60.598945" y="122.494344" style="stroke: #000000"/>
      </g>
     </g>
    </g>
    <g id="ytick_12">
     <g id="line2d_37">
      <g>
       <use xlink:href="#m5447c20092" x="60.598945" y="112.505816" style="stroke: #000000"/>
      </g>
     </g>
    </g>
    <g id="ytick_13">
     <g id="line2d_38">
      <g>
       <use xlink:href="#m5447c20092" x="60.598945" y="103.695311" style="stroke: #000000"/>
      </g>
     </g>
    </g>
    <g id="ytick_14">
     <g id="line2d_39">
      <g>
       <use xlink:href="#m5447c20092" x="60.598945" y="43.964666" style="stroke: #000000"/>
      </g>
     </g>
    </g>
    <g id="ytick_15">
     <g id="line2d_40">
      <g>
       <use xlink:href="#m5447c20092" x="60.598945" y="13.634724" style="stroke: #000000"/>
      </g>
     </g>
    </g>
    <g id="text_11">
     <!-- Ion Current (m/z 28) -->
     <g transform="translate(17.392383 216.137266) rotate(-90) scale(0.14 -0.14)">
      <defs>
       <path id="ArialMT-2c" d="M 597 0 
L 597 4581 
L 1203 4581 
L 1203 0 
L 597 0 
z
" transform="scale(0.015625)"/>
       <path id="ArialMT-52" d="M 213 1659 
Q 213 2581 725 3025 
Q 1153 3394 1769 3394 
Q 2453 3394 2887 2945 
Q 3322 2497 3322 1706 
Q 3322 1066 3130 698 
Q 2938 331 2570 128 
Q 2203 -75 1769 -75 
Q 1072 -75 642 372 
Q 213 819 213 1659 
z
M 791 1659 
Q 791 1022 1069 705 
Q 1347 388 1769 388 
Q 2188 388 2466 706 
Q 2744 1025 2744 1678 
Q 2744 2294 2464 2611 
Q 2184 2928 1769 2928 
Q 1347 2928 1069 2612 
Q 791 2297 791 1659 
z
" transform="scale(0.015625)"/>
       <path id="ArialMT-51" d="M 422 0 
L 422 3319 
L 928 3319 
L 928 2847 
Q 1294 3394 1984 3394 
Q 2284 3394 2536 3286 
Q 2788 3178 2913 3003 
Q 3038 2828 3088 2588 
Q 3119 2431 3119 2041 
L 3119 0 
L 2556 0 
L 2556 2019 
Q 2556 2363 2490 2533 
Q 2425 2703 2258 2804 
Q 2091 2906 1866 2906 
Q 1506 2906 1245 2678 
Q 984 2450 984 1813 
L 984 0 
L 422 0 
z
" transform="scale(0.015625)"/>
       <path id="ArialMT-12" d="M 0 -78 
L 1328 4659 
L 1778 4659 
L 453 -78 
L 0 -78 
z
" transform="scale(0.015625)"/>
       <path id="ArialMT-5d" d="M 125 0 
L 125 456 
L 2238 2881 
Q 1878 2863 1603 2863 
L 250 2863 
L 250 3319 
L 2963 3319 
L 2963 2947 
L 1166 841 
L 819 456 
Q 1197 484 1528 484 
L 3063 484 
L 3063 0 
L 125 0 
z
" transform="scale(0.015625)"/>
      </defs>
      <use xlink:href="#ArialMT-2c"/>
      <use xlink:href="#ArialMT-52" transform="translate(27.78125 0)"/>
      <use xlink:href="#ArialMT-51" transform="translate(83.390625 0)"/>
      <use xlink:href="#ArialMT-3" transform="translate(139 0)"/>
      <use xlink:href="#ArialMT-26" transform="translate(166.78125 0)"/>
      <use xlink:href="#ArialMT-58" transform="translate(239 0)"/>
      <use xlink:href="#ArialMT-55" transform="translate(294.609375 0)"/>
      <use xlink:href="#ArialMT-55" transform="translate(327.90625 0)"/>
      <use xlink:href="#ArialMT-48" transform="translate(361.203125 0)"/>
      <use xlink:href="#ArialMT-51" transform="translate(416.8125 0)"/>
      <use xlink:href="#ArialMT-57" transform="translate(472.421875 0)"/>
      <use xlink:href="#ArialMT-3" transform="translate(500.203125 0)"/>
      <use xlink:href="#ArialMT-b" transform="translate(527.984375 0)"/>
      <use xlink:href="#ArialMT-50" transform="translate(561.28125 0)"/>
      <use xlink:href="#ArialMT-12" transform="translate(644.578125 0)"/>
      <use xlink:href="#ArialMT-5d" transform="translate(672.359375 0)"/>
      <use xlink:href="#ArialMT-3" transform="translate(722.359375 0)"/>
      <use xlink:href="#ArialMT-15" transform="translate(750.140625 0)"/>
      <use xlink:href="#ArialMT-1b" transform="translate(805.75 0)"/>
      <use xlink:href="#ArialMT-c" transform="translate(861.359375 0)"/>
     </g>
    </g>
   </g>
   <g id="line2d_41">
    <path d="M 78.802131 261.095975 
L 78.802131 247.249069 
L 78.832572 254.906501 
L 79.502254 257.755463 
L 81.08514 255.686584 
L 83.276828 254.496269 
L 85.407636 253.619459 
L 87.203602 254.65875 
L 89.821452 257.739437 
L 91.008616 259.809192 
L 92.07402 260.691174 
L 93.169864 263.17146 
L 94.357028 266.552672 
L 95.574632 263.723393 
L 96.792237 261.896282 
L 98.131602 261.823071 
L 99.440527 262.741696 
L 100.688571 258.247967 
L 103.15422 252.98957 
L 104.280504 250.573268 
L 105.467668 250.723184 
L 106.654833 250.567778 
L 107.872437 249.11073 
L 108.998721 251.706292 
L 110.185886 254.725 
L 111.37305 257.40229 
L 112.560214 256.350075 
L 113.747379 259.562798 
L 114.964983 261.377286 
L 116.182587 259.687581 
L 117.369752 259.828029 
L 118.587356 257.232249 
L 119.77452 256.03078 
L 120.931245 255.614848 
L 122.118409 252.850041 
L 123.305573 250.787437 
L 124.492738 249.588611 
L 125.679902 250.737184 
L 126.867066 251.257402 
L 128.084671 250.769418 
L 129.241395 252.774929 
L 130.458999 253.693294 
L 131.646164 257.511556 
L 132.833328 257.98727 
L 134.020492 257.459634 
L 135.207657 259.0162 
L 136.425261 259.808106 
L 137.642865 259.96684 
L 138.86047 259.270397 
L 140.078074 257.985914 
L 141.234798 257.338838 
L 142.421963 255.912918 
L 143.639567 255.97445 
L 145.953016 252.092164 
L 147.17062 253.018396 
L 148.388225 255.721248 
L 149.575389 254.41414 
L 150.792993 254.218749 
L 151.919277 252.628658 
L 153.106442 253.19369 
L 154.263166 254.250305 
L 155.45033 256.139453 
L 156.607054 255.776572 
L 157.824659 258.711746 
L 159.011823 260.235605 
L 160.198987 262.568968 
L 162.573316 258.256395 
L 163.790921 257.153567 
L 164.947645 258.261378 
L 166.165249 259.146877 
L 167.352413 257.397337 
L 168.570018 256.445086 
L 169.787622 257.807754 
L 170.944347 256.907389 
L 172.161951 257.43575 
L 173.349115 257.247139 
L 174.505839 256.454444 
L 175.662564 258.486963 
L 176.880168 258.817234 
L 180.380781 251.206131 
L 181.598385 251.68739 
L 182.84643 251.692045 
L 184.033594 253.487286 
L 186.468803 253.344349 
L 187.686407 256.380688 
L 188.843132 258.653094 
L 189.999856 257.62433 
L 191.21746 258.140052 
L 192.435065 257.349872 
L 193.561349 257.287276 
L 194.687633 254.985654 
L 195.905237 255.390361 
L 197.092402 254.290301 
L 198.279566 253.498423 
L 199.46673 255.251574 
L 200.653895 257.472297 
L 201.780179 258.67187 
L 202.967343 257.970438 
L 204.184947 256.642262 
L 205.372112 254.254765 
L 206.528836 253.851371 
L 207.716 254.681289 
L 208.903165 253.670984 
L 210.120769 254.412846 
L 211.277493 253.912114 
L 212.464657 255.419842 
L 213.682262 257.849499 
L 214.869426 256.176988 
L 216.056591 254.865615 
L 217.213315 255.208432 
L 218.430919 256.415749 
L 219.618083 258.764774 
L 220.774808 258.302021 
L 221.961972 258.878802 
L 223.149136 258.269642 
L 224.336301 259.422171 
L 225.462585 258.403955 
L 227.836913 250.615925 
L 229.024078 249.312879 
L 230.272122 249.611103 
L 231.428846 250.11048 
L 232.616011 249.997663 
L 233.711855 249.380092 
L 234.838139 251.923576 
L 236.025303 254.020595 
L 237.242908 255.412555 
L 238.460512 251.782855 
L 239.647676 248.605718 
L 240.865281 246.131809 
L 242.052445 245.548091 
L 243.178729 242.393482 
L 244.396334 242.207232 
L 245.583498 241.474381 
L 246.801102 242.832978 
L 247.957827 245.286299 
L 249.144991 245.659913 
L 250.362595 243.64676 
L 251.54976 245.470555 
L 252.706484 244.678311 
L 253.893648 241.505165 
L 255.080812 240.642759 
L 256.267977 240.718888 
L 257.485581 240.652095 
L 258.672745 243.152275 
L 259.82947 241.998263 
L 261.077514 240.518065 
L 262.234238 241.928421 
L 263.421403 242.441671 
L 264.578127 239.700011 
L 265.765291 235.728019 
L 267.013336 237.075788 
L 268.13962 235.580733 
L 269.326784 237.098736 
L 270.513949 242.026158 
L 271.670673 239.691172 
L 272.888277 240.517889 
L 274.136322 240.515526 
L 275.353926 237.838973 
L 277.697815 236.328502 
L 278.915419 238.032818 
L 280.072143 240.036333 
L 281.289748 242.816282 
L 282.507352 246.626614 
L 283.694516 244.931387 
L 286.068845 245.6163 
L 287.225569 245.229348 
L 288.443174 245.534013 
L 289.599898 246.641226 
L 290.756622 250.748612 
L 291.943786 252.653439 
L 293.130951 251.025826 
L 294.287675 250.337167 
L 295.505279 249.916055 
L 296.722884 250.558004 
L 297.849168 251.822577 
L 299.066772 252.125235 
L 300.284377 249.864839 
L 301.410661 251.050826 
L 302.597825 251.158934 
L 303.78499 250.761468 
L 306.159318 247.639258 
L 307.285602 248.955396 
L 309.690371 248.468493 
L 310.847095 248.657959 
L 312.03426 248.126926 
L 313.221424 248.482634 
L 314.408588 249.799003 
L 315.595752 251.426469 
L 316.752477 252.1354 
L 317.909201 250.662656 
L 319.157245 252.6127 
L 321.501134 250.841086 
L 322.627418 251.603333 
L 323.875463 251.449605 
L 325.032187 248.177868 
L 326.249791 246.794519 
L 327.406515 245.295292 
L 328.56324 246.554953 
L 329.750404 246.411097 
L 330.968008 248.972515 
L 333.342337 249.560475 
L 334.833902 251.151678 
L 336.112387 249.982063 
L 337.299551 248.618345 
L 338.517156 246.145457 
L 339.64344 242.19178 
L 340.800164 242.3697 
L 342.048209 240.195595 
L 343.235373 239.37788 
L 344.452977 238.881036 
L 345.548821 238.922898 
L 346.796866 239.248554 
L 347.92315 240.031602 
L 349.201635 240.453864 
L 350.358359 240.360217 
L 351.484643 238.591215 
L 352.702247 240.647029 
L 355.015696 237.753168 
L 356.20286 237.923947 
L 357.481345 238.882078 
L 358.607629 236.216885 
L 359.825233 235.008366 
L 361.042838 234.473062 
L 362.260442 234.798952 
L 363.264966 233.874212 
L 364.51301 233.522976 
L 365.791495 231.859052 
L 366.856899 231.077465 
L 368.074503 233.203908 
L 369.444308 234.471241 
L 370.631473 231.323653 
L 371.757757 230.029695 
L 372.853601 230.202976 
L 374.040765 226.347284 
L 375.197489 224.381512 
L 376.415094 223.037628 
L 377.480497 220.904945 
L 378.667662 219.973138 
L 379.854826 219.24548 
L 382.198715 214.719724 
L 383.446759 213.941286 
L 384.542603 213.022081 
L 385.760208 210.318133 
L 386.856052 207.55981 
L 389.382581 202.664802 
L 393.979037 185.301373 
L 395.622803 183.262651 
L 396.870848 179.787791 
L 398.149333 175.845149 
L 399.275617 170.079556 
L 400.462781 167.222385 
L 401.710826 163.830466 
L 402.776229 158.189387 
L 403.963394 152.726164 
L 405.059238 147.116366 
L 406.368162 143.042522 
L 407.494447 138.158 
L 408.742491 131.576921 
L 410.020976 126.396206 
L 411.14726 119.866394 
L 412.243104 114.782587 
L 413.369388 107.145901 
L 414.647873 100.68761 
L 415.743717 93.304954 
L 418.331126 80.720811 
L 419.30521 74.123358 
L 420.644574 67.868043 
L 421.679538 61.498578 
L 424.145187 48.219714 
L 425.119271 41.274247 
L 425.119271 41.274247 
" clip-path="url(#p50e6dc3a28)" style="fill: none; stroke: #000000; stroke-width: 2.5; stroke-linecap: square"/>
   </g>
   <g id="line2d_42">
    <path d="M 71.100783 243.213331 
L 71.100783 238.036481 
L 71.100783 245.169264 
L 71.100783 244.125014 
L 71.252984 245.141036 
L 71.892226 244.37564 
L 73.566432 244.119895 
L 75.72768 244.423392 
L 77.828048 242.487231 
L 79.593574 241.255959 
L 81.0547 240.639773 
L 83.368148 243.267124 
L 84.372672 242.28782 
L 85.559836 243.020654 
L 86.77744 242.72781 
L 87.873284 245.17789 
L 89.151769 244.621123 
L 90.369374 242.973234 
L 91.465218 242.258211 
L 92.774142 241.715225 
L 93.900426 242.446708 
L 95.148471 243.997379 
L 96.396515 243.433859 
L 98.862164 240.267472 
L 100.140649 241.067501 
L 101.449574 242.023679 
L 102.575858 243.305931 
L 103.823902 244.424696 
L 104.950187 244.507576 
L 106.167791 244.964459 
L 107.294075 246.355887 
L 108.57256 245.301403 
L 109.790164 243.355782 
L 110.946888 242.315453 
L 113.290777 246.716266 
L 114.508381 248.931573 
L 115.695546 249.419089 
L 116.91315 247.650741 
L 117.978554 249.766708 
L 119.226598 251.605574 
L 120.413763 251.79829 
L 121.631367 250.148577 
L 123.944816 248.052623 
L 125.19286 245.558311 
L 126.380024 243.684817 
L 128.754353 237.896095 
L 129.971958 239.194927 
L 131.220002 241.278359 
L 132.285406 245.254012 
L 133.53345 247.643471 
L 134.751055 248.603639 
L 137.094943 247.95912 
L 138.342988 244.966882 
L 139.499712 240.418308 
L 140.747757 237.918574 
L 141.965361 237.900562 
L 143.122085 240.110669 
L 144.248369 243.578364 
L 145.405094 245.315325 
L 146.622698 246.478205 
L 147.809862 244.824744 
L 148.997027 243.75661 
L 150.153751 241.764374 
L 151.401795 239.85284 
L 152.6194 239.352075 
L 153.806564 239.622093 
L 154.932848 239.225735 
L 156.211333 239.508219 
L 157.337617 240.090844 
L 158.463901 240.84186 
L 159.742386 237.715408 
L 162.177595 236.940746 
L 163.303879 234.563948 
L 164.491043 232.647881 
L 165.678207 231.578833 
L 166.834932 230.14976 
L 168.052536 230.373856 
L 169.27014 231.782028 
L 170.487745 231.506632 
L 171.644469 230.563661 
L 175.114642 224.53028 
L 176.362686 223.365786 
L 177.549851 219.377881 
L 178.706575 217.297314 
L 179.893739 213.745349 
L 181.080903 212.181686 
L 182.298508 208.811368 
L 183.546552 206.773592 
L 184.703277 206.383318 
L 187.077605 204.198153 
L 188.203889 201.798531 
L 189.512814 197.955104 
L 190.639098 197.155392 
L 191.795822 193.925844 
L 192.982987 192.115219 
L 194.170151 189.542047 
L 195.357315 185.266232 
L 196.60536 183.727215 
L 197.762084 180.219524 
L 198.949248 177.862912 
L 200.105973 176.086706 
L 201.293137 174.673457 
L 202.510741 176.968457 
L 203.728346 177.179741 
L 206.041794 179.271131 
L 207.228958 178.796293 
L 208.446563 181.848858 
L 209.664167 184.579531 
L 212.008056 188.474429 
L 213.16478 189.670932 
L 214.351944 192.026161 
L 215.539109 190.498922 
L 216.726273 189.17629 
L 217.822117 188.664362 
L 219.131042 187.214484 
L 220.226886 188.023633 
L 221.44449 189.371285 
L 222.601214 191.702128 
L 223.818819 192.892157 
L 225.005983 196.340333 
L 226.162707 196.241191 
L 227.319431 195.741784 
L 228.506596 194.967768 
L 229.69376 194.875838 
L 230.850484 191.675956 
L 232.098529 191.27746 
L 233.255253 189.318349 
L 234.442417 188.538151 
L 235.660022 187.130384 
L 236.786306 186.882446 
L 238.03435 183.623609 
L 239.221515 181.988039 
L 240.347799 181.820357 
L 241.534963 181.264652 
L 242.691687 180.154343 
L 243.878852 181.845406 
L 245.066016 180.808978 
L 246.22274 180.649536 
L 247.470785 180.247073 
L 248.657949 178.51224 
L 251.032278 176.634318 
L 252.189002 177.047606 
L 253.406606 175.600157 
L 254.593771 175.694894 
L 255.750495 176.416206 
L 256.968099 177.597844 
L 258.124823 177.692844 
L 260.499152 176.864784 
L 261.716757 176.459406 
L 262.873481 177.642292 
L 264.091085 178.560787 
L 265.27825 178.231667 
L 266.404534 179.347656 
L 267.652578 179.015358 
L 268.809302 180.176788 
L 269.966027 179.008514 
L 272.340355 174.490891 
L 273.5884 171.946821 
L 274.866884 171.154682 
L 275.993168 170.973143 
L 277.210773 170.893829 
L 278.397937 171.743119 
L 279.615542 173.800921 
L 280.802706 174.291622 
L 281.98987 175.292743 
L 283.116154 175.522051 
L 284.303319 175.400986 
L 285.490483 175.021057 
L 286.708087 175.876675 
L 287.864812 176.449675 
L 289.051976 176.625908 
L 290.23914 176.349116 
L 291.456745 176.922903 
L 292.613469 173.468898 
L 293.770193 173.901132 
L 294.987798 172.315827 
L 296.144522 171.889792 
L 297.301246 172.965404 
L 298.51885 174.452762 
L 299.736455 174.067528 
L 300.862739 174.883092 
L 302.080343 174.30992 
L 303.297948 172.116719 
L 304.424232 169.362099 
L 305.611396 168.2481 
L 306.79856 166.388953 
L 308.016165 166.091842 
L 309.142449 166.066821 
L 311.486338 167.806628 
L 312.703942 167.454891 
L 313.891106 168.291907 
L 315.04783 168.148507 
L 316.234995 169.045817 
L 317.391719 168.852811 
L 318.578883 169.196381 
L 319.766048 166.843776 
L 320.983652 165.982714 
L 324.484265 160.117782 
L 325.671429 159.130227 
L 326.889034 159.23543 
L 328.106638 158.518096 
L 330.450526 156.737568 
L 331.607251 153.803328 
L 332.763975 151.633268 
L 334.2251 147.121194 
L 335.534025 143.515537 
L 336.751629 140.773472 
L 337.999674 134.815784 
L 339.186838 131.85728 
L 340.313122 130.199748 
L 341.561167 129.962209 
L 343.844175 133.143853 
L 346.248944 138.094168 
L 348.623273 141.304747 
L 349.840877 139.25042 
L 351.028041 139.55728 
L 352.215206 141.370987 
L 353.43281 142.842775 
L 356.933423 145.152915 
L 358.120587 145.256171 
L 359.277311 145.144655 
L 360.525356 144.814057 
L 362.869244 144.994665 
L 364.117289 145.645237 
L 365.213133 146.715621 
L 366.339417 147.179366 
L 368.713746 149.75041 
L 371.179395 151.566974 
L 372.366559 152.075327 
L 373.492843 153.677494 
L 374.680007 154.34499 
L 375.806291 154.130252 
L 378.11974 159.127821 
L 379.398224 159.275454 
L 380.585389 160.647603 
L 381.681233 161.591244 
L 382.929277 160.302578 
L 384.116442 160.063754 
L 385.242726 159.094601 
L 386.42989 159.253976 
L 387.586614 158.33236 
L 388.834659 159.387613 
L 390.052263 158.506049 
L 391.117667 157.124989 
L 392.365712 155.76579 
L 393.583316 155.005539 
L 394.892241 151.85168 
L 396.292486 150.218733 
L 397.38833 145.915909 
L 398.758135 143.100341 
L 399.914859 139.419844 
L 401.071583 136.929311 
L 402.289188 134.002596 
L 403.445912 132.123356 
L 404.633076 128.478681 
L 405.911561 126.58216 
L 406.946525 123.480502 
L 408.255449 120.809236 
L 409.412174 116.358806 
L 410.386257 111.351014 
L 411.725622 105.607249 
L 412.912786 101.556997 
L 414.160831 96.803745 
L 415.256675 91.391334 
L 416.382959 84.929475 
L 418.909488 74.53066 
L 419.974892 68.994127 
L 421.222937 63.13222 
L 422.2579 56.897811 
L 423.688585 50.276623 
L 424.784429 43.281379 
L 424.784429 43.281379 
" clip-path="url(#p50e6dc3a28)" style="fill: none; stroke: #1f77b4; stroke-width: 2.5; stroke-linecap: square"/>
   </g>
   <g id="line2d_43">
    <path d="M 70.918143 242.58893 
L 70.918143 237.838925 
L 70.918143 241.971192 
L 71.039903 240.002631 
L 71.618265 238.020298 
L 73.01851 237.926862 
L 75.179758 237.462559 
L 77.341006 240.042634 
L 79.258733 241.270909 
L 80.780739 243.44373 
L 82.028783 240.91894 
L 83.124627 242.908672 
L 84.220471 240.526459 
L 85.316315 240.249741 
L 86.442599 238.762438 
L 87.629764 236.667692 
L 88.847368 237.843449 
L 90.034532 237.519176 
L 91.221697 235.642536 
L 92.408861 235.592129 
L 93.596025 235.093184 
L 94.81363 239.171106 
L 96.000794 239.332719 
L 97.309719 241.484372 
L 98.649084 240.212659 
L 99.927568 238.075545 
L 101.145173 239.114402 
L 102.332337 238.274846 
L 103.519501 237.071233 
L 104.706666 237.334943 
L 105.89383 238.080025 
L 107.080994 239.394606 
L 108.298599 241.651012 
L 109.455323 242.273307 
L 110.672927 241.750108 
L 111.860092 240.318364 
L 113.047256 241.035013 
L 114.26486 242.818873 
L 115.452025 241.256567 
L 116.639189 241.565407 
L 117.826353 243.364991 
L 119.013518 243.475763 
L 120.200682 244.228742 
L 121.326966 243.390874 
L 122.575011 242.958815 
L 124.888459 241.665954 
L 126.106063 242.441967 
L 127.323668 241.597995 
L 128.480392 241.703151 
L 129.667556 241.226441 
L 130.824281 238.02907 
L 131.981005 237.912135 
L 133.229049 237.266919 
L 134.385774 236.478742 
L 135.572938 237.944968 
L 136.790542 238.991661 
L 138.008147 242.973557 
L 139.347512 246.480854 
L 140.443356 248.771159 
L 141.63052 247.133604 
L 142.756804 244.876363 
L 144.004849 244.742821 
L 145.192013 242.033225 
L 146.409617 240.647216 
L 147.566342 237.82617 
L 148.783946 236.433205 
L 149.94067 237.480247 
L 151.158275 237.421017 
L 153.471723 234.91694 
L 154.780648 234.319383 
L 157.094096 233.976143 
L 158.28126 235.296234 
L 159.529305 233.293005 
L 160.686029 233.066703 
L 161.873194 232.431572 
L 162.999478 232.691259 
L 164.247522 232.253929 
L 165.404246 233.198365 
L 166.621851 232.839155 
L 167.809015 232.811128 
L 168.996179 233.92627 
L 170.152904 233.446845 
L 171.340068 233.227381 
L 172.527232 233.839222 
L 173.653516 233.417085 
L 174.871121 232.034833 
L 176.058285 230.38054 
L 177.215009 230.279337 
L 178.432614 229.915411 
L 179.650218 228.46251 
L 180.806942 226.503417 
L 181.963667 221.812218 
L 183.181271 219.140862 
L 184.459756 218.408803 
L 186.894965 211.660595 
L 187.990808 210.202817 
L 190.365137 209.777956 
L 191.552301 207.126131 
L 192.709026 203.41281 
L 193.92663 199.894525 
L 195.144235 198.432821 
L 196.300959 198.790389 
L 197.427243 197.133064 
L 198.614407 196.193269 
L 199.832012 196.641164 
L 201.019176 196.815804 
L 202.1759 196.532619 
L 204.550229 192.209538 
L 205.767833 191.567435 
L 206.954997 191.607931 
L 208.111722 191.768776 
L 211.703655 192.718777 
L 212.860379 192.118929 
L 214.047543 191.840695 
L 215.265148 191.860624 
L 216.421872 191.265188 
L 217.609036 191.226768 
L 218.73532 192.226182 
L 219.952925 193.937078 
L 221.140089 195.072526 
L 222.296813 194.029876 
L 224.732022 190.888894 
L 225.888746 190.117212 
L 228.263075 186.639744 
L 229.419799 185.672002 
L 230.637404 185.791723 
L 231.824568 185.476684 
L 233.011732 183.714593 
L 234.168456 181.689325 
L 235.355621 178.918163 
L 236.573225 177.367951 
L 237.729949 175.181134 
L 238.886674 173.365084 
L 240.104278 171.995098 
L 241.261002 172.139614 
L 242.387286 171.135388 
L 243.604891 170.277429 
L 244.883375 169.138955 
L 246.0401 168.838345 
L 247.196824 169.091178 
L 248.383988 169.580561 
L 249.540712 167.827902 
L 250.758317 168.685592 
L 251.945481 167.701982 
L 253.102205 168.727242 
L 254.31981 168.09586 
L 256.724578 169.109231 
L 257.850863 168.850743 
L 259.129347 169.521397 
L 260.225191 169.773068 
L 261.412355 170.24185 
L 262.6604 172.099111 
L 263.817124 173.158339 
L 264.973848 175.713015 
L 266.130573 175.944162 
L 267.409057 176.916489 
L 268.504901 176.642533 
L 269.722506 175.099864 
L 270.90967 175.055074 
L 272.096834 174.880165 
L 274.562483 171.308514 
L 275.749648 171.411364 
L 276.997692 169.449066 
L 278.123976 168.109371 
L 279.372021 169.104331 
L 280.528745 171.641272 
L 281.655029 173.497786 
L 282.872633 175.746948 
L 284.029358 177.480647 
L 285.246962 176.82854 
L 286.464567 177.053534 
L 287.560411 175.025811 
L 288.778015 172.486144 
L 289.965179 170.78941 
L 291.152344 169.464181 
L 292.369948 170.218965 
L 293.435352 168.605197 
L 295.840121 168.816158 
L 297.057725 167.850783 
L 298.244889 166.436727 
L 299.432054 164.036849 
L 300.680098 161.807018 
L 301.775942 160.08965 
L 302.963107 157.670764 
L 304.180711 156.565032 
L 305.337435 155.176737 
L 306.524599 154.765096 
L 307.711764 153.137465 
L 310.025212 147.999868 
L 312.429981 142.493246 
L 313.617145 141.624807 
L 314.743429 138.449204 
L 317.148198 136.704196 
L 318.365803 136.458194 
L 320.679251 133.729402 
L 321.866415 132.681704 
L 323.05358 131.104079 
L 324.240744 129.112199 
L 326.645513 126.175421 
L 327.771797 125.145623 
L 329.019841 123.439586 
L 330.176565 124.027486 
L 331.36373 124.343559 
L 332.520454 126.951777 
L 333.859819 129.214317 
L 336.416788 132.424977 
L 337.664833 135.371386 
L 338.912877 137.843347 
L 341.287206 139.39901 
L 342.47437 139.571839 
L 343.661534 140.029426 
L 344.787819 141.720695 
L 346.005423 142.427101 
L 347.223027 143.826804 
L 348.379752 145.855337 
L 349.536476 147.513128 
L 350.6932 149.978693 
L 351.910804 151.622263 
L 353.067529 152.465967 
L 354.315573 150.369918 
L 355.472297 149.845457 
L 356.568141 148.176323 
L 357.846626 147.205301 
L 359.00335 147.275545 
L 360.190515 146.128439 
L 361.408119 146.785964 
L 362.473523 149.355563 
L 363.752008 151.672424 
L 364.939172 155.751914 
L 366.095896 158.093442 
L 367.3135 160.846805 
L 368.470225 161.789353 
L 369.687829 163.488131 
L 370.844553 164.233801 
L 372.001278 165.125513 
L 373.310202 167.244858 
L 376.749935 170.528734 
L 377.906659 170.229839 
L 379.154704 170.414544 
L 380.341868 170.257666 
L 381.559472 170.23556 
L 382.655316 169.079472 
L 383.872921 170.442392 
L 386.216809 170.974953 
L 387.251773 170.756434 
L 388.530258 169.836763 
L 389.747862 169.154249 
L 390.874146 167.863539 
L 392.091751 166.028931 
L 393.187595 163.753693 
L 394.526959 161.569506 
L 395.927205 159.901188 
L 397.266569 157.490761 
L 398.484174 154.41055 
L 399.701778 150.958086 
L 402.045667 141.906861 
L 403.141511 138.340252 
L 404.328675 135.432869 
L 406.794324 129.953808 
L 407.859728 125.955427 
L 409.138213 121.951491 
L 410.203616 116.878204 
L 411.451661 111.798973 
L 412.730146 105.197786 
L 413.85643 98.569678 
L 414.921834 93.59952 
L 416.230758 88.838442 
L 418.574647 79.242217 
L 423.323304 56.144119 
L 424.601789 49.352579 
L 425.423672 42.054832 
L 425.423672 42.054832 
" clip-path="url(#p50e6dc3a28)" style="fill: none; stroke: #0033ff; stroke-width: 2.5; stroke-linecap: square"/>
   </g>
   <g id="line2d_44">
    <path d="M 69.091736 276.765374 
L 69.152616 275.61838 
L 69.152616 280.756479 
L 69.152616 277.587703 
L 69.243937 276.699445 
L 69.730979 273.891068 
L 71.192104 273.596027 
L 73.292471 275.87119 
L 75.5146 276.425421 
L 77.371446 276.509252 
L 78.954332 278.124509 
L 80.232817 280.257848 
L 82.394065 277.002897 
L 83.550789 275.911971 
L 84.707513 279.53669 
L 85.894677 281.997873 
L 87.051401 282.489819 
L 88.269006 281.099789 
L 91.800059 286.521626 
L 92.987223 283.991267 
L 94.204828 286.115573 
L 95.361552 284.157478 
L 96.670476 285.158384 
L 97.948961 285.335867 
L 99.288326 283.96981 
L 100.50593 280.259264 
L 101.723535 279.185912 
L 102.941139 278.419104 
L 104.097863 278.979731 
L 105.285028 278.850539 
L 106.472192 281.188738 
L 107.689797 280.265096 
L 108.876961 279.998285 
L 110.094565 280.56784 
L 111.251289 279.211761 
L 112.438454 275.136402 
L 113.625618 273.911463 
L 114.812782 275.875322 
L 117.217551 276.871025 
L 119.500559 283.520692 
L 120.779044 283.274202 
L 121.966208 280.738808 
L 123.092493 280.647291 
L 124.279657 279.879123 
L 125.436381 281.480623 
L 126.714866 282.397986 
L 127.87159 279.893183 
L 129.089194 277.541585 
L 130.276359 276.39256 
L 131.433083 278.102263 
L 132.559367 280.395671 
L 133.807411 278.111917 
L 134.933696 277.708591 
L 136.12086 279.565934 
L 137.399345 277.541495 
L 138.647389 273.310943 
L 139.834553 271.818085 
L 141.052158 271.840793 
L 142.178442 269.154292 
L 143.365606 275.175976 
L 144.552771 276.798932 
L 145.770375 273.163628 
L 146.987979 273.980341 
L 148.175144 272.793769 
L 149.362308 267.904124 
L 150.549472 264.909111 
L 151.706197 265.186449 
L 152.862921 263.091288 
L 154.080525 263.313163 
L 155.206809 266.772192 
L 156.515734 262.194442 
L 157.702898 262.270356 
L 158.859623 264.13164 
L 160.077227 263.643572 
L 161.233951 262.574183 
L 162.451556 262.113822 
L 163.63872 260.606559 
L 164.825884 257.065843 
L 165.952168 257.250024 
L 167.108893 254.808823 
L 168.356937 250.667133 
L 169.574542 250.38309 
L 170.731266 248.558092 
L 173.075154 242.91222 
L 174.262319 240.954478 
L 176.575767 233.631918 
L 177.823812 232.880843 
L 178.980536 230.129665 
L 180.19814 227.921116 
L 181.385304 226.591395 
L 182.542029 220.731341 
L 183.729193 215.47119 
L 184.977238 211.983706 
L 186.194842 204.963194 
L 187.351566 195.617233 
L 190.913059 173.451891 
L 192.130664 167.344878 
L 193.226508 163.484538 
L 194.383232 158.370741 
L 196.818441 152.929149 
L 197.944725 148.569604 
L 199.223209 146.263045 
L 200.379934 143.696135 
L 201.627978 139.017168 
L 202.754262 133.173423 
L 203.941426 128.955871 
L 205.098151 127.128051 
L 206.346195 128.405101 
L 207.53336 133.429773 
L 208.720524 141.064757 
L 209.907688 151.606064 
L 212.251577 178.148779 
L 213.469181 186.303515 
L 214.656345 189.678146 
L 215.84351 192.300829 
L 217.000234 193.067624 
L 218.126518 196.776866 
L 219.313682 199.190843 
L 220.531287 200.027507 
L 224.09278 195.361264 
L 225.279944 194.656527 
L 226.436668 193.16347 
L 227.623833 193.482282 
L 230.028601 195.64533 
L 231.215766 196.007132 
L 232.37249 195.424584 
L 233.559654 195.005492 
L 235.933983 191.483023 
L 237.090707 190.97495 
L 238.277871 187.884262 
L 239.465036 187.307293 
L 240.62176 187.752244 
L 241.839364 186.969928 
L 243.026529 186.446945 
L 245.370417 186.407874 
L 246.557581 184.348019 
L 248.96235 181.376011 
L 250.119074 178.862316 
L 251.306239 177.772882 
L 252.493403 177.898605 
L 256.054896 175.531732 
L 257.2725 175.73232 
L 258.429225 174.00221 
L 259.585949 171.321961 
L 260.803553 170.077565 
L 261.960277 169.526466 
L 263.147442 171.202658 
L 264.365046 172.340222 
L 265.582651 173.6392 
L 266.739375 173.45275 
L 267.896099 174.342578 
L 269.113703 176.176926 
L 270.300868 175.544244 
L 272.675196 177.784696 
L 273.923241 179.863877 
L 275.110405 181.307325 
L 276.29757 180.538819 
L 277.545614 181.217187 
L 278.671898 180.785403 
L 279.889503 182.255442 
L 281.076667 182.738222 
L 282.233391 183.024964 
L 283.420555 183.484654 
L 284.60772 183.458837 
L 285.764444 184.605678 
L 286.951608 183.10587 
L 288.169213 181.800872 
L 290.543541 183.811588 
L 291.730706 183.763577 
L 292.91787 184.099071 
L 294.105034 183.978624 
L 295.231318 183.115517 
L 296.448923 185.078851 
L 297.666527 185.512264 
L 298.792811 184.05568 
L 300.040856 184.504355 
L 302.384744 183.91065 
L 303.541469 183.517996 
L 304.728633 182.945744 
L 305.885357 183.658029 
L 307.072521 183.240414 
L 308.259686 183.173566 
L 309.44685 182.318629 
L 310.664455 182.125794 
L 311.790739 182.330732 
L 312.977903 180.902977 
L 314.195507 180.218189 
L 315.382672 178.646386 
L 316.569836 177.448532 
L 317.72656 179.028968 
L 318.883284 178.345364 
L 320.040009 178.4463 
L 321.288053 178.310561 
L 322.444777 178.980305 
L 323.571061 179.35099 
L 324.788666 178.454656 
L 325.91495 178.361902 
L 327.162995 177.404601 
L 328.350159 175.539 
L 329.537323 174.775193 
L 330.663607 173.600691 
L 331.911652 174.01569 
L 333.129256 171.492749 
L 334.529501 171.3582 
L 335.838426 170.782081 
L 337.086471 168.402429 
L 338.273635 167.880695 
L 339.491239 166.967294 
L 340.678404 164.375696 
L 341.865568 164.007226 
L 342.961412 164.754092 
L 344.239897 166.795174 
L 345.396621 167.767602 
L 346.522905 169.4069 
L 347.80139 169.779081 
L 350.053958 168.75669 
L 351.271562 167.740857 
L 353.645891 168.279411 
L 354.802615 167.656862 
L 355.989779 167.2049 
L 357.268264 166.157382 
L 358.394548 165.678454 
L 359.551272 163.36398 
L 360.768877 158.740288 
L 364.239049 142.797203 
L 366.704698 128.588232 
L 367.830982 122.219129 
L 369.048587 119.19032 
L 370.266191 117.372649 
L 371.362035 116.352599 
L 372.57964 116.893928 
L 373.858124 119.803728 
L 376.232453 130.368046 
L 378.454581 144.332859 
L 379.702626 150.111812 
L 380.85935 157.124652 
L 382.016074 159.733473 
L 383.264118 162.178142 
L 384.359962 163.844251 
L 385.516687 163.977123 
L 386.795171 164.431549 
L 387.860575 164.555768 
L 389.10862 167.037946 
L 390.326224 167.857102 
L 391.422068 169.164966 
L 392.639673 167.238064 
L 393.796397 166.108841 
L 395.196642 164.088305 
L 397.723171 159.156341 
L 403.811193 144.040512 
L 404.937477 139.857476 
L 406.185522 136.654418 
L 407.220486 132.9361 
L 408.49897 129.014077 
L 409.594814 124.348371 
L 410.934179 119.596414 
L 411.908263 113.30692 
L 413.156307 107.330536 
L 414.434792 102.202986 
L 415.469756 95.310194 
L 416.900441 88.520625 
L 417.904964 82.290057 
L 419.183449 77.176319 
L 422.623182 59.385693 
L 423.901666 53.387761 
L 424.99751 47.36798 
L 424.99751 47.36798 
" clip-path="url(#p50e6dc3a28)" style="fill: none; stroke: #ff7f0e; stroke-width: 2.5; stroke-linecap: square"/>
   </g>
   <g id="line2d_45">
    <path d="M 78.832572 238.322895 
L 78.832572 240.541779 
L 78.832572 233.878066 
L 79.410934 232.696608 
L 80.932939 230.008463 
L 83.094187 230.445966 
L 85.285875 233.026385 
L 88.695167 236.349283 
L 89.912772 239.045416 
L 91.069496 238.358386 
L 92.10446 237.127384 
L 93.291624 237.878721 
L 94.387468 238.387329 
L 95.605073 240.081263 
L 96.883557 244.029368 
L 98.131602 246.694914 
L 99.410086 242.858386 
L 100.658131 242.403989 
L 101.875735 240.165484 
L 103.12378 236.123286 
L 104.250064 234.247325 
L 105.467668 233.784781 
L 106.624393 233.774455 
L 107.841997 234.860866 
L 109.059602 236.158068 
L 110.246766 235.580551 
L 111.37305 234.127996 
L 112.560214 236.288726 
L 113.777819 235.685752 
L 115.025863 234.758442 
L 116.243468 235.378674 
L 117.339312 237.554893 
L 118.617796 238.729981 
L 119.804961 238.86694 
L 120.992125 239.433721 
L 122.179289 237.899853 
L 123.305573 236.71334 
L 125.740782 235.535673 
L 126.897506 233.419021 
L 128.115111 236.202092 
L 129.271835 239.193139 
L 130.489439 239.119678 
L 131.646164 238.804988 
L 132.802888 237.447806 
L 134.020492 238.000926 
L 135.207657 237.873993 
L 136.425261 235.258827 
L 138.89091 233.624466 
L 140.108514 235.748458 
L 141.204358 236.266874 
L 142.421963 234.060977 
L 143.609127 234.049996 
L 144.796291 233.812512 
L 145.953016 235.78232 
L 147.17062 235.483675 
L 148.357784 232.764398 
L 149.544949 231.436602 
L 150.701673 229.734519 
L 151.888837 229.842064 
L 154.324046 225.058216 
L 155.51121 225.286951 
L 157.915979 227.379681 
L 159.072703 225.7379 
L 160.290308 223.451765 
L 161.477472 222.121111 
L 162.664636 221.511767 
L 163.851801 219.182507 
L 166.195689 213.979307 
L 167.382854 213.914747 
L 168.600458 214.798679 
L 169.757182 213.21922 
L 170.944347 211.03125 
L 172.131511 210.157839 
L 173.318675 209.079145 
L 174.475399 206.908147 
L 178.158653 194.863127 
L 179.284937 193.374885 
L 180.441661 190.883739 
L 181.628825 191.000295 
L 182.84643 188.847336 
L 184.064034 187.70866 
L 185.281639 185.11974 
L 186.407923 181.207217 
L 188.751811 167.716201 
L 189.999856 161.802807 
L 191.18702 158.306855 
L 192.404625 153.339666 
L 193.530909 150.844183 
L 194.718073 145.87728 
L 197.061961 138.241877 
L 199.46673 127.397103 
L 201.810619 118.689591 
L 202.997783 115.241692 
L 204.184947 110.772171 
L 206.589716 103.049796 
L 207.77688 100.754072 
L 208.933605 98.245271 
L 210.120769 94.92128 
L 211.307933 93.288706 
L 212.495098 91.163782 
L 216.056591 86.50719 
L 217.243755 84.745563 
L 218.400479 83.914368 
L 219.587643 84.122826 
L 220.744368 83.551019 
L 221.961972 83.093815 
L 223.118696 83.155937 
L 224.336301 81.719517 
L 225.493025 81.133994 
L 226.710629 79.874374 
L 231.428846 73.930686 
L 233.772735 68.847312 
L 234.990339 66.719076 
L 236.177504 63.811995 
L 238.490952 60.019305 
L 239.738997 59.330018 
L 240.834841 58.477889 
L 242.052445 58.31906 
L 244.426774 57.414931 
L 245.583498 57.563408 
L 246.740222 58.048696 
L 247.896946 57.62865 
L 249.084111 57.844507 
L 250.362595 58.405982 
L 251.519319 59.844024 
L 252.706484 61.535685 
L 253.863208 63.760853 
L 256.267977 70.09502 
L 257.546461 72.866465 
L 258.703186 75.079756 
L 261.077514 78.688266 
L 264.608567 83.002539 
L 265.826171 83.800501 
L 266.952456 85.417553 
L 268.17006 86.792107 
L 269.387664 87.36441 
L 270.483508 88.288664 
L 271.670673 88.755541 
L 272.918717 88.452228 
L 274.136322 87.220336 
L 276.54109 86.113227 
L 278.915419 86.687117 
L 282.476912 92.419092 
L 283.694516 93.20509 
L 284.820801 94.580048 
L 286.068845 95.617928 
L 287.195129 96.97928 
L 288.382294 97.029823 
L 289.630338 97.287877 
L 290.817502 97.071298 
L 291.943786 97.302732 
L 293.191831 97.059973 
L 294.378995 97.160578 
L 295.53572 96.913067 
L 296.692444 96.794322 
L 297.849168 96.375421 
L 299.066772 95.670845 
L 300.223497 93.461773 
L 301.441101 93.608112 
L 302.628265 92.269023 
L 303.78499 91.613607 
L 305.002594 91.720002 
L 306.159318 91.633975 
L 307.376923 91.068746 
L 308.533647 90.174774 
L 309.690371 89.514731 
L 312.09514 89.240898 
L 313.221424 89.314074 
L 314.439028 87.222441 
L 315.595752 86.632154 
L 316.752477 85.893461 
L 317.939641 85.476369 
L 320.37485 84.934324 
L 321.501134 85.496694 
L 322.718738 85.702981 
L 323.875463 85.780227 
L 325.062627 84.225178 
L 326.280231 82.153509 
L 327.436956 81.298148 
L 328.59368 80.789508 
L 329.780844 81.312733 
L 332.094292 82.535365 
L 333.342337 83.627085 
L 336.021067 82.96288 
L 337.329991 81.582746 
L 339.70432 80.134203 
L 340.891484 79.355673 
L 342.109089 79.383524 
L 343.204933 78.870436 
L 344.452977 79.03364 
L 346.735986 77.02839 
L 347.98403 75.630629 
L 350.358359 72.006773 
L 351.545523 70.309793 
L 352.641367 69.261753 
L 353.889412 69.354283 
L 355.137456 69.810699 
L 356.20286 71.72859 
L 357.450905 73.280965 
L 358.607629 75.602102 
L 359.825233 77.651804 
L 361.012398 79.879013 
L 362.199562 80.651806 
L 363.417166 81.952616 
L 364.51301 82.734843 
L 365.700175 84.436327 
L 366.887339 86.568761 
L 369.413868 90.587347 
L 370.479272 91.508452 
L 371.605556 92.887737 
L 372.823161 94.006316 
L 374.040765 93.449363 
L 375.227929 93.682984 
L 376.354213 94.255015 
L 377.602258 95.095907 
L 378.698102 96.922653 
L 379.854826 97.9835 
L 381.04199 99.503109 
L 382.229155 100.533031 
L 383.507639 101.067083 
L 384.633923 102.117975 
L 385.760208 103.007471 
L 386.977812 102.941321 
L 388.256297 103.318953 
L 389.352141 104.051255 
L 390.508865 105.300754 
L 391.696029 105.46027 
L 394.131238 106.584628 
L 395.501043 105.176362 
L 396.840408 104.859998 
L 398.088452 103.103787 
L 399.275617 100.71729 
L 400.371461 99.499387 
L 401.710826 99.670731 
L 402.80667 98.286286 
L 403.963394 96.349753 
L 405.089678 93.275923 
L 406.429043 90.75596 
L 412.334424 75.729379 
L 415.865477 61.976099 
L 416.961321 57.226414 
L 418.300686 53.008389 
L 421.770858 39.965154 
L 424.206067 27.949487 
L 425.149711 20.50103 
L 425.149711 20.50103 
" clip-path="url(#p50e6dc3a28)" style="fill: none; stroke: #ff0000; stroke-width: 2.5; stroke-linecap: square"/>
   </g>
   <g id="patch_3">
    <path d="M 60.598945 299.822656 
L 60.598945 7.2 
" style="fill: none; stroke: #000000; stroke-width: 1.5; stroke-linejoin: miter; stroke-linecap: square"/>
   </g>
   <g id="patch_4">
    <path d="M 60.598945 299.822656 
L 425.880273 299.822656 
" style="fill: none; stroke: #000000; stroke-width: 1.5; stroke-linejoin: miter; stroke-linecap: square"/>
   </g>
   <g id="legend_1">
    <g id="line2d_46">
     <path d="M 71.398945 22.536328 
L 83.398945 22.536328 
L 95.398945 22.536328 
" style="fill: none; stroke: #000000; stroke-width: 2.5; stroke-linecap: square"/>
    </g>
    <g id="text_12">
     <!-- vacuum -->
     <g transform="translate(104.998945 26.736328) scale(0.12 -0.12)">
      <defs>
       <path id="ArialMT-59" d="M 1344 0 
L 81 3319 
L 675 3319 
L 1388 1331 
Q 1503 1009 1600 663 
Q 1675 925 1809 1294 
L 2547 3319 
L 3125 3319 
L 1869 0 
L 1344 0 
z
" transform="scale(0.015625)"/>
       <path id="ArialMT-46" d="M 2588 1216 
L 3141 1144 
Q 3050 572 2676 248 
Q 2303 -75 1759 -75 
Q 1078 -75 664 370 
Q 250 816 250 1647 
Q 250 2184 428 2587 
Q 606 2991 970 3192 
Q 1334 3394 1763 3394 
Q 2303 3394 2647 3120 
Q 2991 2847 3088 2344 
L 2541 2259 
Q 2463 2594 2264 2762 
Q 2066 2931 1784 2931 
Q 1359 2931 1093 2626 
Q 828 2322 828 1663 
Q 828 994 1084 691 
Q 1341 388 1753 388 
Q 2084 388 2306 591 
Q 2528 794 2588 1216 
z
" transform="scale(0.015625)"/>
      </defs>
      <use xlink:href="#ArialMT-59"/>
      <use xlink:href="#ArialMT-44" transform="translate(50 0)"/>
      <use xlink:href="#ArialMT-46" transform="translate(105.609375 0)"/>
      <use xlink:href="#ArialMT-58" transform="translate(155.609375 0)"/>
      <use xlink:href="#ArialMT-58" transform="translate(211.21875 0)"/>
      <use xlink:href="#ArialMT-50" transform="translate(266.828125 0)"/>
     </g>
    </g>
    <g id="line2d_47">
     <path d="M 71.398945 39.798047 
L 83.398945 39.798047 
L 95.398945 39.798047 
" style="fill: none; stroke: #1f77b4; stroke-width: 2.5; stroke-linecap: square"/>
    </g>
    <g id="text_13">
     <!-- 1h -->
     <g transform="translate(104.998945 43.998047) scale(0.12 -0.12)">
      <defs>
       <path id="ArialMT-4b" d="M 422 0 
L 422 4581 
L 984 4581 
L 984 2938 
Q 1378 3394 1978 3394 
Q 2347 3394 2619 3248 
Q 2891 3103 3008 2847 
Q 3125 2591 3125 2103 
L 3125 0 
L 2563 0 
L 2563 2103 
Q 2563 2525 2380 2717 
Q 2197 2909 1863 2909 
Q 1613 2909 1392 2779 
Q 1172 2650 1078 2428 
Q 984 2206 984 1816 
L 984 0 
L 422 0 
z
" transform="scale(0.015625)"/>
      </defs>
      <use xlink:href="#ArialMT-14"/>
      <use xlink:href="#ArialMT-4b" transform="translate(55.609375 0)"/>
     </g>
    </g>
    <g id="line2d_48">
     <path d="M 71.398945 57.059766 
L 83.398945 57.059766 
L 95.398945 57.059766 
" style="fill: none; stroke: #0033ff; stroke-width: 2.5; stroke-linecap: square"/>
    </g>
    <g id="text_14">
     <!-- 2h -->
     <g transform="translate(104.998945 61.259766) scale(0.12 -0.12)">
      <use xlink:href="#ArialMT-15"/>
      <use xlink:href="#ArialMT-4b" transform="translate(55.609375 0)"/>
     </g>
    </g>
    <g id="line2d_49">
     <path d="M 71.398945 74.321484 
L 83.398945 74.321484 
L 95.398945 74.321484 
" style="fill: none; stroke: #ff7f0e; stroke-width: 2.5; stroke-linecap: square"/>
    </g>
    <g id="text_15">
     <!-- 4h -->
     <g transform="translate(104.998945 78.521484) scale(0.12 -0.12)">
      <use xlink:href="#ArialMT-17"/>
      <use xlink:href="#ArialMT-4b" transform="translate(55.609375 0)"/>
     </g>
    </g>
    <g id="line2d_50">
     <path d="M 71.398945 91.583203 
L 83.398945 91.583203 
L 95.398945 91.583203 
" style="fill: none; stroke: #ff0000; stroke-width: 2.5; stroke-linecap: square"/>
    </g>
    <g id="text_16">
     <!-- first -->
     <g transform="translate(104.998945 95.783203) scale(0.12 -0.12)">
      <defs>
       <path id="ArialMT-49" d="M 556 0 
L 556 2881 
L 59 2881 
L 59 3319 
L 556 3319 
L 556 3672 
Q 556 4006 616 4169 
Q 697 4388 901 4523 
Q 1106 4659 1475 4659 
Q 1713 4659 2000 4603 
L 1916 4113 
Q 1741 4144 1584 4144 
Q 1328 4144 1222 4034 
Q 1116 3925 1116 3625 
L 1116 3319 
L 1763 3319 
L 1763 2881 
L 1116 2881 
L 1116 0 
L 556 0 
z
" transform="scale(0.015625)"/>
       <path id="ArialMT-4c" d="M 425 3934 
L 425 4581 
L 988 4581 
L 988 3934 
L 425 3934 
z
M 425 0 
L 425 3319 
L 988 3319 
L 988 0 
L 425 0 
z
" transform="scale(0.015625)"/>
       <path id="ArialMT-56" d="M 197 991 
L 753 1078 
Q 800 744 1014 566 
Q 1228 388 1613 388 
Q 2000 388 2187 545 
Q 2375 703 2375 916 
Q 2375 1106 2209 1216 
Q 2094 1291 1634 1406 
Q 1016 1563 777 1677 
Q 538 1791 414 1992 
Q 291 2194 291 2438 
Q 291 2659 392 2848 
Q 494 3038 669 3163 
Q 800 3259 1026 3326 
Q 1253 3394 1513 3394 
Q 1903 3394 2198 3281 
Q 2494 3169 2634 2976 
Q 2775 2784 2828 2463 
L 2278 2388 
Q 2241 2644 2061 2787 
Q 1881 2931 1553 2931 
Q 1166 2931 1000 2803 
Q 834 2675 834 2503 
Q 834 2394 903 2306 
Q 972 2216 1119 2156 
Q 1203 2125 1616 2013 
Q 2213 1853 2448 1751 
Q 2684 1650 2818 1456 
Q 2953 1263 2953 975 
Q 2953 694 2789 445 
Q 2625 197 2315 61 
Q 2006 -75 1616 -75 
Q 969 -75 630 194 
Q 291 463 197 991 
z
" transform="scale(0.015625)"/>
      </defs>
      <use xlink:href="#ArialMT-49"/>
      <use xlink:href="#ArialMT-4c" transform="translate(27.78125 0)"/>
      <use xlink:href="#ArialMT-55" transform="translate(50 0)"/>
      <use xlink:href="#ArialMT-56" transform="translate(83.296875 0)"/>
      <use xlink:href="#ArialMT-57" transform="translate(133.296875 0)"/>
     </g>
    </g>
   </g>
  </g>
 </g>
 <defs>
  <clipPath id="p50e6dc3a28">
   <rect x="60.598945" y="7.2" width="365.281328" height="292.622656"/>
  </clipPath>
 </defs>
</svg>
