<?xml version="1.0" encoding="utf-8" standalone="no"?>
<!DOCTYPE svg PUBLIC "-//W3C//DTD SVG 1.1//EN"
  "http://www.w3.org/Graphics/SVG/1.1/DTD/svg11.dtd">
<svg xmlns:xlink="http://www.w3.org/1999/xlink" width="448.650898pt" height="340.800273pt" viewBox="0 0 448.650898 340.800273" xmlns="http://www.w3.org/2000/svg" version="1.1">
 <metadata>
  <rdf:RDF xmlns:dc="http://purl.org/dc/elements/1.1/" xmlns:cc="http://creativecommons.org/ns#" xmlns:rdf="http://www.w3.org/1999/02/22-rdf-syntax-ns#">
   <cc:Work>
    <dc:type rdf:resource="http://purl.org/dc/dcmitype/StillImage"/>
    <dc:date>2026-07-09T17:08:36.309114</dc:date>
    <dc:format>image/svg+xml</dc:format>
    <dc:creator>
     <cc:Agent>
      <dc:title>Matplotlib v3.11.0, https://matplotlib.org/</dc:title>
     </cc:Agent>
    </dc:creator>
   </cc:Work>
  </rdf:RDF>
 </metadata>
 <defs>
  <style type="text/css">*{stroke-linejoin: round; stroke-linecap: butt}</style>
 </defs>
 <g id="figure_1">
  <g id="patch_1">
   <path d="M 0 340.800273 
L 448.650898 340.800273 
L 448.650898 0 
L 0 0 
z
" style="fill: #ffffff"/>
  </g>
  <g id="axes_1">
   <g id="patch_2">
    <path d="M 60.598945 299.822656 
L 425.880273 299.822656 
L 425.880273 7.2 
L 60.598945 7.2 
z
" style="fill: #ffffff"/>
   </g>
   <g id="matplotlib.axis_1">
    <g id="xtick_1">
     <g id="line2d_1">
      <defs>
       <path id="m31cc44f32f" d="M 0 0 
L 0 -6 
" style="stroke: #000000; stroke-width: 1.5"/>
      </defs>
      <g>
       <use xlink:href="#m31cc44f32f" x="60.598945" y="299.822656" style="stroke: #000000; stroke-width: 1.5"/>
      </g>
     </g>
     <g id="text_1">
      <!-- 0 -->
      <g transform="translate(56.706289 313.515039) scale(0.14 -0.14)">
       <defs>
        <path id="ArialMT-13" d="M 266 2259 
Q 266 3072 433 3567 
Q 600 4063 929 4331 
Q 1259 4600 1759 4600 
Q 2128 4600 2406 4451 
Q 2684 4303 2865 4023 
Q 3047 3744 3150 3342 
Q 3253 2941 3253 2259 
Q 3253 1453 3087 958 
Q 2922 463 2592 192 
Q 2263 -78 1759 -78 
Q 1097 -78 719 397 
Q 266 969 266 2259 
z
M 844 2259 
Q 844 1131 1108 757 
Q 1372 384 1759 384 
Q 2147 384 2411 759 
Q 2675 1134 2675 2259 
Q 2675 3391 2411 3762 
Q 2147 4134 1753 4134 
Q 1366 4134 1134 3806 
Q 844 3388 844 2259 
z
" transform="scale(0.015625)"/>
       </defs>
       <use xlink:href="#ArialMT-13"/>
      </g>
     </g>
    </g>
    <g id="xtick_2">
     <g id="line2d_2">
      <g>
       <use xlink:href="#m31cc44f32f" x="121.479167" y="299.822656" style="stroke: #000000; stroke-width: 1.5"/>
      </g>
     </g>
     <g id="text_2">
      <!-- 200 -->
      <g transform="translate(109.801198 313.515039) scale(0.14 -0.14)">
       <defs>
        <path id="ArialMT-15" d="M 3222 541 
L 3222 0 
L 194 0 
Q 188 203 259 391 
Q 375 700 629 1000 
Q 884 1300 1366 1694 
Q 2113 2306 2375 2664 
Q 2638 3022 2638 3341 
Q 2638 3675 2398 3904 
Q 2159 4134 1775 4134 
Q 1369 4134 1125 3890 
Q 881 3647 878 3216 
L 300 3275 
Q 359 3922 746 4261 
Q 1134 4600 1788 4600 
Q 2447 4600 2831 4234 
Q 3216 3869 3216 3328 
Q 3216 3053 3103 2787 
Q 2991 2522 2730 2228 
Q 2469 1934 1863 1422 
Q 1356 997 1212 845 
Q 1069 694 975 541 
L 3222 541 
z
" transform="scale(0.015625)"/>
       </defs>
       <use xlink:href="#ArialMT-15"/>
       <use xlink:href="#ArialMT-13" transform="translate(55.609375 0)"/>
       <use xlink:href="#ArialMT-13" transform="translate(111.21875 0)"/>
      </g>
     </g>
    </g>
    <g id="xtick_3">
     <g id="line2d_3">
      <g>
       <use xlink:href="#m31cc44f32f" x="182.359388" y="299.822656" style="stroke: #000000; stroke-width: 1.5"/>
      </g>
     </g>
     <g id="text_3">
      <!-- 400 -->
      <g transform="translate(170.681419 313.515039) scale(0.14 -0.14)">
       <defs>
        <path id="ArialMT-17" d="M 2069 0 
L 2069 1097 
L 81 1097 
L 81 1613 
L 2172 4581 
L 2631 4581 
L 2631 1613 
L 3250 1613 
L 3250 1097 
L 2631 1097 
L 2631 0 
L 2069 0 
z
M 2069 1613 
L 2069 3678 
L 634 1613 
L 2069 1613 
z
" transform="scale(0.015625)"/>
       </defs>
       <use xlink:href="#ArialMT-17"/>
       <use xlink:href="#ArialMT-13" transform="translate(55.609375 0)"/>
       <use xlink:href="#ArialMT-13" transform="translate(111.21875 0)"/>
      </g>
     </g>
    </g>
    <g id="xtick_4">
     <g id="line2d_4">
      <g>
       <use xlink:href="#m31cc44f32f" x="243.239609" y="299.822656" style="stroke: #000000; stroke-width: 1.5"/>
      </g>
     </g>
     <g id="text_4">
      <!-- 600 -->
      <g transform="translate(231.561641 313.515039) scale(0.14 -0.14)">
       <defs>
        <path id="ArialMT-19" d="M 3184 3459 
L 2625 3416 
Q 2550 3747 2413 3897 
Q 2184 4138 1850 4138 
Q 1581 4138 1378 3988 
Q 1113 3794 959 3422 
Q 806 3050 800 2363 
Q 1003 2672 1297 2822 
Q 1591 2972 1913 2972 
Q 2475 2972 2870 2558 
Q 3266 2144 3266 1488 
Q 3266 1056 3080 686 
Q 2894 316 2569 119 
Q 2244 -78 1831 -78 
Q 1128 -78 684 439 
Q 241 956 241 2144 
Q 241 3472 731 4075 
Q 1159 4600 1884 4600 
Q 2425 4600 2770 4297 
Q 3116 3994 3184 3459 
z
M 888 1484 
Q 888 1194 1011 928 
Q 1134 663 1356 523 
Q 1578 384 1822 384 
Q 2178 384 2434 671 
Q 2691 959 2691 1453 
Q 2691 1928 2437 2201 
Q 2184 2475 1800 2475 
Q 1419 2475 1153 2201 
Q 888 1928 888 1484 
z
" transform="scale(0.015625)"/>
       </defs>
       <use xlink:href="#ArialMT-19"/>
       <use xlink:href="#ArialMT-13" transform="translate(55.609375 0)"/>
       <use xlink:href="#ArialMT-13" transform="translate(111.21875 0)"/>
      </g>
     </g>
    </g>
    <g id="xtick_5">
     <g id="line2d_5">
      <g>
       <use xlink:href="#m31cc44f32f" x="304.119831" y="299.822656" style="stroke: #000000; stroke-width: 1.5"/>
      </g>
     </g>
     <g id="text_5">
      <!-- 800 -->
      <g transform="translate(292.441862 313.515039) scale(0.14 -0.14)">
       <defs>
        <path id="ArialMT-1b" d="M 1131 2484 
Q 781 2613 612 2850 
Q 444 3088 444 3419 
Q 444 3919 803 4259 
Q 1163 4600 1759 4600 
Q 2359 4600 2725 4251 
Q 3091 3903 3091 3403 
Q 3091 3084 2923 2848 
Q 2756 2613 2416 2484 
Q 2838 2347 3058 2040 
Q 3278 1734 3278 1309 
Q 3278 722 2862 322 
Q 2447 -78 1769 -78 
Q 1091 -78 675 323 
Q 259 725 259 1325 
Q 259 1772 486 2073 
Q 713 2375 1131 2484 
z
M 1019 3438 
Q 1019 3113 1228 2906 
Q 1438 2700 1772 2700 
Q 2097 2700 2305 2904 
Q 2513 3109 2513 3406 
Q 2513 3716 2298 3927 
Q 2084 4138 1766 4138 
Q 1444 4138 1231 3931 
Q 1019 3725 1019 3438 
z
M 838 1322 
Q 838 1081 952 856 
Q 1066 631 1291 507 
Q 1516 384 1775 384 
Q 2178 384 2440 643 
Q 2703 903 2703 1303 
Q 2703 1709 2433 1975 
Q 2163 2241 1756 2241 
Q 1359 2241 1098 1978 
Q 838 1716 838 1322 
z
" transform="scale(0.015625)"/>
       </defs>
       <use xlink:href="#ArialMT-1b"/>
       <use xlink:href="#ArialMT-13" transform="translate(55.609375 0)"/>
       <use xlink:href="#ArialMT-13" transform="translate(111.21875 0)"/>
      </g>
     </g>
    </g>
    <g id="xtick_6">
     <g id="line2d_6">
      <g>
       <use xlink:href="#m31cc44f32f" x="365.000052" y="299.822656" style="stroke: #000000; stroke-width: 1.5"/>
      </g>
     </g>
     <g id="text_6">
      <!-- 1000 -->
      <g transform="translate(349.429427 313.515039) scale(0.14 -0.14)">
       <defs>
        <path id="ArialMT-14" d="M 2384 0 
L 1822 0 
L 1822 3584 
Q 1619 3391 1289 3197 
Q 959 3003 697 2906 
L 697 3450 
Q 1169 3672 1522 3987 
Q 1875 4303 2022 4600 
L 2384 4600 
L 2384 0 
z
" transform="scale(0.015625)"/>
       </defs>
       <use xlink:href="#ArialMT-14"/>
       <use xlink:href="#ArialMT-13" transform="translate(55.609375 0)"/>
       <use xlink:href="#ArialMT-13" transform="translate(111.21875 0)"/>
       <use xlink:href="#ArialMT-13" transform="translate(166.828125 0)"/>
      </g>
     </g>
    </g>
    <g id="xtick_7">
     <g id="line2d_7">
      <g>
       <use xlink:href="#m31cc44f32f" x="425.880273" y="299.822656" style="stroke: #000000; stroke-width: 1.5"/>
      </g>
     </g>
     <g id="text_7">
      <!-- 1200 -->
      <g transform="translate(410.309648 313.515039) scale(0.14 -0.14)">
       <use xlink:href="#ArialMT-14"/>
       <use xlink:href="#ArialMT-15" transform="translate(55.609375 0)"/>
       <use xlink:href="#ArialMT-13" transform="translate(111.21875 0)"/>
       <use xlink:href="#ArialMT-13" transform="translate(166.828125 0)"/>
      </g>
     </g>
    </g>
    <g id="xtick_8">
     <g id="line2d_8">
      <defs>
       <path id="m8bd14f77b2" d="M 0 0 
L 0 -3 
" style="stroke: #000000"/>
      </defs>
      <g>
       <use xlink:href="#m8bd14f77b2" x="75.819001" y="299.822656" style="stroke: #000000"/>
      </g>
     </g>
    </g>
    <g id="xtick_9">
     <g id="line2d_9">
      <g>
       <use xlink:href="#m8bd14f77b2" x="91.039056" y="299.822656" style="stroke: #000000"/>
      </g>
     </g>
    </g>
    <g id="xtick_10">
     <g id="line2d_10">
      <g>
       <use xlink:href="#m8bd14f77b2" x="106.259111" y="299.822656" style="stroke: #000000"/>
      </g>
     </g>
    </g>
    <g id="xtick_11">
     <g id="line2d_11">
      <g>
       <use xlink:href="#m8bd14f77b2" x="136.699222" y="299.822656" style="stroke: #000000"/>
      </g>
     </g>
    </g>
    <g id="xtick_12">
     <g id="line2d_12">
      <g>
       <use xlink:href="#m8bd14f77b2" x="151.919277" y="299.822656" style="stroke: #000000"/>
      </g>
     </g>
    </g>
    <g id="xtick_13">
     <g id="line2d_13">
      <g>
       <use xlink:href="#m8bd14f77b2" x="167.139333" y="299.822656" style="stroke: #000000"/>
      </g>
     </g>
    </g>
    <g id="xtick_14">
     <g id="line2d_14">
      <g>
       <use xlink:href="#m8bd14f77b2" x="197.579443" y="299.822656" style="stroke: #000000"/>
      </g>
     </g>
    </g>
    <g id="xtick_15">
     <g id="line2d_15">
      <g>
       <use xlink:href="#m8bd14f77b2" x="212.799499" y="299.822656" style="stroke: #000000"/>
      </g>
     </g>
    </g>
    <g id="xtick_16">
     <g id="line2d_16">
      <g>
       <use xlink:href="#m8bd14f77b2" x="228.019554" y="299.822656" style="stroke: #000000"/>
      </g>
     </g>
    </g>
    <g id="xtick_17">
     <g id="line2d_17">
      <g>
       <use xlink:href="#m8bd14f77b2" x="258.459665" y="299.822656" style="stroke: #000000"/>
      </g>
     </g>
    </g>
    <g id="xtick_18">
     <g id="line2d_18">
      <g>
       <use xlink:href="#m8bd14f77b2" x="273.67972" y="299.822656" style="stroke: #000000"/>
      </g>
     </g>
    </g>
    <g id="xtick_19">
     <g id="line2d_19">
      <g>
       <use xlink:href="#m8bd14f77b2" x="288.899775" y="299.822656" style="stroke: #000000"/>
      </g>
     </g>
    </g>
    <g id="xtick_20">
     <g id="line2d_20">
      <g>
       <use xlink:href="#m8bd14f77b2" x="319.339886" y="299.822656" style="stroke: #000000"/>
      </g>
     </g>
    </g>
    <g id="xtick_21">
     <g id="line2d_21">
      <g>
       <use xlink:href="#m8bd14f77b2" x="334.559941" y="299.822656" style="stroke: #000000"/>
      </g>
     </g>
    </g>
    <g id="xtick_22">
     <g id="line2d_22">
      <g>
       <use xlink:href="#m8bd14f77b2" x="349.779997" y="299.822656" style="stroke: #000000"/>
      </g>
     </g>
    </g>
    <g id="xtick_23">
     <g id="line2d_23">
      <g>
       <use xlink:href="#m8bd14f77b2" x="380.220107" y="299.822656" style="stroke: #000000"/>
      </g>
     </g>
    </g>
    <g id="xtick_24">
     <g id="line2d_24">
      <g>
       <use xlink:href="#m8bd14f77b2" x="395.440163" y="299.822656" style="stroke: #000000"/>
      </g>
     </g>
    </g>
    <g id="xtick_25">
     <g id="line2d_25">
      <g>
       <use xlink:href="#m8bd14f77b2" x="410.660218" y="299.822656" style="stroke: #000000"/>
      </g>
     </g>
    </g>
    <g id="text_8">
     <!-- T1 Temperature (°C) -->
     <g transform="translate(179.500234 330.653711) scale(0.14 -0.14)">
      <defs>
       <path id="ArialMT-37" d="M 1659 0 
L 1659 4041 
L 150 4041 
L 150 4581 
L 3781 4581 
L 3781 4041 
L 2266 4041 
L 2266 0 
L 1659 0 
z
" transform="scale(0.015625)"/>
       <path id="ArialMT-3" transform="scale(0.015625)"/>
       <path id="ArialMT-48" d="M 2694 1069 
L 3275 997 
Q 3138 488 2766 206 
Q 2394 -75 1816 -75 
Q 1088 -75 661 373 
Q 234 822 234 1631 
Q 234 2469 665 2931 
Q 1097 3394 1784 3394 
Q 2450 3394 2872 2941 
Q 3294 2488 3294 1666 
Q 3294 1616 3291 1516 
L 816 1516 
Q 847 969 1125 678 
Q 1403 388 1819 388 
Q 2128 388 2347 550 
Q 2566 713 2694 1069 
z
M 847 1978 
L 2700 1978 
Q 2663 2397 2488 2606 
Q 2219 2931 1791 2931 
Q 1403 2931 1139 2672 
Q 875 2413 847 1978 
z
" transform="scale(0.015625)"/>
       <path id="ArialMT-50" d="M 422 0 
L 422 3319 
L 925 3319 
L 925 2853 
Q 1081 3097 1340 3245 
Q 1600 3394 1931 3394 
Q 2300 3394 2536 3241 
Q 2772 3088 2869 2813 
Q 3263 3394 3894 3394 
Q 4388 3394 4653 3120 
Q 4919 2847 4919 2278 
L 4919 0 
L 4359 0 
L 4359 2091 
Q 4359 2428 4304 2576 
Q 4250 2725 4106 2815 
Q 3963 2906 3769 2906 
Q 3419 2906 3187 2673 
Q 2956 2441 2956 1928 
L 2956 0 
L 2394 0 
L 2394 2156 
Q 2394 2531 2256 2718 
Q 2119 2906 1806 2906 
Q 1569 2906 1367 2781 
Q 1166 2656 1075 2415 
Q 984 2175 984 1722 
L 984 0 
L 422 0 
z
" transform="scale(0.015625)"/>
       <path id="ArialMT-53" d="M 422 -1272 
L 422 3319 
L 934 3319 
L 934 2888 
Q 1116 3141 1344 3267 
Q 1572 3394 1897 3394 
Q 2322 3394 2647 3175 
Q 2972 2956 3137 2557 
Q 3303 2159 3303 1684 
Q 3303 1175 3120 767 
Q 2938 359 2589 142 
Q 2241 -75 1856 -75 
Q 1575 -75 1351 44 
Q 1128 163 984 344 
L 984 -1272 
L 422 -1272 
z
M 931 1641 
Q 931 1000 1190 694 
Q 1450 388 1819 388 
Q 2194 388 2461 705 
Q 2728 1022 2728 1688 
Q 2728 2322 2467 2637 
Q 2206 2953 1844 2953 
Q 1484 2953 1207 2617 
Q 931 2281 931 1641 
z
" transform="scale(0.015625)"/>
       <path id="ArialMT-55" d="M 416 0 
L 416 3319 
L 922 3319 
L 922 2816 
Q 1116 3169 1280 3281 
Q 1444 3394 1641 3394 
Q 1925 3394 2219 3213 
L 2025 2691 
Q 1819 2813 1613 2813 
Q 1428 2813 1281 2702 
Q 1134 2591 1072 2394 
Q 978 2094 978 1738 
L 978 0 
L 416 0 
z
" transform="scale(0.015625)"/>
       <path id="ArialMT-44" d="M 2588 409 
Q 2275 144 1986 34 
Q 1697 -75 1366 -75 
Q 819 -75 525 192 
Q 231 459 231 875 
Q 231 1119 342 1320 
Q 453 1522 633 1644 
Q 813 1766 1038 1828 
Q 1203 1872 1538 1913 
Q 2219 1994 2541 2106 
Q 2544 2222 2544 2253 
Q 2544 2597 2384 2738 
Q 2169 2928 1744 2928 
Q 1347 2928 1158 2789 
Q 969 2650 878 2297 
L 328 2372 
Q 403 2725 575 2942 
Q 747 3159 1072 3276 
Q 1397 3394 1825 3394 
Q 2250 3394 2515 3294 
Q 2781 3194 2906 3042 
Q 3031 2891 3081 2659 
Q 3109 2516 3109 2141 
L 3109 1391 
Q 3109 606 3145 398 
Q 3181 191 3288 0 
L 2700 0 
Q 2613 175 2588 409 
z
M 2541 1666 
Q 2234 1541 1622 1453 
Q 1275 1403 1131 1340 
Q 988 1278 909 1158 
Q 831 1038 831 891 
Q 831 666 1001 516 
Q 1172 366 1500 366 
Q 1825 366 2078 508 
Q 2331 650 2450 897 
Q 2541 1088 2541 1459 
L 2541 1666 
z
" transform="scale(0.015625)"/>
       <path id="ArialMT-57" d="M 1650 503 
L 1731 6 
Q 1494 -44 1306 -44 
Q 1000 -44 831 53 
Q 663 150 594 308 
Q 525 466 525 972 
L 525 2881 
L 113 2881 
L 113 3319 
L 525 3319 
L 525 4141 
L 1084 4478 
L 1084 3319 
L 1650 3319 
L 1650 2881 
L 1084 2881 
L 1084 941 
Q 1084 700 1114 631 
Q 1144 563 1211 522 
Q 1278 481 1403 481 
Q 1497 481 1650 503 
z
" transform="scale(0.015625)"/>
       <path id="ArialMT-58" d="M 2597 0 
L 2597 488 
Q 2209 -75 1544 -75 
Q 1250 -75 995 37 
Q 741 150 617 320 
Q 494 491 444 738 
Q 409 903 409 1263 
L 409 3319 
L 972 3319 
L 972 1478 
Q 972 1038 1006 884 
Q 1059 663 1231 536 
Q 1403 409 1656 409 
Q 1909 409 2131 539 
Q 2353 669 2445 892 
Q 2538 1116 2538 1541 
L 2538 3319 
L 3100 3319 
L 3100 0 
L 2597 0 
z
" transform="scale(0.015625)"/>
       <path id="ArialMT-b" d="M 1497 -1347 
Q 1031 -759 709 28 
Q 388 816 388 1659 
Q 388 2403 628 3084 
Q 909 3875 1497 4659 
L 1900 4659 
Q 1522 4009 1400 3731 
Q 1209 3300 1100 2831 
Q 966 2247 966 1656 
Q 966 153 1900 -1347 
L 1497 -1347 
z
" transform="scale(0.015625)"/>
       <path id="ArialMT-83" d="M 400 3794 
Q 400 4153 654 4406 
Q 909 4659 1266 4659 
Q 1628 4659 1881 4406 
Q 2134 4153 2134 3794 
Q 2134 3434 1879 3179 
Q 1625 2925 1266 2925 
Q 909 2925 654 3178 
Q 400 3431 400 3794 
z
M 741 3794 
Q 741 3575 895 3420 
Q 1050 3266 1269 3266 
Q 1484 3266 1639 3420 
Q 1794 3575 1794 3794 
Q 1794 4013 1639 4167 
Q 1484 4322 1269 4322 
Q 1050 4322 895 4167 
Q 741 4013 741 3794 
z
" transform="scale(0.015625)"/>
       <path id="ArialMT-26" d="M 3763 1606 
L 4369 1453 
Q 4178 706 3683 314 
Q 3188 -78 2472 -78 
Q 1731 -78 1267 223 
Q 803 525 561 1097 
Q 319 1669 319 2325 
Q 319 3041 592 3573 
Q 866 4106 1370 4382 
Q 1875 4659 2481 4659 
Q 3169 4659 3637 4309 
Q 4106 3959 4291 3325 
L 3694 3184 
Q 3534 3684 3231 3912 
Q 2928 4141 2469 4141 
Q 1941 4141 1586 3887 
Q 1231 3634 1087 3207 
Q 944 2781 944 2328 
Q 944 1744 1114 1308 
Q 1284 872 1643 656 
Q 2003 441 2422 441 
Q 2931 441 3284 734 
Q 3638 1028 3763 1606 
z
" transform="scale(0.015625)"/>
       <path id="ArialMT-c" d="M 791 -1347 
L 388 -1347 
Q 1322 153 1322 1656 
Q 1322 2244 1188 2822 
Q 1081 3291 891 3722 
Q 769 4003 388 4659 
L 791 4659 
Q 1378 3875 1659 3084 
Q 1900 2403 1900 1659 
Q 1900 816 1576 28 
Q 1253 -759 791 -1347 
z
" transform="scale(0.015625)"/>
      </defs>
      <use xlink:href="#ArialMT-37"/>
      <use xlink:href="#ArialMT-14" transform="translate(61.078125 0)"/>
      <use xlink:href="#ArialMT-3" transform="translate(116.6875 0)"/>
      <use xlink:href="#ArialMT-37" transform="translate(142.65625 0)"/>
      <use xlink:href="#ArialMT-48" transform="translate(192.65625 0)"/>
      <use xlink:href="#ArialMT-50" transform="translate(248.265625 0)"/>
      <use xlink:href="#ArialMT-53" transform="translate(331.5625 0)"/>
      <use xlink:href="#ArialMT-48" transform="translate(387.171875 0)"/>
      <use xlink:href="#ArialMT-55" transform="translate(442.78125 0)"/>
      <use xlink:href="#ArialMT-44" transform="translate(476.078125 0)"/>
      <use xlink:href="#ArialMT-57" transform="translate(531.6875 0)"/>
      <use xlink:href="#ArialMT-58" transform="translate(559.46875 0)"/>
      <use xlink:href="#ArialMT-55" transform="translate(615.078125 0)"/>
      <use xlink:href="#ArialMT-48" transform="translate(648.375 0)"/>
      <use xlink:href="#ArialMT-3" transform="translate(703.984375 0)"/>
      <use xlink:href="#ArialMT-b" transform="translate(731.765625 0)"/>
      <use xlink:href="#ArialMT-83" transform="translate(765.0625 0)"/>
      <use xlink:href="#ArialMT-26" transform="translate(805.046875 0)"/>
      <use xlink:href="#ArialMT-c" transform="translate(877.265625 0)"/>
     </g>
    </g>
   </g>
   <g id="matplotlib.axis_2">
    <g id="ytick_1">
     <g id="line2d_26">
      <defs>
       <path id="m3ba67cb474" d="M 0 0 
L 6 0 
" style="stroke: #000000; stroke-width: 1.5"/>
      </defs>
      <g>
       <use xlink:href="#m3ba67cb474" x="60.598945" y="286.521626" style="stroke: #000000; stroke-width: 1.5"/>
      </g>
     </g>
     <g id="text_9">
      <!-- $\mathdefault{10^{-20}}$ -->
      <g transform="translate(24.338945 292.961626) scale(0.14 -0.14)">
       <defs>
        <path id="ArialMT-ed" d="M 3381 1997 
L 356 1997 
L 356 2522 
L 3381 2522 
L 3381 1997 
z
" transform="scale(0.015625)"/>
       </defs>
       <use xlink:href="#ArialMT-14" transform="translate(0 0.3875)"/>
       <use xlink:href="#ArialMT-13" transform="translate(55.615234 0.3875)"/>
       <use xlink:href="#ArialMT-ed" transform="translate(112.1875 41.6875) scale(0.7)"/>
       <use xlink:href="#ArialMT-15" transform="translate(153.066406 41.6875) scale(0.7)"/>
       <use xlink:href="#ArialMT-13" transform="translate(191.99707 41.6875) scale(0.7)"/>
      </g>
     </g>
    </g>
    <g id="ytick_2">
     <g id="line2d_27">
      <g>
       <use xlink:href="#m3ba67cb474" x="60.598945" y="250.206435" style="stroke: #000000; stroke-width: 1.5"/>
      </g>
     </g>
     <g id="text_10">
      <!-- $\mathdefault{10^{-19}}$ -->
      <g transform="translate(24.338945 256.646435) scale(0.14 -0.14)">
       <defs>
        <path id="ArialMT-1c" d="M 350 1059 
L 891 1109 
Q 959 728 1153 556 
Q 1347 384 1650 384 
Q 1909 384 2104 503 
Q 2300 622 2425 820 
Q 2550 1019 2634 1356 
Q 2719 1694 2719 2044 
Q 2719 2081 2716 2156 
Q 2547 1888 2255 1720 
Q 1963 1553 1622 1553 
Q 1053 1553 659 1965 
Q 266 2378 266 3053 
Q 266 3750 677 4175 
Q 1088 4600 1706 4600 
Q 2153 4600 2523 4359 
Q 2894 4119 3086 3673 
Q 3278 3228 3278 2384 
Q 3278 1506 3087 986 
Q 2897 466 2520 194 
Q 2144 -78 1638 -78 
Q 1100 -78 759 220 
Q 419 519 350 1059 
z
M 2653 3081 
Q 2653 3566 2395 3850 
Q 2138 4134 1775 4134 
Q 1400 4134 1122 3828 
Q 844 3522 844 3034 
Q 844 2597 1108 2323 
Q 1372 2050 1759 2050 
Q 2150 2050 2401 2323 
Q 2653 2597 2653 3081 
z
" transform="scale(0.015625)"/>
       </defs>
       <use xlink:href="#ArialMT-14" transform="translate(0 0.3875)"/>
       <use xlink:href="#ArialMT-13" transform="translate(55.615234 0.3875)"/>
       <use xlink:href="#ArialMT-ed" transform="translate(112.1875 41.6875) scale(0.7)"/>
       <use xlink:href="#ArialMT-14" transform="translate(153.066406 41.6875) scale(0.7)"/>
       <use xlink:href="#ArialMT-1c" transform="translate(191.99707 41.6875) scale(0.7)"/>
      </g>
     </g>
    </g>
    <g id="ytick_3">
     <g id="line2d_28">
      <g>
       <use xlink:href="#m3ba67cb474" x="60.598945" y="213.891245" style="stroke: #000000; stroke-width: 1.5"/>
      </g>
     </g>
     <g id="text_11">
      <!-- $\mathdefault{10^{-18}}$ -->
      <g transform="translate(24.338945 220.331245) scale(0.14 -0.14)">
       <use xlink:href="#ArialMT-14" transform="translate(0 0.3875)"/>
       <use xlink:href="#ArialMT-13" transform="translate(55.615234 0.3875)"/>
       <use xlink:href="#ArialMT-ed" transform="translate(112.1875 41.6875) scale(0.7)"/>
       <use xlink:href="#ArialMT-14" transform="translate(153.066406 41.6875) scale(0.7)"/>
       <use xlink:href="#ArialMT-1b" transform="translate(191.99707 41.6875) scale(0.7)"/>
      </g>
     </g>
    </g>
    <g id="ytick_4">
     <g id="line2d_29">
      <g>
       <use xlink:href="#m3ba67cb474" x="60.598945" y="177.576054" style="stroke: #000000; stroke-width: 1.5"/>
      </g>
     </g>
     <g id="text_12">
      <!-- $\mathdefault{10^{-17}}$ -->
      <g transform="translate(24.338945 184.016054) scale(0.14 -0.14)">
       <defs>
        <path id="ArialMT-1a" d="M 303 3981 
L 303 4522 
L 3269 4522 
L 3269 4084 
Q 2831 3619 2401 2847 
Q 1972 2075 1738 1259 
Q 1569 684 1522 0 
L 944 0 
Q 953 541 1156 1306 
Q 1359 2072 1739 2783 
Q 2119 3494 2547 3981 
L 303 3981 
z
" transform="scale(0.015625)"/>
       </defs>
       <use xlink:href="#ArialMT-14" transform="translate(0 0.3875)"/>
       <use xlink:href="#ArialMT-13" transform="translate(55.615234 0.3875)"/>
       <use xlink:href="#ArialMT-ed" transform="translate(112.1875 41.6875) scale(0.7)"/>
       <use xlink:href="#ArialMT-14" transform="translate(153.066406 41.6875) scale(0.7)"/>
       <use xlink:href="#ArialMT-1a" transform="translate(191.99707 41.6875) scale(0.7)"/>
      </g>
     </g>
    </g>
    <g id="ytick_5">
     <g id="line2d_30">
      <g>
       <use xlink:href="#m3ba67cb474" x="60.598945" y="141.260863" style="stroke: #000000; stroke-width: 1.5"/>
      </g>
     </g>
     <g id="text_13">
      <!-- $\mathdefault{10^{-16}}$ -->
      <g transform="translate(24.338945 147.700863) scale(0.14 -0.14)">
       <use xlink:href="#ArialMT-14" transform="translate(0 0.3875)"/>
       <use xlink:href="#ArialMT-13" transform="translate(55.615234 0.3875)"/>
       <use xlink:href="#ArialMT-ed" transform="translate(112.1875 41.6875) scale(0.7)"/>
       <use xlink:href="#ArialMT-14" transform="translate(153.066406 41.6875) scale(0.7)"/>
       <use xlink:href="#ArialMT-19" transform="translate(191.99707 41.6875) scale(0.7)"/>
      </g>
     </g>
    </g>
    <g id="ytick_6">
     <g id="line2d_31">
      <g>
       <use xlink:href="#m3ba67cb474" x="60.598945" y="104.945672" style="stroke: #000000; stroke-width: 1.5"/>
      </g>
     </g>
     <g id="text_14">
      <!-- $\mathdefault{10^{-15}}$ -->
      <g transform="translate(24.338945 111.385672) scale(0.14 -0.14)">
       <defs>
        <path id="ArialMT-18" d="M 266 1200 
L 856 1250 
Q 922 819 1161 601 
Q 1400 384 1738 384 
Q 2144 384 2425 690 
Q 2706 997 2706 1503 
Q 2706 1984 2436 2262 
Q 2166 2541 1728 2541 
Q 1456 2541 1237 2417 
Q 1019 2294 894 2097 
L 366 2166 
L 809 4519 
L 3088 4519 
L 3088 3981 
L 1259 3981 
L 1013 2750 
Q 1425 3038 1878 3038 
Q 2478 3038 2890 2622 
Q 3303 2206 3303 1553 
Q 3303 931 2941 478 
Q 2500 -78 1738 -78 
Q 1113 -78 717 272 
Q 322 622 266 1200 
z
" transform="scale(0.015625)"/>
       </defs>
       <use xlink:href="#ArialMT-14" transform="translate(0 0.3875)"/>
       <use xlink:href="#ArialMT-13" transform="translate(55.615234 0.3875)"/>
       <use xlink:href="#ArialMT-ed" transform="translate(112.1875 41.6875) scale(0.7)"/>
       <use xlink:href="#ArialMT-14" transform="translate(153.066406 41.6875) scale(0.7)"/>
       <use xlink:href="#ArialMT-18" transform="translate(191.99707 41.6875) scale(0.7)"/>
      </g>
     </g>
    </g>
    <g id="ytick_7">
     <g id="line2d_32">
      <g>
       <use xlink:href="#m3ba67cb474" x="60.598945" y="68.630481" style="stroke: #000000; stroke-width: 1.5"/>
      </g>
     </g>
     <g id="text_15">
      <!-- $\mathdefault{10^{-14}}$ -->
      <g transform="translate(24.338945 75.070481) scale(0.14 -0.14)">
       <use xlink:href="#ArialMT-14" transform="translate(0 0.3875)"/>
       <use xlink:href="#ArialMT-13" transform="translate(55.615234 0.3875)"/>
       <use xlink:href="#ArialMT-ed" transform="translate(112.1875 41.6875) scale(0.7)"/>
       <use xlink:href="#ArialMT-14" transform="translate(153.066406 41.6875) scale(0.7)"/>
       <use xlink:href="#ArialMT-17" transform="translate(191.99707 41.6875) scale(0.7)"/>
      </g>
     </g>
    </g>
    <g id="ytick_8">
     <g id="line2d_33">
      <g>
       <use xlink:href="#m3ba67cb474" x="60.598945" y="32.31529" style="stroke: #000000; stroke-width: 1.5"/>
      </g>
     </g>
     <g id="text_16">
      <!-- $\mathdefault{10^{-13}}$ -->
      <g transform="translate(24.338945 38.75529) scale(0.14 -0.14)">
       <defs>
        <path id="ArialMT-16" d="M 269 1209 
L 831 1284 
Q 928 806 1161 595 
Q 1394 384 1728 384 
Q 2125 384 2398 659 
Q 2672 934 2672 1341 
Q 2672 1728 2419 1979 
Q 2166 2231 1775 2231 
Q 1616 2231 1378 2169 
L 1441 2663 
Q 1497 2656 1531 2656 
Q 1891 2656 2178 2843 
Q 2466 3031 2466 3422 
Q 2466 3731 2256 3934 
Q 2047 4138 1716 4138 
Q 1388 4138 1169 3931 
Q 950 3725 888 3313 
L 325 3413 
Q 428 3978 793 4289 
Q 1159 4600 1703 4600 
Q 2078 4600 2393 4439 
Q 2709 4278 2876 4000 
Q 3044 3722 3044 3409 
Q 3044 3113 2884 2869 
Q 2725 2625 2413 2481 
Q 2819 2388 3044 2092 
Q 3269 1797 3269 1353 
Q 3269 753 2831 336 
Q 2394 -81 1725 -81 
Q 1122 -81 723 278 
Q 325 638 269 1209 
z
" transform="scale(0.015625)"/>
       </defs>
       <use xlink:href="#ArialMT-14" transform="translate(0 0.3875)"/>
       <use xlink:href="#ArialMT-13" transform="translate(55.615234 0.3875)"/>
       <use xlink:href="#ArialMT-ed" transform="translate(112.1875 41.6875) scale(0.7)"/>
       <use xlink:href="#ArialMT-14" transform="translate(153.066406 41.6875) scale(0.7)"/>
       <use xlink:href="#ArialMT-16" transform="translate(191.99707 41.6875) scale(0.7)"/>
      </g>
     </g>
    </g>
    <g id="ytick_9">
     <g id="line2d_34">
      <defs>
       <path id="m9cfca3bdfe" d="M 0 0 
L 3 0 
" style="stroke: #000000"/>
      </defs>
      <g>
       <use xlink:href="#m9cfca3bdfe" x="60.598945" y="297.453588" style="stroke: #000000"/>
      </g>
     </g>
    </g>
    <g id="ytick_10">
     <g id="line2d_35">
      <g>
       <use xlink:href="#m9cfca3bdfe" x="60.598945" y="294.578106" style="stroke: #000000"/>
      </g>
     </g>
    </g>
    <g id="ytick_11">
     <g id="line2d_36">
      <g>
       <use xlink:href="#m9cfca3bdfe" x="60.598945" y="292.146921" style="stroke: #000000"/>
      </g>
     </g>
    </g>
    <g id="ytick_12">
     <g id="line2d_37">
      <g>
       <use xlink:href="#m9cfca3bdfe" x="60.598945" y="290.040932" style="stroke: #000000"/>
      </g>
     </g>
    </g>
    <g id="ytick_13">
     <g id="line2d_38">
      <g>
       <use xlink:href="#m9cfca3bdfe" x="60.598945" y="288.183318" style="stroke: #000000"/>
      </g>
     </g>
    </g>
    <g id="ytick_14">
     <g id="line2d_39">
      <g>
       <use xlink:href="#m9cfca3bdfe" x="60.598945" y="275.589665" style="stroke: #000000"/>
      </g>
     </g>
    </g>
    <g id="ytick_15">
     <g id="line2d_40">
      <g>
       <use xlink:href="#m9cfca3bdfe" x="60.598945" y="269.194877" style="stroke: #000000"/>
      </g>
     </g>
    </g>
    <g id="ytick_16">
     <g id="line2d_41">
      <g>
       <use xlink:href="#m9cfca3bdfe" x="60.598945" y="264.657703" style="stroke: #000000"/>
      </g>
     </g>
    </g>
    <g id="ytick_17">
     <g id="line2d_42">
      <g>
       <use xlink:href="#m9cfca3bdfe" x="60.598945" y="261.138397" style="stroke: #000000"/>
      </g>
     </g>
    </g>
    <g id="ytick_18">
     <g id="line2d_43">
      <g>
       <use xlink:href="#m9cfca3bdfe" x="60.598945" y="258.262915" style="stroke: #000000"/>
      </g>
     </g>
    </g>
    <g id="ytick_19">
     <g id="line2d_44">
      <g>
       <use xlink:href="#m9cfca3bdfe" x="60.598945" y="255.83173" style="stroke: #000000"/>
      </g>
     </g>
    </g>
    <g id="ytick_20">
     <g id="line2d_45">
      <g>
       <use xlink:href="#m9cfca3bdfe" x="60.598945" y="253.725741" style="stroke: #000000"/>
      </g>
     </g>
    </g>
    <g id="ytick_21">
     <g id="line2d_46">
      <g>
       <use xlink:href="#m9cfca3bdfe" x="60.598945" y="251.868128" style="stroke: #000000"/>
      </g>
     </g>
    </g>
    <g id="ytick_22">
     <g id="line2d_47">
      <g>
       <use xlink:href="#m9cfca3bdfe" x="60.598945" y="239.274474" style="stroke: #000000"/>
      </g>
     </g>
    </g>
    <g id="ytick_23">
     <g id="line2d_48">
      <g>
       <use xlink:href="#m9cfca3bdfe" x="60.598945" y="232.879686" style="stroke: #000000"/>
      </g>
     </g>
    </g>
    <g id="ytick_24">
     <g id="line2d_49">
      <g>
       <use xlink:href="#m9cfca3bdfe" x="60.598945" y="228.342512" style="stroke: #000000"/>
      </g>
     </g>
    </g>
    <g id="ytick_25">
     <g id="line2d_50">
      <g>
       <use xlink:href="#m9cfca3bdfe" x="60.598945" y="224.823206" style="stroke: #000000"/>
      </g>
     </g>
    </g>
    <g id="ytick_26">
     <g id="line2d_51">
      <g>
       <use xlink:href="#m9cfca3bdfe" x="60.598945" y="221.947724" style="stroke: #000000"/>
      </g>
     </g>
    </g>
    <g id="ytick_27">
     <g id="line2d_52">
      <g>
       <use xlink:href="#m9cfca3bdfe" x="60.598945" y="219.516539" style="stroke: #000000"/>
      </g>
     </g>
    </g>
    <g id="ytick_28">
     <g id="line2d_53">
      <g>
       <use xlink:href="#m9cfca3bdfe" x="60.598945" y="217.41055" style="stroke: #000000"/>
      </g>
     </g>
    </g>
    <g id="ytick_29">
     <g id="line2d_54">
      <g>
       <use xlink:href="#m9cfca3bdfe" x="60.598945" y="215.552937" style="stroke: #000000"/>
      </g>
     </g>
    </g>
    <g id="ytick_30">
     <g id="line2d_55">
      <g>
       <use xlink:href="#m9cfca3bdfe" x="60.598945" y="202.959283" style="stroke: #000000"/>
      </g>
     </g>
    </g>
    <g id="ytick_31">
     <g id="line2d_56">
      <g>
       <use xlink:href="#m9cfca3bdfe" x="60.598945" y="196.564495" style="stroke: #000000"/>
      </g>
     </g>
    </g>
    <g id="ytick_32">
     <g id="line2d_57">
      <g>
       <use xlink:href="#m9cfca3bdfe" x="60.598945" y="192.027321" style="stroke: #000000"/>
      </g>
     </g>
    </g>
    <g id="ytick_33">
     <g id="line2d_58">
      <g>
       <use xlink:href="#m9cfca3bdfe" x="60.598945" y="188.508015" style="stroke: #000000"/>
      </g>
     </g>
    </g>
    <g id="ytick_34">
     <g id="line2d_59">
      <g>
       <use xlink:href="#m9cfca3bdfe" x="60.598945" y="185.632533" style="stroke: #000000"/>
      </g>
     </g>
    </g>
    <g id="ytick_35">
     <g id="line2d_60">
      <g>
       <use xlink:href="#m9cfca3bdfe" x="60.598945" y="183.201348" style="stroke: #000000"/>
      </g>
     </g>
    </g>
    <g id="ytick_36">
     <g id="line2d_61">
      <g>
       <use xlink:href="#m9cfca3bdfe" x="60.598945" y="181.095359" style="stroke: #000000"/>
      </g>
     </g>
    </g>
    <g id="ytick_37">
     <g id="line2d_62">
      <g>
       <use xlink:href="#m9cfca3bdfe" x="60.598945" y="179.237746" style="stroke: #000000"/>
      </g>
     </g>
    </g>
    <g id="ytick_38">
     <g id="line2d_63">
      <g>
       <use xlink:href="#m9cfca3bdfe" x="60.598945" y="166.644092" style="stroke: #000000"/>
      </g>
     </g>
    </g>
    <g id="ytick_39">
     <g id="line2d_64">
      <g>
       <use xlink:href="#m9cfca3bdfe" x="60.598945" y="160.249304" style="stroke: #000000"/>
      </g>
     </g>
    </g>
    <g id="ytick_40">
     <g id="line2d_65">
      <g>
       <use xlink:href="#m9cfca3bdfe" x="60.598945" y="155.71213" style="stroke: #000000"/>
      </g>
     </g>
    </g>
    <g id="ytick_41">
     <g id="line2d_66">
      <g>
       <use xlink:href="#m9cfca3bdfe" x="60.598945" y="152.192824" style="stroke: #000000"/>
      </g>
     </g>
    </g>
    <g id="ytick_42">
     <g id="line2d_67">
      <g>
       <use xlink:href="#m9cfca3bdfe" x="60.598945" y="149.317342" style="stroke: #000000"/>
      </g>
     </g>
    </g>
    <g id="ytick_43">
     <g id="line2d_68">
      <g>
       <use xlink:href="#m9cfca3bdfe" x="60.598945" y="146.886157" style="stroke: #000000"/>
      </g>
     </g>
    </g>
    <g id="ytick_44">
     <g id="line2d_69">
      <g>
       <use xlink:href="#m9cfca3bdfe" x="60.598945" y="144.780168" style="stroke: #000000"/>
      </g>
     </g>
    </g>
    <g id="ytick_45">
     <g id="line2d_70">
      <g>
       <use xlink:href="#m9cfca3bdfe" x="60.598945" y="142.922555" style="stroke: #000000"/>
      </g>
     </g>
    </g>
    <g id="ytick_46">
     <g id="line2d_71">
      <g>
       <use xlink:href="#m9cfca3bdfe" x="60.598945" y="130.328901" style="stroke: #000000"/>
      </g>
     </g>
    </g>
    <g id="ytick_47">
     <g id="line2d_72">
      <g>
       <use xlink:href="#m9cfca3bdfe" x="60.598945" y="123.934113" style="stroke: #000000"/>
      </g>
     </g>
    </g>
    <g id="ytick_48">
     <g id="line2d_73">
      <g>
       <use xlink:href="#m9cfca3bdfe" x="60.598945" y="119.396939" style="stroke: #000000"/>
      </g>
     </g>
    </g>
    <g id="ytick_49">
     <g id="line2d_74">
      <g>
       <use xlink:href="#m9cfca3bdfe" x="60.598945" y="115.877634" style="stroke: #000000"/>
      </g>
     </g>
    </g>
    <g id="ytick_50">
     <g id="line2d_75">
      <g>
       <use xlink:href="#m9cfca3bdfe" x="60.598945" y="113.002152" style="stroke: #000000"/>
      </g>
     </g>
    </g>
    <g id="ytick_51">
     <g id="line2d_76">
      <g>
       <use xlink:href="#m9cfca3bdfe" x="60.598945" y="110.570966" style="stroke: #000000"/>
      </g>
     </g>
    </g>
    <g id="ytick_52">
     <g id="line2d_77">
      <g>
       <use xlink:href="#m9cfca3bdfe" x="60.598945" y="108.464977" style="stroke: #000000"/>
      </g>
     </g>
    </g>
    <g id="ytick_53">
     <g id="line2d_78">
      <g>
       <use xlink:href="#m9cfca3bdfe" x="60.598945" y="106.607364" style="stroke: #000000"/>
      </g>
     </g>
    </g>
    <g id="ytick_54">
     <g id="line2d_79">
      <g>
       <use xlink:href="#m9cfca3bdfe" x="60.598945" y="94.01371" style="stroke: #000000"/>
      </g>
     </g>
    </g>
    <g id="ytick_55">
     <g id="line2d_80">
      <g>
       <use xlink:href="#m9cfca3bdfe" x="60.598945" y="87.618922" style="stroke: #000000"/>
      </g>
     </g>
    </g>
    <g id="ytick_56">
     <g id="line2d_81">
      <g>
       <use xlink:href="#m9cfca3bdfe" x="60.598945" y="83.081748" style="stroke: #000000"/>
      </g>
     </g>
    </g>
    <g id="ytick_57">
     <g id="line2d_82">
      <g>
       <use xlink:href="#m9cfca3bdfe" x="60.598945" y="79.562443" style="stroke: #000000"/>
      </g>
     </g>
    </g>
    <g id="ytick_58">
     <g id="line2d_83">
      <g>
       <use xlink:href="#m9cfca3bdfe" x="60.598945" y="76.686961" style="stroke: #000000"/>
      </g>
     </g>
    </g>
    <g id="ytick_59">
     <g id="line2d_84">
      <g>
       <use xlink:href="#m9cfca3bdfe" x="60.598945" y="74.255775" style="stroke: #000000"/>
      </g>
     </g>
    </g>
    <g id="ytick_60">
     <g id="line2d_85">
      <g>
       <use xlink:href="#m9cfca3bdfe" x="60.598945" y="72.149787" style="stroke: #000000"/>
      </g>
     </g>
    </g>
    <g id="ytick_61">
     <g id="line2d_86">
      <g>
       <use xlink:href="#m9cfca3bdfe" x="60.598945" y="70.292173" style="stroke: #000000"/>
      </g>
     </g>
    </g>
    <g id="ytick_62">
     <g id="line2d_87">
      <g>
       <use xlink:href="#m9cfca3bdfe" x="60.598945" y="57.698519" style="stroke: #000000"/>
      </g>
     </g>
    </g>
    <g id="ytick_63">
     <g id="line2d_88">
      <g>
       <use xlink:href="#m9cfca3bdfe" x="60.598945" y="51.303731" style="stroke: #000000"/>
      </g>
     </g>
    </g>
    <g id="ytick_64">
     <g id="line2d_89">
      <g>
       <use xlink:href="#m9cfca3bdfe" x="60.598945" y="46.766557" style="stroke: #000000"/>
      </g>
     </g>
    </g>
    <g id="ytick_65">
     <g id="line2d_90">
      <g>
       <use xlink:href="#m9cfca3bdfe" x="60.598945" y="43.247252" style="stroke: #000000"/>
      </g>
     </g>
    </g>
    <g id="ytick_66">
     <g id="line2d_91">
      <g>
       <use xlink:href="#m9cfca3bdfe" x="60.598945" y="40.37177" style="stroke: #000000"/>
      </g>
     </g>
    </g>
    <g id="ytick_67">
     <g id="line2d_92">
      <g>
       <use xlink:href="#m9cfca3bdfe" x="60.598945" y="37.940584" style="stroke: #000000"/>
      </g>
     </g>
    </g>
    <g id="ytick_68">
     <g id="line2d_93">
      <g>
       <use xlink:href="#m9cfca3bdfe" x="60.598945" y="35.834596" style="stroke: #000000"/>
      </g>
     </g>
    </g>
    <g id="ytick_69">
     <g id="line2d_94">
      <g>
       <use xlink:href="#m9cfca3bdfe" x="60.598945" y="33.976982" style="stroke: #000000"/>
      </g>
     </g>
    </g>
    <g id="ytick_70">
     <g id="line2d_95">
      <g>
       <use xlink:href="#m9cfca3bdfe" x="60.598945" y="21.383328" style="stroke: #000000"/>
      </g>
     </g>
    </g>
    <g id="ytick_71">
     <g id="line2d_96">
      <g>
       <use xlink:href="#m9cfca3bdfe" x="60.598945" y="14.988541" style="stroke: #000000"/>
      </g>
     </g>
    </g>
    <g id="ytick_72">
     <g id="line2d_97">
      <g>
       <use xlink:href="#m9cfca3bdfe" x="60.598945" y="10.451366" style="stroke: #000000"/>
      </g>
     </g>
    </g>
    <g id="text_17">
     <!-- Ion Current (m/z 20) -->
     <g transform="translate(17.392383 216.137266) rotate(-90) scale(0.14 -0.14)">
      <defs>
       <path id="ArialMT-2c" d="M 597 0 
L 597 4581 
L 1203 4581 
L 1203 0 
L 597 0 
z
" transform="scale(0.015625)"/>
       <path id="ArialMT-52" d="M 213 1659 
Q 213 2581 725 3025 
Q 1153 3394 1769 3394 
Q 2453 3394 2887 2945 
Q 3322 2497 3322 1706 
Q 3322 1066 3130 698 
Q 2938 331 2570 128 
Q 2203 -75 1769 -75 
Q 1072 -75 642 372 
Q 213 819 213 1659 
z
M 791 1659 
Q 791 1022 1069 705 
Q 1347 388 1769 388 
Q 2188 388 2466 706 
Q 2744 1025 2744 1678 
Q 2744 2294 2464 2611 
Q 2184 2928 1769 2928 
Q 1347 2928 1069 2612 
Q 791 2297 791 1659 
z
" transform="scale(0.015625)"/>
       <path id="ArialMT-51" d="M 422 0 
L 422 3319 
L 928 3319 
L 928 2847 
Q 1294 3394 1984 3394 
Q 2284 3394 2536 3286 
Q 2788 3178 2913 3003 
Q 3038 2828 3088 2588 
Q 3119 2431 3119 2041 
L 3119 0 
L 2556 0 
L 2556 2019 
Q 2556 2363 2490 2533 
Q 2425 2703 2258 2804 
Q 2091 2906 1866 2906 
Q 1506 2906 1245 2678 
Q 984 2450 984 1813 
L 984 0 
L 422 0 
z
" transform="scale(0.015625)"/>
       <path id="ArialMT-12" d="M 0 -78 
L 1328 4659 
L 1778 4659 
L 453 -78 
L 0 -78 
z
" transform="scale(0.015625)"/>
       <path id="ArialMT-5d" d="M 125 0 
L 125 456 
L 2238 2881 
Q 1878 2863 1603 2863 
L 250 2863 
L 250 3319 
L 2963 3319 
L 2963 2947 
L 1166 841 
L 819 456 
Q 1197 484 1528 484 
L 3063 484 
L 3063 0 
L 125 0 
z
" transform="scale(0.015625)"/>
      </defs>
      <use xlink:href="#ArialMT-2c"/>
      <use xlink:href="#ArialMT-52" transform="translate(27.78125 0)"/>
      <use xlink:href="#ArialMT-51" transform="translate(83.390625 0)"/>
      <use xlink:href="#ArialMT-3" transform="translate(139 0)"/>
      <use xlink:href="#ArialMT-26" transform="translate(166.78125 0)"/>
      <use xlink:href="#ArialMT-58" transform="translate(239 0)"/>
      <use xlink:href="#ArialMT-55" transform="translate(294.609375 0)"/>
      <use xlink:href="#ArialMT-55" transform="translate(327.90625 0)"/>
      <use xlink:href="#ArialMT-48" transform="translate(361.203125 0)"/>
      <use xlink:href="#ArialMT-51" transform="translate(416.8125 0)"/>
      <use xlink:href="#ArialMT-57" transform="translate(472.421875 0)"/>
      <use xlink:href="#ArialMT-3" transform="translate(500.203125 0)"/>
      <use xlink:href="#ArialMT-b" transform="translate(527.984375 0)"/>
      <use xlink:href="#ArialMT-50" transform="translate(561.28125 0)"/>
      <use xlink:href="#ArialMT-12" transform="translate(644.578125 0)"/>
      <use xlink:href="#ArialMT-5d" transform="translate(672.359375 0)"/>
      <use xlink:href="#ArialMT-3" transform="translate(722.359375 0)"/>
      <use xlink:href="#ArialMT-15" transform="translate(750.140625 0)"/>
      <use xlink:href="#ArialMT-13" transform="translate(805.75 0)"/>
      <use xlink:href="#ArialMT-c" transform="translate(861.359375 0)"/>
     </g>
    </g>
   </g>
   <g id="line2d_98">
    <path d="M 78.802131 59.196264 
L 78.741251 62.73051 
L 78.741251 56.997704 
L 78.680371 59.42307 
L 78.832572 53.910018 
L 79.502254 50.259134 
L 81.08514 50.995171 
L 83.276828 49.735703 
L 85.407636 50.243172 
L 87.203602 61.304874 
L 88.634287 62.593318 
L 91.008616 111.499588 
L 92.07402 286.521626 
L 93.169864 286.521626 
L 94.357028 96.402779 
L 95.574632 56.672136 
L 96.792237 48.68993 
L 98.131602 45.377646 
L 99.440527 53.193378 
L 100.688571 50.477599 
L 101.936616 57.777986 
L 103.15422 54.122822 
L 104.280504 62.266255 
L 105.467668 67.272296 
L 106.654833 68.594369 
L 107.872437 51.722486 
L 108.998721 47.370228 
L 110.185886 47.958521 
L 111.37305 53.48303 
L 112.560214 53.25613 
L 113.747379 54.858311 
L 114.964983 52.268451 
L 116.182587 66.245204 
L 117.369752 124.14323 
L 118.587356 71.114543 
L 119.77452 55.988966 
L 120.931245 49.817166 
L 122.118409 46.98685 
L 123.305573 49.727489 
L 125.679902 52.503888 
L 126.867066 58.742994 
L 128.084671 74.910286 
L 129.241395 286.521626 
L 131.646164 286.521626 
L 132.833328 73.016969 
L 134.020492 63.756668 
L 135.207657 56.670907 
L 136.425261 60.134957 
L 137.642865 62.406345 
L 138.86047 65.418597 
L 140.078074 65.55491 
L 141.234798 59.950513 
L 142.421963 66.237802 
L 143.639567 66.126099 
L 144.765851 68.949372 
L 145.953016 62.951574 
L 147.17062 51.886715 
L 148.388225 49.590719 
L 149.575389 50.375001 
L 150.792993 50.166446 
L 151.919277 48.927984 
L 153.106442 44.240298 
L 154.263166 45.682352 
L 155.45033 45.823968 
L 156.607054 46.689952 
L 157.824659 46.69467 
L 159.011823 49.006026 
L 160.198987 49.898161 
L 161.416592 53.133343 
L 162.573316 55.19301 
L 163.790921 53.884301 
L 164.947645 55.00905 
L 166.165249 54.427 
L 167.352413 52.583165 
L 168.570018 47.11564 
L 169.787622 47.523411 
L 170.944347 46.953513 
L 172.161951 46.809901 
L 173.349115 43.293113 
L 174.505839 47.655954 
L 175.662564 48.9994 
L 176.880168 54.080444 
L 178.036892 56.461292 
L 179.193617 68.315764 
L 180.380781 64.341891 
L 181.598385 58.985456 
L 182.84643 54.903417 
L 184.033594 57.681604 
L 185.251199 55.127439 
L 186.468803 56.205231 
L 187.686407 48.190302 
L 188.843132 45.489939 
L 189.999856 50.056777 
L 191.21746 57.783802 
L 192.435065 56.284868 
L 193.561349 47.394027 
L 194.687633 52.223581 
L 195.905237 60.41633 
L 197.092402 60.596583 
L 198.279566 55.07706 
L 199.46673 54.611822 
L 200.653895 61.002949 
L 201.780179 84.598232 
L 202.967343 65.581125 
L 205.372112 50.576452 
L 206.528836 47.784068 
L 207.716 46.102208 
L 208.903165 46.285266 
L 210.120769 44.408631 
L 211.277493 45.606551 
L 212.464657 48.471304 
L 213.682262 50.961357 
L 214.869426 47.301063 
L 216.056591 48.384499 
L 217.213315 50.072899 
L 218.430919 45.937627 
L 219.618083 48.36128 
L 220.774808 54.633522 
L 221.961972 49.083759 
L 223.149136 54.715467 
L 224.336301 65.640898 
L 225.462585 63.716424 
L 226.680189 55.160264 
L 227.836913 59.546105 
L 229.024078 67.673864 
L 230.272122 63.963946 
L 231.428846 84.042665 
L 232.616011 286.521626 
L 233.711855 80.157094 
L 234.838139 286.521626 
L 236.025303 286.521626 
L 237.242908 72.714266 
L 238.460512 68.008739 
L 239.647676 56.768544 
L 240.865281 52.783661 
L 242.052445 52.136163 
L 243.178729 52.925764 
L 244.396334 54.471562 
L 245.583498 50.648619 
L 246.801102 53.540232 
L 247.957827 49.535757 
L 249.144991 51.80357 
L 250.362595 51.215161 
L 251.54976 47.706016 
L 252.706484 49.754217 
L 253.893648 51.561831 
L 255.080812 50.160966 
L 256.267977 54.933813 
L 257.485581 57.850409 
L 258.672745 67.611832 
L 259.82947 61.704761 
L 261.077514 86.828853 
L 262.234238 85.629201 
L 263.421403 99.067756 
L 264.578127 74.357419 
L 265.765291 77.986154 
L 267.013336 89.710629 
L 268.13962 84.086896 
L 269.326784 69.736666 
L 270.513949 65.255263 
L 271.670673 63.7531 
L 272.888277 67.142599 
L 274.136322 62.764845 
L 275.353926 65.725632 
L 276.54109 56.871678 
L 277.697815 59.939312 
L 278.915419 58.840534 
L 280.072143 51.270392 
L 281.289748 45.712843 
L 282.507352 43.923949 
L 283.694516 43.139093 
L 284.881681 46.1647 
L 286.068845 51.859844 
L 287.225569 61.98199 
L 288.443174 65.90056 
L 289.599898 110.469754 
L 290.756622 80.152874 
L 291.943786 81.283572 
L 293.130951 69.4775 
L 294.287675 56.321829 
L 295.505279 52.146114 
L 296.722884 54.680405 
L 297.849168 53.972347 
L 299.066772 54.265493 
L 300.284377 56.062768 
L 301.410661 58.089658 
L 302.597825 55.389111 
L 303.78499 52.329191 
L 304.972154 51.62067 
L 306.159318 49.615631 
L 307.285602 54.070846 
L 308.503207 60.987822 
L 309.690371 80.771327 
L 310.847095 108.542111 
L 312.03426 286.521626 
L 314.408588 286.521626 
L 315.595752 75.598972 
L 316.752477 61.366437 
L 317.909201 54.192405 
L 320.34441 46.995015 
L 321.501134 51.864438 
L 322.627418 44.813916 
L 323.875463 43.989793 
L 325.032187 43.973842 
L 326.249791 45.84096 
L 327.406515 45.289081 
L 328.56324 42.082623 
L 329.750404 44.212408 
L 330.968008 46.039208 
L 332.094292 46.362957 
L 333.342337 47.292436 
L 334.833902 41.716574 
L 336.112387 41.606661 
L 337.299551 48.390033 
L 338.517156 52.660827 
L 339.64344 51.367551 
L 340.800164 51.284206 
L 342.048209 63.2283 
L 343.235373 63.464338 
L 344.452977 58.298576 
L 345.548821 51.325473 
L 346.796866 46.866991 
L 347.92315 53.307847 
L 349.201635 57.2979 
L 350.358359 57.84768 
L 351.484643 55.696468 
L 352.702247 50.013931 
L 353.950292 50.902306 
L 355.015696 47.955133 
L 356.20286 52.235039 
L 357.481345 45.333559 
L 358.607629 43.813351 
L 359.825233 47.469263 
L 361.042838 43.921063 
L 362.260442 44.999073 
L 363.264966 43.898861 
L 364.51301 44.420876 
L 365.791495 46.829543 
L 366.856899 52.863751 
L 368.074503 56.534725 
L 369.444308 45.253894 
L 370.631473 47.206726 
L 371.757757 46.823697 
L 372.853601 46.08175 
L 374.040765 49.315979 
L 375.197489 48.639783 
L 376.415094 49.20025 
L 377.480497 47.333765 
L 378.667662 43.895376 
L 379.854826 41.724822 
L 381.04199 40.059596 
L 382.198715 41.285994 
L 383.446759 41.845265 
L 384.542603 40.849121 
L 385.760208 42.638946 
L 386.856052 42.203285 
L 388.225857 41.864354 
L 389.382581 39.808768 
L 390.569745 40.796935 
L 391.726469 46.01842 
L 392.974514 46.975039 
L 393.979037 42.195434 
L 395.622803 38.912576 
L 396.870848 37.863196 
L 398.149333 39.753137 
L 399.275617 40.435849 
L 400.462781 40.068488 
L 401.710826 42.706516 
L 402.776229 47.152822 
L 403.963394 48.743196 
L 405.059238 40.272434 
L 406.368162 34.978837 
L 407.494447 32.90725 
L 408.742491 30.982402 
L 410.020976 31.455885 
L 411.14726 31.15 
L 412.243104 30.434704 
L 413.369388 32.297662 
L 414.647873 31.703846 
L 415.743717 30.820435 
L 417.083081 28.823776 
L 418.331126 30.829898 
L 419.30521 30.305973 
L 420.644574 30.273266 
L 421.679538 30.103331 
L 422.927583 29.72932 
L 424.145187 29.096956 
L 425.119271 28.171747 
L 425.119271 28.171747 
" clip-path="url(#p701c1dd2bf)" style="fill: none; stroke: #000000; stroke-width: 2.5; stroke-linecap: square"/>
   </g>
   <g id="line2d_99">
    <path d="M 71.100783 72.475283 
L 71.100783 53.6652 
L 71.100783 69.265008 
L 71.252984 65.246005 
L 71.892226 55.533005 
L 73.566432 52.513856 
L 75.72768 55.509801 
L 77.828048 65.75229 
L 79.593574 66.906342 
L 81.0547 55.606271 
L 82.272304 60.760671 
L 83.368148 56.813053 
L 84.372672 61.564144 
L 85.559836 55.838298 
L 86.77744 52.244447 
L 87.873284 60.873404 
L 89.151769 286.521626 
L 90.369374 286.521626 
L 91.465218 68.430804 
L 92.774142 59.308477 
L 93.900426 59.233223 
L 95.148471 51.985028 
L 96.396515 57.838329 
L 97.64456 50.31616 
L 98.862164 52.358437 
L 100.140649 57.469725 
L 101.449574 74.529881 
L 102.575858 60.7435 
L 103.823902 56.47091 
L 104.950187 55.872769 
L 106.167791 53.173017 
L 107.294075 51.406825 
L 108.57256 60.032653 
L 109.790164 56.68199 
L 110.946888 54.617458 
L 112.073172 52.378051 
L 113.290777 54.102558 
L 114.508381 51.805129 
L 115.695546 54.614198 
L 116.91315 71.343644 
L 117.978554 63.327739 
L 119.226598 286.521626 
L 120.413763 286.521626 
L 121.631367 68.632788 
L 122.879412 61.424271 
L 123.944816 53.281547 
L 125.19286 48.298818 
L 126.380024 46.749241 
L 127.628069 46.155754 
L 128.754353 45.972675 
L 129.971958 42.287558 
L 131.220002 43.676231 
L 132.285406 43.978828 
L 133.53345 45.388838 
L 134.751055 54.155608 
L 135.846899 53.40686 
L 137.094943 50.13061 
L 138.342988 51.044515 
L 139.499712 48.509094 
L 140.747757 46.554294 
L 141.965361 43.345891 
L 143.122085 41.12727 
L 144.248369 43.877454 
L 145.405094 42.637044 
L 146.622698 46.022948 
L 147.809862 45.412652 
L 148.997027 46.719026 
L 150.153751 48.9619 
L 151.401795 53.342289 
L 152.6194 52.304406 
L 153.806564 51.469459 
L 154.932848 45.051524 
L 156.211333 42.345487 
L 157.337617 38.71436 
L 158.463901 40.305839 
L 159.742386 37.816608 
L 160.89911 36.558781 
L 162.177595 38.553245 
L 163.303879 43.369708 
L 164.491043 43.052851 
L 165.678207 45.880998 
L 166.834932 46.569819 
L 168.052536 49.97242 
L 169.27014 52.997422 
L 170.487745 53.389898 
L 171.644469 47.112927 
L 172.862073 44.316381 
L 173.988358 42.327955 
L 175.114642 38.028844 
L 176.362686 35.238297 
L 177.549851 36.399179 
L 178.706575 36.883124 
L 179.893739 38.350571 
L 181.080903 38.1518 
L 182.298508 37.74787 
L 183.546552 38.950813 
L 184.703277 38.365574 
L 185.860001 35.755421 
L 187.077605 36.460136 
L 188.203889 35.863424 
L 189.512814 36.045545 
L 190.639098 35.69227 
L 191.795822 34.135351 
L 192.982987 34.156519 
L 194.170151 37.387766 
L 195.357315 41.452847 
L 196.60536 44.566455 
L 198.949248 41.385098 
L 200.105973 38.052291 
L 201.293137 38.35538 
L 202.510741 37.194288 
L 203.728346 34.941587 
L 204.85463 34.446318 
L 206.041794 36.674099 
L 207.228958 39.543273 
L 208.446563 40.358893 
L 209.664167 40.676371 
L 210.790451 38.84756 
L 212.008056 40.838338 
L 213.16478 41.909401 
L 214.351944 47.855531 
L 215.539109 50.075845 
L 216.726273 52.814042 
L 217.822117 64.456206 
L 219.131042 286.521626 
L 220.226886 286.521626 
L 221.44449 89.429196 
L 222.601214 60.167027 
L 223.818819 53.175405 
L 225.005983 47.946173 
L 226.162707 47.945514 
L 227.319431 46.090988 
L 228.506596 44.492929 
L 229.69376 45.619329 
L 230.850484 47.333682 
L 232.098529 47.894218 
L 233.255253 41.109678 
L 234.442417 39.508106 
L 235.660022 39.169712 
L 236.786306 39.419743 
L 238.03435 39.227183 
L 239.221515 43.185261 
L 240.347799 41.871396 
L 241.534963 48.037082 
L 242.691687 52.42001 
L 243.878852 81.153302 
L 245.066016 62.949044 
L 248.657949 49.696479 
L 249.814673 44.98798 
L 251.032278 44.464449 
L 252.189002 43.143737 
L 253.406606 42.545923 
L 254.593771 41.082504 
L 255.750495 43.035881 
L 256.968099 43.881184 
L 258.124823 41.422216 
L 259.372868 42.390143 
L 260.499152 43.804069 
L 261.716757 43.113202 
L 262.873481 46.13496 
L 264.091085 53.636976 
L 265.27825 53.765499 
L 266.404534 52.756275 
L 267.652578 57.077716 
L 268.809302 56.72697 
L 269.966027 51.517056 
L 271.153191 54.65946 
L 272.340355 56.050414 
L 273.5884 55.502637 
L 274.866884 55.571439 
L 275.993168 58.849465 
L 277.210773 55.581671 
L 279.615542 59.363869 
L 280.802706 55.147 
L 281.98987 53.125847 
L 283.116154 59.702441 
L 284.303319 58.570457 
L 285.490483 56.160995 
L 286.708087 51.379889 
L 287.864812 51.218157 
L 289.051976 55.81605 
L 290.23914 66.61051 
L 291.456745 66.870975 
L 292.613469 77.617419 
L 294.987798 63.437937 
L 296.144522 63.552366 
L 297.301246 58.126964 
L 298.51885 49.767446 
L 299.736455 48.734375 
L 300.862739 48.873988 
L 302.080343 47.02657 
L 303.297948 44.006258 
L 304.424232 46.386353 
L 305.611396 42.631109 
L 306.79856 46.862603 
L 308.016165 53.933829 
L 309.142449 57.218419 
L 310.360053 58.6744 
L 311.486338 64.765113 
L 312.703942 55.47081 
L 313.891106 49.401105 
L 315.04783 48.580332 
L 316.234995 51.14011 
L 317.391719 52.915432 
L 318.578883 55.614828 
L 319.766048 50.49703 
L 320.983652 51.714763 
L 322.170816 48.766175 
L 323.357981 46.165475 
L 324.484265 41.785101 
L 325.671429 39.973271 
L 326.889034 41.934805 
L 328.106638 39.293421 
L 329.202482 39.967564 
L 330.450526 36.620466 
L 331.607251 36.411135 
L 332.763975 37.619477 
L 334.2251 36.69157 
L 335.534025 38.849065 
L 336.751629 40.260697 
L 337.999674 43.771724 
L 339.186838 43.872769 
L 340.313122 46.009026 
L 341.561167 47.470359 
L 342.717891 49.732071 
L 343.844175 50.57034 
L 345.09222 49.696246 
L 346.248944 44.846227 
L 347.496988 41.748935 
L 348.623273 36.89653 
L 349.840877 33.593868 
L 351.028041 30.936866 
L 352.215206 32.939788 
L 353.43281 35.582979 
L 354.528654 39.749167 
L 355.685378 41.458053 
L 358.120587 45.777575 
L 359.277311 45.537557 
L 360.525356 44.582733 
L 361.56032 38.758435 
L 362.869244 36.504371 
L 364.117289 40.174997 
L 365.213133 41.552822 
L 366.339417 41.187124 
L 367.526581 42.183099 
L 368.713746 41.753434 
L 369.99223 42.012584 
L 371.179395 41.323786 
L 372.366559 40.903572 
L 373.492843 37.969945 
L 374.680007 36.355583 
L 375.806291 38.990729 
L 377.054336 34.091744 
L 378.11974 32.526973 
L 379.398224 32.752238 
L 380.585389 32.416258 
L 381.681233 33.46048 
L 382.929277 35.906074 
L 384.116442 39.619138 
L 385.242726 45.142495 
L 386.42989 48.872741 
L 387.586614 50.352334 
L 388.834659 43.594062 
L 390.052263 39.015534 
L 391.117667 39.649789 
L 392.365712 38.966912 
L 393.583316 36.422865 
L 394.892241 35.073518 
L 396.292486 33.31598 
L 397.38833 33.167624 
L 398.758135 32.527014 
L 399.914859 32.415029 
L 401.071583 31.483795 
L 402.289188 32.176945 
L 403.445912 35.640695 
L 404.633076 37.913199 
L 405.911561 41.909302 
L 406.946525 43.325823 
L 408.255449 41.680008 
L 409.412174 38.433301 
L 410.386257 34.635692 
L 412.912786 29.329859 
L 414.160831 27.397218 
L 416.382959 24.820193 
L 417.661444 27.683905 
L 418.909488 28.054901 
L 419.974892 28.50346 
L 421.222937 28.364 
L 422.2579 27.381934 
L 423.688585 25.462439 
L 424.784429 22.709062 
L 424.784429 22.709062 
" clip-path="url(#p701c1dd2bf)" style="fill: none; stroke: #1f77b4; stroke-width: 2.5; stroke-linecap: square"/>
   </g>
   <g id="line2d_100">
    <path d="M 70.918143 50.256045 
L 70.918143 55.568196 
L 70.918143 44.355249 
L 70.918143 48.360407 
L 71.039903 51.092671 
L 71.618265 56.50065 
L 73.01851 57.095444 
L 75.179758 53.507834 
L 77.341006 57.520027 
L 79.258733 59.200288 
L 80.780739 49.342288 
L 82.028783 47.88375 
L 84.220471 62.089189 
L 85.316315 65.969682 
L 86.442599 106.797401 
L 87.629764 67.642413 
L 88.847368 62.515892 
L 90.034532 53.176661 
L 92.408861 45.057297 
L 94.81363 47.055561 
L 96.000794 51.344126 
L 97.309719 48.497923 
L 98.649084 47.2804 
L 99.927568 49.504131 
L 101.145173 46.954553 
L 102.332337 41.162358 
L 103.519501 42.407379 
L 104.706666 45.993521 
L 105.89383 50.726001 
L 107.080994 58.238745 
L 108.298599 78.548849 
L 110.672927 87.076848 
L 111.860092 127.427343 
L 113.047256 60.84901 
L 114.26486 52.034766 
L 115.452025 52.911768 
L 117.826353 64.703502 
L 119.013518 79.178893 
L 120.200682 286.521626 
L 121.326966 286.521626 
L 122.575011 72.395845 
L 124.888459 56.080334 
L 126.106063 50.495676 
L 127.323668 52.224358 
L 128.480392 55.852425 
L 129.667556 54.752801 
L 130.824281 60.579207 
L 131.981005 65.179918 
L 133.229049 61.7306 
L 134.385774 64.691385 
L 135.572938 76.378357 
L 136.790542 64.465444 
L 138.008147 64.555915 
L 139.347512 64.076768 
L 140.443356 60.498551 
L 141.63052 58.748924 
L 142.756804 61.68159 
L 144.004849 59.996593 
L 145.192013 65.651907 
L 146.409617 87.033324 
L 147.566342 72.658649 
L 148.783946 80.29727 
L 149.94067 286.521626 
L 152.284559 286.521626 
L 153.471723 70.962228 
L 154.780648 57.577282 
L 155.906932 47.608922 
L 157.094096 47.143125 
L 158.28126 43.287659 
L 159.529305 43.368654 
L 160.686029 48.366027 
L 161.873194 54.373361 
L 162.999478 65.310905 
L 164.247522 52.549981 
L 165.404246 52.257691 
L 166.621851 48.756241 
L 167.809015 44.507787 
L 168.996179 43.693071 
L 170.152904 41.415155 
L 171.340068 40.236794 
L 172.527232 38.525774 
L 173.653516 38.914504 
L 174.871121 42.550747 
L 176.058285 39.228009 
L 177.215009 38.785057 
L 178.432614 39.751359 
L 179.650218 36.24883 
L 180.806942 38.953045 
L 181.963667 39.177232 
L 183.181271 38.506944 
L 184.459756 38.448537 
L 185.61648 40.233131 
L 186.894965 40.546389 
L 187.990808 39.728908 
L 189.177973 36.553657 
L 190.365137 38.862982 
L 191.552301 35.423436 
L 192.709026 38.452495 
L 193.92663 37.90023 
L 195.144235 35.279958 
L 196.300959 34.854847 
L 197.427243 34.275871 
L 198.614407 35.36223 
L 199.832012 39.638562 
L 201.019176 40.819203 
L 202.1759 46.824622 
L 203.393504 44.186897 
L 205.767833 45.592724 
L 206.954997 40.612121 
L 208.111722 40.941823 
L 209.238006 41.84823 
L 210.45561 42.444356 
L 211.703655 50.742365 
L 212.860379 50.835456 
L 214.047543 53.655431 
L 215.265148 52.198215 
L 216.421872 54.489497 
L 217.609036 54.09333 
L 218.73532 51.050813 
L 219.952925 51.117715 
L 221.140089 49.836224 
L 222.296813 49.310361 
L 223.544858 57.962105 
L 224.732022 47.766433 
L 225.888746 45.924525 
L 227.075911 43.477168 
L 228.263075 43.175022 
L 229.419799 41.695515 
L 230.637404 41.448911 
L 231.824568 42.451664 
L 233.011732 47.347923 
L 234.168456 62.505108 
L 235.355621 286.521626 
L 237.729949 286.521626 
L 238.886674 90.349029 
L 240.104278 75.100696 
L 241.261002 57.667238 
L 242.387286 49.74775 
L 243.604891 48.090568 
L 244.883375 48.192362 
L 246.0401 46.440955 
L 247.196824 45.305435 
L 248.383988 48.438731 
L 249.540712 50.091311 
L 250.758317 44.285547 
L 251.945481 42.316625 
L 253.102205 44.163047 
L 254.31981 48.482489 
L 255.537414 55.725642 
L 256.724578 53.642868 
L 257.850863 48.528726 
L 259.129347 44.237085 
L 260.225191 45.01748 
L 261.412355 40.940042 
L 262.6604 34.244889 
L 263.817124 34.33653 
L 264.973848 34.70018 
L 266.130573 35.664464 
L 267.409057 39.531475 
L 268.504901 44.967861 
L 269.722506 54.25641 
L 270.90967 68.762701 
L 272.096834 286.521626 
L 273.314439 286.521626 
L 274.562483 65.837272 
L 275.749648 66.165176 
L 276.997692 49.39106 
L 278.123976 46.976799 
L 279.372021 46.515127 
L 280.528745 50.89316 
L 281.655029 52.354498 
L 284.029358 70.43552 
L 285.246962 64.768223 
L 286.464567 50.508928 
L 287.560411 47.539228 
L 288.778015 43.459822 
L 289.965179 42.902404 
L 291.152344 42.641792 
L 292.369948 45.234665 
L 293.435352 43.234691 
L 294.683396 48.165277 
L 295.840121 47.00035 
L 297.057725 46.09441 
L 298.244889 41.126873 
L 299.432054 42.214044 
L 300.680098 41.265553 
L 301.775942 40.894941 
L 302.963107 41.060016 
L 304.180711 38.766845 
L 305.337435 38.226559 
L 306.524599 41.187387 
L 307.711764 41.273846 
L 308.898928 42.66229 
L 310.025212 39.78441 
L 311.242817 41.181857 
L 312.429981 39.136064 
L 313.617145 38.049933 
L 315.930594 39.1874 
L 317.148198 43.232081 
L 318.365803 46.080443 
L 319.552967 51.28589 
L 320.679251 51.057144 
L 323.05358 44.414179 
L 324.240744 41.332099 
L 325.427908 40.352091 
L 326.645513 42.815456 
L 327.771797 39.671446 
L 329.019841 37.446913 
L 330.176565 37.033697 
L 331.36373 36.315878 
L 332.520454 37.601461 
L 333.859819 38.272921 
L 335.229624 40.458307 
L 336.416788 41.296201 
L 337.664833 42.643216 
L 338.912877 42.92999 
L 340.039161 39.592865 
L 341.287206 38.806744 
L 342.47437 40.742187 
L 343.661534 37.73471 
L 344.787819 39.974936 
L 346.005423 40.177944 
L 347.223027 45.321992 
L 348.379752 47.341465 
L 349.536476 45.628167 
L 350.6932 47.863879 
L 351.910804 48.266565 
L 353.067529 46.410041 
L 354.315573 43.172169 
L 355.472297 39.135131 
L 356.568141 40.600579 
L 357.846626 40.985262 
L 359.00335 42.605718 
L 360.190515 43.770889 
L 361.408119 42.024259 
L 362.473523 43.927355 
L 363.752008 41.686576 
L 364.939172 41.149544 
L 366.095896 38.81847 
L 367.3135 41.384783 
L 368.470225 42.057618 
L 369.687829 42.343992 
L 370.844553 43.387213 
L 372.001278 43.238431 
L 373.310202 39.914735 
L 374.436486 35.797064 
L 375.623651 34.329984 
L 376.749935 33.490209 
L 379.154704 38.498209 
L 380.341868 40.100167 
L 381.559472 42.426531 
L 382.655316 46.823904 
L 383.872921 45.765356 
L 385.060085 40.80379 
L 386.216809 38.814772 
L 387.251773 37.880318 
L 388.530258 37.111956 
L 389.747862 43.019507 
L 390.874146 45.454884 
L 392.091751 49.332352 
L 393.187595 46.52127 
L 394.526959 54.340528 
L 395.927205 47.870496 
L 397.266569 49.410458 
L 399.701778 40.78752 
L 400.828062 39.368969 
L 402.045667 36.271828 
L 403.141511 32.430264 
L 404.328675 32.204986 
L 405.60716 31.325845 
L 406.794324 32.983414 
L 407.859728 35.063213 
L 409.138213 40.549418 
L 410.203616 42.011491 
L 411.451661 46.45814 
L 412.730146 41.740072 
L 413.85643 34.308537 
L 414.921834 31.866375 
L 416.230758 30.93443 
L 417.296162 28.651609 
L 418.574647 28.415807 
L 419.761811 27.585446 
L 422.1057 27.308016 
L 424.601789 27.206949 
L 425.423672 27.069505 
L 425.423672 27.069505 
" clip-path="url(#p701c1dd2bf)" style="fill: none; stroke: #0033ff; stroke-width: 2.5; stroke-linecap: square"/>
   </g>
   <g id="line2d_101">
    <path d="M 69.091736 286.521626 
L 69.152616 286.521626 
L 69.152616 286.521626 
L 69.243937 74.265075 
L 69.730979 83.515578 
L 71.192104 84.94475 
L 73.292471 93.499618 
L 75.5146 77.545726 
L 77.371446 97.460038 
L 78.954332 109.864184 
L 80.232817 104.334747 
L 81.328661 84.765049 
L 82.394065 73.704181 
L 83.550789 54.748894 
L 84.707513 54.414018 
L 85.894677 56.032502 
L 87.051401 63.278364 
L 88.269006 67.48003 
L 89.48661 286.521626 
L 91.800059 286.521626 
L 92.987223 76.97883 
L 94.204828 218.301484 
L 95.361552 65.196331 
L 96.670476 60.992898 
L 97.948961 91.267306 
L 99.288326 91.138699 
L 100.50593 286.521626 
L 101.723535 286.521626 
L 102.941139 68.436826 
L 104.097863 66.686738 
L 105.285028 57.714474 
L 106.472192 70.607567 
L 107.689797 54.265001 
L 108.876961 53.169913 
L 110.094565 54.704413 
L 111.251289 55.307999 
L 112.438454 67.273665 
L 113.625618 61.038753 
L 114.812782 80.786866 
L 116.030387 286.521626 
L 121.966208 286.521626 
L 123.092493 99.472217 
L 124.279657 71.71085 
L 125.436381 67.912685 
L 126.714866 59.791892 
L 127.87159 63.455272 
L 129.089194 84.971223 
L 130.276359 286.521626 
L 134.933696 286.521626 
L 136.12086 70.071982 
L 137.399345 65.467858 
L 138.647389 52.700418 
L 139.834553 50.811601 
L 141.052158 46.358388 
L 142.178442 47.332369 
L 143.365606 50.960486 
L 144.552771 46.774962 
L 145.770375 51.155972 
L 146.987979 58.934589 
L 148.175144 56.264643 
L 149.362308 67.986183 
L 150.549472 72.796575 
L 151.706197 59.918849 
L 152.862921 57.605902 
L 155.206809 49.405628 
L 156.515734 43.712231 
L 157.702898 44.896228 
L 158.859623 45.304224 
L 160.077227 43.226932 
L 161.233951 43.546503 
L 162.451556 43.352803 
L 163.63872 44.909812 
L 164.825884 48.222194 
L 165.952168 43.849272 
L 167.108893 46.133606 
L 169.574542 55.258204 
L 170.731266 53.336215 
L 171.85755 52.598458 
L 173.075154 50.6888 
L 174.262319 50.080403 
L 176.575767 50.073721 
L 177.823812 44.691011 
L 178.980536 49.420703 
L 180.19814 48.178641 
L 181.385304 43.960288 
L 183.729193 39.938272 
L 184.977238 36.687651 
L 187.351566 33.835342 
L 188.50829 38.625865 
L 190.913059 44.238356 
L 192.130664 50.204738 
L 193.226508 46.386253 
L 194.383232 48.774399 
L 195.631276 44.853333 
L 196.818441 38.394351 
L 197.944725 35.525273 
L 199.223209 36.492344 
L 200.379934 39.829593 
L 201.627978 40.806497 
L 202.754262 37.167948 
L 203.941426 41.074977 
L 205.098151 37.432432 
L 206.346195 41.031796 
L 207.53336 42.577433 
L 209.907688 40.798719 
L 211.094853 45.518306 
L 212.251577 51.429969 
L 213.469181 50.317239 
L 214.656345 46.048266 
L 215.84351 49.599755 
L 217.000234 46.340942 
L 218.126518 46.811414 
L 219.313682 46.010846 
L 220.531287 45.354635 
L 221.718451 41.204977 
L 222.905615 41.297511 
L 224.09278 43.959531 
L 225.279944 45.223016 
L 226.436668 47.434418 
L 227.623833 53.144574 
L 228.810997 59.482844 
L 230.028601 60.338357 
L 231.215766 77.765996 
L 232.37249 88.203591 
L 234.746818 62.45693 
L 235.933983 66.764675 
L 237.090707 71.557312 
L 238.277871 61.347968 
L 239.465036 60.210492 
L 240.62176 56.519163 
L 241.839364 51.700888 
L 243.026529 49.37989 
L 244.152813 47.86072 
L 245.370417 48.746506 
L 246.557581 47.015961 
L 247.775186 49.672949 
L 248.96235 51.279876 
L 250.119074 50.601226 
L 251.306239 58.56199 
L 252.493403 54.143958 
L 253.680567 50.628063 
L 254.867732 50.567026 
L 256.054896 63.192658 
L 257.2725 80.409191 
L 258.429225 286.521626 
L 260.803553 286.521626 
L 261.960277 63.958364 
L 263.147442 60.112677 
L 264.365046 43.853019 
L 265.582651 41.318922 
L 266.739375 40.432176 
L 267.896099 45.106634 
L 269.113703 45.808372 
L 270.300868 51.101427 
L 271.457592 53.461856 
L 272.675196 55.10441 
L 273.923241 57.348276 
L 275.110405 70.863234 
L 276.29757 66.602032 
L 277.545614 88.324311 
L 278.671898 78.386026 
L 279.889503 69.245828 
L 281.076667 57.643015 
L 282.233391 69.006599 
L 283.420555 68.607105 
L 284.60772 71.316522 
L 285.764444 69.714954 
L 286.951608 82.508542 
L 288.169213 79.518556 
L 289.325937 66.785533 
L 291.730706 54.890013 
L 292.91787 50.233401 
L 294.105034 48.265677 
L 295.231318 49.221047 
L 296.448923 52.317354 
L 297.666527 49.638965 
L 298.792811 51.784918 
L 300.040856 53.149509 
L 301.16714 55.252254 
L 302.384744 61.515585 
L 303.541469 62.826532 
L 304.728633 52.381451 
L 305.885357 53.852906 
L 307.072521 63.853041 
L 308.259686 61.897395 
L 309.44685 61.551358 
L 310.664455 62.504589 
L 311.790739 69.129736 
L 312.977903 80.347928 
L 314.195507 85.749608 
L 315.382672 68.413613 
L 316.569836 54.366068 
L 317.72656 54.444332 
L 318.883284 52.734406 
L 320.040009 54.625101 
L 321.288053 58.561482 
L 322.444777 80.440439 
L 323.571061 73.841691 
L 324.788666 90.441944 
L 325.91495 71.300223 
L 328.350159 46.399999 
L 329.537323 42.360111 
L 330.663607 43.139571 
L 331.911652 49.141819 
L 333.129256 56.377439 
L 334.529501 62.636258 
L 335.838426 62.538882 
L 337.086471 75.208768 
L 338.273635 79.930503 
L 339.491239 82.67247 
L 340.678404 64.607833 
L 341.865568 62.253401 
L 342.961412 65.572551 
L 344.239897 68.095223 
L 345.396621 77.846223 
L 346.522905 62.185664 
L 347.80139 56.806202 
L 348.927674 54.798757 
L 350.053958 56.206526 
L 351.271562 50.664658 
L 352.397846 47.769281 
L 353.645891 44.195681 
L 354.802615 42.916406 
L 355.989779 42.527761 
L 357.268264 43.179505 
L 358.394548 41.958402 
L 359.551272 41.875001 
L 360.768877 48.682824 
L 361.925601 51.473852 
L 363.112765 51.762569 
L 364.239049 51.715046 
L 365.487094 44.854033 
L 366.704698 42.339034 
L 367.830982 39.11769 
L 369.048587 37.519221 
L 370.266191 37.689529 
L 371.362035 39.800071 
L 372.57964 46.361281 
L 373.858124 47.956523 
L 374.893088 50.581067 
L 376.232453 50.211804 
L 377.297857 47.538556 
L 378.454581 54.043625 
L 379.702626 52.888906 
L 380.85935 55.2561 
L 383.264118 44.201152 
L 384.359962 45.586281 
L 385.516687 43.855963 
L 386.795171 45.87134 
L 387.860575 46.360556 
L 389.10862 51.062691 
L 390.326224 54.239759 
L 391.422068 48.838412 
L 392.639673 44.099369 
L 393.796397 42.500948 
L 395.196642 38.895465 
L 396.596887 39.504153 
L 397.723171 40.12165 
L 398.910335 42.98899 
L 400.18882 46.642888 
L 401.436865 48.167684 
L 402.593589 43.148281 
L 403.811193 45.304687 
L 404.937477 45.366038 
L 406.185522 48.311698 
L 407.220486 42.747931 
L 408.49897 40.554443 
L 409.594814 35.744712 
L 410.934179 33.711612 
L 411.908263 31.97773 
L 413.156307 29.446701 
L 414.434792 29.476561 
L 415.469756 32.342384 
L 416.900441 34.838441 
L 417.904964 37.464597 
L 419.183449 38.087999 
L 420.309733 37.535767 
L 421.436017 35.783767 
L 422.623182 33.146018 
L 423.901666 29.993817 
L 424.99751 26.626837 
L 424.99751 26.626837 
" clip-path="url(#p701c1dd2bf)" style="fill: none; stroke: #ff7f0e; stroke-width: 2.5; stroke-linecap: square"/>
   </g>
   <g id="line2d_102">
    <path d="M 78.832572 42.331454 
L 78.832572 57.015118 
L 78.832572 52.313859 
L 79.410934 50.713453 
L 80.932939 45.809937 
L 83.094187 44.106926 
L 85.285875 40.232623 
L 87.203602 41.550727 
L 88.695167 40.33964 
L 89.912772 40.710697 
L 91.069496 45.213673 
L 92.10446 46.440269 
L 93.291624 52.683678 
L 94.387468 52.886729 
L 95.605073 55.884973 
L 96.883557 49.506173 
L 98.131602 46.178838 
L 99.410086 43.958873 
L 100.658131 42.263952 
L 103.12378 43.174565 
L 105.467668 46.868846 
L 106.624393 45.188422 
L 107.841997 49.985623 
L 109.059602 46.673 
L 110.246766 46.04698 
L 111.37305 48.037998 
L 112.560214 49.807803 
L 113.777819 56.780188 
L 115.025863 55.590655 
L 116.243468 57.378954 
L 117.339312 53.976804 
L 118.617796 54.383169 
L 119.804961 55.813278 
L 120.992125 53.691167 
L 122.179289 54.657395 
L 123.305573 53.299132 
L 124.492738 50.343044 
L 125.740782 50.405018 
L 126.897506 44.631427 
L 129.271835 47.179185 
L 130.489439 51.920078 
L 131.646164 57.383117 
L 132.802888 55.360218 
L 134.020492 50.374595 
L 135.207657 44.95281 
L 136.425261 44.694207 
L 137.673306 42.654615 
L 138.89091 42.256564 
L 140.108514 47.027406 
L 141.204358 45.798869 
L 143.609127 44.529903 
L 144.796291 39.951391 
L 145.953016 39.334568 
L 147.17062 36.797483 
L 148.357784 39.893464 
L 149.544949 38.725217 
L 150.701673 39.291604 
L 151.888837 37.806062 
L 153.106442 38.439782 
L 154.324046 37.853564 
L 155.51121 38.749304 
L 156.698375 39.995256 
L 157.915979 41.713893 
L 159.072703 39.287091 
L 160.290308 43.600254 
L 161.477472 43.409501 
L 162.664636 43.342828 
L 163.851801 39.131078 
L 164.978085 40.007366 
L 166.195689 39.673612 
L 167.382854 40.44351 
L 168.600458 40.036451 
L 169.757182 38.77785 
L 170.944347 35.898191 
L 172.131511 34.628546 
L 173.318675 32.839033 
L 174.475399 31.416615 
L 175.693004 29.597271 
L 176.910608 30.281364 
L 178.158653 30.527442 
L 180.441661 32.74896 
L 181.628825 34.590661 
L 182.84643 32.975442 
L 184.064034 32.677321 
L 185.281639 29.877099 
L 186.407923 29.052019 
L 187.595087 28.771238 
L 188.751811 29.924247 
L 189.999856 30.195509 
L 191.18702 30.935729 
L 192.404625 30.744107 
L 193.530909 31.320244 
L 194.718073 29.296733 
L 195.905237 29.327272 
L 198.279566 29.843834 
L 199.46673 31.310611 
L 200.623454 33.090891 
L 201.810619 36.483947 
L 202.997783 37.650885 
L 204.184947 34.471755 
L 205.372112 33.877902 
L 206.589716 33.057241 
L 207.77688 31.805129 
L 208.933605 33.25212 
L 210.120769 31.780515 
L 211.307933 32.052927 
L 212.495098 31.667063 
L 213.651822 32.509324 
L 214.869426 34.110676 
L 216.056591 34.720241 
L 217.243755 34.270779 
L 218.400479 33.214552 
L 219.587643 29.47573 
L 220.744368 29.364494 
L 221.961972 27.721331 
L 223.118696 27.164363 
L 224.336301 26.146721 
L 225.493025 26.029263 
L 226.710629 26.968596 
L 227.897794 29.439258 
L 229.084958 26.679267 
L 230.241682 25.91447 
L 231.428846 26.200044 
L 232.585571 26.975731 
L 233.772735 26.857172 
L 234.990339 25.564255 
L 236.177504 24.89982 
L 237.303788 25.028428 
L 238.490952 23.569998 
L 239.738997 23.454501 
L 240.834841 22.683209 
L 242.052445 23.636957 
L 243.239609 26.878906 
L 244.426774 28.724952 
L 245.583498 27.564912 
L 246.740222 26.113354 
L 247.896946 25.626283 
L 249.084111 25.275433 
L 250.362595 23.902455 
L 251.519319 23.850653 
L 252.706484 23.569876 
L 253.863208 24.533369 
L 255.080812 26.624682 
L 256.267977 27.788055 
L 257.546461 26.721618 
L 258.703186 27.971161 
L 259.89035 27.425093 
L 261.077514 27.267379 
L 262.234238 28.595581 
L 263.390963 27.725157 
L 264.608567 27.306207 
L 265.826171 28.542701 
L 266.952456 26.782614 
L 268.17006 27.682806 
L 269.387664 28.313063 
L 270.483508 27.453785 
L 271.670673 26.734062 
L 272.918717 26.522304 
L 274.136322 29.078216 
L 275.384366 28.43205 
L 277.758695 31.944673 
L 278.915419 33.233446 
L 280.133024 33.316782 
L 281.350628 33.1776 
L 282.476912 30.816795 
L 284.820801 32.470105 
L 286.068845 33.64301 
L 287.195129 32.328802 
L 288.382294 32.082495 
L 289.630338 32.371273 
L 290.817502 32.206623 
L 291.943786 30.363606 
L 293.191831 29.281089 
L 294.378995 30.490403 
L 295.53572 30.518259 
L 296.692444 32.401231 
L 297.849168 32.225108 
L 299.066772 33.674091 
L 300.223497 30.646005 
L 301.441101 29.77876 
L 302.628265 29.912692 
L 303.78499 30.463033 
L 305.002594 31.82884 
L 306.159318 33.895607 
L 307.376923 32.003538 
L 308.533647 31.723659 
L 309.690371 29.935141 
L 310.847095 28.790369 
L 312.09514 26.455483 
L 313.221424 26.847956 
L 314.439028 28.09243 
L 315.595752 29.564967 
L 316.752477 32.466967 
L 317.939641 32.037026 
L 319.126805 30.554024 
L 320.37485 29.191586 
L 321.501134 27.745532 
L 322.718738 27.210101 
L 323.875463 28.871804 
L 325.062627 29.33512 
L 326.280231 29.297871 
L 327.436956 28.913666 
L 328.59368 29.196419 
L 329.780844 27.185197 
L 333.342337 27.398678 
L 334.833902 27.824128 
L 336.021067 28.825069 
L 337.329991 28.199566 
L 338.517156 28.372626 
L 339.70432 29.389774 
L 340.891484 28.894186 
L 342.109089 29.882394 
L 343.204933 31.239591 
L 344.452977 32.369831 
L 345.609702 33.08809 
L 346.735986 33.641913 
L 347.98403 35.400664 
L 349.171195 36.383788 
L 350.358359 37.162348 
L 351.545523 37.607969 
L 352.641367 34.119717 
L 353.889412 33.021527 
L 355.137456 29.374391 
L 356.20286 28.687714 
L 358.607629 27.752522 
L 359.825233 27.0585 
L 361.012398 27.547159 
L 362.199562 26.440896 
L 363.417166 26.75611 
L 364.51301 27.316913 
L 365.700175 28.545289 
L 366.887339 30.336543 
L 368.135383 34.495415 
L 369.413868 35.140477 
L 370.479272 33.806423 
L 371.605556 33.077269 
L 372.823161 30.805071 
L 374.040765 26.919508 
L 375.227929 26.443294 
L 376.354213 26.94746 
L 377.602258 26.356514 
L 378.698102 26.797335 
L 379.854826 28.183459 
L 381.04199 27.402906 
L 383.507639 30.603178 
L 384.633923 29.771546 
L 385.760208 29.756878 
L 388.256297 31.189817 
L 389.352141 28.911815 
L 390.508865 28.610611 
L 391.696029 27.907265 
L 392.974514 28.145593 
L 395.501043 31.029808 
L 396.840408 30.497788 
L 398.088452 31.610336 
L 399.275617 33.741621 
L 400.371461 35.18147 
L 401.710826 33.142743 
L 402.80667 35.385858 
L 403.963394 36.591931 
L 405.089678 35.65604 
L 406.429043 32.519732 
L 407.616207 30.855164 
L 408.742491 27.169681 
L 409.838335 27.490479 
L 411.08638 25.687015 
L 412.334424 24.20639 
L 413.491148 23.785152 
L 414.678313 25.586051 
L 415.865477 25.21145 
L 416.961321 23.028462 
L 418.300686 21.66611 
L 419.42697 21.932043 
L 420.553254 21.268541 
L 421.770858 20.766816 
L 422.897143 20.50103 
L 424.206067 20.548273 
L 425.149711 21.002719 
L 425.149711 21.002719 
" clip-path="url(#p701c1dd2bf)" style="fill: none; stroke: #ff0000; stroke-width: 2.5; stroke-linecap: square"/>
   </g>
   <g id="patch_3">
    <path d="M 60.598945 299.822656 
L 60.598945 7.2 
" style="fill: none; stroke: #000000; stroke-width: 1.5; stroke-linejoin: miter; stroke-linecap: square"/>
   </g>
   <g id="patch_4">
    <path d="M 60.598945 299.822656 
L 425.880273 299.822656 
" style="fill: none; stroke: #000000; stroke-width: 1.5; stroke-linejoin: miter; stroke-linecap: square"/>
   </g>
   <g id="legend_1">
    <g id="line2d_103">
     <path d="M 71.398945 22.536328 
L 83.398945 22.536328 
L 95.398945 22.536328 
" style="fill: none; stroke: #000000; stroke-width: 2.5; stroke-linecap: square"/>
    </g>
    <g id="text_18">
     <!-- vacuum -->
     <g transform="translate(104.998945 26.736328) scale(0.12 -0.12)">
      <defs>
       <path id="ArialMT-59" d="M 1344 0 
L 81 3319 
L 675 3319 
L 1388 1331 
Q 1503 1009 1600 663 
Q 1675 925 1809 1294 
L 2547 3319 
L 3125 3319 
L 1869 0 
L 1344 0 
z
" transform="scale(0.015625)"/>
       <path id="ArialMT-46" d="M 2588 1216 
L 3141 1144 
Q 3050 572 2676 248 
Q 2303 -75 1759 -75 
Q 1078 -75 664 370 
Q 250 816 250 1647 
Q 250 2184 428 2587 
Q 606 2991 970 3192 
Q 1334 3394 1763 3394 
Q 2303 3394 2647 3120 
Q 2991 2847 3088 2344 
L 2541 2259 
Q 2463 2594 2264 2762 
Q 2066 2931 1784 2931 
Q 1359 2931 1093 2626 
Q 828 2322 828 1663 
Q 828 994 1084 691 
Q 1341 388 1753 388 
Q 2084 388 2306 591 
Q 2528 794 2588 1216 
z
" transform="scale(0.015625)"/>
      </defs>
      <use xlink:href="#ArialMT-59"/>
      <use xlink:href="#ArialMT-44" transform="translate(50 0)"/>
      <use xlink:href="#ArialMT-46" transform="translate(105.609375 0)"/>
      <use xlink:href="#ArialMT-58" transform="translate(155.609375 0)"/>
      <use xlink:href="#ArialMT-58" transform="translate(211.21875 0)"/>
      <use xlink:href="#ArialMT-50" transform="translate(266.828125 0)"/>
     </g>
    </g>
    <g id="line2d_104">
     <path d="M 71.398945 39.798047 
L 83.398945 39.798047 
L 95.398945 39.798047 
" style="fill: none; stroke: #1f77b4; stroke-width: 2.5; stroke-linecap: square"/>
    </g>
    <g id="text_19">
     <!-- 1h -->
     <g transform="translate(104.998945 43.998047) scale(0.12 -0.12)">
      <defs>
       <path id="ArialMT-4b" d="M 422 0 
L 422 4581 
L 984 4581 
L 984 2938 
Q 1378 3394 1978 3394 
Q 2347 3394 2619 3248 
Q 2891 3103 3008 2847 
Q 3125 2591 3125 2103 
L 3125 0 
L 2563 0 
L 2563 2103 
Q 2563 2525 2380 2717 
Q 2197 2909 1863 2909 
Q 1613 2909 1392 2779 
Q 1172 2650 1078 2428 
Q 984 2206 984 1816 
L 984 0 
L 422 0 
z
" transform="scale(0.015625)"/>
      </defs>
      <use xlink:href="#ArialMT-14"/>
      <use xlink:href="#ArialMT-4b" transform="translate(55.609375 0)"/>
     </g>
    </g>
    <g id="line2d_105">
     <path d="M 71.398945 57.059766 
L 83.398945 57.059766 
L 95.398945 57.059766 
" style="fill: none; stroke: #0033ff; stroke-width: 2.5; stroke-linecap: square"/>
    </g>
    <g id="text_20">
     <!-- 2h -->
     <g transform="translate(104.998945 61.259766) scale(0.12 -0.12)">
      <use xlink:href="#ArialMT-15"/>
      <use xlink:href="#ArialMT-4b" transform="translate(55.609375 0)"/>
     </g>
    </g>
    <g id="line2d_106">
     <path d="M 71.398945 74.321484 
L 83.398945 74.321484 
L 95.398945 74.321484 
" style="fill: none; stroke: #ff7f0e; stroke-width: 2.5; stroke-linecap: square"/>
    </g>
    <g id="text_21">
     <!-- 4h -->
     <g transform="translate(104.998945 78.521484) scale(0.12 -0.12)">
      <use xlink:href="#ArialMT-17"/>
      <use xlink:href="#ArialMT-4b" transform="translate(55.609375 0)"/>
     </g>
    </g>
    <g id="line2d_107">
     <path d="M 71.398945 91.583203 
L 83.398945 91.583203 
L 95.398945 91.583203 
" style="fill: none; stroke: #ff0000; stroke-width: 2.5; stroke-linecap: square"/>
    </g>
    <g id="text_22">
     <!-- first -->
     <g transform="translate(104.998945 95.783203) scale(0.12 -0.12)">
      <defs>
       <path id="ArialMT-49" d="M 556 0 
L 556 2881 
L 59 2881 
L 59 3319 
L 556 3319 
L 556 3672 
Q 556 4006 616 4169 
Q 697 4388 901 4523 
Q 1106 4659 1475 4659 
Q 1713 4659 2000 4603 
L 1916 4113 
Q 1741 4144 1584 4144 
Q 1328 4144 1222 4034 
Q 1116 3925 1116 3625 
L 1116 3319 
L 1763 3319 
L 1763 2881 
L 1116 2881 
L 1116 0 
L 556 0 
z
" transform="scale(0.015625)"/>
       <path id="ArialMT-4c" d="M 425 3934 
L 425 4581 
L 988 4581 
L 988 3934 
L 425 3934 
z
M 425 0 
L 425 3319 
L 988 3319 
L 988 0 
L 425 0 
z
" transform="scale(0.015625)"/>
       <path id="ArialMT-56" d="M 197 991 
L 753 1078 
Q 800 744 1014 566 
Q 1228 388 1613 388 
Q 2000 388 2187 545 
Q 2375 703 2375 916 
Q 2375 1106 2209 1216 
Q 2094 1291 1634 1406 
Q 1016 1563 777 1677 
Q 538 1791 414 1992 
Q 291 2194 291 2438 
Q 291 2659 392 2848 
Q 494 3038 669 3163 
Q 800 3259 1026 3326 
Q 1253 3394 1513 3394 
Q 1903 3394 2198 3281 
Q 2494 3169 2634 2976 
Q 2775 2784 2828 2463 
L 2278 2388 
Q 2241 2644 2061 2787 
Q 1881 2931 1553 2931 
Q 1166 2931 1000 2803 
Q 834 2675 834 2503 
Q 834 2394 903 2306 
Q 972 2216 1119 2156 
Q 1203 2125 1616 2013 
Q 2213 1853 2448 1751 
Q 2684 1650 2818 1456 
Q 2953 1263 2953 975 
Q 2953 694 2789 445 
Q 2625 197 2315 61 
Q 2006 -75 1616 -75 
Q 969 -75 630 194 
Q 291 463 197 991 
z
" transform="scale(0.015625)"/>
      </defs>
      <use xlink:href="#ArialMT-49"/>
      <use xlink:href="#ArialMT-4c" transform="translate(27.78125 0)"/>
      <use xlink:href="#ArialMT-55" transform="translate(50 0)"/>
      <use xlink:href="#ArialMT-56" transform="translate(83.296875 0)"/>
      <use xlink:href="#ArialMT-57" transform="translate(133.296875 0)"/>
     </g>
    </g>
   </g>
  </g>
 </g>
 <defs>
  <clipPath id="p701c1dd2bf">
   <rect x="60.598945" y="7.2" width="365.281328" height="292.622656"/>
  </clipPath>
 </defs>
</svg>
