<?xml version="1.0" encoding="utf-8" standalone="no"?>
<!DOCTYPE svg PUBLIC "-//W3C//DTD SVG 1.1//EN"
  "http://www.w3.org/Graphics/SVG/1.1/DTD/svg11.dtd">
<svg xmlns:xlink="http://www.w3.org/1999/xlink" width="448.650898pt" height="340.800273pt" viewBox="0 0 448.650898 340.800273" xmlns="http://www.w3.org/2000/svg" version="1.1">
 <metadata>
  <rdf:RDF xmlns:dc="http://purl.org/dc/elements/1.1/" xmlns:cc="http://creativecommons.org/ns#" xmlns:rdf="http://www.w3.org/1999/02/22-rdf-syntax-ns#">
   <cc:Work>
    <dc:type rdf:resource="http://purl.org/dc/dcmitype/StillImage"/>
    <dc:date>2026-07-09T17:08:40.577312</dc:date>
    <dc:format>image/svg+xml</dc:format>
    <dc:creator>
     <cc:Agent>
      <dc:title>Matplotlib v3.11.0, https://matplotlib.org/</dc:title>
     </cc:Agent>
    </dc:creator>
   </cc:Work>
  </rdf:RDF>
 </metadata>
 <defs>
  <style type="text/css">*{stroke-linejoin: round; stroke-linecap: butt}</style>
 </defs>
 <g id="figure_1">
  <g id="patch_1">
   <path d="M 0 340.800273 
L 448.650898 340.800273 
L 448.650898 0 
L 0 0 
z
" style="fill: #ffffff"/>
  </g>
  <g id="axes_1">
   <g id="patch_2">
    <path d="M 60.598945 299.822656 
L 425.880273 299.822656 
L 425.880273 7.2 
L 60.598945 7.2 
z
" style="fill: #ffffff"/>
   </g>
   <g id="matplotlib.axis_1">
    <g id="xtick_1">
     <g id="line2d_1">
      <defs>
       <path id="m5d245413a7" d="M 0 0 
L 0 -6 
" style="stroke: #000000; stroke-width: 1.5"/>
      </defs>
      <g>
       <use xlink:href="#m5d245413a7" x="60.598945" y="299.822656" style="stroke: #000000; stroke-width: 1.5"/>
      </g>
     </g>
     <g id="text_1">
      <!-- 0 -->
      <g transform="translate(56.706289 313.515039) scale(0.14 -0.14)">
       <defs>
        <path id="ArialMT-13" d="M 266 2259 
Q 266 3072 433 3567 
Q 600 4063 929 4331 
Q 1259 4600 1759 4600 
Q 2128 4600 2406 4451 
Q 2684 4303 2865 4023 
Q 3047 3744 3150 3342 
Q 3253 2941 3253 2259 
Q 3253 1453 3087 958 
Q 2922 463 2592 192 
Q 2263 -78 1759 -78 
Q 1097 -78 719 397 
Q 266 969 266 2259 
z
M 844 2259 
Q 844 1131 1108 757 
Q 1372 384 1759 384 
Q 2147 384 2411 759 
Q 2675 1134 2675 2259 
Q 2675 3391 2411 3762 
Q 2147 4134 1753 4134 
Q 1366 4134 1134 3806 
Q 844 3388 844 2259 
z
" transform="scale(0.015625)"/>
       </defs>
       <use xlink:href="#ArialMT-13"/>
      </g>
     </g>
    </g>
    <g id="xtick_2">
     <g id="line2d_2">
      <g>
       <use xlink:href="#m5d245413a7" x="121.479167" y="299.822656" style="stroke: #000000; stroke-width: 1.5"/>
      </g>
     </g>
     <g id="text_2">
      <!-- 200 -->
      <g transform="translate(109.801198 313.515039) scale(0.14 -0.14)">
       <defs>
        <path id="ArialMT-15" d="M 3222 541 
L 3222 0 
L 194 0 
Q 188 203 259 391 
Q 375 700 629 1000 
Q 884 1300 1366 1694 
Q 2113 2306 2375 2664 
Q 2638 3022 2638 3341 
Q 2638 3675 2398 3904 
Q 2159 4134 1775 4134 
Q 1369 4134 1125 3890 
Q 881 3647 878 3216 
L 300 3275 
Q 359 3922 746 4261 
Q 1134 4600 1788 4600 
Q 2447 4600 2831 4234 
Q 3216 3869 3216 3328 
Q 3216 3053 3103 2787 
Q 2991 2522 2730 2228 
Q 2469 1934 1863 1422 
Q 1356 997 1212 845 
Q 1069 694 975 541 
L 3222 541 
z
" transform="scale(0.015625)"/>
       </defs>
       <use xlink:href="#ArialMT-15"/>
       <use xlink:href="#ArialMT-13" transform="translate(55.609375 0)"/>
       <use xlink:href="#ArialMT-13" transform="translate(111.21875 0)"/>
      </g>
     </g>
    </g>
    <g id="xtick_3">
     <g id="line2d_3">
      <g>
       <use xlink:href="#m5d245413a7" x="182.359388" y="299.822656" style="stroke: #000000; stroke-width: 1.5"/>
      </g>
     </g>
     <g id="text_3">
      <!-- 400 -->
      <g transform="translate(170.681419 313.515039) scale(0.14 -0.14)">
       <defs>
        <path id="ArialMT-17" d="M 2069 0 
L 2069 1097 
L 81 1097 
L 81 1613 
L 2172 4581 
L 2631 4581 
L 2631 1613 
L 3250 1613 
L 3250 1097 
L 2631 1097 
L 2631 0 
L 2069 0 
z
M 2069 1613 
L 2069 3678 
L 634 1613 
L 2069 1613 
z
" transform="scale(0.015625)"/>
       </defs>
       <use xlink:href="#ArialMT-17"/>
       <use xlink:href="#ArialMT-13" transform="translate(55.609375 0)"/>
       <use xlink:href="#ArialMT-13" transform="translate(111.21875 0)"/>
      </g>
     </g>
    </g>
    <g id="xtick_4">
     <g id="line2d_4">
      <g>
       <use xlink:href="#m5d245413a7" x="243.239609" y="299.822656" style="stroke: #000000; stroke-width: 1.5"/>
      </g>
     </g>
     <g id="text_4">
      <!-- 600 -->
      <g transform="translate(231.561641 313.515039) scale(0.14 -0.14)">
       <defs>
        <path id="ArialMT-19" d="M 3184 3459 
L 2625 3416 
Q 2550 3747 2413 3897 
Q 2184 4138 1850 4138 
Q 1581 4138 1378 3988 
Q 1113 3794 959 3422 
Q 806 3050 800 2363 
Q 1003 2672 1297 2822 
Q 1591 2972 1913 2972 
Q 2475 2972 2870 2558 
Q 3266 2144 3266 1488 
Q 3266 1056 3080 686 
Q 2894 316 2569 119 
Q 2244 -78 1831 -78 
Q 1128 -78 684 439 
Q 241 956 241 2144 
Q 241 3472 731 4075 
Q 1159 4600 1884 4600 
Q 2425 4600 2770 4297 
Q 3116 3994 3184 3459 
z
M 888 1484 
Q 888 1194 1011 928 
Q 1134 663 1356 523 
Q 1578 384 1822 384 
Q 2178 384 2434 671 
Q 2691 959 2691 1453 
Q 2691 1928 2437 2201 
Q 2184 2475 1800 2475 
Q 1419 2475 1153 2201 
Q 888 1928 888 1484 
z
" transform="scale(0.015625)"/>
       </defs>
       <use xlink:href="#ArialMT-19"/>
       <use xlink:href="#ArialMT-13" transform="translate(55.609375 0)"/>
       <use xlink:href="#ArialMT-13" transform="translate(111.21875 0)"/>
      </g>
     </g>
    </g>
    <g id="xtick_5">
     <g id="line2d_5">
      <g>
       <use xlink:href="#m5d245413a7" x="304.119831" y="299.822656" style="stroke: #000000; stroke-width: 1.5"/>
      </g>
     </g>
     <g id="text_5">
      <!-- 800 -->
      <g transform="translate(292.441862 313.515039) scale(0.14 -0.14)">
       <defs>
        <path id="ArialMT-1b" d="M 1131 2484 
Q 781 2613 612 2850 
Q 444 3088 444 3419 
Q 444 3919 803 4259 
Q 1163 4600 1759 4600 
Q 2359 4600 2725 4251 
Q 3091 3903 3091 3403 
Q 3091 3084 2923 2848 
Q 2756 2613 2416 2484 
Q 2838 2347 3058 2040 
Q 3278 1734 3278 1309 
Q 3278 722 2862 322 
Q 2447 -78 1769 -78 
Q 1091 -78 675 323 
Q 259 725 259 1325 
Q 259 1772 486 2073 
Q 713 2375 1131 2484 
z
M 1019 3438 
Q 1019 3113 1228 2906 
Q 1438 2700 1772 2700 
Q 2097 2700 2305 2904 
Q 2513 3109 2513 3406 
Q 2513 3716 2298 3927 
Q 2084 4138 1766 4138 
Q 1444 4138 1231 3931 
Q 1019 3725 1019 3438 
z
M 838 1322 
Q 838 1081 952 856 
Q 1066 631 1291 507 
Q 1516 384 1775 384 
Q 2178 384 2440 643 
Q 2703 903 2703 1303 
Q 2703 1709 2433 1975 
Q 2163 2241 1756 2241 
Q 1359 2241 1098 1978 
Q 838 1716 838 1322 
z
" transform="scale(0.015625)"/>
       </defs>
       <use xlink:href="#ArialMT-1b"/>
       <use xlink:href="#ArialMT-13" transform="translate(55.609375 0)"/>
       <use xlink:href="#ArialMT-13" transform="translate(111.21875 0)"/>
      </g>
     </g>
    </g>
    <g id="xtick_6">
     <g id="line2d_6">
      <g>
       <use xlink:href="#m5d245413a7" x="365.000052" y="299.822656" style="stroke: #000000; stroke-width: 1.5"/>
      </g>
     </g>
     <g id="text_6">
      <!-- 1000 -->
      <g transform="translate(349.429427 313.515039) scale(0.14 -0.14)">
       <defs>
        <path id="ArialMT-14" d="M 2384 0 
L 1822 0 
L 1822 3584 
Q 1619 3391 1289 3197 
Q 959 3003 697 2906 
L 697 3450 
Q 1169 3672 1522 3987 
Q 1875 4303 2022 4600 
L 2384 4600 
L 2384 0 
z
" transform="scale(0.015625)"/>
       </defs>
       <use xlink:href="#ArialMT-14"/>
       <use xlink:href="#ArialMT-13" transform="translate(55.609375 0)"/>
       <use xlink:href="#ArialMT-13" transform="translate(111.21875 0)"/>
       <use xlink:href="#ArialMT-13" transform="translate(166.828125 0)"/>
      </g>
     </g>
    </g>
    <g id="xtick_7">
     <g id="line2d_7">
      <g>
       <use xlink:href="#m5d245413a7" x="425.880273" y="299.822656" style="stroke: #000000; stroke-width: 1.5"/>
      </g>
     </g>
     <g id="text_7">
      <!-- 1200 -->
      <g transform="translate(410.309648 313.515039) scale(0.14 -0.14)">
       <use xlink:href="#ArialMT-14"/>
       <use xlink:href="#ArialMT-15" transform="translate(55.609375 0)"/>
       <use xlink:href="#ArialMT-13" transform="translate(111.21875 0)"/>
       <use xlink:href="#ArialMT-13" transform="translate(166.828125 0)"/>
      </g>
     </g>
    </g>
    <g id="xtick_8">
     <g id="line2d_8">
      <defs>
       <path id="m442252ed01" d="M 0 0 
L 0 -3 
" style="stroke: #000000"/>
      </defs>
      <g>
       <use xlink:href="#m442252ed01" x="75.819001" y="299.822656" style="stroke: #000000"/>
      </g>
     </g>
    </g>
    <g id="xtick_9">
     <g id="line2d_9">
      <g>
       <use xlink:href="#m442252ed01" x="91.039056" y="299.822656" style="stroke: #000000"/>
      </g>
     </g>
    </g>
    <g id="xtick_10">
     <g id="line2d_10">
      <g>
       <use xlink:href="#m442252ed01" x="106.259111" y="299.822656" style="stroke: #000000"/>
      </g>
     </g>
    </g>
    <g id="xtick_11">
     <g id="line2d_11">
      <g>
       <use xlink:href="#m442252ed01" x="136.699222" y="299.822656" style="stroke: #000000"/>
      </g>
     </g>
    </g>
    <g id="xtick_12">
     <g id="line2d_12">
      <g>
       <use xlink:href="#m442252ed01" x="151.919277" y="299.822656" style="stroke: #000000"/>
      </g>
     </g>
    </g>
    <g id="xtick_13">
     <g id="line2d_13">
      <g>
       <use xlink:href="#m442252ed01" x="167.139333" y="299.822656" style="stroke: #000000"/>
      </g>
     </g>
    </g>
    <g id="xtick_14">
     <g id="line2d_14">
      <g>
       <use xlink:href="#m442252ed01" x="197.579443" y="299.822656" style="stroke: #000000"/>
      </g>
     </g>
    </g>
    <g id="xtick_15">
     <g id="line2d_15">
      <g>
       <use xlink:href="#m442252ed01" x="212.799499" y="299.822656" style="stroke: #000000"/>
      </g>
     </g>
    </g>
    <g id="xtick_16">
     <g id="line2d_16">
      <g>
       <use xlink:href="#m442252ed01" x="228.019554" y="299.822656" style="stroke: #000000"/>
      </g>
     </g>
    </g>
    <g id="xtick_17">
     <g id="line2d_17">
      <g>
       <use xlink:href="#m442252ed01" x="258.459665" y="299.822656" style="stroke: #000000"/>
      </g>
     </g>
    </g>
    <g id="xtick_18">
     <g id="line2d_18">
      <g>
       <use xlink:href="#m442252ed01" x="273.67972" y="299.822656" style="stroke: #000000"/>
      </g>
     </g>
    </g>
    <g id="xtick_19">
     <g id="line2d_19">
      <g>
       <use xlink:href="#m442252ed01" x="288.899775" y="299.822656" style="stroke: #000000"/>
      </g>
     </g>
    </g>
    <g id="xtick_20">
     <g id="line2d_20">
      <g>
       <use xlink:href="#m442252ed01" x="319.339886" y="299.822656" style="stroke: #000000"/>
      </g>
     </g>
    </g>
    <g id="xtick_21">
     <g id="line2d_21">
      <g>
       <use xlink:href="#m442252ed01" x="334.559941" y="299.822656" style="stroke: #000000"/>
      </g>
     </g>
    </g>
    <g id="xtick_22">
     <g id="line2d_22">
      <g>
       <use xlink:href="#m442252ed01" x="349.779997" y="299.822656" style="stroke: #000000"/>
      </g>
     </g>
    </g>
    <g id="xtick_23">
     <g id="line2d_23">
      <g>
       <use xlink:href="#m442252ed01" x="380.220107" y="299.822656" style="stroke: #000000"/>
      </g>
     </g>
    </g>
    <g id="xtick_24">
     <g id="line2d_24">
      <g>
       <use xlink:href="#m442252ed01" x="395.440163" y="299.822656" style="stroke: #000000"/>
      </g>
     </g>
    </g>
    <g id="xtick_25">
     <g id="line2d_25">
      <g>
       <use xlink:href="#m442252ed01" x="410.660218" y="299.822656" style="stroke: #000000"/>
      </g>
     </g>
    </g>
    <g id="text_8">
     <!-- T1 Temperature (°C) -->
     <g transform="translate(179.500234 330.653711) scale(0.14 -0.14)">
      <defs>
       <path id="ArialMT-37" d="M 1659 0 
L 1659 4041 
L 150 4041 
L 150 4581 
L 3781 4581 
L 3781 4041 
L 2266 4041 
L 2266 0 
L 1659 0 
z
" transform="scale(0.015625)"/>
       <path id="ArialMT-3" transform="scale(0.015625)"/>
       <path id="ArialMT-48" d="M 2694 1069 
L 3275 997 
Q 3138 488 2766 206 
Q 2394 -75 1816 -75 
Q 1088 -75 661 373 
Q 234 822 234 1631 
Q 234 2469 665 2931 
Q 1097 3394 1784 3394 
Q 2450 3394 2872 2941 
Q 3294 2488 3294 1666 
Q 3294 1616 3291 1516 
L 816 1516 
Q 847 969 1125 678 
Q 1403 388 1819 388 
Q 2128 388 2347 550 
Q 2566 713 2694 1069 
z
M 847 1978 
L 2700 1978 
Q 2663 2397 2488 2606 
Q 2219 2931 1791 2931 
Q 1403 2931 1139 2672 
Q 875 2413 847 1978 
z
" transform="scale(0.015625)"/>
       <path id="ArialMT-50" d="M 422 0 
L 422 3319 
L 925 3319 
L 925 2853 
Q 1081 3097 1340 3245 
Q 1600 3394 1931 3394 
Q 2300 3394 2536 3241 
Q 2772 3088 2869 2813 
Q 3263 3394 3894 3394 
Q 4388 3394 4653 3120 
Q 4919 2847 4919 2278 
L 4919 0 
L 4359 0 
L 4359 2091 
Q 4359 2428 4304 2576 
Q 4250 2725 4106 2815 
Q 3963 2906 3769 2906 
Q 3419 2906 3187 2673 
Q 2956 2441 2956 1928 
L 2956 0 
L 2394 0 
L 2394 2156 
Q 2394 2531 2256 2718 
Q 2119 2906 1806 2906 
Q 1569 2906 1367 2781 
Q 1166 2656 1075 2415 
Q 984 2175 984 1722 
L 984 0 
L 422 0 
z
" transform="scale(0.015625)"/>
       <path id="ArialMT-53" d="M 422 -1272 
L 422 3319 
L 934 3319 
L 934 2888 
Q 1116 3141 1344 3267 
Q 1572 3394 1897 3394 
Q 2322 3394 2647 3175 
Q 2972 2956 3137 2557 
Q 3303 2159 3303 1684 
Q 3303 1175 3120 767 
Q 2938 359 2589 142 
Q 2241 -75 1856 -75 
Q 1575 -75 1351 44 
Q 1128 163 984 344 
L 984 -1272 
L 422 -1272 
z
M 931 1641 
Q 931 1000 1190 694 
Q 1450 388 1819 388 
Q 2194 388 2461 705 
Q 2728 1022 2728 1688 
Q 2728 2322 2467 2637 
Q 2206 2953 1844 2953 
Q 1484 2953 1207 2617 
Q 931 2281 931 1641 
z
" transform="scale(0.015625)"/>
       <path id="ArialMT-55" d="M 416 0 
L 416 3319 
L 922 3319 
L 922 2816 
Q 1116 3169 1280 3281 
Q 1444 3394 1641 3394 
Q 1925 3394 2219 3213 
L 2025 2691 
Q 1819 2813 1613 2813 
Q 1428 2813 1281 2702 
Q 1134 2591 1072 2394 
Q 978 2094 978 1738 
L 978 0 
L 416 0 
z
" transform="scale(0.015625)"/>
       <path id="ArialMT-44" d="M 2588 409 
Q 2275 144 1986 34 
Q 1697 -75 1366 -75 
Q 819 -75 525 192 
Q 231 459 231 875 
Q 231 1119 342 1320 
Q 453 1522 633 1644 
Q 813 1766 1038 1828 
Q 1203 1872 1538 1913 
Q 2219 1994 2541 2106 
Q 2544 2222 2544 2253 
Q 2544 2597 2384 2738 
Q 2169 2928 1744 2928 
Q 1347 2928 1158 2789 
Q 969 2650 878 2297 
L 328 2372 
Q 403 2725 575 2942 
Q 747 3159 1072 3276 
Q 1397 3394 1825 3394 
Q 2250 3394 2515 3294 
Q 2781 3194 2906 3042 
Q 3031 2891 3081 2659 
Q 3109 2516 3109 2141 
L 3109 1391 
Q 3109 606 3145 398 
Q 3181 191 3288 0 
L 2700 0 
Q 2613 175 2588 409 
z
M 2541 1666 
Q 2234 1541 1622 1453 
Q 1275 1403 1131 1340 
Q 988 1278 909 1158 
Q 831 1038 831 891 
Q 831 666 1001 516 
Q 1172 366 1500 366 
Q 1825 366 2078 508 
Q 2331 650 2450 897 
Q 2541 1088 2541 1459 
L 2541 1666 
z
" transform="scale(0.015625)"/>
       <path id="ArialMT-57" d="M 1650 503 
L 1731 6 
Q 1494 -44 1306 -44 
Q 1000 -44 831 53 
Q 663 150 594 308 
Q 525 466 525 972 
L 525 2881 
L 113 2881 
L 113 3319 
L 525 3319 
L 525 4141 
L 1084 4478 
L 1084 3319 
L 1650 3319 
L 1650 2881 
L 1084 2881 
L 1084 941 
Q 1084 700 1114 631 
Q 1144 563 1211 522 
Q 1278 481 1403 481 
Q 1497 481 1650 503 
z
" transform="scale(0.015625)"/>
       <path id="ArialMT-58" d="M 2597 0 
L 2597 488 
Q 2209 -75 1544 -75 
Q 1250 -75 995 37 
Q 741 150 617 320 
Q 494 491 444 738 
Q 409 903 409 1263 
L 409 3319 
L 972 3319 
L 972 1478 
Q 972 1038 1006 884 
Q 1059 663 1231 536 
Q 1403 409 1656 409 
Q 1909 409 2131 539 
Q 2353 669 2445 892 
Q 2538 1116 2538 1541 
L 2538 3319 
L 3100 3319 
L 3100 0 
L 2597 0 
z
" transform="scale(0.015625)"/>
       <path id="ArialMT-b" d="M 1497 -1347 
Q 1031 -759 709 28 
Q 388 816 388 1659 
Q 388 2403 628 3084 
Q 909 3875 1497 4659 
L 1900 4659 
Q 1522 4009 1400 3731 
Q 1209 3300 1100 2831 
Q 966 2247 966 1656 
Q 966 153 1900 -1347 
L 1497 -1347 
z
" transform="scale(0.015625)"/>
       <path id="ArialMT-83" d="M 400 3794 
Q 400 4153 654 4406 
Q 909 4659 1266 4659 
Q 1628 4659 1881 4406 
Q 2134 4153 2134 3794 
Q 2134 3434 1879 3179 
Q 1625 2925 1266 2925 
Q 909 2925 654 3178 
Q 400 3431 400 3794 
z
M 741 3794 
Q 741 3575 895 3420 
Q 1050 3266 1269 3266 
Q 1484 3266 1639 3420 
Q 1794 3575 1794 3794 
Q 1794 4013 1639 4167 
Q 1484 4322 1269 4322 
Q 1050 4322 895 4167 
Q 741 4013 741 3794 
z
" transform="scale(0.015625)"/>
       <path id="ArialMT-26" d="M 3763 1606 
L 4369 1453 
Q 4178 706 3683 314 
Q 3188 -78 2472 -78 
Q 1731 -78 1267 223 
Q 803 525 561 1097 
Q 319 1669 319 2325 
Q 319 3041 592 3573 
Q 866 4106 1370 4382 
Q 1875 4659 2481 4659 
Q 3169 4659 3637 4309 
Q 4106 3959 4291 3325 
L 3694 3184 
Q 3534 3684 3231 3912 
Q 2928 4141 2469 4141 
Q 1941 4141 1586 3887 
Q 1231 3634 1087 3207 
Q 944 2781 944 2328 
Q 944 1744 1114 1308 
Q 1284 872 1643 656 
Q 2003 441 2422 441 
Q 2931 441 3284 734 
Q 3638 1028 3763 1606 
z
" transform="scale(0.015625)"/>
       <path id="ArialMT-c" d="M 791 -1347 
L 388 -1347 
Q 1322 153 1322 1656 
Q 1322 2244 1188 2822 
Q 1081 3291 891 3722 
Q 769 4003 388 4659 
L 791 4659 
Q 1378 3875 1659 3084 
Q 1900 2403 1900 1659 
Q 1900 816 1576 28 
Q 1253 -759 791 -1347 
z
" transform="scale(0.015625)"/>
      </defs>
      <use xlink:href="#ArialMT-37"/>
      <use xlink:href="#ArialMT-14" transform="translate(61.078125 0)"/>
      <use xlink:href="#ArialMT-3" transform="translate(116.6875 0)"/>
      <use xlink:href="#ArialMT-37" transform="translate(142.65625 0)"/>
      <use xlink:href="#ArialMT-48" transform="translate(192.65625 0)"/>
      <use xlink:href="#ArialMT-50" transform="translate(248.265625 0)"/>
      <use xlink:href="#ArialMT-53" transform="translate(331.5625 0)"/>
      <use xlink:href="#ArialMT-48" transform="translate(387.171875 0)"/>
      <use xlink:href="#ArialMT-55" transform="translate(442.78125 0)"/>
      <use xlink:href="#ArialMT-44" transform="translate(476.078125 0)"/>
      <use xlink:href="#ArialMT-57" transform="translate(531.6875 0)"/>
      <use xlink:href="#ArialMT-58" transform="translate(559.46875 0)"/>
      <use xlink:href="#ArialMT-55" transform="translate(615.078125 0)"/>
      <use xlink:href="#ArialMT-48" transform="translate(648.375 0)"/>
      <use xlink:href="#ArialMT-3" transform="translate(703.984375 0)"/>
      <use xlink:href="#ArialMT-b" transform="translate(731.765625 0)"/>
      <use xlink:href="#ArialMT-83" transform="translate(765.0625 0)"/>
      <use xlink:href="#ArialMT-26" transform="translate(805.046875 0)"/>
      <use xlink:href="#ArialMT-c" transform="translate(877.265625 0)"/>
     </g>
    </g>
   </g>
   <g id="matplotlib.axis_2">
    <g id="ytick_1">
     <g id="line2d_26">
      <defs>
       <path id="m62672bfc9a" d="M 0 0 
L 6 0 
" style="stroke: #000000; stroke-width: 1.5"/>
      </defs>
      <g>
       <use xlink:href="#m62672bfc9a" x="60.598945" y="286.521626" style="stroke: #000000; stroke-width: 1.5"/>
      </g>
     </g>
     <g id="text_9">
      <!-- $\mathdefault{10^{-20}}$ -->
      <g transform="translate(24.338945 292.961626) scale(0.14 -0.14)">
       <defs>
        <path id="ArialMT-ed" d="M 3381 1997 
L 356 1997 
L 356 2522 
L 3381 2522 
L 3381 1997 
z
" transform="scale(0.015625)"/>
       </defs>
       <use xlink:href="#ArialMT-14" transform="translate(0 0.3875)"/>
       <use xlink:href="#ArialMT-13" transform="translate(55.615234 0.3875)"/>
       <use xlink:href="#ArialMT-ed" transform="translate(112.1875 41.6875) scale(0.7)"/>
       <use xlink:href="#ArialMT-15" transform="translate(153.066406 41.6875) scale(0.7)"/>
       <use xlink:href="#ArialMT-13" transform="translate(191.99707 41.6875) scale(0.7)"/>
      </g>
     </g>
    </g>
    <g id="ytick_2">
     <g id="line2d_27">
      <g>
       <use xlink:href="#m62672bfc9a" x="60.598945" y="253.206686" style="stroke: #000000; stroke-width: 1.5"/>
      </g>
     </g>
     <g id="text_10">
      <!-- $\mathdefault{10^{-19}}$ -->
      <g transform="translate(24.338945 259.646686) scale(0.14 -0.14)">
       <defs>
        <path id="ArialMT-1c" d="M 350 1059 
L 891 1109 
Q 959 728 1153 556 
Q 1347 384 1650 384 
Q 1909 384 2104 503 
Q 2300 622 2425 820 
Q 2550 1019 2634 1356 
Q 2719 1694 2719 2044 
Q 2719 2081 2716 2156 
Q 2547 1888 2255 1720 
Q 1963 1553 1622 1553 
Q 1053 1553 659 1965 
Q 266 2378 266 3053 
Q 266 3750 677 4175 
Q 1088 4600 1706 4600 
Q 2153 4600 2523 4359 
Q 2894 4119 3086 3673 
Q 3278 3228 3278 2384 
Q 3278 1506 3087 986 
Q 2897 466 2520 194 
Q 2144 -78 1638 -78 
Q 1100 -78 759 220 
Q 419 519 350 1059 
z
M 2653 3081 
Q 2653 3566 2395 3850 
Q 2138 4134 1775 4134 
Q 1400 4134 1122 3828 
Q 844 3522 844 3034 
Q 844 2597 1108 2323 
Q 1372 2050 1759 2050 
Q 2150 2050 2401 2323 
Q 2653 2597 2653 3081 
z
" transform="scale(0.015625)"/>
       </defs>
       <use xlink:href="#ArialMT-14" transform="translate(0 0.3875)"/>
       <use xlink:href="#ArialMT-13" transform="translate(55.615234 0.3875)"/>
       <use xlink:href="#ArialMT-ed" transform="translate(112.1875 41.6875) scale(0.7)"/>
       <use xlink:href="#ArialMT-14" transform="translate(153.066406 41.6875) scale(0.7)"/>
       <use xlink:href="#ArialMT-1c" transform="translate(191.99707 41.6875) scale(0.7)"/>
      </g>
     </g>
    </g>
    <g id="ytick_3">
     <g id="line2d_28">
      <g>
       <use xlink:href="#m62672bfc9a" x="60.598945" y="219.891745" style="stroke: #000000; stroke-width: 1.5"/>
      </g>
     </g>
     <g id="text_11">
      <!-- $\mathdefault{10^{-18}}$ -->
      <g transform="translate(24.338945 226.331745) scale(0.14 -0.14)">
       <use xlink:href="#ArialMT-14" transform="translate(0 0.3875)"/>
       <use xlink:href="#ArialMT-13" transform="translate(55.615234 0.3875)"/>
       <use xlink:href="#ArialMT-ed" transform="translate(112.1875 41.6875) scale(0.7)"/>
       <use xlink:href="#ArialMT-14" transform="translate(153.066406 41.6875) scale(0.7)"/>
       <use xlink:href="#ArialMT-1b" transform="translate(191.99707 41.6875) scale(0.7)"/>
      </g>
     </g>
    </g>
    <g id="ytick_4">
     <g id="line2d_29">
      <g>
       <use xlink:href="#m62672bfc9a" x="60.598945" y="186.576804" style="stroke: #000000; stroke-width: 1.5"/>
      </g>
     </g>
     <g id="text_12">
      <!-- $\mathdefault{10^{-17}}$ -->
      <g transform="translate(24.338945 193.016804) scale(0.14 -0.14)">
       <defs>
        <path id="ArialMT-1a" d="M 303 3981 
L 303 4522 
L 3269 4522 
L 3269 4084 
Q 2831 3619 2401 2847 
Q 1972 2075 1738 1259 
Q 1569 684 1522 0 
L 944 0 
Q 953 541 1156 1306 
Q 1359 2072 1739 2783 
Q 2119 3494 2547 3981 
L 303 3981 
z
" transform="scale(0.015625)"/>
       </defs>
       <use xlink:href="#ArialMT-14" transform="translate(0 0.3875)"/>
       <use xlink:href="#ArialMT-13" transform="translate(55.615234 0.3875)"/>
       <use xlink:href="#ArialMT-ed" transform="translate(112.1875 41.6875) scale(0.7)"/>
       <use xlink:href="#ArialMT-14" transform="translate(153.066406 41.6875) scale(0.7)"/>
       <use xlink:href="#ArialMT-1a" transform="translate(191.99707 41.6875) scale(0.7)"/>
      </g>
     </g>
    </g>
    <g id="ytick_5">
     <g id="line2d_30">
      <g>
       <use xlink:href="#m62672bfc9a" x="60.598945" y="153.261863" style="stroke: #000000; stroke-width: 1.5"/>
      </g>
     </g>
     <g id="text_13">
      <!-- $\mathdefault{10^{-16}}$ -->
      <g transform="translate(24.338945 159.701863) scale(0.14 -0.14)">
       <use xlink:href="#ArialMT-14" transform="translate(0 0.3875)"/>
       <use xlink:href="#ArialMT-13" transform="translate(55.615234 0.3875)"/>
       <use xlink:href="#ArialMT-ed" transform="translate(112.1875 41.6875) scale(0.7)"/>
       <use xlink:href="#ArialMT-14" transform="translate(153.066406 41.6875) scale(0.7)"/>
       <use xlink:href="#ArialMT-19" transform="translate(191.99707 41.6875) scale(0.7)"/>
      </g>
     </g>
    </g>
    <g id="ytick_6">
     <g id="line2d_31">
      <g>
       <use xlink:href="#m62672bfc9a" x="60.598945" y="119.946922" style="stroke: #000000; stroke-width: 1.5"/>
      </g>
     </g>
     <g id="text_14">
      <!-- $\mathdefault{10^{-15}}$ -->
      <g transform="translate(24.338945 126.386922) scale(0.14 -0.14)">
       <defs>
        <path id="ArialMT-18" d="M 266 1200 
L 856 1250 
Q 922 819 1161 601 
Q 1400 384 1738 384 
Q 2144 384 2425 690 
Q 2706 997 2706 1503 
Q 2706 1984 2436 2262 
Q 2166 2541 1728 2541 
Q 1456 2541 1237 2417 
Q 1019 2294 894 2097 
L 366 2166 
L 809 4519 
L 3088 4519 
L 3088 3981 
L 1259 3981 
L 1013 2750 
Q 1425 3038 1878 3038 
Q 2478 3038 2890 2622 
Q 3303 2206 3303 1553 
Q 3303 931 2941 478 
Q 2500 -78 1738 -78 
Q 1113 -78 717 272 
Q 322 622 266 1200 
z
" transform="scale(0.015625)"/>
       </defs>
       <use xlink:href="#ArialMT-14" transform="translate(0 0.3875)"/>
       <use xlink:href="#ArialMT-13" transform="translate(55.615234 0.3875)"/>
       <use xlink:href="#ArialMT-ed" transform="translate(112.1875 41.6875) scale(0.7)"/>
       <use xlink:href="#ArialMT-14" transform="translate(153.066406 41.6875) scale(0.7)"/>
       <use xlink:href="#ArialMT-18" transform="translate(191.99707 41.6875) scale(0.7)"/>
      </g>
     </g>
    </g>
    <g id="ytick_7">
     <g id="line2d_32">
      <g>
       <use xlink:href="#m62672bfc9a" x="60.598945" y="86.631981" style="stroke: #000000; stroke-width: 1.5"/>
      </g>
     </g>
     <g id="text_15">
      <!-- $\mathdefault{10^{-14}}$ -->
      <g transform="translate(24.338945 93.071981) scale(0.14 -0.14)">
       <use xlink:href="#ArialMT-14" transform="translate(0 0.3875)"/>
       <use xlink:href="#ArialMT-13" transform="translate(55.615234 0.3875)"/>
       <use xlink:href="#ArialMT-ed" transform="translate(112.1875 41.6875) scale(0.7)"/>
       <use xlink:href="#ArialMT-14" transform="translate(153.066406 41.6875) scale(0.7)"/>
       <use xlink:href="#ArialMT-17" transform="translate(191.99707 41.6875) scale(0.7)"/>
      </g>
     </g>
    </g>
    <g id="ytick_8">
     <g id="line2d_33">
      <g>
       <use xlink:href="#m62672bfc9a" x="60.598945" y="53.31704" style="stroke: #000000; stroke-width: 1.5"/>
      </g>
     </g>
     <g id="text_16">
      <!-- $\mathdefault{10^{-13}}$ -->
      <g transform="translate(24.338945 59.75704) scale(0.14 -0.14)">
       <defs>
        <path id="ArialMT-16" d="M 269 1209 
L 831 1284 
Q 928 806 1161 595 
Q 1394 384 1728 384 
Q 2125 384 2398 659 
Q 2672 934 2672 1341 
Q 2672 1728 2419 1979 
Q 2166 2231 1775 2231 
Q 1616 2231 1378 2169 
L 1441 2663 
Q 1497 2656 1531 2656 
Q 1891 2656 2178 2843 
Q 2466 3031 2466 3422 
Q 2466 3731 2256 3934 
Q 2047 4138 1716 4138 
Q 1388 4138 1169 3931 
Q 950 3725 888 3313 
L 325 3413 
Q 428 3978 793 4289 
Q 1159 4600 1703 4600 
Q 2078 4600 2393 4439 
Q 2709 4278 2876 4000 
Q 3044 3722 3044 3409 
Q 3044 3113 2884 2869 
Q 2725 2625 2413 2481 
Q 2819 2388 3044 2092 
Q 3269 1797 3269 1353 
Q 3269 753 2831 336 
Q 2394 -81 1725 -81 
Q 1122 -81 723 278 
Q 325 638 269 1209 
z
" transform="scale(0.015625)"/>
       </defs>
       <use xlink:href="#ArialMT-14" transform="translate(0 0.3875)"/>
       <use xlink:href="#ArialMT-13" transform="translate(55.615234 0.3875)"/>
       <use xlink:href="#ArialMT-ed" transform="translate(112.1875 41.6875) scale(0.7)"/>
       <use xlink:href="#ArialMT-14" transform="translate(153.066406 41.6875) scale(0.7)"/>
       <use xlink:href="#ArialMT-16" transform="translate(191.99707 41.6875) scale(0.7)"/>
      </g>
     </g>
    </g>
    <g id="ytick_9">
     <g id="line2d_34">
      <g>
       <use xlink:href="#m62672bfc9a" x="60.598945" y="20.002099" style="stroke: #000000; stroke-width: 1.5"/>
      </g>
     </g>
     <g id="text_17">
      <!-- $\mathdefault{10^{-12}}$ -->
      <g transform="translate(24.338945 26.442099) scale(0.14 -0.14)">
       <use xlink:href="#ArialMT-14" transform="translate(0 0.3875)"/>
       <use xlink:href="#ArialMT-13" transform="translate(55.615234 0.3875)"/>
       <use xlink:href="#ArialMT-ed" transform="translate(112.1875 41.6875) scale(0.7)"/>
       <use xlink:href="#ArialMT-14" transform="translate(153.066406 41.6875) scale(0.7)"/>
       <use xlink:href="#ArialMT-15" transform="translate(191.99707 41.6875) scale(0.7)"/>
      </g>
     </g>
    </g>
    <g id="ytick_10">
     <g id="line2d_35">
      <defs>
       <path id="m889fd9da40" d="M 0 0 
L 3 0 
" style="stroke: #000000"/>
      </defs>
      <g>
       <use xlink:href="#m889fd9da40" x="60.598945" y="299.778974" style="stroke: #000000"/>
      </g>
     </g>
    </g>
    <g id="ytick_11">
     <g id="line2d_36">
      <g>
       <use xlink:href="#m889fd9da40" x="60.598945" y="296.550423" style="stroke: #000000"/>
      </g>
     </g>
    </g>
    <g id="ytick_12">
     <g id="line2d_37">
      <g>
       <use xlink:href="#m889fd9da40" x="60.598945" y="293.912504" style="stroke: #000000"/>
      </g>
     </g>
    </g>
    <g id="ytick_13">
     <g id="line2d_38">
      <g>
       <use xlink:href="#m889fd9da40" x="60.598945" y="291.682176" style="stroke: #000000"/>
      </g>
     </g>
    </g>
    <g id="ytick_14">
     <g id="line2d_39">
      <g>
       <use xlink:href="#m889fd9da40" x="60.598945" y="289.750178" style="stroke: #000000"/>
      </g>
     </g>
    </g>
    <g id="ytick_15">
     <g id="line2d_40">
      <g>
       <use xlink:href="#m889fd9da40" x="60.598945" y="288.046035" style="stroke: #000000"/>
      </g>
     </g>
    </g>
    <g id="ytick_16">
     <g id="line2d_41">
      <g>
       <use xlink:href="#m889fd9da40" x="60.598945" y="276.49283" style="stroke: #000000"/>
      </g>
     </g>
    </g>
    <g id="ytick_17">
     <g id="line2d_42">
      <g>
       <use xlink:href="#m889fd9da40" x="60.598945" y="270.62636" style="stroke: #000000"/>
      </g>
     </g>
    </g>
    <g id="ytick_18">
     <g id="line2d_43">
      <g>
       <use xlink:href="#m889fd9da40" x="60.598945" y="266.464033" style="stroke: #000000"/>
      </g>
     </g>
    </g>
    <g id="ytick_19">
     <g id="line2d_44">
      <g>
       <use xlink:href="#m889fd9da40" x="60.598945" y="263.235482" style="stroke: #000000"/>
      </g>
     </g>
    </g>
    <g id="ytick_20">
     <g id="line2d_45">
      <g>
       <use xlink:href="#m889fd9da40" x="60.598945" y="260.597564" style="stroke: #000000"/>
      </g>
     </g>
    </g>
    <g id="ytick_21">
     <g id="line2d_46">
      <g>
       <use xlink:href="#m889fd9da40" x="60.598945" y="258.367235" style="stroke: #000000"/>
      </g>
     </g>
    </g>
    <g id="ytick_22">
     <g id="line2d_47">
      <g>
       <use xlink:href="#m889fd9da40" x="60.598945" y="256.435237" style="stroke: #000000"/>
      </g>
     </g>
    </g>
    <g id="ytick_23">
     <g id="line2d_48">
      <g>
       <use xlink:href="#m889fd9da40" x="60.598945" y="254.731094" style="stroke: #000000"/>
      </g>
     </g>
    </g>
    <g id="ytick_24">
     <g id="line2d_49">
      <g>
       <use xlink:href="#m889fd9da40" x="60.598945" y="243.177889" style="stroke: #000000"/>
      </g>
     </g>
    </g>
    <g id="ytick_25">
     <g id="line2d_50">
      <g>
       <use xlink:href="#m889fd9da40" x="60.598945" y="237.311419" style="stroke: #000000"/>
      </g>
     </g>
    </g>
    <g id="ytick_26">
     <g id="line2d_51">
      <g>
       <use xlink:href="#m889fd9da40" x="60.598945" y="233.149093" style="stroke: #000000"/>
      </g>
     </g>
    </g>
    <g id="ytick_27">
     <g id="line2d_52">
      <g>
       <use xlink:href="#m889fd9da40" x="60.598945" y="229.920541" style="stroke: #000000"/>
      </g>
     </g>
    </g>
    <g id="ytick_28">
     <g id="line2d_53">
      <g>
       <use xlink:href="#m889fd9da40" x="60.598945" y="227.282623" style="stroke: #000000"/>
      </g>
     </g>
    </g>
    <g id="ytick_29">
     <g id="line2d_54">
      <g>
       <use xlink:href="#m889fd9da40" x="60.598945" y="225.052294" style="stroke: #000000"/>
      </g>
     </g>
    </g>
    <g id="ytick_30">
     <g id="line2d_55">
      <g>
       <use xlink:href="#m889fd9da40" x="60.598945" y="223.120296" style="stroke: #000000"/>
      </g>
     </g>
    </g>
    <g id="ytick_31">
     <g id="line2d_56">
      <g>
       <use xlink:href="#m889fd9da40" x="60.598945" y="221.416153" style="stroke: #000000"/>
      </g>
     </g>
    </g>
    <g id="ytick_32">
     <g id="line2d_57">
      <g>
       <use xlink:href="#m889fd9da40" x="60.598945" y="209.862948" style="stroke: #000000"/>
      </g>
     </g>
    </g>
    <g id="ytick_33">
     <g id="line2d_58">
      <g>
       <use xlink:href="#m889fd9da40" x="60.598945" y="203.996478" style="stroke: #000000"/>
      </g>
     </g>
    </g>
    <g id="ytick_34">
     <g id="line2d_59">
      <g>
       <use xlink:href="#m889fd9da40" x="60.598945" y="199.834152" style="stroke: #000000"/>
      </g>
     </g>
    </g>
    <g id="ytick_35">
     <g id="line2d_60">
      <g>
       <use xlink:href="#m889fd9da40" x="60.598945" y="196.6056" style="stroke: #000000"/>
      </g>
     </g>
    </g>
    <g id="ytick_36">
     <g id="line2d_61">
      <g>
       <use xlink:href="#m889fd9da40" x="60.598945" y="193.967682" style="stroke: #000000"/>
      </g>
     </g>
    </g>
    <g id="ytick_37">
     <g id="line2d_62">
      <g>
       <use xlink:href="#m889fd9da40" x="60.598945" y="191.737353" style="stroke: #000000"/>
      </g>
     </g>
    </g>
    <g id="ytick_38">
     <g id="line2d_63">
      <g>
       <use xlink:href="#m889fd9da40" x="60.598945" y="189.805355" style="stroke: #000000"/>
      </g>
     </g>
    </g>
    <g id="ytick_39">
     <g id="line2d_64">
      <g>
       <use xlink:href="#m889fd9da40" x="60.598945" y="188.101212" style="stroke: #000000"/>
      </g>
     </g>
    </g>
    <g id="ytick_40">
     <g id="line2d_65">
      <g>
       <use xlink:href="#m889fd9da40" x="60.598945" y="176.548007" style="stroke: #000000"/>
      </g>
     </g>
    </g>
    <g id="ytick_41">
     <g id="line2d_66">
      <g>
       <use xlink:href="#m889fd9da40" x="60.598945" y="170.681537" style="stroke: #000000"/>
      </g>
     </g>
    </g>
    <g id="ytick_42">
     <g id="line2d_67">
      <g>
       <use xlink:href="#m889fd9da40" x="60.598945" y="166.519211" style="stroke: #000000"/>
      </g>
     </g>
    </g>
    <g id="ytick_43">
     <g id="line2d_68">
      <g>
       <use xlink:href="#m889fd9da40" x="60.598945" y="163.290659" style="stroke: #000000"/>
      </g>
     </g>
    </g>
    <g id="ytick_44">
     <g id="line2d_69">
      <g>
       <use xlink:href="#m889fd9da40" x="60.598945" y="160.652741" style="stroke: #000000"/>
      </g>
     </g>
    </g>
    <g id="ytick_45">
     <g id="line2d_70">
      <g>
       <use xlink:href="#m889fd9da40" x="60.598945" y="158.422413" style="stroke: #000000"/>
      </g>
     </g>
    </g>
    <g id="ytick_46">
     <g id="line2d_71">
      <g>
       <use xlink:href="#m889fd9da40" x="60.598945" y="156.490414" style="stroke: #000000"/>
      </g>
     </g>
    </g>
    <g id="ytick_47">
     <g id="line2d_72">
      <g>
       <use xlink:href="#m889fd9da40" x="60.598945" y="154.786271" style="stroke: #000000"/>
      </g>
     </g>
    </g>
    <g id="ytick_48">
     <g id="line2d_73">
      <g>
       <use xlink:href="#m889fd9da40" x="60.598945" y="143.233066" style="stroke: #000000"/>
      </g>
     </g>
    </g>
    <g id="ytick_49">
     <g id="line2d_74">
      <g>
       <use xlink:href="#m889fd9da40" x="60.598945" y="137.366596" style="stroke: #000000"/>
      </g>
     </g>
    </g>
    <g id="ytick_50">
     <g id="line2d_75">
      <g>
       <use xlink:href="#m889fd9da40" x="60.598945" y="133.20427" style="stroke: #000000"/>
      </g>
     </g>
    </g>
    <g id="ytick_51">
     <g id="line2d_76">
      <g>
       <use xlink:href="#m889fd9da40" x="60.598945" y="129.975718" style="stroke: #000000"/>
      </g>
     </g>
    </g>
    <g id="ytick_52">
     <g id="line2d_77">
      <g>
       <use xlink:href="#m889fd9da40" x="60.598945" y="127.3378" style="stroke: #000000"/>
      </g>
     </g>
    </g>
    <g id="ytick_53">
     <g id="line2d_78">
      <g>
       <use xlink:href="#m889fd9da40" x="60.598945" y="125.107472" style="stroke: #000000"/>
      </g>
     </g>
    </g>
    <g id="ytick_54">
     <g id="line2d_79">
      <g>
       <use xlink:href="#m889fd9da40" x="60.598945" y="123.175473" style="stroke: #000000"/>
      </g>
     </g>
    </g>
    <g id="ytick_55">
     <g id="line2d_80">
      <g>
       <use xlink:href="#m889fd9da40" x="60.598945" y="121.47133" style="stroke: #000000"/>
      </g>
     </g>
    </g>
    <g id="ytick_56">
     <g id="line2d_81">
      <g>
       <use xlink:href="#m889fd9da40" x="60.598945" y="109.918125" style="stroke: #000000"/>
      </g>
     </g>
    </g>
    <g id="ytick_57">
     <g id="line2d_82">
      <g>
       <use xlink:href="#m889fd9da40" x="60.598945" y="104.051656" style="stroke: #000000"/>
      </g>
     </g>
    </g>
    <g id="ytick_58">
     <g id="line2d_83">
      <g>
       <use xlink:href="#m889fd9da40" x="60.598945" y="99.889329" style="stroke: #000000"/>
      </g>
     </g>
    </g>
    <g id="ytick_59">
     <g id="line2d_84">
      <g>
       <use xlink:href="#m889fd9da40" x="60.598945" y="96.660778" style="stroke: #000000"/>
      </g>
     </g>
    </g>
    <g id="ytick_60">
     <g id="line2d_85">
      <g>
       <use xlink:href="#m889fd9da40" x="60.598945" y="94.022859" style="stroke: #000000"/>
      </g>
     </g>
    </g>
    <g id="ytick_61">
     <g id="line2d_86">
      <g>
       <use xlink:href="#m889fd9da40" x="60.598945" y="91.792531" style="stroke: #000000"/>
      </g>
     </g>
    </g>
    <g id="ytick_62">
     <g id="line2d_87">
      <g>
       <use xlink:href="#m889fd9da40" x="60.598945" y="89.860532" style="stroke: #000000"/>
      </g>
     </g>
    </g>
    <g id="ytick_63">
     <g id="line2d_88">
      <g>
       <use xlink:href="#m889fd9da40" x="60.598945" y="88.156389" style="stroke: #000000"/>
      </g>
     </g>
    </g>
    <g id="ytick_64">
     <g id="line2d_89">
      <g>
       <use xlink:href="#m889fd9da40" x="60.598945" y="76.603185" style="stroke: #000000"/>
      </g>
     </g>
    </g>
    <g id="ytick_65">
     <g id="line2d_90">
      <g>
       <use xlink:href="#m889fd9da40" x="60.598945" y="70.736715" style="stroke: #000000"/>
      </g>
     </g>
    </g>
    <g id="ytick_66">
     <g id="line2d_91">
      <g>
       <use xlink:href="#m889fd9da40" x="60.598945" y="66.574388" style="stroke: #000000"/>
      </g>
     </g>
    </g>
    <g id="ytick_67">
     <g id="line2d_92">
      <g>
       <use xlink:href="#m889fd9da40" x="60.598945" y="63.345837" style="stroke: #000000"/>
      </g>
     </g>
    </g>
    <g id="ytick_68">
     <g id="line2d_93">
      <g>
       <use xlink:href="#m889fd9da40" x="60.598945" y="60.707918" style="stroke: #000000"/>
      </g>
     </g>
    </g>
    <g id="ytick_69">
     <g id="line2d_94">
      <g>
       <use xlink:href="#m889fd9da40" x="60.598945" y="58.47759" style="stroke: #000000"/>
      </g>
     </g>
    </g>
    <g id="ytick_70">
     <g id="line2d_95">
      <g>
       <use xlink:href="#m889fd9da40" x="60.598945" y="56.545592" style="stroke: #000000"/>
      </g>
     </g>
    </g>
    <g id="ytick_71">
     <g id="line2d_96">
      <g>
       <use xlink:href="#m889fd9da40" x="60.598945" y="54.841448" style="stroke: #000000"/>
      </g>
     </g>
    </g>
    <g id="ytick_72">
     <g id="line2d_97">
      <g>
       <use xlink:href="#m889fd9da40" x="60.598945" y="43.288244" style="stroke: #000000"/>
      </g>
     </g>
    </g>
    <g id="ytick_73">
     <g id="line2d_98">
      <g>
       <use xlink:href="#m889fd9da40" x="60.598945" y="37.421774" style="stroke: #000000"/>
      </g>
     </g>
    </g>
    <g id="ytick_74">
     <g id="line2d_99">
      <g>
       <use xlink:href="#m889fd9da40" x="60.598945" y="33.259447" style="stroke: #000000"/>
      </g>
     </g>
    </g>
    <g id="ytick_75">
     <g id="line2d_100">
      <g>
       <use xlink:href="#m889fd9da40" x="60.598945" y="30.030896" style="stroke: #000000"/>
      </g>
     </g>
    </g>
    <g id="ytick_76">
     <g id="line2d_101">
      <g>
       <use xlink:href="#m889fd9da40" x="60.598945" y="27.392977" style="stroke: #000000"/>
      </g>
     </g>
    </g>
    <g id="ytick_77">
     <g id="line2d_102">
      <g>
       <use xlink:href="#m889fd9da40" x="60.598945" y="25.162649" style="stroke: #000000"/>
      </g>
     </g>
    </g>
    <g id="ytick_78">
     <g id="line2d_103">
      <g>
       <use xlink:href="#m889fd9da40" x="60.598945" y="23.230651" style="stroke: #000000"/>
      </g>
     </g>
    </g>
    <g id="ytick_79">
     <g id="line2d_104">
      <g>
       <use xlink:href="#m889fd9da40" x="60.598945" y="21.526507" style="stroke: #000000"/>
      </g>
     </g>
    </g>
    <g id="ytick_80">
     <g id="line2d_105">
      <g>
       <use xlink:href="#m889fd9da40" x="60.598945" y="9.973303" style="stroke: #000000"/>
      </g>
     </g>
    </g>
    <g id="text_18">
     <!-- Ion Current (m/z 38) -->
     <g transform="translate(17.392383 216.137266) rotate(-90) scale(0.14 -0.14)">
      <defs>
       <path id="ArialMT-2c" d="M 597 0 
L 597 4581 
L 1203 4581 
L 1203 0 
L 597 0 
z
" transform="scale(0.015625)"/>
       <path id="ArialMT-52" d="M 213 1659 
Q 213 2581 725 3025 
Q 1153 3394 1769 3394 
Q 2453 3394 2887 2945 
Q 3322 2497 3322 1706 
Q 3322 1066 3130 698 
Q 2938 331 2570 128 
Q 2203 -75 1769 -75 
Q 1072 -75 642 372 
Q 213 819 213 1659 
z
M 791 1659 
Q 791 1022 1069 705 
Q 1347 388 1769 388 
Q 2188 388 2466 706 
Q 2744 1025 2744 1678 
Q 2744 2294 2464 2611 
Q 2184 2928 1769 2928 
Q 1347 2928 1069 2612 
Q 791 2297 791 1659 
z
" transform="scale(0.015625)"/>
       <path id="ArialMT-51" d="M 422 0 
L 422 3319 
L 928 3319 
L 928 2847 
Q 1294 3394 1984 3394 
Q 2284 3394 2536 3286 
Q 2788 3178 2913 3003 
Q 3038 2828 3088 2588 
Q 3119 2431 3119 2041 
L 3119 0 
L 2556 0 
L 2556 2019 
Q 2556 2363 2490 2533 
Q 2425 2703 2258 2804 
Q 2091 2906 1866 2906 
Q 1506 2906 1245 2678 
Q 984 2450 984 1813 
L 984 0 
L 422 0 
z
" transform="scale(0.015625)"/>
       <path id="ArialMT-12" d="M 0 -78 
L 1328 4659 
L 1778 4659 
L 453 -78 
L 0 -78 
z
" transform="scale(0.015625)"/>
       <path id="ArialMT-5d" d="M 125 0 
L 125 456 
L 2238 2881 
Q 1878 2863 1603 2863 
L 250 2863 
L 250 3319 
L 2963 3319 
L 2963 2947 
L 1166 841 
L 819 456 
Q 1197 484 1528 484 
L 3063 484 
L 3063 0 
L 125 0 
z
" transform="scale(0.015625)"/>
      </defs>
      <use xlink:href="#ArialMT-2c"/>
      <use xlink:href="#ArialMT-52" transform="translate(27.78125 0)"/>
      <use xlink:href="#ArialMT-51" transform="translate(83.390625 0)"/>
      <use xlink:href="#ArialMT-3" transform="translate(139 0)"/>
      <use xlink:href="#ArialMT-26" transform="translate(166.78125 0)"/>
      <use xlink:href="#ArialMT-58" transform="translate(239 0)"/>
      <use xlink:href="#ArialMT-55" transform="translate(294.609375 0)"/>
      <use xlink:href="#ArialMT-55" transform="translate(327.90625 0)"/>
      <use xlink:href="#ArialMT-48" transform="translate(361.203125 0)"/>
      <use xlink:href="#ArialMT-51" transform="translate(416.8125 0)"/>
      <use xlink:href="#ArialMT-57" transform="translate(472.421875 0)"/>
      <use xlink:href="#ArialMT-3" transform="translate(500.203125 0)"/>
      <use xlink:href="#ArialMT-b" transform="translate(527.984375 0)"/>
      <use xlink:href="#ArialMT-50" transform="translate(561.28125 0)"/>
      <use xlink:href="#ArialMT-12" transform="translate(644.578125 0)"/>
      <use xlink:href="#ArialMT-5d" transform="translate(672.359375 0)"/>
      <use xlink:href="#ArialMT-3" transform="translate(722.359375 0)"/>
      <use xlink:href="#ArialMT-16" transform="translate(750.140625 0)"/>
      <use xlink:href="#ArialMT-1b" transform="translate(805.75 0)"/>
      <use xlink:href="#ArialMT-c" transform="translate(861.359375 0)"/>
     </g>
    </g>
   </g>
   <g id="line2d_106">
    <path d="M 78.802131 286.521626 
L 78.741251 286.521626 
L 78.741251 286.521626 
L 78.680371 75.748673 
L 78.832572 70.653856 
L 79.502254 73.940066 
L 81.08514 72.371299 
L 83.276828 79.365177 
L 85.407636 82.728173 
L 87.203602 87.826345 
L 88.634287 111.261784 
L 89.821452 286.521626 
L 98.131602 286.521626 
L 99.440527 98.101056 
L 100.688571 89.250088 
L 101.936616 84.983766 
L 103.15422 77.349757 
L 104.280504 77.529046 
L 105.467668 87.179713 
L 106.654833 87.054308 
L 107.872437 84.809409 
L 108.998721 77.370188 
L 110.185886 72.676631 
L 111.37305 79.149531 
L 112.560214 78.223432 
L 113.747379 84.742184 
L 114.964983 286.521626 
L 120.931245 286.521626 
L 122.118409 106.065358 
L 123.305573 286.521626 
L 124.492738 286.521626 
L 125.679902 100.579224 
L 126.867066 100.630319 
L 128.084671 82.302269 
L 129.241395 77.454827 
L 130.458999 76.662249 
L 131.646164 78.385263 
L 132.833328 75.669723 
L 134.020492 85.160867 
L 135.207657 286.521626 
L 136.425261 105.239211 
L 137.642865 88.162393 
L 138.86047 87.070366 
L 140.078074 91.863448 
L 141.234798 89.937943 
L 142.421963 90.058356 
L 143.639567 128.412053 
L 144.765851 91.809139 
L 145.953016 286.521626 
L 162.573316 286.521626 
L 163.790921 95.071365 
L 164.947645 77.604294 
L 166.165249 92.881247 
L 167.352413 132.612354 
L 168.570018 94.677716 
L 169.787622 103.808057 
L 170.944347 108.99076 
L 172.161951 89.7818 
L 175.662564 75.877782 
L 176.880168 76.366699 
L 178.036892 94.328763 
L 179.193617 99.011866 
L 180.380781 286.521626 
L 182.84643 286.521626 
L 184.033594 86.519356 
L 185.251199 286.521626 
L 186.468803 286.521626 
L 187.686407 100.730652 
L 188.843132 286.521626 
L 192.435065 286.521626 
L 193.561349 128.835397 
L 194.687633 87.121982 
L 195.905237 75.305918 
L 197.092402 79.935589 
L 198.279566 87.271344 
L 199.46673 80.646136 
L 200.653895 90.519588 
L 201.780179 286.521626 
L 202.967343 143.823769 
L 204.184947 286.521626 
L 205.372112 102.809351 
L 206.528836 88.413356 
L 207.716 87.841019 
L 208.903165 103.865556 
L 210.120769 148.040342 
L 211.277493 85.717734 
L 212.464657 99.455878 
L 213.682262 286.521626 
L 216.056591 286.521626 
L 217.213315 93.997252 
L 219.618083 101.704667 
L 220.774808 95.441766 
L 221.961972 91.273725 
L 223.149136 101.011174 
L 224.336301 123.762689 
L 225.462585 133.943159 
L 226.680189 159.335985 
L 227.836913 107.854856 
L 229.024078 106.846906 
L 230.272122 286.521626 
L 231.428846 90.626389 
L 232.616011 87.133984 
L 233.711855 89.583403 
L 234.838139 88.338198 
L 236.025303 77.157455 
L 237.242908 75.887055 
L 238.460512 73.678909 
L 239.647676 72.644011 
L 240.865281 73.55139 
L 242.052445 73.327459 
L 243.178729 76.468144 
L 244.396334 81.135179 
L 245.583498 98.535282 
L 246.801102 110.678978 
L 247.957827 286.521626 
L 249.144991 115.501769 
L 250.362595 109.803397 
L 251.54976 286.521626 
L 252.706484 286.521626 
L 253.893648 97.151987 
L 255.080812 115.646186 
L 256.267977 104.138488 
L 257.485581 286.521626 
L 258.672745 91.65164 
L 259.82947 79.957916 
L 261.077514 73.619351 
L 262.234238 75.785389 
L 263.421403 79.893797 
L 264.578127 93.76586 
L 265.765291 100.797747 
L 267.013336 286.521626 
L 272.888277 286.521626 
L 274.136322 119.525099 
L 275.353926 109.321308 
L 276.54109 286.521626 
L 288.443174 286.521626 
L 289.599898 119.169763 
L 290.756622 80.267526 
L 291.943786 76.451071 
L 293.130951 80.426441 
L 294.287675 79.304444 
L 295.505279 85.371893 
L 296.722884 286.521626 
L 297.849168 286.521626 
L 299.066772 123.523456 
L 300.284377 78.564673 
L 301.410661 79.492563 
L 302.597825 73.212474 
L 303.78499 69.630264 
L 304.972154 69.659477 
L 306.159318 69.118831 
L 307.285602 69.258663 
L 308.503207 76.211581 
L 309.690371 78.548191 
L 310.847095 88.425141 
L 312.03426 99.680471 
L 313.221424 286.521626 
L 314.408588 77.42832 
L 315.595752 71.224765 
L 316.752477 72.792018 
L 317.909201 71.204769 
L 319.157245 71.928892 
L 320.34441 84.132139 
L 321.501134 115.009396 
L 322.627418 286.521626 
L 328.56324 286.521626 
L 329.750404 98.250297 
L 330.968008 96.165121 
L 332.094292 92.383587 
L 333.342337 78.101289 
L 334.833902 73.069589 
L 336.112387 71.67059 
L 337.299551 75.506505 
L 338.517156 83.997073 
L 339.64344 81.049083 
L 340.800164 83.766118 
L 343.235373 71.512318 
L 344.452977 73.186971 
L 345.548821 79.159597 
L 346.796866 121.981794 
L 347.92315 286.521626 
L 358.607629 286.521626 
L 359.825233 87.819331 
L 361.042838 76.982707 
L 362.260442 76.892656 
L 364.51301 72.758148 
L 365.791495 75.191623 
L 366.856899 80.711853 
L 368.074503 80.54605 
L 369.444308 80.892907 
L 370.631473 83.428572 
L 371.757757 95.871994 
L 372.853601 83.180389 
L 374.040765 78.453003 
L 375.197489 74.970983 
L 376.415094 76.021464 
L 377.480497 100.500112 
L 378.667662 83.244812 
L 379.854826 79.423027 
L 381.04199 74.153557 
L 382.198715 72.454682 
L 383.446759 72.094378 
L 384.542603 71.426983 
L 385.760208 84.251993 
L 386.856052 94.04308 
L 388.225857 286.521626 
L 391.726469 286.521626 
L 392.974514 95.675117 
L 393.979037 90.723832 
L 395.622803 81.604523 
L 396.870848 85.975619 
L 398.149333 100.553811 
L 399.275617 88.091047 
L 400.462781 110.141792 
L 401.710826 77.898818 
L 402.776229 73.71303 
L 403.963394 73.440113 
L 405.059238 75.238965 
L 406.368162 75.896327 
L 407.494447 72.150015 
L 410.020976 79.57325 
L 411.14726 84.787897 
L 412.243104 86.89261 
L 413.369388 71.399058 
L 414.647873 71.627874 
L 415.743717 69.705047 
L 417.083081 70.949383 
L 418.331126 64.291475 
L 419.30521 61.697237 
L 420.644574 60.352371 
L 422.927583 56.814195 
L 424.145187 54.340889 
L 425.119271 51.430101 
L 425.119271 51.430101 
" clip-path="url(#p3fea3496d6)" style="fill: none; stroke: #000000; stroke-width: 2.5; stroke-linecap: square"/>
   </g>
   <g id="line2d_107">
    <path d="M 71.100783 286.521626 
L 71.100783 79.485237 
L 71.100783 286.521626 
L 71.252984 286.521626 
L 71.892226 95.569944 
L 73.566432 86.271762 
L 75.72768 127.631027 
L 77.828048 286.521626 
L 79.593574 286.521626 
L 81.0547 93.125335 
L 82.272304 110.372437 
L 83.368148 104.122476 
L 84.372672 286.521626 
L 85.559836 82.833358 
L 86.77744 74.709788 
L 87.873284 75.3595 
L 89.151769 75.702325 
L 90.369374 73.593865 
L 91.465218 70.755273 
L 92.774142 70.880106 
L 93.900426 75.874765 
L 95.148471 82.420699 
L 96.396515 104.319394 
L 97.64456 84.225966 
L 98.862164 86.052449 
L 100.140649 86.306328 
L 101.449574 82.479279 
L 102.575858 98.644921 
L 103.823902 99.981645 
L 106.167791 89.721895 
L 107.294075 132.772719 
L 108.57256 286.521626 
L 119.226598 286.521626 
L 120.413763 106.811024 
L 121.631367 98.848749 
L 122.879412 286.521626 
L 126.380024 286.521626 
L 127.628069 98.828284 
L 128.754353 97.26857 
L 129.971958 286.521626 
L 134.751055 286.521626 
L 135.846899 82.521893 
L 137.094943 85.23976 
L 138.342988 76.858761 
L 139.499712 75.665739 
L 140.747757 83.916536 
L 141.965361 89.62851 
L 143.122085 286.521626 
L 146.622698 286.521626 
L 147.809862 157.926622 
L 148.997027 126.53891 
L 150.153751 87.399582 
L 151.401795 96.929638 
L 152.6194 84.812897 
L 153.806564 71.548318 
L 154.932848 74.817012 
L 156.211333 79.861373 
L 157.337617 107.154986 
L 158.463901 115.440319 
L 159.742386 102.773649 
L 160.89911 152.076743 
L 162.177595 286.521626 
L 163.303879 286.521626 
L 164.491043 113.95322 
L 165.678207 85.804131 
L 166.834932 90.757054 
L 168.052536 91.25777 
L 169.27014 86.444878 
L 170.487745 81.056376 
L 171.644469 85.688771 
L 172.862073 82.739105 
L 173.988358 88.166285 
L 175.114642 78.09721 
L 176.362686 73.34676 
L 177.549851 72.710912 
L 178.706575 77.300243 
L 179.893739 76.206152 
L 181.080903 74.271024 
L 182.298508 77.075074 
L 183.546552 89.517574 
L 184.703277 92.99669 
L 185.860001 102.24858 
L 187.077605 77.518656 
L 188.203889 74.644565 
L 189.512814 70.582408 
L 190.639098 68.067416 
L 191.795822 64.534139 
L 192.982987 64.400341 
L 194.170151 63.010408 
L 195.357315 61.923754 
L 196.60536 63.079436 
L 197.762084 65.387904 
L 198.949248 64.80857 
L 200.105973 67.174631 
L 201.293137 64.889248 
L 202.510741 62.241289 
L 203.728346 59.197309 
L 204.85463 59.71517 
L 206.041794 56.884522 
L 207.228958 56.001094 
L 208.446563 56.582825 
L 209.664167 57.465368 
L 210.790451 58.520815 
L 212.008056 60.809195 
L 213.16478 62.23528 
L 214.351944 62.673654 
L 215.539109 61.982479 
L 216.726273 62.365468 
L 217.822117 61.639853 
L 219.131042 60.945262 
L 220.226886 57.539709 
L 221.44449 56.412232 
L 222.601214 54.933751 
L 223.818819 54.76351 
L 225.005983 56.068905 
L 226.162707 56.836176 
L 227.319431 57.8013 
L 228.506596 60.062583 
L 229.69376 60.008543 
L 230.850484 60.126769 
L 232.098529 57.964402 
L 233.255253 57.585278 
L 234.442417 56.218629 
L 235.660022 57.802317 
L 236.786306 58.69422 
L 238.03435 58.990539 
L 239.221515 59.747674 
L 240.347799 60.764844 
L 241.534963 58.231863 
L 242.691687 59.468234 
L 243.878852 58.382486 
L 245.066016 57.620024 
L 246.22274 58.186769 
L 247.470785 57.582754 
L 248.657949 55.863708 
L 249.814673 52.83051 
L 252.189002 49.946643 
L 253.406606 49.632185 
L 254.593771 51.078272 
L 255.750495 51.704131 
L 256.968099 52.221881 
L 259.372868 57.117208 
L 260.499152 61.021801 
L 261.716757 60.245457 
L 262.873481 62.376959 
L 264.091085 61.168409 
L 265.27825 62.657644 
L 266.404534 60.944493 
L 267.652578 57.864316 
L 268.809302 57.228254 
L 269.966027 56.790511 
L 271.153191 57.252022 
L 272.340355 59.508977 
L 273.5884 57.178722 
L 275.993168 59.81543 
L 277.210773 59.007805 
L 278.397937 57.645147 
L 279.615542 59.280062 
L 280.802706 64.813148 
L 281.98987 64.733865 
L 283.116154 63.961625 
L 284.303319 67.304867 
L 285.490483 63.388305 
L 286.708087 62.295691 
L 287.864812 62.135942 
L 289.051976 58.010157 
L 290.23914 58.140288 
L 291.456745 56.18877 
L 292.613469 58.650806 
L 293.770193 58.063071 
L 294.987798 58.24408 
L 296.144522 60.170247 
L 297.301246 58.976773 
L 298.51885 59.104342 
L 299.736455 60.309916 
L 300.862739 58.667198 
L 302.080343 60.242259 
L 303.297948 57.492966 
L 304.424232 60.440416 
L 305.611396 61.878474 
L 306.79856 62.574589 
L 308.016165 62.643141 
L 309.142449 60.778663 
L 310.360053 61.316129 
L 313.891106 57.412567 
L 315.04783 56.060084 
L 316.234995 58.416963 
L 317.391719 59.974274 
L 319.766048 57.570473 
L 320.983652 55.275917 
L 324.484265 51.137786 
L 325.671429 49.079384 
L 326.889034 49.388189 
L 328.106638 51.0991 
L 329.202482 52.258505 
L 330.450526 52.916885 
L 331.607251 53.221188 
L 332.763975 52.396417 
L 334.2251 50.639375 
L 335.534025 48.251421 
L 336.751629 46.793495 
L 337.999674 48.582795 
L 339.186838 47.842029 
L 340.313122 48.899934 
L 341.561167 47.820745 
L 342.717891 47.803962 
L 343.844175 48.503312 
L 345.09222 47.348524 
L 346.248944 45.126006 
L 347.496988 43.657467 
L 348.623273 44.962674 
L 349.840877 47.859764 
L 351.028041 47.362277 
L 352.215206 48.464885 
L 353.43281 45.847653 
L 354.528654 44.928538 
L 355.685378 44.124186 
L 356.933423 42.541548 
L 358.120587 40.713758 
L 359.277311 40.53645 
L 360.525356 40.971907 
L 362.869244 40.41528 
L 364.117289 40.350401 
L 366.339417 37.379885 
L 367.526581 36.601075 
L 368.713746 36.130352 
L 369.99223 35.452236 
L 371.179395 35.709496 
L 372.366559 34.896352 
L 373.492843 34.27848 
L 374.680007 34.887477 
L 375.806291 35.307011 
L 377.054336 36.388763 
L 378.11974 37.958448 
L 379.398224 40.544621 
L 380.585389 42.569284 
L 381.681233 44.894974 
L 382.929277 46.607995 
L 384.116442 47.334952 
L 385.242726 47.042184 
L 386.42989 49.247962 
L 387.586614 48.875142 
L 388.834659 50.774998 
L 390.052263 53.205063 
L 391.117667 55.816612 
L 392.365712 54.027828 
L 393.583316 55.497301 
L 394.892241 59.408095 
L 396.292486 59.976616 
L 397.38833 57.531112 
L 398.758135 61.402388 
L 399.914859 61.482834 
L 401.071583 63.590737 
L 403.445912 69.030325 
L 404.633076 63.422851 
L 405.911561 61.944014 
L 406.946525 59.44672 
L 408.255449 54.980228 
L 409.412174 54.010551 
L 411.725622 63.062893 
L 414.160831 77.572486 
L 415.256675 84.157932 
L 416.382959 79.734605 
L 417.661444 71.601917 
L 418.909488 67.119211 
L 421.222937 64.347511 
L 423.688585 59.883012 
L 424.784429 56.725589 
L 424.784429 56.725589 
" clip-path="url(#p3fea3496d6)" style="fill: none; stroke: #1f77b4; stroke-width: 2.5; stroke-linecap: square"/>
   </g>
   <g id="line2d_108">
    <path d="M 70.918143 286.521626 
L 70.918143 64.199857 
L 70.918143 76.440252 
L 71.039903 78.815948 
L 71.618265 76.101659 
L 73.01851 74.05179 
L 75.179758 66.930304 
L 77.341006 67.992592 
L 79.258733 67.124861 
L 80.780739 73.33425 
L 82.028783 80.684042 
L 83.124627 89.151803 
L 84.220471 102.466861 
L 85.316315 286.521626 
L 86.442599 133.072344 
L 87.629764 286.521626 
L 88.847368 85.88656 
L 90.034532 105.238814 
L 91.221697 87.315977 
L 92.408861 87.711216 
L 93.596025 82.456401 
L 94.81363 86.079325 
L 96.000794 88.440898 
L 97.309719 286.521626 
L 105.89383 286.521626 
L 107.080994 116.901549 
L 108.298599 95.175633 
L 109.455323 117.865644 
L 110.672927 98.651683 
L 111.860092 109.560285 
L 113.047256 97.355997 
L 114.26486 100.14741 
L 115.452025 97.594717 
L 116.639189 286.521626 
L 117.826353 94.027619 
L 119.013518 124.236223 
L 120.200682 286.521626 
L 128.480392 286.521626 
L 129.667556 93.698797 
L 130.824281 93.837145 
L 131.981005 86.651596 
L 133.229049 83.132681 
L 134.385774 95.666061 
L 135.572938 286.521626 
L 136.790542 102.367653 
L 138.008147 286.521626 
L 139.347512 124.158893 
L 140.443356 107.401741 
L 141.63052 286.521626 
L 142.756804 93.480234 
L 144.004849 96.429711 
L 145.192013 286.521626 
L 149.94067 286.521626 
L 151.158275 133.122678 
L 152.284559 286.521626 
L 153.471723 91.677308 
L 154.780648 75.170081 
L 155.906932 78.875013 
L 157.094096 83.77277 
L 158.28126 85.028007 
L 159.529305 78.774103 
L 160.686029 88.598809 
L 161.873194 80.572448 
L 162.999478 81.622759 
L 164.247522 89.840584 
L 165.404246 84.635972 
L 166.621851 82.52305 
L 168.996179 102.148625 
L 170.152904 286.521626 
L 177.215009 286.521626 
L 178.432614 105.481285 
L 179.650218 89.353896 
L 180.806942 95.516489 
L 181.963667 93.985148 
L 183.181271 89.631177 
L 184.459756 89.483658 
L 185.61648 89.817738 
L 186.894965 89.86623 
L 187.990808 92.899299 
L 189.177973 86.111013 
L 190.365137 88.159211 
L 191.552301 286.521626 
L 193.92663 286.521626 
L 195.144235 104.181422 
L 196.300959 74.979667 
L 197.427243 66.745505 
L 198.614407 62.306669 
L 199.832012 61.906965 
L 201.019176 59.947754 
L 202.1759 57.821012 
L 203.393504 57.318334 
L 204.550229 58.18461 
L 206.954997 56.393552 
L 208.111722 56.2705 
L 209.238006 57.323959 
L 210.45561 57.020913 
L 211.703655 58.777238 
L 212.860379 60.636286 
L 214.047543 59.928571 
L 215.265148 60.415148 
L 216.421872 60.296681 
L 217.609036 57.316152 
L 219.952925 58.468156 
L 222.296813 54.918084 
L 223.544858 54.379524 
L 224.732022 54.655197 
L 225.888746 54.498485 
L 227.075911 54.836356 
L 228.263075 56.023086 
L 229.419799 58.448917 
L 230.637404 58.260215 
L 233.011732 59.649747 
L 234.168456 56.983827 
L 235.355621 54.656997 
L 236.573225 52.683509 
L 237.729949 53.661345 
L 240.104278 55.090647 
L 241.261002 55.555951 
L 242.387286 53.523713 
L 243.604891 53.357543 
L 244.883375 55.010488 
L 246.0401 49.971473 
L 247.196824 48.463904 
L 248.383988 48.412041 
L 250.758317 50.498889 
L 251.945481 49.353255 
L 253.102205 52.01681 
L 254.31981 53.654825 
L 255.537414 56.756305 
L 256.724578 57.683219 
L 257.850863 51.988036 
L 260.225191 53.429946 
L 261.412355 53.551625 
L 262.6604 55.610096 
L 263.817124 53.248241 
L 264.973848 55.469552 
L 267.409057 57.11571 
L 268.504901 54.932902 
L 269.722506 54.593247 
L 270.90967 59.761389 
L 272.096834 59.249445 
L 273.314439 60.959364 
L 274.562483 64.149187 
L 275.749648 62.239912 
L 276.997692 62.086485 
L 279.372021 58.241642 
L 280.528745 57.043502 
L 282.872633 62.566168 
L 284.029358 57.089824 
L 286.464567 57.804533 
L 287.560411 54.916629 
L 288.778015 53.423111 
L 289.965179 52.367428 
L 291.152344 51.659394 
L 292.369948 51.904359 
L 293.435352 54.600874 
L 294.683396 53.143442 
L 295.840121 52.729023 
L 297.057725 52.834123 
L 298.244889 51.812855 
L 299.432054 50.019388 
L 300.680098 49.581409 
L 301.775942 47.573877 
L 302.963107 44.450481 
L 304.180711 43.782178 
L 305.337435 42.816419 
L 306.524599 42.159282 
L 307.711764 42.667393 
L 310.025212 42.90299 
L 311.242817 42.571585 
L 312.429981 43.053365 
L 313.617145 40.891774 
L 314.743429 39.522487 
L 315.930594 40.742161 
L 317.148198 41.056045 
L 318.365803 42.266961 
L 319.552967 41.680193 
L 320.679251 41.464431 
L 321.866415 41.385217 
L 323.05358 40.718139 
L 324.240744 40.254648 
L 325.427908 38.495874 
L 326.645513 38.420261 
L 327.771797 39.095849 
L 330.176565 39.516092 
L 331.36373 40.086644 
L 332.520454 41.44327 
L 333.859819 44.714358 
L 335.229624 46.488333 
L 336.416788 47.270809 
L 337.664833 49.049688 
L 338.912877 49.249167 
L 340.039161 47.54428 
L 341.287206 47.024894 
L 342.47437 46.879731 
L 343.661534 46.858718 
L 344.787819 46.103006 
L 346.005423 46.541352 
L 347.223027 46.32739 
L 348.379752 45.597573 
L 349.536476 47.327425 
L 350.6932 47.283118 
L 351.910804 46.525269 
L 353.067529 48.191406 
L 354.315573 50.518635 
L 355.472297 52.14124 
L 356.568141 52.237646 
L 357.846626 53.86761 
L 359.00335 55.895916 
L 360.190515 54.229735 
L 361.408119 56.909206 
L 362.473523 57.214221 
L 364.939172 54.653657 
L 366.095896 56.3305 
L 367.3135 57.896967 
L 368.470225 54.70846 
L 369.687829 57.130755 
L 370.844553 58.434811 
L 372.001278 58.929003 
L 373.310202 59.913312 
L 374.436486 59.843521 
L 375.623651 59.430736 
L 376.749935 61.948826 
L 377.906659 62.684872 
L 379.154704 68.180164 
L 380.341868 70.801104 
L 381.559472 83.78597 
L 382.655316 286.521626 
L 383.872921 286.521626 
L 385.060085 85.958411 
L 386.216809 83.09321 
L 387.251773 77.677366 
L 388.530258 79.609847 
L 389.747862 65.136866 
L 390.874146 67.50928 
L 392.091751 68.877391 
L 393.187595 68.333066 
L 394.526959 76.200804 
L 395.927205 76.405786 
L 397.266569 84.081777 
L 398.484174 93.845192 
L 399.701778 93.471912 
L 400.828062 84.152174 
L 402.045667 71.436844 
L 404.328675 65.937962 
L 405.60716 63.863556 
L 406.794324 64.177551 
L 407.859728 65.711321 
L 409.138213 68.465704 
L 410.203616 71.597778 
L 411.451661 81.329924 
L 412.730146 83.090632 
L 413.85643 79.263941 
L 414.921834 73.062157 
L 416.230758 70.22135 
L 417.296162 62.46467 
L 418.574647 58.844349 
L 420.979416 57.006325 
L 422.1057 57.05091 
L 423.323304 58.325315 
L 424.601789 61.512979 
L 425.423672 68.887098 
L 425.423672 68.887098 
" clip-path="url(#p3fea3496d6)" style="fill: none; stroke: #0033ff; stroke-width: 2.5; stroke-linecap: square"/>
   </g>
   <g id="line2d_109">
    <path d="M 69.091736 73.442908 
L 69.152616 286.521626 
L 69.152616 77.147229 
L 69.243937 82.778749 
L 69.730979 91.296266 
L 71.192104 88.606331 
L 73.292471 102.519539 
L 75.5146 93.683322 
L 77.371446 109.39562 
L 78.954332 286.521626 
L 80.232817 90.599143 
L 81.328661 135.169048 
L 82.394065 286.521626 
L 83.550789 119.273181 
L 84.707513 286.521626 
L 89.48661 286.521626 
L 90.673775 99.237163 
L 91.800059 88.991141 
L 92.987223 86.568355 
L 94.204828 80.018349 
L 95.361552 77.724762 
L 96.670476 79.399459 
L 97.948961 86.641856 
L 99.288326 89.348338 
L 100.50593 97.636928 
L 101.723535 86.295508 
L 102.941139 86.230892 
L 104.097863 286.521626 
L 105.285028 109.042291 
L 106.472192 286.521626 
L 110.094565 286.521626 
L 111.251289 115.009472 
L 112.438454 286.521626 
L 113.625618 103.718921 
L 114.812782 286.521626 
L 116.030387 90.984252 
L 117.217551 79.301667 
L 118.374275 78.266829 
L 119.500559 75.387985 
L 120.779044 76.293234 
L 121.966208 72.185805 
L 123.092493 70.617142 
L 124.279657 72.657459 
L 125.436381 83.426398 
L 126.714866 109.637183 
L 127.87159 91.966122 
L 129.089194 130.766236 
L 130.276359 102.964123 
L 131.433083 79.399 
L 132.559367 73.142195 
L 133.807411 68.571826 
L 134.933696 66.473319 
L 136.12086 65.878875 
L 137.399345 66.203977 
L 138.647389 68.061566 
L 139.834553 74.989891 
L 141.052158 83.160138 
L 142.178442 85.597267 
L 143.365606 80.226618 
L 144.552771 86.407836 
L 145.770375 91.218276 
L 146.987979 106.626446 
L 148.175144 86.834141 
L 149.362308 71.569776 
L 150.549472 71.241696 
L 151.706197 70.244227 
L 152.862921 67.746028 
L 154.080525 71.312821 
L 155.206809 73.842218 
L 156.515734 92.382113 
L 157.702898 286.521626 
L 161.233951 286.521626 
L 162.451556 89.025441 
L 163.63872 80.427478 
L 164.825884 84.162772 
L 165.952168 88.340221 
L 167.108893 102.917317 
L 168.356937 90.760863 
L 169.574542 92.32785 
L 170.731266 87.156584 
L 171.85755 75.747915 
L 173.075154 73.603016 
L 174.262319 72.675309 
L 175.479923 72.949244 
L 176.575767 86.197893 
L 177.823812 88.445103 
L 178.980536 165.15461 
L 180.19814 88.007281 
L 181.385304 91.056011 
L 182.542029 87.905274 
L 183.729193 77.751793 
L 184.977238 76.275299 
L 186.194842 76.341173 
L 187.351566 69.781356 
L 188.50829 75.290307 
L 189.695455 79.241291 
L 190.913059 75.3986 
L 192.130664 68.365382 
L 193.226508 62.70342 
L 194.383232 62.338771 
L 195.631276 61.246242 
L 196.818441 59.114058 
L 197.944725 59.010336 
L 199.223209 61.775445 
L 200.379934 65.757083 
L 201.627978 66.510439 
L 202.754262 63.046176 
L 203.941426 61.434252 
L 205.098151 59.47185 
L 207.53336 56.927686 
L 208.720524 55.805531 
L 209.907688 56.847328 
L 211.094853 59.246843 
L 212.251577 58.602521 
L 213.469181 59.350013 
L 214.656345 62.387997 
L 215.84351 66.566913 
L 217.000234 69.327223 
L 218.126518 68.920088 
L 219.313682 74.571296 
L 220.531287 77.027984 
L 221.718451 72.396835 
L 222.905615 71.021538 
L 224.09278 75.126039 
L 225.279944 70.226484 
L 226.436668 63.619815 
L 227.623833 59.675955 
L 228.810997 57.726798 
L 230.028601 56.162342 
L 231.215766 58.284671 
L 232.37249 60.099416 
L 233.559654 60.448059 
L 234.746818 63.478829 
L 235.933983 68.322932 
L 238.277871 65.018873 
L 239.465036 61.441338 
L 240.62176 56.366024 
L 241.839364 54.935499 
L 243.026529 54.055031 
L 246.557581 52.05283 
L 247.775186 52.553388 
L 248.96235 54.285979 
L 250.119074 55.398239 
L 251.306239 54.943943 
L 252.493403 53.425891 
L 253.680567 54.091701 
L 256.054896 53.33526 
L 257.2725 54.160814 
L 258.429225 53.211104 
L 259.585949 52.642126 
L 260.803553 52.637936 
L 261.960277 54.560955 
L 263.147442 54.425718 
L 264.365046 54.835146 
L 265.582651 56.014686 
L 266.739375 55.573395 
L 267.896099 53.961264 
L 269.113703 54.449852 
L 270.300868 54.010079 
L 271.457592 53.808379 
L 273.923241 55.060214 
L 275.110405 56.271169 
L 276.29757 57.269738 
L 277.545614 61.086205 
L 278.671898 60.883416 
L 279.889503 62.300108 
L 281.076667 62.057272 
L 282.233391 59.942444 
L 283.420555 58.523826 
L 284.60772 54.992766 
L 285.764444 53.124408 
L 286.951608 54.868005 
L 288.169213 56.430579 
L 289.325937 58.978789 
L 290.543541 60.808043 
L 291.730706 62.232232 
L 292.91787 61.364929 
L 295.231318 61.456503 
L 296.448923 58.737286 
L 297.666527 58.965664 
L 298.792811 60.117801 
L 300.040856 64.192818 
L 301.16714 63.614537 
L 302.384744 60.69594 
L 303.541469 59.951306 
L 304.728633 57.676153 
L 305.885357 58.987719 
L 307.072521 59.208083 
L 309.44685 56.899439 
L 311.790739 59.523455 
L 312.977903 58.232148 
L 314.195507 55.880665 
L 315.382672 57.556499 
L 316.569836 54.41978 
L 317.72656 55.675353 
L 318.883284 57.862851 
L 321.288053 56.127047 
L 322.444777 56.327556 
L 324.788666 54.918627 
L 325.91495 54.767694 
L 327.162995 56.884573 
L 328.350159 55.187988 
L 329.537323 57.955731 
L 330.663607 58.668748 
L 331.911652 58.40179 
L 333.129256 57.860491 
L 334.529501 55.456371 
L 335.838426 56.324648 
L 338.273635 54.417799 
L 339.491239 55.324285 
L 340.678404 52.812385 
L 341.865568 52.744965 
L 342.961412 51.383905 
L 344.239897 50.933596 
L 345.396621 49.362195 
L 346.522905 49.49323 
L 348.927674 50.448983 
L 350.053958 49.873515 
L 351.271562 50.375223 
L 352.397846 50.006022 
L 353.645891 51.106413 
L 354.802615 51.136968 
L 355.989779 49.941847 
L 357.268264 49.8734 
L 358.394548 52.353033 
L 359.551272 52.778037 
L 360.768877 54.003904 
L 361.925601 53.138319 
L 363.112765 52.670047 
L 364.239049 53.035681 
L 365.487094 51.693444 
L 366.704698 48.415186 
L 367.830982 47.229185 
L 369.048587 47.931935 
L 370.266191 49.251671 
L 371.362035 50.705297 
L 372.57964 51.883683 
L 373.858124 53.303643 
L 374.893088 55.733295 
L 376.232453 59.165785 
L 378.454581 60.118927 
L 379.702626 66.475574 
L 380.85935 70.724394 
L 382.016074 74.215042 
L 383.264118 85.9302 
L 384.359962 85.449778 
L 385.516687 81.648901 
L 386.795171 71.242107 
L 387.860575 66.368128 
L 389.10862 66.240142 
L 390.326224 66.899963 
L 391.422068 66.987426 
L 392.639673 65.074944 
L 395.196642 73.820361 
L 396.596887 75.763638 
L 397.723171 68.585075 
L 398.910335 62.320217 
L 400.18882 62.287631 
L 401.436865 63.455614 
L 402.593589 62.89669 
L 403.811193 63.982678 
L 404.937477 68.463788 
L 406.185522 72.439984 
L 407.220486 70.942936 
L 408.49897 69.309177 
L 409.594814 66.079519 
L 410.934179 64.015105 
L 411.908263 64.07029 
L 413.156307 63.794756 
L 414.434792 61.683059 
L 415.469756 61.428364 
L 416.900441 64.818801 
L 417.904964 63.513884 
L 419.183449 62.894046 
L 420.309733 63.125957 
L 421.436017 62.75074 
L 422.623182 61.411505 
L 423.901666 59.006219 
L 424.99751 55.724059 
L 424.99751 55.724059 
" clip-path="url(#p3fea3496d6)" style="fill: none; stroke: #ff7f0e; stroke-width: 2.5; stroke-linecap: square"/>
   </g>
   <g id="line2d_110">
    <path d="M 78.832572 75.697676 
L 78.771691 286.521626 
L 78.832572 114.202049 
L 79.410934 286.521626 
L 88.695167 286.521626 
L 89.912772 89.982184 
L 91.069496 75.483507 
L 92.10446 75.792928 
L 93.291624 74.26626 
L 94.387468 73.304213 
L 95.605073 72.671292 
L 96.883557 73.909095 
L 98.131602 86.550468 
L 99.410086 103.841132 
L 100.658131 99.651079 
L 101.875735 85.252046 
L 103.12378 73.047082 
L 104.250064 75.937122 
L 105.467668 72.470804 
L 106.624393 72.848561 
L 107.841997 68.886897 
L 109.059602 71.545982 
L 110.246766 89.269476 
L 111.37305 87.126019 
L 112.560214 89.373975 
L 113.777819 88.390713 
L 115.025863 91.851292 
L 116.243468 77.584695 
L 117.339312 71.546685 
L 118.617796 69.489683 
L 119.804961 65.555597 
L 120.992125 65.310081 
L 122.179289 73.299577 
L 123.305573 77.905101 
L 124.492738 99.307 
L 125.740782 286.521626 
L 126.897506 286.521626 
L 128.115111 81.223971 
L 129.271835 72.179553 
L 130.489439 73.621204 
L 131.646164 74.475894 
L 132.802888 77.34422 
L 134.020492 99.990497 
L 135.207657 86.485859 
L 136.425261 94.454875 
L 137.673306 88.918803 
L 138.89091 75.145351 
L 140.108514 72.450575 
L 141.204358 73.924205 
L 142.421963 77.465866 
L 143.609127 88.466686 
L 144.796291 286.521626 
L 145.953016 286.521626 
L 147.17062 78.810732 
L 148.357784 75.822776 
L 149.544949 72.036647 
L 150.701673 70.561889 
L 151.888837 71.147537 
L 153.106442 74.782291 
L 154.324046 84.67245 
L 155.51121 286.521626 
L 159.072703 286.521626 
L 160.290308 80.107323 
L 161.477472 74.958874 
L 162.664636 77.171307 
L 163.851801 76.307607 
L 164.978085 73.887071 
L 166.195689 84.649629 
L 167.382854 85.148492 
L 168.600458 92.015192 
L 169.757182 85.860412 
L 170.944347 78.203163 
L 172.131511 68.314924 
L 173.318675 65.786864 
L 174.475399 65.799426 
L 175.693004 65.161094 
L 176.910608 63.309262 
L 178.158653 63.997038 
L 179.284937 64.163502 
L 180.441661 63.673996 
L 181.628825 64.936312 
L 182.84643 64.328652 
L 184.064034 61.902415 
L 185.281639 63.019879 
L 186.407923 65.375409 
L 187.595087 65.077694 
L 188.751811 63.947065 
L 189.999856 66.15861 
L 191.18702 63.067195 
L 192.404625 61.937365 
L 193.530909 62.45753 
L 195.905237 57.355659 
L 197.061961 55.057902 
L 198.279566 52.0174 
L 199.46673 48.620822 
L 200.623454 44.713161 
L 201.810619 43.231835 
L 202.997783 42.28765 
L 204.184947 41.857002 
L 205.372112 42.214751 
L 206.589716 40.829041 
L 207.77688 39.2829 
L 208.933605 36.55627 
L 211.307933 33.952981 
L 212.495098 31.040574 
L 213.651822 30.052967 
L 217.243755 27.620807 
L 218.400479 27.004406 
L 219.587643 26.867334 
L 221.961972 26.024975 
L 223.118696 24.82968 
L 224.336301 23.110813 
L 225.493025 22.759041 
L 227.897794 20.988693 
L 229.084958 20.526916 
L 231.428846 21.042243 
L 232.585571 20.853078 
L 233.772735 20.523305 
L 234.990339 20.50103 
L 236.177504 20.680902 
L 237.303788 21.801678 
L 238.490952 21.474338 
L 239.738997 21.668217 
L 240.834841 22.210765 
L 242.052445 22.242521 
L 243.239609 22.078981 
L 244.426774 21.492948 
L 245.583498 21.579471 
L 246.740222 21.501238 
L 247.896946 21.741399 
L 249.084111 22.357914 
L 250.362595 22.076757 
L 251.519319 23.030147 
L 252.706484 24.35207 
L 253.863208 24.372299 
L 256.267977 25.673165 
L 258.703186 26.438074 
L 261.077514 27.646432 
L 262.234238 28.461571 
L 264.608567 31.282107 
L 265.826171 31.605219 
L 266.952456 32.965302 
L 268.17006 33.595258 
L 269.387664 33.239208 
L 270.483508 34.11271 
L 271.670673 32.970474 
L 272.918717 33.317861 
L 276.54109 35.239442 
L 278.915419 38.926805 
L 281.350628 39.940694 
L 282.476912 40.837392 
L 283.694516 40.065946 
L 284.820801 40.206547 
L 286.068845 40.539813 
L 287.195129 40.00323 
L 288.382294 40.323126 
L 290.817502 41.489673 
L 291.943786 41.704493 
L 293.191831 42.206285 
L 294.378995 42.173013 
L 295.53572 41.068747 
L 296.692444 40.306945 
L 297.849168 39.407553 
L 299.066772 37.966384 
L 301.441101 36.548891 
L 302.628265 38.100661 
L 303.78499 38.257937 
L 305.002594 38.310076 
L 306.159318 38.21852 
L 307.376923 37.983773 
L 308.533647 38.118615 
L 309.690371 37.968381 
L 310.847095 36.615154 
L 312.09514 35.953606 
L 313.221424 36.701505 
L 314.439028 37.993456 
L 315.595752 37.946618 
L 316.752477 38.699542 
L 317.939641 37.831595 
L 319.126805 36.723753 
L 320.37485 36.223198 
L 321.501134 35.194193 
L 322.718738 33.488678 
L 323.875463 33.232471 
L 325.062627 33.396503 
L 326.280231 33.908219 
L 327.436956 35.336456 
L 328.59368 36.030602 
L 329.780844 35.217983 
L 330.968008 35.484203 
L 332.094292 35.322701 
L 333.342337 33.844084 
L 334.833902 33.151598 
L 336.021067 33.595782 
L 337.329991 33.913688 
L 338.517156 34.481402 
L 339.70432 35.388373 
L 340.891484 35.556524 
L 342.109089 36.367647 
L 343.204933 36.566102 
L 344.452977 35.671256 
L 345.609702 34.279091 
L 346.735986 34.409154 
L 347.98403 35.584598 
L 349.171195 36.495203 
L 351.545523 36.903195 
L 352.641367 37.810726 
L 353.889412 40.261668 
L 355.137456 40.027666 
L 356.20286 39.372567 
L 357.450905 39.021183 
L 358.607629 39.200712 
L 361.012398 40.447591 
L 362.199562 40.041224 
L 363.417166 40.041534 
L 364.51301 40.878789 
L 365.700175 42.696398 
L 366.887339 41.911328 
L 368.135383 42.252526 
L 369.413868 43.174951 
L 371.605556 41.888688 
L 372.823161 42.357893 
L 374.040765 42.163613 
L 375.227929 43.926137 
L 376.354213 45.342212 
L 377.602258 48.237818 
L 381.04199 52.989252 
L 382.229155 52.74563 
L 384.633923 49.64457 
L 385.760208 47.597459 
L 386.977812 49.459862 
L 388.256297 49.510271 
L 389.352141 51.25442 
L 390.508865 51.688927 
L 391.696029 52.632765 
L 392.974514 54.246368 
L 394.131238 54.924399 
L 395.501043 53.031099 
L 396.840408 53.155543 
L 398.088452 54.057072 
L 399.275617 58.29431 
L 400.371461 59.56006 
L 401.710826 59.736212 
L 403.963394 63.105846 
L 407.616207 56.099675 
L 408.742491 58.150061 
L 409.838335 58.929607 
L 411.08638 62.861999 
L 413.491148 56.729475 
L 414.678313 57.154819 
L 415.865477 53.701075 
L 416.961321 51.86166 
L 419.42697 48.545648 
L 420.553254 48.218919 
L 421.770858 48.576586 
L 422.897143 49.755217 
L 424.206067 52.078172 
L 425.149711 56.34507 
L 425.149711 56.34507 
" clip-path="url(#p3fea3496d6)" style="fill: none; stroke: #ff0000; stroke-width: 2.5; stroke-linecap: square"/>
   </g>
   <g id="patch_3">
    <path d="M 60.598945 299.822656 
L 60.598945 7.2 
" style="fill: none; stroke: #000000; stroke-width: 1.5; stroke-linejoin: miter; stroke-linecap: square"/>
   </g>
   <g id="patch_4">
    <path d="M 60.598945 299.822656 
L 425.880273 299.822656 
" style="fill: none; stroke: #000000; stroke-width: 1.5; stroke-linejoin: miter; stroke-linecap: square"/>
   </g>
   <g id="legend_1">
    <g id="line2d_111">
     <path d="M 71.398945 22.536328 
L 83.398945 22.536328 
L 95.398945 22.536328 
" style="fill: none; stroke: #000000; stroke-width: 2.5; stroke-linecap: square"/>
    </g>
    <g id="text_19">
     <!-- vacuum -->
     <g transform="translate(104.998945 26.736328) scale(0.12 -0.12)">
      <defs>
       <path id="ArialMT-59" d="M 1344 0 
L 81 3319 
L 675 3319 
L 1388 1331 
Q 1503 1009 1600 663 
Q 1675 925 1809 1294 
L 2547 3319 
L 3125 3319 
L 1869 0 
L 1344 0 
z
" transform="scale(0.015625)"/>
       <path id="ArialMT-46" d="M 2588 1216 
L 3141 1144 
Q 3050 572 2676 248 
Q 2303 -75 1759 -75 
Q 1078 -75 664 370 
Q 250 816 250 1647 
Q 250 2184 428 2587 
Q 606 2991 970 3192 
Q 1334 3394 1763 3394 
Q 2303 3394 2647 3120 
Q 2991 2847 3088 2344 
L 2541 2259 
Q 2463 2594 2264 2762 
Q 2066 2931 1784 2931 
Q 1359 2931 1093 2626 
Q 828 2322 828 1663 
Q 828 994 1084 691 
Q 1341 388 1753 388 
Q 2084 388 2306 591 
Q 2528 794 2588 1216 
z
" transform="scale(0.015625)"/>
      </defs>
      <use xlink:href="#ArialMT-59"/>
      <use xlink:href="#ArialMT-44" transform="translate(50 0)"/>
      <use xlink:href="#ArialMT-46" transform="translate(105.609375 0)"/>
      <use xlink:href="#ArialMT-58" transform="translate(155.609375 0)"/>
      <use xlink:href="#ArialMT-58" transform="translate(211.21875 0)"/>
      <use xlink:href="#ArialMT-50" transform="translate(266.828125 0)"/>
     </g>
    </g>
    <g id="line2d_112">
     <path d="M 71.398945 39.798047 
L 83.398945 39.798047 
L 95.398945 39.798047 
" style="fill: none; stroke: #1f77b4; stroke-width: 2.5; stroke-linecap: square"/>
    </g>
    <g id="text_20">
     <!-- 1h -->
     <g transform="translate(104.998945 43.998047) scale(0.12 -0.12)">
      <defs>
       <path id="ArialMT-4b" d="M 422 0 
L 422 4581 
L 984 4581 
L 984 2938 
Q 1378 3394 1978 3394 
Q 2347 3394 2619 3248 
Q 2891 3103 3008 2847 
Q 3125 2591 3125 2103 
L 3125 0 
L 2563 0 
L 2563 2103 
Q 2563 2525 2380 2717 
Q 2197 2909 1863 2909 
Q 1613 2909 1392 2779 
Q 1172 2650 1078 2428 
Q 984 2206 984 1816 
L 984 0 
L 422 0 
z
" transform="scale(0.015625)"/>
      </defs>
      <use xlink:href="#ArialMT-14"/>
      <use xlink:href="#ArialMT-4b" transform="translate(55.609375 0)"/>
     </g>
    </g>
    <g id="line2d_113">
     <path d="M 71.398945 57.059766 
L 83.398945 57.059766 
L 95.398945 57.059766 
" style="fill: none; stroke: #0033ff; stroke-width: 2.5; stroke-linecap: square"/>
    </g>
    <g id="text_21">
     <!-- 2h -->
     <g transform="translate(104.998945 61.259766) scale(0.12 -0.12)">
      <use xlink:href="#ArialMT-15"/>
      <use xlink:href="#ArialMT-4b" transform="translate(55.609375 0)"/>
     </g>
    </g>
    <g id="line2d_114">
     <path d="M 71.398945 74.321484 
L 83.398945 74.321484 
L 95.398945 74.321484 
" style="fill: none; stroke: #ff7f0e; stroke-width: 2.5; stroke-linecap: square"/>
    </g>
    <g id="text_22">
     <!-- 4h -->
     <g transform="translate(104.998945 78.521484) scale(0.12 -0.12)">
      <use xlink:href="#ArialMT-17"/>
      <use xlink:href="#ArialMT-4b" transform="translate(55.609375 0)"/>
     </g>
    </g>
    <g id="line2d_115">
     <path d="M 71.398945 91.583203 
L 83.398945 91.583203 
L 95.398945 91.583203 
" style="fill: none; stroke: #ff0000; stroke-width: 2.5; stroke-linecap: square"/>
    </g>
    <g id="text_23">
     <!-- first -->
     <g transform="translate(104.998945 95.783203) scale(0.12 -0.12)">
      <defs>
       <path id="ArialMT-49" d="M 556 0 
L 556 2881 
L 59 2881 
L 59 3319 
L 556 3319 
L 556 3672 
Q 556 4006 616 4169 
Q 697 4388 901 4523 
Q 1106 4659 1475 4659 
Q 1713 4659 2000 4603 
L 1916 4113 
Q 1741 4144 1584 4144 
Q 1328 4144 1222 4034 
Q 1116 3925 1116 3625 
L 1116 3319 
L 1763 3319 
L 1763 2881 
L 1116 2881 
L 1116 0 
L 556 0 
z
" transform="scale(0.015625)"/>
       <path id="ArialMT-4c" d="M 425 3934 
L 425 4581 
L 988 4581 
L 988 3934 
L 425 3934 
z
M 425 0 
L 425 3319 
L 988 3319 
L 988 0 
L 425 0 
z
" transform="scale(0.015625)"/>
       <path id="ArialMT-56" d="M 197 991 
L 753 1078 
Q 800 744 1014 566 
Q 1228 388 1613 388 
Q 2000 388 2187 545 
Q 2375 703 2375 916 
Q 2375 1106 2209 1216 
Q 2094 1291 1634 1406 
Q 1016 1563 777 1677 
Q 538 1791 414 1992 
Q 291 2194 291 2438 
Q 291 2659 392 2848 
Q 494 3038 669 3163 
Q 800 3259 1026 3326 
Q 1253 3394 1513 3394 
Q 1903 3394 2198 3281 
Q 2494 3169 2634 2976 
Q 2775 2784 2828 2463 
L 2278 2388 
Q 2241 2644 2061 2787 
Q 1881 2931 1553 2931 
Q 1166 2931 1000 2803 
Q 834 2675 834 2503 
Q 834 2394 903 2306 
Q 972 2216 1119 2156 
Q 1203 2125 1616 2013 
Q 2213 1853 2448 1751 
Q 2684 1650 2818 1456 
Q 2953 1263 2953 975 
Q 2953 694 2789 445 
Q 2625 197 2315 61 
Q 2006 -75 1616 -75 
Q 969 -75 630 194 
Q 291 463 197 991 
z
" transform="scale(0.015625)"/>
      </defs>
      <use xlink:href="#ArialMT-49"/>
      <use xlink:href="#ArialMT-4c" transform="translate(27.78125 0)"/>
      <use xlink:href="#ArialMT-55" transform="translate(50 0)"/>
      <use xlink:href="#ArialMT-56" transform="translate(83.296875 0)"/>
      <use xlink:href="#ArialMT-57" transform="translate(133.296875 0)"/>
     </g>
    </g>
   </g>
  </g>
 </g>
 <defs>
  <clipPath id="p3fea3496d6">
   <rect x="60.598945" y="7.2" width="365.281328" height="292.622656"/>
  </clipPath>
 </defs>
</svg>
