<?xml version="1.0" encoding="utf-8" standalone="no"?>
<!DOCTYPE svg PUBLIC "-//W3C//DTD SVG 1.1//EN"
  "http://www.w3.org/Graphics/SVG/1.1/DTD/svg11.dtd">
<svg xmlns:xlink="http://www.w3.org/1999/xlink" width="448.650898pt" height="340.800273pt" viewBox="0 0 448.650898 340.800273" xmlns="http://www.w3.org/2000/svg" version="1.1">
 <metadata>
  <rdf:RDF xmlns:dc="http://purl.org/dc/elements/1.1/" xmlns:cc="http://creativecommons.org/ns#" xmlns:rdf="http://www.w3.org/1999/02/22-rdf-syntax-ns#">
   <cc:Work>
    <dc:type rdf:resource="http://purl.org/dc/dcmitype/StillImage"/>
    <dc:date>2026-07-09T17:08:38.937561</dc:date>
    <dc:format>image/svg+xml</dc:format>
    <dc:creator>
     <cc:Agent>
      <dc:title>Matplotlib v3.11.0, https://matplotlib.org/</dc:title>
     </cc:Agent>
    </dc:creator>
   </cc:Work>
  </rdf:RDF>
 </metadata>
 <defs>
  <style type="text/css">*{stroke-linejoin: round; stroke-linecap: butt}</style>
 </defs>
 <g id="figure_1">
  <g id="patch_1">
   <path d="M 0 340.800273 
L 448.650898 340.800273 
L 448.650898 0 
L 0 0 
z
" style="fill: #ffffff"/>
  </g>
  <g id="axes_1">
   <g id="patch_2">
    <path d="M 60.598945 299.822656 
L 425.880273 299.822656 
L 425.880273 7.2 
L 60.598945 7.2 
z
" style="fill: #ffffff"/>
   </g>
   <g id="matplotlib.axis_1">
    <g id="xtick_1">
     <g id="line2d_1">
      <defs>
       <path id="m3133744127" d="M 0 0 
L 0 -6 
" style="stroke: #000000; stroke-width: 1.5"/>
      </defs>
      <g>
       <use xlink:href="#m3133744127" x="60.598945" y="299.822656" style="stroke: #000000; stroke-width: 1.5"/>
      </g>
     </g>
     <g id="text_1">
      <!-- 0 -->
      <g transform="translate(56.706289 313.515039) scale(0.14 -0.14)">
       <defs>
        <path id="ArialMT-13" d="M 266 2259 
Q 266 3072 433 3567 
Q 600 4063 929 4331 
Q 1259 4600 1759 4600 
Q 2128 4600 2406 4451 
Q 2684 4303 2865 4023 
Q 3047 3744 3150 3342 
Q 3253 2941 3253 2259 
Q 3253 1453 3087 958 
Q 2922 463 2592 192 
Q 2263 -78 1759 -78 
Q 1097 -78 719 397 
Q 266 969 266 2259 
z
M 844 2259 
Q 844 1131 1108 757 
Q 1372 384 1759 384 
Q 2147 384 2411 759 
Q 2675 1134 2675 2259 
Q 2675 3391 2411 3762 
Q 2147 4134 1753 4134 
Q 1366 4134 1134 3806 
Q 844 3388 844 2259 
z
" transform="scale(0.015625)"/>
       </defs>
       <use xlink:href="#ArialMT-13"/>
      </g>
     </g>
    </g>
    <g id="xtick_2">
     <g id="line2d_2">
      <g>
       <use xlink:href="#m3133744127" x="121.479167" y="299.822656" style="stroke: #000000; stroke-width: 1.5"/>
      </g>
     </g>
     <g id="text_2">
      <!-- 200 -->
      <g transform="translate(109.801198 313.515039) scale(0.14 -0.14)">
       <defs>
        <path id="ArialMT-15" d="M 3222 541 
L 3222 0 
L 194 0 
Q 188 203 259 391 
Q 375 700 629 1000 
Q 884 1300 1366 1694 
Q 2113 2306 2375 2664 
Q 2638 3022 2638 3341 
Q 2638 3675 2398 3904 
Q 2159 4134 1775 4134 
Q 1369 4134 1125 3890 
Q 881 3647 878 3216 
L 300 3275 
Q 359 3922 746 4261 
Q 1134 4600 1788 4600 
Q 2447 4600 2831 4234 
Q 3216 3869 3216 3328 
Q 3216 3053 3103 2787 
Q 2991 2522 2730 2228 
Q 2469 1934 1863 1422 
Q 1356 997 1212 845 
Q 1069 694 975 541 
L 3222 541 
z
" transform="scale(0.015625)"/>
       </defs>
       <use xlink:href="#ArialMT-15"/>
       <use xlink:href="#ArialMT-13" transform="translate(55.609375 0)"/>
       <use xlink:href="#ArialMT-13" transform="translate(111.21875 0)"/>
      </g>
     </g>
    </g>
    <g id="xtick_3">
     <g id="line2d_3">
      <g>
       <use xlink:href="#m3133744127" x="182.359388" y="299.822656" style="stroke: #000000; stroke-width: 1.5"/>
      </g>
     </g>
     <g id="text_3">
      <!-- 400 -->
      <g transform="translate(170.681419 313.515039) scale(0.14 -0.14)">
       <defs>
        <path id="ArialMT-17" d="M 2069 0 
L 2069 1097 
L 81 1097 
L 81 1613 
L 2172 4581 
L 2631 4581 
L 2631 1613 
L 3250 1613 
L 3250 1097 
L 2631 1097 
L 2631 0 
L 2069 0 
z
M 2069 1613 
L 2069 3678 
L 634 1613 
L 2069 1613 
z
" transform="scale(0.015625)"/>
       </defs>
       <use xlink:href="#ArialMT-17"/>
       <use xlink:href="#ArialMT-13" transform="translate(55.609375 0)"/>
       <use xlink:href="#ArialMT-13" transform="translate(111.21875 0)"/>
      </g>
     </g>
    </g>
    <g id="xtick_4">
     <g id="line2d_4">
      <g>
       <use xlink:href="#m3133744127" x="243.239609" y="299.822656" style="stroke: #000000; stroke-width: 1.5"/>
      </g>
     </g>
     <g id="text_4">
      <!-- 600 -->
      <g transform="translate(231.561641 313.515039) scale(0.14 -0.14)">
       <defs>
        <path id="ArialMT-19" d="M 3184 3459 
L 2625 3416 
Q 2550 3747 2413 3897 
Q 2184 4138 1850 4138 
Q 1581 4138 1378 3988 
Q 1113 3794 959 3422 
Q 806 3050 800 2363 
Q 1003 2672 1297 2822 
Q 1591 2972 1913 2972 
Q 2475 2972 2870 2558 
Q 3266 2144 3266 1488 
Q 3266 1056 3080 686 
Q 2894 316 2569 119 
Q 2244 -78 1831 -78 
Q 1128 -78 684 439 
Q 241 956 241 2144 
Q 241 3472 731 4075 
Q 1159 4600 1884 4600 
Q 2425 4600 2770 4297 
Q 3116 3994 3184 3459 
z
M 888 1484 
Q 888 1194 1011 928 
Q 1134 663 1356 523 
Q 1578 384 1822 384 
Q 2178 384 2434 671 
Q 2691 959 2691 1453 
Q 2691 1928 2437 2201 
Q 2184 2475 1800 2475 
Q 1419 2475 1153 2201 
Q 888 1928 888 1484 
z
" transform="scale(0.015625)"/>
       </defs>
       <use xlink:href="#ArialMT-19"/>
       <use xlink:href="#ArialMT-13" transform="translate(55.609375 0)"/>
       <use xlink:href="#ArialMT-13" transform="translate(111.21875 0)"/>
      </g>
     </g>
    </g>
    <g id="xtick_5">
     <g id="line2d_5">
      <g>
       <use xlink:href="#m3133744127" x="304.119831" y="299.822656" style="stroke: #000000; stroke-width: 1.5"/>
      </g>
     </g>
     <g id="text_5">
      <!-- 800 -->
      <g transform="translate(292.441862 313.515039) scale(0.14 -0.14)">
       <defs>
        <path id="ArialMT-1b" d="M 1131 2484 
Q 781 2613 612 2850 
Q 444 3088 444 3419 
Q 444 3919 803 4259 
Q 1163 4600 1759 4600 
Q 2359 4600 2725 4251 
Q 3091 3903 3091 3403 
Q 3091 3084 2923 2848 
Q 2756 2613 2416 2484 
Q 2838 2347 3058 2040 
Q 3278 1734 3278 1309 
Q 3278 722 2862 322 
Q 2447 -78 1769 -78 
Q 1091 -78 675 323 
Q 259 725 259 1325 
Q 259 1772 486 2073 
Q 713 2375 1131 2484 
z
M 1019 3438 
Q 1019 3113 1228 2906 
Q 1438 2700 1772 2700 
Q 2097 2700 2305 2904 
Q 2513 3109 2513 3406 
Q 2513 3716 2298 3927 
Q 2084 4138 1766 4138 
Q 1444 4138 1231 3931 
Q 1019 3725 1019 3438 
z
M 838 1322 
Q 838 1081 952 856 
Q 1066 631 1291 507 
Q 1516 384 1775 384 
Q 2178 384 2440 643 
Q 2703 903 2703 1303 
Q 2703 1709 2433 1975 
Q 2163 2241 1756 2241 
Q 1359 2241 1098 1978 
Q 838 1716 838 1322 
z
" transform="scale(0.015625)"/>
       </defs>
       <use xlink:href="#ArialMT-1b"/>
       <use xlink:href="#ArialMT-13" transform="translate(55.609375 0)"/>
       <use xlink:href="#ArialMT-13" transform="translate(111.21875 0)"/>
      </g>
     </g>
    </g>
    <g id="xtick_6">
     <g id="line2d_6">
      <g>
       <use xlink:href="#m3133744127" x="365.000052" y="299.822656" style="stroke: #000000; stroke-width: 1.5"/>
      </g>
     </g>
     <g id="text_6">
      <!-- 1000 -->
      <g transform="translate(349.429427 313.515039) scale(0.14 -0.14)">
       <defs>
        <path id="ArialMT-14" d="M 2384 0 
L 1822 0 
L 1822 3584 
Q 1619 3391 1289 3197 
Q 959 3003 697 2906 
L 697 3450 
Q 1169 3672 1522 3987 
Q 1875 4303 2022 4600 
L 2384 4600 
L 2384 0 
z
" transform="scale(0.015625)"/>
       </defs>
       <use xlink:href="#ArialMT-14"/>
       <use xlink:href="#ArialMT-13" transform="translate(55.609375 0)"/>
       <use xlink:href="#ArialMT-13" transform="translate(111.21875 0)"/>
       <use xlink:href="#ArialMT-13" transform="translate(166.828125 0)"/>
      </g>
     </g>
    </g>
    <g id="xtick_7">
     <g id="line2d_7">
      <g>
       <use xlink:href="#m3133744127" x="425.880273" y="299.822656" style="stroke: #000000; stroke-width: 1.5"/>
      </g>
     </g>
     <g id="text_7">
      <!-- 1200 -->
      <g transform="translate(410.309648 313.515039) scale(0.14 -0.14)">
       <use xlink:href="#ArialMT-14"/>
       <use xlink:href="#ArialMT-15" transform="translate(55.609375 0)"/>
       <use xlink:href="#ArialMT-13" transform="translate(111.21875 0)"/>
       <use xlink:href="#ArialMT-13" transform="translate(166.828125 0)"/>
      </g>
     </g>
    </g>
    <g id="xtick_8">
     <g id="line2d_8">
      <defs>
       <path id="m733ad9820a" d="M 0 0 
L 0 -3 
" style="stroke: #000000"/>
      </defs>
      <g>
       <use xlink:href="#m733ad9820a" x="75.819001" y="299.822656" style="stroke: #000000"/>
      </g>
     </g>
    </g>
    <g id="xtick_9">
     <g id="line2d_9">
      <g>
       <use xlink:href="#m733ad9820a" x="91.039056" y="299.822656" style="stroke: #000000"/>
      </g>
     </g>
    </g>
    <g id="xtick_10">
     <g id="line2d_10">
      <g>
       <use xlink:href="#m733ad9820a" x="106.259111" y="299.822656" style="stroke: #000000"/>
      </g>
     </g>
    </g>
    <g id="xtick_11">
     <g id="line2d_11">
      <g>
       <use xlink:href="#m733ad9820a" x="136.699222" y="299.822656" style="stroke: #000000"/>
      </g>
     </g>
    </g>
    <g id="xtick_12">
     <g id="line2d_12">
      <g>
       <use xlink:href="#m733ad9820a" x="151.919277" y="299.822656" style="stroke: #000000"/>
      </g>
     </g>
    </g>
    <g id="xtick_13">
     <g id="line2d_13">
      <g>
       <use xlink:href="#m733ad9820a" x="167.139333" y="299.822656" style="stroke: #000000"/>
      </g>
     </g>
    </g>
    <g id="xtick_14">
     <g id="line2d_14">
      <g>
       <use xlink:href="#m733ad9820a" x="197.579443" y="299.822656" style="stroke: #000000"/>
      </g>
     </g>
    </g>
    <g id="xtick_15">
     <g id="line2d_15">
      <g>
       <use xlink:href="#m733ad9820a" x="212.799499" y="299.822656" style="stroke: #000000"/>
      </g>
     </g>
    </g>
    <g id="xtick_16">
     <g id="line2d_16">
      <g>
       <use xlink:href="#m733ad9820a" x="228.019554" y="299.822656" style="stroke: #000000"/>
      </g>
     </g>
    </g>
    <g id="xtick_17">
     <g id="line2d_17">
      <g>
       <use xlink:href="#m733ad9820a" x="258.459665" y="299.822656" style="stroke: #000000"/>
      </g>
     </g>
    </g>
    <g id="xtick_18">
     <g id="line2d_18">
      <g>
       <use xlink:href="#m733ad9820a" x="273.67972" y="299.822656" style="stroke: #000000"/>
      </g>
     </g>
    </g>
    <g id="xtick_19">
     <g id="line2d_19">
      <g>
       <use xlink:href="#m733ad9820a" x="288.899775" y="299.822656" style="stroke: #000000"/>
      </g>
     </g>
    </g>
    <g id="xtick_20">
     <g id="line2d_20">
      <g>
       <use xlink:href="#m733ad9820a" x="319.339886" y="299.822656" style="stroke: #000000"/>
      </g>
     </g>
    </g>
    <g id="xtick_21">
     <g id="line2d_21">
      <g>
       <use xlink:href="#m733ad9820a" x="334.559941" y="299.822656" style="stroke: #000000"/>
      </g>
     </g>
    </g>
    <g id="xtick_22">
     <g id="line2d_22">
      <g>
       <use xlink:href="#m733ad9820a" x="349.779997" y="299.822656" style="stroke: #000000"/>
      </g>
     </g>
    </g>
    <g id="xtick_23">
     <g id="line2d_23">
      <g>
       <use xlink:href="#m733ad9820a" x="380.220107" y="299.822656" style="stroke: #000000"/>
      </g>
     </g>
    </g>
    <g id="xtick_24">
     <g id="line2d_24">
      <g>
       <use xlink:href="#m733ad9820a" x="395.440163" y="299.822656" style="stroke: #000000"/>
      </g>
     </g>
    </g>
    <g id="xtick_25">
     <g id="line2d_25">
      <g>
       <use xlink:href="#m733ad9820a" x="410.660218" y="299.822656" style="stroke: #000000"/>
      </g>
     </g>
    </g>
    <g id="text_8">
     <!-- T1 Temperature (°C) -->
     <g transform="translate(179.500234 330.653711) scale(0.14 -0.14)">
      <defs>
       <path id="ArialMT-37" d="M 1659 0 
L 1659 4041 
L 150 4041 
L 150 4581 
L 3781 4581 
L 3781 4041 
L 2266 4041 
L 2266 0 
L 1659 0 
z
" transform="scale(0.015625)"/>
       <path id="ArialMT-3" transform="scale(0.015625)"/>
       <path id="ArialMT-48" d="M 2694 1069 
L 3275 997 
Q 3138 488 2766 206 
Q 2394 -75 1816 -75 
Q 1088 -75 661 373 
Q 234 822 234 1631 
Q 234 2469 665 2931 
Q 1097 3394 1784 3394 
Q 2450 3394 2872 2941 
Q 3294 2488 3294 1666 
Q 3294 1616 3291 1516 
L 816 1516 
Q 847 969 1125 678 
Q 1403 388 1819 388 
Q 2128 388 2347 550 
Q 2566 713 2694 1069 
z
M 847 1978 
L 2700 1978 
Q 2663 2397 2488 2606 
Q 2219 2931 1791 2931 
Q 1403 2931 1139 2672 
Q 875 2413 847 1978 
z
" transform="scale(0.015625)"/>
       <path id="ArialMT-50" d="M 422 0 
L 422 3319 
L 925 3319 
L 925 2853 
Q 1081 3097 1340 3245 
Q 1600 3394 1931 3394 
Q 2300 3394 2536 3241 
Q 2772 3088 2869 2813 
Q 3263 3394 3894 3394 
Q 4388 3394 4653 3120 
Q 4919 2847 4919 2278 
L 4919 0 
L 4359 0 
L 4359 2091 
Q 4359 2428 4304 2576 
Q 4250 2725 4106 2815 
Q 3963 2906 3769 2906 
Q 3419 2906 3187 2673 
Q 2956 2441 2956 1928 
L 2956 0 
L 2394 0 
L 2394 2156 
Q 2394 2531 2256 2718 
Q 2119 2906 1806 2906 
Q 1569 2906 1367 2781 
Q 1166 2656 1075 2415 
Q 984 2175 984 1722 
L 984 0 
L 422 0 
z
" transform="scale(0.015625)"/>
       <path id="ArialMT-53" d="M 422 -1272 
L 422 3319 
L 934 3319 
L 934 2888 
Q 1116 3141 1344 3267 
Q 1572 3394 1897 3394 
Q 2322 3394 2647 3175 
Q 2972 2956 3137 2557 
Q 3303 2159 3303 1684 
Q 3303 1175 3120 767 
Q 2938 359 2589 142 
Q 2241 -75 1856 -75 
Q 1575 -75 1351 44 
Q 1128 163 984 344 
L 984 -1272 
L 422 -1272 
z
M 931 1641 
Q 931 1000 1190 694 
Q 1450 388 1819 388 
Q 2194 388 2461 705 
Q 2728 1022 2728 1688 
Q 2728 2322 2467 2637 
Q 2206 2953 1844 2953 
Q 1484 2953 1207 2617 
Q 931 2281 931 1641 
z
" transform="scale(0.015625)"/>
       <path id="ArialMT-55" d="M 416 0 
L 416 3319 
L 922 3319 
L 922 2816 
Q 1116 3169 1280 3281 
Q 1444 3394 1641 3394 
Q 1925 3394 2219 3213 
L 2025 2691 
Q 1819 2813 1613 2813 
Q 1428 2813 1281 2702 
Q 1134 2591 1072 2394 
Q 978 2094 978 1738 
L 978 0 
L 416 0 
z
" transform="scale(0.015625)"/>
       <path id="ArialMT-44" d="M 2588 409 
Q 2275 144 1986 34 
Q 1697 -75 1366 -75 
Q 819 -75 525 192 
Q 231 459 231 875 
Q 231 1119 342 1320 
Q 453 1522 633 1644 
Q 813 1766 1038 1828 
Q 1203 1872 1538 1913 
Q 2219 1994 2541 2106 
Q 2544 2222 2544 2253 
Q 2544 2597 2384 2738 
Q 2169 2928 1744 2928 
Q 1347 2928 1158 2789 
Q 969 2650 878 2297 
L 328 2372 
Q 403 2725 575 2942 
Q 747 3159 1072 3276 
Q 1397 3394 1825 3394 
Q 2250 3394 2515 3294 
Q 2781 3194 2906 3042 
Q 3031 2891 3081 2659 
Q 3109 2516 3109 2141 
L 3109 1391 
Q 3109 606 3145 398 
Q 3181 191 3288 0 
L 2700 0 
Q 2613 175 2588 409 
z
M 2541 1666 
Q 2234 1541 1622 1453 
Q 1275 1403 1131 1340 
Q 988 1278 909 1158 
Q 831 1038 831 891 
Q 831 666 1001 516 
Q 1172 366 1500 366 
Q 1825 366 2078 508 
Q 2331 650 2450 897 
Q 2541 1088 2541 1459 
L 2541 1666 
z
" transform="scale(0.015625)"/>
       <path id="ArialMT-57" d="M 1650 503 
L 1731 6 
Q 1494 -44 1306 -44 
Q 1000 -44 831 53 
Q 663 150 594 308 
Q 525 466 525 972 
L 525 2881 
L 113 2881 
L 113 3319 
L 525 3319 
L 525 4141 
L 1084 4478 
L 1084 3319 
L 1650 3319 
L 1650 2881 
L 1084 2881 
L 1084 941 
Q 1084 700 1114 631 
Q 1144 563 1211 522 
Q 1278 481 1403 481 
Q 1497 481 1650 503 
z
" transform="scale(0.015625)"/>
       <path id="ArialMT-58" d="M 2597 0 
L 2597 488 
Q 2209 -75 1544 -75 
Q 1250 -75 995 37 
Q 741 150 617 320 
Q 494 491 444 738 
Q 409 903 409 1263 
L 409 3319 
L 972 3319 
L 972 1478 
Q 972 1038 1006 884 
Q 1059 663 1231 536 
Q 1403 409 1656 409 
Q 1909 409 2131 539 
Q 2353 669 2445 892 
Q 2538 1116 2538 1541 
L 2538 3319 
L 3100 3319 
L 3100 0 
L 2597 0 
z
" transform="scale(0.015625)"/>
       <path id="ArialMT-b" d="M 1497 -1347 
Q 1031 -759 709 28 
Q 388 816 388 1659 
Q 388 2403 628 3084 
Q 909 3875 1497 4659 
L 1900 4659 
Q 1522 4009 1400 3731 
Q 1209 3300 1100 2831 
Q 966 2247 966 1656 
Q 966 153 1900 -1347 
L 1497 -1347 
z
" transform="scale(0.015625)"/>
       <path id="ArialMT-83" d="M 400 3794 
Q 400 4153 654 4406 
Q 909 4659 1266 4659 
Q 1628 4659 1881 4406 
Q 2134 4153 2134 3794 
Q 2134 3434 1879 3179 
Q 1625 2925 1266 2925 
Q 909 2925 654 3178 
Q 400 3431 400 3794 
z
M 741 3794 
Q 741 3575 895 3420 
Q 1050 3266 1269 3266 
Q 1484 3266 1639 3420 
Q 1794 3575 1794 3794 
Q 1794 4013 1639 4167 
Q 1484 4322 1269 4322 
Q 1050 4322 895 4167 
Q 741 4013 741 3794 
z
" transform="scale(0.015625)"/>
       <path id="ArialMT-26" d="M 3763 1606 
L 4369 1453 
Q 4178 706 3683 314 
Q 3188 -78 2472 -78 
Q 1731 -78 1267 223 
Q 803 525 561 1097 
Q 319 1669 319 2325 
Q 319 3041 592 3573 
Q 866 4106 1370 4382 
Q 1875 4659 2481 4659 
Q 3169 4659 3637 4309 
Q 4106 3959 4291 3325 
L 3694 3184 
Q 3534 3684 3231 3912 
Q 2928 4141 2469 4141 
Q 1941 4141 1586 3887 
Q 1231 3634 1087 3207 
Q 944 2781 944 2328 
Q 944 1744 1114 1308 
Q 1284 872 1643 656 
Q 2003 441 2422 441 
Q 2931 441 3284 734 
Q 3638 1028 3763 1606 
z
" transform="scale(0.015625)"/>
       <path id="ArialMT-c" d="M 791 -1347 
L 388 -1347 
Q 1322 153 1322 1656 
Q 1322 2244 1188 2822 
Q 1081 3291 891 3722 
Q 769 4003 388 4659 
L 791 4659 
Q 1378 3875 1659 3084 
Q 1900 2403 1900 1659 
Q 1900 816 1576 28 
Q 1253 -759 791 -1347 
z
" transform="scale(0.015625)"/>
      </defs>
      <use xlink:href="#ArialMT-37"/>
      <use xlink:href="#ArialMT-14" transform="translate(61.078125 0)"/>
      <use xlink:href="#ArialMT-3" transform="translate(116.6875 0)"/>
      <use xlink:href="#ArialMT-37" transform="translate(142.65625 0)"/>
      <use xlink:href="#ArialMT-48" transform="translate(192.65625 0)"/>
      <use xlink:href="#ArialMT-50" transform="translate(248.265625 0)"/>
      <use xlink:href="#ArialMT-53" transform="translate(331.5625 0)"/>
      <use xlink:href="#ArialMT-48" transform="translate(387.171875 0)"/>
      <use xlink:href="#ArialMT-55" transform="translate(442.78125 0)"/>
      <use xlink:href="#ArialMT-44" transform="translate(476.078125 0)"/>
      <use xlink:href="#ArialMT-57" transform="translate(531.6875 0)"/>
      <use xlink:href="#ArialMT-58" transform="translate(559.46875 0)"/>
      <use xlink:href="#ArialMT-55" transform="translate(615.078125 0)"/>
      <use xlink:href="#ArialMT-48" transform="translate(648.375 0)"/>
      <use xlink:href="#ArialMT-3" transform="translate(703.984375 0)"/>
      <use xlink:href="#ArialMT-b" transform="translate(731.765625 0)"/>
      <use xlink:href="#ArialMT-83" transform="translate(765.0625 0)"/>
      <use xlink:href="#ArialMT-26" transform="translate(805.046875 0)"/>
      <use xlink:href="#ArialMT-c" transform="translate(877.265625 0)"/>
     </g>
    </g>
   </g>
   <g id="matplotlib.axis_2">
    <g id="ytick_1">
     <g id="line2d_26">
      <defs>
       <path id="m19a93effe9" d="M 0 0 
L 6 0 
" style="stroke: #000000; stroke-width: 1.5"/>
      </defs>
      <g>
       <use xlink:href="#m19a93effe9" x="60.598945" y="286.521626" style="stroke: #000000; stroke-width: 1.5"/>
      </g>
     </g>
     <g id="text_9">
      <!-- $\mathdefault{10^{-20}}$ -->
      <g transform="translate(24.338945 292.961626) scale(0.14 -0.14)">
       <defs>
        <path id="ArialMT-ed" d="M 3381 1997 
L 356 1997 
L 356 2522 
L 3381 2522 
L 3381 1997 
z
" transform="scale(0.015625)"/>
       </defs>
       <use xlink:href="#ArialMT-14" transform="translate(0 0.3875)"/>
       <use xlink:href="#ArialMT-13" transform="translate(55.615234 0.3875)"/>
       <use xlink:href="#ArialMT-ed" transform="translate(112.1875 41.6875) scale(0.7)"/>
       <use xlink:href="#ArialMT-15" transform="translate(153.066406 41.6875) scale(0.7)"/>
       <use xlink:href="#ArialMT-13" transform="translate(191.99707 41.6875) scale(0.7)"/>
      </g>
     </g>
    </g>
    <g id="ytick_2">
     <g id="line2d_27">
      <g>
       <use xlink:href="#m19a93effe9" x="60.598945" y="252.757684" style="stroke: #000000; stroke-width: 1.5"/>
      </g>
     </g>
     <g id="text_10">
      <!-- $\mathdefault{10^{-19}}$ -->
      <g transform="translate(24.338945 259.197684) scale(0.14 -0.14)">
       <defs>
        <path id="ArialMT-1c" d="M 350 1059 
L 891 1109 
Q 959 728 1153 556 
Q 1347 384 1650 384 
Q 1909 384 2104 503 
Q 2300 622 2425 820 
Q 2550 1019 2634 1356 
Q 2719 1694 2719 2044 
Q 2719 2081 2716 2156 
Q 2547 1888 2255 1720 
Q 1963 1553 1622 1553 
Q 1053 1553 659 1965 
Q 266 2378 266 3053 
Q 266 3750 677 4175 
Q 1088 4600 1706 4600 
Q 2153 4600 2523 4359 
Q 2894 4119 3086 3673 
Q 3278 3228 3278 2384 
Q 3278 1506 3087 986 
Q 2897 466 2520 194 
Q 2144 -78 1638 -78 
Q 1100 -78 759 220 
Q 419 519 350 1059 
z
M 2653 3081 
Q 2653 3566 2395 3850 
Q 2138 4134 1775 4134 
Q 1400 4134 1122 3828 
Q 844 3522 844 3034 
Q 844 2597 1108 2323 
Q 1372 2050 1759 2050 
Q 2150 2050 2401 2323 
Q 2653 2597 2653 3081 
z
" transform="scale(0.015625)"/>
       </defs>
       <use xlink:href="#ArialMT-14" transform="translate(0 0.3875)"/>
       <use xlink:href="#ArialMT-13" transform="translate(55.615234 0.3875)"/>
       <use xlink:href="#ArialMT-ed" transform="translate(112.1875 41.6875) scale(0.7)"/>
       <use xlink:href="#ArialMT-14" transform="translate(153.066406 41.6875) scale(0.7)"/>
       <use xlink:href="#ArialMT-1c" transform="translate(191.99707 41.6875) scale(0.7)"/>
      </g>
     </g>
    </g>
    <g id="ytick_3">
     <g id="line2d_28">
      <g>
       <use xlink:href="#m19a93effe9" x="60.598945" y="218.993741" style="stroke: #000000; stroke-width: 1.5"/>
      </g>
     </g>
     <g id="text_11">
      <!-- $\mathdefault{10^{-18}}$ -->
      <g transform="translate(24.338945 225.433741) scale(0.14 -0.14)">
       <use xlink:href="#ArialMT-14" transform="translate(0 0.3875)"/>
       <use xlink:href="#ArialMT-13" transform="translate(55.615234 0.3875)"/>
       <use xlink:href="#ArialMT-ed" transform="translate(112.1875 41.6875) scale(0.7)"/>
       <use xlink:href="#ArialMT-14" transform="translate(153.066406 41.6875) scale(0.7)"/>
       <use xlink:href="#ArialMT-1b" transform="translate(191.99707 41.6875) scale(0.7)"/>
      </g>
     </g>
    </g>
    <g id="ytick_4">
     <g id="line2d_29">
      <g>
       <use xlink:href="#m19a93effe9" x="60.598945" y="185.229799" style="stroke: #000000; stroke-width: 1.5"/>
      </g>
     </g>
     <g id="text_12">
      <!-- $\mathdefault{10^{-17}}$ -->
      <g transform="translate(24.338945 191.669799) scale(0.14 -0.14)">
       <defs>
        <path id="ArialMT-1a" d="M 303 3981 
L 303 4522 
L 3269 4522 
L 3269 4084 
Q 2831 3619 2401 2847 
Q 1972 2075 1738 1259 
Q 1569 684 1522 0 
L 944 0 
Q 953 541 1156 1306 
Q 1359 2072 1739 2783 
Q 2119 3494 2547 3981 
L 303 3981 
z
" transform="scale(0.015625)"/>
       </defs>
       <use xlink:href="#ArialMT-14" transform="translate(0 0.3875)"/>
       <use xlink:href="#ArialMT-13" transform="translate(55.615234 0.3875)"/>
       <use xlink:href="#ArialMT-ed" transform="translate(112.1875 41.6875) scale(0.7)"/>
       <use xlink:href="#ArialMT-14" transform="translate(153.066406 41.6875) scale(0.7)"/>
       <use xlink:href="#ArialMT-1a" transform="translate(191.99707 41.6875) scale(0.7)"/>
      </g>
     </g>
    </g>
    <g id="ytick_5">
     <g id="line2d_30">
      <g>
       <use xlink:href="#m19a93effe9" x="60.598945" y="151.465856" style="stroke: #000000; stroke-width: 1.5"/>
      </g>
     </g>
     <g id="text_13">
      <!-- $\mathdefault{10^{-16}}$ -->
      <g transform="translate(24.338945 157.905856) scale(0.14 -0.14)">
       <use xlink:href="#ArialMT-14" transform="translate(0 0.3875)"/>
       <use xlink:href="#ArialMT-13" transform="translate(55.615234 0.3875)"/>
       <use xlink:href="#ArialMT-ed" transform="translate(112.1875 41.6875) scale(0.7)"/>
       <use xlink:href="#ArialMT-14" transform="translate(153.066406 41.6875) scale(0.7)"/>
       <use xlink:href="#ArialMT-19" transform="translate(191.99707 41.6875) scale(0.7)"/>
      </g>
     </g>
    </g>
    <g id="ytick_6">
     <g id="line2d_31">
      <g>
       <use xlink:href="#m19a93effe9" x="60.598945" y="117.701914" style="stroke: #000000; stroke-width: 1.5"/>
      </g>
     </g>
     <g id="text_14">
      <!-- $\mathdefault{10^{-15}}$ -->
      <g transform="translate(24.338945 124.141914) scale(0.14 -0.14)">
       <defs>
        <path id="ArialMT-18" d="M 266 1200 
L 856 1250 
Q 922 819 1161 601 
Q 1400 384 1738 384 
Q 2144 384 2425 690 
Q 2706 997 2706 1503 
Q 2706 1984 2436 2262 
Q 2166 2541 1728 2541 
Q 1456 2541 1237 2417 
Q 1019 2294 894 2097 
L 366 2166 
L 809 4519 
L 3088 4519 
L 3088 3981 
L 1259 3981 
L 1013 2750 
Q 1425 3038 1878 3038 
Q 2478 3038 2890 2622 
Q 3303 2206 3303 1553 
Q 3303 931 2941 478 
Q 2500 -78 1738 -78 
Q 1113 -78 717 272 
Q 322 622 266 1200 
z
" transform="scale(0.015625)"/>
       </defs>
       <use xlink:href="#ArialMT-14" transform="translate(0 0.3875)"/>
       <use xlink:href="#ArialMT-13" transform="translate(55.615234 0.3875)"/>
       <use xlink:href="#ArialMT-ed" transform="translate(112.1875 41.6875) scale(0.7)"/>
       <use xlink:href="#ArialMT-14" transform="translate(153.066406 41.6875) scale(0.7)"/>
       <use xlink:href="#ArialMT-18" transform="translate(191.99707 41.6875) scale(0.7)"/>
      </g>
     </g>
    </g>
    <g id="ytick_7">
     <g id="line2d_32">
      <g>
       <use xlink:href="#m19a93effe9" x="60.598945" y="83.937971" style="stroke: #000000; stroke-width: 1.5"/>
      </g>
     </g>
     <g id="text_15">
      <!-- $\mathdefault{10^{-14}}$ -->
      <g transform="translate(24.338945 90.377971) scale(0.14 -0.14)">
       <use xlink:href="#ArialMT-14" transform="translate(0 0.3875)"/>
       <use xlink:href="#ArialMT-13" transform="translate(55.615234 0.3875)"/>
       <use xlink:href="#ArialMT-ed" transform="translate(112.1875 41.6875) scale(0.7)"/>
       <use xlink:href="#ArialMT-14" transform="translate(153.066406 41.6875) scale(0.7)"/>
       <use xlink:href="#ArialMT-17" transform="translate(191.99707 41.6875) scale(0.7)"/>
      </g>
     </g>
    </g>
    <g id="ytick_8">
     <g id="line2d_33">
      <g>
       <use xlink:href="#m19a93effe9" x="60.598945" y="50.174029" style="stroke: #000000; stroke-width: 1.5"/>
      </g>
     </g>
     <g id="text_16">
      <!-- $\mathdefault{10^{-13}}$ -->
      <g transform="translate(24.338945 56.614029) scale(0.14 -0.14)">
       <defs>
        <path id="ArialMT-16" d="M 269 1209 
L 831 1284 
Q 928 806 1161 595 
Q 1394 384 1728 384 
Q 2125 384 2398 659 
Q 2672 934 2672 1341 
Q 2672 1728 2419 1979 
Q 2166 2231 1775 2231 
Q 1616 2231 1378 2169 
L 1441 2663 
Q 1497 2656 1531 2656 
Q 1891 2656 2178 2843 
Q 2466 3031 2466 3422 
Q 2466 3731 2256 3934 
Q 2047 4138 1716 4138 
Q 1388 4138 1169 3931 
Q 950 3725 888 3313 
L 325 3413 
Q 428 3978 793 4289 
Q 1159 4600 1703 4600 
Q 2078 4600 2393 4439 
Q 2709 4278 2876 4000 
Q 3044 3722 3044 3409 
Q 3044 3113 2884 2869 
Q 2725 2625 2413 2481 
Q 2819 2388 3044 2092 
Q 3269 1797 3269 1353 
Q 3269 753 2831 336 
Q 2394 -81 1725 -81 
Q 1122 -81 723 278 
Q 325 638 269 1209 
z
" transform="scale(0.015625)"/>
       </defs>
       <use xlink:href="#ArialMT-14" transform="translate(0 0.3875)"/>
       <use xlink:href="#ArialMT-13" transform="translate(55.615234 0.3875)"/>
       <use xlink:href="#ArialMT-ed" transform="translate(112.1875 41.6875) scale(0.7)"/>
       <use xlink:href="#ArialMT-14" transform="translate(153.066406 41.6875) scale(0.7)"/>
       <use xlink:href="#ArialMT-16" transform="translate(191.99707 41.6875) scale(0.7)"/>
      </g>
     </g>
    </g>
    <g id="ytick_9">
     <g id="line2d_34">
      <g>
       <use xlink:href="#m19a93effe9" x="60.598945" y="16.410087" style="stroke: #000000; stroke-width: 1.5"/>
      </g>
     </g>
     <g id="text_17">
      <!-- $\mathdefault{10^{-12}}$ -->
      <g transform="translate(24.338945 22.850087) scale(0.14 -0.14)">
       <use xlink:href="#ArialMT-14" transform="translate(0 0.3875)"/>
       <use xlink:href="#ArialMT-13" transform="translate(55.615234 0.3875)"/>
       <use xlink:href="#ArialMT-ed" transform="translate(112.1875 41.6875) scale(0.7)"/>
       <use xlink:href="#ArialMT-14" transform="translate(153.066406 41.6875) scale(0.7)"/>
       <use xlink:href="#ArialMT-15" transform="translate(191.99707 41.6875) scale(0.7)"/>
      </g>
     </g>
    </g>
    <g id="ytick_10">
     <g id="line2d_35">
      <defs>
       <path id="ma51d416aa0" d="M 0 0 
L 3 0 
" style="stroke: #000000"/>
      </defs>
      <g>
       <use xlink:href="#ma51d416aa0" x="60.598945" y="296.685586" style="stroke: #000000"/>
      </g>
     </g>
    </g>
    <g id="ytick_11">
     <g id="line2d_36">
      <g>
       <use xlink:href="#ma51d416aa0" x="60.598945" y="294.012115" style="stroke: #000000"/>
      </g>
     </g>
    </g>
    <g id="ytick_12">
     <g id="line2d_37">
      <g>
       <use xlink:href="#ma51d416aa0" x="60.598945" y="291.751727" style="stroke: #000000"/>
      </g>
     </g>
    </g>
    <g id="ytick_13">
     <g id="line2d_38">
      <g>
       <use xlink:href="#ma51d416aa0" x="60.598945" y="289.793691" style="stroke: #000000"/>
      </g>
     </g>
    </g>
    <g id="ytick_14">
     <g id="line2d_39">
      <g>
       <use xlink:href="#ma51d416aa0" x="60.598945" y="288.06658" style="stroke: #000000"/>
      </g>
     </g>
    </g>
    <g id="ytick_15">
     <g id="line2d_40">
      <g>
       <use xlink:href="#ma51d416aa0" x="60.598945" y="276.357667" style="stroke: #000000"/>
      </g>
     </g>
    </g>
    <g id="ytick_16">
     <g id="line2d_41">
      <g>
       <use xlink:href="#ma51d416aa0" x="60.598945" y="270.412132" style="stroke: #000000"/>
      </g>
     </g>
    </g>
    <g id="ytick_17">
     <g id="line2d_42">
      <g>
       <use xlink:href="#ma51d416aa0" x="60.598945" y="266.193707" style="stroke: #000000"/>
      </g>
     </g>
    </g>
    <g id="ytick_18">
     <g id="line2d_43">
      <g>
       <use xlink:href="#ma51d416aa0" x="60.598945" y="262.921643" style="stroke: #000000"/>
      </g>
     </g>
    </g>
    <g id="ytick_19">
     <g id="line2d_44">
      <g>
       <use xlink:href="#ma51d416aa0" x="60.598945" y="260.248172" style="stroke: #000000"/>
      </g>
     </g>
    </g>
    <g id="ytick_20">
     <g id="line2d_45">
      <g>
       <use xlink:href="#ma51d416aa0" x="60.598945" y="257.987785" style="stroke: #000000"/>
      </g>
     </g>
    </g>
    <g id="ytick_21">
     <g id="line2d_46">
      <g>
       <use xlink:href="#ma51d416aa0" x="60.598945" y="256.029748" style="stroke: #000000"/>
      </g>
     </g>
    </g>
    <g id="ytick_22">
     <g id="line2d_47">
      <g>
       <use xlink:href="#ma51d416aa0" x="60.598945" y="254.302637" style="stroke: #000000"/>
      </g>
     </g>
    </g>
    <g id="ytick_23">
     <g id="line2d_48">
      <g>
       <use xlink:href="#ma51d416aa0" x="60.598945" y="242.593724" style="stroke: #000000"/>
      </g>
     </g>
    </g>
    <g id="ytick_24">
     <g id="line2d_49">
      <g>
       <use xlink:href="#ma51d416aa0" x="60.598945" y="236.648189" style="stroke: #000000"/>
      </g>
     </g>
    </g>
    <g id="ytick_25">
     <g id="line2d_50">
      <g>
       <use xlink:href="#ma51d416aa0" x="60.598945" y="232.429765" style="stroke: #000000"/>
      </g>
     </g>
    </g>
    <g id="ytick_26">
     <g id="line2d_51">
      <g>
       <use xlink:href="#ma51d416aa0" x="60.598945" y="229.157701" style="stroke: #000000"/>
      </g>
     </g>
    </g>
    <g id="ytick_27">
     <g id="line2d_52">
      <g>
       <use xlink:href="#ma51d416aa0" x="60.598945" y="226.48423" style="stroke: #000000"/>
      </g>
     </g>
    </g>
    <g id="ytick_28">
     <g id="line2d_53">
      <g>
       <use xlink:href="#ma51d416aa0" x="60.598945" y="224.223842" style="stroke: #000000"/>
      </g>
     </g>
    </g>
    <g id="ytick_29">
     <g id="line2d_54">
      <g>
       <use xlink:href="#ma51d416aa0" x="60.598945" y="222.265806" style="stroke: #000000"/>
      </g>
     </g>
    </g>
    <g id="ytick_30">
     <g id="line2d_55">
      <g>
       <use xlink:href="#ma51d416aa0" x="60.598945" y="220.538695" style="stroke: #000000"/>
      </g>
     </g>
    </g>
    <g id="ytick_31">
     <g id="line2d_56">
      <g>
       <use xlink:href="#ma51d416aa0" x="60.598945" y="208.829782" style="stroke: #000000"/>
      </g>
     </g>
    </g>
    <g id="ytick_32">
     <g id="line2d_57">
      <g>
       <use xlink:href="#ma51d416aa0" x="60.598945" y="202.884247" style="stroke: #000000"/>
      </g>
     </g>
    </g>
    <g id="ytick_33">
     <g id="line2d_58">
      <g>
       <use xlink:href="#ma51d416aa0" x="60.598945" y="198.665823" style="stroke: #000000"/>
      </g>
     </g>
    </g>
    <g id="ytick_34">
     <g id="line2d_59">
      <g>
       <use xlink:href="#ma51d416aa0" x="60.598945" y="195.393758" style="stroke: #000000"/>
      </g>
     </g>
    </g>
    <g id="ytick_35">
     <g id="line2d_60">
      <g>
       <use xlink:href="#ma51d416aa0" x="60.598945" y="192.720287" style="stroke: #000000"/>
      </g>
     </g>
    </g>
    <g id="ytick_36">
     <g id="line2d_61">
      <g>
       <use xlink:href="#ma51d416aa0" x="60.598945" y="190.4599" style="stroke: #000000"/>
      </g>
     </g>
    </g>
    <g id="ytick_37">
     <g id="line2d_62">
      <g>
       <use xlink:href="#ma51d416aa0" x="60.598945" y="188.501863" style="stroke: #000000"/>
      </g>
     </g>
    </g>
    <g id="ytick_38">
     <g id="line2d_63">
      <g>
       <use xlink:href="#ma51d416aa0" x="60.598945" y="186.774752" style="stroke: #000000"/>
      </g>
     </g>
    </g>
    <g id="ytick_39">
     <g id="line2d_64">
      <g>
       <use xlink:href="#ma51d416aa0" x="60.598945" y="175.065839" style="stroke: #000000"/>
      </g>
     </g>
    </g>
    <g id="ytick_40">
     <g id="line2d_65">
      <g>
       <use xlink:href="#ma51d416aa0" x="60.598945" y="169.120304" style="stroke: #000000"/>
      </g>
     </g>
    </g>
    <g id="ytick_41">
     <g id="line2d_66">
      <g>
       <use xlink:href="#ma51d416aa0" x="60.598945" y="164.90188" style="stroke: #000000"/>
      </g>
     </g>
    </g>
    <g id="ytick_42">
     <g id="line2d_67">
      <g>
       <use xlink:href="#ma51d416aa0" x="60.598945" y="161.629816" style="stroke: #000000"/>
      </g>
     </g>
    </g>
    <g id="ytick_43">
     <g id="line2d_68">
      <g>
       <use xlink:href="#ma51d416aa0" x="60.598945" y="158.956345" style="stroke: #000000"/>
      </g>
     </g>
    </g>
    <g id="ytick_44">
     <g id="line2d_69">
      <g>
       <use xlink:href="#ma51d416aa0" x="60.598945" y="156.695957" style="stroke: #000000"/>
      </g>
     </g>
    </g>
    <g id="ytick_45">
     <g id="line2d_70">
      <g>
       <use xlink:href="#ma51d416aa0" x="60.598945" y="154.737921" style="stroke: #000000"/>
      </g>
     </g>
    </g>
    <g id="ytick_46">
     <g id="line2d_71">
      <g>
       <use xlink:href="#ma51d416aa0" x="60.598945" y="153.01081" style="stroke: #000000"/>
      </g>
     </g>
    </g>
    <g id="ytick_47">
     <g id="line2d_72">
      <g>
       <use xlink:href="#ma51d416aa0" x="60.598945" y="141.301897" style="stroke: #000000"/>
      </g>
     </g>
    </g>
    <g id="ytick_48">
     <g id="line2d_73">
      <g>
       <use xlink:href="#ma51d416aa0" x="60.598945" y="135.356362" style="stroke: #000000"/>
      </g>
     </g>
    </g>
    <g id="ytick_49">
     <g id="line2d_74">
      <g>
       <use xlink:href="#ma51d416aa0" x="60.598945" y="131.137938" style="stroke: #000000"/>
      </g>
     </g>
    </g>
    <g id="ytick_50">
     <g id="line2d_75">
      <g>
       <use xlink:href="#ma51d416aa0" x="60.598945" y="127.865873" style="stroke: #000000"/>
      </g>
     </g>
    </g>
    <g id="ytick_51">
     <g id="line2d_76">
      <g>
       <use xlink:href="#ma51d416aa0" x="60.598945" y="125.192402" style="stroke: #000000"/>
      </g>
     </g>
    </g>
    <g id="ytick_52">
     <g id="line2d_77">
      <g>
       <use xlink:href="#ma51d416aa0" x="60.598945" y="122.932015" style="stroke: #000000"/>
      </g>
     </g>
    </g>
    <g id="ytick_53">
     <g id="line2d_78">
      <g>
       <use xlink:href="#ma51d416aa0" x="60.598945" y="120.973978" style="stroke: #000000"/>
      </g>
     </g>
    </g>
    <g id="ytick_54">
     <g id="line2d_79">
      <g>
       <use xlink:href="#ma51d416aa0" x="60.598945" y="119.246867" style="stroke: #000000"/>
      </g>
     </g>
    </g>
    <g id="ytick_55">
     <g id="line2d_80">
      <g>
       <use xlink:href="#ma51d416aa0" x="60.598945" y="107.537955" style="stroke: #000000"/>
      </g>
     </g>
    </g>
    <g id="ytick_56">
     <g id="line2d_81">
      <g>
       <use xlink:href="#ma51d416aa0" x="60.598945" y="101.592419" style="stroke: #000000"/>
      </g>
     </g>
    </g>
    <g id="ytick_57">
     <g id="line2d_82">
      <g>
       <use xlink:href="#ma51d416aa0" x="60.598945" y="97.373995" style="stroke: #000000"/>
      </g>
     </g>
    </g>
    <g id="ytick_58">
     <g id="line2d_83">
      <g>
       <use xlink:href="#ma51d416aa0" x="60.598945" y="94.101931" style="stroke: #000000"/>
      </g>
     </g>
    </g>
    <g id="ytick_59">
     <g id="line2d_84">
      <g>
       <use xlink:href="#ma51d416aa0" x="60.598945" y="91.42846" style="stroke: #000000"/>
      </g>
     </g>
    </g>
    <g id="ytick_60">
     <g id="line2d_85">
      <g>
       <use xlink:href="#ma51d416aa0" x="60.598945" y="89.168072" style="stroke: #000000"/>
      </g>
     </g>
    </g>
    <g id="ytick_61">
     <g id="line2d_86">
      <g>
       <use xlink:href="#ma51d416aa0" x="60.598945" y="87.210036" style="stroke: #000000"/>
      </g>
     </g>
    </g>
    <g id="ytick_62">
     <g id="line2d_87">
      <g>
       <use xlink:href="#ma51d416aa0" x="60.598945" y="85.482925" style="stroke: #000000"/>
      </g>
     </g>
    </g>
    <g id="ytick_63">
     <g id="line2d_88">
      <g>
       <use xlink:href="#ma51d416aa0" x="60.598945" y="73.774012" style="stroke: #000000"/>
      </g>
     </g>
    </g>
    <g id="ytick_64">
     <g id="line2d_89">
      <g>
       <use xlink:href="#ma51d416aa0" x="60.598945" y="67.828477" style="stroke: #000000"/>
      </g>
     </g>
    </g>
    <g id="ytick_65">
     <g id="line2d_90">
      <g>
       <use xlink:href="#ma51d416aa0" x="60.598945" y="63.610053" style="stroke: #000000"/>
      </g>
     </g>
    </g>
    <g id="ytick_66">
     <g id="line2d_91">
      <g>
       <use xlink:href="#ma51d416aa0" x="60.598945" y="60.337988" style="stroke: #000000"/>
      </g>
     </g>
    </g>
    <g id="ytick_67">
     <g id="line2d_92">
      <g>
       <use xlink:href="#ma51d416aa0" x="60.598945" y="57.664517" style="stroke: #000000"/>
      </g>
     </g>
    </g>
    <g id="ytick_68">
     <g id="line2d_93">
      <g>
       <use xlink:href="#ma51d416aa0" x="60.598945" y="55.40413" style="stroke: #000000"/>
      </g>
     </g>
    </g>
    <g id="ytick_69">
     <g id="line2d_94">
      <g>
       <use xlink:href="#ma51d416aa0" x="60.598945" y="53.446093" style="stroke: #000000"/>
      </g>
     </g>
    </g>
    <g id="ytick_70">
     <g id="line2d_95">
      <g>
       <use xlink:href="#ma51d416aa0" x="60.598945" y="51.718982" style="stroke: #000000"/>
      </g>
     </g>
    </g>
    <g id="ytick_71">
     <g id="line2d_96">
      <g>
       <use xlink:href="#ma51d416aa0" x="60.598945" y="40.01007" style="stroke: #000000"/>
      </g>
     </g>
    </g>
    <g id="ytick_72">
     <g id="line2d_97">
      <g>
       <use xlink:href="#ma51d416aa0" x="60.598945" y="34.064534" style="stroke: #000000"/>
      </g>
     </g>
    </g>
    <g id="ytick_73">
     <g id="line2d_98">
      <g>
       <use xlink:href="#ma51d416aa0" x="60.598945" y="29.84611" style="stroke: #000000"/>
      </g>
     </g>
    </g>
    <g id="ytick_74">
     <g id="line2d_99">
      <g>
       <use xlink:href="#ma51d416aa0" x="60.598945" y="26.574046" style="stroke: #000000"/>
      </g>
     </g>
    </g>
    <g id="ytick_75">
     <g id="line2d_100">
      <g>
       <use xlink:href="#ma51d416aa0" x="60.598945" y="23.900575" style="stroke: #000000"/>
      </g>
     </g>
    </g>
    <g id="ytick_76">
     <g id="line2d_101">
      <g>
       <use xlink:href="#ma51d416aa0" x="60.598945" y="21.640187" style="stroke: #000000"/>
      </g>
     </g>
    </g>
    <g id="ytick_77">
     <g id="line2d_102">
      <g>
       <use xlink:href="#ma51d416aa0" x="60.598945" y="19.682151" style="stroke: #000000"/>
      </g>
     </g>
    </g>
    <g id="ytick_78">
     <g id="line2d_103">
      <g>
       <use xlink:href="#ma51d416aa0" x="60.598945" y="17.95504" style="stroke: #000000"/>
      </g>
     </g>
    </g>
    <g id="text_18">
     <!-- Ion Current (m/z 32) -->
     <g transform="translate(17.392383 216.137266) rotate(-90) scale(0.14 -0.14)">
      <defs>
       <path id="ArialMT-2c" d="M 597 0 
L 597 4581 
L 1203 4581 
L 1203 0 
L 597 0 
z
" transform="scale(0.015625)"/>
       <path id="ArialMT-52" d="M 213 1659 
Q 213 2581 725 3025 
Q 1153 3394 1769 3394 
Q 2453 3394 2887 2945 
Q 3322 2497 3322 1706 
Q 3322 1066 3130 698 
Q 2938 331 2570 128 
Q 2203 -75 1769 -75 
Q 1072 -75 642 372 
Q 213 819 213 1659 
z
M 791 1659 
Q 791 1022 1069 705 
Q 1347 388 1769 388 
Q 2188 388 2466 706 
Q 2744 1025 2744 1678 
Q 2744 2294 2464 2611 
Q 2184 2928 1769 2928 
Q 1347 2928 1069 2612 
Q 791 2297 791 1659 
z
" transform="scale(0.015625)"/>
       <path id="ArialMT-51" d="M 422 0 
L 422 3319 
L 928 3319 
L 928 2847 
Q 1294 3394 1984 3394 
Q 2284 3394 2536 3286 
Q 2788 3178 2913 3003 
Q 3038 2828 3088 2588 
Q 3119 2431 3119 2041 
L 3119 0 
L 2556 0 
L 2556 2019 
Q 2556 2363 2490 2533 
Q 2425 2703 2258 2804 
Q 2091 2906 1866 2906 
Q 1506 2906 1245 2678 
Q 984 2450 984 1813 
L 984 0 
L 422 0 
z
" transform="scale(0.015625)"/>
       <path id="ArialMT-12" d="M 0 -78 
L 1328 4659 
L 1778 4659 
L 453 -78 
L 0 -78 
z
" transform="scale(0.015625)"/>
       <path id="ArialMT-5d" d="M 125 0 
L 125 456 
L 2238 2881 
Q 1878 2863 1603 2863 
L 250 2863 
L 250 3319 
L 2963 3319 
L 2963 2947 
L 1166 841 
L 819 456 
Q 1197 484 1528 484 
L 3063 484 
L 3063 0 
L 125 0 
z
" transform="scale(0.015625)"/>
      </defs>
      <use xlink:href="#ArialMT-2c"/>
      <use xlink:href="#ArialMT-52" transform="translate(27.78125 0)"/>
      <use xlink:href="#ArialMT-51" transform="translate(83.390625 0)"/>
      <use xlink:href="#ArialMT-3" transform="translate(139 0)"/>
      <use xlink:href="#ArialMT-26" transform="translate(166.78125 0)"/>
      <use xlink:href="#ArialMT-58" transform="translate(239 0)"/>
      <use xlink:href="#ArialMT-55" transform="translate(294.609375 0)"/>
      <use xlink:href="#ArialMT-55" transform="translate(327.90625 0)"/>
      <use xlink:href="#ArialMT-48" transform="translate(361.203125 0)"/>
      <use xlink:href="#ArialMT-51" transform="translate(416.8125 0)"/>
      <use xlink:href="#ArialMT-57" transform="translate(472.421875 0)"/>
      <use xlink:href="#ArialMT-3" transform="translate(500.203125 0)"/>
      <use xlink:href="#ArialMT-b" transform="translate(527.984375 0)"/>
      <use xlink:href="#ArialMT-50" transform="translate(561.28125 0)"/>
      <use xlink:href="#ArialMT-12" transform="translate(644.578125 0)"/>
      <use xlink:href="#ArialMT-5d" transform="translate(672.359375 0)"/>
      <use xlink:href="#ArialMT-3" transform="translate(722.359375 0)"/>
      <use xlink:href="#ArialMT-16" transform="translate(750.140625 0)"/>
      <use xlink:href="#ArialMT-15" transform="translate(805.75 0)"/>
      <use xlink:href="#ArialMT-c" transform="translate(861.359375 0)"/>
     </g>
    </g>
   </g>
   <g id="line2d_104">
    <path d="M 78.802131 286.521626 
L 78.741251 63.529319 
L 78.832572 66.176438 
L 79.502254 65.919453 
L 81.08514 67.836033 
L 83.276828 69.88838 
L 85.407636 69.786726 
L 87.203602 74.751631 
L 88.634287 68.423736 
L 89.821452 73.896245 
L 91.008616 76.823369 
L 92.07402 74.104423 
L 93.169864 69.398536 
L 94.357028 81.098804 
L 95.574632 85.101665 
L 96.792237 286.521626 
L 103.15422 286.521626 
L 104.280504 99.262724 
L 105.467668 86.982683 
L 106.654833 286.521626 
L 107.872437 82.032625 
L 108.998721 87.71955 
L 110.185886 286.521626 
L 111.37305 78.052066 
L 112.560214 79.771552 
L 113.747379 78.603775 
L 114.964983 73.240381 
L 116.182587 80.160811 
L 117.369752 74.81601 
L 118.587356 70.928217 
L 119.77452 65.207772 
L 122.118409 70.084685 
L 123.305573 62.14253 
L 124.492738 65.103332 
L 125.679902 67.327745 
L 126.867066 71.186914 
L 128.084671 78.834866 
L 129.241395 79.334864 
L 130.458999 90.220513 
L 131.646164 85.215791 
L 132.833328 75.720139 
L 134.020492 72.966034 
L 135.207657 68.293235 
L 136.425261 69.124551 
L 137.642865 66.692717 
L 138.86047 66.792619 
L 140.078074 65.348689 
L 141.234798 70.080488 
L 142.421963 71.752683 
L 143.639567 74.909344 
L 144.765851 76.655753 
L 145.953016 94.771916 
L 147.17062 77.620565 
L 149.575389 64.252945 
L 150.792993 65.538715 
L 151.919277 65.49776 
L 153.106442 70.177199 
L 154.263166 66.747069 
L 155.45033 68.895331 
L 156.607054 68.849966 
L 157.824659 76.286122 
L 159.011823 71.984899 
L 160.198987 68.250654 
L 161.416592 69.341278 
L 162.573316 78.384019 
L 163.790921 90.026472 
L 164.947645 286.521626 
L 166.165249 87.460318 
L 167.352413 92.296618 
L 168.570018 77.738136 
L 169.787622 85.509291 
L 170.944347 74.137416 
L 172.161951 78.802951 
L 173.349115 76.476002 
L 174.505839 67.395201 
L 175.662564 64.226231 
L 176.880168 62.782103 
L 178.036892 60.445061 
L 179.193617 62.310939 
L 180.380781 62.972934 
L 181.598385 67.48925 
L 182.84643 74.250938 
L 184.033594 286.521626 
L 185.251199 286.521626 
L 186.468803 95.847513 
L 187.686407 94.749438 
L 188.843132 76.574373 
L 189.999856 71.478663 
L 191.21746 69.931152 
L 192.435065 69.328566 
L 193.561349 74.196984 
L 194.687633 92.959245 
L 195.905237 286.521626 
L 197.092402 286.521626 
L 198.279566 106.041277 
L 199.46673 100.10586 
L 200.653895 81.177908 
L 201.780179 73.626224 
L 202.967343 70.670853 
L 204.184947 68.55342 
L 205.372112 74.429365 
L 206.528836 86.698139 
L 207.716 86.156143 
L 208.903165 91.309163 
L 210.120769 82.190729 
L 211.277493 81.142774 
L 212.464657 70.67049 
L 213.682262 69.009305 
L 214.869426 68.474535 
L 216.056591 67.713597 
L 217.213315 69.964193 
L 218.430919 75.069044 
L 219.618083 80.699337 
L 220.774808 77.799155 
L 221.961972 67.255163 
L 223.149136 64.913197 
L 224.336301 59.969578 
L 225.462585 62.343798 
L 226.680189 62.824971 
L 227.836913 61.643175 
L 229.024078 66.778795 
L 230.272122 67.25877 
L 231.428846 82.062024 
L 232.616011 82.458837 
L 234.838139 90.496356 
L 236.025303 88.273187 
L 237.242908 89.435978 
L 238.460512 83.500082 
L 239.647676 67.669623 
L 240.865281 71.2589 
L 242.052445 64.296616 
L 243.178729 66.757229 
L 244.396334 68.355344 
L 245.583498 75.807972 
L 246.801102 105.161835 
L 247.957827 286.521626 
L 249.144991 286.521626 
L 250.362595 130.573182 
L 251.54976 90.956959 
L 252.706484 84.256536 
L 253.893648 73.873642 
L 255.080812 70.602096 
L 256.267977 71.250017 
L 257.485581 72.105992 
L 258.672745 83.063202 
L 259.82947 81.986402 
L 261.077514 94.667236 
L 262.234238 286.521626 
L 265.765291 286.521626 
L 267.013336 79.0647 
L 268.13962 71.238093 
L 269.326784 73.194097 
L 270.513949 66.226064 
L 271.670673 65.064311 
L 272.888277 71.754417 
L 274.136322 80.387136 
L 275.353926 105.883248 
L 276.54109 115.999393 
L 277.697815 86.712958 
L 278.915419 92.359469 
L 280.072143 286.521626 
L 281.289748 286.521626 
L 282.507352 90.654757 
L 283.694516 90.775177 
L 284.881681 95.01954 
L 286.068845 81.976501 
L 287.225569 76.58751 
L 288.443174 68.879966 
L 289.599898 65.294957 
L 290.756622 66.285055 
L 291.943786 66.405796 
L 293.130951 67.537319 
L 294.287675 71.690252 
L 295.505279 104.30993 
L 296.722884 286.521626 
L 301.410661 286.521626 
L 302.597825 79.431807 
L 303.78499 69.143738 
L 304.972154 70.640053 
L 306.159318 69.556452 
L 307.285602 73.557205 
L 308.503207 69.1684 
L 309.690371 78.439212 
L 310.847095 68.863605 
L 312.03426 69.745704 
L 313.221424 69.284372 
L 314.408588 65.504888 
L 315.595752 69.686947 
L 316.752477 69.165881 
L 317.909201 70.001099 
L 319.157245 80.793025 
L 320.34441 87.74499 
L 321.501134 109.181873 
L 322.627418 83.557901 
L 323.875463 84.792619 
L 325.032187 80.014595 
L 326.249791 76.212279 
L 327.406515 85.2495 
L 328.56324 76.62576 
L 329.750404 70.943836 
L 330.968008 73.745254 
L 332.094292 79.583777 
L 333.342337 76.276275 
L 334.833902 75.674749 
L 336.112387 76.902296 
L 337.299551 75.959015 
L 338.517156 82.280702 
L 339.64344 106.311864 
L 340.800164 101.408071 
L 342.048209 85.26848 
L 343.235373 74.541919 
L 344.452977 87.404318 
L 345.548821 86.482924 
L 346.796866 79.560806 
L 347.92315 81.995875 
L 349.201635 79.125557 
L 350.358359 79.369494 
L 351.484643 77.73657 
L 352.702247 74.317392 
L 353.950292 68.922301 
L 355.015696 67.326015 
L 356.20286 73.343411 
L 357.481345 76.20991 
L 358.607629 70.537005 
L 359.825233 69.310602 
L 361.042838 65.387949 
L 362.260442 65.679625 
L 363.264966 65.186312 
L 365.791495 70.555196 
L 366.856899 67.824414 
L 368.074503 74.235656 
L 369.444308 69.615163 
L 370.631473 66.531496 
L 371.757757 64.246692 
L 372.853601 64.678467 
L 374.040765 67.203325 
L 375.197489 71.055605 
L 376.415094 73.603431 
L 377.480497 70.114325 
L 378.667662 68.819783 
L 379.854826 85.859018 
L 381.04199 83.478511 
L 382.198715 83.333951 
L 383.446759 82.970336 
L 384.542603 69.420642 
L 385.760208 65.114013 
L 386.856052 63.346448 
L 388.225857 60.380512 
L 389.382581 56.329793 
L 390.569745 59.099224 
L 391.726469 64.41185 
L 392.974514 68.191306 
L 393.979037 70.445071 
L 395.622803 71.559009 
L 396.870848 62.918083 
L 399.275617 60.201115 
L 400.462781 59.020016 
L 401.710826 56.134347 
L 402.776229 59.012158 
L 403.963394 62.836186 
L 405.059238 62.484766 
L 406.368162 63.165604 
L 407.494447 60.121266 
L 408.742491 57.562041 
L 410.020976 57.6007 
L 411.14726 54.543654 
L 412.243104 54.028591 
L 413.369388 52.512827 
L 414.647873 54.75377 
L 417.083081 57.069138 
L 418.331126 56.7096 
L 419.30521 55.263691 
L 420.644574 54.687183 
L 421.679538 53.250973 
L 422.927583 50.864417 
L 424.145187 47.681234 
L 425.119271 43.986549 
L 425.119271 43.986549 
" clip-path="url(#pc8e0b4c469)" style="fill: none; stroke: #000000; stroke-width: 2.5; stroke-linecap: square"/>
   </g>
   <g id="line2d_105">
    <path d="M 71.100783 48.92577 
L 71.100783 61.936553 
L 71.100783 48.354824 
L 71.252984 49.45946 
L 71.892226 50.153783 
L 73.566432 51.017997 
L 75.72768 54.026409 
L 77.828048 54.932012 
L 79.593574 58.443278 
L 81.0547 68.486354 
L 82.272304 65.462883 
L 83.368148 64.288541 
L 84.372672 61.393551 
L 85.559836 63.013837 
L 86.77744 58.27781 
L 87.873284 54.82332 
L 89.151769 52.293475 
L 90.369374 51.973925 
L 92.774142 54.685563 
L 93.900426 52.690155 
L 95.148471 53.485312 
L 96.396515 57.157897 
L 97.64456 62.218974 
L 98.862164 65.00391 
L 100.140649 64.493375 
L 101.449574 59.953475 
L 102.575858 60.508372 
L 103.823902 58.830439 
L 106.167791 63.510058 
L 107.294075 62.705018 
L 108.57256 61.180701 
L 110.946888 60.01679 
L 112.073172 56.637968 
L 113.290777 56.223208 
L 114.508381 54.20541 
L 115.695546 56.133939 
L 116.91315 60.70939 
L 117.978554 61.167717 
L 119.226598 57.001329 
L 120.413763 56.574302 
L 121.631367 58.142577 
L 122.879412 56.843408 
L 123.944816 60.545755 
L 125.19286 58.929092 
L 126.380024 60.648065 
L 127.628069 64.372682 
L 128.754353 64.781914 
L 129.971958 62.854246 
L 131.220002 62.188212 
L 132.285406 62.033306 
L 133.53345 59.973964 
L 134.751055 58.603872 
L 135.846899 58.787036 
L 137.094943 53.863715 
L 138.342988 58.658041 
L 139.499712 57.605952 
L 140.747757 55.611949 
L 141.965361 54.858249 
L 143.122085 55.892124 
L 144.248369 54.690898 
L 145.405094 54.679507 
L 146.622698 56.620592 
L 147.809862 58.263227 
L 148.997027 61.953697 
L 150.153751 69.848068 
L 151.401795 64.173443 
L 152.6194 61.755446 
L 153.806564 62.428439 
L 154.932848 60.006229 
L 156.211333 53.88071 
L 157.337617 53.353104 
L 158.463901 53.779937 
L 159.742386 54.782462 
L 160.89911 58.147225 
L 162.177595 58.764802 
L 163.303879 58.471387 
L 164.491043 65.220138 
L 165.678207 65.020487 
L 166.834932 57.628974 
L 168.052536 57.141437 
L 169.27014 55.161348 
L 170.487745 54.551213 
L 171.644469 51.550603 
L 172.862073 49.53191 
L 173.988358 46.179706 
L 175.114642 45.551953 
L 176.362686 46.779372 
L 177.549851 44.516472 
L 178.706575 43.789622 
L 179.893739 45.752738 
L 181.080903 45.546613 
L 182.298508 46.413784 
L 183.546552 46.92702 
L 184.703277 47.669587 
L 185.860001 47.446329 
L 187.077605 48.719538 
L 188.203889 51.532708 
L 189.512814 50.891899 
L 190.639098 51.837293 
L 191.795822 51.284846 
L 192.982987 47.617379 
L 195.357315 45.576676 
L 196.60536 46.202653 
L 197.762084 46.056955 
L 198.949248 46.039836 
L 200.105973 47.897948 
L 201.293137 48.661766 
L 202.510741 50.932771 
L 203.728346 52.89979 
L 204.85463 51.227953 
L 206.041794 54.000297 
L 207.228958 52.624382 
L 208.446563 53.467444 
L 210.790451 51.557084 
L 212.008056 51.065629 
L 213.16478 49.809955 
L 214.351944 49.944801 
L 216.726273 51.286574 
L 217.822117 50.683405 
L 219.131042 49.709512 
L 220.226886 49.297755 
L 221.44449 49.759784 
L 223.818819 54.265789 
L 225.005983 55.799963 
L 226.162707 55.104703 
L 227.319431 56.895299 
L 228.506596 59.481966 
L 229.69376 58.144762 
L 230.850484 56.569062 
L 232.098529 55.106246 
L 233.255253 55.705323 
L 234.442417 54.372175 
L 235.660022 54.01178 
L 236.786306 55.971284 
L 238.03435 56.171683 
L 239.221515 58.288499 
L 240.347799 58.576614 
L 241.534963 60.509282 
L 242.691687 58.279826 
L 243.878852 56.450405 
L 245.066016 56.801112 
L 246.22274 51.395961 
L 247.470785 50.771859 
L 248.657949 51.550801 
L 249.814673 55.189083 
L 251.032278 55.995984 
L 252.189002 58.339693 
L 253.406606 61.109808 
L 254.593771 60.656217 
L 255.750495 59.546361 
L 256.968099 59.80852 
L 258.124823 56.783079 
L 259.372868 55.990253 
L 260.499152 54.847154 
L 261.716757 55.485072 
L 262.873481 53.98323 
L 264.091085 56.117349 
L 265.27825 54.946803 
L 266.404534 53.053347 
L 267.652578 52.392051 
L 268.809302 53.119045 
L 269.966027 54.494385 
L 271.153191 55.502586 
L 272.340355 55.780033 
L 273.5884 54.991296 
L 274.866884 58.5923 
L 277.210773 70.209548 
L 278.397937 69.561226 
L 279.615542 67.31409 
L 280.802706 70.446981 
L 281.98987 67.349645 
L 283.116154 65.012124 
L 284.303319 63.351933 
L 285.490483 62.77311 
L 286.708087 65.611703 
L 287.864812 72.719865 
L 289.051976 91.917201 
L 290.23914 80.268951 
L 291.456745 76.066072 
L 292.613469 69.63875 
L 293.770193 65.929638 
L 294.987798 63.106212 
L 296.144522 61.288274 
L 297.301246 60.987996 
L 298.51885 62.768902 
L 299.736455 68.304068 
L 300.862739 84.556444 
L 302.080343 76.467416 
L 303.297948 77.089553 
L 304.424232 73.278307 
L 306.79856 63.72648 
L 308.016165 64.521335 
L 309.142449 57.567335 
L 310.360053 53.971932 
L 311.486338 52.257192 
L 312.703942 53.472789 
L 313.891106 51.681436 
L 316.234995 52.742773 
L 317.391719 52.593623 
L 318.578883 57.238735 
L 319.766048 63.833585 
L 320.983652 59.327726 
L 322.170816 60.211294 
L 323.357981 61.855583 
L 324.484265 71.109201 
L 325.671429 69.896118 
L 326.889034 71.019641 
L 328.106638 61.412933 
L 329.202482 54.955846 
L 330.450526 52.087847 
L 332.763975 50.868035 
L 334.2251 51.51462 
L 335.534025 52.713573 
L 336.751629 57.684821 
L 337.999674 64.012101 
L 339.186838 71.936859 
L 340.313122 61.82792 
L 341.561167 58.3864 
L 342.717891 52.931613 
L 343.844175 52.641035 
L 345.09222 51.432989 
L 346.248944 50.685322 
L 347.496988 52.278119 
L 348.623273 52.381055 
L 349.840877 55.450213 
L 351.028041 55.333688 
L 352.215206 55.459296 
L 353.43281 55.781935 
L 354.528654 55.116109 
L 355.685378 58.249448 
L 356.933423 60.375265 
L 358.120587 58.70898 
L 359.277311 57.379572 
L 360.525356 54.385337 
L 361.56032 55.494268 
L 362.869244 54.745184 
L 364.117289 54.950943 
L 365.213133 54.342929 
L 367.526581 61.553315 
L 368.713746 63.076802 
L 371.179395 59.407124 
L 372.366559 60.301515 
L 373.492843 64.510621 
L 374.680007 63.52763 
L 375.806291 63.862091 
L 377.054336 61.468313 
L 378.11974 61.898429 
L 379.398224 64.390662 
L 380.585389 62.916011 
L 381.681233 58.226291 
L 382.929277 57.683334 
L 384.116442 58.535124 
L 385.242726 60.560572 
L 386.42989 58.856789 
L 387.586614 58.451857 
L 388.834659 57.595591 
L 390.052263 57.735395 
L 391.117667 57.0814 
L 392.365712 52.65443 
L 393.583316 51.240475 
L 394.892241 53.315784 
L 396.292486 55.067594 
L 398.758135 52.720586 
L 399.914859 51.961739 
L 401.071583 53.321006 
L 402.289188 54.172881 
L 403.445912 51.716328 
L 404.633076 50.042494 
L 405.911561 50.31394 
L 406.946525 51.024937 
L 408.255449 50.827873 
L 409.412174 49.727545 
L 410.386257 50.773865 
L 411.725622 49.098293 
L 412.912786 51.325623 
L 414.160831 51.988283 
L 415.256675 51.024611 
L 416.382959 52.183908 
L 417.661444 50.352713 
L 418.909488 52.044366 
L 419.974892 51.308436 
L 421.222937 48.843418 
L 422.2579 44.894565 
L 423.688585 40.116054 
L 424.784429 35.094812 
L 424.784429 35.094812 
" clip-path="url(#pc8e0b4c469)" style="fill: none; stroke: #1f77b4; stroke-width: 2.5; stroke-linecap: square"/>
   </g>
   <g id="line2d_106">
    <path d="M 70.918143 57.372548 
L 70.918143 52.601849 
L 70.918143 63.227873 
L 70.918143 62.673 
L 71.039903 65.531332 
L 71.618265 74.063234 
L 73.01851 75.944571 
L 75.179758 74.654578 
L 77.341006 77.418384 
L 79.258733 75.584574 
L 80.780739 72.842143 
L 82.028783 75.279764 
L 83.124627 67.76174 
L 84.220471 62.903841 
L 85.316315 64.179857 
L 86.442599 63.551677 
L 87.629764 59.876836 
L 88.847368 59.912691 
L 90.034532 59.156167 
L 91.221697 61.890198 
L 92.408861 62.711682 
L 93.596025 60.689188 
L 94.81363 59.779203 
L 96.000794 60.118111 
L 97.309719 59.959515 
L 98.649084 59.027707 
L 101.145173 53.165093 
L 102.332337 51.986607 
L 103.519501 55.0919 
L 104.706666 54.368451 
L 105.89383 54.586847 
L 108.298599 56.254445 
L 109.455323 56.132349 
L 110.672927 58.553099 
L 111.860092 57.490175 
L 113.047256 56.275163 
L 114.26486 57.347309 
L 115.452025 61.165787 
L 116.639189 60.885577 
L 117.826353 62.017134 
L 119.013518 60.142538 
L 120.200682 58.519813 
L 121.326966 56.399707 
L 122.575011 55.439631 
L 123.731735 54.315889 
L 124.888459 54.51726 
L 126.106063 54.392974 
L 127.323668 55.107085 
L 128.480392 55.086739 
L 129.667556 55.824668 
L 130.824281 53.270319 
L 131.981005 54.877328 
L 133.229049 53.785234 
L 134.385774 55.094089 
L 135.572938 55.370994 
L 136.790542 57.957892 
L 138.008147 61.902186 
L 139.347512 65.22223 
L 140.443356 66.542541 
L 141.63052 75.981015 
L 142.756804 76.791421 
L 144.004849 78.058278 
L 145.192013 68.606169 
L 147.566342 54.41228 
L 148.783946 54.024516 
L 149.94067 53.335366 
L 151.158275 53.121434 
L 152.284559 54.368354 
L 154.780648 64.326063 
L 155.906932 61.989756 
L 157.094096 64.067221 
L 158.28126 64.733361 
L 159.529305 62.87084 
L 160.686029 64.308011 
L 161.873194 64.523899 
L 162.999478 61.912266 
L 164.247522 62.431014 
L 165.404246 60.995762 
L 166.621851 59.703161 
L 167.809015 55.89587 
L 168.996179 53.383073 
L 170.152904 54.249248 
L 171.340068 53.039242 
L 172.527232 53.88139 
L 173.653516 57.140061 
L 174.871121 57.935163 
L 176.058285 62.307568 
L 177.215009 61.629638 
L 178.432614 62.353088 
L 179.650218 61.574144 
L 180.806942 58.935018 
L 181.963667 61.09721 
L 183.181271 59.789333 
L 184.459756 59.218932 
L 185.61648 59.588931 
L 186.894965 58.000277 
L 187.990808 57.492481 
L 189.177973 54.148688 
L 191.552301 53.931359 
L 192.709026 52.844945 
L 193.92663 51.2506 
L 195.144235 50.228519 
L 196.300959 50.00982 
L 197.427243 49.16657 
L 198.614407 49.302346 
L 199.832012 48.93693 
L 201.019176 48.729332 
L 202.1759 50.340426 
L 203.393504 48.899753 
L 205.767833 47.376166 
L 206.954997 48.020007 
L 208.111722 47.703609 
L 209.238006 47.243622 
L 210.45561 49.876274 
L 211.703655 52.241495 
L 212.860379 55.02668 
L 214.047543 60.682893 
L 215.265148 58.872433 
L 216.421872 60.330758 
L 217.609036 62.043423 
L 218.73532 62.276892 
L 219.952925 58.420293 
L 221.140089 55.35338 
L 222.296813 56.198492 
L 223.544858 56.206001 
L 224.732022 57.171373 
L 225.888746 60.691063 
L 227.075911 59.956836 
L 228.263075 62.287606 
L 229.419799 66.227097 
L 230.637404 68.660687 
L 231.824568 70.609566 
L 233.011732 65.154139 
L 234.168456 60.732157 
L 235.355621 58.562483 
L 236.573225 55.151096 
L 237.729949 56.021566 
L 238.886674 55.441808 
L 240.104278 56.679559 
L 241.261002 58.67748 
L 242.387286 62.674483 
L 243.604891 68.506023 
L 244.883375 66.447125 
L 246.0401 65.879986 
L 247.196824 62.354243 
L 248.383988 61.899521 
L 249.540712 60.119869 
L 250.758317 59.030661 
L 251.945481 62.27027 
L 253.102205 58.006021 
L 254.31981 57.480546 
L 255.537414 57.30393 
L 256.724578 54.617801 
L 257.850863 54.8244 
L 259.129347 54.814764 
L 260.225191 56.221193 
L 261.412355 55.973429 
L 262.6604 58.989784 
L 263.817124 63.873949 
L 264.973848 62.0968 
L 266.130573 68.513639 
L 267.409057 66.690707 
L 268.504901 61.890775 
L 269.722506 60.960967 
L 270.90967 60.77129 
L 272.096834 57.470188 
L 273.314439 57.05181 
L 274.562483 56.909505 
L 275.749648 59.230539 
L 276.997692 61.179347 
L 278.123976 64.016995 
L 279.372021 62.055429 
L 280.528745 64.143219 
L 281.655029 63.189225 
L 282.872633 63.533271 
L 285.246962 56.899189 
L 286.464567 57.907802 
L 287.560411 57.048875 
L 288.778015 55.682363 
L 289.965179 54.030408 
L 291.152344 55.032713 
L 292.369948 57.59389 
L 293.435352 58.155126 
L 294.683396 61.845484 
L 295.840121 60.765742 
L 297.057725 61.403988 
L 298.244889 64.063417 
L 299.432054 61.750017 
L 301.775942 54.837245 
L 302.963107 53.600641 
L 304.180711 54.359047 
L 305.337435 56.015324 
L 306.524599 61.895453 
L 307.711764 65.917581 
L 308.898928 77.515308 
L 310.025212 93.469627 
L 311.242817 99.438933 
L 312.429981 81.770596 
L 313.617145 71.440903 
L 314.743429 64.532247 
L 315.930594 65.528457 
L 317.148198 60.863189 
L 318.365803 61.47118 
L 319.552967 63.095353 
L 320.679251 66.535187 
L 321.866415 62.138584 
L 323.05358 60.264654 
L 324.240744 56.621934 
L 325.427908 54.913536 
L 326.645513 53.883051 
L 327.771797 52.369251 
L 329.019841 51.135427 
L 330.176565 53.02517 
L 331.36373 58.597171 
L 332.520454 61.713852 
L 333.859819 61.558213 
L 335.229624 62.566063 
L 336.416788 64.731498 
L 337.664833 67.325621 
L 338.912877 65.895828 
L 340.039161 61.449826 
L 341.287206 59.018552 
L 342.47437 57.866661 
L 343.661534 57.692429 
L 344.787819 55.940938 
L 346.005423 57.290393 
L 347.223027 58.337761 
L 348.379752 63.633221 
L 349.536476 72.862487 
L 350.6932 69.981878 
L 351.910804 62.853743 
L 353.067529 59.178996 
L 354.315573 57.834169 
L 355.472297 54.580208 
L 356.568141 54.951003 
L 357.846626 58.821461 
L 359.00335 59.512099 
L 360.190515 61.766233 
L 361.408119 70.086317 
L 362.473523 67.070166 
L 363.752008 62.154266 
L 364.939172 60.61671 
L 366.095896 59.669848 
L 367.3135 59.123894 
L 368.470225 62.51426 
L 369.687829 65.350048 
L 370.844553 61.837951 
L 372.001278 59.098062 
L 373.310202 61.915426 
L 374.436486 60.87386 
L 375.623651 57.611582 
L 376.749935 57.555146 
L 377.906659 61.878827 
L 379.154704 62.590185 
L 380.341868 63.796107 
L 381.559472 61.383371 
L 382.655316 60.78505 
L 383.872921 58.799063 
L 385.060085 62.014922 
L 386.216809 62.360466 
L 387.251773 61.551088 
L 388.530258 65.693783 
L 389.747862 74.489429 
L 390.874146 81.728979 
L 392.091751 74.801463 
L 393.187595 69.30229 
L 394.526959 67.315445 
L 395.927205 62.453442 
L 397.266569 63.013379 
L 398.484174 61.750623 
L 399.701778 62.594168 
L 400.828062 60.02863 
L 402.045667 59.396228 
L 403.141511 59.462373 
L 404.328675 55.403131 
L 405.60716 54.163246 
L 406.794324 54.783297 
L 407.859728 55.483551 
L 409.138213 57.938241 
L 410.203616 56.55684 
L 411.451661 56.240364 
L 412.730146 51.999462 
L 413.85643 49.933531 
L 414.921834 52.287501 
L 416.230758 51.821715 
L 417.296162 53.490288 
L 418.574647 52.470252 
L 419.761811 50.651894 
L 420.979416 47.021519 
L 422.1057 44.704688 
L 423.323304 44.025611 
L 424.601789 45.636851 
L 425.423672 51.823951 
L 425.423672 51.823951 
" clip-path="url(#pc8e0b4c469)" style="fill: none; stroke: #0033ff; stroke-width: 2.5; stroke-linecap: square"/>
   </g>
   <g id="line2d_107">
    <path d="M 69.091736 83.731936 
L 69.152616 59.863909 
L 69.152616 61.463339 
L 69.243937 58.127751 
L 69.730979 59.915833 
L 71.192104 60.277373 
L 73.292471 61.457437 
L 75.5146 62.15952 
L 78.954332 56.828547 
L 80.232817 55.359875 
L 81.328661 57.060465 
L 82.394065 54.966614 
L 83.550789 55.203906 
L 84.707513 58.028345 
L 85.894677 58.380097 
L 87.051401 58.32562 
L 88.269006 60.773572 
L 89.48661 59.214537 
L 90.673775 59.985652 
L 91.800059 57.097852 
L 92.987223 59.055516 
L 94.204828 56.999455 
L 95.361552 58.43671 
L 96.670476 59.223708 
L 97.948961 59.335077 
L 99.288326 61.844726 
L 100.50593 63.625032 
L 101.723535 69.774411 
L 102.941139 76.814738 
L 104.097863 69.381056 
L 105.285028 71.481721 
L 106.472192 66.307545 
L 107.689797 66.3263 
L 108.876961 67.630508 
L 110.094565 84.443241 
L 111.251289 92.487648 
L 112.438454 80.942359 
L 113.625618 88.313803 
L 114.812782 71.670496 
L 117.217551 60.315591 
L 118.374275 56.163114 
L 119.500559 54.375249 
L 120.779044 53.817344 
L 121.966208 58.251087 
L 123.092493 58.287556 
L 124.279657 62.760257 
L 126.714866 69.776165 
L 127.87159 75.832325 
L 129.089194 75.463601 
L 130.276359 69.229561 
L 132.559367 62.56854 
L 133.807411 64.108965 
L 134.933696 60.6617 
L 136.12086 65.249078 
L 137.399345 67.789179 
L 138.647389 68.419478 
L 139.834553 64.568493 
L 141.052158 68.327301 
L 142.178442 65.054689 
L 143.365606 65.769915 
L 144.552771 61.395808 
L 145.770375 60.695531 
L 146.987979 57.368808 
L 148.175144 58.210365 
L 149.362308 59.459311 
L 150.549472 60.295223 
L 151.706197 60.863376 
L 152.862921 64.530085 
L 154.080525 62.318612 
L 155.206809 67.00914 
L 156.515734 65.352656 
L 157.702898 62.761791 
L 158.859623 59.858839 
L 160.077227 59.608802 
L 161.233951 61.265363 
L 162.451556 66.258743 
L 163.63872 61.006487 
L 164.825884 57.895621 
L 165.952168 57.523698 
L 167.108893 58.711677 
L 168.356937 59.1883 
L 169.574542 53.938681 
L 170.731266 53.186796 
L 171.85755 55.384946 
L 173.075154 54.311548 
L 174.262319 54.815889 
L 175.479923 52.32916 
L 176.575767 52.631829 
L 177.823812 51.645407 
L 180.19814 46.999709 
L 181.385304 45.27129 
L 182.542029 46.028299 
L 183.729193 49.136841 
L 184.977238 49.488346 
L 186.194842 49.093211 
L 187.351566 49.468443 
L 188.50829 48.078151 
L 190.913059 44.804703 
L 192.130664 42.04357 
L 193.226508 43.904072 
L 194.383232 43.608554 
L 195.631276 44.640104 
L 196.818441 46.287675 
L 197.944725 44.443614 
L 199.223209 44.644443 
L 200.379934 42.624187 
L 201.627978 41.228357 
L 203.941426 37.472874 
L 206.346195 35.926257 
L 207.53336 36.865167 
L 208.720524 39.562382 
L 209.907688 42.733739 
L 212.251577 50.793294 
L 213.469181 53.651769 
L 214.656345 54.526498 
L 217.000234 48.75787 
L 218.126518 49.300504 
L 219.313682 49.210262 
L 220.531287 50.809987 
L 221.718451 53.956515 
L 222.905615 53.955411 
L 224.09278 56.346383 
L 225.279944 56.484489 
L 226.436668 56.016359 
L 227.623833 56.288869 
L 228.810997 58.130713 
L 230.028601 59.626833 
L 231.215766 62.486577 
L 232.37249 59.601944 
L 233.559654 55.825472 
L 234.746818 54.712466 
L 235.933983 55.873769 
L 237.090707 54.417779 
L 238.277871 55.923319 
L 239.465036 54.900972 
L 240.62176 55.248552 
L 241.839364 56.214049 
L 243.026529 61.080478 
L 244.152813 55.706284 
L 245.370417 57.687739 
L 246.557581 64.244358 
L 247.775186 65.148978 
L 248.96235 60.308361 
L 250.119074 59.026074 
L 251.306239 55.724196 
L 252.493403 54.271285 
L 253.680567 52.604588 
L 254.867732 52.070947 
L 256.054896 50.881176 
L 257.2725 54.011352 
L 258.429225 54.403066 
L 259.585949 53.368841 
L 260.803553 53.679175 
L 261.960277 54.800634 
L 263.147442 57.300209 
L 264.365046 56.658249 
L 265.582651 57.743665 
L 266.739375 60.316358 
L 267.896099 64.193881 
L 269.113703 63.371854 
L 270.300868 60.948663 
L 271.457592 61.46644 
L 272.675196 61.37565 
L 273.923241 58.932117 
L 275.110405 54.561223 
L 276.29757 53.436846 
L 277.545614 54.50765 
L 278.671898 55.660228 
L 279.889503 56.025194 
L 281.076667 59.052707 
L 282.233391 60.944557 
L 283.420555 60.476142 
L 284.60772 63.110942 
L 286.951608 61.391224 
L 288.169213 65.016211 
L 289.325937 66.433362 
L 290.543541 64.632481 
L 291.730706 67.142881 
L 292.91787 66.878302 
L 294.105034 63.901815 
L 295.231318 58.385717 
L 296.448923 56.987847 
L 297.666527 57.228105 
L 298.792811 59.413571 
L 300.040856 59.733017 
L 301.16714 58.633148 
L 302.384744 60.864603 
L 303.541469 64.278502 
L 305.885357 60.457576 
L 307.072521 64.200146 
L 308.259686 69.928042 
L 309.44685 84.962976 
L 310.664455 96.203894 
L 311.790739 132.017251 
L 312.977903 286.521626 
L 314.195507 286.521626 
L 315.382672 87.133411 
L 317.72656 64.036445 
L 318.883284 67.263133 
L 320.040009 68.277604 
L 321.288053 68.013744 
L 322.444777 67.112558 
L 323.571061 74.903736 
L 324.788666 80.930878 
L 325.91495 78.368984 
L 327.162995 74.949311 
L 328.350159 75.914564 
L 329.537323 73.069771 
L 330.663607 69.863767 
L 331.911652 67.795335 
L 333.129256 64.903091 
L 334.529501 63.313882 
L 335.838426 66.446021 
L 337.086471 64.466164 
L 338.273635 66.03877 
L 339.491239 68.45265 
L 340.678404 70.28169 
L 341.865568 71.247024 
L 342.961412 68.329172 
L 344.239897 66.316931 
L 345.396621 62.169437 
L 346.522905 60.873606 
L 347.80139 64.5309 
L 348.927674 64.369641 
L 350.053958 70.734024 
L 351.271562 70.951612 
L 353.645891 68.094615 
L 354.802615 68.135949 
L 355.989779 70.510413 
L 357.268264 63.754811 
L 358.394548 63.010668 
L 359.551272 67.014339 
L 360.768877 65.341806 
L 361.925601 62.197007 
L 363.112765 59.731967 
L 364.239049 58.262238 
L 365.487094 55.612071 
L 367.830982 55.374598 
L 369.048587 53.896441 
L 370.266191 52.687263 
L 371.362035 53.902588 
L 372.57964 54.596151 
L 373.858124 53.800619 
L 374.893088 59.853595 
L 376.232453 62.611989 
L 377.297857 62.603402 
L 378.454581 65.584061 
L 379.702626 65.88174 
L 380.85935 64.849855 
L 382.016074 60.632528 
L 383.264118 58.848551 
L 384.359962 58.030896 
L 386.795171 60.797321 
L 389.10862 57.542736 
L 391.422068 58.179109 
L 392.639673 59.104385 
L 393.796397 57.555232 
L 395.196642 57.824398 
L 396.596887 58.568509 
L 397.723171 59.317556 
L 398.910335 57.544662 
L 400.18882 59.242387 
L 401.436865 60.34857 
L 402.593589 61.6257 
L 403.811193 63.928896 
L 404.937477 66.80395 
L 406.185522 67.518358 
L 407.220486 72.096725 
L 408.49897 71.136796 
L 409.594814 67.275588 
L 410.934179 67.564371 
L 411.908263 68.440049 
L 413.156307 61.980873 
L 414.434792 57.425851 
L 416.900441 53.792062 
L 417.904964 56.759938 
L 419.183449 57.068644 
L 420.309733 58.069102 
L 421.436017 58.209317 
L 422.623182 56.918816 
L 423.901666 54.077041 
L 424.99751 50.083178 
L 424.99751 50.083178 
" clip-path="url(#pc8e0b4c469)" style="fill: none; stroke: #ff7f0e; stroke-width: 2.5; stroke-linecap: square"/>
   </g>
   <g id="line2d_108">
    <path d="M 78.832572 71.234854 
L 78.832572 58.554527 
L 78.832572 70.203479 
L 79.410934 66.474045 
L 80.932939 65.19059 
L 83.094187 62.811602 
L 85.285875 58.673852 
L 87.203602 55.868018 
L 88.695167 52.673425 
L 89.912772 51.378609 
L 91.069496 52.590457 
L 92.10446 54.367565 
L 93.291624 57.148745 
L 94.387468 62.022146 
L 95.605073 68.090163 
L 96.883557 66.31391 
L 98.131602 62.851534 
L 99.410086 63.584143 
L 100.658131 62.403844 
L 101.875735 65.734747 
L 103.12378 65.731785 
L 104.250064 66.705498 
L 105.467668 68.470064 
L 106.624393 83.266583 
L 107.841997 81.227298 
L 109.059602 74.473252 
L 110.246766 64.098338 
L 111.37305 65.857945 
L 112.560214 63.650359 
L 115.025863 57.08116 
L 116.243468 56.371731 
L 117.339312 58.561484 
L 118.617796 62.417219 
L 119.804961 62.521982 
L 120.992125 60.459288 
L 122.179289 55.86899 
L 123.305573 57.858564 
L 124.492738 57.706535 
L 125.740782 58.354281 
L 128.115111 65.189278 
L 129.271835 69.624691 
L 130.489439 70.513256 
L 131.646164 71.791313 
L 132.802888 60.627073 
L 134.020492 58.222887 
L 135.207657 60.721055 
L 136.425261 60.517477 
L 137.673306 68.143343 
L 138.89091 70.736623 
L 140.108514 69.943982 
L 141.204358 69.524917 
L 142.421963 68.61097 
L 143.609127 63.800332 
L 144.796291 58.385071 
L 145.953016 58.48119 
L 147.17062 60.937782 
L 148.357784 60.993817 
L 149.544949 69.209791 
L 150.701673 70.507103 
L 151.888837 70.778106 
L 153.106442 67.416665 
L 154.324046 63.627601 
L 155.51121 62.620678 
L 156.698375 56.968977 
L 157.915979 55.391596 
L 159.072703 55.846772 
L 160.290308 58.34637 
L 161.477472 59.014009 
L 162.664636 60.421862 
L 163.851801 61.413774 
L 164.978085 57.793875 
L 166.195689 55.964494 
L 167.382854 54.730689 
L 168.600458 47.738373 
L 169.757182 44.6876 
L 170.944347 42.563652 
L 172.131511 40.724625 
L 173.318675 40.537091 
L 174.475399 39.757266 
L 175.693004 40.327252 
L 176.910608 40.067164 
L 178.158653 40.501914 
L 179.284937 41.984976 
L 180.441661 41.639652 
L 181.628825 41.771095 
L 182.84643 42.036827 
L 185.281639 43.833394 
L 186.407923 41.33652 
L 187.595087 40.178594 
L 188.751811 38.804629 
L 189.999856 36.384212 
L 191.18702 34.598268 
L 192.404625 32.977305 
L 193.530909 32.146931 
L 194.718073 30.733242 
L 195.905237 30.365592 
L 197.061961 28.963675 
L 198.279566 27.084919 
L 199.46673 25.89435 
L 200.623454 24.907813 
L 201.810619 22.711346 
L 202.997783 21.23892 
L 204.184947 20.681609 
L 206.589716 20.50103 
L 207.77688 21.624872 
L 208.933605 21.71947 
L 210.120769 21.946068 
L 212.495098 23.123285 
L 213.651822 23.290655 
L 214.869426 24.12606 
L 216.056591 25.168839 
L 217.243755 27.45094 
L 218.400479 30.043421 
L 219.587643 32.334563 
L 220.744368 32.626523 
L 221.961972 34.801832 
L 224.336301 37.043013 
L 226.710629 40.062471 
L 227.897794 39.865866 
L 229.084958 42.979718 
L 230.241682 43.946232 
L 231.428846 43.056619 
L 232.585571 43.865616 
L 233.772735 47.648982 
L 234.990339 47.407465 
L 236.177504 47.970571 
L 238.490952 46.166616 
L 239.738997 44.589791 
L 240.834841 44.640534 
L 242.052445 43.689693 
L 243.239609 43.821594 
L 244.426774 44.361258 
L 245.583498 45.433081 
L 246.740222 43.817316 
L 247.896946 44.113265 
L 249.084111 43.09983 
L 250.362595 42.95436 
L 251.519319 42.262891 
L 252.706484 41.764092 
L 253.863208 41.920715 
L 255.080812 43.205451 
L 256.267977 43.369315 
L 259.89035 44.528041 
L 261.077514 43.043893 
L 262.234238 42.436705 
L 263.390963 41.380838 
L 264.608567 41.807279 
L 265.826171 42.368486 
L 266.952456 43.017213 
L 268.17006 42.455672 
L 269.387664 44.414606 
L 270.483508 44.700599 
L 271.670673 42.871005 
L 272.918717 39.963566 
L 274.136322 39.026101 
L 275.384366 38.568569 
L 277.758695 37.982213 
L 278.915419 38.405379 
L 280.133024 39.36455 
L 281.350628 42.788088 
L 282.476912 42.799752 
L 283.694516 42.354673 
L 284.820801 41.27766 
L 286.068845 41.604911 
L 287.195129 42.512901 
L 288.382294 42.611623 
L 289.630338 42.14154 
L 290.817502 42.791275 
L 291.943786 43.072725 
L 293.191831 44.242376 
L 294.378995 44.005184 
L 295.53572 44.022956 
L 296.692444 42.794262 
L 297.849168 43.492219 
L 299.066772 45.028876 
L 300.223497 44.917064 
L 301.441101 44.48344 
L 302.628265 44.629556 
L 303.78499 44.646155 
L 305.002594 45.067191 
L 306.159318 46.577309 
L 307.376923 49.683288 
L 308.533647 47.956351 
L 309.690371 51.136743 
L 310.847095 53.509545 
L 312.09514 52.013366 
L 313.221424 51.187162 
L 314.439028 50.493175 
L 315.595752 52.081968 
L 316.752477 50.310709 
L 317.939641 50.285801 
L 319.126805 51.73244 
L 320.37485 49.990559 
L 322.718738 51.233262 
L 323.875463 50.680841 
L 325.062627 51.505756 
L 326.280231 53.073318 
L 327.436956 56.433727 
L 328.59368 57.68188 
L 329.780844 60.535379 
L 330.968008 58.405762 
L 332.094292 56.716198 
L 333.342337 55.156783 
L 334.833902 53.899893 
L 336.021067 54.708349 
L 337.329991 54.307438 
L 338.517156 52.018533 
L 339.70432 50.878792 
L 340.891484 50.567316 
L 342.109089 49.683948 
L 343.204933 47.455996 
L 344.452977 46.941058 
L 345.609702 47.803931 
L 346.735986 45.665886 
L 347.98403 46.850043 
L 349.171195 45.854571 
L 350.358359 46.486881 
L 351.545523 44.683238 
L 352.641367 43.538504 
L 353.889412 43.28024 
L 355.137456 41.678914 
L 356.20286 41.603045 
L 357.450905 43.428903 
L 358.607629 44.038982 
L 359.825233 45.992579 
L 361.012398 46.978894 
L 362.199562 55.04025 
L 363.417166 54.505671 
L 364.51301 54.600817 
L 366.887339 48.627181 
L 368.135383 48.577427 
L 369.413868 49.711325 
L 370.479272 48.747011 
L 371.605556 48.507823 
L 372.823161 48.691877 
L 374.040765 52.311255 
L 375.227929 49.97817 
L 376.354213 48.582781 
L 377.602258 47.404116 
L 378.698102 49.981782 
L 379.854826 50.950149 
L 381.04199 51.775671 
L 382.229155 52.133492 
L 383.507639 51.290789 
L 384.633923 51.233638 
L 386.977812 47.841457 
L 388.256297 46.98898 
L 389.352141 46.087998 
L 390.508865 46.736203 
L 391.696029 46.335614 
L 394.131238 47.883193 
L 395.501043 47.140447 
L 396.840408 49.797201 
L 398.088452 51.293743 
L 399.275617 51.494261 
L 400.371461 53.053713 
L 401.710826 56.108778 
L 402.80667 54.556305 
L 403.963394 55.793377 
L 405.089678 52.830523 
L 406.429043 53.081731 
L 407.616207 51.185403 
L 408.742491 50.586118 
L 409.838335 47.93561 
L 411.08638 47.192813 
L 412.334424 47.108064 
L 413.491148 48.604912 
L 414.678313 47.169409 
L 415.865477 47.111478 
L 416.961321 45.030996 
L 418.300686 46.096755 
L 419.42697 44.917919 
L 421.770858 41.939737 
L 424.206067 38.217396 
L 425.149711 36.221293 
L 425.149711 36.221293 
" clip-path="url(#pc8e0b4c469)" style="fill: none; stroke: #ff0000; stroke-width: 2.5; stroke-linecap: square"/>
   </g>
   <g id="patch_3">
    <path d="M 60.598945 299.822656 
L 60.598945 7.2 
" style="fill: none; stroke: #000000; stroke-width: 1.5; stroke-linejoin: miter; stroke-linecap: square"/>
   </g>
   <g id="patch_4">
    <path d="M 60.598945 299.822656 
L 425.880273 299.822656 
" style="fill: none; stroke: #000000; stroke-width: 1.5; stroke-linejoin: miter; stroke-linecap: square"/>
   </g>
   <g id="legend_1">
    <g id="line2d_109">
     <path d="M 71.398945 22.536328 
L 83.398945 22.536328 
L 95.398945 22.536328 
" style="fill: none; stroke: #000000; stroke-width: 2.5; stroke-linecap: square"/>
    </g>
    <g id="text_19">
     <!-- vacuum -->
     <g transform="translate(104.998945 26.736328) scale(0.12 -0.12)">
      <defs>
       <path id="ArialMT-59" d="M 1344 0 
L 81 3319 
L 675 3319 
L 1388 1331 
Q 1503 1009 1600 663 
Q 1675 925 1809 1294 
L 2547 3319 
L 3125 3319 
L 1869 0 
L 1344 0 
z
" transform="scale(0.015625)"/>
       <path id="ArialMT-46" d="M 2588 1216 
L 3141 1144 
Q 3050 572 2676 248 
Q 2303 -75 1759 -75 
Q 1078 -75 664 370 
Q 250 816 250 1647 
Q 250 2184 428 2587 
Q 606 2991 970 3192 
Q 1334 3394 1763 3394 
Q 2303 3394 2647 3120 
Q 2991 2847 3088 2344 
L 2541 2259 
Q 2463 2594 2264 2762 
Q 2066 2931 1784 2931 
Q 1359 2931 1093 2626 
Q 828 2322 828 1663 
Q 828 994 1084 691 
Q 1341 388 1753 388 
Q 2084 388 2306 591 
Q 2528 794 2588 1216 
z
" transform="scale(0.015625)"/>
      </defs>
      <use xlink:href="#ArialMT-59"/>
      <use xlink:href="#ArialMT-44" transform="translate(50 0)"/>
      <use xlink:href="#ArialMT-46" transform="translate(105.609375 0)"/>
      <use xlink:href="#ArialMT-58" transform="translate(155.609375 0)"/>
      <use xlink:href="#ArialMT-58" transform="translate(211.21875 0)"/>
      <use xlink:href="#ArialMT-50" transform="translate(266.828125 0)"/>
     </g>
    </g>
    <g id="line2d_110">
     <path d="M 71.398945 39.798047 
L 83.398945 39.798047 
L 95.398945 39.798047 
" style="fill: none; stroke: #1f77b4; stroke-width: 2.5; stroke-linecap: square"/>
    </g>
    <g id="text_20">
     <!-- 1h -->
     <g transform="translate(104.998945 43.998047) scale(0.12 -0.12)">
      <defs>
       <path id="ArialMT-4b" d="M 422 0 
L 422 4581 
L 984 4581 
L 984 2938 
Q 1378 3394 1978 3394 
Q 2347 3394 2619 3248 
Q 2891 3103 3008 2847 
Q 3125 2591 3125 2103 
L 3125 0 
L 2563 0 
L 2563 2103 
Q 2563 2525 2380 2717 
Q 2197 2909 1863 2909 
Q 1613 2909 1392 2779 
Q 1172 2650 1078 2428 
Q 984 2206 984 1816 
L 984 0 
L 422 0 
z
" transform="scale(0.015625)"/>
      </defs>
      <use xlink:href="#ArialMT-14"/>
      <use xlink:href="#ArialMT-4b" transform="translate(55.609375 0)"/>
     </g>
    </g>
    <g id="line2d_111">
     <path d="M 71.398945 57.059766 
L 83.398945 57.059766 
L 95.398945 57.059766 
" style="fill: none; stroke: #0033ff; stroke-width: 2.5; stroke-linecap: square"/>
    </g>
    <g id="text_21">
     <!-- 2h -->
     <g transform="translate(104.998945 61.259766) scale(0.12 -0.12)">
      <use xlink:href="#ArialMT-15"/>
      <use xlink:href="#ArialMT-4b" transform="translate(55.609375 0)"/>
     </g>
    </g>
    <g id="line2d_112">
     <path d="M 71.398945 74.321484 
L 83.398945 74.321484 
L 95.398945 74.321484 
" style="fill: none; stroke: #ff7f0e; stroke-width: 2.5; stroke-linecap: square"/>
    </g>
    <g id="text_22">
     <!-- 4h -->
     <g transform="translate(104.998945 78.521484) scale(0.12 -0.12)">
      <use xlink:href="#ArialMT-17"/>
      <use xlink:href="#ArialMT-4b" transform="translate(55.609375 0)"/>
     </g>
    </g>
    <g id="line2d_113">
     <path d="M 71.398945 91.583203 
L 83.398945 91.583203 
L 95.398945 91.583203 
" style="fill: none; stroke: #ff0000; stroke-width: 2.5; stroke-linecap: square"/>
    </g>
    <g id="text_23">
     <!-- first -->
     <g transform="translate(104.998945 95.783203) scale(0.12 -0.12)">
      <defs>
       <path id="ArialMT-49" d="M 556 0 
L 556 2881 
L 59 2881 
L 59 3319 
L 556 3319 
L 556 3672 
Q 556 4006 616 4169 
Q 697 4388 901 4523 
Q 1106 4659 1475 4659 
Q 1713 4659 2000 4603 
L 1916 4113 
Q 1741 4144 1584 4144 
Q 1328 4144 1222 4034 
Q 1116 3925 1116 3625 
L 1116 3319 
L 1763 3319 
L 1763 2881 
L 1116 2881 
L 1116 0 
L 556 0 
z
" transform="scale(0.015625)"/>
       <path id="ArialMT-4c" d="M 425 3934 
L 425 4581 
L 988 4581 
L 988 3934 
L 425 3934 
z
M 425 0 
L 425 3319 
L 988 3319 
L 988 0 
L 425 0 
z
" transform="scale(0.015625)"/>
       <path id="ArialMT-56" d="M 197 991 
L 753 1078 
Q 800 744 1014 566 
Q 1228 388 1613 388 
Q 2000 388 2187 545 
Q 2375 703 2375 916 
Q 2375 1106 2209 1216 
Q 2094 1291 1634 1406 
Q 1016 1563 777 1677 
Q 538 1791 414 1992 
Q 291 2194 291 2438 
Q 291 2659 392 2848 
Q 494 3038 669 3163 
Q 800 3259 1026 3326 
Q 1253 3394 1513 3394 
Q 1903 3394 2198 3281 
Q 2494 3169 2634 2976 
Q 2775 2784 2828 2463 
L 2278 2388 
Q 2241 2644 2061 2787 
Q 1881 2931 1553 2931 
Q 1166 2931 1000 2803 
Q 834 2675 834 2503 
Q 834 2394 903 2306 
Q 972 2216 1119 2156 
Q 1203 2125 1616 2013 
Q 2213 1853 2448 1751 
Q 2684 1650 2818 1456 
Q 2953 1263 2953 975 
Q 2953 694 2789 445 
Q 2625 197 2315 61 
Q 2006 -75 1616 -75 
Q 969 -75 630 194 
Q 291 463 197 991 
z
" transform="scale(0.015625)"/>
      </defs>
      <use xlink:href="#ArialMT-49"/>
      <use xlink:href="#ArialMT-4c" transform="translate(27.78125 0)"/>
      <use xlink:href="#ArialMT-55" transform="translate(50 0)"/>
      <use xlink:href="#ArialMT-56" transform="translate(83.296875 0)"/>
      <use xlink:href="#ArialMT-57" transform="translate(133.296875 0)"/>
     </g>
    </g>
   </g>
  </g>
 </g>
 <defs>
  <clipPath id="pc8e0b4c469">
   <rect x="60.598945" y="7.2" width="365.281328" height="292.622656"/>
  </clipPath>
 </defs>
</svg>
