<?xml version="1.0" encoding="utf-8" standalone="no"?>
<!DOCTYPE svg PUBLIC "-//W3C//DTD SVG 1.1//EN"
  "http://www.w3.org/Graphics/SVG/1.1/DTD/svg11.dtd">
<svg xmlns:xlink="http://www.w3.org/1999/xlink" width="448.650898pt" height="340.800273pt" viewBox="0 0 448.650898 340.800273" xmlns="http://www.w3.org/2000/svg" version="1.1">
 <metadata>
  <rdf:RDF xmlns:dc="http://purl.org/dc/elements/1.1/" xmlns:cc="http://creativecommons.org/ns#" xmlns:rdf="http://www.w3.org/1999/02/22-rdf-syntax-ns#">
   <cc:Work>
    <dc:type rdf:resource="http://purl.org/dc/dcmitype/StillImage"/>
    <dc:date>2026-07-09T17:08:43.403423</dc:date>
    <dc:format>image/svg+xml</dc:format>
    <dc:creator>
     <cc:Agent>
      <dc:title>Matplotlib v3.11.0, https://matplotlib.org/</dc:title>
     </cc:Agent>
    </dc:creator>
   </cc:Work>
  </rdf:RDF>
 </metadata>
 <defs>
  <style type="text/css">*{stroke-linejoin: round; stroke-linecap: butt}</style>
 </defs>
 <g id="figure_1">
  <g id="patch_1">
   <path d="M 0 340.800273 
L 448.650898 340.800273 
L 448.650898 0 
L 0 0 
z
" style="fill: #ffffff"/>
  </g>
  <g id="axes_1">
   <g id="patch_2">
    <path d="M 60.598945 299.822656 
L 425.880273 299.822656 
L 425.880273 7.2 
L 60.598945 7.2 
z
" style="fill: #ffffff"/>
   </g>
   <g id="matplotlib.axis_1">
    <g id="xtick_1">
     <g id="line2d_1">
      <defs>
       <path id="m81825e0bd2" d="M 0 0 
L 0 -6 
" style="stroke: #000000; stroke-width: 1.5"/>
      </defs>
      <g>
       <use xlink:href="#m81825e0bd2" x="60.598945" y="299.822656" style="stroke: #000000; stroke-width: 1.5"/>
      </g>
     </g>
     <g id="text_1">
      <!-- 0 -->
      <g transform="translate(56.706289 313.515039) scale(0.14 -0.14)">
       <defs>
        <path id="ArialMT-13" d="M 266 2259 
Q 266 3072 433 3567 
Q 600 4063 929 4331 
Q 1259 4600 1759 4600 
Q 2128 4600 2406 4451 
Q 2684 4303 2865 4023 
Q 3047 3744 3150 3342 
Q 3253 2941 3253 2259 
Q 3253 1453 3087 958 
Q 2922 463 2592 192 
Q 2263 -78 1759 -78 
Q 1097 -78 719 397 
Q 266 969 266 2259 
z
M 844 2259 
Q 844 1131 1108 757 
Q 1372 384 1759 384 
Q 2147 384 2411 759 
Q 2675 1134 2675 2259 
Q 2675 3391 2411 3762 
Q 2147 4134 1753 4134 
Q 1366 4134 1134 3806 
Q 844 3388 844 2259 
z
" transform="scale(0.015625)"/>
       </defs>
       <use xlink:href="#ArialMT-13"/>
      </g>
     </g>
    </g>
    <g id="xtick_2">
     <g id="line2d_2">
      <g>
       <use xlink:href="#m81825e0bd2" x="121.479167" y="299.822656" style="stroke: #000000; stroke-width: 1.5"/>
      </g>
     </g>
     <g id="text_2">
      <!-- 200 -->
      <g transform="translate(109.801198 313.515039) scale(0.14 -0.14)">
       <defs>
        <path id="ArialMT-15" d="M 3222 541 
L 3222 0 
L 194 0 
Q 188 203 259 391 
Q 375 700 629 1000 
Q 884 1300 1366 1694 
Q 2113 2306 2375 2664 
Q 2638 3022 2638 3341 
Q 2638 3675 2398 3904 
Q 2159 4134 1775 4134 
Q 1369 4134 1125 3890 
Q 881 3647 878 3216 
L 300 3275 
Q 359 3922 746 4261 
Q 1134 4600 1788 4600 
Q 2447 4600 2831 4234 
Q 3216 3869 3216 3328 
Q 3216 3053 3103 2787 
Q 2991 2522 2730 2228 
Q 2469 1934 1863 1422 
Q 1356 997 1212 845 
Q 1069 694 975 541 
L 3222 541 
z
" transform="scale(0.015625)"/>
       </defs>
       <use xlink:href="#ArialMT-15"/>
       <use xlink:href="#ArialMT-13" transform="translate(55.609375 0)"/>
       <use xlink:href="#ArialMT-13" transform="translate(111.21875 0)"/>
      </g>
     </g>
    </g>
    <g id="xtick_3">
     <g id="line2d_3">
      <g>
       <use xlink:href="#m81825e0bd2" x="182.359388" y="299.822656" style="stroke: #000000; stroke-width: 1.5"/>
      </g>
     </g>
     <g id="text_3">
      <!-- 400 -->
      <g transform="translate(170.681419 313.515039) scale(0.14 -0.14)">
       <defs>
        <path id="ArialMT-17" d="M 2069 0 
L 2069 1097 
L 81 1097 
L 81 1613 
L 2172 4581 
L 2631 4581 
L 2631 1613 
L 3250 1613 
L 3250 1097 
L 2631 1097 
L 2631 0 
L 2069 0 
z
M 2069 1613 
L 2069 3678 
L 634 1613 
L 2069 1613 
z
" transform="scale(0.015625)"/>
       </defs>
       <use xlink:href="#ArialMT-17"/>
       <use xlink:href="#ArialMT-13" transform="translate(55.609375 0)"/>
       <use xlink:href="#ArialMT-13" transform="translate(111.21875 0)"/>
      </g>
     </g>
    </g>
    <g id="xtick_4">
     <g id="line2d_4">
      <g>
       <use xlink:href="#m81825e0bd2" x="243.239609" y="299.822656" style="stroke: #000000; stroke-width: 1.5"/>
      </g>
     </g>
     <g id="text_4">
      <!-- 600 -->
      <g transform="translate(231.561641 313.515039) scale(0.14 -0.14)">
       <defs>
        <path id="ArialMT-19" d="M 3184 3459 
L 2625 3416 
Q 2550 3747 2413 3897 
Q 2184 4138 1850 4138 
Q 1581 4138 1378 3988 
Q 1113 3794 959 3422 
Q 806 3050 800 2363 
Q 1003 2672 1297 2822 
Q 1591 2972 1913 2972 
Q 2475 2972 2870 2558 
Q 3266 2144 3266 1488 
Q 3266 1056 3080 686 
Q 2894 316 2569 119 
Q 2244 -78 1831 -78 
Q 1128 -78 684 439 
Q 241 956 241 2144 
Q 241 3472 731 4075 
Q 1159 4600 1884 4600 
Q 2425 4600 2770 4297 
Q 3116 3994 3184 3459 
z
M 888 1484 
Q 888 1194 1011 928 
Q 1134 663 1356 523 
Q 1578 384 1822 384 
Q 2178 384 2434 671 
Q 2691 959 2691 1453 
Q 2691 1928 2437 2201 
Q 2184 2475 1800 2475 
Q 1419 2475 1153 2201 
Q 888 1928 888 1484 
z
" transform="scale(0.015625)"/>
       </defs>
       <use xlink:href="#ArialMT-19"/>
       <use xlink:href="#ArialMT-13" transform="translate(55.609375 0)"/>
       <use xlink:href="#ArialMT-13" transform="translate(111.21875 0)"/>
      </g>
     </g>
    </g>
    <g id="xtick_5">
     <g id="line2d_5">
      <g>
       <use xlink:href="#m81825e0bd2" x="304.119831" y="299.822656" style="stroke: #000000; stroke-width: 1.5"/>
      </g>
     </g>
     <g id="text_5">
      <!-- 800 -->
      <g transform="translate(292.441862 313.515039) scale(0.14 -0.14)">
       <defs>
        <path id="ArialMT-1b" d="M 1131 2484 
Q 781 2613 612 2850 
Q 444 3088 444 3419 
Q 444 3919 803 4259 
Q 1163 4600 1759 4600 
Q 2359 4600 2725 4251 
Q 3091 3903 3091 3403 
Q 3091 3084 2923 2848 
Q 2756 2613 2416 2484 
Q 2838 2347 3058 2040 
Q 3278 1734 3278 1309 
Q 3278 722 2862 322 
Q 2447 -78 1769 -78 
Q 1091 -78 675 323 
Q 259 725 259 1325 
Q 259 1772 486 2073 
Q 713 2375 1131 2484 
z
M 1019 3438 
Q 1019 3113 1228 2906 
Q 1438 2700 1772 2700 
Q 2097 2700 2305 2904 
Q 2513 3109 2513 3406 
Q 2513 3716 2298 3927 
Q 2084 4138 1766 4138 
Q 1444 4138 1231 3931 
Q 1019 3725 1019 3438 
z
M 838 1322 
Q 838 1081 952 856 
Q 1066 631 1291 507 
Q 1516 384 1775 384 
Q 2178 384 2440 643 
Q 2703 903 2703 1303 
Q 2703 1709 2433 1975 
Q 2163 2241 1756 2241 
Q 1359 2241 1098 1978 
Q 838 1716 838 1322 
z
" transform="scale(0.015625)"/>
       </defs>
       <use xlink:href="#ArialMT-1b"/>
       <use xlink:href="#ArialMT-13" transform="translate(55.609375 0)"/>
       <use xlink:href="#ArialMT-13" transform="translate(111.21875 0)"/>
      </g>
     </g>
    </g>
    <g id="xtick_6">
     <g id="line2d_6">
      <g>
       <use xlink:href="#m81825e0bd2" x="365.000052" y="299.822656" style="stroke: #000000; stroke-width: 1.5"/>
      </g>
     </g>
     <g id="text_6">
      <!-- 1000 -->
      <g transform="translate(349.429427 313.515039) scale(0.14 -0.14)">
       <defs>
        <path id="ArialMT-14" d="M 2384 0 
L 1822 0 
L 1822 3584 
Q 1619 3391 1289 3197 
Q 959 3003 697 2906 
L 697 3450 
Q 1169 3672 1522 3987 
Q 1875 4303 2022 4600 
L 2384 4600 
L 2384 0 
z
" transform="scale(0.015625)"/>
       </defs>
       <use xlink:href="#ArialMT-14"/>
       <use xlink:href="#ArialMT-13" transform="translate(55.609375 0)"/>
       <use xlink:href="#ArialMT-13" transform="translate(111.21875 0)"/>
       <use xlink:href="#ArialMT-13" transform="translate(166.828125 0)"/>
      </g>
     </g>
    </g>
    <g id="xtick_7">
     <g id="line2d_7">
      <g>
       <use xlink:href="#m81825e0bd2" x="425.880273" y="299.822656" style="stroke: #000000; stroke-width: 1.5"/>
      </g>
     </g>
     <g id="text_7">
      <!-- 1200 -->
      <g transform="translate(410.309648 313.515039) scale(0.14 -0.14)">
       <use xlink:href="#ArialMT-14"/>
       <use xlink:href="#ArialMT-15" transform="translate(55.609375 0)"/>
       <use xlink:href="#ArialMT-13" transform="translate(111.21875 0)"/>
       <use xlink:href="#ArialMT-13" transform="translate(166.828125 0)"/>
      </g>
     </g>
    </g>
    <g id="xtick_8">
     <g id="line2d_8">
      <defs>
       <path id="m6f1a292ec8" d="M 0 0 
L 0 -3 
" style="stroke: #000000"/>
      </defs>
      <g>
       <use xlink:href="#m6f1a292ec8" x="75.819001" y="299.822656" style="stroke: #000000"/>
      </g>
     </g>
    </g>
    <g id="xtick_9">
     <g id="line2d_9">
      <g>
       <use xlink:href="#m6f1a292ec8" x="91.039056" y="299.822656" style="stroke: #000000"/>
      </g>
     </g>
    </g>
    <g id="xtick_10">
     <g id="line2d_10">
      <g>
       <use xlink:href="#m6f1a292ec8" x="106.259111" y="299.822656" style="stroke: #000000"/>
      </g>
     </g>
    </g>
    <g id="xtick_11">
     <g id="line2d_11">
      <g>
       <use xlink:href="#m6f1a292ec8" x="136.699222" y="299.822656" style="stroke: #000000"/>
      </g>
     </g>
    </g>
    <g id="xtick_12">
     <g id="line2d_12">
      <g>
       <use xlink:href="#m6f1a292ec8" x="151.919277" y="299.822656" style="stroke: #000000"/>
      </g>
     </g>
    </g>
    <g id="xtick_13">
     <g id="line2d_13">
      <g>
       <use xlink:href="#m6f1a292ec8" x="167.139333" y="299.822656" style="stroke: #000000"/>
      </g>
     </g>
    </g>
    <g id="xtick_14">
     <g id="line2d_14">
      <g>
       <use xlink:href="#m6f1a292ec8" x="197.579443" y="299.822656" style="stroke: #000000"/>
      </g>
     </g>
    </g>
    <g id="xtick_15">
     <g id="line2d_15">
      <g>
       <use xlink:href="#m6f1a292ec8" x="212.799499" y="299.822656" style="stroke: #000000"/>
      </g>
     </g>
    </g>
    <g id="xtick_16">
     <g id="line2d_16">
      <g>
       <use xlink:href="#m6f1a292ec8" x="228.019554" y="299.822656" style="stroke: #000000"/>
      </g>
     </g>
    </g>
    <g id="xtick_17">
     <g id="line2d_17">
      <g>
       <use xlink:href="#m6f1a292ec8" x="258.459665" y="299.822656" style="stroke: #000000"/>
      </g>
     </g>
    </g>
    <g id="xtick_18">
     <g id="line2d_18">
      <g>
       <use xlink:href="#m6f1a292ec8" x="273.67972" y="299.822656" style="stroke: #000000"/>
      </g>
     </g>
    </g>
    <g id="xtick_19">
     <g id="line2d_19">
      <g>
       <use xlink:href="#m6f1a292ec8" x="288.899775" y="299.822656" style="stroke: #000000"/>
      </g>
     </g>
    </g>
    <g id="xtick_20">
     <g id="line2d_20">
      <g>
       <use xlink:href="#m6f1a292ec8" x="319.339886" y="299.822656" style="stroke: #000000"/>
      </g>
     </g>
    </g>
    <g id="xtick_21">
     <g id="line2d_21">
      <g>
       <use xlink:href="#m6f1a292ec8" x="334.559941" y="299.822656" style="stroke: #000000"/>
      </g>
     </g>
    </g>
    <g id="xtick_22">
     <g id="line2d_22">
      <g>
       <use xlink:href="#m6f1a292ec8" x="349.779997" y="299.822656" style="stroke: #000000"/>
      </g>
     </g>
    </g>
    <g id="xtick_23">
     <g id="line2d_23">
      <g>
       <use xlink:href="#m6f1a292ec8" x="380.220107" y="299.822656" style="stroke: #000000"/>
      </g>
     </g>
    </g>
    <g id="xtick_24">
     <g id="line2d_24">
      <g>
       <use xlink:href="#m6f1a292ec8" x="395.440163" y="299.822656" style="stroke: #000000"/>
      </g>
     </g>
    </g>
    <g id="xtick_25">
     <g id="line2d_25">
      <g>
       <use xlink:href="#m6f1a292ec8" x="410.660218" y="299.822656" style="stroke: #000000"/>
      </g>
     </g>
    </g>
    <g id="text_8">
     <!-- T1 Temperature (°C) -->
     <g transform="translate(179.500234 330.653711) scale(0.14 -0.14)">
      <defs>
       <path id="ArialMT-37" d="M 1659 0 
L 1659 4041 
L 150 4041 
L 150 4581 
L 3781 4581 
L 3781 4041 
L 2266 4041 
L 2266 0 
L 1659 0 
z
" transform="scale(0.015625)"/>
       <path id="ArialMT-3" transform="scale(0.015625)"/>
       <path id="ArialMT-48" d="M 2694 1069 
L 3275 997 
Q 3138 488 2766 206 
Q 2394 -75 1816 -75 
Q 1088 -75 661 373 
Q 234 822 234 1631 
Q 234 2469 665 2931 
Q 1097 3394 1784 3394 
Q 2450 3394 2872 2941 
Q 3294 2488 3294 1666 
Q 3294 1616 3291 1516 
L 816 1516 
Q 847 969 1125 678 
Q 1403 388 1819 388 
Q 2128 388 2347 550 
Q 2566 713 2694 1069 
z
M 847 1978 
L 2700 1978 
Q 2663 2397 2488 2606 
Q 2219 2931 1791 2931 
Q 1403 2931 1139 2672 
Q 875 2413 847 1978 
z
" transform="scale(0.015625)"/>
       <path id="ArialMT-50" d="M 422 0 
L 422 3319 
L 925 3319 
L 925 2853 
Q 1081 3097 1340 3245 
Q 1600 3394 1931 3394 
Q 2300 3394 2536 3241 
Q 2772 3088 2869 2813 
Q 3263 3394 3894 3394 
Q 4388 3394 4653 3120 
Q 4919 2847 4919 2278 
L 4919 0 
L 4359 0 
L 4359 2091 
Q 4359 2428 4304 2576 
Q 4250 2725 4106 2815 
Q 3963 2906 3769 2906 
Q 3419 2906 3187 2673 
Q 2956 2441 2956 1928 
L 2956 0 
L 2394 0 
L 2394 2156 
Q 2394 2531 2256 2718 
Q 2119 2906 1806 2906 
Q 1569 2906 1367 2781 
Q 1166 2656 1075 2415 
Q 984 2175 984 1722 
L 984 0 
L 422 0 
z
" transform="scale(0.015625)"/>
       <path id="ArialMT-53" d="M 422 -1272 
L 422 3319 
L 934 3319 
L 934 2888 
Q 1116 3141 1344 3267 
Q 1572 3394 1897 3394 
Q 2322 3394 2647 3175 
Q 2972 2956 3137 2557 
Q 3303 2159 3303 1684 
Q 3303 1175 3120 767 
Q 2938 359 2589 142 
Q 2241 -75 1856 -75 
Q 1575 -75 1351 44 
Q 1128 163 984 344 
L 984 -1272 
L 422 -1272 
z
M 931 1641 
Q 931 1000 1190 694 
Q 1450 388 1819 388 
Q 2194 388 2461 705 
Q 2728 1022 2728 1688 
Q 2728 2322 2467 2637 
Q 2206 2953 1844 2953 
Q 1484 2953 1207 2617 
Q 931 2281 931 1641 
z
" transform="scale(0.015625)"/>
       <path id="ArialMT-55" d="M 416 0 
L 416 3319 
L 922 3319 
L 922 2816 
Q 1116 3169 1280 3281 
Q 1444 3394 1641 3394 
Q 1925 3394 2219 3213 
L 2025 2691 
Q 1819 2813 1613 2813 
Q 1428 2813 1281 2702 
Q 1134 2591 1072 2394 
Q 978 2094 978 1738 
L 978 0 
L 416 0 
z
" transform="scale(0.015625)"/>
       <path id="ArialMT-44" d="M 2588 409 
Q 2275 144 1986 34 
Q 1697 -75 1366 -75 
Q 819 -75 525 192 
Q 231 459 231 875 
Q 231 1119 342 1320 
Q 453 1522 633 1644 
Q 813 1766 1038 1828 
Q 1203 1872 1538 1913 
Q 2219 1994 2541 2106 
Q 2544 2222 2544 2253 
Q 2544 2597 2384 2738 
Q 2169 2928 1744 2928 
Q 1347 2928 1158 2789 
Q 969 2650 878 2297 
L 328 2372 
Q 403 2725 575 2942 
Q 747 3159 1072 3276 
Q 1397 3394 1825 3394 
Q 2250 3394 2515 3294 
Q 2781 3194 2906 3042 
Q 3031 2891 3081 2659 
Q 3109 2516 3109 2141 
L 3109 1391 
Q 3109 606 3145 398 
Q 3181 191 3288 0 
L 2700 0 
Q 2613 175 2588 409 
z
M 2541 1666 
Q 2234 1541 1622 1453 
Q 1275 1403 1131 1340 
Q 988 1278 909 1158 
Q 831 1038 831 891 
Q 831 666 1001 516 
Q 1172 366 1500 366 
Q 1825 366 2078 508 
Q 2331 650 2450 897 
Q 2541 1088 2541 1459 
L 2541 1666 
z
" transform="scale(0.015625)"/>
       <path id="ArialMT-57" d="M 1650 503 
L 1731 6 
Q 1494 -44 1306 -44 
Q 1000 -44 831 53 
Q 663 150 594 308 
Q 525 466 525 972 
L 525 2881 
L 113 2881 
L 113 3319 
L 525 3319 
L 525 4141 
L 1084 4478 
L 1084 3319 
L 1650 3319 
L 1650 2881 
L 1084 2881 
L 1084 941 
Q 1084 700 1114 631 
Q 1144 563 1211 522 
Q 1278 481 1403 481 
Q 1497 481 1650 503 
z
" transform="scale(0.015625)"/>
       <path id="ArialMT-58" d="M 2597 0 
L 2597 488 
Q 2209 -75 1544 -75 
Q 1250 -75 995 37 
Q 741 150 617 320 
Q 494 491 444 738 
Q 409 903 409 1263 
L 409 3319 
L 972 3319 
L 972 1478 
Q 972 1038 1006 884 
Q 1059 663 1231 536 
Q 1403 409 1656 409 
Q 1909 409 2131 539 
Q 2353 669 2445 892 
Q 2538 1116 2538 1541 
L 2538 3319 
L 3100 3319 
L 3100 0 
L 2597 0 
z
" transform="scale(0.015625)"/>
       <path id="ArialMT-b" d="M 1497 -1347 
Q 1031 -759 709 28 
Q 388 816 388 1659 
Q 388 2403 628 3084 
Q 909 3875 1497 4659 
L 1900 4659 
Q 1522 4009 1400 3731 
Q 1209 3300 1100 2831 
Q 966 2247 966 1656 
Q 966 153 1900 -1347 
L 1497 -1347 
z
" transform="scale(0.015625)"/>
       <path id="ArialMT-83" d="M 400 3794 
Q 400 4153 654 4406 
Q 909 4659 1266 4659 
Q 1628 4659 1881 4406 
Q 2134 4153 2134 3794 
Q 2134 3434 1879 3179 
Q 1625 2925 1266 2925 
Q 909 2925 654 3178 
Q 400 3431 400 3794 
z
M 741 3794 
Q 741 3575 895 3420 
Q 1050 3266 1269 3266 
Q 1484 3266 1639 3420 
Q 1794 3575 1794 3794 
Q 1794 4013 1639 4167 
Q 1484 4322 1269 4322 
Q 1050 4322 895 4167 
Q 741 4013 741 3794 
z
" transform="scale(0.015625)"/>
       <path id="ArialMT-26" d="M 3763 1606 
L 4369 1453 
Q 4178 706 3683 314 
Q 3188 -78 2472 -78 
Q 1731 -78 1267 223 
Q 803 525 561 1097 
Q 319 1669 319 2325 
Q 319 3041 592 3573 
Q 866 4106 1370 4382 
Q 1875 4659 2481 4659 
Q 3169 4659 3637 4309 
Q 4106 3959 4291 3325 
L 3694 3184 
Q 3534 3684 3231 3912 
Q 2928 4141 2469 4141 
Q 1941 4141 1586 3887 
Q 1231 3634 1087 3207 
Q 944 2781 944 2328 
Q 944 1744 1114 1308 
Q 1284 872 1643 656 
Q 2003 441 2422 441 
Q 2931 441 3284 734 
Q 3638 1028 3763 1606 
z
" transform="scale(0.015625)"/>
       <path id="ArialMT-c" d="M 791 -1347 
L 388 -1347 
Q 1322 153 1322 1656 
Q 1322 2244 1188 2822 
Q 1081 3291 891 3722 
Q 769 4003 388 4659 
L 791 4659 
Q 1378 3875 1659 3084 
Q 1900 2403 1900 1659 
Q 1900 816 1576 28 
Q 1253 -759 791 -1347 
z
" transform="scale(0.015625)"/>
      </defs>
      <use xlink:href="#ArialMT-37"/>
      <use xlink:href="#ArialMT-14" transform="translate(61.078125 0)"/>
      <use xlink:href="#ArialMT-3" transform="translate(116.6875 0)"/>
      <use xlink:href="#ArialMT-37" transform="translate(142.65625 0)"/>
      <use xlink:href="#ArialMT-48" transform="translate(192.65625 0)"/>
      <use xlink:href="#ArialMT-50" transform="translate(248.265625 0)"/>
      <use xlink:href="#ArialMT-53" transform="translate(331.5625 0)"/>
      <use xlink:href="#ArialMT-48" transform="translate(387.171875 0)"/>
      <use xlink:href="#ArialMT-55" transform="translate(442.78125 0)"/>
      <use xlink:href="#ArialMT-44" transform="translate(476.078125 0)"/>
      <use xlink:href="#ArialMT-57" transform="translate(531.6875 0)"/>
      <use xlink:href="#ArialMT-58" transform="translate(559.46875 0)"/>
      <use xlink:href="#ArialMT-55" transform="translate(615.078125 0)"/>
      <use xlink:href="#ArialMT-48" transform="translate(648.375 0)"/>
      <use xlink:href="#ArialMT-3" transform="translate(703.984375 0)"/>
      <use xlink:href="#ArialMT-b" transform="translate(731.765625 0)"/>
      <use xlink:href="#ArialMT-83" transform="translate(765.0625 0)"/>
      <use xlink:href="#ArialMT-26" transform="translate(805.046875 0)"/>
      <use xlink:href="#ArialMT-c" transform="translate(877.265625 0)"/>
     </g>
    </g>
   </g>
   <g id="matplotlib.axis_2">
    <g id="ytick_1">
     <g id="line2d_26">
      <defs>
       <path id="m1fee34c01c" d="M 0 0 
L 6 0 
" style="stroke: #000000; stroke-width: 1.5"/>
      </defs>
      <g>
       <use xlink:href="#m1fee34c01c" x="60.598945" y="206.817922" style="stroke: #000000; stroke-width: 1.5"/>
      </g>
     </g>
     <g id="text_9">
      <!-- $\mathdefault{10^{-12}}$ -->
      <g transform="translate(24.338945 213.257922) scale(0.14 -0.14)">
       <defs>
        <path id="ArialMT-ed" d="M 3381 1997 
L 356 1997 
L 356 2522 
L 3381 2522 
L 3381 1997 
z
" transform="scale(0.015625)"/>
       </defs>
       <use xlink:href="#ArialMT-14" transform="translate(0 0.3875)"/>
       <use xlink:href="#ArialMT-13" transform="translate(55.615234 0.3875)"/>
       <use xlink:href="#ArialMT-ed" transform="translate(112.1875 41.6875) scale(0.7)"/>
       <use xlink:href="#ArialMT-14" transform="translate(153.066406 41.6875) scale(0.7)"/>
       <use xlink:href="#ArialMT-15" transform="translate(191.99707 41.6875) scale(0.7)"/>
      </g>
     </g>
    </g>
    <g id="ytick_2">
     <g id="line2d_27">
      <g>
       <use xlink:href="#m1fee34c01c" x="60.598945" y="79.423751" style="stroke: #000000; stroke-width: 1.5"/>
      </g>
     </g>
     <g id="text_10">
      <!-- $\mathdefault{10^{-11}}$ -->
      <g transform="translate(25.038945 85.863751) scale(0.14 -0.14)">
       <use xlink:href="#ArialMT-14" transform="translate(0 0.3875)"/>
       <use xlink:href="#ArialMT-13" transform="translate(55.615234 0.3875)"/>
       <use xlink:href="#ArialMT-ed" transform="translate(112.1875 41.6875) scale(0.7)"/>
       <use xlink:href="#ArialMT-14" transform="translate(153.066406 41.6875) scale(0.7)"/>
       <use xlink:href="#ArialMT-14" transform="translate(187.09707 41.6875) scale(0.7)"/>
      </g>
     </g>
    </g>
    <g id="ytick_3">
     <g id="line2d_28">
      <defs>
       <path id="mee12fe9757" d="M 0 0 
L 3 0 
" style="stroke: #000000"/>
      </defs>
      <g>
       <use xlink:href="#mee12fe9757" x="60.598945" y="295.862627" style="stroke: #000000"/>
      </g>
     </g>
    </g>
    <g id="ytick_4">
     <g id="line2d_29">
      <g>
       <use xlink:href="#mee12fe9757" x="60.598945" y="273.429627" style="stroke: #000000"/>
      </g>
     </g>
    </g>
    <g id="ytick_5">
     <g id="line2d_30">
      <g>
       <use xlink:href="#mee12fe9757" x="60.598945" y="257.51316" style="stroke: #000000"/>
      </g>
     </g>
    </g>
    <g id="ytick_6">
     <g id="line2d_31">
      <g>
       <use xlink:href="#mee12fe9757" x="60.598945" y="245.167389" style="stroke: #000000"/>
      </g>
     </g>
    </g>
    <g id="ytick_7">
     <g id="line2d_32">
      <g>
       <use xlink:href="#mee12fe9757" x="60.598945" y="235.08016" style="stroke: #000000"/>
      </g>
     </g>
    </g>
    <g id="ytick_8">
     <g id="line2d_33">
      <g>
       <use xlink:href="#mee12fe9757" x="60.598945" y="226.551529" style="stroke: #000000"/>
      </g>
     </g>
    </g>
    <g id="ytick_9">
     <g id="line2d_34">
      <g>
       <use xlink:href="#mee12fe9757" x="60.598945" y="219.163693" style="stroke: #000000"/>
      </g>
     </g>
    </g>
    <g id="ytick_10">
     <g id="line2d_35">
      <g>
       <use xlink:href="#mee12fe9757" x="60.598945" y="212.64716" style="stroke: #000000"/>
      </g>
     </g>
    </g>
    <g id="ytick_11">
     <g id="line2d_36">
      <g>
       <use xlink:href="#mee12fe9757" x="60.598945" y="168.468455" style="stroke: #000000"/>
      </g>
     </g>
    </g>
    <g id="ytick_12">
     <g id="line2d_37">
      <g>
       <use xlink:href="#mee12fe9757" x="60.598945" y="146.035455" style="stroke: #000000"/>
      </g>
     </g>
    </g>
    <g id="ytick_13">
     <g id="line2d_38">
      <g>
       <use xlink:href="#mee12fe9757" x="60.598945" y="130.118989" style="stroke: #000000"/>
      </g>
     </g>
    </g>
    <g id="ytick_14">
     <g id="line2d_39">
      <g>
       <use xlink:href="#mee12fe9757" x="60.598945" y="117.773218" style="stroke: #000000"/>
      </g>
     </g>
    </g>
    <g id="ytick_15">
     <g id="line2d_40">
      <g>
       <use xlink:href="#mee12fe9757" x="60.598945" y="107.685989" style="stroke: #000000"/>
      </g>
     </g>
    </g>
    <g id="ytick_16">
     <g id="line2d_41">
      <g>
       <use xlink:href="#mee12fe9757" x="60.598945" y="99.157358" style="stroke: #000000"/>
      </g>
     </g>
    </g>
    <g id="ytick_17">
     <g id="line2d_42">
      <g>
       <use xlink:href="#mee12fe9757" x="60.598945" y="91.769522" style="stroke: #000000"/>
      </g>
     </g>
    </g>
    <g id="ytick_18">
     <g id="line2d_43">
      <g>
       <use xlink:href="#mee12fe9757" x="60.598945" y="85.252989" style="stroke: #000000"/>
      </g>
     </g>
    </g>
    <g id="ytick_19">
     <g id="line2d_44">
      <g>
       <use xlink:href="#mee12fe9757" x="60.598945" y="41.074284" style="stroke: #000000"/>
      </g>
     </g>
    </g>
    <g id="ytick_20">
     <g id="line2d_45">
      <g>
       <use xlink:href="#mee12fe9757" x="60.598945" y="18.641284" style="stroke: #000000"/>
      </g>
     </g>
    </g>
    <g id="text_11">
     <!-- Ion Current (m/z 44) -->
     <g transform="translate(17.392383 216.137266) rotate(-90) scale(0.14 -0.14)">
      <defs>
       <path id="ArialMT-2c" d="M 597 0 
L 597 4581 
L 1203 4581 
L 1203 0 
L 597 0 
z
" transform="scale(0.015625)"/>
       <path id="ArialMT-52" d="M 213 1659 
Q 213 2581 725 3025 
Q 1153 3394 1769 3394 
Q 2453 3394 2887 2945 
Q 3322 2497 3322 1706 
Q 3322 1066 3130 698 
Q 2938 331 2570 128 
Q 2203 -75 1769 -75 
Q 1072 -75 642 372 
Q 213 819 213 1659 
z
M 791 1659 
Q 791 1022 1069 705 
Q 1347 388 1769 388 
Q 2188 388 2466 706 
Q 2744 1025 2744 1678 
Q 2744 2294 2464 2611 
Q 2184 2928 1769 2928 
Q 1347 2928 1069 2612 
Q 791 2297 791 1659 
z
" transform="scale(0.015625)"/>
       <path id="ArialMT-51" d="M 422 0 
L 422 3319 
L 928 3319 
L 928 2847 
Q 1294 3394 1984 3394 
Q 2284 3394 2536 3286 
Q 2788 3178 2913 3003 
Q 3038 2828 3088 2588 
Q 3119 2431 3119 2041 
L 3119 0 
L 2556 0 
L 2556 2019 
Q 2556 2363 2490 2533 
Q 2425 2703 2258 2804 
Q 2091 2906 1866 2906 
Q 1506 2906 1245 2678 
Q 984 2450 984 1813 
L 984 0 
L 422 0 
z
" transform="scale(0.015625)"/>
       <path id="ArialMT-12" d="M 0 -78 
L 1328 4659 
L 1778 4659 
L 453 -78 
L 0 -78 
z
" transform="scale(0.015625)"/>
       <path id="ArialMT-5d" d="M 125 0 
L 125 456 
L 2238 2881 
Q 1878 2863 1603 2863 
L 250 2863 
L 250 3319 
L 2963 3319 
L 2963 2947 
L 1166 841 
L 819 456 
Q 1197 484 1528 484 
L 3063 484 
L 3063 0 
L 125 0 
z
" transform="scale(0.015625)"/>
      </defs>
      <use xlink:href="#ArialMT-2c"/>
      <use xlink:href="#ArialMT-52" transform="translate(27.78125 0)"/>
      <use xlink:href="#ArialMT-51" transform="translate(83.390625 0)"/>
      <use xlink:href="#ArialMT-3" transform="translate(139 0)"/>
      <use xlink:href="#ArialMT-26" transform="translate(166.78125 0)"/>
      <use xlink:href="#ArialMT-58" transform="translate(239 0)"/>
      <use xlink:href="#ArialMT-55" transform="translate(294.609375 0)"/>
      <use xlink:href="#ArialMT-55" transform="translate(327.90625 0)"/>
      <use xlink:href="#ArialMT-48" transform="translate(361.203125 0)"/>
      <use xlink:href="#ArialMT-51" transform="translate(416.8125 0)"/>
      <use xlink:href="#ArialMT-57" transform="translate(472.421875 0)"/>
      <use xlink:href="#ArialMT-3" transform="translate(500.203125 0)"/>
      <use xlink:href="#ArialMT-b" transform="translate(527.984375 0)"/>
      <use xlink:href="#ArialMT-50" transform="translate(561.28125 0)"/>
      <use xlink:href="#ArialMT-12" transform="translate(644.578125 0)"/>
      <use xlink:href="#ArialMT-5d" transform="translate(672.359375 0)"/>
      <use xlink:href="#ArialMT-3" transform="translate(722.359375 0)"/>
      <use xlink:href="#ArialMT-17" transform="translate(750.140625 0)"/>
      <use xlink:href="#ArialMT-17" transform="translate(805.75 0)"/>
      <use xlink:href="#ArialMT-c" transform="translate(861.359375 0)"/>
     </g>
    </g>
   </g>
   <g id="line2d_46">
    <path d="M 78.802131 282.052033 
L 78.802131 268.557267 
L 78.680371 278.184801 
L 78.680371 279.70983 
L 78.832572 274.845878 
L 79.502254 267.346959 
L 81.08514 264.690636 
L 83.276828 261.566838 
L 85.407636 259.045748 
L 87.203602 261.109474 
L 88.634287 259.336002 
L 89.821452 260.967593 
L 91.008616 264.158771 
L 92.07402 267.672756 
L 93.169864 266.395046 
L 94.357028 265.254718 
L 95.574632 266.00395 
L 96.792237 263.360132 
L 98.131602 262.76212 
L 99.440527 267.511723 
L 100.688571 267.899919 
L 101.936616 271.299792 
L 103.15422 271.066098 
L 104.280504 272.147891 
L 106.654833 270.865137 
L 107.872437 270.532601 
L 108.998721 266.902626 
L 110.185886 267.175305 
L 111.37305 270.889864 
L 112.560214 270.119782 
L 113.747379 273.654085 
L 114.964983 272.719963 
L 116.182587 272.367062 
L 118.587356 275.423398 
L 119.77452 272.350226 
L 120.931245 271.599583 
L 122.118409 271.964449 
L 124.492738 266.690125 
L 125.679902 271.210232 
L 126.867066 269.709588 
L 128.084671 266.599248 
L 129.241395 265.195455 
L 130.458999 266.47032 
L 131.646164 267.427805 
L 132.833328 270.589077 
L 134.020492 271.479805 
L 135.207657 268.684917 
L 136.425261 268.635795 
L 137.642865 271.715212 
L 138.86047 267.31722 
L 140.078074 266.296592 
L 142.421963 267.122824 
L 143.639567 270.221682 
L 144.765851 266.688657 
L 145.953016 267.906872 
L 147.17062 267.699096 
L 148.388225 263.010419 
L 149.575389 261.332199 
L 150.792993 258.585764 
L 151.919277 259.559796 
L 153.106442 259.003131 
L 154.263166 260.640199 
L 155.45033 264.95688 
L 156.607054 266.524375 
L 157.824659 271.524299 
L 159.011823 273.831255 
L 160.198987 268.759913 
L 161.416592 269.785077 
L 162.573316 270.03252 
L 163.790921 270.00783 
L 164.947645 266.638349 
L 166.165249 269.672048 
L 167.352413 271.659067 
L 168.570018 271.654982 
L 169.787622 273.801194 
L 170.944347 276.275609 
L 172.161951 276.667529 
L 173.349115 275.480493 
L 174.505839 275.546552 
L 175.662564 275.202645 
L 176.880168 268.764067 
L 178.036892 266.988248 
L 179.193617 266.931416 
L 180.380781 266.990884 
L 181.598385 271.059108 
L 182.84643 270.254325 
L 184.033594 270.401132 
L 185.251199 265.469455 
L 186.468803 267.528299 
L 188.843132 264.306751 
L 189.999856 265.719659 
L 191.21746 267.829008 
L 192.435065 271.289895 
L 193.561349 273.094044 
L 194.687633 272.089377 
L 195.905237 274.948812 
L 197.092402 271.369903 
L 198.279566 271.39289 
L 199.46673 268.437353 
L 200.653895 267.925839 
L 201.780179 267.0314 
L 202.967343 265.016287 
L 204.184947 265.472988 
L 205.372112 264.694061 
L 206.528836 267.50404 
L 207.716 268.169236 
L 208.903165 267.44354 
L 210.120769 270.146672 
L 211.277493 273.200797 
L 212.464657 271.328684 
L 213.682262 270.914888 
L 214.869426 269.472244 
L 216.056591 272.501405 
L 217.213315 272.360459 
L 218.430919 274.91831 
L 219.618083 272.321917 
L 220.774808 270.911812 
L 221.961972 272.599541 
L 223.149136 272.130687 
L 224.336301 267.620327 
L 225.462585 266.709819 
L 226.680189 266.417463 
L 227.836913 269.849556 
L 229.024078 272.123296 
L 230.272122 270.971774 
L 231.428846 267.156407 
L 232.616011 265.420877 
L 233.711855 264.050853 
L 234.838139 262.924645 
L 236.025303 258.939947 
L 237.242908 259.655562 
L 238.460512 261.306038 
L 239.647676 265.461921 
L 240.865281 268.332797 
L 242.052445 266.298767 
L 243.178729 265.262321 
L 244.396334 266.800065 
L 245.583498 263.629854 
L 246.801102 260.880678 
L 247.957827 257.232042 
L 249.144991 259.48237 
L 250.362595 261.055024 
L 251.54976 264.713029 
L 252.706484 261.576335 
L 253.893648 258.887451 
L 256.267977 261.530122 
L 257.485581 261.220871 
L 258.672745 262.951141 
L 259.82947 265.795859 
L 261.077514 269.701253 
L 262.234238 272.182962 
L 263.421403 272.549018 
L 264.578127 265.705238 
L 265.765291 265.802495 
L 267.013336 262.894461 
L 268.13962 262.197621 
L 269.326784 264.648813 
L 270.513949 268.69271 
L 271.670673 268.976905 
L 274.136322 267.723621 
L 275.353926 267.315639 
L 276.54109 262.749092 
L 277.697815 259.993231 
L 278.915419 253.529889 
L 280.072143 254.770659 
L 281.289748 257.678101 
L 282.507352 259.058938 
L 286.068845 267.143264 
L 287.225569 270.520982 
L 288.443174 269.045807 
L 289.599898 269.62093 
L 290.756622 271.753367 
L 291.943786 270.28351 
L 293.130951 269.987414 
L 294.287675 267.04366 
L 295.505279 266.474121 
L 296.722884 263.890055 
L 297.849168 260.971103 
L 299.066772 261.43723 
L 300.284377 260.595707 
L 301.410661 262.09297 
L 302.597825 265.721325 
L 303.78499 263.994141 
L 304.972154 267.23196 
L 306.159318 270.137562 
L 307.285602 267.381152 
L 308.503207 265.254899 
L 309.690371 261.189885 
L 310.847095 261.046102 
L 312.03426 255.17134 
L 313.221424 252.322334 
L 314.408588 251.395631 
L 315.595752 250.291011 
L 317.909201 250.891495 
L 319.157245 250.016008 
L 321.501134 253.343098 
L 322.627418 255.220758 
L 323.875463 257.971548 
L 325.032187 259.579396 
L 326.249791 258.222067 
L 327.406515 255.80057 
L 328.56324 250.519585 
L 329.750404 251.048005 
L 330.968008 251.073931 
L 332.094292 250.460513 
L 333.342337 250.372624 
L 334.833902 255.629642 
L 336.112387 258.731756 
L 337.299551 254.543011 
L 338.517156 251.858782 
L 339.64344 247.8258 
L 340.800164 246.107587 
L 342.048209 249.630517 
L 343.235373 248.017362 
L 344.452977 248.373135 
L 346.796866 253.633378 
L 347.92315 249.730823 
L 349.201635 246.742429 
L 351.484643 242.099129 
L 352.702247 243.061456 
L 353.950292 242.773129 
L 355.015696 240.084677 
L 356.20286 242.506628 
L 357.481345 241.422102 
L 358.607629 238.272343 
L 359.825233 237.346045 
L 361.042838 234.994791 
L 362.260442 233.946867 
L 363.264966 233.391143 
L 364.51301 231.388364 
L 365.791495 227.316829 
L 366.856899 227.763504 
L 368.074503 225.748446 
L 369.444308 222.668724 
L 370.631473 218.524628 
L 372.853601 216.395494 
L 374.040765 214.792573 
L 375.197489 214.865345 
L 376.415094 210.414235 
L 377.480497 209.21077 
L 378.667662 208.524158 
L 379.854826 205.655512 
L 381.04199 207.258993 
L 383.446759 197.443623 
L 384.542603 193.646881 
L 385.760208 188.763812 
L 386.856052 186.231134 
L 388.225857 180.770486 
L 389.382581 178.34444 
L 390.569745 175.39133 
L 391.726469 173.564279 
L 392.974514 169.42038 
L 393.979037 163.338071 
L 395.622803 158.328375 
L 396.870848 154.076949 
L 398.149333 148.529458 
L 399.275617 142.933807 
L 400.462781 138.011035 
L 401.710826 133.408626 
L 402.776229 128.102302 
L 403.963394 123.422839 
L 405.059238 118.041773 
L 406.368162 114.192668 
L 410.020976 99.954037 
L 413.369388 82.902479 
L 415.743717 71.577814 
L 418.331126 61.864098 
L 419.30521 56.552666 
L 420.644574 51.675574 
L 421.679538 46.884338 
L 424.145187 37.5347 
L 425.119271 32.967952 
L 425.119271 32.967952 
" clip-path="url(#pdd0dfc9940)" style="fill: none; stroke: #000000; stroke-width: 2.5; stroke-linecap: square"/>
   </g>
   <g id="line2d_47">
    <path d="M 71.100783 245.01311 
L 71.100783 236.696686 
L 71.100783 238.180134 
L 71.252984 241.103221 
L 71.892226 241.163626 
L 73.566432 237.97516 
L 75.72768 238.52775 
L 77.828048 239.902322 
L 79.593574 239.447473 
L 81.0547 238.598173 
L 82.272304 241.047161 
L 83.368148 241.438788 
L 84.372672 241.078474 
L 86.77744 238.952248 
L 87.873284 238.205448 
L 89.151769 239.63297 
L 91.465218 245.600856 
L 92.774142 250.727471 
L 93.900426 251.590908 
L 95.148471 249.843754 
L 96.396515 247.620697 
L 97.64456 245.112095 
L 98.862164 243.821159 
L 100.140649 242.173633 
L 101.449574 243.081499 
L 102.575858 245.18489 
L 103.823902 244.055882 
L 104.950187 247.749181 
L 106.167791 247.138663 
L 107.294075 246.420336 
L 108.57256 243.242382 
L 109.790164 239.310838 
L 110.946888 236.91665 
L 112.073172 237.89123 
L 113.290777 240.063093 
L 114.508381 243.50598 
L 115.695546 242.717079 
L 116.91315 246.329708 
L 117.978554 249.051738 
L 119.226598 246.881501 
L 120.413763 243.639788 
L 121.631367 241.897535 
L 122.879412 243.974471 
L 123.944816 245.474769 
L 125.19286 245.129389 
L 126.380024 246.577095 
L 127.628069 247.043885 
L 128.754353 246.096953 
L 129.971958 246.58507 
L 131.220002 244.443929 
L 132.285406 241.302294 
L 133.53345 242.251446 
L 134.751055 245.391239 
L 135.846899 245.067899 
L 137.094943 241.332534 
L 138.342988 240.657555 
L 139.499712 241.428619 
L 140.747757 240.747944 
L 143.122085 240.653503 
L 144.248369 237.963389 
L 145.405094 239.466661 
L 146.622698 237.566133 
L 147.809862 235.201786 
L 148.997027 231.336862 
L 150.153751 229.727271 
L 151.401795 230.606262 
L 152.6194 231.224663 
L 153.806564 230.021375 
L 154.932848 230.932088 
L 156.211333 228.715189 
L 157.337617 227.475879 
L 158.463901 223.688669 
L 159.742386 221.571732 
L 160.89911 218.621991 
L 162.177595 218.072391 
L 163.303879 217.464357 
L 164.491043 215.356601 
L 165.678207 214.642242 
L 166.834932 214.486397 
L 168.052536 212.565859 
L 169.27014 211.85191 
L 172.862073 200.4861 
L 173.988358 197.323416 
L 175.114642 194.561928 
L 176.362686 192.807116 
L 177.549851 192.681057 
L 178.706575 193.329302 
L 179.893739 194.189188 
L 181.080903 193.577698 
L 182.298508 190.084047 
L 183.546552 188.117917 
L 185.860001 177.092958 
L 187.077605 172.440433 
L 188.203889 165.892614 
L 190.639098 155.861578 
L 191.795822 151.902721 
L 192.982987 149.447835 
L 194.170151 148.094949 
L 195.357315 149.226043 
L 196.60536 150.671937 
L 197.762084 153.934343 
L 198.949248 158.59433 
L 200.105973 161.832887 
L 201.293137 166.972881 
L 202.510741 169.97438 
L 203.728346 171.858873 
L 204.85463 172.33189 
L 206.041794 173.061418 
L 207.228958 173.557661 
L 208.446563 174.443166 
L 209.664167 177.043768 
L 210.790451 179.185649 
L 212.008056 179.960719 
L 213.16478 184.091681 
L 214.351944 184.512546 
L 215.539109 186.119969 
L 216.726273 188.512941 
L 217.822117 191.213226 
L 219.131042 191.805913 
L 220.226886 193.352921 
L 221.44449 197.62709 
L 223.818819 199.694421 
L 225.005983 204.01738 
L 226.162707 203.787252 
L 227.319431 208.16695 
L 228.506596 211.260132 
L 229.69376 211.829551 
L 230.850484 210.526998 
L 232.098529 209.688043 
L 233.255253 209.811235 
L 234.442417 209.146428 
L 235.660022 208.644216 
L 236.786306 209.520006 
L 238.03435 208.285488 
L 239.221515 208.759415 
L 240.347799 208.489006 
L 242.691687 208.824713 
L 243.878852 210.289443 
L 245.066016 209.281589 
L 246.22274 209.368877 
L 247.470785 207.91393 
L 248.657949 209.520231 
L 249.814673 208.690716 
L 251.032278 207.508062 
L 252.189002 209.0961 
L 253.406606 209.944844 
L 254.593771 210.98023 
L 255.750495 210.031281 
L 256.968099 209.309431 
L 258.124823 208.261164 
L 259.372868 206.728466 
L 260.499152 207.700045 
L 261.716757 206.726044 
L 262.873481 207.226006 
L 264.091085 209.827559 
L 265.27825 210.061966 
L 266.404534 209.788757 
L 267.652578 209.641215 
L 268.809302 208.794939 
L 269.966027 205.801992 
L 273.5884 199.712262 
L 275.993168 195.502585 
L 277.210773 194.810733 
L 278.397937 193.954825 
L 279.615542 196.019974 
L 280.802706 197.661516 
L 281.98987 200.222707 
L 283.116154 204.09495 
L 284.303319 205.966304 
L 285.490483 206.565499 
L 286.708087 206.106008 
L 287.864812 203.631922 
L 290.23914 203.107084 
L 291.456745 204.186186 
L 292.613469 204.110104 
L 293.770193 205.224116 
L 294.987798 208.352902 
L 296.144522 209.280408 
L 297.301246 209.510752 
L 298.51885 210.398207 
L 299.736455 208.582856 
L 300.862739 209.498165 
L 302.080343 208.10632 
L 304.424232 203.971514 
L 305.611396 204.372088 
L 306.79856 206.290567 
L 308.016165 206.384959 
L 310.360053 209.50638 
L 311.486338 208.854232 
L 312.703942 209.877905 
L 313.891106 208.286027 
L 315.04783 208.083479 
L 316.234995 207.614788 
L 317.391719 206.379932 
L 318.578883 206.237535 
L 319.766048 203.18637 
L 320.983652 202.930456 
L 322.170816 201.34436 
L 323.357981 200.085398 
L 324.484265 197.283811 
L 325.671429 192.908005 
L 326.889034 188.856358 
L 328.106638 185.711716 
L 330.450526 174.429451 
L 332.763975 156.331411 
L 334.2251 146.326388 
L 335.534025 135.995033 
L 336.751629 127.96631 
L 337.999674 122.904571 
L 339.186838 119.904729 
L 340.313122 119.544179 
L 341.561167 122.520053 
L 342.717891 127.281023 
L 343.844175 134.043917 
L 345.09222 140.683647 
L 346.248944 146.220799 
L 347.496988 150.698365 
L 348.623273 153.331893 
L 349.840877 155.509571 
L 351.028041 156.165701 
L 352.215206 157.4683 
L 354.528654 165.074951 
L 355.685378 170.162339 
L 356.933423 173.748417 
L 358.120587 179.129917 
L 359.277311 182.168081 
L 360.525356 181.511004 
L 361.56032 182.687906 
L 364.117289 184.848659 
L 365.213133 186.523965 
L 367.526581 191.797969 
L 368.713746 195.365297 
L 369.99223 196.907885 
L 372.366559 192.033387 
L 373.492843 188.073618 
L 374.680007 185.371731 
L 377.054336 182.543921 
L 378.11974 183.103232 
L 379.398224 181.57745 
L 380.585389 179.490166 
L 381.681233 176.494444 
L 384.116442 172.810384 
L 385.242726 170.244395 
L 386.42989 169.034397 
L 387.586614 167.366311 
L 388.834659 166.162606 
L 391.117667 159.489764 
L 394.892241 145.646762 
L 399.914859 128.09418 
L 401.071583 124.598905 
L 402.289188 120.250705 
L 405.911561 109.284796 
L 406.946525 104.859667 
L 409.412174 96.416004 
L 410.386257 91.915318 
L 411.725622 87.222179 
L 414.160831 76.36649 
L 415.256675 71.072444 
L 422.2579 43.751062 
L 423.688585 39.496917 
L 424.784429 35.288832 
L 424.784429 35.288832 
" clip-path="url(#pdd0dfc9940)" style="fill: none; stroke: #1f77b4; stroke-width: 2.5; stroke-linecap: square"/>
   </g>
   <g id="line2d_48">
    <path d="M 70.918143 238.057473 
L 70.918143 234.420759 
L 70.918143 241.581775 
L 71.039903 238.631492 
L 71.618265 238.224087 
L 73.01851 242.187244 
L 75.179758 241.172036 
L 79.258733 237.807429 
L 80.780739 238.824864 
L 82.028783 240.705879 
L 83.124627 239.645408 
L 84.220471 240.702918 
L 85.316315 240.722033 
L 86.442599 240.349142 
L 87.629764 242.966307 
L 88.847368 241.514259 
L 90.034532 240.916751 
L 91.221697 240.6106 
L 92.408861 241.688033 
L 93.596025 241.69836 
L 94.81363 240.067071 
L 96.000794 241.682172 
L 98.649084 241.725881 
L 99.927568 245.150085 
L 101.145173 247.365673 
L 102.332337 247.15516 
L 103.519501 244.939621 
L 104.706666 241.355187 
L 105.89383 241.639153 
L 107.080994 240.466645 
L 108.298599 239.501425 
L 109.455323 239.964855 
L 110.672927 241.511181 
L 111.860092 243.294979 
L 113.047256 244.562691 
L 114.26486 243.970343 
L 116.639189 246.987627 
L 117.826353 247.975065 
L 119.013518 246.93148 
L 120.200682 245.572791 
L 121.326966 244.600252 
L 122.575011 245.702737 
L 123.731735 246.496868 
L 124.888459 246.286567 
L 126.106063 245.350314 
L 127.323668 248.27323 
L 128.480392 249.254621 
L 129.667556 246.010625 
L 130.824281 245.461371 
L 131.981005 245.514323 
L 133.229049 245.832233 
L 134.385774 248.579251 
L 135.572938 247.264284 
L 136.790542 242.584986 
L 138.008147 242.139839 
L 139.347512 241.050227 
L 140.443356 239.4429 
L 141.63052 232.119203 
L 142.756804 229.361246 
L 144.004849 229.025888 
L 145.192013 229.127357 
L 146.409617 230.198229 
L 147.566342 230.119613 
L 148.783946 230.602261 
L 149.94067 234.455143 
L 151.158275 235.980828 
L 152.284559 235.530979 
L 153.471723 233.295032 
L 154.780648 231.520754 
L 155.906932 229.526948 
L 157.094096 229.182379 
L 158.28126 227.839278 
L 159.529305 227.597814 
L 160.686029 228.150552 
L 161.873194 229.798673 
L 162.999478 230.662766 
L 164.247522 231.327496 
L 165.404246 235.307728 
L 167.809015 231.418425 
L 168.996179 230.517189 
L 170.152904 227.405657 
L 171.340068 226.740304 
L 172.527232 224.568864 
L 173.653516 223.565052 
L 174.871121 220.671465 
L 176.058285 220.298894 
L 177.215009 219.39549 
L 178.432614 216.019637 
L 180.806942 210.521138 
L 181.963667 209.105519 
L 183.181271 209.24915 
L 184.459756 208.73215 
L 185.61648 208.97038 
L 186.894965 208.82863 
L 187.990808 210.00099 
L 189.177973 208.707704 
L 191.552301 203.920553 
L 193.92663 200.080514 
L 195.144235 200.119333 
L 196.300959 199.975344 
L 197.427243 200.204625 
L 198.614407 202.356018 
L 199.832012 202.959224 
L 201.019176 204.778059 
L 202.1759 204.101575 
L 203.393504 202.822707 
L 205.767833 201.667252 
L 208.111722 204.963491 
L 209.238006 205.948329 
L 210.45561 206.647494 
L 211.703655 206.622877 
L 212.860379 209.40969 
L 214.047543 208.299622 
L 215.265148 207.394749 
L 216.421872 207.815828 
L 219.952925 213.912293 
L 221.140089 214.723943 
L 222.296813 214.391198 
L 223.544858 217.358151 
L 224.732022 217.298604 
L 225.888746 216.671631 
L 227.075911 217.435284 
L 228.263075 218.027954 
L 229.419799 218.920976 
L 230.637404 220.013567 
L 233.011732 219.39912 
L 234.168456 219.045724 
L 235.355621 218.025656 
L 236.573225 214.991283 
L 237.729949 215.167754 
L 238.886674 216.0659 
L 240.104278 218.373711 
L 241.261002 218.794018 
L 242.387286 221.73507 
L 243.604891 220.532432 
L 244.883375 219.837559 
L 246.0401 219.474584 
L 247.196824 216.052592 
L 248.383988 215.264971 
L 249.540712 214.653938 
L 250.758317 216.309067 
L 251.945481 218.795778 
L 253.102205 218.788173 
L 254.31981 221.333636 
L 255.537414 218.859388 
L 256.724578 219.368941 
L 257.850863 218.537791 
L 259.129347 216.860704 
L 260.225191 216.927875 
L 261.412355 215.838508 
L 262.6604 218.414695 
L 263.817124 216.962568 
L 264.973848 214.810864 
L 266.130573 212.41708 
L 267.409057 207.523192 
L 268.504901 202.692873 
L 269.722506 196.619192 
L 273.314439 183.73741 
L 274.562483 182.38331 
L 275.749648 179.582662 
L 276.997692 179.677196 
L 278.123976 180.382794 
L 279.372021 181.874436 
L 280.528745 184.022876 
L 281.655029 186.713892 
L 282.872633 190.058833 
L 285.246962 195.211039 
L 287.560411 199.466816 
L 288.778015 204.237876 
L 289.965179 207.4599 
L 291.152344 211.346815 
L 292.369948 213.083513 
L 293.435352 214.144392 
L 294.683396 211.808704 
L 295.840121 210.667215 
L 297.057725 209.225421 
L 298.244889 206.757811 
L 299.432054 208.975197 
L 300.680098 208.555061 
L 301.775942 207.998456 
L 302.963107 208.367563 
L 304.180711 207.957228 
L 305.337435 204.536268 
L 306.524599 202.605447 
L 307.711764 200.324323 
L 308.898928 198.897366 
L 310.025212 198.406714 
L 311.242817 197.589279 
L 314.743429 189.419974 
L 315.930594 185.302283 
L 317.148198 178.839834 
L 318.365803 174.282542 
L 320.679251 163.38088 
L 321.866415 159.475751 
L 323.05358 154.766655 
L 324.240744 151.197875 
L 326.645513 146.138922 
L 327.771797 144.445742 
L 329.019841 144.486891 
L 330.176565 144.290423 
L 331.36373 145.517928 
L 332.520454 147.414257 
L 336.416788 155.539038 
L 337.664833 159.566074 
L 338.912877 162.893411 
L 340.039161 167.099648 
L 341.287206 172.385944 
L 342.47437 175.784393 
L 343.661534 181.883625 
L 344.787819 186.260003 
L 346.005423 189.361827 
L 347.223027 193.031522 
L 348.379752 193.175969 
L 349.536476 194.984699 
L 350.6932 196.015064 
L 351.910804 196.164857 
L 354.315573 198.808436 
L 355.472297 201.886236 
L 357.846626 205.352519 
L 359.00335 205.692396 
L 360.190515 205.50974 
L 362.473523 202.088869 
L 363.752008 198.983522 
L 366.095896 194.833484 
L 367.3135 196.442124 
L 368.470225 198.20002 
L 369.687829 197.581578 
L 372.001278 200.436703 
L 373.310202 198.48217 
L 374.436486 197.425419 
L 376.749935 190.867155 
L 377.906659 188.667306 
L 379.154704 188.042063 
L 380.341868 186.112546 
L 381.559472 185.566209 
L 382.655316 186.433349 
L 383.872921 185.035441 
L 385.060085 183.230141 
L 386.216809 180.705968 
L 387.251773 176.786912 
L 390.874146 166.505132 
L 392.091751 163.673908 
L 393.187595 162.229667 
L 397.266569 151.385899 
L 398.484174 147.563204 
L 399.701778 144.22385 
L 400.828062 139.327542 
L 404.328675 127.340028 
L 405.60716 122.52577 
L 406.794324 117.019879 
L 407.859728 112.787082 
L 409.138213 109.077411 
L 410.203616 104.075503 
L 411.451661 99.756328 
L 413.85643 89.471007 
L 414.921834 83.624905 
L 416.230758 78.545012 
L 417.296162 72.222923 
L 420.979416 56.526659 
L 423.323304 45.752654 
L 424.601789 40.22543 
L 425.423672 34.613031 
L 425.423672 34.613031 
" clip-path="url(#pdd0dfc9940)" style="fill: none; stroke: #0033ff; stroke-width: 2.5; stroke-linecap: square"/>
   </g>
   <g id="line2d_49">
    <path d="M 69.091736 273.396036 
L 69.152616 263.870196 
L 69.152616 264.046435 
L 69.243937 268.288615 
L 69.730979 272.310822 
L 71.192104 273.765057 
L 73.292471 272.248053 
L 75.5146 267.765572 
L 77.371446 260.815942 
L 78.954332 258.671373 
L 80.232817 261.192817 
L 81.328661 260.724246 
L 82.394065 262.775178 
L 83.550789 268.30552 
L 84.707513 274.895078 
L 85.894677 275.58926 
L 87.051401 277.308781 
L 89.48661 273.479854 
L 90.673775 273.275683 
L 91.800059 274.271411 
L 92.987223 274.143938 
L 94.204828 276.635945 
L 95.361552 276.893196 
L 96.670476 280.422163 
L 97.948961 282.801891 
L 99.288326 284.484979 
L 100.50593 286.521626 
L 101.723535 281.601111 
L 102.941139 277.344563 
L 104.097863 274.333862 
L 105.285028 274.661703 
L 106.472192 272.54882 
L 107.689797 268.472026 
L 108.876961 267.8807 
L 110.094565 265.408349 
L 111.251289 264.549179 
L 112.438454 268.679129 
L 113.625618 262.425041 
L 114.812782 263.068689 
L 116.030387 263.105387 
L 117.217551 264.664422 
L 119.500559 265.690554 
L 120.779044 265.481753 
L 121.966208 265.638381 
L 123.092493 267.064392 
L 124.279657 272.788304 
L 125.436381 267.015426 
L 126.714866 265.273566 
L 127.87159 261.226947 
L 130.276359 255.602432 
L 131.433083 251.475793 
L 132.559367 253.626016 
L 133.807411 253.793853 
L 136.12086 256.523243 
L 137.399345 255.291084 
L 138.647389 256.425667 
L 139.834553 257.271561 
L 141.052158 256.509657 
L 142.178442 255.507622 
L 143.365606 254.178958 
L 144.552771 257.095427 
L 145.770375 253.062452 
L 146.987979 250.7171 
L 148.175144 247.419625 
L 149.362308 244.685925 
L 151.706197 237.930738 
L 154.080525 235.141947 
L 155.206809 232.811943 
L 156.515734 230.724159 
L 157.702898 226.685926 
L 158.859623 225.998314 
L 161.233951 221.421465 
L 163.63872 218.168818 
L 164.825884 217.445468 
L 165.952168 217.287897 
L 167.108893 215.587784 
L 168.356937 214.240073 
L 169.574542 213.743937 
L 170.731266 212.894193 
L 171.85755 208.909984 
L 173.075154 205.498955 
L 174.262319 203.058655 
L 175.479923 199.910807 
L 176.575767 198.09362 
L 177.823812 198.90744 
L 178.980536 196.614352 
L 180.19814 197.147035 
L 181.385304 197.020592 
L 182.542029 194.962497 
L 183.729193 189.236418 
L 184.977238 184.929074 
L 186.194842 179.354413 
L 187.351566 175.451562 
L 189.695455 169.228669 
L 190.913059 163.882898 
L 194.383232 151.972357 
L 195.631276 150.174901 
L 196.818441 149.404351 
L 197.944725 147.228168 
L 199.223209 150.525805 
L 200.379934 148.32529 
L 201.627978 146.432215 
L 202.754262 142.354103 
L 203.941426 138.616198 
L 205.098151 137.425842 
L 206.346195 137.868649 
L 207.53336 143.379469 
L 208.720524 150.503996 
L 209.907688 160.459797 
L 211.094853 176.894627 
L 212.251577 185.197012 
L 213.469181 196.579792 
L 214.656345 200.454117 
L 215.84351 201.10897 
L 218.126518 203.173851 
L 219.313682 205.692131 
L 220.531287 205.958159 
L 221.718451 207.804432 
L 222.905615 207.085245 
L 224.09278 205.838941 
L 225.279944 205.694954 
L 226.436668 206.112251 
L 227.623833 205.730874 
L 228.810997 205.560908 
L 230.028601 206.486484 
L 231.215766 207.855882 
L 232.37249 207.457013 
L 233.559654 207.360806 
L 234.746818 204.900534 
L 235.933983 205.036898 
L 237.090707 206.404448 
L 238.277871 206.516041 
L 239.465036 205.92649 
L 240.62176 205.712077 
L 241.839364 205.290067 
L 243.026529 205.542254 
L 244.152813 202.886286 
L 245.370417 201.007911 
L 246.557581 199.606014 
L 247.775186 198.946319 
L 248.96235 198.904122 
L 250.119074 199.038682 
L 251.306239 199.050769 
L 252.493403 198.297015 
L 253.680567 196.513545 
L 254.867732 195.425312 
L 256.054896 194.765406 
L 257.2725 196.192683 
L 258.429225 196.570247 
L 259.585949 195.786239 
L 260.803553 197.579488 
L 261.960277 198.232177 
L 265.582651 201.256044 
L 266.739375 202.360886 
L 267.896099 203.797445 
L 269.113703 205.680146 
L 270.300868 205.319713 
L 271.457592 205.36872 
L 272.675196 206.147368 
L 273.923241 204.903285 
L 275.110405 205.509605 
L 276.29757 205.676043 
L 278.671898 200.67956 
L 279.889503 199.126611 
L 281.076667 197.080503 
L 282.233391 196.232372 
L 283.420555 197.852163 
L 284.60772 199.223376 
L 285.764444 201.422959 
L 286.951608 201.859223 
L 288.169213 204.041357 
L 289.325937 202.361939 
L 290.543541 204.806217 
L 294.105034 204.626153 
L 295.231318 204.642873 
L 296.448923 204.820001 
L 297.666527 206.709701 
L 298.792811 205.410571 
L 300.040856 208.484983 
L 301.16714 209.247702 
L 302.384744 212.127886 
L 303.541469 212.034047 
L 304.728633 213.556176 
L 305.885357 213.352528 
L 307.072521 213.581157 
L 308.259686 215.835312 
L 309.44685 218.34836 
L 310.664455 220.090031 
L 311.790739 224.508241 
L 312.977903 226.583498 
L 314.195507 225.449297 
L 315.382672 223.924389 
L 316.569836 223.329088 
L 317.72656 224.494443 
L 318.883284 224.60846 
L 320.040009 226.011222 
L 321.288053 224.634982 
L 322.444777 226.596235 
L 323.571061 227.364477 
L 324.788666 226.18216 
L 325.91495 224.705942 
L 327.162995 225.795199 
L 328.350159 227.367558 
L 329.537323 229.5736 
L 330.663607 231.908438 
L 331.911652 233.059574 
L 333.129256 231.010585 
L 334.529501 229.920087 
L 335.838426 230.023041 
L 337.086471 228.776284 
L 338.273635 228.874591 
L 339.491239 228.684798 
L 341.865568 222.461923 
L 342.961412 221.826903 
L 344.239897 218.442987 
L 345.396621 214.702995 
L 346.522905 213.142386 
L 347.80139 215.24873 
L 350.053958 218.080311 
L 351.271562 218.648699 
L 352.397846 217.22835 
L 353.645891 216.887245 
L 354.802615 215.728795 
L 355.989779 212.879667 
L 357.268264 206.976296 
L 358.394548 195.730828 
L 359.551272 181.991008 
L 363.112765 124.023042 
L 364.239049 110.981595 
L 365.487094 100.810481 
L 367.830982 87.269635 
L 369.048587 83.689867 
L 370.266191 82.142966 
L 371.362035 83.448786 
L 372.57964 86.484529 
L 373.858124 91.268299 
L 376.232453 111.02216 
L 378.454581 139.942172 
L 380.85935 160.459315 
L 382.016074 164.963328 
L 383.264118 168.422093 
L 384.359962 170.298447 
L 385.516687 169.78014 
L 386.795171 169.409661 
L 387.860575 168.453533 
L 389.10862 167.883212 
L 390.326224 166.830793 
L 391.422068 164.807814 
L 392.639673 163.078086 
L 393.796397 158.135361 
L 395.196642 155.907314 
L 396.596887 152.724918 
L 397.723171 148.494874 
L 398.910335 143.086387 
L 402.593589 130.835864 
L 404.937477 121.328949 
L 406.185522 117.259166 
L 407.220486 113.365013 
L 408.49897 107.932866 
L 413.156307 83.535808 
L 414.434792 77.28698 
L 415.469756 71.57303 
L 416.900441 66.694437 
L 417.904964 62.366223 
L 419.183449 57.619575 
L 421.436017 47.375972 
L 423.901666 35.488244 
L 424.99751 28.961872 
L 424.99751 28.961872 
" clip-path="url(#pdd0dfc9940)" style="fill: none; stroke: #ff7f0e; stroke-width: 2.5; stroke-linecap: square"/>
   </g>
   <g id="line2d_50">
    <path d="M 78.832572 239.719008 
L 78.771691 248.598425 
L 78.832572 243.682683 
L 79.410934 238.939062 
L 80.932939 238.138108 
L 83.094187 239.345628 
L 85.285875 242.49176 
L 87.203602 242.83558 
L 88.695167 248.426937 
L 89.912772 245.702331 
L 91.069496 245.68927 
L 92.10446 243.84354 
L 93.291624 244.181815 
L 94.387468 241.376192 
L 95.605073 240.059791 
L 96.883557 239.057968 
L 98.131602 240.721273 
L 99.410086 241.378851 
L 100.658131 241.32823 
L 101.875735 241.49253 
L 103.12378 240.398455 
L 104.250064 241.17872 
L 106.624393 237.851599 
L 107.841997 235.42845 
L 109.059602 236.065632 
L 110.246766 237.031609 
L 111.37305 238.940338 
L 112.560214 239.776115 
L 113.777819 241.293135 
L 115.025863 241.146608 
L 116.243468 240.230262 
L 117.339312 236.945519 
L 118.617796 238.758593 
L 119.804961 237.479831 
L 120.992125 239.388125 
L 122.179289 238.790104 
L 123.305573 240.046736 
L 124.492738 238.982299 
L 125.740782 239.753549 
L 126.897506 242.620692 
L 129.271835 236.499672 
L 130.489439 236.641526 
L 131.646164 235.767407 
L 132.802888 236.001176 
L 134.020492 235.379274 
L 136.425261 235.304065 
L 137.673306 235.686041 
L 138.89091 236.81739 
L 140.108514 234.799189 
L 141.204358 231.964551 
L 142.421963 232.65821 
L 143.609127 233.756704 
L 144.796291 231.420598 
L 147.17062 227.872492 
L 148.357784 224.516256 
L 149.544949 218.725779 
L 150.701673 215.040097 
L 151.888837 211.746879 
L 153.106442 207.42304 
L 155.51121 197.470721 
L 156.698375 194.463856 
L 157.915979 193.390945 
L 161.477472 184.467525 
L 162.664636 184.263537 
L 163.851801 184.313436 
L 164.978085 183.387756 
L 166.195689 182.129303 
L 167.382854 179.148761 
L 168.600458 175.528933 
L 169.757182 168.157489 
L 170.944347 161.338557 
L 173.318675 145.457079 
L 174.475399 139.367727 
L 175.693004 135.995823 
L 176.910608 135.405028 
L 178.158653 136.838997 
L 180.441661 143.219108 
L 181.628825 144.75767 
L 182.84643 147.973075 
L 184.064034 146.67199 
L 185.281639 142.807402 
L 186.407923 138.003834 
L 187.595087 132.251762 
L 189.999856 122.141111 
L 191.18702 118.396712 
L 192.404625 115.622494 
L 193.530909 114.357271 
L 195.905237 115.148286 
L 197.061961 115.981072 
L 198.279566 117.024389 
L 199.46673 116.654635 
L 200.623454 117.407573 
L 201.810619 116.180023 
L 202.997783 115.503924 
L 204.184947 114.97083 
L 205.372112 115.850388 
L 206.589716 116.157308 
L 207.77688 115.964487 
L 208.933605 116.014495 
L 210.120769 116.917443 
L 211.307933 117.09503 
L 212.495098 117.826233 
L 213.651822 117.694859 
L 214.869426 118.55567 
L 216.056591 118.892309 
L 218.400479 121.764636 
L 219.587643 122.975458 
L 221.961972 127.991001 
L 223.118696 129.923897 
L 224.336301 132.733776 
L 226.710629 137.542034 
L 227.897794 139.624994 
L 229.084958 142.37534 
L 230.241682 145.523735 
L 231.428846 147.927445 
L 232.585571 151.446166 
L 233.772735 153.247762 
L 234.990339 155.63327 
L 236.177504 157.418335 
L 237.303788 157.941787 
L 238.490952 158.103417 
L 239.738997 159.771187 
L 240.834841 161.662713 
L 242.052445 163.360023 
L 243.239609 166.044934 
L 245.583498 173.191372 
L 246.740222 173.85086 
L 249.084111 174.236119 
L 250.362595 172.752813 
L 251.519319 173.15429 
L 253.863208 171.183824 
L 255.080812 173.337311 
L 256.267977 175.009829 
L 257.546461 177.22662 
L 258.703186 176.942635 
L 259.89035 178.399909 
L 261.077514 178.603895 
L 262.234238 176.965099 
L 263.390963 174.639306 
L 264.608567 169.434898 
L 265.826171 162.668475 
L 266.952456 155.709936 
L 271.670673 122.351675 
L 272.918717 116.898073 
L 274.136322 112.730482 
L 275.384366 110.790882 
L 276.54109 109.81451 
L 277.758695 110.009579 
L 278.915419 111.510009 
L 281.350628 115.188269 
L 282.476912 116.737027 
L 283.694516 118.002354 
L 284.820801 119.007777 
L 286.068845 119.737599 
L 287.195129 121.417151 
L 288.382294 122.256394 
L 290.817502 127.415834 
L 291.943786 130.488768 
L 293.191831 133.055652 
L 294.378995 134.824839 
L 295.53572 137.854268 
L 296.692444 139.097055 
L 299.066772 142.828228 
L 300.223497 143.884162 
L 301.441101 145.97983 
L 302.628265 147.263775 
L 303.78499 149.36645 
L 305.002594 149.775082 
L 306.159318 149.516222 
L 307.376923 151.546384 
L 308.533647 152.053027 
L 309.690371 152.25091 
L 310.847095 152.061039 
L 312.09514 152.788966 
L 314.439028 154.708576 
L 315.595752 154.84996 
L 319.126805 156.386626 
L 320.37485 156.143966 
L 321.501134 156.767143 
L 322.718738 157.120249 
L 323.875463 158.199293 
L 325.062627 158.111775 
L 326.280231 158.401821 
L 327.436956 158.397262 
L 328.59368 159.000322 
L 329.780844 158.102541 
L 330.968008 156.558455 
L 332.094292 155.72392 
L 333.342337 153.237605 
L 336.021067 146.96936 
L 337.329991 144.378321 
L 338.517156 143.100177 
L 339.70432 140.337041 
L 340.891484 136.618517 
L 342.109089 131.556392 
L 344.452977 119.347896 
L 346.735986 104.674082 
L 347.98403 98.961074 
L 350.358359 89.348934 
L 351.545523 85.705668 
L 352.641367 83.280107 
L 353.889412 82.310838 
L 355.137456 83.161956 
L 356.20286 85.564464 
L 357.450905 89.631047 
L 358.607629 94.607367 
L 359.825233 100.840051 
L 361.012398 107.657216 
L 363.417166 118.852131 
L 364.51301 122.101536 
L 366.887339 128.066232 
L 368.135383 130.082706 
L 369.413868 131.898876 
L 371.605556 133.915118 
L 372.823161 135.976723 
L 374.040765 138.575451 
L 375.227929 138.900254 
L 377.602258 138.82286 
L 378.698102 138.936672 
L 381.04199 136.123275 
L 382.229155 135.411623 
L 383.507639 133.928736 
L 384.633923 133.35189 
L 385.760208 132.606433 
L 386.977812 131.58705 
L 388.256297 131.480747 
L 389.352141 130.602398 
L 390.508865 131.305515 
L 391.696029 129.032393 
L 392.974514 127.026105 
L 394.131238 125.638136 
L 396.840408 119.578682 
L 399.275617 114.135897 
L 400.371461 110.994574 
L 402.80667 105.735023 
L 406.429043 93.60358 
L 408.742491 84.434501 
L 411.08638 76.374343 
L 414.678313 63.776644 
L 415.865477 60.383904 
L 416.961321 55.54194 
L 418.300686 50.850994 
L 421.770858 36.876145 
L 422.897143 31.710029 
L 424.206067 26.245275 
L 425.149711 20.50103 
L 425.149711 20.50103 
" clip-path="url(#pdd0dfc9940)" style="fill: none; stroke: #ff0000; stroke-width: 2.5; stroke-linecap: square"/>
   </g>
   <g id="patch_3">
    <path d="M 60.598945 299.822656 
L 60.598945 7.2 
" style="fill: none; stroke: #000000; stroke-width: 1.5; stroke-linejoin: miter; stroke-linecap: square"/>
   </g>
   <g id="patch_4">
    <path d="M 60.598945 299.822656 
L 425.880273 299.822656 
" style="fill: none; stroke: #000000; stroke-width: 1.5; stroke-linejoin: miter; stroke-linecap: square"/>
   </g>
   <g id="legend_1">
    <g id="line2d_51">
     <path d="M 71.398945 22.536328 
L 83.398945 22.536328 
L 95.398945 22.536328 
" style="fill: none; stroke: #000000; stroke-width: 2.5; stroke-linecap: square"/>
    </g>
    <g id="text_12">
     <!-- vacuum -->
     <g transform="translate(104.998945 26.736328) scale(0.12 -0.12)">
      <defs>
       <path id="ArialMT-59" d="M 1344 0 
L 81 3319 
L 675 3319 
L 1388 1331 
Q 1503 1009 1600 663 
Q 1675 925 1809 1294 
L 2547 3319 
L 3125 3319 
L 1869 0 
L 1344 0 
z
" transform="scale(0.015625)"/>
       <path id="ArialMT-46" d="M 2588 1216 
L 3141 1144 
Q 3050 572 2676 248 
Q 2303 -75 1759 -75 
Q 1078 -75 664 370 
Q 250 816 250 1647 
Q 250 2184 428 2587 
Q 606 2991 970 3192 
Q 1334 3394 1763 3394 
Q 2303 3394 2647 3120 
Q 2991 2847 3088 2344 
L 2541 2259 
Q 2463 2594 2264 2762 
Q 2066 2931 1784 2931 
Q 1359 2931 1093 2626 
Q 828 2322 828 1663 
Q 828 994 1084 691 
Q 1341 388 1753 388 
Q 2084 388 2306 591 
Q 2528 794 2588 1216 
z
" transform="scale(0.015625)"/>
      </defs>
      <use xlink:href="#ArialMT-59"/>
      <use xlink:href="#ArialMT-44" transform="translate(50 0)"/>
      <use xlink:href="#ArialMT-46" transform="translate(105.609375 0)"/>
      <use xlink:href="#ArialMT-58" transform="translate(155.609375 0)"/>
      <use xlink:href="#ArialMT-58" transform="translate(211.21875 0)"/>
      <use xlink:href="#ArialMT-50" transform="translate(266.828125 0)"/>
     </g>
    </g>
    <g id="line2d_52">
     <path d="M 71.398945 39.798047 
L 83.398945 39.798047 
L 95.398945 39.798047 
" style="fill: none; stroke: #1f77b4; stroke-width: 2.5; stroke-linecap: square"/>
    </g>
    <g id="text_13">
     <!-- 1h -->
     <g transform="translate(104.998945 43.998047) scale(0.12 -0.12)">
      <defs>
       <path id="ArialMT-4b" d="M 422 0 
L 422 4581 
L 984 4581 
L 984 2938 
Q 1378 3394 1978 3394 
Q 2347 3394 2619 3248 
Q 2891 3103 3008 2847 
Q 3125 2591 3125 2103 
L 3125 0 
L 2563 0 
L 2563 2103 
Q 2563 2525 2380 2717 
Q 2197 2909 1863 2909 
Q 1613 2909 1392 2779 
Q 1172 2650 1078 2428 
Q 984 2206 984 1816 
L 984 0 
L 422 0 
z
" transform="scale(0.015625)"/>
      </defs>
      <use xlink:href="#ArialMT-14"/>
      <use xlink:href="#ArialMT-4b" transform="translate(55.609375 0)"/>
     </g>
    </g>
    <g id="line2d_53">
     <path d="M 71.398945 57.059766 
L 83.398945 57.059766 
L 95.398945 57.059766 
" style="fill: none; stroke: #0033ff; stroke-width: 2.5; stroke-linecap: square"/>
    </g>
    <g id="text_14">
     <!-- 2h -->
     <g transform="translate(104.998945 61.259766) scale(0.12 -0.12)">
      <use xlink:href="#ArialMT-15"/>
      <use xlink:href="#ArialMT-4b" transform="translate(55.609375 0)"/>
     </g>
    </g>
    <g id="line2d_54">
     <path d="M 71.398945 74.321484 
L 83.398945 74.321484 
L 95.398945 74.321484 
" style="fill: none; stroke: #ff7f0e; stroke-width: 2.5; stroke-linecap: square"/>
    </g>
    <g id="text_15">
     <!-- 4h -->
     <g transform="translate(104.998945 78.521484) scale(0.12 -0.12)">
      <use xlink:href="#ArialMT-17"/>
      <use xlink:href="#ArialMT-4b" transform="translate(55.609375 0)"/>
     </g>
    </g>
    <g id="line2d_55">
     <path d="M 71.398945 91.583203 
L 83.398945 91.583203 
L 95.398945 91.583203 
" style="fill: none; stroke: #ff0000; stroke-width: 2.5; stroke-linecap: square"/>
    </g>
    <g id="text_16">
     <!-- first -->
     <g transform="translate(104.998945 95.783203) scale(0.12 -0.12)">
      <defs>
       <path id="ArialMT-49" d="M 556 0 
L 556 2881 
L 59 2881 
L 59 3319 
L 556 3319 
L 556 3672 
Q 556 4006 616 4169 
Q 697 4388 901 4523 
Q 1106 4659 1475 4659 
Q 1713 4659 2000 4603 
L 1916 4113 
Q 1741 4144 1584 4144 
Q 1328 4144 1222 4034 
Q 1116 3925 1116 3625 
L 1116 3319 
L 1763 3319 
L 1763 2881 
L 1116 2881 
L 1116 0 
L 556 0 
z
" transform="scale(0.015625)"/>
       <path id="ArialMT-4c" d="M 425 3934 
L 425 4581 
L 988 4581 
L 988 3934 
L 425 3934 
z
M 425 0 
L 425 3319 
L 988 3319 
L 988 0 
L 425 0 
z
" transform="scale(0.015625)"/>
       <path id="ArialMT-56" d="M 197 991 
L 753 1078 
Q 800 744 1014 566 
Q 1228 388 1613 388 
Q 2000 388 2187 545 
Q 2375 703 2375 916 
Q 2375 1106 2209 1216 
Q 2094 1291 1634 1406 
Q 1016 1563 777 1677 
Q 538 1791 414 1992 
Q 291 2194 291 2438 
Q 291 2659 392 2848 
Q 494 3038 669 3163 
Q 800 3259 1026 3326 
Q 1253 3394 1513 3394 
Q 1903 3394 2198 3281 
Q 2494 3169 2634 2976 
Q 2775 2784 2828 2463 
L 2278 2388 
Q 2241 2644 2061 2787 
Q 1881 2931 1553 2931 
Q 1166 2931 1000 2803 
Q 834 2675 834 2503 
Q 834 2394 903 2306 
Q 972 2216 1119 2156 
Q 1203 2125 1616 2013 
Q 2213 1853 2448 1751 
Q 2684 1650 2818 1456 
Q 2953 1263 2953 975 
Q 2953 694 2789 445 
Q 2625 197 2315 61 
Q 2006 -75 1616 -75 
Q 969 -75 630 194 
Q 291 463 197 991 
z
" transform="scale(0.015625)"/>
      </defs>
      <use xlink:href="#ArialMT-49"/>
      <use xlink:href="#ArialMT-4c" transform="translate(27.78125 0)"/>
      <use xlink:href="#ArialMT-55" transform="translate(50 0)"/>
      <use xlink:href="#ArialMT-56" transform="translate(83.296875 0)"/>
      <use xlink:href="#ArialMT-57" transform="translate(133.296875 0)"/>
     </g>
    </g>
   </g>
  </g>
 </g>
 <defs>
  <clipPath id="pdd0dfc9940">
   <rect x="60.598945" y="7.2" width="365.281328" height="292.622656"/>
  </clipPath>
 </defs>
</svg>
