<?xml version="1.0" encoding="utf-8" standalone="no"?>
<!DOCTYPE svg PUBLIC "-//W3C//DTD SVG 1.1//EN"
  "http://www.w3.org/Graphics/SVG/1.1/DTD/svg11.dtd">
<svg xmlns:xlink="http://www.w3.org/1999/xlink" width="448.650898pt" height="340.800273pt" viewBox="0 0 448.650898 340.800273" xmlns="http://www.w3.org/2000/svg" version="1.1">
 <metadata>
  <rdf:RDF xmlns:dc="http://purl.org/dc/elements/1.1/" xmlns:cc="http://creativecommons.org/ns#" xmlns:rdf="http://www.w3.org/1999/02/22-rdf-syntax-ns#">
   <cc:Work>
    <dc:type rdf:resource="http://purl.org/dc/dcmitype/StillImage"/>
    <dc:date>2026-07-09T17:08:42.223577</dc:date>
    <dc:format>image/svg+xml</dc:format>
    <dc:creator>
     <cc:Agent>
      <dc:title>Matplotlib v3.11.0, https://matplotlib.org/</dc:title>
     </cc:Agent>
    </dc:creator>
   </cc:Work>
  </rdf:RDF>
 </metadata>
 <defs>
  <style type="text/css">*{stroke-linejoin: round; stroke-linecap: butt}</style>
 </defs>
 <g id="figure_1">
  <g id="patch_1">
   <path d="M 0 340.800273 
L 448.650898 340.800273 
L 448.650898 0 
L 0 0 
z
" style="fill: #ffffff"/>
  </g>
  <g id="axes_1">
   <g id="patch_2">
    <path d="M 60.598945 299.822656 
L 425.880273 299.822656 
L 425.880273 7.2 
L 60.598945 7.2 
z
" style="fill: #ffffff"/>
   </g>
   <g id="matplotlib.axis_1">
    <g id="xtick_1">
     <g id="line2d_1">
      <defs>
       <path id="m30af19bc88" d="M 0 0 
L 0 -6 
" style="stroke: #000000; stroke-width: 1.5"/>
      </defs>
      <g>
       <use xlink:href="#m30af19bc88" x="60.598945" y="299.822656" style="stroke: #000000; stroke-width: 1.5"/>
      </g>
     </g>
     <g id="text_1">
      <!-- 0 -->
      <g transform="translate(56.706289 313.515039) scale(0.14 -0.14)">
       <defs>
        <path id="ArialMT-13" d="M 266 2259 
Q 266 3072 433 3567 
Q 600 4063 929 4331 
Q 1259 4600 1759 4600 
Q 2128 4600 2406 4451 
Q 2684 4303 2865 4023 
Q 3047 3744 3150 3342 
Q 3253 2941 3253 2259 
Q 3253 1453 3087 958 
Q 2922 463 2592 192 
Q 2263 -78 1759 -78 
Q 1097 -78 719 397 
Q 266 969 266 2259 
z
M 844 2259 
Q 844 1131 1108 757 
Q 1372 384 1759 384 
Q 2147 384 2411 759 
Q 2675 1134 2675 2259 
Q 2675 3391 2411 3762 
Q 2147 4134 1753 4134 
Q 1366 4134 1134 3806 
Q 844 3388 844 2259 
z
" transform="scale(0.015625)"/>
       </defs>
       <use xlink:href="#ArialMT-13"/>
      </g>
     </g>
    </g>
    <g id="xtick_2">
     <g id="line2d_2">
      <g>
       <use xlink:href="#m30af19bc88" x="121.479167" y="299.822656" style="stroke: #000000; stroke-width: 1.5"/>
      </g>
     </g>
     <g id="text_2">
      <!-- 200 -->
      <g transform="translate(109.801198 313.515039) scale(0.14 -0.14)">
       <defs>
        <path id="ArialMT-15" d="M 3222 541 
L 3222 0 
L 194 0 
Q 188 203 259 391 
Q 375 700 629 1000 
Q 884 1300 1366 1694 
Q 2113 2306 2375 2664 
Q 2638 3022 2638 3341 
Q 2638 3675 2398 3904 
Q 2159 4134 1775 4134 
Q 1369 4134 1125 3890 
Q 881 3647 878 3216 
L 300 3275 
Q 359 3922 746 4261 
Q 1134 4600 1788 4600 
Q 2447 4600 2831 4234 
Q 3216 3869 3216 3328 
Q 3216 3053 3103 2787 
Q 2991 2522 2730 2228 
Q 2469 1934 1863 1422 
Q 1356 997 1212 845 
Q 1069 694 975 541 
L 3222 541 
z
" transform="scale(0.015625)"/>
       </defs>
       <use xlink:href="#ArialMT-15"/>
       <use xlink:href="#ArialMT-13" transform="translate(55.609375 0)"/>
       <use xlink:href="#ArialMT-13" transform="translate(111.21875 0)"/>
      </g>
     </g>
    </g>
    <g id="xtick_3">
     <g id="line2d_3">
      <g>
       <use xlink:href="#m30af19bc88" x="182.359388" y="299.822656" style="stroke: #000000; stroke-width: 1.5"/>
      </g>
     </g>
     <g id="text_3">
      <!-- 400 -->
      <g transform="translate(170.681419 313.515039) scale(0.14 -0.14)">
       <defs>
        <path id="ArialMT-17" d="M 2069 0 
L 2069 1097 
L 81 1097 
L 81 1613 
L 2172 4581 
L 2631 4581 
L 2631 1613 
L 3250 1613 
L 3250 1097 
L 2631 1097 
L 2631 0 
L 2069 0 
z
M 2069 1613 
L 2069 3678 
L 634 1613 
L 2069 1613 
z
" transform="scale(0.015625)"/>
       </defs>
       <use xlink:href="#ArialMT-17"/>
       <use xlink:href="#ArialMT-13" transform="translate(55.609375 0)"/>
       <use xlink:href="#ArialMT-13" transform="translate(111.21875 0)"/>
      </g>
     </g>
    </g>
    <g id="xtick_4">
     <g id="line2d_4">
      <g>
       <use xlink:href="#m30af19bc88" x="243.239609" y="299.822656" style="stroke: #000000; stroke-width: 1.5"/>
      </g>
     </g>
     <g id="text_4">
      <!-- 600 -->
      <g transform="translate(231.561641 313.515039) scale(0.14 -0.14)">
       <defs>
        <path id="ArialMT-19" d="M 3184 3459 
L 2625 3416 
Q 2550 3747 2413 3897 
Q 2184 4138 1850 4138 
Q 1581 4138 1378 3988 
Q 1113 3794 959 3422 
Q 806 3050 800 2363 
Q 1003 2672 1297 2822 
Q 1591 2972 1913 2972 
Q 2475 2972 2870 2558 
Q 3266 2144 3266 1488 
Q 3266 1056 3080 686 
Q 2894 316 2569 119 
Q 2244 -78 1831 -78 
Q 1128 -78 684 439 
Q 241 956 241 2144 
Q 241 3472 731 4075 
Q 1159 4600 1884 4600 
Q 2425 4600 2770 4297 
Q 3116 3994 3184 3459 
z
M 888 1484 
Q 888 1194 1011 928 
Q 1134 663 1356 523 
Q 1578 384 1822 384 
Q 2178 384 2434 671 
Q 2691 959 2691 1453 
Q 2691 1928 2437 2201 
Q 2184 2475 1800 2475 
Q 1419 2475 1153 2201 
Q 888 1928 888 1484 
z
" transform="scale(0.015625)"/>
       </defs>
       <use xlink:href="#ArialMT-19"/>
       <use xlink:href="#ArialMT-13" transform="translate(55.609375 0)"/>
       <use xlink:href="#ArialMT-13" transform="translate(111.21875 0)"/>
      </g>
     </g>
    </g>
    <g id="xtick_5">
     <g id="line2d_5">
      <g>
       <use xlink:href="#m30af19bc88" x="304.119831" y="299.822656" style="stroke: #000000; stroke-width: 1.5"/>
      </g>
     </g>
     <g id="text_5">
      <!-- 800 -->
      <g transform="translate(292.441862 313.515039) scale(0.14 -0.14)">
       <defs>
        <path id="ArialMT-1b" d="M 1131 2484 
Q 781 2613 612 2850 
Q 444 3088 444 3419 
Q 444 3919 803 4259 
Q 1163 4600 1759 4600 
Q 2359 4600 2725 4251 
Q 3091 3903 3091 3403 
Q 3091 3084 2923 2848 
Q 2756 2613 2416 2484 
Q 2838 2347 3058 2040 
Q 3278 1734 3278 1309 
Q 3278 722 2862 322 
Q 2447 -78 1769 -78 
Q 1091 -78 675 323 
Q 259 725 259 1325 
Q 259 1772 486 2073 
Q 713 2375 1131 2484 
z
M 1019 3438 
Q 1019 3113 1228 2906 
Q 1438 2700 1772 2700 
Q 2097 2700 2305 2904 
Q 2513 3109 2513 3406 
Q 2513 3716 2298 3927 
Q 2084 4138 1766 4138 
Q 1444 4138 1231 3931 
Q 1019 3725 1019 3438 
z
M 838 1322 
Q 838 1081 952 856 
Q 1066 631 1291 507 
Q 1516 384 1775 384 
Q 2178 384 2440 643 
Q 2703 903 2703 1303 
Q 2703 1709 2433 1975 
Q 2163 2241 1756 2241 
Q 1359 2241 1098 1978 
Q 838 1716 838 1322 
z
" transform="scale(0.015625)"/>
       </defs>
       <use xlink:href="#ArialMT-1b"/>
       <use xlink:href="#ArialMT-13" transform="translate(55.609375 0)"/>
       <use xlink:href="#ArialMT-13" transform="translate(111.21875 0)"/>
      </g>
     </g>
    </g>
    <g id="xtick_6">
     <g id="line2d_6">
      <g>
       <use xlink:href="#m30af19bc88" x="365.000052" y="299.822656" style="stroke: #000000; stroke-width: 1.5"/>
      </g>
     </g>
     <g id="text_6">
      <!-- 1000 -->
      <g transform="translate(349.429427 313.515039) scale(0.14 -0.14)">
       <defs>
        <path id="ArialMT-14" d="M 2384 0 
L 1822 0 
L 1822 3584 
Q 1619 3391 1289 3197 
Q 959 3003 697 2906 
L 697 3450 
Q 1169 3672 1522 3987 
Q 1875 4303 2022 4600 
L 2384 4600 
L 2384 0 
z
" transform="scale(0.015625)"/>
       </defs>
       <use xlink:href="#ArialMT-14"/>
       <use xlink:href="#ArialMT-13" transform="translate(55.609375 0)"/>
       <use xlink:href="#ArialMT-13" transform="translate(111.21875 0)"/>
       <use xlink:href="#ArialMT-13" transform="translate(166.828125 0)"/>
      </g>
     </g>
    </g>
    <g id="xtick_7">
     <g id="line2d_7">
      <g>
       <use xlink:href="#m30af19bc88" x="425.880273" y="299.822656" style="stroke: #000000; stroke-width: 1.5"/>
      </g>
     </g>
     <g id="text_7">
      <!-- 1200 -->
      <g transform="translate(410.309648 313.515039) scale(0.14 -0.14)">
       <use xlink:href="#ArialMT-14"/>
       <use xlink:href="#ArialMT-15" transform="translate(55.609375 0)"/>
       <use xlink:href="#ArialMT-13" transform="translate(111.21875 0)"/>
       <use xlink:href="#ArialMT-13" transform="translate(166.828125 0)"/>
      </g>
     </g>
    </g>
    <g id="xtick_8">
     <g id="line2d_8">
      <defs>
       <path id="m089e06bcb4" d="M 0 0 
L 0 -3 
" style="stroke: #000000"/>
      </defs>
      <g>
       <use xlink:href="#m089e06bcb4" x="75.819001" y="299.822656" style="stroke: #000000"/>
      </g>
     </g>
    </g>
    <g id="xtick_9">
     <g id="line2d_9">
      <g>
       <use xlink:href="#m089e06bcb4" x="91.039056" y="299.822656" style="stroke: #000000"/>
      </g>
     </g>
    </g>
    <g id="xtick_10">
     <g id="line2d_10">
      <g>
       <use xlink:href="#m089e06bcb4" x="106.259111" y="299.822656" style="stroke: #000000"/>
      </g>
     </g>
    </g>
    <g id="xtick_11">
     <g id="line2d_11">
      <g>
       <use xlink:href="#m089e06bcb4" x="136.699222" y="299.822656" style="stroke: #000000"/>
      </g>
     </g>
    </g>
    <g id="xtick_12">
     <g id="line2d_12">
      <g>
       <use xlink:href="#m089e06bcb4" x="151.919277" y="299.822656" style="stroke: #000000"/>
      </g>
     </g>
    </g>
    <g id="xtick_13">
     <g id="line2d_13">
      <g>
       <use xlink:href="#m089e06bcb4" x="167.139333" y="299.822656" style="stroke: #000000"/>
      </g>
     </g>
    </g>
    <g id="xtick_14">
     <g id="line2d_14">
      <g>
       <use xlink:href="#m089e06bcb4" x="197.579443" y="299.822656" style="stroke: #000000"/>
      </g>
     </g>
    </g>
    <g id="xtick_15">
     <g id="line2d_15">
      <g>
       <use xlink:href="#m089e06bcb4" x="212.799499" y="299.822656" style="stroke: #000000"/>
      </g>
     </g>
    </g>
    <g id="xtick_16">
     <g id="line2d_16">
      <g>
       <use xlink:href="#m089e06bcb4" x="228.019554" y="299.822656" style="stroke: #000000"/>
      </g>
     </g>
    </g>
    <g id="xtick_17">
     <g id="line2d_17">
      <g>
       <use xlink:href="#m089e06bcb4" x="258.459665" y="299.822656" style="stroke: #000000"/>
      </g>
     </g>
    </g>
    <g id="xtick_18">
     <g id="line2d_18">
      <g>
       <use xlink:href="#m089e06bcb4" x="273.67972" y="299.822656" style="stroke: #000000"/>
      </g>
     </g>
    </g>
    <g id="xtick_19">
     <g id="line2d_19">
      <g>
       <use xlink:href="#m089e06bcb4" x="288.899775" y="299.822656" style="stroke: #000000"/>
      </g>
     </g>
    </g>
    <g id="xtick_20">
     <g id="line2d_20">
      <g>
       <use xlink:href="#m089e06bcb4" x="319.339886" y="299.822656" style="stroke: #000000"/>
      </g>
     </g>
    </g>
    <g id="xtick_21">
     <g id="line2d_21">
      <g>
       <use xlink:href="#m089e06bcb4" x="334.559941" y="299.822656" style="stroke: #000000"/>
      </g>
     </g>
    </g>
    <g id="xtick_22">
     <g id="line2d_22">
      <g>
       <use xlink:href="#m089e06bcb4" x="349.779997" y="299.822656" style="stroke: #000000"/>
      </g>
     </g>
    </g>
    <g id="xtick_23">
     <g id="line2d_23">
      <g>
       <use xlink:href="#m089e06bcb4" x="380.220107" y="299.822656" style="stroke: #000000"/>
      </g>
     </g>
    </g>
    <g id="xtick_24">
     <g id="line2d_24">
      <g>
       <use xlink:href="#m089e06bcb4" x="395.440163" y="299.822656" style="stroke: #000000"/>
      </g>
     </g>
    </g>
    <g id="xtick_25">
     <g id="line2d_25">
      <g>
       <use xlink:href="#m089e06bcb4" x="410.660218" y="299.822656" style="stroke: #000000"/>
      </g>
     </g>
    </g>
    <g id="text_8">
     <!-- T1 Temperature (°C) -->
     <g transform="translate(179.500234 330.653711) scale(0.14 -0.14)">
      <defs>
       <path id="ArialMT-37" d="M 1659 0 
L 1659 4041 
L 150 4041 
L 150 4581 
L 3781 4581 
L 3781 4041 
L 2266 4041 
L 2266 0 
L 1659 0 
z
" transform="scale(0.015625)"/>
       <path id="ArialMT-3" transform="scale(0.015625)"/>
       <path id="ArialMT-48" d="M 2694 1069 
L 3275 997 
Q 3138 488 2766 206 
Q 2394 -75 1816 -75 
Q 1088 -75 661 373 
Q 234 822 234 1631 
Q 234 2469 665 2931 
Q 1097 3394 1784 3394 
Q 2450 3394 2872 2941 
Q 3294 2488 3294 1666 
Q 3294 1616 3291 1516 
L 816 1516 
Q 847 969 1125 678 
Q 1403 388 1819 388 
Q 2128 388 2347 550 
Q 2566 713 2694 1069 
z
M 847 1978 
L 2700 1978 
Q 2663 2397 2488 2606 
Q 2219 2931 1791 2931 
Q 1403 2931 1139 2672 
Q 875 2413 847 1978 
z
" transform="scale(0.015625)"/>
       <path id="ArialMT-50" d="M 422 0 
L 422 3319 
L 925 3319 
L 925 2853 
Q 1081 3097 1340 3245 
Q 1600 3394 1931 3394 
Q 2300 3394 2536 3241 
Q 2772 3088 2869 2813 
Q 3263 3394 3894 3394 
Q 4388 3394 4653 3120 
Q 4919 2847 4919 2278 
L 4919 0 
L 4359 0 
L 4359 2091 
Q 4359 2428 4304 2576 
Q 4250 2725 4106 2815 
Q 3963 2906 3769 2906 
Q 3419 2906 3187 2673 
Q 2956 2441 2956 1928 
L 2956 0 
L 2394 0 
L 2394 2156 
Q 2394 2531 2256 2718 
Q 2119 2906 1806 2906 
Q 1569 2906 1367 2781 
Q 1166 2656 1075 2415 
Q 984 2175 984 1722 
L 984 0 
L 422 0 
z
" transform="scale(0.015625)"/>
       <path id="ArialMT-53" d="M 422 -1272 
L 422 3319 
L 934 3319 
L 934 2888 
Q 1116 3141 1344 3267 
Q 1572 3394 1897 3394 
Q 2322 3394 2647 3175 
Q 2972 2956 3137 2557 
Q 3303 2159 3303 1684 
Q 3303 1175 3120 767 
Q 2938 359 2589 142 
Q 2241 -75 1856 -75 
Q 1575 -75 1351 44 
Q 1128 163 984 344 
L 984 -1272 
L 422 -1272 
z
M 931 1641 
Q 931 1000 1190 694 
Q 1450 388 1819 388 
Q 2194 388 2461 705 
Q 2728 1022 2728 1688 
Q 2728 2322 2467 2637 
Q 2206 2953 1844 2953 
Q 1484 2953 1207 2617 
Q 931 2281 931 1641 
z
" transform="scale(0.015625)"/>
       <path id="ArialMT-55" d="M 416 0 
L 416 3319 
L 922 3319 
L 922 2816 
Q 1116 3169 1280 3281 
Q 1444 3394 1641 3394 
Q 1925 3394 2219 3213 
L 2025 2691 
Q 1819 2813 1613 2813 
Q 1428 2813 1281 2702 
Q 1134 2591 1072 2394 
Q 978 2094 978 1738 
L 978 0 
L 416 0 
z
" transform="scale(0.015625)"/>
       <path id="ArialMT-44" d="M 2588 409 
Q 2275 144 1986 34 
Q 1697 -75 1366 -75 
Q 819 -75 525 192 
Q 231 459 231 875 
Q 231 1119 342 1320 
Q 453 1522 633 1644 
Q 813 1766 1038 1828 
Q 1203 1872 1538 1913 
Q 2219 1994 2541 2106 
Q 2544 2222 2544 2253 
Q 2544 2597 2384 2738 
Q 2169 2928 1744 2928 
Q 1347 2928 1158 2789 
Q 969 2650 878 2297 
L 328 2372 
Q 403 2725 575 2942 
Q 747 3159 1072 3276 
Q 1397 3394 1825 3394 
Q 2250 3394 2515 3294 
Q 2781 3194 2906 3042 
Q 3031 2891 3081 2659 
Q 3109 2516 3109 2141 
L 3109 1391 
Q 3109 606 3145 398 
Q 3181 191 3288 0 
L 2700 0 
Q 2613 175 2588 409 
z
M 2541 1666 
Q 2234 1541 1622 1453 
Q 1275 1403 1131 1340 
Q 988 1278 909 1158 
Q 831 1038 831 891 
Q 831 666 1001 516 
Q 1172 366 1500 366 
Q 1825 366 2078 508 
Q 2331 650 2450 897 
Q 2541 1088 2541 1459 
L 2541 1666 
z
" transform="scale(0.015625)"/>
       <path id="ArialMT-57" d="M 1650 503 
L 1731 6 
Q 1494 -44 1306 -44 
Q 1000 -44 831 53 
Q 663 150 594 308 
Q 525 466 525 972 
L 525 2881 
L 113 2881 
L 113 3319 
L 525 3319 
L 525 4141 
L 1084 4478 
L 1084 3319 
L 1650 3319 
L 1650 2881 
L 1084 2881 
L 1084 941 
Q 1084 700 1114 631 
Q 1144 563 1211 522 
Q 1278 481 1403 481 
Q 1497 481 1650 503 
z
" transform="scale(0.015625)"/>
       <path id="ArialMT-58" d="M 2597 0 
L 2597 488 
Q 2209 -75 1544 -75 
Q 1250 -75 995 37 
Q 741 150 617 320 
Q 494 491 444 738 
Q 409 903 409 1263 
L 409 3319 
L 972 3319 
L 972 1478 
Q 972 1038 1006 884 
Q 1059 663 1231 536 
Q 1403 409 1656 409 
Q 1909 409 2131 539 
Q 2353 669 2445 892 
Q 2538 1116 2538 1541 
L 2538 3319 
L 3100 3319 
L 3100 0 
L 2597 0 
z
" transform="scale(0.015625)"/>
       <path id="ArialMT-b" d="M 1497 -1347 
Q 1031 -759 709 28 
Q 388 816 388 1659 
Q 388 2403 628 3084 
Q 909 3875 1497 4659 
L 1900 4659 
Q 1522 4009 1400 3731 
Q 1209 3300 1100 2831 
Q 966 2247 966 1656 
Q 966 153 1900 -1347 
L 1497 -1347 
z
" transform="scale(0.015625)"/>
       <path id="ArialMT-83" d="M 400 3794 
Q 400 4153 654 4406 
Q 909 4659 1266 4659 
Q 1628 4659 1881 4406 
Q 2134 4153 2134 3794 
Q 2134 3434 1879 3179 
Q 1625 2925 1266 2925 
Q 909 2925 654 3178 
Q 400 3431 400 3794 
z
M 741 3794 
Q 741 3575 895 3420 
Q 1050 3266 1269 3266 
Q 1484 3266 1639 3420 
Q 1794 3575 1794 3794 
Q 1794 4013 1639 4167 
Q 1484 4322 1269 4322 
Q 1050 4322 895 4167 
Q 741 4013 741 3794 
z
" transform="scale(0.015625)"/>
       <path id="ArialMT-26" d="M 3763 1606 
L 4369 1453 
Q 4178 706 3683 314 
Q 3188 -78 2472 -78 
Q 1731 -78 1267 223 
Q 803 525 561 1097 
Q 319 1669 319 2325 
Q 319 3041 592 3573 
Q 866 4106 1370 4382 
Q 1875 4659 2481 4659 
Q 3169 4659 3637 4309 
Q 4106 3959 4291 3325 
L 3694 3184 
Q 3534 3684 3231 3912 
Q 2928 4141 2469 4141 
Q 1941 4141 1586 3887 
Q 1231 3634 1087 3207 
Q 944 2781 944 2328 
Q 944 1744 1114 1308 
Q 1284 872 1643 656 
Q 2003 441 2422 441 
Q 2931 441 3284 734 
Q 3638 1028 3763 1606 
z
" transform="scale(0.015625)"/>
       <path id="ArialMT-c" d="M 791 -1347 
L 388 -1347 
Q 1322 153 1322 1656 
Q 1322 2244 1188 2822 
Q 1081 3291 891 3722 
Q 769 4003 388 4659 
L 791 4659 
Q 1378 3875 1659 3084 
Q 1900 2403 1900 1659 
Q 1900 816 1576 28 
Q 1253 -759 791 -1347 
z
" transform="scale(0.015625)"/>
      </defs>
      <use xlink:href="#ArialMT-37"/>
      <use xlink:href="#ArialMT-14" transform="translate(61.078125 0)"/>
      <use xlink:href="#ArialMT-3" transform="translate(116.6875 0)"/>
      <use xlink:href="#ArialMT-37" transform="translate(142.65625 0)"/>
      <use xlink:href="#ArialMT-48" transform="translate(192.65625 0)"/>
      <use xlink:href="#ArialMT-50" transform="translate(248.265625 0)"/>
      <use xlink:href="#ArialMT-53" transform="translate(331.5625 0)"/>
      <use xlink:href="#ArialMT-48" transform="translate(387.171875 0)"/>
      <use xlink:href="#ArialMT-55" transform="translate(442.78125 0)"/>
      <use xlink:href="#ArialMT-44" transform="translate(476.078125 0)"/>
      <use xlink:href="#ArialMT-57" transform="translate(531.6875 0)"/>
      <use xlink:href="#ArialMT-58" transform="translate(559.46875 0)"/>
      <use xlink:href="#ArialMT-55" transform="translate(615.078125 0)"/>
      <use xlink:href="#ArialMT-48" transform="translate(648.375 0)"/>
      <use xlink:href="#ArialMT-3" transform="translate(703.984375 0)"/>
      <use xlink:href="#ArialMT-b" transform="translate(731.765625 0)"/>
      <use xlink:href="#ArialMT-83" transform="translate(765.0625 0)"/>
      <use xlink:href="#ArialMT-26" transform="translate(805.046875 0)"/>
      <use xlink:href="#ArialMT-c" transform="translate(877.265625 0)"/>
     </g>
    </g>
   </g>
   <g id="matplotlib.axis_2">
    <g id="ytick_1">
     <g id="line2d_26">
      <defs>
       <path id="m7a29be3da0" d="M 0 0 
L 6 0 
" style="stroke: #000000; stroke-width: 1.5"/>
      </defs>
      <g>
       <use xlink:href="#m7a29be3da0" x="60.598945" y="286.521626" style="stroke: #000000; stroke-width: 1.5"/>
      </g>
     </g>
     <g id="text_9">
      <!-- $\mathdefault{10^{-20}}$ -->
      <g transform="translate(24.338945 292.961626) scale(0.14 -0.14)">
       <defs>
        <path id="ArialMT-ed" d="M 3381 1997 
L 356 1997 
L 356 2522 
L 3381 2522 
L 3381 1997 
z
" transform="scale(0.015625)"/>
       </defs>
       <use xlink:href="#ArialMT-14" transform="translate(0 0.3875)"/>
       <use xlink:href="#ArialMT-13" transform="translate(55.615234 0.3875)"/>
       <use xlink:href="#ArialMT-ed" transform="translate(112.1875 41.6875) scale(0.7)"/>
       <use xlink:href="#ArialMT-15" transform="translate(153.066406 41.6875) scale(0.7)"/>
       <use xlink:href="#ArialMT-13" transform="translate(191.99707 41.6875) scale(0.7)"/>
      </g>
     </g>
    </g>
    <g id="ytick_2">
     <g id="line2d_27">
      <g>
       <use xlink:href="#m7a29be3da0" x="60.598945" y="253.850585" style="stroke: #000000; stroke-width: 1.5"/>
      </g>
     </g>
     <g id="text_10">
      <!-- $\mathdefault{10^{-19}}$ -->
      <g transform="translate(24.338945 260.290585) scale(0.14 -0.14)">
       <defs>
        <path id="ArialMT-1c" d="M 350 1059 
L 891 1109 
Q 959 728 1153 556 
Q 1347 384 1650 384 
Q 1909 384 2104 503 
Q 2300 622 2425 820 
Q 2550 1019 2634 1356 
Q 2719 1694 2719 2044 
Q 2719 2081 2716 2156 
Q 2547 1888 2255 1720 
Q 1963 1553 1622 1553 
Q 1053 1553 659 1965 
Q 266 2378 266 3053 
Q 266 3750 677 4175 
Q 1088 4600 1706 4600 
Q 2153 4600 2523 4359 
Q 2894 4119 3086 3673 
Q 3278 3228 3278 2384 
Q 3278 1506 3087 986 
Q 2897 466 2520 194 
Q 2144 -78 1638 -78 
Q 1100 -78 759 220 
Q 419 519 350 1059 
z
M 2653 3081 
Q 2653 3566 2395 3850 
Q 2138 4134 1775 4134 
Q 1400 4134 1122 3828 
Q 844 3522 844 3034 
Q 844 2597 1108 2323 
Q 1372 2050 1759 2050 
Q 2150 2050 2401 2323 
Q 2653 2597 2653 3081 
z
" transform="scale(0.015625)"/>
       </defs>
       <use xlink:href="#ArialMT-14" transform="translate(0 0.3875)"/>
       <use xlink:href="#ArialMT-13" transform="translate(55.615234 0.3875)"/>
       <use xlink:href="#ArialMT-ed" transform="translate(112.1875 41.6875) scale(0.7)"/>
       <use xlink:href="#ArialMT-14" transform="translate(153.066406 41.6875) scale(0.7)"/>
       <use xlink:href="#ArialMT-1c" transform="translate(191.99707 41.6875) scale(0.7)"/>
      </g>
     </g>
    </g>
    <g id="ytick_3">
     <g id="line2d_28">
      <g>
       <use xlink:href="#m7a29be3da0" x="60.598945" y="221.179544" style="stroke: #000000; stroke-width: 1.5"/>
      </g>
     </g>
     <g id="text_11">
      <!-- $\mathdefault{10^{-18}}$ -->
      <g transform="translate(24.338945 227.619544) scale(0.14 -0.14)">
       <use xlink:href="#ArialMT-14" transform="translate(0 0.3875)"/>
       <use xlink:href="#ArialMT-13" transform="translate(55.615234 0.3875)"/>
       <use xlink:href="#ArialMT-ed" transform="translate(112.1875 41.6875) scale(0.7)"/>
       <use xlink:href="#ArialMT-14" transform="translate(153.066406 41.6875) scale(0.7)"/>
       <use xlink:href="#ArialMT-1b" transform="translate(191.99707 41.6875) scale(0.7)"/>
      </g>
     </g>
    </g>
    <g id="ytick_4">
     <g id="line2d_29">
      <g>
       <use xlink:href="#m7a29be3da0" x="60.598945" y="188.508502" style="stroke: #000000; stroke-width: 1.5"/>
      </g>
     </g>
     <g id="text_12">
      <!-- $\mathdefault{10^{-17}}$ -->
      <g transform="translate(24.338945 194.948502) scale(0.14 -0.14)">
       <defs>
        <path id="ArialMT-1a" d="M 303 3981 
L 303 4522 
L 3269 4522 
L 3269 4084 
Q 2831 3619 2401 2847 
Q 1972 2075 1738 1259 
Q 1569 684 1522 0 
L 944 0 
Q 953 541 1156 1306 
Q 1359 2072 1739 2783 
Q 2119 3494 2547 3981 
L 303 3981 
z
" transform="scale(0.015625)"/>
       </defs>
       <use xlink:href="#ArialMT-14" transform="translate(0 0.3875)"/>
       <use xlink:href="#ArialMT-13" transform="translate(55.615234 0.3875)"/>
       <use xlink:href="#ArialMT-ed" transform="translate(112.1875 41.6875) scale(0.7)"/>
       <use xlink:href="#ArialMT-14" transform="translate(153.066406 41.6875) scale(0.7)"/>
       <use xlink:href="#ArialMT-1a" transform="translate(191.99707 41.6875) scale(0.7)"/>
      </g>
     </g>
    </g>
    <g id="ytick_5">
     <g id="line2d_30">
      <g>
       <use xlink:href="#m7a29be3da0" x="60.598945" y="155.837461" style="stroke: #000000; stroke-width: 1.5"/>
      </g>
     </g>
     <g id="text_13">
      <!-- $\mathdefault{10^{-16}}$ -->
      <g transform="translate(24.338945 162.277461) scale(0.14 -0.14)">
       <use xlink:href="#ArialMT-14" transform="translate(0 0.3875)"/>
       <use xlink:href="#ArialMT-13" transform="translate(55.615234 0.3875)"/>
       <use xlink:href="#ArialMT-ed" transform="translate(112.1875 41.6875) scale(0.7)"/>
       <use xlink:href="#ArialMT-14" transform="translate(153.066406 41.6875) scale(0.7)"/>
       <use xlink:href="#ArialMT-19" transform="translate(191.99707 41.6875) scale(0.7)"/>
      </g>
     </g>
    </g>
    <g id="ytick_6">
     <g id="line2d_31">
      <g>
       <use xlink:href="#m7a29be3da0" x="60.598945" y="123.16642" style="stroke: #000000; stroke-width: 1.5"/>
      </g>
     </g>
     <g id="text_14">
      <!-- $\mathdefault{10^{-15}}$ -->
      <g transform="translate(24.338945 129.60642) scale(0.14 -0.14)">
       <defs>
        <path id="ArialMT-18" d="M 266 1200 
L 856 1250 
Q 922 819 1161 601 
Q 1400 384 1738 384 
Q 2144 384 2425 690 
Q 2706 997 2706 1503 
Q 2706 1984 2436 2262 
Q 2166 2541 1728 2541 
Q 1456 2541 1237 2417 
Q 1019 2294 894 2097 
L 366 2166 
L 809 4519 
L 3088 4519 
L 3088 3981 
L 1259 3981 
L 1013 2750 
Q 1425 3038 1878 3038 
Q 2478 3038 2890 2622 
Q 3303 2206 3303 1553 
Q 3303 931 2941 478 
Q 2500 -78 1738 -78 
Q 1113 -78 717 272 
Q 322 622 266 1200 
z
" transform="scale(0.015625)"/>
       </defs>
       <use xlink:href="#ArialMT-14" transform="translate(0 0.3875)"/>
       <use xlink:href="#ArialMT-13" transform="translate(55.615234 0.3875)"/>
       <use xlink:href="#ArialMT-ed" transform="translate(112.1875 41.6875) scale(0.7)"/>
       <use xlink:href="#ArialMT-14" transform="translate(153.066406 41.6875) scale(0.7)"/>
       <use xlink:href="#ArialMT-18" transform="translate(191.99707 41.6875) scale(0.7)"/>
      </g>
     </g>
    </g>
    <g id="ytick_7">
     <g id="line2d_32">
      <g>
       <use xlink:href="#m7a29be3da0" x="60.598945" y="90.495378" style="stroke: #000000; stroke-width: 1.5"/>
      </g>
     </g>
     <g id="text_15">
      <!-- $\mathdefault{10^{-14}}$ -->
      <g transform="translate(24.338945 96.935378) scale(0.14 -0.14)">
       <use xlink:href="#ArialMT-14" transform="translate(0 0.3875)"/>
       <use xlink:href="#ArialMT-13" transform="translate(55.615234 0.3875)"/>
       <use xlink:href="#ArialMT-ed" transform="translate(112.1875 41.6875) scale(0.7)"/>
       <use xlink:href="#ArialMT-14" transform="translate(153.066406 41.6875) scale(0.7)"/>
       <use xlink:href="#ArialMT-17" transform="translate(191.99707 41.6875) scale(0.7)"/>
      </g>
     </g>
    </g>
    <g id="ytick_8">
     <g id="line2d_33">
      <g>
       <use xlink:href="#m7a29be3da0" x="60.598945" y="57.824337" style="stroke: #000000; stroke-width: 1.5"/>
      </g>
     </g>
     <g id="text_16">
      <!-- $\mathdefault{10^{-13}}$ -->
      <g transform="translate(24.338945 64.264337) scale(0.14 -0.14)">
       <defs>
        <path id="ArialMT-16" d="M 269 1209 
L 831 1284 
Q 928 806 1161 595 
Q 1394 384 1728 384 
Q 2125 384 2398 659 
Q 2672 934 2672 1341 
Q 2672 1728 2419 1979 
Q 2166 2231 1775 2231 
Q 1616 2231 1378 2169 
L 1441 2663 
Q 1497 2656 1531 2656 
Q 1891 2656 2178 2843 
Q 2466 3031 2466 3422 
Q 2466 3731 2256 3934 
Q 2047 4138 1716 4138 
Q 1388 4138 1169 3931 
Q 950 3725 888 3313 
L 325 3413 
Q 428 3978 793 4289 
Q 1159 4600 1703 4600 
Q 2078 4600 2393 4439 
Q 2709 4278 2876 4000 
Q 3044 3722 3044 3409 
Q 3044 3113 2884 2869 
Q 2725 2625 2413 2481 
Q 2819 2388 3044 2092 
Q 3269 1797 3269 1353 
Q 3269 753 2831 336 
Q 2394 -81 1725 -81 
Q 1122 -81 723 278 
Q 325 638 269 1209 
z
" transform="scale(0.015625)"/>
       </defs>
       <use xlink:href="#ArialMT-14" transform="translate(0 0.3875)"/>
       <use xlink:href="#ArialMT-13" transform="translate(55.615234 0.3875)"/>
       <use xlink:href="#ArialMT-ed" transform="translate(112.1875 41.6875) scale(0.7)"/>
       <use xlink:href="#ArialMT-14" transform="translate(153.066406 41.6875) scale(0.7)"/>
       <use xlink:href="#ArialMT-16" transform="translate(191.99707 41.6875) scale(0.7)"/>
      </g>
     </g>
    </g>
    <g id="ytick_9">
     <g id="line2d_34">
      <g>
       <use xlink:href="#m7a29be3da0" x="60.598945" y="25.153296" style="stroke: #000000; stroke-width: 1.5"/>
      </g>
     </g>
     <g id="text_17">
      <!-- $\mathdefault{10^{-12}}$ -->
      <g transform="translate(24.338945 31.593296) scale(0.14 -0.14)">
       <use xlink:href="#ArialMT-14" transform="translate(0 0.3875)"/>
       <use xlink:href="#ArialMT-13" transform="translate(55.615234 0.3875)"/>
       <use xlink:href="#ArialMT-ed" transform="translate(112.1875 41.6875) scale(0.7)"/>
       <use xlink:href="#ArialMT-14" transform="translate(153.066406 41.6875) scale(0.7)"/>
       <use xlink:href="#ArialMT-15" transform="translate(191.99707 41.6875) scale(0.7)"/>
      </g>
     </g>
    </g>
    <g id="ytick_10">
     <g id="line2d_35">
      <defs>
       <path id="m16d91a5639" d="M 0 0 
L 3 0 
" style="stroke: #000000"/>
      </defs>
      <g>
       <use xlink:href="#m16d91a5639" x="60.598945" y="299.522741" style="stroke: #000000"/>
      </g>
     </g>
    </g>
    <g id="ytick_11">
     <g id="line2d_36">
      <g>
       <use xlink:href="#m16d91a5639" x="60.598945" y="296.35659" style="stroke: #000000"/>
      </g>
     </g>
    </g>
    <g id="ytick_12">
     <g id="line2d_37">
      <g>
       <use xlink:href="#m16d91a5639" x="60.598945" y="293.769656" style="stroke: #000000"/>
      </g>
     </g>
    </g>
    <g id="ytick_13">
     <g id="line2d_38">
      <g>
       <use xlink:href="#m16d91a5639" x="60.598945" y="291.582435" style="stroke: #000000"/>
      </g>
     </g>
    </g>
    <g id="ytick_14">
     <g id="line2d_39">
      <g>
       <use xlink:href="#m16d91a5639" x="60.598945" y="289.687777" style="stroke: #000000"/>
      </g>
     </g>
    </g>
    <g id="ytick_15">
     <g id="line2d_40">
      <g>
       <use xlink:href="#m16d91a5639" x="60.598945" y="288.016571" style="stroke: #000000"/>
      </g>
     </g>
    </g>
    <g id="ytick_16">
     <g id="line2d_41">
      <g>
       <use xlink:href="#m16d91a5639" x="60.598945" y="276.686663" style="stroke: #000000"/>
      </g>
     </g>
    </g>
    <g id="ytick_17">
     <g id="line2d_42">
      <g>
       <use xlink:href="#m16d91a5639" x="60.598945" y="270.933578" style="stroke: #000000"/>
      </g>
     </g>
    </g>
    <g id="ytick_18">
     <g id="line2d_43">
      <g>
       <use xlink:href="#m16d91a5639" x="60.598945" y="266.8517" style="stroke: #000000"/>
      </g>
     </g>
    </g>
    <g id="ytick_19">
     <g id="line2d_44">
      <g>
       <use xlink:href="#m16d91a5639" x="60.598945" y="263.685549" style="stroke: #000000"/>
      </g>
     </g>
    </g>
    <g id="ytick_20">
     <g id="line2d_45">
      <g>
       <use xlink:href="#m16d91a5639" x="60.598945" y="261.098615" style="stroke: #000000"/>
      </g>
     </g>
    </g>
    <g id="ytick_21">
     <g id="line2d_46">
      <g>
       <use xlink:href="#m16d91a5639" x="60.598945" y="258.911393" style="stroke: #000000"/>
      </g>
     </g>
    </g>
    <g id="ytick_22">
     <g id="line2d_47">
      <g>
       <use xlink:href="#m16d91a5639" x="60.598945" y="257.016736" style="stroke: #000000"/>
      </g>
     </g>
    </g>
    <g id="ytick_23">
     <g id="line2d_48">
      <g>
       <use xlink:href="#m16d91a5639" x="60.598945" y="255.34553" style="stroke: #000000"/>
      </g>
     </g>
    </g>
    <g id="ytick_24">
     <g id="line2d_49">
      <g>
       <use xlink:href="#m16d91a5639" x="60.598945" y="244.015622" style="stroke: #000000"/>
      </g>
     </g>
    </g>
    <g id="ytick_25">
     <g id="line2d_50">
      <g>
       <use xlink:href="#m16d91a5639" x="60.598945" y="238.262537" style="stroke: #000000"/>
      </g>
     </g>
    </g>
    <g id="ytick_26">
     <g id="line2d_51">
      <g>
       <use xlink:href="#m16d91a5639" x="60.598945" y="234.180658" style="stroke: #000000"/>
      </g>
     </g>
    </g>
    <g id="ytick_27">
     <g id="line2d_52">
      <g>
       <use xlink:href="#m16d91a5639" x="60.598945" y="231.014507" style="stroke: #000000"/>
      </g>
     </g>
    </g>
    <g id="ytick_28">
     <g id="line2d_53">
      <g>
       <use xlink:href="#m16d91a5639" x="60.598945" y="228.427573" style="stroke: #000000"/>
      </g>
     </g>
    </g>
    <g id="ytick_29">
     <g id="line2d_54">
      <g>
       <use xlink:href="#m16d91a5639" x="60.598945" y="226.240352" style="stroke: #000000"/>
      </g>
     </g>
    </g>
    <g id="ytick_30">
     <g id="line2d_55">
      <g>
       <use xlink:href="#m16d91a5639" x="60.598945" y="224.345695" style="stroke: #000000"/>
      </g>
     </g>
    </g>
    <g id="ytick_31">
     <g id="line2d_56">
      <g>
       <use xlink:href="#m16d91a5639" x="60.598945" y="222.674489" style="stroke: #000000"/>
      </g>
     </g>
    </g>
    <g id="ytick_32">
     <g id="line2d_57">
      <g>
       <use xlink:href="#m16d91a5639" x="60.598945" y="211.34458" style="stroke: #000000"/>
      </g>
     </g>
    </g>
    <g id="ytick_33">
     <g id="line2d_58">
      <g>
       <use xlink:href="#m16d91a5639" x="60.598945" y="205.591495" style="stroke: #000000"/>
      </g>
     </g>
    </g>
    <g id="ytick_34">
     <g id="line2d_59">
      <g>
       <use xlink:href="#m16d91a5639" x="60.598945" y="201.509617" style="stroke: #000000"/>
      </g>
     </g>
    </g>
    <g id="ytick_35">
     <g id="line2d_60">
      <g>
       <use xlink:href="#m16d91a5639" x="60.598945" y="198.343466" style="stroke: #000000"/>
      </g>
     </g>
    </g>
    <g id="ytick_36">
     <g id="line2d_61">
      <g>
       <use xlink:href="#m16d91a5639" x="60.598945" y="195.756532" style="stroke: #000000"/>
      </g>
     </g>
    </g>
    <g id="ytick_37">
     <g id="line2d_62">
      <g>
       <use xlink:href="#m16d91a5639" x="60.598945" y="193.569311" style="stroke: #000000"/>
      </g>
     </g>
    </g>
    <g id="ytick_38">
     <g id="line2d_63">
      <g>
       <use xlink:href="#m16d91a5639" x="60.598945" y="191.674653" style="stroke: #000000"/>
      </g>
     </g>
    </g>
    <g id="ytick_39">
     <g id="line2d_64">
      <g>
       <use xlink:href="#m16d91a5639" x="60.598945" y="190.003447" style="stroke: #000000"/>
      </g>
     </g>
    </g>
    <g id="ytick_40">
     <g id="line2d_65">
      <g>
       <use xlink:href="#m16d91a5639" x="60.598945" y="178.673539" style="stroke: #000000"/>
      </g>
     </g>
    </g>
    <g id="ytick_41">
     <g id="line2d_66">
      <g>
       <use xlink:href="#m16d91a5639" x="60.598945" y="172.920454" style="stroke: #000000"/>
      </g>
     </g>
    </g>
    <g id="ytick_42">
     <g id="line2d_67">
      <g>
       <use xlink:href="#m16d91a5639" x="60.598945" y="168.838576" style="stroke: #000000"/>
      </g>
     </g>
    </g>
    <g id="ytick_43">
     <g id="line2d_68">
      <g>
       <use xlink:href="#m16d91a5639" x="60.598945" y="165.672424" style="stroke: #000000"/>
      </g>
     </g>
    </g>
    <g id="ytick_44">
     <g id="line2d_69">
      <g>
       <use xlink:href="#m16d91a5639" x="60.598945" y="163.085491" style="stroke: #000000"/>
      </g>
     </g>
    </g>
    <g id="ytick_45">
     <g id="line2d_70">
      <g>
       <use xlink:href="#m16d91a5639" x="60.598945" y="160.898269" style="stroke: #000000"/>
      </g>
     </g>
    </g>
    <g id="ytick_46">
     <g id="line2d_71">
      <g>
       <use xlink:href="#m16d91a5639" x="60.598945" y="159.003612" style="stroke: #000000"/>
      </g>
     </g>
    </g>
    <g id="ytick_47">
     <g id="line2d_72">
      <g>
       <use xlink:href="#m16d91a5639" x="60.598945" y="157.332406" style="stroke: #000000"/>
      </g>
     </g>
    </g>
    <g id="ytick_48">
     <g id="line2d_73">
      <g>
       <use xlink:href="#m16d91a5639" x="60.598945" y="146.002498" style="stroke: #000000"/>
      </g>
     </g>
    </g>
    <g id="ytick_49">
     <g id="line2d_74">
      <g>
       <use xlink:href="#m16d91a5639" x="60.598945" y="140.249413" style="stroke: #000000"/>
      </g>
     </g>
    </g>
    <g id="ytick_50">
     <g id="line2d_75">
      <g>
       <use xlink:href="#m16d91a5639" x="60.598945" y="136.167534" style="stroke: #000000"/>
      </g>
     </g>
    </g>
    <g id="ytick_51">
     <g id="line2d_76">
      <g>
       <use xlink:href="#m16d91a5639" x="60.598945" y="133.001383" style="stroke: #000000"/>
      </g>
     </g>
    </g>
    <g id="ytick_52">
     <g id="line2d_77">
      <g>
       <use xlink:href="#m16d91a5639" x="60.598945" y="130.414449" style="stroke: #000000"/>
      </g>
     </g>
    </g>
    <g id="ytick_53">
     <g id="line2d_78">
      <g>
       <use xlink:href="#m16d91a5639" x="60.598945" y="128.227228" style="stroke: #000000"/>
      </g>
     </g>
    </g>
    <g id="ytick_54">
     <g id="line2d_79">
      <g>
       <use xlink:href="#m16d91a5639" x="60.598945" y="126.332571" style="stroke: #000000"/>
      </g>
     </g>
    </g>
    <g id="ytick_55">
     <g id="line2d_80">
      <g>
       <use xlink:href="#m16d91a5639" x="60.598945" y="124.661365" style="stroke: #000000"/>
      </g>
     </g>
    </g>
    <g id="ytick_56">
     <g id="line2d_81">
      <g>
       <use xlink:href="#m16d91a5639" x="60.598945" y="113.331456" style="stroke: #000000"/>
      </g>
     </g>
    </g>
    <g id="ytick_57">
     <g id="line2d_82">
      <g>
       <use xlink:href="#m16d91a5639" x="60.598945" y="107.578371" style="stroke: #000000"/>
      </g>
     </g>
    </g>
    <g id="ytick_58">
     <g id="line2d_83">
      <g>
       <use xlink:href="#m16d91a5639" x="60.598945" y="103.496493" style="stroke: #000000"/>
      </g>
     </g>
    </g>
    <g id="ytick_59">
     <g id="line2d_84">
      <g>
       <use xlink:href="#m16d91a5639" x="60.598945" y="100.330342" style="stroke: #000000"/>
      </g>
     </g>
    </g>
    <g id="ytick_60">
     <g id="line2d_85">
      <g>
       <use xlink:href="#m16d91a5639" x="60.598945" y="97.743408" style="stroke: #000000"/>
      </g>
     </g>
    </g>
    <g id="ytick_61">
     <g id="line2d_86">
      <g>
       <use xlink:href="#m16d91a5639" x="60.598945" y="95.556187" style="stroke: #000000"/>
      </g>
     </g>
    </g>
    <g id="ytick_62">
     <g id="line2d_87">
      <g>
       <use xlink:href="#m16d91a5639" x="60.598945" y="93.661529" style="stroke: #000000"/>
      </g>
     </g>
    </g>
    <g id="ytick_63">
     <g id="line2d_88">
      <g>
       <use xlink:href="#m16d91a5639" x="60.598945" y="91.990323" style="stroke: #000000"/>
      </g>
     </g>
    </g>
    <g id="ytick_64">
     <g id="line2d_89">
      <g>
       <use xlink:href="#m16d91a5639" x="60.598945" y="80.660415" style="stroke: #000000"/>
      </g>
     </g>
    </g>
    <g id="ytick_65">
     <g id="line2d_90">
      <g>
       <use xlink:href="#m16d91a5639" x="60.598945" y="74.90733" style="stroke: #000000"/>
      </g>
     </g>
    </g>
    <g id="ytick_66">
     <g id="line2d_91">
      <g>
       <use xlink:href="#m16d91a5639" x="60.598945" y="70.825451" style="stroke: #000000"/>
      </g>
     </g>
    </g>
    <g id="ytick_67">
     <g id="line2d_92">
      <g>
       <use xlink:href="#m16d91a5639" x="60.598945" y="67.6593" style="stroke: #000000"/>
      </g>
     </g>
    </g>
    <g id="ytick_68">
     <g id="line2d_93">
      <g>
       <use xlink:href="#m16d91a5639" x="60.598945" y="65.072367" style="stroke: #000000"/>
      </g>
     </g>
    </g>
    <g id="ytick_69">
     <g id="line2d_94">
      <g>
       <use xlink:href="#m16d91a5639" x="60.598945" y="62.885145" style="stroke: #000000"/>
      </g>
     </g>
    </g>
    <g id="ytick_70">
     <g id="line2d_95">
      <g>
       <use xlink:href="#m16d91a5639" x="60.598945" y="60.990488" style="stroke: #000000"/>
      </g>
     </g>
    </g>
    <g id="ytick_71">
     <g id="line2d_96">
      <g>
       <use xlink:href="#m16d91a5639" x="60.598945" y="59.319282" style="stroke: #000000"/>
      </g>
     </g>
    </g>
    <g id="ytick_72">
     <g id="line2d_97">
      <g>
       <use xlink:href="#m16d91a5639" x="60.598945" y="47.989374" style="stroke: #000000"/>
      </g>
     </g>
    </g>
    <g id="ytick_73">
     <g id="line2d_98">
      <g>
       <use xlink:href="#m16d91a5639" x="60.598945" y="42.236289" style="stroke: #000000"/>
      </g>
     </g>
    </g>
    <g id="ytick_74">
     <g id="line2d_99">
      <g>
       <use xlink:href="#m16d91a5639" x="60.598945" y="38.15441" style="stroke: #000000"/>
      </g>
     </g>
    </g>
    <g id="ytick_75">
     <g id="line2d_100">
      <g>
       <use xlink:href="#m16d91a5639" x="60.598945" y="34.988259" style="stroke: #000000"/>
      </g>
     </g>
    </g>
    <g id="ytick_76">
     <g id="line2d_101">
      <g>
       <use xlink:href="#m16d91a5639" x="60.598945" y="32.401325" style="stroke: #000000"/>
      </g>
     </g>
    </g>
    <g id="ytick_77">
     <g id="line2d_102">
      <g>
       <use xlink:href="#m16d91a5639" x="60.598945" y="30.214104" style="stroke: #000000"/>
      </g>
     </g>
    </g>
    <g id="ytick_78">
     <g id="line2d_103">
      <g>
       <use xlink:href="#m16d91a5639" x="60.598945" y="28.319447" style="stroke: #000000"/>
      </g>
     </g>
    </g>
    <g id="ytick_79">
     <g id="line2d_104">
      <g>
       <use xlink:href="#m16d91a5639" x="60.598945" y="26.648241" style="stroke: #000000"/>
      </g>
     </g>
    </g>
    <g id="ytick_80">
     <g id="line2d_105">
      <g>
       <use xlink:href="#m16d91a5639" x="60.598945" y="15.318332" style="stroke: #000000"/>
      </g>
     </g>
    </g>
    <g id="ytick_81">
     <g id="line2d_106">
      <g>
       <use xlink:href="#m16d91a5639" x="60.598945" y="9.565247" style="stroke: #000000"/>
      </g>
     </g>
    </g>
    <g id="text_18">
     <!-- Ion Current (m/z 40) -->
     <g transform="translate(17.392383 216.137266) rotate(-90) scale(0.14 -0.14)">
      <defs>
       <path id="ArialMT-2c" d="M 597 0 
L 597 4581 
L 1203 4581 
L 1203 0 
L 597 0 
z
" transform="scale(0.015625)"/>
       <path id="ArialMT-52" d="M 213 1659 
Q 213 2581 725 3025 
Q 1153 3394 1769 3394 
Q 2453 3394 2887 2945 
Q 3322 2497 3322 1706 
Q 3322 1066 3130 698 
Q 2938 331 2570 128 
Q 2203 -75 1769 -75 
Q 1072 -75 642 372 
Q 213 819 213 1659 
z
M 791 1659 
Q 791 1022 1069 705 
Q 1347 388 1769 388 
Q 2188 388 2466 706 
Q 2744 1025 2744 1678 
Q 2744 2294 2464 2611 
Q 2184 2928 1769 2928 
Q 1347 2928 1069 2612 
Q 791 2297 791 1659 
z
" transform="scale(0.015625)"/>
       <path id="ArialMT-51" d="M 422 0 
L 422 3319 
L 928 3319 
L 928 2847 
Q 1294 3394 1984 3394 
Q 2284 3394 2536 3286 
Q 2788 3178 2913 3003 
Q 3038 2828 3088 2588 
Q 3119 2431 3119 2041 
L 3119 0 
L 2556 0 
L 2556 2019 
Q 2556 2363 2490 2533 
Q 2425 2703 2258 2804 
Q 2091 2906 1866 2906 
Q 1506 2906 1245 2678 
Q 984 2450 984 1813 
L 984 0 
L 422 0 
z
" transform="scale(0.015625)"/>
       <path id="ArialMT-12" d="M 0 -78 
L 1328 4659 
L 1778 4659 
L 453 -78 
L 0 -78 
z
" transform="scale(0.015625)"/>
       <path id="ArialMT-5d" d="M 125 0 
L 125 456 
L 2238 2881 
Q 1878 2863 1603 2863 
L 250 2863 
L 250 3319 
L 2963 3319 
L 2963 2947 
L 1166 841 
L 819 456 
Q 1197 484 1528 484 
L 3063 484 
L 3063 0 
L 125 0 
z
" transform="scale(0.015625)"/>
      </defs>
      <use xlink:href="#ArialMT-2c"/>
      <use xlink:href="#ArialMT-52" transform="translate(27.78125 0)"/>
      <use xlink:href="#ArialMT-51" transform="translate(83.390625 0)"/>
      <use xlink:href="#ArialMT-3" transform="translate(139 0)"/>
      <use xlink:href="#ArialMT-26" transform="translate(166.78125 0)"/>
      <use xlink:href="#ArialMT-58" transform="translate(239 0)"/>
      <use xlink:href="#ArialMT-55" transform="translate(294.609375 0)"/>
      <use xlink:href="#ArialMT-55" transform="translate(327.90625 0)"/>
      <use xlink:href="#ArialMT-48" transform="translate(361.203125 0)"/>
      <use xlink:href="#ArialMT-51" transform="translate(416.8125 0)"/>
      <use xlink:href="#ArialMT-57" transform="translate(472.421875 0)"/>
      <use xlink:href="#ArialMT-3" transform="translate(500.203125 0)"/>
      <use xlink:href="#ArialMT-b" transform="translate(527.984375 0)"/>
      <use xlink:href="#ArialMT-50" transform="translate(561.28125 0)"/>
      <use xlink:href="#ArialMT-12" transform="translate(644.578125 0)"/>
      <use xlink:href="#ArialMT-5d" transform="translate(672.359375 0)"/>
      <use xlink:href="#ArialMT-3" transform="translate(722.359375 0)"/>
      <use xlink:href="#ArialMT-17" transform="translate(750.140625 0)"/>
      <use xlink:href="#ArialMT-13" transform="translate(805.75 0)"/>
      <use xlink:href="#ArialMT-c" transform="translate(861.359375 0)"/>
     </g>
    </g>
   </g>
   <g id="line2d_107">
    <path d="M 78.802131 67.598078 
L 78.741251 86.503254 
L 78.802131 100.450851 
L 78.741251 137.036093 
L 78.680371 286.521626 
L 78.680371 286.521626 
L 83.276828 286.521626 
L 85.407636 90.191131 
L 87.203602 86.504652 
L 88.634287 84.598418 
L 89.821452 80.685807 
L 91.008616 81.824422 
L 92.07402 82.675731 
L 93.169864 80.682423 
L 94.357028 84.174682 
L 95.574632 76.633651 
L 96.792237 79.190803 
L 98.131602 84.532088 
L 99.440527 85.486864 
L 101.936616 95.452822 
L 103.15422 111.371679 
L 104.280504 111.945623 
L 105.467668 99.789183 
L 106.654833 88.839352 
L 107.872437 84.415551 
L 108.998721 116.267405 
L 110.185886 126.110605 
L 111.37305 97.729919 
L 113.747379 83.296503 
L 114.964983 85.993365 
L 116.182587 81.539048 
L 117.369752 85.552571 
L 118.587356 83.210145 
L 120.931245 96.908132 
L 122.118409 99.484286 
L 123.305573 91.552455 
L 124.492738 79.602124 
L 125.679902 85.279773 
L 126.867066 86.959235 
L 128.084671 97.560302 
L 129.241395 129.353223 
L 130.458999 286.521626 
L 131.646164 286.521626 
L 132.833328 111.602825 
L 134.020492 108.898213 
L 135.207657 79.871923 
L 136.425261 77.37412 
L 137.642865 85.605064 
L 138.86047 87.438303 
L 140.078074 97.123509 
L 141.234798 94.033561 
L 142.421963 286.521626 
L 143.639567 98.36772 
L 144.765851 90.55457 
L 145.953016 86.33767 
L 147.17062 81.478027 
L 148.388225 86.034656 
L 149.575389 94.29275 
L 150.792993 106.118546 
L 151.919277 286.521626 
L 154.263166 286.521626 
L 155.45033 116.861673 
L 156.607054 119.220086 
L 157.824659 91.768978 
L 159.011823 91.321327 
L 160.198987 80.92497 
L 161.416592 79.191186 
L 162.573316 75.813445 
L 163.790921 80.99726 
L 164.947645 84.691069 
L 166.165249 86.706936 
L 167.352413 80.43965 
L 168.570018 92.72708 
L 169.787622 91.686408 
L 170.944347 100.119983 
L 172.161951 88.148577 
L 173.349115 85.265326 
L 174.505839 82.096061 
L 175.662564 86.738572 
L 176.880168 94.134154 
L 178.036892 120.845072 
L 179.193617 96.389859 
L 180.380781 98.691778 
L 182.84643 87.726687 
L 184.033594 86.317227 
L 185.251199 84.296287 
L 186.468803 87.017658 
L 187.686407 98.002904 
L 188.843132 142.660789 
L 189.999856 113.976961 
L 191.21746 286.521626 
L 199.46673 286.521626 
L 200.653895 97.976067 
L 201.780179 88.792005 
L 202.967343 286.521626 
L 204.184947 100.119042 
L 205.372112 107.701829 
L 206.528836 85.592359 
L 207.716 87.794991 
L 208.903165 89.35917 
L 210.120769 83.891164 
L 211.277493 79.897369 
L 212.464657 77.118492 
L 213.682262 78.513512 
L 214.869426 89.465239 
L 216.056591 79.801352 
L 217.213315 81.562642 
L 218.430919 93.369648 
L 219.618083 117.263669 
L 220.774808 135.861722 
L 221.961972 89.012241 
L 223.149136 95.313358 
L 224.336301 286.521626 
L 227.836913 286.521626 
L 229.024078 108.930317 
L 230.272122 286.521626 
L 231.428846 92.949398 
L 232.616011 88.278731 
L 233.711855 81.932317 
L 236.025303 101.849017 
L 237.242908 178.020739 
L 238.460512 286.521626 
L 239.647676 286.521626 
L 240.865281 123.740206 
L 242.052445 96.606117 
L 243.178729 80.442595 
L 244.396334 82.710094 
L 245.583498 82.056519 
L 246.801102 92.941531 
L 247.957827 106.508705 
L 249.144991 286.521626 
L 253.893648 286.521626 
L 255.080812 86.784392 
L 256.267977 85.978235 
L 257.485581 76.426115 
L 258.672745 77.896556 
L 259.82947 78.125849 
L 261.077514 81.731167 
L 262.234238 83.516374 
L 263.421403 83.143855 
L 264.578127 104.886403 
L 265.765291 286.521626 
L 267.013336 94.760193 
L 268.13962 84.495578 
L 270.513949 71.637158 
L 271.670673 69.671396 
L 272.888277 70.443575 
L 274.136322 70.902194 
L 275.353926 71.676629 
L 276.54109 76.758365 
L 277.697815 77.131266 
L 278.915419 80.371571 
L 280.072143 82.761688 
L 281.289748 90.021527 
L 282.507352 86.160312 
L 283.694516 87.233133 
L 284.881681 87.70323 
L 286.068845 93.53974 
L 287.225569 91.910341 
L 288.443174 88.398112 
L 289.599898 86.805237 
L 290.756622 93.19497 
L 291.943786 162.461231 
L 293.130951 286.521626 
L 294.287675 286.521626 
L 295.505279 98.141919 
L 296.722884 84.928056 
L 297.849168 92.47189 
L 299.066772 94.747934 
L 300.284377 95.701443 
L 301.410661 92.977513 
L 302.597825 101.306903 
L 303.78499 286.521626 
L 306.159318 286.521626 
L 307.285602 112.13133 
L 308.503207 91.117144 
L 309.690371 98.079164 
L 310.847095 87.557544 
L 312.03426 99.116558 
L 313.221424 96.431915 
L 314.408588 286.521626 
L 315.595752 286.521626 
L 316.752477 114.09698 
L 317.909201 107.218083 
L 319.157245 286.521626 
L 320.34441 92.653629 
L 321.501134 80.552443 
L 322.627418 76.423382 
L 323.875463 79.350053 
L 325.032187 77.243192 
L 326.249791 76.124311 
L 327.406515 73.260522 
L 328.56324 73.499115 
L 329.750404 74.288303 
L 330.968008 77.487623 
L 332.094292 80.128282 
L 333.342337 80.404808 
L 334.833902 85.938072 
L 336.112387 100.674016 
L 337.299551 101.377906 
L 338.517156 286.521626 
L 345.548821 286.521626 
L 346.796866 93.735559 
L 347.92315 91.833663 
L 349.201635 286.521626 
L 350.358359 286.521626 
L 351.484643 94.649443 
L 352.702247 88.741618 
L 353.950292 75.931748 
L 355.015696 73.529737 
L 356.20286 71.353799 
L 357.481345 70.509214 
L 358.607629 66.941356 
L 359.825233 73.217217 
L 361.042838 84.122179 
L 362.260442 89.379274 
L 363.264966 286.521626 
L 365.791495 286.521626 
L 366.856899 95.702526 
L 368.074503 89.997773 
L 369.444308 89.882839 
L 370.631473 87.041345 
L 371.757757 133.041522 
L 372.853601 99.9539 
L 374.040765 130.145146 
L 375.197489 286.521626 
L 376.415094 139.989726 
L 377.480497 106.416879 
L 378.667662 90.815101 
L 379.854826 88.366228 
L 381.04199 92.891882 
L 382.198715 94.899205 
L 383.446759 103.780714 
L 384.542603 106.670988 
L 385.760208 88.082033 
L 386.856052 99.684433 
L 388.225857 80.753586 
L 389.382581 74.290311 
L 390.569745 68.517247 
L 391.726469 67.262718 
L 392.974514 67.933557 
L 393.979037 67.855588 
L 395.622803 72.318573 
L 396.870848 88.605861 
L 398.149333 96.171688 
L 399.275617 286.521626 
L 400.462781 97.581401 
L 401.710826 94.858365 
L 402.776229 101.747193 
L 403.963394 93.145778 
L 405.059238 81.674318 
L 406.368162 78.29506 
L 407.494447 77.200281 
L 408.742491 76.961793 
L 410.020976 74.188436 
L 412.243104 66.210235 
L 413.369388 68.691176 
L 414.647873 72.023075 
L 415.743717 68.076508 
L 417.083081 67.36305 
L 418.331126 66.464664 
L 419.30521 65.092941 
L 421.679538 62.818239 
L 422.927583 62.159444 
L 424.145187 61.9388 
L 425.119271 62.272825 
L 425.119271 62.272825 
" clip-path="url(#p17d5c22cac)" style="fill: none; stroke: #000000; stroke-width: 2.5; stroke-linecap: square"/>
   </g>
   <g id="line2d_108">
    <path d="M 71.100783 286.521626 
L 71.100783 88.014255 
L 71.100783 89.813953 
L 71.252984 89.651428 
L 71.892226 82.799653 
L 73.566432 84.121426 
L 75.72768 88.576426 
L 77.828048 91.376514 
L 79.593574 94.158039 
L 81.0547 286.521626 
L 91.465218 286.521626 
L 92.774142 126.062837 
L 93.900426 98.739175 
L 95.148471 87.906568 
L 96.396515 96.221072 
L 97.64456 88.00182 
L 98.862164 84.365423 
L 100.140649 97.412999 
L 101.449574 98.001712 
L 102.575858 96.431414 
L 103.823902 92.521916 
L 104.950187 88.195839 
L 106.167791 95.81796 
L 107.294075 83.252937 
L 108.57256 82.183464 
L 109.790164 81.775636 
L 110.946888 93.128614 
L 112.073172 99.906056 
L 113.290777 91.994281 
L 114.508381 85.040384 
L 115.695546 91.948307 
L 116.91315 88.469903 
L 117.978554 89.409213 
L 119.226598 75.716543 
L 120.413763 81.77615 
L 121.631367 109.641595 
L 122.879412 286.521626 
L 129.971958 286.521626 
L 131.220002 105.80561 
L 132.285406 286.521626 
L 133.53345 118.476288 
L 134.751055 286.521626 
L 135.846899 121.812837 
L 137.094943 112.553052 
L 138.342988 87.085817 
L 139.499712 81.928919 
L 140.747757 84.22954 
L 141.965361 87.534218 
L 143.122085 81.593175 
L 144.248369 79.233711 
L 145.405094 81.617395 
L 146.622698 286.521626 
L 159.742386 286.521626 
L 160.89911 131.195309 
L 162.177595 86.557086 
L 163.303879 76.574452 
L 164.491043 71.846884 
L 165.678207 71.690086 
L 166.834932 72.375196 
L 168.052536 77.074701 
L 169.27014 89.582413 
L 170.487745 286.521626 
L 173.988358 286.521626 
L 175.114642 95.014308 
L 176.362686 79.540154 
L 177.549851 75.466257 
L 178.706575 72.713854 
L 179.893739 77.113095 
L 181.080903 89.19628 
L 183.546552 81.182797 
L 185.860001 87.764146 
L 187.077605 79.35585 
L 188.203889 77.195909 
L 189.512814 78.333575 
L 190.639098 72.623889 
L 191.795822 72.101172 
L 192.982987 70.704818 
L 194.170151 65.524005 
L 195.357315 63.2966 
L 196.60536 62.217966 
L 197.762084 60.480776 
L 198.949248 61.410372 
L 200.105973 61.557668 
L 202.510741 59.953943 
L 206.041794 57.614597 
L 207.228958 56.347481 
L 208.446563 57.666021 
L 209.664167 57.087765 
L 210.790451 57.959835 
L 212.008056 56.944257 
L 213.16478 57.093239 
L 214.351944 57.930978 
L 215.539109 57.826374 
L 216.726273 56.532297 
L 217.822117 57.122153 
L 219.131042 57.043696 
L 220.226886 62.975087 
L 221.44449 63.9458 
L 222.601214 63.569292 
L 223.818819 66.636535 
L 225.005983 62.915746 
L 227.319431 58.612708 
L 228.506596 56.895232 
L 230.850484 54.742098 
L 232.098529 56.42177 
L 233.255253 55.009782 
L 234.442417 53.110808 
L 235.660022 54.150939 
L 236.786306 51.764657 
L 238.03435 51.792226 
L 240.347799 53.800236 
L 241.534963 53.858138 
L 242.691687 53.351597 
L 243.878852 53.64885 
L 245.066016 53.683185 
L 246.22274 51.167671 
L 247.470785 52.328273 
L 248.657949 51.591684 
L 249.814673 51.513887 
L 251.032278 51.689265 
L 252.189002 52.120712 
L 253.406606 51.544343 
L 254.593771 50.508867 
L 255.750495 51.017751 
L 256.968099 53.283752 
L 258.124823 52.992098 
L 259.372868 54.933865 
L 260.499152 55.644203 
L 261.716757 56.958311 
L 262.873481 56.184787 
L 264.091085 55.575305 
L 265.27825 54.068879 
L 266.404534 54.637095 
L 267.652578 55.133691 
L 268.809302 55.088205 
L 269.966027 55.971822 
L 271.153191 56.552374 
L 272.340355 56.16371 
L 273.5884 55.242675 
L 274.866884 53.463653 
L 275.993168 53.502493 
L 277.210773 52.969578 
L 278.397937 53.404197 
L 279.615542 53.218995 
L 280.802706 53.345012 
L 281.98987 57.66032 
L 283.116154 58.474865 
L 284.303319 57.278276 
L 285.490483 57.452012 
L 286.708087 59.533528 
L 287.864812 60.047388 
L 289.051976 57.956202 
L 290.23914 56.209873 
L 291.456745 55.97804 
L 292.613469 57.229662 
L 293.770193 57.995841 
L 294.987798 55.789041 
L 296.144522 56.351938 
L 297.301246 56.476976 
L 298.51885 58.601409 
L 299.736455 57.531738 
L 300.862739 59.361115 
L 302.080343 59.22803 
L 303.297948 61.446084 
L 304.424232 62.866473 
L 305.611396 60.48849 
L 306.79856 59.195072 
L 308.016165 61.020444 
L 309.142449 58.764376 
L 310.360053 59.876487 
L 311.486338 57.475022 
L 312.703942 57.901302 
L 313.891106 56.949614 
L 315.04783 55.376649 
L 316.234995 51.850107 
L 318.578883 49.334224 
L 319.766048 50.252952 
L 320.983652 50.5031 
L 322.170816 50.943133 
L 323.357981 50.888534 
L 324.484265 53.241785 
L 325.671429 54.145655 
L 326.889034 52.203288 
L 328.106638 50.031604 
L 329.202482 49.329604 
L 330.450526 48.789478 
L 331.607251 49.321412 
L 332.763975 48.739103 
L 334.2251 47.864895 
L 335.534025 47.881399 
L 336.751629 48.743706 
L 337.999674 48.406385 
L 339.186838 47.690176 
L 340.313122 47.700666 
L 341.561167 48.011279 
L 343.844175 46.401827 
L 345.09222 46.347652 
L 347.496988 46.615656 
L 348.623273 45.704509 
L 349.840877 46.028351 
L 352.215206 47.831064 
L 353.43281 46.525512 
L 354.528654 44.666822 
L 355.685378 44.539609 
L 358.120587 44.594252 
L 360.525356 43.282665 
L 361.56032 43.96829 
L 362.869244 44.313407 
L 364.117289 44.095067 
L 365.213133 42.190851 
L 366.339417 41.097544 
L 367.526581 40.152914 
L 368.713746 39.645432 
L 369.99223 38.153571 
L 371.179395 37.064781 
L 372.366559 36.676633 
L 374.680007 36.589949 
L 375.806291 36.532811 
L 377.054336 36.581636 
L 378.11974 37.727868 
L 379.398224 39.85207 
L 380.585389 42.480892 
L 381.681233 43.093262 
L 382.929277 44.778662 
L 384.116442 46.911273 
L 385.242726 48.638699 
L 386.42989 48.645015 
L 387.586614 47.660559 
L 388.834659 48.383439 
L 390.052263 50.70995 
L 391.117667 53.354749 
L 392.365712 54.31347 
L 393.583316 54.775789 
L 394.892241 54.464931 
L 396.292486 57.273233 
L 397.38833 59.935076 
L 398.758135 59.008179 
L 399.914859 59.08505 
L 401.071583 62.603894 
L 402.289188 63.315924 
L 403.445912 65.263161 
L 404.633076 65.431702 
L 405.911561 64.653063 
L 406.946525 64.536057 
L 408.255449 68.958497 
L 409.412174 73.867396 
L 410.386257 75.616735 
L 411.725622 75.643236 
L 412.912786 76.404094 
L 414.160831 70.884561 
L 415.256675 70.27249 
L 416.382959 67.564583 
L 417.661444 67.65075 
L 418.909488 67.20868 
L 419.974892 67.421789 
L 421.222937 67.524396 
L 422.2579 67.310025 
L 423.688585 66.598611 
L 424.784429 65.28341 
L 424.784429 65.28341 
" clip-path="url(#p17d5c22cac)" style="fill: none; stroke: #1f77b4; stroke-width: 2.5; stroke-linecap: square"/>
   </g>
   <g id="line2d_109">
    <path d="M 70.918143 286.521626 
L 70.918143 104.275227 
L 71.039903 87.711086 
L 71.618265 80.423557 
L 73.01851 87.363309 
L 75.179758 286.521626 
L 84.220471 286.521626 
L 85.316315 92.469531 
L 86.442599 74.944647 
L 87.629764 74.932088 
L 88.847368 74.293672 
L 90.034532 71.931806 
L 91.221697 76.145665 
L 92.408861 84.916036 
L 93.596025 87.274079 
L 94.81363 90.2866 
L 96.000794 286.521626 
L 98.649084 286.521626 
L 99.927568 106.968765 
L 101.145173 91.07749 
L 102.332337 86.692368 
L 103.519501 95.506224 
L 104.706666 97.062644 
L 105.89383 134.502675 
L 107.080994 286.521626 
L 113.047256 286.521626 
L 114.26486 109.977848 
L 115.452025 286.521626 
L 119.013518 286.521626 
L 120.200682 105.832695 
L 121.326966 82.776945 
L 122.575011 79.648201 
L 123.731735 75.541475 
L 124.888459 78.599239 
L 126.106063 83.489189 
L 127.323668 162.351104 
L 128.480392 286.521626 
L 134.385774 286.521626 
L 135.572938 78.715316 
L 136.790542 83.056811 
L 138.008147 81.121211 
L 139.347512 87.78362 
L 140.443356 286.521626 
L 142.756804 286.521626 
L 144.004849 109.484007 
L 145.192013 85.008508 
L 146.409617 77.051897 
L 147.566342 74.233151 
L 148.783946 80.284896 
L 149.94067 75.718184 
L 151.158275 80.381927 
L 152.284559 78.031155 
L 153.471723 77.852106 
L 154.780648 76.569439 
L 155.906932 79.283696 
L 157.094096 76.732765 
L 158.28126 78.3368 
L 159.529305 82.834379 
L 160.686029 88.195309 
L 161.873194 92.668711 
L 162.999478 102.493544 
L 164.247522 83.019792 
L 165.404246 90.817228 
L 166.621851 82.449285 
L 167.809015 85.361014 
L 168.996179 82.698742 
L 170.152904 78.637788 
L 171.340068 79.372119 
L 172.527232 81.211212 
L 173.653516 119.439288 
L 174.871121 107.830096 
L 176.058285 93.384923 
L 177.215009 98.041774 
L 179.650218 91.776337 
L 180.806942 82.92913 
L 181.963667 76.556122 
L 183.181271 75.755547 
L 184.459756 71.565134 
L 185.61648 73.687845 
L 186.894965 69.838389 
L 187.990808 69.652441 
L 189.177973 73.104066 
L 190.365137 78.442899 
L 191.552301 73.092629 
L 192.709026 78.814751 
L 193.92663 81.999021 
L 195.144235 79.156051 
L 196.300959 72.436908 
L 197.427243 77.966042 
L 198.614407 73.800052 
L 199.832012 71.425956 
L 201.019176 71.837221 
L 202.1759 70.438217 
L 203.393504 64.409384 
L 204.550229 66.107957 
L 205.767833 62.71596 
L 206.954997 60.026604 
L 208.111722 58.909944 
L 209.238006 60.388025 
L 210.45561 59.291198 
L 211.703655 60.182537 
L 212.860379 61.588553 
L 214.047543 60.338461 
L 215.265148 59.42707 
L 216.421872 62.253977 
L 217.609036 59.774778 
L 218.73532 60.779887 
L 219.952925 62.305067 
L 222.296813 60.32849 
L 223.544858 60.626064 
L 224.732022 59.032079 
L 225.888746 56.619988 
L 227.075911 55.026121 
L 228.263075 53.792572 
L 229.419799 52.235842 
L 231.824568 51.113979 
L 234.168456 48.891931 
L 235.355621 48.456226 
L 236.573225 49.502654 
L 237.729949 48.897701 
L 238.886674 48.904117 
L 240.104278 50.197244 
L 241.261002 51.002503 
L 242.387286 51.32999 
L 243.604891 50.306769 
L 244.883375 50.089336 
L 246.0401 48.830762 
L 247.196824 48.397975 
L 248.383988 48.742963 
L 249.540712 48.606146 
L 250.758317 49.738893 
L 251.945481 50.521677 
L 253.102205 51.046773 
L 254.31981 51.024912 
L 255.537414 50.028655 
L 256.724578 50.783112 
L 257.850863 51.733503 
L 259.129347 52.306327 
L 260.225191 53.509059 
L 261.412355 58.289879 
L 262.6604 59.963633 
L 263.817124 58.490827 
L 264.973848 58.877257 
L 266.130573 56.115184 
L 267.409057 55.800129 
L 268.504901 54.431873 
L 269.722506 53.889922 
L 270.90967 52.360438 
L 272.096834 51.989449 
L 274.562483 54.602891 
L 275.749648 54.640234 
L 276.997692 57.147403 
L 278.123976 58.213364 
L 279.372021 60.762293 
L 280.528745 62.553188 
L 281.655029 62.446892 
L 282.872633 59.846565 
L 284.029358 57.674597 
L 285.246962 57.135572 
L 286.464567 56.725601 
L 287.560411 54.929865 
L 288.778015 53.551728 
L 289.965179 52.673614 
L 291.152344 50.98821 
L 292.369948 50.503595 
L 293.435352 49.37543 
L 294.683396 48.274951 
L 295.840121 47.953445 
L 297.057725 48.164663 
L 298.244889 48.16346 
L 299.432054 47.836351 
L 300.680098 47.708167 
L 301.775942 48.226478 
L 302.963107 47.806348 
L 304.180711 48.020894 
L 305.337435 46.992467 
L 306.524599 45.178701 
L 307.711764 44.535497 
L 308.898928 43.328115 
L 311.242817 42.280838 
L 312.429981 41.425835 
L 313.617145 41.006494 
L 314.743429 40.470631 
L 315.930594 40.141978 
L 317.148198 39.025359 
L 318.365803 38.465907 
L 320.679251 39.08581 
L 321.866415 40.356207 
L 323.05358 41.137815 
L 324.240744 40.841578 
L 325.427908 41.701862 
L 326.645513 41.895667 
L 327.771797 42.831346 
L 329.019841 42.165586 
L 330.176565 42.433472 
L 331.36373 42.900263 
L 332.520454 42.74128 
L 333.859819 43.244484 
L 335.229624 43.151528 
L 336.416788 42.947865 
L 337.664833 43.741675 
L 340.039161 45.799171 
L 341.287206 45.366966 
L 342.47437 46.057165 
L 343.661534 47.044358 
L 344.787819 47.135726 
L 346.005423 48.723341 
L 347.223027 49.970134 
L 348.379752 50.550775 
L 349.536476 50.53068 
L 350.6932 51.902501 
L 351.910804 51.946782 
L 353.067529 51.278071 
L 354.315573 52.00501 
L 355.472297 53.363634 
L 356.568141 52.914644 
L 359.00335 52.442018 
L 360.190515 53.423086 
L 361.408119 53.307735 
L 362.473523 55.791872 
L 363.752008 56.90366 
L 364.939172 56.273227 
L 366.095896 58.458808 
L 367.3135 59.589462 
L 368.470225 59.670011 
L 369.687829 60.270814 
L 370.844553 62.425525 
L 373.310202 71.545458 
L 374.436486 84.606187 
L 375.623651 286.521626 
L 376.749935 89.116402 
L 377.906659 80.654746 
L 379.154704 74.018404 
L 380.341868 71.589503 
L 381.559472 68.081056 
L 382.655316 64.464169 
L 383.872921 61.478982 
L 385.060085 63.630442 
L 386.216809 67.278288 
L 387.251773 72.286084 
L 388.530258 68.275553 
L 389.747862 69.078269 
L 392.091751 71.70543 
L 393.187595 71.623056 
L 394.526959 66.554856 
L 395.927205 66.602264 
L 397.266569 68.038421 
L 398.484174 69.012167 
L 399.701778 65.311522 
L 400.828062 66.617013 
L 402.045667 66.054173 
L 403.141511 66.760554 
L 404.328675 65.637968 
L 405.60716 63.654001 
L 406.794324 60.056898 
L 407.859728 61.907947 
L 409.138213 63.048893 
L 410.203616 62.784452 
L 411.451661 61.957794 
L 412.730146 64.898267 
L 413.85643 64.997298 
L 414.921834 69.279297 
L 416.230758 69.497985 
L 417.296162 65.137717 
L 418.574647 63.601923 
L 419.761811 64.860683 
L 420.979416 63.061201 
L 423.323304 58.914348 
L 424.601789 56.889886 
L 425.423672 55.006731 
L 425.423672 55.006731 
" clip-path="url(#p17d5c22cac)" style="fill: none; stroke: #0033ff; stroke-width: 2.5; stroke-linecap: square"/>
   </g>
   <g id="line2d_110">
    <path d="M 69.091736 286.521626 
L 69.152616 286.521626 
L 69.152616 286.521626 
L 69.243937 82.62226 
L 69.730979 93.420057 
L 71.192104 91.828206 
L 73.292471 85.6059 
L 75.5146 134.400535 
L 77.371446 286.521626 
L 85.894677 286.521626 
L 87.051401 110.941269 
L 88.269006 112.429046 
L 90.673775 89.354075 
L 91.800059 89.712785 
L 92.987223 142.501173 
L 94.204828 286.521626 
L 95.361552 131.938735 
L 96.670476 87.676921 
L 97.948961 87.801941 
L 99.288326 85.950082 
L 100.50593 86.017487 
L 101.723535 90.586333 
L 102.941139 87.270544 
L 104.097863 83.018045 
L 105.285028 85.828379 
L 106.472192 80.403381 
L 107.689797 77.93712 
L 108.876961 76.84282 
L 110.094565 77.704857 
L 111.251289 80.414472 
L 112.438454 85.068708 
L 113.625618 91.319238 
L 114.812782 107.633471 
L 116.030387 286.521626 
L 117.217551 102.410104 
L 120.779044 81.253685 
L 121.966208 78.368868 
L 123.092493 78.86964 
L 124.279657 77.059573 
L 125.436381 79.592761 
L 126.714866 85.518125 
L 127.87159 104.74987 
L 129.089194 114.16094 
L 130.276359 286.521626 
L 132.559367 286.521626 
L 133.807411 124.224207 
L 134.933696 95.863142 
L 136.12086 97.160252 
L 137.399345 115.389083 
L 138.647389 136.196771 
L 139.834553 286.521626 
L 141.052158 90.550484 
L 142.178442 104.598681 
L 143.365606 113.450783 
L 144.552771 286.521626 
L 148.175144 286.521626 
L 149.362308 153.369605 
L 150.549472 286.521626 
L 151.706197 97.433062 
L 152.862921 89.97667 
L 154.080525 106.478875 
L 155.206809 125.671035 
L 156.515734 286.521626 
L 158.859623 286.521626 
L 160.077227 88.258239 
L 161.233951 75.874627 
L 162.451556 77.535695 
L 163.63872 75.881313 
L 164.825884 77.335188 
L 165.952168 76.47792 
L 167.108893 72.325452 
L 168.356937 76.67143 
L 169.574542 85.501845 
L 170.731266 102.976401 
L 171.85755 286.521626 
L 177.823812 286.521626 
L 178.980536 98.277435 
L 180.19814 114.220261 
L 181.385304 85.16033 
L 182.542029 90.796701 
L 183.729193 85.22469 
L 184.977238 83.510084 
L 186.194842 76.163593 
L 187.351566 68.494719 
L 188.50829 64.121831 
L 189.695455 63.468288 
L 190.913059 64.052272 
L 192.130664 64.444582 
L 193.226508 65.242106 
L 194.383232 68.814997 
L 195.631276 69.833533 
L 196.818441 68.305342 
L 197.944725 69.502363 
L 199.223209 69.161034 
L 200.379934 63.651681 
L 201.627978 61.460029 
L 202.754262 61.109157 
L 203.941426 59.274532 
L 205.098151 59.575137 
L 206.346195 57.99518 
L 207.53336 57.697328 
L 208.720524 59.086559 
L 209.907688 61.798271 
L 211.094853 63.904984 
L 212.251577 64.33339 
L 215.84351 76.459281 
L 217.000234 76.495246 
L 218.126518 72.529436 
L 219.313682 65.653634 
L 220.531287 63.363124 
L 221.718451 60.661575 
L 222.905615 58.989357 
L 224.09278 59.231415 
L 225.279944 61.043302 
L 226.436668 60.683468 
L 227.623833 60.835701 
L 228.810997 60.733585 
L 230.028601 61.182319 
L 231.215766 58.455001 
L 232.37249 58.804714 
L 233.559654 60.119137 
L 234.746818 61.901212 
L 235.933983 61.133178 
L 237.090707 60.624844 
L 238.277871 59.26412 
L 239.465036 58.683921 
L 240.62176 57.104109 
L 241.839364 55.223426 
L 244.152813 53.539433 
L 246.557581 53.812242 
L 247.775186 52.678517 
L 248.96235 53.101748 
L 250.119074 54.612123 
L 251.306239 54.394007 
L 252.493403 53.441037 
L 253.680567 52.955818 
L 254.867732 53.145073 
L 256.054896 51.817377 
L 257.2725 51.516818 
L 259.585949 51.752836 
L 260.803553 51.629653 
L 261.960277 52.241842 
L 263.147442 51.003638 
L 264.365046 50.433651 
L 265.582651 50.208292 
L 266.739375 49.797166 
L 267.896099 50.267016 
L 269.113703 51.402532 
L 270.300868 53.027532 
L 271.457592 52.691496 
L 272.675196 53.480248 
L 273.923241 54.458267 
L 275.110405 54.575983 
L 276.29757 53.371751 
L 279.889503 52.646344 
L 281.076667 53.386377 
L 282.233391 52.951586 
L 283.420555 51.635006 
L 284.60772 52.304656 
L 285.764444 53.381576 
L 286.951608 55.516829 
L 288.169213 56.085542 
L 289.325937 58.194512 
L 290.543541 58.099532 
L 291.730706 55.986436 
L 292.91787 57.099715 
L 294.105034 56.065259 
L 295.231318 56.563012 
L 296.448923 55.603047 
L 297.666527 55.276983 
L 298.792811 55.66872 
L 300.040856 55.043774 
L 303.541469 52.054546 
L 304.728633 52.983956 
L 305.885357 53.581948 
L 307.072521 55.332849 
L 308.259686 55.950969 
L 309.44685 57.337507 
L 310.664455 58.063781 
L 312.977903 55.567968 
L 314.195507 56.10394 
L 315.382672 54.092221 
L 317.72656 55.961805 
L 318.883284 57.440432 
L 320.040009 58.546971 
L 321.288053 61.042026 
L 322.444777 59.302979 
L 323.571061 58.093703 
L 324.788666 58.171778 
L 325.91495 58.071129 
L 327.162995 55.60437 
L 328.350159 56.994511 
L 329.537323 55.276718 
L 330.663607 52.992864 
L 331.911652 51.66129 
L 333.129256 51.282223 
L 334.529501 49.766469 
L 335.838426 49.597293 
L 337.086471 51.800357 
L 338.273635 51.949292 
L 339.491239 53.152935 
L 340.678404 53.513525 
L 341.865568 51.791122 
L 342.961412 50.433557 
L 344.239897 49.947674 
L 345.396621 48.933545 
L 346.522905 47.676394 
L 347.80139 48.302981 
L 350.053958 52.389925 
L 351.271562 55.091623 
L 352.397846 54.927256 
L 353.645891 55.148315 
L 354.802615 55.647612 
L 355.989779 57.300663 
L 357.268264 54.811405 
L 358.394548 53.000087 
L 359.551272 52.575702 
L 363.112765 52.785125 
L 364.239049 52.580139 
L 365.487094 54.084141 
L 366.704698 56.990908 
L 367.830982 57.481805 
L 369.048587 55.884972 
L 370.266191 55.255977 
L 371.362035 55.540012 
L 373.858124 56.311693 
L 374.893088 59.785288 
L 376.232453 62.030282 
L 377.297857 65.103042 
L 378.454581 67.361473 
L 379.702626 62.298119 
L 380.85935 61.958283 
L 382.016074 61.018505 
L 383.264118 62.816586 
L 384.359962 64.192001 
L 385.516687 67.712557 
L 386.795171 72.328304 
L 387.860575 75.203046 
L 389.10862 73.126694 
L 390.326224 76.376613 
L 391.422068 73.175981 
L 392.639673 80.997497 
L 393.796397 83.935914 
L 395.196642 90.893235 
L 396.596887 84.506697 
L 397.723171 90.934362 
L 398.910335 84.994643 
L 400.18882 73.439218 
L 401.436865 69.031441 
L 402.593589 69.688867 
L 403.811193 68.668557 
L 404.937477 71.865689 
L 407.220486 75.573507 
L 408.49897 71.923382 
L 409.594814 72.280591 
L 411.908263 67.706427 
L 413.156307 69.669763 
L 414.434792 67.637203 
L 415.469756 65.50821 
L 417.904964 69.755214 
L 419.183449 68.109222 
L 420.309733 66.340546 
L 422.623182 61.262706 
L 423.901666 58.353455 
L 424.99751 55.393205 
L 424.99751 55.393205 
" clip-path="url(#p17d5c22cac)" style="fill: none; stroke: #ff7f0e; stroke-width: 2.5; stroke-linecap: square"/>
   </g>
   <g id="line2d_111">
    <path d="M 78.832572 286.521626 
L 78.771691 286.521626 
L 78.832572 286.521626 
L 78.771691 71.969997 
L 78.832572 78.09399 
L 79.410934 79.649193 
L 80.932939 93.141316 
L 83.094187 94.137044 
L 85.285875 90.305268 
L 87.203602 286.521626 
L 96.883557 286.521626 
L 98.131602 105.496638 
L 99.410086 94.502482 
L 100.658131 87.053207 
L 101.875735 89.924796 
L 103.12378 110.198813 
L 104.250064 121.348159 
L 105.467668 286.521626 
L 123.305573 286.521626 
L 124.492738 105.180243 
L 125.740782 83.978575 
L 126.897506 82.403649 
L 128.115111 89.079102 
L 129.271835 93.427436 
L 130.489439 89.141114 
L 131.646164 110.675733 
L 132.802888 286.521626 
L 141.204358 286.521626 
L 142.421963 96.915972 
L 143.609127 101.502253 
L 144.796291 286.521626 
L 147.17062 286.521626 
L 148.357784 109.445875 
L 149.544949 286.521626 
L 150.701673 286.521626 
L 151.888837 104.970952 
L 153.106442 88.83563 
L 154.324046 91.62735 
L 155.51121 89.136411 
L 156.698375 85.808727 
L 157.915979 89.318152 
L 159.072703 94.48724 
L 160.290308 116.704877 
L 161.477472 120.08168 
L 162.664636 106.359373 
L 163.851801 153.751318 
L 164.978085 286.521626 
L 167.382854 286.521626 
L 168.600458 109.19955 
L 169.757182 88.132603 
L 170.944347 79.309147 
L 172.131511 75.033194 
L 173.318675 73.177894 
L 174.475399 75.843582 
L 175.693004 80.734939 
L 176.910608 83.370571 
L 178.158653 81.869387 
L 179.284937 91.942838 
L 180.441661 83.303411 
L 181.628825 72.650664 
L 182.84643 68.699075 
L 184.064034 68.942534 
L 185.281639 67.742917 
L 186.407923 65.35796 
L 187.595087 63.74314 
L 188.751811 59.809801 
L 191.18702 57.448938 
L 192.404625 56.20515 
L 193.530909 53.418475 
L 195.905237 52.378627 
L 197.061961 51.147107 
L 198.279566 50.460769 
L 199.46673 50.957286 
L 200.623454 50.470744 
L 201.810619 48.925128 
L 202.997783 46.411641 
L 204.184947 45.00729 
L 205.372112 42.187579 
L 206.589716 39.622901 
L 207.77688 37.734928 
L 208.933605 36.873351 
L 210.120769 37.0022 
L 211.307933 36.731241 
L 212.495098 36.155532 
L 213.651822 34.218565 
L 214.869426 32.972527 
L 216.056591 31.528566 
L 218.400479 29.033378 
L 219.587643 28.591915 
L 220.744368 28.511639 
L 221.961972 28.614042 
L 226.710629 26.021584 
L 227.897794 25.116902 
L 229.084958 24.379316 
L 230.241682 24.207456 
L 231.428846 24.268706 
L 233.772735 23.503559 
L 234.990339 23.146162 
L 237.303788 22.067437 
L 238.490952 21.800153 
L 239.738997 21.249751 
L 240.834841 20.50103 
L 242.052445 20.639123 
L 243.239609 20.888134 
L 244.426774 20.846524 
L 245.583498 21.587175 
L 246.740222 21.772655 
L 247.896946 21.591942 
L 249.084111 21.878786 
L 250.362595 22.466214 
L 251.519319 22.654824 
L 252.706484 22.711659 
L 253.863208 23.49928 
L 255.080812 24.070106 
L 256.267977 25.246356 
L 257.546461 26.691469 
L 258.703186 27.103183 
L 259.89035 28.234506 
L 261.077514 29.768621 
L 263.390963 31.385966 
L 264.608567 31.607424 
L 265.826171 32.183988 
L 266.952456 31.672504 
L 268.17006 33.251822 
L 269.387664 33.54218 
L 270.483508 33.558428 
L 272.918717 35.209309 
L 274.136322 34.612842 
L 275.384366 35.065721 
L 276.54109 34.792245 
L 278.915419 35.750056 
L 280.133024 37.954292 
L 281.350628 39.060277 
L 282.476912 39.408981 
L 283.694516 40.946487 
L 284.820801 42.009278 
L 286.068845 41.823972 
L 287.195129 42.964559 
L 288.382294 41.685067 
L 289.630338 42.316199 
L 290.817502 42.291493 
L 291.943786 42.600566 
L 293.191831 41.973236 
L 294.378995 41.820025 
L 295.53572 41.405421 
L 296.692444 41.289383 
L 297.849168 40.018311 
L 299.066772 39.725359 
L 302.628265 40.000829 
L 303.78499 40.318867 
L 305.002594 40.424668 
L 306.159318 40.960844 
L 307.376923 41.029391 
L 308.533647 40.64994 
L 309.690371 39.747585 
L 310.847095 39.520651 
L 312.09514 39.606314 
L 313.221424 39.020754 
L 314.439028 39.216449 
L 317.939641 36.948799 
L 319.126805 36.437595 
L 320.37485 35.511496 
L 321.501134 36.09503 
L 322.718738 35.683695 
L 326.280231 36.781943 
L 327.436956 35.96852 
L 328.59368 35.617157 
L 329.780844 35.747352 
L 330.968008 35.62722 
L 332.094292 35.892788 
L 333.342337 36.047457 
L 334.833902 34.953593 
L 336.021067 34.534819 
L 337.329991 33.814242 
L 338.517156 34.099699 
L 339.70432 33.565818 
L 340.891484 34.385514 
L 342.109089 34.767442 
L 344.452977 36.936505 
L 346.735986 37.30408 
L 347.98403 36.772722 
L 349.171195 36.756093 
L 350.358359 37.677617 
L 351.545523 37.620862 
L 352.641367 38.09264 
L 353.889412 37.508712 
L 355.137456 39.301725 
L 356.20286 39.881844 
L 357.450905 40.113458 
L 358.607629 40.926315 
L 359.825233 39.839518 
L 361.012398 40.796366 
L 362.199562 40.374498 
L 363.417166 41.072921 
L 364.51301 41.506515 
L 365.700175 41.57821 
L 366.887339 43.386227 
L 369.413868 45.346868 
L 370.479272 46.006206 
L 371.605556 46.204549 
L 372.823161 46.854827 
L 374.040765 46.03919 
L 375.227929 47.485742 
L 376.354213 47.571963 
L 377.602258 46.538423 
L 378.698102 47.010079 
L 379.854826 48.033176 
L 381.04199 49.292853 
L 382.229155 49.71545 
L 385.760208 53.583431 
L 386.977812 53.701593 
L 388.256297 52.985912 
L 389.352141 51.94416 
L 390.508865 53.426373 
L 391.696029 55.770791 
L 392.974514 56.23043 
L 394.131238 57.240015 
L 395.501043 58.989039 
L 396.840408 59.689589 
L 398.088452 59.093448 
L 399.275617 56.355452 
L 400.371461 55.635628 
L 401.710826 54.348558 
L 402.80667 54.400205 
L 403.963394 53.769447 
L 405.089678 52.769533 
L 406.429043 53.636757 
L 407.616207 57.332503 
L 408.742491 56.639399 
L 409.838335 57.174233 
L 411.08638 57.085968 
L 412.334424 58.066822 
L 413.491148 58.639868 
L 414.678313 55.551831 
L 415.865477 53.896909 
L 416.961321 51.289791 
L 418.300686 51.183823 
L 419.42697 52.392761 
L 420.553254 50.979205 
L 421.770858 50.122679 
L 422.897143 50.226155 
L 424.206067 51.864715 
L 425.149711 56.45436 
L 425.149711 56.45436 
" clip-path="url(#p17d5c22cac)" style="fill: none; stroke: #ff0000; stroke-width: 2.5; stroke-linecap: square"/>
   </g>
   <g id="patch_3">
    <path d="M 60.598945 299.822656 
L 60.598945 7.2 
" style="fill: none; stroke: #000000; stroke-width: 1.5; stroke-linejoin: miter; stroke-linecap: square"/>
   </g>
   <g id="patch_4">
    <path d="M 60.598945 299.822656 
L 425.880273 299.822656 
" style="fill: none; stroke: #000000; stroke-width: 1.5; stroke-linejoin: miter; stroke-linecap: square"/>
   </g>
   <g id="legend_1">
    <g id="line2d_112">
     <path d="M 71.398945 22.536328 
L 83.398945 22.536328 
L 95.398945 22.536328 
" style="fill: none; stroke: #000000; stroke-width: 2.5; stroke-linecap: square"/>
    </g>
    <g id="text_19">
     <!-- vacuum -->
     <g transform="translate(104.998945 26.736328) scale(0.12 -0.12)">
      <defs>
       <path id="ArialMT-59" d="M 1344 0 
L 81 3319 
L 675 3319 
L 1388 1331 
Q 1503 1009 1600 663 
Q 1675 925 1809 1294 
L 2547 3319 
L 3125 3319 
L 1869 0 
L 1344 0 
z
" transform="scale(0.015625)"/>
       <path id="ArialMT-46" d="M 2588 1216 
L 3141 1144 
Q 3050 572 2676 248 
Q 2303 -75 1759 -75 
Q 1078 -75 664 370 
Q 250 816 250 1647 
Q 250 2184 428 2587 
Q 606 2991 970 3192 
Q 1334 3394 1763 3394 
Q 2303 3394 2647 3120 
Q 2991 2847 3088 2344 
L 2541 2259 
Q 2463 2594 2264 2762 
Q 2066 2931 1784 2931 
Q 1359 2931 1093 2626 
Q 828 2322 828 1663 
Q 828 994 1084 691 
Q 1341 388 1753 388 
Q 2084 388 2306 591 
Q 2528 794 2588 1216 
z
" transform="scale(0.015625)"/>
      </defs>
      <use xlink:href="#ArialMT-59"/>
      <use xlink:href="#ArialMT-44" transform="translate(50 0)"/>
      <use xlink:href="#ArialMT-46" transform="translate(105.609375 0)"/>
      <use xlink:href="#ArialMT-58" transform="translate(155.609375 0)"/>
      <use xlink:href="#ArialMT-58" transform="translate(211.21875 0)"/>
      <use xlink:href="#ArialMT-50" transform="translate(266.828125 0)"/>
     </g>
    </g>
    <g id="line2d_113">
     <path d="M 71.398945 39.798047 
L 83.398945 39.798047 
L 95.398945 39.798047 
" style="fill: none; stroke: #1f77b4; stroke-width: 2.5; stroke-linecap: square"/>
    </g>
    <g id="text_20">
     <!-- 1h -->
     <g transform="translate(104.998945 43.998047) scale(0.12 -0.12)">
      <defs>
       <path id="ArialMT-4b" d="M 422 0 
L 422 4581 
L 984 4581 
L 984 2938 
Q 1378 3394 1978 3394 
Q 2347 3394 2619 3248 
Q 2891 3103 3008 2847 
Q 3125 2591 3125 2103 
L 3125 0 
L 2563 0 
L 2563 2103 
Q 2563 2525 2380 2717 
Q 2197 2909 1863 2909 
Q 1613 2909 1392 2779 
Q 1172 2650 1078 2428 
Q 984 2206 984 1816 
L 984 0 
L 422 0 
z
" transform="scale(0.015625)"/>
      </defs>
      <use xlink:href="#ArialMT-14"/>
      <use xlink:href="#ArialMT-4b" transform="translate(55.609375 0)"/>
     </g>
    </g>
    <g id="line2d_114">
     <path d="M 71.398945 57.059766 
L 83.398945 57.059766 
L 95.398945 57.059766 
" style="fill: none; stroke: #0033ff; stroke-width: 2.5; stroke-linecap: square"/>
    </g>
    <g id="text_21">
     <!-- 2h -->
     <g transform="translate(104.998945 61.259766) scale(0.12 -0.12)">
      <use xlink:href="#ArialMT-15"/>
      <use xlink:href="#ArialMT-4b" transform="translate(55.609375 0)"/>
     </g>
    </g>
    <g id="line2d_115">
     <path d="M 71.398945 74.321484 
L 83.398945 74.321484 
L 95.398945 74.321484 
" style="fill: none; stroke: #ff7f0e; stroke-width: 2.5; stroke-linecap: square"/>
    </g>
    <g id="text_22">
     <!-- 4h -->
     <g transform="translate(104.998945 78.521484) scale(0.12 -0.12)">
      <use xlink:href="#ArialMT-17"/>
      <use xlink:href="#ArialMT-4b" transform="translate(55.609375 0)"/>
     </g>
    </g>
    <g id="line2d_116">
     <path d="M 71.398945 91.583203 
L 83.398945 91.583203 
L 95.398945 91.583203 
" style="fill: none; stroke: #ff0000; stroke-width: 2.5; stroke-linecap: square"/>
    </g>
    <g id="text_23">
     <!-- first -->
     <g transform="translate(104.998945 95.783203) scale(0.12 -0.12)">
      <defs>
       <path id="ArialMT-49" d="M 556 0 
L 556 2881 
L 59 2881 
L 59 3319 
L 556 3319 
L 556 3672 
Q 556 4006 616 4169 
Q 697 4388 901 4523 
Q 1106 4659 1475 4659 
Q 1713 4659 2000 4603 
L 1916 4113 
Q 1741 4144 1584 4144 
Q 1328 4144 1222 4034 
Q 1116 3925 1116 3625 
L 1116 3319 
L 1763 3319 
L 1763 2881 
L 1116 2881 
L 1116 0 
L 556 0 
z
" transform="scale(0.015625)"/>
       <path id="ArialMT-4c" d="M 425 3934 
L 425 4581 
L 988 4581 
L 988 3934 
L 425 3934 
z
M 425 0 
L 425 3319 
L 988 3319 
L 988 0 
L 425 0 
z
" transform="scale(0.015625)"/>
       <path id="ArialMT-56" d="M 197 991 
L 753 1078 
Q 800 744 1014 566 
Q 1228 388 1613 388 
Q 2000 388 2187 545 
Q 2375 703 2375 916 
Q 2375 1106 2209 1216 
Q 2094 1291 1634 1406 
Q 1016 1563 777 1677 
Q 538 1791 414 1992 
Q 291 2194 291 2438 
Q 291 2659 392 2848 
Q 494 3038 669 3163 
Q 800 3259 1026 3326 
Q 1253 3394 1513 3394 
Q 1903 3394 2198 3281 
Q 2494 3169 2634 2976 
Q 2775 2784 2828 2463 
L 2278 2388 
Q 2241 2644 2061 2787 
Q 1881 2931 1553 2931 
Q 1166 2931 1000 2803 
Q 834 2675 834 2503 
Q 834 2394 903 2306 
Q 972 2216 1119 2156 
Q 1203 2125 1616 2013 
Q 2213 1853 2448 1751 
Q 2684 1650 2818 1456 
Q 2953 1263 2953 975 
Q 2953 694 2789 445 
Q 2625 197 2315 61 
Q 2006 -75 1616 -75 
Q 969 -75 630 194 
Q 291 463 197 991 
z
" transform="scale(0.015625)"/>
      </defs>
      <use xlink:href="#ArialMT-49"/>
      <use xlink:href="#ArialMT-4c" transform="translate(27.78125 0)"/>
      <use xlink:href="#ArialMT-55" transform="translate(50 0)"/>
      <use xlink:href="#ArialMT-56" transform="translate(83.296875 0)"/>
      <use xlink:href="#ArialMT-57" transform="translate(133.296875 0)"/>
     </g>
    </g>
   </g>
  </g>
 </g>
 <defs>
  <clipPath id="p17d5c22cac">
   <rect x="60.598945" y="7.2" width="365.281328" height="292.622656"/>
  </clipPath>
 </defs>
</svg>
