<?xml version="1.0" encoding="utf-8" standalone="no"?>
<!DOCTYPE svg PUBLIC "-//W3C//DTD SVG 1.1//EN"
  "http://www.w3.org/Graphics/SVG/1.1/DTD/svg11.dtd">
<svg xmlns:xlink="http://www.w3.org/1999/xlink" width="448.650898pt" height="340.800273pt" viewBox="0 0 448.650898 340.800273" xmlns="http://www.w3.org/2000/svg" version="1.1">
 <metadata>
  <rdf:RDF xmlns:dc="http://purl.org/dc/elements/1.1/" xmlns:cc="http://creativecommons.org/ns#" xmlns:rdf="http://www.w3.org/1999/02/22-rdf-syntax-ns#">
   <cc:Work>
    <dc:type rdf:resource="http://purl.org/dc/dcmitype/StillImage"/>
    <dc:date>2026-07-09T17:08:44.957956</dc:date>
    <dc:format>image/svg+xml</dc:format>
    <dc:creator>
     <cc:Agent>
      <dc:title>Matplotlib v3.11.0, https://matplotlib.org/</dc:title>
     </cc:Agent>
    </dc:creator>
   </cc:Work>
  </rdf:RDF>
 </metadata>
 <defs>
  <style type="text/css">*{stroke-linejoin: round; stroke-linecap: butt}</style>
 </defs>
 <g id="figure_1">
  <g id="patch_1">
   <path d="M 0 340.800273 
L 448.650898 340.800273 
L 448.650898 0 
L 0 0 
z
" style="fill: #ffffff"/>
  </g>
  <g id="axes_1">
   <g id="patch_2">
    <path d="M 60.598945 299.822656 
L 425.880273 299.822656 
L 425.880273 7.2 
L 60.598945 7.2 
z
" style="fill: #ffffff"/>
   </g>
   <g id="matplotlib.axis_1">
    <g id="xtick_1">
     <g id="line2d_1">
      <defs>
       <path id="m08514b123d" d="M 0 0 
L 0 -6 
" style="stroke: #000000; stroke-width: 1.5"/>
      </defs>
      <g>
       <use xlink:href="#m08514b123d" x="60.598945" y="299.822656" style="stroke: #000000; stroke-width: 1.5"/>
      </g>
     </g>
     <g id="text_1">
      <!-- 0 -->
      <g transform="translate(56.706289 313.515039) scale(0.14 -0.14)">
       <defs>
        <path id="ArialMT-13" d="M 266 2259 
Q 266 3072 433 3567 
Q 600 4063 929 4331 
Q 1259 4600 1759 4600 
Q 2128 4600 2406 4451 
Q 2684 4303 2865 4023 
Q 3047 3744 3150 3342 
Q 3253 2941 3253 2259 
Q 3253 1453 3087 958 
Q 2922 463 2592 192 
Q 2263 -78 1759 -78 
Q 1097 -78 719 397 
Q 266 969 266 2259 
z
M 844 2259 
Q 844 1131 1108 757 
Q 1372 384 1759 384 
Q 2147 384 2411 759 
Q 2675 1134 2675 2259 
Q 2675 3391 2411 3762 
Q 2147 4134 1753 4134 
Q 1366 4134 1134 3806 
Q 844 3388 844 2259 
z
" transform="scale(0.015625)"/>
       </defs>
       <use xlink:href="#ArialMT-13"/>
      </g>
     </g>
    </g>
    <g id="xtick_2">
     <g id="line2d_2">
      <g>
       <use xlink:href="#m08514b123d" x="121.479167" y="299.822656" style="stroke: #000000; stroke-width: 1.5"/>
      </g>
     </g>
     <g id="text_2">
      <!-- 200 -->
      <g transform="translate(109.801198 313.515039) scale(0.14 -0.14)">
       <defs>
        <path id="ArialMT-15" d="M 3222 541 
L 3222 0 
L 194 0 
Q 188 203 259 391 
Q 375 700 629 1000 
Q 884 1300 1366 1694 
Q 2113 2306 2375 2664 
Q 2638 3022 2638 3341 
Q 2638 3675 2398 3904 
Q 2159 4134 1775 4134 
Q 1369 4134 1125 3890 
Q 881 3647 878 3216 
L 300 3275 
Q 359 3922 746 4261 
Q 1134 4600 1788 4600 
Q 2447 4600 2831 4234 
Q 3216 3869 3216 3328 
Q 3216 3053 3103 2787 
Q 2991 2522 2730 2228 
Q 2469 1934 1863 1422 
Q 1356 997 1212 845 
Q 1069 694 975 541 
L 3222 541 
z
" transform="scale(0.015625)"/>
       </defs>
       <use xlink:href="#ArialMT-15"/>
       <use xlink:href="#ArialMT-13" transform="translate(55.609375 0)"/>
       <use xlink:href="#ArialMT-13" transform="translate(111.21875 0)"/>
      </g>
     </g>
    </g>
    <g id="xtick_3">
     <g id="line2d_3">
      <g>
       <use xlink:href="#m08514b123d" x="182.359388" y="299.822656" style="stroke: #000000; stroke-width: 1.5"/>
      </g>
     </g>
     <g id="text_3">
      <!-- 400 -->
      <g transform="translate(170.681419 313.515039) scale(0.14 -0.14)">
       <defs>
        <path id="ArialMT-17" d="M 2069 0 
L 2069 1097 
L 81 1097 
L 81 1613 
L 2172 4581 
L 2631 4581 
L 2631 1613 
L 3250 1613 
L 3250 1097 
L 2631 1097 
L 2631 0 
L 2069 0 
z
M 2069 1613 
L 2069 3678 
L 634 1613 
L 2069 1613 
z
" transform="scale(0.015625)"/>
       </defs>
       <use xlink:href="#ArialMT-17"/>
       <use xlink:href="#ArialMT-13" transform="translate(55.609375 0)"/>
       <use xlink:href="#ArialMT-13" transform="translate(111.21875 0)"/>
      </g>
     </g>
    </g>
    <g id="xtick_4">
     <g id="line2d_4">
      <g>
       <use xlink:href="#m08514b123d" x="243.239609" y="299.822656" style="stroke: #000000; stroke-width: 1.5"/>
      </g>
     </g>
     <g id="text_4">
      <!-- 600 -->
      <g transform="translate(231.561641 313.515039) scale(0.14 -0.14)">
       <defs>
        <path id="ArialMT-19" d="M 3184 3459 
L 2625 3416 
Q 2550 3747 2413 3897 
Q 2184 4138 1850 4138 
Q 1581 4138 1378 3988 
Q 1113 3794 959 3422 
Q 806 3050 800 2363 
Q 1003 2672 1297 2822 
Q 1591 2972 1913 2972 
Q 2475 2972 2870 2558 
Q 3266 2144 3266 1488 
Q 3266 1056 3080 686 
Q 2894 316 2569 119 
Q 2244 -78 1831 -78 
Q 1128 -78 684 439 
Q 241 956 241 2144 
Q 241 3472 731 4075 
Q 1159 4600 1884 4600 
Q 2425 4600 2770 4297 
Q 3116 3994 3184 3459 
z
M 888 1484 
Q 888 1194 1011 928 
Q 1134 663 1356 523 
Q 1578 384 1822 384 
Q 2178 384 2434 671 
Q 2691 959 2691 1453 
Q 2691 1928 2437 2201 
Q 2184 2475 1800 2475 
Q 1419 2475 1153 2201 
Q 888 1928 888 1484 
z
" transform="scale(0.015625)"/>
       </defs>
       <use xlink:href="#ArialMT-19"/>
       <use xlink:href="#ArialMT-13" transform="translate(55.609375 0)"/>
       <use xlink:href="#ArialMT-13" transform="translate(111.21875 0)"/>
      </g>
     </g>
    </g>
    <g id="xtick_5">
     <g id="line2d_5">
      <g>
       <use xlink:href="#m08514b123d" x="304.119831" y="299.822656" style="stroke: #000000; stroke-width: 1.5"/>
      </g>
     </g>
     <g id="text_5">
      <!-- 800 -->
      <g transform="translate(292.441862 313.515039) scale(0.14 -0.14)">
       <defs>
        <path id="ArialMT-1b" d="M 1131 2484 
Q 781 2613 612 2850 
Q 444 3088 444 3419 
Q 444 3919 803 4259 
Q 1163 4600 1759 4600 
Q 2359 4600 2725 4251 
Q 3091 3903 3091 3403 
Q 3091 3084 2923 2848 
Q 2756 2613 2416 2484 
Q 2838 2347 3058 2040 
Q 3278 1734 3278 1309 
Q 3278 722 2862 322 
Q 2447 -78 1769 -78 
Q 1091 -78 675 323 
Q 259 725 259 1325 
Q 259 1772 486 2073 
Q 713 2375 1131 2484 
z
M 1019 3438 
Q 1019 3113 1228 2906 
Q 1438 2700 1772 2700 
Q 2097 2700 2305 2904 
Q 2513 3109 2513 3406 
Q 2513 3716 2298 3927 
Q 2084 4138 1766 4138 
Q 1444 4138 1231 3931 
Q 1019 3725 1019 3438 
z
M 838 1322 
Q 838 1081 952 856 
Q 1066 631 1291 507 
Q 1516 384 1775 384 
Q 2178 384 2440 643 
Q 2703 903 2703 1303 
Q 2703 1709 2433 1975 
Q 2163 2241 1756 2241 
Q 1359 2241 1098 1978 
Q 838 1716 838 1322 
z
" transform="scale(0.015625)"/>
       </defs>
       <use xlink:href="#ArialMT-1b"/>
       <use xlink:href="#ArialMT-13" transform="translate(55.609375 0)"/>
       <use xlink:href="#ArialMT-13" transform="translate(111.21875 0)"/>
      </g>
     </g>
    </g>
    <g id="xtick_6">
     <g id="line2d_6">
      <g>
       <use xlink:href="#m08514b123d" x="365.000052" y="299.822656" style="stroke: #000000; stroke-width: 1.5"/>
      </g>
     </g>
     <g id="text_6">
      <!-- 1000 -->
      <g transform="translate(349.429427 313.515039) scale(0.14 -0.14)">
       <defs>
        <path id="ArialMT-14" d="M 2384 0 
L 1822 0 
L 1822 3584 
Q 1619 3391 1289 3197 
Q 959 3003 697 2906 
L 697 3450 
Q 1169 3672 1522 3987 
Q 1875 4303 2022 4600 
L 2384 4600 
L 2384 0 
z
" transform="scale(0.015625)"/>
       </defs>
       <use xlink:href="#ArialMT-14"/>
       <use xlink:href="#ArialMT-13" transform="translate(55.609375 0)"/>
       <use xlink:href="#ArialMT-13" transform="translate(111.21875 0)"/>
       <use xlink:href="#ArialMT-13" transform="translate(166.828125 0)"/>
      </g>
     </g>
    </g>
    <g id="xtick_7">
     <g id="line2d_7">
      <g>
       <use xlink:href="#m08514b123d" x="425.880273" y="299.822656" style="stroke: #000000; stroke-width: 1.5"/>
      </g>
     </g>
     <g id="text_7">
      <!-- 1200 -->
      <g transform="translate(410.309648 313.515039) scale(0.14 -0.14)">
       <use xlink:href="#ArialMT-14"/>
       <use xlink:href="#ArialMT-15" transform="translate(55.609375 0)"/>
       <use xlink:href="#ArialMT-13" transform="translate(111.21875 0)"/>
       <use xlink:href="#ArialMT-13" transform="translate(166.828125 0)"/>
      </g>
     </g>
    </g>
    <g id="xtick_8">
     <g id="line2d_8">
      <defs>
       <path id="md9fa8df550" d="M 0 0 
L 0 -3 
" style="stroke: #000000"/>
      </defs>
      <g>
       <use xlink:href="#md9fa8df550" x="75.819001" y="299.822656" style="stroke: #000000"/>
      </g>
     </g>
    </g>
    <g id="xtick_9">
     <g id="line2d_9">
      <g>
       <use xlink:href="#md9fa8df550" x="91.039056" y="299.822656" style="stroke: #000000"/>
      </g>
     </g>
    </g>
    <g id="xtick_10">
     <g id="line2d_10">
      <g>
       <use xlink:href="#md9fa8df550" x="106.259111" y="299.822656" style="stroke: #000000"/>
      </g>
     </g>
    </g>
    <g id="xtick_11">
     <g id="line2d_11">
      <g>
       <use xlink:href="#md9fa8df550" x="136.699222" y="299.822656" style="stroke: #000000"/>
      </g>
     </g>
    </g>
    <g id="xtick_12">
     <g id="line2d_12">
      <g>
       <use xlink:href="#md9fa8df550" x="151.919277" y="299.822656" style="stroke: #000000"/>
      </g>
     </g>
    </g>
    <g id="xtick_13">
     <g id="line2d_13">
      <g>
       <use xlink:href="#md9fa8df550" x="167.139333" y="299.822656" style="stroke: #000000"/>
      </g>
     </g>
    </g>
    <g id="xtick_14">
     <g id="line2d_14">
      <g>
       <use xlink:href="#md9fa8df550" x="197.579443" y="299.822656" style="stroke: #000000"/>
      </g>
     </g>
    </g>
    <g id="xtick_15">
     <g id="line2d_15">
      <g>
       <use xlink:href="#md9fa8df550" x="212.799499" y="299.822656" style="stroke: #000000"/>
      </g>
     </g>
    </g>
    <g id="xtick_16">
     <g id="line2d_16">
      <g>
       <use xlink:href="#md9fa8df550" x="228.019554" y="299.822656" style="stroke: #000000"/>
      </g>
     </g>
    </g>
    <g id="xtick_17">
     <g id="line2d_17">
      <g>
       <use xlink:href="#md9fa8df550" x="258.459665" y="299.822656" style="stroke: #000000"/>
      </g>
     </g>
    </g>
    <g id="xtick_18">
     <g id="line2d_18">
      <g>
       <use xlink:href="#md9fa8df550" x="273.67972" y="299.822656" style="stroke: #000000"/>
      </g>
     </g>
    </g>
    <g id="xtick_19">
     <g id="line2d_19">
      <g>
       <use xlink:href="#md9fa8df550" x="288.899775" y="299.822656" style="stroke: #000000"/>
      </g>
     </g>
    </g>
    <g id="xtick_20">
     <g id="line2d_20">
      <g>
       <use xlink:href="#md9fa8df550" x="319.339886" y="299.822656" style="stroke: #000000"/>
      </g>
     </g>
    </g>
    <g id="xtick_21">
     <g id="line2d_21">
      <g>
       <use xlink:href="#md9fa8df550" x="334.559941" y="299.822656" style="stroke: #000000"/>
      </g>
     </g>
    </g>
    <g id="xtick_22">
     <g id="line2d_22">
      <g>
       <use xlink:href="#md9fa8df550" x="349.779997" y="299.822656" style="stroke: #000000"/>
      </g>
     </g>
    </g>
    <g id="xtick_23">
     <g id="line2d_23">
      <g>
       <use xlink:href="#md9fa8df550" x="380.220107" y="299.822656" style="stroke: #000000"/>
      </g>
     </g>
    </g>
    <g id="xtick_24">
     <g id="line2d_24">
      <g>
       <use xlink:href="#md9fa8df550" x="395.440163" y="299.822656" style="stroke: #000000"/>
      </g>
     </g>
    </g>
    <g id="xtick_25">
     <g id="line2d_25">
      <g>
       <use xlink:href="#md9fa8df550" x="410.660218" y="299.822656" style="stroke: #000000"/>
      </g>
     </g>
    </g>
    <g id="text_8">
     <!-- T1 Temperature (°C) -->
     <g transform="translate(179.500234 330.653711) scale(0.14 -0.14)">
      <defs>
       <path id="ArialMT-37" d="M 1659 0 
L 1659 4041 
L 150 4041 
L 150 4581 
L 3781 4581 
L 3781 4041 
L 2266 4041 
L 2266 0 
L 1659 0 
z
" transform="scale(0.015625)"/>
       <path id="ArialMT-3" transform="scale(0.015625)"/>
       <path id="ArialMT-48" d="M 2694 1069 
L 3275 997 
Q 3138 488 2766 206 
Q 2394 -75 1816 -75 
Q 1088 -75 661 373 
Q 234 822 234 1631 
Q 234 2469 665 2931 
Q 1097 3394 1784 3394 
Q 2450 3394 2872 2941 
Q 3294 2488 3294 1666 
Q 3294 1616 3291 1516 
L 816 1516 
Q 847 969 1125 678 
Q 1403 388 1819 388 
Q 2128 388 2347 550 
Q 2566 713 2694 1069 
z
M 847 1978 
L 2700 1978 
Q 2663 2397 2488 2606 
Q 2219 2931 1791 2931 
Q 1403 2931 1139 2672 
Q 875 2413 847 1978 
z
" transform="scale(0.015625)"/>
       <path id="ArialMT-50" d="M 422 0 
L 422 3319 
L 925 3319 
L 925 2853 
Q 1081 3097 1340 3245 
Q 1600 3394 1931 3394 
Q 2300 3394 2536 3241 
Q 2772 3088 2869 2813 
Q 3263 3394 3894 3394 
Q 4388 3394 4653 3120 
Q 4919 2847 4919 2278 
L 4919 0 
L 4359 0 
L 4359 2091 
Q 4359 2428 4304 2576 
Q 4250 2725 4106 2815 
Q 3963 2906 3769 2906 
Q 3419 2906 3187 2673 
Q 2956 2441 2956 1928 
L 2956 0 
L 2394 0 
L 2394 2156 
Q 2394 2531 2256 2718 
Q 2119 2906 1806 2906 
Q 1569 2906 1367 2781 
Q 1166 2656 1075 2415 
Q 984 2175 984 1722 
L 984 0 
L 422 0 
z
" transform="scale(0.015625)"/>
       <path id="ArialMT-53" d="M 422 -1272 
L 422 3319 
L 934 3319 
L 934 2888 
Q 1116 3141 1344 3267 
Q 1572 3394 1897 3394 
Q 2322 3394 2647 3175 
Q 2972 2956 3137 2557 
Q 3303 2159 3303 1684 
Q 3303 1175 3120 767 
Q 2938 359 2589 142 
Q 2241 -75 1856 -75 
Q 1575 -75 1351 44 
Q 1128 163 984 344 
L 984 -1272 
L 422 -1272 
z
M 931 1641 
Q 931 1000 1190 694 
Q 1450 388 1819 388 
Q 2194 388 2461 705 
Q 2728 1022 2728 1688 
Q 2728 2322 2467 2637 
Q 2206 2953 1844 2953 
Q 1484 2953 1207 2617 
Q 931 2281 931 1641 
z
" transform="scale(0.015625)"/>
       <path id="ArialMT-55" d="M 416 0 
L 416 3319 
L 922 3319 
L 922 2816 
Q 1116 3169 1280 3281 
Q 1444 3394 1641 3394 
Q 1925 3394 2219 3213 
L 2025 2691 
Q 1819 2813 1613 2813 
Q 1428 2813 1281 2702 
Q 1134 2591 1072 2394 
Q 978 2094 978 1738 
L 978 0 
L 416 0 
z
" transform="scale(0.015625)"/>
       <path id="ArialMT-44" d="M 2588 409 
Q 2275 144 1986 34 
Q 1697 -75 1366 -75 
Q 819 -75 525 192 
Q 231 459 231 875 
Q 231 1119 342 1320 
Q 453 1522 633 1644 
Q 813 1766 1038 1828 
Q 1203 1872 1538 1913 
Q 2219 1994 2541 2106 
Q 2544 2222 2544 2253 
Q 2544 2597 2384 2738 
Q 2169 2928 1744 2928 
Q 1347 2928 1158 2789 
Q 969 2650 878 2297 
L 328 2372 
Q 403 2725 575 2942 
Q 747 3159 1072 3276 
Q 1397 3394 1825 3394 
Q 2250 3394 2515 3294 
Q 2781 3194 2906 3042 
Q 3031 2891 3081 2659 
Q 3109 2516 3109 2141 
L 3109 1391 
Q 3109 606 3145 398 
Q 3181 191 3288 0 
L 2700 0 
Q 2613 175 2588 409 
z
M 2541 1666 
Q 2234 1541 1622 1453 
Q 1275 1403 1131 1340 
Q 988 1278 909 1158 
Q 831 1038 831 891 
Q 831 666 1001 516 
Q 1172 366 1500 366 
Q 1825 366 2078 508 
Q 2331 650 2450 897 
Q 2541 1088 2541 1459 
L 2541 1666 
z
" transform="scale(0.015625)"/>
       <path id="ArialMT-57" d="M 1650 503 
L 1731 6 
Q 1494 -44 1306 -44 
Q 1000 -44 831 53 
Q 663 150 594 308 
Q 525 466 525 972 
L 525 2881 
L 113 2881 
L 113 3319 
L 525 3319 
L 525 4141 
L 1084 4478 
L 1084 3319 
L 1650 3319 
L 1650 2881 
L 1084 2881 
L 1084 941 
Q 1084 700 1114 631 
Q 1144 563 1211 522 
Q 1278 481 1403 481 
Q 1497 481 1650 503 
z
" transform="scale(0.015625)"/>
       <path id="ArialMT-58" d="M 2597 0 
L 2597 488 
Q 2209 -75 1544 -75 
Q 1250 -75 995 37 
Q 741 150 617 320 
Q 494 491 444 738 
Q 409 903 409 1263 
L 409 3319 
L 972 3319 
L 972 1478 
Q 972 1038 1006 884 
Q 1059 663 1231 536 
Q 1403 409 1656 409 
Q 1909 409 2131 539 
Q 2353 669 2445 892 
Q 2538 1116 2538 1541 
L 2538 3319 
L 3100 3319 
L 3100 0 
L 2597 0 
z
" transform="scale(0.015625)"/>
       <path id="ArialMT-b" d="M 1497 -1347 
Q 1031 -759 709 28 
Q 388 816 388 1659 
Q 388 2403 628 3084 
Q 909 3875 1497 4659 
L 1900 4659 
Q 1522 4009 1400 3731 
Q 1209 3300 1100 2831 
Q 966 2247 966 1656 
Q 966 153 1900 -1347 
L 1497 -1347 
z
" transform="scale(0.015625)"/>
       <path id="ArialMT-83" d="M 400 3794 
Q 400 4153 654 4406 
Q 909 4659 1266 4659 
Q 1628 4659 1881 4406 
Q 2134 4153 2134 3794 
Q 2134 3434 1879 3179 
Q 1625 2925 1266 2925 
Q 909 2925 654 3178 
Q 400 3431 400 3794 
z
M 741 3794 
Q 741 3575 895 3420 
Q 1050 3266 1269 3266 
Q 1484 3266 1639 3420 
Q 1794 3575 1794 3794 
Q 1794 4013 1639 4167 
Q 1484 4322 1269 4322 
Q 1050 4322 895 4167 
Q 741 4013 741 3794 
z
" transform="scale(0.015625)"/>
       <path id="ArialMT-26" d="M 3763 1606 
L 4369 1453 
Q 4178 706 3683 314 
Q 3188 -78 2472 -78 
Q 1731 -78 1267 223 
Q 803 525 561 1097 
Q 319 1669 319 2325 
Q 319 3041 592 3573 
Q 866 4106 1370 4382 
Q 1875 4659 2481 4659 
Q 3169 4659 3637 4309 
Q 4106 3959 4291 3325 
L 3694 3184 
Q 3534 3684 3231 3912 
Q 2928 4141 2469 4141 
Q 1941 4141 1586 3887 
Q 1231 3634 1087 3207 
Q 944 2781 944 2328 
Q 944 1744 1114 1308 
Q 1284 872 1643 656 
Q 2003 441 2422 441 
Q 2931 441 3284 734 
Q 3638 1028 3763 1606 
z
" transform="scale(0.015625)"/>
       <path id="ArialMT-c" d="M 791 -1347 
L 388 -1347 
Q 1322 153 1322 1656 
Q 1322 2244 1188 2822 
Q 1081 3291 891 3722 
Q 769 4003 388 4659 
L 791 4659 
Q 1378 3875 1659 3084 
Q 1900 2403 1900 1659 
Q 1900 816 1576 28 
Q 1253 -759 791 -1347 
z
" transform="scale(0.015625)"/>
      </defs>
      <use xlink:href="#ArialMT-37"/>
      <use xlink:href="#ArialMT-14" transform="translate(61.078125 0)"/>
      <use xlink:href="#ArialMT-3" transform="translate(116.6875 0)"/>
      <use xlink:href="#ArialMT-37" transform="translate(142.65625 0)"/>
      <use xlink:href="#ArialMT-48" transform="translate(192.65625 0)"/>
      <use xlink:href="#ArialMT-50" transform="translate(248.265625 0)"/>
      <use xlink:href="#ArialMT-53" transform="translate(331.5625 0)"/>
      <use xlink:href="#ArialMT-48" transform="translate(387.171875 0)"/>
      <use xlink:href="#ArialMT-55" transform="translate(442.78125 0)"/>
      <use xlink:href="#ArialMT-44" transform="translate(476.078125 0)"/>
      <use xlink:href="#ArialMT-57" transform="translate(531.6875 0)"/>
      <use xlink:href="#ArialMT-58" transform="translate(559.46875 0)"/>
      <use xlink:href="#ArialMT-55" transform="translate(615.078125 0)"/>
      <use xlink:href="#ArialMT-48" transform="translate(648.375 0)"/>
      <use xlink:href="#ArialMT-3" transform="translate(703.984375 0)"/>
      <use xlink:href="#ArialMT-b" transform="translate(731.765625 0)"/>
      <use xlink:href="#ArialMT-83" transform="translate(765.0625 0)"/>
      <use xlink:href="#ArialMT-26" transform="translate(805.046875 0)"/>
      <use xlink:href="#ArialMT-c" transform="translate(877.265625 0)"/>
     </g>
    </g>
   </g>
   <g id="matplotlib.axis_2">
    <g id="ytick_1">
     <g id="line2d_26">
      <defs>
       <path id="m2f57d5a251" d="M 0 0 
L 6 0 
" style="stroke: #000000; stroke-width: 1.5"/>
      </defs>
      <g>
       <use xlink:href="#m2f57d5a251" x="60.598945" y="286.521626" style="stroke: #000000; stroke-width: 1.5"/>
      </g>
     </g>
     <g id="text_9">
      <!-- $\mathdefault{10^{-20}}$ -->
      <g transform="translate(24.338945 292.961626) scale(0.14 -0.14)">
       <defs>
        <path id="ArialMT-ed" d="M 3381 1997 
L 356 1997 
L 356 2522 
L 3381 2522 
L 3381 1997 
z
" transform="scale(0.015625)"/>
       </defs>
       <use xlink:href="#ArialMT-14" transform="translate(0 0.3875)"/>
       <use xlink:href="#ArialMT-13" transform="translate(55.615234 0.3875)"/>
       <use xlink:href="#ArialMT-ed" transform="translate(112.1875 41.6875) scale(0.7)"/>
       <use xlink:href="#ArialMT-15" transform="translate(153.066406 41.6875) scale(0.7)"/>
       <use xlink:href="#ArialMT-13" transform="translate(191.99707 41.6875) scale(0.7)"/>
      </g>
     </g>
    </g>
    <g id="ytick_2">
     <g id="line2d_27">
      <g>
       <use xlink:href="#m2f57d5a251" x="60.598945" y="247.756572" style="stroke: #000000; stroke-width: 1.5"/>
      </g>
     </g>
     <g id="text_10">
      <!-- $\mathdefault{10^{-19}}$ -->
      <g transform="translate(24.338945 254.196572) scale(0.14 -0.14)">
       <defs>
        <path id="ArialMT-1c" d="M 350 1059 
L 891 1109 
Q 959 728 1153 556 
Q 1347 384 1650 384 
Q 1909 384 2104 503 
Q 2300 622 2425 820 
Q 2550 1019 2634 1356 
Q 2719 1694 2719 2044 
Q 2719 2081 2716 2156 
Q 2547 1888 2255 1720 
Q 1963 1553 1622 1553 
Q 1053 1553 659 1965 
Q 266 2378 266 3053 
Q 266 3750 677 4175 
Q 1088 4600 1706 4600 
Q 2153 4600 2523 4359 
Q 2894 4119 3086 3673 
Q 3278 3228 3278 2384 
Q 3278 1506 3087 986 
Q 2897 466 2520 194 
Q 2144 -78 1638 -78 
Q 1100 -78 759 220 
Q 419 519 350 1059 
z
M 2653 3081 
Q 2653 3566 2395 3850 
Q 2138 4134 1775 4134 
Q 1400 4134 1122 3828 
Q 844 3522 844 3034 
Q 844 2597 1108 2323 
Q 1372 2050 1759 2050 
Q 2150 2050 2401 2323 
Q 2653 2597 2653 3081 
z
" transform="scale(0.015625)"/>
       </defs>
       <use xlink:href="#ArialMT-14" transform="translate(0 0.3875)"/>
       <use xlink:href="#ArialMT-13" transform="translate(55.615234 0.3875)"/>
       <use xlink:href="#ArialMT-ed" transform="translate(112.1875 41.6875) scale(0.7)"/>
       <use xlink:href="#ArialMT-14" transform="translate(153.066406 41.6875) scale(0.7)"/>
       <use xlink:href="#ArialMT-1c" transform="translate(191.99707 41.6875) scale(0.7)"/>
      </g>
     </g>
    </g>
    <g id="ytick_3">
     <g id="line2d_28">
      <g>
       <use xlink:href="#m2f57d5a251" x="60.598945" y="208.991518" style="stroke: #000000; stroke-width: 1.5"/>
      </g>
     </g>
     <g id="text_11">
      <!-- $\mathdefault{10^{-18}}$ -->
      <g transform="translate(24.338945 215.431518) scale(0.14 -0.14)">
       <use xlink:href="#ArialMT-14" transform="translate(0 0.3875)"/>
       <use xlink:href="#ArialMT-13" transform="translate(55.615234 0.3875)"/>
       <use xlink:href="#ArialMT-ed" transform="translate(112.1875 41.6875) scale(0.7)"/>
       <use xlink:href="#ArialMT-14" transform="translate(153.066406 41.6875) scale(0.7)"/>
       <use xlink:href="#ArialMT-1b" transform="translate(191.99707 41.6875) scale(0.7)"/>
      </g>
     </g>
    </g>
    <g id="ytick_4">
     <g id="line2d_29">
      <g>
       <use xlink:href="#m2f57d5a251" x="60.598945" y="170.226464" style="stroke: #000000; stroke-width: 1.5"/>
      </g>
     </g>
     <g id="text_12">
      <!-- $\mathdefault{10^{-17}}$ -->
      <g transform="translate(24.338945 176.666464) scale(0.14 -0.14)">
       <defs>
        <path id="ArialMT-1a" d="M 303 3981 
L 303 4522 
L 3269 4522 
L 3269 4084 
Q 2831 3619 2401 2847 
Q 1972 2075 1738 1259 
Q 1569 684 1522 0 
L 944 0 
Q 953 541 1156 1306 
Q 1359 2072 1739 2783 
Q 2119 3494 2547 3981 
L 303 3981 
z
" transform="scale(0.015625)"/>
       </defs>
       <use xlink:href="#ArialMT-14" transform="translate(0 0.3875)"/>
       <use xlink:href="#ArialMT-13" transform="translate(55.615234 0.3875)"/>
       <use xlink:href="#ArialMT-ed" transform="translate(112.1875 41.6875) scale(0.7)"/>
       <use xlink:href="#ArialMT-14" transform="translate(153.066406 41.6875) scale(0.7)"/>
       <use xlink:href="#ArialMT-1a" transform="translate(191.99707 41.6875) scale(0.7)"/>
      </g>
     </g>
    </g>
    <g id="ytick_5">
     <g id="line2d_30">
      <g>
       <use xlink:href="#m2f57d5a251" x="60.598945" y="131.46141" style="stroke: #000000; stroke-width: 1.5"/>
      </g>
     </g>
     <g id="text_13">
      <!-- $\mathdefault{10^{-16}}$ -->
      <g transform="translate(24.338945 137.90141) scale(0.14 -0.14)">
       <use xlink:href="#ArialMT-14" transform="translate(0 0.3875)"/>
       <use xlink:href="#ArialMT-13" transform="translate(55.615234 0.3875)"/>
       <use xlink:href="#ArialMT-ed" transform="translate(112.1875 41.6875) scale(0.7)"/>
       <use xlink:href="#ArialMT-14" transform="translate(153.066406 41.6875) scale(0.7)"/>
       <use xlink:href="#ArialMT-19" transform="translate(191.99707 41.6875) scale(0.7)"/>
      </g>
     </g>
    </g>
    <g id="ytick_6">
     <g id="line2d_31">
      <g>
       <use xlink:href="#m2f57d5a251" x="60.598945" y="92.696356" style="stroke: #000000; stroke-width: 1.5"/>
      </g>
     </g>
     <g id="text_14">
      <!-- $\mathdefault{10^{-15}}$ -->
      <g transform="translate(24.338945 99.136356) scale(0.14 -0.14)">
       <defs>
        <path id="ArialMT-18" d="M 266 1200 
L 856 1250 
Q 922 819 1161 601 
Q 1400 384 1738 384 
Q 2144 384 2425 690 
Q 2706 997 2706 1503 
Q 2706 1984 2436 2262 
Q 2166 2541 1728 2541 
Q 1456 2541 1237 2417 
Q 1019 2294 894 2097 
L 366 2166 
L 809 4519 
L 3088 4519 
L 3088 3981 
L 1259 3981 
L 1013 2750 
Q 1425 3038 1878 3038 
Q 2478 3038 2890 2622 
Q 3303 2206 3303 1553 
Q 3303 931 2941 478 
Q 2500 -78 1738 -78 
Q 1113 -78 717 272 
Q 322 622 266 1200 
z
" transform="scale(0.015625)"/>
       </defs>
       <use xlink:href="#ArialMT-14" transform="translate(0 0.3875)"/>
       <use xlink:href="#ArialMT-13" transform="translate(55.615234 0.3875)"/>
       <use xlink:href="#ArialMT-ed" transform="translate(112.1875 41.6875) scale(0.7)"/>
       <use xlink:href="#ArialMT-14" transform="translate(153.066406 41.6875) scale(0.7)"/>
       <use xlink:href="#ArialMT-18" transform="translate(191.99707 41.6875) scale(0.7)"/>
      </g>
     </g>
    </g>
    <g id="ytick_7">
     <g id="line2d_32">
      <g>
       <use xlink:href="#m2f57d5a251" x="60.598945" y="53.931302" style="stroke: #000000; stroke-width: 1.5"/>
      </g>
     </g>
     <g id="text_15">
      <!-- $\mathdefault{10^{-14}}$ -->
      <g transform="translate(24.338945 60.371302) scale(0.14 -0.14)">
       <use xlink:href="#ArialMT-14" transform="translate(0 0.3875)"/>
       <use xlink:href="#ArialMT-13" transform="translate(55.615234 0.3875)"/>
       <use xlink:href="#ArialMT-ed" transform="translate(112.1875 41.6875) scale(0.7)"/>
       <use xlink:href="#ArialMT-14" transform="translate(153.066406 41.6875) scale(0.7)"/>
       <use xlink:href="#ArialMT-17" transform="translate(191.99707 41.6875) scale(0.7)"/>
      </g>
     </g>
    </g>
    <g id="ytick_8">
     <g id="line2d_33">
      <g>
       <use xlink:href="#m2f57d5a251" x="60.598945" y="15.166248" style="stroke: #000000; stroke-width: 1.5"/>
      </g>
     </g>
     <g id="text_16">
      <!-- $\mathdefault{10^{-13}}$ -->
      <g transform="translate(24.338945 21.606248) scale(0.14 -0.14)">
       <defs>
        <path id="ArialMT-16" d="M 269 1209 
L 831 1284 
Q 928 806 1161 595 
Q 1394 384 1728 384 
Q 2125 384 2398 659 
Q 2672 934 2672 1341 
Q 2672 1728 2419 1979 
Q 2166 2231 1775 2231 
Q 1616 2231 1378 2169 
L 1441 2663 
Q 1497 2656 1531 2656 
Q 1891 2656 2178 2843 
Q 2466 3031 2466 3422 
Q 2466 3731 2256 3934 
Q 2047 4138 1716 4138 
Q 1388 4138 1169 3931 
Q 950 3725 888 3313 
L 325 3413 
Q 428 3978 793 4289 
Q 1159 4600 1703 4600 
Q 2078 4600 2393 4439 
Q 2709 4278 2876 4000 
Q 3044 3722 3044 3409 
Q 3044 3113 2884 2869 
Q 2725 2625 2413 2481 
Q 2819 2388 3044 2092 
Q 3269 1797 3269 1353 
Q 3269 753 2831 336 
Q 2394 -81 1725 -81 
Q 1122 -81 723 278 
Q 325 638 269 1209 
z
" transform="scale(0.015625)"/>
       </defs>
       <use xlink:href="#ArialMT-14" transform="translate(0 0.3875)"/>
       <use xlink:href="#ArialMT-13" transform="translate(55.615234 0.3875)"/>
       <use xlink:href="#ArialMT-ed" transform="translate(112.1875 41.6875) scale(0.7)"/>
       <use xlink:href="#ArialMT-14" transform="translate(153.066406 41.6875) scale(0.7)"/>
       <use xlink:href="#ArialMT-16" transform="translate(191.99707 41.6875) scale(0.7)"/>
      </g>
     </g>
    </g>
    <g id="ytick_9">
     <g id="line2d_34">
      <defs>
       <path id="mc043fa09bb" d="M 0 0 
L 3 0 
" style="stroke: #000000"/>
      </defs>
      <g>
       <use xlink:href="#mc043fa09bb" x="60.598945" y="298.19107" style="stroke: #000000"/>
      </g>
     </g>
    </g>
    <g id="ytick_10">
     <g id="line2d_35">
      <g>
       <use xlink:href="#mc043fa09bb" x="60.598945" y="295.121605" style="stroke: #000000"/>
      </g>
     </g>
    </g>
    <g id="ytick_11">
     <g id="line2d_36">
      <g>
       <use xlink:href="#mc043fa09bb" x="60.598945" y="292.526409" style="stroke: #000000"/>
      </g>
     </g>
    </g>
    <g id="ytick_12">
     <g id="line2d_37">
      <g>
       <use xlink:href="#mc043fa09bb" x="60.598945" y="290.278348" style="stroke: #000000"/>
      </g>
     </g>
    </g>
    <g id="ytick_13">
     <g id="line2d_38">
      <g>
       <use xlink:href="#mc043fa09bb" x="60.598945" y="288.295418" style="stroke: #000000"/>
      </g>
     </g>
    </g>
    <g id="ytick_14">
     <g id="line2d_39">
      <g>
       <use xlink:href="#mc043fa09bb" x="60.598945" y="274.852182" style="stroke: #000000"/>
      </g>
     </g>
    </g>
    <g id="ytick_15">
     <g id="line2d_40">
      <g>
       <use xlink:href="#mc043fa09bb" x="60.598945" y="268.025995" style="stroke: #000000"/>
      </g>
     </g>
    </g>
    <g id="ytick_16">
     <g id="line2d_41">
      <g>
       <use xlink:href="#mc043fa09bb" x="60.598945" y="263.182738" style="stroke: #000000"/>
      </g>
     </g>
    </g>
    <g id="ytick_17">
     <g id="line2d_42">
      <g>
       <use xlink:href="#mc043fa09bb" x="60.598945" y="259.426016" style="stroke: #000000"/>
      </g>
     </g>
    </g>
    <g id="ytick_18">
     <g id="line2d_43">
      <g>
       <use xlink:href="#mc043fa09bb" x="60.598945" y="256.356551" style="stroke: #000000"/>
      </g>
     </g>
    </g>
    <g id="ytick_19">
     <g id="line2d_44">
      <g>
       <use xlink:href="#mc043fa09bb" x="60.598945" y="253.761355" style="stroke: #000000"/>
      </g>
     </g>
    </g>
    <g id="ytick_20">
     <g id="line2d_45">
      <g>
       <use xlink:href="#mc043fa09bb" x="60.598945" y="251.513294" style="stroke: #000000"/>
      </g>
     </g>
    </g>
    <g id="ytick_21">
     <g id="line2d_46">
      <g>
       <use xlink:href="#mc043fa09bb" x="60.598945" y="249.530364" style="stroke: #000000"/>
      </g>
     </g>
    </g>
    <g id="ytick_22">
     <g id="line2d_47">
      <g>
       <use xlink:href="#mc043fa09bb" x="60.598945" y="236.087128" style="stroke: #000000"/>
      </g>
     </g>
    </g>
    <g id="ytick_23">
     <g id="line2d_48">
      <g>
       <use xlink:href="#mc043fa09bb" x="60.598945" y="229.260941" style="stroke: #000000"/>
      </g>
     </g>
    </g>
    <g id="ytick_24">
     <g id="line2d_49">
      <g>
       <use xlink:href="#mc043fa09bb" x="60.598945" y="224.417684" style="stroke: #000000"/>
      </g>
     </g>
    </g>
    <g id="ytick_25">
     <g id="line2d_50">
      <g>
       <use xlink:href="#mc043fa09bb" x="60.598945" y="220.660962" style="stroke: #000000"/>
      </g>
     </g>
    </g>
    <g id="ytick_26">
     <g id="line2d_51">
      <g>
       <use xlink:href="#mc043fa09bb" x="60.598945" y="217.591497" style="stroke: #000000"/>
      </g>
     </g>
    </g>
    <g id="ytick_27">
     <g id="line2d_52">
      <g>
       <use xlink:href="#mc043fa09bb" x="60.598945" y="214.996301" style="stroke: #000000"/>
      </g>
     </g>
    </g>
    <g id="ytick_28">
     <g id="line2d_53">
      <g>
       <use xlink:href="#mc043fa09bb" x="60.598945" y="212.74824" style="stroke: #000000"/>
      </g>
     </g>
    </g>
    <g id="ytick_29">
     <g id="line2d_54">
      <g>
       <use xlink:href="#mc043fa09bb" x="60.598945" y="210.76531" style="stroke: #000000"/>
      </g>
     </g>
    </g>
    <g id="ytick_30">
     <g id="line2d_55">
      <g>
       <use xlink:href="#mc043fa09bb" x="60.598945" y="197.322074" style="stroke: #000000"/>
      </g>
     </g>
    </g>
    <g id="ytick_31">
     <g id="line2d_56">
      <g>
       <use xlink:href="#mc043fa09bb" x="60.598945" y="190.495887" style="stroke: #000000"/>
      </g>
     </g>
    </g>
    <g id="ytick_32">
     <g id="line2d_57">
      <g>
       <use xlink:href="#mc043fa09bb" x="60.598945" y="185.65263" style="stroke: #000000"/>
      </g>
     </g>
    </g>
    <g id="ytick_33">
     <g id="line2d_58">
      <g>
       <use xlink:href="#mc043fa09bb" x="60.598945" y="181.895908" style="stroke: #000000"/>
      </g>
     </g>
    </g>
    <g id="ytick_34">
     <g id="line2d_59">
      <g>
       <use xlink:href="#mc043fa09bb" x="60.598945" y="178.826443" style="stroke: #000000"/>
      </g>
     </g>
    </g>
    <g id="ytick_35">
     <g id="line2d_60">
      <g>
       <use xlink:href="#mc043fa09bb" x="60.598945" y="176.231247" style="stroke: #000000"/>
      </g>
     </g>
    </g>
    <g id="ytick_36">
     <g id="line2d_61">
      <g>
       <use xlink:href="#mc043fa09bb" x="60.598945" y="173.983186" style="stroke: #000000"/>
      </g>
     </g>
    </g>
    <g id="ytick_37">
     <g id="line2d_62">
      <g>
       <use xlink:href="#mc043fa09bb" x="60.598945" y="172.000256" style="stroke: #000000"/>
      </g>
     </g>
    </g>
    <g id="ytick_38">
     <g id="line2d_63">
      <g>
       <use xlink:href="#mc043fa09bb" x="60.598945" y="158.55702" style="stroke: #000000"/>
      </g>
     </g>
    </g>
    <g id="ytick_39">
     <g id="line2d_64">
      <g>
       <use xlink:href="#mc043fa09bb" x="60.598945" y="151.730833" style="stroke: #000000"/>
      </g>
     </g>
    </g>
    <g id="ytick_40">
     <g id="line2d_65">
      <g>
       <use xlink:href="#mc043fa09bb" x="60.598945" y="146.887576" style="stroke: #000000"/>
      </g>
     </g>
    </g>
    <g id="ytick_41">
     <g id="line2d_66">
      <g>
       <use xlink:href="#mc043fa09bb" x="60.598945" y="143.130854" style="stroke: #000000"/>
      </g>
     </g>
    </g>
    <g id="ytick_42">
     <g id="line2d_67">
      <g>
       <use xlink:href="#mc043fa09bb" x="60.598945" y="140.061389" style="stroke: #000000"/>
      </g>
     </g>
    </g>
    <g id="ytick_43">
     <g id="line2d_68">
      <g>
       <use xlink:href="#mc043fa09bb" x="60.598945" y="137.466193" style="stroke: #000000"/>
      </g>
     </g>
    </g>
    <g id="ytick_44">
     <g id="line2d_69">
      <g>
       <use xlink:href="#mc043fa09bb" x="60.598945" y="135.218132" style="stroke: #000000"/>
      </g>
     </g>
    </g>
    <g id="ytick_45">
     <g id="line2d_70">
      <g>
       <use xlink:href="#mc043fa09bb" x="60.598945" y="133.235202" style="stroke: #000000"/>
      </g>
     </g>
    </g>
    <g id="ytick_46">
     <g id="line2d_71">
      <g>
       <use xlink:href="#mc043fa09bb" x="60.598945" y="119.791966" style="stroke: #000000"/>
      </g>
     </g>
    </g>
    <g id="ytick_47">
     <g id="line2d_72">
      <g>
       <use xlink:href="#mc043fa09bb" x="60.598945" y="112.965779" style="stroke: #000000"/>
      </g>
     </g>
    </g>
    <g id="ytick_48">
     <g id="line2d_73">
      <g>
       <use xlink:href="#mc043fa09bb" x="60.598945" y="108.122522" style="stroke: #000000"/>
      </g>
     </g>
    </g>
    <g id="ytick_49">
     <g id="line2d_74">
      <g>
       <use xlink:href="#mc043fa09bb" x="60.598945" y="104.3658" style="stroke: #000000"/>
      </g>
     </g>
    </g>
    <g id="ytick_50">
     <g id="line2d_75">
      <g>
       <use xlink:href="#mc043fa09bb" x="60.598945" y="101.296335" style="stroke: #000000"/>
      </g>
     </g>
    </g>
    <g id="ytick_51">
     <g id="line2d_76">
      <g>
       <use xlink:href="#mc043fa09bb" x="60.598945" y="98.701139" style="stroke: #000000"/>
      </g>
     </g>
    </g>
    <g id="ytick_52">
     <g id="line2d_77">
      <g>
       <use xlink:href="#mc043fa09bb" x="60.598945" y="96.453078" style="stroke: #000000"/>
      </g>
     </g>
    </g>
    <g id="ytick_53">
     <g id="line2d_78">
      <g>
       <use xlink:href="#mc043fa09bb" x="60.598945" y="94.470148" style="stroke: #000000"/>
      </g>
     </g>
    </g>
    <g id="ytick_54">
     <g id="line2d_79">
      <g>
       <use xlink:href="#mc043fa09bb" x="60.598945" y="81.026912" style="stroke: #000000"/>
      </g>
     </g>
    </g>
    <g id="ytick_55">
     <g id="line2d_80">
      <g>
       <use xlink:href="#mc043fa09bb" x="60.598945" y="74.200725" style="stroke: #000000"/>
      </g>
     </g>
    </g>
    <g id="ytick_56">
     <g id="line2d_81">
      <g>
       <use xlink:href="#mc043fa09bb" x="60.598945" y="69.357468" style="stroke: #000000"/>
      </g>
     </g>
    </g>
    <g id="ytick_57">
     <g id="line2d_82">
      <g>
       <use xlink:href="#mc043fa09bb" x="60.598945" y="65.600746" style="stroke: #000000"/>
      </g>
     </g>
    </g>
    <g id="ytick_58">
     <g id="line2d_83">
      <g>
       <use xlink:href="#mc043fa09bb" x="60.598945" y="62.531281" style="stroke: #000000"/>
      </g>
     </g>
    </g>
    <g id="ytick_59">
     <g id="line2d_84">
      <g>
       <use xlink:href="#mc043fa09bb" x="60.598945" y="59.936085" style="stroke: #000000"/>
      </g>
     </g>
    </g>
    <g id="ytick_60">
     <g id="line2d_85">
      <g>
       <use xlink:href="#mc043fa09bb" x="60.598945" y="57.688024" style="stroke: #000000"/>
      </g>
     </g>
    </g>
    <g id="ytick_61">
     <g id="line2d_86">
      <g>
       <use xlink:href="#mc043fa09bb" x="60.598945" y="55.705094" style="stroke: #000000"/>
      </g>
     </g>
    </g>
    <g id="ytick_62">
     <g id="line2d_87">
      <g>
       <use xlink:href="#mc043fa09bb" x="60.598945" y="42.261858" style="stroke: #000000"/>
      </g>
     </g>
    </g>
    <g id="ytick_63">
     <g id="line2d_88">
      <g>
       <use xlink:href="#mc043fa09bb" x="60.598945" y="35.435671" style="stroke: #000000"/>
      </g>
     </g>
    </g>
    <g id="ytick_64">
     <g id="line2d_89">
      <g>
       <use xlink:href="#mc043fa09bb" x="60.598945" y="30.592414" style="stroke: #000000"/>
      </g>
     </g>
    </g>
    <g id="ytick_65">
     <g id="line2d_90">
      <g>
       <use xlink:href="#mc043fa09bb" x="60.598945" y="26.835692" style="stroke: #000000"/>
      </g>
     </g>
    </g>
    <g id="ytick_66">
     <g id="line2d_91">
      <g>
       <use xlink:href="#mc043fa09bb" x="60.598945" y="23.766227" style="stroke: #000000"/>
      </g>
     </g>
    </g>
    <g id="ytick_67">
     <g id="line2d_92">
      <g>
       <use xlink:href="#mc043fa09bb" x="60.598945" y="21.171031" style="stroke: #000000"/>
      </g>
     </g>
    </g>
    <g id="ytick_68">
     <g id="line2d_93">
      <g>
       <use xlink:href="#mc043fa09bb" x="60.598945" y="18.92297" style="stroke: #000000"/>
      </g>
     </g>
    </g>
    <g id="ytick_69">
     <g id="line2d_94">
      <g>
       <use xlink:href="#mc043fa09bb" x="60.598945" y="16.94004" style="stroke: #000000"/>
      </g>
     </g>
    </g>
    <g id="text_17">
     <!-- Ion Current (m/z 60) -->
     <g transform="translate(17.392383 216.137266) rotate(-90) scale(0.14 -0.14)">
      <defs>
       <path id="ArialMT-2c" d="M 597 0 
L 597 4581 
L 1203 4581 
L 1203 0 
L 597 0 
z
" transform="scale(0.015625)"/>
       <path id="ArialMT-52" d="M 213 1659 
Q 213 2581 725 3025 
Q 1153 3394 1769 3394 
Q 2453 3394 2887 2945 
Q 3322 2497 3322 1706 
Q 3322 1066 3130 698 
Q 2938 331 2570 128 
Q 2203 -75 1769 -75 
Q 1072 -75 642 372 
Q 213 819 213 1659 
z
M 791 1659 
Q 791 1022 1069 705 
Q 1347 388 1769 388 
Q 2188 388 2466 706 
Q 2744 1025 2744 1678 
Q 2744 2294 2464 2611 
Q 2184 2928 1769 2928 
Q 1347 2928 1069 2612 
Q 791 2297 791 1659 
z
" transform="scale(0.015625)"/>
       <path id="ArialMT-51" d="M 422 0 
L 422 3319 
L 928 3319 
L 928 2847 
Q 1294 3394 1984 3394 
Q 2284 3394 2536 3286 
Q 2788 3178 2913 3003 
Q 3038 2828 3088 2588 
Q 3119 2431 3119 2041 
L 3119 0 
L 2556 0 
L 2556 2019 
Q 2556 2363 2490 2533 
Q 2425 2703 2258 2804 
Q 2091 2906 1866 2906 
Q 1506 2906 1245 2678 
Q 984 2450 984 1813 
L 984 0 
L 422 0 
z
" transform="scale(0.015625)"/>
       <path id="ArialMT-12" d="M 0 -78 
L 1328 4659 
L 1778 4659 
L 453 -78 
L 0 -78 
z
" transform="scale(0.015625)"/>
       <path id="ArialMT-5d" d="M 125 0 
L 125 456 
L 2238 2881 
Q 1878 2863 1603 2863 
L 250 2863 
L 250 3319 
L 2963 3319 
L 2963 2947 
L 1166 841 
L 819 456 
Q 1197 484 1528 484 
L 3063 484 
L 3063 0 
L 125 0 
z
" transform="scale(0.015625)"/>
      </defs>
      <use xlink:href="#ArialMT-2c"/>
      <use xlink:href="#ArialMT-52" transform="translate(27.78125 0)"/>
      <use xlink:href="#ArialMT-51" transform="translate(83.390625 0)"/>
      <use xlink:href="#ArialMT-3" transform="translate(139 0)"/>
      <use xlink:href="#ArialMT-26" transform="translate(166.78125 0)"/>
      <use xlink:href="#ArialMT-58" transform="translate(239 0)"/>
      <use xlink:href="#ArialMT-55" transform="translate(294.609375 0)"/>
      <use xlink:href="#ArialMT-55" transform="translate(327.90625 0)"/>
      <use xlink:href="#ArialMT-48" transform="translate(361.203125 0)"/>
      <use xlink:href="#ArialMT-51" transform="translate(416.8125 0)"/>
      <use xlink:href="#ArialMT-57" transform="translate(472.421875 0)"/>
      <use xlink:href="#ArialMT-3" transform="translate(500.203125 0)"/>
      <use xlink:href="#ArialMT-b" transform="translate(527.984375 0)"/>
      <use xlink:href="#ArialMT-50" transform="translate(561.28125 0)"/>
      <use xlink:href="#ArialMT-12" transform="translate(644.578125 0)"/>
      <use xlink:href="#ArialMT-5d" transform="translate(672.359375 0)"/>
      <use xlink:href="#ArialMT-3" transform="translate(722.359375 0)"/>
      <use xlink:href="#ArialMT-19" transform="translate(750.140625 0)"/>
      <use xlink:href="#ArialMT-13" transform="translate(805.75 0)"/>
      <use xlink:href="#ArialMT-c" transform="translate(861.359375 0)"/>
     </g>
    </g>
   </g>
   <g id="line2d_95">
    <path d="M 78.802131 286.521626 
L 78.771691 286.521626 
L 78.832572 37.265312 
L 79.502254 41.1395 
L 81.08514 58.357922 
L 83.276828 56.589755 
L 85.407636 65.029984 
L 87.203602 286.521626 
L 94.357028 286.521626 
L 95.574632 60.348957 
L 96.792237 41.849941 
L 98.131602 44.145059 
L 99.440527 53.016818 
L 100.688571 286.521626 
L 101.936616 286.521626 
L 103.15422 99.310667 
L 104.280504 58.931742 
L 105.467668 56.4555 
L 106.654833 44.44146 
L 107.872437 38.513379 
L 108.998721 44.178126 
L 110.185886 48.425897 
L 111.37305 60.678005 
L 112.560214 286.521626 
L 113.747379 286.521626 
L 114.964983 61.019345 
L 116.182587 46.225026 
L 117.369752 47.042888 
L 118.587356 47.521286 
L 119.77452 49.638195 
L 120.931245 83.578155 
L 122.118409 66.362485 
L 123.305573 69.982992 
L 124.492738 286.521626 
L 125.679902 63.266844 
L 126.867066 63.466995 
L 128.084671 47.693739 
L 129.241395 41.593506 
L 130.458999 42.600773 
L 131.646164 44.250691 
L 134.020492 72.484842 
L 135.207657 286.521626 
L 136.425261 286.521626 
L 137.642865 156.481833 
L 138.86047 85.658882 
L 140.078074 81.875989 
L 141.234798 47.212737 
L 142.421963 46.730312 
L 143.639567 53.519374 
L 144.765851 75.212911 
L 145.953016 286.521626 
L 147.17062 286.521626 
L 148.388225 62.577157 
L 149.575389 286.521626 
L 153.106442 286.521626 
L 154.263166 70.28112 
L 155.45033 76.140017 
L 156.607054 286.521626 
L 164.947645 286.521626 
L 166.165249 67.985961 
L 167.352413 44.643334 
L 168.570018 39.938118 
L 169.787622 40.261932 
L 170.944347 42.881777 
L 172.161951 49.880273 
L 173.349115 45.175496 
L 174.505839 46.069133 
L 175.662564 56.302021 
L 176.880168 45.787356 
L 178.036892 49.31455 
L 179.193617 49.730769 
L 180.380781 69.877906 
L 181.598385 286.521626 
L 186.468803 286.521626 
L 187.686407 61.036386 
L 188.843132 51.911343 
L 189.999856 59.324977 
L 191.21746 100.945064 
L 192.435065 286.521626 
L 197.092402 286.521626 
L 198.279566 91.405847 
L 199.46673 46.046347 
L 200.653895 45.715521 
L 201.780179 46.347375 
L 202.967343 45.638299 
L 204.184947 41.317374 
L 205.372112 55.935849 
L 206.528836 286.521626 
L 213.682262 286.521626 
L 214.869426 72.371963 
L 216.056591 71.853755 
L 217.213315 94.724277 
L 218.430919 59.393187 
L 220.774808 46.473329 
L 221.961972 55.769985 
L 223.149136 60.811391 
L 224.336301 286.521626 
L 229.024078 286.521626 
L 230.272122 58.23491 
L 231.428846 53.763653 
L 232.616011 46.475324 
L 233.711855 43.54997 
L 234.838139 50.985237 
L 236.025303 102.359914 
L 237.242908 286.521626 
L 242.052445 286.521626 
L 243.178729 70.803726 
L 244.396334 44.675217 
L 245.583498 43.610547 
L 246.801102 41.108671 
L 247.957827 72.6912 
L 249.144991 60.6955 
L 250.362595 52.438007 
L 251.54976 65.993042 
L 252.706484 286.521626 
L 259.82947 286.521626 
L 261.077514 64.619022 
L 263.421403 55.492284 
L 264.578127 63.872247 
L 265.765291 54.939147 
L 267.013336 50.71336 
L 268.13962 64.073614 
L 269.326784 49.162972 
L 270.513949 63.932684 
L 271.670673 59.699892 
L 272.888277 62.681903 
L 274.136322 69.559748 
L 275.353926 286.521626 
L 280.072143 286.521626 
L 281.289748 98.303007 
L 282.507352 106.694049 
L 283.694516 79.420832 
L 284.881681 62.101305 
L 286.068845 53.592589 
L 287.225569 286.521626 
L 295.505279 286.521626 
L 296.722884 74.075694 
L 297.849168 286.521626 
L 299.066772 286.521626 
L 300.284377 65.262352 
L 301.410661 54.00869 
L 302.597825 61.909808 
L 303.78499 82.291593 
L 304.972154 61.773859 
L 306.159318 58.577342 
L 307.285602 61.952772 
L 308.503207 286.521626 
L 309.690371 286.521626 
L 310.847095 68.897025 
L 312.03426 51.756134 
L 313.221424 63.508967 
L 314.408588 56.023019 
L 315.595752 45.491881 
L 316.752477 39.932858 
L 317.909201 39.413219 
L 319.157245 42.368804 
L 320.34441 50.920925 
L 321.501134 94.911598 
L 322.627418 286.521626 
L 326.249791 286.521626 
L 327.406515 85.138499 
L 328.56324 67.54133 
L 329.750404 53.000215 
L 330.968008 49.475483 
L 332.094292 50.005169 
L 333.342337 286.521626 
L 334.833902 63.528089 
L 336.112387 286.521626 
L 342.048209 286.521626 
L 343.235373 106.099983 
L 344.452977 95.432356 
L 345.548821 286.521626 
L 351.484643 286.521626 
L 352.702247 56.779103 
L 353.950292 49.048183 
L 355.015696 50.298042 
L 356.20286 53.461802 
L 357.481345 54.433838 
L 358.607629 72.172948 
L 359.825233 97.463491 
L 361.042838 286.521626 
L 362.260442 286.521626 
L 363.264966 66.289734 
L 364.51301 68.380754 
L 365.791495 72.059643 
L 366.856899 63.658711 
L 368.074503 66.332284 
L 369.444308 286.521626 
L 377.480497 286.521626 
L 378.667662 60.270679 
L 379.854826 42.388785 
L 381.04199 35.798295 
L 382.198715 38.826174 
L 383.446759 45.989097 
L 384.542603 68.555413 
L 385.760208 286.521626 
L 390.569745 286.521626 
L 391.726469 70.715955 
L 392.974514 63.182419 
L 393.979037 286.521626 
L 418.331126 286.521626 
L 419.30521 45.174591 
L 420.644574 34.455218 
L 421.679538 30.521368 
L 422.927583 31.468844 
L 424.145187 41.247386 
L 425.119271 286.521626 
L 425.119271 286.521626 
" clip-path="url(#pbe3ad193bb)" style="fill: none; stroke: #000000; stroke-width: 2.5; stroke-linecap: square"/>
   </g>
   <g id="line2d_96">
    <path d="M 71.100783 286.521626 
L 71.100783 54.172098 
L 71.100783 54.210217 
L 71.252984 286.521626 
L 79.593574 286.521626 
L 81.0547 90.382537 
L 82.272304 286.521626 
L 87.873284 286.521626 
L 89.151769 68.322916 
L 90.369374 286.521626 
L 104.950187 286.521626 
L 106.167791 45.723475 
L 107.294075 63.243073 
L 108.57256 65.916448 
L 109.790164 286.521626 
L 112.073172 286.521626 
L 113.290777 98.00671 
L 114.508381 65.614113 
L 115.695546 65.246443 
L 116.91315 43.608947 
L 117.978554 41.21883 
L 119.226598 52.873621 
L 120.413763 65.012785 
L 121.631367 95.956607 
L 122.879412 64.452895 
L 123.944816 43.984151 
L 125.19286 49.956621 
L 126.380024 45.175398 
L 127.628069 44.541823 
L 128.754353 49.40506 
L 129.971958 286.521626 
L 133.53345 286.521626 
L 134.751055 59.721974 
L 135.846899 59.778811 
L 137.094943 60.795948 
L 138.342988 52.31492 
L 139.499712 41.457107 
L 140.747757 39.693791 
L 141.965361 45.999725 
L 143.122085 49.113978 
L 144.248369 286.521626 
L 145.405094 65.622339 
L 146.622698 286.521626 
L 151.401795 286.521626 
L 152.6194 70.093385 
L 153.806564 286.521626 
L 154.932848 77.152208 
L 156.211333 63.907564 
L 157.337617 75.449581 
L 158.463901 286.521626 
L 159.742386 286.521626 
L 160.89911 80.40679 
L 162.177595 286.521626 
L 165.678207 286.521626 
L 166.834932 60.135465 
L 168.052536 54.534154 
L 169.27014 286.521626 
L 170.487745 82.444716 
L 171.644469 67.385179 
L 172.862073 286.521626 
L 175.114642 286.521626 
L 176.362686 53.446712 
L 177.549851 38.080158 
L 179.893739 44.099459 
L 181.080903 43.888309 
L 182.298508 49.361104 
L 183.546552 61.968588 
L 184.703277 286.521626 
L 187.077605 286.521626 
L 188.203889 49.763322 
L 189.512814 41.084906 
L 190.639098 44.845105 
L 191.795822 50.288959 
L 192.982987 78.914041 
L 194.170151 286.521626 
L 208.446563 286.521626 
L 209.664167 54.121042 
L 210.790451 52.515493 
L 213.16478 45.084527 
L 214.351944 54.869746 
L 215.539109 286.521626 
L 221.44449 286.521626 
L 222.601214 57.001673 
L 223.818819 42.513966 
L 225.005983 50.917791 
L 226.162707 71.958378 
L 227.319431 286.521626 
L 228.506596 61.20918 
L 229.69376 61.341165 
L 230.850484 286.521626 
L 239.221515 286.521626 
L 240.347799 64.99333 
L 241.534963 74.637037 
L 242.691687 104.074816 
L 243.878852 64.202195 
L 245.066016 52.814483 
L 246.22274 49.660468 
L 247.470785 43.961094 
L 248.657949 44.901505 
L 249.814673 49.123999 
L 251.032278 76.771177 
L 252.189002 73.983396 
L 253.406606 64.369208 
L 254.593771 286.521626 
L 264.091085 286.521626 
L 265.27825 89.150228 
L 266.404534 286.521626 
L 268.809302 286.521626 
L 269.966027 53.671932 
L 271.153191 48.133672 
L 272.340355 72.788054 
L 273.5884 70.05687 
L 274.866884 57.389617 
L 275.993168 57.043874 
L 277.210773 84.640282 
L 278.397937 76.274477 
L 279.615542 78.66793 
L 280.802706 55.632804 
L 281.98987 43.196463 
L 283.116154 42.290045 
L 284.303319 52.010168 
L 285.490483 51.095385 
L 286.708087 47.443633 
L 287.864812 69.358841 
L 289.051976 286.521626 
L 290.23914 286.521626 
L 291.456745 75.951193 
L 292.613469 286.521626 
L 293.770193 286.521626 
L 294.987798 81.450042 
L 296.144522 120.134134 
L 297.301246 59.75957 
L 298.51885 43.522401 
L 299.736455 48.332555 
L 300.862739 51.651342 
L 302.080343 51.52611 
L 303.297948 46.462942 
L 304.424232 64.834683 
L 305.611396 76.525466 
L 306.79856 60.324835 
L 308.016165 55.976924 
L 309.142449 63.571394 
L 310.360053 46.761197 
L 311.486338 44.49197 
L 312.703942 52.568383 
L 313.891106 52.804412 
L 315.04783 53.984632 
L 316.234995 70.607612 
L 317.391719 60.964735 
L 318.578883 71.285301 
L 319.766048 45.683644 
L 320.983652 47.317943 
L 322.170816 37.449013 
L 323.357981 38.700912 
L 324.484265 54.602253 
L 325.671429 50.227375 
L 326.889034 52.679732 
L 328.106638 52.817553 
L 329.202482 65.135327 
L 330.450526 65.789321 
L 331.607251 43.567936 
L 332.763975 46.242102 
L 334.2251 47.047754 
L 335.534025 53.377253 
L 336.751629 286.521626 
L 337.999674 60.102297 
L 339.186838 56.089945 
L 340.313122 53.545632 
L 341.561167 60.011419 
L 342.717891 64.515671 
L 343.844175 54.935806 
L 345.09222 58.867039 
L 346.248944 45.501907 
L 347.496988 49.368794 
L 348.623273 90.853251 
L 349.840877 286.521626 
L 356.933423 286.521626 
L 358.120587 71.390209 
L 359.277311 286.521626 
L 361.56032 286.521626 
L 362.869244 74.396216 
L 364.117289 286.521626 
L 366.339417 286.521626 
L 367.526581 60.382273 
L 368.713746 66.558106 
L 369.99223 286.521626 
L 375.806291 286.521626 
L 377.054336 104.810983 
L 378.11974 70.071198 
L 379.398224 81.996195 
L 380.585389 286.521626 
L 381.681233 286.521626 
L 382.929277 64.849238 
L 384.116442 48.199227 
L 385.242726 46.250499 
L 386.42989 36.474404 
L 387.586614 42.262834 
L 388.834659 50.60448 
L 390.052263 84.162444 
L 391.117667 286.521626 
L 392.365712 286.521626 
L 393.583316 79.145542 
L 394.892241 47.547395 
L 398.758135 39.9706 
L 399.914859 52.791813 
L 401.071583 89.829131 
L 402.289188 286.521626 
L 405.911561 286.521626 
L 406.946525 53.702635 
L 408.255449 49.168104 
L 409.412174 49.478566 
L 410.386257 48.735709 
L 411.725622 60.547335 
L 412.912786 286.521626 
L 416.382959 286.521626 
L 417.661444 67.909371 
L 418.909488 52.67392 
L 419.974892 51.036352 
L 421.222937 47.966335 
L 423.688585 34.908407 
L 424.784429 27.057936 
L 424.784429 27.057936 
" clip-path="url(#pbe3ad193bb)" style="fill: none; stroke: #1f77b4; stroke-width: 2.5; stroke-linecap: square"/>
   </g>
   <g id="line2d_97">
    <path d="M 70.918143 286.521626 
L 70.918143 67.553479 
L 70.918143 286.521626 
L 73.01851 286.521626 
L 75.179758 78.361383 
L 77.341006 62.817498 
L 79.258733 140.564346 
L 80.780739 88.809442 
L 82.028783 91.842991 
L 83.124627 286.521626 
L 97.309719 286.521626 
L 98.649084 92.562738 
L 99.927568 55.476573 
L 101.145173 54.249638 
L 102.332337 43.241198 
L 103.519501 37.742149 
L 104.706666 38.325236 
L 105.89383 37.527203 
L 107.080994 45.627883 
L 109.455323 44.184494 
L 110.672927 55.750575 
L 111.860092 62.307276 
L 113.047256 89.587672 
L 114.26486 47.658783 
L 115.452025 49.043611 
L 116.639189 57.617844 
L 117.826353 41.787015 
L 119.013518 40.934466 
L 120.200682 34.121093 
L 121.326966 31.093653 
L 122.575011 45.314579 
L 123.731735 46.865337 
L 124.888459 48.094815 
L 126.106063 38.559985 
L 127.323668 38.691172 
L 128.480392 44.677094 
L 129.667556 39.246428 
L 130.824281 41.150242 
L 131.981005 55.125287 
L 133.229049 57.007539 
L 134.385774 286.521626 
L 141.63052 286.521626 
L 142.756804 86.795345 
L 144.004849 103.577806 
L 145.192013 58.167192 
L 146.409617 71.703352 
L 147.566342 86.550682 
L 148.783946 286.521626 
L 165.404246 286.521626 
L 166.621851 71.055081 
L 167.809015 47.941314 
L 168.996179 44.591924 
L 170.152904 55.638132 
L 171.340068 79.753852 
L 172.527232 85.125499 
L 173.653516 82.301755 
L 174.871121 286.521626 
L 176.058285 105.479851 
L 177.215009 59.637676 
L 178.432614 56.929433 
L 179.650218 47.296175 
L 180.806942 43.948867 
L 181.963667 43.77644 
L 183.181271 60.569417 
L 184.459756 70.675131 
L 185.61648 84.314296 
L 186.894965 286.521626 
L 192.709026 286.521626 
L 193.92663 102.820856 
L 195.144235 80.638042 
L 197.427243 53.958031 
L 198.614407 53.813961 
L 199.832012 59.767227 
L 201.019176 48.156326 
L 202.1759 45.546081 
L 203.393504 44.825073 
L 204.550229 54.125679 
L 205.767833 112.909975 
L 206.954997 57.840817 
L 208.111722 67.116629 
L 209.238006 68.850019 
L 210.45561 50.017725 
L 211.703655 46.804896 
L 212.860379 38.710442 
L 214.047543 42.333384 
L 216.421872 62.86501 
L 217.609036 286.521626 
L 224.732022 286.521626 
L 225.888746 59.20134 
L 227.075911 45.887972 
L 228.263075 36.881387 
L 229.419799 38.823944 
L 230.637404 46.085852 
L 231.824568 49.842235 
L 233.011732 77.089078 
L 234.168456 286.521626 
L 241.261002 286.521626 
L 242.387286 78.375903 
L 243.604891 176.790226 
L 244.883375 80.605062 
L 246.0401 62.152501 
L 247.196824 63.077518 
L 248.383988 73.983624 
L 249.540712 286.521626 
L 256.724578 286.521626 
L 257.850863 70.204738 
L 259.129347 58.808211 
L 260.225191 286.521626 
L 264.973848 286.521626 
L 266.130573 101.196764 
L 267.409057 65.903625 
L 268.504901 67.094464 
L 269.722506 66.729944 
L 270.90967 96.110498 
L 272.096834 286.521626 
L 284.029358 286.521626 
L 285.246962 65.324633 
L 286.464567 57.050059 
L 287.560411 43.525589 
L 288.778015 43.925145 
L 289.965179 52.39562 
L 291.152344 286.521626 
L 297.057725 286.521626 
L 298.244889 138.9611 
L 299.432054 58.83106 
L 300.680098 40.888349 
L 301.775942 45.004344 
L 302.963107 39.807562 
L 304.180711 37.95172 
L 305.337435 58.522112 
L 306.524599 66.502996 
L 307.711764 286.521626 
L 313.617145 286.521626 
L 314.743429 64.786815 
L 315.930594 48.661141 
L 317.148198 53.69619 
L 318.365803 56.139219 
L 319.552967 78.839364 
L 320.679251 286.521626 
L 321.866415 108.799555 
L 323.05358 286.521626 
L 340.039161 286.521626 
L 341.287206 61.870372 
L 342.47437 60.085086 
L 343.661534 286.521626 
L 350.6932 286.521626 
L 351.910804 63.277506 
L 353.067529 52.652515 
L 354.315573 57.924654 
L 355.472297 62.238862 
L 356.568141 53.180589 
L 357.846626 50.856963 
L 359.00335 45.444261 
L 360.190515 45.216477 
L 361.408119 45.46425 
L 362.473523 41.523139 
L 363.752008 38.372347 
L 364.939172 36.414521 
L 366.095896 43.759036 
L 367.3135 74.959384 
L 368.470225 286.521626 
L 373.310202 286.521626 
L 374.436486 59.422323 
L 375.623651 52.805513 
L 376.749935 39.027493 
L 377.906659 47.439335 
L 379.154704 57.693445 
L 380.341868 286.521626 
L 381.559472 286.521626 
L 382.655316 96.237416 
L 383.872921 49.606856 
L 385.060085 42.89274 
L 386.216809 45.139562 
L 387.251773 44.835317 
L 388.530258 43.202421 
L 389.747862 45.991097 
L 390.874146 53.155304 
L 392.091751 286.521626 
L 393.187595 96.258096 
L 394.526959 82.50441 
L 395.927205 66.534417 
L 397.266569 286.521626 
L 403.141511 286.521626 
L 404.328675 83.906632 
L 405.60716 286.521626 
L 418.574647 286.521626 
L 419.761811 71.885921 
L 420.979416 47.58845 
L 422.1057 41.096228 
L 423.323304 41.364675 
L 424.601789 52.893381 
L 425.423672 286.521626 
L 425.423672 286.521626 
" clip-path="url(#pbe3ad193bb)" style="fill: none; stroke: #0033ff; stroke-width: 2.5; stroke-linecap: square"/>
   </g>
   <g id="line2d_98">
    <path d="M 69.091736 32.03577 
L 69.122176 71.159129 
L 69.152616 36.279847 
L 69.243937 37.290524 
L 69.730979 40.985406 
L 71.192104 40.669624 
L 73.292471 66.112564 
L 75.5146 62.086655 
L 77.371446 286.521626 
L 81.328661 286.521626 
L 82.394065 131.862566 
L 83.550789 44.220225 
L 84.707513 40.364262 
L 85.894677 44.510647 
L 87.051401 44.967099 
L 88.269006 38.736034 
L 89.48661 43.99742 
L 90.673775 286.521626 
L 91.800059 74.051453 
L 92.987223 69.781599 
L 94.204828 39.338711 
L 95.361552 33.245645 
L 96.670476 37.316433 
L 97.948961 38.611774 
L 99.288326 37.285565 
L 100.50593 34.024029 
L 101.723535 35.891796 
L 102.941139 45.477019 
L 104.097863 46.564053 
L 105.285028 45.870273 
L 106.472192 41.17719 
L 107.689797 59.661161 
L 108.876961 64.804184 
L 110.094565 68.541595 
L 111.251289 286.521626 
L 118.374275 286.521626 
L 119.500559 78.361758 
L 120.779044 61.197904 
L 121.966208 57.612304 
L 123.092493 51.907509 
L 125.436381 59.297089 
L 126.714866 47.993051 
L 127.87159 51.249123 
L 129.089194 53.677821 
L 130.276359 51.027104 
L 131.433083 49.735374 
L 132.559367 54.61896 
L 133.807411 48.935975 
L 134.933696 49.985931 
L 136.12086 53.857905 
L 137.399345 64.068717 
L 138.647389 55.221643 
L 139.834553 286.521626 
L 144.552771 286.521626 
L 145.770375 61.750175 
L 146.987979 92.697388 
L 148.175144 286.521626 
L 162.451556 286.521626 
L 163.63872 72.677581 
L 164.825884 286.521626 
L 174.262319 286.521626 
L 175.479923 106.325627 
L 176.575767 286.521626 
L 177.823812 286.521626 
L 178.980536 107.809934 
L 180.19814 49.385263 
L 181.385304 55.239925 
L 182.542029 62.341138 
L 183.729193 46.135092 
L 184.977238 40.383887 
L 186.194842 39.713147 
L 187.351566 47.220476 
L 188.50829 42.587801 
L 190.913059 58.51216 
L 192.130664 59.146005 
L 193.226508 67.693481 
L 194.383232 54.965446 
L 195.631276 53.584594 
L 196.818441 57.707587 
L 197.944725 72.399675 
L 199.223209 286.521626 
L 207.53336 286.521626 
L 208.720524 107.290377 
L 209.907688 286.521626 
L 211.094853 286.521626 
L 212.251577 84.532027 
L 213.469181 286.521626 
L 220.531287 286.521626 
L 221.718451 77.923349 
L 222.905615 56.768459 
L 224.09278 48.458449 
L 225.279944 54.257148 
L 226.436668 43.378977 
L 227.623833 47.485298 
L 228.810997 48.283162 
L 230.028601 57.487973 
L 231.215766 79.145499 
L 232.37249 69.397825 
L 233.559654 51.723077 
L 234.746818 65.454873 
L 235.933983 61.906181 
L 237.090707 55.774368 
L 238.277871 86.043216 
L 239.465036 286.521626 
L 240.62176 60.294393 
L 241.839364 52.586914 
L 243.026529 96.448811 
L 244.152813 83.129354 
L 245.370417 286.521626 
L 246.557581 286.521626 
L 247.775186 54.965828 
L 248.96235 89.037244 
L 250.119074 286.521626 
L 251.306239 286.521626 
L 252.493403 78.026868 
L 253.680567 79.432076 
L 254.867732 84.232071 
L 256.054896 51.425837 
L 257.2725 81.4291 
L 258.429225 286.521626 
L 263.147442 286.521626 
L 264.365046 93.122685 
L 265.582651 286.521626 
L 283.420555 286.521626 
L 284.60772 73.739823 
L 285.764444 66.616097 
L 286.951608 286.521626 
L 290.543541 286.521626 
L 291.730706 67.998492 
L 292.91787 64.861011 
L 294.105034 49.438172 
L 295.231318 52.661383 
L 296.448923 53.016288 
L 297.666527 65.717707 
L 298.792811 286.521626 
L 301.16714 286.521626 
L 302.384744 62.126062 
L 303.541469 45.572487 
L 304.728633 39.107406 
L 305.885357 37.48662 
L 307.072521 46.319595 
L 308.259686 44.183817 
L 309.44685 43.3478 
L 310.664455 52.152868 
L 311.790739 54.653961 
L 312.977903 78.05022 
L 314.195507 54.022702 
L 315.382672 54.263829 
L 316.569836 61.635695 
L 317.72656 286.521626 
L 324.788666 286.521626 
L 325.91495 49.877105 
L 327.162995 40.090994 
L 328.350159 37.700773 
L 329.537323 35.857346 
L 330.663607 32.300437 
L 331.911652 35.912836 
L 333.129256 46.299785 
L 334.529501 52.424861 
L 335.838426 61.403488 
L 337.086471 286.521626 
L 338.273635 109.711226 
L 339.491239 286.521626 
L 340.678404 65.488804 
L 341.865568 286.521626 
L 354.802615 286.521626 
L 355.989779 43.890143 
L 357.268264 42.144691 
L 358.394548 37.528619 
L 359.551272 42.406762 
L 360.768877 45.782569 
L 361.925601 286.521626 
L 370.266191 286.521626 
L 371.362035 71.218765 
L 372.57964 81.240881 
L 373.858124 286.521626 
L 376.232453 286.521626 
L 377.297857 82.655586 
L 378.454581 56.887117 
L 379.702626 48.032157 
L 380.85935 42.924453 
L 382.016074 51.499415 
L 383.264118 54.986978 
L 384.359962 84.322664 
L 385.516687 286.521626 
L 387.860575 286.521626 
L 389.10862 74.031445 
L 390.326224 86.530411 
L 391.422068 54.231937 
L 392.639673 50.596807 
L 393.796397 286.521626 
L 416.900441 286.521626 
L 417.904964 63.430281 
L 419.183449 54.586795 
L 420.309733 48.430889 
L 421.436017 45.37597 
L 422.623182 44.598986 
L 423.901666 46.301166 
L 424.99751 52.151969 
L 424.99751 52.151969 
" clip-path="url(#pbe3ad193bb)" style="fill: none; stroke: #ff7f0e; stroke-width: 2.5; stroke-linecap: square"/>
   </g>
   <g id="line2d_99">
    <path d="M 78.832572 35.525488 
L 78.832572 45.463378 
L 78.832572 37.238287 
L 79.410934 44.442368 
L 80.932939 47.281181 
L 83.094187 50.206459 
L 85.285875 52.933799 
L 87.203602 59.163373 
L 88.695167 286.521626 
L 93.291624 286.521626 
L 94.387468 64.301348 
L 95.605073 49.881202 
L 96.883557 40.431942 
L 98.131602 43.718783 
L 99.410086 89.247764 
L 100.658131 120.854173 
L 101.875735 73.944233 
L 103.12378 72.815174 
L 104.250064 69.220036 
L 105.467668 48.85569 
L 106.624393 47.691784 
L 107.841997 48.172988 
L 109.059602 43.363978 
L 110.246766 62.494648 
L 111.37305 286.521626 
L 112.560214 61.187085 
L 113.777819 51.595632 
L 115.025863 44.278764 
L 116.243468 49.021921 
L 117.339312 50.823587 
L 118.617796 56.93809 
L 119.804961 53.297884 
L 120.992125 61.698429 
L 122.179289 53.752551 
L 124.492738 47.683778 
L 125.740782 35.052558 
L 126.897506 31.760982 
L 128.115111 36.433963 
L 129.271835 39.879137 
L 130.489439 47.39989 
L 131.646164 286.521626 
L 136.425261 286.521626 
L 137.673306 69.228089 
L 138.89091 64.877398 
L 140.108514 51.552206 
L 141.204358 44.011248 
L 142.421963 42.062684 
L 143.609127 68.890462 
L 144.796291 60.867286 
L 145.953016 81.274423 
L 147.17062 65.696984 
L 148.357784 62.994278 
L 149.544949 123.380687 
L 150.701673 58.884869 
L 151.888837 286.521626 
L 161.477472 286.521626 
L 162.664636 53.735622 
L 163.851801 72.111766 
L 164.978085 58.70066 
L 166.195689 46.519395 
L 167.382854 44.547693 
L 168.600458 43.754374 
L 169.757182 50.4261 
L 170.944347 48.619188 
L 172.131511 53.190851 
L 173.318675 45.209801 
L 174.475399 41.577957 
L 175.693004 43.048147 
L 176.910608 44.872013 
L 178.158653 36.852537 
L 179.284937 35.213615 
L 180.441661 37.631945 
L 181.628825 44.061714 
L 182.84643 58.082744 
L 184.064034 66.733442 
L 185.281639 55.47422 
L 186.407923 63.948351 
L 187.595087 55.469198 
L 188.751811 38.157199 
L 189.999856 29.140489 
L 191.18702 24.370939 
L 192.404625 27.164376 
L 193.530909 31.750058 
L 194.718073 33.695066 
L 198.279566 35.592459 
L 199.46673 27.804205 
L 200.623454 23.511586 
L 201.810619 20.922649 
L 202.997783 22.112781 
L 204.184947 26.602552 
L 205.372112 28.625733 
L 206.589716 31.730703 
L 207.77688 32.065137 
L 208.933605 31.166372 
L 210.120769 27.839464 
L 211.307933 26.98954 
L 213.651822 39.371968 
L 214.869426 52.633699 
L 216.056591 82.283935 
L 217.243755 286.521626 
L 218.400479 286.521626 
L 219.587643 99.014609 
L 220.744368 53.642679 
L 221.961972 39.047055 
L 223.118696 35.400216 
L 224.336301 46.095765 
L 225.493025 48.23746 
L 226.710629 62.749458 
L 227.897794 286.521626 
L 232.585571 286.521626 
L 233.772735 85.524193 
L 234.990339 72.380781 
L 236.177504 286.521626 
L 239.738997 286.521626 
L 240.834841 112.761097 
L 242.052445 286.521626 
L 243.239609 286.521626 
L 244.426774 60.260053 
L 245.583498 60.16937 
L 246.740222 55.660057 
L 247.896946 52.550537 
L 249.084111 43.895215 
L 250.362595 42.868637 
L 251.519319 36.482051 
L 252.706484 37.382883 
L 253.863208 41.353164 
L 255.080812 53.523772 
L 256.267977 50.762483 
L 257.546461 55.337174 
L 258.703186 53.701034 
L 259.89035 51.301359 
L 261.077514 55.346308 
L 262.234238 67.585422 
L 263.390963 286.521626 
L 270.483508 286.521626 
L 271.670673 58.030196 
L 272.918717 42.187341 
L 274.136322 38.012524 
L 275.384366 35.998029 
L 276.54109 38.49677 
L 277.758695 32.428846 
L 278.915419 37.428684 
L 280.133024 34.430403 
L 281.350628 34.050444 
L 282.476912 28.757395 
L 283.694516 24.337679 
L 284.820801 22.120826 
L 287.195129 20.50103 
L 288.382294 26.462913 
L 289.630338 30.462939 
L 290.817502 39.622249 
L 291.943786 44.267231 
L 293.191831 286.521626 
L 294.378995 55.637033 
L 295.53572 50.676432 
L 296.692444 60.94934 
L 297.849168 49.089379 
L 299.066772 40.462254 
L 300.223497 47.154854 
L 301.441101 67.729372 
L 302.628265 286.521626 
L 309.690371 286.521626 
L 310.847095 99.782142 
L 312.09514 59.052823 
L 313.221424 48.029976 
L 314.439028 40.96899 
L 315.595752 36.872427 
L 316.752477 35.444511 
L 317.939641 38.261868 
L 320.37485 37.736873 
L 321.501134 37.059357 
L 322.718738 54.085556 
L 323.875463 52.880794 
L 325.062627 49.295926 
L 326.280231 47.775778 
L 327.436956 52.770683 
L 328.59368 71.36006 
L 329.780844 86.681119 
L 330.968008 62.742545 
L 333.342337 42.086622 
L 334.833902 64.946375 
L 336.021067 61.166497 
L 337.329991 65.129235 
L 338.517156 64.504103 
L 339.70432 58.226635 
L 340.891484 286.521626 
L 353.889412 286.521626 
L 355.137456 61.162514 
L 356.20286 55.41461 
L 357.450905 46.761402 
L 358.607629 37.775519 
L 359.825233 44.427384 
L 361.012398 42.577559 
L 362.199562 38.544391 
L 363.417166 38.202114 
L 364.51301 44.235235 
L 365.700175 49.184653 
L 366.887339 45.79442 
L 368.135383 63.495937 
L 369.413868 50.467025 
L 370.479272 46.309781 
L 371.605556 61.298556 
L 372.823161 54.320599 
L 374.040765 42.751439 
L 375.227929 48.02056 
L 376.354213 61.294645 
L 377.602258 79.803857 
L 378.698102 286.521626 
L 383.507639 286.521626 
L 384.633923 101.332812 
L 385.760208 72.427511 
L 386.977812 105.329173 
L 388.256297 110.164175 
L 389.352141 286.521626 
L 396.840408 286.521626 
L 398.088452 59.347495 
L 399.275617 40.400152 
L 400.371461 32.023299 
L 401.710826 35.075871 
L 402.80667 39.478459 
L 403.963394 46.602138 
L 405.089678 57.033085 
L 406.429043 50.487517 
L 407.616207 49.129796 
L 408.742491 44.100553 
L 409.838335 42.742481 
L 411.08638 42.492575 
L 412.334424 39.987318 
L 413.491148 49.23776 
L 414.678313 63.202751 
L 415.865477 50.955973 
L 416.961321 38.285006 
L 418.300686 33.709555 
L 419.42697 26.807495 
L 420.553254 24.907588 
L 421.770858 25.328459 
L 422.897143 29.031339 
L 424.206067 40.940366 
L 425.149711 286.521626 
L 425.149711 286.521626 
" clip-path="url(#pbe3ad193bb)" style="fill: none; stroke: #ff0000; stroke-width: 2.5; stroke-linecap: square"/>
   </g>
   <g id="patch_3">
    <path d="M 60.598945 299.822656 
L 60.598945 7.2 
" style="fill: none; stroke: #000000; stroke-width: 1.5; stroke-linejoin: miter; stroke-linecap: square"/>
   </g>
   <g id="patch_4">
    <path d="M 60.598945 299.822656 
L 425.880273 299.822656 
" style="fill: none; stroke: #000000; stroke-width: 1.5; stroke-linejoin: miter; stroke-linecap: square"/>
   </g>
   <g id="legend_1">
    <g id="line2d_100">
     <path d="M 71.398945 22.536328 
L 83.398945 22.536328 
L 95.398945 22.536328 
" style="fill: none; stroke: #000000; stroke-width: 2.5; stroke-linecap: square"/>
    </g>
    <g id="text_18">
     <!-- vacuum -->
     <g transform="translate(104.998945 26.736328) scale(0.12 -0.12)">
      <defs>
       <path id="ArialMT-59" d="M 1344 0 
L 81 3319 
L 675 3319 
L 1388 1331 
Q 1503 1009 1600 663 
Q 1675 925 1809 1294 
L 2547 3319 
L 3125 3319 
L 1869 0 
L 1344 0 
z
" transform="scale(0.015625)"/>
       <path id="ArialMT-46" d="M 2588 1216 
L 3141 1144 
Q 3050 572 2676 248 
Q 2303 -75 1759 -75 
Q 1078 -75 664 370 
Q 250 816 250 1647 
Q 250 2184 428 2587 
Q 606 2991 970 3192 
Q 1334 3394 1763 3394 
Q 2303 3394 2647 3120 
Q 2991 2847 3088 2344 
L 2541 2259 
Q 2463 2594 2264 2762 
Q 2066 2931 1784 2931 
Q 1359 2931 1093 2626 
Q 828 2322 828 1663 
Q 828 994 1084 691 
Q 1341 388 1753 388 
Q 2084 388 2306 591 
Q 2528 794 2588 1216 
z
" transform="scale(0.015625)"/>
      </defs>
      <use xlink:href="#ArialMT-59"/>
      <use xlink:href="#ArialMT-44" transform="translate(50 0)"/>
      <use xlink:href="#ArialMT-46" transform="translate(105.609375 0)"/>
      <use xlink:href="#ArialMT-58" transform="translate(155.609375 0)"/>
      <use xlink:href="#ArialMT-58" transform="translate(211.21875 0)"/>
      <use xlink:href="#ArialMT-50" transform="translate(266.828125 0)"/>
     </g>
    </g>
    <g id="line2d_101">
     <path d="M 71.398945 39.798047 
L 83.398945 39.798047 
L 95.398945 39.798047 
" style="fill: none; stroke: #1f77b4; stroke-width: 2.5; stroke-linecap: square"/>
    </g>
    <g id="text_19">
     <!-- 1h -->
     <g transform="translate(104.998945 43.998047) scale(0.12 -0.12)">
      <defs>
       <path id="ArialMT-4b" d="M 422 0 
L 422 4581 
L 984 4581 
L 984 2938 
Q 1378 3394 1978 3394 
Q 2347 3394 2619 3248 
Q 2891 3103 3008 2847 
Q 3125 2591 3125 2103 
L 3125 0 
L 2563 0 
L 2563 2103 
Q 2563 2525 2380 2717 
Q 2197 2909 1863 2909 
Q 1613 2909 1392 2779 
Q 1172 2650 1078 2428 
Q 984 2206 984 1816 
L 984 0 
L 422 0 
z
" transform="scale(0.015625)"/>
      </defs>
      <use xlink:href="#ArialMT-14"/>
      <use xlink:href="#ArialMT-4b" transform="translate(55.609375 0)"/>
     </g>
    </g>
    <g id="line2d_102">
     <path d="M 71.398945 57.059766 
L 83.398945 57.059766 
L 95.398945 57.059766 
" style="fill: none; stroke: #0033ff; stroke-width: 2.5; stroke-linecap: square"/>
    </g>
    <g id="text_20">
     <!-- 2h -->
     <g transform="translate(104.998945 61.259766) scale(0.12 -0.12)">
      <use xlink:href="#ArialMT-15"/>
      <use xlink:href="#ArialMT-4b" transform="translate(55.609375 0)"/>
     </g>
    </g>
    <g id="line2d_103">
     <path d="M 71.398945 74.321484 
L 83.398945 74.321484 
L 95.398945 74.321484 
" style="fill: none; stroke: #ff7f0e; stroke-width: 2.5; stroke-linecap: square"/>
    </g>
    <g id="text_21">
     <!-- 4h -->
     <g transform="translate(104.998945 78.521484) scale(0.12 -0.12)">
      <use xlink:href="#ArialMT-17"/>
      <use xlink:href="#ArialMT-4b" transform="translate(55.609375 0)"/>
     </g>
    </g>
    <g id="line2d_104">
     <path d="M 71.398945 91.583203 
L 83.398945 91.583203 
L 95.398945 91.583203 
" style="fill: none; stroke: #ff0000; stroke-width: 2.5; stroke-linecap: square"/>
    </g>
    <g id="text_22">
     <!-- first -->
     <g transform="translate(104.998945 95.783203) scale(0.12 -0.12)">
      <defs>
       <path id="ArialMT-49" d="M 556 0 
L 556 2881 
L 59 2881 
L 59 3319 
L 556 3319 
L 556 3672 
Q 556 4006 616 4169 
Q 697 4388 901 4523 
Q 1106 4659 1475 4659 
Q 1713 4659 2000 4603 
L 1916 4113 
Q 1741 4144 1584 4144 
Q 1328 4144 1222 4034 
Q 1116 3925 1116 3625 
L 1116 3319 
L 1763 3319 
L 1763 2881 
L 1116 2881 
L 1116 0 
L 556 0 
z
" transform="scale(0.015625)"/>
       <path id="ArialMT-4c" d="M 425 3934 
L 425 4581 
L 988 4581 
L 988 3934 
L 425 3934 
z
M 425 0 
L 425 3319 
L 988 3319 
L 988 0 
L 425 0 
z
" transform="scale(0.015625)"/>
       <path id="ArialMT-56" d="M 197 991 
L 753 1078 
Q 800 744 1014 566 
Q 1228 388 1613 388 
Q 2000 388 2187 545 
Q 2375 703 2375 916 
Q 2375 1106 2209 1216 
Q 2094 1291 1634 1406 
Q 1016 1563 777 1677 
Q 538 1791 414 1992 
Q 291 2194 291 2438 
Q 291 2659 392 2848 
Q 494 3038 669 3163 
Q 800 3259 1026 3326 
Q 1253 3394 1513 3394 
Q 1903 3394 2198 3281 
Q 2494 3169 2634 2976 
Q 2775 2784 2828 2463 
L 2278 2388 
Q 2241 2644 2061 2787 
Q 1881 2931 1553 2931 
Q 1166 2931 1000 2803 
Q 834 2675 834 2503 
Q 834 2394 903 2306 
Q 972 2216 1119 2156 
Q 1203 2125 1616 2013 
Q 2213 1853 2448 1751 
Q 2684 1650 2818 1456 
Q 2953 1263 2953 975 
Q 2953 694 2789 445 
Q 2625 197 2315 61 
Q 2006 -75 1616 -75 
Q 969 -75 630 194 
Q 291 463 197 991 
z
" transform="scale(0.015625)"/>
      </defs>
      <use xlink:href="#ArialMT-49"/>
      <use xlink:href="#ArialMT-4c" transform="translate(27.78125 0)"/>
      <use xlink:href="#ArialMT-55" transform="translate(50 0)"/>
      <use xlink:href="#ArialMT-56" transform="translate(83.296875 0)"/>
      <use xlink:href="#ArialMT-57" transform="translate(133.296875 0)"/>
     </g>
    </g>
   </g>
  </g>
 </g>
 <defs>
  <clipPath id="pbe3ad193bb">
   <rect x="60.598945" y="7.2" width="365.281328" height="292.622656"/>
  </clipPath>
 </defs>
</svg>
